<?xml version="1.0" encoding="utf-8"?>
<!-- Generator: Adobe Illustrator 25.2.0, SVG Export Plug-In . SVG Version: 6.00 Build 0)  -->
<svg version="1.1" xmlns="http://www.w3.org/2000/svg" xmlns:xlink="http://www.w3.org/1999/xlink" x="0px" y="0px"
	 viewBox="0 0 200 200" style="enable-background:new 0 0 200 200;" xml:space="preserve">
<style type="text/css">
	.st0{display:none;}
	.st1{display:inline;fill:#203232;}
	.st2{fill:#FFFFFF;}
</style>
<g id="Layer_2" class="st0">
	<rect x="-7.6" y="-10.8" class="st1" width="213.8" height="204"/>
</g>
<g id="Layer_1">
	<title>Diversification-2c</title>
	<path class="st2" d="M120.2,89.4l38.4-46c8,5.6,13.8,13.8,16.7,23.1L120.2,89.4z"/>
	<path class="st2" d="M86.3,109.8l-1,58.9c-26-1.9-48.5-28.7-50.3-59.9c-1.1-18.7,4.8-34.2,16.8-44.2L86.3,109.8z"/>
	<path class="st2" d="M111.2,93L154,34.3l2.4,1.8c11,7.7,19.1,18.9,23,31.7l0.9,2.9L111.2,93z M155.3,42.8l-41.1,48l58.5-23.9
		C169.3,57.4,163.2,49,155.3,42.8L155.3,42.8z"/>
	<path class="st2" d="M93.8,111.7L54.2,57l2.4-1.8c22.7-16.4,51.9-16.3,74.5,0.2l2.4,1.8L93.8,111.7z"/>
	<path class="st2" d="M96.6,169.9h-3c-35-0.1-63.3-28.5-63.2-63.5C30.2,86.1,40,66.9,56.6,55.2l2.4-1.8l37.7,52.2L96.6,169.9z
		 M57.8,61.9c-14,11.1-21.3,26.4-21.4,44.6c0,30.5,23.8,55.7,54.2,57.4l0.1-56.3L57.8,61.9z"/>
	<path class="st2" d="M93.8,169.9h-3.2l0.2-65.6l62.4-20.1l0.9,2.8c10.7,33.3-7.6,69-40.9,79.8C107,168.9,100.4,170,93.8,169.9z
		 M96.8,108.7l-0.1,55.1c5-0.2,10-1.1,14.7-2.7c29.2-9.4,50.4-36.8,41.8-76.9L96.8,108.7z"/>
</g>
</svg>
