<?xml version="1.0" encoding="utf-8"?>
<!-- Generator: Adobe Illustrator 25.2.0, SVG Export Plug-In . SVG Version: 6.00 Build 0)  -->
<svg version="1.1" id="Layer_1" xmlns="http://www.w3.org/2000/svg" xmlns:xlink="http://www.w3.org/1999/xlink" x="0px" y="0px"
	 viewBox="0 0 250 250" style="enable-background:new 0 0 250 250;" xml:space="preserve">
<style type="text/css">
	.st0{display:none;}
	.st1{display:inline;fill:#213332;}
	.st2{fill:#FFFFFF;}
</style>
<g id="Layer_2_1_" class="st0">
	<rect x="10.9" y="14.8" class="st1" width="213.8" height="204"/>
</g>
<g id="Layer_1_1_">
	<g>
		<path class="st2" d="M168.5,65.1c-0.3-0.5-0.6-0.9-0.9-1.4c-1.4-2-3.1-4.1-5.1-5.9c0,1.4,0,2.8-0.2,4.2L168.5,65.1z"/>
		<path class="st2" d="M123.7,97.5l7-5.6l8.6,9.4l-5.8,6.4c1.1,2,2,4.2,2.7,6.6l8.9,1.1l-0.5,12.3l6.1-3.1c-0.3-2.3-0.3-4.7-0.2-7
			l-8-4.2l5-11.7l8.1,2.7c1.4-1.9,3-3.6,4.8-5l-2.7-8.6l11.7-4.7l3.9,7.6c0.8-0.2,1.4-0.2,2.2-0.2c0-10.6-2.2-19.3-6.1-26.5
			l-4.4,10.5l-8.1-2.7c-1.4,1.9-3,3.6-4.8,5l2.7,8.6L143.2,93l-3.9-7.6c-1.2,0.2-2.5,0.3-3.9,0.3c-1.1,0-2,0-3.1-0.2l-4.2,8
			l-11.2-4.8l0.3,6.1C119.5,95.4,121.7,96.3,123.7,97.5z"/>
		<polygon class="st2" points="116.9,88.6 116.9,87.7 116.6,88.6 		"/>
		<path class="st2" d="M162,156.2c0.5-1.2,0.9-2.5,1.2-3.7l-4.5-1.9l2.7-8.1c-1.9-1.4-3.6-3-5-4.8l-8.6,2.7l-4.7-11.7l0.8-0.5
			l-8,0.3c-0.6,2.2-1.6,4.4-2.8,6.4l5.6,7l-9.4,8.6l-6.4-5.8c-2,1.1-4.2,2-6.6,2.7l-1.1,8.9l-12.6-0.5l-0.5-8.6
			c-2.3-0.6-4.4-1.6-6.4-2.8l-7,5.6l-8.6-9.4l5.8-6.4c-1.1-2-2-4.2-2.7-6.6l-8.9-1.1l0.5-12.6l8.6-0.5c0.6-2.3,1.6-4.4,2.8-6.4
			l-5.6-7l9.4-8.6l6.4,5.8c2-1.1,4.2-2,6.6-2.7l1.1-8.9l12.6,0.5v1.6l2.3-7.2c-1.9-1.4-3.6-3-5-4.8l-8.6,2.7l-4.7-11.7l7.6-3.9
			c-0.3-2.3-0.3-4.7-0.2-7l-8-4.2l3.1-7.5c-7.3,1.2-13.9,3.4-17.8,7.2c-27,26.2-21.8,48.4-19.2,55.8l0.3,0.9c0.3,1.1,0.2,2.2-0.5,3
			l-17.2,21.7c-1.6,1.9-0.3,4.7,2,5l6.1,0.8c1.6,0.2,2.8,1.7,2.7,3.3l-1.6,27.1c0,4.8,3.9,8.9,8.6,9.2c0.2,0,0.5,0,0.6,0l31-3.9
			c1.9-0.3,3.6,1.2,3.6,3.3l-0.9,37.1c0,1.9,1.6,3.4,3.4,3.3l44.6-4.4c5-0.5,13.6-12.8,13.4-17.8l-1.6-38.5L162,156.2z"/>
	</g>
	<path class="st2" d="M160.2,65.7l-2.7-1.4l0.3-3c0.2-1.9,0.2-3.9-0.2-5.8l-0.5-3.1l2.8-1.4l4.1-2l-1.7-4.2l-4.7,1.4l-3,0.9
		l-1.9-2.3c-1.2-1.6-2.7-3-4.2-4.1l-2.5-1.9l0.9-3l1.4-4.2l-4.1-1.7l-2.2,4.2l-1.4,2.7l-3-0.3c-0.9-0.2-1.7-0.2-2.7-0.2
		c-1.1,0-2.2,0.2-3.3,0.2l-3.1,0.5l-1.4-2.8l-2-4.1l-4.2,1.7l1.4,4.7l0.9,3l-2.3,1.9c-1.6,1.2-3,2.7-4.1,4.2l-1.9,2.5l-3-0.9
		l-4.2-1.4l-1.7,4.1l4.2,2.2l2.7,1.4l-0.3,3c-0.2,1.9-0.2,3.9,0.2,5.8l0.5,3.1l-2.8,1.4l-4.1,2l1.7,4.1l4.7-1.4l3-0.9l1.9,2.3
		c1.2,1.6,2.7,3,4.2,4.1l2.5,1.9l-0.9,3l-1.4,4.2l4.1,1.7l2.2-4.2l1.4-2.7l3,0.3c0.9,0.2,1.7,0.2,2.7,0.2c1.1,0,2.2-0.2,3.3-0.3
		l3.1-0.5l1.4,2.8l2,4.1l4.1-1.7l-1.4-4.7l-0.9-3l2.3-1.9c1.6-1.2,3-2.7,4.1-4.2l1.9-2.5l3,0.9l4.2,1.4l1.7-4.1L160.2,65.7z
		 M135,74.5c-8.9,0-16.2-7.3-16.2-16.2c0-8.9,7.3-16.2,16.2-16.2c8.9,0,16.2,7.3,16.2,16.2S144,74.5,135,74.5z"/>
	<path class="st2" d="M135,44.7c-7.5,0-13.6,6.1-13.6,13.6c0,7.5,6.1,13.6,13.6,13.6s13.6-6.1,13.6-13.6S142.5,44.7,135,44.7z
		 M135.8,70.1c-6.1,0-11.1-5-11.1-11.1s5-11.1,11.1-11.1s11.1,5,11.1,11.1C146.8,65.1,141.8,70.1,135.8,70.1z"/>
	<path class="st2" d="M135.8,50.6c-4.7,0-8.4,3.7-8.4,8.4s3.7,8.4,8.4,8.4s8.4-3.7,8.4-8.4S140.4,50.6,135.8,50.6z"/>
	<g>
		<path class="st2" d="M115.2,107.8c-3.3-1.6-7-1.6-10.5-0.3c-3.4,1.2-6.1,3.9-7.6,7.2c-3.1,6.9,0,15,6.9,18.1
			c3.3,1.6,7,1.6,10.5,0.3s6.1-3.9,7.6-7.2c1.6-3.3,1.6-7,0.3-10.5C121.1,112,118.6,109.2,115.2,107.8z M120.2,125.9
			c-1.2,2.7-3.4,4.8-6.2,5.8c-1.2,0.5-2.7,0.8-3.9,0.8c-1.6,0-3.1-0.3-4.5-0.9c-5.6-2.5-8.1-9-5.6-14.7c1.2-2.7,3.4-4.8,6.2-5.8
			c2.8-1.1,5.8-0.9,8.4,0.2c2.7,1.2,4.8,3.4,5.8,6.2C121.4,120.2,121.4,123.1,120.2,125.9z"/>
		<path class="st2" d="M113.4,113.6c-1.1-0.5-2.3-0.8-3.4-0.8s-2,0.2-3,0.6c-2.2,0.8-3.7,2.3-4.7,4.5c-1.9,4.2,0,9.4,4.2,11.2
			c2,0.9,4.4,0.9,6.6,0.2c2.2-0.8,3.7-2.3,4.7-4.5c0.9-2,0.9-4.4,0.2-6.6C117.2,116.3,115.6,114.5,113.4,113.6z"/>
		<path class="st2" d="M135.6,118.6l-3-0.3l-0.8-3c-0.5-1.9-1.2-3.7-2.2-5.5l-1.6-2.8l2.2-2.3l3.1-3.4l-3.1-3.3l-3.9,3l-2.3,1.9
			l-2.7-1.6c-1.7-0.9-3.4-1.7-5.5-2.3l-3.1-0.9l-0.2-3.1l-0.2-4.5l-4.5-0.2l-0.6,4.8l-0.3,3l-3,0.8c-1.9,0.5-3.7,1.2-5.5,2.2
			l-2.8,1.6l-2.3-2.2L90,97.2l-3.3,3.1l3,3.9l1.9,2.3l-1.6,2.7c-0.9,1.7-1.7,3.4-2.3,5.5l-0.9,3.1l-3.1,0.2l-4.5,0.2l-0.2,4.5
			l4.8,0.6l3,0.3l0.8,3c0.5,1.9,1.2,3.7,2.2,5.5l1.6,2.8l-2.2,2.3l-3.1,3.4l3.1,3.3l3.9-3l2.3-1.9l2.7,1.6c1.7,0.9,3.4,1.7,5.3,2.3
			l3.1,0.9l0.2,3.1l0.2,4.5l4.5,0.2l0.6-4.8l0.3-3l3-0.8c1.9-0.5,3.7-1.2,5.5-2.2l2.8-1.6l2.3,2.2l3.4,3.1l3.3-3.1l-3-3.9l-1.9-2.3
			l1.6-2.7c0.9-1.7,1.7-3.4,2.3-5.5l0.9-3.1l3.1-0.2l4.5-0.2l0.2-4.5L135.6,118.6z M124.5,126.9c-1.7,3.9-5,7-9,8.6
			c-1.9,0.8-3.9,1.1-5.8,1.1c-2.2,0-4.5-0.5-6.6-1.4c-8.3-3.6-11.9-13.3-8.3-21.5c1.7-3.9,5-7,9-8.6c4.1-1.6,8.4-1.4,12.5,0.3
			c3.9,1.7,7,5,8.6,9C126.4,118.6,126.2,123,124.5,126.9z"/>
	</g>
	<g>
		<path class="st2" d="M177.1,106.6c-7.5,0-13.6,6.1-13.6,13.6c0,7.5,6.1,13.6,13.6,13.6c7.5,0,13.6-6.1,13.6-13.6
			C190.7,112.7,184.6,106.6,177.1,106.6z M177.9,132c-6.1,0-11.1-5-11.1-11.1s5-11.1,11.1-11.1c6.1,0,11.1,5,11.1,11.1
			C188.9,127,183.9,132,177.9,132z"/>
		<path class="st2" d="M177.9,112.5c-4.7,0-8.4,3.7-8.4,8.4s3.7,8.4,8.4,8.4s8.4-3.7,8.4-8.4S182.5,112.5,177.9,112.5z"/>
		<path class="st2" d="M202.4,127.6l-2.7-1.4l0.3-3c0.2-1.9,0.2-3.9-0.2-5.8l-0.5-3.1l2.8-1.4l4.1-2l-1.7-4.2l-4.7,1.4l-3,0.9
			l-1.9-2.3c-1.2-1.6-2.7-3-4.2-4.1l-2.5-1.9l0.9-3l1.4-4.2l-4.1-1.7l-2.2,4.2l-1.4,2.7l-3-0.3c-0.9-0.2-1.7-0.2-2.7-0.2
			c-1.1,0-2.2,0.2-3.3,0.2l-3.1,0.5l-1.4-2.8l-2-4.1l-4.1,1.7l1.4,4.7l0.9,3l-2.3,1.9c-1.6,1.2-3,2.7-4.1,4.2l-1.9,2.5l-3-0.9
			l-4.2-1.4l-1.7,4.1l4.2,2.2l2.7,1.4l-0.3,3c-0.2,1.9-0.2,3.9,0.2,5.8l0.5,3.1l-2.8,1.4l-4.1,2l1.7,4.1l4.7-1.4l3-0.9l1.9,2.3
			c1.2,1.6,2.7,3,4.2,4.1l2.5,1.9l-0.9,3l-1.4,4.2l4.1,1.7l2.2-4.2l1.4-2.7l3,0.3c0.9,0.2,1.7,0.2,2.7,0.2c1.1,0,2.2-0.2,3.3-0.3
			l3.1-0.5l1.4,2.8l2,4.1l4.1-1.7l-1.4-4.7l-0.9-3l2.3-1.9c1.6-1.2,3-2.7,4.1-4.2l1.9-2.5l3,0.9l4.2,1.4l1.7-4.1L202.4,127.6z
			 M177.1,136.4c-8.9,0-16.2-7.3-16.2-16.2c0-8.9,7.3-16.2,16.2-16.2c8.9,0,16.2,7.3,16.2,16.2S186,136.4,177.1,136.4z"/>
	</g>
</g>
</svg>
