<?xml version="1.0" encoding="utf-8"?>
<!-- Generator: Adobe Illustrator 25.2.0, SVG Export Plug-In . SVG Version: 6.00 Build 0)  -->
<svg version="1.1" xmlns="http://www.w3.org/2000/svg" xmlns:xlink="http://www.w3.org/1999/xlink" x="0px" y="0px"
	 viewBox="0 0 250 250" style="enable-background:new 0 0 250 250;" xml:space="preserve">
<style type="text/css">
	.st0{display:none;}
	.st1{display:inline;}
	.st2{fill:#FFFFFF;}
</style>
<g id="Layer_2" class="st0">
	<rect class="st1" width="250" height="250"/>
</g>
<g id="Layer_1">
	<path class="st2" d="M167.5,67.2l0.4-0.4l40.5,1.7c0.4,0,0.7-0.2,1-0.5c0.3-0.3,0.4-0.6,0.5-1l0.2-10.6l17.4,19.6
		c0.3,0.4,0.3,0.8,0,1.1c-0.2,0.2-0.5,0.3-0.8,0.3c-0.3,0-0.5-0.2-0.6-0.4C181.1,70.1,169.4,67.8,167.5,67.2z"/>
	<path class="st2" d="M204.2,84.6l1.8,0c1.4,0,2.6,1.1,2.5,2.4l-0.2,6.1l16.8-14.7c0.7-0.6,0.8-1.6,0.2-2.3l-14.8-16.5l-0.2,6
		c0,0.3-0.2,0.6-0.4,0.8c-0.2,0.2-0.6,0.3-0.9,0.3l-46.9-2c-0.7,0-1.2-0.5-1.2-1.1c0-0.3,0.2-0.6,0.4-0.8c0.2-0.2,0.5-0.2,0.8-0.3
		l42.7-1l0.3-6.1c0-0.3,0.2-0.6,0.4-0.8c0.2-0.2,0.5-0.3,0.8-0.3c1.6-0.1,6.9-0.1,7.3,0.3l18.6,21.1c0.5,0.5,0.7,1.1,0.7,1.7
		c0,0.6-0.3,1.2-0.9,1.6l-24.1,19.2c-0.2,0.1-0.4,0.2-0.7,0.2l-2.8-0.1c-0.3,0-0.5-0.1-0.7-0.3c-0.2-0.2-0.3-0.4-0.3-0.6l0.3-8.9
		L204.2,84.6z"/>
	<path class="st2" d="M84.3,169.2l-0.4-0.4l-40.5,1.7c-0.4,0-0.7-0.2-1-0.5c-0.3-0.3-0.4-0.6-0.5-1l-0.2-10.6l-17.4,19.6
		c-0.3,0.4-0.3,0.8,0,1.1c0.2,0.2,0.5,0.3,0.8,0.3c0.3,0,0.5-0.2,0.6-0.4C70.7,172.1,82.4,169.8,84.3,169.2z"/>
	<path class="st2" d="M69.9,189.2l-22.2,1.2l0.3,8.9c0,0.2-0.1,0.5-0.3,0.6c-0.2,0.2-0.4,0.3-0.7,0.3l-2.8,0.1
		c-0.3,0-0.5-0.1-0.7-0.2l-24.1-19.2c-0.5-0.4-0.8-1-0.9-1.6c0-0.6,0.2-1.2,0.7-1.7l18.6-21.1c0.5-0.4,5.8-0.4,7.3-0.3
		c0.3,0,0.6,0.1,0.8,0.3c0.3,0.2,0.4,0.5,0.4,0.8l0.3,6.1l42.7,1c0.3,0,0.5,0.1,0.8,0.3c0.3,0.2,0.4,0.5,0.4,0.8
		c0,0.6-0.5,1.1-1.2,1.1l-46.9,2c-0.3,0-0.6-0.1-0.9-0.3c-0.3-0.2-0.4-0.5-0.4-0.8l-0.2-6L26.5,178c-0.6,0.7-0.6,1.7,0.2,2.3
		L43.4,195l-0.2-6.1c0-1.3,1.1-2.3,2.5-2.4l24.1,0.4c0.2,0,0.5,0.1,0.7,0.2c0.2,0.2,0.3,0.4,0.4,0.6l0,0.5
		C70.9,188.8,70.4,189.2,69.9,189.2z"/>
	<path class="st2" d="M201.3,151V84.6h-147c-2.1,0-3.9,1.7-3.9,3.9v71.6h9.3V97.8c0-2.1,1.7-3.9,3.9-3.9H192v54.2
		c0,2-1.6,3.7-3.6,3.9l-113.1,8.3h122.1c2.1,0,3.9-1.7,3.9-3.9L201.3,151L201.3,151z"/>
	<g>
		<path class="st2" d="M125.5,99.8c-12.6,0-22.8,10.2-22.8,22.8c0,12.6,10.2,22.8,22.8,22.8c12.6,0,22.8-10.2,22.8-22.8
			C148.3,110,138.1,99.8,125.5,99.8z M127.7,135.6v4h-4.5v-3.9c-3.6-0.3-7.2-1.5-9.6-3.4l2.8-4.3c1.6,1.2,4.1,2.4,6.8,2.7v-6.5
			l-0.2,0c-4.9-0.8-8.5-2.9-8.4-7.7c0.1-4.6,3.7-7.5,8.6-8.2v-3.8h4.5v3.7c3.4,0.3,5.9,1.4,8.4,2.8l-2.5,4.3c-1.7-1-3.6-1.9-5.9-2.2
			v6.4c4.9,0.8,8.8,2.9,8.7,7.5C136.3,132.2,132.5,134.9,127.7,135.6z"/>
		<path class="st2" d="M127.7,125.1v5.6c1.9-0.4,3.1-1.4,3.1-2.9C130.9,126.4,129.8,125.6,127.7,125.1z"/>
		<path class="st2" d="M120.2,116.3c0,1.4,1.1,2.2,3.1,2.7v-5.6C121.4,113.9,120.2,114.9,120.2,116.3z"/>
	</g>
</g>
</svg>
