<?xml version="1.0" encoding="utf-8"?>
<!-- Generator: Adobe Illustrator 24.3.0, SVG Export Plug-In . SVG Version: 6.00 Build 0)  -->
<svg version="1.1" id="Layer_1" xmlns="http://www.w3.org/2000/svg" xmlns:xlink="http://www.w3.org/1999/xlink" x="0px" y="0px"
	 viewBox="0 0 1200 454" style="enable-background:new 0 0 1200 454;" xml:space="preserve">
<style type="text/css">
	.st0{fill:#203232;}
	.st1{fill:none;stroke:#203232;stroke-miterlimit:10;}
	.st2{fill:#8F9898;}
	.st3{fill:#F47E20;}
	.st4{fill:none;stroke:#203232;stroke-width:0.75;stroke-miterlimit:10;}
	.st5{fill:none;stroke:#203232;stroke-width:2;stroke-miterlimit:10;}
	.st6{fill:none;stroke:#203232;stroke-width:2;stroke-miterlimit:10;stroke-dasharray:5.0122,3.0073;}
</style>
<g>
	<path class="st0" d="M97.6,367.4c0.9-1.2,2.6-2.9,5.7-2.9c3.5,0,5.7,2.2,5.7,5.4c0,2.1-1,3.5-2.4,4.9l-3.6,3.7h6.4v3H98.4V379
		l5.9-6.1c0.9-0.9,1.4-1.8,1.4-2.9c0-1.5-1-2.5-2.6-2.5c-1.6,0-2.5,0.9-3.4,1.8L97.6,367.4z"/>
	<path class="st0" d="M120.6,369c0,2.6-2,4.6-4.7,4.6c-2.7,0-4.7-2-4.7-4.6c0-2.6,2-4.6,4.7-4.6C118.6,364.5,120.6,366.4,120.6,369z
		 M113.9,369c0,1.2,0.9,2.1,2,2.1c1.2,0,2-0.9,2-2.1c0-1.2-0.9-2.1-2-2.1C114.8,367,113.9,367.8,113.9,369z M118.1,381.6H115
		l11.3-16.8h3.1L118.1,381.6z M133.2,377.3c0,2.6-2,4.6-4.7,4.6c-2.7,0-4.7-2-4.7-4.6c0-2.6,2-4.6,4.7-4.6
		C131.2,372.7,133.2,374.7,133.2,377.3z M126.5,377.3c0,1.2,0.9,2.1,2,2.1c1.2,0,2-0.9,2-2.1c0-1.2-0.9-2.1-2-2.1
		C127.3,375.2,126.5,376.1,126.5,377.3z"/>
</g>
<g>
	<path class="st0" d="M224.2,367.8c0.9-1.2,2.6-2.9,5.7-2.9c3.5,0,5.7,2.2,5.7,5.4c0,2.1-1,3.5-2.4,4.9l-3.6,3.7h6.4v3h-11.1v-2.5
		l5.9-6.1c0.9-0.9,1.4-1.8,1.4-2.9c0-1.5-1-2.5-2.6-2.5c-1.6,0-2.5,0.9-3.4,1.8L224.2,367.8z"/>
	<path class="st0" d="M247.2,369.4c0,2.6-2,4.6-4.7,4.6c-2.7,0-4.7-2-4.7-4.6c0-2.6,2-4.6,4.7-4.6
		C245.2,364.9,247.2,366.8,247.2,369.4z M240.5,369.4c0,1.2,0.9,2.1,2,2.1c1.2,0,2-0.9,2-2.1c0-1.2-0.9-2.1-2-2.1
		C241.3,367.4,240.5,368.2,240.5,369.4z M244.7,382h-3.1l11.3-16.8h3.1L244.7,382z M259.8,377.7c0,2.6-2,4.6-4.7,4.6
		c-2.7,0-4.7-2-4.7-4.6c0-2.6,2-4.6,4.7-4.6C257.8,373.1,259.8,375.1,259.8,377.7z M253.1,377.7c0,1.2,0.9,2.1,2,2.1
		c1.2,0,2-0.9,2-2.1c0-1.2-0.9-2.1-2-2.1C253.9,375.6,253.1,376.5,253.1,377.7z"/>
</g>
<g>
	<path class="st0" d="M360.9,353h2.3v3h-2.3v3.1h-3.2V356h-7.4v-2.4l5.9-11.4h3.6l-5.6,10.7h3.6v-4.5h3.2V353z"/>
	<path class="st0" d="M374,346.6c0,2.6-2,4.6-4.7,4.6c-2.7,0-4.7-2-4.7-4.6c0-2.6,2-4.6,4.7-4.6C372,342,374,343.9,374,346.6z
		 M367.3,346.6c0,1.2,0.9,2.1,2,2.1c1.2,0,2-0.9,2-2.1c0-1.2-0.9-2.1-2-2.1C368.1,344.5,367.3,345.4,367.3,346.6z M371.5,359.1h-3.1
		l11.3-16.8h3.1L371.5,359.1z M386.6,354.8c0,2.6-2,4.6-4.7,4.6c-2.7,0-4.7-2-4.7-4.6c0-2.6,2-4.6,4.7-4.6
		C384.6,350.2,386.6,352.2,386.6,354.8z M379.9,354.8c0,1.2,0.9,2.1,2,2.1c1.2,0,2-0.9,2-2.1c0-1.2-0.9-2.1-2-2.1
		C380.7,352.7,379.9,353.6,379.9,354.8z"/>
</g>
<g>
	<path class="st0" d="M487.4,353.2h2.3v3h-2.3v3.1h-3.2v-3.1h-7.4v-2.4l5.9-11.4h3.6l-5.6,10.7h3.6v-4.5h3.2V353.2z"/>
	<path class="st0" d="M500.5,346.7c0,2.6-2,4.6-4.7,4.6c-2.7,0-4.7-2-4.7-4.6c0-2.6,2-4.6,4.7-4.6
		C498.5,342.2,500.5,344.1,500.5,346.7z M493.8,346.7c0,1.2,0.9,2.1,2,2.1c1.2,0,2-0.9,2-2.1c0-1.2-0.9-2.1-2-2.1
		C494.7,344.7,493.8,345.5,493.8,346.7z M498.1,359.2h-3.1l11.3-16.8h3.1L498.1,359.2z M513.1,355c0,2.6-2,4.6-4.7,4.6
		c-2.7,0-4.7-2-4.7-4.6c0-2.6,2-4.6,4.7-4.6C511.1,350.4,513.1,352.3,513.1,355z M506.4,355c0,1.2,0.9,2.1,2,2.1c1.2,0,2-0.9,2-2.1
		c0-1.2-0.9-2.1-2-2.1C507.3,352.9,506.4,353.8,506.4,355z"/>
</g>
<g>
	<path class="st0" d="M614,353.1h2.3v3H614v3.1h-3.2v-3.1h-7.4v-2.4l5.9-11.4h3.6l-5.6,10.7h3.6v-4.5h3.2V353.1z"/>
	<path class="st0" d="M627.1,346.7c0,2.6-2,4.6-4.7,4.6c-2.7,0-4.7-2-4.7-4.6c0-2.6,2-4.6,4.7-4.6
		C625.1,342.1,627.1,344.1,627.1,346.7z M620.4,346.7c0,1.2,0.9,2.1,2,2.1c1.2,0,2-0.9,2-2.1c0-1.2-0.9-2.1-2-2.1
		C621.3,344.7,620.4,345.5,620.4,346.7z M624.6,359.2h-3.1l11.3-16.8h3.1L624.6,359.2z M639.7,355c0,2.6-2,4.6-4.7,4.6
		c-2.7,0-4.7-2-4.7-4.6c0-2.6,2-4.6,4.7-4.6C637.7,350.4,639.7,352.3,639.7,355z M633,355c0,1.2,0.9,2.1,2,2.1c1.2,0,2-0.9,2-2.1
		c0-1.2-0.9-2.1-2-2.1C633.9,352.9,633,353.7,633,355z"/>
</g>
<g>
	<path class="st0" d="M741.4,333.9h-6.8l-0.1,3.4h1.9c3.9,0,5.9,2.2,5.9,5c0,3.6-2.7,5.7-6.1,5.7c-2.5,0-4.6-0.9-5.9-2.5l1.8-2.3
		c0.9,1,2.6,1.8,4.1,1.8c1.9,0,2.8-1.1,2.8-2.4c0-1.3-0.8-2.4-3.4-2.4h-4l0.2-9.3h9.7V333.9z"/>
	<path class="st0" d="M753.7,335.2c0,2.6-2,4.6-4.7,4.6c-2.7,0-4.7-2-4.7-4.6c0-2.6,2-4.6,4.7-4.6
		C751.7,330.6,753.7,332.5,753.7,335.2z M747,335.2c0,1.2,0.9,2.1,2,2.1c1.2,0,2-0.9,2-2.1c0-1.2-0.9-2.1-2-2.1
		C747.8,333.1,747,334,747,335.2z M751.2,347.7h-3.1l11.3-16.8h3.1L751.2,347.7z M766.3,343.4c0,2.6-2,4.6-4.7,4.6
		c-2.7,0-4.7-2-4.7-4.6c0-2.6,2-4.6,4.7-4.6C764.3,338.8,766.3,340.8,766.3,343.4z M759.6,343.4c0,1.2,0.9,2.1,2,2.1
		c1.2,0,2-0.9,2-2.1c0-1.2-0.9-2.1-2-2.1C760.4,341.3,759.6,342.2,759.6,343.4z"/>
</g>
<g>
	<path class="st0" d="M867.1,352.8h2.3v3h-2.3v3.1h-3.2v-3.1h-7.4v-2.4l5.9-11.4h3.6l-5.6,10.7h3.6v-4.5h3.2V352.8z"/>
	<path class="st0" d="M880.2,346.4c0,2.6-2,4.6-4.7,4.6c-2.7,0-4.7-2-4.7-4.6c0-2.6,2-4.6,4.7-4.6
		C878.2,341.8,880.2,343.8,880.2,346.4z M873.5,346.4c0,1.2,0.9,2.1,2,2.1c1.2,0,2-0.9,2-2.1c0-1.2-0.9-2.1-2-2.1
		C874.4,344.3,873.5,345.2,873.5,346.4z M877.8,358.9h-3.1l11.3-16.8h3.1L877.8,358.9z M892.8,354.6c0,2.6-2,4.6-4.7,4.6
		c-2.7,0-4.7-2-4.7-4.6c0-2.6,2-4.6,4.7-4.6C890.8,350.1,892.8,352,892.8,354.6z M886.1,354.6c0,1.2,0.9,2.1,2,2.1
		c1.2,0,2-0.9,2-2.1s-0.9-2.1-2-2.1C887,352.6,886.1,353.4,886.1,354.6z"/>
</g>
<g>
	<path class="st0" d="M987.6,279.8h-3.2v-12.5l-4,1.6v-3.3l7.3-2.9V279.8z"/>
	<path class="st0" d="M997.4,279.8h-3.2v-12.5l-4,1.6v-3.3l7.3-2.9V279.8z"/>
	<path class="st0" d="M1009.6,267.3c0,2.6-2,4.6-4.7,4.6c-2.7,0-4.7-2-4.7-4.6c0-2.6,2-4.6,4.7-4.6
		C1007.6,262.7,1009.6,264.6,1009.6,267.3z M1002.9,267.3c0,1.2,0.9,2.1,2,2.1c1.2,0,2-0.9,2-2.1c0-1.2-0.9-2.1-2-2.1
		C1003.8,265.2,1002.9,266.1,1002.9,267.3z M1007.2,279.8h-3.1l11.3-16.8h3.1L1007.2,279.8z M1022.3,275.5c0,2.6-2,4.6-4.7,4.6
		c-2.7,0-4.7-2-4.7-4.6c0-2.6,2-4.6,4.7-4.6C1020.3,270.9,1022.3,272.9,1022.3,275.5z M1015.5,275.5c0,1.2,0.9,2.1,2,2.1
		c1.2,0,2-0.9,2-2.1c0-1.2-0.9-2.1-2-2.1C1016.4,273.4,1015.5,274.3,1015.5,275.5z"/>
</g>
<g>
	<path class="st0" d="M1103.1,94.7c0.9-1.2,2.6-2.9,5.7-2.9c3.5,0,5.7,2.2,5.7,5.4c0,2.1-1,3.5-2.4,4.9l-3.6,3.7h6.4v3h-11.1v-2.5
		l5.9-6.1c0.9-0.9,1.4-1.8,1.4-2.9c0-1.5-1-2.5-2.6-2.5c-1.6,0-2.5,0.9-3.4,1.8L1103.1,94.7z"/>
	<path class="st0" d="M1122.5,98c0.2,0,0.5,0,0.8,0c3.4,0,5.8,2.4,5.8,5.6c0,3.3-2.7,5.7-6.3,5.7c-3.6,0-6.3-2.4-6.3-5.7
		c0-1.5,0.6-2.9,1.6-4.5l4.7-7h3.9L1122.5,98z M1119.9,103.5c0,1.6,1.3,2.8,2.9,2.8c1.7,0,3-1.1,3-2.8c0-1.6-1.3-2.8-3-2.8
		C1121.2,100.8,1119.9,101.9,1119.9,103.5z"/>
	<path class="st0" d="M1140.2,96.4c0,2.6-2,4.6-4.7,4.6c-2.7,0-4.7-2-4.7-4.6c0-2.6,2-4.6,4.7-4.6
		C1138.2,91.8,1140.2,93.8,1140.2,96.4z M1133.5,96.4c0,1.2,0.9,2.1,2,2.1c1.2,0,2-0.9,2-2.1c0-1.2-0.9-2.1-2-2.1
		C1134.4,94.3,1133.5,95.2,1133.5,96.4z M1137.7,108.9h-3.1l11.3-16.8h3.1L1137.7,108.9z M1152.8,104.7c0,2.6-2,4.6-4.7,4.6
		c-2.7,0-4.7-2-4.7-4.6c0-2.6,2-4.6,4.7-4.6C1150.8,100.1,1152.8,102,1152.8,104.7z M1146.1,104.7c0,1.2,0.9,2.1,2,2.1
		c1.2,0,2-0.9,2-2.1s-0.9-2.1-2-2.1C1147,102.6,1146.1,103.4,1146.1,104.7z"/>
</g>
<g>
	<path class="st0" d="M67.8,438.8v5.1H65v-14h5.7c3.3,0,5.1,1.7,5.1,4.4c0,2.7-1.8,4.4-5.1,4.4H67.8z M67.8,432.5v3.8h2.9
		c1.5,0,2.3-0.6,2.3-1.9c0-1.2-0.8-1.9-2.3-1.9H67.8z"/>
	<path class="st0" d="M80.6,435.2c0.7-1,1.7-1.3,2.8-1.3c2.2,0,3.8,1.5,3.8,3.8v6.2h-2.6v-5.3c0-1.4-0.7-2.2-1.9-2.2
		c-1.1,0-2,0.7-2,2.2v5.3H78v-14.4h2.6V435.2z"/>
	<path class="st0" d="M92.8,431c0,0.9-0.7,1.7-1.7,1.7s-1.7-0.7-1.7-1.7s0.7-1.7,1.7-1.7S92.8,430.1,92.8,431z M92.4,443.9h-2.6
		v-9.7h2.6V443.9z"/>
	<path class="st0" d="M97.8,443.9h-2.6v-14.4h2.6V443.9z"/>
	<path class="st0" d="M103.5,431c0,0.9-0.7,1.7-1.7,1.7s-1.7-0.7-1.7-1.7s0.7-1.7,1.7-1.7S103.5,430.1,103.5,431z M103.1,443.9h-2.6
		v-9.7h2.6V443.9z"/>
	<path class="st0" d="M116,439c0,2.9-2,5.1-4.7,5.1c-1.3,0-2.2-0.5-2.8-1.3v5h-2.6v-13.7h2.5v1.1c0.6-0.8,1.6-1.3,2.9-1.3
		C114,433.9,116,436.1,116,439z M108.3,439c0,1.5,1,2.7,2.5,2.7c1.5,0,2.5-1.2,2.5-2.7c0-1.5-1-2.7-2.5-2.7
		C109.3,436.4,108.3,437.5,108.3,439z"/>
	<path class="st0" d="M128.3,439c0,2.9-2,5.1-4.7,5.1c-1.3,0-2.2-0.5-2.8-1.3v5h-2.6v-13.7h2.5v1.1c0.6-0.8,1.6-1.3,2.9-1.3
		C126.3,433.9,128.3,436.1,128.3,439z M120.6,439c0,1.5,1,2.7,2.5,2.7c1.5,0,2.5-1.2,2.5-2.7c0-1.5-1-2.7-2.5-2.7
		C121.6,436.4,120.6,437.5,120.6,439z"/>
	<path class="st0" d="M133.4,431c0,0.9-0.7,1.7-1.7,1.7S130,432,130,431s0.7-1.7,1.7-1.7S133.4,430.1,133.4,431z M133,443.9h-2.6
		v-9.7h2.6V443.9z"/>
	<path class="st0" d="M144.9,437.7v6.2h-2.6v-5.3c0-1.4-0.7-2.2-1.9-2.2c-1.1,0-2,0.7-2,2.2v5.3h-2.6v-9.7h2.5v1.1
		c0.7-1,1.7-1.4,2.8-1.4C143.3,433.9,144.9,435.5,144.9,437.7z"/>
	<path class="st0" d="M156.6,439c0,0.3,0,0.7,0,0.9h-6.9c0.3,1.4,1.3,2,2.5,2c0.8,0,1.7-0.3,2.4-0.9l1.5,1.7c-1.1,1-2.5,1.5-4.1,1.5
		c-3,0-5-2-5-5.1s2-5.1,4.9-5.1C154.7,433.9,156.6,436,156.6,439z M149.7,438.1h4.3c-0.2-1.2-1-1.9-2.1-1.9
		C150.6,436.2,149.9,436.9,149.7,438.1z"/>
	<path class="st0" d="M165.7,436.9c-0.8-0.4-2-0.8-3.1-0.8c-1,0-1.5,0.3-1.5,0.9c0,0.6,0.7,0.7,1.6,0.8l0.9,0.1
		c2.1,0.3,3.3,1.3,3.3,2.9c0,2-1.6,3.3-4.4,3.3c-1.3,0-3-0.2-4.3-1.1l1-2c0.8,0.6,1.8,1,3.3,1c1.2,0,1.8-0.3,1.8-0.9
		c0-0.5-0.5-0.7-1.6-0.9l-0.8-0.1c-2.2-0.3-3.3-1.3-3.3-2.9c0-2,1.5-3.2,4.1-3.2c1.5,0,2.8,0.3,4,0.9L165.7,436.9z"/>
</g>
<g>
	<path class="st0" d="M215.3,443.9h-2.8v-10.6l-3.5,9.2h-2.9l-3.5-9.1v10.5h-2.8v-14h4.1l3.6,9.4l3.6-9.4h4.1V443.9z"/>
	<path class="st0" d="M227.8,443.9h-2.5v-1.1c-0.6,0.8-1.6,1.3-2.9,1.3c-2.7,0-4.7-2.2-4.7-5.1c0-2.9,2-5.1,4.7-5.1
		c1.3,0,2.3,0.5,2.9,1.3v-1.1h2.5V443.9z M220.3,439c0,1.5,1,2.7,2.5,2.7c1.5,0,2.5-1.1,2.5-2.7c0-1.5-1-2.7-2.5-2.7
		C221.3,436.4,220.3,437.6,220.3,439z"/>
	<path class="st0" d="M233.1,443.9h-2.6v-14.4h2.6V443.9z"/>
	<path class="st0" d="M245.4,443.9h-2.5v-1.1c-0.6,0.8-1.6,1.3-2.9,1.3c-2.7,0-4.7-2.2-4.7-5.1c0-2.9,2-5.1,4.7-5.1
		c1.3,0,2.3,0.5,2.9,1.3v-1.1h2.5V443.9z M237.9,439c0,1.5,1,2.7,2.5,2.7c1.5,0,2.5-1.1,2.5-2.7c0-1.5-1-2.7-2.5-2.7
		C238.9,436.4,237.9,437.6,237.9,439z"/>
	<path class="st0" d="M250.5,447.9h-2.9l3.4-6.1l-4.2-7.6h3l2.7,5l2.6-5h2.9L250.5,447.9z"/>
	<path class="st0" d="M266.4,436.9c-0.8-0.4-2-0.8-3.1-0.8c-1,0-1.5,0.3-1.5,0.9c0,0.6,0.7,0.7,1.6,0.8l0.9,0.1
		c2.1,0.3,3.3,1.3,3.3,2.9c0,2-1.6,3.3-4.4,3.3c-1.3,0-3-0.2-4.3-1.1l1-2c0.8,0.5,1.8,0.9,3.3,0.9c1.2,0,1.8-0.3,1.8-0.9
		c0-0.5-0.5-0.7-1.6-0.9l-0.8-0.1c-2.2-0.3-3.3-1.3-3.3-2.9c0-2,1.5-3.2,4.1-3.2c1.5,0,2.8,0.3,4,0.9L266.4,436.9z"/>
	<path class="st0" d="M272.5,431c0,0.9-0.7,1.7-1.7,1.7s-1.7-0.7-1.7-1.7s0.7-1.7,1.7-1.7S272.5,430.1,272.5,431z M272.2,443.9h-2.6
		v-9.7h2.6V443.9z"/>
	<path class="st0" d="M284.4,443.9h-2.5v-1.1c-0.6,0.8-1.6,1.3-2.9,1.3c-2.7,0-4.7-2.2-4.7-5.1c0-2.9,2-5.1,4.7-5.1
		c1.3,0,2.3,0.5,2.9,1.3v-1.1h2.5V443.9z M277,439c0,1.5,1,2.7,2.5,2.7c1.5,0,2.5-1.1,2.5-2.7c0-1.5-1-2.7-2.5-2.7
		C277.9,436.4,277,437.6,277,439z"/>
</g>
<g>
	<path class="st0" d="M338.7,432.5h-4.3v11.4h-2.8v-11.4h-4.3v-2.6h11.5V432.5z"/>
	<path class="st0" d="M343,435.2c0.7-1,1.7-1.3,2.8-1.3c2.2,0,3.8,1.5,3.8,3.8v6.2H347v-5.3c0-1.4-0.7-2.2-1.9-2.2
		c-1.1,0-2,0.7-2,2.2v5.3h-2.6v-14.4h2.6V435.2z"/>
	<path class="st0" d="M361.8,443.9h-2.5v-1.1c-0.6,0.8-1.6,1.3-2.9,1.3c-2.7,0-4.7-2.2-4.7-5.1s2-5.1,4.7-5.1c1.3,0,2.3,0.5,2.9,1.3
		v-1.1h2.5V443.9z M354.3,439c0,1.5,1,2.7,2.5,2.7c1.5,0,2.5-1.1,2.5-2.7s-1-2.7-2.5-2.7C355.3,436.4,354.3,437.6,354.3,439z"/>
	<path class="st0" d="M367.5,431c0,0.9-0.7,1.7-1.7,1.7s-1.7-0.7-1.7-1.7s0.7-1.7,1.7-1.7S367.5,430.1,367.5,431z M367.1,443.9h-2.6
		v-9.7h2.6V443.9z"/>
	<path class="st0" d="M372.5,443.9h-2.6v-14.4h2.6V443.9z"/>
	<path class="st0" d="M384.8,443.9h-2.5v-1.1c-0.6,0.8-1.6,1.3-2.9,1.3c-2.7,0-4.7-2.2-4.7-5.1s2-5.1,4.7-5.1c1.3,0,2.3,0.5,2.9,1.3
		v-1.1h2.5V443.9z M377.3,439c0,1.5,1,2.7,2.5,2.7c1.5,0,2.5-1.1,2.5-2.7s-1-2.7-2.5-2.7C378.3,436.4,377.3,437.6,377.3,439z"/>
	<path class="st0" d="M396.7,437.7v6.2H394v-5.3c0-1.4-0.7-2.2-1.9-2.2c-1.1,0-2,0.7-2,2.2v5.3h-2.6v-9.7h2.5v1.1
		c0.7-1,1.7-1.4,2.8-1.4C395.1,433.9,396.7,435.5,396.7,437.7z"/>
	<path class="st0" d="M406.3,435.2v-5.7h2.6v14.4h-2.5v-1.1c-0.6,0.8-1.6,1.3-2.9,1.3c-2.7,0-4.7-2.2-4.7-5.1s2-5.1,4.7-5.1
		C404.7,433.9,405.6,434.4,406.3,435.2z M401.4,439c0,1.5,1,2.7,2.5,2.7c1.5,0,2.5-1.1,2.5-2.7s-1-2.7-2.5-2.7
		C402.4,436.4,401.4,437.6,401.4,439z"/>
</g>
<g>
	<path class="st0" d="M456.8,433.4c-1.1-0.7-2.4-1.2-4-1.2c-1.6,0-2.7,0.6-2.7,1.7c0,1,1.2,1.3,2.9,1.6l0.8,0.1
		c2.5,0.4,4.5,1.5,4.5,3.9c0,3.1-2.7,4.6-5.7,4.6c-2.1,0-4.4-0.6-5.9-1.8l1.4-2.2c1,0.8,2.7,1.5,4.5,1.5c1.5,0,2.7-0.6,2.7-1.7
		c0-1-1-1.3-3-1.6l-0.9-0.1c-2.5-0.4-4.3-1.5-4.3-4c0-2.9,2.6-4.4,5.6-4.4c2,0,3.6,0.4,5.3,1.5L456.8,433.4z"/>
	<path class="st0" d="M463.5,431c0,0.9-0.7,1.7-1.7,1.7s-1.7-0.7-1.7-1.7s0.7-1.7,1.7-1.7S463.5,430.1,463.5,431z M463.2,443.9h-2.6
		v-9.7h2.6V443.9z"/>
	<path class="st0" d="M475.1,437.7v6.2h-2.6v-5.3c0-1.4-0.7-2.2-1.9-2.2c-1.1,0-2,0.7-2,2.2v5.3h-2.6v-9.7h2.5v1.1
		c0.7-1,1.7-1.4,2.8-1.4C473.5,433.9,475.1,435.5,475.1,437.7z"/>
	<path class="st0" d="M484.6,435.3v-1.1h2.6v8.9c0,3.1-2,5-5.2,5c-1.5,0-3.1-0.4-4.2-1.2l0.9-2.1c1,0.6,2,1,3.2,1
		c1.6,0,2.8-0.9,2.8-2.6v-0.7c-0.7,0.8-1.6,1.3-3,1.3c-2.4,0-4.5-2-4.5-4.9c0-3,2.1-4.9,4.5-4.9
		C482.9,433.9,483.9,434.5,484.6,435.3z M479.8,438.9c0,1.4,0.9,2.5,2.4,2.5c1.4,0,2.4-1.1,2.4-2.5c0-1.4-1-2.5-2.4-2.5
		C480.8,436.3,479.8,437.5,479.8,438.9z"/>
	<path class="st0" d="M499.4,443.9h-2.5v-1.1c-0.6,0.8-1.6,1.3-2.9,1.3c-2.7,0-4.7-2.2-4.7-5.1c0-2.9,2-5.1,4.7-5.1
		c1.3,0,2.3,0.5,2.9,1.3v-1.1h2.5V443.9z M492,439c0,1.5,1,2.7,2.5,2.7c1.5,0,2.5-1.1,2.5-2.7c0-1.5-1-2.7-2.5-2.7
		C492.9,436.4,492,437.6,492,439z"/>
	<path class="st0" d="M512.3,439c0,2.9-2,5.1-4.7,5.1c-1.3,0-2.2-0.5-2.8-1.3v5h-2.6v-13.7h2.5v1.1c0.6-0.8,1.6-1.3,2.9-1.3
		C510.3,433.9,512.3,436.1,512.3,439z M504.7,439c0,1.5,1,2.7,2.5,2.7c1.5,0,2.5-1.2,2.5-2.7c0-1.5-1-2.7-2.5-2.7
		C505.7,436.4,504.7,437.5,504.7,439z"/>
	<path class="st0" d="M524.3,439c0,2.9-2.2,5.1-5.2,5.1c-3,0-5.2-2.2-5.2-5.1c0-2.9,2.2-5.1,5.2-5.1
		C522.1,433.9,524.3,436.1,524.3,439z M516.5,439c0,1.6,1.1,2.7,2.6,2.7c1.5,0,2.6-1.1,2.6-2.7c0-1.6-1.1-2.7-2.6-2.7
		C517.6,436.4,516.5,437.5,516.5,439z"/>
	<path class="st0" d="M533.1,434.1l-0.4,2.6c-0.4-0.2-1-0.3-1.6-0.3c-1.2,0-2,0.7-2,2.2v5.3h-2.6v-9.7h2.5v1.1
		c0.6-0.9,1.5-1.3,2.7-1.3C532.3,433.9,532.7,434,533.1,434.1z"/>
	<path class="st0" d="M543.9,439c0,0.3,0,0.7,0,0.9H537c0.3,1.4,1.3,2,2.5,2c0.8,0,1.7-0.3,2.4-0.9l1.5,1.7c-1.1,1-2.5,1.5-4.1,1.5
		c-3,0-5-2-5-5.1c0-3,2-5.1,4.9-5.1C541.9,433.9,543.9,436,543.9,439z M537,438.1h4.3c-0.2-1.2-1-1.9-2.1-1.9
		C537.9,436.2,537.2,436.9,537,438.1z"/>
</g>
<g>
	<path class="st0" d="M589.3,443.9h-3.4l-5.3-14h3l4,11.2l4-11.2h2.9L589.3,443.9z"/>
	<path class="st0" d="M599.1,431c0,0.9-0.7,1.7-1.7,1.7s-1.7-0.7-1.7-1.7s0.7-1.7,1.7-1.7S599.1,430.1,599.1,431z M598.7,443.9h-2.6
		v-9.7h2.6V443.9z"/>
	<path class="st0" d="M610.5,439c0,0.3,0,0.7,0,0.9h-6.9c0.3,1.4,1.3,2,2.5,2c0.8,0,1.7-0.3,2.4-0.9l1.5,1.7c-1.1,1-2.5,1.5-4.1,1.5
		c-3,0-5-2-5-5.1c0-3,2-5.1,4.9-5.1C608.5,433.9,610.5,436,610.5,439z M603.6,438.1h4.3c-0.2-1.2-1-1.9-2.1-1.9
		C604.5,436.2,603.8,436.9,603.6,438.1z"/>
	<path class="st0" d="M619.6,436.5h-3.5v3.5c0,1.2,0.6,1.6,1.4,1.6c0.6,0,1.3-0.3,1.8-0.6l1,2c-0.8,0.6-1.8,1-3.2,1
		c-2.4,0-3.6-1.4-3.6-3.9v-3.7h-1.9v-2.3h1.9v-2.9h2.6v2.9h3.5V436.5z"/>
	<path class="st0" d="M631.1,437.7v6.2h-2.6v-5.3c0-1.4-0.7-2.2-1.9-2.2c-1.1,0-2,0.7-2,2.2v5.3h-2.6v-9.7h2.5v1.1
		c0.7-1,1.7-1.4,2.8-1.4C629.5,433.9,631.1,435.5,631.1,437.7z"/>
	<path class="st0" d="M643.3,443.9h-2.5v-1.1c-0.6,0.8-1.6,1.3-2.9,1.3c-2.7,0-4.7-2.2-4.7-5.1c0-2.9,2-5.1,4.7-5.1
		c1.3,0,2.3,0.5,2.9,1.3v-1.1h2.5V443.9z M635.8,439c0,1.5,1,2.7,2.5,2.7c1.5,0,2.5-1.1,2.5-2.7c0-1.5-1-2.7-2.5-2.7
		C636.8,436.4,635.8,437.6,635.8,439z"/>
	<path class="st0" d="M661.7,437.7v6.2h-2.6v-5.3c0-1.4-0.7-2.2-1.9-2.2c-1.1,0-2,0.7-2,2.2v5.3h-2.6v-5.3c0-1.4-0.7-2.2-1.9-2.2
		c-1.1,0-2,0.7-2,2.2v5.3H646v-9.7h2.5v1.1c0.7-1,1.7-1.4,2.8-1.4c1.4,0,2.5,0.6,3.2,1.7c0.8-1.2,2-1.7,3.3-1.7
		C660.2,433.9,661.7,435.5,661.7,437.7z"/>
</g>
<g>
	<path class="st0" d="M706.3,443.9h-2.8v-14h2.8V443.9z"/>
	<path class="st0" d="M718.4,437.7v6.2h-2.6v-5.3c0-1.4-0.7-2.2-1.9-2.2c-1.1,0-2,0.7-2,2.2v5.3h-2.6v-9.7h2.5v1.1
		c0.7-1,1.7-1.4,2.8-1.4C716.8,433.9,718.4,435.5,718.4,437.7z"/>
	<path class="st0" d="M728,435.2v-5.7h2.6v14.4H728v-1.1c-0.6,0.8-1.6,1.3-2.9,1.3c-2.7,0-4.7-2.2-4.7-5.1c0-2.9,2-5.1,4.7-5.1
		C726.4,433.9,727.3,434.4,728,435.2z M723.1,439c0,1.5,1,2.7,2.5,2.7c1.5,0,2.5-1.1,2.5-2.7c0-1.5-1-2.7-2.5-2.7
		C724.1,436.4,723.1,437.6,723.1,439z"/>
	<path class="st0" d="M743.2,439c0,2.9-2.2,5.1-5.2,5.1c-3,0-5.2-2.2-5.2-5.1c0-2.9,2.2-5.1,5.2-5.1
		C741,433.9,743.2,436.1,743.2,439z M735.4,439c0,1.6,1.1,2.7,2.6,2.7c1.5,0,2.6-1.1,2.6-2.7c0-1.6-1.1-2.7-2.6-2.7
		C736.5,436.4,735.4,437.5,735.4,439z"/>
	<path class="st0" d="M754.5,437.7v6.2h-2.6v-5.3c0-1.4-0.7-2.2-1.9-2.2c-1.1,0-2,0.7-2,2.2v5.3h-2.6v-9.7h2.5v1.1
		c0.7-1,1.7-1.4,2.8-1.4C752.9,433.9,754.5,435.5,754.5,437.7z"/>
	<path class="st0" d="M766.2,439c0,0.3,0,0.7,0,0.9h-6.9c0.3,1.4,1.3,2,2.5,2c0.8,0,1.7-0.3,2.4-0.9l1.5,1.7c-1.1,1-2.5,1.5-4.1,1.5
		c-3,0-5-2-5-5.1c0-3,2-5.1,4.9-5.1C764.2,433.9,766.1,436,766.2,439z M759.2,438.1h4.3c-0.2-1.2-1-1.9-2.1-1.9
		C760.2,436.2,759.5,436.9,759.2,438.1z"/>
	<path class="st0" d="M775.2,436.9c-0.8-0.4-2-0.8-3.1-0.8c-1,0-1.5,0.3-1.5,0.9c0,0.6,0.7,0.7,1.6,0.8l0.9,0.1
		c2.1,0.3,3.3,1.3,3.3,2.9c0,2-1.6,3.3-4.4,3.3c-1.3,0-3-0.2-4.3-1.1l1-2c0.8,0.5,1.8,0.9,3.3,0.9c1.2,0,1.8-0.3,1.8-0.9
		c0-0.5-0.5-0.7-1.6-0.9l-0.8-0.1c-2.2-0.3-3.3-1.3-3.3-2.9c0-2,1.5-3.2,4.1-3.2c1.5,0,2.8,0.3,4,0.9L775.2,436.9z"/>
	<path class="st0" d="M781.4,431c0,0.9-0.7,1.7-1.7,1.7s-1.7-0.7-1.7-1.7s0.7-1.7,1.7-1.7S781.4,430.1,781.4,431z M781,443.9h-2.6
		v-9.7h2.6V443.9z"/>
	<path class="st0" d="M793.3,443.9h-2.5v-1.1c-0.6,0.8-1.6,1.3-2.9,1.3c-2.7,0-4.7-2.2-4.7-5.1c0-2.9,2-5.1,4.7-5.1
		c1.3,0,2.3,0.5,2.9,1.3v-1.1h2.5V443.9z M785.8,439c0,1.5,1,2.7,2.5,2.7c1.5,0,2.5-1.1,2.5-2.7c0-1.5-1-2.7-2.5-2.7
		C786.8,436.4,785.8,437.6,785.8,439z"/>
</g>
<g>
	<path class="st0" d="M855.4,443.9h-2.8v-14h2.8V443.9z"/>
	<path class="st0" d="M867.5,437.7v6.2h-2.6v-5.3c0-1.4-0.7-2.2-1.9-2.2c-1.1,0-2,0.7-2,2.2v5.3h-2.6v-9.7h2.5v1.1
		c0.7-1,1.7-1.4,2.8-1.4C865.9,433.9,867.5,435.5,867.5,437.7z"/>
	<path class="st0" d="M877.1,435.2v-5.7h2.6v14.4h-2.5v-1.1c-0.6,0.8-1.6,1.3-2.9,1.3c-2.7,0-4.7-2.2-4.7-5.1s2-5.1,4.7-5.1
		C875.5,433.9,876.5,434.4,877.1,435.2z M872.2,439c0,1.5,1,2.7,2.5,2.7c1.5,0,2.5-1.1,2.5-2.7s-1-2.7-2.5-2.7
		C873.2,436.4,872.2,437.6,872.2,439z"/>
	<path class="st0" d="M885.4,431c0,0.9-0.7,1.7-1.7,1.7s-1.7-0.7-1.7-1.7s0.7-1.7,1.7-1.7S885.4,430.1,885.4,431z M885,443.9h-2.6
		v-9.7h2.6V443.9z"/>
	<path class="st0" d="M897.3,443.9h-2.5v-1.1c-0.6,0.8-1.6,1.3-2.9,1.3c-2.7,0-4.7-2.2-4.7-5.1s2-5.1,4.7-5.1c1.3,0,2.3,0.5,2.9,1.3
		v-1.1h2.5V443.9z M889.9,439c0,1.5,1,2.7,2.5,2.7c1.5,0,2.5-1.1,2.5-2.7s-1-2.7-2.5-2.7C890.8,436.4,889.9,437.6,889.9,439z"/>
</g>
<g>
	<path class="st0" d="M995.1,438.3c0,3.9-2.5,5.8-6,5.8c-3.6,0-6-2-6-5.8v-8.4h2.8v8.3c0,2.3,1.3,3.3,3.2,3.3s3.2-1,3.2-3.3v-8.3
		h2.8V438.3z"/>
	<path class="st0" d="M1001.3,442.2c0,1-0.9,1.9-1.9,1.9c-1,0-1.9-0.9-1.9-1.9c0-1,0.9-1.9,1.9-1.9
		C1000.4,440.3,1001.3,441.1,1001.3,442.2z"/>
	<path class="st0" d="M1013.2,433.4c-1.1-0.7-2.4-1.2-4-1.2c-1.6,0-2.7,0.6-2.7,1.7c0,1,1.2,1.3,2.9,1.6l0.8,0.1
		c2.5,0.4,4.5,1.5,4.5,3.9c0,3.1-2.7,4.6-5.7,4.6c-2.1,0-4.4-0.6-5.9-1.8l1.4-2.2c1,0.8,2.7,1.5,4.5,1.5c1.5,0,2.7-0.6,2.7-1.7
		c0-1-1-1.3-3-1.6l-0.9-0.1c-2.5-0.4-4.3-1.5-4.3-4c0-2.9,2.6-4.4,5.6-4.4c2,0,3.6,0.4,5.3,1.5L1013.2,433.4z"/>
	<path class="st0" d="M1020.3,442.2c0,1-0.9,1.9-1.9,1.9c-1,0-1.9-0.9-1.9-1.9c0-1,0.9-1.9,1.9-1.9
		C1019.4,440.3,1020.3,441.1,1020.3,442.2z"/>
</g>
<g>
	<path class="st0" d="M1114.1,432.8l-2.4,1.5c-0.8-1.2-2.1-1.9-3.6-1.9c-2.5,0-4.4,1.9-4.4,4.6c0,2.8,1.9,4.6,4.4,4.6
		c1.5,0,2.8-0.7,3.6-1.9l2.3,1.6c-1.2,1.8-3.3,3-5.9,3c-4.3,0-7.3-3-7.3-7.3c0-4.2,3-7.3,7.3-7.3
		C1110.6,429.6,1112.9,430.8,1114.1,432.8z"/>
	<path class="st0" d="M1118.9,435.2c0.7-1,1.7-1.3,2.8-1.3c2.2,0,3.8,1.5,3.8,3.8v6.2h-2.6v-5.3c0-1.4-0.7-2.2-1.9-2.2
		c-1.1,0-2,0.7-2,2.2v5.3h-2.6v-14.4h2.6V435.2z"/>
	<path class="st0" d="M1131,431c0,0.9-0.7,1.7-1.7,1.7s-1.7-0.7-1.7-1.7s0.7-1.7,1.7-1.7S1131,430.1,1131,431z M1130.7,443.9h-2.6
		v-9.7h2.6V443.9z"/>
	<path class="st0" d="M1142.6,437.7v6.2h-2.6v-5.3c0-1.4-0.7-2.2-1.9-2.2c-1.1,0-2,0.7-2,2.2v5.3h-2.6v-9.7h2.5v1.1
		c0.7-1,1.7-1.4,2.8-1.4C1141,433.9,1142.6,435.5,1142.6,437.7z"/>
	<path class="st0" d="M1154.8,443.9h-2.5v-1.1c-0.6,0.8-1.6,1.3-2.9,1.3c-2.7,0-4.7-2.2-4.7-5.1s2-5.1,4.7-5.1
		c1.3,0,2.3,0.5,2.9,1.3v-1.1h2.5V443.9z M1147.3,439c0,1.5,1,2.7,2.5,2.7c1.5,0,2.5-1.1,2.5-2.7s-1-2.7-2.5-2.7
		C1148.3,436.4,1147.3,437.6,1147.3,439z"/>
</g>
<g>
	<g>
		<g>
			<path class="st0" d="M25.6,415.1c0,3.2-1.9,5.1-4.2,5.1c-2.3,0-4.2-1.9-4.2-5.1s1.9-5.1,4.2-5.1C23.7,410,25.6,411.9,25.6,415.1z
				 M19.1,415.1c0,2.1,1,3.3,2.3,3.3c1.3,0,2.3-1.1,2.3-3.3c0-2.1-1-3.3-2.3-3.3C20.1,411.8,19.1,412.9,19.1,415.1z"/>
			<path class="st0" d="M32.3,412.7c0,1.5-1.2,2.7-2.7,2.7c-1.6,0-2.7-1.1-2.7-2.7c0-1.5,1.2-2.7,2.7-2.7
				C31.1,410,32.3,411.1,32.3,412.7z M28.3,412.7c0,0.7,0.5,1.2,1.2,1.2c0.7,0,1.2-0.5,1.2-1.2c0-0.7-0.5-1.2-1.2-1.2
				C28.8,411.5,28.3,412,28.3,412.7z M30.8,420H29l6.6-9.8h1.8L30.8,420z M39.6,417.5c0,1.5-1.2,2.7-2.7,2.7c-1.6,0-2.7-1.1-2.7-2.7
				c0-1.5,1.2-2.7,2.7-2.7C38.4,414.8,39.6,415.9,39.6,417.5z M35.7,417.5c0,0.7,0.5,1.2,1.2,1.2c0.7,0,1.2-0.5,1.2-1.2
				c0-0.7-0.5-1.2-1.2-1.2C36.2,416.3,35.7,416.8,35.7,417.5z"/>
		</g>
		<g>
			<path class="st0" d="M25.1,355h-4l0,2h1.1c2.3,0,3.4,1.3,3.4,2.9c0,2.1-1.6,3.3-3.6,3.3c-1.5,0-2.7-0.5-3.5-1.5l1.1-1.3
				c0.5,0.6,1.5,1,2.4,1c1.1,0,1.6-0.6,1.6-1.4c0-0.7-0.5-1.4-2-1.4h-2.3l0.1-5.4h5.6V355z"/>
			<path class="st0" d="M32.3,355.7c0,1.5-1.2,2.7-2.7,2.7c-1.6,0-2.7-1.1-2.7-2.7c0-1.5,1.2-2.7,2.7-2.7
				C31.1,353.1,32.3,354.2,32.3,355.7z M28.3,355.7c0,0.7,0.5,1.2,1.2,1.2c0.7,0,1.2-0.5,1.2-1.2c0-0.7-0.5-1.2-1.2-1.2
				C28.8,354.5,28.3,355,28.3,355.7z M30.8,363.1H29l6.6-9.8h1.8L30.8,363.1z M39.6,360.6c0,1.5-1.2,2.7-2.7,2.7
				c-1.6,0-2.7-1.1-2.7-2.7c0-1.5,1.2-2.7,2.7-2.7C38.4,357.9,39.6,359,39.6,360.6z M35.7,360.6c0,0.7,0.5,1.2,1.2,1.2
				c0.7,0,1.2-0.5,1.2-1.2s-0.5-1.2-1.2-1.2C36.2,359.3,35.7,359.8,35.7,360.6z"/>
		</g>
		<g>
			<path class="st0" d="M15.2,306.1h-1.9v-7.3l-2.3,1v-1.9l4.2-1.7V306.1z"/>
			<path class="st0" d="M25.6,301.2c0,3.2-1.9,5.1-4.2,5.1c-2.3,0-4.2-1.9-4.2-5.1c0-3.2,1.9-5.1,4.2-5.1
				C23.7,296.2,25.6,298.1,25.6,301.2z M19.1,301.2c0,2.1,1,3.3,2.3,3.3c1.3,0,2.3-1.1,2.3-3.3c0-2.1-1-3.3-2.3-3.3
				C20.1,298,19.1,299.1,19.1,301.2z"/>
			<path class="st0" d="M32.3,298.8c0,1.5-1.2,2.7-2.7,2.7c-1.6,0-2.7-1.1-2.7-2.7c0-1.5,1.2-2.7,2.7-2.7
				C31.1,296.2,32.3,297.3,32.3,298.8z M28.3,298.8c0,0.7,0.5,1.2,1.2,1.2c0.7,0,1.2-0.5,1.2-1.2c0-0.7-0.5-1.2-1.2-1.2
				C28.8,297.6,28.3,298.1,28.3,298.8z M30.8,306.1H29l6.6-9.8h1.8L30.8,306.1z M39.6,303.6c0,1.5-1.2,2.7-2.7,2.7
				c-1.6,0-2.7-1.1-2.7-2.7c0-1.5,1.2-2.7,2.7-2.7C38.4,301,39.6,302.1,39.6,303.6z M35.7,303.6c0,0.7,0.5,1.2,1.2,1.2
				c0.7,0,1.2-0.5,1.2-1.2c0-0.7-0.5-1.2-1.2-1.2C36.2,302.4,35.7,302.9,35.7,303.6z"/>
		</g>
		<g>
			<path class="st0" d="M17,249.2h-1.9v-7.3l-2.3,1V241l4.2-1.7V249.2z"/>
			<path class="st0" d="M25.1,241.2h-4l0,2h1.1c2.3,0,3.4,1.3,3.4,2.9c0,2.1-1.6,3.3-3.6,3.3c-1.5,0-2.7-0.5-3.5-1.5l1.1-1.3
				c0.5,0.6,1.5,1,2.4,1c1.1,0,1.6-0.6,1.6-1.4c0-0.7-0.5-1.4-2-1.4h-2.3l0.1-5.4h5.6V241.2z"/>
			<path class="st0" d="M32.3,241.9c0,1.5-1.2,2.7-2.7,2.7c-1.6,0-2.7-1.1-2.7-2.7c0-1.5,1.2-2.7,2.7-2.7
				C31.1,239.2,32.3,240.4,32.3,241.9z M28.3,241.9c0,0.7,0.5,1.2,1.2,1.2c0.7,0,1.2-0.5,1.2-1.2c0-0.7-0.5-1.2-1.2-1.2
				C28.8,240.7,28.3,241.2,28.3,241.9z M30.8,249.2H29l6.6-9.8h1.8L30.8,249.2z M39.6,246.7c0,1.5-1.2,2.7-2.7,2.7
				c-1.6,0-2.7-1.1-2.7-2.7c0-1.5,1.2-2.7,2.7-2.7C38.4,244,39.6,245.2,39.6,246.7z M35.7,246.7c0,0.7,0.5,1.2,1.2,1.2
				c0.7,0,1.2-0.5,1.2-1.2c0-0.7-0.5-1.2-1.2-1.2C36.2,245.5,35.7,246,35.7,246.7z"/>
		</g>
		<g>
			<path class="st0" d="M9,184c0.5-0.7,1.5-1.7,3.3-1.7c2.1,0,3.3,1.3,3.3,3.2c0,1.2-0.6,2-1.4,2.9l-2.1,2.2h3.7v1.8H9.4v-1.5
				l3.5-3.6c0.5-0.5,0.8-1.1,0.8-1.7c0-0.9-0.6-1.5-1.5-1.5c-0.9,0-1.5,0.5-2,1.1L9,184z"/>
			<path class="st0" d="M25.6,187.4c0,3.2-1.9,5.1-4.2,5.1c-2.3,0-4.2-1.9-4.2-5.1c0-3.2,1.9-5.1,4.2-5.1
				C23.7,182.3,25.6,184.2,25.6,187.4z M19.1,187.4c0,2.1,1,3.3,2.3,3.3c1.3,0,2.3-1.1,2.3-3.3c0-2.1-1-3.3-2.3-3.3
				C20.1,184.1,19.1,185.3,19.1,187.4z"/>
			<path class="st0" d="M32.3,185c0,1.5-1.2,2.7-2.7,2.7c-1.6,0-2.7-1.1-2.7-2.7c0-1.5,1.2-2.7,2.7-2.7
				C31.1,182.3,32.3,183.5,32.3,185z M28.3,185c0,0.7,0.5,1.2,1.2,1.2c0.7,0,1.2-0.5,1.2-1.2c0-0.7-0.5-1.2-1.2-1.2
				C28.8,183.8,28.3,184.3,28.3,185z M30.8,192.3H29l6.6-9.8h1.8L30.8,192.3z M39.6,189.8c0,1.5-1.2,2.7-2.7,2.7
				c-1.6,0-2.7-1.1-2.7-2.7c0-1.5,1.2-2.7,2.7-2.7C38.4,187.1,39.6,188.3,39.6,189.8z M35.7,189.8c0,0.7,0.5,1.2,1.2,1.2
				c0.7,0,1.2-0.5,1.2-1.2c0-0.7-0.5-1.2-1.2-1.2C36.2,188.6,35.7,189.1,35.7,189.8z"/>
		</g>
		<g>
			<path class="st0" d="M10.7,127.1c0.5-0.7,1.5-1.7,3.3-1.7c2.1,0,3.3,1.3,3.3,3.2c0,1.2-0.6,2-1.4,2.9l-2.1,2.2h3.7v1.8h-6.5v-1.5
				l3.5-3.6c0.5-0.5,0.8-1.1,0.8-1.7c0-0.9-0.6-1.5-1.5-1.5c-0.9,0-1.5,0.5-2,1.1L10.7,127.1z"/>
			<path class="st0" d="M25.1,127.3h-4l0,2h1.1c2.3,0,3.4,1.3,3.4,2.9c0,2.1-1.6,3.3-3.6,3.3c-1.5,0-2.7-0.5-3.5-1.5l1.1-1.3
				c0.5,0.6,1.5,1,2.4,1c1.1,0,1.6-0.6,1.6-1.4c0-0.7-0.5-1.4-2-1.4h-2.3l0.1-5.4h5.6V127.3z"/>
			<path class="st0" d="M32.3,128.1c0,1.5-1.2,2.7-2.7,2.7c-1.6,0-2.7-1.1-2.7-2.7c0-1.5,1.2-2.7,2.7-2.7
				C31.1,125.4,32.3,126.5,32.3,128.1z M28.3,128.1c0,0.7,0.5,1.2,1.2,1.2c0.7,0,1.2-0.5,1.2-1.2c0-0.7-0.5-1.2-1.2-1.2
				C28.8,126.9,28.3,127.4,28.3,128.1z M30.8,135.4H29l6.6-9.8h1.8L30.8,135.4z M39.6,132.9c0,1.5-1.2,2.7-2.7,2.7
				c-1.6,0-2.7-1.1-2.7-2.7c0-1.5,1.2-2.7,2.7-2.7C38.4,130.2,39.6,131.4,39.6,132.9z M35.7,132.9c0,0.7,0.5,1.2,1.2,1.2
				c0.7,0,1.2-0.5,1.2-1.2c0-0.7-0.5-1.2-1.2-1.2C36.2,131.7,35.7,132.2,35.7,132.9z"/>
		</g>
		<g>
			<path class="st0" d="M15.6,71.3c0,1-0.6,1.8-1.5,2.2c1,0.4,1.7,1.2,1.7,2.2c0,1.9-1.8,2.9-3.6,2.9c-1.5,0-2.7-0.5-3.4-1.4L9.9,76
				c0.6,0.6,1.4,0.9,2.2,0.9c1,0,1.7-0.4,1.7-1.3c0-0.8-0.9-1.3-1.9-1.3h-1.1v-1.7h1.1c1,0,1.7-0.4,1.7-1.2c0-0.8-0.7-1.2-1.6-1.2
				c-0.9,0-1.6,0.5-2,1L8.8,70c0.6-0.9,1.7-1.5,3.3-1.5C14.1,68.5,15.6,69.6,15.6,71.3z"/>
			<path class="st0" d="M25.6,73.6c0,3.2-1.9,5.1-4.2,5.1c-2.3,0-4.2-1.9-4.2-5.1c0-3.2,1.9-5.1,4.2-5.1
				C23.7,68.5,25.6,70.4,25.6,73.6z M19.1,73.6c0,2.1,1,3.3,2.3,3.3c1.3,0,2.3-1.1,2.3-3.3c0-2.1-1-3.3-2.3-3.3
				C20.1,70.3,19.1,71.4,19.1,73.6z"/>
			<path class="st0" d="M32.3,71.1c0,1.5-1.2,2.7-2.7,2.7c-1.6,0-2.7-1.1-2.7-2.7c0-1.5,1.2-2.7,2.7-2.7
				C31.1,68.5,32.3,69.6,32.3,71.1z M28.3,71.1c0,0.7,0.5,1.2,1.2,1.2c0.7,0,1.2-0.5,1.2-1.2c0-0.7-0.5-1.2-1.2-1.2
				C28.8,69.9,28.3,70.4,28.3,71.1z M30.8,78.5H29l6.6-9.8h1.8L30.8,78.5z M39.6,76c0,1.5-1.2,2.7-2.7,2.7c-1.6,0-2.7-1.1-2.7-2.7
				c0-1.5,1.2-2.7,2.7-2.7C38.4,73.3,39.6,74.4,39.6,76z M35.7,76c0,0.7,0.5,1.2,1.2,1.2c0.7,0,1.2-0.5,1.2-1.2
				c0-0.7-0.5-1.2-1.2-1.2C36.2,74.7,35.7,75.3,35.7,76z"/>
		</g>
	</g>
</g>
<line class="st1" x1="51.8" y1="414.5" x2="51.8" y2="73"/>
<rect x="89.4" y="391.8" class="st2" width="52.2" height="22.8"/>
<rect x="215.9" y="391.8" class="st2" width="52.2" height="22.8"/>
<rect x="342.5" y="369" class="st2" width="52.2" height="45.5"/>
<rect x="469.1" y="369" class="st2" width="52.2" height="45.5"/>
<rect x="595.6" y="369" class="st2" width="52.2" height="45.5"/>
<rect x="722.2" y="357.6" class="st2" width="52.2" height="56.9"/>
<rect x="848.8" y="369" class="st3" width="52.2" height="45.5"/>
<rect x="975.3" y="289.3" class="st3" width="52.2" height="125.2"/>
<rect x="1101.9" y="118.6" class="st3" width="52.2" height="296"/>
<g>
	<g>
		<line class="st4" x1="51.4" y1="414.5" x2="61.4" y2="414.5"/>
		<line class="st4" x1="51.4" y1="357.6" x2="61.4" y2="357.6"/>
		<line class="st4" x1="51.4" y1="300.7" x2="61.4" y2="300.7"/>
		<line class="st4" x1="51.4" y1="243.8" x2="61.4" y2="243.8"/>
		<line class="st4" x1="51.4" y1="186.9" x2="61.4" y2="186.9"/>
		<line class="st4" x1="51.4" y1="130" x2="61.4" y2="130"/>
		<line class="st4" x1="51.4" y1="73" x2="61.4" y2="73"/>
	</g>
</g>
<g>
	<line class="st1" x1="51.8" y1="414.5" x2="1184.6" y2="414.5"/>
</g>
<g>
	<g>
		<line class="st5" x1="811.6" y1="433.5" x2="811.6" y2="431"/>
		<line class="st6" x1="811.6" y1="428" x2="811.6" y2="76.6"/>
		<line class="st5" x1="811.6" y1="75.1" x2="811.6" y2="72.6"/>
	</g>
</g>
<g>
	<path class="st0" d="M14.7,32.4c0,0.3,0,0.7-0.1,0.9H7.8c0.3,1.4,1.3,2,2.5,2c0.8,0,1.7-0.3,2.4-0.9l1.5,1.7
		c-1.1,1-2.5,1.5-4.1,1.5c-3,0-5-2-5-5.1c0-3,2-5.1,4.9-5.1C12.8,27.4,14.7,29.4,14.7,32.4z M7.8,31.5h4.3c-0.2-1.2-1-1.9-2.1-1.9
		C8.8,29.6,8.1,30.3,7.8,31.5z"/>
	<path class="st0" d="M29.8,26.2l-2.4,1.5c-0.8-1.2-2.1-1.9-3.6-1.9c-2.5,0-4.4,1.9-4.4,4.6c0,2.8,1.9,4.6,4.4,4.6
		c1.5,0,2.8-0.7,3.6-1.9l2.3,1.6c-1.2,1.8-3.3,3-5.9,3c-4.3,0-7.3-3-7.3-7.3s3-7.3,7.3-7.3C26.4,23,28.6,24.2,29.8,26.2z"/>
	<path class="st0" d="M41.6,32.4c0,2.9-2.2,5.1-5.2,5.1c-3,0-5.2-2.2-5.2-5.1c0-2.9,2.2-5.1,5.2-5.1C39.4,27.4,41.6,29.5,41.6,32.4z
		 M33.8,32.4c0,1.6,1.1,2.7,2.6,2.7s2.6-1.1,2.6-2.7c0-1.6-1.1-2.7-2.6-2.7S33.8,30.9,33.8,32.4z"/>
	<path class="st0" d="M59.4,31.1v6.2h-2.6V32c0-1.4-0.7-2.2-1.9-2.2c-1.1,0-2,0.7-2,2.2v5.3h-2.6V32c0-1.4-0.7-2.2-1.9-2.2
		c-1.1,0-2,0.7-2,2.2v5.3h-2.6v-9.7h2.5v1.1c0.7-1,1.7-1.4,2.8-1.4c1.4,0,2.5,0.6,3.2,1.7c0.7-1.2,2-1.7,3.3-1.7
		C57.9,27.4,59.4,28.9,59.4,31.1z"/>
	<path class="st0" d="M77.8,31.1v6.2h-2.6V32c0-1.4-0.7-2.2-1.9-2.2c-1.1,0-2,0.7-2,2.2v5.3h-2.6V32c0-1.4-0.7-2.2-1.9-2.2
		c-1.1,0-2,0.7-2,2.2v5.3h-2.6v-9.7h2.5v1.1c0.7-1,1.7-1.4,2.8-1.4c1.4,0,2.5,0.6,3.2,1.7c0.7-1.2,2-1.7,3.3-1.7
		C76.3,27.4,77.8,28.9,77.8,31.1z"/>
	<path class="st0" d="M89.5,32.4c0,0.3,0,0.7-0.1,0.9h-6.9c0.3,1.4,1.3,2,2.5,2c0.8,0,1.7-0.3,2.4-0.9l1.5,1.7
		c-1.1,1-2.5,1.5-4.1,1.5c-3,0-5-2-5-5.1c0-3,2-5.1,4.9-5.1C87.5,27.4,89.5,29.4,89.5,32.4z M82.6,31.5h4.3c-0.2-1.2-1-1.9-2.1-1.9
		C83.5,29.6,82.8,30.3,82.6,31.5z"/>
	<path class="st0" d="M98.2,27.6l-0.4,2.6c-0.4-0.2-1-0.3-1.6-0.3c-1.2,0-2,0.7-2,2.2v5.3h-2.6v-9.7h2.5v1.1
		c0.6-0.9,1.5-1.3,2.7-1.3C97.4,27.4,97.9,27.4,98.2,27.6z"/>
	<path class="st0" d="M108.1,29.2l-1.9,1.6c-0.6-0.6-1.2-1-2.1-1c-1.3,0-2.4,1.1-2.4,2.7c0,1.6,1.1,2.7,2.4,2.7c0.8,0,1.6-0.4,2.1-1
		l1.9,1.6c-0.9,1.2-2.3,1.8-3.9,1.8c-3.1,0-5.2-2.2-5.2-5.1c0-2.9,2.1-5.1,5.2-5.1C105.8,27.4,107.2,28,108.1,29.2z"/>
	<path class="st0" d="M118.8,32.4c0,0.3,0,0.7-0.1,0.9h-6.9c0.3,1.4,1.3,2,2.5,2c0.8,0,1.7-0.3,2.4-0.9l1.5,1.7
		c-1.1,1-2.5,1.5-4.1,1.5c-3,0-5-2-5-5.1c0-3,2-5.1,4.9-5.1C116.9,27.4,118.8,29.4,118.8,32.4z M111.9,31.5h4.3
		c-0.2-1.2-1-1.9-2.1-1.9C112.8,29.6,112.1,30.3,111.9,31.5z"/>
	<path class="st0" d="M136,32.4c0,2.9-2,5.1-4.7,5.1c-1.3,0-2.2-0.5-2.8-1.3v5h-2.6V27.6h2.5v1.1c0.6-0.8,1.6-1.3,2.9-1.3
		C134,27.4,136,29.5,136,32.4z M128.4,32.4c0,1.5,1,2.7,2.5,2.7c1.5,0,2.5-1.2,2.5-2.7c0-1.5-1-2.7-2.5-2.7
		C129.4,29.8,128.4,30.9,128.4,32.4z"/>
	<path class="st0" d="M147.2,32.4c0,0.3,0,0.7-0.1,0.9h-6.9c0.3,1.4,1.3,2,2.5,2c0.8,0,1.7-0.3,2.4-0.9l1.5,1.7
		c-1.1,1-2.5,1.5-4.1,1.5c-3,0-5-2-5-5.1c0-3,2-5.1,4.9-5.1C145.2,27.4,147.2,29.4,147.2,32.4z M140.3,31.5h4.3
		c-0.2-1.2-1-1.9-2.1-1.9C141.2,29.6,140.5,30.3,140.3,31.5z"/>
	<path class="st0" d="M158.5,31.1v6.2h-2.6V32c0-1.4-0.7-2.2-1.9-2.2c-1.1,0-2,0.7-2,2.2v5.3h-2.6v-9.7h2.5v1.1
		c0.7-1,1.7-1.4,2.8-1.4C156.9,27.4,158.5,28.9,158.5,31.1z"/>
	<path class="st0" d="M170.1,32.4c0,0.3,0,0.7-0.1,0.9h-6.9c0.3,1.4,1.3,2,2.5,2c0.8,0,1.7-0.3,2.4-0.9l1.5,1.7
		c-1.1,1-2.5,1.5-4.1,1.5c-3,0-5-2-5-5.1c0-3,2-5.1,4.9-5.1C168.2,27.4,170.1,29.4,170.1,32.4z M163.2,31.5h4.3
		c-0.2-1.2-1-1.9-2.1-1.9C164.2,29.6,163.4,30.3,163.2,31.5z"/>
	<path class="st0" d="M179.2,29.9h-3.5v3.5c0,1.2,0.6,1.6,1.4,1.6c0.6,0,1.3-0.3,1.8-0.6l1,2c-0.8,0.6-1.8,1-3.2,1
		c-2.4,0-3.6-1.4-3.6-3.9v-3.7h-1.9v-2.3h1.9v-2.9h2.6v2.9h3.5V29.9z"/>
	<path class="st0" d="M188.1,27.6l-0.4,2.6c-0.4-0.2-1-0.3-1.6-0.3c-1.2,0-2,0.7-2,2.2v5.3h-2.6v-9.7h2.5v1.1
		c0.6-0.9,1.5-1.3,2.7-1.3C187.3,27.4,187.7,27.4,188.1,27.6z"/>
	<path class="st0" d="M199.1,37.3h-2.5v-1.1c-0.6,0.8-1.6,1.3-2.9,1.3c-2.7,0-4.7-2.2-4.7-5.1c0-2.9,2-5.1,4.7-5.1
		c1.3,0,2.3,0.5,2.9,1.3v-1.1h2.5V37.3z M191.6,32.4c0,1.5,1,2.7,2.5,2.7c1.5,0,2.5-1.1,2.5-2.7s-1-2.7-2.5-2.7
		C192.6,29.8,191.6,31,191.6,32.4z"/>
	<path class="st0" d="M208.9,29.9h-3.5v3.5c0,1.2,0.6,1.6,1.4,1.6c0.6,0,1.3-0.3,1.8-0.6l1,2c-0.8,0.6-1.8,1-3.2,1
		c-2.4,0-3.6-1.4-3.6-3.9v-3.7h-1.9v-2.3h1.9v-2.9h2.6v2.9h3.5V29.9z"/>
	<path class="st0" d="M214.1,24.4c0,0.9-0.7,1.7-1.7,1.7s-1.7-0.7-1.7-1.7s0.7-1.7,1.7-1.7S214.1,23.5,214.1,24.4z M213.8,37.3h-2.6
		v-9.7h2.6V37.3z"/>
	<path class="st0" d="M226.4,32.4c0,2.9-2.2,5.1-5.2,5.1c-3,0-5.2-2.2-5.2-5.1c0-2.9,2.2-5.1,5.2-5.1
		C224.2,27.4,226.4,29.5,226.4,32.4z M218.6,32.4c0,1.6,1.1,2.7,2.6,2.7s2.6-1.1,2.6-2.7c0-1.6-1.1-2.7-2.6-2.7
		S218.6,30.9,218.6,32.4z"/>
	<path class="st0" d="M237.7,31.1v6.2h-2.6V32c0-1.4-0.7-2.2-1.9-2.2c-1.1,0-2,0.7-2,2.2v5.3h-2.6v-9.7h2.5v1.1
		c0.7-1,1.7-1.4,2.8-1.4C236.1,27.4,237.7,28.9,237.7,31.1z"/>
	<path class="st0" d="M254.8,37.3h-2.5v-1.1c-0.6,0.8-1.6,1.3-2.9,1.3c-2.7,0-4.7-2.2-4.7-5.1c0-2.9,2-5.1,4.7-5.1
		c1.3,0,2.3,0.5,2.9,1.3v-1.1h2.5V37.3z M247.4,32.4c0,1.5,1,2.7,2.5,2.7c1.5,0,2.5-1.1,2.5-2.7s-1-2.7-2.5-2.7
		C248.3,29.8,247.4,31,247.4,32.4z"/>
	<path class="st0" d="M264.5,30.3c-0.8-0.4-2-0.8-3.1-0.8c-1,0-1.5,0.3-1.5,0.9c0,0.6,0.7,0.7,1.6,0.8l0.9,0.1
		c2.1,0.3,3.3,1.3,3.3,2.9c0,2-1.6,3.3-4.4,3.3c-1.3,0-3-0.2-4.3-1.1l1-2c0.8,0.5,1.8,0.9,3.3,0.9c1.2,0,1.8-0.3,1.8-0.9
		c0-0.5-0.5-0.7-1.6-0.9l-0.8-0.1c-2.2-0.3-3.3-1.3-3.3-2.9c0-2,1.5-3.2,4.1-3.2c1.5,0,2.8,0.3,4,0.9L264.5,30.3z"/>
	<path class="st0" d="M282.5,32.4c0,2.9-2.2,5.1-5.2,5.1c-3,0-5.2-2.2-5.2-5.1c0-2.9,2.2-5.1,5.2-5.1
		C280.3,27.4,282.5,29.5,282.5,32.4z M274.7,32.4c0,1.6,1.1,2.7,2.6,2.7s2.6-1.1,2.6-2.7c0-1.6-1.1-2.7-2.6-2.7
		S274.7,30.9,274.7,32.4z"/>
	<path class="st0" d="M291,29.9h-3v7.4h-2.6v-7.4h-1.8v-2.3h1.8v-1.2c0-2.3,1.2-3.8,3.5-3.8c1.3,0,2.2,0.4,3,0.9l-1,2
		c-0.5-0.3-1-0.5-1.7-0.5c-0.7,0-1.1,0.5-1.1,1.4v1.2h3V29.9z"/>
	<path class="st0" d="M297.2,25.5c0.8-1,2.2-2.4,4.8-2.4c2.9,0,4.7,1.8,4.7,4.5c0,1.7-0.9,2.9-2,4.1l-3,3.1h5.3v2.5h-9.2v-2.1
		l4.9-5.1c0.7-0.8,1.1-1.5,1.1-2.4c0-1.2-0.8-2.1-2.1-2.1c-1.3,0-2.1,0.7-2.8,1.5L297.2,25.5z"/>
	<path class="st0" d="M320.9,30.3c0,4.5-2.7,7.2-6,7.2c-3.3,0-6-2.7-6-7.2s2.7-7.2,6-7.2C318.2,23.1,320.9,25.8,320.9,30.3z
		 M311.7,30.3c0,3.1,1.4,4.7,3.2,4.7c1.8,0,3.2-1.6,3.2-4.7s-1.4-4.7-3.2-4.7C313.1,25.6,311.7,27.2,311.7,30.3z"/>
	<path class="st0" d="M328.6,37.3h-2.7V26.9l-3.3,1.4v-2.7l6-2.4V37.3z"/>
	<path class="st0" d="M336.3,32.4c-0.2,0-0.4,0-0.6,0c-2.8,0-4.8-2-4.8-4.6c0-2.7,2.2-4.8,5.3-4.8c3,0,5.3,2,5.3,4.7
		c0,1.3-0.5,2.4-1.3,3.7l-3.9,5.8h-3.3L336.3,32.4z M338.6,27.8c0-1.4-1-2.3-2.4-2.3c-1.4,0-2.4,0.9-2.4,2.3c0,1.3,1,2.3,2.4,2.3
		C337.5,30.1,338.6,29.2,338.6,27.8z"/>
</g>
</svg>
