<?xml version="1.0" encoding="utf-8"?>
<!-- Generator: Adobe Illustrator 24.3.0, SVG Export Plug-In . SVG Version: 6.00 Build 0)  -->
<svg version="1.1" id="Layer_1" xmlns="http://www.w3.org/2000/svg" xmlns:xlink="http://www.w3.org/1999/xlink" x="0px" y="0px"
	 viewBox="0 0 1200 454" style="enable-background:new 0 0 1200 454;" xml:space="preserve">
<style type="text/css">
	.st0{fill:#203232;}
	.st1{fill:none;stroke:#203232;stroke-miterlimit:10;}
	.st2{fill:#8F9898;}
	.st3{fill:#F47E20;}
	.st4{fill:none;stroke:#203232;stroke-width:0.75;stroke-miterlimit:10;}
	.st5{fill:none;stroke:#203232;stroke-width:2;stroke-miterlimit:10;}
	.st6{fill:none;stroke:#203232;stroke-width:2;stroke-miterlimit:10;stroke-dasharray:5.0122,3.0073;}
</style>
<g>
	<path class="st0" d="M8.1,34.9V40H5.3V26H11c3.3,0,5.1,1.7,5.1,4.4c0,2.7-1.8,4.4-5.1,4.4H8.1z M8.1,28.6v3.8H11
		c1.5,0,2.3-0.6,2.3-1.9c0-1.2-0.8-1.9-2.3-1.9H8.1z"/>
	<path class="st0" d="M27,35.2c0,0.3,0,0.7-0.1,0.9h-6.9c0.3,1.4,1.3,2,2.5,2c0.8,0,1.7-0.3,2.4-0.9l1.5,1.7c-1.1,1-2.5,1.5-4.1,1.5
		c-3,0-5-2-5-5.1c0-3,2-5.1,4.9-5.1C25.1,30.1,27,32.2,27,35.2z M20.1,34.3h4.3c-0.2-1.2-1-1.9-2.1-1.9C21,32.3,20.3,33.1,20.1,34.3
		z M20.5,29l2-3.1h3.1L23,29H20.5z"/>
	<path class="st0" d="M38.3,33.9V40h-2.6v-5.3c0-1.4-0.7-2.2-1.9-2.2c-1.1,0-2,0.7-2,2.2V40h-2.6v-9.7h2.5v1.1
		c0.7-1,1.7-1.4,2.8-1.4C36.7,30.1,38.3,31.6,38.3,33.9z"/>
	<path class="st0" d="M49.9,35.2c0,0.3,0,0.7-0.1,0.9H43c0.3,1.4,1.3,2,2.5,2c0.8,0,1.7-0.3,2.4-0.9l1.5,1.7c-1.1,1-2.5,1.5-4.1,1.5
		c-3,0-5-2-5-5.1c0-3,2-5.1,4.9-5.1C48,30.1,49.9,32.2,49.9,35.2z M43,34.3h4.3c-0.2-1.2-1-1.9-2.1-1.9C44,32.3,43.3,33.1,43,34.3z
		 M43.5,29l2-3.1h3.1L46,29H43.5z"/>
	<path class="st0" d="M59,32.7h-3.5v3.5c0,1.2,0.6,1.6,1.4,1.6c0.6,0,1.3-0.3,1.8-0.6l1,2c-0.8,0.6-1.8,1-3.2,1
		c-2.4,0-3.6-1.4-3.6-3.9v-3.7H51v-2.3h1.9v-2.9h2.6v2.9H59V32.7z"/>
	<path class="st0" d="M67.9,30.3l-0.4,2.6c-0.4-0.2-1-0.3-1.6-0.3c-1.2,0-2,0.7-2,2.2V40h-2.6v-9.7h2.5v1.1c0.6-0.9,1.5-1.3,2.7-1.3
		C67.1,30.1,67.6,30.2,67.9,30.3z"/>
	<path class="st0" d="M78.9,40h-2.5V39c-0.6,0.8-1.6,1.3-2.9,1.3c-2.7,0-4.7-2.2-4.7-5.1c0-2.9,2-5.1,4.7-5.1c1.3,0,2.3,0.5,2.9,1.3
		v-1.1h2.5V40z M71.4,35.2c0,1.5,1,2.7,2.5,2.7c1.5,0,2.5-1.1,2.5-2.7s-1-2.7-2.5-2.7C72.4,32.5,71.4,33.7,71.4,35.2z"/>
	<path class="st0" d="M88.7,32.7h-3.5v3.5c0,1.2,0.6,1.6,1.4,1.6c0.6,0,1.3-0.3,1.8-0.6l1,2c-0.8,0.6-1.8,1-3.2,1
		c-2.4,0-3.6-1.4-3.6-3.9v-3.7h-1.9v-2.3h1.9v-2.9h2.6v2.9h3.5V32.7z"/>
	<path class="st0" d="M93.9,27.2c0,0.9-0.7,1.7-1.7,1.7s-1.7-0.7-1.7-1.7s0.7-1.7,1.7-1.7S93.9,26.2,93.9,27.2z M93.6,40H91v-9.7
		h2.6V40z"/>
	<path class="st0" d="M106.2,35.2c0,2.9-2.2,5.1-5.2,5.1c-3,0-5.2-2.2-5.2-5.1c0-2.9,2.2-5.1,5.2-5.1
		C104,30.1,106.2,32.3,106.2,35.2z M98.4,35.2c0,1.6,1.1,2.7,2.6,2.7s2.6-1.1,2.6-2.7c0-1.6-1.1-2.7-2.6-2.7S98.4,33.6,98.4,35.2z"
		/>
	<path class="st0" d="M117.5,33.9V40h-2.6v-5.3c0-1.4-0.7-2.2-1.9-2.2c-1.1,0-2,0.7-2,2.2V40h-2.6v-9.7h2.5v1.1
		c0.7-1,1.7-1.4,2.8-1.4C115.9,30.1,117.5,31.6,117.5,33.9z"/>
	<path class="st0" d="M132.1,31.4v-5.7h2.6V40h-2.5V39c-0.6,0.8-1.6,1.3-2.9,1.3c-2.7,0-4.7-2.2-4.7-5.1c0-2.9,2-5.1,4.7-5.1
		C130.5,30.1,131.4,30.6,132.1,31.4z M127.2,35.2c0,1.5,1,2.7,2.5,2.7c1.5,0,2.5-1.1,2.5-2.7s-1-2.7-2.5-2.7
		C128.2,32.5,127.2,33.7,127.2,35.2z"/>
	<path class="st0" d="M146.5,35.9c0,3.1-2.2,4.4-4.6,4.4c-2.4,0-4.6-1.3-4.6-4.4v-5.6h2.6v5.3c0,1.5,0.8,2.2,2,2.2
		c1.1,0,2-0.6,2-2.2v-5.3h2.6V35.9z"/>
	<path class="st0" d="M162.5,31.9l-1.9,1.6c-0.6-0.6-1.2-1-2.1-1c-1.3,0-2.4,1.1-2.4,2.7c0,1.6,1.1,2.7,2.4,2.7c0.8,0,1.6-0.4,2.1-1
		l1.9,1.6c-0.9,1.2-2.3,1.8-3.9,1.8c-3.1,0-5.2-2.2-5.2-5.1c0-2.9,2.1-5.1,5.2-5.1C160.3,30.1,161.6,30.7,162.5,31.9z"/>
	<path class="st0" d="M174.1,35.2c0,2.9-2.2,5.1-5.2,5.1c-3,0-5.2-2.2-5.2-5.1c0-2.9,2.2-5.1,5.2-5.1
		C171.9,30.1,174.1,32.3,174.1,35.2z M166.3,35.2c0,1.6,1.1,2.7,2.6,2.7s2.6-1.1,2.6-2.7c0-1.6-1.1-2.7-2.6-2.7
		S166.3,33.6,166.3,35.2z"/>
	<path class="st0" d="M191.9,33.9V40h-2.6v-5.3c0-1.4-0.7-2.2-1.9-2.2c-1.1,0-2,0.7-2,2.2V40h-2.6v-5.3c0-1.4-0.7-2.2-1.9-2.2
		c-1.1,0-2,0.7-2,2.2V40h-2.6v-9.7h2.5v1.1c0.7-1,1.7-1.4,2.8-1.4c1.4,0,2.5,0.6,3.2,1.7c0.7-1.2,2-1.7,3.3-1.7
		C190.4,30.1,191.9,31.6,191.9,33.9z"/>
	<path class="st0" d="M210.3,33.9V40h-2.6v-5.3c0-1.4-0.7-2.2-1.9-2.2c-1.1,0-2,0.7-2,2.2V40h-2.6v-5.3c0-1.4-0.7-2.2-1.9-2.2
		c-1.1,0-2,0.7-2,2.2V40h-2.6v-9.7h2.5v1.1c0.7-1,1.7-1.4,2.8-1.4c1.4,0,2.5,0.6,3.2,1.7c0.7-1.2,2-1.7,3.3-1.7
		C208.8,30.1,210.3,31.6,210.3,33.9z"/>
	<path class="st0" d="M222,35.2c0,0.3,0,0.7-0.1,0.9H215c0.3,1.4,1.3,2,2.5,2c0.8,0,1.7-0.3,2.4-0.9l1.5,1.7c-1.1,1-2.5,1.5-4.1,1.5
		c-3,0-5-2-5-5.1c0-3,2-5.1,4.9-5.1C220,30.1,222,32.2,222,35.2z M215.1,34.3h4.3c-0.2-1.2-1-1.9-2.1-1.9
		C216,32.3,215.3,33.1,215.1,34.3z"/>
	<path class="st0" d="M230.7,30.3l-0.4,2.6c-0.4-0.2-1-0.3-1.6-0.3c-1.2,0-2,0.7-2,2.2V40h-2.6v-9.7h2.5v1.1
		c0.6-0.9,1.5-1.3,2.7-1.3C229.9,30.1,230.4,30.2,230.7,30.3z"/>
	<path class="st0" d="M240.6,31.9l-1.9,1.6c-0.6-0.6-1.2-1-2.1-1c-1.3,0-2.4,1.1-2.4,2.7c0,1.6,1.1,2.7,2.4,2.7c0.8,0,1.6-0.4,2.1-1
		l1.9,1.6c-0.9,1.2-2.3,1.8-3.9,1.8c-3.1,0-5.2-2.2-5.2-5.1c0-2.9,2.1-5.1,5.2-5.1C238.3,30.1,239.7,30.7,240.6,31.9z"/>
	<path class="st0" d="M251.3,35.2c0,0.3,0,0.7-0.1,0.9h-6.9c0.3,1.4,1.3,2,2.5,2c0.8,0,1.7-0.3,2.4-0.9l1.5,1.7
		c-1.1,1-2.5,1.5-4.1,1.5c-3,0-5-2-5-5.1c0-3,2-5.1,4.9-5.1C249.4,30.1,251.3,32.2,251.3,35.2z M244.4,34.3h4.3
		c-0.2-1.2-1-1.9-2.1-1.9C245.3,32.3,244.6,33.1,244.4,34.3z"/>
	<path class="st0" d="M267.4,35.2c0,0.3,0,0.7-0.1,0.9h-6.9c0.3,1.4,1.3,2,2.5,2c0.8,0,1.7-0.3,2.4-0.9l1.5,1.7
		c-1.1,1-2.5,1.5-4.1,1.5c-3,0-5-2-5-5.1c0-3,2-5.1,4.9-5.1C265.5,30.1,267.4,32.2,267.4,35.2z M260.5,34.3h4.3
		c-0.2-1.2-1-1.9-2.1-1.9C261.4,32.3,260.7,33.1,260.5,34.3z"/>
	<path class="st0" d="M278.7,33.9V40h-2.6v-5.3c0-1.4-0.7-2.2-1.9-2.2c-1.1,0-2,0.7-2,2.2V40h-2.6v-9.7h2.5v1.1
		c0.7-1,1.7-1.4,2.8-1.4C277.1,30.1,278.7,31.6,278.7,33.9z"/>
	<path class="st0" d="M288.9,40h-2.6V25.6h2.6V40z"/>
	<path class="st0" d="M294.6,27.2c0,0.9-0.7,1.7-1.7,1.7s-1.7-0.7-1.7-1.7s0.7-1.7,1.7-1.7S294.6,26.2,294.6,27.2z M294.3,40h-2.6
		v-9.7h2.6V40z"/>
	<path class="st0" d="M303.9,31.4v-1.1h2.6v8.9c0,3.1-2,5-5.2,5c-1.5,0-3.1-0.4-4.2-1.2l0.9-2.1c1,0.6,2,1,3.2,1
		c1.6,0,2.8-0.9,2.8-2.6v-0.7c-0.7,0.8-1.6,1.3-3,1.3c-2.4,0-4.5-2-4.5-4.9c0-3,2.1-4.9,4.5-4.9C302.2,30.1,303.2,30.6,303.9,31.4z
		 M299.1,35c0,1.4,0.9,2.5,2.4,2.5c1.4,0,2.4-1.1,2.4-2.5c0-1.4-1-2.5-2.4-2.5C300,32.5,299.1,33.6,299.1,35z"/>
	<path class="st0" d="M318.3,33.9V40h-2.6v-5.3c0-1.4-0.7-2.2-1.9-2.2c-1.1,0-2,0.7-2,2.2V40h-2.6v-9.7h2.5v1.1
		c0.7-1,1.7-1.4,2.8-1.4C316.7,30.1,318.3,31.6,318.3,33.9z"/>
	<path class="st0" d="M330,35.2c0,0.3,0,0.7-0.1,0.9h-6.9c0.3,1.4,1.3,2,2.5,2c0.8,0,1.7-0.3,2.4-0.9l1.5,1.7
		c-1.1,1-2.5,1.5-4.1,1.5c-3,0-5-2-5-5.1c0-3,2-5.1,4.9-5.1C328.1,30.1,330,32.2,330,35.2z M323.1,34.3h4.3c-0.2-1.2-1-1.9-2.1-1.9
		C324,32.3,323.3,33.1,323.1,34.3z"/>
	<path class="st0" d="M346.1,35.2c0,0.3,0,0.7-0.1,0.9h-6.9c0.3,1.4,1.3,2,2.5,2c0.8,0,1.7-0.3,2.4-0.9l1.5,1.7
		c-1.1,1-2.5,1.5-4.1,1.5c-3,0-5-2-5-5.1c0-3,2-5.1,4.9-5.1C344.2,30.1,346.1,32.2,346.1,35.2z M339.2,34.3h4.3
		c-0.2-1.2-1-1.9-2.1-1.9C340.1,32.3,339.4,33.1,339.2,34.3z"/>
	<path class="st0" d="M357.4,33.9V40h-2.6v-5.3c0-1.4-0.7-2.2-1.9-2.2c-1.1,0-2,0.7-2,2.2V40h-2.6v-9.7h2.5v1.1
		c0.7-1,1.7-1.4,2.8-1.4C355.8,30.1,357.4,31.6,357.4,33.9z"/>
	<path class="st0" d="M364.3,28.2c0.8-1,2.2-2.4,4.8-2.4c2.9,0,4.7,1.8,4.7,4.5c0,1.7-0.9,2.9-2,4.1l-3,3.1h5.3V40h-9.2v-2.1
		l4.9-5.1c0.7-0.8,1.1-1.5,1.1-2.4c0-1.2-0.8-2.1-2.1-2.1c-1.3,0-2.1,0.7-2.8,1.5L364.3,28.2z"/>
	<path class="st0" d="M388,33c0,4.5-2.7,7.2-6,7.2c-3.3,0-6-2.7-6-7.2s2.7-7.2,6-7.2C385.3,25.8,388,28.5,388,33z M378.7,33
		c0,3.1,1.4,4.7,3.2,4.7c1.8,0,3.2-1.6,3.2-4.7s-1.4-4.7-3.2-4.7C380.1,28.4,378.7,30,378.7,33z"/>
	<path class="st0" d="M395.6,40h-2.7V29.6l-3.3,1.4v-2.7l6-2.4V40z"/>
	<path class="st0" d="M403.4,35.2c-0.2,0-0.4,0-0.6,0c-2.8,0-4.8-2-4.8-4.6c0-2.7,2.2-4.8,5.3-4.8c3,0,5.3,2,5.3,4.7
		c0,1.3-0.5,2.4-1.3,3.7l-3.9,5.8h-3.3L403.4,35.2z M405.6,30.5c0-1.4-1-2.3-2.4-2.3c-1.4,0-2.4,0.9-2.4,2.3c0,1.3,1,2.3,2.4,2.3
		C404.5,32.8,405.6,31.9,405.6,30.5z"/>
</g>
<g>
	<path class="st0" d="M98.7,367.4c0.9-1.2,2.6-2.9,5.7-2.9c3.5,0,5.7,2.2,5.7,5.4c0,2.1-1,3.5-2.4,4.9l-3.6,3.7h6.4v3H99.4V379
		l5.9-6.1c0.9-0.9,1.4-1.8,1.4-2.9c0-1.5-1-2.5-2.6-2.5c-1.6,0-2.5,0.9-3.4,1.8L98.7,367.4z"/>
	<path class="st0" d="M127.6,369c0,2.6-2,4.6-4.7,4.6c-2.7,0-4.7-2-4.7-4.6c0-2.6,2-4.6,4.7-4.6C125.6,364.5,127.6,366.4,127.6,369z
		 M120.9,369c0,1.2,0.9,2.1,2,2.1c1.2,0,2-0.9,2-2.1c0-1.2-0.9-2.1-2-2.1C121.7,367,120.9,367.8,120.9,369z M125.1,381.6H122
		l11.3-16.8h3.1L125.1,381.6z M140.2,377.3c0,2.6-2,4.6-4.7,4.6c-2.7,0-4.7-2-4.7-4.6c0-2.6,2-4.6,4.7-4.6
		C138.2,372.7,140.2,374.7,140.2,377.3z M133.5,377.3c0,1.2,0.9,2.1,2,2.1c1.2,0,2-0.9,2-2.1c0-1.2-0.9-2.1-2-2.1
		C134.3,375.2,133.5,376.1,133.5,377.3z"/>
</g>
<g>
	<path class="st0" d="M225.2,367.8c0.9-1.2,2.6-2.9,5.7-2.9c3.5,0,5.7,2.2,5.7,5.4c0,2.1-1,3.5-2.4,4.9l-3.6,3.7h6.4v3H226v-2.5
		l5.9-6.1c0.9-0.9,1.4-1.8,1.4-2.9c0-1.5-1-2.5-2.6-2.5c-1.6,0-2.5,0.9-3.4,1.8L225.2,367.8z"/>
	<path class="st0" d="M254.1,369.4c0,2.6-2,4.6-4.7,4.6c-2.7,0-4.7-2-4.7-4.6c0-2.6,2-4.6,4.7-4.6
		C252.1,364.9,254.1,366.8,254.1,369.4z M247.4,369.4c0,1.2,0.9,2.1,2,2.1c1.2,0,2-0.9,2-2.1c0-1.2-0.9-2.1-2-2.1
		C248.3,367.4,247.4,368.2,247.4,369.4z M251.7,382h-3.1l11.3-16.8h3.1L251.7,382z M266.7,377.7c0,2.6-2,4.6-4.7,4.6
		c-2.7,0-4.7-2-4.7-4.6c0-2.6,2-4.6,4.7-4.6C264.7,373.1,266.7,375.1,266.7,377.7z M260,377.7c0,1.2,0.9,2.1,2,2.1
		c1.2,0,2-0.9,2-2.1c0-1.2-0.9-2.1-2-2.1C260.9,375.6,260,376.5,260,377.7z"/>
</g>
<g>
	<path class="st0" d="M361.9,353h2.3v3h-2.3v3.1h-3.2V356h-7.4v-2.4l5.9-11.4h3.6l-5.6,10.7h3.6v-4.5h3.2V353z"/>
	<path class="st0" d="M380.9,346.6c0,2.6-2,4.6-4.7,4.6c-2.7,0-4.7-2-4.7-4.6c0-2.6,2-4.6,4.7-4.6
		C378.9,342,380.9,343.9,380.9,346.6z M374.2,346.6c0,1.2,0.9,2.1,2,2.1c1.2,0,2-0.9,2-2.1c0-1.2-0.9-2.1-2-2.1
		C375.1,344.5,374.2,345.4,374.2,346.6z M378.5,359.1h-3.1l11.3-16.8h3.1L378.5,359.1z M393.6,354.8c0,2.6-2,4.6-4.7,4.6
		c-2.7,0-4.7-2-4.7-4.6c0-2.6,2-4.6,4.7-4.6C391.5,350.2,393.6,352.2,393.6,354.8z M386.8,354.8c0,1.2,0.9,2.1,2,2.1
		c1.2,0,2-0.9,2-2.1c0-1.2-0.9-2.1-2-2.1C387.7,352.7,386.8,353.6,386.8,354.8z"/>
</g>
<g>
	<path class="st0" d="M488.5,353.2h2.3v3h-2.3v3.1h-3.2v-3.1h-7.4v-2.4l5.9-11.4h3.6l-5.6,10.7h3.6v-4.5h3.2V353.2z"/>
	<path class="st0" d="M507.5,346.7c0,2.6-2,4.6-4.7,4.6c-2.7,0-4.7-2-4.7-4.6c0-2.6,2-4.6,4.7-4.6
		C505.5,342.2,507.5,344.1,507.5,346.7z M500.8,346.7c0,1.2,0.9,2.1,2,2.1c1.2,0,2-0.9,2-2.1c0-1.2-0.9-2.1-2-2.1
		C501.7,344.7,500.8,345.5,500.8,346.7z M505.1,359.2h-3.1l11.3-16.8h3.1L505.1,359.2z M520.1,355c0,2.6-2,4.6-4.7,4.6
		c-2.7,0-4.7-2-4.7-4.6c0-2.6,2-4.6,4.7-4.6C518.1,350.4,520.1,352.3,520.1,355z M513.4,355c0,1.2,0.9,2.1,2,2.1c1.2,0,2-0.9,2-2.1
		c0-1.2-0.9-2.1-2-2.1C514.3,352.9,513.4,353.8,513.4,355z"/>
</g>
<g>
	<path class="st0" d="M615,353.1h2.3v3H615v3.1h-3.2v-3.1h-7.4v-2.4l5.9-11.4h3.6l-5.6,10.7h3.6v-4.5h3.2V353.1z"/>
	<path class="st0" d="M634.1,346.7c0,2.6-2,4.6-4.7,4.6c-2.7,0-4.7-2-4.7-4.6c0-2.6,2-4.6,4.7-4.6
		C632.1,342.1,634.1,344.1,634.1,346.7z M627.4,346.7c0,1.2,0.9,2.1,2,2.1c1.2,0,2-0.9,2-2.1c0-1.2-0.9-2.1-2-2.1
		C628.2,344.7,627.4,345.5,627.4,346.7z M631.6,359.2h-3.1l11.3-16.8h3.1L631.6,359.2z M646.7,355c0,2.6-2,4.6-4.7,4.6
		c-2.7,0-4.7-2-4.7-4.6c0-2.6,2-4.6,4.7-4.6C644.7,350.4,646.7,352.3,646.7,355z M640,355c0,1.2,0.9,2.1,2,2.1c1.2,0,2-0.9,2-2.1
		c0-1.2-0.9-2.1-2-2.1C640.8,352.9,640,353.7,640,355z"/>
</g>
<g>
	<path class="st0" d="M742.4,333.9h-6.8l-0.1,3.4h1.9c3.9,0,5.9,2.2,5.9,5c0,3.6-2.7,5.7-6.1,5.7c-2.5,0-4.6-0.9-5.9-2.5l1.8-2.3
		c0.9,1,2.6,1.8,4.1,1.8c1.9,0,2.8-1.1,2.8-2.4c0-1.3-0.8-2.4-3.4-2.4h-4l0.2-9.3h9.7V333.9z"/>
	<path class="st0" d="M760.6,335.2c0,2.6-2,4.6-4.7,4.6c-2.7,0-4.7-2-4.7-4.6c0-2.6,2-4.6,4.7-4.6
		C758.6,330.6,760.6,332.5,760.6,335.2z M753.9,335.2c0,1.2,0.9,2.1,2,2.1c1.2,0,2-0.9,2-2.1c0-1.2-0.9-2.1-2-2.1
		C754.8,333.1,753.9,334,753.9,335.2z M758.2,347.7H755l11.3-16.8h3.1L758.2,347.7z M773.2,343.4c0,2.6-2,4.6-4.7,4.6
		c-2.7,0-4.7-2-4.7-4.6c0-2.6,2-4.6,4.7-4.6C771.2,338.8,773.2,340.8,773.2,343.4z M766.5,343.4c0,1.2,0.9,2.1,2,2.1
		c1.2,0,2-0.9,2-2.1c0-1.2-0.9-2.1-2-2.1C767.4,341.3,766.5,342.2,766.5,343.4z"/>
</g>
<g>
	<path class="st0" d="M868.2,352.8h2.3v3h-2.3v3.1h-3.2v-3.1h-7.4v-2.4l5.9-11.4h3.6l-5.6,10.7h3.6v-4.5h3.2V352.8z"/>
	<path class="st0" d="M887.2,346.4c0,2.6-2,4.6-4.7,4.6c-2.7,0-4.7-2-4.7-4.6c0-2.6,2-4.6,4.7-4.6
		C885.2,341.8,887.2,343.8,887.2,346.4z M880.5,346.4c0,1.2,0.9,2.1,2,2.1c1.2,0,2-0.9,2-2.1c0-1.2-0.9-2.1-2-2.1
		C881.4,344.3,880.5,345.2,880.5,346.4z M884.8,358.9h-3.1l11.3-16.8h3.1L884.8,358.9z M899.8,354.6c0,2.6-2,4.6-4.7,4.6
		c-2.7,0-4.7-2-4.7-4.6c0-2.6,2-4.6,4.7-4.6C897.8,350.1,899.8,352,899.8,354.6z M893.1,354.6c0,1.2,0.9,2.1,2,2.1
		c1.2,0,2-0.9,2-2.1s-0.9-2.1-2-2.1C894,352.6,893.1,353.4,893.1,354.6z"/>
</g>
<g>
	<path class="st0" d="M988.6,279.8h-3.2v-12.5l-4,1.6v-3.3l7.3-2.9V279.8z"/>
	<path class="st0" d="M998.5,279.8h-3.2v-12.5l-4,1.6v-3.3l7.3-2.9V279.8z"/>
	<path class="st0" d="M1016.6,267.3c0,2.6-2,4.6-4.7,4.6c-2.7,0-4.7-2-4.7-4.6c0-2.6,2-4.6,4.7-4.6
		C1014.6,262.7,1016.6,264.6,1016.6,267.3z M1009.9,267.3c0,1.2,0.9,2.1,2,2.1c1.2,0,2-0.9,2-2.1c0-1.2-0.9-2.1-2-2.1
		C1010.8,265.2,1009.9,266.1,1009.9,267.3z M1014.2,279.8h-3.1l11.3-16.8h3.1L1014.2,279.8z M1029.2,275.5c0,2.6-2,4.6-4.7,4.6
		c-2.7,0-4.7-2-4.7-4.6c0-2.6,2-4.6,4.7-4.6C1027.2,270.9,1029.2,272.9,1029.2,275.5z M1022.5,275.5c0,1.2,0.9,2.1,2,2.1
		c1.2,0,2-0.9,2-2.1c0-1.2-0.9-2.1-2-2.1C1023.4,273.4,1022.5,274.3,1022.5,275.5z"/>
</g>
<g>
	<path class="st0" d="M1104.1,94.7c0.9-1.2,2.6-2.9,5.7-2.9c3.5,0,5.7,2.2,5.7,5.4c0,2.1-1,3.5-2.4,4.9l-3.6,3.7h6.4v3h-11.1v-2.5
		l5.9-6.1c0.9-0.9,1.4-1.8,1.4-2.9c0-1.5-1-2.5-2.6-2.5c-1.6,0-2.5,0.9-3.4,1.8L1104.1,94.7z"/>
	<path class="st0" d="M1123.6,98c0.2,0,0.5,0,0.8,0c3.4,0,5.8,2.4,5.8,5.6c0,3.3-2.7,5.7-6.3,5.7c-3.6,0-6.3-2.4-6.3-5.7
		c0-1.5,0.6-2.9,1.6-4.5l4.7-7h3.9L1123.6,98z M1120.9,103.5c0,1.6,1.3,2.8,2.9,2.8c1.7,0,3-1.1,3-2.8c0-1.6-1.3-2.8-3-2.8
		C1122.2,100.8,1120.9,101.9,1120.9,103.5z"/>
	<path class="st0" d="M1147.2,96.4c0,2.6-2,4.6-4.7,4.6c-2.7,0-4.7-2-4.7-4.6c0-2.6,2-4.6,4.7-4.6
		C1145.2,91.8,1147.2,93.8,1147.2,96.4z M1140.5,96.4c0,1.2,0.9,2.1,2,2.1c1.2,0,2-0.9,2-2.1c0-1.2-0.9-2.1-2-2.1
		C1141.3,94.3,1140.5,95.2,1140.5,96.4z M1144.7,108.9h-3.1l11.3-16.8h3.1L1144.7,108.9z M1159.8,104.7c0,2.6-2,4.6-4.7,4.6
		c-2.7,0-4.7-2-4.7-4.6c0-2.6,2-4.6,4.7-4.6C1157.8,100.1,1159.8,102,1159.8,104.7z M1153.1,104.7c0,1.2,0.9,2.1,2,2.1
		c1.2,0,2-0.9,2-2.1s-0.9-2.1-2-2.1C1153.9,102.6,1153.1,103.4,1153.1,104.7z"/>
</g>
<g>
	<path class="st0" d="M71.8,438.8v5.1H69v-14h5.7c3.3,0,5.1,1.7,5.1,4.4c0,2.7-1.8,4.4-5.1,4.4H71.8z M71.8,432.5v3.8h2.9
		c1.5,0,2.3-0.6,2.3-1.9c0-1.2-0.8-1.9-2.3-1.9H71.8z"/>
	<path class="st0" d="M84.6,435.2c0.7-1,1.7-1.3,2.8-1.3c2.2,0,3.8,1.5,3.8,3.8v6.2h-2.6v-5.3c0-1.4-0.7-2.2-1.9-2.2
		c-1.1,0-2,0.7-2,2.2v5.3H82v-14.4h2.6V435.2z"/>
	<path class="st0" d="M96.8,431c0,0.9-0.7,1.7-1.7,1.7s-1.7-0.7-1.7-1.7s0.7-1.7,1.7-1.7S96.8,430.1,96.8,431z M96.4,443.9h-2.6
		v-9.7h2.6V443.9z"/>
	<path class="st0" d="M101.8,443.9h-2.6v-14.4h2.6V443.9z"/>
	<path class="st0" d="M107.5,431c0,0.9-0.7,1.7-1.7,1.7s-1.7-0.7-1.7-1.7s0.7-1.7,1.7-1.7S107.5,430.1,107.5,431z M107.1,443.9h-2.6
		v-9.7h2.6V443.9z"/>
	<path class="st0" d="M120,439c0,2.9-2,5.1-4.7,5.1c-1.3,0-2.2-0.5-2.8-1.3v5h-2.6v-13.7h2.5v1.1c0.6-0.8,1.6-1.3,2.9-1.3
		C118,433.9,120,436.1,120,439z M112.3,439c0,1.5,1,2.7,2.5,2.7c1.5,0,2.5-1.2,2.5-2.7c0-1.5-1-2.7-2.5-2.7
		C113.3,436.4,112.3,437.5,112.3,439z"/>
	<path class="st0" d="M132.3,439c0,2.9-2,5.1-4.7,5.1c-1.3,0-2.2-0.5-2.8-1.3v5h-2.6v-13.7h2.5v1.1c0.6-0.8,1.6-1.3,2.9-1.3
		C130.3,433.9,132.3,436.1,132.3,439z M124.6,439c0,1.5,1,2.7,2.5,2.7c1.5,0,2.5-1.2,2.5-2.7c0-1.5-1-2.7-2.5-2.7
		C125.6,436.4,124.6,437.5,124.6,439z"/>
	<path class="st0" d="M137.4,431c0,0.9-0.7,1.7-1.7,1.7S134,432,134,431s0.7-1.7,1.7-1.7S137.4,430.1,137.4,431z M137,443.9h-2.6
		v-9.7h2.6V443.9z"/>
	<path class="st0" d="M148.9,437.7v6.2h-2.6v-5.3c0-1.4-0.7-2.2-1.9-2.2c-1.1,0-2,0.7-2,2.2v5.3h-2.6v-9.7h2.5v1.1
		c0.7-1,1.7-1.4,2.8-1.4C147.3,433.9,148.9,435.5,148.9,437.7z"/>
	<path class="st0" d="M160.6,439c0,0.3,0,0.7,0,0.9h-6.9c0.3,1.4,1.3,2,2.5,2c0.8,0,1.7-0.3,2.4-0.9l1.5,1.7c-1.1,1-2.5,1.5-4.1,1.5
		c-3,0-5-2-5-5.1s2-5.1,4.9-5.1C158.7,433.9,160.6,436,160.6,439z M153.7,438.1h4.3c-0.2-1.2-1-1.9-2.1-1.9
		C154.6,436.2,153.9,436.9,153.7,438.1z"/>
	<path class="st0" d="M169.7,436.9c-0.8-0.4-2-0.8-3.1-0.8c-1,0-1.5,0.3-1.5,0.9c0,0.6,0.7,0.7,1.6,0.8l0.9,0.1
		c2.1,0.3,3.3,1.3,3.3,2.9c0,2-1.6,3.3-4.4,3.3c-1.3,0-3-0.2-4.3-1.1l1-2c0.8,0.6,1.8,1,3.3,1c1.2,0,1.8-0.3,1.8-0.9
		c0-0.5-0.5-0.7-1.6-0.9l-0.8-0.1c-2.2-0.3-3.3-1.3-3.3-2.9c0-2,1.5-3.2,4.1-3.2c1.5,0,2.8,0.3,4,0.9L169.7,436.9z"/>
</g>
<g>
	<path class="st0" d="M222.8,443.9H220v-10.6l-3.5,9.2h-2.9l-3.5-9.1v10.5h-2.8v-14h4.1l3.6,9.4l3.6-9.4h4.1V443.9z"/>
	<path class="st0" d="M235.3,443.9h-2.5v-1.1c-0.6,0.8-1.6,1.3-2.9,1.3c-2.7,0-4.7-2.2-4.7-5.1c0-2.9,2-5.1,4.7-5.1
		c1.3,0,2.3,0.5,2.9,1.3v-1.1h2.5V443.9z M227.8,439c0,1.5,1,2.7,2.5,2.7c1.5,0,2.5-1.1,2.5-2.7c0-1.5-1-2.7-2.5-2.7
		C228.8,436.4,227.8,437.6,227.8,439z"/>
	<path class="st0" d="M240.6,443.9H238v-14.4h2.6V443.9z"/>
	<path class="st0" d="M252.9,443.9h-2.5v-1.1c-0.6,0.8-1.6,1.3-2.9,1.3c-2.7,0-4.7-2.2-4.7-5.1c0-2.9,2-5.1,4.7-5.1
		c1.3,0,2.3,0.5,2.9,1.3v-1.1h2.5V443.9z M245.5,439c0,1.5,1,2.7,2.5,2.7c1.5,0,2.5-1.1,2.5-2.7c0-1.5-1-2.7-2.5-2.7
		C246.4,436.4,245.5,437.6,245.5,439z"/>
	<path class="st0" d="M258.6,431c0,0.9-0.7,1.7-1.7,1.7s-1.7-0.7-1.7-1.7s0.7-1.7,1.7-1.7S258.6,430.1,258.6,431z M258.3,443.9h-2.6
		v-9.7h2.6V443.9z"/>
	<path class="st0" d="M268,436.9c-0.8-0.4-2-0.8-3.1-0.8c-1,0-1.5,0.3-1.5,0.9c0,0.6,0.7,0.7,1.6,0.8l0.9,0.1
		c2.1,0.3,3.3,1.3,3.3,2.9c0,2-1.6,3.3-4.4,3.3c-1.3,0-3-0.2-4.3-1.1l1-2c0.8,0.5,1.8,0.9,3.3,0.9c1.2,0,1.8-0.3,1.8-0.9
		c0-0.5-0.5-0.7-1.6-0.9l-0.8-0.1c-2.2-0.3-3.3-1.3-3.3-2.9c0-2,1.5-3.2,4.1-3.2c1.5,0,2.8,0.3,4,0.9L268,436.9z"/>
	<path class="st0" d="M274.1,431c0,0.9-0.7,1.7-1.7,1.7s-1.7-0.7-1.7-1.7s0.7-1.7,1.7-1.7S274.1,430.1,274.1,431z M273.8,443.9h-2.6
		v-9.7h2.6V443.9z"/>
	<path class="st0" d="M285.5,439c0,0.3,0,0.7,0,0.9h-6.9c0.3,1.4,1.3,2,2.5,2c0.8,0,1.7-0.3,2.4-0.9l1.5,1.7c-1.1,1-2.5,1.5-4.1,1.5
		c-3,0-5-2-5-5.1c0-3,2-5.1,4.9-5.1C283.6,433.9,285.5,436,285.5,439z M278.6,438.1h4.3c-0.2-1.2-1-1.9-2.1-1.9
		C279.6,436.2,278.8,436.9,278.6,438.1z"/>
</g>
<g>
	<path class="st0" d="M337.2,432.5h-4.3v11.4H330v-11.4h-4.3v-2.6h11.5V432.5z"/>
	<path class="st0" d="M341.5,435.2c0.7-1,1.7-1.3,2.8-1.3c2.2,0,3.8,1.5,3.8,3.8v6.2h-2.6v-5.3c0-1.4-0.7-2.2-1.9-2.2
		c-1.1,0-2,0.7-2,2.2v5.3h-2.6v-14.4h2.6V435.2z"/>
	<path class="st0" d="M360.2,443.9h-2.5v-1.1c-0.6,0.8-1.6,1.3-2.9,1.3c-2.7,0-4.7-2.2-4.7-5.1s2-5.1,4.7-5.1c1.3,0,2.3,0.5,2.9,1.3
		v-1.1h2.5V443.9z M352.7,439c0,1.5,1,2.7,2.5,2.7c1.5,0,2.5-1.1,2.5-2.7s-1-2.7-2.5-2.7C353.7,436.4,352.7,437.6,352.7,439z"/>
	<path class="st0" d="M363.8,431.3c0,0.9-0.7,1.7-1.7,1.7c-0.9,0-1.7-0.7-1.7-1.7s0.7-1.7,1.7-1.7
		C363,429.6,363.8,430.4,363.8,431.3z M365.6,443.9H363v-9.7h2.6V443.9z M368.1,431.3c0,0.9-0.7,1.7-1.7,1.7c-0.9,0-1.7-0.7-1.7-1.7
		s0.7-1.7,1.7-1.7C367.3,429.6,368.1,430.4,368.1,431.3z"/>
	<path class="st0" d="M370.9,443.9h-2.6v-14.4h2.6V443.9z"/>
	<path class="st0" d="M383.2,443.9h-2.5v-1.1c-0.6,0.8-1.6,1.3-2.9,1.3c-2.7,0-4.7-2.2-4.7-5.1s2-5.1,4.7-5.1c1.3,0,2.3,0.5,2.9,1.3
		v-1.1h2.5V443.9z M375.7,439c0,1.5,1,2.7,2.5,2.7c1.5,0,2.5-1.1,2.5-2.7s-1-2.7-2.5-2.7C376.7,436.4,375.7,437.6,375.7,439z"/>
	<path class="st0" d="M395.1,437.7v6.2h-2.6v-5.3c0-1.4-0.7-2.2-1.9-2.2c-1.1,0-2,0.7-2,2.2v5.3h-2.6v-9.7h2.5v1.1
		c0.7-1,1.7-1.4,2.8-1.4C393.5,433.9,395.1,435.5,395.1,437.7z"/>
	<path class="st0" d="M404.7,435.2v-5.7h2.6v14.4h-2.5v-1.1c-0.6,0.8-1.6,1.3-2.9,1.3c-2.7,0-4.7-2.2-4.7-5.1s2-5.1,4.7-5.1
		C403.1,433.9,404.1,434.4,404.7,435.2z M399.8,439c0,1.5,1,2.7,2.5,2.7c1.5,0,2.5-1.1,2.5-2.7s-1-2.7-2.5-2.7
		C400.8,436.4,399.8,437.6,399.8,439z"/>
	<path class="st0" d="M419,439c0,0.3,0,0.7,0,0.9h-6.9c0.3,1.4,1.3,2,2.5,2c0.8,0,1.7-0.3,2.4-0.9l1.5,1.7c-1.1,1-2.5,1.5-4.1,1.5
		c-3,0-5-2-5-5.1c0-3,2-5.1,4.9-5.1C417.1,433.9,419,436,419,439z M412.1,438.1h4.3c-0.2-1.2-1-1.9-2.1-1.9
		C413.1,436.2,412.4,436.9,412.1,438.1z"/>
</g>
<g>
	<path class="st0" d="M460.5,433.4c-1.1-0.7-2.4-1.2-4-1.2c-1.6,0-2.7,0.6-2.7,1.7c0,1,1.2,1.3,2.9,1.6l0.8,0.1
		c2.5,0.4,4.5,1.5,4.5,3.9c0,3.1-2.7,4.6-5.7,4.6c-2.1,0-4.4-0.6-5.9-1.8l1.4-2.2c1,0.8,2.7,1.5,4.5,1.5c1.5,0,2.7-0.6,2.7-1.7
		c0-1-1-1.3-3-1.6l-0.9-0.1c-2.5-0.4-4.3-1.5-4.3-4c0-2.9,2.6-4.4,5.6-4.4c2,0,3.6,0.4,5.3,1.5L460.5,433.4z"/>
	<path class="st0" d="M467.2,431c0,0.9-0.7,1.7-1.7,1.7s-1.7-0.7-1.7-1.7s0.7-1.7,1.7-1.7S467.2,430.1,467.2,431z M466.9,443.9h-2.6
		v-9.7h2.6V443.9z"/>
	<path class="st0" d="M478.8,437.7v6.2h-2.6v-5.3c0-1.4-0.7-2.2-1.9-2.2c-1.1,0-2,0.7-2,2.2v5.3h-2.6v-9.7h2.5v1.1
		c0.7-1,1.7-1.4,2.8-1.4C477.2,433.9,478.8,435.5,478.8,437.7z"/>
	<path class="st0" d="M488.3,435.3v-1.1h2.6v8.9c0,3.1-2,5-5.2,5c-1.5,0-3.1-0.4-4.2-1.2l0.9-2.1c1,0.6,2,1,3.2,1
		c1.6,0,2.8-0.9,2.8-2.6v-0.7c-0.7,0.8-1.6,1.3-3,1.3c-2.4,0-4.5-2-4.5-4.9c0-3,2.1-4.9,4.5-4.9
		C486.6,433.9,487.6,434.5,488.3,435.3z M483.5,438.9c0,1.4,0.9,2.5,2.4,2.5c1.4,0,2.4-1.1,2.4-2.5c0-1.4-1-2.5-2.4-2.5
		C484.5,436.3,483.5,437.5,483.5,438.9z"/>
	<path class="st0" d="M503.1,443.9h-2.5v-1.1c-0.6,0.8-1.6,1.3-2.9,1.3c-2.7,0-4.7-2.2-4.7-5.1c0-2.9,2-5.1,4.7-5.1
		c1.3,0,2.3,0.5,2.9,1.3v-1.1h2.5V443.9z M495.7,439c0,1.5,1,2.7,2.5,2.7c1.5,0,2.5-1.1,2.5-2.7c0-1.5-1-2.7-2.5-2.7
		C496.6,436.4,495.7,437.6,495.7,439z"/>
	<path class="st0" d="M516,439c0,2.9-2,5.1-4.7,5.1c-1.3,0-2.2-0.5-2.8-1.3v5h-2.6v-13.7h2.5v1.1c0.6-0.8,1.6-1.3,2.9-1.3
		C514,433.9,516,436.1,516,439z M508.3,439c0,1.5,1,2.7,2.5,2.7c1.5,0,2.5-1.2,2.5-2.7c0-1.5-1-2.7-2.5-2.7
		C509.4,436.4,508.3,437.5,508.3,439z"/>
	<path class="st0" d="M528,439c0,2.9-2.2,5.1-5.2,5.1c-3,0-5.2-2.2-5.2-5.1c0-2.9,2.2-5.1,5.2-5.1C525.8,433.9,528,436.1,528,439z
		 M520.2,439c0,1.6,1.1,2.7,2.6,2.7c1.5,0,2.6-1.1,2.6-2.7c0-1.6-1.1-2.7-2.6-2.7C521.3,436.4,520.2,437.5,520.2,439z"/>
	<path class="st0" d="M539.2,439.8c0,3.1-2.2,4.4-4.6,4.4c-2.4,0-4.6-1.3-4.6-4.4v-5.6h2.6v5.3c0,1.5,0.8,2.2,2,2.2
		c1.1,0,2-0.6,2-2.2v-5.3h2.6V439.8z"/>
	<path class="st0" d="M548.5,434.1l-0.4,2.6c-0.4-0.2-1-0.3-1.6-0.3c-1.2,0-2,0.7-2,2.2v5.3h-2.6v-9.7h2.5v1.1
		c0.6-0.9,1.5-1.3,2.7-1.3C547.7,433.9,548.2,434,548.5,434.1z"/>
</g>
<g>
	<path class="st0" d="M593.3,443.9h-3.4l-5.3-14h3l4,11.2l4-11.2h2.9L593.3,443.9z"/>
	<path class="st0" d="M603.1,431c0,0.9-0.7,1.7-1.7,1.7s-1.7-0.7-1.7-1.7s0.7-1.7,1.7-1.7S603.1,430.1,603.1,431z M602.7,443.9h-2.6
		v-9.7h2.6V443.9z"/>
	<path class="st0" d="M614.5,439c0,0.3,0,0.7,0,0.9h-6.9c0.3,1.4,1.3,2,2.5,2c0.8,0,1.7-0.3,2.4-0.9l1.5,1.7c-1.1,1-2.5,1.5-4.1,1.5
		c-3,0-5-2-5-5.1c0-3,2-5.1,4.9-5.1C612.5,433.9,614.5,436,614.5,439z M607.6,438.1h4.3c-0.2-1.2-1-1.9-2.1-1.9
		C608.5,436.2,607.8,436.9,607.6,438.1z"/>
	<path class="st0" d="M623.6,436.5h-3.5v3.5c0,1.2,0.6,1.6,1.4,1.6c0.6,0,1.3-0.3,1.8-0.6l1,2c-0.8,0.6-1.8,1-3.2,1
		c-2.4,0-3.6-1.4-3.6-3.9v-3.7h-1.9v-2.3h1.9v-2.9h2.6v2.9h3.5V436.5z"/>
	<path class="st0" d="M635.1,437.7v6.2h-2.6v-5.3c0-1.4-0.7-2.2-1.9-2.2c-1.1,0-2,0.7-2,2.2v5.3h-2.6v-9.7h2.5v1.1
		c0.7-1,1.7-1.4,2.8-1.4C633.5,433.9,635.1,435.5,635.1,437.7z"/>
	<path class="st0" d="M647.3,443.9h-2.5v-1.1c-0.6,0.8-1.6,1.3-2.9,1.3c-2.7,0-4.7-2.2-4.7-5.1c0-2.9,2-5.1,4.7-5.1
		c1.3,0,2.3,0.5,2.9,1.3v-1.1h2.5V443.9z M639.8,439c0,1.5,1,2.7,2.5,2.7c1.5,0,2.5-1.1,2.5-2.7c0-1.5-1-2.7-2.5-2.7
		C640.8,436.4,639.8,437.6,639.8,439z"/>
	<path class="st0" d="M665.7,437.7v6.2h-2.6v-5.3c0-1.4-0.7-2.2-1.9-2.2c-1.1,0-2,0.7-2,2.2v5.3h-2.6v-5.3c0-1.4-0.7-2.2-1.9-2.2
		c-1.1,0-2,0.7-2,2.2v5.3H650v-9.7h2.5v1.1c0.7-1,1.7-1.4,2.8-1.4c1.4,0,2.5,0.6,3.2,1.7c0.8-1.2,2-1.7,3.3-1.7
		C664.2,433.9,665.7,435.5,665.7,437.7z"/>
</g>
<g>
	<path class="st0" d="M710.8,443.9H708v-14h2.8V443.9z"/>
	<path class="st0" d="M722.9,437.7v6.2h-2.6v-5.3c0-1.4-0.7-2.2-1.9-2.2c-1.1,0-2,0.7-2,2.2v5.3h-2.6v-9.7h2.5v1.1
		c0.7-1,1.7-1.4,2.8-1.4C721.4,433.9,722.9,435.5,722.9,437.7z"/>
	<path class="st0" d="M732.5,435.2v-5.7h2.6v14.4h-2.5v-1.1c-0.6,0.8-1.6,1.3-2.9,1.3c-2.7,0-4.7-2.2-4.7-5.1c0-2.9,2-5.1,4.7-5.1
		C731,433.9,731.9,434.4,732.5,435.2z M727.7,439c0,1.5,1,2.7,2.5,2.7c1.5,0,2.5-1.1,2.5-2.7c0-1.5-1-2.7-2.5-2.7
		C728.6,436.4,727.7,437.6,727.7,439z"/>
	<path class="st0" d="M747.8,439c0,2.9-2.2,5.1-5.2,5.1c-3,0-5.2-2.2-5.2-5.1c0-2.9,2.2-5.1,5.2-5.1
		C745.5,433.9,747.8,436.1,747.8,439z M739.9,439c0,1.6,1.1,2.7,2.6,2.7c1.5,0,2.6-1.1,2.6-2.7c0-1.6-1.1-2.7-2.6-2.7
		C741,436.4,739.9,437.5,739.9,439z"/>
	<path class="st0" d="M759.1,437.7v6.2h-2.6v-5.3c0-1.4-0.7-2.2-1.9-2.2c-1.1,0-2,0.7-2,2.2v5.3h-2.6v-9.7h2.5v1.1
		c0.7-1,1.7-1.4,2.8-1.4C757.5,433.9,759.1,435.5,759.1,437.7z"/>
	<path class="st0" d="M770.7,439c0,0.3,0,0.7,0,0.9h-6.9c0.3,1.4,1.3,2,2.5,2c0.8,0,1.7-0.3,2.4-0.9l1.5,1.7c-1.1,1-2.5,1.5-4.1,1.5
		c-3,0-5-2-5-5.1c0-3,2-5.1,4.9-5.1C768.8,433.9,770.7,436,770.7,439z M763.8,438.1h4.3c-0.2-1.2-1-1.9-2.1-1.9
		C764.8,436.2,764,436.9,763.8,438.1z M764.2,432.8l2-3.1h3.1l-2.6,3.1H764.2z"/>
	<path class="st0" d="M779.8,436.9c-0.8-0.4-2-0.8-3.1-0.8c-1,0-1.5,0.3-1.5,0.9c0,0.6,0.7,0.7,1.6,0.8l0.9,0.1
		c2.1,0.3,3.3,1.3,3.3,2.9c0,2-1.6,3.3-4.4,3.3c-1.3,0-3-0.2-4.3-1.1l1-2c0.8,0.5,1.8,0.9,3.3,0.9c1.2,0,1.8-0.3,1.8-0.9
		c0-0.5-0.5-0.7-1.6-0.9l-0.8-0.1c-2.2-0.3-3.3-1.3-3.3-2.9c0-2,1.5-3.2,4.1-3.2c1.5,0,2.8,0.3,4,0.9L779.8,436.9z"/>
	<path class="st0" d="M786,431c0,0.9-0.7,1.7-1.7,1.7s-1.7-0.7-1.7-1.7s0.7-1.7,1.7-1.7S786,430.1,786,431z M785.6,443.9H783v-9.7
		h2.6V443.9z"/>
	<path class="st0" d="M797.4,439c0,0.3,0,0.7,0,0.9h-6.9c0.3,1.4,1.3,2,2.5,2c0.8,0,1.7-0.3,2.4-0.9l1.5,1.7c-1.1,1-2.5,1.5-4.1,1.5
		c-3,0-5-2-5-5.1c0-3,2-5.1,4.9-5.1C795.4,433.9,797.3,436,797.4,439z M790.4,438.1h4.3c-0.2-1.2-1-1.9-2.1-1.9
		C791.4,436.2,790.7,436.9,790.4,438.1z"/>
</g>
<g>
	<path class="st0" d="M862.6,443.9h-2.8v-14h2.8V443.9z"/>
	<path class="st0" d="M874.7,437.7v6.2h-2.6v-5.3c0-1.4-0.7-2.2-1.9-2.2c-1.1,0-2,0.7-2,2.2v5.3h-2.6v-9.7h2.5v1.1
		c0.7-1,1.7-1.4,2.8-1.4C873.2,433.9,874.7,435.5,874.7,437.7z"/>
	<path class="st0" d="M884.3,435.2v-5.7h2.6v14.4h-2.5v-1.1c-0.6,0.8-1.6,1.3-2.9,1.3c-2.7,0-4.7-2.2-4.7-5.1s2-5.1,4.7-5.1
		C882.8,433.9,883.7,434.4,884.3,435.2z M879.5,439c0,1.5,1,2.7,2.5,2.7c1.5,0,2.5-1.1,2.5-2.7s-1-2.7-2.5-2.7
		C880.4,436.4,879.5,437.6,879.5,439z"/>
	<path class="st0" d="M898.7,439c0,0.3,0,0.7,0,0.9h-6.9c0.3,1.4,1.3,2,2.5,2c0.8,0,1.7-0.3,2.4-0.9l1.5,1.7c-1.1,1-2.5,1.5-4.1,1.5
		c-3,0-5-2-5-5.1c0-3,2-5.1,4.9-5.1C896.8,433.9,898.7,436,898.7,439z M891.8,438.1h4.3c-0.2-1.2-1-1.9-2.1-1.9
		C892.7,436.2,892,436.9,891.8,438.1z"/>
</g>
<g>
	<path class="st0" d="M965.1,443.9h-10.5v-14H965v2.6h-7.6v3.1h7.2v2.6h-7.2v3.2h7.7V443.9z M958,428.7l2-3.1h3.1l-2.6,3.1H958z"/>
	<path class="st0" d="M974.8,436.5h-3.5v3.5c0,1.2,0.6,1.6,1.4,1.6c0.6,0,1.3-0.3,1.8-0.6l1,2c-0.8,0.6-1.8,1-3.2,1
		c-2.4,0-3.6-1.4-3.6-3.9v-3.7h-1.9v-2.3h1.9v-2.9h2.6v2.9h3.5V436.5z"/>
	<path class="st0" d="M986.6,443.9H984v-1.1c-0.6,0.8-1.6,1.3-2.9,1.3c-2.7,0-4.7-2.2-4.7-5.1c0-2.9,2-5.1,4.7-5.1
		c1.3,0,2.3,0.5,2.9,1.3v-1.1h2.5V443.9z M979.1,439c0,1.5,1,2.7,2.5,2.7c1.5,0,2.5-1.1,2.5-2.7c0-1.5-1-2.7-2.5-2.7
		C980.1,436.4,979.1,437.6,979.1,439z"/>
	<path class="st0" d="M996.4,436.5h-3.5v3.5c0,1.2,0.6,1.6,1.4,1.6c0.6,0,1.3-0.3,1.8-0.6l1,2c-0.8,0.6-1.8,1-3.2,1
		c-2.4,0-3.6-1.4-3.6-3.9v-3.7h-1.9v-2.3h1.9v-2.9h2.6v2.9h3.5V436.5z"/>
	<path class="st0" d="M1005.6,436.9c-0.8-0.4-2-0.8-3.1-0.8c-1,0-1.5,0.3-1.5,0.9c0,0.6,0.7,0.7,1.6,0.8l0.9,0.1
		c2.1,0.3,3.3,1.3,3.3,2.9c0,2-1.6,3.3-4.4,3.3c-1.3,0-3-0.2-4.3-1.1l1-2c0.8,0.5,1.8,0.9,3.3,0.9c1.2,0,1.8-0.3,1.8-0.9
		c0-0.5-0.5-0.7-1.6-0.9l-0.8-0.1c-2.2-0.3-3.3-1.3-3.3-2.9c0-2,1.5-3.2,4.1-3.2c1.5,0,2.8,0.3,4,0.9L1005.6,436.9z"/>
	<path class="st0" d="M1014.5,439.7h-5.9v-2.3h5.9V439.7z"/>
	<path class="st0" d="M1029,438.3c0,3.9-2.5,5.8-6,5.8c-3.6,0-6-2-6-5.8v-8.4h2.8v8.3c0,2.3,1.3,3.3,3.2,3.3s3.2-1,3.2-3.3v-8.3h2.8
		V438.3z"/>
	<path class="st0" d="M1041,437.7v6.2h-2.6v-5.3c0-1.4-0.7-2.2-1.9-2.2c-1.1,0-2,0.7-2,2.2v5.3h-2.6v-9.7h2.5v1.1
		c0.7-1,1.7-1.4,2.8-1.4C1039.4,433.9,1041,435.5,1041,437.7z"/>
	<path class="st0" d="M1046.6,431c0,0.9-0.7,1.7-1.7,1.7s-1.7-0.7-1.7-1.7s0.7-1.7,1.7-1.7S1046.6,430.1,1046.6,431z M1046.3,443.9
		h-2.6v-9.7h2.6V443.9z"/>
	<path class="st0" d="M1056,436.9c-0.8-0.4-2-0.8-3.1-0.8c-1,0-1.5,0.3-1.5,0.9c0,0.6,0.7,0.7,1.6,0.8l0.9,0.1
		c2.1,0.3,3.3,1.3,3.3,2.9c0,2-1.6,3.3-4.4,3.3c-1.3,0-3-0.2-4.3-1.1l1-2c0.8,0.5,1.8,0.9,3.3,0.9c1.2,0,1.8-0.3,1.8-0.9
		c0-0.5-0.5-0.7-1.6-0.9l-0.8-0.1c-2.2-0.3-3.3-1.3-3.3-2.9c0-2,1.5-3.2,4.1-3.2c1.5,0,2.8,0.3,4,0.9L1056,436.9z"/>
</g>
<g>
	<path class="st0" d="M1118.6,432.8l-2.4,1.5c-0.8-1.2-2.1-1.9-3.6-1.9c-2.5,0-4.4,1.9-4.4,4.6c0,2.8,1.9,4.6,4.4,4.6
		c1.5,0,2.8-0.7,3.6-1.9l2.3,1.6c-1.2,1.8-3.3,3-5.9,3c-4.3,0-7.3-3-7.3-7.3c0-4.2,3-7.3,7.3-7.3
		C1115.2,429.6,1117.5,430.8,1118.6,432.8z"/>
	<path class="st0" d="M1123.4,435.2c0.7-1,1.7-1.3,2.8-1.3c2.2,0,3.8,1.5,3.8,3.8v6.2h-2.6v-5.3c0-1.4-0.7-2.2-1.9-2.2
		c-1.1,0-2,0.7-2,2.2v5.3h-2.6v-14.4h2.6V435.2z"/>
	<path class="st0" d="M1135.6,431c0,0.9-0.7,1.7-1.7,1.7s-1.7-0.7-1.7-1.7s0.7-1.7,1.7-1.7S1135.6,430.1,1135.6,431z M1135.3,443.9
		h-2.6v-9.7h2.6V443.9z"/>
	<path class="st0" d="M1147.2,437.7v6.2h-2.6v-5.3c0-1.4-0.7-2.2-1.9-2.2c-1.1,0-2,0.7-2,2.2v5.3h-2.6v-9.7h2.5v1.1
		c0.7-1,1.7-1.4,2.8-1.4C1145.6,433.9,1147.2,435.5,1147.2,437.7z"/>
	<path class="st0" d="M1158.8,439c0,0.3,0,0.7,0,0.9h-6.9c0.3,1.4,1.3,2,2.5,2c0.8,0,1.7-0.3,2.4-0.9l1.5,1.7
		c-1.1,1-2.5,1.5-4.1,1.5c-3,0-5-2-5-5.1c0-3,2-5.1,4.9-5.1C1156.9,433.9,1158.8,436,1158.8,439z M1151.9,438.1h4.3
		c-0.2-1.2-1-1.9-2.1-1.9C1152.9,436.2,1152.2,436.9,1151.9,438.1z"/>
</g>
<g>
	<g>
		<g>
			<path class="st0" d="M26.1,415.1c0,3.2-1.9,5.1-4.2,5.1c-2.3,0-4.2-1.9-4.2-5.1s1.9-5.1,4.2-5.1C24.2,410,26.1,411.9,26.1,415.1z
				 M19.6,415.1c0,2.1,1,3.3,2.3,3.3c1.3,0,2.3-1.1,2.3-3.3c0-2.1-1-3.3-2.3-3.3C20.6,411.8,19.6,412.9,19.6,415.1z"/>
			<path class="st0" d="M36.3,412.7c0,1.5-1.2,2.7-2.7,2.7c-1.6,0-2.7-1.1-2.7-2.7c0-1.5,1.2-2.7,2.7-2.7
				C35.1,410,36.3,411.1,36.3,412.7z M32.3,412.7c0,0.7,0.5,1.2,1.2,1.2c0.7,0,1.2-0.5,1.2-1.2c0-0.7-0.5-1.2-1.2-1.2
				C32.8,411.5,32.3,412,32.3,412.7z M34.8,420H33l6.6-9.8h1.8L34.8,420z M43.6,417.5c0,1.5-1.2,2.7-2.7,2.7c-1.6,0-2.7-1.1-2.7-2.7
				c0-1.5,1.2-2.7,2.7-2.7C42.4,414.8,43.6,415.9,43.6,417.5z M39.7,417.5c0,0.7,0.5,1.2,1.2,1.2c0.7,0,1.2-0.5,1.2-1.2
				c0-0.7-0.5-1.2-1.2-1.2C40.2,416.3,39.7,416.8,39.7,417.5z"/>
		</g>
		<g>
			<path class="st0" d="M25.6,355h-4l0,2h1.1c2.3,0,3.4,1.3,3.4,2.9c0,2.1-1.6,3.3-3.6,3.3c-1.5,0-2.7-0.5-3.5-1.5l1.1-1.3
				c0.5,0.6,1.5,1,2.4,1c1.1,0,1.6-0.6,1.6-1.4c0-0.7-0.5-1.4-2-1.4h-2.3l0.1-5.4h5.6V355z"/>
			<path class="st0" d="M36.3,355.7c0,1.5-1.2,2.7-2.7,2.7c-1.6,0-2.7-1.1-2.7-2.7c0-1.5,1.2-2.7,2.7-2.7
				C35.1,353.1,36.3,354.2,36.3,355.7z M32.3,355.7c0,0.7,0.5,1.2,1.2,1.2c0.7,0,1.2-0.5,1.2-1.2c0-0.7-0.5-1.2-1.2-1.2
				C32.8,354.5,32.3,355,32.3,355.7z M34.8,363.1H33l6.6-9.8h1.8L34.8,363.1z M43.6,360.6c0,1.5-1.2,2.7-2.7,2.7
				c-1.6,0-2.7-1.1-2.7-2.7c0-1.5,1.2-2.7,2.7-2.7C42.4,357.9,43.6,359,43.6,360.6z M39.7,360.6c0,0.7,0.5,1.2,1.2,1.2
				c0.7,0,1.2-0.5,1.2-1.2s-0.5-1.2-1.2-1.2C40.2,359.3,39.7,359.8,39.7,360.6z"/>
		</g>
		<g>
			<path class="st0" d="M15.8,306.1h-1.9v-7.3l-2.3,1v-1.9l4.2-1.7V306.1z"/>
			<path class="st0" d="M26.1,301.2c0,3.2-1.9,5.1-4.2,5.1c-2.3,0-4.2-1.9-4.2-5.1c0-3.2,1.9-5.1,4.2-5.1
				C24.2,296.2,26.1,298.1,26.1,301.2z M19.6,301.2c0,2.1,1,3.3,2.3,3.3c1.3,0,2.3-1.1,2.3-3.3c0-2.1-1-3.3-2.3-3.3
				C20.6,298,19.6,299.1,19.6,301.2z"/>
			<path class="st0" d="M36.3,298.8c0,1.5-1.2,2.7-2.7,2.7c-1.6,0-2.7-1.1-2.7-2.7c0-1.5,1.2-2.7,2.7-2.7
				C35.1,296.2,36.3,297.3,36.3,298.8z M32.3,298.8c0,0.7,0.5,1.2,1.2,1.2c0.7,0,1.2-0.5,1.2-1.2c0-0.7-0.5-1.2-1.2-1.2
				C32.8,297.6,32.3,298.1,32.3,298.8z M34.8,306.1H33l6.6-9.8h1.8L34.8,306.1z M43.6,303.6c0,1.5-1.2,2.7-2.7,2.7
				c-1.6,0-2.7-1.1-2.7-2.7c0-1.5,1.2-2.7,2.7-2.7C42.4,301,43.6,302.1,43.6,303.6z M39.7,303.6c0,0.7,0.5,1.2,1.2,1.2
				c0.7,0,1.2-0.5,1.2-1.2c0-0.7-0.5-1.2-1.2-1.2C40.2,302.4,39.7,302.9,39.7,303.6z"/>
		</g>
		<g>
			<path class="st0" d="M17.5,249.2h-1.9v-7.3l-2.3,1V241l4.2-1.7V249.2z"/>
			<path class="st0" d="M25.6,241.2h-4l0,2h1.1c2.3,0,3.4,1.3,3.4,2.9c0,2.1-1.6,3.3-3.6,3.3c-1.5,0-2.7-0.5-3.5-1.5l1.1-1.3
				c0.5,0.6,1.5,1,2.4,1c1.1,0,1.6-0.6,1.6-1.4c0-0.7-0.5-1.4-2-1.4h-2.3l0.1-5.4h5.6V241.2z"/>
			<path class="st0" d="M36.3,241.9c0,1.5-1.2,2.7-2.7,2.7c-1.6,0-2.7-1.1-2.7-2.7c0-1.5,1.2-2.7,2.7-2.7
				C35.1,239.2,36.3,240.4,36.3,241.9z M32.3,241.9c0,0.7,0.5,1.2,1.2,1.2c0.7,0,1.2-0.5,1.2-1.2c0-0.7-0.5-1.2-1.2-1.2
				C32.8,240.7,32.3,241.2,32.3,241.9z M34.8,249.2H33l6.6-9.8h1.8L34.8,249.2z M43.6,246.7c0,1.5-1.2,2.7-2.7,2.7
				c-1.6,0-2.7-1.1-2.7-2.7c0-1.5,1.2-2.7,2.7-2.7C42.4,244,43.6,245.2,43.6,246.7z M39.7,246.7c0,0.7,0.5,1.2,1.2,1.2
				c0.7,0,1.2-0.5,1.2-1.2c0-0.7-0.5-1.2-1.2-1.2C40.2,245.5,39.7,246,39.7,246.7z"/>
		</g>
		<g>
			<path class="st0" d="M9.5,184c0.5-0.7,1.5-1.7,3.3-1.7c2.1,0,3.3,1.3,3.3,3.2c0,1.2-0.6,2-1.4,2.9l-2.1,2.2h3.7v1.8H9.9v-1.5
				l3.5-3.6c0.5-0.5,0.8-1.1,0.8-1.7c0-0.9-0.6-1.5-1.5-1.5c-0.9,0-1.5,0.5-2,1.1L9.5,184z"/>
			<path class="st0" d="M26.1,187.4c0,3.2-1.9,5.1-4.2,5.1c-2.3,0-4.2-1.9-4.2-5.1c0-3.2,1.9-5.1,4.2-5.1
				C24.2,182.3,26.1,184.2,26.1,187.4z M19.6,187.4c0,2.1,1,3.3,2.3,3.3c1.3,0,2.3-1.1,2.3-3.3c0-2.1-1-3.3-2.3-3.3
				C20.6,184.1,19.6,185.3,19.6,187.4z"/>
			<path class="st0" d="M36.3,185c0,1.5-1.2,2.7-2.7,2.7c-1.6,0-2.7-1.1-2.7-2.7c0-1.5,1.2-2.7,2.7-2.7
				C35.1,182.3,36.3,183.5,36.3,185z M32.3,185c0,0.7,0.5,1.2,1.2,1.2c0.7,0,1.2-0.5,1.2-1.2c0-0.7-0.5-1.2-1.2-1.2
				C32.8,183.8,32.3,184.3,32.3,185z M34.8,192.3H33l6.6-9.8h1.8L34.8,192.3z M43.6,189.8c0,1.5-1.2,2.7-2.7,2.7
				c-1.6,0-2.7-1.1-2.7-2.7c0-1.5,1.2-2.7,2.7-2.7C42.4,187.1,43.6,188.3,43.6,189.8z M39.7,189.8c0,0.7,0.5,1.2,1.2,1.2
				c0.7,0,1.2-0.5,1.2-1.2c0-0.7-0.5-1.2-1.2-1.2C40.2,188.6,39.7,189.1,39.7,189.8z"/>
		</g>
		<g>
			<path class="st0" d="M11.2,127.1c0.5-0.7,1.5-1.7,3.3-1.7c2.1,0,3.3,1.3,3.3,3.2c0,1.2-0.6,2-1.4,2.9l-2.1,2.2h3.7v1.8h-6.5v-1.5
				l3.5-3.6c0.5-0.5,0.8-1.1,0.8-1.7c0-0.9-0.6-1.5-1.5-1.5c-0.9,0-1.5,0.5-2,1.1L11.2,127.1z"/>
			<path class="st0" d="M25.6,127.3h-4l0,2h1.1c2.3,0,3.4,1.3,3.4,2.9c0,2.1-1.6,3.3-3.6,3.3c-1.5,0-2.7-0.5-3.5-1.5l1.1-1.3
				c0.5,0.6,1.5,1,2.4,1c1.1,0,1.6-0.6,1.6-1.4c0-0.7-0.5-1.4-2-1.4h-2.3l0.1-5.4h5.6V127.3z"/>
			<path class="st0" d="M36.3,128.1c0,1.5-1.2,2.7-2.7,2.7c-1.6,0-2.7-1.1-2.7-2.7c0-1.5,1.2-2.7,2.7-2.7
				C35.1,125.4,36.3,126.5,36.3,128.1z M32.3,128.1c0,0.7,0.5,1.2,1.2,1.2c0.7,0,1.2-0.5,1.2-1.2c0-0.7-0.5-1.2-1.2-1.2
				C32.8,126.9,32.3,127.4,32.3,128.1z M34.8,135.4H33l6.6-9.8h1.8L34.8,135.4z M43.6,132.9c0,1.5-1.2,2.7-2.7,2.7
				c-1.6,0-2.7-1.1-2.7-2.7c0-1.5,1.2-2.7,2.7-2.7C42.4,130.2,43.6,131.4,43.6,132.9z M39.7,132.9c0,0.7,0.5,1.2,1.2,1.2
				c0.7,0,1.2-0.5,1.2-1.2c0-0.7-0.5-1.2-1.2-1.2C40.2,131.7,39.7,132.2,39.7,132.9z"/>
		</g>
		<g>
			<path class="st0" d="M16.1,71.3c0,1-0.6,1.8-1.5,2.2c1,0.4,1.7,1.2,1.7,2.2c0,1.9-1.8,2.9-3.6,2.9c-1.5,0-2.7-0.5-3.4-1.4
				l1.1-1.2c0.6,0.6,1.4,0.9,2.2,0.9c1,0,1.7-0.4,1.7-1.3c0-0.8-0.9-1.3-1.9-1.3h-1.1v-1.7h1.1c1,0,1.7-0.4,1.7-1.2
				c0-0.8-0.7-1.2-1.6-1.2c-0.9,0-1.6,0.5-2,1L9.3,70c0.6-0.9,1.7-1.5,3.3-1.5C14.7,68.5,16.1,69.6,16.1,71.3z"/>
			<path class="st0" d="M26.1,73.6c0,3.2-1.9,5.1-4.2,5.1c-2.3,0-4.2-1.9-4.2-5.1c0-3.2,1.9-5.1,4.2-5.1
				C24.2,68.5,26.1,70.4,26.1,73.6z M19.6,73.6c0,2.1,1,3.3,2.3,3.3c1.3,0,2.3-1.1,2.3-3.3c0-2.1-1-3.3-2.3-3.3
				C20.6,70.3,19.6,71.4,19.6,73.6z"/>
			<path class="st0" d="M36.3,71.1c0,1.5-1.2,2.7-2.7,2.7c-1.6,0-2.7-1.1-2.7-2.7c0-1.5,1.2-2.7,2.7-2.7
				C35.1,68.5,36.3,69.6,36.3,71.1z M32.3,71.1c0,0.7,0.5,1.2,1.2,1.2c0.7,0,1.2-0.5,1.2-1.2c0-0.7-0.5-1.2-1.2-1.2
				C32.8,69.9,32.3,70.4,32.3,71.1z M34.8,78.5H33l6.6-9.8h1.8L34.8,78.5z M43.6,76c0,1.5-1.2,2.7-2.7,2.7c-1.6,0-2.7-1.1-2.7-2.7
				c0-1.5,1.2-2.7,2.7-2.7C42.4,73.3,43.6,74.4,43.6,76z M39.7,76c0,0.7,0.5,1.2,1.2,1.2c0.7,0,1.2-0.5,1.2-1.2
				c0-0.7-0.5-1.2-1.2-1.2C40.2,74.7,39.7,75.3,39.7,76z"/>
		</g>
	</g>
</g>
<line class="st1" x1="55.8" y1="414.5" x2="55.8" y2="73"/>
<rect x="93.4" y="391.8" class="st2" width="52.2" height="22.8"/>
<rect x="219.9" y="391.8" class="st2" width="52.2" height="22.8"/>
<rect x="346.5" y="369" class="st2" width="52.2" height="45.5"/>
<rect x="473.1" y="369" class="st2" width="52.2" height="45.5"/>
<rect x="599.6" y="369" class="st2" width="52.2" height="45.5"/>
<rect x="726.2" y="357.6" class="st2" width="52.2" height="56.9"/>
<rect x="852.8" y="369" class="st3" width="52.2" height="45.5"/>
<rect x="979.3" y="289.3" class="st3" width="52.2" height="125.2"/>
<rect x="1105.9" y="118.6" class="st3" width="52.2" height="296"/>
<g>
	<g>
		<line class="st4" x1="55.4" y1="414.5" x2="65.4" y2="414.5"/>
		<line class="st4" x1="55.4" y1="357.6" x2="65.4" y2="357.6"/>
		<line class="st4" x1="55.4" y1="300.7" x2="65.4" y2="300.7"/>
		<line class="st4" x1="55.4" y1="243.8" x2="65.4" y2="243.8"/>
		<line class="st4" x1="55.4" y1="186.9" x2="65.4" y2="186.9"/>
		<line class="st4" x1="55.4" y1="130" x2="65.4" y2="130"/>
		<line class="st4" x1="55.4" y1="73" x2="65.4" y2="73"/>
	</g>
</g>
<g>
	<line class="st1" x1="55.8" y1="414.5" x2="1188.6" y2="414.5"/>
</g>
<g>
	<g>
		<line class="st5" x1="815.6" y1="433.5" x2="815.6" y2="431"/>
		<line class="st6" x1="815.6" y1="428" x2="815.6" y2="76.6"/>
		<line class="st5" x1="815.6" y1="75.1" x2="815.6" y2="72.6"/>
	</g>
</g>
</svg>
