<?xml version="1.0" encoding="utf-8"?>
<!-- Generator: Adobe Illustrator 25.0.1, SVG Export Plug-In . SVG Version: 6.00 Build 0)  -->
<svg version="1.1" id="Layer_1" xmlns="http://www.w3.org/2000/svg" xmlns:xlink="http://www.w3.org/1999/xlink" x="0px" y="0px"
	 viewBox="0 0 1000 432.3" style="enable-background:new 0 0 1000 432.3;" xml:space="preserve">
<style type="text/css">
	.st0{fill:none;stroke:#000000;stroke-miterlimit:10;}
	.st1{fill:#DFDFDF;stroke:#000000;stroke-width:0.5;stroke-miterlimit:10;}
	.st2{stroke:#000000;stroke-width:0.5;stroke-miterlimit:10;}
	.st3{fill:#DFDFDF;}
	.st4{fill:#F47E20;}
	.st5{fill:#00A9A6;}
</style>
<g>
	<path d="M99.09,126.44h-1.7L96,123h-6.11l-1.38,3.44h-1.65l5.12-12.6h1.97L99.09,126.44z M90.49,121.5h4.91l-2.45-6.09L90.49,121.5
		z"/>
	<path d="M107.86,119.06l-0.95,1c-0.63-0.61-1.36-0.96-2.27-0.96c-1.65,0-2.9,1.28-2.9,3.07c0,1.79,1.25,3.08,2.9,3.08
		c0.91,0,1.71-0.41,2.3-0.98l0.91,1.02c-0.77,0.87-1.91,1.34-3.18,1.34c-2.65,0-4.44-1.92-4.44-4.46s1.79-4.46,4.44-4.46
		C105.95,117.71,107.09,118.18,107.86,119.06z"/>
	<path d="M116.04,119.23h-3.59v4.17c0,1.29,0.68,1.85,1.61,1.85c0.63,0,1.26-0.24,1.75-0.58l0.69,1.11
		c-0.66,0.48-1.51,0.85-2.57,0.85c-1.85,0-2.96-1.02-2.96-3.2v-4.2h-1.83v-1.34h1.83v-2.68h1.48v2.68h3.59V119.23z"/>
	<path d="M120.17,114.88c0,0.58-0.47,1.03-1.05,1.03c-0.59,0-1.04-0.44-1.04-1.03c0-0.59,0.45-1.05,1.04-1.05
		C119.7,113.83,120.17,114.29,120.17,114.88z M119.86,126.44h-1.47v-8.55h1.47V126.44z"/>
	<path d="M128.55,119.23h-3.29v7.21h-1.48v-7.21h-1.9v-1.34h1.9v-1.46c0-1.79,0.83-3.13,2.84-3.13c0.97,0,1.74,0.27,2.35,0.64
		l-0.53,1.23c-0.45-0.27-1.09-0.5-1.72-0.5c-1.02,0-1.47,0.65-1.47,1.76v1.46h3.29V119.23z"/>
	<path d="M141.95,119.05v-1.16h1.48v7.96c0,2.76-1.85,4.34-4.55,4.34c-1.33,0-2.71-0.41-3.58-1.11l0.64-1.19
		c0.82,0.58,1.84,0.95,2.94,0.95c1.84,0,3.07-1.04,3.07-2.93v-0.76c-0.65,0.82-1.62,1.33-2.94,1.33c-2.4,0-4.23-1.78-4.23-4.39
		c0-2.6,1.83-4.38,4.23-4.38C140.33,117.71,141.3,118.23,141.95,119.05z M136.27,122.09c0,1.67,1.14,3.01,2.9,3.01
		c1.7,0,2.9-1.3,2.9-3.01c0-1.7-1.2-3-2.9-3C137.42,119.1,136.27,120.45,136.27,122.09z"/>
	<path d="M154.16,122.14c0,0.19-0.02,0.39-0.03,0.55h-6.73c0.21,1.77,1.44,2.65,2.91,2.65c1,0,1.91-0.39,2.64-1.02l0.78,1.01
		c-1.06,0.99-2.25,1.3-3.51,1.3c-2.54,0-4.34-1.79-4.34-4.46c0-2.63,1.79-4.46,4.25-4.46C152.47,117.71,154.14,119.52,154.16,122.14
		z M147.43,121.5h5.23c-0.18-1.51-1.16-2.48-2.55-2.48C148.6,119.02,147.65,120.04,147.43,121.5z M148.88,116.57l1.85-2.7h1.86
		l-2.26,2.7H148.88z"/>
	<path d="M162.14,117.99l-0.36,1.45c-0.41-0.22-0.98-0.33-1.47-0.33c-1.31,0-2.22,1-2.22,2.57v4.76h-1.47v-8.55h1.45v1.13
		c0.59-0.84,1.48-1.31,2.5-1.31C161.19,117.71,161.68,117.79,162.14,117.99z"/>
	<path d="M171.43,122.14c0,0.19-0.02,0.39-0.03,0.55h-6.72c0.21,1.77,1.44,2.65,2.91,2.65c1,0,1.91-0.39,2.64-1.02l0.78,1.01
		c-1.06,0.99-2.25,1.3-3.51,1.3c-2.54,0-4.34-1.79-4.34-4.46c0-2.63,1.79-4.46,4.25-4.46C169.74,117.71,171.41,119.52,171.43,122.14
		z M164.7,121.5h5.23c-0.18-1.51-1.16-2.48-2.55-2.48C165.87,119.02,164.92,120.04,164.7,121.5z M166.16,116.57l1.85-2.7h1.86
		l-2.26,2.7H166.16z"/>
	<path d="M184.38,119.23h-3.59v4.17c0,1.29,0.69,1.85,1.61,1.85c0.63,0,1.26-0.24,1.75-0.58l0.69,1.11
		c-0.66,0.48-1.51,0.85-2.57,0.85c-1.86,0-2.96-1.02-2.96-3.2v-4.2h-1.83v-1.34h1.83v-2.68h1.48v2.68h3.59V119.23z"/>
	<path d="M195.12,122.17c0,2.54-1.94,4.46-4.53,4.46c-2.59,0-4.52-1.92-4.52-4.46s1.93-4.46,4.52-4.46
		C193.18,117.71,195.12,119.63,195.12,122.17z M187.57,122.17c0,1.79,1.3,3.08,3.02,3.08c1.71,0,3.02-1.29,3.02-3.08
		c0-1.79-1.31-3.07-3.02-3.07C188.87,119.1,187.57,120.38,187.57,122.17z"/>
	<path d="M203.3,119.23h-3.59v4.17c0,1.29,0.68,1.85,1.61,1.85c0.63,0,1.26-0.24,1.75-0.58l0.69,1.11
		c-0.66,0.48-1.51,0.85-2.56,0.85c-1.86,0-2.96-1.02-2.96-3.2v-4.2h-1.83v-1.34h1.83v-2.68h1.48v2.68h3.59V119.23z"/>
	<path d="M213.76,126.44h-1.48v-1.14c-0.67,0.8-1.67,1.32-3.02,1.32c-2.4,0-4.28-1.87-4.28-4.46s1.87-4.46,4.28-4.46
		c1.34,0,2.34,0.52,3.02,1.33v-1.15h1.48V126.44z M206.49,122.17c0,1.7,1.19,3.08,2.94,3.08c1.73,0,2.93-1.32,2.93-3.08
		c0-1.75-1.21-3.07-2.93-3.07C207.65,119.1,206.49,120.47,206.49,122.17z"/>
	<path d="M218.34,126.44h-1.47v-12.96h1.47V126.44z"/>
	<path d="M232.91,119.04v-5.56h1.48v12.96h-1.48v-1.14c-0.67,0.8-1.67,1.32-3.02,1.32c-2.4,0-4.28-1.87-4.28-4.46
		s1.87-4.46,4.28-4.46C231.23,117.71,232.23,118.23,232.91,119.04z M227.12,122.17c0,1.7,1.19,3.08,2.94,3.08
		c1.73,0,2.93-1.32,2.93-3.08c0-1.75-1.21-3.07-2.93-3.07C228.28,119.1,227.12,120.47,227.12,122.17z"/>
	<path d="M245.12,122.14c0,0.19-0.02,0.39-0.03,0.55h-6.73c0.21,1.77,1.44,2.65,2.91,2.65c1,0,1.91-0.39,2.64-1.02l0.78,1.01
		c-1.06,0.99-2.25,1.3-3.51,1.3c-2.54,0-4.34-1.79-4.34-4.46c0-2.63,1.79-4.46,4.25-4.46C243.43,117.71,245.1,119.52,245.12,122.14z
		 M238.39,121.5h5.23c-0.18-1.51-1.16-2.48-2.55-2.48C239.56,119.02,238.61,120.04,238.39,121.5z"/>
	<path d="M257.84,119.23h-3.29v7.21h-1.48v-7.21h-1.9v-1.34h1.9v-1.46c0-1.79,0.83-3.13,2.84-3.13c0.97,0,1.74,0.27,2.35,0.64
		l-0.53,1.23c-0.45-0.27-1.09-0.5-1.72-0.5c-1.02,0-1.47,0.65-1.47,1.76v1.46h3.29V119.23z"/>
	<path d="M268.05,122.17c0,2.54-1.94,4.46-4.53,4.46c-2.59,0-4.52-1.92-4.52-4.46s1.93-4.46,4.52-4.46
		C266.12,117.71,268.05,119.63,268.05,122.17z M260.51,122.17c0,1.79,1.3,3.08,3.02,3.08c1.71,0,3.02-1.29,3.02-3.08
		c0-1.79-1.3-3.07-3.02-3.07C261.81,119.1,260.51,120.38,260.51,122.17z"/>
	<path d="M278.34,121.13v5.31h-1.48v-4.83c0-1.58-0.86-2.5-2.35-2.5c-1.38,0-2.53,0.95-2.53,2.54v4.8h-1.47v-8.55h1.46v1.12
		c0.7-0.96,1.81-1.3,2.8-1.3C276.88,117.71,278.34,119.08,278.34,121.13z"/>
	<path d="M288.01,119.04v-5.56h1.48v12.96h-1.48v-1.14c-0.67,0.8-1.67,1.32-3.02,1.32c-2.4,0-4.28-1.87-4.28-4.46
		s1.87-4.46,4.28-4.46C286.33,117.71,287.33,118.23,288.01,119.04z M282.22,122.17c0,1.7,1.19,3.08,2.94,3.08
		c1.73,0,2.93-1.32,2.93-3.08c0-1.75-1.21-3.07-2.93-3.07C283.38,119.1,282.22,120.47,282.22,122.17z"/>
	<path d="M298.35,119.79c-0.54-0.37-1.63-0.79-2.75-0.79c-1.17,0-1.93,0.5-1.93,1.27c0,0.68,0.62,1,1.66,1.13l0.99,0.13
		c1.82,0.24,2.89,1.01,2.89,2.42c0,1.63-1.46,2.68-3.79,2.68c-1.05,0-2.48-0.25-3.6-1.1l0.68-1.1c0.64,0.5,1.49,0.91,2.93,0.91
		c1.4,0,2.27-0.46,2.27-1.31c0-0.63-0.56-1.03-1.72-1.17l-0.99-0.12c-1.92-0.23-2.84-1.1-2.84-2.39c0-1.64,1.36-2.63,3.44-2.63
		c1.35,0,2.58,0.36,3.41,0.93L298.35,119.79z"/>
	<path d="M96.23,150.44h-1.48v-1.14c-0.67,0.8-1.67,1.32-3.02,1.32c-2.4,0-4.28-1.87-4.28-4.46s1.87-4.46,4.28-4.46
		c1.34,0,2.34,0.52,3.02,1.33v-1.15h1.48V150.44z M88.96,146.17c0,1.7,1.19,3.08,2.94,3.08c1.73,0,2.93-1.32,2.93-3.08
		c0-1.75-1.21-3.07-2.93-3.07C90.12,143.1,88.96,144.47,88.96,146.17z"/>
	<path d="M103.35,146.06l3.38,4.38h-1.81l-2.58-3.29l-2.54,3.29H98.1l3.38-4.37l-3.29-4.19h1.8l2.46,3.16l2.48-3.16h1.74
		L103.35,146.06z"/>
	<path d="M115.89,146.14c0,0.19-0.02,0.39-0.03,0.55h-6.72c0.21,1.77,1.44,2.65,2.91,2.65c1,0,1.91-0.39,2.64-1.02l0.78,1.01
		c-1.06,0.99-2.25,1.3-3.51,1.3c-2.54,0-4.34-1.79-4.34-4.46c0-2.63,1.79-4.46,4.25-4.46C114.2,141.71,115.88,143.52,115.89,146.14z
		 M109.16,145.5h5.23c-0.18-1.51-1.16-2.48-2.55-2.48C110.33,143.02,109.38,144.04,109.16,145.5z M110.62,140.57l1.85-2.7h1.86
		l-2.26,2.7H110.62z"/>
	<path d="M124.12,143.79c-0.54-0.37-1.63-0.79-2.75-0.79c-1.17,0-1.93,0.5-1.93,1.27c0,0.68,0.62,1,1.66,1.13l0.99,0.13
		c1.82,0.24,2.89,1.01,2.89,2.42c0,1.63-1.46,2.68-3.79,2.68c-1.05,0-2.47-0.25-3.6-1.1l0.68-1.1c0.64,0.5,1.49,0.91,2.93,0.91
		c1.4,0,2.27-0.46,2.27-1.31c0-0.63-0.56-1.03-1.72-1.17l-0.99-0.12c-1.92-0.23-2.84-1.1-2.84-2.39c0-1.64,1.36-2.63,3.44-2.63
		c1.35,0,2.58,0.36,3.41,0.93L124.12,143.79z"/>
	<path d="M139.74,146.14c0,0.19-0.02,0.39-0.03,0.55h-6.73c0.21,1.77,1.44,2.65,2.91,2.65c1,0,1.91-0.39,2.64-1.02l0.78,1.01
		c-1.06,0.99-2.25,1.3-3.51,1.3c-2.54,0-4.34-1.79-4.34-4.46c0-2.63,1.79-4.46,4.25-4.46C138.05,141.71,139.72,143.52,139.74,146.14
		z M133.01,145.5h5.23c-0.18-1.51-1.16-2.48-2.55-2.48C134.18,143.02,133.23,144.04,133.01,145.5z"/>
	<path d="M145.88,146.06l3.38,4.38h-1.81l-2.57-3.29l-2.54,3.29h-1.72l3.38-4.37l-3.29-4.19h1.8l2.46,3.16l2.48-3.16h1.74
		L145.88,146.06z"/>
	<path d="M157.76,143.06l-0.95,1c-0.63-0.61-1.36-0.96-2.27-0.96c-1.65,0-2.9,1.28-2.9,3.07c0,1.79,1.25,3.08,2.9,3.08
		c0.91,0,1.71-0.41,2.3-0.98l0.91,1.02c-0.77,0.87-1.91,1.34-3.18,1.34c-2.65,0-4.44-1.92-4.44-4.46s1.79-4.46,4.44-4.46
		C155.85,141.71,157,142.18,157.76,143.06z"/>
	<path d="M161.48,150.44h-1.47v-12.96h1.47V150.44z"/>
	<path d="M172.31,146.86c0,2.58-1.86,3.76-3.9,3.76c-2.06,0-3.91-1.18-3.91-3.76v-4.97h1.48v4.83c0,1.75,1.04,2.52,2.43,2.52
		c1.39,0,2.42-0.77,2.42-2.52v-4.83h1.48V146.86z"/>
	<path d="M181.1,143.79c-0.54-0.37-1.63-0.79-2.76-0.79c-1.17,0-1.93,0.5-1.93,1.27c0,0.68,0.62,1,1.66,1.13l0.99,0.13
		c1.82,0.24,2.89,1.01,2.89,2.42c0,1.63-1.46,2.68-3.79,2.68c-1.05,0-2.48-0.25-3.6-1.1l0.68-1.1c0.64,0.5,1.5,0.91,2.93,0.91
		c1.4,0,2.27-0.46,2.27-1.31c0-0.63-0.56-1.03-1.72-1.17l-0.99-0.12c-1.92-0.23-2.85-1.1-2.85-2.39c0-1.64,1.36-2.63,3.44-2.63
		c1.35,0,2.58,0.36,3.41,0.93L181.1,143.79z"/>
	<path d="M186.05,138.88c0,0.58-0.47,1.03-1.05,1.03c-0.59,0-1.04-0.44-1.04-1.03c0-0.59,0.45-1.05,1.04-1.05
		C185.59,137.83,186.05,138.29,186.05,138.88z M185.75,150.44h-1.47v-8.55h1.47V150.44z"/>
	<path d="M192.89,150.45h-1.73l-3.6-8.56h1.6l2.87,7.07l2.88-7.07h1.56L192.89,150.45z"/>
	<path d="M205.79,146.14c0,0.19-0.02,0.39-0.03,0.55h-6.73c0.21,1.77,1.44,2.65,2.91,2.65c1,0,1.91-0.39,2.64-1.02l0.78,1.01
		c-1.06,0.99-2.25,1.3-3.51,1.3c-2.54,0-4.34-1.79-4.34-4.46c0-2.63,1.79-4.46,4.25-4.46C204.1,141.71,205.77,143.52,205.79,146.14z
		 M199.06,145.5h5.23c-0.18-1.51-1.16-2.48-2.55-2.48C200.23,143.02,199.28,144.04,199.06,145.5z"/>
	<path d="M222.43,145.13v5.31h-1.48v-4.83c0-1.58-0.86-2.5-2.35-2.5c-1.41,0-2.52,0.98-2.52,2.54v4.8h-1.48v-4.83
		c0-1.58-0.86-2.5-2.35-2.5c-1.38,0-2.53,0.95-2.53,2.54v4.8h-1.47v-8.55h1.46v1.12c0.7-0.96,1.81-1.3,2.8-1.3
		c1.45,0,2.59,0.65,3.16,1.72c0.7-1.3,2.03-1.72,3.19-1.72C220.98,141.71,222.43,143.08,222.43,145.13z"/>
	<path d="M233.07,146.14c0,0.19-0.02,0.39-0.03,0.55h-6.72c0.21,1.77,1.44,2.65,2.91,2.65c1,0,1.91-0.39,2.64-1.02l0.78,1.01
		c-1.06,0.99-2.25,1.3-3.51,1.3c-2.54,0-4.34-1.79-4.34-4.46c0-2.63,1.79-4.46,4.25-4.46C231.38,141.71,233.05,143.52,233.07,146.14
		z M226.34,145.5h5.23c-0.18-1.51-1.16-2.48-2.55-2.48C227.51,143.02,226.56,144.04,226.34,145.5z"/>
	<path d="M243.36,145.13v5.31h-1.48v-4.83c0-1.58-0.87-2.5-2.35-2.5c-1.38,0-2.53,0.95-2.53,2.54v4.8h-1.47v-8.55h1.46v1.12
		c0.7-0.96,1.81-1.3,2.8-1.3C241.9,141.71,243.36,143.08,243.36,145.13z"/>
	<path d="M252.07,143.23h-3.59v4.17c0,1.29,0.68,1.85,1.61,1.85c0.63,0,1.26-0.24,1.75-0.58l0.69,1.11
		c-0.66,0.48-1.51,0.85-2.56,0.85c-1.86,0-2.96-1.02-2.96-3.2v-4.2h-1.83v-1.34H247v-2.68h1.48v2.68h3.59V143.23z"/>
	<path d="M265,143.79c-0.54-0.37-1.63-0.79-2.76-0.79c-1.17,0-1.93,0.5-1.93,1.27c0,0.68,0.62,1,1.66,1.13l0.99,0.13
		c1.82,0.24,2.89,1.01,2.89,2.42c0,1.63-1.46,2.68-3.79,2.68c-1.05,0-2.48-0.25-3.6-1.1l0.68-1.1c0.64,0.5,1.5,0.91,2.93,0.91
		c1.4,0,2.27-0.46,2.27-1.31c0-0.63-0.56-1.03-1.72-1.17l-0.99-0.12c-1.92-0.23-2.85-1.1-2.85-2.39c0-1.64,1.36-2.63,3.44-2.63
		c1.35,0,2.58,0.36,3.41,0.93L265,143.79z"/>
	<path d="M275.9,146.86c0,2.58-1.85,3.76-3.9,3.76c-2.06,0-3.91-1.18-3.91-3.76v-4.97h1.48v4.83c0,1.75,1.04,2.52,2.43,2.52
		c1.39,0,2.42-0.77,2.42-2.52v-4.83h1.48V146.86z"/>
	<path d="M284.44,141.99l-0.36,1.45c-0.4-0.22-0.98-0.33-1.47-0.33c-1.3,0-2.22,1-2.22,2.57v4.76h-1.47v-8.55h1.45v1.13
		c0.59-0.84,1.49-1.31,2.5-1.31C283.49,141.71,283.98,141.79,284.44,141.99z"/>
	<path d="M292.55,150.44h-1.47v-12.96h1.47V150.44z"/>
	<path d="M303.29,146.14c0,0.19-0.02,0.39-0.03,0.55h-6.72c0.21,1.77,1.44,2.65,2.91,2.65c1,0,1.91-0.39,2.64-1.02l0.78,1.01
		c-1.06,0.99-2.25,1.3-3.51,1.3c-2.54,0-4.34-1.79-4.34-4.46c0-2.63,1.79-4.46,4.25-4.46C301.6,141.71,303.27,143.52,303.29,146.14z
		 M296.55,145.5h5.23c-0.18-1.51-1.16-2.48-2.55-2.48C297.72,143.02,296.78,144.04,296.55,145.5z"/>
	<path d="M311.51,143.79c-0.54-0.37-1.63-0.79-2.75-0.79c-1.17,0-1.93,0.5-1.93,1.27c0,0.68,0.62,1,1.66,1.13l0.99,0.13
		c1.82,0.24,2.89,1.01,2.89,2.42c0,1.63-1.46,2.68-3.79,2.68c-1.05,0-2.48-0.25-3.6-1.1l0.68-1.1c0.64,0.5,1.5,0.91,2.93,0.91
		c1.41,0,2.27-0.46,2.27-1.31c0-0.63-0.56-1.03-1.72-1.17l-0.99-0.12c-1.92-0.23-2.84-1.1-2.84-2.39c0-1.64,1.36-2.63,3.44-2.63
		c1.35,0,2.58,0.36,3.41,0.93L311.51,143.79z"/>
	<path d="M327.63,150.44h-1.48v-1.14c-0.67,0.8-1.67,1.32-3.02,1.32c-2.4,0-4.28-1.87-4.28-4.46s1.87-4.46,4.28-4.46
		c1.34,0,2.34,0.52,3.02,1.33v-1.15h1.48V150.44z M320.37,146.17c0,1.7,1.19,3.08,2.94,3.08c1.73,0,2.93-1.32,2.93-3.08
		c0-1.75-1.21-3.07-2.93-3.07C321.53,143.1,320.37,144.47,320.37,146.17z"/>
	<path d="M337.71,143.06l-0.95,1c-0.63-0.61-1.36-0.96-2.27-0.96c-1.65,0-2.9,1.28-2.9,3.07c0,1.79,1.25,3.08,2.9,3.08
		c0.91,0,1.71-0.41,2.3-0.98l0.91,1.02c-0.77,0.87-1.91,1.34-3.18,1.34c-2.65,0-4.44-1.92-4.44-4.46s1.79-4.46,4.44-4.46
		C335.8,141.71,336.95,142.18,337.71,143.06z"/>
	<path d="M345.89,143.23h-3.59v4.17c0,1.29,0.69,1.85,1.61,1.85c0.63,0,1.26-0.24,1.75-0.58l0.69,1.11
		c-0.66,0.48-1.51,0.85-2.57,0.85c-1.86,0-2.96-1.02-2.96-3.2v-4.2H339v-1.34h1.83v-2.68h1.48v2.68h3.59V143.23z"/>
	<path d="M350.02,138.88c0,0.58-0.47,1.03-1.05,1.03s-1.04-0.44-1.04-1.03c0-0.59,0.45-1.05,1.04-1.05S350.02,138.29,350.02,138.88z
		 M349.72,150.44h-1.47v-8.55h1.47V150.44z"/>
	<path d="M361.23,146.17c0,2.54-1.94,4.46-4.53,4.46c-2.59,0-4.52-1.92-4.52-4.46s1.93-4.46,4.52-4.46
		C359.29,141.71,361.23,143.63,361.23,146.17z M353.68,146.17c0,1.79,1.3,3.08,3.02,3.08c1.71,0,3.02-1.29,3.02-3.08
		c0-1.79-1.3-3.07-3.02-3.07C354.98,143.1,353.68,144.38,353.68,146.17z"/>
	<path d="M371.52,145.13v5.31h-1.48v-4.83c0-1.58-0.86-2.5-2.35-2.5c-1.38,0-2.53,0.95-2.53,2.54v4.8h-1.47v-8.55h1.46v1.12
		c0.7-0.96,1.81-1.3,2.8-1.3C370.06,141.71,371.52,143.08,371.52,145.13z"/>
	<path d="M380.3,143.79c-0.54-0.37-1.63-0.79-2.75-0.79c-1.17,0-1.93,0.5-1.93,1.27c0,0.68,0.62,1,1.66,1.13l0.99,0.13
		c1.82,0.24,2.89,1.01,2.89,2.42c0,1.63-1.46,2.68-3.79,2.68c-1.05,0-2.48-0.25-3.6-1.1l0.68-1.1c0.64,0.5,1.5,0.91,2.93,0.91
		c1.41,0,2.27-0.46,2.27-1.31c0-0.63-0.56-1.03-1.72-1.17l-0.99-0.12c-1.92-0.23-2.84-1.1-2.84-2.39c0-1.64,1.36-2.63,3.44-2.63
		c1.35,0,2.58,0.36,3.41,0.93L380.3,143.79z"/>
	<path d="M394.94,143.04v-5.56h1.48v12.96h-1.48v-1.14c-0.68,0.8-1.68,1.32-3.02,1.32c-2.4,0-4.28-1.87-4.28-4.46
		s1.87-4.46,4.28-4.46C393.27,141.71,394.27,142.23,394.94,143.04z M389.15,146.17c0,1.7,1.19,3.08,2.94,3.08
		c1.73,0,2.94-1.32,2.94-3.08c0-1.75-1.21-3.07-2.94-3.07C390.31,143.1,389.15,144.47,389.15,146.17z"/>
	<path d="M407.25,146.86c0,2.58-1.86,3.76-3.9,3.76c-2.06,0-3.91-1.18-3.91-3.76v-4.97h1.48v4.83c0,1.75,1.04,2.52,2.43,2.52
		c1.39,0,2.42-0.77,2.42-2.52v-4.83h1.48V146.86z"/>
	<path d="M415.79,141.99l-0.36,1.45c-0.4-0.22-0.98-0.33-1.47-0.33c-1.31,0-2.22,1-2.22,2.57v4.76h-1.47v-8.55h1.45v1.13
		c0.59-0.84,1.49-1.31,2.5-1.31C414.83,141.71,415.33,141.79,415.79,141.99z"/>
	<path d="M425.57,150.44h-1.48v-1.14c-0.68,0.8-1.67,1.32-3.02,1.32c-2.4,0-4.28-1.87-4.28-4.46s1.87-4.46,4.28-4.46
		c1.34,0,2.34,0.52,3.02,1.33v-1.15h1.48V150.44z M418.3,146.17c0,1.7,1.19,3.08,2.94,3.08c1.73,0,2.94-1.32,2.94-3.08
		c0-1.75-1.21-3.07-2.94-3.07C419.47,143.1,418.3,144.47,418.3,146.17z"/>
	<path d="M437.44,146.17c0,2.58-1.88,4.46-4.28,4.46c-1.35,0-2.35-0.52-3.02-1.32v1.14h-1.47v-12.96h1.47v5.55
		c0.67-0.8,1.67-1.32,3.02-1.32C435.56,141.71,437.44,143.58,437.44,146.17z M430.06,146.17c0,1.76,1.21,3.08,2.94,3.08
		c1.77,0,2.93-1.38,2.93-3.08s-1.19-3.07-2.93-3.07C431.27,143.1,430.06,144.42,430.06,146.17z"/>
	<path d="M441.37,150.44h-1.47v-12.96h1.47V150.44z"/>
	<path d="M452.11,146.14c0,0.19-0.02,0.39-0.03,0.55h-6.73c0.21,1.77,1.44,2.65,2.91,2.65c1,0,1.91-0.39,2.64-1.02l0.78,1.01
		c-1.06,0.99-2.25,1.3-3.51,1.3c-2.54,0-4.34-1.79-4.34-4.46c0-2.63,1.79-4.46,4.25-4.46C450.42,141.71,452.09,143.52,452.11,146.14
		z M445.38,145.5h5.23c-0.18-1.51-1.16-2.48-2.55-2.48C446.55,143.02,445.6,144.04,445.38,145.5z"/>
	<path d="M460.34,143.79c-0.54-0.37-1.63-0.79-2.76-0.79c-1.17,0-1.93,0.5-1.93,1.27c0,0.68,0.62,1,1.66,1.13l0.99,0.13
		c1.82,0.24,2.89,1.01,2.89,2.42c0,1.63-1.46,2.68-3.79,2.68c-1.05,0-2.48-0.25-3.6-1.1l0.68-1.1c0.64,0.5,1.5,0.91,2.93,0.91
		c1.4,0,2.27-0.46,2.27-1.31c0-0.63-0.56-1.03-1.72-1.17l-0.99-0.12c-1.92-0.23-2.85-1.1-2.85-2.39c0-1.64,1.36-2.63,3.44-2.63
		c1.35,0,2.58,0.36,3.41,0.93L460.34,143.79z"/>
	<path d="M93.27,162.9c-2.38,1-3.84,3.56-3.84,6.43c0,2.86,1.47,5.43,3.84,6.43l-0.52,1.35c-2.93-1.14-4.9-4.17-4.9-7.78
		c0-3.61,1.97-6.63,4.9-7.79L93.27,162.9z"/>
	<path d="M101.35,167.05v-1.16h1.48v7.96c0,2.76-1.85,4.34-4.55,4.34c-1.33,0-2.71-0.41-3.58-1.11l0.64-1.19
		c0.82,0.58,1.84,0.95,2.94,0.95c1.84,0,3.07-1.04,3.07-2.93v-0.76c-0.65,0.82-1.62,1.33-2.94,1.33c-2.4,0-4.23-1.78-4.23-4.39
		c0-2.6,1.83-4.38,4.23-4.38C99.73,165.71,100.7,166.23,101.35,167.05z M95.68,170.09c0,1.67,1.14,3.01,2.9,3.01
		c1.7,0,2.9-1.3,2.9-3.01c0-1.7-1.2-3-2.9-3C96.82,167.1,95.68,168.45,95.68,170.09z"/>
	<path d="M113.56,170.14c0,0.19-0.02,0.39-0.03,0.55h-6.73c0.21,1.77,1.44,2.65,2.91,2.65c1,0,1.91-0.39,2.64-1.02l0.78,1.01
		c-1.06,0.99-2.25,1.3-3.51,1.3c-2.54,0-4.34-1.79-4.34-4.46c0-2.63,1.79-4.46,4.25-4.46C111.87,165.71,113.54,167.52,113.56,170.14
		z M106.83,169.5h5.23c-0.18-1.51-1.16-2.48-2.55-2.48C108,167.02,107.05,168.04,106.83,169.5z"/>
	<path d="M121.79,167.79c-0.54-0.37-1.63-0.79-2.75-0.79c-1.17,0-1.93,0.5-1.93,1.27c0,0.68,0.62,1,1.66,1.13l0.99,0.13
		c1.82,0.24,2.89,1.01,2.89,2.42c0,1.63-1.46,2.68-3.79,2.68c-1.05,0-2.48-0.25-3.6-1.1l0.68-1.1c0.64,0.5,1.5,0.91,2.93,0.91
		c1.41,0,2.27-0.46,2.27-1.31c0-0.63-0.56-1.03-1.72-1.17l-0.99-0.12c-1.92-0.23-2.84-1.1-2.84-2.39c0-1.64,1.36-2.63,3.44-2.63
		c1.35,0,2.58,0.36,3.41,0.93L121.79,167.79z"/>
	<path d="M130.78,167.23h-3.59v4.17c0,1.29,0.68,1.85,1.61,1.85c0.63,0,1.26-0.24,1.75-0.58l0.69,1.11
		c-0.66,0.48-1.51,0.85-2.57,0.85c-1.85,0-2.96-1.02-2.96-3.2v-4.2h-1.83v-1.34h1.83v-2.68h1.48v2.68h3.59V167.23z"/>
	<path d="M134.91,162.88c0,0.58-0.47,1.03-1.05,1.03c-0.59,0-1.04-0.44-1.04-1.03c0-0.59,0.45-1.05,1.04-1.05
		C134.44,161.83,134.91,162.29,134.91,162.88z M134.6,174.44h-1.47v-8.55h1.47V174.44z"/>
	<path d="M146.11,170.17c0,2.54-1.94,4.46-4.53,4.46s-4.52-1.92-4.52-4.46s1.93-4.46,4.52-4.46S146.11,167.63,146.11,170.17z
		 M138.57,170.17c0,1.79,1.3,3.08,3.02,3.08c1.71,0,3.02-1.29,3.02-3.08c0-1.79-1.31-3.07-3.02-3.07
		C139.87,167.1,138.57,168.38,138.57,170.17z"/>
	<path d="M156.4,169.13v5.31h-1.48v-4.83c0-1.58-0.87-2.5-2.35-2.5c-1.38,0-2.53,0.95-2.53,2.54v4.8h-1.47v-8.55h1.46v1.12
		c0.7-0.96,1.81-1.3,2.8-1.3C154.94,165.71,156.4,167.08,156.4,169.13z"/>
	<path d="M172.36,174.44h-1.48v-1.14c-0.68,0.8-1.68,1.32-3.02,1.32c-2.4,0-4.28-1.87-4.28-4.46s1.87-4.46,4.28-4.46
		c1.34,0,2.34,0.52,3.02,1.33v-1.15h1.48V174.44z M165.09,170.17c0,1.7,1.19,3.08,2.94,3.08c1.73,0,2.94-1.32,2.94-3.08
		c0-1.75-1.21-3.07-2.94-3.07C166.25,167.1,165.09,168.47,165.09,170.17z"/>
	<path d="M182.44,167.06l-0.95,1c-0.63-0.61-1.36-0.96-2.27-0.96c-1.65,0-2.9,1.28-2.9,3.07c0,1.79,1.25,3.08,2.9,3.08
		c0.91,0,1.71-0.41,2.3-0.98l0.91,1.02c-0.77,0.87-1.91,1.34-3.18,1.34c-2.65,0-4.44-1.92-4.44-4.46s1.79-4.46,4.44-4.46
		C180.53,165.71,181.67,166.18,182.44,167.06z"/>
	<path d="M190.62,167.23h-3.59v4.17c0,1.29,0.68,1.85,1.61,1.85c0.63,0,1.26-0.24,1.75-0.58l0.69,1.11
		c-0.66,0.48-1.51,0.85-2.57,0.85c-1.85,0-2.96-1.02-2.96-3.2v-4.2h-1.83v-1.34h1.83v-2.68h1.48v2.68h3.59V167.23z"/>
	<path d="M194.75,162.88c0,0.58-0.47,1.03-1.05,1.03c-0.59,0-1.04-0.44-1.04-1.03c0-0.59,0.45-1.05,1.04-1.05
		C194.28,161.83,194.75,162.29,194.75,162.88z M194.44,174.44h-1.47v-8.55h1.47V174.44z"/>
	<path d="M201.58,174.45h-1.73l-3.6-8.56h1.6l2.87,7.07l2.88-7.07h1.56L201.58,174.45z"/>
	<path d="M214.49,170.14c0,0.19-0.02,0.39-0.03,0.55h-6.73c0.21,1.77,1.44,2.65,2.91,2.65c1,0,1.91-0.39,2.64-1.02l0.78,1.01
		c-1.06,0.99-2.25,1.3-3.51,1.3c-2.54,0-4.34-1.79-4.34-4.46c0-2.63,1.79-4.46,4.25-4.46C212.79,165.71,214.47,167.52,214.49,170.14
		z M207.75,169.5h5.23c-0.18-1.51-1.16-2.48-2.55-2.48C208.92,167.02,207.98,168.04,207.75,169.5z"/>
	<path d="M229.39,170.14c0,0.19-0.02,0.39-0.03,0.55h-6.72c0.21,1.77,1.44,2.65,2.91,2.65c1,0,1.91-0.39,2.64-1.02l0.78,1.01
		c-1.06,0.99-2.25,1.3-3.51,1.3c-2.54,0-4.34-1.79-4.34-4.46c0-2.63,1.79-4.46,4.25-4.46C227.7,165.71,229.37,167.52,229.39,170.14z
		 M222.66,169.5h5.23c-0.18-1.51-1.16-2.48-2.55-2.48C223.83,167.02,222.88,168.04,222.66,169.5z"/>
	<path d="M237.57,167.23h-3.59v4.17c0,1.29,0.68,1.85,1.61,1.85c0.63,0,1.26-0.24,1.75-0.58l0.69,1.11
		c-0.66,0.48-1.51,0.85-2.56,0.85c-1.86,0-2.96-1.02-2.96-3.2v-4.2h-1.83v-1.34h1.83v-2.68h1.48v2.68h3.59V167.23z"/>
	<path d="M253.5,170.17c0,2.58-1.88,4.46-4.28,4.46c-1.35,0-2.35-0.52-3.02-1.32v4.74h-1.47v-12.15h1.47v1.14
		c0.67-0.8,1.67-1.32,3.02-1.32C251.62,165.71,253.5,167.58,253.5,170.17z M246.12,170.17c0,1.76,1.21,3.08,2.93,3.08
		c1.77,0,2.93-1.38,2.93-3.08s-1.19-3.07-2.93-3.07C247.32,167.1,246.12,168.42,246.12,170.17z"/>
	<path d="M264.08,174.44h-1.48v-1.14c-0.67,0.8-1.67,1.32-3.02,1.32c-2.4,0-4.28-1.87-4.28-4.46s1.87-4.46,4.28-4.46
		c1.34,0,2.34,0.52,3.02,1.33v-1.15h1.48V174.44z M256.82,170.17c0,1.7,1.19,3.08,2.94,3.08c1.73,0,2.93-1.32,2.93-3.08
		c0-1.75-1.21-3.07-2.93-3.07C257.98,167.1,256.82,168.47,256.82,170.17z"/>
	<path d="M272.96,167.79c-0.54-0.37-1.63-0.79-2.75-0.79c-1.17,0-1.93,0.5-1.93,1.27c0,0.68,0.62,1,1.66,1.13l0.99,0.13
		c1.82,0.24,2.89,1.01,2.89,2.42c0,1.63-1.46,2.68-3.79,2.68c-1.05,0-2.48-0.25-3.6-1.1l0.68-1.1c0.64,0.5,1.5,0.91,2.93,0.91
		c1.41,0,2.27-0.46,2.27-1.31c0-0.63-0.56-1.03-1.72-1.17l-0.99-0.12c-1.92-0.23-2.84-1.1-2.84-2.39c0-1.64,1.36-2.63,3.44-2.63
		c1.35,0,2.58,0.36,3.41,0.93L272.96,167.79z"/>
	<path d="M281.9,167.79c-0.54-0.37-1.63-0.79-2.75-0.79c-1.17,0-1.93,0.5-1.93,1.27c0,0.68,0.62,1,1.66,1.13l0.99,0.13
		c1.82,0.24,2.89,1.01,2.89,2.42c0,1.63-1.46,2.68-3.79,2.68c-1.05,0-2.47-0.25-3.6-1.1l0.68-1.1c0.64,0.5,1.49,0.91,2.93,0.91
		c1.4,0,2.27-0.46,2.27-1.31c0-0.63-0.56-1.03-1.72-1.17l-0.99-0.12c-1.92-0.23-2.84-1.1-2.84-2.39c0-1.64,1.36-2.63,3.44-2.63
		c1.35,0,2.58,0.36,3.41,0.93L281.9,167.79z"/>
	<path d="M286.86,162.88c0,0.58-0.47,1.03-1.05,1.03c-0.59,0-1.04-0.44-1.04-1.03c0-0.59,0.45-1.05,1.04-1.05
		C286.39,161.83,286.86,162.29,286.86,162.88z M286.56,174.44h-1.47v-8.55h1.47V174.44z"/>
	<path d="M293.69,174.45h-1.73l-3.6-8.56h1.6l2.87,7.07l2.88-7.07h1.56L293.69,174.45z"/>
	<path d="M306.6,170.14c0,0.19-0.02,0.39-0.03,0.55h-6.73c0.21,1.77,1.44,2.65,2.91,2.65c1,0,1.91-0.39,2.64-1.02l0.78,1.01
		c-1.06,0.99-2.25,1.3-3.51,1.3c-2.54,0-4.34-1.79-4.34-4.46c0-2.63,1.79-4.46,4.25-4.46C304.91,165.71,306.58,167.52,306.6,170.14z
		 M299.87,169.5h5.23c-0.18-1.51-1.16-2.48-2.55-2.48C301.04,167.02,300.09,168.04,299.87,169.5z"/>
	<path d="M308.91,176.24h-1.62l7.64-15.67h1.62L308.91,176.24z"/>
	<path d="M322.87,167.04v-1.15h1.48v12.15h-1.48v-4.74c-0.67,0.8-1.67,1.32-3.02,1.32c-2.4,0-4.28-1.87-4.28-4.46
		s1.87-4.46,4.28-4.46C321.2,165.71,322.2,166.23,322.87,167.04z M317.08,170.17c0,1.7,1.19,3.08,2.94,3.08
		c1.73,0,2.93-1.32,2.93-3.08c0-1.75-1.21-3.07-2.93-3.07C318.24,167.1,317.08,168.47,317.08,170.17z"/>
	<path d="M335.18,170.86c0,2.58-1.86,3.76-3.9,3.76c-2.06,0-3.91-1.18-3.91-3.76v-4.97h1.48v4.83c0,1.75,1.04,2.52,2.43,2.52
		c1.39,0,2.42-0.77,2.42-2.52v-4.83h1.48V170.86z"/>
	<path d="M346.32,174.44h-1.48v-1.14c-0.67,0.8-1.67,1.32-3.02,1.32c-2.4,0-4.28-1.87-4.28-4.46s1.87-4.46,4.28-4.46
		c1.34,0,2.34,0.52,3.02,1.33v-1.15h1.48V174.44z M339.05,170.17c0,1.7,1.19,3.08,2.94,3.08c1.73,0,2.93-1.32,2.93-3.08
		c0-1.75-1.21-3.07-2.93-3.07C340.21,167.1,339.05,168.47,339.05,170.17z"/>
	<path d="M357.25,169.13v5.31h-1.48v-4.83c0-1.58-0.86-2.5-2.35-2.5c-1.38,0-2.53,0.95-2.53,2.54v4.8h-1.47v-8.55h1.46v1.12
		c0.7-0.96,1.81-1.3,2.8-1.3C355.79,165.71,357.25,167.08,357.25,169.13z"/>
	<path d="M365.96,167.23h-3.59v4.17c0,1.29,0.69,1.85,1.61,1.85c0.63,0,1.26-0.24,1.75-0.58l0.69,1.11
		c-0.66,0.48-1.51,0.85-2.57,0.85c-1.86,0-2.96-1.02-2.96-3.2v-4.2h-1.83v-1.34h1.83v-2.68h1.48v2.68h3.59V167.23z"/>
	<path d="M370.09,162.88c0,0.58-0.47,1.03-1.05,1.03s-1.04-0.44-1.04-1.03c0-0.59,0.45-1.05,1.04-1.05S370.09,162.29,370.09,162.88z
		 M369.79,174.44h-1.47v-8.55h1.47V174.44z"/>
	<path d="M378.71,167.23h-3.59v4.17c0,1.29,0.68,1.85,1.61,1.85c0.63,0,1.26-0.24,1.75-0.58l0.69,1.11
		c-0.66,0.48-1.51,0.85-2.57,0.85c-1.85,0-2.96-1.02-2.96-3.2v-4.2h-1.83v-1.34h1.83v-2.68h1.48v2.68h3.59V167.23z"/>
	<path d="M389.17,174.44h-1.48v-1.14c-0.68,0.8-1.67,1.32-3.02,1.32c-2.4,0-4.28-1.87-4.28-4.46s1.87-4.46,4.28-4.46
		c1.34,0,2.34,0.52,3.02,1.33v-1.15h1.48V174.44z M381.9,170.17c0,1.7,1.19,3.08,2.94,3.08c1.73,0,2.94-1.32,2.94-3.08
		c0-1.75-1.21-3.07-2.94-3.07C383.06,167.1,381.9,168.47,381.9,170.17z"/>
	<path d="M398.08,167.23h-3.59v4.17c0,1.29,0.68,1.85,1.61,1.85c0.63,0,1.26-0.24,1.75-0.58l0.69,1.11
		c-0.66,0.48-1.51,0.85-2.57,0.85c-1.85,0-2.96-1.02-2.96-3.2v-4.2h-1.83v-1.34h1.83v-2.68h1.48v2.68h3.59V167.23z"/>
	<path d="M402.21,162.88c0,0.58-0.47,1.03-1.05,1.03c-0.58,0-1.04-0.44-1.04-1.03c0-0.59,0.45-1.05,1.04-1.05
		C401.75,161.83,402.21,162.29,402.21,162.88z M401.91,174.44h-1.47v-8.55h1.47V174.44z"/>
	<path d="M409.04,174.45h-1.73l-3.6-8.56h1.6l2.87,7.07l2.88-7.07h1.56L409.04,174.45z"/>
	<path d="M421.95,170.14c0,0.19-0.02,0.39-0.03,0.55h-6.73c0.21,1.77,1.44,2.65,2.91,2.65c1,0,1.91-0.39,2.64-1.02l0.78,1.01
		c-1.06,0.99-2.25,1.3-3.51,1.3c-2.54,0-4.34-1.79-4.34-4.46c0-2.63,1.79-4.46,4.25-4.46C420.26,165.71,421.93,167.52,421.95,170.14
		z M415.22,169.5h5.23c-0.18-1.51-1.16-2.48-2.55-2.48C416.39,167.02,415.44,168.04,415.22,169.5z"/>
	<path d="M422.86,175.74c2.38-1,3.84-3.56,3.84-6.43c0-2.86-1.47-5.43-3.84-6.43l0.52-1.35c2.93,1.14,4.9,4.17,4.9,7.78
		c0,3.61-1.97,6.64-4.9,7.79L422.86,175.74z"/>
	<path d="M95.9,194.07c0,0.27-0.02,0.59-0.04,0.79h-6.19c0.25,1.26,1.13,1.81,2.24,1.81c0.76,0,1.58-0.31,2.21-0.84l1.38,1.51
		c-0.99,0.91-2.25,1.32-3.72,1.32c-2.67,0-4.53-1.82-4.53-4.56c0-2.75,1.8-4.62,4.41-4.62C94.17,189.49,95.89,191.35,95.9,194.07z
		 M89.68,193.26h3.86c-0.22-1.12-0.89-1.75-1.9-1.75C90.53,191.51,89.88,192.18,89.68,193.26z"/>
	<path d="M106.06,192.89v5.55h-2.35v-4.8c0-1.26-0.63-1.95-1.7-1.95c-1.01,0-1.85,0.66-1.85,1.97v4.78h-2.35v-8.72h2.29v1.03
		c0.62-0.93,1.58-1.26,2.57-1.26C104.64,189.49,106.06,190.86,106.06,192.89z"/>
	<path d="M127.04,192.89v5.55h-2.34v-4.8c0-1.26-0.64-1.95-1.7-1.95c-1.01,0-1.84,0.66-1.84,1.97v4.78h-2.35v-4.8
		c0-1.26-0.63-1.95-1.7-1.95c-1.01,0-1.85,0.66-1.85,1.97v4.78h-2.35v-8.72h2.29v1.03c0.62-0.93,1.58-1.26,2.57-1.26
		c1.26,0,2.29,0.57,2.88,1.5c0.68-1.11,1.82-1.5,2.96-1.5C125.65,189.49,127.04,190.86,127.04,192.89z"/>
	<path d="M132.09,186.87c0,0.85-0.66,1.49-1.5,1.49c-0.85,0-1.49-0.65-1.49-1.49c0-0.85,0.65-1.51,1.49-1.51
		C131.43,185.35,132.09,186.02,132.09,186.87z M131.78,198.44h-2.35v-8.72h2.35V198.44z"/>
	<path d="M136.59,198.44h-2.35v-12.96h2.35V198.44z"/>
	<path d="M141.41,198.44h-2.35v-12.96h2.35V198.44z"/>
	<path d="M146.54,186.87c0,0.85-0.66,1.49-1.5,1.49c-0.85,0-1.49-0.65-1.49-1.49c0-0.85,0.65-1.51,1.49-1.51
		C145.88,185.35,146.54,186.02,146.54,186.87z M146.22,198.44h-2.35v-8.72h2.35V198.44z"/>
	<path d="M157.27,198.44h-2.3v-0.96c-0.57,0.7-1.41,1.19-2.61,1.19c-2.4,0-4.22-1.97-4.22-4.59s1.82-4.59,4.22-4.59
		c1.2,0,2.03,0.49,2.61,1.2v-0.96h2.3V198.44z M150.55,194.08c0,1.33,0.87,2.4,2.25,2.4c1.34,0,2.25-1.03,2.25-2.4
		c0-1.38-0.91-2.4-2.25-2.4C151.42,191.67,150.55,192.75,150.55,194.08z"/>
	<path d="M165.7,189.67l-0.35,2.33c-0.39-0.17-0.95-0.28-1.42-0.28c-1.09,0-1.84,0.67-1.84,1.96v4.75h-2.35v-8.72h2.28v0.95
		c0.55-0.82,1.39-1.19,2.46-1.19C164.98,189.49,165.37,189.56,165.7,189.67z"/>
	<path d="M173.25,190.63v-5.15h2.34v12.96h-2.29v-0.96c-0.57,0.7-1.41,1.19-2.61,1.19c-2.4,0-4.22-1.97-4.22-4.59
		s1.82-4.59,4.22-4.59C171.85,189.49,172.68,189.94,173.25,190.63z M168.86,194.08c0,1.33,0.87,2.4,2.25,2.4
		c1.34,0,2.25-1.03,2.25-2.4c0-1.38-0.91-2.4-2.25-2.4C169.74,191.67,168.86,192.75,168.86,194.08z"/>
	<path d="M184.31,192.15c-0.69-0.34-1.8-0.7-2.78-0.71c-0.89,0-1.34,0.31-1.34,0.79c0,0.5,0.63,0.63,1.42,0.75l0.77,0.12
		c1.89,0.29,2.94,1.13,2.94,2.61c0,1.8-1.48,2.96-4.01,2.96c-1.19,0-2.75-0.22-3.88-1.03l0.93-1.78c0.75,0.5,1.66,0.86,2.97,0.86
		c1.09,0,1.61-0.31,1.61-0.82c0-0.42-0.44-0.66-1.45-0.8l-0.71-0.1c-2.02-0.28-3.02-1.16-3.02-2.65c0-1.79,1.39-2.85,3.68-2.85
		c1.4,0,2.49,0.26,3.65,0.83L184.31,192.15z"/>
	<path d="M197.87,184.36v1.67c1.51,0.14,2.66,0.6,3.75,1.27l-1.13,1.93c-0.74-0.45-1.63-0.83-2.63-0.98v2.87
		c2.21,0.34,3.92,1.31,3.87,3.37c-0.05,2.22-1.76,3.43-3.86,3.74V200h-2v-1.74c-1.59-0.14-3.2-0.65-4.29-1.51l1.23-1.91
		c0.72,0.55,1.82,1.05,3.05,1.22v-2.9l-0.1-0.02c-2.21-0.35-3.8-1.3-3.75-3.45c0.04-2.04,1.64-3.35,3.85-3.66v-1.68H197.87z
		 M195.87,190.77v-2.49c-0.84,0.2-1.36,0.65-1.38,1.3C194.49,190.21,194.99,190.55,195.87,190.77z M197.87,193.51V196
		c0.83-0.2,1.38-0.64,1.4-1.31C199.28,194.09,198.78,193.74,197.87,193.51z"/>
	<path d="M215.14,193.41c0,3.48-2.22,5.26-5.43,5.26s-5.43-1.77-5.43-5.26v-7.57h2.52v7.45c0,2.07,1.17,2.98,2.91,2.98
		c1.74,0,2.91-0.91,2.91-2.98v-7.45h2.52V193.41z"/>
	<path d="M226.41,189.02c-0.99-0.61-2.2-1.07-3.57-1.07c-1.41,0-2.41,0.56-2.41,1.51c0,0.93,1.09,1.21,2.6,1.46l0.71,0.12
		c2.25,0.37,4.02,1.33,4.02,3.53c0,2.78-2.45,4.1-5.16,4.1c-1.91,0-3.96-0.56-5.31-1.65l1.31-2.03c0.91,0.73,2.39,1.36,4.01,1.36
		c1.4,0,2.48-0.55,2.48-1.52c0-0.87-0.92-1.2-2.67-1.48l-0.8-0.13c-2.22-0.35-3.84-1.33-3.84-3.61c0-2.63,2.34-4,5.02-4
		c1.76,0,3.23,0.4,4.82,1.34L226.41,189.02z"/>
</g>
<g>
	<g>
		<path d="M47.88,398.57c0,3.17-1.89,5.08-4.23,5.08c-2.35,0-4.22-1.9-4.22-5.08s1.88-5.08,4.22-5.08
			C45.99,393.5,47.88,395.4,47.88,398.57z M41.39,398.57c0,2.14,1,3.26,2.25,3.26c1.26,0,2.25-1.12,2.25-3.26
			c0-2.14-0.99-3.26-2.25-3.26C42.39,395.31,41.39,396.43,41.39,398.57z"/>
	</g>
</g>
<g>
	<g>
		<path d="M37.52,349.35h-3.97l-0.04,1.96h1.13c2.28,0,3.43,1.31,3.43,2.95c0,2.11-1.6,3.31-3.58,3.31c-1.46,0-2.66-0.55-3.47-1.46
			l1.06-1.32c0.53,0.58,1.49,1.04,2.4,1.04c1.09,0,1.63-0.64,1.63-1.42c0-0.74-0.46-1.38-2-1.38h-2.33l0.11-5.43h5.64V349.35z"/>
		<path d="M47.88,352.5c0,3.17-1.89,5.08-4.23,5.08c-2.35,0-4.22-1.9-4.22-5.08s1.88-5.08,4.22-5.08
			C45.99,347.42,47.88,349.33,47.88,352.5z M41.39,352.5c0,2.14,1,3.26,2.25,3.26c1.26,0,2.25-1.12,2.25-3.26
			c0-2.14-0.99-3.26-2.25-3.26C42.39,349.23,41.39,350.35,41.39,352.5z"/>
	</g>
</g>
<g>
	<g>
		<path d="M27.68,311.33h-1.89v-7.3l-2.35,0.95v-1.9l4.24-1.71V311.33z"/>
		<path d="M38,306.42c0,3.17-1.89,5.08-4.23,5.08c-2.35,0-4.22-1.9-4.22-5.08s1.88-5.08,4.22-5.08C36.1,301.35,38,303.25,38,306.42z
			 M31.51,306.42c0,2.14,1,3.26,2.26,3.26c1.26,0,2.25-1.12,2.25-3.26c0-2.14-0.99-3.26-2.25-3.26
			C32.51,303.16,31.51,304.28,31.51,306.42z"/>
		<path d="M47.88,306.42c0,3.17-1.89,5.08-4.23,5.08c-2.35,0-4.22-1.9-4.22-5.08s1.88-5.08,4.22-5.08
			C45.99,301.35,47.88,303.25,47.88,306.42z M41.39,306.42c0,2.14,1,3.26,2.25,3.26c1.26,0,2.25-1.12,2.25-3.26
			c0-2.14-0.99-3.26-2.25-3.26C42.39,303.16,41.39,304.28,41.39,306.42z"/>
	</g>
</g>
<g>
	<g>
		<path d="M29.4,265.25h-1.89v-7.3l-2.35,0.95V257l4.24-1.71V265.25z"/>
		<path d="M37.52,257.2h-3.97l-0.04,1.96h1.13c2.28,0,3.43,1.31,3.43,2.95c0,2.11-1.6,3.31-3.58,3.31c-1.46,0-2.66-0.55-3.47-1.46
			l1.06-1.32c0.53,0.58,1.49,1.04,2.4,1.04c1.09,0,1.63-0.64,1.63-1.42c0-0.74-0.46-1.38-2-1.38h-2.33l0.11-5.43h5.64V257.2z"/>
		<path d="M47.88,260.35c0,3.17-1.89,5.08-4.23,5.08c-2.35,0-4.22-1.9-4.22-5.08s1.88-5.08,4.22-5.08
			C45.99,255.27,47.88,257.18,47.88,260.35z M41.39,260.35c0,2.14,1,3.26,2.25,3.26c1.26,0,2.25-1.12,2.25-3.26
			c0-2.14-0.99-3.26-2.25-3.26C42.39,257.08,41.39,258.2,41.39,260.35z"/>
	</g>
</g>
<g>
	<g>
		<path d="M21.41,210.88c0.53-0.69,1.53-1.69,3.35-1.69c2.05,0,3.33,1.29,3.33,3.17c0,1.2-0.61,2.03-1.41,2.86l-2.09,2.18h3.75v1.77
			h-6.48v-1.48l3.47-3.55c0.52-0.53,0.81-1.07,0.81-1.68c0-0.85-0.59-1.46-1.5-1.46c-0.93,0-1.48,0.5-1.99,1.08L21.41,210.88z"/>
		<path d="M37.99,214.27c0,3.17-1.89,5.08-4.23,5.08c-2.35,0-4.22-1.9-4.22-5.08c0-3.17,1.88-5.08,4.22-5.08
			C36.1,209.19,37.99,211.1,37.99,214.27z M31.51,214.27c0,2.14,1,3.26,2.26,3.26c1.26,0,2.25-1.12,2.25-3.26
			c0-2.14-0.99-3.26-2.25-3.26C32.51,211.01,31.51,212.13,31.51,214.27z"/>
		<path d="M47.88,214.27c0,3.17-1.89,5.08-4.23,5.08c-2.35,0-4.22-1.9-4.22-5.08c0-3.17,1.88-5.08,4.22-5.08
			C45.99,209.19,47.88,211.1,47.88,214.27z M41.39,214.27c0,2.14,1,3.26,2.25,3.26c1.26,0,2.26-1.12,2.26-3.26
			c0-2.14-0.99-3.26-2.26-3.26C42.39,211.01,41.39,212.13,41.39,214.27z"/>
	</g>
</g>
<g>
	<g>
		<path d="M23.13,164.81c0.53-0.69,1.53-1.69,3.35-1.69c2.05,0,3.33,1.29,3.33,3.17c0,1.2-0.61,2.03-1.42,2.86l-2.09,2.18h3.75v1.77
			h-6.48v-1.48l3.47-3.55c0.52-0.53,0.8-1.07,0.8-1.68c0-0.85-0.59-1.46-1.5-1.46c-0.93,0-1.48,0.5-1.99,1.08L23.13,164.81z"/>
		<path d="M37.52,165.05h-3.97l-0.04,1.96h1.13c2.28,0,3.43,1.31,3.43,2.95c0,2.11-1.6,3.31-3.58,3.31c-1.46,0-2.66-0.55-3.47-1.46
			l1.06-1.32c0.53,0.58,1.49,1.04,2.4,1.04c1.09,0,1.63-0.64,1.63-1.42c0-0.74-0.46-1.38-2-1.38h-2.33l0.11-5.43h5.64V165.05z"/>
		<path d="M47.88,168.2c0,3.17-1.89,5.08-4.23,5.08c-2.35,0-4.22-1.9-4.22-5.08s1.88-5.08,4.22-5.08
			C45.99,163.12,47.88,165.02,47.88,168.2z M41.39,168.2c0,2.14,1,3.26,2.25,3.26c1.26,0,2.25-1.12,2.25-3.26
			c0-2.14-0.99-3.26-2.25-3.26C42.39,164.93,41.39,166.05,41.39,168.2z"/>
	</g>
</g>
<g>
	<g>
		<path d="M28,119.86c0,1.04-0.55,1.8-1.46,2.23c1.03,0.41,1.68,1.19,1.68,2.25c0,1.93-1.76,2.86-3.61,2.86
			c-1.47,0-2.68-0.53-3.42-1.42l1.13-1.24c0.57,0.6,1.39,0.94,2.23,0.94c0.95,0,1.72-0.41,1.72-1.27c0-0.84-0.86-1.28-1.92-1.28
			h-1.14v-1.68h1.15c0.95,0,1.71-0.42,1.71-1.25c0-0.79-0.71-1.23-1.63-1.23c-0.91,0-1.58,0.47-1.98,1l-1.19-1.2
			c0.64-0.87,1.71-1.52,3.27-1.52C26.59,117.04,28,118.16,28,119.86z"/>
		<path d="M37.99,122.12c0,3.17-1.89,5.08-4.23,5.08c-2.35,0-4.22-1.9-4.22-5.08s1.88-5.08,4.22-5.08
			C36.1,117.04,37.99,118.95,37.99,122.12z M31.51,122.12c0,2.14,1,3.26,2.26,3.26c1.26,0,2.25-1.12,2.25-3.26
			c0-2.14-0.99-3.26-2.25-3.26C32.51,118.86,31.51,119.98,31.51,122.12z"/>
		<path d="M47.88,122.12c0,3.17-1.89,5.08-4.23,5.08c-2.35,0-4.22-1.9-4.22-5.08s1.88-5.08,4.22-5.08
			C45.99,117.04,47.88,118.95,47.88,122.12z M41.39,122.12c0,2.14,1,3.26,2.25,3.26c1.26,0,2.26-1.12,2.26-3.26
			c0-2.14-0.99-3.26-2.26-3.26C42.39,118.86,41.39,119.98,41.39,122.12z"/>
	</g>
</g>
<g>
	<g>
		<path d="M29.72,73.78c0,1.04-0.55,1.8-1.46,2.23c1.03,0.41,1.68,1.19,1.68,2.25c0,1.93-1.76,2.86-3.61,2.86
			c-1.47,0-2.68-0.53-3.43-1.42l1.13-1.24c0.57,0.6,1.39,0.94,2.23,0.94c0.95,0,1.72-0.41,1.72-1.27c0-0.84-0.86-1.28-1.92-1.28
			h-1.14v-1.68h1.15c0.95,0,1.72-0.42,1.72-1.25c0-0.79-0.71-1.23-1.63-1.23s-1.58,0.47-1.98,1l-1.19-1.2
			c0.64-0.87,1.71-1.52,3.27-1.52C28.31,70.97,29.72,72.09,29.72,73.78z"/>
		<path d="M37.52,72.9h-3.97l-0.04,1.96h1.13c2.28,0,3.43,1.31,3.43,2.95c0,2.11-1.6,3.31-3.58,3.31c-1.46,0-2.66-0.55-3.47-1.46
			l1.06-1.32c0.53,0.58,1.49,1.04,2.4,1.04c1.09,0,1.63-0.64,1.63-1.42c0-0.74-0.46-1.38-2-1.38h-2.33l0.11-5.43h5.64V72.9z"/>
		<path d="M47.88,76.05c0,3.17-1.89,5.08-4.23,5.08c-2.35,0-4.22-1.9-4.22-5.08s1.88-5.08,4.22-5.08
			C45.99,70.97,47.88,72.87,47.88,76.05z M41.39,76.05c0,2.14,1,3.26,2.25,3.26c1.26,0,2.25-1.12,2.25-3.26
			c0-2.14-0.99-3.26-2.25-3.26C42.39,72.78,41.39,73.9,41.39,76.05z"/>
	</g>
</g>
<g>
	<g>
		<path d="M27.17,31.32h1.37v1.76h-1.37v1.79h-1.89v-1.79h-4.35v-1.37l3.44-6.63h2.1l-3.28,6.24h2.09V28.7h1.89V31.32z"/>
		<path d="M37.99,29.97c0,3.17-1.89,5.08-4.23,5.08c-2.35,0-4.22-1.9-4.22-5.08s1.88-5.08,4.22-5.08
			C36.1,24.89,37.99,26.8,37.99,29.97z M31.51,29.97c0,2.14,1,3.26,2.26,3.26c1.26,0,2.25-1.12,2.25-3.26
			c0-2.14-0.99-3.26-2.25-3.26C32.51,26.71,31.51,27.83,31.51,29.97z"/>
		<path d="M47.88,29.97c0,3.17-1.89,5.08-4.23,5.08c-2.35,0-4.22-1.9-4.22-5.08s1.88-5.08,4.22-5.08
			C45.99,24.89,47.88,26.8,47.88,29.97z M41.39,29.97c0,2.14,1,3.26,2.25,3.26c1.26,0,2.25-1.12,2.25-3.26
			c0-2.14-0.99-3.26-2.25-3.26C42.39,26.71,41.39,27.83,41.39,29.97z"/>
	</g>
</g>
<g>
	<g>
		<g>
			<rect x="74.05" y="335.86" class="st4" width="58.78" height="62.66"/>
			<rect x="155.68" y="345.07" class="st4" width="58.78" height="53.45"/>
			<rect x="237.32" y="342.31" class="st4" width="58.78" height="56.21"/>
			<rect x="318.96" y="320.19" class="st4" width="58.78" height="78.33"/>
			<rect x="400.59" y="310.05" class="st4" width="58.78" height="88.46"/>
			<rect x="482.23" y="300.84" class="st4" width="58.78" height="97.68"/>
			<rect x="563.86" y="287.02" class="st4" width="58.78" height="111.5"/>
			<rect x="645.5" y="244.63" class="st4" width="58.78" height="153.89"/>
			<rect x="727.14" y="240.94" class="st4" width="58.78" height="157.58"/>
			<polygon class="st4" points="808.77,144.94 867.55,145.1 867.55,398.52 808.77,398.52 			"/>
			<rect x="890.41" y="56.64" class="st5" width="58.78" height="341.88"/>
		</g>
	</g>
</g>
<g>
	<path class="st5" d="M888.89,18.72c0,2.81-1.5,4.88-3.97,6.04c2.79,1.1,4.56,3.23,4.56,6.1c0,5.24-4.77,7.77-9.8,7.77
		c-3.99,0-7.28-1.42-9.29-3.86l3.06-3.36c1.54,1.62,3.76,2.55,6.04,2.55c2.58,0,4.65-1.12,4.65-3.46c0-2.28-2.34-3.48-5.21-3.48
		h-3.1v-4.56h3.12c2.58,0,4.65-1.14,4.65-3.38c0-2.15-1.94-3.32-4.41-3.32c-2.47,0-4.29,1.27-5.38,2.7l-3.23-3.25
		c1.75-2.36,4.63-4.12,8.87-4.12C885.07,11.09,888.89,14.13,888.89,18.72z"/>
	<path class="st5" d="M911.06,15.57l-11.02,22.59H894l10.94-21.81h-12.63v-4.79h18.75V15.57z"/>
	<path class="st5" d="M925.08,38.16h-5.13V18.36l-6.36,2.58v-5.17l11.49-4.63V38.16z"/>
	<path class="st5" d="M953.37,8.45v3.51c3.19,0.3,5.61,1.27,7.92,2.68l-2.37,4.07c-1.56-0.95-3.44-1.75-5.55-2.07v6.06
		c4.65,0.72,8.26,2.77,8.17,7.11c-0.12,4.69-3.71,7.24-8.15,7.88v3.76h-4.22v-3.67c-3.36-0.29-6.74-1.37-9.06-3.19l2.6-4.03
		c1.52,1.16,3.84,2.22,6.44,2.58v-6.12l-0.21-0.04c-4.65-0.74-8.02-2.75-7.92-7.28c0.08-4.29,3.46-7.07,8.13-7.71V8.45H953.37z
		 M949.15,21.97v-5.24c-1.77,0.42-2.87,1.37-2.91,2.74C946.23,20.8,947.29,21.5,949.15,21.97z M953.37,27.75v5.26
		c1.75-0.42,2.91-1.35,2.95-2.77C956.34,28.98,955.29,28.24,953.37,27.75z"/>
</g>
<g>
	<path d="M802.67,115.56c0.99-1.29,2.83-3.13,6.21-3.13c3.81,0,6.18,2.39,6.18,5.88c0,2.22-1.13,3.77-2.63,5.32l-3.89,4.04h6.96
		v3.29h-12.03v-2.74l6.44-6.59c0.96-0.98,1.5-1.98,1.5-3.12c0-1.59-1.1-2.72-2.78-2.72c-1.73,0-2.76,0.94-3.69,2L802.67,115.56z"/>
	<path d="M830.07,115.49l-7.54,15.46h-4.13l7.49-14.92h-8.64v-3.28h12.83V115.49z"/>
	<path d="M843.68,116.02h-7.37l-0.08,3.64h2.09c4.24,0,6.37,2.43,6.37,5.47c0,3.91-2.96,6.15-6.64,6.15c-2.72,0-4.94-1.01-6.45-2.72
		l1.98-2.46c0.99,1.08,2.77,1.92,4.45,1.92c2.03,0,3.03-1.2,3.03-2.64c0-1.37-0.86-2.56-3.71-2.56h-4.33l0.2-10.08h10.46V116.02z"/>
	<path d="M863.12,110.62v2.41c2.18,0.21,3.83,0.87,5.42,1.83l-1.63,2.78c-1.07-0.65-2.35-1.2-3.79-1.42v4.15
		c3.18,0.49,5.65,1.9,5.59,4.86c-0.08,3.21-2.54,4.95-5.58,5.39v2.57h-2.88v-2.51c-2.3-0.2-4.62-0.94-6.2-2.18l1.78-2.76
		c1.04,0.79,2.63,1.52,4.41,1.77v-4.19l-0.14-0.03c-3.19-0.51-5.49-1.88-5.42-4.98c0.05-2.94,2.37-4.84,5.56-5.28v-2.43H863.12z
		 M860.23,119.88v-3.59c-1.21,0.29-1.96,0.94-1.99,1.87C858.23,119.07,858.96,119.55,860.23,119.88z M863.12,123.83v3.6
		c1.2-0.29,1.99-0.92,2.01-1.9C865.15,124.67,864.43,124.17,863.12,123.83z"/>
</g>
<g>
	<path d="M733.73,231.76h-3.51v-13.55l-4.36,1.77v-3.54l7.87-3.17V231.76z"/>
	<path d="M749.5,216.3l-7.54,15.46h-4.13l7.49-14.92h-8.64v-3.28h12.83V216.3z"/>
	<path d="M759.1,231.76h-3.51v-13.55l-4.36,1.77v-3.54l7.87-3.17V231.76z"/>
	<path d="M778.45,211.43v2.41c2.18,0.21,3.83,0.87,5.42,1.83l-1.63,2.78c-1.07-0.65-2.35-1.2-3.8-1.42v4.15
		c3.19,0.49,5.66,1.9,5.59,4.86c-0.08,3.21-2.54,4.95-5.58,5.39v2.57h-2.89v-2.51c-2.3-0.2-4.62-0.94-6.2-2.18l1.78-2.76
		c1.04,0.79,2.63,1.52,4.41,1.77v-4.19l-0.14-0.03c-3.19-0.51-5.49-1.88-5.42-4.98c0.05-2.94,2.37-4.84,5.56-5.28v-2.43H778.45z
		 M775.57,220.69v-3.59c-1.21,0.29-1.96,0.94-1.99,1.87C773.56,219.88,774.29,220.36,775.57,220.69z M778.45,224.64v3.6
		c1.2-0.29,1.99-0.92,2.02-1.9C780.48,225.48,779.77,224.98,778.45,224.64z"/>
</g>
<g>
	<path d="M650.11,234.76h-3.51v-13.55l-4.36,1.77v-3.54l7.87-3.17V234.76z"/>
	<path d="M659.57,222.89c0.25-0.03,0.53-0.05,0.84-0.05c3.69,0,6.31,2.64,6.31,6.05c0,3.56-2.94,6.2-6.85,6.2
		c-3.89,0-6.83-2.61-6.83-6.14c0-1.66,0.62-3.17,1.73-4.84l5.04-7.55h4.24L659.57,222.89z M656.7,228.91c0,1.77,1.37,2.99,3.17,2.99
		c1.83,0,3.2-1.22,3.2-2.99c0-1.75-1.37-2.99-3.2-2.99C658.06,225.92,656.7,227.16,656.7,228.91z"/>
	<path d="M680.92,219.3l-7.54,15.46h-4.13l7.49-14.92h-8.65v-3.28h12.83V219.3z"/>
	<path d="M698.81,214.43v2.41c2.18,0.21,3.83,0.87,5.42,1.83l-1.63,2.78c-1.07-0.65-2.35-1.2-3.79-1.42v4.15
		c3.18,0.49,5.65,1.9,5.59,4.86c-0.08,3.21-2.54,4.95-5.58,5.39v2.57h-2.88v-2.51c-2.3-0.2-4.62-0.94-6.2-2.18l1.78-2.76
		c1.04,0.79,2.63,1.52,4.41,1.77v-4.19l-0.14-0.03c-3.19-0.51-5.49-1.88-5.42-4.98c0.05-2.94,2.37-4.84,5.56-5.28v-2.43H698.81z
		 M695.92,223.69v-3.59c-1.21,0.29-1.96,0.94-1.99,1.87C693.92,222.88,694.65,223.36,695.92,223.69z M698.81,227.64v3.6
		c1.2-0.29,1.99-0.92,2.01-1.9C700.83,228.48,700.12,227.98,698.81,227.64z"/>
</g>
<g>
	<path d="M571.47,277.8h-3.51v-13.55l-4.35,1.77v-3.54l7.87-3.17V277.8z"/>
	<path d="M574.47,262.41c0.99-1.29,2.83-3.13,6.21-3.13c3.81,0,6.17,2.39,6.17,5.88c0,2.22-1.13,3.77-2.63,5.32l-3.89,4.04h6.96
		v3.29h-12.03v-2.74l6.43-6.59c0.96-0.98,1.5-1.98,1.5-3.12c0-1.59-1.11-2.72-2.78-2.72c-1.73,0-2.76,0.94-3.69,2L574.47,262.41z"/>
	<path d="M596.82,277.8h-3.51v-13.55l-4.36,1.77v-3.54l7.87-3.17V277.8z"/>
	<path d="M616.17,257.47v2.41c2.18,0.21,3.83,0.87,5.42,1.83l-1.63,2.78c-1.07-0.65-2.35-1.2-3.8-1.42v4.15
		c3.19,0.49,5.66,1.9,5.59,4.86c-0.08,3.21-2.54,4.95-5.58,5.39v2.57h-2.89v-2.51c-2.3-0.2-4.62-0.94-6.2-2.18l1.78-2.76
		c1.04,0.79,2.63,1.52,4.41,1.77v-4.19l-0.14-0.03c-3.19-0.51-5.49-1.88-5.42-4.98c0.05-2.94,2.37-4.84,5.56-5.28v-2.43H616.17z
		 M613.29,266.72v-3.59c-1.21,0.29-1.96,0.94-1.99,1.87C611.28,265.92,612.01,266.4,613.29,266.72z M616.17,270.68v3.6
		c1.2-0.29,1.99-0.92,2.02-1.9C618.2,271.52,617.49,271.01,616.17,270.68z"/>
</g>
<g>
	<path d="M485.66,292.87h-3.51v-13.55l-4.36,1.77v-3.54l7.87-3.17V292.87z"/>
	<path d="M504.82,283.77c0,5.89-3.51,9.43-7.85,9.43c-4.36,0-7.84-3.54-7.84-9.43c0-5.89,3.48-9.42,7.84-9.42
		C501.31,274.35,504.82,277.88,504.82,283.77z M492.78,283.77c0,3.98,1.86,6.06,4.19,6.06c2.34,0,4.19-2.08,4.19-6.06
		c0-3.98-1.85-6.06-4.19-6.06C494.64,277.71,492.78,279.79,492.78,283.77z"/>
	<path d="M513.48,281c0.25-0.03,0.53-0.05,0.84-0.05c3.69,0,6.31,2.64,6.31,6.05c0,3.56-2.94,6.2-6.85,6.2
		c-3.89,0-6.83-2.61-6.83-6.14c0-1.66,0.62-3.17,1.73-4.84l5.04-7.55h4.24L513.48,281z M510.6,287.02c0,1.77,1.37,2.99,3.17,2.99
		c1.83,0,3.2-1.22,3.2-2.99c0-1.75-1.37-2.99-3.2-2.99C511.97,284.03,510.6,285.27,510.6,287.02z"/>
	<path d="M538.71,272.54v2.41c2.18,0.21,3.83,0.87,5.42,1.83l-1.63,2.78c-1.07-0.65-2.35-1.2-3.8-1.42v4.15
		c3.19,0.49,5.66,1.9,5.59,4.86c-0.08,3.21-2.54,4.95-5.58,5.39v2.57h-2.89v-2.51c-2.3-0.2-4.62-0.94-6.2-2.18l1.78-2.76
		c1.04,0.79,2.63,1.52,4.41,1.77v-4.19l-0.14-0.03c-3.19-0.51-5.49-1.88-5.42-4.98c0.05-2.94,2.37-4.84,5.56-5.28v-2.43H538.71z
		 M535.82,281.8v-3.59c-1.21,0.29-1.96,0.94-1.99,1.87C533.82,280.99,534.55,281.47,535.82,281.8z M538.71,285.75v3.6
		c1.2-0.29,1.99-0.92,2.02-1.9C540.74,286.59,540.02,286.09,538.71,285.75z"/>
</g>
<g>
	<path d="M408.45,295.02c-0.25,0.04-0.51,0.05-0.82,0.05c-3.69,0-6.3-2.64-6.3-6.04c0-3.56,2.92-6.2,6.84-6.2
		c3.89,0,6.84,2.61,6.84,6.14c0,1.66-0.62,3.19-1.73,4.84l-5.04,7.55h-4.24L408.45,295.02z M411.35,289c0-1.77-1.37-2.99-3.19-2.99
		c-1.83,0-3.19,1.22-3.19,2.99c0,1.75,1.35,2.99,3.19,2.99C409.98,291.99,411.35,290.76,411.35,289z"/>
	<path d="M422.85,289.48c0.25-0.03,0.53-0.05,0.84-0.05c3.69,0,6.3,2.64,6.3,6.05c0,3.56-2.94,6.2-6.85,6.2
		c-3.89,0-6.83-2.61-6.83-6.14c0-1.66,0.62-3.17,1.73-4.84l5.04-7.55h4.24L422.85,289.48z M419.98,295.5c0,1.77,1.37,2.99,3.17,2.99
		c1.83,0,3.2-1.22,3.2-2.99c0-1.75-1.37-2.99-3.2-2.99C421.35,292.51,419.98,293.75,419.98,295.5z"/>
	<path d="M448.09,281.02v2.41c2.18,0.21,3.83,0.87,5.42,1.83l-1.63,2.78c-1.07-0.65-2.35-1.2-3.79-1.42v4.15
		c3.18,0.49,5.65,1.9,5.59,4.86c-0.08,3.21-2.54,4.95-5.58,5.39v2.57h-2.88v-2.51c-2.3-0.2-4.62-0.94-6.2-2.18l1.78-2.76
		c1.04,0.79,2.63,1.52,4.41,1.77v-4.19l-0.14-0.03c-3.19-0.51-5.49-1.88-5.42-4.98c0.05-2.94,2.37-4.84,5.56-5.28v-2.43H448.09z
		 M445.2,290.28v-3.59c-1.21,0.29-1.96,0.94-1.99,1.87C443.2,289.47,443.93,289.95,445.2,290.28z M448.09,294.23v3.6
		c1.2-0.29,1.99-0.92,2.01-1.9C450.11,295.07,449.4,294.57,448.09,294.23z"/>
</g>
<g>
	<path d="M335.13,300.92c0,2.09-1.21,3.39-2.78,4.12c1.79,0.7,3.22,2,3.22,4.23c0,3.32-3.2,5.28-7.11,5.28s-7.11-1.96-7.11-5.28
		c0-2.22,1.42-3.52,3.21-4.23c-1.57-0.73-2.77-2.03-2.77-4.12c0-3.28,2.99-5.23,6.67-5.23S335.13,297.65,335.13,300.92z
		 M325.13,308.97c0,1.6,1.51,2.44,3.33,2.44c1.81,0,3.33-0.85,3.33-2.44c0-1.63-1.52-2.5-3.33-2.5
		C326.64,306.48,325.13,307.35,325.13,308.97z M325.52,301.2c0,1.56,1.31,2.39,2.94,2.39s2.94-0.83,2.94-2.39
		c0-1.51-1.31-2.33-2.94-2.33S325.52,299.69,325.52,301.2z"/>
	<path d="M349.65,299.29h-7.37l-0.08,3.64h2.09c4.24,0,6.37,2.43,6.37,5.47c0,3.91-2.96,6.15-6.64,6.15c-2.72,0-4.94-1.01-6.45-2.72
		l1.98-2.46c0.99,1.08,2.77,1.92,4.45,1.92c2.03,0,3.03-1.2,3.03-2.64c0-1.37-0.86-2.56-3.71-2.56h-4.33l0.2-10.08h10.46V299.29z"/>
	<path d="M369.08,293.89v2.41c2.18,0.21,3.83,0.87,5.42,1.83l-1.63,2.78c-1.07-0.65-2.35-1.2-3.79-1.42v4.15
		c3.18,0.49,5.65,1.9,5.59,4.86c-0.08,3.21-2.54,4.95-5.58,5.39v2.57h-2.88v-2.51c-2.3-0.2-4.62-0.94-6.2-2.18l1.78-2.76
		c1.04,0.79,2.63,1.52,4.41,1.77v-4.19l-0.14-0.03c-3.19-0.51-5.49-1.88-5.42-4.98c0.05-2.94,2.37-4.84,5.56-5.28v-2.43H369.08z
		 M366.19,303.15v-3.59c-1.21,0.29-1.96,0.94-1.99,1.87C364.19,302.34,364.92,302.82,366.19,303.15z M369.08,307.1v3.6
		c1.2-0.29,1.99-0.92,2.01-1.9C371.11,307.94,370.39,307.44,369.08,307.1z"/>
</g>
<g>
	<path d="M247.78,321.08c0.25-0.03,0.53-0.05,0.84-0.05c3.69,0,6.31,2.64,6.31,6.05c0,3.56-2.94,6.2-6.85,6.2
		c-3.89,0-6.83-2.61-6.83-6.14c0-1.66,0.62-3.17,1.73-4.84l5.04-7.55h4.24L247.78,321.08z M244.91,327.1c0,1.77,1.37,2.99,3.17,2.99
		c1.83,0,3.2-1.22,3.2-2.99c0-1.75-1.37-2.99-3.2-2.99C246.27,324.11,244.91,325.35,244.91,327.1z"/>
	<path d="M264.2,332.95h-3.51V319.4l-4.36,1.77v-3.54l7.87-3.17V332.95z"/>
	<path d="M283.56,312.62v2.41c2.18,0.21,3.84,0.87,5.42,1.83l-1.63,2.78c-1.07-0.65-2.35-1.2-3.8-1.42v4.15
		c3.19,0.49,5.66,1.9,5.59,4.86c-0.08,3.21-2.53,4.95-5.58,5.39v2.57h-2.89v-2.51c-2.3-0.2-4.62-0.94-6.2-2.18l1.78-2.76
		c1.04,0.79,2.63,1.52,4.41,1.77v-4.19l-0.14-0.03c-3.18-0.51-5.49-1.88-5.42-4.98c0.05-2.94,2.37-4.84,5.56-5.28v-2.43H283.56z
		 M280.67,321.88v-3.59c-1.21,0.29-1.96,0.94-1.99,1.87C278.67,321.07,279.4,321.55,280.67,321.88z M283.56,325.83v3.6
		c1.2-0.29,1.99-0.92,2.02-1.9C285.59,326.67,284.87,326.17,283.56,325.83z"/>
</g>
<g>
	<path d="M169.88,320.92h-7.37l-0.08,3.64h2.09c4.24,0,6.37,2.43,6.37,5.47c0,3.91-2.96,6.15-6.64,6.15c-2.72,0-4.94-1.01-6.45-2.72
		l1.98-2.46c0.99,1.08,2.77,1.92,4.45,1.92c2.03,0,3.03-1.2,3.03-2.64c0-1.37-0.86-2.56-3.71-2.56h-4.33l0.2-10.08h10.46V320.92z"/>
	<path d="M187.01,322.56c0,2.09-1.21,3.39-2.78,4.12c1.79,0.7,3.22,2,3.22,4.23c0,3.32-3.2,5.28-7.11,5.28
		c-3.91,0-7.11-1.96-7.11-5.28c0-2.22,1.42-3.52,3.21-4.23c-1.57-0.73-2.77-2.03-2.77-4.12c0-3.28,2.99-5.23,6.67-5.23
		C184.02,317.33,187.01,319.28,187.01,322.56z M177.01,330.6c0,1.6,1.51,2.44,3.33,2.44c1.81,0,3.33-0.85,3.33-2.44
		c0-1.63-1.52-2.5-3.33-2.5C178.52,328.11,177.01,328.98,177.01,330.6z M177.4,322.83c0,1.56,1.31,2.39,2.94,2.39
		s2.94-0.83,2.94-2.39c0-1.51-1.31-2.33-2.94-2.33S177.4,321.32,177.4,322.83z"/>
	<path d="M205.81,315.52v2.41c2.18,0.21,3.84,0.87,5.42,1.83l-1.63,2.78c-1.07-0.65-2.35-1.2-3.8-1.42v4.15
		c3.19,0.49,5.66,1.9,5.59,4.86c-0.08,3.21-2.53,4.95-5.58,5.39v2.57h-2.89v-2.51c-2.3-0.2-4.62-0.94-6.2-2.18l1.78-2.76
		c1.04,0.79,2.63,1.52,4.41,1.77v-4.19l-0.14-0.03c-3.18-0.51-5.49-1.88-5.42-4.98c0.05-2.94,2.37-4.84,5.56-5.28v-2.43H205.81z
		 M202.92,324.78v-3.59c-1.21,0.29-1.96,0.94-1.99,1.87C200.92,323.97,201.65,324.45,202.92,324.78z M205.81,328.73v3.6
		c1.2-0.29,1.99-0.92,2.02-1.9C207.84,329.58,207.12,329.07,205.81,328.73z"/>
</g>
<g>
	<path d="M82.53,315.27c0.25-0.03,0.53-0.05,0.85-0.05c3.69,0,6.3,2.64,6.3,6.05c0,3.56-2.94,6.2-6.85,6.2
		c-3.89,0-6.82-2.61-6.82-6.14c0-1.66,0.62-3.17,1.73-4.84l5.04-7.55h4.24L82.53,315.27z M79.66,321.29c0,1.77,1.37,2.99,3.17,2.99
		c1.83,0,3.2-1.22,3.2-2.99c0-1.75-1.37-2.99-3.2-2.99C81.02,318.3,79.66,319.53,79.66,321.29z"/>
	<path d="M105.46,313.84c0,2.09-1.21,3.39-2.78,4.12c1.79,0.7,3.22,2,3.22,4.23c0,3.32-3.2,5.28-7.11,5.28
		c-3.91,0-7.11-1.96-7.11-5.28c0-2.22,1.42-3.52,3.21-4.23c-1.57-0.73-2.77-2.03-2.77-4.12c0-3.28,2.99-5.23,6.67-5.23
		C102.47,308.61,105.46,310.56,105.46,313.84z M95.47,321.89c0,1.6,1.51,2.44,3.33,2.44c1.81,0,3.33-0.85,3.33-2.44
		c0-1.63-1.52-2.5-3.33-2.5C96.98,319.39,95.47,320.26,95.47,321.89z M95.86,314.11c0,1.56,1.31,2.39,2.94,2.39s2.94-0.83,2.94-2.39
		c0-1.51-1.31-2.33-2.94-2.33S95.86,312.6,95.86,314.11z"/>
	<path d="M124.26,306.8v2.41c2.18,0.21,3.83,0.87,5.42,1.83l-1.63,2.78c-1.07-0.65-2.35-1.2-3.79-1.42v4.15
		c3.18,0.49,5.65,1.9,5.59,4.86c-0.08,3.21-2.54,4.95-5.58,5.39v2.57h-2.88v-2.51c-2.3-0.2-4.62-0.94-6.2-2.18l1.78-2.76
		c1.04,0.79,2.63,1.52,4.41,1.77v-4.19l-0.14-0.03c-3.19-0.51-5.49-1.88-5.42-4.98c0.05-2.94,2.37-4.84,5.56-5.28v-2.43H124.26z
		 M121.38,316.06v-3.59c-1.21,0.29-1.96,0.94-1.99,1.87C119.37,315.25,120.1,315.74,121.38,316.06z M124.26,320.01v3.6
		c1.2-0.29,1.99-0.92,2.01-1.9C126.29,320.86,125.58,320.35,124.26,320.01z"/>
</g>
<g>
	<path d="M86.55,413.16c0.55-0.72,1.59-1.75,3.48-1.75c2.13,0,3.46,1.34,3.46,3.29c0,1.25-0.63,2.11-1.47,2.98l-2.18,2.26h3.89v1.84
		H87v-1.54l3.6-3.69c0.54-0.55,0.84-1.11,0.84-1.75c0-0.89-0.62-1.52-1.56-1.52c-0.97,0-1.54,0.52-2.07,1.12L86.55,413.16z"/>
	<path d="M103.79,416.68c0,3.3-1.97,5.28-4.4,5.28c-2.44,0-4.39-1.98-4.39-5.28s1.95-5.28,4.39-5.28
		C101.83,411.41,103.79,413.39,103.79,416.68z M97.05,416.68c0,2.23,1.04,3.39,2.34,3.39c1.31,0,2.34-1.17,2.34-3.39
		c0-2.23-1.03-3.39-2.34-3.39C98.09,413.29,97.05,414.46,97.05,416.68z"/>
	<path d="M109.34,421.78h-1.97v-7.58l-2.44,0.99v-1.98l4.4-1.78V421.78z"/>
	<path d="M120.07,416.68c0,3.3-1.97,5.28-4.4,5.28c-2.44,0-4.39-1.98-4.39-5.28s1.95-5.28,4.39-5.28
		C118.1,411.41,120.07,413.39,120.07,416.68z M113.33,416.68c0,2.23,1.04,3.39,2.34,3.39c1.31,0,2.34-1.17,2.34-3.39
		c0-2.23-1.03-3.39-2.34-3.39C114.37,413.29,113.33,414.46,113.33,416.68z"/>
</g>
<g>
	<path d="M170.34,413.16c0.55-0.72,1.59-1.75,3.48-1.75c2.13,0,3.46,1.34,3.46,3.29c0,1.25-0.63,2.11-1.47,2.98l-2.18,2.26h3.89
		v1.84h-6.73v-1.54l3.6-3.69c0.54-0.55,0.84-1.11,0.84-1.75c0-0.89-0.62-1.52-1.56-1.52c-0.97,0-1.54,0.52-2.07,1.12L170.34,413.16z
		"/>
	<path d="M187.58,416.68c0,3.3-1.97,5.28-4.4,5.28c-2.44,0-4.39-1.98-4.39-5.28s1.95-5.28,4.39-5.28
		C185.61,411.41,187.58,413.39,187.58,416.68z M180.84,416.68c0,2.23,1.04,3.39,2.34,3.39c1.31,0,2.34-1.17,2.34-3.39
		c0-2.23-1.03-3.39-2.34-3.39C181.88,413.29,180.84,414.46,180.84,416.68z"/>
	<path d="M193.13,421.78h-1.97v-7.58l-2.44,0.99v-1.98l4.4-1.78V421.78z"/>
	<path d="M199.1,421.78h-1.97v-7.58l-2.44,0.99v-1.98l4.4-1.78V421.78z"/>
</g>
<g>
	<path d="M250.86,413.16c0.55-0.72,1.59-1.75,3.48-1.75c2.13,0,3.46,1.34,3.46,3.29c0,1.25-0.63,2.11-1.47,2.98l-2.18,2.26h3.89
		v1.84h-6.73v-1.54l3.6-3.69c0.54-0.55,0.84-1.11,0.84-1.75c0-0.89-0.62-1.52-1.56-1.52c-0.97,0-1.54,0.52-2.07,1.12L250.86,413.16z
		"/>
	<path d="M268.11,416.68c0,3.3-1.97,5.28-4.4,5.28c-2.44,0-4.39-1.98-4.39-5.28s1.95-5.28,4.39-5.28
		C266.14,411.41,268.11,413.39,268.11,416.68z M261.37,416.68c0,2.23,1.04,3.39,2.34,3.39c1.31,0,2.34-1.17,2.34-3.39
		c0-2.23-1.03-3.39-2.34-3.39C262.41,413.29,261.37,414.46,261.37,416.68z"/>
	<path d="M273.65,421.78h-1.97v-7.58l-2.44,0.99v-1.98l4.4-1.78V421.78z"/>
	<path d="M275.33,413.16c0.55-0.72,1.59-1.75,3.48-1.75c2.13,0,3.46,1.34,3.46,3.29c0,1.25-0.63,2.11-1.47,2.98l-2.18,2.26h3.89
		v1.84h-6.73v-1.54l3.6-3.69c0.54-0.55,0.84-1.11,0.84-1.75c0-0.89-0.62-1.52-1.56-1.52c-0.97,0-1.54,0.52-2.07,1.12L275.33,413.16z
		"/>
</g>
<g>
	<path d="M332.43,413.16c0.55-0.72,1.59-1.75,3.48-1.75c2.13,0,3.46,1.34,3.46,3.29c0,1.25-0.63,2.11-1.47,2.98l-2.18,2.26h3.89
		v1.84h-6.73v-1.54l3.6-3.69c0.54-0.55,0.84-1.11,0.84-1.75c0-0.89-0.62-1.52-1.56-1.52c-0.97,0-1.54,0.52-2.07,1.12L332.43,413.16z
		"/>
	<path d="M349.68,416.68c0,3.3-1.97,5.28-4.4,5.28c-2.44,0-4.39-1.98-4.39-5.28s1.95-5.28,4.39-5.28
		C347.71,411.41,349.68,413.39,349.68,416.68z M342.94,416.68c0,2.23,1.04,3.39,2.34,3.39c1.31,0,2.34-1.17,2.34-3.39
		c0-2.23-1.03-3.39-2.34-3.39C343.98,413.29,342.94,414.46,342.94,416.68z"/>
	<path d="M355.22,421.78h-1.97v-7.58l-2.44,0.99v-1.98l4.4-1.78V421.78z"/>
	<path d="M363.88,414.33c0,1.08-0.58,1.87-1.52,2.32c1.07,0.42,1.75,1.24,1.75,2.34c0,2.01-1.83,2.98-3.76,2.98
		c-1.53,0-2.79-0.55-3.56-1.48l1.17-1.29c0.59,0.62,1.44,0.98,2.31,0.98c0.99,0,1.78-0.43,1.78-1.33c0-0.87-0.9-1.33-2-1.33h-1.19
		v-1.75h1.19c0.99,0,1.78-0.44,1.78-1.3c0-0.82-0.74-1.27-1.69-1.27s-1.65,0.49-2.06,1.03l-1.24-1.24c0.67-0.9,1.78-1.58,3.4-1.58
		C362.42,411.41,363.88,412.57,363.88,414.33z"/>
</g>
<g>
	<path d="M413.98,413.16c0.55-0.72,1.59-1.75,3.48-1.75c2.13,0,3.46,1.34,3.46,3.29c0,1.25-0.63,2.11-1.47,2.98l-2.18,2.26h3.89
		v1.84h-6.73v-1.54l3.6-3.69c0.54-0.55,0.84-1.11,0.84-1.75c0-0.89-0.62-1.52-1.56-1.52c-0.97,0-1.54,0.52-2.07,1.12L413.98,413.16z
		"/>
	<path d="M431.23,416.68c0,3.3-1.97,5.28-4.4,5.28c-2.44,0-4.39-1.98-4.39-5.28s1.95-5.28,4.39-5.28
		C429.26,411.41,431.23,413.39,431.23,416.68z M424.49,416.68c0,2.23,1.04,3.39,2.34,3.39c1.31,0,2.34-1.17,2.34-3.39
		c0-2.23-1.03-3.39-2.34-3.39C425.53,413.29,424.49,414.46,424.49,416.68z"/>
	<path d="M436.77,421.78h-1.97v-7.58l-2.44,0.99v-1.98l4.4-1.78V421.78z"/>
	<path d="M444.75,418.08h1.42v1.83h-1.42v1.86h-1.96v-1.86h-4.52v-1.43l3.57-6.89h2.18l-3.41,6.49h2.17v-2.71h1.96V418.08z"/>
</g>
<g>
	<path d="M495.63,413.16c0.55-0.72,1.59-1.75,3.48-1.75c2.13,0,3.46,1.34,3.46,3.29c0,1.25-0.63,2.11-1.47,2.98l-2.18,2.26h3.89
		v1.84h-6.73v-1.54l3.6-3.69c0.54-0.55,0.84-1.11,0.84-1.75c0-0.89-0.62-1.52-1.56-1.52c-0.97,0-1.54,0.52-2.07,1.12L495.63,413.16z
		"/>
	<path d="M512.87,416.68c0,3.3-1.97,5.28-4.4,5.28c-2.44,0-4.39-1.98-4.39-5.28s1.95-5.28,4.39-5.28
		C510.9,411.41,512.87,413.39,512.87,416.68z M506.13,416.68c0,2.23,1.04,3.39,2.34,3.39c1.31,0,2.34-1.17,2.34-3.39
		c0-2.23-1.03-3.39-2.34-3.39C507.17,413.29,506.13,414.46,506.13,416.68z"/>
	<path d="M518.42,421.78h-1.97v-7.58l-2.44,0.99v-1.98l4.4-1.78V421.78z"/>
	<path d="M526.86,413.42h-4.13l-0.04,2.04h1.17c2.37,0,3.57,1.36,3.57,3.06c0,2.19-1.66,3.44-3.72,3.44c-1.52,0-2.77-0.57-3.61-1.52
		l1.11-1.38c0.55,0.6,1.55,1.08,2.49,1.08c1.14,0,1.7-0.67,1.7-1.48c0-0.76-0.48-1.43-2.07-1.43h-2.42l0.11-5.64h5.86V413.42z"/>
</g>
<g>
	<path d="M577.21,413.16c0.55-0.72,1.59-1.75,3.48-1.75c2.13,0,3.46,1.34,3.46,3.29c0,1.25-0.63,2.11-1.47,2.98l-2.18,2.26h3.89
		v1.84h-6.73v-1.54l3.6-3.69c0.54-0.55,0.84-1.11,0.84-1.75c0-0.89-0.62-1.52-1.56-1.52c-0.97,0-1.54,0.52-2.07,1.12L577.21,413.16z
		"/>
	<path d="M594.46,416.68c0,3.3-1.97,5.28-4.4,5.28c-2.44,0-4.39-1.98-4.39-5.28s1.95-5.28,4.39-5.28
		C592.49,411.41,594.46,413.39,594.46,416.68z M587.72,416.68c0,2.23,1.04,3.39,2.34,3.39c1.31,0,2.34-1.17,2.34-3.39
		c0-2.23-1.04-3.39-2.34-3.39C588.76,413.29,587.72,414.46,587.72,416.68z"/>
	<path d="M600,421.78h-1.96v-7.58l-2.44,0.99v-1.98l4.4-1.78V421.78z"/>
	<path d="M605.3,415.13c0.14-0.01,0.3-0.03,0.47-0.03c2.07,0,3.53,1.48,3.53,3.38c0,1.99-1.64,3.47-3.84,3.47
		c-2.18,0-3.82-1.46-3.82-3.44c0-0.93,0.35-1.78,0.97-2.71l2.82-4.23h2.37L605.3,415.13z M603.69,418.5c0,0.99,0.76,1.67,1.78,1.67
		c1.03,0,1.79-0.68,1.79-1.67c0-0.98-0.76-1.67-1.79-1.67C604.45,416.83,603.69,417.52,603.69,418.5z"/>
</g>
<g>
	<path d="M659.14,413.16c0.55-0.72,1.59-1.75,3.48-1.75c2.13,0,3.46,1.34,3.46,3.29c0,1.25-0.63,2.11-1.47,2.98l-2.18,2.26h3.89
		v1.84h-6.73v-1.54l3.6-3.69c0.54-0.55,0.84-1.11,0.84-1.75c0-0.89-0.62-1.52-1.56-1.52c-0.97,0-1.54,0.52-2.07,1.12L659.14,413.16z
		"/>
	<path d="M676.38,416.68c0,3.3-1.96,5.28-4.4,5.28c-2.44,0-4.39-1.98-4.39-5.28s1.95-5.28,4.39-5.28
		C674.42,411.41,676.38,413.39,676.38,416.68z M669.64,416.68c0,2.23,1.04,3.39,2.34,3.39c1.31,0,2.34-1.17,2.34-3.39
		c0-2.23-1.03-3.39-2.34-3.39C670.68,413.29,669.64,414.46,669.64,416.68z"/>
	<path d="M681.93,421.78h-1.97v-7.58l-2.44,0.99v-1.98l4.4-1.78V421.78z"/>
	<path d="M690.76,413.13l-4.22,8.65h-2.31l4.19-8.36h-4.84v-1.83h7.18V413.13z"/>
</g>
<g>
	<path d="M740.16,413.16c0.55-0.72,1.59-1.75,3.48-1.75c2.13,0,3.46,1.34,3.46,3.29c0,1.25-0.63,2.11-1.47,2.98l-2.18,2.26h3.89
		v1.84h-6.73v-1.54l3.6-3.69c0.54-0.55,0.84-1.11,0.84-1.75c0-0.89-0.62-1.52-1.56-1.52c-0.97,0-1.54,0.52-2.07,1.12L740.16,413.16z
		"/>
	<path d="M757.4,416.68c0,3.3-1.96,5.28-4.4,5.28c-2.44,0-4.39-1.98-4.39-5.28s1.95-5.28,4.39-5.28
		C755.44,411.41,757.4,413.39,757.4,416.68z M750.66,416.68c0,2.23,1.04,3.39,2.34,3.39c1.31,0,2.34-1.17,2.34-3.39
		c0-2.23-1.03-3.39-2.34-3.39C751.7,413.29,750.66,414.46,750.66,416.68z"/>
	<path d="M762.95,421.78h-1.97v-7.58l-2.44,0.99v-1.98l4.4-1.78V421.78z"/>
	<path d="M772.5,414.33c0,1.17-0.68,1.9-1.56,2.31c1,0.39,1.8,1.12,1.8,2.37c0,1.86-1.79,2.96-3.98,2.96c-2.19,0-3.98-1.1-3.98-2.96
		c0-1.24,0.79-1.97,1.8-2.37c-0.88-0.41-1.55-1.14-1.55-2.31c0-1.83,1.67-2.93,3.73-2.93C770.82,411.41,772.5,412.5,772.5,414.33z
		 M766.9,418.84c0,0.9,0.84,1.37,1.86,1.37c1.01,0,1.86-0.47,1.86-1.37c0-0.91-0.85-1.4-1.86-1.4
		C767.75,417.44,766.9,417.93,766.9,418.84z M767.12,414.49c0,0.87,0.74,1.34,1.65,1.34c0.91,0,1.64-0.47,1.64-1.34
		c0-0.84-0.74-1.3-1.64-1.3C767.85,413.18,767.12,413.64,767.12,414.49z"/>
</g>
<g>
	<path d="M822.12,413.16c0.55-0.72,1.59-1.75,3.48-1.75c2.13,0,3.46,1.34,3.46,3.29c0,1.25-0.63,2.11-1.47,2.98l-2.18,2.26h3.89
		v1.84h-6.73v-1.54l3.6-3.69c0.54-0.55,0.84-1.11,0.84-1.75c0-0.89-0.62-1.52-1.56-1.52c-0.97,0-1.54,0.52-2.07,1.12L822.12,413.16z
		"/>
	<path d="M839.36,416.68c0,3.3-1.96,5.28-4.4,5.28c-2.44,0-4.39-1.98-4.39-5.28s1.95-5.28,4.39-5.28
		C837.4,411.41,839.36,413.39,839.36,416.68z M832.62,416.68c0,2.23,1.04,3.39,2.34,3.39c1.31,0,2.34-1.17,2.34-3.39
		c0-2.23-1.03-3.39-2.34-3.39C833.67,413.29,832.62,414.46,832.62,416.68z"/>
	<path d="M844.91,421.78h-1.97v-7.58l-2.44,0.99v-1.98l4.4-1.78V421.78z"/>
	<path d="M850.57,418.23c-0.14,0.02-0.28,0.03-0.46,0.03c-2.07,0-3.53-1.48-3.53-3.38c0-1.99,1.64-3.47,3.83-3.47
		c2.18,0,3.83,1.46,3.83,3.44c0,0.93-0.35,1.78-0.97,2.71l-2.82,4.23h-2.37L850.57,418.23z M852.19,414.87
		c0-0.99-0.76-1.67-1.78-1.67c-1.03,0-1.78,0.68-1.78,1.67c0,0.98,0.76,1.67,1.78,1.67C851.43,416.54,852.19,415.85,852.19,414.87z"
		/>
</g>
<g>
	<path d="M893.83,413.69l-1.75,1.07c-0.58-0.88-1.5-1.41-2.63-1.41c-1.85,0-3.22,1.35-3.22,3.33c0.01,2.04,1.42,3.33,3.22,3.33
		c1.13,0,2.04-0.51,2.66-1.4l1.66,1.19c-0.9,1.32-2.44,2.15-4.3,2.15c-3.14,0-5.35-2.22-5.35-5.28s2.21-5.28,5.35-5.28
		C891.35,411.4,893,412.26,893.83,413.69z"/>
	<path d="M899.79,411.59c3.19,0,5.29,2.02,5.29,5.09s-2.1,5.09-5.29,5.09h-4.2v-10.19H899.79z M897.62,413.49v6.39h2.15
		c2.15,0,3.19-1.35,3.19-3.2c0-1.87-1.04-3.2-3.19-3.2H897.62z"/>
	<path d="M915.85,421.78h-2.17l-0.89-2.37h-4.34l-0.89,2.37h-2.12l3.96-10.19h2.48L915.85,421.78z M909.15,417.54h2.95l-1.47-3.94
		L909.15,417.54z"/>
	<path d="M919.9,413.16c0.55-0.72,1.59-1.75,3.48-1.75c2.13,0,3.46,1.34,3.46,3.29c0,1.25-0.63,2.11-1.47,2.98l-2.18,2.26h3.89v1.84
		h-6.73v-1.54l3.6-3.69c0.54-0.55,0.84-1.11,0.84-1.75c0-0.89-0.62-1.52-1.56-1.52c-0.97,0-1.54,0.52-2.07,1.12L919.9,413.16z"/>
	<path d="M937.14,416.68c0,3.3-1.97,5.28-4.4,5.28c-2.44,0-4.39-1.98-4.39-5.28s1.95-5.28,4.39-5.28
		C935.17,411.41,937.14,413.39,937.14,416.68z M930.4,416.68c0,2.23,1.04,3.39,2.34,3.39c1.31,0,2.34-1.17,2.34-3.39
		c0-2.23-1.04-3.39-2.34-3.39C931.44,413.29,930.4,414.46,930.4,416.68z"/>
	<path d="M938.17,413.16c0.55-0.72,1.59-1.75,3.48-1.75c2.13,0,3.46,1.34,3.46,3.29c0,1.25-0.63,2.11-1.47,2.98l-2.18,2.26h3.89
		v1.84h-6.73v-1.54l3.6-3.69c0.54-0.55,0.84-1.11,0.84-1.75c0-0.89-0.62-1.52-1.56-1.52c-0.97,0-1.54,0.52-2.07,1.12L938.17,413.16z
		"/>
	<path d="M955.41,416.68c0,3.3-1.96,5.28-4.4,5.28c-2.44,0-4.39-1.98-4.39-5.28s1.95-5.28,4.39-5.28
		C953.44,411.41,955.41,413.39,955.41,416.68z M948.67,416.68c0,2.23,1.04,3.39,2.34,3.39c1.31,0,2.34-1.17,2.34-3.39
		c0-2.23-1.03-3.39-2.34-3.39C949.71,413.29,948.67,414.46,948.67,416.68z"/>
</g>
</svg>
