<?xml version="1.0" encoding="utf-8"?>
<!-- Generator: Adobe Illustrator 25.0.1, SVG Export Plug-In . SVG Version: 6.00 Build 0)  -->
<svg version="1.1" id="Layer_1" xmlns="http://www.w3.org/2000/svg" xmlns:xlink="http://www.w3.org/1999/xlink" x="0px" y="0px"
	 viewBox="0 0 1000 432.3" style="enable-background:new 0 0 1000 432.3;" xml:space="preserve">
<style type="text/css">
	.st0{fill:none;stroke:#000000;stroke-miterlimit:10;}
	.st1{fill:#DFDFDF;stroke:#000000;stroke-width:0.5;stroke-miterlimit:10;}
	.st2{stroke:#000000;stroke-width:0.5;stroke-miterlimit:10;}
	.st3{fill:#F47E20;}
	.st4{fill:#00A9A6;}
	.st5{fill:#DFDFDF;}
</style>
<g>
	<path d="M93.15,113.84c4.07,0,6.68,2.47,6.68,6.3s-2.61,6.3-6.68,6.3h-4.81v-12.6H93.15z M89.93,115.34v9.6h3.22
		c3.3,0,5.01-1.94,5.01-4.8c0-2.87-1.71-4.8-5.01-4.8H89.93z"/>
	<path d="M110.11,122.14c0,0.19-0.02,0.39-0.03,0.55h-6.73c0.21,1.77,1.44,2.65,2.91,2.65c1,0,1.91-0.39,2.64-1.02l0.78,1.01
		c-1.06,0.99-2.25,1.3-3.51,1.3c-2.54,0-4.34-1.79-4.34-4.46c0-2.63,1.79-4.46,4.25-4.46C108.41,117.71,110.09,119.52,110.11,122.14
		z M103.37,121.5h5.23c-0.18-1.51-1.16-2.48-2.55-2.48C104.54,119.02,103.6,120.04,103.37,121.5z"/>
	<path d="M119.21,119.04v-5.56h1.48v12.96h-1.48v-1.14c-0.68,0.8-1.68,1.32-3.02,1.32c-2.4,0-4.28-1.87-4.28-4.46
		s1.87-4.46,4.28-4.46C117.54,117.71,118.54,118.23,119.21,119.04z M113.43,122.17c0,1.7,1.19,3.08,2.94,3.08
		c1.73,0,2.94-1.32,2.94-3.08c0-1.75-1.21-3.07-2.94-3.07C114.59,119.1,113.43,120.47,113.43,122.17z"/>
	<path d="M125.58,114.88c0,0.58-0.47,1.03-1.05,1.03s-1.04-0.44-1.04-1.03c0-0.59,0.45-1.05,1.04-1.05S125.58,114.29,125.58,114.88z
		 M125.27,126.44h-1.47v-8.55h1.47V126.44z"/>
	<path d="M135.35,119.06l-0.95,1c-0.63-0.61-1.36-0.96-2.27-0.96c-1.65,0-2.9,1.28-2.9,3.07c0,1.79,1.25,3.08,2.9,3.08
		c0.91,0,1.71-0.41,2.3-0.98l0.91,1.02c-0.77,0.87-1.91,1.34-3.18,1.34c-2.65,0-4.44-1.92-4.44-4.46s1.79-4.46,4.44-4.46
		C133.44,117.71,134.59,118.18,135.35,119.06z"/>
	<path d="M145.57,126.44h-1.48v-1.14c-0.67,0.8-1.67,1.32-3.02,1.32c-2.4,0-4.28-1.87-4.28-4.46s1.87-4.46,4.28-4.46
		c1.34,0,2.34,0.52,3.02,1.33v-1.15h1.48V126.44z M138.31,122.17c0,1.7,1.19,3.08,2.94,3.08c1.73,0,2.93-1.32,2.93-3.08
		c0-1.75-1.21-3.07-2.93-3.07C139.47,119.1,138.31,120.47,138.31,122.17z"/>
	<path d="M154.49,119.23h-3.59v4.17c0,1.29,0.69,1.85,1.61,1.85c0.63,0,1.26-0.24,1.75-0.58l0.69,1.11
		c-0.66,0.48-1.51,0.85-2.57,0.85c-1.86,0-2.96-1.02-2.96-3.2v-4.2h-1.83v-1.34h1.83v-2.68h1.48v2.68h3.59V119.23z"/>
	<path d="M164.46,122.14c0,0.19-0.02,0.39-0.03,0.55h-6.72c0.21,1.77,1.44,2.65,2.91,2.65c1,0,1.91-0.39,2.64-1.02l0.78,1.01
		c-1.06,0.99-2.25,1.3-3.51,1.3c-2.54,0-4.34-1.79-4.34-4.46c0-2.63,1.79-4.46,4.25-4.46C162.76,117.71,164.44,119.52,164.46,122.14
		z M157.72,121.5h5.23c-0.18-1.51-1.16-2.48-2.55-2.48C158.89,119.02,157.95,120.04,157.72,121.5z"/>
	<path d="M173.56,119.04v-5.56h1.48v12.96h-1.48v-1.14c-0.68,0.8-1.67,1.32-3.02,1.32c-2.4,0-4.28-1.87-4.28-4.46
		s1.87-4.46,4.28-4.46C171.89,117.71,172.89,118.23,173.56,119.04z M167.78,122.17c0,1.7,1.19,3.08,2.94,3.08
		c1.73,0,2.94-1.32,2.94-3.08c0-1.75-1.21-3.07-2.94-3.07C168.94,119.1,167.78,120.47,167.78,122.17z"/>
	<path d="M191.43,116.32c-1.03-0.69-2.28-1.16-3.74-1.16c-1.85,0-3.16,0.83-3.16,2.19c0,1.14,0.96,1.73,2.85,1.96l1.11,0.13
		c2.13,0.26,3.96,1.13,3.96,3.35c0,2.51-2.28,3.83-5,3.83c-1.79,0-3.75-0.62-4.97-1.64l0.87-1.26c0.87,0.76,2.5,1.4,4.11,1.4
		c1.88,0,3.36-0.77,3.36-2.19c0-1.17-1.05-1.73-3.02-1.97l-1.17-0.14c-2.08-0.25-3.74-1.21-3.74-3.37c0-2.43,2.16-3.79,4.82-3.79
		c1.9,0,3.35,0.56,4.54,1.38L191.43,116.32z"/>
	<path d="M202.8,122.86c0,2.58-1.85,3.76-3.9,3.76c-2.06,0-3.91-1.18-3.91-3.76v-4.97h1.48v4.83c0,1.75,1.04,2.52,2.43,2.52
		c1.39,0,2.42-0.77,2.42-2.52v-4.83h1.48V122.86z"/>
	<path d="M211.59,119.79c-0.54-0.37-1.63-0.79-2.75-0.79c-1.17,0-1.93,0.5-1.93,1.27c0,0.68,0.62,1,1.66,1.13l0.99,0.13
		c1.82,0.24,2.89,1.01,2.89,2.42c0,1.63-1.46,2.68-3.79,2.68c-1.05,0-2.48-0.25-3.6-1.1l0.68-1.1c0.64,0.5,1.49,0.91,2.93,0.91
		c1.4,0,2.27-0.46,2.27-1.31c0-0.63-0.56-1.03-1.72-1.17l-0.99-0.12c-1.92-0.23-2.84-1.1-2.84-2.39c0-1.64,1.36-2.63,3.44-2.63
		c1.35,0,2.58,0.36,3.41,0.93L211.59,119.79z"/>
	<path d="M220.58,119.23h-3.59v4.17c0,1.29,0.68,1.85,1.61,1.85c0.63,0,1.26-0.24,1.75-0.58l0.69,1.11
		c-0.66,0.48-1.51,0.85-2.57,0.85c-1.85,0-2.96-1.02-2.96-3.2v-4.2h-1.83v-1.34h1.83v-2.68h1.48v2.68h3.59V119.23z"/>
	<path d="M231.04,126.44h-1.48v-1.14c-0.67,0.8-1.67,1.32-3.02,1.32c-2.4,0-4.28-1.87-4.28-4.46s1.87-4.46,4.28-4.46
		c1.34,0,2.34,0.52,3.02,1.33v-1.15h1.48V126.44z M223.77,122.17c0,1.7,1.19,3.08,2.94,3.08c1.73,0,2.93-1.32,2.93-3.08
		c0-1.75-1.21-3.07-2.93-3.07C224.93,119.1,223.77,120.47,223.77,122.17z"/>
	<path d="M235.92,114.88c0,0.58-0.47,1.03-1.05,1.03c-0.58,0-1.04-0.44-1.04-1.03c0-0.59,0.45-1.05,1.04-1.05
		C235.46,113.83,235.92,114.29,235.92,114.88z M235.62,126.44h-1.47v-8.55h1.47V126.44z"/>
	<path d="M246.55,121.13v5.31h-1.48v-4.83c0-1.58-0.86-2.5-2.35-2.5c-1.38,0-2.53,0.95-2.53,2.54v4.8h-1.47v-8.55h1.46v1.12
		c0.7-0.96,1.81-1.3,2.8-1.3C245.1,117.71,246.55,119.08,246.55,121.13z"/>
	<path d="M257.7,126.44h-1.48v-1.14c-0.67,0.8-1.67,1.32-3.02,1.32c-2.4,0-4.28-1.87-4.28-4.46s1.87-4.46,4.28-4.46
		c1.34,0,2.34,0.52,3.02,1.33v-1.15h1.48V126.44z M250.43,122.17c0,1.7,1.19,3.08,2.94,3.08c1.73,0,2.93-1.32,2.93-3.08
		c0-1.75-1.21-3.07-2.93-3.07C251.59,119.1,250.43,120.47,250.43,122.17z"/>
	<path d="M269.57,122.17c0,2.58-1.88,4.46-4.28,4.46c-1.35,0-2.35-0.52-3.02-1.32v1.14h-1.47v-12.96h1.47v5.55
		c0.67-0.8,1.67-1.32,3.02-1.32C267.69,117.71,269.57,119.58,269.57,122.17z M262.18,122.17c0,1.76,1.21,3.08,2.93,3.08
		c1.77,0,2.94-1.38,2.94-3.08s-1.19-3.07-2.94-3.07C263.39,119.1,262.18,120.42,262.18,122.17z"/>
	<path d="M273.5,126.44h-1.47v-12.96h1.47V126.44z"/>
	<path d="M284.24,122.14c0,0.19-0.02,0.39-0.03,0.55h-6.72c0.21,1.77,1.44,2.65,2.91,2.65c1,0,1.91-0.39,2.64-1.02l0.78,1.01
		c-1.06,0.99-2.25,1.3-3.51,1.3c-2.54,0-4.34-1.79-4.34-4.46c0-2.63,1.79-4.46,4.25-4.46C282.54,117.71,284.22,119.52,284.24,122.14
		z M277.5,121.5h5.23c-0.18-1.51-1.16-2.48-2.55-2.48C278.67,119.02,277.73,120.04,277.5,121.5z"/>
	<path d="M300.7,126.44h-8.95v-12.6h8.86v1.49h-7.28v4.02h7.04v1.49h-7.04v4.11h7.37V126.44z"/>
	<path d="M310.25,119.04v-1.15h1.48v12.15h-1.48v-4.74c-0.67,0.8-1.67,1.32-3.02,1.32c-2.4,0-4.28-1.87-4.28-4.46
		s1.87-4.46,4.28-4.46C308.57,117.71,309.57,118.23,310.25,119.04z M304.46,122.17c0,1.7,1.19,3.08,2.94,3.08
		c1.73,0,2.93-1.32,2.93-3.08c0-1.75-1.21-3.07-2.93-3.07C305.62,119.1,304.46,120.47,304.46,122.17z"/>
	<path d="M322.55,122.86c0,2.58-1.86,3.76-3.9,3.76c-2.06,0-3.91-1.18-3.91-3.76v-4.97h1.48v4.83c0,1.75,1.04,2.52,2.43,2.52
		c1.39,0,2.42-0.77,2.42-2.52v-4.83h1.48V122.86z"/>
	<path d="M327.34,114.88c0,0.58-0.47,1.03-1.05,1.03c-0.59,0-1.04-0.44-1.04-1.03c0-0.59,0.45-1.05,1.04-1.05
		C326.88,113.83,327.34,114.29,327.34,114.88z M327.04,126.44h-1.47v-8.55h1.47V126.44z"/>
	<path d="M335.96,119.23h-3.59v4.17c0,1.29,0.68,1.85,1.61,1.85c0.63,0,1.26-0.24,1.75-0.58l0.69,1.11
		c-0.66,0.48-1.51,0.85-2.56,0.85c-1.86,0-2.96-1.02-2.96-3.2v-4.2h-1.83v-1.34h1.83v-2.68h1.48v2.68h3.59V119.23z"/>
	<path d="M339.48,130.09h-1.63l3.16-5.47l-3.9-6.73h1.65l3.08,5.26l2.93-5.26h1.62L339.48,130.09z"/>
	<path d="M361.15,120.84h-6.85v5.6h-1.58v-12.6h8.8v1.5h-7.21v4.01h6.85V120.84z"/>
	<path d="M371.59,122.86c0,2.58-1.85,3.76-3.9,3.76c-2.06,0-3.91-1.18-3.91-3.76v-4.97h1.48v4.83c0,1.75,1.04,2.52,2.43,2.52
		c1.39,0,2.42-0.77,2.42-2.52v-4.83h1.48V122.86z"/>
	<path d="M382.43,121.13v5.31h-1.48v-4.83c0-1.58-0.86-2.5-2.35-2.5c-1.38,0-2.53,0.95-2.53,2.54v4.8h-1.47v-8.55h1.46v1.12
		c0.7-0.96,1.81-1.3,2.8-1.3C380.97,117.71,382.43,119.08,382.43,121.13z"/>
	<path d="M392.1,119.04v-5.56h1.48v12.96h-1.48v-1.14c-0.68,0.8-1.68,1.32-3.02,1.32c-2.4,0-4.28-1.87-4.28-4.46
		s1.87-4.46,4.28-4.46C390.42,117.71,391.42,118.23,392.1,119.04z M386.31,122.17c0,1.7,1.19,3.08,2.94,3.08
		c1.73,0,2.94-1.32,2.94-3.08c0-1.75-1.21-3.07-2.94-3.07C387.47,119.1,386.31,120.47,386.31,122.17z"/>
	<path d="M402.45,119.79c-0.54-0.37-1.63-0.79-2.76-0.79c-1.17,0-1.93,0.5-1.93,1.27c0,0.68,0.62,1,1.66,1.13l0.99,0.13
		c1.82,0.24,2.89,1.01,2.89,2.42c0,1.63-1.46,2.68-3.79,2.68c-1.05,0-2.48-0.25-3.6-1.1l0.68-1.1c0.64,0.5,1.5,0.91,2.93,0.91
		c1.4,0,2.27-0.46,2.27-1.31c0-0.63-0.56-1.03-1.72-1.17l-0.99-0.12c-1.92-0.23-2.85-1.1-2.85-2.39c0-1.64,1.36-2.63,3.44-2.63
		c1.35,0,2.58,0.36,3.41,0.93L402.45,119.79z"/>
	<path d="M97.09,139.34H92.8v11.1h-1.58v-11.1h-4.3v-1.5h10.18V139.34z"/>
	<path d="M105.96,146.17c0,2.54-1.94,4.46-4.53,4.46c-2.59,0-4.52-1.92-4.52-4.46s1.93-4.46,4.52-4.46
		C104.02,141.71,105.96,143.63,105.96,146.17z M98.41,146.17c0,1.79,1.3,3.08,3.02,3.08c1.71,0,3.02-1.29,3.02-3.08
		c0-1.79-1.3-3.07-3.02-3.07C99.71,143.1,98.41,144.38,98.41,146.17z"/>
	<path d="M114.14,143.23h-3.59v4.17c0,1.29,0.68,1.85,1.61,1.85c0.63,0,1.26-0.24,1.75-0.58l0.69,1.11
		c-0.66,0.48-1.51,0.85-2.57,0.85c-1.85,0-2.96-1.02-2.96-3.2v-4.2h-1.83v-1.34h1.83v-2.68h1.48v2.68h3.59V143.23z"/>
	<path d="M124.6,150.44h-1.48v-1.14c-0.68,0.8-1.67,1.32-3.02,1.32c-2.4,0-4.28-1.87-4.28-4.46s1.87-4.46,4.28-4.46
		c1.34,0,2.34,0.52,3.02,1.33v-1.15h1.48V150.44z M117.33,146.17c0,1.7,1.19,3.08,2.94,3.08c1.73,0,2.94-1.32,2.94-3.08
		c0-1.75-1.21-3.07-2.94-3.07C118.49,143.1,117.33,144.47,117.33,146.17z"/>
	<path d="M129.18,150.44h-1.47v-12.96h1.47V150.44z"/>
	<path d="M147.82,150.44h-1.7l-1.39-3.44h-6.11l-1.38,3.44h-1.65l5.12-12.6h1.97L147.82,150.44z M139.22,145.5h4.91l-2.45-6.09
		L139.22,145.5z"/>
	<path d="M159.93,145.5c0,3.44-2.32,5.12-5.23,5.12c-2.91,0-5.23-1.68-5.23-5.12v-7.66h1.58v7.54c0,2.58,1.54,3.72,3.65,3.72
		c2.11,0,3.64-1.13,3.64-3.72v-7.54h1.59V145.5z"/>
	<path d="M176.63,150.44h-1.58V139.6l-4.22,9.49h-1.67l-4.22-9.42v10.78h-1.58v-12.61h2.42l4.22,9.41l4.22-9.41h2.42V150.44z"/>
	<path d="M193.19,146.17c0,2.54-1.94,4.46-4.53,4.46s-4.52-1.92-4.52-4.46s1.93-4.46,4.52-4.46S193.19,143.63,193.19,146.17z
		 M185.65,146.17c0,1.79,1.3,3.08,3.02,3.08c1.71,0,3.02-1.29,3.02-3.08c0-1.79-1.3-3.07-3.02-3.07
		C186.95,143.1,185.65,144.38,185.65,146.17z"/>
	<path d="M201.14,143.23h-3.29v7.21h-1.48v-7.21h-1.9v-1.34h1.9v-1.46c0-1.79,0.83-3.13,2.84-3.13c0.97,0,1.74,0.27,2.35,0.64
		l-0.53,1.23c-0.45-0.27-1.09-0.5-1.72-0.5c-1.02,0-1.47,0.65-1.47,1.76v1.46h3.29V143.23z"/>
	<path d="M218.73,150.44h-1.7l-1.39-3.44h-6.11l-1.38,3.44h-1.65l5.12-12.6h1.97L218.73,150.44z M210.13,145.5h4.91l-2.45-6.09
		L210.13,145.5z"/>
	<path d="M227.49,143.06l-0.95,1c-0.63-0.61-1.36-0.96-2.27-0.96c-1.65,0-2.9,1.28-2.9,3.07c0,1.79,1.25,3.08,2.9,3.08
		c0.91,0,1.71-0.41,2.3-0.98l0.91,1.02c-0.77,0.87-1.91,1.34-3.18,1.34c-2.65,0-4.44-1.92-4.44-4.46s1.79-4.46,4.44-4.46
		C225.58,141.71,226.73,142.18,227.49,143.06z"/>
	<path d="M235.67,143.23h-3.59v4.17c0,1.29,0.69,1.85,1.61,1.85c0.63,0,1.26-0.24,1.75-0.58l0.69,1.11
		c-0.66,0.48-1.51,0.85-2.57,0.85c-1.86,0-2.96-1.02-2.96-3.2v-4.2h-1.83v-1.34h1.83v-2.68h1.48v2.68h3.59V143.23z"/>
	<path d="M239.8,138.88c0,0.58-0.47,1.03-1.05,1.03s-1.04-0.44-1.04-1.03c0-0.59,0.45-1.05,1.04-1.05S239.8,138.29,239.8,138.88z
		 M239.5,150.44h-1.47v-8.55h1.47V150.44z"/>
	<path d="M246.63,150.45h-1.73l-3.6-8.56h1.6l2.87,7.07l2.88-7.07h1.56L246.63,150.45z"/>
	<path d="M259.54,146.14c0,0.19-0.02,0.39-0.03,0.55h-6.72c0.21,1.77,1.44,2.65,2.91,2.65c1,0,1.91-0.39,2.64-1.02l0.78,1.01
		c-1.06,0.99-2.25,1.3-3.51,1.3c-2.54,0-4.34-1.79-4.34-4.46c0-2.63,1.79-4.46,4.25-4.46C257.85,141.71,259.52,143.52,259.54,146.14
		z M252.81,145.5h5.23c-0.18-1.51-1.16-2.48-2.55-2.48C253.98,143.02,253.03,144.04,252.81,145.5z"/>
	<path d="M274.94,150.44h-1.48v-1.14c-0.67,0.8-1.67,1.32-3.02,1.32c-2.4,0-4.28-1.87-4.28-4.46s1.87-4.46,4.28-4.46
		c1.34,0,2.34,0.52,3.02,1.33v-1.15h1.48V150.44z M267.67,146.17c0,1.7,1.19,3.08,2.94,3.08c1.73,0,2.93-1.32,2.93-3.08
		c0-1.75-1.21-3.07-2.93-3.07C268.84,143.1,267.67,144.47,267.67,146.17z"/>
	<path d="M285.88,145.13v5.31h-1.48v-4.83c0-1.58-0.87-2.5-2.35-2.5c-1.38,0-2.53,0.95-2.53,2.54v4.8h-1.47v-8.55h1.46v1.12
		c0.7-0.96,1.81-1.3,2.8-1.3C284.42,141.71,285.88,143.08,285.88,145.13z"/>
	<path d="M295.54,143.04v-5.56h1.48v12.96h-1.48v-1.14c-0.67,0.8-1.67,1.32-3.02,1.32c-2.4,0-4.28-1.87-4.28-4.46
		s1.87-4.46,4.28-4.46C293.87,141.71,294.87,142.23,295.54,143.04z M289.75,146.17c0,1.7,1.19,3.08,2.94,3.08
		c1.73,0,2.93-1.32,2.93-3.08c0-1.75-1.21-3.07-2.93-3.07C290.91,143.1,289.75,144.47,289.75,146.17z"/>
	<path d="M306.76,145.4v5.04h-1.58v-12.6h4.79c2.84,0,4.46,1.42,4.46,3.78c0,2.36-1.61,3.78-4.46,3.78H306.76z M306.76,139.33v4.57
		h3.17c1.86,0,2.85-0.76,2.85-2.29c0-1.53-0.98-2.29-2.85-2.29H306.76z"/>
	<path d="M324.72,150.44h-1.48v-1.14c-0.68,0.8-1.68,1.32-3.02,1.32c-2.4,0-4.28-1.87-4.28-4.46s1.87-4.46,4.28-4.46
		c1.34,0,2.34,0.52,3.02,1.33v-1.15h1.48V150.44z M317.45,146.17c0,1.7,1.19,3.08,2.94,3.08c1.73,0,2.94-1.32,2.94-3.08
		c0-1.75-1.21-3.07-2.94-3.07C318.61,143.1,317.45,144.47,317.45,146.17z"/>
	<path d="M333.59,143.79c-0.54-0.37-1.63-0.79-2.76-0.79c-1.17,0-1.93,0.5-1.93,1.27c0,0.68,0.62,1,1.66,1.13l0.99,0.13
		c1.82,0.24,2.89,1.01,2.89,2.42c0,1.63-1.46,2.68-3.79,2.68c-1.05,0-2.48-0.25-3.6-1.1l0.68-1.1c0.64,0.5,1.5,0.91,2.93,0.91
		c1.4,0,2.27-0.46,2.27-1.31c0-0.63-0.56-1.03-1.72-1.17l-0.99-0.12c-1.92-0.23-2.85-1.1-2.85-2.39c0-1.64,1.36-2.63,3.44-2.63
		c1.35,0,2.58,0.36,3.41,0.93L333.59,143.79z"/>
	<path d="M342.54,143.79c-0.54-0.37-1.63-0.79-2.75-0.79c-1.17,0-1.93,0.5-1.93,1.27c0,0.68,0.62,1,1.66,1.13l0.99,0.13
		c1.82,0.24,2.89,1.01,2.89,2.42c0,1.63-1.46,2.68-3.79,2.68c-1.05,0-2.48-0.25-3.6-1.1l0.68-1.1c0.64,0.5,1.49,0.91,2.93,0.91
		c1.4,0,2.27-0.46,2.27-1.31c0-0.63-0.56-1.03-1.72-1.17l-0.99-0.12c-1.92-0.23-2.84-1.1-2.84-2.39c0-1.64,1.36-2.63,3.44-2.63
		c1.35,0,2.58,0.36,3.41,0.93L342.54,143.79z"/>
	<path d="M347.5,138.88c0,0.58-0.47,1.03-1.05,1.03c-0.58,0-1.04-0.44-1.04-1.03c0-0.59,0.45-1.05,1.04-1.05
		C347.03,137.83,347.5,138.29,347.5,138.88z M347.19,150.44h-1.47v-8.55h1.47V150.44z"/>
	<path d="M354.33,150.45h-1.73l-3.6-8.56h1.6l2.87,7.07l2.88-7.07h1.56L354.33,150.45z"/>
	<path d="M367.23,146.14c0,0.19-0.02,0.39-0.03,0.55h-6.73c0.21,1.77,1.44,2.65,2.91,2.65c1,0,1.91-0.39,2.64-1.02l0.78,1.01
		c-1.06,0.99-2.25,1.3-3.51,1.3c-2.54,0-4.34-1.79-4.34-4.46c0-2.63,1.79-4.46,4.25-4.46C365.54,141.71,367.21,143.52,367.23,146.14
		z M360.5,145.5h5.23c-0.18-1.51-1.16-2.48-2.55-2.48C361.67,143.02,360.72,144.04,360.5,145.5z"/>
	<path d="M369.54,152.24h-1.62l7.64-15.67h1.62L369.54,152.24z"/>
	<path d="M390.46,144.14c0,1.63-0.51,3.07-1.4,4.17l1.64,2.13h-1.86l-0.87-1.09c-1.08,0.82-2.48,1.28-4.03,1.28
		c-3.78,0-6.53-2.72-6.53-6.49s2.75-6.49,6.53-6.49S390.46,140.37,390.46,144.14z M379.06,144.14c0,2.96,2.1,4.97,4.87,4.97
		c1.18,0,2.24-0.37,3.07-1.02l-2.85-3.67h1.9l1.97,2.55c0.49-0.78,0.78-1.74,0.78-2.83c0-2.96-2.1-4.97-4.87-4.97
		C381.16,139.17,379.06,141.18,379.06,144.14z"/>
	<path d="M400.8,146.86c0,2.58-1.85,3.76-3.9,3.76c-2.06,0-3.91-1.18-3.91-3.76v-4.97h1.48v4.83c0,1.75,1.04,2.52,2.43,2.52
		c1.39,0,2.42-0.77,2.42-2.52v-4.83h1.48V146.86z"/>
	<path d="M411.95,150.44h-1.48v-1.14c-0.68,0.8-1.67,1.32-3.02,1.32c-2.4,0-4.28-1.87-4.28-4.46s1.87-4.46,4.28-4.46
		c1.34,0,2.34,0.52,3.02,1.33v-1.15h1.48V150.44z M404.68,146.17c0,1.7,1.19,3.08,2.94,3.08c1.73,0,2.94-1.32,2.94-3.08
		c0-1.75-1.21-3.07-2.94-3.07C405.84,143.1,404.68,144.47,404.68,146.17z"/>
	<path d="M422.88,145.13v5.31h-1.48v-4.83c0-1.58-0.86-2.5-2.35-2.5c-1.38,0-2.53,0.95-2.53,2.54v4.8h-1.47v-8.55h1.46v1.12
		c0.7-0.96,1.81-1.3,2.8-1.3C421.42,141.71,422.88,143.08,422.88,145.13z"/>
	<path d="M431.59,143.23H428v4.17c0,1.29,0.68,1.85,1.61,1.85c0.63,0,1.26-0.24,1.75-0.58l0.69,1.11c-0.66,0.48-1.51,0.85-2.57,0.85
		c-1.85,0-2.96-1.02-2.96-3.2v-4.2h-1.83v-1.34h1.83v-2.68H428v2.68h3.59V143.23z"/>
	<path d="M449.97,140.26l-1.32,0.89c-0.82-1.21-2.21-1.98-3.83-1.98c-2.77,0-4.87,2.01-4.87,4.97s2.1,4.97,4.87,4.97
		c1.62,0,3-0.74,3.83-1.97l1.3,0.95c-1.06,1.58-2.94,2.55-5.12,2.55c-3.78,0-6.53-2.72-6.53-6.49s2.75-6.49,6.53-6.49
		C447.02,137.65,448.98,138.64,449.97,140.26z"/>
	<path d="M460.78,146.17c0,2.54-1.94,4.46-4.53,4.46c-2.59,0-4.52-1.92-4.52-4.46s1.93-4.46,4.52-4.46
		C458.84,141.71,460.78,143.63,460.78,146.17z M453.23,146.17c0,1.79,1.3,3.08,3.02,3.08c1.71,0,3.02-1.29,3.02-3.08
		c0-1.79-1.3-3.07-3.02-3.07C454.53,143.1,453.23,144.38,453.23,146.17z"/>
	<path d="M477.41,145.13v5.31h-1.48v-4.83c0-1.58-0.86-2.5-2.35-2.5c-1.41,0-2.52,0.98-2.52,2.54v4.8h-1.48v-4.83
		c0-1.58-0.86-2.5-2.35-2.5c-1.38,0-2.53,0.95-2.53,2.54v4.8h-1.47v-8.55h1.46v1.12c0.7-0.96,1.81-1.3,2.8-1.3
		c1.45,0,2.59,0.65,3.16,1.72c0.7-1.3,2.03-1.72,3.19-1.72C475.96,141.71,477.41,143.08,477.41,145.13z"/>
	<path d="M489.19,146.17c0,2.58-1.88,4.46-4.28,4.46c-1.35,0-2.35-0.52-3.02-1.32v1.14h-1.47v-12.96h1.47v5.55
		c0.67-0.8,1.67-1.32,3.02-1.32C487.31,141.71,489.19,143.58,489.19,146.17z M481.81,146.17c0,1.76,1.21,3.08,2.93,3.08
		c1.77,0,2.94-1.38,2.94-3.08s-1.19-3.07-2.94-3.07C483.02,143.1,481.81,144.42,481.81,146.17z"/>
	<path d="M493.43,138.88c0,0.58-0.47,1.03-1.05,1.03c-0.59,0-1.04-0.44-1.04-1.03c0-0.59,0.45-1.05,1.04-1.05
		C492.96,137.83,493.43,138.29,493.43,138.88z M493.12,150.44h-1.47v-8.55h1.47V150.44z"/>
	<path d="M504.06,145.13v5.31h-1.48v-4.83c0-1.58-0.86-2.5-2.35-2.5c-1.38,0-2.53,0.95-2.53,2.54v4.8h-1.47v-8.55h1.46v1.12
		c0.7-0.96,1.81-1.3,2.8-1.3C502.6,141.71,504.06,143.08,504.06,145.13z"/>
	<path d="M514.71,146.14c0,0.19-0.02,0.39-0.03,0.55h-6.73c0.21,1.77,1.44,2.65,2.91,2.65c1,0,1.91-0.39,2.64-1.02l0.78,1.01
		c-1.06,0.99-2.25,1.3-3.51,1.3c-2.54,0-4.34-1.79-4.34-4.46c0-2.63,1.79-4.46,4.25-4.46C513.01,141.71,514.69,143.52,514.71,146.14
		z M507.97,145.5h5.23c-0.18-1.51-1.16-2.48-2.55-2.48C509.14,143.02,508.2,144.04,507.97,145.5z"/>
	<path d="M523.81,143.04v-5.56h1.48v12.96h-1.48v-1.14c-0.67,0.8-1.67,1.32-3.02,1.32c-2.4,0-4.28-1.87-4.28-4.46
		s1.87-4.46,4.28-4.46C522.14,141.71,523.14,142.23,523.81,143.04z M518.02,146.17c0,1.7,1.19,3.08,2.94,3.08
		c1.73,0,2.93-1.32,2.93-3.08c0-1.75-1.21-3.07-2.93-3.07C519.19,143.1,518.02,144.47,518.02,146.17z"/>
	<path d="M94.02,160.36v1.67c1.51,0.14,2.66,0.6,3.75,1.27l-1.13,1.93c-0.74-0.45-1.63-0.83-2.63-0.98v2.87
		c2.21,0.34,3.92,1.31,3.87,3.37c-0.05,2.22-1.76,3.43-3.86,3.74V176h-2v-1.74c-1.59-0.14-3.2-0.65-4.29-1.51l1.23-1.91
		c0.72,0.55,1.82,1.05,3.05,1.22v-2.9l-0.1-0.02c-2.21-0.35-3.8-1.3-3.75-3.45c0.04-2.04,1.64-3.35,3.85-3.66v-1.68H94.02z
		 M92.03,166.77v-2.49c-0.84,0.2-1.36,0.65-1.38,1.3C90.64,166.22,91.14,166.55,92.03,166.77z M94.02,169.51V172
		c0.83-0.2,1.38-0.64,1.4-1.31C95.43,170.1,94.93,169.74,94.02,169.51z"/>
	<path d="M111.3,169.41c0,3.48-2.22,5.26-5.43,5.26s-5.43-1.77-5.43-5.26v-7.57h2.52v7.45c0,2.07,1.17,2.98,2.91,2.98
		c1.74,0,2.91-0.91,2.91-2.98v-7.45h2.52V169.41z"/>
	<path d="M122.56,165.02c-0.99-0.61-2.2-1.07-3.57-1.07c-1.41,0-2.41,0.56-2.41,1.51c0,0.93,1.09,1.21,2.6,1.46l0.71,0.12
		c2.25,0.37,4.02,1.33,4.02,3.53c0,2.78-2.45,4.1-5.16,4.1c-1.91,0-3.96-0.56-5.31-1.65l1.31-2.03c0.91,0.73,2.39,1.36,4.01,1.36
		c1.4,0,2.48-0.55,2.48-1.52c0-0.87-0.92-1.2-2.67-1.48l-0.8-0.13c-2.22-0.35-3.84-1.33-3.84-3.61c0-2.63,2.34-4,5.02-4
		c1.76,0,3.23,0.4,4.82,1.34L122.56,165.02z"/>
	<path d="M131.38,161.84c3.94,0,6.54,2.5,6.54,6.3s-2.6,6.3-6.54,6.3h-5.19v-12.6H131.38z M128.7,164.19v7.9h2.66
		c2.66,0,3.94-1.67,3.94-3.95c0-2.31-1.29-3.95-3.94-3.95H128.7z"/>
	<path d="M153.57,170.08c0,2.62-1.82,4.59-4.22,4.59c-1.21,0-2.04-0.49-2.61-1.19v0.96h-2.29v-12.96h2.34v5.15
		c0.57-0.68,1.39-1.14,2.56-1.14C151.75,165.49,153.57,167.46,153.57,170.08z M146.66,170.08c0,1.38,0.91,2.4,2.24,2.4
		c1.39,0,2.25-1.07,2.25-2.4s-0.86-2.4-2.25-2.4C147.57,167.67,146.66,168.7,146.66,170.08z"/>
	<path d="M158.15,162.87c0,0.85-0.66,1.49-1.5,1.49c-0.85,0-1.49-0.65-1.49-1.49c0-0.85,0.65-1.51,1.49-1.51
		C157.49,161.35,158.15,162.02,158.15,162.87z M157.83,174.44h-2.35v-8.72h2.35V174.44z"/>
	<path d="M162.65,174.44h-2.35v-12.96h2.35V174.44z"/>
	<path d="M167.46,174.44h-2.35v-12.96h2.35V174.44z"/>
	<path d="M172.59,162.87c0,0.85-0.66,1.49-1.5,1.49c-0.85,0-1.49-0.65-1.49-1.49c0-0.85,0.65-1.51,1.49-1.51
		C171.93,161.35,172.59,162.02,172.59,162.87z M172.28,174.44h-2.35v-8.72h2.35V174.44z"/>
	<path d="M183.64,170.08c0,2.63-2.01,4.59-4.73,4.59c-2.71,0-4.71-1.96-4.71-4.59s2-4.59,4.71-4.59
		C181.63,165.49,183.64,167.45,183.64,170.08z M176.6,170.08c0,1.41,0.99,2.4,2.31,2.4c1.32,0,2.32-0.99,2.32-2.4s-1-2.4-2.32-2.4
		C177.59,167.67,176.6,168.66,176.6,170.08z"/>
	<path d="M193.8,168.89v5.55h-2.35v-4.8c0-1.26-0.63-1.95-1.7-1.95c-1.01,0-1.85,0.66-1.85,1.97v4.78h-2.35v-8.72h2.29v1.03
		c0.62-0.93,1.58-1.26,2.57-1.26C192.38,165.49,193.8,166.86,193.8,168.89z"/>
</g>
<g>
	<g>
		<path d="M47.88,398.57c0,3.17-1.89,5.08-4.23,5.08c-2.35,0-4.22-1.9-4.22-5.08s1.88-5.08,4.22-5.08
			C45.99,393.5,47.88,395.4,47.88,398.57z M41.39,398.57c0,2.14,1,3.26,2.25,3.26c1.26,0,2.25-1.12,2.25-3.26
			c0-2.14-0.99-3.26-2.25-3.26C42.4,395.31,41.39,396.43,41.39,398.57z"/>
	</g>
</g>
<g>
	<g>
		<path d="M37.52,349.35h-3.97l-0.04,1.96h1.13c2.28,0,3.43,1.31,3.43,2.95c0,2.11-1.6,3.31-3.58,3.31c-1.46,0-2.66-0.55-3.47-1.46
			l1.06-1.32c0.53,0.58,1.49,1.04,2.4,1.04c1.09,0,1.63-0.64,1.63-1.42c0-0.74-0.46-1.38-2-1.38h-2.33l0.11-5.43h5.64V349.35z"/>
		<path d="M47.88,352.5c0,3.17-1.89,5.08-4.23,5.08c-2.35,0-4.22-1.9-4.22-5.08s1.88-5.08,4.22-5.08
			C45.99,347.42,47.88,349.33,47.88,352.5z M41.39,352.5c0,2.14,1,3.26,2.25,3.26c1.26,0,2.25-1.12,2.25-3.26
			c0-2.14-0.99-3.26-2.25-3.26C42.4,349.24,41.39,350.36,41.39,352.5z"/>
	</g>
</g>
<g>
	<g>
		<path d="M27.68,311.33h-1.89v-7.3l-2.35,0.95v-1.9l4.24-1.71V311.33z"/>
		<path d="M38,306.42c0,3.17-1.89,5.08-4.23,5.08c-2.35,0-4.22-1.9-4.22-5.08s1.88-5.08,4.22-5.08C36.1,301.35,38,303.25,38,306.42z
			 M31.51,306.42c0,2.14,1,3.26,2.26,3.26c1.26,0,2.25-1.12,2.25-3.26c0-2.14-0.99-3.26-2.25-3.26
			C32.51,303.16,31.51,304.28,31.51,306.42z"/>
		<path d="M47.88,306.42c0,3.17-1.89,5.08-4.23,5.08c-2.35,0-4.22-1.9-4.22-5.08s1.88-5.08,4.22-5.08
			C45.99,301.35,47.88,303.25,47.88,306.42z M41.39,306.42c0,2.14,1,3.26,2.25,3.26c1.26,0,2.25-1.12,2.25-3.26
			c0-2.14-0.99-3.26-2.25-3.26C42.4,303.16,41.39,304.28,41.39,306.42z"/>
	</g>
</g>
<g>
	<g>
		<path d="M29.4,265.25h-1.89v-7.3l-2.35,0.95V257l4.24-1.71V265.25z"/>
		<path d="M37.52,257.2h-3.97l-0.04,1.96h1.13c2.28,0,3.43,1.31,3.43,2.95c0,2.11-1.6,3.31-3.58,3.31c-1.46,0-2.66-0.55-3.47-1.46
			l1.06-1.32c0.53,0.58,1.49,1.04,2.4,1.04c1.09,0,1.63-0.64,1.63-1.42c0-0.74-0.46-1.38-2-1.38h-2.33l0.11-5.43h5.64V257.2z"/>
		<path d="M47.88,260.35c0,3.17-1.89,5.08-4.23,5.08c-2.35,0-4.22-1.9-4.22-5.08s1.88-5.08,4.22-5.08
			C45.99,255.27,47.88,257.18,47.88,260.35z M41.39,260.35c0,2.14,1,3.26,2.25,3.26c1.26,0,2.25-1.12,2.25-3.26
			c0-2.14-0.99-3.26-2.25-3.26C42.4,257.08,41.39,258.2,41.39,260.35z"/>
	</g>
</g>
<g>
	<g>
		<path d="M21.41,210.88c0.53-0.69,1.53-1.69,3.35-1.69c2.05,0,3.33,1.29,3.33,3.17c0,1.2-0.61,2.03-1.41,2.86l-2.09,2.18h3.75v1.77
			h-6.48v-1.48l3.47-3.55c0.52-0.53,0.81-1.07,0.81-1.68c0-0.85-0.59-1.46-1.5-1.46c-0.93,0-1.48,0.5-1.99,1.08L21.41,210.88z"/>
		<path d="M38,214.27c0,3.17-1.89,5.08-4.23,5.08c-2.35,0-4.22-1.9-4.22-5.08s1.88-5.08,4.22-5.08C36.1,209.19,38,211.1,38,214.27z
			 M31.51,214.27c0,2.14,1,3.26,2.26,3.26c1.26,0,2.25-1.12,2.25-3.26c0-2.14-0.99-3.26-2.25-3.26
			C32.51,211.01,31.51,212.13,31.51,214.27z"/>
		<path d="M47.88,214.27c0,3.17-1.89,5.08-4.23,5.08c-2.35,0-4.22-1.9-4.22-5.08s1.88-5.08,4.22-5.08
			C45.99,209.19,47.88,211.1,47.88,214.27z M41.39,214.27c0,2.14,1,3.26,2.25,3.26c1.26,0,2.26-1.12,2.26-3.26
			c0-2.14-0.99-3.26-2.26-3.26C42.39,211.01,41.39,212.13,41.39,214.27z"/>
	</g>
</g>
<g>
	<g>
		<path d="M23.13,164.81c0.53-0.69,1.53-1.69,3.35-1.69c2.05,0,3.33,1.29,3.33,3.17c0,1.2-0.61,2.03-1.42,2.86l-2.09,2.18h3.75v1.77
			h-6.48v-1.48l3.47-3.55c0.52-0.53,0.8-1.07,0.8-1.68c0-0.85-0.59-1.46-1.5-1.46c-0.93,0-1.48,0.5-1.99,1.08L23.13,164.81z"/>
		<path d="M37.52,165.05h-3.97l-0.04,1.96h1.13c2.28,0,3.43,1.31,3.43,2.95c0,2.11-1.6,3.31-3.58,3.31c-1.46,0-2.66-0.55-3.47-1.46
			l1.06-1.32c0.53,0.58,1.49,1.04,2.4,1.04c1.09,0,1.63-0.64,1.63-1.42c0-0.74-0.46-1.38-2-1.38h-2.33l0.11-5.43h5.64V165.05z"/>
		<path d="M47.88,168.2c0,3.17-1.89,5.08-4.23,5.08c-2.35,0-4.22-1.9-4.22-5.08s1.88-5.08,4.22-5.08
			C45.99,163.12,47.88,165.02,47.88,168.2z M41.39,168.2c0,2.14,1,3.26,2.25,3.26c1.26,0,2.25-1.12,2.25-3.26
			c0-2.14-0.99-3.26-2.25-3.26C42.4,164.93,41.39,166.05,41.39,168.2z"/>
	</g>
</g>
<g>
	<g>
		<path d="M28,119.86c0,1.04-0.55,1.8-1.46,2.23c1.03,0.41,1.68,1.19,1.68,2.25c0,1.93-1.76,2.86-3.61,2.86
			c-1.47,0-2.68-0.53-3.42-1.42l1.13-1.24c0.57,0.6,1.39,0.94,2.23,0.94c0.95,0,1.72-0.41,1.72-1.27c0-0.84-0.86-1.28-1.92-1.28
			h-1.14v-1.68h1.15c0.95,0,1.71-0.42,1.71-1.25c0-0.79-0.71-1.23-1.63-1.23c-0.91,0-1.58,0.47-1.98,1l-1.19-1.2
			c0.64-0.87,1.71-1.52,3.27-1.52C26.59,117.04,28,118.16,28,119.86z"/>
		<path d="M38,122.12c0,3.17-1.89,5.08-4.23,5.08c-2.35,0-4.22-1.9-4.22-5.08s1.88-5.08,4.22-5.08C36.1,117.04,38,118.95,38,122.12z
			 M31.51,122.12c0,2.14,1,3.26,2.26,3.26c1.26,0,2.25-1.12,2.25-3.26c0-2.14-0.99-3.26-2.25-3.26
			C32.51,118.86,31.51,119.98,31.51,122.12z"/>
		<path d="M47.88,122.12c0,3.17-1.89,5.08-4.23,5.08c-2.35,0-4.22-1.9-4.22-5.08s1.88-5.08,4.22-5.08
			C45.99,117.04,47.88,118.95,47.88,122.12z M41.39,122.12c0,2.14,1,3.26,2.25,3.26c1.26,0,2.26-1.12,2.26-3.26
			c0-2.14-0.99-3.26-2.26-3.26C42.39,118.86,41.39,119.98,41.39,122.12z"/>
	</g>
</g>
<g>
	<g>
		<path d="M29.72,73.78c0,1.04-0.55,1.8-1.46,2.23c1.03,0.41,1.68,1.19,1.68,2.25c0,1.93-1.76,2.86-3.61,2.86
			c-1.47,0-2.68-0.53-3.43-1.42l1.13-1.24c0.57,0.6,1.39,0.94,2.23,0.94c0.95,0,1.72-0.41,1.72-1.27c0-0.84-0.86-1.28-1.92-1.28
			h-1.14v-1.68h1.15c0.95,0,1.72-0.42,1.72-1.25c0-0.79-0.71-1.23-1.63-1.23s-1.58,0.47-1.98,1l-1.19-1.2
			c0.64-0.87,1.71-1.52,3.27-1.52C28.31,70.97,29.72,72.09,29.72,73.78z"/>
		<path d="M37.52,72.9h-3.97l-0.04,1.96h1.13c2.28,0,3.43,1.31,3.43,2.95c0,2.11-1.6,3.31-3.58,3.31c-1.46,0-2.66-0.55-3.47-1.46
			l1.06-1.32c0.53,0.58,1.49,1.04,2.4,1.04c1.09,0,1.63-0.64,1.63-1.42c0-0.74-0.46-1.38-2-1.38h-2.33l0.11-5.43h5.64V72.9z"/>
		<path d="M47.88,76.05c0,3.17-1.89,5.08-4.23,5.08c-2.35,0-4.22-1.9-4.22-5.08s1.88-5.08,4.22-5.08
			C45.99,70.97,47.88,72.87,47.88,76.05z M41.39,76.05c0,2.14,1,3.26,2.25,3.26c1.26,0,2.25-1.12,2.25-3.26
			c0-2.14-0.99-3.26-2.25-3.26C42.4,72.78,41.39,73.9,41.39,76.05z"/>
	</g>
</g>
<g>
	<g>
		<path d="M27.17,31.32h1.37v1.76h-1.37v1.79h-1.89v-1.79h-4.35v-1.37l3.44-6.63h2.1l-3.28,6.24h2.09V28.7h1.89V31.32z"/>
		<path d="M38,29.97c0,3.17-1.89,5.08-4.23,5.08c-2.35,0-4.22-1.9-4.22-5.08s1.88-5.08,4.22-5.08C36.1,24.89,38,26.8,38,29.97z
			 M31.51,29.97c0,2.14,1,3.26,2.26,3.26c1.26,0,2.25-1.12,2.25-3.26c0-2.14-0.99-3.26-2.25-3.26
			C32.51,26.71,31.51,27.83,31.51,29.97z"/>
		<path d="M47.88,29.97c0,3.17-1.89,5.08-4.23,5.08c-2.35,0-4.22-1.9-4.22-5.08s1.88-5.08,4.22-5.08
			C45.99,24.89,47.88,26.8,47.88,29.97z M41.39,29.97c0,2.14,1,3.26,2.25,3.26c1.26,0,2.25-1.12,2.25-3.26
			c0-2.14-0.99-3.26-2.25-3.26C42.4,26.71,41.39,27.83,41.39,29.97z"/>
	</g>
</g>
<g>
	<g>
		<g>
			<rect x="74.05" y="335.86" class="st3" width="58.78" height="62.66"/>
			<rect x="155.68" y="345.07" class="st3" width="58.78" height="53.45"/>
			<rect x="237.32" y="342.31" class="st3" width="58.78" height="56.21"/>
			<rect x="318.96" y="320.19" class="st3" width="58.78" height="78.33"/>
			<rect x="400.59" y="310.05" class="st3" width="58.78" height="88.46"/>
			<rect x="482.23" y="300.84" class="st3" width="58.78" height="97.68"/>
			<rect x="563.86" y="287.02" class="st3" width="58.78" height="111.5"/>
			<rect x="645.5" y="244.63" class="st3" width="58.78" height="153.89"/>
			<rect x="727.14" y="240.94" class="st3" width="58.78" height="157.58"/>
			<polygon class="st3" points="808.77,144.94 867.55,145.1 867.55,398.52 808.77,398.52 			"/>
			<rect x="890.41" y="56.64" class="st4" width="58.78" height="341.88"/>
		</g>
	</g>
</g>
<g>
	<path class="st4" d="M889.87,8.45v3.51c3.19,0.3,5.6,1.27,7.92,2.68l-2.38,4.07c-1.56-0.95-3.44-1.75-5.55-2.07v6.06
		c4.65,0.72,8.26,2.77,8.17,7.11c-0.11,4.69-3.7,7.24-8.15,7.88v3.76h-4.22v-3.67c-3.36-0.29-6.74-1.37-9.06-3.19l2.6-4.03
		c1.52,1.16,3.84,2.22,6.44,2.58v-6.12l-0.21-0.04c-4.65-0.74-8.02-2.75-7.92-7.28c0.08-4.29,3.46-7.07,8.13-7.71V8.45H889.87z
		 M885.65,21.97v-5.24c-1.77,0.42-2.87,1.37-2.91,2.74C882.72,20.8,883.79,21.5,885.65,21.97z M889.87,27.75v5.26
		c1.75-0.42,2.91-1.35,2.95-2.77C892.83,28.98,891.78,28.24,889.87,27.75z"/>
	<path class="st4" d="M920.19,18.72c0,2.81-1.5,4.88-3.97,6.04c2.79,1.1,4.56,3.23,4.56,6.1c0,5.24-4.77,7.77-9.8,7.77
		c-3.99,0-7.28-1.42-9.29-3.86l3.06-3.36c1.54,1.62,3.76,2.55,6.04,2.55c2.58,0,4.65-1.12,4.65-3.46c0-2.28-2.34-3.48-5.21-3.48
		h-3.1v-4.56h3.12c2.58,0,4.65-1.14,4.65-3.38c0-2.15-1.94-3.32-4.41-3.32c-2.47,0-4.29,1.27-5.38,2.7l-3.23-3.25
		c1.75-2.36,4.63-4.12,8.87-4.12C916.37,11.09,920.19,14.13,920.19,18.72z"/>
	<path class="st4" d="M942.36,15.57l-11.02,22.59h-6.04l10.94-21.81h-12.63v-4.79h18.75V15.57z"/>
	<path class="st4" d="M956.38,38.16h-5.13V18.36l-6.36,2.58v-5.17l11.49-4.63V38.16z"/>
</g>
<g>
	<path d="M815.81,110.62v2.41c2.18,0.21,3.83,0.87,5.42,1.83l-1.63,2.78c-1.07-0.65-2.35-1.2-3.79-1.42v4.15
		c3.18,0.49,5.65,1.9,5.59,4.86c-0.08,3.21-2.54,4.95-5.58,5.39v2.57h-2.88v-2.51c-2.3-0.2-4.62-0.94-6.2-2.18l1.78-2.76
		c1.04,0.79,2.63,1.52,4.41,1.77v-4.19l-0.14-0.03c-3.19-0.51-5.49-1.88-5.42-4.98c0.05-2.94,2.37-4.84,5.56-5.28v-2.43H815.81z
		 M812.92,119.88v-3.59c-1.21,0.29-1.96,0.94-1.99,1.87C810.92,119.07,811.65,119.55,812.92,119.88z M815.81,123.83v3.6
		c1.2-0.29,1.99-0.92,2.01-1.9C817.83,124.67,817.12,124.17,815.81,123.83z"/>
	<path d="M824.09,115.56c0.99-1.29,2.83-3.13,6.21-3.13c3.81,0,6.17,2.39,6.17,5.88c0,2.22-1.13,3.77-2.63,5.32l-3.89,4.04h6.96
		v3.29h-12.03v-2.74l6.44-6.59c0.96-0.98,1.49-1.98,1.49-3.12c0-1.59-1.1-2.72-2.78-2.72c-1.73,0-2.76,0.94-3.69,2L824.09,115.56z"
		/>
	<path d="M851.49,115.5l-7.54,15.46h-4.13l7.49-14.92h-8.65v-3.28h12.83V115.5z"/>
	<path d="M865.1,116.02h-7.37l-0.08,3.64h2.09c4.24,0,6.37,2.43,6.37,5.47c0,3.91-2.96,6.15-6.64,6.15c-2.72,0-4.94-1.01-6.45-2.72
		l1.98-2.46c0.99,1.08,2.77,1.92,4.45,1.92c2.03,0,3.03-1.2,3.03-2.64c0-1.37-0.86-2.56-3.71-2.56h-4.33l0.19-10.08h10.47V116.02z"
		/>
</g>
<g>
	<path d="M739.2,211.43v2.41c2.18,0.21,3.83,0.87,5.42,1.83l-1.63,2.78c-1.07-0.65-2.35-1.2-3.8-1.42v4.15
		c3.18,0.49,5.66,1.9,5.59,4.86c-0.08,3.21-2.53,4.95-5.58,5.39v2.57h-2.89v-2.51c-2.3-0.2-4.62-0.94-6.2-2.18l1.78-2.76
		c1.04,0.79,2.63,1.52,4.41,1.77v-4.19l-0.14-0.03c-3.18-0.51-5.49-1.88-5.42-4.98c0.05-2.94,2.37-4.84,5.56-5.28v-2.43H739.2z
		 M736.31,220.69v-3.59c-1.21,0.29-1.96,0.94-1.99,1.87C734.31,219.88,735.04,220.36,736.31,220.69z M739.2,224.64v3.6
		c1.2-0.29,1.99-0.92,2.01-1.9C741.23,225.48,740.51,224.98,739.2,224.64z"/>
	<path d="M755.15,231.76h-3.51v-13.55l-4.36,1.77v-3.54l7.87-3.17V231.76z"/>
	<path d="M770.92,216.3l-7.54,15.46h-4.13l7.49-14.92h-8.65v-3.28h12.83V216.3z"/>
	<path d="M780.51,231.76H777v-13.55l-4.36,1.77v-3.54l7.87-3.17V231.76z"/>
</g>
<g>
	<path d="M655.57,214.43v2.41c2.18,0.21,3.84,0.87,5.42,1.83l-1.63,2.78c-1.07-0.65-2.35-1.2-3.8-1.42v4.15
		c3.19,0.49,5.66,1.9,5.59,4.86c-0.08,3.21-2.53,4.95-5.58,5.39v2.57h-2.89v-2.51c-2.3-0.2-4.62-0.94-6.2-2.18l1.78-2.76
		c1.04,0.79,2.63,1.52,4.41,1.77v-4.19l-0.14-0.03c-3.18-0.51-5.49-1.88-5.42-4.98c0.05-2.94,2.37-4.84,5.56-5.28v-2.43H655.57z
		 M652.69,223.69v-3.59c-1.21,0.29-1.96,0.94-1.99,1.87C650.69,222.88,651.41,223.36,652.69,223.69z M655.57,227.64v3.6
		c1.2-0.29,1.99-0.92,2.02-1.9C657.6,228.48,656.89,227.98,655.57,227.64z"/>
	<path d="M671.53,234.76h-3.51v-13.55l-4.36,1.77v-3.54l7.87-3.17V234.76z"/>
	<path d="M680.99,222.89c0.25-0.03,0.53-0.05,0.85-0.05c3.69,0,6.3,2.64,6.3,6.05c0,3.56-2.94,6.2-6.85,6.2
		c-3.89,0-6.83-2.61-6.83-6.14c0-1.66,0.62-3.17,1.73-4.84l5.04-7.55h4.24L680.99,222.89z M678.12,228.91
		c0,1.77,1.37,2.99,3.17,2.99c1.83,0,3.2-1.22,3.2-2.99c0-1.75-1.37-2.99-3.2-2.99C679.48,225.92,678.12,227.16,678.12,228.91z"/>
	<path d="M702.34,219.3l-7.54,15.46h-4.13l7.49-14.92h-8.65v-3.28h12.83V219.3z"/>
</g>
<g>
	<path d="M576.93,257.47v2.41c2.18,0.21,3.83,0.87,5.42,1.83l-1.63,2.78c-1.07-0.65-2.35-1.2-3.8-1.42v4.15
		c3.18,0.49,5.66,1.9,5.59,4.86c-0.08,3.21-2.53,4.95-5.58,5.39v2.57h-2.89v-2.51c-2.3-0.2-4.62-0.94-6.2-2.18l1.78-2.76
		c1.04,0.79,2.63,1.52,4.41,1.77v-4.19l-0.14-0.03c-3.18-0.51-5.49-1.88-5.42-4.98c0.05-2.94,2.37-4.84,5.56-5.28v-2.43H576.93z
		 M574.05,266.72v-3.59c-1.21,0.29-1.96,0.94-1.99,1.87C572.05,265.92,572.77,266.4,574.05,266.72z M576.93,270.68v3.6
		c1.2-0.29,1.99-0.92,2.01-1.9C578.96,271.52,578.25,271.01,576.93,270.68z"/>
	<path d="M592.88,277.8h-3.51v-13.55l-4.36,1.77v-3.54l7.87-3.17V277.8z"/>
	<path d="M595.89,262.41c0.99-1.29,2.83-3.13,6.21-3.13c3.81,0,6.18,2.39,6.18,5.88c0,2.22-1.13,3.77-2.63,5.32l-3.89,4.04h6.96
		v3.29h-12.03v-2.74l6.44-6.59c0.96-0.98,1.5-1.98,1.5-3.12c0-1.59-1.1-2.72-2.78-2.72c-1.73,0-2.76,0.94-3.69,2L595.89,262.41z"/>
	<path d="M618.23,277.8h-3.51v-13.55l-4.36,1.77v-3.54l7.87-3.17V277.8z"/>
</g>
<g>
	<path d="M491.13,272.54v2.41c2.18,0.21,3.83,0.87,5.42,1.83l-1.63,2.78c-1.07-0.65-2.35-1.2-3.8-1.42v4.15
		c3.19,0.49,5.66,1.9,5.59,4.86c-0.08,3.21-2.54,4.95-5.58,5.39v2.57h-2.89v-2.51c-2.3-0.2-4.62-0.94-6.2-2.18l1.78-2.76
		c1.04,0.79,2.63,1.52,4.41,1.77v-4.19l-0.14-0.03c-3.19-0.51-5.49-1.88-5.42-4.98c0.05-2.94,2.37-4.84,5.56-5.28v-2.43H491.13z
		 M488.24,281.8v-3.59c-1.21,0.29-1.96,0.94-1.99,1.87C486.24,280.99,486.96,281.47,488.24,281.8z M491.13,285.75v3.6
		c1.2-0.29,1.99-0.92,2.02-1.9C493.15,286.59,492.44,286.09,491.13,285.75z"/>
	<path d="M507.08,292.87h-3.51v-13.55l-4.35,1.77v-3.54l7.87-3.17V292.87z"/>
	<path d="M526.24,283.77c0,5.89-3.51,9.43-7.85,9.43c-4.35,0-7.84-3.54-7.84-9.43c0-5.89,3.48-9.42,7.84-9.42
		C522.73,274.35,526.24,277.88,526.24,283.77z M514.2,283.77c0,3.98,1.86,6.06,4.19,6.06c2.34,0,4.19-2.08,4.19-6.06
		c0-3.98-1.85-6.06-4.19-6.06C516.06,277.71,514.2,279.79,514.2,283.77z"/>
	<path d="M534.89,281c0.25-0.03,0.53-0.05,0.85-0.05c3.69,0,6.3,2.64,6.3,6.05c0,3.56-2.94,6.2-6.85,6.2
		c-3.89,0-6.83-2.61-6.83-6.14c0-1.66,0.62-3.17,1.73-4.84l5.04-7.55h4.24L534.89,281z M532.02,287.02c0,1.77,1.37,2.99,3.17,2.99
		c1.83,0,3.2-1.22,3.2-2.99c0-1.75-1.37-2.99-3.2-2.99C533.39,284.03,532.02,285.27,532.02,287.02z"/>
</g>
<g>
	<path d="M414.48,281.02v2.41c2.18,0.21,3.83,0.87,5.42,1.83l-1.63,2.78c-1.07-0.65-2.35-1.2-3.79-1.42v4.15
		c3.18,0.49,5.65,1.9,5.59,4.86c-0.08,3.21-2.54,4.95-5.58,5.39v2.57h-2.88v-2.51c-2.3-0.2-4.62-0.94-6.2-2.18l1.78-2.76
		c1.04,0.79,2.63,1.52,4.41,1.77v-4.19l-0.14-0.03c-3.19-0.51-5.49-1.88-5.42-4.98c0.05-2.94,2.37-4.84,5.56-5.28v-2.43H414.48z
		 M411.59,290.28v-3.59c-1.21,0.29-1.96,0.94-1.99,1.87C409.59,289.47,410.32,289.95,411.59,290.28z M414.48,294.23v3.6
		c1.2-0.29,1.99-0.92,2.01-1.9C416.5,295.07,415.79,294.57,414.48,294.23z"/>
	<path d="M429.87,295.02c-0.25,0.04-0.51,0.05-0.82,0.05c-3.69,0-6.31-2.64-6.31-6.04c0-3.56,2.92-6.2,6.84-6.2
		c3.89,0,6.84,2.61,6.84,6.14c0,1.66-0.62,3.19-1.73,4.84l-5.04,7.55h-4.24L429.87,295.02z M432.77,289c0-1.77-1.37-2.99-3.18-2.99
		c-1.83,0-3.19,1.22-3.19,2.99c0,1.75,1.35,2.99,3.19,2.99C431.4,291.99,432.77,290.76,432.77,289z"/>
	<path d="M444.27,289.48c0.25-0.03,0.53-0.05,0.84-0.05c3.69,0,6.3,2.64,6.3,6.05c0,3.56-2.94,6.2-6.85,6.2
		c-3.89,0-6.83-2.61-6.83-6.14c0-1.66,0.62-3.17,1.73-4.84l5.04-7.55h4.24L444.27,289.48z M441.4,295.5c0,1.77,1.37,2.99,3.17,2.99
		c1.83,0,3.2-1.22,3.2-2.99c0-1.75-1.37-2.99-3.2-2.99C442.76,292.51,441.4,293.75,441.4,295.5z"/>
</g>
<g>
	<path d="M334.21,293.89v2.41c2.18,0.21,3.84,0.87,5.42,1.83l-1.63,2.78c-1.07-0.65-2.35-1.2-3.8-1.42v4.15
		c3.19,0.49,5.66,1.9,5.59,4.86c-0.08,3.21-2.53,4.95-5.58,5.39v2.57h-2.89v-2.51c-2.3-0.2-4.62-0.94-6.2-2.18l1.78-2.76
		c1.04,0.79,2.63,1.52,4.41,1.77v-4.19l-0.14-0.03c-3.18-0.51-5.49-1.88-5.42-4.98c0.05-2.94,2.37-4.84,5.56-5.28v-2.43H334.21z
		 M331.32,303.15v-3.59c-1.21,0.29-1.96,0.94-1.99,1.87C329.32,302.34,330.05,302.82,331.32,303.15z M334.21,307.1v3.6
		c1.2-0.29,1.99-0.92,2.02-1.9C336.24,307.94,335.52,307.44,334.21,307.1z"/>
	<path d="M356.54,300.92c0,2.09-1.21,3.39-2.78,4.12c1.79,0.7,3.22,2,3.22,4.23c0,3.32-3.2,5.28-7.11,5.28s-7.11-1.96-7.11-5.28
		c0-2.22,1.42-3.52,3.21-4.23c-1.57-0.73-2.77-2.03-2.77-4.12c0-3.28,2.99-5.23,6.67-5.23S356.54,297.65,356.54,300.92z
		 M346.55,308.97c0,1.6,1.51,2.44,3.33,2.44c1.81,0,3.33-0.85,3.33-2.44c0-1.63-1.52-2.5-3.33-2.5
		C348.05,306.48,346.55,307.35,346.55,308.97z M346.94,301.2c0,1.56,1.31,2.39,2.94,2.39s2.94-0.83,2.94-2.39
		c0-1.51-1.31-2.33-2.94-2.33S346.94,299.69,346.94,301.2z"/>
	<path d="M371.06,299.29h-7.37l-0.08,3.64h2.09c4.24,0,6.37,2.43,6.37,5.47c0,3.91-2.96,6.15-6.64,6.15c-2.72,0-4.94-1.01-6.45-2.72
		l1.98-2.46c0.99,1.08,2.77,1.92,4.45,1.92c2.03,0,3.03-1.2,3.03-2.64c0-1.37-0.86-2.56-3.71-2.56h-4.33l0.19-10.08h10.47V299.29z"
		/>
</g>
<g>
	<path d="M254.46,312.62v2.41c2.18,0.21,3.83,0.87,5.42,1.83l-1.63,2.78c-1.07-0.65-2.35-1.2-3.79-1.42v4.15
		c3.18,0.49,5.65,1.9,5.59,4.86c-0.08,3.21-2.54,4.95-5.58,5.39v2.57h-2.88v-2.51c-2.3-0.2-4.62-0.94-6.2-2.18l1.78-2.76
		c1.04,0.79,2.63,1.52,4.41,1.77v-4.19l-0.14-0.03c-3.19-0.51-5.49-1.88-5.42-4.98c0.05-2.94,2.37-4.84,5.56-5.28v-2.43H254.46z
		 M251.57,321.87v-3.59c-1.21,0.29-1.96,0.94-1.99,1.87C249.57,321.07,250.3,321.55,251.57,321.87z M254.46,325.83v3.6
		c1.2-0.29,1.99-0.92,2.01-1.9C256.49,326.67,255.77,326.16,254.46,325.83z"/>
	<path d="M269.2,321.08c0.25-0.03,0.53-0.05,0.85-0.05c3.69,0,6.3,2.64,6.3,6.05c0,3.56-2.94,6.2-6.85,6.2
		c-3.89,0-6.83-2.61-6.83-6.14c0-1.66,0.62-3.17,1.73-4.84l5.04-7.55h4.24L269.2,321.08z M266.33,327.1c0,1.77,1.37,2.99,3.17,2.99
		c1.83,0,3.2-1.22,3.2-2.99c0-1.75-1.37-2.99-3.2-2.99C267.69,324.11,266.33,325.35,266.33,327.1z"/>
	<path d="M285.62,332.95h-3.51V319.4l-4.36,1.77v-3.54l7.87-3.17V332.95z"/>
</g>
<g>
	<path d="M170.94,315.52v2.41c2.18,0.21,3.83,0.87,5.42,1.83l-1.63,2.78c-1.07-0.65-2.35-1.2-3.79-1.42v4.15
		c3.18,0.49,5.65,1.9,5.59,4.86c-0.08,3.21-2.54,4.95-5.58,5.39v2.57h-2.88v-2.51c-2.3-0.2-4.62-0.94-6.2-2.18l1.78-2.76
		c1.04,0.79,2.63,1.52,4.41,1.77v-4.19l-0.14-0.03c-3.19-0.51-5.49-1.88-5.42-4.98c0.05-2.94,2.37-4.84,5.56-5.28v-2.43H170.94z
		 M168.05,324.78v-3.59c-1.21,0.29-1.96,0.94-1.99,1.87C166.05,323.97,166.78,324.45,168.05,324.78z M170.94,328.73v3.6
		c1.2-0.29,1.99-0.92,2.01-1.9C172.96,329.58,172.25,329.07,170.94,328.73z"/>
	<path d="M191.29,320.92h-7.37l-0.08,3.64h2.09c4.24,0,6.37,2.43,6.37,5.47c0,3.91-2.96,6.15-6.64,6.15c-2.72,0-4.94-1.01-6.45-2.72
		l1.98-2.46c0.99,1.08,2.77,1.92,4.45,1.92c2.03,0,3.03-1.2,3.03-2.64c0-1.37-0.86-2.56-3.71-2.56h-4.33l0.19-10.08h10.47V320.92z"
		/>
	<path d="M208.43,322.56c0,2.09-1.21,3.39-2.78,4.12c1.79,0.7,3.22,2,3.22,4.23c0,3.32-3.2,5.28-7.11,5.28s-7.11-1.96-7.11-5.28
		c0-2.22,1.42-3.52,3.21-4.23c-1.57-0.73-2.77-2.03-2.77-4.12c0-3.28,2.99-5.23,6.67-5.23S208.43,319.28,208.43,322.56z
		 M198.43,330.6c0,1.6,1.51,2.44,3.33,2.44c1.81,0,3.33-0.85,3.33-2.44c0-1.63-1.52-2.5-3.33-2.5
		C199.94,328.11,198.43,328.98,198.43,330.6z M198.82,322.83c0,1.56,1.31,2.39,2.94,2.39s2.94-0.83,2.94-2.39
		c0-1.51-1.31-2.33-2.94-2.33S198.82,321.32,198.82,322.83z"/>
</g>
<g>
	<path d="M89.21,306.8v2.41c2.18,0.21,3.84,0.87,5.42,1.83l-1.63,2.78c-1.07-0.65-2.35-1.2-3.8-1.42v4.15
		c3.19,0.49,5.66,1.9,5.59,4.86c-0.08,3.21-2.53,4.95-5.58,5.39v2.57h-2.89v-2.51c-2.3-0.2-4.62-0.94-6.2-2.18l1.78-2.76
		c1.04,0.79,2.63,1.52,4.41,1.77v-4.19l-0.14-0.03c-3.18-0.51-5.49-1.88-5.42-4.98c0.05-2.94,2.37-4.84,5.56-5.28v-2.43H89.21z
		 M86.32,316.06v-3.59c-1.21,0.29-1.96,0.94-1.99,1.87C84.32,315.25,85.05,315.74,86.32,316.06z M89.21,320.01v3.6
		c1.2-0.29,1.99-0.92,2.02-1.9C91.24,320.86,90.52,320.35,89.21,320.01z"/>
	<path d="M103.95,315.27c0.25-0.03,0.53-0.05,0.84-0.05c3.69,0,6.31,2.64,6.31,6.05c0,3.56-2.94,6.2-6.85,6.2
		c-3.89,0-6.83-2.61-6.83-6.14c0-1.66,0.62-3.17,1.73-4.84l5.04-7.55h4.24L103.95,315.27z M101.08,321.29
		c0,1.77,1.37,2.99,3.17,2.99c1.83,0,3.2-1.22,3.2-2.99c0-1.75-1.37-2.99-3.2-2.99C102.44,318.3,101.08,319.53,101.08,321.29z"/>
	<path d="M126.88,313.84c0,2.09-1.21,3.39-2.78,4.12c1.79,0.7,3.22,2,3.22,4.23c0,3.32-3.2,5.28-7.11,5.28
		c-3.91,0-7.11-1.96-7.11-5.28c0-2.22,1.42-3.52,3.21-4.23c-1.57-0.73-2.77-2.03-2.77-4.12c0-3.28,2.99-5.23,6.67-5.23
		C123.89,308.61,126.88,310.56,126.88,313.84z M116.89,321.89c0,1.6,1.51,2.44,3.33,2.44c1.81,0,3.33-0.85,3.33-2.44
		c0-1.63-1.52-2.5-3.33-2.5C118.39,319.39,116.89,320.26,116.89,321.89z M117.28,314.11c0,1.56,1.31,2.39,2.94,2.39
		s2.94-0.83,2.94-2.39c0-1.51-1.31-2.33-2.94-2.33S117.28,312.6,117.28,314.11z"/>
</g>
<g>
	<path d="M86.55,413.16c0.55-0.72,1.59-1.75,3.48-1.75c2.13,0,3.46,1.34,3.46,3.29c0,1.25-0.63,2.11-1.47,2.98l-2.18,2.26h3.89v1.84
		H87v-1.54l3.6-3.69c0.54-0.55,0.84-1.11,0.84-1.75c0-0.89-0.62-1.52-1.56-1.52c-0.97,0-1.54,0.52-2.07,1.12L86.55,413.16z"/>
	<path d="M103.79,416.69c0,3.3-1.96,5.28-4.4,5.28c-2.44,0-4.39-1.98-4.39-5.28s1.95-5.28,4.39-5.28
		C101.83,411.41,103.79,413.39,103.79,416.69z M97.05,416.69c0,2.23,1.04,3.39,2.34,3.39c1.31,0,2.34-1.17,2.34-3.39
		c0-2.23-1.03-3.39-2.34-3.39C98.09,413.29,97.05,414.46,97.05,416.69z"/>
	<path d="M109.34,421.78h-1.97v-7.58l-2.44,0.99v-1.98l4.4-1.78V421.78z"/>
	<path d="M120.07,416.69c0,3.3-1.96,5.28-4.4,5.28c-2.44,0-4.39-1.98-4.39-5.28s1.95-5.28,4.39-5.28
		C118.1,411.41,120.07,413.39,120.07,416.69z M113.33,416.69c0,2.23,1.04,3.39,2.34,3.39c1.31,0,2.34-1.17,2.34-3.39
		c0-2.23-1.03-3.39-2.34-3.39C114.37,413.29,113.33,414.46,113.33,416.69z"/>
</g>
<g>
	<path d="M170.34,413.16c0.55-0.72,1.59-1.75,3.48-1.75c2.13,0,3.46,1.34,3.46,3.29c0,1.25-0.63,2.11-1.47,2.98l-2.18,2.26h3.89
		v1.84h-6.73v-1.54l3.6-3.69c0.54-0.55,0.84-1.11,0.84-1.75c0-0.89-0.62-1.52-1.56-1.52c-0.97,0-1.54,0.52-2.07,1.12L170.34,413.16z
		"/>
	<path d="M187.58,416.69c0,3.3-1.97,5.28-4.4,5.28c-2.44,0-4.39-1.98-4.39-5.28s1.95-5.28,4.39-5.28
		C185.61,411.41,187.58,413.39,187.58,416.69z M180.84,416.69c0,2.23,1.04,3.39,2.34,3.39c1.31,0,2.34-1.17,2.34-3.39
		c0-2.23-1.03-3.39-2.34-3.39C181.88,413.29,180.84,414.46,180.84,416.69z"/>
	<path d="M193.13,421.78h-1.97v-7.58l-2.44,0.99v-1.98l4.4-1.78V421.78z"/>
	<path d="M199.1,421.78h-1.97v-7.58l-2.44,0.99v-1.98l4.4-1.78V421.78z"/>
</g>
<g>
	<path d="M250.87,413.16c0.55-0.72,1.59-1.75,3.48-1.75c2.13,0,3.46,1.34,3.46,3.29c0,1.25-0.63,2.11-1.47,2.98l-2.18,2.26h3.89
		v1.84h-6.73v-1.54l3.6-3.69c0.54-0.55,0.84-1.11,0.84-1.75c0-0.89-0.62-1.52-1.56-1.52c-0.97,0-1.54,0.52-2.07,1.12L250.87,413.16z
		"/>
	<path d="M268.11,416.69c0,3.3-1.96,5.28-4.4,5.28c-2.44,0-4.39-1.98-4.39-5.28s1.95-5.28,4.39-5.28
		C266.14,411.41,268.11,413.39,268.11,416.69z M261.37,416.69c0,2.23,1.04,3.39,2.34,3.39c1.31,0,2.34-1.17,2.34-3.39
		c0-2.23-1.03-3.39-2.34-3.39C262.41,413.29,261.37,414.46,261.37,416.69z"/>
	<path d="M273.65,421.78h-1.97v-7.58l-2.44,0.99v-1.98l4.4-1.78V421.78z"/>
	<path d="M275.33,413.16c0.55-0.72,1.59-1.75,3.48-1.75c2.13,0,3.46,1.34,3.46,3.29c0,1.25-0.63,2.11-1.47,2.98l-2.18,2.26h3.89
		v1.84h-6.73v-1.54l3.6-3.69c0.54-0.55,0.84-1.11,0.84-1.75c0-0.89-0.62-1.52-1.56-1.52c-0.97,0-1.54,0.52-2.07,1.12L275.33,413.16z
		"/>
</g>
<g>
	<path d="M332.43,413.16c0.55-0.72,1.59-1.75,3.48-1.75c2.13,0,3.46,1.34,3.46,3.29c0,1.25-0.63,2.11-1.47,2.98l-2.18,2.26h3.89
		v1.84h-6.73v-1.54l3.6-3.69c0.54-0.55,0.84-1.11,0.84-1.75c0-0.89-0.62-1.52-1.56-1.52c-0.97,0-1.54,0.52-2.07,1.12L332.43,413.16z
		"/>
	<path d="M349.68,416.69c0,3.3-1.97,5.28-4.4,5.28c-2.44,0-4.39-1.98-4.39-5.28s1.95-5.28,4.39-5.28
		C347.71,411.41,349.68,413.39,349.68,416.69z M342.94,416.69c0,2.23,1.04,3.39,2.34,3.39c1.31,0,2.34-1.17,2.34-3.39
		c0-2.23-1.03-3.39-2.34-3.39C343.98,413.29,342.94,414.46,342.94,416.69z"/>
	<path d="M355.22,421.78h-1.97v-7.58l-2.44,0.99v-1.98l4.4-1.78V421.78z"/>
	<path d="M363.88,414.33c0,1.08-0.58,1.87-1.52,2.32c1.07,0.42,1.75,1.24,1.75,2.34c0,2.01-1.83,2.98-3.76,2.98
		c-1.53,0-2.79-0.55-3.56-1.48l1.17-1.29c0.59,0.62,1.44,0.98,2.31,0.98c0.99,0,1.78-0.43,1.78-1.33c0-0.87-0.9-1.33-2-1.33h-1.19
		v-1.75h1.19c0.99,0,1.78-0.44,1.78-1.3c0-0.82-0.74-1.27-1.69-1.27s-1.65,0.49-2.06,1.03l-1.24-1.24c0.67-0.9,1.78-1.58,3.4-1.58
		C362.42,411.41,363.88,412.57,363.88,414.33z"/>
</g>
<g>
	<path d="M413.98,413.16c0.55-0.72,1.59-1.75,3.48-1.75c2.13,0,3.46,1.34,3.46,3.29c0,1.25-0.63,2.11-1.47,2.98l-2.18,2.26h3.89
		v1.84h-6.73v-1.54l3.6-3.69c0.54-0.55,0.84-1.11,0.84-1.75c0-0.89-0.62-1.52-1.56-1.52c-0.97,0-1.54,0.52-2.07,1.12L413.98,413.16z
		"/>
	<path d="M431.23,416.69c0,3.3-1.97,5.28-4.4,5.28c-2.44,0-4.39-1.98-4.39-5.28s1.95-5.28,4.39-5.28
		C429.26,411.41,431.23,413.39,431.23,416.69z M424.49,416.69c0,2.23,1.04,3.39,2.34,3.39c1.31,0,2.34-1.17,2.34-3.39
		c0-2.23-1.04-3.39-2.34-3.39C425.53,413.29,424.49,414.46,424.49,416.69z"/>
	<path d="M436.77,421.78h-1.96v-7.58l-2.44,0.99v-1.98l4.4-1.78V421.78z"/>
	<path d="M444.75,418.08h1.42v1.83h-1.42v1.86h-1.96v-1.86h-4.52v-1.43l3.57-6.89h2.18l-3.41,6.49h2.17v-2.71h1.96V418.08z"/>
</g>
<g>
	<path d="M495.63,413.16c0.55-0.72,1.59-1.75,3.48-1.75c2.13,0,3.46,1.34,3.46,3.29c0,1.25-0.63,2.11-1.47,2.98l-2.18,2.26h3.89
		v1.84h-6.73v-1.54l3.6-3.69c0.54-0.55,0.84-1.11,0.84-1.75c0-0.89-0.62-1.52-1.56-1.52c-0.97,0-1.54,0.52-2.07,1.12L495.63,413.16z
		"/>
	<path d="M512.87,416.69c0,3.3-1.97,5.28-4.4,5.28c-2.44,0-4.39-1.98-4.39-5.28s1.95-5.28,4.39-5.28
		C510.9,411.41,512.87,413.39,512.87,416.69z M506.13,416.69c0,2.23,1.04,3.39,2.34,3.39c1.31,0,2.34-1.17,2.34-3.39
		c0-2.23-1.03-3.39-2.34-3.39C507.17,413.29,506.13,414.46,506.13,416.69z"/>
	<path d="M518.42,421.78h-1.97v-7.58l-2.44,0.99v-1.98l4.4-1.78V421.78z"/>
	<path d="M526.86,413.42h-4.13l-0.04,2.04h1.17c2.37,0,3.57,1.36,3.57,3.06c0,2.19-1.66,3.44-3.72,3.44c-1.52,0-2.77-0.57-3.61-1.52
		l1.11-1.38c0.55,0.6,1.55,1.08,2.49,1.08c1.14,0,1.7-0.67,1.7-1.48c0-0.76-0.48-1.43-2.07-1.43h-2.42l0.11-5.64h5.86V413.42z"/>
</g>
<g>
	<path d="M577.21,413.16c0.55-0.72,1.59-1.75,3.48-1.75c2.13,0,3.46,1.34,3.46,3.29c0,1.25-0.63,2.11-1.47,2.98l-2.18,2.26h3.89
		v1.84h-6.73v-1.54l3.6-3.69c0.54-0.55,0.84-1.11,0.84-1.75c0-0.89-0.62-1.52-1.56-1.52c-0.97,0-1.54,0.52-2.07,1.12L577.21,413.16z
		"/>
	<path d="M594.46,416.69c0,3.3-1.97,5.28-4.4,5.28c-2.44,0-4.39-1.98-4.39-5.28s1.95-5.28,4.39-5.28
		C592.49,411.41,594.46,413.39,594.46,416.69z M587.72,416.69c0,2.23,1.04,3.39,2.34,3.39c1.31,0,2.34-1.17,2.34-3.39
		c0-2.23-1.03-3.39-2.34-3.39C588.76,413.29,587.72,414.46,587.72,416.69z"/>
	<path d="M600,421.78h-1.97v-7.58l-2.44,0.99v-1.98l4.4-1.78V421.78z"/>
	<path d="M605.3,415.13c0.14-0.01,0.3-0.03,0.47-0.03c2.07,0,3.53,1.48,3.53,3.38c0,1.99-1.65,3.47-3.84,3.47
		c-2.18,0-3.82-1.46-3.82-3.44c0-0.93,0.35-1.78,0.97-2.71l2.82-4.23h2.37L605.3,415.13z M603.69,418.5c0,0.99,0.76,1.67,1.78,1.67
		c1.03,0,1.79-0.68,1.79-1.67c0-0.98-0.76-1.67-1.79-1.67C604.46,416.83,603.69,417.52,603.69,418.5z"/>
</g>
<g>
	<path d="M659.14,413.16c0.55-0.72,1.59-1.75,3.48-1.75c2.13,0,3.46,1.34,3.46,3.29c0,1.25-0.63,2.11-1.47,2.98l-2.18,2.26h3.89
		v1.84h-6.73v-1.54l3.6-3.69c0.54-0.55,0.84-1.11,0.84-1.75c0-0.89-0.62-1.52-1.56-1.52c-0.97,0-1.54,0.52-2.07,1.12L659.14,413.16z
		"/>
	<path d="M676.38,416.69c0,3.3-1.96,5.28-4.4,5.28c-2.44,0-4.39-1.98-4.39-5.28s1.95-5.28,4.39-5.28
		C674.42,411.41,676.38,413.39,676.38,416.69z M669.64,416.69c0,2.23,1.04,3.39,2.34,3.39c1.31,0,2.34-1.17,2.34-3.39
		c0-2.23-1.03-3.39-2.34-3.39C670.68,413.29,669.64,414.46,669.64,416.69z"/>
	<path d="M681.93,421.78h-1.97v-7.58l-2.44,0.99v-1.98l4.4-1.78V421.78z"/>
	<path d="M690.76,413.13l-4.22,8.65h-2.31l4.19-8.36h-4.84v-1.83h7.18V413.13z"/>
</g>
<g>
	<path d="M740.16,413.16c0.55-0.72,1.59-1.75,3.48-1.75c2.13,0,3.46,1.34,3.46,3.29c0,1.25-0.63,2.11-1.47,2.98l-2.18,2.26h3.89
		v1.84h-6.73v-1.54l3.6-3.69c0.54-0.55,0.84-1.11,0.84-1.75c0-0.89-0.62-1.52-1.56-1.52c-0.97,0-1.54,0.52-2.07,1.12L740.16,413.16z
		"/>
	<path d="M757.4,416.69c0,3.3-1.96,5.28-4.4,5.28c-2.44,0-4.39-1.98-4.39-5.28s1.95-5.28,4.39-5.28
		C755.44,411.41,757.4,413.39,757.4,416.69z M750.66,416.69c0,2.23,1.04,3.39,2.34,3.39c1.31,0,2.34-1.17,2.34-3.39
		c0-2.23-1.03-3.39-2.34-3.39C751.71,413.29,750.66,414.46,750.66,416.69z"/>
	<path d="M762.95,421.78h-1.97v-7.58l-2.44,0.99v-1.98l4.4-1.78V421.78z"/>
	<path d="M772.5,414.33c0,1.17-0.68,1.9-1.56,2.31c1,0.39,1.8,1.12,1.8,2.37c0,1.86-1.79,2.96-3.98,2.96c-2.19,0-3.98-1.1-3.98-2.96
		c0-1.24,0.79-1.97,1.8-2.37c-0.88-0.41-1.55-1.14-1.55-2.31c0-1.83,1.67-2.93,3.73-2.93C770.82,411.41,772.5,412.5,772.5,414.33z
		 M766.9,418.84c0,0.9,0.84,1.37,1.86,1.37c1.01,0,1.86-0.47,1.86-1.37c0-0.91-0.85-1.4-1.86-1.4
		C767.75,417.44,766.9,417.93,766.9,418.84z M767.12,414.49c0,0.87,0.74,1.34,1.65,1.34c0.91,0,1.64-0.47,1.64-1.34
		c0-0.84-0.74-1.3-1.64-1.3C767.86,413.18,767.12,413.64,767.12,414.49z"/>
</g>
<g>
	<path d="M822.12,413.16c0.55-0.72,1.59-1.75,3.48-1.75c2.13,0,3.46,1.34,3.46,3.29c0,1.25-0.63,2.11-1.47,2.98l-2.18,2.26h3.89
		v1.84h-6.73v-1.54l3.6-3.69c0.54-0.55,0.84-1.11,0.84-1.75c0-0.89-0.62-1.52-1.56-1.52c-0.97,0-1.54,0.52-2.07,1.12L822.12,413.16z
		"/>
	<path d="M839.37,416.69c0,3.3-1.96,5.28-4.4,5.28c-2.44,0-4.39-1.98-4.39-5.28s1.95-5.28,4.39-5.28
		C837.4,411.41,839.37,413.39,839.37,416.69z M832.63,416.69c0,2.23,1.04,3.39,2.34,3.39c1.31,0,2.34-1.17,2.34-3.39
		c0-2.23-1.03-3.39-2.34-3.39C833.67,413.29,832.63,414.46,832.63,416.69z"/>
	<path d="M844.91,421.78h-1.97v-7.58l-2.44,0.99v-1.98l4.4-1.78V421.78z"/>
	<path d="M850.57,418.24c-0.14,0.02-0.28,0.03-0.46,0.03c-2.07,0-3.53-1.48-3.53-3.38c0-1.99,1.64-3.47,3.83-3.47
		c2.18,0,3.83,1.46,3.83,3.44c0,0.93-0.35,1.78-0.97,2.71l-2.82,4.23h-2.37L850.57,418.24z M852.2,414.87
		c0-0.99-0.76-1.67-1.78-1.67c-1.03,0-1.78,0.68-1.78,1.67c0,0.98,0.76,1.67,1.78,1.67C851.43,416.54,852.2,415.85,852.2,414.87z"/>
</g>
<g>
	<path d="M885.14,413.16c0.55-0.72,1.59-1.75,3.48-1.75c2.13,0,3.46,1.34,3.46,3.29c0,1.25-0.63,2.11-1.47,2.98l-2.18,2.26h3.89
		v1.84h-6.73v-1.54l3.6-3.69c0.54-0.55,0.84-1.11,0.84-1.75c0-0.89-0.62-1.52-1.56-1.52c-0.97,0-1.54,0.52-2.07,1.12L885.14,413.16z
		"/>
	<path d="M902.39,416.69c0,3.3-1.96,5.28-4.4,5.28c-2.44,0-4.39-1.98-4.39-5.28s1.95-5.28,4.39-5.28
		C900.42,411.41,902.39,413.39,902.39,416.69z M895.65,416.69c0,2.23,1.04,3.39,2.34,3.39c1.31,0,2.34-1.17,2.34-3.39
		c0-2.23-1.03-3.39-2.34-3.39C896.69,413.29,895.65,414.46,895.65,416.69z"/>
	<path d="M903.41,413.16c0.55-0.72,1.59-1.75,3.48-1.75c2.13,0,3.46,1.34,3.46,3.29c0,1.25-0.63,2.11-1.47,2.98l-2.18,2.26h3.89
		v1.84h-6.73v-1.54l3.6-3.69c0.54-0.55,0.84-1.11,0.84-1.75c0-0.89-0.62-1.52-1.56-1.52c-0.97,0-1.54,0.52-2.07,1.12L903.41,413.16z
		"/>
	<path d="M920.66,416.69c0,3.3-1.97,5.28-4.4,5.28c-2.44,0-4.39-1.98-4.39-5.28s1.95-5.28,4.39-5.28
		C918.69,411.41,920.66,413.39,920.66,416.69z M913.92,416.69c0,2.23,1.04,3.39,2.34,3.39c1.31,0,2.34-1.17,2.34-3.39
		c0-2.23-1.04-3.39-2.34-3.39C914.96,413.29,913.92,414.46,913.92,416.69z"/>
	<path d="M930.68,417.76v4.02h-2.03v-4.03l-3.92-6.16h2.39l2.56,4.32l2.56-4.32h2.31L930.68,417.76z"/>
	<path d="M943.39,413.49h-3.16v8.29h-2.03v-8.29h-3.16v-1.9h8.35V413.49z"/>
	<path d="M948.98,411.59c3.19,0,5.29,2.02,5.29,5.09s-2.1,5.09-5.29,5.09h-4.2v-10.19H948.98z M946.81,413.49v6.39h2.15
		c2.15,0,3.19-1.35,3.19-3.2c0-1.87-1.04-3.2-3.19-3.2H946.81z"/>
</g>
</svg>
