<?xml version="1.0" encoding="utf-8"?>
<!-- Generator: Adobe Illustrator 24.3.0, SVG Export Plug-In . SVG Version: 6.00 Build 0)  -->
<svg version="1.1" id="Layer_1" xmlns="http://www.w3.org/2000/svg" xmlns:xlink="http://www.w3.org/1999/xlink" x="0px" y="0px"
	 viewBox="0 0 250 250" style="enable-background:new 0 0 250 250;" xml:space="preserve">
<style type="text/css">
	.st0{fill:#ED5B36;}
	.st1{fill:#FFFFFF;}
	.st2{fill:#203232;}
	.st3{fill:none;}
</style>
<polygon class="st0" points="141.3,159.4 149.3,159.2 149,187 142.7,186.8 "/>
<g>
	<path class="st0" d="M129.9,168.5H78.5V74.1c0-3.1,2.5-5.6,5.6-5.6h60.3l6.3-6.8l7.7,4.1v76.3l-28.4-2.6V168.5z"/>
</g>
<circle class="st1" cx="146.4" cy="115.3" r="34.3"/>
<circle class="st0" cx="145.1" cy="119.2" r="30.3"/>
<circle class="st1" cx="145.4" cy="119" r="20.2"/>
<g>
	<path class="st2" d="M145.7,150.7c-9.4,0-18.8-4.2-25-12.1c-10.8-13.8-8.5-33.8,5.3-44.7l0,0c6.7-5.3,15-7.6,23.4-6.6
		c8.4,1,16,5.2,21.2,11.9c5.3,6.7,7.6,15,6.6,23.4c-1,8.4-5.2,16-11.9,21.2C159.5,148.5,152.6,150.7,145.7,150.7z M128.1,96.6
		c-12.3,9.7-14.4,27.5-4.7,39.8c9.7,12.3,27.5,14.4,39.8,4.7c6-4.7,9.7-11.4,10.6-18.9c0.9-7.5-1.2-14.9-5.9-20.9
		c-4.7-6-11.4-9.7-18.9-10.6C141.5,89.8,134.1,91.9,128.1,96.6L128.1,96.6z"/>
	<g>
		<path class="st2" d="M138.7,188.7l0.5-32H150l0.6,32.1L138.7,188.7z M141.8,160.3l-1.3,25.1l7.8,0.2v-25.3L141.8,160.3z"/>
	</g>
	<g>
		<path class="st2" d="M146.9,138.9c-1.9,0-3.8-0.3-5.7-0.8c-1.8-0.5-3.6-1.4-5.2-2.3c-1.6-1-3.1-2.3-4.4-3.7l-0.9-1.2
			c-0.4-0.4-0.6-0.8-0.9-1.2c-0.5-0.7-1-1.6-1.4-2.4c-0.8-1.7-1.4-3.6-1.8-5.5c-0.6-3.8-0.2-7.7,1.1-11.2c1.4-3.5,3.6-6.5,6.4-8.7
			c0.7-0.5,1.3-1.1,2.1-1.5c0.4-0.2,0.7-0.4,1.1-0.7c0.4-0.2,0.8-0.4,1.1-0.5c1.5-0.7,3.1-1.1,4.6-1.5c0.2,0,0.4-0.1,0.7-0.1
			c-0.8,0-1.5,0-2.3,0.1c-3.1,0.3-6.3,1.4-9.4,3.3c-3,1.9-5.8,4.8-7.6,8.4c-0.9,1.8-1.5,3.8-1.9,5.9c-0.4,2.1-0.4,4.2-0.2,6.4
			c0.3,2.1,0.9,4.3,1.8,6.3c0.5,1,1,2,1.6,2.9c0.3,0.5,0.6,1,1,1.3l1,1.3c1.5,1.6,3.2,3,5.1,4.2c1.9,1.1,3.9,1.9,6.1,2.4
			c2.1,0.4,4.2,0.7,6.3,0.5c2.1-0.2,4.1-0.6,6-1.3c1.8-0.7,3.5-1.6,5-2.7c-1.2,0.6-2.5,1.1-3.8,1.5
			C150.7,138.7,148.8,138.9,146.9,138.9z"/>
		<path class="st3" d="M157.5,135.1c0.4-0.3,0.7-0.6,1.1-1c0.3-0.3,0.7-0.6,1-1c2.4-2.7,4-5.7,4.9-8.7c0.8-3,1-5.8,0.7-8.3
			c-0.3-2.5-1-4.5-1.7-6.1c-0.2-0.4-0.4-0.8-0.5-1.1c-0.2-0.4-0.4-0.7-0.5-1c-0.3-0.6-0.6-1.1-0.9-1.5c-0.5-0.8-0.8-1.2-0.8-1.2
			s-0.3-0.4-0.9-1.1c-0.3-0.4-0.7-0.8-1.2-1.2c-0.3-0.2-0.5-0.5-0.8-0.7c-0.3-0.2-0.6-0.5-1-0.8c-1.4-1-3.2-2.2-5.6-3
			c-1.7-0.6-3.7-1.1-5.9-1.2c-0.2,0-0.4,0-0.7,0c-1.6,0.2-3.2,0.5-4.7,1.2c-0.4,0.2-0.8,0.3-1.2,0.5c-0.4,0.2-0.8,0.4-1.1,0.6
			c-0.8,0.4-1.5,0.9-2.2,1.3c-3,2.1-5.4,4.9-7,8.3c-1.6,3.4-2.2,7.3-1.9,11.1c0.2,1.9,0.7,3.8,1.4,5.6c0.4,0.9,0.8,1.8,1.3,2.5
			c0.2,0.4,0.4,0.8,0.8,1.2l0.9,1.2c1.2,1.5,2.6,2.8,4.2,4c1.6,1.1,3.3,2,5.1,2.7c1.8,0.6,3.7,1,5.6,1.2c1.9,0.1,3.8,0,5.6-0.4
			c1.3-0.3,2.7-0.7,3.9-1.3c0.1,0,0.1-0.1,0.2-0.1C156.2,136.2,156.8,135.6,157.5,135.1z"/>
	</g>
	<g>
		<g>
			<g>
				<path class="st2" d="M146.3,83.3h-5.4v-13c0-5.9,4.8-10.8,10.8-10.8s10.8,4.8,10.8,10.8V79h-10.8v-5.4h5.4v-3.3
					c0-3-2.4-5.4-5.4-5.4c-3,0-5.4,2.4-5.4,5.4V83.3z"/>
			</g>
			<g>
				<path class="st2" d="M130.1,171.8H67.7V70.3c0-5.9,4.8-10.8,10.8-10.8h73.2v5.4H78.5c-3,0-5.4,2.4-5.4,5.4v96h57V171.8z"/>
			</g>
		</g>
		<g>
			<rect x="78.5" y="103.2" class="st2" width="5.4" height="47"/>
		</g>
		<g>
			<rect x="89.3" y="125.3" class="st2" width="5.4" height="24.9"/>
		</g>
		<g>
			<rect x="100.1" y="110.9" class="st2" width="5.4" height="39.3"/>
		</g>
		<g>
			<rect x="110.9" y="142.1" class="st2" width="5.4" height="8.1"/>
		</g>
		<g>
			<rect x="142.4" y="148.7" class="st2" width="5.4" height="8.1"/>
		</g>
		<g>
			<rect x="78.5" y="155.6" class="st2" width="5.4" height="5.4"/>
		</g>
		<g>
			<rect x="89.3" y="155.6" class="st2" width="5.4" height="5.4"/>
		</g>
		<g>
			<rect x="100.1" y="155.6" class="st2" width="5.4" height="5.4"/>
		</g>
		<g>
			<rect x="110.9" y="155.6" class="st2" width="5.4" height="5.4"/>
		</g>
	</g>
</g>
<g>
	<path class="st1" d="M95.9,74.3v2.9c2.6,0.2,4.6,1,6.5,2.2l-1.9,3.3c-1.3-0.8-2.8-1.4-4.5-1.7V86c3.8,0.6,6.7,2.3,6.7,5.8
		c-0.1,3.8-3,5.9-6.7,6.4v3.1h-3.4v-3c-2.7-0.2-5.5-1.1-7.4-2.6l2.1-3.3c1.2,0.9,3.1,1.8,5.3,2.1v-5l-0.2,0
		c-3.8-0.6-6.5-2.2-6.5-5.9c0.1-3.5,2.8-5.8,6.6-6.3v-2.9H95.9z M92.5,85.4v-4.3c-1.4,0.3-2.3,1.1-2.4,2.2
		C90.1,84.4,90.9,85,92.5,85.4z M95.9,90.1v4.3c1.4-0.3,2.4-1.1,2.4-2.3C98.3,91.1,97.5,90.5,95.9,90.1z"/>
</g>
<g>
	<path class="st0" d="M143.5,113.1c0,3.4-2.6,5.9-6.1,5.9c-3.5,0-6-2.5-6-5.9c0-3.4,2.6-5.9,6-5.9
		C140.9,107.2,143.5,109.7,143.5,113.1z M134.8,113.1c0,1.6,1.1,2.7,2.6,2.7c1.5,0,2.6-1.1,2.6-2.7c0-1.5-1.1-2.7-2.6-2.7
		C135.9,110.4,134.8,111.6,134.8,113.1z M140.3,129.3h-4.1l14.6-21.7h4L140.3,129.3z M159.8,123.8c0,3.4-2.6,5.9-6.1,5.9
		c-3.5,0-6-2.5-6-5.9c0-3.3,2.6-5.9,6-5.9C157.2,117.8,159.8,120.4,159.8,123.8z M151.1,123.8c0,1.6,1.1,2.7,2.6,2.7
		c1.5,0,2.6-1.1,2.6-2.7c0-1.6-1.1-2.7-2.6-2.7C152.2,121.1,151.1,122.2,151.1,123.8z"/>
</g>
</svg>
