<?xml version="1.0" encoding="utf-8"?>
<!-- Generator: Adobe Illustrator 24.3.0, SVG Export Plug-In . SVG Version: 6.00 Build 0)  -->
<svg version="1.1" id="Layer_1" xmlns="http://www.w3.org/2000/svg" xmlns:xlink="http://www.w3.org/1999/xlink" x="0px" y="0px"
	 viewBox="0 0 1200 440" style="enable-background:new 0 0 1200 440;" xml:space="preserve">
<style type="text/css">
	.st0{opacity:0.35;}
	.st1{fill:none;}
	.st2{fill:none;stroke:#203232;stroke-width:2;stroke-miterlimit:10;}
	.st3{fill:#203232;}
	.st4{fill:none;stroke:#D02259;stroke-width:4;stroke-linecap:round;stroke-miterlimit:10;}
</style>
<g class="st0">
	<g>
		<line class="st1" x1="39.2" y1="397" x2="1198.9" y2="397"/>
		<line class="st1" x1="39.2" y1="345.6" x2="1198.9" y2="345.6"/>
		<line class="st1" x1="39.2" y1="294.3" x2="1198.9" y2="294.3"/>
		<line class="st1" x1="39.2" y1="242.9" x2="1198.9" y2="242.9"/>
		<line class="st1" x1="39.2" y1="191.6" x2="1198.9" y2="191.6"/>
		<line class="st1" x1="39.2" y1="140.2" x2="1198.9" y2="140.2"/>
		<line class="st1" x1="39.2" y1="88.9" x2="1198.9" y2="88.9"/>
		<line class="st1" x1="39.2" y1="37.5" x2="1198.9" y2="37.5"/>
	</g>
</g>
<line class="st2" x1="39.2" y1="397" x2="1198.9" y2="397"/>
<g>
	<path class="st3" d="M23.8,394.6c0,3.2-2,5.1-4.4,5.1c-2.5,0-4.4-1.9-4.4-5.1s2-5.1,4.4-5.1S23.8,391.4,23.8,394.6z M17,394.6
		c0,2.1,1,3.3,2.4,3.3c1.3,0,2.4-1.1,2.4-3.3c0-2.1-1-3.3-2.4-3.3C18,391.3,17,392.4,17,394.6z"/>
</g>
<g>
	<path class="st3" d="M24.7,418.3v4.3h-1.9v-3.7c0-1-0.5-1.5-1.4-1.5c-0.8,0-1.5,0.5-1.5,1.5v3.7H18v-6.8h1.9v0.8
		c0.5-0.7,1.3-1,2.1-1C23.5,415.6,24.7,416.7,24.7,418.3z"/>
	<path class="st3" d="M33.9,419.2c0,2-1.6,3.6-3.8,3.6s-3.8-1.5-3.8-3.6c0-2,1.6-3.6,3.8-3.6C32.2,415.6,33.9,417.1,33.9,419.2z
		 M28.1,419.2c0,1.1,0.8,1.9,1.9,1.9s1.9-0.8,1.9-1.9s-0.8-1.9-1.9-1.9S28.1,418.1,28.1,419.2z"/>
	<path class="st3" d="M39.6,422.6h-2.2l-2.8-6.8h2.1l1.8,4.9l1.9-4.9h2L39.6,422.6z"/>
	<path class="st3" d="M45.9,421.4c0,0.7-0.7,1.4-1.4,1.4c-0.8,0-1.4-0.6-1.4-1.4c0-0.7,0.7-1.4,1.4-1.4
		C45.3,420,45.9,420.7,45.9,421.4z"/>
	<path class="st3" d="M50.7,414.3c0.6-0.7,1.6-1.7,3.5-1.7c2.1,0,3.5,1.3,3.5,3.2c0,1.2-0.6,2-1.5,2.9l-2.2,2.2h3.9v1.8h-6.8v-1.5
		l3.6-3.6c0.5-0.5,0.8-1.1,0.8-1.7c0-0.9-0.6-1.5-1.6-1.5s-1.6,0.5-2.1,1.1L50.7,414.3z"/>
	<path class="st3" d="M68,417.7c0,3.2-2,5.1-4.4,5.1c-2.5,0-4.4-1.9-4.4-5.1s2-5.1,4.4-5.1S68,414.5,68,417.7z M61.2,417.7
		c0,2.1,1,3.3,2.4,3.3c1.3,0,2.4-1.1,2.4-3.3c0-2.1-1-3.3-2.4-3.3C62.3,414.4,61.2,415.5,61.2,417.7z"/>
	<path class="st3" d="M73.6,422.6h-2v-7.3l-2.5,1v-1.9l4.4-1.7L73.6,422.6L73.6,422.6z"/>
	<path class="st3" d="M82.1,414.5h-4.2v2h1.2c2.4,0,3.6,1.3,3.6,2.9c0,2.1-1.7,3.3-3.7,3.3c-1.5,0-2.8-0.5-3.6-1.5l1.1-1.3
		c0.6,0.6,1.6,1,2.5,1c1.1,0,1.7-0.6,1.7-1.4c0-0.7-0.5-1.4-2.1-1.4h-2.4l0.1-5.4h5.9L82.1,414.5L82.1,414.5z"/>
</g>
<g>
	<path class="st3" d="M247.8,418.3v4.3h-1.9v-3.7c0-1-0.5-1.5-1.4-1.5c-0.8,0-1.5,0.5-1.5,1.5v3.7h-1.9v-6.8h1.9v0.8
		c0.5-0.7,1.3-1,2.1-1C246.7,415.6,247.8,416.7,247.8,418.3z"/>
	<path class="st3" d="M257,419.2c0,2-1.6,3.6-3.8,3.6s-3.8-1.5-3.8-3.6c0-2,1.6-3.6,3.8-3.6S257,417.1,257,419.2z M251.3,419.2
		c0,1.1,0.8,1.9,1.9,1.9s1.9-0.8,1.9-1.9s-0.8-1.9-1.9-1.9S251.3,418.1,251.3,419.2z"/>
	<path class="st3" d="M262.7,422.6h-2.2l-2.8-6.8h2.1l1.8,4.9l1.9-4.9h2L262.7,422.6z"/>
	<path class="st3" d="M269.1,421.4c0,0.7-0.7,1.4-1.4,1.4c-0.8,0-1.4-0.6-1.4-1.4c0-0.7,0.7-1.4,1.4-1.4
		C268.5,420,269.1,420.7,269.1,421.4z"/>
	<path class="st3" d="M273.8,414.3c0.6-0.7,1.6-1.7,3.5-1.7c2.1,0,3.5,1.3,3.5,3.2c0,1.2-0.6,2-1.5,2.9l-2.2,2.2h3.9v1.8h-6.8v-1.5
		l3.6-3.6c0.5-0.5,0.8-1.1,0.8-1.7c0-0.9-0.6-1.5-1.6-1.5s-1.6,0.5-2.1,1.1L273.8,414.3z"/>
	<path class="st3" d="M291.2,417.7c0,3.2-2,5.1-4.4,5.1c-2.5,0-4.4-1.9-4.4-5.1s2-5.1,4.4-5.1S291.2,414.5,291.2,417.7z
		 M284.4,417.7c0,2.1,1,3.3,2.4,3.3c1.3,0,2.4-1.1,2.4-3.3c0-2.1-1-3.3-2.4-3.3C285.5,414.4,284.4,415.5,284.4,417.7z"/>
	<path class="st3" d="M296.8,422.6h-2v-7.3l-2.5,1v-1.9l4.4-1.7v9.9H296.8z"/>
	<path class="st3" d="M302.1,416.2c0.1,0,0.3,0,0.5,0c2.1,0,3.6,1.4,3.6,3.3s-1.7,3.3-3.9,3.3c-2.2,0-3.8-1.4-3.8-3.3
		c0-0.9,0.4-1.7,1-2.6l2.8-4.1h2.4L302.1,416.2z M300.5,419.4c0,1,0.8,1.6,1.8,1.6s1.8-0.7,1.8-1.6s-0.8-1.6-1.8-1.6
		S300.5,418.5,300.5,419.4z"/>
</g>
<g>
	<path class="st3" d="M471.4,418.3v4.3h-1.9v-3.7c0-1-0.5-1.5-1.4-1.5c-0.8,0-1.5,0.5-1.5,1.5v3.7h-1.9v-6.8h1.9v0.8
		c0.5-0.7,1.3-1,2.1-1C470.2,415.6,471.4,416.7,471.4,418.3z"/>
	<path class="st3" d="M480.6,419.2c0,2-1.6,3.6-3.8,3.6c-2.2,0-3.8-1.5-3.8-3.6c0-2,1.6-3.6,3.8-3.6
		C478.9,415.6,480.6,417.1,480.6,419.2z M474.8,419.2c0,1.1,0.8,1.9,1.9,1.9s1.9-0.8,1.9-1.9s-0.8-1.9-1.9-1.9
		C475.6,417.3,474.8,418.1,474.8,419.2z"/>
	<path class="st3" d="M486.3,422.6h-2.2l-2.8-6.8h2.1l1.8,4.9l1.9-4.9h2L486.3,422.6z"/>
	<path class="st3" d="M492.6,421.4c0,0.7-0.7,1.4-1.4,1.4c-0.8,0-1.4-0.6-1.4-1.4c0-0.7,0.7-1.4,1.4-1.4
		C492,420,492.6,420.7,492.6,421.4z"/>
	<path class="st3" d="M497.4,414.3c0.6-0.7,1.6-1.7,3.5-1.7c2.1,0,3.5,1.3,3.5,3.2c0,1.2-0.6,2-1.5,2.9l-2.2,2.2h3.9v1.8h-6.8v-1.5
		l3.6-3.6c0.5-0.5,0.8-1.1,0.8-1.7c0-0.9-0.6-1.5-1.6-1.5s-1.6,0.5-2.1,1.1L497.4,414.3z"/>
	<path class="st3" d="M514.7,417.7c0,3.2-2,5.1-4.4,5.1c-2.5,0-4.4-1.9-4.4-5.1s2-5.1,4.4-5.1S514.7,414.5,514.7,417.7z
		 M507.9,417.7c0,2.1,1,3.3,2.4,3.3c1.3,0,2.4-1.1,2.4-3.3c0-2.1-1-3.3-2.4-3.3C509,414.4,507.9,415.5,507.9,417.7z"/>
	<path class="st3" d="M520.3,422.6h-2v-7.3l-2.5,1v-1.9l4.4-1.7L520.3,422.6L520.3,422.6z"/>
	<path class="st3" d="M529.2,414.3l-4.2,8.3h-2.3l4.2-8H522v-1.8h7.2V414.3z"/>
</g>
<g>
	<path class="st3" d="M694,418.3v4.3h-1.9v-3.7c0-1-0.5-1.5-1.4-1.5c-0.8,0-1.5,0.5-1.5,1.5v3.7h-1.9v-6.8h1.9v0.8
		c0.5-0.7,1.3-1,2.1-1C692.8,415.6,694,416.7,694,418.3z"/>
	<path class="st3" d="M703.2,419.2c0,2-1.6,3.6-3.8,3.6s-3.8-1.5-3.8-3.6c0-2,1.6-3.6,3.8-3.6C701.6,415.6,703.2,417.1,703.2,419.2z
		 M697.5,419.2c0,1.1,0.8,1.9,1.9,1.9c1.1,0,1.9-0.8,1.9-1.9s-0.8-1.9-1.9-1.9C698.3,417.3,697.5,418.1,697.5,419.2z"/>
	<path class="st3" d="M708.9,422.6h-2.2l-2.8-6.8h2.1l1.8,4.9l1.9-4.9h2L708.9,422.6z"/>
	<path class="st3" d="M715.3,421.4c0,0.7-0.7,1.4-1.4,1.4c-0.8,0-1.4-0.6-1.4-1.4c0-0.7,0.7-1.4,1.4-1.4S715.3,420.7,715.3,421.4z"
		/>
	<path class="st3" d="M720,414.3c0.6-0.7,1.6-1.7,3.5-1.7c2.1,0,3.5,1.3,3.5,3.2c0,1.2-0.6,2-1.5,2.9l-2.2,2.2h3.9v1.8h-6.8v-1.5
		l3.6-3.6c0.5-0.5,0.8-1.1,0.8-1.7c0-0.9-0.6-1.5-1.6-1.5s-1.6,0.5-2.1,1.1L720,414.3z"/>
	<path class="st3" d="M737.3,417.7c0,3.2-2,5.1-4.4,5.1c-2.5,0-4.4-1.9-4.4-5.1s2-5.1,4.4-5.1C735.4,412.6,737.3,414.5,737.3,417.7z
		 M730.6,417.7c0,2.1,1,3.3,2.4,3.3c1.3,0,2.4-1.1,2.4-3.3c0-2.1-1-3.3-2.4-3.3C731.6,414.4,730.6,415.5,730.6,417.7z"/>
	<path class="st3" d="M742.9,422.6h-2v-7.3l-2.5,1v-1.9l4.4-1.7L742.9,422.6L742.9,422.6z"/>
	<path class="st3" d="M752.5,415.4c0,1.1-0.7,1.8-1.6,2.2c1,0.4,1.8,1.1,1.8,2.3c0,1.8-1.8,2.8-4,2.8s-4-1.1-4-2.8
		c0-1.2,0.8-1.9,1.8-2.3c-0.9-0.4-1.6-1.1-1.6-2.2c0-1.8,1.7-2.8,3.8-2.8S752.5,413.6,752.5,415.4z M746.9,419.7
		c0,0.9,0.8,1.3,1.9,1.3c1,0,1.9-0.5,1.9-1.3c0-0.9-0.9-1.3-1.9-1.3C747.7,418.4,746.9,418.9,746.9,419.7z M747.1,415.6
		c0,0.8,0.7,1.3,1.7,1.3c0.9,0,1.7-0.4,1.7-1.3c0-0.8-0.7-1.3-1.7-1.3C747.9,414.3,747.1,414.7,747.1,415.6z"/>
</g>
<g>
	<path class="st3" d="M917.6,418.3v4.3h-1.9v-3.7c0-1-0.5-1.5-1.4-1.5c-0.8,0-1.5,0.5-1.5,1.5v3.7h-1.9v-6.8h1.9v0.8
		c0.5-0.7,1.3-1,2.1-1C916.4,415.6,917.6,416.7,917.6,418.3z"/>
	<path class="st3" d="M926.7,419.2c0,2-1.6,3.6-3.8,3.6s-3.8-1.5-3.8-3.6c0-2,1.6-3.6,3.8-3.6C925.1,415.6,926.7,417.1,926.7,419.2z
		 M921,419.2c0,1.1,0.8,1.9,1.9,1.9c1.1,0,1.9-0.8,1.9-1.9s-0.8-1.9-1.9-1.9C921.8,417.3,921,418.1,921,419.2z"/>
	<path class="st3" d="M932.5,422.6h-2.2l-2.8-6.8h2.1l1.8,4.9l1.9-4.9h2L932.5,422.6z"/>
	<path class="st3" d="M938.8,421.4c0,0.7-0.7,1.4-1.4,1.4c-0.8,0-1.4-0.6-1.4-1.4c0-0.7,0.7-1.4,1.4-1.4
		C938.2,420,938.8,420.7,938.8,421.4z"/>
	<path class="st3" d="M943.5,414.3c0.6-0.7,1.6-1.7,3.5-1.7c2.1,0,3.5,1.3,3.5,3.2c0,1.2-0.6,2-1.5,2.9l-2.2,2.2h3.9v1.8H944v-1.5
		l3.6-3.6c0.5-0.5,0.8-1.1,0.8-1.7c0-0.9-0.6-1.5-1.6-1.5s-1.6,0.5-2.1,1.1L943.5,414.3z"/>
	<path class="st3" d="M960.9,417.7c0,3.2-2,5.1-4.4,5.1c-2.5,0-4.4-1.9-4.4-5.1s2-5.1,4.4-5.1S960.9,414.5,960.9,417.7z
		 M954.1,417.7c0,2.1,1,3.3,2.4,3.3c1.3,0,2.4-1.1,2.4-3.3c0-2.1-1-3.3-2.4-3.3C955.2,414.4,954.1,415.5,954.1,417.7z"/>
	<path class="st3" d="M966.5,422.6h-2v-7.3l-2.5,1v-1.9l4.4-1.7L966.5,422.6L966.5,422.6z"/>
	<path class="st3" d="M972.2,419.2c-0.1,0-0.3,0-0.5,0c-2.1,0-3.6-1.4-3.6-3.3s1.6-3.3,3.9-3.3c2.2,0,3.9,1.4,3.9,3.3
		c0,0.9-0.4,1.7-1,2.6l-2.8,4.1h-2.4L972.2,419.2z M973.8,415.9c0-1-0.8-1.6-1.8-1.6s-1.8,0.7-1.8,1.6s0.8,1.6,1.8,1.6
		S973.8,416.9,973.8,415.9z"/>
</g>
<g>
	<path class="st3" d="M1134.8,418.3v4.3h-1.9v-3.7c0-1-0.5-1.5-1.4-1.5c-0.8,0-1.5,0.5-1.5,1.5v3.7h-1.9v-6.8h1.9v0.8
		c0.5-0.7,1.3-1,2.1-1C1133.7,415.6,1134.8,416.7,1134.8,418.3z"/>
	<path class="st3" d="M1144,419.2c0,2-1.6,3.6-3.8,3.6c-2.2,0-3.8-1.5-3.8-3.6c0-2,1.6-3.6,3.8-3.6S1144,417.1,1144,419.2z
		 M1138.3,419.2c0,1.1,0.8,1.9,1.9,1.9s1.9-0.8,1.9-1.9s-0.8-1.9-1.9-1.9C1139.1,417.3,1138.3,418.1,1138.3,419.2z"/>
	<path class="st3" d="M1149.7,422.6h-2.2l-2.8-6.8h2.1l1.8,4.9l1.9-4.9h2L1149.7,422.6z"/>
	<path class="st3" d="M1156.1,421.4c0,0.7-0.7,1.4-1.4,1.4c-0.8,0-1.4-0.6-1.4-1.4c0-0.7,0.7-1.4,1.4-1.4S1156.1,420.7,1156.1,421.4
		z"/>
	<path class="st3" d="M1160.8,414.3c0.6-0.7,1.6-1.7,3.5-1.7c2.1,0,3.5,1.3,3.5,3.2c0,1.2-0.6,2-1.5,2.9l-2.2,2.2h3.9v1.8h-6.8v-1.5
		l3.6-3.6c0.5-0.5,0.8-1.1,0.8-1.7c0-0.9-0.6-1.5-1.6-1.5s-1.6,0.5-2.1,1.1L1160.8,414.3z"/>
	<path class="st3" d="M1178.2,417.7c0,3.2-2,5.1-4.4,5.1c-2.5,0-4.4-1.9-4.4-5.1s2-5.1,4.4-5.1S1178.2,414.5,1178.2,417.7z
		 M1171.4,417.7c0,2.1,1,3.3,2.4,3.3c1.3,0,2.4-1.1,2.4-3.3c0-2.1-1-3.3-2.4-3.3C1172.4,414.4,1171.4,415.5,1171.4,417.7z"/>
	<path class="st3" d="M1179.4,414.3c0.6-0.7,1.6-1.7,3.5-1.7c2.1,0,3.5,1.3,3.5,3.2c0,1.2-0.6,2-1.5,2.9l-2.2,2.2h3.9v1.8h-6.8v-1.5
		l3.6-3.6c0.5-0.5,0.8-1.1,0.8-1.7c0-0.9-0.6-1.5-1.6-1.5s-1.6,0.5-2.1,1.1L1179.4,414.3z"/>
	<path class="st3" d="M1196.8,417.7c0,3.2-2,5.1-4.4,5.1c-2.5,0-4.4-1.9-4.4-5.1s2-5.1,4.4-5.1S1196.8,414.5,1196.8,417.7z
		 M1190,417.7c0,2.1,1,3.3,2.4,3.3c1.3,0,2.4-1.1,2.4-3.3c0-2.1-1-3.3-2.4-3.3C1191,414.4,1190,415.5,1190,417.7z"/>
</g>
<g>
	<path class="st3" d="M11.3,343.2c0,3.2-2,5.1-4.4,5.1c-2.5,0-4.4-1.9-4.4-5.1s2-5.1,4.4-5.1S11.3,340.1,11.3,343.2z M4.5,343.2
		c0,2.1,1,3.3,2.4,3.3c1.3,0,2.4-1.1,2.4-3.3s-1-3.3-2.4-3.3C5.6,340,4.5,341.1,4.5,343.2z"/>
	<path class="st3" d="M15.3,345.9l-1,4.2h-1.6l0.5-4.2H15.3z"/>
	<path class="st3" d="M23.3,340.1h-4.2v2h1.2c2.4,0,3.6,1.3,3.6,2.9c0,2.1-1.7,3.3-3.7,3.3c-1.5,0-2.8-0.5-3.6-1.5l1.1-1.3
		c0.6,0.6,1.6,1,2.5,1c1.1,0,1.7-0.6,1.7-1.4c0-0.7-0.5-1.4-2.1-1.4h-2.4l0.1-5.4h5.9v1.8H23.3z"/>
</g>
<g>
	<path class="st3" d="M23.3,296.8h-2v-7.3l-2.5,1v-1.9l4.4-1.7v9.9H23.3z"/>
</g>
<g>
	<path class="st3" d="M10.9,245.4h-2v-7.3l-2.5,1v-1.9l4.4-1.7v9.9H10.9z"/>
	<path class="st3" d="M15.3,243.2l-1,4.2h-1.6l0.5-4.2H15.3z"/>
	<path class="st3" d="M23.3,237.4h-4.2v2h1.2c2.4,0,3.6,1.3,3.6,2.9c0,2.1-1.7,3.3-3.7,3.3c-1.5,0-2.8-0.5-3.6-1.5l1.1-1.3
		c0.6,0.6,1.6,1,2.5,1c1.1,0,1.7-0.6,1.7-1.4c0-0.7-0.5-1.4-2.1-1.4h-2.4l0.1-5.4h5.9v1.8H23.3z"/>
</g>
<g>
	<path class="st3" d="M16.8,185.8c0.6-0.7,1.6-1.7,3.5-1.7c2.1,0,3.5,1.3,3.5,3.2c0,1.2-0.6,2-1.5,2.9l-2.2,2.2H24v1.8h-6.8v-1.5
		l3.6-3.6c0.5-0.5,0.8-1.1,0.8-1.7c0-0.9-0.6-1.5-1.6-1.5s-1.6,0.5-2.1,1.1L16.8,185.8z"/>
</g>
<g>
	<path class="st3" d="M4.3,134.4c0.6-0.7,1.6-1.7,3.5-1.7c2.1,0,3.5,1.3,3.5,3.2c0,1.2-0.6,2-1.5,2.9L7.6,141h3.9v1.8H4.8v-1.5
		l3.6-3.6c0.5-0.5,0.8-1.1,0.8-1.7c0-0.9-0.6-1.5-1.6-1.5S6,135,5.5,135.6L4.3,134.4z"/>
	<path class="st3" d="M15.3,140.5l-1,4.2h-1.6l0.5-4.2H15.3z"/>
	<path class="st3" d="M23.3,134.7h-4.2v2h1.2c2.4,0,3.6,1.3,3.6,2.9c0,2.1-1.7,3.3-3.7,3.3c-1.5,0-2.8-0.5-3.6-1.5l1.1-1.3
		c0.6,0.6,1.6,1,2.5,1c1.1,0,1.7-0.6,1.7-1.4c0-0.7-0.5-1.4-2.1-1.4h-2.4l0.1-5.4h5.9v1.8H23.3z"/>
</g>
<g>
	<path class="st3" d="M23.7,84.2c0,1-0.6,1.8-1.5,2.2c1.1,0.4,1.8,1.2,1.8,2.2c0,1.9-1.8,2.9-3.8,2.9c-1.5,0-2.8-0.5-3.6-1.4
		l1.2-1.2c0.6,0.6,1.5,0.9,2.3,0.9c1,0,1.8-0.4,1.8-1.3c0-0.8-0.9-1.3-2-1.3h-1.2v-1.7h1.2c1,0,1.8-0.4,1.8-1.2
		c0-0.8-0.7-1.2-1.7-1.2s-1.7,0.5-2.1,1l-1.2-1.2c0.7-0.9,1.8-1.5,3.4-1.5C22.2,81.4,23.7,82.5,23.7,84.2z"/>
</g>
<g>
	<path class="st3" d="M11.2,32.8c0,1-0.6,1.8-1.5,2.2c1.1,0.4,1.8,1.2,1.8,2.2c0,1.9-1.8,2.9-3.8,2.9c-1.5,0-2.8-0.5-3.6-1.4
		l1.2-1.2c0.6,0.6,1.5,0.9,2.3,0.9c1,0,1.8-0.4,1.8-1.3c0-0.8-0.9-1.3-2-1.3H6.2v-1.7h1.2c1,0,1.8-0.4,1.8-1.2
		c0-0.8-0.7-1.2-1.7-1.2s-1.7,0.5-2.1,1l-1.2-1.2C4.8,30.7,5.9,30,7.6,30C9.7,30,11.2,31.2,11.2,32.8z"/>
	<path class="st3" d="M15.3,37.8l-1,4.2h-1.6l0.5-4.2H15.3z"/>
	<path class="st3" d="M23.3,32h-4.2v2h1.2c2.4,0,3.6,1.3,3.6,2.9c0,2.1-1.7,3.3-3.7,3.3c-1.5,0-2.8-0.5-3.6-1.5l1.1-1.3
		c0.6,0.6,1.6,1,2.5,1c1.1,0,1.7-0.6,1.7-1.4c0-0.7-0.5-1.4-2.1-1.4h-2.4l0.1-5.4h5.9V32H23.3z"/>
</g>
<line class="st2" x1="39.2" y1="397" x2="39.2" y2="37.5"/>
<g>
	<g>
		<line class="st4" x1="1174.1" y1="312.3" x2="1178.5" y2="311"/>
		<line class="st4" x1="1169.8" y1="304.9" x2="1174.1" y2="312.3"/>
		<line class="st4" x1="1165.4" y1="312.9" x2="1169.8" y2="304.9"/>
		<line class="st4" x1="1161" y1="307.2" x2="1165.4" y2="312.9"/>
		<line class="st4" x1="1156.7" y1="310.4" x2="1161" y2="307.2"/>
		<line class="st4" x1="1152.3" y1="320.4" x2="1156.7" y2="310.4"/>
		<line class="st4" x1="1148" y1="317.5" x2="1152.3" y2="320.4"/>
		<line class="st4" x1="1143.6" y1="325" x2="1148" y2="317.5"/>
		<line class="st4" x1="1139.3" y1="329.8" x2="1143.6" y2="325"/>
		<line class="st4" x1="1134.9" y1="325.7" x2="1139.3" y2="329.8"/>
		<line class="st4" x1="1130.6" y1="328.6" x2="1134.9" y2="325.7"/>
		<line class="st4" x1="1126.2" y1="323.2" x2="1130.6" y2="328.6"/>
		<line class="st4" x1="1121.8" y1="322.9" x2="1126.2" y2="323.2"/>
		<line class="st4" x1="1117.5" y1="332.4" x2="1121.8" y2="322.9"/>
		<line class="st4" x1="1113.1" y1="324.1" x2="1117.5" y2="332.4"/>
		<line class="st4" x1="1108.8" y1="339" x2="1113.1" y2="324.1"/>
		<line class="st4" x1="1104.4" y1="342.7" x2="1108.8" y2="339"/>
		<line class="st4" x1="1100.1" y1="336.5" x2="1104.4" y2="342.7"/>
		<line class="st4" x1="1095.7" y1="332.6" x2="1100.1" y2="336.5"/>
		<line class="st4" x1="1091.3" y1="330.8" x2="1095.7" y2="332.6"/>
		<line class="st4" x1="1087" y1="328.2" x2="1091.3" y2="330.8"/>
		<line class="st4" x1="1082.6" y1="331.1" x2="1087" y2="328.2"/>
		<line class="st4" x1="1078.3" y1="325.7" x2="1082.6" y2="331.1"/>
		<line class="st4" x1="1073.9" y1="324.7" x2="1078.3" y2="325.7"/>
		<line class="st4" x1="1069.6" y1="305" x2="1073.9" y2="324.7"/>
		<line class="st4" x1="1065.2" y1="329.9" x2="1069.6" y2="305"/>
		<line class="st4" x1="1060.8" y1="329.3" x2="1065.2" y2="329.9"/>
		<line class="st4" x1="1056.5" y1="330.9" x2="1060.8" y2="329.3"/>
		<line class="st4" x1="1052.1" y1="326.8" x2="1056.5" y2="330.9"/>
		<line class="st4" x1="1047.8" y1="334.1" x2="1052.1" y2="326.8"/>
		<line class="st4" x1="1043.4" y1="335.3" x2="1047.8" y2="334.1"/>
		<line class="st4" x1="1039.1" y1="331.1" x2="1043.4" y2="335.3"/>
		<line class="st4" x1="1034.7" y1="323.1" x2="1039.1" y2="331.1"/>
		<line class="st4" x1="1030.4" y1="335.9" x2="1034.7" y2="323.1"/>
		<line class="st4" x1="1026" y1="327.7" x2="1030.4" y2="335.9"/>
		<line class="st4" x1="1021.6" y1="310.1" x2="1026" y2="327.7"/>
		<line class="st4" x1="1017.3" y1="298.3" x2="1021.6" y2="310.1"/>
		<line class="st4" x1="1012.9" y1="318.7" x2="1017.3" y2="298.3"/>
		<line class="st4" x1="1008.6" y1="279" x2="1012.9" y2="318.7"/>
		<line class="st4" x1="1004.2" y1="245.9" x2="1008.6" y2="279"/>
		<line class="st4" x1="999.9" y1="234.2" x2="1004.2" y2="245.9"/>
		<line class="st4" x1="995.5" y1="234.3" x2="999.9" y2="234.2"/>
		<line class="st4" x1="991.1" y1="242.2" x2="995.5" y2="234.3"/>
		<line class="st4" x1="986.8" y1="224" x2="991.1" y2="242.2"/>
		<line class="st4" x1="982.4" y1="209.9" x2="986.8" y2="224"/>
		<line class="st4" x1="978.1" y1="210.1" x2="982.4" y2="209.9"/>
		<line class="st4" x1="973.7" y1="213.3" x2="978.1" y2="210.1"/>
		<line class="st4" x1="969.4" y1="204.4" x2="973.7" y2="213.3"/>
		<line class="st4" x1="965" y1="200.1" x2="969.4" y2="204.4"/>
		<line class="st4" x1="960.7" y1="209.8" x2="965" y2="200.1"/>
		<line class="st4" x1="956.3" y1="208.4" x2="960.7" y2="209.8"/>
		<line class="st4" x1="951.9" y1="214.6" x2="956.3" y2="208.4"/>
		<line class="st4" x1="947.6" y1="215.1" x2="951.9" y2="214.6"/>
		<line class="st4" x1="943.2" y1="208.9" x2="947.6" y2="215.1"/>
		<line class="st4" x1="938.9" y1="197.5" x2="943.2" y2="208.9"/>
		<line class="st4" x1="934.5" y1="221.3" x2="938.9" y2="197.5"/>
		<line class="st4" x1="930.2" y1="212.7" x2="934.5" y2="221.3"/>
		<line class="st4" x1="925.8" y1="216.9" x2="930.2" y2="212.7"/>
		<line class="st4" x1="921.4" y1="219.4" x2="925.8" y2="216.9"/>
		<line class="st4" x1="917.1" y1="239.9" x2="921.4" y2="219.4"/>
		<line class="st4" x1="912.7" y1="224.4" x2="917.1" y2="239.9"/>
		<line class="st4" x1="908.4" y1="220.2" x2="912.7" y2="224.4"/>
		<line class="st4" x1="904" y1="202.3" x2="908.4" y2="220.2"/>
		<line class="st4" x1="899.7" y1="236.7" x2="904" y2="202.3"/>
		<line class="st4" x1="895.3" y1="243.3" x2="899.7" y2="236.7"/>
		<line class="st4" x1="890.9" y1="239.3" x2="895.3" y2="243.3"/>
		<line class="st4" x1="886.6" y1="237.4" x2="890.9" y2="239.3"/>
		<line class="st4" x1="882.2" y1="217.8" x2="886.6" y2="237.4"/>
		<line class="st4" x1="877.9" y1="207.5" x2="882.2" y2="217.8"/>
		<line class="st4" x1="873.5" y1="184.3" x2="877.9" y2="207.5"/>
		<line class="st4" x1="869.2" y1="185.9" x2="873.5" y2="184.3"/>
		<line class="st4" x1="864.8" y1="179" x2="869.2" y2="185.9"/>
		<line class="st4" x1="860.5" y1="188.1" x2="864.8" y2="179"/>
		<line class="st4" x1="856.1" y1="191" x2="860.5" y2="188.1"/>
		<line class="st4" x1="851.7" y1="186" x2="856.1" y2="191"/>
		<line class="st4" x1="847.4" y1="183.3" x2="851.7" y2="186"/>
		<line class="st4" x1="843" y1="183.2" x2="847.4" y2="183.3"/>
		<line class="st4" x1="838.7" y1="178.8" x2="843" y2="183.2"/>
		<line class="st4" x1="834.3" y1="158.7" x2="838.7" y2="178.8"/>
		<line class="st4" x1="830" y1="151.4" x2="834.3" y2="158.7"/>
		<line class="st4" x1="825.6" y1="143.6" x2="830" y2="151.4"/>
		<line class="st4" x1="821.2" y1="137.6" x2="825.6" y2="143.6"/>
		<line class="st4" x1="816.9" y1="140.4" x2="821.2" y2="137.6"/>
		<line class="st4" x1="812.5" y1="134.1" x2="816.9" y2="140.4"/>
		<line class="st4" x1="808.2" y1="133.5" x2="812.5" y2="134.1"/>
		<line class="st4" x1="803.8" y1="140.7" x2="808.2" y2="133.5"/>
		<line class="st4" x1="799.5" y1="150" x2="803.8" y2="140.7"/>
		<line class="st4" x1="795.1" y1="146.5" x2="799.5" y2="150"/>
		<line class="st4" x1="790.7" y1="131.3" x2="795.1" y2="146.5"/>
		<line class="st4" x1="786.4" y1="127" x2="790.7" y2="131.3"/>
		<line class="st4" x1="782" y1="114.2" x2="786.4" y2="127"/>
		<line class="st4" x1="777.7" y1="124.6" x2="782" y2="114.2"/>
		<line class="st4" x1="773.3" y1="123.5" x2="777.7" y2="124.6"/>
		<line class="st4" x1="769" y1="126.5" x2="773.3" y2="123.5"/>
		<line class="st4" x1="764.6" y1="121.3" x2="769" y2="126.5"/>
		<line class="st4" x1="760.3" y1="113.7" x2="764.6" y2="121.3"/>
		<line class="st4" x1="755.9" y1="111" x2="760.3" y2="113.7"/>
		<line class="st4" x1="751.5" y1="119.6" x2="755.9" y2="111"/>
		<line class="st4" x1="747.2" y1="123" x2="751.5" y2="119.6"/>
		<line class="st4" x1="742.8" y1="117.8" x2="747.2" y2="123"/>
		<line class="st4" x1="738.5" y1="110.4" x2="742.8" y2="117.8"/>
		<line class="st4" x1="734.1" y1="100.2" x2="738.5" y2="110.4"/>
		<line class="st4" x1="729.8" y1="104.8" x2="734.1" y2="100.2"/>
		<line class="st4" x1="725.4" y1="90.1" x2="729.8" y2="104.8"/>
		<line class="st4" x1="721" y1="84.8" x2="725.4" y2="90.1"/>
		<line class="st4" x1="716.7" y1="82.4" x2="721" y2="84.8"/>
		<line class="st4" x1="712.3" y1="70.2" x2="716.7" y2="82.4"/>
		<line class="st4" x1="708" y1="67.1" x2="712.3" y2="70.2"/>
		<line class="st4" x1="703.6" y1="81.1" x2="708" y2="67.1"/>
		<line class="st4" x1="699.3" y1="69.1" x2="703.6" y2="81.1"/>
		<line class="st4" x1="694.9" y1="72.3" x2="699.3" y2="69.1"/>
		<line class="st4" x1="690.5" y1="64.9" x2="694.9" y2="72.3"/>
		<line class="st4" x1="686.2" y1="82.6" x2="690.5" y2="64.9"/>
		<line class="st4" x1="681.8" y1="82.4" x2="686.2" y2="82.6"/>
		<line class="st4" x1="677.5" y1="89.3" x2="681.8" y2="82.4"/>
		<line class="st4" x1="673.1" y1="95.1" x2="677.5" y2="89.3"/>
		<line class="st4" x1="668.8" y1="103.2" x2="673.1" y2="95.1"/>
		<line class="st4" x1="664.4" y1="108.4" x2="668.8" y2="103.2"/>
		<line class="st4" x1="660.1" y1="103.2" x2="664.4" y2="108.4"/>
		<line class="st4" x1="655.7" y1="101.9" x2="660.1" y2="103.2"/>
		<line class="st4" x1="651.3" y1="94.1" x2="655.7" y2="101.9"/>
		<line class="st4" x1="647" y1="93.6" x2="651.3" y2="94.1"/>
		<line class="st4" x1="642.6" y1="99.8" x2="647" y2="93.6"/>
		<line class="st4" x1="638.3" y1="106.6" x2="642.6" y2="99.8"/>
		<line class="st4" x1="633.9" y1="107.2" x2="638.3" y2="106.6"/>
		<line class="st4" x1="629.6" y1="103.2" x2="633.9" y2="107.2"/>
		<line class="st4" x1="625.2" y1="99.6" x2="629.6" y2="103.2"/>
		<line class="st4" x1="620.8" y1="97" x2="625.2" y2="99.6"/>
		<line class="st4" x1="616.5" y1="94.4" x2="620.8" y2="97"/>
		<line class="st4" x1="612.1" y1="98.9" x2="616.5" y2="94.4"/>
		<line class="st4" x1="607.8" y1="95.9" x2="612.1" y2="98.9"/>
		<line class="st4" x1="603.4" y1="83.1" x2="607.8" y2="95.9"/>
		<line class="st4" x1="599.1" y1="92" x2="603.4" y2="83.1"/>
		<line class="st4" x1="594.7" y1="94" x2="599.1" y2="92"/>
		<line class="st4" x1="590.3" y1="93.3" x2="594.7" y2="94"/>
		<line class="st4" x1="586" y1="92.9" x2="590.3" y2="93.3"/>
		<line class="st4" x1="581.6" y1="106.7" x2="586" y2="92.9"/>
		<line class="st4" x1="577.3" y1="112.1" x2="581.6" y2="106.7"/>
		<line class="st4" x1="572.9" y1="115.7" x2="577.3" y2="112.1"/>
		<line class="st4" x1="568.6" y1="108" x2="572.9" y2="115.7"/>
		<line class="st4" x1="564.2" y1="104.8" x2="568.6" y2="108"/>
		<line class="st4" x1="559.9" y1="99.8" x2="564.2" y2="104.8"/>
		<line class="st4" x1="555.5" y1="102.8" x2="559.9" y2="99.8"/>
		<line class="st4" x1="551.1" y1="102.6" x2="555.5" y2="102.8"/>
		<line class="st4" x1="546.8" y1="101.7" x2="551.1" y2="102.6"/>
		<line class="st4" x1="542.4" y1="104.1" x2="546.8" y2="101.7"/>
		<line class="st4" x1="538.1" y1="105.2" x2="542.4" y2="104.1"/>
		<line class="st4" x1="533.7" y1="123.8" x2="538.1" y2="105.2"/>
		<line class="st4" x1="529.4" y1="123.9" x2="533.7" y2="123.8"/>
		<line class="st4" x1="525" y1="135.5" x2="529.4" y2="123.9"/>
		<line class="st4" x1="520.6" y1="142.6" x2="525" y2="135.5"/>
		<line class="st4" x1="516.3" y1="149.9" x2="520.6" y2="142.6"/>
		<line class="st4" x1="511.9" y1="142.2" x2="516.3" y2="149.9"/>
		<line class="st4" x1="507.6" y1="155.3" x2="511.9" y2="142.2"/>
		<line class="st4" x1="503.2" y1="152.9" x2="507.6" y2="155.3"/>
		<line class="st4" x1="498.9" y1="154.4" x2="503.2" y2="152.9"/>
		<line class="st4" x1="494.5" y1="156.5" x2="498.9" y2="154.4"/>
		<line class="st4" x1="490.1" y1="156.3" x2="494.5" y2="156.5"/>
		<line class="st4" x1="485.8" y1="150.6" x2="490.1" y2="156.3"/>
		<line class="st4" x1="481.4" y1="157.4" x2="485.8" y2="150.6"/>
		<line class="st4" x1="477.1" y1="149.8" x2="481.4" y2="157.4"/>
		<line class="st4" x1="472.7" y1="152.1" x2="477.1" y2="149.8"/>
		<line class="st4" x1="468.4" y1="163.5" x2="472.7" y2="152.1"/>
		<line class="st4" x1="464" y1="154.7" x2="468.4" y2="163.5"/>
		<line class="st4" x1="459.7" y1="157.3" x2="464" y2="154.7"/>
		<line class="st4" x1="455.3" y1="165.9" x2="459.7" y2="157.3"/>
		<line class="st4" x1="450.9" y1="170.8" x2="455.3" y2="165.9"/>
		<line class="st4" x1="446.6" y1="186.4" x2="450.9" y2="170.8"/>
		<line class="st4" x1="442.2" y1="174.5" x2="446.6" y2="186.4"/>
		<line class="st4" x1="437.9" y1="174.5" x2="442.2" y2="174.5"/>
		<line class="st4" x1="433.5" y1="171.6" x2="437.9" y2="174.5"/>
		<line class="st4" x1="429.2" y1="172.2" x2="433.5" y2="171.6"/>
		<line class="st4" x1="424.8" y1="164.6" x2="429.2" y2="172.2"/>
		<line class="st4" x1="420.4" y1="161.9" x2="424.8" y2="164.6"/>
		<line class="st4" x1="416.1" y1="167.2" x2="420.4" y2="161.9"/>
		<line class="st4" x1="411.7" y1="157.5" x2="416.1" y2="167.2"/>
		<line class="st4" x1="407.4" y1="152" x2="411.7" y2="157.5"/>
		<line class="st4" x1="403" y1="160.4" x2="407.4" y2="152"/>
		<line class="st4" x1="398.7" y1="176.9" x2="403" y2="160.4"/>
		<line class="st4" x1="394.3" y1="176" x2="398.7" y2="176.9"/>
		<line class="st4" x1="389.9" y1="171" x2="394.3" y2="176"/>
		<line class="st4" x1="385.6" y1="175.2" x2="389.9" y2="171"/>
		<line class="st4" x1="381.2" y1="166.2" x2="385.6" y2="175.2"/>
		<line class="st4" x1="376.9" y1="167.5" x2="381.2" y2="166.2"/>
		<line class="st4" x1="372.5" y1="158.1" x2="376.9" y2="167.5"/>
		<line class="st4" x1="368.2" y1="155.7" x2="372.5" y2="158.1"/>
		<line class="st4" x1="363.8" y1="162.8" x2="368.2" y2="155.7"/>
		<line class="st4" x1="359.5" y1="166.1" x2="363.8" y2="162.8"/>
		<line class="st4" x1="355.1" y1="167.2" x2="359.5" y2="166.1"/>
		<line class="st4" x1="350.7" y1="152.3" x2="355.1" y2="167.2"/>
		<line class="st4" x1="346.4" y1="151.8" x2="350.7" y2="152.3"/>
		<line class="st4" x1="342" y1="149.2" x2="346.4" y2="151.8"/>
		<line class="st4" x1="337.7" y1="140.2" x2="342" y2="149.2"/>
		<line class="st4" x1="333.3" y1="132.6" x2="337.7" y2="140.2"/>
		<line class="st4" x1="329" y1="142.5" x2="333.3" y2="132.6"/>
		<line class="st4" x1="324.6" y1="159.5" x2="329" y2="142.5"/>
		<line class="st4" x1="320.2" y1="149" x2="324.6" y2="159.5"/>
		<line class="st4" x1="315.9" y1="149.7" x2="320.2" y2="149"/>
		<line class="st4" x1="311.5" y1="143.8" x2="315.9" y2="149.7"/>
		<line class="st4" x1="307.2" y1="141.8" x2="311.5" y2="143.8"/>
		<line class="st4" x1="302.8" y1="143.6" x2="307.2" y2="141.8"/>
		<line class="st4" x1="298.5" y1="150.8" x2="302.8" y2="143.6"/>
		<line class="st4" x1="294.1" y1="148.5" x2="298.5" y2="150.8"/>
		<line class="st4" x1="289.7" y1="145.9" x2="294.1" y2="148.5"/>
		<line class="st4" x1="285.4" y1="136.4" x2="289.7" y2="145.9"/>
		<line class="st4" x1="281" y1="130.8" x2="285.4" y2="136.4"/>
		<line class="st4" x1="276.7" y1="143.5" x2="281" y2="130.8"/>
		<line class="st4" x1="272.3" y1="152.2" x2="276.7" y2="143.5"/>
		<line class="st4" x1="268" y1="154.9" x2="272.3" y2="152.2"/>
		<line class="st4" x1="263.6" y1="155.1" x2="268" y2="154.9"/>
		<line class="st4" x1="259.3" y1="176.1" x2="263.6" y2="155.1"/>
		<line class="st4" x1="254.9" y1="214.5" x2="259.3" y2="176.1"/>
		<line class="st4" x1="250.5" y1="207.3" x2="254.9" y2="214.5"/>
		<line class="st4" x1="246.2" y1="218.8" x2="250.5" y2="207.3"/>
		<line class="st4" x1="241.8" y1="212.3" x2="246.2" y2="218.8"/>
		<line class="st4" x1="237.5" y1="220.5" x2="241.8" y2="212.3"/>
		<line class="st4" x1="233.1" y1="233.2" x2="237.5" y2="220.5"/>
		<line class="st4" x1="228.8" y1="230.7" x2="233.1" y2="233.2"/>
		<line class="st4" x1="224.4" y1="223.1" x2="228.8" y2="230.7"/>
		<line class="st4" x1="220" y1="224.9" x2="224.4" y2="223.1"/>
		<line class="st4" x1="215.7" y1="232.4" x2="220" y2="224.9"/>
		<line class="st4" x1="211.3" y1="229.6" x2="215.7" y2="232.4"/>
		<line class="st4" x1="207" y1="234.9" x2="211.3" y2="229.6"/>
		<line class="st4" x1="202.6" y1="241.5" x2="207" y2="234.9"/>
		<line class="st4" x1="198.3" y1="233.8" x2="202.6" y2="241.5"/>
		<line class="st4" x1="193.9" y1="247.7" x2="198.3" y2="233.8"/>
		<line class="st4" x1="189.5" y1="236.1" x2="193.9" y2="247.7"/>
		<line class="st4" x1="185.2" y1="237.7" x2="189.5" y2="236.1"/>
		<line class="st4" x1="180.8" y1="257.5" x2="185.2" y2="237.7"/>
		<line class="st4" x1="176.5" y1="248.7" x2="180.8" y2="257.5"/>
		<line class="st4" x1="172.1" y1="236.8" x2="176.5" y2="248.7"/>
		<line class="st4" x1="167.8" y1="231.8" x2="172.1" y2="236.8"/>
		<line class="st4" x1="163.4" y1="228.5" x2="167.8" y2="231.8"/>
		<line class="st4" x1="159.1" y1="222.3" x2="163.4" y2="228.5"/>
		<line class="st4" x1="154.7" y1="206.9" x2="159.1" y2="222.3"/>
		<line class="st4" x1="150.3" y1="208.2" x2="154.7" y2="206.9"/>
		<line class="st4" x1="146" y1="222.4" x2="150.3" y2="208.2"/>
		<line class="st4" x1="141.6" y1="214.3" x2="146" y2="222.4"/>
		<line class="st4" x1="137.3" y1="208.7" x2="141.6" y2="214.3"/>
		<line class="st4" x1="132.9" y1="203.1" x2="137.3" y2="208.7"/>
		<line class="st4" x1="128.6" y1="217" x2="132.9" y2="203.1"/>
		<line class="st4" x1="124.2" y1="220.7" x2="128.6" y2="217"/>
		<line class="st4" x1="119.8" y1="215.1" x2="124.2" y2="220.7"/>
		<line class="st4" x1="115.5" y1="201.8" x2="119.8" y2="215.1"/>
		<line class="st4" x1="111.1" y1="204.6" x2="115.5" y2="201.8"/>
		<line class="st4" x1="106.8" y1="193.2" x2="111.1" y2="204.6"/>
		<line class="st4" x1="102.4" y1="204.5" x2="106.8" y2="193.2"/>
		<line class="st4" x1="98.1" y1="216" x2="102.4" y2="204.5"/>
		<line class="st4" x1="93.7" y1="217.8" x2="98.1" y2="216"/>
		<line class="st4" x1="89.4" y1="217.4" x2="93.7" y2="217.8"/>
		<line class="st4" x1="85" y1="208.4" x2="89.4" y2="217.4"/>
		<line class="st4" x1="80.6" y1="199.7" x2="85" y2="208.4"/>
		<line class="st4" x1="76.3" y1="186.2" x2="80.6" y2="199.7"/>
		<line class="st4" x1="71.9" y1="188" x2="76.3" y2="186.2"/>
		<line class="st4" x1="67.6" y1="179.7" x2="71.9" y2="188"/>
		<line class="st4" x1="63.2" y1="163.9" x2="67.6" y2="179.7"/>
		<line class="st4" x1="58.9" y1="166.8" x2="63.2" y2="163.9"/>
		<line class="st4" x1="54.5" y1="170.6" x2="58.9" y2="166.8"/>
		<line class="st4" x1="50.1" y1="178.5" x2="54.5" y2="170.6"/>
		<line class="st4" x1="45.8" y1="163.9" x2="50.1" y2="178.5"/>
		<line class="st4" x1="41.4" y1="169" x2="45.8" y2="163.9"/>
	</g>
</g>
</svg>
