<?xml version="1.0" encoding="utf-8"?>
<!-- Generator: Adobe Illustrator 24.3.0, SVG Export Plug-In . SVG Version: 6.00 Build 0)  -->
<svg version="1.1" id="Layer_1" xmlns="http://www.w3.org/2000/svg" xmlns:xlink="http://www.w3.org/1999/xlink" x="0px" y="0px"
	 viewBox="0 0 1207 408" style="enable-background:new 0 0 1207 408;" xml:space="preserve">
<style type="text/css">
	.st0{fill:none;stroke:#203232;stroke-miterlimit:10;}
	.st1{enable-background:new    ;}
	.st2{fill:#203232;}
	.st3{fill:none;stroke:#D02259;stroke-width:4;stroke-linecap:round;stroke-miterlimit:10;}
</style>
<line class="st0" x1="41.9" y1="372.6" x2="1201.6" y2="372.6"/>
<g class="st1">
	<path class="st2" d="M25.5,370.2c0,3.2-2,5.1-4.4,5.1c-2.5,0-4.4-1.9-4.4-5.1s2-5.1,4.4-5.1S25.5,367,25.5,370.2z M18.7,370.2
		c0,2.1,1.1,3.3,2.4,3.3s2.4-1.1,2.4-3.3c0-2.1-1-3.3-2.4-3.3C19.7,366.9,18.7,368,18.7,370.2z"/>
</g>
<g class="st1">
	<path class="st2" d="M27.2,398.2h-1.9l-5.2-6.5v6.5H18v-9.8h1.9l5.2,6.5v-6.5h2.1V398.2z"/>
	<path class="st2" d="M36.6,394.8c0,2-1.6,3.6-3.9,3.6c-2.2,0-3.8-1.5-3.8-3.6c0-2,1.6-3.6,3.8-3.6C35,391.2,36.6,392.7,36.6,394.8z
		 M30.9,394.8c0,1.1,0.8,1.9,1.9,1.9s1.9-0.8,1.9-1.9s-0.8-1.9-1.9-1.9C31.7,392.9,30.9,393.7,30.9,394.8z"/>
	<path class="st2" d="M42.1,398.2h-2.2l-2.8-6.8h2.1l1.8,4.9l1.9-4.9h2L42.1,398.2z"/>
	<path class="st2" d="M47.9,397c0,0.7-0.7,1.4-1.4,1.4c-0.8,0-1.4-0.6-1.4-1.4c0-0.7,0.7-1.4,1.4-1.4
		C47.2,395.6,47.9,396.3,47.9,397z"/>
	<path class="st2" d="M52.6,389.9c0.6-0.7,1.6-1.7,3.5-1.7c2.2,0,3.5,1.3,3.5,3.2c0,1.2-0.6,2-1.5,2.9l-2.2,2.2h3.9v1.8H53v-1.5
		l3.6-3.6c0.5-0.5,0.8-1.1,0.8-1.7c0-0.9-0.6-1.5-1.6-1.5s-1.6,0.5-2.1,1.1L52.6,389.9z"/>
	<path class="st2" d="M70,393.3c0,3.2-2,5.1-4.4,5.1c-2.5,0-4.4-1.9-4.4-5.1s2-5.1,4.4-5.1C68,388.2,70,390.1,70,393.3z M63.2,393.3
		c0,2.1,1.1,3.3,2.4,3.3c1.3,0,2.4-1.1,2.4-3.3c0-2.1-1-3.3-2.4-3.3C64.3,390,63.2,391.1,63.2,393.3z"/>
	<path class="st2" d="M75.6,398.2h-2v-7.3l-2.5,1V390l4.4-1.7v9.9H75.6z"/>
	<path class="st2" d="M84.2,390.1H80v2h1.2c2.4,0,3.6,1.3,3.6,2.9c0,2.1-1.7,3.3-3.8,3.3c-1.5,0-2.8-0.5-3.6-1.5l1.1-1.3
		c0.6,0.6,1.6,1,2.5,1c1.1,0,1.7-0.6,1.7-1.4c0-0.7-0.5-1.4-2.1-1.4h-2.4l0.1-5.4h5.9V390.1z"/>
</g>
<g class="st1">
	<path class="st2" d="M250.3,398.2h-1.9l-5.2-6.5v6.5h-2.1v-9.8h1.9l5.2,6.5v-6.5h2.1V398.2z"/>
	<path class="st2" d="M259.8,394.8c0,2-1.6,3.6-3.9,3.6c-2.2,0-3.8-1.5-3.8-3.6c0-2,1.6-3.6,3.8-3.6
		C258.1,391.2,259.8,392.7,259.8,394.8z M254,394.8c0,1.1,0.8,1.9,1.9,1.9s1.9-0.8,1.9-1.9s-0.8-1.9-1.9-1.9S254,393.7,254,394.8z"
		/>
	<path class="st2" d="M265.3,398.2h-2.2l-2.8-6.8h2.1l1.8,4.9l1.9-4.9h2L265.3,398.2z"/>
	<path class="st2" d="M271.1,397c0,0.7-0.7,1.4-1.4,1.4c-0.8,0-1.4-0.6-1.4-1.4c0-0.7,0.7-1.4,1.4-1.4S271.1,396.3,271.1,397z"/>
	<path class="st2" d="M275.8,389.9c0.6-0.7,1.6-1.7,3.5-1.7c2.2,0,3.5,1.3,3.5,3.2c0,1.2-0.6,2-1.5,2.9l-2.2,2.2h3.9v1.8h-6.8v-1.5
		l3.6-3.6c0.5-0.5,0.8-1.1,0.8-1.7c0-0.9-0.6-1.5-1.6-1.5s-1.6,0.5-2.1,1.1L275.8,389.9z"/>
	<path class="st2" d="M293.2,393.3c0,3.2-2,5.1-4.4,5.1c-2.5,0-4.4-1.9-4.4-5.1s2-5.1,4.4-5.1C291.2,388.2,293.2,390.1,293.2,393.3z
		 M286.4,393.3c0,2.1,1.1,3.3,2.4,3.3s2.4-1.1,2.4-3.3c0-2.1-1-3.3-2.4-3.3C287.5,390,286.4,391.1,286.4,393.3z"/>
	<path class="st2" d="M298.8,398.2h-2v-7.3l-2.5,1V390l4.4-1.7v9.9H298.8z"/>
	<path class="st2" d="M304.2,391.8c0.1,0,0.3,0,0.5,0c2.1,0,3.6,1.4,3.6,3.3s-1.7,3.3-3.9,3.3c-2.2,0-3.9-1.4-3.9-3.3
		c0-0.9,0.4-1.7,1-2.6l2.9-4.1h2.4L304.2,391.8z M302.5,395c0,1,0.8,1.6,1.8,1.6s1.8-0.7,1.8-1.6s-0.8-1.6-1.8-1.6
		S302.5,394.1,302.5,395z"/>
</g>
<g class="st1">
	<path class="st2" d="M473.9,398.2H472l-5.2-6.5v6.5h-2.1v-9.8h1.9l5.2,6.5v-6.5h2.1V398.2z"/>
	<path class="st2" d="M483.3,394.8c0,2-1.6,3.6-3.9,3.6c-2.2,0-3.8-1.5-3.8-3.6c0-2,1.6-3.6,3.8-3.6
		C481.7,391.2,483.3,392.7,483.3,394.8z M477.6,394.8c0,1.1,0.8,1.9,1.9,1.9s1.9-0.8,1.9-1.9s-0.8-1.9-1.9-1.9
		S477.6,393.7,477.6,394.8z"/>
	<path class="st2" d="M488.8,398.2h-2.2l-2.8-6.8h2.1l1.8,4.9l1.9-4.9h2L488.8,398.2z"/>
	<path class="st2" d="M494.6,397c0,0.7-0.7,1.4-1.4,1.4c-0.8,0-1.4-0.6-1.4-1.4c0-0.7,0.7-1.4,1.4-1.4
		C493.9,395.6,494.6,396.3,494.6,397z"/>
	<path class="st2" d="M499.3,389.9c0.6-0.7,1.6-1.7,3.5-1.7c2.2,0,3.5,1.3,3.5,3.2c0,1.2-0.6,2-1.5,2.9l-2.2,2.2h3.9v1.8h-6.8v-1.5
		l3.6-3.6c0.5-0.5,0.8-1.1,0.8-1.7c0-0.9-0.6-1.5-1.6-1.5s-1.6,0.5-2.1,1.1L499.3,389.9z"/>
	<path class="st2" d="M516.7,393.3c0,3.2-2,5.1-4.4,5.1c-2.5,0-4.4-1.9-4.4-5.1s2-5.1,4.4-5.1C514.8,388.2,516.7,390.1,516.7,393.3z
		 M509.9,393.3c0,2.1,1.1,3.3,2.4,3.3c1.3,0,2.4-1.1,2.4-3.3c0-2.1-1-3.3-2.4-3.3C511,390,509.9,391.1,509.9,393.3z"/>
	<path class="st2" d="M522.3,398.2h-2v-7.3l-2.5,1V390l4.4-1.7L522.3,398.2L522.3,398.2z"/>
	<path class="st2" d="M531.3,389.8l-4.3,8.3h-2.3l4.2-8H524v-1.8h7.3V389.8z"/>
</g>
<g class="st1">
	<path class="st2" d="M696.5,398.2h-1.9l-5.2-6.5v6.5h-2.1v-9.8h1.9l5.2,6.5v-6.5h2.1V398.2z"/>
	<path class="st2" d="M705.9,394.8c0,2-1.6,3.6-3.9,3.6c-2.2,0-3.8-1.5-3.8-3.6c0-2,1.6-3.6,3.8-3.6
		C704.3,391.2,705.9,392.7,705.9,394.8z M700.2,394.8c0,1.1,0.8,1.9,1.9,1.9s1.9-0.8,1.9-1.9s-0.8-1.9-1.9-1.9
		S700.2,393.7,700.2,394.8z"/>
	<path class="st2" d="M711.4,398.2h-2.2l-2.8-6.8h2.1l1.8,4.9l1.9-4.9h2L711.4,398.2z"/>
	<path class="st2" d="M717.2,397c0,0.7-0.7,1.4-1.4,1.4c-0.8,0-1.4-0.6-1.4-1.4c0-0.7,0.7-1.4,1.4-1.4S717.2,396.3,717.2,397z"/>
	<path class="st2" d="M721.9,389.9c0.6-0.7,1.6-1.7,3.5-1.7c2.2,0,3.5,1.3,3.5,3.2c0,1.2-0.6,2-1.5,2.9l-2.2,2.2h3.9v1.8h-6.8v-1.5
		l3.6-3.6c0.5-0.5,0.8-1.1,0.8-1.7c0-0.9-0.6-1.5-1.6-1.5s-1.6,0.5-2.1,1.1L721.9,389.9z"/>
	<path class="st2" d="M739.4,393.3c0,3.2-2,5.1-4.4,5.1c-2.5,0-4.4-1.9-4.4-5.1s2-5.1,4.4-5.1C737.4,388.2,739.4,390.1,739.4,393.3z
		 M732.6,393.3c0,2.1,1.1,3.3,2.4,3.3c1.3,0,2.4-1.1,2.4-3.3c0-2.1-1-3.3-2.4-3.3S732.6,391.1,732.6,393.3z"/>
	<path class="st2" d="M745,398.2h-2v-7.3l-2.5,1V390l4.4-1.7L745,398.2L745,398.2z"/>
	<path class="st2" d="M754.6,391c0,1.1-0.7,1.8-1.6,2.2c1,0.4,1.8,1.1,1.8,2.3c0,1.8-1.8,2.8-4,2.8s-4-1.1-4-2.8
		c0-1.2,0.8-1.9,1.8-2.3c-0.9-0.4-1.6-1.1-1.6-2.2c0-1.8,1.7-2.8,3.8-2.8C752.9,388.2,754.6,389.2,754.6,391z M748.9,395.3
		c0,0.9,0.9,1.3,1.9,1.3s1.9-0.5,1.9-1.3c0-0.9-0.9-1.3-1.9-1.3C749.8,394,748.9,394.5,748.9,395.3z M749.2,391.2
		c0,0.8,0.7,1.3,1.7,1.3c0.9,0,1.7-0.4,1.7-1.3c0-0.8-0.7-1.3-1.7-1.3C749.9,389.9,749.2,390.3,749.2,391.2z"/>
</g>
<g class="st1">
	<path class="st2" d="M920.1,398.2h-1.9l-5.2-6.5v6.5h-2.1v-9.8h1.9l5.2,6.5v-6.5h2.1V398.2z"/>
	<path class="st2" d="M929.5,394.8c0,2-1.6,3.6-3.9,3.6c-2.2,0-3.8-1.5-3.8-3.6c0-2,1.6-3.6,3.8-3.6
		C927.9,391.2,929.5,392.7,929.5,394.8z M923.7,394.8c0,1.1,0.8,1.9,1.9,1.9s1.9-0.8,1.9-1.9s-0.8-1.9-1.9-1.9
		S923.7,393.7,923.7,394.8z"/>
	<path class="st2" d="M935,398.2h-2.2l-2.8-6.8h2.1l1.8,4.9l1.9-4.9h2L935,398.2z"/>
	<path class="st2" d="M940.8,397c0,0.7-0.7,1.4-1.4,1.4c-0.8,0-1.4-0.6-1.4-1.4c0-0.7,0.7-1.4,1.4-1.4S940.8,396.3,940.8,397z"/>
	<path class="st2" d="M945.5,389.9c0.6-0.7,1.6-1.7,3.5-1.7c2.2,0,3.5,1.3,3.5,3.2c0,1.2-0.6,2-1.5,2.9l-2.2,2.2h3.9v1.8h-6.8v-1.5
		l3.6-3.6c0.5-0.5,0.8-1.1,0.8-1.7c0-0.9-0.6-1.5-1.6-1.5s-1.6,0.5-2.1,1.1L945.5,389.9z"/>
	<path class="st2" d="M962.9,393.3c0,3.2-2,5.1-4.4,5.1c-2.5,0-4.4-1.9-4.4-5.1s2-5.1,4.4-5.1C960.9,388.2,962.9,390.1,962.9,393.3z
		 M956.1,393.3c0,2.1,1.1,3.3,2.4,3.3s2.4-1.1,2.4-3.3c0-2.1-1-3.3-2.4-3.3C957.2,390,956.1,391.1,956.1,393.3z"/>
	<path class="st2" d="M968.5,398.2h-2v-7.3l-2.5,1V390l4.4-1.7L968.5,398.2L968.5,398.2z"/>
	<path class="st2" d="M974.2,394.8c-0.1,0-0.3,0-0.5,0c-2.1,0-3.6-1.4-3.6-3.3s1.7-3.3,3.9-3.3c2.2,0,3.9,1.4,3.9,3.3
		c0,0.9-0.4,1.7-1,2.6l-2.9,4.1h-2.4L974.2,394.8z M975.9,391.5c0-1-0.8-1.6-1.8-1.6s-1.8,0.7-1.8,1.6s0.8,1.6,1.8,1.6
		S975.9,392.5,975.9,391.5z"/>
</g>
<g class="st1">
	<path class="st2" d="M1141.3,398.2h-1.9l-5.2-6.5v6.5h-2.1v-9.8h1.9l5.2,6.5v-6.5h2.1V398.2z"/>
	<path class="st2" d="M1150.8,394.8c0,2-1.6,3.6-3.9,3.6c-2.2,0-3.8-1.5-3.8-3.6c0-2,1.6-3.6,3.8-3.6
		C1149.1,391.2,1150.8,392.7,1150.8,394.8z M1145,394.8c0,1.1,0.8,1.9,1.9,1.9s1.9-0.8,1.9-1.9s-0.8-1.9-1.9-1.9
		S1145,393.7,1145,394.8z"/>
	<path class="st2" d="M1156.3,398.2h-2.2l-2.8-6.8h2.1l1.8,4.9l1.9-4.9h2L1156.3,398.2z"/>
	<path class="st2" d="M1162,397c0,0.7-0.7,1.4-1.4,1.4c-0.8,0-1.4-0.6-1.4-1.4c0-0.7,0.7-1.4,1.4-1.4
		C1161.4,395.6,1162,396.3,1162,397z"/>
	<path class="st2" d="M1166.8,389.9c0.6-0.7,1.6-1.7,3.5-1.7c2.2,0,3.5,1.3,3.5,3.2c0,1.2-0.6,2-1.5,2.9l-2.2,2.2h3.9v1.8h-6.8v-1.5
		l3.6-3.6c0.5-0.5,0.8-1.1,0.8-1.7c0-0.9-0.6-1.5-1.6-1.5s-1.6,0.5-2.1,1.1L1166.8,389.9z"/>
	<path class="st2" d="M1184.2,393.3c0,3.2-2,5.1-4.4,5.1c-2.5,0-4.4-1.9-4.4-5.1s2-5.1,4.4-5.1
		C1182.2,388.2,1184.2,390.1,1184.2,393.3z M1177.4,393.3c0,2.1,1.1,3.3,2.4,3.3s2.4-1.1,2.4-3.3c0-2.1-1-3.3-2.4-3.3
		S1177.4,391.1,1177.4,393.3z"/>
	<path class="st2" d="M1185.2,389.9c0.6-0.7,1.6-1.7,3.5-1.7c2.2,0,3.5,1.3,3.5,3.2c0,1.2-0.6,2-1.5,2.9l-2.2,2.2h3.9v1.8h-6.8v-1.5
		l3.6-3.6c0.5-0.5,0.8-1.1,0.8-1.7c0-0.9-0.6-1.5-1.6-1.5s-1.6,0.5-2.1,1.1L1185.2,389.9z"/>
	<path class="st2" d="M1202.6,393.3c0,3.2-2,5.1-4.4,5.1c-2.5,0-4.4-1.9-4.4-5.1s2-5.1,4.4-5.1
		C1200.7,388.2,1202.6,390.1,1202.6,393.3z M1195.8,393.3c0,2.1,1.1,3.3,2.4,3.3s2.4-1.1,2.4-3.3c0-2.1-1-3.3-2.4-3.3
		C1196.9,390,1195.8,391.1,1195.8,393.3z"/>
</g>
<g class="st1">
	<path class="st2" d="M12.9,318.8c0,3.2-2,5.1-4.4,5.1c-2.5,0-4.4-1.9-4.4-5.1s2-5.1,4.4-5.1C10.9,313.7,12.9,315.6,12.9,318.8z
		 M6.1,318.8c0,2.1,1.1,3.3,2.4,3.3s2.4-1.1,2.4-3.3c0-2.1-1-3.3-2.4-3.3C7.1,315.6,6.1,316.7,6.1,318.8z"/>
	<path class="st2" d="M16.9,322.5c0,0.7-0.7,1.4-1.4,1.4c-0.8,0-1.4-0.6-1.4-1.4c0-0.7,0.7-1.4,1.4-1.4
		C16.3,321.2,16.9,321.8,16.9,322.5z"/>
	<path class="st2" d="M24.9,315.7h-4.2v2h1.2c2.4,0,3.6,1.3,3.6,2.9c0,2.1-1.7,3.3-3.8,3.3c-1.5,0-2.8-0.5-3.6-1.5l1.1-1.3
		c0.6,0.6,1.6,1,2.5,1c1.1,0,1.7-0.6,1.7-1.4c0-0.7-0.5-1.4-2.1-1.4h-2.4l0.1-5.4h5.9C24.9,313.9,24.9,315.7,24.9,315.7z"/>
</g>
<g class="st1">
	<path class="st2" d="M25,272.4h-2v-7.3l-2.5,1v-1.9l4.4-1.7L25,272.4L25,272.4z"/>
</g>
<g class="st1">
	<path class="st2" d="M12.4,221h-2v-7.3l-2.5,1v-1.9l4.4-1.7L12.4,221L12.4,221z"/>
	<path class="st2" d="M17.1,219.8c0,0.7-0.7,1.4-1.4,1.4c-0.8,0-1.4-0.6-1.4-1.4c0-0.7,0.7-1.4,1.4-1.4
		C16.4,218.5,17.1,219.1,17.1,219.8z"/>
	<path class="st2" d="M25,213h-4.2v2H22c2.4,0,3.6,1.3,3.6,2.9c0,2.1-1.7,3.3-3.8,3.3c-1.5,0-2.8-0.5-3.6-1.5l1.1-1.3
		c0.6,0.6,1.6,1,2.5,1c1.1,0,1.7-0.6,1.7-1.4c0-0.7-0.5-1.4-2.1-1.4H19l0.1-5.4H25V213z"/>
</g>
<g class="st1">
	<path class="st2" d="M18.4,161.4c0.6-0.7,1.6-1.7,3.5-1.7c2.2,0,3.5,1.3,3.5,3.2c0,1.2-0.6,2-1.5,2.9l-2.2,2.2h3.9v1.8h-6.8v-1.5
		l3.6-3.6c0.5-0.5,0.8-1.1,0.8-1.7c0-0.9-0.6-1.5-1.6-1.5s-1.6,0.5-2.1,1.1L18.4,161.4z"/>
</g>
<g class="st1">
	<path class="st2" d="M5.8,110c0.6-0.7,1.6-1.7,3.5-1.7c2.2,0,3.5,1.3,3.5,3.2c0,1.2-0.6,2-1.5,2.9l-2.2,2.2H13v1.8H6.2v-1.5
		l3.6-3.6c0.5-0.5,0.8-1.1,0.8-1.7c0-0.9-0.6-1.5-1.6-1.5s-1.6,0.5-2.1,1.1L5.8,110z"/>
	<path class="st2" d="M17.3,117.1c0,0.7-0.7,1.4-1.4,1.4c-0.8,0-1.4-0.6-1.4-1.4c0-0.7,0.7-1.4,1.4-1.4
		C16.6,115.8,17.3,116.4,17.3,117.1z"/>
	<path class="st2" d="M25.2,110.3H21v2h1.2c2.4,0,3.6,1.3,3.6,2.9c0,2.1-1.7,3.3-3.8,3.3c-1.5,0-2.8-0.5-3.6-1.5l1.1-1.3
		c0.6,0.6,1.6,1,2.5,1c1.1,0,1.7-0.6,1.7-1.4c0-0.7-0.5-1.4-2.1-1.4h-2.4l0.1-5.4h5.9C25.2,108.5,25.2,110.3,25.2,110.3z"/>
</g>
<g class="st1">
	<path class="st2" d="M25.4,59.8c0,1-0.6,1.8-1.5,2.2c1.1,0.4,1.8,1.2,1.8,2.2c0,1.9-1.8,2.9-3.8,2.9c-1.5,0-2.8-0.5-3.6-1.4
		l1.2-1.2c0.6,0.6,1.5,0.9,2.3,0.9c1,0,1.8-0.4,1.8-1.3c0-0.8-0.9-1.3-2-1.3h-1.2v-1.7h1.2c1,0,1.8-0.4,1.8-1.2
		c0-0.8-0.8-1.2-1.7-1.2s-1.7,0.5-2.1,1l-1.3-1.2c0.7-0.9,1.8-1.5,3.4-1.5C23.9,57,25.4,58.1,25.4,59.8z"/>
</g>
<g class="st1">
	<path class="st2" d="M12.8,8.4c0,1-0.6,1.8-1.5,2.2c1.1,0.4,1.8,1.2,1.8,2.2c0,1.9-1.8,2.9-3.8,2.9c-1.5,0-2.8-0.5-3.6-1.4l1.2-1.2
		C7.5,13.7,8.4,14,9.2,14c1,0,1.8-0.4,1.8-1.3c0-0.8-0.9-1.3-2-1.3H7.8V9.7H9c1,0,1.8-0.4,1.8-1.2c0-0.8-0.8-1.2-1.7-1.2
		S7.4,7.8,7,8.3L5.7,7.1c0.7-0.9,1.8-1.5,3.4-1.5C11.3,5.6,12.8,6.8,12.8,8.4z"/>
	<path class="st2" d="M17.1,14.4c0,0.7-0.7,1.4-1.4,1.4c-0.8,0-1.4-0.6-1.4-1.4c0-0.7,0.7-1.4,1.4-1.4
		C16.4,13.1,17.1,13.7,17.1,14.4z"/>
	<path class="st2" d="M25,7.6h-4.2v2H22c2.4,0,3.6,1.3,3.6,2.9c0,2.1-1.7,3.3-3.8,3.3c-1.5,0-2.8-0.5-3.6-1.5l1.1-1.3
		c0.6,0.6,1.6,1,2.5,1c1.1,0,1.7-0.6,1.7-1.4c0-0.7-0.5-1.4-2.1-1.4H19l0.1-5.4H25V7.6z"/>
</g>
<line class="st0" x1="41.9" y1="372.6" x2="41.9" y2="13.1"/>
<line class="st3" x1="1176.8" y1="287.9" x2="1181.2" y2="286.6"/>
<line class="st3" x1="1172.4" y1="280.5" x2="1176.8" y2="287.9"/>
<line class="st3" x1="1168.1" y1="288.5" x2="1172.4" y2="280.5"/>
<line class="st3" x1="1163.7" y1="282.8" x2="1168.1" y2="288.5"/>
<line class="st3" x1="1159.4" y1="286" x2="1163.7" y2="282.8"/>
<line class="st3" x1="1155" y1="296" x2="1159.4" y2="286"/>
<line class="st3" x1="1150.7" y1="293.1" x2="1155" y2="296"/>
<line class="st3" x1="1146.3" y1="300.6" x2="1150.7" y2="293.1"/>
<line class="st3" x1="1141.9" y1="305.4" x2="1146.3" y2="300.6"/>
<line class="st3" x1="1137.6" y1="301.3" x2="1141.9" y2="305.4"/>
<line class="st3" x1="1133.2" y1="304.2" x2="1137.6" y2="301.3"/>
<line class="st3" x1="1128.9" y1="298.8" x2="1133.2" y2="304.2"/>
<line class="st3" x1="1124.5" y1="298.5" x2="1128.9" y2="298.8"/>
<line class="st3" x1="1120.2" y1="308" x2="1124.5" y2="298.5"/>
<line class="st3" x1="1115.8" y1="299.7" x2="1120.2" y2="308"/>
<line class="st3" x1="1111.4" y1="314.6" x2="1115.8" y2="299.7"/>
<line class="st3" x1="1107.1" y1="318.3" x2="1111.4" y2="314.6"/>
<line class="st3" x1="1102.7" y1="312.1" x2="1107.1" y2="318.3"/>
<line class="st3" x1="1098.4" y1="308.2" x2="1102.7" y2="312.1"/>
<line class="st3" x1="1094" y1="306.4" x2="1098.4" y2="308.2"/>
<line class="st3" x1="1089.7" y1="303.8" x2="1094" y2="306.4"/>
<line class="st3" x1="1085.3" y1="306.7" x2="1089.7" y2="303.8"/>
<line class="st3" x1="1081" y1="301.3" x2="1085.3" y2="306.7"/>
<line class="st3" x1="1076.6" y1="300.3" x2="1081" y2="301.3"/>
<line class="st3" x1="1072.2" y1="280.6" x2="1076.6" y2="300.3"/>
<line class="st3" x1="1067.9" y1="305.5" x2="1072.2" y2="280.6"/>
<line class="st3" x1="1063.5" y1="304.9" x2="1067.9" y2="305.5"/>
<line class="st3" x1="1059.2" y1="306.5" x2="1063.5" y2="304.9"/>
<line class="st3" x1="1054.8" y1="302.4" x2="1059.2" y2="306.5"/>
<line class="st3" x1="1050.5" y1="309.7" x2="1054.8" y2="302.4"/>
<line class="st3" x1="1046.1" y1="310.9" x2="1050.5" y2="309.7"/>
<line class="st3" x1="1041.8" y1="306.7" x2="1046.1" y2="310.9"/>
<line class="st3" x1="1037.4" y1="298.7" x2="1041.8" y2="306.7"/>
<line class="st3" x1="1033" y1="311.5" x2="1037.4" y2="298.7"/>
<line class="st3" x1="1028.7" y1="303.3" x2="1033" y2="311.5"/>
<line class="st3" x1="1024.3" y1="285.7" x2="1028.7" y2="303.3"/>
<line class="st3" x1="1020" y1="273.9" x2="1024.3" y2="285.7"/>
<line class="st3" x1="1015.6" y1="294.3" x2="1020" y2="273.9"/>
<line class="st3" x1="1011.2" y1="254.6" x2="1015.6" y2="294.3"/>
<line class="st3" x1="1006.9" y1="221.5" x2="1011.2" y2="254.6"/>
<line class="st3" x1="1002.5" y1="209.8" x2="1006.9" y2="221.5"/>
<line class="st3" x1="998.2" y1="209.9" x2="1002.5" y2="209.8"/>
<line class="st3" x1="993.8" y1="217.8" x2="998.2" y2="209.9"/>
<line class="st3" x1="989.5" y1="199.6" x2="993.8" y2="217.8"/>
<line class="st3" x1="985.1" y1="185.5" x2="989.5" y2="199.6"/>
<line class="st3" x1="980.8" y1="185.7" x2="985.1" y2="185.5"/>
<line class="st3" x1="976.4" y1="188.9" x2="980.8" y2="185.7"/>
<line class="st3" x1="972.1" y1="180" x2="976.4" y2="188.9"/>
<line class="st3" x1="967.7" y1="175.7" x2="972.1" y2="180"/>
<line class="st3" x1="963.3" y1="185.4" x2="967.7" y2="175.7"/>
<line class="st3" x1="959" y1="184" x2="963.3" y2="185.4"/>
<line class="st3" x1="954.6" y1="190.2" x2="959" y2="184"/>
<line class="st3" x1="950.3" y1="190.7" x2="954.6" y2="190.2"/>
<line class="st3" x1="945.9" y1="184.5" x2="950.3" y2="190.7"/>
<line class="st3" x1="941.5" y1="173.1" x2="945.9" y2="184.5"/>
<line class="st3" x1="937.2" y1="196.9" x2="941.5" y2="173.1"/>
<line class="st3" x1="932.8" y1="188.3" x2="937.2" y2="196.9"/>
<line class="st3" x1="928.5" y1="192.5" x2="932.8" y2="188.3"/>
<line class="st3" x1="924.1" y1="195" x2="928.5" y2="192.5"/>
<line class="st3" x1="919.8" y1="215.5" x2="924.1" y2="195"/>
<line class="st3" x1="915.4" y1="200" x2="919.8" y2="215.5"/>
<line class="st3" x1="911" y1="195.8" x2="915.4" y2="200"/>
<line class="st3" x1="906.7" y1="177.9" x2="911" y2="195.8"/>
<line class="st3" x1="902.3" y1="212.3" x2="906.7" y2="177.9"/>
<line class="st3" x1="898" y1="218.9" x2="902.3" y2="212.3"/>
<line class="st3" x1="893.6" y1="214.9" x2="898" y2="218.9"/>
<line class="st3" x1="889.3" y1="213" x2="893.6" y2="214.9"/>
<line class="st3" x1="884.9" y1="193.4" x2="889.3" y2="213"/>
<line class="st3" x1="880.6" y1="183.1" x2="884.9" y2="193.4"/>
<line class="st3" x1="876.2" y1="159.9" x2="880.6" y2="183.1"/>
<line class="st3" x1="871.8" y1="161.5" x2="876.2" y2="159.9"/>
<line class="st3" x1="867.5" y1="154.6" x2="871.8" y2="161.5"/>
<line class="st3" x1="863.1" y1="163.7" x2="867.5" y2="154.6"/>
<line class="st3" x1="858.8" y1="166.6" x2="863.1" y2="163.7"/>
<line class="st3" x1="854.4" y1="161.6" x2="858.8" y2="166.6"/>
<line class="st3" x1="850.1" y1="158.9" x2="854.4" y2="161.6"/>
<line class="st3" x1="845.7" y1="158.9" x2="850.1" y2="158.9"/>
<line class="st3" x1="841.3" y1="154.4" x2="845.7" y2="158.9"/>
<line class="st3" x1="837" y1="134.3" x2="841.3" y2="154.4"/>
<line class="st3" x1="832.6" y1="127" x2="837" y2="134.3"/>
<line class="st3" x1="828.3" y1="119.2" x2="832.6" y2="127"/>
<line class="st3" x1="823.9" y1="113.2" x2="828.3" y2="119.2"/>
<line class="st3" x1="819.6" y1="116" x2="823.9" y2="113.2"/>
<line class="st3" x1="815.2" y1="109.7" x2="819.6" y2="116"/>
<line class="st3" x1="810.8" y1="109.1" x2="815.2" y2="109.7"/>
<line class="st3" x1="806.5" y1="116.3" x2="810.8" y2="109.1"/>
<line class="st3" x1="802.1" y1="125.6" x2="806.5" y2="116.3"/>
<line class="st3" x1="797.8" y1="122.1" x2="802.1" y2="125.6"/>
<line class="st3" x1="793.4" y1="106.9" x2="797.8" y2="122.1"/>
<line class="st3" x1="789.1" y1="102.6" x2="793.4" y2="106.9"/>
<line class="st3" x1="784.7" y1="89.8" x2="789.1" y2="102.6"/>
<line class="st3" x1="780.4" y1="100.2" x2="784.7" y2="89.8"/>
<line class="st3" x1="776" y1="99.1" x2="780.4" y2="100.2"/>
<line class="st3" x1="771.7" y1="102.1" x2="776" y2="99.1"/>
<line class="st3" x1="767.3" y1="96.9" x2="771.7" y2="102.1"/>
<line class="st3" x1="762.9" y1="89.2" x2="767.3" y2="96.9"/>
<line class="st3" x1="758.6" y1="86.6" x2="762.9" y2="89.2"/>
<line class="st3" x1="754.2" y1="95.2" x2="758.6" y2="86.6"/>
<line class="st3" x1="749.9" y1="98.6" x2="754.2" y2="95.2"/>
<line class="st3" x1="745.5" y1="93.4" x2="749.9" y2="98.6"/>
<line class="st3" x1="741.2" y1="86" x2="745.5" y2="93.4"/>
<line class="st3" x1="736.8" y1="75.8" x2="741.2" y2="86"/>
<line class="st3" x1="732.4" y1="80.4" x2="736.8" y2="75.8"/>
<line class="st3" x1="728.1" y1="65.7" x2="732.4" y2="80.4"/>
<line class="st3" x1="723.7" y1="60.4" x2="728.1" y2="65.7"/>
<line class="st3" x1="719.4" y1="58" x2="723.7" y2="60.4"/>
<line class="st3" x1="715" y1="45.8" x2="719.4" y2="58"/>
<line class="st3" x1="710.7" y1="42.7" x2="715" y2="45.8"/>
<line class="st3" x1="706.3" y1="56.7" x2="710.7" y2="42.7"/>
<line class="st3" x1="701.9" y1="44.7" x2="706.3" y2="56.7"/>
<line class="st3" x1="697.6" y1="47.9" x2="701.9" y2="44.7"/>
<line class="st3" x1="693.2" y1="40.5" x2="697.6" y2="47.9"/>
<line class="st3" x1="688.9" y1="58.2" x2="693.2" y2="40.5"/>
<line class="st3" x1="684.5" y1="58" x2="688.9" y2="58.2"/>
<line class="st3" x1="680.2" y1="64.9" x2="684.5" y2="58"/>
<line class="st3" x1="675.8" y1="70.7" x2="680.2" y2="64.9"/>
<line class="st3" x1="671.5" y1="78.8" x2="675.8" y2="70.7"/>
<line class="st3" x1="667.1" y1="84" x2="671.5" y2="78.8"/>
<line class="st3" x1="662.7" y1="78.8" x2="667.1" y2="84"/>
<line class="st3" x1="658.4" y1="77.5" x2="662.7" y2="78.8"/>
<line class="st3" x1="654" y1="69.7" x2="658.4" y2="77.5"/>
<line class="st3" x1="649.7" y1="69.2" x2="654" y2="69.7"/>
<line class="st3" x1="645.3" y1="75.4" x2="649.7" y2="69.2"/>
<line class="st3" x1="641" y1="82.2" x2="645.3" y2="75.4"/>
<line class="st3" x1="636.6" y1="82.8" x2="641" y2="82.2"/>
<line class="st3" x1="632.2" y1="78.8" x2="636.6" y2="82.8"/>
<line class="st3" x1="627.9" y1="75.2" x2="632.2" y2="78.8"/>
<line class="st3" x1="623.5" y1="72.6" x2="627.9" y2="75.2"/>
<line class="st3" x1="619.2" y1="70" x2="623.5" y2="72.6"/>
<line class="st3" x1="614.8" y1="74.5" x2="619.2" y2="70"/>
<line class="st3" x1="610.5" y1="71.5" x2="614.8" y2="74.5"/>
<line class="st3" x1="606.1" y1="58.7" x2="610.5" y2="71.5"/>
<line class="st3" x1="601.7" y1="67.6" x2="606.1" y2="58.7"/>
<line class="st3" x1="597.4" y1="69.6" x2="601.7" y2="67.6"/>
<line class="st3" x1="593" y1="68.9" x2="597.4" y2="69.6"/>
<line class="st3" x1="588.7" y1="68.5" x2="593" y2="68.9"/>
<line class="st3" x1="584.3" y1="82.2" x2="588.7" y2="68.5"/>
<line class="st3" x1="580" y1="87.7" x2="584.3" y2="82.2"/>
<line class="st3" x1="575.6" y1="91.3" x2="580" y2="87.7"/>
<line class="st3" x1="571.2" y1="83.6" x2="575.6" y2="91.3"/>
<line class="st3" x1="566.9" y1="80.4" x2="571.2" y2="83.6"/>
<line class="st3" x1="562.5" y1="75.4" x2="566.9" y2="80.4"/>
<line class="st3" x1="558.2" y1="78.4" x2="562.5" y2="75.4"/>
<line class="st3" x1="553.8" y1="78.2" x2="558.2" y2="78.4"/>
<line class="st3" x1="549.5" y1="77.3" x2="553.8" y2="78.2"/>
<line class="st3" x1="545.1" y1="79.7" x2="549.5" y2="77.3"/>
<line class="st3" x1="540.8" y1="80.8" x2="545.1" y2="79.7"/>
<line class="st3" x1="536.4" y1="99.4" x2="540.8" y2="80.8"/>
<line class="st3" x1="532" y1="99.4" x2="536.4" y2="99.4"/>
<line class="st3" x1="527.7" y1="111.1" x2="532" y2="99.4"/>
<line class="st3" x1="523.3" y1="118.2" x2="527.7" y2="111.1"/>
<line class="st3" x1="519" y1="125.5" x2="523.3" y2="118.2"/>
<line class="st3" x1="514.6" y1="117.8" x2="519" y2="125.5"/>
<line class="st3" x1="510.3" y1="130.9" x2="514.6" y2="117.8"/>
<line class="st3" x1="505.9" y1="128.5" x2="510.3" y2="130.9"/>
<line class="st3" x1="501.5" y1="130" x2="505.9" y2="128.5"/>
<line class="st3" x1="497.2" y1="132.1" x2="501.5" y2="130"/>
<line class="st3" x1="492.8" y1="131.9" x2="497.2" y2="132.1"/>
<line class="st3" x1="488.5" y1="126.2" x2="492.8" y2="131.9"/>
<line class="st3" x1="484.1" y1="133" x2="488.5" y2="126.2"/>
<line class="st3" x1="479.8" y1="125.4" x2="484.1" y2="133"/>
<line class="st3" x1="475.4" y1="127.7" x2="479.8" y2="125.4"/>
<line class="st3" x1="471" y1="139.1" x2="475.4" y2="127.7"/>
<line class="st3" x1="466.7" y1="130.3" x2="471" y2="139.1"/>
<line class="st3" x1="462.3" y1="132.9" x2="466.7" y2="130.3"/>
<line class="st3" x1="458" y1="141.5" x2="462.3" y2="132.9"/>
<line class="st3" x1="453.6" y1="146.4" x2="458" y2="141.5"/>
<line class="st3" x1="449.3" y1="161.9" x2="453.6" y2="146.4"/>
<line class="st3" x1="444.9" y1="150.1" x2="449.3" y2="161.9"/>
<line class="st3" x1="440.5" y1="150.1" x2="444.9" y2="150.1"/>
<line class="st3" x1="436.2" y1="147.2" x2="440.5" y2="150.1"/>
<line class="st3" x1="431.8" y1="147.8" x2="436.2" y2="147.2"/>
<line class="st3" x1="427.5" y1="140.2" x2="431.8" y2="147.8"/>
<line class="st3" x1="423.1" y1="137.5" x2="427.5" y2="140.2"/>
<line class="st3" x1="418.8" y1="142.8" x2="423.1" y2="137.5"/>
<line class="st3" x1="414.4" y1="133.1" x2="418.8" y2="142.8"/>
<line class="st3" x1="410.1" y1="127.6" x2="414.4" y2="133.1"/>
<line class="st3" x1="405.7" y1="136" x2="410.1" y2="127.6"/>
<line class="st3" x1="401.3" y1="152.5" x2="405.7" y2="136"/>
<line class="st3" x1="397" y1="151.6" x2="401.3" y2="152.5"/>
<line class="st3" x1="392.6" y1="146.6" x2="397" y2="151.6"/>
<line class="st3" x1="388.3" y1="150.8" x2="392.6" y2="146.6"/>
<line class="st3" x1="383.9" y1="141.8" x2="388.3" y2="150.8"/>
<line class="st3" x1="379.6" y1="143.1" x2="383.9" y2="141.8"/>
<line class="st3" x1="375.2" y1="133.7" x2="379.6" y2="143.1"/>
<line class="st3" x1="370.9" y1="131.3" x2="375.2" y2="133.7"/>
<line class="st3" x1="366.5" y1="138.4" x2="370.9" y2="131.3"/>
<line class="st3" x1="362.1" y1="141.7" x2="366.5" y2="138.4"/>
<line class="st3" x1="357.8" y1="142.8" x2="362.1" y2="141.7"/>
<line class="st3" x1="353.4" y1="127.9" x2="357.8" y2="142.8"/>
<line class="st3" x1="349.1" y1="127.4" x2="353.4" y2="127.9"/>
<line class="st3" x1="344.7" y1="124.8" x2="349.1" y2="127.4"/>
<line class="st3" x1="340.4" y1="115.8" x2="344.7" y2="124.8"/>
<line class="st3" x1="336" y1="108.1" x2="340.4" y2="115.8"/>
<line class="st3" x1="331.6" y1="118.1" x2="336" y2="108.1"/>
<line class="st3" x1="327.3" y1="135.1" x2="331.6" y2="118.1"/>
<line class="st3" x1="322.9" y1="124.6" x2="327.3" y2="135.1"/>
<line class="st3" x1="318.6" y1="125.3" x2="322.9" y2="124.6"/>
<line class="st3" x1="314.2" y1="119.4" x2="318.6" y2="125.3"/>
<line class="st3" x1="309.9" y1="117.4" x2="314.2" y2="119.4"/>
<line class="st3" x1="305.5" y1="119.2" x2="309.9" y2="117.4"/>
<line class="st3" x1="301.1" y1="126.4" x2="305.5" y2="119.2"/>
<line class="st3" x1="296.8" y1="124.1" x2="301.1" y2="126.4"/>
<line class="st3" x1="292.4" y1="121.5" x2="296.8" y2="124.1"/>
<line class="st3" x1="288.1" y1="112" x2="292.4" y2="121.5"/>
<line class="st3" x1="283.7" y1="106.4" x2="288.1" y2="112"/>
<line class="st3" x1="279.4" y1="119.1" x2="283.7" y2="106.4"/>
<line class="st3" x1="275" y1="127.8" x2="279.4" y2="119.1"/>
<line class="st3" x1="270.6" y1="130.5" x2="275" y2="127.8"/>
<line class="st3" x1="266.3" y1="130.7" x2="270.6" y2="130.5"/>
<line class="st3" x1="261.9" y1="151.7" x2="266.3" y2="130.7"/>
<line class="st3" x1="257.6" y1="190.1" x2="261.9" y2="151.7"/>
<line class="st3" x1="253.2" y1="182.9" x2="257.6" y2="190.1"/>
<line class="st3" x1="248.9" y1="194.4" x2="253.2" y2="182.9"/>
<line class="st3" x1="244.5" y1="187.9" x2="248.9" y2="194.4"/>
<line class="st3" x1="240.1" y1="196.1" x2="244.5" y2="187.9"/>
<line class="st3" x1="235.8" y1="208.8" x2="240.1" y2="196.1"/>
<line class="st3" x1="231.4" y1="206.4" x2="235.8" y2="208.8"/>
<line class="st3" x1="227.1" y1="198.7" x2="231.4" y2="206.4"/>
<line class="st3" x1="222.7" y1="200.5" x2="227.1" y2="198.7"/>
<line class="st3" x1="218.4" y1="208" x2="222.7" y2="200.5"/>
<line class="st3" x1="214" y1="205.2" x2="218.4" y2="208"/>
<line class="st3" x1="209.7" y1="210.5" x2="214" y2="205.2"/>
<line class="st3" x1="205.3" y1="217.1" x2="209.7" y2="210.5"/>
<line class="st3" x1="201" y1="209.4" x2="205.3" y2="217.1"/>
<line class="st3" x1="196.6" y1="223.3" x2="201" y2="209.4"/>
<line class="st3" x1="192.2" y1="211.7" x2="196.6" y2="223.3"/>
<line class="st3" x1="187.9" y1="213.3" x2="192.2" y2="211.7"/>
<line class="st3" x1="183.5" y1="233.1" x2="187.9" y2="213.3"/>
<line class="st3" x1="179.2" y1="224.2" x2="183.5" y2="233.1"/>
<line class="st3" x1="174.8" y1="212.4" x2="179.2" y2="224.2"/>
<line class="st3" x1="170.4" y1="207.4" x2="174.8" y2="212.4"/>
<line class="st3" x1="166.1" y1="204.1" x2="170.4" y2="207.4"/>
<line class="st3" x1="161.7" y1="197.9" x2="166.1" y2="204.1"/>
<line class="st3" x1="157.4" y1="182.5" x2="161.7" y2="197.9"/>
<line class="st3" x1="153" y1="183.8" x2="157.4" y2="182.5"/>
<line class="st3" x1="148.7" y1="198" x2="153" y2="183.8"/>
<line class="st3" x1="144.3" y1="189.9" x2="148.7" y2="198"/>
<line class="st3" x1="139.9" y1="184.3" x2="144.3" y2="189.9"/>
<line class="st3" x1="135.6" y1="178.7" x2="139.9" y2="184.3"/>
<line class="st3" x1="131.2" y1="192.6" x2="135.6" y2="178.7"/>
<line class="st3" x1="126.9" y1="196.2" x2="131.2" y2="192.6"/>
<line class="st3" x1="122.5" y1="190.7" x2="126.9" y2="196.2"/>
<line class="st3" x1="118.2" y1="177.4" x2="122.5" y2="190.7"/>
<line class="st3" x1="113.8" y1="180.2" x2="118.2" y2="177.4"/>
<line class="st3" x1="109.5" y1="168.8" x2="113.8" y2="180.2"/>
<line class="st3" x1="105.1" y1="180.1" x2="109.5" y2="168.8"/>
<line class="st3" x1="100.8" y1="191.6" x2="105.1" y2="180.1"/>
<line class="st3" x1="96.4" y1="193.4" x2="100.8" y2="191.6"/>
<line class="st3" x1="92" y1="193" x2="96.4" y2="193.4"/>
<line class="st3" x1="87.7" y1="184" x2="92" y2="193"/>
<line class="st3" x1="83.3" y1="175.3" x2="87.7" y2="184"/>
<line class="st3" x1="79" y1="161.8" x2="83.3" y2="175.3"/>
<line class="st3" x1="74.6" y1="163.6" x2="79" y2="161.8"/>
<line class="st3" x1="70.2" y1="155.3" x2="74.6" y2="163.6"/>
<line class="st3" x1="65.9" y1="139.5" x2="70.2" y2="155.3"/>
<line class="st3" x1="61.5" y1="142.4" x2="65.9" y2="139.5"/>
<line class="st3" x1="57.2" y1="146.2" x2="61.5" y2="142.4"/>
<line class="st3" x1="52.8" y1="154.1" x2="57.2" y2="146.2"/>
<line class="st3" x1="48.5" y1="139.5" x2="52.8" y2="154.1"/>
<line class="st3" x1="44.1" y1="144.6" x2="48.5" y2="139.5"/>
</svg>
