<?xml version="1.0" encoding="utf-8"?>
<!-- Generator: Adobe Illustrator 24.3.0, SVG Export Plug-In . SVG Version: 6.00 Build 0)  -->
<svg version="1.1" id="Layer_1" xmlns="http://www.w3.org/2000/svg" xmlns:xlink="http://www.w3.org/1999/xlink" x="0px" y="0px"
	 viewBox="0 0 1200 418.8" style="enable-background:new 0 0 1200 418.8;" xml:space="preserve">
<style type="text/css">
	.st0{fill:none;}
	.st1{fill:#203232;}
	.st2{fill:none;stroke:#203232;stroke-miterlimit:10;}
	.st3{fill:none;stroke:#ED5A36;stroke-width:4;stroke-linecap:round;stroke-linejoin:round;stroke-miterlimit:10;}
</style>
<g>
	<g>
		<line class="st0" x1="62.1" y1="377.9" x2="1201.4" y2="377.9"/>
		<line class="st0" x1="62.1" y1="328.4" x2="1201.4" y2="328.4"/>
		<line class="st0" x1="62.1" y1="279" x2="1201.4" y2="279"/>
		<line class="st0" x1="62.1" y1="229.5" x2="1201.4" y2="229.5"/>
		<line class="st0" x1="62.1" y1="180.1" x2="1201.4" y2="180.1"/>
		<line class="st0" x1="62.1" y1="130.6" x2="1201.4" y2="130.6"/>
		<line class="st0" x1="62.1" y1="81.2" x2="1201.4" y2="81.2"/>
		<line class="st0" x1="62.1" y1="31.7" x2="1201.4" y2="31.7"/>
	</g>
</g>
<g>
	<path class="st1" d="M30.6,406.2c0,3.2-1.9,5.1-4.2,5.1s-4.2-1.9-4.2-5.1s1.9-5.1,4.2-5.1S30.6,403,30.6,406.2z M24.1,406.2
		c0,2.1,1,3.3,2.3,3.3s2.3-1.1,2.3-3.3c0-2.1-1-3.3-2.3-3.3S24.1,404,24.1,406.2z"/>
	<path class="st1" d="M35.9,411.1H34v-7.3l-2.3,1v-2l4.2-1.7V411.1z"/>
	<path class="st1" d="M38.7,412.5h-1.9l5.9-12.2h1.9L38.7,412.5z"/>
	<path class="st1" d="M53.5,406.2c0,3.2-1.9,5.1-4.2,5.1s-4.2-1.9-4.2-5.1s1.9-5.1,4.2-5.1S53.5,403,53.5,406.2z M47,406.2
		c0,2.1,1,3.3,2.3,3.3s2.3-1.1,2.3-3.3c0-2.1-1-3.3-2.3-3.3S47,404,47,406.2z"/>
	<path class="st1" d="M58.8,411.1h-1.9v-7.3l-2.3,1v-2l4.2-1.7V411.1z"/>
	<path class="st1" d="M61.6,412.5h-1.9l5.9-12.2h1.9L61.6,412.5z"/>
	<path class="st1" d="M67.7,402.8c0.5-0.7,1.5-1.7,3.3-1.7c2.1,0,3.3,1.3,3.3,3.2c0,1.2-0.6,2-1.4,2.9l-2.1,2.2h3.7v1.8H68v-1.5
		l3.5-3.6c0.5-0.5,0.8-1.1,0.8-1.7c0-0.9-0.6-1.5-1.5-1.5s-1.5,0.5-2,1.1L67.7,402.8z"/>
	<path class="st1" d="M84.2,406.2c0,3.2-1.9,5.1-4.2,5.1c-2.3,0-4.2-1.9-4.2-5.1s1.9-5.1,4.2-5.1C82.4,401.1,84.2,403,84.2,406.2z
		 M77.8,406.2c0,2.1,1,3.3,2.3,3.3s2.3-1.1,2.3-3.3c0-2.1-1-3.3-2.3-3.3S77.8,404,77.8,406.2z"/>
	<path class="st1" d="M85.4,402.8c0.5-0.7,1.5-1.7,3.3-1.7c2.1,0,3.3,1.3,3.3,3.2c0,1.2-0.6,2-1.4,2.9l-2.1,2.2h3.7v1.8h-6.5v-1.5
		l3.5-3.6c0.5-0.5,0.8-1.1,0.8-1.7c0-0.9-0.6-1.5-1.5-1.5s-1.5,0.5-2,1.1L85.4,402.8z"/>
	<path class="st1" d="M102,406.2c0,3.2-1.9,5.1-4.2,5.1c-2.3,0-4.2-1.9-4.2-5.1s1.9-5.1,4.2-5.1S102,403,102,406.2z M95.5,406.2
		c0,2.1,1,3.3,2.3,3.3s2.3-1.1,2.3-3.3c0-2.1-1-3.3-2.3-3.3S95.5,404,95.5,406.2z"/>
</g>
<g>
	<path class="st1" d="M133.1,406.2c0,3.2-1.9,5.1-4.2,5.1s-4.2-1.9-4.2-5.1s1.9-5.1,4.2-5.1C131.2,401.1,133.1,403,133.1,406.2z
		 M126.6,406.2c0,2.1,1,3.3,2.3,3.3c1.3,0,2.3-1.1,2.3-3.3c0-2.1-1-3.3-2.3-3.3C127.6,402.9,126.6,404,126.6,406.2z"/>
	<path class="st1" d="M138.4,411.1h-1.9v-7.3l-2.3,1v-2l4.2-1.7V411.1z"/>
	<path class="st1" d="M141.2,412.5h-1.9l5.9-12.2h1.9L141.2,412.5z"/>
	<path class="st1" d="M156,406.2c0,3.2-1.9,5.1-4.2,5.1s-4.2-1.9-4.2-5.1s1.9-5.1,4.2-5.1S156,403,156,406.2z M149.5,406.2
		c0,2.1,1,3.3,2.3,3.3s2.3-1.1,2.3-3.3c0-2.1-1-3.3-2.3-3.3S149.5,404,149.5,406.2z"/>
	<path class="st1" d="M157.2,402.8c0.5-0.7,1.5-1.7,3.3-1.7c2.1,0,3.3,1.3,3.3,3.2c0,1.2-0.6,2-1.4,2.9l-2.1,2.2h3.7v1.8h-6.5v-1.5
		l3.5-3.6c0.5-0.5,0.8-1.1,0.8-1.7c0-0.9-0.6-1.5-1.5-1.5s-1.5,0.5-2,1.1L157.2,402.8z"/>
	<path class="st1" d="M166.2,412.5h-1.9l5.9-12.2h1.9L166.2,412.5z"/>
	<path class="st1" d="M172.3,402.8c0.5-0.7,1.5-1.7,3.3-1.7c2.1,0,3.3,1.3,3.3,3.2c0,1.2-0.6,2-1.4,2.9l-2.1,2.2h3.7v1.8h-6.5v-1.5
		l3.5-3.6c0.5-0.5,0.8-1.1,0.8-1.7c0-0.9-0.6-1.5-1.5-1.5s-1.5,0.5-2,1.1L172.3,402.8z"/>
	<path class="st1" d="M188.9,406.2c0,3.2-1.9,5.1-4.2,5.1s-4.2-1.9-4.2-5.1s1.9-5.1,4.2-5.1S188.9,403,188.9,406.2z M182.4,406.2
		c0,2.1,1,3.3,2.3,3.3s2.3-1.1,2.3-3.3c0-2.1-1-3.3-2.3-3.3S182.4,404,182.4,406.2z"/>
	<path class="st1" d="M190.1,402.8c0.5-0.7,1.5-1.7,3.3-1.7c2.1,0,3.3,1.3,3.3,3.2c0,1.2-0.6,2-1.4,2.9l-2.1,2.2h3.7v1.8h-6.5v-1.5
		l3.5-3.6c0.5-0.5,0.8-1.1,0.8-1.7c0-0.9-0.6-1.5-1.5-1.5s-1.5,0.5-2,1.1L190.1,402.8z"/>
	<path class="st1" d="M206.7,406.2c0,3.2-1.9,5.1-4.2,5.1s-4.2-1.9-4.2-5.1s1.9-5.1,4.2-5.1S206.7,403,206.7,406.2z M200.2,406.2
		c0,2.1,1,3.3,2.3,3.3s2.3-1.1,2.3-3.3c0-2.1-1-3.3-2.3-3.3S200.2,404,200.2,406.2z"/>
</g>
<g>
	<path class="st1" d="M236.6,406.2c0,3.2-1.9,5.1-4.2,5.1s-4.2-1.9-4.2-5.1s1.9-5.1,4.2-5.1C234.7,401.1,236.6,403,236.6,406.2z
		 M230.1,406.2c0,2.1,1,3.3,2.3,3.3s2.3-1.1,2.3-3.3c0-2.1-1-3.3-2.3-3.3S230.1,404,230.1,406.2z"/>
	<path class="st1" d="M241.9,411.1H240v-7.3l-2.3,1v-2l4.2-1.7V411.1z"/>
	<path class="st1" d="M244.7,412.5h-1.9l5.9-12.2h1.9L244.7,412.5z"/>
	<path class="st1" d="M259.5,406.2c0,3.2-1.9,5.1-4.2,5.1s-4.2-1.9-4.2-5.1s1.9-5.1,4.2-5.1S259.5,403,259.5,406.2z M253,406.2
		c0,2.1,1,3.3,2.3,3.3s2.3-1.1,2.3-3.3c0-2.1-1-3.3-2.3-3.3S253,404,253,406.2z"/>
	<path class="st1" d="M267.4,403.9c0,1-0.6,1.8-1.5,2.2c1,0.4,1.7,1.2,1.7,2.2c0,1.9-1.8,2.9-3.6,2.9c-1.5,0-2.7-0.5-3.4-1.4
		l1.1-1.2c0.6,0.6,1.4,0.9,2.2,0.9c1,0,1.7-0.4,1.7-1.3c0-0.8-0.9-1.3-1.9-1.3h-1.1v-1.7h1.1c1,0,1.7-0.4,1.7-1.2
		c0-0.8-0.7-1.2-1.6-1.2s-1.6,0.5-2,1l-1.2-1.2c0.6-0.9,1.7-1.5,3.3-1.5C266,401.1,267.4,402.2,267.4,403.9z"/>
	<path class="st1" d="M269.9,412.5H268l5.9-12.2h1.9L269.9,412.5z"/>
	<path class="st1" d="M275.9,402.8c0.5-0.7,1.5-1.7,3.3-1.7c2.1,0,3.3,1.3,3.3,3.2c0,1.2-0.6,2-1.4,2.9l-2.1,2.2h3.7v1.8h-6.5v-1.5
		l3.5-3.6c0.5-0.5,0.8-1.1,0.8-1.7c0-0.9-0.6-1.5-1.5-1.5s-1.5,0.5-2,1.1L275.9,402.8z"/>
	<path class="st1" d="M292.5,406.2c0,3.2-1.9,5.1-4.2,5.1c-2.3,0-4.2-1.9-4.2-5.1s1.9-5.1,4.2-5.1S292.5,403,292.5,406.2z
		 M286,406.2c0,2.1,1,3.3,2.3,3.3s2.3-1.1,2.3-3.3c0-2.1-1-3.3-2.3-3.3S286,404,286,406.2z"/>
	<path class="st1" d="M293.7,402.8c0.5-0.7,1.5-1.7,3.3-1.7c2.1,0,3.3,1.3,3.3,3.2c0,1.2-0.6,2-1.4,2.9l-2.1,2.2h3.7v1.8H294v-1.5
		l3.5-3.6c0.5-0.5,0.8-1.1,0.8-1.7c0-0.9-0.6-1.5-1.5-1.5s-1.5,0.5-2,1.1L293.7,402.8z"/>
	<path class="st1" d="M310.3,406.2c0,3.2-1.9,5.1-4.2,5.1c-2.3,0-4.2-1.9-4.2-5.1s1.9-5.1,4.2-5.1S310.3,403,310.3,406.2z
		 M303.8,406.2c0,2.1,1,3.3,2.3,3.3s2.3-1.1,2.3-3.3c0-2.1-1-3.3-2.3-3.3S303.8,404,303.8,406.2z"/>
</g>
<g>
	<path class="st1" d="M340.1,406.2c0,3.2-1.9,5.1-4.2,5.1c-2.3,0-4.2-1.9-4.2-5.1s1.9-5.1,4.2-5.1S340.1,403,340.1,406.2z
		 M333.6,406.2c0,2.1,1,3.3,2.3,3.3s2.3-1.1,2.3-3.3c0-2.1-1-3.3-2.3-3.3S333.6,404,333.6,406.2z"/>
	<path class="st1" d="M345.4,411.1h-1.9v-7.3l-2.3,1v-2l4.2-1.7L345.4,411.1L345.4,411.1z"/>
	<path class="st1" d="M348.2,412.5h-1.9l5.9-12.2h1.9L348.2,412.5z"/>
	<path class="st1" d="M363,406.2c0,3.2-1.9,5.1-4.2,5.1c-2.3,0-4.2-1.9-4.2-5.1s1.9-5.1,4.2-5.1S363,403,363,406.2z M356.5,406.2
		c0,2.1,1,3.3,2.3,3.3s2.3-1.1,2.3-3.3c0-2.1-1-3.3-2.3-3.3S356.5,404,356.5,406.2z"/>
	<path class="st1" d="M370.2,407.5h1.4v1.8h-1.4v1.8h-1.9v-1.8H364v-1.4l3.4-6.6h2.1l-3.3,6.2h2.1v-2.6h1.9V407.5z"/>
	<path class="st1" d="M373.5,412.5h-1.9l5.9-12.2h1.9L373.5,412.5z"/>
	<path class="st1" d="M379.6,402.8c0.5-0.7,1.5-1.7,3.3-1.7c2.1,0,3.3,1.3,3.3,3.2c0,1.2-0.6,2-1.4,2.9l-2.1,2.2h3.7v1.8H380v-1.5
		l3.5-3.6c0.5-0.5,0.8-1.1,0.8-1.7c0-0.9-0.6-1.5-1.5-1.5s-1.5,0.5-2,1.1L379.6,402.8z"/>
	<path class="st1" d="M396.2,406.2c0,3.2-1.9,5.1-4.2,5.1c-2.3,0-4.2-1.9-4.2-5.1s1.9-5.1,4.2-5.1
		C394.3,401.1,396.2,403,396.2,406.2z M389.7,406.2c0,2.1,1,3.3,2.3,3.3s2.3-1.1,2.3-3.3c0-2.1-1-3.3-2.3-3.3S389.7,404,389.7,406.2
		z"/>
	<path class="st1" d="M397.4,402.8c0.5-0.7,1.5-1.7,3.3-1.7c2.1,0,3.3,1.3,3.3,3.2c0,1.2-0.6,2-1.4,2.9l-2.1,2.2h3.7v1.8h-6.5v-1.5
		l3.5-3.6c0.5-0.5,0.8-1.1,0.8-1.7c0-0.9-0.6-1.5-1.5-1.5s-1.5,0.5-2,1.1L397.4,402.8z"/>
	<path class="st1" d="M414,406.2c0,3.2-1.9,5.1-4.2,5.1c-2.3,0-4.2-1.9-4.2-5.1s1.9-5.1,4.2-5.1S414,403,414,406.2z M407.5,406.2
		c0,2.1,1,3.3,2.3,3.3s2.3-1.1,2.3-3.3c0-2.1-1-3.3-2.3-3.3S407.5,404,407.5,406.2z"/>
</g>
<g>
	<path class="st1" d="M443.7,406.2c0,3.2-1.9,5.1-4.2,5.1c-2.3,0-4.2-1.9-4.2-5.1s1.9-5.1,4.2-5.1
		C441.8,401.1,443.7,403,443.7,406.2z M437.2,406.2c0,2.1,1,3.3,2.3,3.3s2.3-1.1,2.3-3.3c0-2.1-1-3.3-2.3-3.3S437.2,404,437.2,406.2
		z"/>
	<path class="st1" d="M449,411.1h-1.9v-7.3l-2.3,1v-2l4.2-1.7L449,411.1L449,411.1z"/>
	<path class="st1" d="M451.8,412.5h-1.9l5.9-12.2h1.9L451.8,412.5z"/>
	<path class="st1" d="M466.6,406.2c0,3.2-1.9,5.1-4.2,5.1c-2.3,0-4.2-1.9-4.2-5.1s1.9-5.1,4.2-5.1S466.6,403,466.6,406.2z
		 M460.1,406.2c0,2.1,1,3.3,2.3,3.3s2.3-1.1,2.3-3.3c0-2.1-1-3.3-2.3-3.3S460.1,404,460.1,406.2z"/>
	<path class="st1" d="M474.3,403h-4v2h1.1c2.3,0,3.4,1.3,3.4,2.9c0,2.1-1.6,3.3-3.6,3.3c-1.5,0-2.7-0.5-3.5-1.5l1.1-1.3
		c0.5,0.6,1.5,1,2.4,1c1.1,0,1.6-0.6,1.6-1.4c0-0.7-0.5-1.4-2-1.4h-2.3l0.1-5.4h5.6L474.3,403L474.3,403z"/>
	<path class="st1" d="M477.1,412.5h-1.9l5.9-12.2h1.9L477.1,412.5z"/>
	<path class="st1" d="M483.2,402.8c0.5-0.7,1.5-1.7,3.3-1.7c2.1,0,3.3,1.3,3.3,3.2c0,1.2-0.6,2-1.4,2.9l-2.1,2.2h3.7v1.8h-6.5v-1.5
		l3.5-3.6c0.5-0.5,0.8-1.1,0.8-1.7c0-0.9-0.6-1.5-1.5-1.5s-1.5,0.5-2,1.1L483.2,402.8z"/>
	<path class="st1" d="M499.8,406.2c0,3.2-1.9,5.1-4.2,5.1c-2.3,0-4.2-1.9-4.2-5.1s1.9-5.1,4.2-5.1S499.8,403,499.8,406.2z
		 M493.3,406.2c0,2.1,1,3.3,2.3,3.3s2.3-1.1,2.3-3.3c0-2.1-1-3.3-2.3-3.3S493.3,404,493.3,406.2z"/>
	<path class="st1" d="M500.9,402.8c0.5-0.7,1.5-1.7,3.3-1.7c2.1,0,3.3,1.3,3.3,3.2c0,1.2-0.6,2-1.4,2.9l-2.1,2.2h3.7v1.8h-6.5v-1.5
		l3.5-3.6c0.5-0.5,0.8-1.1,0.8-1.7c0-0.9-0.6-1.5-1.5-1.5s-1.5,0.5-2,1.1L500.9,402.8z"/>
	<path class="st1" d="M517.5,406.2c0,3.2-1.9,5.1-4.2,5.1s-4.2-1.9-4.2-5.1s1.9-5.1,4.2-5.1C515.6,401.1,517.5,403,517.5,406.2z
		 M511,406.2c0,2.1,1,3.3,2.3,3.3s2.3-1.1,2.3-3.3c0-2.1-1-3.3-2.3-3.3S511,404,511,406.2z"/>
</g>
<g>
	<path class="st1" d="M547.2,406.2c0,3.2-1.9,5.1-4.2,5.1s-4.2-1.9-4.2-5.1s1.9-5.1,4.2-5.1S547.2,403,547.2,406.2z M540.7,406.2
		c0,2.1,1,3.3,2.3,3.3s2.3-1.1,2.3-3.3c0-2.1-1-3.3-2.3-3.3S540.7,404,540.7,406.2z"/>
	<path class="st1" d="M552.5,411.1h-1.9v-7.3l-2.3,1v-2l4.2-1.7V411.1z"/>
	<path class="st1" d="M555.3,412.5h-1.9l5.9-12.2h1.9L555.3,412.5z"/>
	<path class="st1" d="M570.1,406.2c0,3.2-1.9,5.1-4.2,5.1s-4.2-1.9-4.2-5.1s1.9-5.1,4.2-5.1C568.2,401.1,570.1,403,570.1,406.2z
		 M563.6,406.2c0,2.1,1,3.3,2.3,3.3s2.3-1.1,2.3-3.3c0-2.1-1-3.3-2.3-3.3S563.6,404,563.6,406.2z"/>
	<path class="st1" d="M574.8,404.7c0.1,0,0.3,0,0.5,0c2,0,3.4,1.4,3.4,3.3s-1.6,3.3-3.7,3.3c-2.1,0-3.7-1.4-3.7-3.3
		c0-0.9,0.3-1.7,0.9-2.6l2.7-4.1h2.3L574.8,404.7z M573.2,407.9c0,1,0.7,1.6,1.7,1.6s1.7-0.7,1.7-1.6s-0.7-1.6-1.7-1.6
		C574,406.3,573.2,407,573.2,407.9z"/>
	<path class="st1" d="M580.7,412.5h-1.9l5.9-12.2h1.9L580.7,412.5z"/>
	<path class="st1" d="M586.8,402.8c0.5-0.7,1.5-1.7,3.3-1.7c2.1,0,3.3,1.3,3.3,3.2c0,1.2-0.6,2-1.4,2.9l-2.1,2.2h3.7v1.8h-6.5v-1.5
		l3.5-3.6c0.5-0.5,0.8-1.1,0.8-1.7c0-0.9-0.6-1.5-1.5-1.5s-1.5,0.5-2,1.1L586.8,402.8z"/>
	<path class="st1" d="M603.4,406.2c0,3.2-1.9,5.1-4.2,5.1s-4.2-1.9-4.2-5.1s1.9-5.1,4.2-5.1S603.4,403,603.4,406.2z M596.9,406.2
		c0,2.1,1,3.3,2.3,3.3s2.3-1.1,2.3-3.3c0-2.1-1-3.3-2.3-3.3S596.9,404,596.9,406.2z"/>
	<path class="st1" d="M604.6,402.8c0.5-0.7,1.5-1.7,3.3-1.7c2.1,0,3.3,1.3,3.3,3.2c0,1.2-0.6,2-1.4,2.9l-2.1,2.2h3.7v1.8H605v-1.5
		l3.5-3.6c0.5-0.5,0.8-1.1,0.8-1.7c0-0.9-0.6-1.5-1.5-1.5s-1.5,0.5-2,1.1L604.6,402.8z"/>
	<path class="st1" d="M621.2,406.2c0,3.2-1.9,5.1-4.2,5.1s-4.2-1.9-4.2-5.1s1.9-5.1,4.2-5.1S621.2,403,621.2,406.2z M614.7,406.2
		c0,2.1,1,3.3,2.3,3.3s2.3-1.1,2.3-3.3c0-2.1-1-3.3-2.3-3.3S614.7,404,614.7,406.2z"/>
</g>
<g>
	<path class="st1" d="M651.1,406.2c0,3.2-1.9,5.1-4.2,5.1s-4.2-1.9-4.2-5.1s1.9-5.1,4.2-5.1C649.2,401.1,651.1,403,651.1,406.2z
		 M644.6,406.2c0,2.1,1,3.3,2.3,3.3s2.3-1.1,2.3-3.3c0-2.1-1-3.3-2.3-3.3S644.6,404,644.6,406.2z"/>
	<path class="st1" d="M656.4,411.1h-1.9v-7.3l-2.3,1v-2l4.2-1.7V411.1z"/>
	<path class="st1" d="M659.2,412.5h-1.9l5.9-12.2h1.9L659.2,412.5z"/>
	<path class="st1" d="M674,406.2c0,3.2-1.9,5.1-4.2,5.1s-4.2-1.9-4.2-5.1s1.9-5.1,4.2-5.1S674,403,674,406.2z M667.5,406.2
		c0,2.1,1,3.3,2.3,3.3s2.3-1.1,2.3-3.3c0-2.1-1-3.3-2.3-3.3S667.5,404,667.5,406.2z"/>
	<path class="st1" d="M682,402.7l-4.1,8.3h-2.2l4-8H675v-1.8h6.9L682,402.7L682,402.7z"/>
	<path class="st1" d="M684,412.5h-1.9l5.9-12.2h1.9L684,412.5z"/>
	<path class="st1" d="M690.1,402.8c0.5-0.7,1.5-1.7,3.3-1.7c2.1,0,3.3,1.3,3.3,3.2c0,1.2-0.6,2-1.4,2.9l-2.1,2.2h3.7v1.8h-6.5v-1.5
		l3.5-3.6c0.5-0.5,0.8-1.1,0.8-1.7c0-0.9-0.6-1.5-1.5-1.5s-1.5,0.5-2,1.1L690.1,402.8z"/>
	<path class="st1" d="M706.7,406.2c0,3.2-1.9,5.1-4.2,5.1s-4.2-1.9-4.2-5.1s1.9-5.1,4.2-5.1S706.7,403,706.7,406.2z M700.2,406.2
		c0,2.1,1,3.3,2.3,3.3s2.3-1.1,2.3-3.3c0-2.1-1-3.3-2.3-3.3S700.2,404,700.2,406.2z"/>
	<path class="st1" d="M707.9,402.8c0.5-0.7,1.5-1.7,3.3-1.7c2.1,0,3.3,1.3,3.3,3.2c0,1.2-0.6,2-1.4,2.9l-2.1,2.2h3.7v1.8h-6.5v-1.5
		l3.5-3.6c0.5-0.5,0.8-1.1,0.8-1.7c0-0.9-0.6-1.5-1.5-1.5s-1.5,0.5-2,1.1L707.9,402.8z"/>
	<path class="st1" d="M724.4,406.2c0,3.2-1.9,5.1-4.2,5.1s-4.2-1.9-4.2-5.1s1.9-5.1,4.2-5.1C722.6,401.1,724.4,403,724.4,406.2z
		 M718,406.2c0,2.1,1,3.3,2.3,3.3s2.3-1.1,2.3-3.3c0-2.1-1-3.3-2.3-3.3S718,404,718,406.2z"/>
</g>
<g>
	<path class="st1" d="M754.1,406.2c0,3.2-1.9,5.1-4.2,5.1s-4.2-1.9-4.2-5.1s1.9-5.1,4.2-5.1C752.2,401.1,754.1,403,754.1,406.2z
		 M747.6,406.2c0,2.1,1,3.3,2.3,3.3s2.3-1.1,2.3-3.3c0-2.1-1-3.3-2.3-3.3S747.6,404,747.6,406.2z"/>
	<path class="st1" d="M759.4,411.1h-1.9v-7.3l-2.3,1v-2l4.2-1.7V411.1z"/>
	<path class="st1" d="M762.2,412.5h-1.9l5.9-12.2h1.9L762.2,412.5z"/>
	<path class="st1" d="M777,406.2c0,3.2-1.9,5.1-4.2,5.1s-4.2-1.9-4.2-5.1s1.9-5.1,4.2-5.1S777,403,777,406.2z M770.5,406.2
		c0,2.1,1,3.3,2.3,3.3s2.3-1.1,2.3-3.3c0-2.1-1-3.3-2.3-3.3S770.5,404,770.5,406.2z"/>
	<path class="st1" d="M785.7,403.9c0,1.1-0.7,1.8-1.5,2.2c1,0.4,1.7,1.1,1.7,2.3c0,1.8-1.7,2.8-3.8,2.8s-3.8-1.1-3.8-2.8
		c0-1.2,0.8-1.9,1.7-2.3c-0.8-0.4-1.5-1.1-1.5-2.2c0-1.8,1.6-2.8,3.6-2.8S785.7,402.1,785.7,403.9z M780.3,408.2
		c0,0.9,0.8,1.3,1.8,1.3s1.8-0.5,1.8-1.3c0-0.9-0.8-1.3-1.8-1.3S780.3,407.4,780.3,408.2z M780.5,404.1c0,0.8,0.7,1.3,1.6,1.3
		c0.9,0,1.6-0.4,1.6-1.3c0-0.8-0.7-1.3-1.6-1.3S780.5,403.2,780.5,404.1z"/>
	<path class="st1" d="M788.2,412.5h-1.9l5.9-12.2h1.9L788.2,412.5z"/>
	<path class="st1" d="M794.3,402.8c0.5-0.7,1.5-1.7,3.3-1.7c2.1,0,3.3,1.3,3.3,3.2c0,1.2-0.6,2-1.4,2.9l-2.1,2.2h3.7v1.8h-6.5v-1.5
		l3.5-3.6c0.5-0.5,0.8-1.1,0.8-1.7c0-0.9-0.6-1.5-1.5-1.5s-1.5,0.5-2,1.1L794.3,402.8z"/>
	<path class="st1" d="M810.9,406.2c0,3.2-1.9,5.1-4.2,5.1s-4.2-1.9-4.2-5.1s1.9-5.1,4.2-5.1S810.9,403,810.9,406.2z M804.4,406.2
		c0,2.1,1,3.3,2.3,3.3s2.3-1.1,2.3-3.3c0-2.1-1-3.3-2.3-3.3S804.4,404,804.4,406.2z"/>
	<path class="st1" d="M812,402.8c0.5-0.7,1.5-1.7,3.3-1.7c2.1,0,3.3,1.3,3.3,3.2c0,1.2-0.6,2-1.4,2.9l-2.1,2.2h3.7v1.8h-6.5v-1.5
		l3.5-3.6c0.5-0.5,0.8-1.1,0.8-1.7c0-0.9-0.6-1.5-1.5-1.5s-1.5,0.5-2,1.1L812,402.8z"/>
	<path class="st1" d="M828.6,406.2c0,3.2-1.9,5.1-4.2,5.1s-4.2-1.9-4.2-5.1s1.9-5.1,4.2-5.1C826.7,401.1,828.6,403,828.6,406.2z
		 M822.1,406.2c0,2.1,1,3.3,2.3,3.3s2.3-1.1,2.3-3.3c0-2.1-1-3.3-2.3-3.3S822.1,404,822.1,406.2z"/>
</g>
<g>
	<path class="st1" d="M858,406.2c0,3.2-1.9,5.1-4.2,5.1s-4.2-1.9-4.2-5.1s1.9-5.1,4.2-5.1S858,403,858,406.2z M851.5,406.2
		c0,2.1,1,3.3,2.3,3.3s2.3-1.1,2.3-3.3c0-2.1-1-3.3-2.3-3.3S851.5,404,851.5,406.2z"/>
	<path class="st1" d="M863.3,411.1h-1.9v-7.3l-2.3,1v-2l4.2-1.7V411.1z"/>
	<path class="st1" d="M866.1,412.5h-1.9l5.9-12.2h1.9L866.1,412.5z"/>
	<path class="st1" d="M880.8,406.2c0,3.2-1.9,5.1-4.2,5.1s-4.2-1.9-4.2-5.1s1.9-5.1,4.2-5.1C878.9,401.1,880.8,403,880.8,406.2z
		 M874.4,406.2c0,2.1,1,3.3,2.3,3.3s2.3-1.1,2.3-3.3c0-2.1-1-3.3-2.3-3.3S874.4,404,874.4,406.2z"/>
	<path class="st1" d="M885.8,407.7c-0.1,0-0.3,0-0.4,0c-2,0-3.4-1.4-3.4-3.3s1.6-3.3,3.7-3.3c2.1,0,3.7,1.4,3.7,3.3
		c0,0.9-0.3,1.7-0.9,2.6l-2.7,4.1h-2.3L885.8,407.7z M887.4,404.4c0-1-0.7-1.6-1.7-1.6s-1.7,0.7-1.7,1.6s0.7,1.6,1.7,1.6
		S887.4,405.4,887.4,404.4z"/>
	<path class="st1" d="M891.5,412.5h-1.9l5.9-12.2h1.9L891.5,412.5z"/>
	<path class="st1" d="M897.5,402.8c0.5-0.7,1.5-1.7,3.3-1.7c2.1,0,3.3,1.3,3.3,3.2c0,1.2-0.6,2-1.4,2.9l-2.1,2.2h3.7v1.8H898v-1.5
		l3.5-3.6c0.5-0.5,0.8-1.1,0.8-1.7c0-0.9-0.6-1.5-1.5-1.5s-1.5,0.5-2,1.1L897.5,402.8z"/>
	<path class="st1" d="M914.1,406.2c0,3.2-1.9,5.1-4.2,5.1s-4.2-1.9-4.2-5.1s1.9-5.1,4.2-5.1C912.2,401.1,914.1,403,914.1,406.2z
		 M907.6,406.2c0,2.1,1,3.3,2.3,3.3s2.3-1.1,2.3-3.3c0-2.1-1-3.3-2.3-3.3S907.6,404,907.6,406.2z"/>
	<path class="st1" d="M915.3,402.8c0.5-0.7,1.5-1.7,3.3-1.7c2.1,0,3.3,1.3,3.3,3.2c0,1.2-0.6,2-1.4,2.9l-2.1,2.2h3.7v1.8h-6.5v-1.5
		l3.5-3.6c0.5-0.5,0.8-1.1,0.8-1.7c0-0.9-0.6-1.5-1.5-1.5s-1.5,0.5-2,1.1L915.3,402.8z"/>
	<path class="st1" d="M931.9,406.2c0,3.2-1.9,5.1-4.2,5.1s-4.2-1.9-4.2-5.1s1.9-5.1,4.2-5.1S931.9,403,931.9,406.2z M925.4,406.2
		c0,2.1,1,3.3,2.3,3.3s2.3-1.1,2.3-3.3c0-2.1-1-3.3-2.3-3.3S925.4,404,925.4,406.2z"/>
</g>
<g>
	<path class="st1" d="M962.8,406.2c0,3.2-1.9,5.1-4.2,5.1s-4.2-1.9-4.2-5.1s1.9-5.1,4.2-5.1C960.9,401.1,962.8,403,962.8,406.2z
		 M956.3,406.2c0,2.1,1,3.3,2.3,3.3s2.3-1.1,2.3-3.3c0-2.1-1-3.3-2.3-3.3S956.3,404,956.3,406.2z"/>
	<path class="st1" d="M968.1,411.1h-1.9v-7.3l-2.3,1v-2l4.2-1.7V411.1z"/>
	<path class="st1" d="M970.9,412.5H969l5.9-12.2h1.9L970.9,412.5z"/>
	<path class="st1" d="M981.1,411.1h-1.9v-7.3l-2.3,1v-2l4.2-1.7V411.1z"/>
	<path class="st1" d="M991.4,406.2c0,3.2-1.9,5.1-4.2,5.1s-4.2-1.9-4.2-5.1s1.9-5.1,4.2-5.1S991.4,403,991.4,406.2z M984.9,406.2
		c0,2.1,1,3.3,2.3,3.3s2.3-1.1,2.3-3.3c0-2.1-1-3.3-2.3-3.3S984.9,404,984.9,406.2z"/>
	<path class="st1" d="M993.8,412.5h-1.9l5.9-12.2h1.9L993.8,412.5z"/>
	<path class="st1" d="M999.8,402.8c0.5-0.7,1.5-1.7,3.3-1.7c2.1,0,3.3,1.3,3.3,3.2c0,1.2-0.6,2-1.4,2.9l-2.1,2.2h3.7v1.8h-6.5v-1.5
		l3.5-3.6c0.5-0.5,0.8-1.1,0.8-1.7c0-0.9-0.6-1.5-1.5-1.5s-1.5,0.5-2,1.1L999.8,402.8z"/>
	<path class="st1" d="M1016.4,406.2c0,3.2-1.9,5.1-4.2,5.1s-4.2-1.9-4.2-5.1s1.9-5.1,4.2-5.1S1016.4,403,1016.4,406.2z M1010,406.2
		c0,2.1,1,3.3,2.3,3.3s2.3-1.1,2.3-3.3c0-2.1-1-3.3-2.3-3.3S1010,404,1010,406.2z"/>
	<path class="st1" d="M1017.6,402.8c0.5-0.7,1.5-1.7,3.3-1.7c2.1,0,3.3,1.3,3.3,3.2c0,1.2-0.6,2-1.4,2.9l-2.1,2.2h3.7v1.8h-6.5v-1.5
		l3.5-3.6c0.5-0.5,0.8-1.1,0.8-1.7c0-0.9-0.6-1.5-1.5-1.5s-1.5,0.5-2,1.1L1017.6,402.8z"/>
	<path class="st1" d="M1034.2,406.2c0,3.2-1.9,5.1-4.2,5.1c-2.3,0-4.2-1.9-4.2-5.1s1.9-5.1,4.2-5.1
		C1032.3,401.1,1034.2,403,1034.2,406.2z M1027.7,406.2c0,2.1,1,3.3,2.3,3.3s2.3-1.1,2.3-3.3c0-2.1-1-3.3-2.3-3.3
		S1027.7,404,1027.7,406.2z"/>
</g>
<g>
	<path class="st1" d="M1068.4,406.2c0,3.2-1.9,5.1-4.2,5.1c-2.3,0-4.2-1.9-4.2-5.1s1.9-5.1,4.2-5.1S1068.4,403,1068.4,406.2z
		 M1061.9,406.2c0,2.1,1,3.3,2.3,3.3s2.3-1.1,2.3-3.3c0-2.1-1-3.3-2.3-3.3S1061.9,404,1061.9,406.2z"/>
	<path class="st1" d="M1073.7,411.1h-1.9v-7.3l-2.3,1v-2l4.2-1.7L1073.7,411.1L1073.7,411.1z"/>
	<path class="st1" d="M1076.5,412.5h-1.9l5.9-12.2h1.9L1076.5,412.5z"/>
	<path class="st1" d="M1086.7,411.1h-1.9v-7.3l-2.3,1v-2l4.2-1.7L1086.7,411.1L1086.7,411.1z"/>
	<path class="st1" d="M1092.5,411.1h-1.9v-7.3l-2.3,1v-2l4.2-1.7L1092.5,411.1L1092.5,411.1z"/>
	<path class="st1" d="M1095.3,412.5h-1.9l5.9-12.2h1.9L1095.3,412.5z"/>
	<path class="st1" d="M1101.4,402.8c0.5-0.7,1.5-1.7,3.3-1.7c2.1,0,3.3,1.3,3.3,3.2c0,1.2-0.6,2-1.4,2.9l-2.1,2.2h3.7v1.8h-6.5v-1.5
		l3.5-3.6c0.5-0.5,0.8-1.1,0.8-1.7c0-0.9-0.6-1.5-1.5-1.5s-1.5,0.5-2,1.1L1101.4,402.8z"/>
	<path class="st1" d="M1117.9,406.2c0,3.2-1.9,5.1-4.2,5.1c-2.3,0-4.2-1.9-4.2-5.1s1.9-5.1,4.2-5.1
		C1116.1,401.1,1117.9,403,1117.9,406.2z M1111.5,406.2c0,2.1,1,3.3,2.3,3.3s2.3-1.1,2.3-3.3c0-2.1-1-3.3-2.3-3.3
		S1111.5,404,1111.5,406.2z"/>
	<path class="st1" d="M1119.1,402.8c0.5-0.7,1.5-1.7,3.3-1.7c2.1,0,3.3,1.3,3.3,3.2c0,1.2-0.6,2-1.4,2.9l-2.1,2.2h3.7v1.8h-6.5v-1.5
		l3.5-3.6c0.5-0.5,0.8-1.1,0.8-1.7c0-0.9-0.6-1.5-1.5-1.5s-1.5,0.5-2,1.1L1119.1,402.8z"/>
	<path class="st1" d="M1135.7,406.2c0,3.2-1.9,5.1-4.2,5.1c-2.3,0-4.2-1.9-4.2-5.1s1.9-5.1,4.2-5.1
		C1133.8,401.1,1135.7,403,1135.7,406.2z M1129.2,406.2c0,2.1,1,3.3,2.3,3.3s2.3-1.1,2.3-3.3c0-2.1-1-3.3-2.3-3.3
		S1129.2,404,1129.2,406.2z"/>
</g>
<g>
	<g>
		<g>
			<path class="st1" d="M9.5,381.3H7.6V374l-2.3,1v-1.9l4.2-1.7V381.3z"/>
			<path class="st1" d="M20.7,377.7H22v1.8h-1.4v1.8h-1.9v-1.8h-4.3v-1.4l3.4-6.6H20l-3.3,6.2h2.1v-2.6h1.9V377.7z"/>
			<path class="st1" d="M31.5,376.4c0,3.2-1.9,5.1-4.2,5.1s-4.2-1.9-4.2-5.1s1.9-5.1,4.2-5.1S31.5,373.2,31.5,376.4z M25,376.4
				c0,2.1,1,3.3,2.3,3.3s2.3-1.1,2.3-3.3c0-2.1-1-3.3-2.3-3.3C26,373.1,25,374.2,25,376.4z"/>
			<path class="st1" d="M41.4,376.4c0,3.2-1.9,5.1-4.2,5.1s-4.2-1.9-4.2-5.1s1.9-5.1,4.2-5.1S41.4,373.2,41.4,376.4z M34.9,376.4
				c0,2.1,1,3.3,2.3,3.3s2.3-1.1,2.3-3.3c0-2.1-1-3.3-2.3-3.3C35.9,373.1,34.9,374.2,34.9,376.4z"/>
			<path class="st1" d="M51.4,370.3v1.3c1.2,0.1,2.1,0.5,2.9,1l-0.9,1.5c-0.6-0.4-1.3-0.6-2-0.8v2.2c1.7,0.3,3,1,3,2.6
				c0,1.7-1.4,2.7-3,2.9v1.4h-1.6V381c-1.2-0.1-2.5-0.5-3.3-1.2l1-1.5c0.6,0.4,1.4,0.8,2.4,1V377h-0.1c-1.7-0.3-3-1-2.9-2.7
				c0-1.6,1.3-2.6,3-2.8v-1.3L51.4,370.3L51.4,370.3z M49.8,375.3v-1.9c-0.7,0.2-1.1,0.5-1.1,1S49.1,375.1,49.8,375.3z M51.4,377.4
				v1.9c0.6-0.2,1.1-0.5,1.1-1C52.5,377.9,52.1,377.6,51.4,377.4z"/>
		</g>
		<g>
			<path class="st1" d="M9.5,331.8H7.7v-7.3l-2.3,1v-1.9l4.2-1.7L9.5,331.8L9.5,331.8z"/>
			<path class="st1" d="M21.1,323.8h-4v2h1.1c2.3,0,3.4,1.3,3.4,2.9c0,2.1-1.6,3.3-3.6,3.3c-1.5,0-2.7-0.5-3.5-1.5l1.1-1.3
				c0.5,0.6,1.5,1,2.4,1c1.1,0,1.6-0.6,1.6-1.4c0-0.7-0.5-1.4-2-1.4h-2.3l0.1-5.4H21v1.8H21.1z"/>
			<path class="st1" d="M31.5,326.9c0,3.2-1.9,5.1-4.2,5.1s-4.2-1.9-4.2-5.1s1.9-5.1,4.2-5.1S31.5,323.7,31.5,326.9z M25,326.9
				c0,2.1,1,3.3,2.3,3.3s2.3-1.1,2.3-3.3s-1-3.3-2.3-3.3C26,323.7,25,324.8,25,326.9z"/>
			<path class="st1" d="M41.4,326.9c0,3.2-1.9,5.1-4.2,5.1s-4.2-1.9-4.2-5.1s1.9-5.1,4.2-5.1S41.4,323.7,41.4,326.9z M34.9,326.9
				c0,2.1,1,3.3,2.3,3.3s2.3-1.1,2.3-3.3s-1-3.3-2.3-3.3C35.9,323.7,34.9,324.8,34.9,326.9z"/>
			<path class="st1" d="M51.4,320.9v1.3c1.2,0.1,2.1,0.5,2.9,1l-0.9,1.5c-0.6-0.3-1.3-0.6-2-0.8v2.2c1.7,0.3,3,1,3,2.6
				c0,1.7-1.4,2.7-3,2.9v1.4h-1.6v-1.4c-1.2-0.1-2.5-0.5-3.3-1.2l1-1.5c0.6,0.4,1.4,0.8,2.4,1v-2.3h-0.1c-1.7-0.3-3-1-2.9-2.7
				c0-1.6,1.3-2.6,3-2.8v-1.3L51.4,320.9L51.4,320.9z M49.8,325.9V324c-0.7,0.2-1.1,0.5-1.1,1C48.7,325.4,49.1,325.7,49.8,325.9z
				 M51.4,328v1.9c0.6-0.2,1.1-0.5,1.1-1S52.1,328.2,51.4,328z"/>
		</g>
		<g>
			<path class="st1" d="M9.4,282.4H7.6v-7.3l-2.3,1v-1.9l4.2-1.7v9.9H9.4z"/>
			<path class="st1" d="M18,276c0.1,0,0.3,0,0.5,0c2,0,3.4,1.4,3.4,3.3s-1.6,3.3-3.7,3.3s-3.7-1.4-3.7-3.3c0-0.9,0.3-1.7,0.9-2.6
				l2.7-4.1h2.3L18,276z M16.5,279.2c0,1,0.7,1.6,1.7,1.6s1.7-0.7,1.7-1.6s-0.7-1.6-1.7-1.6S16.5,278.3,16.5,279.2z"/>
			<path class="st1" d="M31.5,277.5c0,3.2-1.9,5.1-4.2,5.1s-4.2-1.9-4.2-5.1s1.9-5.1,4.2-5.1S31.5,274.3,31.5,277.5z M25,277.5
				c0,2.1,1,3.3,2.3,3.3s2.3-1.1,2.3-3.3s-1-3.3-2.3-3.3S25,275.3,25,277.5z"/>
			<path class="st1" d="M41.4,277.5c0,3.2-1.9,5.1-4.2,5.1s-4.2-1.9-4.2-5.1s1.9-5.1,4.2-5.1S41.4,274.3,41.4,277.5z M34.9,277.5
				c0,2.1,1,3.3,2.3,3.3s2.3-1.1,2.3-3.3s-1-3.3-2.3-3.3S34.9,275.3,34.9,277.5z"/>
			<path class="st1" d="M51.4,271.4v1.3c1.2,0.1,2.1,0.5,2.9,1l-0.9,1.5c-0.6-0.3-1.3-0.6-2-0.8v2.2c1.7,0.3,3,1,3,2.6
				c0,1.7-1.4,2.7-3,2.9v1.4h-1.6v-1.4c-1.2-0.1-2.5-0.5-3.3-1.2l1-1.5c0.6,0.4,1.4,0.8,2.4,1v-2.3h-0.1c-1.7-0.3-3-1-2.9-2.7
				c0-1.6,1.3-2.6,3-2.8v-1.3h1.5V271.4z M49.8,276.4v-1.9c-0.7,0.2-1.1,0.5-1.1,1S49.1,276.2,49.8,276.4z M51.4,278.5v1.9
				c0.6-0.2,1.1-0.5,1.1-1C52.5,279,52.1,278.7,51.4,278.5z"/>
		</g>
		<g>
			<path class="st1" d="M10,232.9H8.1v-7.3l-2.3,1v-1.9L10,223V232.9z"/>
			<path class="st1" d="M22,224.6l-4.1,8.3h-2.2l4-8H15v-1.8h7V224.6z"/>
			<path class="st1" d="M31.5,228c0,3.2-1.9,5.1-4.2,5.1s-4.2-1.9-4.2-5.1c0-3.2,1.9-5.1,4.2-5.1C29.6,222.9,31.5,224.8,31.5,228z
				 M25,228c0,2.1,1,3.3,2.3,3.3s2.3-1.1,2.3-3.3c0-2.1-1-3.3-2.3-3.3C26,224.8,25,225.9,25,228z"/>
			<path class="st1" d="M41.4,228c0,3.2-1.9,5.1-4.2,5.1S33,231.2,33,228c0-3.2,1.9-5.1,4.2-5.1C39.5,222.9,41.4,224.8,41.4,228z
				 M34.9,228c0,2.1,1,3.3,2.3,3.3s2.3-1.1,2.3-3.3c0-2.1-1-3.3-2.3-3.3C35.9,224.8,34.9,225.9,34.9,228z"/>
			<path class="st1" d="M51.4,222v1.3c1.2,0.1,2.1,0.5,2.9,1l-0.9,1.5c-0.6-0.4-1.3-0.6-2-0.8v2.2c1.7,0.3,3,1,3,2.6
				c0,1.7-1.4,2.7-3,2.9v1.4h-1.6v-1.3c-1.2-0.1-2.5-0.5-3.3-1.2l1-1.5c0.6,0.4,1.4,0.8,2.4,1v-2.3h-0.1c-1.7-0.3-3-1-2.9-2.7
				c0-1.6,1.3-2.6,3-2.8V222H51.4z M49.8,227v-1.9c-0.7,0.2-1.1,0.5-1.1,1C48.7,226.5,49.1,226.8,49.8,227z M51.4,229.1v1.9
				c0.6-0.2,1.1-0.5,1.1-1S52.1,229.3,51.4,229.1z"/>
		</g>
		<g>
			<path class="st1" d="M8.8,183.5H6.9v-7.3l-2.3,1v-1.9l4.2-1.7V183.5z"/>
			<path class="st1" d="M21.5,176.3c0,1.1-0.7,1.8-1.5,2.2c1,0.4,1.7,1.1,1.7,2.3c0,1.8-1.7,2.8-3.8,2.8s-3.8-1.1-3.8-2.8
				c0-1.2,0.8-1.9,1.7-2.3c-0.8-0.4-1.5-1.1-1.5-2.2c0-1.8,1.6-2.8,3.6-2.8S21.5,174.5,21.5,176.3z M16.1,180.6
				c0,0.9,0.8,1.3,1.8,1.3s1.8-0.5,1.8-1.3c0-0.9-0.8-1.3-1.8-1.3S16.1,179.8,16.1,180.6z M16.3,176.5c0,0.8,0.7,1.3,1.6,1.3
				s1.6-0.4,1.6-1.3c0-0.8-0.7-1.3-1.6-1.3S16.3,175.6,16.3,176.5z"/>
			<path class="st1" d="M31.5,178.6c0,3.2-1.9,5.1-4.2,5.1s-4.2-1.9-4.2-5.1c0-3.2,1.9-5.1,4.2-5.1S31.5,175.4,31.5,178.6z
				 M25,178.6c0,2.1,1,3.3,2.3,3.3s2.3-1.1,2.3-3.3c0-2.1-1-3.3-2.3-3.3S25,176.4,25,178.6z"/>
			<path class="st1" d="M41.4,178.6c0,3.2-1.9,5.1-4.2,5.1s-4.2-1.9-4.2-5.1c0-3.2,1.9-5.1,4.2-5.1S41.4,175.4,41.4,178.6z
				 M34.9,178.6c0,2.1,1,3.3,2.3,3.3s2.3-1.1,2.3-3.3c0-2.1-1-3.3-2.3-3.3S34.9,176.4,34.9,178.6z"/>
			<path class="st1" d="M51.4,172.5v1.3c1.2,0.1,2.1,0.5,2.9,1l-0.9,1.5c-0.6-0.4-1.3-0.6-2-0.8v2.2c1.7,0.3,3,1,3,2.6
				c0,1.7-1.4,2.7-3,2.9v1.4h-1.6v-1.4c-1.2-0.1-2.5-0.5-3.3-1.2l1-1.5c0.6,0.4,1.4,0.8,2.4,1v-2.3h-0.1c-1.7-0.3-3-1-2.9-2.7
				c0-1.6,1.3-2.6,3-2.8v-1.3h1.5V172.5z M49.8,177.5v-1.9c-0.7,0.2-1.1,0.5-1.1,1S49.1,177.3,49.8,177.5z M51.4,179.6v1.9
				c0.6-0.2,1.1-0.5,1.1-1C52.5,180.1,52.1,179.8,51.4,179.6z"/>
		</g>
		<g>
			<path class="st1" d="M9.4,134H7.6v-7.3l-2.3,1v-1.9l4.2-1.7v9.9H9.4z"/>
			<path class="st1" d="M18.4,130.6c-0.1,0-0.3,0-0.4,0c-2,0-3.4-1.4-3.4-3.3s1.6-3.3,3.7-3.3s3.7,1.4,3.7,3.3
				c0,0.9-0.3,1.7-0.9,2.6l-2.7,4.1H16L18.4,130.6z M19.9,127.4c0-1-0.7-1.6-1.7-1.6s-1.7,0.7-1.7,1.6c0,0.9,0.7,1.6,1.7,1.6
				C19.2,129,19.9,128.3,19.9,127.4z"/>
			<path class="st1" d="M31.5,129.1c0,3.2-1.9,5.1-4.2,5.1s-4.2-1.9-4.2-5.1c0-3.2,1.9-5.1,4.2-5.1C29.6,124,31.5,125.9,31.5,129.1z
				 M25,129.1c0,2.1,1,3.3,2.3,3.3s2.3-1.1,2.3-3.3c0-2.1-1-3.3-2.3-3.3C26,125.9,25,127,25,129.1z"/>
			<path class="st1" d="M41.4,129.1c0,3.2-1.9,5.1-4.2,5.1s-4.2-1.9-4.2-5.1c0-3.2,1.9-5.1,4.2-5.1C39.5,124,41.4,125.9,41.4,129.1z
				 M34.9,129.1c0,2.1,1,3.3,2.3,3.3s2.3-1.1,2.3-3.3c0-2.1-1-3.3-2.3-3.3C35.9,125.9,34.9,127,34.9,129.1z"/>
			<path class="st1" d="M51.4,123.1v1.3c1.2,0.1,2.1,0.5,2.9,1l-0.9,1.5c-0.6-0.4-1.3-0.6-2-0.8v2.2c1.7,0.3,3,1,3,2.6
				c0,1.7-1.4,2.7-3,2.9v1.4h-1.6v-1.4c-1.2-0.1-2.5-0.5-3.3-1.2l1-1.5c0.6,0.4,1.4,0.8,2.4,1v-2.3h-0.1c-1.7-0.3-3-1-2.9-2.7
				c0-1.6,1.3-2.6,3-2.8V123h1.5V123.1z M49.8,128.1v-1.9c-0.7,0.2-1.1,0.5-1.1,1C48.7,127.6,49.1,127.9,49.8,128.1z M51.4,130.2
				v1.9c0.6-0.2,1.1-0.5,1.1-1S52.1,130.4,51.4,130.2z"/>
		</g>
		<g>
			<path class="st1" d="M1.6,76.3c0.5-0.7,1.5-1.7,3.3-1.7c2.1,0,3.3,1.3,3.3,3.2c0,1.2-0.6,2-1.4,2.9l-2.1,2.1h3.7v1.8H2v-1.5
				l3.5-3.6C6,79,6.3,78.4,6.3,77.8c0-0.9-0.6-1.5-1.5-1.5s-1.5,0.5-2,1.1L1.6,76.3z"/>
			<path class="st1" d="M21.6,79.7c0,3.2-1.9,5.1-4.2,5.1s-4.2-1.9-4.2-5.1c0-3.2,1.9-5.1,4.2-5.1C19.7,74.6,21.6,76.5,21.6,79.7z
				 M15.1,79.7c0,2.1,1,3.3,2.3,3.3s2.3-1.1,2.3-3.3c0-2.1-1-3.3-2.3-3.3C16.1,76.4,15.1,77.5,15.1,79.7z"/>
			<path class="st1" d="M31.5,79.7c0,3.2-1.9,5.1-4.2,5.1s-4.2-1.9-4.2-5.1c0-3.2,1.9-5.1,4.2-5.1C29.6,74.6,31.5,76.5,31.5,79.7z
				 M25,79.7c0,2.1,1,3.3,2.3,3.3s2.3-1.1,2.3-3.3c0-2.1-1-3.3-2.3-3.3C26,76.4,25,77.5,25,79.7z"/>
			<path class="st1" d="M41.4,79.7c0,3.2-1.9,5.1-4.2,5.1S33,82.9,33,79.7c0-3.2,1.9-5.1,4.2-5.1C39.5,74.6,41.4,76.5,41.4,79.7z
				 M34.9,79.7c0,2.1,1,3.3,2.3,3.3s2.3-1.1,2.3-3.3c0-2.1-1-3.3-2.3-3.3C35.9,76.4,34.9,77.5,34.9,79.7z"/>
			<path class="st1" d="M51.4,73.6v1.3c1.2,0.1,2.1,0.5,2.9,1l-0.9,1.5c-0.6-0.4-1.3-0.6-2-0.8v2.2c1.7,0.3,3,1,3,2.6
				c0,1.7-1.4,2.7-3,2.9v1.5h-1.6v-1.4c-1.2-0.1-2.5-0.5-3.3-1.2l1-1.5c0.6,0.4,1.4,0.8,2.4,1v-2.3h-0.1c-1.7-0.3-3-1-2.9-2.7
				c0-1.6,1.3-2.6,3-2.8v-1.3C49.9,73.6,51.4,73.6,51.4,73.6z M49.8,78.6v-1.9c-0.7,0.2-1.1,0.5-1.1,1
				C48.7,78.2,49.1,78.4,49.8,78.6z M51.4,80.7v1.9c0.6-0.2,1.1-0.5,1.1-1C52.5,81.2,52.1,80.9,51.4,80.7z"/>
		</g>
		<g>
			<path class="st1" d="M5.7,26.8c0.5-0.7,1.5-1.7,3.3-1.7c2.1,0,3.3,1.3,3.3,3.2c0,1.2-0.6,2-1.4,2.9l-2.1,2.2h3.7v1.8H6.1v-1.5
				l3.5-3.6c0.5-0.5,0.8-1.1,0.8-1.7c0-0.9-0.6-1.5-1.5-1.5s-1.5,0.5-2,1.1L5.7,26.8z"/>
			<path class="st1" d="M21.2,35.1h-1.9v-7.3l-2.3,1v-1.9l4.2-1.7V35.1z"/>
			<path class="st1" d="M31.5,30.2c0,3.2-1.9,5.1-4.2,5.1s-4.2-1.9-4.2-5.1s1.9-5.1,4.2-5.1S31.5,27,31.5,30.2z M25,30.2
				c0,2.1,1,3.3,2.3,3.3s2.3-1.1,2.3-3.3c0-2.1-1-3.3-2.3-3.3C26,27,25,28.1,25,30.2z"/>
			<path class="st1" d="M41.4,30.2c0,3.2-1.9,5.1-4.2,5.1S33,33.4,33,30.2s1.9-5.1,4.2-5.1S41.4,27,41.4,30.2z M34.9,30.2
				c0,2.1,1,3.3,2.3,3.3s2.3-1.1,2.3-3.3c0-2.1-1-3.3-2.3-3.3C35.9,27,34.9,28.1,34.9,30.2z"/>
			<path class="st1" d="M51.4,24.2v1.3c1.2,0.1,2.1,0.5,2.9,1L53.4,28c-0.6-0.4-1.3-0.6-2-0.8v2.2c1.7,0.3,3,1,3,2.6
				c0,1.7-1.4,2.7-3,2.9v1.4h-1.6v-1.4c-1.2-0.1-2.5-0.5-3.3-1.2l1-1.5c0.6,0.4,1.4,0.8,2.4,1v-2.3h-0.1c-1.7-0.3-3-1-2.9-2.7
				c0-1.6,1.3-2.6,3-2.8v-1.2H51.4z M49.8,29.2v-2c-0.7,0.2-1.1,0.5-1.1,1S49.1,29,49.8,29.2z M51.4,31.3v1.9c0.6-0.2,1.1-0.5,1.1-1
				S52.1,31.5,51.4,31.3z"/>
		</g>
	</g>
</g>
<line class="st2" x1="62.1" y1="377.9" x2="62.1" y2="31.7"/>
<g>
	<g>
		<g>
			<line class="st3" x1="1189.7" y1="186.1" x2="1194.4" y2="194.2"/>
			<line class="st3" x1="1184.9" y1="172.3" x2="1189.7" y2="186.1"/>
			<line class="st3" x1="1180.2" y1="176.3" x2="1184.9" y2="172.3"/>
			<line class="st3" x1="1175.4" y1="176.3" x2="1180.2" y2="176.3"/>
			<line class="st3" x1="1170.7" y1="161.4" x2="1175.4" y2="176.3"/>
			<line class="st3" x1="1165.9" y1="145" x2="1170.7" y2="161.4"/>
			<line class="st3" x1="1161.2" y1="147.2" x2="1165.9" y2="145"/>
			<line class="st3" x1="1156.4" y1="144.4" x2="1161.2" y2="147.2"/>
			<line class="st3" x1="1151.7" y1="140.3" x2="1156.4" y2="144.4"/>
			<line class="st3" x1="1146.9" y1="136.1" x2="1151.7" y2="140.3"/>
			<line class="st3" x1="1142.2" y1="136" x2="1146.9" y2="136.1"/>
			<line class="st3" x1="1137.4" y1="142.1" x2="1142.2" y2="136"/>
			<line class="st3" x1="1132.7" y1="147.6" x2="1137.4" y2="142.1"/>
			<line class="st3" x1="1128" y1="141.8" x2="1132.7" y2="147.6"/>
			<line class="st3" x1="1123.2" y1="148.9" x2="1128" y2="141.8"/>
			<line class="st3" x1="1118.5" y1="105.2" x2="1123.2" y2="148.9"/>
			<line class="st3" x1="1113.7" y1="106.1" x2="1118.5" y2="105.2"/>
			<line class="st3" x1="1109" y1="129.2" x2="1113.7" y2="106.1"/>
			<line class="st3" x1="1104.2" y1="126.1" x2="1109" y2="129.2"/>
			<line class="st3" x1="1099.5" y1="132.9" x2="1104.2" y2="126.1"/>
			<line class="st3" x1="1094.7" y1="141.1" x2="1099.5" y2="132.9"/>
			<line class="st3" x1="1090" y1="146.6" x2="1094.7" y2="141.1"/>
			<line class="st3" x1="1085.2" y1="141.9" x2="1090" y2="146.6"/>
			<line class="st3" x1="1080.5" y1="126.7" x2="1085.2" y2="141.9"/>
			<line class="st3" x1="1075.7" y1="129.6" x2="1080.5" y2="126.7"/>
			<line class="st3" x1="1071" y1="129.6" x2="1075.7" y2="129.6"/>
			<line class="st3" x1="1066.2" y1="128.6" x2="1071" y2="129.6"/>
			<line class="st3" x1="1061.5" y1="118.6" x2="1066.2" y2="128.6"/>
			<line class="st3" x1="1056.7" y1="127.2" x2="1061.5" y2="118.6"/>
			<line class="st3" x1="1052" y1="128.6" x2="1056.7" y2="127.2"/>
			<line class="st3" x1="1047.2" y1="131" x2="1052" y2="128.6"/>
			<line class="st3" x1="1042.5" y1="126.3" x2="1047.2" y2="131"/>
			<line class="st3" x1="1037.7" y1="129.9" x2="1042.5" y2="126.3"/>
			<line class="st3" x1="1033" y1="134.9" x2="1037.7" y2="129.9"/>
			<line class="st3" x1="1028.2" y1="119.4" x2="1033" y2="134.9"/>
			<line class="st3" x1="1023.5" y1="115.6" x2="1028.2" y2="119.4"/>
			<line class="st3" x1="1018.8" y1="133.7" x2="1023.5" y2="115.6"/>
			<line class="st3" x1="1014" y1="136.8" x2="1018.8" y2="133.7"/>
			<line class="st3" x1="1009.3" y1="141.4" x2="1014" y2="136.8"/>
			<line class="st3" x1="1004.5" y1="123.9" x2="1009.3" y2="141.4"/>
			<line class="st3" x1="999.8" y1="130.7" x2="1004.5" y2="123.9"/>
			<line class="st3" x1="995" y1="127.7" x2="999.8" y2="130.7"/>
			<line class="st3" x1="990.3" y1="137.6" x2="995" y2="127.7"/>
			<line class="st3" x1="985.5" y1="131.6" x2="990.3" y2="137.6"/>
			<line class="st3" x1="980.8" y1="139.8" x2="985.5" y2="131.6"/>
			<line class="st3" x1="976" y1="149.6" x2="980.8" y2="139.8"/>
			<line class="st3" x1="971.3" y1="146.4" x2="976" y2="149.6"/>
			<line class="st3" x1="966.5" y1="148.8" x2="971.3" y2="146.4"/>
			<line class="st3" x1="961.8" y1="130.5" x2="966.5" y2="148.8"/>
			<line class="st3" x1="957" y1="124.4" x2="961.8" y2="130.5"/>
			<line class="st3" x1="952.3" y1="105.5" x2="957" y2="124.4"/>
			<line class="st3" x1="947.5" y1="108.6" x2="952.3" y2="105.5"/>
			<line class="st3" x1="942.8" y1="101.3" x2="947.5" y2="108.6"/>
			<line class="st3" x1="938" y1="103.8" x2="942.8" y2="101.3"/>
			<line class="st3" x1="933.3" y1="102.5" x2="938" y2="103.8"/>
			<line class="st3" x1="928.5" y1="110.6" x2="933.3" y2="102.5"/>
			<line class="st3" x1="923.8" y1="107.8" x2="928.5" y2="110.6"/>
			<line class="st3" x1="919" y1="107.5" x2="923.8" y2="107.8"/>
			<line class="st3" x1="914.3" y1="114.8" x2="919" y2="107.5"/>
			<line class="st3" x1="909.6" y1="114" x2="914.3" y2="114.8"/>
			<line class="st3" x1="904.8" y1="113.8" x2="909.6" y2="114"/>
			<line class="st3" x1="900.1" y1="115.3" x2="904.8" y2="113.8"/>
			<line class="st3" x1="895.3" y1="109.4" x2="900.1" y2="115.3"/>
			<line class="st3" x1="890.6" y1="95.9" x2="895.3" y2="109.4"/>
			<line class="st3" x1="885.8" y1="97.1" x2="890.6" y2="95.9"/>
			<line class="st3" x1="881.1" y1="98.6" x2="885.8" y2="97.1"/>
			<line class="st3" x1="876.3" y1="116" x2="881.1" y2="98.6"/>
			<line class="st3" x1="871.6" y1="103.7" x2="876.3" y2="116"/>
			<line class="st3" x1="866.8" y1="116.7" x2="871.6" y2="103.7"/>
			<line class="st3" x1="862.1" y1="116.3" x2="866.8" y2="116.7"/>
			<line class="st3" x1="857.3" y1="110.6" x2="862.1" y2="116.3"/>
			<line class="st3" x1="852.6" y1="107.3" x2="857.3" y2="110.6"/>
			<line class="st3" x1="847.8" y1="116.3" x2="852.6" y2="107.3"/>
			<line class="st3" x1="843.1" y1="80" x2="847.8" y2="116.3"/>
			<line class="st3" x1="838.3" y1="88.4" x2="843.1" y2="80"/>
			<line class="st3" x1="833.6" y1="108.3" x2="838.3" y2="88.4"/>
			<line class="st3" x1="828.8" y1="104.1" x2="833.6" y2="108.3"/>
			<line class="st3" x1="824.1" y1="122.8" x2="828.8" y2="104.1"/>
			<line class="st3" x1="819.3" y1="124.7" x2="824.1" y2="122.8"/>
			<line class="st3" x1="814.6" y1="67.7" x2="819.3" y2="124.7"/>
			<line class="st3" x1="809.9" y1="63.6" x2="814.6" y2="67.7"/>
			<line class="st3" x1="805.1" y1="49.8" x2="809.9" y2="63.6"/>
			<line class="st3" x1="800.4" y1="62.3" x2="805.1" y2="49.8"/>
			<line class="st3" x1="795.6" y1="71.7" x2="800.4" y2="62.3"/>
			<line class="st3" x1="790.9" y1="92.6" x2="795.6" y2="71.7"/>
			<line class="st3" x1="786.1" y1="93.1" x2="790.9" y2="92.6"/>
			<line class="st3" x1="781.4" y1="102.6" x2="786.1" y2="93.1"/>
			<line class="st3" x1="776.6" y1="95.6" x2="781.4" y2="102.6"/>
			<line class="st3" x1="771.9" y1="101.7" x2="776.6" y2="95.6"/>
			<line class="st3" x1="767.1" y1="109.7" x2="771.9" y2="101.7"/>
			<line class="st3" x1="762.4" y1="129.6" x2="767.1" y2="109.7"/>
			<line class="st3" x1="757.6" y1="136.8" x2="762.4" y2="129.6"/>
			<line class="st3" x1="752.9" y1="144.8" x2="757.6" y2="136.8"/>
			<line class="st3" x1="748.1" y1="159.3" x2="752.9" y2="144.8"/>
			<line class="st3" x1="743.4" y1="171.3" x2="748.1" y2="159.3"/>
			<line class="st3" x1="738.6" y1="174.9" x2="743.4" y2="171.3"/>
			<line class="st3" x1="733.9" y1="181.5" x2="738.6" y2="174.9"/>
			<line class="st3" x1="729.1" y1="175" x2="733.9" y2="181.5"/>
			<line class="st3" x1="724.4" y1="175.4" x2="729.1" y2="175"/>
			<line class="st3" x1="719.6" y1="178.7" x2="724.4" y2="175.4"/>
			<line class="st3" x1="714.9" y1="180.7" x2="719.6" y2="178.7"/>
			<line class="st3" x1="710.1" y1="178.3" x2="714.9" y2="180.7"/>
			<line class="st3" x1="705.4" y1="175.7" x2="710.1" y2="178.3"/>
			<line class="st3" x1="700.7" y1="182.6" x2="705.4" y2="175.7"/>
			<line class="st3" x1="695.9" y1="187.6" x2="700.7" y2="182.6"/>
			<line class="st3" x1="691.2" y1="192" x2="695.9" y2="187.6"/>
			<line class="st3" x1="686.4" y1="192.2" x2="691.2" y2="192"/>
			<line class="st3" x1="681.7" y1="194.9" x2="686.4" y2="192.2"/>
			<line class="st3" x1="676.9" y1="189.5" x2="681.7" y2="194.9"/>
			<line class="st3" x1="672.2" y1="193.5" x2="676.9" y2="189.5"/>
			<line class="st3" x1="667.4" y1="194.3" x2="672.2" y2="193.5"/>
			<line class="st3" x1="662.7" y1="198" x2="667.4" y2="194.3"/>
			<line class="st3" x1="657.9" y1="199.3" x2="662.7" y2="198"/>
			<line class="st3" x1="653.2" y1="195.7" x2="657.9" y2="199.3"/>
			<line class="st3" x1="648.4" y1="202.6" x2="653.2" y2="195.7"/>
			<line class="st3" x1="643.7" y1="207.8" x2="648.4" y2="202.6"/>
			<line class="st3" x1="638.9" y1="218.2" x2="643.7" y2="207.8"/>
			<line class="st3" x1="634.2" y1="216.2" x2="638.9" y2="218.2"/>
			<line class="st3" x1="629.4" y1="216.4" x2="634.2" y2="216.2"/>
			<line class="st3" x1="624.7" y1="217.1" x2="629.4" y2="216.4"/>
			<line class="st3" x1="619.9" y1="214.3" x2="624.7" y2="217.1"/>
			<line class="st3" x1="615.2" y1="215.8" x2="619.9" y2="214.3"/>
			<line class="st3" x1="610.4" y1="210.4" x2="615.2" y2="215.8"/>
			<line class="st3" x1="605.7" y1="221.9" x2="610.4" y2="210.4"/>
			<line class="st3" x1="600.9" y1="230.2" x2="605.7" y2="221.9"/>
			<line class="st3" x1="596.2" y1="236.9" x2="600.9" y2="230.2"/>
			<line class="st3" x1="591.5" y1="222.6" x2="596.2" y2="236.9"/>
			<line class="st3" x1="586.7" y1="229.7" x2="591.5" y2="222.6"/>
			<line class="st3" x1="582" y1="215.8" x2="586.7" y2="229.7"/>
			<line class="st3" x1="577.2" y1="210" x2="582" y2="215.8"/>
			<line class="st3" x1="572.5" y1="214.6" x2="577.2" y2="210"/>
			<line class="st3" x1="567.7" y1="220.5" x2="572.5" y2="214.6"/>
			<line class="st3" x1="563" y1="224.8" x2="567.7" y2="220.5"/>
			<line class="st3" x1="558.2" y1="224.3" x2="563" y2="224.8"/>
			<line class="st3" x1="553.5" y1="213.7" x2="558.2" y2="224.3"/>
			<line class="st3" x1="548.7" y1="212.4" x2="553.5" y2="213.7"/>
			<line class="st3" x1="544" y1="216.2" x2="548.7" y2="212.4"/>
			<line class="st3" x1="539.2" y1="205.7" x2="544" y2="216.2"/>
			<line class="st3" x1="534.5" y1="207.2" x2="539.2" y2="205.7"/>
			<line class="st3" x1="529.7" y1="213.4" x2="534.5" y2="207.2"/>
			<line class="st3" x1="525" y1="207.9" x2="529.7" y2="213.4"/>
			<line class="st3" x1="520.2" y1="214.5" x2="525" y2="207.9"/>
			<line class="st3" x1="515.5" y1="221.5" x2="520.2" y2="214.5"/>
			<line class="st3" x1="510.7" y1="228.2" x2="515.5" y2="221.5"/>
			<line class="st3" x1="506" y1="230.5" x2="510.7" y2="228.2"/>
			<line class="st3" x1="501.2" y1="228.2" x2="506" y2="230.5"/>
			<line class="st3" x1="496.5" y1="221.6" x2="501.2" y2="228.2"/>
			<line class="st3" x1="491.7" y1="236.6" x2="496.5" y2="221.6"/>
			<line class="st3" x1="487" y1="226.6" x2="491.7" y2="236.6"/>
			<line class="st3" x1="482.3" y1="228.5" x2="487" y2="226.6"/>
			<line class="st3" x1="477.5" y1="229.3" x2="482.3" y2="228.5"/>
			<line class="st3" x1="472.8" y1="236.2" x2="477.5" y2="229.3"/>
			<line class="st3" x1="468" y1="222.9" x2="472.8" y2="236.2"/>
			<line class="st3" x1="463.3" y1="225.7" x2="468" y2="222.9"/>
			<line class="st3" x1="458.5" y1="222.6" x2="463.3" y2="225.7"/>
			<line class="st3" x1="453.8" y1="214.9" x2="458.5" y2="222.6"/>
			<line class="st3" x1="449" y1="214.4" x2="453.8" y2="214.9"/>
			<line class="st3" x1="444.3" y1="222.6" x2="449" y2="214.4"/>
			<line class="st3" x1="439.5" y1="236.3" x2="444.3" y2="222.6"/>
			<line class="st3" x1="434.8" y1="231.7" x2="439.5" y2="236.3"/>
			<line class="st3" x1="430" y1="238" x2="434.8" y2="231.7"/>
			<line class="st3" x1="425.3" y1="220.8" x2="430" y2="238"/>
			<line class="st3" x1="420.5" y1="221.1" x2="425.3" y2="220.8"/>
			<line class="st3" x1="415.8" y1="216.2" x2="420.5" y2="221.1"/>
			<line class="st3" x1="411" y1="221.9" x2="415.8" y2="216.2"/>
			<line class="st3" x1="406.3" y1="231.2" x2="411" y2="221.9"/>
			<line class="st3" x1="401.5" y1="237.6" x2="406.3" y2="231.2"/>
			<line class="st3" x1="396.8" y1="256.2" x2="401.5" y2="237.6"/>
			<line class="st3" x1="392" y1="255.4" x2="396.8" y2="256.2"/>
			<line class="st3" x1="387.3" y1="248.8" x2="392" y2="255.4"/>
			<line class="st3" x1="382.6" y1="268.7" x2="387.3" y2="248.8"/>
			<line class="st3" x1="377.8" y1="272.1" x2="382.6" y2="268.7"/>
			<line class="st3" x1="373.1" y1="283.2" x2="377.8" y2="272.1"/>
			<line class="st3" x1="368.3" y1="290.3" x2="373.1" y2="283.2"/>
			<line class="st3" x1="363.6" y1="267.8" x2="368.3" y2="290.3"/>
			<line class="st3" x1="358.8" y1="265" x2="363.6" y2="267.8"/>
			<line class="st3" x1="354.1" y1="263.5" x2="358.8" y2="265"/>
			<line class="st3" x1="349.3" y1="270.6" x2="354.1" y2="263.5"/>
			<line class="st3" x1="344.6" y1="263" x2="349.3" y2="270.6"/>
			<line class="st3" x1="339.8" y1="302.1" x2="344.6" y2="263"/>
			<line class="st3" x1="335.1" y1="329.1" x2="339.8" y2="302.1"/>
			<line class="st3" x1="330.3" y1="342.6" x2="335.1" y2="329.1"/>
			<line class="st3" x1="325.6" y1="335.3" x2="330.3" y2="342.6"/>
			<line class="st3" x1="320.8" y1="314.4" x2="325.6" y2="335.3"/>
			<line class="st3" x1="316.1" y1="321.4" x2="320.8" y2="314.4"/>
			<line class="st3" x1="311.3" y1="313.7" x2="316.1" y2="321.4"/>
			<line class="st3" x1="306.6" y1="290.8" x2="311.3" y2="313.7"/>
			<line class="st3" x1="301.8" y1="261.6" x2="306.6" y2="290.8"/>
			<line class="st3" x1="297.1" y1="254.5" x2="301.8" y2="261.6"/>
			<line class="st3" x1="292.3" y1="239.2" x2="297.1" y2="254.5"/>
			<line class="st3" x1="287.6" y1="242.5" x2="292.3" y2="239.2"/>
			<line class="st3" x1="282.8" y1="243.3" x2="287.6" y2="242.5"/>
			<line class="st3" x1="278.1" y1="260.7" x2="282.8" y2="243.3"/>
			<line class="st3" x1="273.4" y1="258.7" x2="278.1" y2="260.7"/>
			<line class="st3" x1="268.6" y1="284.2" x2="273.4" y2="258.7"/>
			<line class="st3" x1="263.9" y1="286" x2="268.6" y2="284.2"/>
			<line class="st3" x1="259.1" y1="256.7" x2="263.9" y2="286"/>
			<line class="st3" x1="254.4" y1="258.7" x2="259.1" y2="256.7"/>
			<line class="st3" x1="249.6" y1="261.6" x2="254.4" y2="258.7"/>
			<line class="st3" x1="244.9" y1="249.6" x2="249.6" y2="261.6"/>
			<line class="st3" x1="240.1" y1="257.5" x2="244.9" y2="249.6"/>
			<line class="st3" x1="235.4" y1="269.3" x2="240.1" y2="257.5"/>
			<line class="st3" x1="230.6" y1="273.2" x2="235.4" y2="269.3"/>
			<line class="st3" x1="225.9" y1="278.2" x2="230.6" y2="273.2"/>
			<line class="st3" x1="221.1" y1="288.3" x2="225.9" y2="278.2"/>
			<line class="st3" x1="216.4" y1="286.9" x2="221.1" y2="288.3"/>
			<line class="st3" x1="211.6" y1="290.8" x2="216.4" y2="286.9"/>
			<line class="st3" x1="206.9" y1="295.8" x2="211.6" y2="290.8"/>
			<line class="st3" x1="202.1" y1="294.9" x2="206.9" y2="295.8"/>
			<line class="st3" x1="197.4" y1="292.7" x2="202.1" y2="294.9"/>
			<line class="st3" x1="192.6" y1="293.6" x2="197.4" y2="292.7"/>
			<line class="st3" x1="187.9" y1="295.5" x2="192.6" y2="293.6"/>
			<line class="st3" x1="183.1" y1="300.7" x2="187.9" y2="295.5"/>
			<line class="st3" x1="178.4" y1="302.3" x2="183.1" y2="300.7"/>
			<line class="st3" x1="173.6" y1="290.5" x2="178.4" y2="302.3"/>
			<line class="st3" x1="168.9" y1="284.3" x2="173.6" y2="290.5"/>
			<line class="st3" x1="164.2" y1="291.7" x2="168.9" y2="284.3"/>
			<line class="st3" x1="159.4" y1="290.4" x2="164.2" y2="291.7"/>
			<line class="st3" x1="154.7" y1="295.2" x2="159.4" y2="290.4"/>
			<line class="st3" x1="149.9" y1="287.8" x2="154.7" y2="295.2"/>
			<line class="st3" x1="145.2" y1="293.1" x2="149.9" y2="287.8"/>
			<line class="st3" x1="140.4" y1="297.3" x2="145.2" y2="293.1"/>
			<line class="st3" x1="135.7" y1="299.4" x2="140.4" y2="297.3"/>
			<line class="st3" x1="130.9" y1="299.7" x2="135.7" y2="299.4"/>
			<line class="st3" x1="126.2" y1="298.4" x2="130.9" y2="299.7"/>
			<line class="st3" x1="121.4" y1="300.1" x2="126.2" y2="298.4"/>
			<line class="st3" x1="116.7" y1="302.5" x2="121.4" y2="300.1"/>
			<line class="st3" x1="111.9" y1="300.6" x2="116.7" y2="302.5"/>
			<line class="st3" x1="107.2" y1="305.5" x2="111.9" y2="300.6"/>
			<line class="st3" x1="102.4" y1="304.7" x2="107.2" y2="305.5"/>
			<line class="st3" x1="97.7" y1="297.6" x2="102.4" y2="304.7"/>
			<line class="st3" x1="92.9" y1="302.5" x2="97.7" y2="297.6"/>
			<line class="st3" x1="88.2" y1="300.5" x2="92.9" y2="302.5"/>
			<line class="st3" x1="83.4" y1="291.6" x2="88.2" y2="300.5"/>
			<line class="st3" x1="78.7" y1="295.9" x2="83.4" y2="291.6"/>
			<line class="st3" x1="73.9" y1="302.6" x2="78.7" y2="295.9"/>
			<line class="st3" x1="69.2" y1="314" x2="73.9" y2="302.6"/>
			<line class="st3" x1="64.4" y1="319.9" x2="69.2" y2="314"/>
		</g>
	</g>
</g>
<line class="st2" x1="62.1" y1="377.9" x2="1201.4" y2="377.9"/>
<line class="st2" x1="62.1" y1="387.5" x2="62.1" y2="377.5"/>
<line class="st2" x1="165.7" y1="387.5" x2="165.7" y2="377.5"/>
<line class="st2" x1="269.2" y1="387.5" x2="269.2" y2="377.5"/>
<line class="st2" x1="372.8" y1="387.5" x2="372.8" y2="377.5"/>
<line class="st2" x1="476.4" y1="387.5" x2="476.4" y2="377.5"/>
<line class="st2" x1="580" y1="387.5" x2="580" y2="377.5"/>
<line class="st2" x1="683.5" y1="387.5" x2="683.5" y2="377.5"/>
<line class="st2" x1="787.1" y1="387.5" x2="787.1" y2="377.5"/>
<line class="st2" x1="890.7" y1="387.5" x2="890.7" y2="377.5"/>
<line class="st2" x1="994.3" y1="387.5" x2="994.3" y2="377.5"/>
<line class="st2" x1="1097.8" y1="387.5" x2="1097.8" y2="377.5"/>
<line class="st2" x1="1201.4" y1="387.5" x2="1201.4" y2="377.5"/>
</svg>
