<svg id="Layer_1" data-name="Layer 1" xmlns="http://www.w3.org/2000/svg" viewBox="0 0 1199.2 388.4"><defs><style>.cls-1{isolation:isolate;}.cls-2{fill:#203232;}.cls-3,.cls-4{fill:none;}.cls-3{stroke:#203232;stroke-miterlimit:10;}.cls-4{stroke:#ed5a36;stroke-linecap:round;stroke-linejoin:round;stroke-width:4px;}</style></defs><g class="cls-1"><path class="cls-2" d="M33.7,395.6H31.8v-7.3l-2.3,1v-1.9l4.2-1.7Z" transform="translate(0 -8.6)"/><path class="cls-2" d="M36.5,397H34.6l5.9-12.2h1.9Z" transform="translate(0 -8.6)"/><path class="cls-2" d="M46.9,395.6H45v-7.3l-2.3,1v-1.9l4.2-1.7Z" transform="translate(0 -8.6)"/><path class="cls-2" d="M49.7,397H47.8l5.9-12.2h1.9Z" transform="translate(0 -8.6)"/><path class="cls-2" d="M55.7,387.3a3.91,3.91,0,0,1,3.3-1.7,3,3,0,0,1,3.3,3.2,4.22,4.22,0,0,1-1.4,2.9l-2.1,2.2h3.7v1.8H56v-1.5l3.5-3.6a2.46,2.46,0,0,0,.8-1.7,1.42,1.42,0,0,0-1.5-1.5,2.55,2.55,0,0,0-2,1.1Z" transform="translate(0 -8.6)"/><path class="cls-2" d="M72.3,390.7c0,3.2-1.9,5.1-4.2,5.1s-4.2-1.9-4.2-5.1,1.9-5.1,4.2-5.1S72.3,387.5,72.3,390.7Zm-6.5,0c0,2.1,1,3.3,2.3,3.3s2.3-1.1,2.3-3.3-1-3.3-2.3-3.3S65.8,388.5,65.8,390.7Z" transform="translate(0 -8.6)"/><path class="cls-2" d="M73.3,387.3a3.91,3.91,0,0,1,3.3-1.7,3,3,0,0,1,3.3,3.2,4.22,4.22,0,0,1-1.4,2.9l-2.1,2.2h3.7v1.8H73.6v-1.5l3.5-3.6a2.46,2.46,0,0,0,.8-1.7,1.42,1.42,0,0,0-1.5-1.5,2.55,2.55,0,0,0-2,1.1Z" transform="translate(0 -8.6)"/><path class="cls-2" d="M89.9,390.7c0,3.2-1.9,5.1-4.2,5.1s-4.2-1.9-4.2-5.1,1.9-5.1,4.2-5.1S89.9,387.5,89.9,390.7Zm-6.5,0c0,2.1,1,3.3,2.3,3.3s2.3-1.1,2.3-3.3-1-3.3-2.3-3.3S83.4,388.5,83.4,390.7Z" transform="translate(0 -8.6)"/></g><g class="cls-1"><path class="cls-2" d="M132.1,387.3a3.91,3.91,0,0,1,3.3-1.7,3,3,0,0,1,3.3,3.2,4.22,4.22,0,0,1-1.4,2.9l-2.1,2.2h3.7v1.8h-6.5v-1.5l3.5-3.6a2.46,2.46,0,0,0,.8-1.7,1.42,1.42,0,0,0-1.5-1.5,2.55,2.55,0,0,0-2,1.1Z" transform="translate(0 -8.6)"/><path class="cls-2" d="M141.4,397h-1.9l5.9-12.2h1.9Z" transform="translate(0 -8.6)"/><path class="cls-2" d="M151.7,395.6h-1.9v-7.3l-2.3,1v-1.9l4.2-1.7Z" transform="translate(0 -8.6)"/><path class="cls-2" d="M154.5,397h-1.9l5.9-12.2h1.9Z" transform="translate(0 -8.6)"/><path class="cls-2" d="M160.6,387.3a3.91,3.91,0,0,1,3.3-1.7,3,3,0,0,1,3.3,3.2,4.22,4.22,0,0,1-1.4,2.9l-2.1,2.2h3.7v1.8h-6.5v-1.5l3.5-3.6a2.46,2.46,0,0,0,.8-1.7,1.42,1.42,0,0,0-1.5-1.5,2.55,2.55,0,0,0-2,1.1Z" transform="translate(0 -8.6)"/><path class="cls-2" d="M177.2,390.7c0,3.2-1.9,5.1-4.2,5.1s-4.2-1.9-4.2-5.1,1.9-5.1,4.2-5.1S177.2,387.5,177.2,390.7Zm-6.5,0c0,2.1,1,3.3,2.3,3.3s2.3-1.1,2.3-3.3-1-3.3-2.3-3.3S170.7,388.5,170.7,390.7Z" transform="translate(0 -8.6)"/><path class="cls-2" d="M178.2,387.3a3.91,3.91,0,0,1,3.3-1.7,3,3,0,0,1,3.3,3.2,4.22,4.22,0,0,1-1.4,2.9l-2.1,2.2H185v1.8h-6.4v-1.5l3.5-3.6a2.46,2.46,0,0,0,.8-1.7,1.42,1.42,0,0,0-1.5-1.5,2.55,2.55,0,0,0-2,1.1Z" transform="translate(0 -8.6)"/><path class="cls-2" d="M194.7,390.7c0,3.2-1.9,5.1-4.2,5.1s-4.2-1.9-4.2-5.1,1.9-5.1,4.2-5.1S194.7,387.5,194.7,390.7Zm-6.4,0c0,2.1,1,3.3,2.3,3.3s2.3-1.1,2.3-3.3-1-3.3-2.3-3.3S188.3,388.5,188.3,390.7Z" transform="translate(0 -8.6)"/></g><g class="cls-1"><path class="cls-2" d="M242.3,388.4a2.39,2.39,0,0,1-1.5,2.2,2.44,2.44,0,0,1,1.7,2.2c0,1.9-1.8,2.9-3.6,2.9a4.15,4.15,0,0,1-3.4-1.4l1.1-1.2a3.1,3.1,0,0,0,2.2.9c1,0,1.7-.4,1.7-1.3s-.9-1.3-1.9-1.3h-1.1v-1.7h1.1c1,0,1.7-.4,1.7-1.2s-.7-1.2-1.6-1.2a2.6,2.6,0,0,0-2,1l-1.2-1.2a3.74,3.74,0,0,1,3.3-1.5C240.9,385.6,242.3,386.7,242.3,388.4Z" transform="translate(0 -8.6)"/><path class="cls-2" d="M244.8,397h-1.9l5.9-12.2h1.9Z" transform="translate(0 -8.6)"/><path class="cls-2" d="M255.1,395.6h-1.9v-7.3l-2.3,1v-1.9l4.2-1.7v9.9Z" transform="translate(0 -8.6)"/><path class="cls-2" d="M257.9,397H256l5.9-12.2h1.9Z" transform="translate(0 -8.6)"/><path class="cls-2" d="M264,387.3a3.91,3.91,0,0,1,3.3-1.7,3,3,0,0,1,3.3,3.2,4.22,4.22,0,0,1-1.4,2.9l-2.1,2.2h3.7v1.8h-6.5v-1.5l3.5-3.6a2.46,2.46,0,0,0,.8-1.7,1.42,1.42,0,0,0-1.5-1.5,2.55,2.55,0,0,0-2,1.1Z" transform="translate(0 -8.6)"/><path class="cls-2" d="M280.6,390.7c0,3.2-1.9,5.1-4.2,5.1s-4.2-1.9-4.2-5.1,1.9-5.1,4.2-5.1S280.6,387.5,280.6,390.7Zm-6.5,0c0,2.1,1,3.3,2.3,3.3s2.3-1.1,2.3-3.3-1-3.3-2.3-3.3S274.1,388.5,274.1,390.7Z" transform="translate(0 -8.6)"/><path class="cls-2" d="M281.6,387.3a3.91,3.91,0,0,1,3.3-1.7,3,3,0,0,1,3.3,3.2,4.22,4.22,0,0,1-1.4,2.9l-2.1,2.2h3.7v1.8h-6.5v-1.5l3.5-3.6a2.46,2.46,0,0,0,.8-1.7,1.42,1.42,0,0,0-1.5-1.5,2.55,2.55,0,0,0-2,1.1Z" transform="translate(0 -8.6)"/><path class="cls-2" d="M298.2,390.7c0,3.2-1.9,5.1-4.2,5.1s-4.2-1.9-4.2-5.1,1.9-5.1,4.2-5.1S298.2,387.5,298.2,390.7Zm-6.5,0c0,2.1,1,3.3,2.3,3.3s2.3-1.1,2.3-3.3-1-3.3-2.3-3.3S291.7,388.5,291.7,390.7Z" transform="translate(0 -8.6)"/></g><g class="cls-1"><path class="cls-2" d="M345.2,392h1.4v1.8h-1.4v1.8h-1.9v-1.8H339v-1.4l3.4-6.6h2.1l-3.3,6.2h2.1v-2.6h1.9V392Z" transform="translate(0 -8.6)"/><path class="cls-2" d="M348.5,397h-1.9l5.9-12.2h1.9Z" transform="translate(0 -8.6)"/><path class="cls-2" d="M358.8,395.6h-1.9v-7.3l-2.3,1v-1.9l4.2-1.7v9.9Z" transform="translate(0 -8.6)"/><path class="cls-2" d="M361.6,397h-1.9l5.9-12.2h1.9Z" transform="translate(0 -8.6)"/><path class="cls-2" d="M367.7,387.3a3.91,3.91,0,0,1,3.3-1.7,3,3,0,0,1,3.3,3.2,4.22,4.22,0,0,1-1.4,2.9l-2.1,2.2h3.7v1.8H368v-1.5l3.5-3.6a2.46,2.46,0,0,0,.8-1.7,1.42,1.42,0,0,0-1.5-1.5,2.55,2.55,0,0,0-2,1.1Z" transform="translate(0 -8.6)"/><path class="cls-2" d="M384.3,390.7c0,3.2-1.9,5.1-4.2,5.1s-4.2-1.9-4.2-5.1,1.9-5.1,4.2-5.1S384.3,387.5,384.3,390.7Zm-6.5,0c0,2.1,1,3.3,2.3,3.3s2.3-1.1,2.3-3.3-1-3.3-2.3-3.3S377.8,388.5,377.8,390.7Z" transform="translate(0 -8.6)"/><path class="cls-2" d="M385.2,387.3a3.91,3.91,0,0,1,3.3-1.7,3,3,0,0,1,3.3,3.2,4.22,4.22,0,0,1-1.4,2.9l-2.1,2.2H392v1.8h-6.5v-1.5l3.5-3.6a2.46,2.46,0,0,0,.8-1.7,1.42,1.42,0,0,0-1.5-1.5,2.55,2.55,0,0,0-2,1.1Z" transform="translate(0 -8.6)"/><path class="cls-2" d="M401.8,390.7c0,3.2-1.9,5.1-4.2,5.1s-4.2-1.9-4.2-5.1,1.9-5.1,4.2-5.1S401.8,387.5,401.8,390.7Zm-6.5,0c0,2.1,1,3.3,2.3,3.3s2.3-1.1,2.3-3.3-1-3.3-2.3-3.3S395.3,388.5,395.3,390.7Z" transform="translate(0 -8.6)"/></g><g class="cls-1"><path class="cls-2" d="M449.2,387.5h-4v2h1.1c2.3,0,3.4,1.3,3.4,2.9a3.29,3.29,0,0,1-3.6,3.3,4.26,4.26,0,0,1-3.5-1.5l1.1-1.3a3.31,3.31,0,0,0,2.4,1c1.1,0,1.6-.6,1.6-1.4s-.5-1.4-2-1.4h-2.3l.1-5.4h5.6v1.8Z" transform="translate(0 -8.6)"/><path class="cls-2" d="M452,397h-1.9l5.9-12.2h1.9Z" transform="translate(0 -8.6)"/><path class="cls-2" d="M462.3,395.6h-1.9v-7.3l-2.3,1v-1.9l4.2-1.7Z" transform="translate(0 -8.6)"/><path class="cls-2" d="M465.1,397h-1.9l5.9-12.2H471Z" transform="translate(0 -8.6)"/><path class="cls-2" d="M471.2,387.3a3.91,3.91,0,0,1,3.3-1.7,3,3,0,0,1,3.3,3.2,4.22,4.22,0,0,1-1.4,2.9l-2.1,2.2H478v1.8h-6.4v-1.5l3.5-3.6a2.46,2.46,0,0,0,.8-1.7,1.42,1.42,0,0,0-1.5-1.5,2.55,2.55,0,0,0-2,1.1Z" transform="translate(0 -8.6)"/><path class="cls-2" d="M487.8,390.7c0,3.2-1.9,5.1-4.2,5.1s-4.2-1.9-4.2-5.1,1.9-5.1,4.2-5.1S487.8,387.5,487.8,390.7Zm-6.5,0c0,2.1,1,3.3,2.3,3.3s2.3-1.1,2.3-3.3-1-3.3-2.3-3.3S481.3,388.5,481.3,390.7Z" transform="translate(0 -8.6)"/><path class="cls-2" d="M488.7,387.3a3.91,3.91,0,0,1,3.3-1.7,3,3,0,0,1,3.3,3.2,4.22,4.22,0,0,1-1.4,2.9l-2.1,2.2h3.7v1.8H489v-1.5l3.5-3.6a2.46,2.46,0,0,0,.8-1.7,1.42,1.42,0,0,0-1.5-1.5,2.55,2.55,0,0,0-2,1.1Z" transform="translate(0 -8.6)"/><path class="cls-2" d="M505.3,390.7c0,3.2-1.9,5.1-4.2,5.1s-4.2-1.9-4.2-5.1,1.9-5.1,4.2-5.1S505.3,387.5,505.3,390.7Zm-6.5,0c0,2.1,1,3.3,2.3,3.3s2.3-1.1,2.3-3.3-1-3.3-2.3-3.3S498.8,388.5,498.8,390.7Z" transform="translate(0 -8.6)"/></g><g class="cls-1"><path class="cls-2" d="M549.7,389.2h.5a3.23,3.23,0,0,1,3.4,3.3,3.72,3.72,0,0,1-7.4,0,4.54,4.54,0,0,1,.9-2.6l2.7-4.1h2.3Zm-1.6,3.2a1.55,1.55,0,0,0,1.7,1.6,1.6,1.6,0,1,0,0-3.2A1.67,1.67,0,0,0,548.1,392.4Z" transform="translate(0 -8.6)"/><path class="cls-2" d="M555.6,397h-1.9l5.9-12.2h1.9Z" transform="translate(0 -8.6)"/><path class="cls-2" d="M565.9,395.6H564v-7.3l-2.3,1v-1.9l4.2-1.7Z" transform="translate(0 -8.6)"/><path class="cls-2" d="M568.7,397h-1.9l5.9-12.2h1.9Z" transform="translate(0 -8.6)"/><path class="cls-2" d="M574.8,387.3a3.91,3.91,0,0,1,3.3-1.7,3,3,0,0,1,3.3,3.2,4.22,4.22,0,0,1-1.4,2.9l-2.1,2.2h3.7v1.8h-6.5v-1.5l3.5-3.6a2.46,2.46,0,0,0,.8-1.7,1.42,1.42,0,0,0-1.5-1.5,2.55,2.55,0,0,0-2,1.1Z" transform="translate(0 -8.6)"/><path class="cls-2" d="M591.4,390.7c0,3.2-1.9,5.1-4.2,5.1s-4.2-1.9-4.2-5.1,1.9-5.1,4.2-5.1S591.4,387.5,591.4,390.7Zm-6.5,0c0,2.1,1,3.3,2.3,3.3s2.3-1.1,2.3-3.3-1-3.3-2.3-3.3S584.9,388.5,584.9,390.7Z" transform="translate(0 -8.6)"/><path class="cls-2" d="M592.4,387.3a3.91,3.91,0,0,1,3.3-1.7,3,3,0,0,1,3.3,3.2,4.22,4.22,0,0,1-1.4,2.9l-2.1,2.2h3.7v1.8h-6.5v-1.5l3.5-3.6a2.46,2.46,0,0,0,.8-1.7,1.42,1.42,0,0,0-1.5-1.5,2.55,2.55,0,0,0-2,1.1Z" transform="translate(0 -8.6)"/><path class="cls-2" d="M609,390.7c0,3.2-1.9,5.1-4.2,5.1s-4.2-1.9-4.2-5.1,1.9-5.1,4.2-5.1S609,387.5,609,390.7Zm-6.5,0c0,2.1,1,3.3,2.3,3.3s2.3-1.1,2.3-3.3-1-3.3-2.3-3.3S602.5,388.5,602.5,390.7Z" transform="translate(0 -8.6)"/></g><g class="cls-1"><path class="cls-2" d="M656.9,387.3l-4.1,8.3h-2.2l4-8h-4.7v-1.8h6.9v1.5Z" transform="translate(0 -8.6)"/><path class="cls-2" d="M657.7,397h-1.9l5.9-12.2h1.9Z" transform="translate(0 -8.6)"/><path class="cls-2" d="M668,395.6h-1.9v-7.3l-2.3,1v-1.9l4.2-1.7Z" transform="translate(0 -8.6)"/><path class="cls-2" d="M670.8,397h-1.9l5.9-12.2h1.9Z" transform="translate(0 -8.6)"/><path class="cls-2" d="M676.9,387.3a3.91,3.91,0,0,1,3.3-1.7,3,3,0,0,1,3.3,3.2,4.22,4.22,0,0,1-1.4,2.9l-2.1,2.2h3.7v1.8h-6.5v-1.5l3.5-3.6a2.46,2.46,0,0,0,.8-1.7,1.42,1.42,0,0,0-1.5-1.5,2.55,2.55,0,0,0-2,1.1Z" transform="translate(0 -8.6)"/><path class="cls-2" d="M693.5,390.7c0,3.2-1.9,5.1-4.2,5.1s-4.2-1.9-4.2-5.1,1.9-5.1,4.2-5.1S693.5,387.5,693.5,390.7Zm-6.5,0c0,2.1,1,3.3,2.3,3.3s2.3-1.1,2.3-3.3-1-3.3-2.3-3.3S687,388.5,687,390.7Z" transform="translate(0 -8.6)"/><path class="cls-2" d="M694.4,387.3a3.91,3.91,0,0,1,3.3-1.7,3,3,0,0,1,3.3,3.2,4.22,4.22,0,0,1-1.4,2.9l-2.1,2.2h3.7v1.8h-6.5v-1.5l3.5-3.6a2.46,2.46,0,0,0,.8-1.7,1.42,1.42,0,0,0-1.5-1.5,2.55,2.55,0,0,0-2,1.1Z" transform="translate(0 -8.6)"/><path class="cls-2" d="M711,390.7c0,3.2-1.9,5.1-4.2,5.1s-4.2-1.9-4.2-5.1,1.9-5.1,4.2-5.1S711,387.5,711,390.7Zm-6.5,0c0,2.1,1,3.3,2.3,3.3s2.3-1.1,2.3-3.3-1-3.3-2.3-3.3S704.5,388.5,704.5,390.7Z" transform="translate(0 -8.6)"/></g><g class="cls-1"><path class="cls-2" d="M760.6,388.4a2.43,2.43,0,0,1-1.5,2.2,2.37,2.37,0,0,1,1.7,2.3c0,1.8-1.7,2.8-3.8,2.8s-3.8-1.1-3.8-2.8a2.5,2.5,0,0,1,1.7-2.3,2.43,2.43,0,0,1-1.5-2.2c0-1.8,1.6-2.8,3.6-2.8S760.6,386.7,760.6,388.4Zm-5.4,4.4c0,.9.8,1.3,1.8,1.3s1.8-.5,1.8-1.3-.8-1.3-1.8-1.3S755.2,391.9,755.2,392.8Zm.2-4.2c0,.8.7,1.3,1.6,1.3s1.6-.4,1.6-1.3-.7-1.3-1.6-1.3A1.47,1.47,0,0,0,755.4,388.6Z" transform="translate(0 -8.6)"/><path class="cls-2" d="M763.1,397h-1.9l5.9-12.2H769Z" transform="translate(0 -8.6)"/><path class="cls-2" d="M773.4,395.6h-1.9v-7.3l-2.3,1v-1.9l4.2-1.7Z" transform="translate(0 -8.6)"/><path class="cls-2" d="M776.2,397h-1.9l5.9-12.2h1.9Z" transform="translate(0 -8.6)"/><path class="cls-2" d="M782.3,387.3a3.91,3.91,0,0,1,3.3-1.7,3,3,0,0,1,3.3,3.2,4.22,4.22,0,0,1-1.4,2.9l-2.1,2.2h3.7v1.8h-6.5v-1.5l3.5-3.6a2.46,2.46,0,0,0,.8-1.7,1.42,1.42,0,0,0-1.5-1.5,2.55,2.55,0,0,0-2,1.1Z" transform="translate(0 -8.6)"/><path class="cls-2" d="M798.9,390.7c0,3.2-1.9,5.1-4.2,5.1s-4.2-1.9-4.2-5.1,1.9-5.1,4.2-5.1S798.9,387.5,798.9,390.7Zm-6.5,0c0,2.1,1,3.3,2.3,3.3s2.3-1.1,2.3-3.3-1-3.3-2.3-3.3S792.4,388.5,792.4,390.7Z" transform="translate(0 -8.6)"/><path class="cls-2" d="M799.8,387.3a3.91,3.91,0,0,1,3.3-1.7,3,3,0,0,1,3.3,3.2,4.22,4.22,0,0,1-1.4,2.9l-2.1,2.2h3.7v1.8h-6.5v-1.5l3.5-3.6a2.46,2.46,0,0,0,.8-1.7,1.42,1.42,0,0,0-1.5-1.5,2.55,2.55,0,0,0-2,1.1Z" transform="translate(0 -8.6)"/><path class="cls-2" d="M816.4,390.7c0,3.2-1.9,5.1-4.2,5.1s-4.2-1.9-4.2-5.1,1.9-5.1,4.2-5.1S816.4,387.5,816.4,390.7Zm-6.5,0c0,2.1,1,3.3,2.3,3.3s2.3-1.1,2.3-3.3-1-3.3-2.3-3.3S809.9,388.5,809.9,390.7Z" transform="translate(0 -8.6)"/></g><g class="cls-1"><path class="cls-2" d="M860.8,392.2h-.4a3.23,3.23,0,0,1-3.4-3.3,3.72,3.72,0,0,1,7.4,0,4.54,4.54,0,0,1-.9,2.6l-2.7,4.1h-2.3Zm1.5-3.3a1.55,1.55,0,0,0-1.7-1.6,1.6,1.6,0,1,0,0,3.2A1.55,1.55,0,0,0,862.3,388.9Z" transform="translate(0 -8.6)"/><path class="cls-2" d="M865.6,397h-1.9l5.9-12.2h1.9Z" transform="translate(0 -8.6)"/><path class="cls-2" d="M875.9,395.6H874v-7.3l-2.3,1v-1.9l4.2-1.7Z" transform="translate(0 -8.6)"/><path class="cls-2" d="M878.7,397h-1.9l5.9-12.2h1.9Z" transform="translate(0 -8.6)"/><path class="cls-2" d="M884.8,387.3a3.91,3.91,0,0,1,3.3-1.7,3,3,0,0,1,3.3,3.2,4.22,4.22,0,0,1-1.4,2.9l-2.1,2.2h3.7v1.8h-6.5v-1.5l3.5-3.6a2.46,2.46,0,0,0,.8-1.7,1.42,1.42,0,0,0-1.5-1.5,2.55,2.55,0,0,0-2,1.1Z" transform="translate(0 -8.6)"/><path class="cls-2" d="M901.4,390.7c0,3.2-1.9,5.1-4.2,5.1s-4.2-1.9-4.2-5.1,1.9-5.1,4.2-5.1S901.4,387.5,901.4,390.7Zm-6.5,0c0,2.1,1,3.3,2.3,3.3s2.3-1.1,2.3-3.3-1-3.3-2.3-3.3S894.9,388.5,894.9,390.7Z" transform="translate(0 -8.6)"/><path class="cls-2" d="M902.4,387.3a3.91,3.91,0,0,1,3.3-1.7,3,3,0,0,1,3.3,3.2,4.22,4.22,0,0,1-1.4,2.9l-2.1,2.2h3.7v1.8h-6.5v-1.5l3.5-3.6a2.46,2.46,0,0,0,.8-1.7,1.42,1.42,0,0,0-1.5-1.5,2.55,2.55,0,0,0-2,1.1Z" transform="translate(0 -8.6)"/><path class="cls-2" d="M919,390.7c0,3.2-1.9,5.1-4.2,5.1s-4.2-1.9-4.2-5.1,1.9-5.1,4.2-5.1S919,387.5,919,390.7Zm-6.5,0c0,2.1,1,3.3,2.3,3.3s2.3-1.1,2.3-3.3-1-3.3-2.3-3.3S912.5,388.5,912.5,390.7Z" transform="translate(0 -8.6)"/></g><g class="cls-1"><path class="cls-2" d="M961,395.6h-1.9v-7.3l-2.3,1v-1.9l4.2-1.7v9.9Z" transform="translate(0 -8.6)"/><path class="cls-2" d="M971.3,390.7c0,3.2-1.9,5.1-4.2,5.1s-4.2-1.9-4.2-5.1,1.9-5.1,4.2-5.1S971.3,387.5,971.3,390.7Zm-6.5,0c0,2.1,1,3.3,2.3,3.3s2.3-1.1,2.3-3.3-1-3.3-2.3-3.3S964.8,388.5,964.8,390.7Z" transform="translate(0 -8.6)"/><path class="cls-2" d="M973.4,397h-1.9l5.9-12.2h1.9Z" transform="translate(0 -8.6)"/><path class="cls-2" d="M983.7,395.6h-1.9v-7.3l-2.3,1v-1.9l4.2-1.7v9.9Z" transform="translate(0 -8.6)"/><path class="cls-2" d="M986.5,397h-1.9l5.9-12.2h1.9Z" transform="translate(0 -8.6)"/><path class="cls-2" d="M992.6,387.3a3.91,3.91,0,0,1,3.3-1.7,3,3,0,0,1,3.3,3.2,4.22,4.22,0,0,1-1.4,2.9l-2.1,2.2h3.7v1.8h-6.5v-1.5l3.5-3.6a2.46,2.46,0,0,0,.8-1.7,1.42,1.42,0,0,0-1.5-1.5,2.55,2.55,0,0,0-2,1.1Z" transform="translate(0 -8.6)"/><path class="cls-2" d="M1009.2,390.7c0,3.2-1.9,5.1-4.2,5.1s-4.2-1.9-4.2-5.1,1.9-5.1,4.2-5.1S1009.2,387.5,1009.2,390.7Zm-6.5,0c0,2.1,1,3.3,2.3,3.3s2.3-1.1,2.3-3.3-1-3.3-2.3-3.3S1002.7,388.5,1002.7,390.7Z" transform="translate(0 -8.6)"/><path class="cls-2" d="M1010.1,387.3a3.91,3.91,0,0,1,3.3-1.7,3,3,0,0,1,3.3,3.2,4.22,4.22,0,0,1-1.4,2.9l-2.1,2.2h3.7v1.8h-6.5v-1.5l3.5-3.6a2.46,2.46,0,0,0,.8-1.7,1.42,1.42,0,0,0-1.5-1.5,2.55,2.55,0,0,0-2,1.1Z" transform="translate(0 -8.6)"/><path class="cls-2" d="M1026.7,390.7c0,3.2-1.9,5.1-4.2,5.1s-4.2-1.9-4.2-5.1,1.9-5.1,4.2-5.1S1026.7,387.5,1026.7,390.7Zm-6.5,0c0,2.1,1,3.3,2.3,3.3s2.3-1.1,2.3-3.3-1-3.3-2.3-3.3S1020.2,388.5,1020.2,390.7Z" transform="translate(0 -8.6)"/></g><g class="cls-1"><path class="cls-2" d="M1066.6,395.6h-1.9v-7.3l-2.3,1v-1.9l4.2-1.7v9.9Z" transform="translate(0 -8.6)"/><path class="cls-2" d="M1072.4,395.6h-1.9v-7.3l-2.3,1v-1.9l4.2-1.7v9.9Z" transform="translate(0 -8.6)"/><path class="cls-2" d="M1075.2,397h-1.9l5.9-12.2h1.9Z" transform="translate(0 -8.6)"/><path class="cls-2" d="M1085.5,395.6h-1.9v-7.3l-2.3,1v-1.9l4.2-1.7v9.9Z" transform="translate(0 -8.6)"/><path class="cls-2" d="M1088.3,397h-1.9l5.9-12.2h1.9Z" transform="translate(0 -8.6)"/><path class="cls-2" d="M1094.4,387.3a3.91,3.91,0,0,1,3.3-1.7,3,3,0,0,1,3.3,3.2,4.22,4.22,0,0,1-1.4,2.9l-2.1,2.2h3.7v1.8h-6.5v-1.5l3.5-3.6a2.46,2.46,0,0,0,.8-1.7,1.42,1.42,0,0,0-1.5-1.5,2.55,2.55,0,0,0-2,1.1Z" transform="translate(0 -8.6)"/><path class="cls-2" d="M1111,390.7c0,3.2-1.9,5.1-4.2,5.1s-4.2-1.9-4.2-5.1,1.9-5.1,4.2-5.1S1111,387.5,1111,390.7Zm-6.5,0c0,2.1,1,3.3,2.3,3.3s2.3-1.1,2.3-3.3-1-3.3-2.3-3.3S1104.5,388.5,1104.5,390.7Z" transform="translate(0 -8.6)"/><path class="cls-2" d="M1111.9,387.3a3.91,3.91,0,0,1,3.3-1.7,3,3,0,0,1,3.3,3.2,4.22,4.22,0,0,1-1.4,2.9l-2.1,2.2h3.7v1.8h-6.5v-1.5l3.5-3.6a2.46,2.46,0,0,0,.8-1.7,1.42,1.42,0,0,0-1.5-1.5,2.55,2.55,0,0,0-2,1.1Z" transform="translate(0 -8.6)"/><path class="cls-2" d="M1128.5,390.7c0,3.2-1.9,5.1-4.2,5.1s-4.2-1.9-4.2-5.1,1.9-5.1,4.2-5.1S1128.5,387.5,1128.5,390.7Zm-6.5,0c0,2.1,1,3.3,2.3,3.3s2.3-1.1,2.3-3.3-1-3.3-2.3-3.3S1122,388.5,1122,390.7Z" transform="translate(0 -8.6)"/></g><g class="cls-1"><path class="cls-2" d="M8.7,354.8v1.3a6.24,6.24,0,0,1,2.9,1l-.9,1.5a7,7,0,0,0-2-.8V360c1.7.3,3,1,3,2.6s-1.4,2.7-3,2.9v1.4H7.1v-1.4a6,6,0,0,1-3.3-1.2l1-1.5a6.67,6.67,0,0,0,2.4,1v-2.3H7.1c-1.7-.3-3-1-2.9-2.7s1.3-2.6,3-2.8v-1.3H8.7Zm-1.5,5v-1.9c-.7.2-1.1.5-1.1,1S6.5,359.6,7.2,359.8ZM8.7,362v1.9c.6-.2,1.1-.5,1.1-1S9.5,362.1,8.7,362Z" transform="translate(0 -8.6)"/><path class="cls-2" d="M17.3,365.8H15.4v-7.3l-2.3,1v-1.9l4.2-1.7Z" transform="translate(0 -8.6)"/><path class="cls-2" d="M21.6,363.6l-1,4.2H19.1l.5-4.2Z" transform="translate(0 -8.6)"/><path class="cls-2" d="M28.9,362.2h1.4V364H28.9v1.8H27V364H22.6v-1.4L26,356h2.1l-3.3,6.2h2.1v-2.6h1.9v2.6Z" transform="translate(0 -8.6)"/><path class="cls-2" d="M39.7,360.9c0,3.2-1.9,5.1-4.2,5.1s-4.2-1.9-4.2-5.1,1.9-5.1,4.2-5.1S39.7,357.7,39.7,360.9Zm-6.5,0c0,2.1,1,3.3,2.3,3.3s2.3-1.1,2.3-3.3-1-3.3-2.3-3.3S33.2,358.7,33.2,360.9Z" transform="translate(0 -8.6)"/><path class="cls-2" d="M49.6,360.9c0,3.2-1.9,5.1-4.2,5.1s-4.2-1.9-4.2-5.1,1.9-5.1,4.2-5.1S49.6,357.7,49.6,360.9Zm-6.5,0c0,2.1,1,3.3,2.3,3.3s2.3-1.1,2.3-3.3-1-3.3-2.3-3.3S43.1,358.7,43.1,360.9Z" transform="translate(0 -8.6)"/></g><g class="cls-1"><path class="cls-2" d="M8.8,305.4v1.3a6.24,6.24,0,0,1,2.9,1l-.9,1.5a7,7,0,0,0-2-.8v2.2c1.7.3,3,1,3,2.6s-1.4,2.7-3,2.9v1.4H7.2v-1.4a6,6,0,0,1-3.3-1.2l1-1.5a6.67,6.67,0,0,0,2.4,1v-2.3H7.2c-1.7-.3-3-1-2.9-2.7s1.3-2.6,3-2.8v-1.3H8.8Zm-1.6,5v-1.9c-.7.2-1.1.5-1.1,1S6.5,310.2,7.2,310.4Zm1.6,2.1v1.9c.6-.2,1.1-.5,1.1-1S9.5,312.7,8.8,312.5Z" transform="translate(0 -8.6)"/><path class="cls-2" d="M17.3,316.3H15.4V309l-2.3,1v-1.9l4.2-1.7Z" transform="translate(0 -8.6)"/><path class="cls-2" d="M21.6,314.1l-1,4.2H19.1l.5-4.2Z" transform="translate(0 -8.6)"/><path class="cls-2" d="M29.2,308.3h-4v2h1.1c2.3,0,3.4,1.3,3.4,2.9a3.29,3.29,0,0,1-3.6,3.3,4.26,4.26,0,0,1-3.5-1.5l1.1-1.3a3.31,3.31,0,0,0,2.4,1c1.1,0,1.6-.6,1.6-1.4s-.5-1.4-2-1.4H23.4l.1-5.4h5.6v1.8Z" transform="translate(0 -8.6)"/><path class="cls-2" d="M39.6,311.4c0,3.2-1.9,5.1-4.2,5.1s-4.2-1.9-4.2-5.1,1.9-5.1,4.2-5.1S39.6,308.3,39.6,311.4Zm-6.5,0c0,2.1,1,3.3,2.3,3.3s2.3-1.1,2.3-3.3-1-3.3-2.3-3.3S33.1,309.3,33.1,311.4Z" transform="translate(0 -8.6)"/><path class="cls-2" d="M49.4,311.4c0,3.2-1.9,5.1-4.2,5.1s-4.2-1.9-4.2-5.1,1.9-5.1,4.2-5.1S49.4,308.3,49.4,311.4Zm-6.4,0c0,2.1,1,3.3,2.3,3.3s2.3-1.1,2.3-3.3-1-3.3-2.3-3.3S43,309.3,43,311.4Z" transform="translate(0 -8.6)"/></g><g class="cls-1"><path class="cls-2" d="M8.7,255.9v1.3a6.24,6.24,0,0,1,2.9,1l-.9,1.5a7,7,0,0,0-2-.8v2.2c1.7.3,3,1,3,2.6s-1.4,2.7-3,2.9V268H7.1v-1.4a6,6,0,0,1-3.3-1.2l1-1.5a6.67,6.67,0,0,0,2.4,1v-2.3H7.1c-1.7-.3-3-1-2.9-2.7s1.3-2.6,3-2.8v-1.3H8.7Zm-1.6,5V259c-.7.2-1.1.5-1.1,1S6.4,260.7,7.1,260.9Zm1.6,2.2V265c.6-.2,1.1-.5,1.1-1S9.4,263.2,8.7,263.1Z" transform="translate(0 -8.6)"/><path class="cls-2" d="M17.2,266.9H15.3v-7.3l-2.3,1v-1.9l4.2-1.7Z" transform="translate(0 -8.6)"/><path class="cls-2" d="M21.5,264.7l-1,4.2H19l.5-4.2Z" transform="translate(0 -8.6)"/><path class="cls-2" d="M26.1,260.5h.5a3.23,3.23,0,0,1,3.4,3.3,3.43,3.43,0,0,1-3.7,3.3,3.43,3.43,0,0,1-3.7-3.3,4.54,4.54,0,0,1,.9-2.6l2.7-4.1h2.3Zm-1.6,3.2a1.55,1.55,0,0,0,1.7,1.6,1.6,1.6,0,1,0,0-3.2A1.67,1.67,0,0,0,24.5,263.7Z" transform="translate(0 -8.6)"/><path class="cls-2" d="M39.6,262c0,3.2-1.9,5.1-4.2,5.1s-4.2-1.9-4.2-5.1,1.9-5.1,4.2-5.1S39.6,258.8,39.6,262Zm-6.5,0c0,2.1,1,3.3,2.3,3.3s2.3-1.1,2.3-3.3-1-3.3-2.3-3.3S33.1,259.8,33.1,262Z" transform="translate(0 -8.6)"/><path class="cls-2" d="M49.4,262c0,3.2-1.9,5.1-4.2,5.1S41,265.2,41,262s1.9-5.1,4.2-5.1S49.4,258.8,49.4,262ZM43,262c0,2.1,1,3.3,2.3,3.3s2.3-1.1,2.3-3.3-1-3.3-2.3-3.3S43,259.8,43,262Z" transform="translate(0 -8.6)"/></g><g class="cls-1"><path class="cls-2" d="M9.2,206.5v1.3a6.24,6.24,0,0,1,2.9,1l-.9,1.5a7,7,0,0,0-2-.8v2.2c1.7.3,3,1,3,2.6s-1.4,2.7-3,2.9v1.4H7.6v-1.4A6,6,0,0,1,4.3,216l1-1.5a6.67,6.67,0,0,0,2.4,1v-2.3H7.6c-1.7-.3-3-1-2.9-2.7s1.3-2.6,3-2.8v-1.3H9.2Zm-1.5,5v-1.9c-.7.2-1.1.5-1.1,1S7,211.3,7.7,211.5Zm1.5,2.1v1.9c.6-.2,1.1-.5,1.1-1S9.9,213.8,9.2,213.6Z" transform="translate(0 -8.6)"/><path class="cls-2" d="M17.8,217.4H15.9v-7.3l-2.3,1v-1.9l4.2-1.7Z" transform="translate(0 -8.6)"/><path class="cls-2" d="M22.1,215.2l-1,4.2H19.6l.5-4.2Z" transform="translate(0 -8.6)"/><path class="cls-2" d="M29.9,209.1l-4.1,8.3H23.6l4-8H22.9v-1.8h6.9v1.5Z" transform="translate(0 -8.6)"/><path class="cls-2" d="M39.2,212.5c0,3.2-1.9,5.1-4.2,5.1s-4.2-1.9-4.2-5.1,1.9-5.1,4.2-5.1S39.2,209.4,39.2,212.5Zm-6.5,0c0,2.1,1,3.3,2.3,3.3s2.3-1.1,2.3-3.3-1-3.3-2.3-3.3S32.7,210.4,32.7,212.5Z" transform="translate(0 -8.6)"/><path class="cls-2" d="M49.1,212.5c0,3.2-1.9,5.1-4.2,5.1s-4.2-1.9-4.2-5.1,1.9-5.1,4.2-5.1S49.1,209.4,49.1,212.5Zm-6.5,0c0,2.1,1,3.3,2.3,3.3s2.3-1.1,2.3-3.3-1-3.3-2.3-3.3S42.6,210.4,42.6,212.5Z" transform="translate(0 -8.6)"/></g><g class="cls-1"><path class="cls-2" d="M8,157v1.3a6.24,6.24,0,0,1,2.9,1l-.9,1.5a7,7,0,0,0-2-.8v2.2c1.7.3,3,1,3,2.6s-1.4,2.7-3,2.9v1.4H6.4v-1.4a6,6,0,0,1-3.3-1.2l1-1.5a6.67,6.67,0,0,0,2.4,1v-2.3H6.4c-1.7-.3-3-1-2.9-2.7s1.3-2.6,3-2.8V157Zm-1.5,5v-1.9c-.7.2-1.1.5-1.1,1S5.8,161.8,6.5,162ZM8,164.2v1.9c.6-.2,1.1-.5,1.1-1S8.7,164.3,8,164.2Z" transform="translate(0 -8.6)"/><path class="cls-2" d="M16.6,168H14.7v-7.3l-2.3,1v-1.9l4.2-1.8Z" transform="translate(0 -8.6)"/><path class="cls-2" d="M20.9,165.8l-1,4.2H18.4l.5-4.2Z" transform="translate(0 -8.6)"/><path class="cls-2" d="M29.5,160.8A2.43,2.43,0,0,1,28,163a2.37,2.37,0,0,1,1.7,2.3c0,1.8-1.7,2.8-3.8,2.8s-3.8-1.1-3.8-2.8a2.5,2.5,0,0,1,1.7-2.3,2.43,2.43,0,0,1-1.5-2.2c0-1.8,1.6-2.8,3.6-2.8S29.5,159.1,29.5,160.8Zm-5.3,4.4c0,.9.8,1.3,1.8,1.3s1.8-.5,1.8-1.3-.8-1.3-1.8-1.3S24.2,164.3,24.2,165.2Zm.2-4.2c0,.8.7,1.3,1.6,1.3s1.6-.4,1.6-1.3-.7-1.3-1.6-1.3S24.4,160.2,24.4,161Z" transform="translate(0 -8.6)"/><path class="cls-2" d="M39.6,163.1c0,3.2-1.9,5.1-4.2,5.1s-4.2-1.9-4.2-5.1,1.9-5.1,4.2-5.1S39.6,159.9,39.6,163.1Zm-6.5,0c0,2.1,1,3.3,2.3,3.3s2.3-1.1,2.3-3.3-1-3.3-2.3-3.3S33.1,160.9,33.1,163.1Z" transform="translate(0 -8.6)"/><path class="cls-2" d="M49.4,163.1c0,3.2-1.9,5.1-4.2,5.1s-4.2-1.9-4.2-5.1,1.9-5.1,4.2-5.1S49.4,159.9,49.4,163.1Zm-6.4,0c0,2.1,1,3.3,2.3,3.3s2.3-1.1,2.3-3.3-1-3.3-2.3-3.3S43,160.9,43,163.1Z" transform="translate(0 -8.6)"/></g><g class="cls-1"><path class="cls-2" d="M8.7,107.6v1.3a6.24,6.24,0,0,1,2.9,1l-.9,1.5a7,7,0,0,0-2-.8v2.2c1.7.3,3,1,3,2.6s-1.4,2.7-3,2.9v1.4H7.1v-1.4a6,6,0,0,1-3.3-1.2l1-1.5a6.67,6.67,0,0,0,2.4,1v-2.3H7.1c-1.7-.3-3-1-2.9-2.7s1.3-2.6,3-2.8v-1.3H8.7Zm-1.6,5v-1.9c-.7.2-1.1.5-1.1,1S6.4,112.4,7.1,112.6Zm1.6,2.1v1.9c.6-.2,1.1-.5,1.1-1S9.4,114.9,8.7,114.7Z" transform="translate(0 -8.6)"/><path class="cls-2" d="M17.2,118.5H15.3v-7.3l-2.3,1v-1.9l4.2-1.7Z" transform="translate(0 -8.6)"/><path class="cls-2" d="M21.5,116.3l-1,4.2H19l.5-4.2Z" transform="translate(0 -8.6)"/><path class="cls-2" d="M25.8,115.1h-.4a3.23,3.23,0,0,1-3.4-3.3,3.43,3.43,0,0,1,3.7-3.3,3.43,3.43,0,0,1,3.7,3.3,4.54,4.54,0,0,1-.9,2.6l-2.7,4.1H23.5Zm1.5-3.2a1.55,1.55,0,0,0-1.7-1.6,1.6,1.6,0,1,0,1.7,1.6Z" transform="translate(0 -8.6)"/><path class="cls-2" d="M38.9,113.6c0,3.2-1.9,5.1-4.2,5.1s-4.2-1.9-4.2-5.1,1.9-5.1,4.2-5.1S38.9,110.5,38.9,113.6Zm-6.5,0c0,2.1,1,3.3,2.3,3.3s2.3-1.1,2.3-3.3-1-3.3-2.3-3.3S32.4,111.5,32.4,113.6Z" transform="translate(0 -8.6)"/><path class="cls-2" d="M48.8,113.6c0,3.2-1.9,5.1-4.2,5.1s-4.2-1.9-4.2-5.1,1.9-5.1,4.2-5.1S48.8,110.5,48.8,113.6Zm-6.5,0c0,2.1,1,3.3,2.3,3.3s2.3-1.1,2.3-3.3-1-3.3-2.3-3.3S42.3,111.5,42.3,113.6Z" transform="translate(0 -8.6)"/></g><g class="cls-1"><path class="cls-2" d="M4.9,58.1v1.3a6.24,6.24,0,0,1,2.9,1l-.9,1.5a7,7,0,0,0-2-.8v2.2c1.7.3,3,1,3,2.6s-1.4,2.7-3,2.9v1.4H3.3V69A6,6,0,0,1,0,67.8l1-1.5a6.67,6.67,0,0,0,2.4,1V65H3.3c-1.7-.3-3-1-2.9-2.7s1.3-2.6,3-2.8V58.2H4.9Zm-1.6,5V61.2c-.7.2-1.1.5-1.1,1S2.7,62.9,3.3,63.1Zm1.6,2.2v1.9c.6-.2,1.1-.5,1.1-1S5.6,65.4,4.9,65.3Z" transform="translate(0 -8.6)"/><path class="cls-2" d="M9.3,60.8a3.91,3.91,0,0,1,3.3-1.7,3,3,0,0,1,3.3,3.2,4.22,4.22,0,0,1-1.4,2.9l-2.1,2.2h3.7v1.8H9.6V67.7l3.5-3.6a2.46,2.46,0,0,0,.8-1.7,1.42,1.42,0,0,0-1.5-1.5,2.55,2.55,0,0,0-2,1.1Z" transform="translate(0 -8.6)"/><path class="cls-2" d="M20.1,66.9l-1,4.2H17.6l.5-4.2Z" transform="translate(0 -8.6)"/><path class="cls-2" d="M29.7,64.2c0,3.2-1.9,5.1-4.2,5.1s-4.2-1.9-4.2-5.1,1.9-5.1,4.2-5.1S29.7,61,29.7,64.2Zm-6.4,0c0,2.1,1,3.3,2.3,3.3s2.3-1.1,2.3-3.3-1-3.3-2.3-3.3S23.3,62,23.3,64.2Z" transform="translate(0 -8.6)"/><path class="cls-2" d="M39.6,64.2c0,3.2-1.9,5.1-4.2,5.1s-4.2-1.9-4.2-5.1,1.9-5.1,4.2-5.1S39.6,61,39.6,64.2Zm-6.5,0c0,2.1,1,3.3,2.3,3.3s2.3-1.1,2.3-3.3-1-3.3-2.3-3.3S33.1,62,33.1,64.2Z" transform="translate(0 -8.6)"/><path class="cls-2" d="M49.5,64.2c0,3.2-1.9,5.1-4.2,5.1s-4.2-1.9-4.2-5.1,1.9-5.1,4.2-5.1S49.5,61,49.5,64.2Zm-6.5,0c0,2.1,1,3.3,2.3,3.3s2.3-1.1,2.3-3.3-1-3.3-2.3-3.3S43,62,43,64.2Z" transform="translate(0 -8.6)"/></g><g class="cls-1"><path class="cls-2" d="M9,8.7V10a6.24,6.24,0,0,1,2.9,1L11,12.5a7,7,0,0,0-2-.8v2.2c1.7.3,3,1,3,2.6s-1.4,2.7-3,2.9v1.4H7.4V19.4a6,6,0,0,1-3.3-1.2l1-1.5a6.67,6.67,0,0,0,2.4,1V15.4H7.4c-1.7-.3-3-1-2.9-2.7s1.3-2.6,3-2.8V8.6H9Zm-1.5,5V11.8c-.7.2-1.1.5-1.1,1S6.8,13.5,7.5,13.7ZM9,15.8v1.9c.6-.2,1.1-.5,1.1-1S9.7,16,9,15.8Z" transform="translate(0 -8.6)"/><path class="cls-2" d="M13.5,11.3a3.91,3.91,0,0,1,3.3-1.7,3,3,0,0,1,3.3,3.2,4.22,4.22,0,0,1-1.4,2.9l-2.1,2.2h3.7v1.8H13.8V18.2l3.5-3.6a2.46,2.46,0,0,0,.8-1.7,1.42,1.42,0,0,0-1.5-1.5,2.55,2.55,0,0,0-2,1.1Z" transform="translate(0 -8.6)"/><path class="cls-2" d="M24.2,17.4l-1,4.2H21.7l.5-4.2Z" transform="translate(0 -8.6)"/><path class="cls-2" d="M28.7,19.6H26.8V12.3l-2.3,1V11.4l4.2-1.7Z" transform="translate(0 -8.6)"/><path class="cls-2" d="M39,14.7c0,3.2-1.9,5.1-4.2,5.1s-4.2-1.9-4.2-5.1,1.9-5.1,4.2-5.1S39,11.6,39,14.7Zm-6.5,0c0,2.1,1,3.3,2.3,3.3s2.3-1.1,2.3-3.3-1-3.3-2.3-3.3S32.5,12.6,32.5,14.7Z" transform="translate(0 -8.6)"/><path class="cls-2" d="M48.9,14.7c0,3.2-1.9,5.1-4.2,5.1s-4.2-1.9-4.2-5.1,1.9-5.1,4.2-5.1S48.9,11.6,48.9,14.7Zm-6.5,0c0,2.1,1,3.3,2.3,3.3S47,16.9,47,14.7s-1-3.3-2.3-3.3S42.4,12.6,42.4,14.7Z" transform="translate(0 -8.6)"/></g><line class="cls-3" x1="59.9" y1="353.8" x2="59.9" y2="7.6"/><line class="cls-4" x1="1187.5" y1="162" x2="1192.2" y2="170.2"/><line class="cls-4" x1="1182.7" y1="148.2" x2="1187.5" y2="162"/><line class="cls-4" x1="1178" y1="152.3" x2="1182.7" y2="148.2"/><line class="cls-4" x1="1173.2" y1="152.2" x2="1178" y2="152.3"/><line class="cls-4" x1="1168.5" y1="137.3" x2="1173.2" y2="152.2"/><line class="cls-4" x1="1163.7" y1="120.9" x2="1168.5" y2="137.3"/><line class="cls-4" x1="1159" y1="123.1" x2="1163.7" y2="120.9"/><line class="cls-4" x1="1154.3" y1="120.3" x2="1159" y2="123.1"/><line class="cls-4" x1="1149.5" y1="116.2" x2="1154.3" y2="120.3"/><line class="cls-4" x1="1144.8" y1="112" x2="1149.5" y2="116.2"/><line class="cls-4" x1="1140" y1="111.9" x2="1144.8" y2="112"/><line class="cls-4" x1="1135.3" y1="118" x2="1140" y2="111.9"/><line class="cls-4" x1="1130.5" y1="123.5" x2="1135.3" y2="118"/><line class="cls-4" x1="1125.8" y1="117.8" x2="1130.5" y2="123.5"/><line class="cls-4" x1="1121" y1="124.8" x2="1125.8" y2="117.8"/><line class="cls-4" x1="1116.3" y1="81.2" x2="1121" y2="124.8"/><line class="cls-4" x1="1111.5" y1="82" x2="1116.3" y2="81.2"/><line class="cls-4" x1="1106.8" y1="105.1" x2="1111.5" y2="82"/><line class="cls-4" x1="1102" y1="102" x2="1106.8" y2="105.1"/><line class="cls-4" x1="1097.3" y1="108.8" x2="1102" y2="102"/><line class="cls-4" x1="1092.5" y1="117" x2="1097.3" y2="108.8"/><line class="cls-4" x1="1087.8" y1="122.6" x2="1092.5" y2="117"/><line class="cls-4" x1="1083" y1="117.8" x2="1087.8" y2="122.6"/><line class="cls-4" x1="1078.3" y1="102.6" x2="1083" y2="117.8"/><line class="cls-4" x1="1073.5" y1="105.5" x2="1078.3" y2="102.6"/><line class="cls-4" x1="1068.8" y1="105.5" x2="1073.5" y2="105.5"/><line class="cls-4" x1="1064" y1="104.5" x2="1068.8" y2="105.5"/><line class="cls-4" x1="1059.3" y1="94.5" x2="1064" y2="104.5"/><line class="cls-4" x1="1054.5" y1="103.1" x2="1059.3" y2="94.5"/><line class="cls-4" x1="1049.8" y1="104.5" x2="1054.5" y2="103.1"/><line class="cls-4" x1="1045" y1="106.9" x2="1049.8" y2="104.5"/><line class="cls-4" x1="1040.3" y1="102.2" x2="1045" y2="106.9"/><line class="cls-4" x1="1035.5" y1="105.8" x2="1040.3" y2="102.2"/><line class="cls-4" x1="1030.8" y1="110.8" x2="1035.5" y2="105.8"/><line class="cls-4" x1="1026.1" y1="95.3" x2="1030.8" y2="110.8"/><line class="cls-4" x1="1021.3" y1="91.5" x2="1026.1" y2="95.3"/><line class="cls-4" x1="1016.6" y1="109.6" x2="1021.3" y2="91.5"/><line class="cls-4" x1="1011.8" y1="112.8" x2="1016.6" y2="109.6"/><line class="cls-4" x1="1007.1" y1="117.3" x2="1011.8" y2="112.8"/><line class="cls-4" x1="1002.3" y1="99.8" x2="1007.1" y2="117.3"/><line class="cls-4" x1="997.6" y1="106.6" x2="1002.3" y2="99.8"/><line class="cls-4" x1="992.8" y1="103.6" x2="997.6" y2="106.6"/><line class="cls-4" x1="988.1" y1="113.5" x2="992.8" y2="103.6"/><line class="cls-4" x1="983.3" y1="107.5" x2="988.1" y2="113.5"/><line class="cls-4" x1="978.6" y1="115.7" x2="983.3" y2="107.5"/><line class="cls-4" x1="973.8" y1="125.5" x2="978.6" y2="115.7"/><line class="cls-4" x1="969.1" y1="122.3" x2="973.8" y2="125.5"/><line class="cls-4" x1="964.3" y1="124.7" x2="969.1" y2="122.3"/><line class="cls-4" x1="959.6" y1="106.4" x2="964.3" y2="124.7"/><line class="cls-4" x1="954.8" y1="100.3" x2="959.6" y2="106.4"/><line class="cls-4" x1="950.1" y1="81.4" x2="954.8" y2="100.3"/><line class="cls-4" x1="945.3" y1="84.6" x2="950.1" y2="81.4"/><line class="cls-4" x1="940.6" y1="77.2" x2="945.3" y2="84.6"/><line class="cls-4" x1="935.8" y1="79.8" x2="940.6" y2="77.2"/><line class="cls-4" x1="931.1" y1="78.4" x2="935.8" y2="79.8"/><line class="cls-4" x1="926.4" y1="86.5" x2="931.1" y2="78.4"/><line class="cls-4" x1="921.6" y1="83.8" x2="926.4" y2="86.5"/><line class="cls-4" x1="916.9" y1="83.4" x2="921.6" y2="83.8"/><line class="cls-4" x1="912.1" y1="90.7" x2="916.9" y2="83.4"/><line class="cls-4" x1="907.4" y1="89.9" x2="912.1" y2="90.7"/><line class="cls-4" x1="902.6" y1="89.8" x2="907.4" y2="89.9"/><line class="cls-4" x1="897.9" y1="91.3" x2="902.6" y2="89.8"/><line class="cls-4" x1="893.1" y1="85.3" x2="897.9" y2="91.3"/><line class="cls-4" x1="888.4" y1="71.8" x2="893.1" y2="85.3"/><line class="cls-4" x1="883.6" y1="73" x2="888.4" y2="71.8"/><line class="cls-4" x1="878.9" y1="74.5" x2="883.6" y2="73"/><line class="cls-4" x1="874.1" y1="91.9" x2="878.9" y2="74.5"/><line class="cls-4" x1="869.4" y1="79.6" x2="874.1" y2="91.9"/><line class="cls-4" x1="864.6" y1="92.6" x2="869.4" y2="79.6"/><line class="cls-4" x1="859.9" y1="92.3" x2="864.6" y2="92.6"/><line class="cls-4" x1="855.1" y1="86.5" x2="859.9" y2="92.3"/><line class="cls-4" x1="850.4" y1="83.2" x2="855.1" y2="86.5"/><line class="cls-4" x1="845.6" y1="92.2" x2="850.4" y2="83.2"/><line class="cls-4" x1="840.9" y1="55.9" x2="845.6" y2="92.2"/><line class="cls-4" x1="836.1" y1="64.4" x2="840.9" y2="55.9"/><line class="cls-4" x1="831.4" y1="84.2" x2="836.1" y2="64.4"/><line class="cls-4" x1="826.6" y1="80" x2="831.4" y2="84.2"/><line class="cls-4" x1="821.9" y1="98.7" x2="826.6" y2="80"/><line class="cls-4" x1="817.1" y1="100.7" x2="821.9" y2="98.7"/><line class="cls-4" x1="812.4" y1="43.6" x2="817.1" y2="100.7"/><line class="cls-4" x1="807.7" y1="39.5" x2="812.4" y2="43.6"/><line class="cls-4" x1="802.9" y1="25.7" x2="807.7" y2="39.5"/><line class="cls-4" x1="798.2" y1="38.2" x2="802.9" y2="25.7"/><line class="cls-4" x1="793.4" y1="47.6" x2="798.2" y2="38.2"/><line class="cls-4" x1="788.7" y1="68.5" x2="793.4" y2="47.6"/><line class="cls-4" x1="783.9" y1="69" x2="788.7" y2="68.5"/><line class="cls-4" x1="779.2" y1="78.5" x2="783.9" y2="69"/><line class="cls-4" x1="774.4" y1="71.5" x2="779.2" y2="78.5"/><line class="cls-4" x1="769.7" y1="77.6" x2="774.4" y2="71.5"/><line class="cls-4" x1="764.9" y1="85.6" x2="769.7" y2="77.6"/><line class="cls-4" x1="760.2" y1="105.5" x2="764.9" y2="85.6"/><line class="cls-4" x1="755.4" y1="112.8" x2="760.2" y2="105.5"/><line class="cls-4" x1="750.7" y1="120.7" x2="755.4" y2="112.8"/><line class="cls-4" x1="745.9" y1="135.3" x2="750.7" y2="120.7"/><line class="cls-4" x1="741.2" y1="147.2" x2="745.9" y2="135.3"/><line class="cls-4" x1="736.4" y1="150.8" x2="741.2" y2="147.2"/><line class="cls-4" x1="731.7" y1="157.4" x2="736.4" y2="150.8"/><line class="cls-4" x1="726.9" y1="150.9" x2="731.7" y2="157.4"/><line class="cls-4" x1="722.2" y1="151.4" x2="726.9" y2="150.9"/><line class="cls-4" x1="717.4" y1="154.6" x2="722.2" y2="151.4"/><line class="cls-4" x1="712.7" y1="156.6" x2="717.4" y2="154.6"/><line class="cls-4" x1="707.9" y1="154.2" x2="712.7" y2="156.6"/><line class="cls-4" x1="703.2" y1="151.6" x2="707.9" y2="154.2"/><line class="cls-4" x1="698.5" y1="158.5" x2="703.2" y2="151.6"/><line class="cls-4" x1="693.7" y1="163.6" x2="698.5" y2="158.5"/><line class="cls-4" x1="689" y1="167.9" x2="693.7" y2="163.6"/><line class="cls-4" x1="684.2" y1="168.2" x2="689" y2="167.9"/><line class="cls-4" x1="679.5" y1="170.8" x2="684.2" y2="168.2"/><line class="cls-4" x1="674.7" y1="165.4" x2="679.5" y2="170.8"/><line class="cls-4" x1="670" y1="169.4" x2="674.7" y2="165.4"/><line class="cls-4" x1="665.2" y1="170.2" x2="670" y2="169.4"/><line class="cls-4" x1="660.5" y1="173.9" x2="665.2" y2="170.2"/><line class="cls-4" x1="655.7" y1="175.2" x2="660.5" y2="173.9"/><line class="cls-4" x1="651" y1="171.6" x2="655.7" y2="175.2"/><line class="cls-4" x1="646.2" y1="178.5" x2="651" y2="171.6"/><line class="cls-4" x1="641.5" y1="183.8" x2="646.2" y2="178.5"/><line class="cls-4" x1="636.7" y1="194.1" x2="641.5" y2="183.8"/><line class="cls-4" x1="632" y1="192.1" x2="636.7" y2="194.1"/><line class="cls-4" x1="627.2" y1="192.3" x2="632" y2="192.1"/><line class="cls-4" x1="622.5" y1="193" x2="627.2" y2="192.3"/><line class="cls-4" x1="617.8" y1="190.2" x2="622.5" y2="193"/><line class="cls-4" x1="613" y1="191.7" x2="617.8" y2="190.2"/><line class="cls-4" x1="608.3" y1="186.3" x2="613" y2="191.7"/><line class="cls-4" x1="603.5" y1="197.9" x2="608.3" y2="186.3"/><line class="cls-4" x1="598.8" y1="206.2" x2="603.5" y2="197.9"/><line class="cls-4" x1="594" y1="212.8" x2="598.8" y2="206.2"/><line class="cls-4" x1="589.3" y1="198.5" x2="594" y2="212.8"/><line class="cls-4" x1="584.5" y1="205.6" x2="589.3" y2="198.5"/><line class="cls-4" x1="579.8" y1="191.7" x2="584.5" y2="205.6"/><line class="cls-4" x1="575" y1="185.9" x2="579.8" y2="191.7"/><line class="cls-4" x1="570.3" y1="190.5" x2="575" y2="185.9"/><line class="cls-4" x1="565.5" y1="196.4" x2="570.3" y2="190.5"/><line class="cls-4" x1="560.8" y1="200.8" x2="565.5" y2="196.4"/><line class="cls-4" x1="556" y1="200.2" x2="560.8" y2="200.8"/><line class="cls-4" x1="551.3" y1="189.6" x2="556" y2="200.2"/><line class="cls-4" x1="546.5" y1="188.3" x2="551.3" y2="189.6"/><line class="cls-4" x1="541.8" y1="192.1" x2="546.5" y2="188.3"/><line class="cls-4" x1="537" y1="181.6" x2="541.8" y2="192.1"/><line class="cls-4" x1="532.3" y1="183.2" x2="537" y2="181.6"/><line class="cls-4" x1="527.5" y1="189.3" x2="532.3" y2="183.2"/><line class="cls-4" x1="522.8" y1="183.8" x2="527.5" y2="189.3"/><line class="cls-4" x1="518" y1="190.5" x2="522.8" y2="183.8"/><line class="cls-4" x1="513.3" y1="197.4" x2="518" y2="190.5"/><line class="cls-4" x1="508.6" y1="204.1" x2="513.3" y2="197.4"/><line class="cls-4" x1="503.8" y1="206.5" x2="508.6" y2="204.1"/><line class="cls-4" x1="499.1" y1="204.1" x2="503.8" y2="206.5"/><line class="cls-4" x1="494.3" y1="197.5" x2="499.1" y2="204.1"/><line class="cls-4" x1="489.6" y1="212.5" x2="494.3" y2="197.5"/><line class="cls-4" x1="484.8" y1="202.5" x2="489.6" y2="212.5"/><line class="cls-4" x1="480.1" y1="204.4" x2="484.8" y2="202.5"/><line class="cls-4" x1="475.3" y1="205.2" x2="480.1" y2="204.4"/><line class="cls-4" x1="470.6" y1="212.1" x2="475.3" y2="205.2"/><line class="cls-4" x1="465.8" y1="198.8" x2="470.6" y2="212.1"/><line class="cls-4" x1="461.1" y1="201.6" x2="465.8" y2="198.8"/><line class="cls-4" x1="456.3" y1="198.5" x2="461.1" y2="201.6"/><line class="cls-4" x1="451.6" y1="190.8" x2="456.3" y2="198.5"/><line class="cls-4" x1="446.8" y1="190.3" x2="451.6" y2="190.8"/><line class="cls-4" x1="442.1" y1="198.5" x2="446.8" y2="190.3"/><line class="cls-4" x1="437.3" y1="212.3" x2="442.1" y2="198.5"/><line class="cls-4" x1="432.6" y1="207.6" x2="437.3" y2="212.3"/><line class="cls-4" x1="427.8" y1="213.9" x2="432.6" y2="207.6"/><line class="cls-4" x1="423.1" y1="196.7" x2="427.8" y2="213.9"/><line class="cls-4" x1="418.3" y1="197" x2="423.1" y2="196.7"/><line class="cls-4" x1="413.6" y1="192.1" x2="418.3" y2="197"/><line class="cls-4" x1="408.8" y1="197.8" x2="413.6" y2="192.1"/><line class="cls-4" x1="404.1" y1="207.1" x2="408.8" y2="197.8"/><line class="cls-4" x1="399.4" y1="213.5" x2="404.1" y2="207.1"/><line class="cls-4" x1="394.6" y1="232.1" x2="399.4" y2="213.5"/><line class="cls-4" x1="389.8" y1="231.3" x2="394.6" y2="232.1"/><line class="cls-4" x1="385.1" y1="224.7" x2="389.8" y2="231.3"/><line class="cls-4" x1="380.4" y1="244.6" x2="385.1" y2="224.7"/><line class="cls-4" x1="375.6" y1="248" x2="380.4" y2="244.6"/><line class="cls-4" x1="370.9" y1="259.1" x2="375.6" y2="248"/><line class="cls-4" x1="366.1" y1="266.2" x2="370.9" y2="259.1"/><line class="cls-4" x1="361.4" y1="243.8" x2="366.1" y2="266.2"/><line class="cls-4" x1="356.6" y1="241" x2="361.4" y2="243.8"/><line class="cls-4" x1="351.9" y1="239.4" x2="356.6" y2="241"/><line class="cls-4" x1="347.1" y1="246.5" x2="351.9" y2="239.4"/><line class="cls-4" x1="342.4" y1="238.9" x2="347.1" y2="246.5"/><line class="cls-4" x1="337.6" y1="278" x2="342.4" y2="238.9"/><line class="cls-4" x1="332.9" y1="305" x2="337.6" y2="278"/><line class="cls-4" x1="328.1" y1="318.6" x2="332.9" y2="305"/><line class="cls-4" x1="323.4" y1="311.2" x2="328.1" y2="318.6"/><line class="cls-4" x1="318.6" y1="290.3" x2="323.4" y2="311.2"/><line class="cls-4" x1="313.9" y1="297.4" x2="318.6" y2="290.3"/><line class="cls-4" x1="309.1" y1="289.6" x2="313.9" y2="297.4"/><line class="cls-4" x1="304.4" y1="266.7" x2="309.1" y2="289.6"/><line class="cls-4" x1="299.6" y1="237.6" x2="304.4" y2="266.7"/><line class="cls-4" x1="294.9" y1="230.5" x2="299.6" y2="237.6"/><line class="cls-4" x1="290.1" y1="215.1" x2="294.9" y2="230.5"/><line class="cls-4" x1="285.4" y1="218.4" x2="290.1" y2="215.1"/><line class="cls-4" x1="280.6" y1="219.2" x2="285.4" y2="218.4"/><line class="cls-4" x1="275.9" y1="236.6" x2="280.6" y2="219.2"/><line class="cls-4" x1="271.2" y1="234.7" x2="275.9" y2="236.6"/><line class="cls-4" x1="266.4" y1="260.1" x2="271.2" y2="234.7"/><line class="cls-4" x1="261.7" y1="262" x2="266.4" y2="260.1"/><line class="cls-4" x1="256.9" y1="232.6" x2="261.7" y2="262"/><line class="cls-4" x1="252.2" y1="234.6" x2="256.9" y2="232.6"/><line class="cls-4" x1="247.4" y1="237.5" x2="252.2" y2="234.6"/><line class="cls-4" x1="242.7" y1="225.5" x2="247.4" y2="237.5"/><line class="cls-4" x1="237.9" y1="233.4" x2="242.7" y2="225.5"/><line class="cls-4" x1="233.2" y1="245.2" x2="237.9" y2="233.4"/><line class="cls-4" x1="228.4" y1="249.1" x2="233.2" y2="245.2"/><line class="cls-4" x1="223.7" y1="254.1" x2="228.4" y2="249.1"/><line class="cls-4" x1="218.9" y1="264.2" x2="223.7" y2="254.1"/><line class="cls-4" x1="214.2" y1="262.8" x2="218.9" y2="264.2"/><line class="cls-4" x1="209.4" y1="266.8" x2="214.2" y2="262.8"/><line class="cls-4" x1="204.7" y1="271.7" x2="209.4" y2="266.8"/><line class="cls-4" x1="199.9" y1="270.8" x2="204.7" y2="271.7"/><line class="cls-4" x1="195.2" y1="268.7" x2="199.9" y2="270.8"/><line class="cls-4" x1="190.5" y1="269.5" x2="195.2" y2="268.7"/><line class="cls-4" x1="185.7" y1="271.4" x2="190.5" y2="269.5"/><line class="cls-4" x1="181" y1="276.6" x2="185.7" y2="271.4"/><line class="cls-4" x1="176.2" y1="278.2" x2="181" y2="276.6"/><line class="cls-4" x1="171.5" y1="266.4" x2="176.2" y2="278.2"/><line class="cls-4" x1="166.7" y1="260.3" x2="171.5" y2="266.4"/><line class="cls-4" x1="162" y1="267.6" x2="166.7" y2="260.3"/><line class="cls-4" x1="157.2" y1="266.4" x2="162" y2="267.6"/><line class="cls-4" x1="152.5" y1="271.1" x2="157.2" y2="266.4"/><line class="cls-4" x1="147.7" y1="263.8" x2="152.5" y2="271.1"/><line class="cls-4" x1="143" y1="269" x2="147.7" y2="263.8"/><line class="cls-4" x1="138.2" y1="273.2" x2="143" y2="269"/><line class="cls-4" x1="133.5" y1="275.3" x2="138.2" y2="273.2"/><line class="cls-4" x1="128.7" y1="275.6" x2="133.5" y2="275.3"/><line class="cls-4" x1="124" y1="274.3" x2="128.7" y2="275.6"/><line class="cls-4" x1="119.2" y1="276" x2="124" y2="274.3"/><line class="cls-4" x1="114.5" y1="278.4" x2="119.2" y2="276"/><line class="cls-4" x1="109.7" y1="276.5" x2="114.5" y2="278.4"/><line class="cls-4" x1="105" y1="281.4" x2="109.7" y2="276.5"/><line class="cls-4" x1="100.2" y1="280.7" x2="105" y2="281.4"/><line class="cls-4" x1="95.5" y1="273.5" x2="100.2" y2="280.7"/><line class="cls-4" x1="90.7" y1="278.5" x2="95.5" y2="273.5"/><line class="cls-4" x1="86" y1="276.4" x2="90.7" y2="278.5"/><line class="cls-4" x1="81.2" y1="267.6" x2="86" y2="276.4"/><line class="cls-4" x1="76.5" y1="271.8" x2="81.2" y2="267.6"/><line class="cls-4" x1="71.7" y1="278.5" x2="76.5" y2="271.8"/><line class="cls-4" x1="67" y1="289.9" x2="71.7" y2="278.5"/><line class="cls-4" x1="62.3" y1="295.8" x2="67" y2="289.9"/><line class="cls-3" x1="59.9" y1="353.8" x2="1199.2" y2="353.8"/></svg>