<?xml version="1.0" encoding="utf-8"?>
<!-- Generator: Adobe Illustrator 25.0.1, SVG Export Plug-In . SVG Version: 6.00 Build 0)  -->
<svg version="1.1" id="Layer_1" xmlns="http://www.w3.org/2000/svg" xmlns:xlink="http://www.w3.org/1999/xlink" x="0px" y="0px"
	 viewBox="0 0 1000 525" style="enable-background:new 0 0 1000 525;" xml:space="preserve">
<style type="text/css">
	.st0{fill:none;stroke:#D1D3D4;stroke-width:2;stroke-miterlimit:10;}
	.st1{fill:none;stroke:#D1D3D4;stroke-width:2;stroke-miterlimit:10;stroke-dasharray:7.9827,7.9827;}
	.st2{fill:none;stroke:#000000;stroke-miterlimit:10;}
	.st3{fill:none;stroke:#F47E20;stroke-width:3;stroke-linecap:round;stroke-linejoin:round;stroke-miterlimit:10;}
	.st4{fill:none;stroke:#ED5A36;stroke-width:3;stroke-linecap:round;stroke-linejoin:round;stroke-miterlimit:10;}
	.st5{fill:none;stroke:#DFDFDF;stroke-width:2;stroke-linecap:round;stroke-miterlimit:10;}
	.st6{fill:none;stroke:#000000;stroke-width:2;stroke-linecap:round;stroke-miterlimit:10;}
	.st7{fill:#F47E20;}
	.st8{fill:#ED5A36;}
</style>
<g>
	<g>
		<line class="st0" x1="43.62" y1="258.33" x2="47.62" y2="258.33"/>
		<line class="st1" x1="55.61" y1="258.33" x2="929.71" y2="258.33"/>
		<line class="st0" x1="933.7" y1="258.33" x2="937.7" y2="258.33"/>
	</g>
</g>
<g>
	<line class="st2" x1="41.66" y1="468.96" x2="939.66" y2="468.96"/>
</g>
<g>
	<g>
		<path d="M8.59,471.99H4.45v-1.6h4.14V471.99z"/>
		<path d="M16.1,471.36h1.37v1.76H16.1v1.79h-1.89v-1.79H9.86v-1.37l3.44-6.63h2.1l-3.28,6.24h2.09v-2.61h1.89V471.36z"/>
		<path d="M26.92,470.02c0,3.17-1.89,5.08-4.23,5.08c-2.35,0-4.22-1.9-4.22-5.08s1.88-5.08,4.22-5.08
			C25.03,464.94,26.92,466.85,26.92,470.02z M20.44,470.02c0,2.14,1,3.26,2.26,3.26c1.26,0,2.25-1.12,2.25-3.26
			c0-2.14-0.99-3.26-2.25-3.26C21.44,466.75,20.44,467.88,20.44,470.02z"/>
	</g>
</g>
<g>
	<g>
		<path d="M9.34,419.34H5.21v-1.6h4.14V419.34z"/>
		<path d="M16.93,415.1c0,1.04-0.55,1.8-1.46,2.23c1.03,0.41,1.68,1.19,1.68,2.25c0,1.93-1.76,2.86-3.61,2.86
			c-1.47,0-2.68-0.53-3.42-1.42l1.13-1.24c0.57,0.6,1.39,0.94,2.23,0.94c0.95,0,1.71-0.41,1.71-1.27c0-0.84-0.86-1.28-1.92-1.28
			h-1.14v-1.68h1.15c0.95,0,1.72-0.42,1.72-1.25c0-0.79-0.71-1.23-1.63-1.23s-1.58,0.47-1.98,1l-1.19-1.2
			c0.64-0.87,1.71-1.52,3.27-1.52C15.52,412.28,16.93,413.4,16.93,415.1z"/>
		<path d="M26.92,417.36c0,3.17-1.89,5.08-4.23,5.08c-2.35,0-4.22-1.9-4.22-5.08s1.88-5.08,4.22-5.08
			C25.03,412.28,26.92,414.19,26.92,417.36z M20.44,417.36c0,2.14,1,3.26,2.25,3.26c1.26,0,2.26-1.12,2.26-3.26
			c0-2.14-0.99-3.26-2.26-3.26C21.44,414.1,20.44,415.22,20.44,417.36z"/>
	</g>
</g>
<g>
	<g>
		<path d="M9.58,366.68H5.44v-1.6h4.14V366.68z"/>
		<path d="M10.34,361.31c0.53-0.69,1.53-1.69,3.35-1.69c2.05,0,3.33,1.29,3.33,3.17c0,1.2-0.61,2.03-1.42,2.86l-2.09,2.18h3.75v1.77
			h-6.48v-1.48l3.47-3.55c0.52-0.53,0.8-1.07,0.8-1.68c0-0.85-0.6-1.46-1.5-1.46c-0.93,0-1.48,0.5-1.99,1.08L10.34,361.31z"/>
		<path d="M26.92,364.7c0,3.17-1.89,5.08-4.23,5.08c-2.35,0-4.22-1.9-4.22-5.08s1.88-5.08,4.22-5.08
			C25.03,359.63,26.92,361.53,26.92,364.7z M20.44,364.7c0,2.14,1,3.26,2.25,3.26c1.26,0,2.26-1.12,2.26-3.26
			c0-2.14-0.99-3.26-2.26-3.26C21.44,361.44,20.44,362.56,20.44,364.7z"/>
	</g>
</g>
<g>
	<g>
		<path d="M11.65,314.02H7.51v-1.6h4.14V314.02z"/>
		<path d="M16.6,316.95h-1.89v-7.3l-2.35,0.95v-1.9l4.24-1.71V316.95z"/>
		<path d="M26.92,312.05c0,3.17-1.89,5.08-4.23,5.08c-2.35,0-4.22-1.9-4.22-5.08s1.88-5.08,4.22-5.08
			C25.03,306.97,26.92,308.87,26.92,312.05z M20.44,312.05c0,2.14,1,3.26,2.26,3.26c1.26,0,2.25-1.12,2.25-3.26
			c0-2.14-0.99-3.26-2.25-3.26C21.44,308.78,20.44,309.9,20.44,312.05z"/>
	</g>
</g>
<g>
	<g>
		<path d="M26.92,259.39c0,3.17-1.89,5.08-4.23,5.08c-2.35,0-4.22-1.9-4.22-5.08s1.88-5.08,4.22-5.08
			C25.03,254.31,26.92,256.21,26.92,259.39z M20.44,259.39c0,2.14,1,3.26,2.25,3.26c1.26,0,2.26-1.12,2.26-3.26
			c0-2.14-0.99-3.26-2.26-3.26C21.44,256.12,20.44,257.24,20.44,259.39z"/>
	</g>
</g>
<g>
	<g>
		<path d="M16.6,211.63h-1.89v-7.3l-2.35,0.95v-1.9l4.24-1.71V211.63z"/>
		<path d="M26.92,206.73c0,3.17-1.89,5.08-4.23,5.08c-2.35,0-4.22-1.9-4.22-5.08s1.88-5.08,4.22-5.08
			C25.03,201.65,26.92,203.56,26.92,206.73z M20.44,206.73c0,2.14,1,3.26,2.25,3.26c1.26,0,2.26-1.12,2.26-3.26
			c0-2.14-0.99-3.26-2.26-3.26C21.44,203.47,20.44,204.59,20.44,206.73z"/>
	</g>
</g>
<g>
	<g>
		<path d="M10.34,150.68c0.53-0.69,1.53-1.69,3.35-1.69c2.05,0,3.33,1.29,3.33,3.17c0,1.2-0.61,2.03-1.42,2.86l-2.09,2.18h3.75v1.77
			h-6.48v-1.48l3.47-3.55c0.52-0.53,0.8-1.07,0.8-1.68c0-0.85-0.6-1.46-1.5-1.46c-0.93,0-1.48,0.5-1.99,1.08L10.34,150.68z"/>
		<path d="M26.92,154.07c0,3.17-1.89,5.08-4.23,5.08c-2.35,0-4.22-1.9-4.22-5.08s1.88-5.08,4.22-5.08
			C25.03,149,26.92,150.9,26.92,154.07z M20.44,154.07c0,2.14,1,3.26,2.25,3.26c1.26,0,2.26-1.12,2.26-3.26
			c0-2.14-0.99-3.26-2.26-3.26C21.44,150.81,20.44,151.93,20.44,154.07z"/>
	</g>
</g>
<g>
	<g>
		<path d="M16.93,99.15c0,1.04-0.55,1.8-1.46,2.23c1.03,0.41,1.68,1.19,1.68,2.25c0,1.93-1.76,2.86-3.61,2.86
			c-1.47,0-2.68-0.53-3.42-1.42l1.13-1.24c0.57,0.6,1.39,0.94,2.23,0.94c0.95,0,1.71-0.41,1.71-1.27c0-0.84-0.86-1.28-1.92-1.28
			h-1.14v-1.68h1.15c0.95,0,1.72-0.42,1.72-1.25c0-0.79-0.71-1.23-1.63-1.23s-1.58,0.47-1.98,1l-1.19-1.2
			c0.64-0.87,1.71-1.52,3.27-1.52C15.52,96.34,16.93,97.46,16.93,99.15z"/>
		<path d="M26.92,101.42c0,3.17-1.89,5.08-4.23,5.08c-2.35,0-4.22-1.9-4.22-5.08s1.88-5.08,4.22-5.08
			C25.03,96.34,26.92,98.24,26.92,101.42z M20.44,101.42c0,2.14,1,3.26,2.25,3.26c1.26,0,2.26-1.12,2.26-3.26
			c0-2.14-0.99-3.26-2.26-3.26C21.44,98.15,20.44,99.27,20.44,101.42z"/>
	</g>
</g>
<line class="st2" x1="41.66" y1="468.96" x2="41.66" y2="100.36"/>
<g>
	<g>
		<line class="st3" x1="47.55" y1="262" x2="43.62" y2="258.33"/>
		<line class="st3" x1="51.47" y1="261.11" x2="47.55" y2="262"/>
		<line class="st3" x1="55.39" y1="263.25" x2="51.47" y2="261.11"/>
		<line class="st3" x1="59.31" y1="261.74" x2="55.39" y2="263.25"/>
		<line class="st3" x1="63.23" y1="259.74" x2="59.31" y2="261.74"/>
		<line class="st3" x1="67.15" y1="261.63" x2="63.23" y2="259.74"/>
		<line class="st3" x1="71.07" y1="259.66" x2="67.15" y2="261.63"/>
		<line class="st3" x1="75" y1="259.17" x2="71.07" y2="259.66"/>
		<line class="st3" x1="78.92" y1="258.54" x2="75" y2="259.17"/>
		<line class="st3" x1="82.84" y1="254.75" x2="78.92" y2="258.54"/>
		<line class="st3" x1="86.76" y1="253.77" x2="82.84" y2="254.75"/>
		<line class="st3" x1="90.68" y1="256.09" x2="86.76" y2="253.77"/>
		<line class="st3" x1="94.6" y1="255.96" x2="90.68" y2="256.09"/>
		<line class="st3" x1="98.52" y1="255.84" x2="94.6" y2="255.96"/>
		<line class="st3" x1="102.45" y1="261.03" x2="98.52" y2="255.84"/>
		<line class="st3" x1="106.37" y1="268.21" x2="102.45" y2="261.03"/>
		<line class="st3" x1="110.29" y1="265.04" x2="106.37" y2="268.21"/>
		<line class="st3" x1="114.21" y1="267.39" x2="110.29" y2="265.04"/>
		<line class="st3" x1="118.13" y1="265.68" x2="114.21" y2="267.39"/>
		<line class="st3" x1="122.05" y1="274.81" x2="118.13" y2="265.68"/>
		<line class="st3" x1="125.97" y1="273.25" x2="122.05" y2="274.81"/>
		<line class="st3" x1="129.9" y1="267.2" x2="125.97" y2="273.25"/>
		<line class="st3" x1="133.82" y1="257.79" x2="129.9" y2="267.2"/>
		<line class="st3" x1="137.74" y1="257.81" x2="133.82" y2="257.79"/>
		<line class="st3" x1="141.66" y1="260.93" x2="137.74" y2="257.81"/>
		<line class="st3" x1="145.58" y1="259.47" x2="141.66" y2="260.93"/>
		<line class="st3" x1="149.5" y1="257.35" x2="145.58" y2="259.47"/>
		<line class="st3" x1="153.42" y1="254.69" x2="149.5" y2="257.35"/>
		<line class="st3" x1="157.35" y1="255.94" x2="153.42" y2="254.69"/>
		<line class="st3" x1="161.27" y1="256.32" x2="157.35" y2="255.94"/>
		<line class="st3" x1="165.19" y1="258.55" x2="161.27" y2="256.32"/>
		<line class="st3" x1="169.11" y1="257.09" x2="165.19" y2="258.55"/>
		<line class="st3" x1="173.03" y1="257.4" x2="169.11" y2="257.09"/>
		<line class="st3" x1="176.95" y1="259.93" x2="173.03" y2="257.4"/>
		<line class="st3" x1="180.87" y1="276.13" x2="176.95" y2="259.93"/>
		<line class="st3" x1="184.79" y1="292.25" x2="180.87" y2="276.13"/>
		<line class="st3" x1="188.72" y1="296.79" x2="184.79" y2="292.25"/>
		<line class="st3" x1="192.64" y1="317.11" x2="188.72" y2="296.79"/>
		<line class="st3" x1="196.56" y1="324.5" x2="192.64" y2="317.11"/>
		<line class="st3" x1="200.48" y1="304.07" x2="196.56" y2="324.5"/>
		<line class="st3" x1="204.4" y1="317.21" x2="200.48" y2="304.07"/>
		<line class="st3" x1="208.32" y1="297.41" x2="204.4" y2="317.21"/>
		<line class="st3" x1="212.24" y1="314.1" x2="208.32" y2="297.41"/>
		<line class="st3" x1="216.17" y1="322.17" x2="212.24" y2="314.1"/>
		<line class="st3" x1="220.09" y1="359.38" x2="216.17" y2="322.17"/>
		<line class="st3" x1="224.01" y1="340.96" x2="220.09" y2="359.38"/>
		<line class="st3" x1="227.93" y1="363.27" x2="224.01" y2="340.96"/>
		<line class="st3" x1="231.85" y1="405.37" x2="227.93" y2="363.27"/>
		<line class="st3" x1="235.77" y1="371.5" x2="231.85" y2="405.37"/>
		<line class="st3" x1="239.69" y1="419.59" x2="235.77" y2="371.5"/>
		<line class="st3" x1="243.62" y1="396.89" x2="239.69" y2="419.59"/>
		<line class="st3" x1="247.54" y1="420.37" x2="243.62" y2="396.89"/>
		<line class="st3" x1="251.46" y1="421.08" x2="247.54" y2="420.37"/>
		<line class="st3" x1="255.38" y1="437.43" x2="251.46" y2="421.08"/>
		<line class="st3" x1="259.3" y1="452.2" x2="255.38" y2="437.43"/>
		<line class="st3" x1="263.22" y1="420.01" x2="259.3" y2="452.2"/>
		<line class="st3" x1="267.14" y1="412.6" x2="263.22" y2="420.01"/>
		<line class="st3" x1="271.07" y1="388.09" x2="267.14" y2="412.6"/>
		<line class="st3" x1="274.99" y1="399.97" x2="271.07" y2="388.09"/>
		<line class="st3" x1="278.91" y1="388.7" x2="274.99" y2="399.97"/>
		<line class="st3" x1="282.83" y1="395.81" x2="278.91" y2="388.7"/>
		<line class="st3" x1="286.75" y1="413.51" x2="282.83" y2="395.81"/>
		<line class="st3" x1="290.67" y1="404.46" x2="286.75" y2="413.51"/>
		<line class="st3" x1="294.59" y1="410.46" x2="290.67" y2="404.46"/>
		<line class="st3" x1="298.52" y1="386.19" x2="294.59" y2="410.46"/>
		<line class="st3" x1="302.44" y1="385.34" x2="298.52" y2="386.19"/>
		<line class="st3" x1="306.36" y1="369.25" x2="302.44" y2="385.34"/>
		<line class="st3" x1="310.28" y1="360.28" x2="306.36" y2="369.25"/>
		<line class="st3" x1="314.2" y1="368.41" x2="310.28" y2="360.28"/>
		<line class="st3" x1="318.12" y1="359.34" x2="314.2" y2="368.41"/>
		<line class="st3" x1="322.04" y1="371.6" x2="318.12" y2="359.34"/>
		<line class="st3" x1="325.96" y1="371.9" x2="322.04" y2="371.6"/>
		<line class="st3" x1="329.89" y1="356.81" x2="325.96" y2="371.9"/>
		<line class="st3" x1="333.81" y1="365.64" x2="329.89" y2="356.81"/>
		<line class="st3" x1="337.73" y1="377.1" x2="333.81" y2="365.64"/>
		<line class="st3" x1="341.65" y1="370.69" x2="337.73" y2="377.1"/>
		<line class="st3" x1="345.57" y1="370.49" x2="341.65" y2="370.69"/>
		<line class="st3" x1="349.49" y1="365.16" x2="345.57" y2="370.49"/>
		<line class="st3" x1="353.41" y1="356.27" x2="349.49" y2="365.16"/>
		<line class="st3" x1="357.34" y1="354.65" x2="353.41" y2="356.27"/>
		<line class="st3" x1="361.26" y1="346.23" x2="357.34" y2="354.65"/>
		<line class="st3" x1="365.18" y1="354.96" x2="361.26" y2="346.23"/>
		<line class="st3" x1="369.1" y1="367.47" x2="365.18" y2="354.96"/>
		<line class="st3" x1="373.02" y1="367.72" x2="369.1" y2="367.47"/>
		<line class="st3" x1="376.94" y1="365.4" x2="373.02" y2="367.72"/>
		<line class="st3" x1="380.86" y1="372.09" x2="376.94" y2="365.4"/>
		<line class="st3" x1="384.79" y1="368.42" x2="380.86" y2="372.09"/>
		<line class="st3" x1="388.71" y1="359.23" x2="384.79" y2="368.42"/>
		<line class="st3" x1="392.63" y1="362.15" x2="388.71" y2="359.23"/>
		<line class="st3" x1="396.55" y1="370.83" x2="392.63" y2="362.15"/>
		<line class="st3" x1="400.47" y1="380.33" x2="396.55" y2="370.83"/>
		<line class="st3" x1="404.39" y1="374.66" x2="400.47" y2="380.33"/>
		<line class="st3" x1="408.31" y1="374.66" x2="404.39" y2="374.66"/>
		<line class="st3" x1="412.24" y1="357.97" x2="408.31" y2="374.66"/>
		<line class="st3" x1="416.16" y1="365.05" x2="412.24" y2="357.97"/>
		<line class="st3" x1="420.08" y1="358.91" x2="416.16" y2="365.05"/>
		<line class="st3" x1="424" y1="361.64" x2="420.08" y2="358.91"/>
		<line class="st3" x1="427.92" y1="361.54" x2="424" y2="361.64"/>
		<line class="st3" x1="431.84" y1="350.93" x2="427.92" y2="361.54"/>
		<line class="st3" x1="435.76" y1="340.84" x2="431.84" y2="350.93"/>
		<line class="st3" x1="439.69" y1="343" x2="435.76" y2="340.84"/>
		<line class="st3" x1="443.61" y1="342.75" x2="439.69" y2="343"/>
		<line class="st3" x1="447.53" y1="341.54" x2="443.61" y2="342.75"/>
		<line class="st3" x1="451.45" y1="337.12" x2="447.53" y2="341.54"/>
		<line class="st3" x1="455.37" y1="328.29" x2="451.45" y2="337.12"/>
		<line class="st3" x1="459.29" y1="326.57" x2="455.37" y2="328.29"/>
		<line class="st3" x1="463.21" y1="312.7" x2="459.29" y2="326.57"/>
		<line class="st3" x1="467.13" y1="303.85" x2="463.21" y2="312.7"/>
		<line class="st3" x1="471.06" y1="313.25" x2="467.13" y2="303.85"/>
		<line class="st3" x1="474.98" y1="322.79" x2="471.06" y2="313.25"/>
		<line class="st3" x1="478.9" y1="353.34" x2="474.98" y2="322.79"/>
		<line class="st3" x1="482.82" y1="346.2" x2="478.9" y2="353.34"/>
		<line class="st3" x1="486.74" y1="342.98" x2="482.82" y2="346.2"/>
		<line class="st3" x1="490.66" y1="335.09" x2="486.74" y2="342.98"/>
		<line class="st3" x1="494.58" y1="339.49" x2="490.66" y2="335.09"/>
		<line class="st3" x1="498.51" y1="339.67" x2="494.58" y2="339.49"/>
		<line class="st3" x1="502.43" y1="343.34" x2="498.51" y2="339.67"/>
		<line class="st3" x1="506.35" y1="343.7" x2="502.43" y2="343.34"/>
		<line class="st3" x1="510.27" y1="343.04" x2="506.35" y2="343.7"/>
		<line class="st3" x1="514.19" y1="355.65" x2="510.27" y2="343.04"/>
		<line class="st3" x1="518.11" y1="350.78" x2="514.19" y2="355.65"/>
		<line class="st3" x1="522.03" y1="360.42" x2="518.11" y2="350.78"/>
		<line class="st3" x1="525.96" y1="353.2" x2="522.03" y2="360.42"/>
		<line class="st3" x1="529.88" y1="347.93" x2="525.96" y2="353.2"/>
		<line class="st3" x1="533.8" y1="348.5" x2="529.88" y2="347.93"/>
		<line class="st3" x1="537.72" y1="346.62" x2="533.8" y2="348.5"/>
		<line class="st3" x1="541.64" y1="342.38" x2="537.72" y2="346.62"/>
		<line class="st3" x1="545.56" y1="348.22" x2="541.64" y2="342.38"/>
		<line class="st3" x1="549.48" y1="347.41" x2="545.56" y2="348.22"/>
		<line class="st3" x1="553.41" y1="354.66" x2="549.48" y2="347.41"/>
		<line class="st3" x1="557.33" y1="346.82" x2="553.41" y2="354.66"/>
		<line class="st3" x1="561.25" y1="346.32" x2="557.33" y2="346.82"/>
		<line class="st3" x1="565.17" y1="339.56" x2="561.25" y2="346.32"/>
		<line class="st3" x1="569.09" y1="333.51" x2="565.17" y2="339.56"/>
		<line class="st3" x1="573.01" y1="333.43" x2="569.09" y2="333.51"/>
		<line class="st3" x1="576.93" y1="332.19" x2="573.01" y2="333.43"/>
		<line class="st3" x1="580.86" y1="335.55" x2="576.93" y2="332.19"/>
		<line class="st3" x1="584.78" y1="330.16" x2="580.86" y2="335.55"/>
		<line class="st3" x1="588.7" y1="327.84" x2="584.78" y2="330.16"/>
		<line class="st3" x1="592.62" y1="328.08" x2="588.7" y2="327.84"/>
		<line class="st3" x1="596.54" y1="331.42" x2="592.62" y2="328.08"/>
		<line class="st3" x1="600.46" y1="331.19" x2="596.54" y2="331.42"/>
		<line class="st3" x1="604.38" y1="331.79" x2="600.46" y2="331.19"/>
		<line class="st3" x1="608.3" y1="326.6" x2="604.38" y2="331.79"/>
		<line class="st3" x1="612.23" y1="331.63" x2="608.3" y2="326.6"/>
		<line class="st3" x1="616.15" y1="332.92" x2="612.23" y2="331.63"/>
		<line class="st3" x1="620.07" y1="331.61" x2="616.15" y2="332.92"/>
		<line class="st3" x1="623.99" y1="329.31" x2="620.07" y2="331.61"/>
		<line class="st3" x1="627.91" y1="326.66" x2="623.99" y2="329.31"/>
		<line class="st3" x1="631.83" y1="326.77" x2="627.91" y2="326.66"/>
		<line class="st3" x1="635.75" y1="321.58" x2="631.83" y2="326.77"/>
		<line class="st3" x1="639.68" y1="317.13" x2="635.75" y2="321.58"/>
		<line class="st3" x1="643.6" y1="318.17" x2="639.68" y2="317.13"/>
		<line class="st3" x1="647.52" y1="315.03" x2="643.6" y2="318.17"/>
		<line class="st3" x1="651.44" y1="318.71" x2="647.52" y2="315.03"/>
		<line class="st3" x1="655.36" y1="317.8" x2="651.44" y2="318.71"/>
		<line class="st3" x1="659.28" y1="319.01" x2="655.36" y2="317.8"/>
		<line class="st3" x1="663.2" y1="320.81" x2="659.28" y2="319.01"/>
		<line class="st3" x1="667.13" y1="322.84" x2="663.2" y2="320.81"/>
		<line class="st3" x1="671.05" y1="325.3" x2="667.13" y2="322.84"/>
		<line class="st3" x1="674.97" y1="325.38" x2="671.05" y2="325.3"/>
		<line class="st3" x1="678.89" y1="319.26" x2="674.97" y2="325.38"/>
		<line class="st3" x1="682.81" y1="319.7" x2="678.89" y2="319.26"/>
		<line class="st3" x1="686.73" y1="320.99" x2="682.81" y2="319.7"/>
		<line class="st3" x1="690.65" y1="317.72" x2="686.73" y2="320.99"/>
		<line class="st3" x1="694.58" y1="314.4" x2="690.65" y2="317.72"/>
		<line class="st3" x1="698.5" y1="317.93" x2="694.58" y2="314.4"/>
		<line class="st3" x1="702.42" y1="318.31" x2="698.5" y2="317.93"/>
		<line class="st3" x1="706.34" y1="310.03" x2="702.42" y2="318.31"/>
		<line class="st3" x1="710.26" y1="319.15" x2="706.34" y2="310.03"/>
		<line class="st3" x1="714.18" y1="319.42" x2="710.26" y2="319.15"/>
		<line class="st3" x1="718.1" y1="327.97" x2="714.18" y2="319.42"/>
		<line class="st3" x1="722.03" y1="322.8" x2="718.1" y2="327.97"/>
		<line class="st3" x1="725.95" y1="329.58" x2="722.03" y2="322.8"/>
		<line class="st3" x1="729.87" y1="327.13" x2="725.95" y2="329.58"/>
		<line class="st3" x1="733.79" y1="321.4" x2="729.87" y2="327.13"/>
		<line class="st3" x1="737.71" y1="322.2" x2="733.79" y2="321.4"/>
		<line class="st3" x1="741.63" y1="319.35" x2="737.71" y2="322.2"/>
		<line class="st3" x1="745.55" y1="321.46" x2="741.63" y2="319.35"/>
		<line class="st3" x1="749.48" y1="324.99" x2="745.55" y2="321.46"/>
		<line class="st3" x1="753.4" y1="335.25" x2="749.48" y2="324.99"/>
		<line class="st3" x1="757.32" y1="334.91" x2="753.4" y2="335.25"/>
		<line class="st3" x1="761.24" y1="343.35" x2="757.32" y2="334.91"/>
		<line class="st3" x1="765.16" y1="342.86" x2="761.24" y2="343.35"/>
		<line class="st3" x1="769.08" y1="337.91" x2="765.16" y2="342.86"/>
		<line class="st3" x1="773" y1="331.12" x2="769.08" y2="337.91"/>
		<line class="st3" x1="776.92" y1="334.5" x2="773" y2="331.12"/>
		<line class="st3" x1="780.85" y1="330.07" x2="776.92" y2="334.5"/>
		<line class="st3" x1="784.77" y1="330.28" x2="780.85" y2="330.07"/>
		<line class="st3" x1="788.69" y1="329.33" x2="784.77" y2="330.28"/>
		<line class="st3" x1="792.61" y1="322.33" x2="788.69" y2="329.33"/>
		<line class="st3" x1="796.53" y1="326.66" x2="792.61" y2="322.33"/>
		<line class="st3" x1="800.45" y1="319.21" x2="796.53" y2="326.66"/>
		<line class="st3" x1="804.37" y1="313.87" x2="800.45" y2="319.21"/>
		<line class="st3" x1="808.3" y1="312.94" x2="804.37" y2="313.87"/>
		<line class="st3" x1="812.22" y1="309.58" x2="808.3" y2="312.94"/>
		<line class="st3" x1="816.14" y1="314.29" x2="812.22" y2="309.58"/>
		<line class="st3" x1="820.06" y1="316.99" x2="816.14" y2="314.29"/>
		<line class="st3" x1="823.98" y1="315.72" x2="820.06" y2="316.99"/>
		<line class="st3" x1="827.9" y1="314.29" x2="823.98" y2="315.72"/>
		<line class="st3" x1="831.82" y1="320.81" x2="827.9" y2="314.29"/>
		<line class="st3" x1="835.75" y1="318.83" x2="831.82" y2="320.81"/>
		<line class="st3" x1="839.67" y1="320.38" x2="835.75" y2="318.83"/>
		<line class="st3" x1="843.59" y1="314.48" x2="839.67" y2="320.38"/>
		<line class="st3" x1="847.51" y1="313.53" x2="843.59" y2="314.48"/>
		<line class="st3" x1="851.43" y1="322.61" x2="847.51" y2="313.53"/>
		<line class="st3" x1="855.35" y1="328.36" x2="851.43" y2="322.61"/>
		<line class="st3" x1="859.27" y1="342" x2="855.35" y2="328.36"/>
		<line class="st3" x1="863.2" y1="339.44" x2="859.27" y2="342"/>
		<line class="st3" x1="867.12" y1="340.01" x2="863.2" y2="339.44"/>
		<line class="st3" x1="871.04" y1="331.25" x2="867.12" y2="340.01"/>
		<line class="st3" x1="874.96" y1="323.14" x2="871.04" y2="331.25"/>
		<line class="st3" x1="878.88" y1="321.88" x2="874.96" y2="323.14"/>
		<line class="st3" x1="882.8" y1="315.22" x2="878.88" y2="321.88"/>
		<line class="st3" x1="886.72" y1="316.55" x2="882.8" y2="315.22"/>
		<line class="st3" x1="890.65" y1="297.92" x2="886.72" y2="316.55"/>
		<line class="st3" x1="894.57" y1="291.51" x2="890.65" y2="297.92"/>
		<line class="st3" x1="898.49" y1="293" x2="894.57" y2="291.51"/>
		<line class="st3" x1="902.41" y1="299.24" x2="898.49" y2="293"/>
		<line class="st3" x1="906.33" y1="290.19" x2="902.41" y2="299.24"/>
		<line class="st3" x1="910.25" y1="281.81" x2="906.33" y2="290.19"/>
		<line class="st3" x1="914.17" y1="284.43" x2="910.25" y2="281.81"/>
		<line class="st3" x1="918.09" y1="290.68" x2="914.17" y2="284.43"/>
		<line class="st3" x1="922.02" y1="289.91" x2="918.09" y2="290.68"/>
		<line class="st3" x1="925.94" y1="292.34" x2="922.02" y2="289.91"/>
		<line class="st3" x1="929.86" y1="285.96" x2="925.94" y2="292.34"/>
		<line class="st3" x1="933.78" y1="275.3" x2="929.86" y2="285.96"/>
		<line class="st3" x1="937.7" y1="278.46" x2="933.78" y2="275.3"/>
	</g>
</g>
<g>
	<g>
		<line class="st4" x1="47.55" y1="262.1" x2="43.62" y2="258.33"/>
		<line class="st4" x1="51.47" y1="259.4" x2="47.55" y2="262.1"/>
		<line class="st4" x1="55.39" y1="260.28" x2="51.47" y2="259.4"/>
		<line class="st4" x1="59.31" y1="256.8" x2="55.39" y2="260.28"/>
		<line class="st4" x1="63.23" y1="251.97" x2="59.31" y2="256.8"/>
		<line class="st4" x1="67.15" y1="253.15" x2="63.23" y2="251.97"/>
		<line class="st4" x1="71.07" y1="247.96" x2="67.15" y2="253.15"/>
		<line class="st4" x1="75" y1="249.91" x2="71.07" y2="247.96"/>
		<line class="st4" x1="78.92" y1="248.59" x2="75" y2="249.91"/>
		<line class="st4" x1="82.84" y1="243.57" x2="78.92" y2="248.59"/>
		<line class="st4" x1="86.76" y1="240.54" x2="82.84" y2="243.57"/>
		<line class="st4" x1="90.68" y1="241.18" x2="86.76" y2="240.54"/>
		<line class="st4" x1="94.6" y1="241" x2="90.68" y2="241.18"/>
		<line class="st4" x1="98.52" y1="239.95" x2="94.6" y2="241"/>
		<line class="st4" x1="102.45" y1="244.52" x2="98.52" y2="239.95"/>
		<line class="st4" x1="106.37" y1="253.96" x2="102.45" y2="244.52"/>
		<line class="st4" x1="110.29" y1="246.84" x2="106.37" y2="253.96"/>
		<line class="st4" x1="114.21" y1="245.64" x2="110.29" y2="246.84"/>
		<line class="st4" x1="118.13" y1="244.02" x2="114.21" y2="245.64"/>
		<line class="st4" x1="122.05" y1="253.65" x2="118.13" y2="244.02"/>
		<line class="st4" x1="125.97" y1="247.92" x2="122.05" y2="253.65"/>
		<line class="st4" x1="129.9" y1="238.44" x2="125.97" y2="247.92"/>
		<line class="st4" x1="133.82" y1="235.45" x2="129.9" y2="238.44"/>
		<line class="st4" x1="137.74" y1="232.06" x2="133.82" y2="235.45"/>
		<line class="st4" x1="141.66" y1="234.81" x2="137.74" y2="232.06"/>
		<line class="st4" x1="145.58" y1="228.68" x2="141.66" y2="234.81"/>
		<line class="st4" x1="149.5" y1="228.83" x2="145.58" y2="228.68"/>
		<line class="st4" x1="153.42" y1="224.58" x2="149.5" y2="228.83"/>
		<line class="st4" x1="157.35" y1="225.16" x2="153.42" y2="224.58"/>
		<line class="st4" x1="161.27" y1="222.93" x2="157.35" y2="225.16"/>
		<line class="st4" x1="165.19" y1="223.96" x2="161.27" y2="222.93"/>
		<line class="st4" x1="169.11" y1="220.43" x2="165.19" y2="223.96"/>
		<line class="st4" x1="173.03" y1="224.08" x2="169.11" y2="220.43"/>
		<line class="st4" x1="176.95" y1="232.64" x2="173.03" y2="224.08"/>
		<line class="st4" x1="180.87" y1="252.37" x2="176.95" y2="232.64"/>
		<line class="st4" x1="184.79" y1="267.87" x2="180.87" y2="252.37"/>
		<line class="st4" x1="188.72" y1="267.47" x2="184.79" y2="267.87"/>
		<line class="st4" x1="192.64" y1="291.41" x2="188.72" y2="267.47"/>
		<line class="st4" x1="196.56" y1="292.36" x2="192.64" y2="291.41"/>
		<line class="st4" x1="200.48" y1="269.01" x2="196.56" y2="292.36"/>
		<line class="st4" x1="204.4" y1="283.84" x2="200.48" y2="269.01"/>
		<line class="st4" x1="208.32" y1="262.75" x2="204.4" y2="283.84"/>
		<line class="st4" x1="212.24" y1="280.33" x2="208.32" y2="262.75"/>
		<line class="st4" x1="216.17" y1="288.9" x2="212.24" y2="280.33"/>
		<line class="st4" x1="220.09" y1="324.77" x2="216.17" y2="288.9"/>
		<line class="st4" x1="224.01" y1="299.75" x2="220.09" y2="324.77"/>
		<line class="st4" x1="227.93" y1="322.91" x2="224.01" y2="299.75"/>
		<line class="st4" x1="231.85" y1="365.09" x2="227.93" y2="322.91"/>
		<line class="st4" x1="235.77" y1="324.89" x2="231.85" y2="365.09"/>
		<line class="st4" x1="239.69" y1="381.3" x2="235.77" y2="324.89"/>
		<line class="st4" x1="243.62" y1="357.81" x2="239.69" y2="381.3"/>
		<line class="st4" x1="247.54" y1="376.98" x2="243.62" y2="357.81"/>
		<line class="st4" x1="251.46" y1="372.92" x2="247.54" y2="376.98"/>
		<line class="st4" x1="255.38" y1="390.27" x2="251.46" y2="372.92"/>
		<line class="st4" x1="259.3" y1="397.79" x2="255.38" y2="390.27"/>
		<line class="st4" x1="263.22" y1="362.33" x2="259.3" y2="397.79"/>
		<line class="st4" x1="267.14" y1="360.27" x2="263.22" y2="362.33"/>
		<line class="st4" x1="271.07" y1="334.89" x2="267.14" y2="360.27"/>
		<line class="st4" x1="274.99" y1="351.36" x2="271.07" y2="334.89"/>
		<line class="st4" x1="278.91" y1="335.39" x2="274.99" y2="351.36"/>
		<line class="st4" x1="282.83" y1="341.92" x2="278.91" y2="335.39"/>
		<line class="st4" x1="286.75" y1="361.01" x2="282.83" y2="341.92"/>
		<line class="st4" x1="290.67" y1="351.83" x2="286.75" y2="361.01"/>
		<line class="st4" x1="294.59" y1="358.17" x2="290.67" y2="351.83"/>
		<line class="st4" x1="298.52" y1="326.34" x2="294.59" y2="358.17"/>
		<line class="st4" x1="302.44" y1="328.39" x2="298.52" y2="326.34"/>
		<line class="st4" x1="306.36" y1="315.04" x2="302.44" y2="328.39"/>
		<line class="st4" x1="310.28" y1="310.83" x2="306.36" y2="315.04"/>
		<line class="st4" x1="314.2" y1="312.23" x2="310.28" y2="310.83"/>
		<line class="st4" x1="318.12" y1="294.55" x2="314.2" y2="312.23"/>
		<line class="st4" x1="322.04" y1="302.8" x2="318.12" y2="294.55"/>
		<line class="st4" x1="325.96" y1="297.62" x2="322.04" y2="302.8"/>
		<line class="st4" x1="329.89" y1="288.11" x2="325.96" y2="297.62"/>
		<line class="st4" x1="333.81" y1="295.96" x2="329.89" y2="288.11"/>
		<line class="st4" x1="337.73" y1="312.19" x2="333.81" y2="295.96"/>
		<line class="st4" x1="341.65" y1="298.76" x2="337.73" y2="312.19"/>
		<line class="st4" x1="345.57" y1="299.4" x2="341.65" y2="298.76"/>
		<line class="st4" x1="349.49" y1="292.25" x2="345.57" y2="299.4"/>
		<line class="st4" x1="353.41" y1="287.4" x2="349.49" y2="292.25"/>
		<line class="st4" x1="357.34" y1="293.42" x2="353.41" y2="287.4"/>
		<line class="st4" x1="361.26" y1="277.69" x2="357.34" y2="293.42"/>
		<line class="st4" x1="365.18" y1="278.22" x2="361.26" y2="277.69"/>
		<line class="st4" x1="369.1" y1="292.05" x2="365.18" y2="278.22"/>
		<line class="st4" x1="373.02" y1="288.17" x2="369.1" y2="292.05"/>
		<line class="st4" x1="376.94" y1="282.4" x2="373.02" y2="288.17"/>
		<line class="st4" x1="380.86" y1="282.59" x2="376.94" y2="282.4"/>
		<line class="st4" x1="384.79" y1="275.86" x2="380.86" y2="282.59"/>
		<line class="st4" x1="388.71" y1="269.18" x2="384.79" y2="275.86"/>
		<line class="st4" x1="392.63" y1="266.44" x2="388.71" y2="269.18"/>
		<line class="st4" x1="396.55" y1="277.1" x2="392.63" y2="266.44"/>
		<line class="st4" x1="400.47" y1="283.98" x2="396.55" y2="277.1"/>
		<line class="st4" x1="404.39" y1="279.09" x2="400.47" y2="283.98"/>
		<line class="st4" x1="408.31" y1="275.7" x2="404.39" y2="279.09"/>
		<line class="st4" x1="412.24" y1="262.95" x2="408.31" y2="275.7"/>
		<line class="st4" x1="416.16" y1="266.15" x2="412.24" y2="262.95"/>
		<line class="st4" x1="420.08" y1="256.76" x2="416.16" y2="266.15"/>
		<line class="st4" x1="424" y1="261.38" x2="420.08" y2="256.76"/>
		<line class="st4" x1="427.92" y1="259.37" x2="424" y2="261.38"/>
		<line class="st4" x1="431.84" y1="257.63" x2="427.92" y2="259.37"/>
		<line class="st4" x1="435.76" y1="252.99" x2="431.84" y2="257.63"/>
		<line class="st4" x1="439.69" y1="253.05" x2="435.76" y2="252.99"/>
		<line class="st4" x1="443.61" y1="248.86" x2="439.69" y2="253.05"/>
		<line class="st4" x1="447.53" y1="246.45" x2="443.61" y2="248.86"/>
		<line class="st4" x1="451.45" y1="242.71" x2="447.53" y2="246.45"/>
		<line class="st4" x1="455.37" y1="237.68" x2="451.45" y2="242.71"/>
		<line class="st4" x1="459.29" y1="242.37" x2="455.37" y2="237.68"/>
		<line class="st4" x1="463.21" y1="229.77" x2="459.29" y2="242.37"/>
		<line class="st4" x1="467.13" y1="225.84" x2="463.21" y2="229.77"/>
		<line class="st4" x1="471.06" y1="225.28" x2="467.13" y2="225.84"/>
		<line class="st4" x1="474.98" y1="222.11" x2="471.06" y2="225.28"/>
		<line class="st4" x1="478.9" y1="252.39" x2="474.98" y2="222.11"/>
		<line class="st4" x1="482.82" y1="246.75" x2="478.9" y2="252.39"/>
		<line class="st4" x1="486.74" y1="241.91" x2="482.82" y2="246.75"/>
		<line class="st4" x1="490.66" y1="231.18" x2="486.74" y2="241.91"/>
		<line class="st4" x1="494.58" y1="230.75" x2="490.66" y2="231.18"/>
		<line class="st4" x1="498.51" y1="230.03" x2="494.58" y2="230.75"/>
		<line class="st4" x1="502.43" y1="232.16" x2="498.51" y2="230.03"/>
		<line class="st4" x1="506.35" y1="225.76" x2="502.43" y2="232.16"/>
		<line class="st4" x1="510.27" y1="222.27" x2="506.35" y2="225.76"/>
		<line class="st4" x1="514.19" y1="235.79" x2="510.27" y2="222.27"/>
		<line class="st4" x1="518.11" y1="229.92" x2="514.19" y2="235.79"/>
		<line class="st4" x1="522.03" y1="244.12" x2="518.11" y2="229.92"/>
		<line class="st4" x1="525.96" y1="237.05" x2="522.03" y2="244.12"/>
		<line class="st4" x1="529.88" y1="227.4" x2="525.96" y2="237.05"/>
		<line class="st4" x1="533.8" y1="222.18" x2="529.88" y2="227.4"/>
		<line class="st4" x1="537.72" y1="219.53" x2="533.8" y2="222.18"/>
		<line class="st4" x1="541.64" y1="208.18" x2="537.72" y2="219.53"/>
		<line class="st4" x1="545.56" y1="213.51" x2="541.64" y2="208.18"/>
		<line class="st4" x1="549.48" y1="206.75" x2="545.56" y2="213.51"/>
		<line class="st4" x1="553.41" y1="205.85" x2="549.48" y2="206.75"/>
		<line class="st4" x1="557.33" y1="202.7" x2="553.41" y2="205.85"/>
		<line class="st4" x1="561.25" y1="212.16" x2="557.33" y2="202.7"/>
		<line class="st4" x1="565.17" y1="205.25" x2="561.25" y2="212.16"/>
		<line class="st4" x1="569.09" y1="201.74" x2="565.17" y2="205.25"/>
		<line class="st4" x1="573.01" y1="205.14" x2="569.09" y2="201.74"/>
		<line class="st4" x1="576.93" y1="203.44" x2="573.01" y2="205.14"/>
		<line class="st4" x1="580.86" y1="192.3" x2="576.93" y2="203.44"/>
		<line class="st4" x1="584.78" y1="195.35" x2="580.86" y2="192.3"/>
		<line class="st4" x1="588.7" y1="191.71" x2="584.78" y2="195.35"/>
		<line class="st4" x1="592.62" y1="203.73" x2="588.7" y2="191.71"/>
		<line class="st4" x1="596.54" y1="206.87" x2="592.62" y2="203.73"/>
		<line class="st4" x1="600.46" y1="199.87" x2="596.54" y2="206.87"/>
		<line class="st4" x1="604.38" y1="205.7" x2="600.46" y2="199.87"/>
		<line class="st4" x1="608.3" y1="198.12" x2="604.38" y2="205.7"/>
		<line class="st4" x1="612.23" y1="197.42" x2="608.3" y2="198.12"/>
		<line class="st4" x1="616.15" y1="188.76" x2="612.23" y2="197.42"/>
		<line class="st4" x1="620.07" y1="182.79" x2="616.15" y2="188.76"/>
		<line class="st4" x1="623.99" y1="181.19" x2="620.07" y2="182.79"/>
		<line class="st4" x1="627.91" y1="177.07" x2="623.99" y2="181.19"/>
		<line class="st4" x1="631.83" y1="170.49" x2="627.91" y2="177.07"/>
		<line class="st4" x1="635.75" y1="174.38" x2="631.83" y2="170.49"/>
		<line class="st4" x1="639.68" y1="175.48" x2="635.75" y2="174.38"/>
		<line class="st4" x1="643.6" y1="182.68" x2="639.68" y2="175.48"/>
		<line class="st4" x1="647.52" y1="171.3" x2="643.6" y2="182.68"/>
		<line class="st4" x1="651.44" y1="170.18" x2="647.52" y2="171.3"/>
		<line class="st4" x1="655.36" y1="171.15" x2="651.44" y2="170.18"/>
		<line class="st4" x1="659.28" y1="167.33" x2="655.36" y2="171.15"/>
		<line class="st4" x1="663.2" y1="163.39" x2="659.28" y2="167.33"/>
		<line class="st4" x1="667.13" y1="166.15" x2="663.2" y2="163.39"/>
		<line class="st4" x1="671.05" y1="160.76" x2="667.13" y2="166.15"/>
		<line class="st4" x1="674.97" y1="157.17" x2="671.05" y2="160.76"/>
		<line class="st4" x1="678.89" y1="152.18" x2="674.97" y2="157.17"/>
		<line class="st4" x1="682.81" y1="148.06" x2="678.89" y2="152.18"/>
		<line class="st4" x1="686.73" y1="136.3" x2="682.81" y2="148.06"/>
		<line class="st4" x1="690.65" y1="137.39" x2="686.73" y2="136.3"/>
		<line class="st4" x1="694.58" y1="133.18" x2="690.65" y2="137.39"/>
		<line class="st4" x1="698.5" y1="132.44" x2="694.58" y2="133.18"/>
		<line class="st4" x1="702.42" y1="124.12" x2="698.5" y2="132.44"/>
		<line class="st4" x1="706.34" y1="114.94" x2="702.42" y2="124.12"/>
		<line class="st4" x1="710.26" y1="145.08" x2="706.34" y2="114.94"/>
		<line class="st4" x1="714.18" y1="153.34" x2="710.26" y2="145.08"/>
		<line class="st4" x1="718.1" y1="174.69" x2="714.18" y2="153.34"/>
		<line class="st4" x1="722.03" y1="158.88" x2="718.1" y2="174.69"/>
		<line class="st4" x1="725.95" y1="171.06" x2="722.03" y2="158.88"/>
		<line class="st4" x1="729.87" y1="172.66" x2="725.95" y2="171.06"/>
		<line class="st4" x1="733.79" y1="164.76" x2="729.87" y2="172.66"/>
		<line class="st4" x1="737.71" y1="158.72" x2="733.79" y2="164.76"/>
		<line class="st4" x1="741.63" y1="165.96" x2="737.71" y2="158.72"/>
		<line class="st4" x1="745.55" y1="172.75" x2="741.63" y2="165.96"/>
		<line class="st4" x1="749.48" y1="181.04" x2="745.55" y2="172.75"/>
		<line class="st4" x1="753.4" y1="183.72" x2="749.48" y2="181.04"/>
		<line class="st4" x1="757.32" y1="173.58" x2="753.4" y2="183.72"/>
		<line class="st4" x1="761.24" y1="190.02" x2="757.32" y2="173.58"/>
		<line class="st4" x1="765.16" y1="187.52" x2="761.24" y2="190.02"/>
		<line class="st4" x1="769.08" y1="176.14" x2="765.16" y2="187.52"/>
		<line class="st4" x1="773" y1="165.97" x2="769.08" y2="176.14"/>
		<line class="st4" x1="776.92" y1="167.91" x2="773" y2="165.97"/>
		<line class="st4" x1="780.85" y1="163.44" x2="776.92" y2="167.91"/>
		<line class="st4" x1="784.77" y1="157.87" x2="780.85" y2="163.44"/>
		<line class="st4" x1="788.69" y1="168.49" x2="784.77" y2="157.87"/>
		<line class="st4" x1="792.61" y1="156.37" x2="788.69" y2="168.49"/>
		<line class="st4" x1="796.53" y1="167.03" x2="792.61" y2="156.37"/>
		<line class="st4" x1="800.45" y1="155.82" x2="796.53" y2="167.03"/>
		<line class="st4" x1="804.37" y1="152.18" x2="800.45" y2="155.82"/>
		<line class="st4" x1="808.3" y1="143.82" x2="804.37" y2="152.18"/>
		<line class="st4" x1="812.22" y1="129.48" x2="808.3" y2="143.82"/>
		<line class="st4" x1="816.14" y1="132.12" x2="812.22" y2="129.48"/>
		<line class="st4" x1="820.06" y1="136.81" x2="816.14" y2="132.12"/>
		<line class="st4" x1="823.98" y1="139.53" x2="820.06" y2="136.81"/>
		<line class="st4" x1="827.9" y1="140.63" x2="823.98" y2="139.53"/>
		<line class="st4" x1="831.82" y1="152.16" x2="827.9" y2="140.63"/>
		<line class="st4" x1="835.75" y1="148.99" x2="831.82" y2="152.16"/>
		<line class="st4" x1="839.67" y1="149.93" x2="835.75" y2="148.99"/>
		<line class="st4" x1="843.59" y1="149.63" x2="839.67" y2="149.93"/>
		<line class="st4" x1="847.51" y1="146.86" x2="843.59" y2="149.63"/>
		<line class="st4" x1="851.43" y1="158.45" x2="847.51" y2="146.86"/>
		<line class="st4" x1="855.35" y1="156.55" x2="851.43" y2="158.45"/>
		<line class="st4" x1="859.27" y1="180.88" x2="855.35" y2="156.55"/>
		<line class="st4" x1="863.2" y1="171.28" x2="859.27" y2="180.88"/>
		<line class="st4" x1="867.12" y1="182.94" x2="863.2" y2="171.28"/>
		<line class="st4" x1="871.04" y1="178.38" x2="867.12" y2="182.94"/>
		<line class="st4" x1="874.96" y1="167.61" x2="871.04" y2="178.38"/>
		<line class="st4" x1="878.88" y1="146.24" x2="874.96" y2="167.61"/>
		<line class="st4" x1="882.8" y1="131.76" x2="878.88" y2="146.24"/>
		<line class="st4" x1="886.72" y1="130.9" x2="882.8" y2="131.76"/>
		<line class="st4" x1="890.65" y1="134.7" x2="886.72" y2="130.9"/>
		<line class="st4" x1="894.57" y1="141.78" x2="890.65" y2="134.7"/>
		<line class="st4" x1="898.49" y1="132.28" x2="894.57" y2="141.78"/>
		<line class="st4" x1="902.41" y1="137.63" x2="898.49" y2="132.28"/>
		<line class="st4" x1="906.33" y1="130.95" x2="902.41" y2="137.63"/>
		<line class="st4" x1="910.25" y1="125.61" x2="906.33" y2="130.95"/>
		<line class="st4" x1="914.17" y1="128.59" x2="910.25" y2="125.61"/>
		<line class="st4" x1="918.09" y1="135.78" x2="914.17" y2="128.59"/>
		<line class="st4" x1="922.02" y1="132.19" x2="918.09" y2="135.78"/>
		<line class="st4" x1="925.94" y1="137.43" x2="922.02" y2="132.19"/>
		<line class="st4" x1="929.86" y1="136.92" x2="925.94" y2="137.43"/>
		<line class="st4" x1="933.78" y1="128.71" x2="929.86" y2="136.92"/>
		<line class="st4" x1="937.7" y1="127.7" x2="933.78" y2="128.71"/>
	</g>
</g>
<g>
	<path d="M44.89,490.27c0,2.55-1.53,3.89-3.65,3.89c-1.69,0-2.7-0.73-3.25-1.41l1.18-1.48c0.41,0.51,1.04,0.95,1.98,0.95
		c1.08,0,1.72-0.67,1.72-2.14v-6.29h2.03V490.27z"/>
	<path d="M53.93,493.99h-1.86v-0.78c-0.46,0.57-1.14,0.96-2.11,0.96c-1.94,0-3.41-1.59-3.41-3.71s1.47-3.71,3.41-3.71
		c0.97,0,1.65,0.39,2.11,0.97v-0.78h1.86V493.99z M48.49,490.46c0,1.08,0.71,1.94,1.82,1.94c1.08,0,1.82-0.83,1.82-1.94
		c0-1.11-0.73-1.94-1.82-1.94C49.2,488.51,48.49,489.38,48.49,490.46z"/>
	<path d="M62.59,489.49v4.49h-1.9v-3.88c0-1.02-0.51-1.58-1.38-1.58c-0.82,0-1.49,0.53-1.49,1.59v3.87h-1.9v-7.05h1.85v0.83
		c0.5-0.75,1.27-1.02,2.07-1.02C61.45,486.74,62.59,487.86,62.59,489.49z"/>
	<path d="M66.96,492.75c0,0.76-0.65,1.42-1.4,1.42c-0.76,0-1.42-0.65-1.42-1.42c0-0.76,0.66-1.4,1.42-1.4
		C66.3,491.34,66.96,491.99,66.96,492.75z"/>
	<path d="M71.65,485.37c0.55-0.72,1.59-1.75,3.48-1.75c2.13,0,3.46,1.34,3.46,3.29c0,1.25-0.63,2.11-1.47,2.98l-2.18,2.26h3.89v1.84
		H72.1v-1.54l3.6-3.69c0.54-0.55,0.84-1.11,0.84-1.75c0-0.89-0.62-1.52-1.56-1.52c-0.97,0-1.54,0.52-2.07,1.12L71.65,485.37z"/>
	<path d="M88.9,488.89c0,3.3-1.97,5.28-4.4,5.28c-2.44,0-4.39-1.98-4.39-5.28s1.95-5.28,4.39-5.28
		C86.93,483.61,88.9,485.59,88.9,488.89z M82.16,488.89c0,2.23,1.04,3.39,2.34,3.39c1.31,0,2.34-1.17,2.34-3.39
		c0-2.23-1.03-3.39-2.34-3.39C83.2,485.5,82.16,486.66,82.16,488.89z"/>
	<path d="M89.92,485.37c0.55-0.72,1.59-1.75,3.48-1.75c2.13,0,3.46,1.34,3.46,3.29c0,1.25-0.63,2.11-1.47,2.98l-2.18,2.26h3.89v1.84
		h-6.73v-1.54l3.6-3.69c0.54-0.55,0.84-1.11,0.84-1.75c0-0.89-0.62-1.52-1.56-1.52c-0.97,0-1.54,0.52-2.07,1.12L89.92,485.37z"/>
	<path d="M107.16,488.89c0,3.3-1.97,5.28-4.4,5.28c-2.44,0-4.39-1.98-4.39-5.28s1.95-5.28,4.39-5.28
		C105.2,483.61,107.16,485.59,107.16,488.89z M100.42,488.89c0,2.23,1.04,3.39,2.34,3.39c1.31,0,2.34-1.17,2.34-3.39
		c0-2.23-1.03-3.39-2.34-3.39C101.46,485.5,100.42,486.66,100.42,488.89z"/>
</g>
<g>
	<path d="M130.74,489.86h-5.11v4.13h-2.03V483.8h7.48v1.87h-5.45v2.32h5.11V489.86z"/>
	<path d="M139.11,490.45c0,0.22-0.01,0.48-0.04,0.64h-5c0.2,1.02,0.92,1.46,1.81,1.46c0.61,0,1.27-0.25,1.78-0.68l1.11,1.22
		c-0.8,0.73-1.82,1.07-3.01,1.07c-2.16,0-3.66-1.47-3.66-3.69c0-2.22,1.46-3.73,3.57-3.73C137.71,486.74,139.1,488.25,139.11,490.45
		z M134.08,489.79h3.12c-0.17-0.9-0.72-1.41-1.54-1.41C134.77,488.38,134.25,488.92,134.08,489.79z"/>
	<path d="M148.04,490.46c0,2.12-1.47,3.71-3.41,3.71c-0.98,0-1.65-0.39-2.11-0.96v0.78h-1.86V483.5h1.89v4.16
		c0.46-0.55,1.12-0.92,2.07-0.92C146.57,486.74,148.04,488.34,148.04,490.46z M142.46,490.46c0,1.11,0.74,1.94,1.81,1.94
		c1.12,0,1.82-0.87,1.82-1.94s-0.7-1.94-1.82-1.94C143.19,488.51,142.46,489.34,142.46,490.46z"/>
	<path d="M151.93,492.75c0,0.76-0.65,1.42-1.4,1.42c-0.76,0-1.42-0.65-1.42-1.42c0-0.76,0.66-1.4,1.42-1.4
		C151.28,491.34,151.93,491.99,151.93,492.75z"/>
	<path d="M156.63,485.37c0.55-0.72,1.59-1.75,3.48-1.75c2.13,0,3.46,1.34,3.46,3.29c0,1.25-0.63,2.11-1.47,2.98l-2.18,2.26h3.89
		v1.84h-6.73v-1.54l3.6-3.69c0.54-0.55,0.84-1.11,0.84-1.75c0-0.89-0.62-1.52-1.56-1.52c-0.97,0-1.54,0.52-2.07,1.12L156.63,485.37z
		"/>
	<path d="M173.87,488.89c0,3.3-1.97,5.28-4.4,5.28c-2.44,0-4.39-1.98-4.39-5.28s1.95-5.28,4.39-5.28
		C171.91,483.61,173.87,485.59,173.87,488.89z M167.13,488.89c0,2.23,1.04,3.39,2.34,3.39c1.31,0,2.34-1.17,2.34-3.39
		c0-2.23-1.03-3.39-2.34-3.39C168.17,485.5,167.13,486.66,167.13,488.89z"/>
	<path d="M174.9,485.37c0.55-0.72,1.59-1.75,3.48-1.75c2.13,0,3.46,1.34,3.46,3.29c0,1.25-0.63,2.11-1.47,2.98l-2.18,2.26h3.89v1.84
		h-6.73v-1.54l3.6-3.69c0.54-0.55,0.84-1.11,0.84-1.75c0-0.89-0.62-1.52-1.56-1.52c-0.97,0-1.54,0.52-2.07,1.12L174.9,485.37z"/>
	<path d="M192.14,488.89c0,3.3-1.97,5.28-4.4,5.28c-2.44,0-4.39-1.98-4.39-5.28s1.95-5.28,4.39-5.28
		C190.17,483.61,192.14,485.59,192.14,488.89z M185.4,488.89c0,2.23,1.04,3.39,2.34,3.39c1.31,0,2.34-1.17,2.34-3.39
		c0-2.23-1.03-3.39-2.34-3.39C186.44,485.5,185.4,486.66,185.4,488.89z"/>
</g>
<g>
	<path d="M219.82,493.99h-2.03v-7.69l-2.52,6.71h-2.15l-2.52-6.65v7.63h-2.03V483.8h2.98l2.65,6.88l2.64-6.88h2.98V493.99z"/>
	<path d="M228.92,493.99h-1.86v-0.78c-0.46,0.57-1.14,0.96-2.11,0.96c-1.94,0-3.41-1.59-3.41-3.71s1.47-3.71,3.41-3.71
		c0.97,0,1.65,0.39,2.11,0.97v-0.78h1.86V493.99z M223.48,490.46c0,1.08,0.71,1.94,1.82,1.94c1.08,0,1.82-0.83,1.82-1.94
		c0-1.11-0.73-1.94-1.82-1.94C224.19,488.51,223.48,489.38,223.48,490.46z"/>
	<path d="M235.73,486.9l-0.28,1.88c-0.31-0.14-0.76-0.23-1.15-0.23c-0.88,0-1.49,0.54-1.49,1.59v3.84h-1.9v-7.05h1.84v0.77
		c0.44-0.66,1.12-0.96,1.99-0.96C235.15,486.74,235.47,486.8,235.73,486.9z"/>
	<path d="M238.24,492.75c0,0.76-0.65,1.42-1.4,1.42c-0.76,0-1.42-0.65-1.42-1.42c0-0.76,0.66-1.4,1.42-1.4
		C237.59,491.34,238.24,491.99,238.24,492.75z"/>
	<path d="M242.94,485.37c0.55-0.72,1.59-1.75,3.48-1.75c2.13,0,3.46,1.34,3.46,3.29c0,1.25-0.63,2.11-1.47,2.98l-2.18,2.26h3.89
		v1.84h-6.73v-1.54l3.6-3.69c0.54-0.55,0.84-1.11,0.84-1.75c0-0.89-0.62-1.52-1.56-1.52c-0.97,0-1.54,0.52-2.07,1.12L242.94,485.37z
		"/>
	<path d="M260.18,488.89c0,3.3-1.97,5.28-4.4,5.28c-2.44,0-4.39-1.98-4.39-5.28s1.95-5.28,4.39-5.28
		C258.22,483.61,260.18,485.59,260.18,488.89z M253.44,488.89c0,2.23,1.04,3.39,2.34,3.39c1.31,0,2.34-1.17,2.34-3.39
		c0-2.23-1.03-3.39-2.34-3.39C254.48,485.5,253.44,486.66,253.44,488.89z"/>
	<path d="M261.21,485.37c0.55-0.72,1.59-1.75,3.48-1.75c2.13,0,3.46,1.34,3.46,3.29c0,1.25-0.63,2.11-1.47,2.98l-2.18,2.26h3.89
		v1.84h-6.73v-1.54l3.6-3.69c0.54-0.55,0.84-1.11,0.84-1.75c0-0.89-0.62-1.52-1.56-1.52c-0.97,0-1.54,0.52-2.07,1.12L261.21,485.37z
		"/>
	<path d="M278.45,488.89c0,3.3-1.97,5.28-4.4,5.28c-2.44,0-4.39-1.98-4.39-5.28s1.95-5.28,4.39-5.28
		C276.48,483.61,278.45,485.59,278.45,488.89z M271.71,488.89c0,2.23,1.04,3.39,2.34,3.39c1.31,0,2.34-1.17,2.34-3.39
		c0-2.23-1.03-3.39-2.34-3.39C272.75,485.5,271.71,486.66,271.71,488.89z"/>
</g>
<g>
	<path d="M304.29,493.99h-2.17l-0.89-2.37h-4.34l-0.89,2.37h-2.12l3.97-10.19h2.48L304.29,493.99z M297.59,489.74h2.95l-1.47-3.94
		L297.59,489.74z"/>
	<path d="M312.82,490.46c0,2.12-1.47,3.71-3.41,3.71c-0.95,0-1.62-0.37-2.07-0.92v3.65h-1.89v-9.96h1.86v0.78
		c0.46-0.57,1.13-0.97,2.1-0.97C311.35,486.74,312.82,488.34,312.82,490.46z M307.24,490.46c0,1.11,0.74,1.94,1.81,1.94
		c1.12,0,1.82-0.87,1.82-1.94s-0.7-1.94-1.82-1.94C307.97,488.51,307.24,489.34,307.24,490.46z"/>
	<path d="M319.19,486.9l-0.28,1.88c-0.31-0.14-0.76-0.23-1.15-0.23c-0.88,0-1.49,0.54-1.49,1.59v3.84h-1.9v-7.05h1.84v0.77
		c0.44-0.66,1.12-0.96,1.99-0.96C318.61,486.74,318.93,486.8,319.19,486.9z"/>
	<path d="M321.7,492.75c0,0.76-0.65,1.42-1.4,1.42c-0.76,0-1.42-0.65-1.42-1.42c0-0.76,0.66-1.4,1.42-1.4
		C321.04,491.34,321.7,491.99,321.7,492.75z"/>
	<path d="M326.39,485.37c0.55-0.72,1.59-1.75,3.48-1.75c2.13,0,3.46,1.34,3.46,3.29c0,1.25-0.63,2.11-1.47,2.98l-2.18,2.26h3.89
		v1.84h-6.73v-1.54l3.6-3.69c0.54-0.55,0.84-1.11,0.84-1.75c0-0.89-0.62-1.52-1.56-1.52c-0.97,0-1.54,0.52-2.07,1.12L326.39,485.37z
		"/>
	<path d="M343.64,488.89c0,3.3-1.97,5.28-4.4,5.28c-2.44,0-4.39-1.98-4.39-5.28s1.95-5.28,4.39-5.28
		C341.67,483.61,343.64,485.59,343.64,488.89z M336.9,488.89c0,2.23,1.04,3.39,2.34,3.39c1.31,0,2.34-1.17,2.34-3.39
		c0-2.23-1.03-3.39-2.34-3.39C337.94,485.5,336.9,486.66,336.9,488.89z"/>
	<path d="M344.66,485.37c0.55-0.72,1.59-1.75,3.48-1.75c2.13,0,3.46,1.34,3.46,3.29c0,1.25-0.63,2.11-1.47,2.98l-2.18,2.26h3.89
		v1.84h-6.73v-1.54l3.6-3.69c0.54-0.55,0.84-1.11,0.84-1.75c0-0.89-0.62-1.52-1.56-1.52c-0.97,0-1.54,0.52-2.07,1.12L344.66,485.37z
		"/>
	<path d="M361.9,488.89c0,3.3-1.97,5.28-4.4,5.28c-2.44,0-4.39-1.98-4.39-5.28s1.95-5.28,4.39-5.28
		C359.94,483.61,361.9,485.59,361.9,488.89z M355.16,488.89c0,2.23,1.04,3.39,2.34,3.39c1.31,0,2.34-1.17,2.34-3.39
		c0-2.23-1.03-3.39-2.34-3.39C356.21,485.5,355.16,486.66,355.16,488.89z"/>
</g>
<g>
	<path d="M389.59,493.99h-2.03v-7.69l-2.52,6.71h-2.15l-2.52-6.65v7.63h-2.03V483.8h2.98l2.65,6.88l2.64-6.88h2.98V493.99z"/>
	<path d="M398.68,493.99h-1.86v-0.78c-0.46,0.57-1.14,0.96-2.11,0.96c-1.94,0-3.41-1.59-3.41-3.71s1.47-3.71,3.41-3.71
		c0.97,0,1.65,0.39,2.11,0.97v-0.78h1.86V493.99z M393.25,490.46c0,1.08,0.71,1.94,1.82,1.94c1.08,0,1.82-0.83,1.82-1.94
		c0-1.11-0.73-1.94-1.82-1.94C393.95,488.51,393.25,489.38,393.25,490.46z"/>
	<path d="M402.43,496.93h-2.08l2.47-4.44l-3.04-5.55h2.15l1.94,3.63l1.88-3.63h2.08L402.43,496.93z"/>
	<path d="M411.72,485.37c0.55-0.72,1.59-1.75,3.48-1.75c2.13,0,3.46,1.34,3.46,3.29c0,1.25-0.63,2.11-1.47,2.98l-2.18,2.26h3.89
		v1.84h-6.73v-1.54l3.6-3.69c0.54-0.55,0.84-1.11,0.84-1.75c0-0.89-0.62-1.52-1.56-1.52c-0.97,0-1.54,0.52-2.07,1.12L411.72,485.37z
		"/>
	<path d="M428.96,488.89c0,3.3-1.97,5.28-4.4,5.28c-2.44,0-4.39-1.98-4.39-5.28s1.95-5.28,4.39-5.28
		C427,483.61,428.96,485.59,428.96,488.89z M422.22,488.89c0,2.23,1.04,3.39,2.34,3.39c1.31,0,2.34-1.17,2.34-3.39
		c0-2.23-1.03-3.39-2.34-3.39C423.26,485.5,422.22,486.66,422.22,488.89z"/>
	<path d="M429.99,485.37c0.55-0.72,1.59-1.75,3.48-1.75c2.13,0,3.46,1.34,3.46,3.29c0,1.25-0.63,2.11-1.47,2.98l-2.18,2.26h3.89
		v1.84h-6.73v-1.54l3.6-3.69c0.54-0.55,0.84-1.11,0.84-1.75c0-0.89-0.62-1.52-1.56-1.52c-0.97,0-1.54,0.52-2.07,1.12L429.99,485.37z
		"/>
	<path d="M447.23,488.89c0,3.3-1.97,5.28-4.4,5.28c-2.44,0-4.39-1.98-4.39-5.28s1.95-5.28,4.39-5.28
		C445.27,483.61,447.23,485.59,447.23,488.89z M440.49,488.89c0,2.23,1.04,3.39,2.34,3.39c1.31,0,2.34-1.17,2.34-3.39
		c0-2.23-1.03-3.39-2.34-3.39C441.53,485.5,440.49,486.66,440.49,488.89z"/>
</g>
<g>
	<path d="M469.63,490.27c0,2.55-1.53,3.89-3.65,3.89c-1.69,0-2.7-0.73-3.25-1.41l1.18-1.48c0.41,0.51,1.04,0.95,1.98,0.95
		c1.08,0,1.72-0.67,1.72-2.14v-6.29h2.03V490.27z"/>
	<path d="M478.34,490.98c0,2.23-1.57,3.19-3.33,3.19c-1.77,0-3.34-0.96-3.34-3.19v-4.05h1.9v3.88c0,1.13,0.62,1.59,1.44,1.59
		c0.82,0,1.44-0.46,1.44-1.59v-3.88h1.89V490.98z"/>
	<path d="M486.95,489.49v4.49h-1.9v-3.88c0-1.02-0.51-1.58-1.38-1.58c-0.82,0-1.49,0.53-1.49,1.59v3.87h-1.9v-7.05h1.85v0.83
		c0.5-0.75,1.27-1.02,2.07-1.02C485.8,486.74,486.95,487.86,486.95,489.49z"/>
	<path d="M495.44,490.45c0,0.22-0.01,0.48-0.04,0.64h-5c0.2,1.02,0.92,1.46,1.81,1.46c0.61,0,1.27-0.25,1.78-0.68l1.11,1.22
		c-0.8,0.73-1.82,1.07-3.01,1.07c-2.16,0-3.66-1.47-3.66-3.69c0-2.22,1.46-3.73,3.57-3.73
		C494.04,486.74,495.43,488.25,495.44,490.45z M490.41,489.79h3.12c-0.17-0.9-0.72-1.41-1.54-1.41
		C491.1,488.38,490.58,488.92,490.41,489.79z"/>
	<path d="M500.08,485.37c0.55-0.72,1.59-1.75,3.48-1.75c2.13,0,3.46,1.34,3.46,3.29c0,1.25-0.63,2.11-1.47,2.98l-2.18,2.26h3.89
		v1.84h-6.73v-1.54l3.6-3.69c0.54-0.55,0.84-1.11,0.84-1.75c0-0.89-0.62-1.52-1.56-1.52c-0.97,0-1.54,0.52-2.07,1.12L500.08,485.37z
		"/>
	<path d="M517.32,488.89c0,3.3-1.97,5.28-4.4,5.28c-2.44,0-4.39-1.98-4.39-5.28s1.95-5.28,4.39-5.28
		C515.36,483.61,517.32,485.59,517.32,488.89z M510.58,488.89c0,2.23,1.04,3.39,2.34,3.39c1.31,0,2.34-1.17,2.34-3.39
		c0-2.23-1.03-3.39-2.34-3.39C511.63,485.5,510.58,486.66,510.58,488.89z"/>
	<path d="M518.35,485.37c0.55-0.72,1.59-1.75,3.48-1.75c2.13,0,3.46,1.34,3.46,3.29c0,1.25-0.63,2.11-1.47,2.98l-2.18,2.26h3.89
		v1.84h-6.73v-1.54l3.6-3.69c0.54-0.55,0.84-1.11,0.84-1.75c0-0.89-0.62-1.52-1.56-1.52c-0.97,0-1.54,0.52-2.07,1.12L518.35,485.37z
		"/>
	<path d="M535.59,488.89c0,3.3-1.97,5.28-4.4,5.28c-2.44,0-4.39-1.98-4.39-5.28s1.95-5.28,4.39-5.28
		C533.63,483.61,535.59,485.59,535.59,488.89z M528.85,488.89c0,2.23,1.04,3.39,2.34,3.39c1.31,0,2.34-1.17,2.34-3.39
		c0-2.23-1.03-3.39-2.34-3.39C529.89,485.5,528.85,486.66,528.85,488.89z"/>
</g>
<g>
	<path d="M557.99,490.27c0,2.55-1.53,3.89-3.65,3.89c-1.69,0-2.7-0.73-3.25-1.41l1.18-1.48c0.41,0.51,1.04,0.95,1.98,0.95
		c1.08,0,1.72-0.67,1.72-2.14v-6.29h2.03V490.27z"/>
	<path d="M566.7,490.98c0,2.23-1.57,3.19-3.33,3.19c-1.77,0-3.34-0.96-3.34-3.19v-4.05h1.9v3.88c0,1.13,0.62,1.59,1.44,1.59
		c0.82,0,1.44-0.46,1.44-1.59v-3.88h1.89V490.98z"/>
	<path d="M570.54,493.99h-1.9V483.5h1.9V493.99z"/>
	<path d="M574.29,496.93h-2.08l2.47-4.44l-3.04-5.55h2.15l1.94,3.63l1.88-3.63h2.08L574.29,496.93z"/>
	<path d="M583.58,485.37c0.55-0.72,1.59-1.75,3.48-1.75c2.13,0,3.46,1.34,3.46,3.29c0,1.25-0.63,2.11-1.47,2.98l-2.18,2.26h3.89
		v1.84h-6.73v-1.54l3.6-3.69c0.54-0.55,0.84-1.11,0.84-1.75c0-0.89-0.62-1.52-1.56-1.52c-0.97,0-1.54,0.52-2.07,1.12L583.58,485.37z
		"/>
	<path d="M600.82,488.89c0,3.3-1.97,5.28-4.4,5.28c-2.44,0-4.39-1.98-4.39-5.28s1.95-5.28,4.39-5.28
		C598.85,483.61,600.82,485.59,600.82,488.89z M594.08,488.89c0,2.23,1.04,3.39,2.34,3.39c1.31,0,2.34-1.17,2.34-3.39
		c0-2.23-1.03-3.39-2.34-3.39C595.12,485.5,594.08,486.66,594.08,488.89z"/>
	<path d="M601.84,485.37c0.55-0.72,1.59-1.75,3.48-1.75c2.13,0,3.46,1.34,3.46,3.29c0,1.25-0.63,2.11-1.47,2.98l-2.18,2.26h3.89
		v1.84h-6.73v-1.54l3.6-3.69c0.54-0.55,0.84-1.11,0.84-1.75c0-0.89-0.62-1.52-1.56-1.52c-0.97,0-1.54,0.52-2.07,1.12L601.84,485.37z
		"/>
	<path d="M619.09,488.89c0,3.3-1.97,5.28-4.4,5.28c-2.44,0-4.39-1.98-4.39-5.28s1.95-5.28,4.39-5.28
		C617.12,483.61,619.09,485.59,619.09,488.89z M612.35,488.89c0,2.23,1.04,3.39,2.34,3.39c1.31,0,2.34-1.17,2.34-3.39
		c0-2.23-1.03-3.39-2.34-3.39C613.39,485.5,612.35,486.66,612.35,488.89z"/>
</g>
<g>
	<path d="M644.93,493.99h-2.17l-0.89-2.37h-4.34l-0.89,2.37h-2.12l3.97-10.19h2.48L644.93,493.99z M638.22,489.74h2.95l-1.47-3.94
		L638.22,489.74z"/>
	<path d="M652.54,490.98c0,2.23-1.57,3.19-3.33,3.19c-1.77,0-3.34-0.96-3.34-3.19v-4.05h1.9v3.88c0,1.13,0.62,1.59,1.44,1.59
		c0.82,0,1.44-0.46,1.44-1.59v-3.88h1.89V490.98z"/>
	<path d="M659.47,487.72v-0.79h1.86v6.47c0,2.26-1.48,3.63-3.81,3.63c-1.11,0-2.29-0.29-3.09-0.85l0.68-1.55
		c0.71,0.47,1.48,0.72,2.33,0.72c1.18,0,2.01-0.66,2.01-1.87v-0.5c-0.48,0.59-1.19,0.95-2.17,0.95c-1.72,0-3.25-1.43-3.25-3.6
		c0-2.17,1.53-3.6,3.25-3.6C658.27,486.74,658.99,487.12,659.47,487.72z M655.99,490.35c0,1.02,0.69,1.85,1.78,1.85
		c1.06,0,1.77-0.8,1.77-1.85c0-1.05-0.71-1.86-1.77-1.86C656.68,488.49,655.99,489.32,655.99,490.35z"/>
	<path d="M665.76,492.75c0,0.76-0.65,1.42-1.4,1.42c-0.76,0-1.42-0.65-1.42-1.42c0-0.76,0.66-1.4,1.42-1.4
		C665.1,491.34,665.76,491.99,665.76,492.75z"/>
	<path d="M670.45,485.37c0.55-0.72,1.59-1.75,3.48-1.75c2.13,0,3.46,1.34,3.46,3.29c0,1.25-0.63,2.11-1.47,2.98l-2.18,2.26h3.89
		v1.84h-6.73v-1.54l3.6-3.69c0.54-0.55,0.84-1.11,0.84-1.75c0-0.89-0.62-1.52-1.56-1.52c-0.97,0-1.54,0.52-2.07,1.12L670.45,485.37z
		"/>
	<path d="M687.69,488.89c0,3.3-1.97,5.28-4.4,5.28c-2.44,0-4.39-1.98-4.39-5.28s1.95-5.28,4.39-5.28
		C685.73,483.61,687.69,485.59,687.69,488.89z M680.95,488.89c0,2.23,1.04,3.39,2.34,3.39c1.31,0,2.34-1.17,2.34-3.39
		c0-2.23-1.03-3.39-2.34-3.39C682,485.5,680.95,486.66,680.95,488.89z"/>
	<path d="M688.72,485.37c0.55-0.72,1.59-1.75,3.48-1.75c2.13,0,3.46,1.34,3.46,3.29c0,1.25-0.63,2.11-1.47,2.98l-2.18,2.26h3.89
		v1.84h-6.73v-1.54l3.6-3.69c0.54-0.55,0.84-1.11,0.84-1.75c0-0.89-0.62-1.52-1.56-1.52c-0.97,0-1.54,0.52-2.07,1.12L688.72,485.37z
		"/>
	<path d="M705.96,488.89c0,3.3-1.97,5.28-4.4,5.28c-2.44,0-4.39-1.98-4.39-5.28s1.95-5.28,4.39-5.28
		C704,483.61,705.96,485.59,705.96,488.89z M699.22,488.89c0,2.23,1.04,3.39,2.34,3.39c1.31,0,2.34-1.17,2.34-3.39
		c0-2.23-1.03-3.39-2.34-3.39C700.26,485.5,699.22,486.66,699.22,488.89z"/>
</g>
<g>
	<path d="M729.31,486.37c-0.8-0.5-1.78-0.87-2.89-0.87c-1.14,0-1.95,0.45-1.95,1.22c0,0.75,0.88,0.97,2.1,1.18l0.58,0.09
		c1.82,0.3,3.25,1.08,3.25,2.85c0,2.25-1.98,3.32-4.17,3.32c-1.54,0-3.2-0.45-4.29-1.33l1.06-1.64c0.74,0.59,1.94,1.1,3.25,1.1
		c1.13,0,2-0.44,2-1.23c0-0.71-0.74-0.97-2.16-1.19l-0.65-0.1c-1.8-0.28-3.11-1.08-3.11-2.92c0-2.13,1.89-3.23,4.06-3.23
		c1.43,0,2.61,0.32,3.89,1.08L729.31,486.37z"/>
	<path d="M738.72,490.45c0,0.22-0.01,0.48-0.04,0.64h-5c0.2,1.02,0.92,1.46,1.81,1.46c0.61,0,1.27-0.25,1.78-0.68l1.11,1.22
		c-0.8,0.73-1.82,1.07-3.01,1.07c-2.16,0-3.66-1.47-3.66-3.69c0-2.22,1.46-3.73,3.57-3.73
		C737.32,486.74,738.71,488.25,738.72,490.45z M733.69,489.79h3.12c-0.17-0.9-0.72-1.41-1.54-1.41
		C734.38,488.38,733.86,488.92,733.69,489.79z"/>
	<path d="M747.65,490.46c0,2.12-1.47,3.71-3.41,3.71c-0.95,0-1.62-0.37-2.07-0.92v3.65h-1.89v-9.96h1.86v0.78
		c0.46-0.57,1.13-0.97,2.1-0.97C746.18,486.74,747.65,488.34,747.65,490.46z M742.07,490.46c0,1.11,0.74,1.94,1.81,1.94
		c1.12,0,1.82-0.87,1.82-1.94s-0.7-1.94-1.82-1.94C742.8,488.51,742.07,489.34,742.07,490.46z"/>
	<path d="M754.24,488.62h-2.55v2.58c0,0.88,0.47,1.2,1.05,1.2c0.45,0,0.94-0.23,1.33-0.46l0.7,1.48c-0.62,0.42-1.33,0.74-2.34,0.74
		c-1.75,0-2.64-0.99-2.64-2.82v-2.73h-1.36v-1.69h1.36v-2.1h1.9v2.1h2.55V488.62z"/>
	<path d="M758.69,492.75c0,0.76-0.65,1.42-1.4,1.42c-0.76,0-1.42-0.65-1.42-1.42c0-0.76,0.66-1.4,1.42-1.4
		C758.03,491.34,758.69,491.99,758.69,492.75z"/>
	<path d="M763.38,485.37c0.55-0.72,1.59-1.75,3.48-1.75c2.13,0,3.46,1.34,3.46,3.29c0,1.25-0.63,2.11-1.47,2.98l-2.18,2.26h3.89
		v1.84h-6.73v-1.54l3.6-3.69c0.54-0.55,0.84-1.11,0.84-1.75c0-0.89-0.62-1.52-1.56-1.52c-0.97,0-1.54,0.52-2.07,1.12L763.38,485.37z
		"/>
	<path d="M780.63,488.89c0,3.3-1.97,5.28-4.4,5.28c-2.44,0-4.39-1.98-4.39-5.28s1.95-5.28,4.39-5.28
		C778.66,483.61,780.63,485.59,780.63,488.89z M773.89,488.89c0,2.23,1.04,3.39,2.34,3.39c1.31,0,2.34-1.17,2.34-3.39
		c0-2.23-1.03-3.39-2.34-3.39C774.93,485.5,773.89,486.66,773.89,488.89z"/>
	<path d="M781.65,485.37c0.55-0.72,1.59-1.75,3.48-1.75c2.13,0,3.46,1.34,3.46,3.29c0,1.25-0.63,2.11-1.47,2.98l-2.18,2.26h3.89
		v1.84h-6.73v-1.54l3.6-3.69c0.54-0.55,0.84-1.11,0.84-1.75c0-0.89-0.62-1.52-1.56-1.52c-0.97,0-1.54,0.52-2.07,1.12L781.65,485.37z
		"/>
	<path d="M798.89,488.89c0,3.3-1.97,5.28-4.4,5.28c-2.44,0-4.39-1.98-4.39-5.28s1.95-5.28,4.39-5.28
		C796.93,483.61,798.89,485.59,798.89,488.89z M792.15,488.89c0,2.23,1.04,3.39,2.34,3.39c1.31,0,2.34-1.17,2.34-3.39
		c0-2.23-1.03-3.39-2.34-3.39C793.2,485.5,792.15,486.66,792.15,488.89z"/>
</g>
<g>
	<path d="M825.55,488.89c0,3.04-2.22,5.28-5.36,5.28c-3.14,0-5.35-2.24-5.35-5.28c0-3.04,2.21-5.28,5.35-5.28
		C823.33,483.61,825.55,485.85,825.55,488.89z M816.96,488.89c0,1.98,1.36,3.33,3.23,3.33c1.88,0,3.23-1.35,3.23-3.33
		s-1.35-3.33-3.23-3.33C818.32,485.56,816.96,486.91,816.96,488.89z"/>
	<path d="M833.38,488.08l-1.37,1.14c-0.43-0.46-0.89-0.71-1.51-0.71c-0.98,0-1.77,0.77-1.77,1.94c0,1.18,0.78,1.94,1.76,1.94
		c0.61,0,1.14-0.28,1.54-0.71l1.35,1.16c-0.66,0.85-1.65,1.32-2.83,1.32c-2.25,0-3.76-1.57-3.76-3.71c0-2.13,1.51-3.71,3.76-3.71
		C831.74,486.74,832.73,487.22,833.38,488.08z"/>
	<path d="M839.95,488.62h-2.55v2.58c0,0.88,0.47,1.2,1.05,1.2c0.45,0,0.94-0.23,1.33-0.46l0.7,1.48c-0.62,0.42-1.33,0.74-2.34,0.74
		c-1.75,0-2.64-0.99-2.64-2.82v-2.73h-1.36v-1.69h1.36v-2.1h1.9v2.1h2.55V488.62z"/>
	<path d="M844.39,492.75c0,0.76-0.65,1.42-1.4,1.42c-0.76,0-1.42-0.65-1.42-1.42c0-0.76,0.66-1.4,1.42-1.4
		C843.74,491.34,844.39,491.99,844.39,492.75z"/>
	<path d="M849.09,485.37c0.55-0.72,1.59-1.75,3.48-1.75c2.13,0,3.46,1.34,3.46,3.29c0,1.25-0.63,2.11-1.47,2.98l-2.18,2.26h3.89
		v1.84h-6.73v-1.54l3.6-3.69c0.54-0.55,0.84-1.11,0.84-1.75c0-0.89-0.62-1.52-1.56-1.52c-0.97,0-1.54,0.52-2.07,1.12L849.09,485.37z
		"/>
	<path d="M866.33,488.89c0,3.3-1.97,5.28-4.4,5.28c-2.44,0-4.39-1.98-4.39-5.28s1.95-5.28,4.39-5.28
		C864.36,483.61,866.33,485.59,866.33,488.89z M859.59,488.89c0,2.23,1.04,3.39,2.34,3.39c1.31,0,2.34-1.17,2.34-3.39
		c0-2.23-1.03-3.39-2.34-3.39C860.63,485.5,859.59,486.66,859.59,488.89z"/>
	<path d="M867.36,485.37c0.55-0.72,1.59-1.75,3.48-1.75c2.13,0,3.46,1.34,3.46,3.29c0,1.25-0.63,2.11-1.47,2.98l-2.18,2.26h3.89
		v1.84h-6.73v-1.54l3.6-3.69c0.54-0.55,0.84-1.11,0.84-1.75c0-0.89-0.62-1.52-1.56-1.52c-0.97,0-1.54,0.52-2.07,1.12L867.36,485.37z
		"/>
	<path d="M884.6,488.89c0,3.3-1.97,5.28-4.4,5.28c-2.44,0-4.39-1.98-4.39-5.28s1.95-5.28,4.39-5.28
		C882.63,483.61,884.6,485.59,884.6,488.89z M877.86,488.89c0,2.23,1.04,3.39,2.34,3.39c1.31,0,2.34-1.17,2.34-3.39
		c0-2.23-1.03-3.39-2.34-3.39C878.9,485.5,877.86,486.66,877.86,488.89z"/>
</g>
<g>
	<path d="M910.15,493.99h-1.91l-5.17-6.81l-0.01,6.81h-2.03V483.8h1.9l5.18,6.8v-6.8h2.04V493.99z"/>
	<path d="M919.49,490.46c0,2.13-1.62,3.71-3.82,3.71c-2.19,0-3.81-1.59-3.81-3.71c0-2.13,1.62-3.71,3.81-3.71
		C917.87,486.74,919.49,488.33,919.49,490.46z M913.8,490.46c0,1.14,0.8,1.94,1.87,1.94c1.07,0,1.88-0.8,1.88-1.94
		s-0.81-1.94-1.88-1.94C914.6,488.51,913.8,489.31,913.8,490.46z"/>
	<path d="M924.95,493.99h-2.19l-2.79-7.05h2.07l1.83,5.05l1.84-5.05h2L924.95,493.99z"/>
	<path d="M930.66,492.75c0,0.76-0.65,1.42-1.4,1.42c-0.76,0-1.42-0.65-1.42-1.42c0-0.76,0.66-1.4,1.42-1.4
		C930,491.34,930.66,491.99,930.66,492.75z"/>
	<path d="M935.35,485.37c0.55-0.72,1.59-1.75,3.48-1.75c2.13,0,3.46,1.34,3.46,3.29c0,1.25-0.63,2.11-1.47,2.98l-2.18,2.26h3.89
		v1.84h-6.73v-1.54l3.6-3.69c0.54-0.55,0.84-1.11,0.84-1.75c0-0.89-0.62-1.52-1.56-1.52c-0.97,0-1.54,0.52-2.07,1.12L935.35,485.37z
		"/>
	<path d="M952.59,488.89c0,3.3-1.96,5.28-4.4,5.28c-2.44,0-4.39-1.98-4.39-5.28s1.95-5.28,4.39-5.28
		C950.63,483.61,952.59,485.59,952.59,488.89z M945.85,488.89c0,2.23,1.04,3.39,2.34,3.39c1.31,0,2.34-1.17,2.34-3.39
		c0-2.23-1.03-3.39-2.34-3.39C946.89,485.5,945.85,486.66,945.85,488.89z"/>
	<path d="M953.62,485.37c0.55-0.72,1.59-1.75,3.48-1.75c2.13,0,3.46,1.34,3.46,3.29c0,1.25-0.63,2.11-1.47,2.98l-2.18,2.26h3.89
		v1.84h-6.73v-1.54l3.6-3.69c0.54-0.55,0.84-1.11,0.84-1.75c0-0.89-0.62-1.52-1.56-1.52c-0.97,0-1.54,0.52-2.07,1.12L953.62,485.37z
		"/>
	<path d="M970.86,488.89c0,3.3-1.97,5.28-4.4,5.28c-2.44,0-4.39-1.98-4.39-5.28s1.95-5.28,4.39-5.28
		C968.9,483.61,970.86,485.59,970.86,488.89z M964.12,488.89c0,2.23,1.04,3.39,2.34,3.39c1.31,0,2.34-1.17,2.34-3.39
		c0-2.23-1.04-3.39-2.34-3.39C965.16,485.5,964.12,486.66,964.12,488.89z"/>
</g>
<g>
	<path class="st7" d="M800.99,396.91h-18.91v-7.3h18.91V396.91z"/>
	<path class="st7" d="M835.65,377.55c0,4.74-2.53,8.22-6.69,10.17c4.7,1.86,7.68,5.44,7.68,10.27c0,8.83-8.03,13.09-16.51,13.09
		c-6.72,0-12.25-2.4-15.65-6.5l5.15-5.66c2.59,2.72,6.34,4.29,10.18,4.29c4.35,0,7.84-1.89,7.84-5.82c0-3.84-3.94-5.86-8.77-5.86
		h-5.22v-7.68h5.25c4.35,0,7.84-1.92,7.84-5.7c0-3.62-3.26-5.6-7.42-5.6c-4.16,0-7.23,2.14-9.05,4.54l-5.44-5.47
		c2.94-3.97,7.81-6.94,14.94-6.94C829.22,364.69,835.65,369.8,835.65,377.55z"/>
	<path class="st7" d="M854.5,404.84c0,3.36-2.88,6.24-6.18,6.24c-3.33,0-6.24-2.88-6.24-6.24c0-3.33,2.91-6.18,6.24-6.18
		C851.62,398.67,854.5,401.51,854.5,404.84z"/>
	<path class="st7" d="M893.89,377.55c0,5.15-2.98,8.35-6.85,10.14c4.42,1.73,7.94,4.93,7.94,10.4c0,8.16-7.87,12.99-17.5,12.99
		c-9.63,0-17.5-4.83-17.5-12.99c0-5.47,3.49-8.67,7.9-10.4c-3.87-1.79-6.82-4.99-6.82-10.14c0-8.06,7.36-12.86,16.41-12.86
		C886.53,364.69,893.89,369.49,893.89,377.55z M869.28,397.36c0,3.94,3.71,6.02,8.19,6.02c4.45,0,8.19-2.08,8.19-6.02
		c0-4-3.74-6.14-8.19-6.14C872.99,391.21,869.28,393.36,869.28,397.36z M870.24,378.22c0,3.84,3.23,5.89,7.23,5.89
		c4,0,7.23-2.05,7.23-5.89c0-3.71-3.23-5.73-7.23-5.73C873.47,372.49,870.24,374.51,870.24,378.22z"/>
	<path class="st7" d="M919.9,384.78c0,5.44-4.26,9.44-9.98,9.44s-9.95-4-9.95-9.44c0-5.41,4.22-9.44,9.95-9.44
		S919.9,379.37,919.9,384.78z M906.08,384.78c0,2.14,1.63,3.74,3.84,3.74s3.84-1.6,3.84-3.74s-1.63-3.74-3.84-3.74
		S906.08,382.67,906.08,384.78z M914.69,410.28h-7.46l24.93-34.27h7.46L914.69,410.28z M947.07,401.48c0,5.41-4.29,9.44-10.02,9.44
		c-5.66,0-9.95-4.03-9.95-9.44c0-5.34,4.29-9.44,9.95-9.44C942.78,392.04,947.07,396.04,947.07,401.48z M933.25,401.48
		c0,2.14,1.6,3.74,3.81,3.74c2.27,0,3.87-1.6,3.87-3.74c0-2.14-1.6-3.78-3.87-3.78C934.85,397.71,933.25,399.34,933.25,401.48z"/>
</g>
<g>
	<path d="M850.23,17.03l-3.22,3.15c-1.26-1.46-3.12-2.35-5.41-2.35c-4.1,0-7.07,3.01-7.07,7.38c0,4.58,3.12,7.44,6.99,7.44
		c3.65,0,5.78-1.76,6.37-4.95h-5.7v-3.73h10.31c0.05,0.43,0.06,0.85,0.06,1.26c0,6.79-4.59,11.57-10.95,11.57
		c-6.21,0-11.72-4.37-11.72-11.6c0-6.77,4.95-11.62,11.83-11.62C845.29,13.59,848.25,14.87,850.23,17.03z"/>
	<path d="M866.82,20.82l-0.62,4.15c-0.69-0.3-1.68-0.5-2.53-0.5c-1.94,0-3.27,1.18-3.27,3.49v8.45h-4.18V20.9h4.05v1.7
		c0.98-1.46,2.46-2.11,4.37-2.11C865.54,20.49,866.24,20.62,866.82,20.82z"/>
	<path d="M884.95,28.65c0,4.67-3.57,8.16-8.4,8.16c-4.82,0-8.37-3.49-8.37-8.16c0-4.67,3.55-8.16,8.37-8.16
		C881.38,20.49,884.95,23.98,884.95,28.65z M872.43,28.65c0,2.51,1.76,4.27,4.11,4.27c2.35,0,4.13-1.76,4.13-4.27
		c0-2.51-1.78-4.27-4.13-4.27C874.19,24.38,872.43,26.14,872.43,28.65z"/>
	<path d="M905.41,31.79l3.33-10.88h4.37l-5.25,15.51h-4.77l-3.44-10.48l-3.41,10.48h-4.74l-5.25-15.51h4.45l3.31,10.84l3.47-10.84
		h4.4L905.41,31.79z"/>
	<path d="M927.3,24.62h-5.62v5.67c0,1.94,1.02,2.64,2.32,2.64c0.99,0,2.06-0.5,2.91-1.01l1.54,3.27c-1.36,0.93-2.93,1.63-5.14,1.63
		c-3.84,0-5.81-2.18-5.81-6.19v-6h-2.99V20.9h2.99v-4.61h4.18v4.61h5.62V24.62z"/>
	<path d="M935.15,22.57c1.1-1.54,2.75-2.08,4.45-2.08c3.52,0,6.04,2.45,6.04,6.05v9.88h-4.18v-8.53c0-2.24-1.12-3.47-3.03-3.47
		c-1.79,0-3.28,1.17-3.28,3.51v8.5h-4.18V13.35h4.18V22.57z"/>
</g>
<g>
	<path d="M878.02,446.3h-5.43l-8.42-22.41h4.75l6.42,17.88l6.45-17.88h4.64L878.02,446.3z"/>
	<path d="M902.02,446.3h-4.08v-1.71c-1.01,1.25-2.51,2.11-4.64,2.11c-4.27,0-7.51-3.51-7.51-8.16c0-4.66,3.23-8.16,7.51-8.16
		c2.13,0,3.62,0.86,4.64,2.13v-1.71h4.08V446.3z M890.07,438.54c0,2.37,1.55,4.27,4,4.27c2.38,0,4-1.83,4-4.27
		c0-2.45-1.62-4.27-4-4.27C891.62,434.26,890.07,436.17,890.07,438.54z"/>
	<path d="M910.58,446.3h-4.18v-23.05h4.18V446.3z"/>
	<path d="M929.51,439.69c0,4.9-3.46,7.01-7.33,7.01c-3.89,0-7.35-2.11-7.35-7.01v-8.9h4.18v8.53c0,2.48,1.36,3.49,3.17,3.49
		c1.79,0,3.17-1.01,3.17-3.49v-8.53h4.16V439.69z"/>
	<path d="M948.18,438.52c0,0.48-0.03,1.06-0.08,1.41h-11c0.45,2.24,2.02,3.22,3.99,3.22c1.34,0,2.8-0.54,3.92-1.49l2.45,2.69
		c-1.76,1.62-4,2.35-6.61,2.35c-4.75,0-8.05-3.23-8.05-8.12s3.2-8.21,7.84-8.21C945.11,430.38,948.17,433.69,948.18,438.52z
		 M937.12,437.08h6.87c-0.38-1.98-1.58-3.11-3.38-3.11C938.64,433.98,937.49,435.16,937.12,437.08z"/>
</g>
<g>
	<path class="st8" d="M742.26,94.19V83.02h-11.07v-7.14h11.07V64.72h7.3v11.17h11.07v7.14h-11.07v11.17H742.26z"/>
	<path class="st8" d="M767.25,58.61c2.43-3.17,6.97-7.71,15.29-7.71c9.38,0,15.2,5.89,15.2,14.46c0,5.47-2.78,9.28-6.46,13.09
		l-9.57,9.95h17.12v8.1h-29.6v-6.75l15.84-16.22c2.37-2.4,3.68-4.86,3.68-7.68c0-3.9-2.72-6.69-6.85-6.69
		c-4.26,0-6.78,2.3-9.09,4.93L767.25,58.61z"/>
	<path class="st8" d="M831.19,80.24h6.24v8.06h-6.24v8.19h-8.64V88.3h-19.87v-6.27l15.71-30.3h9.6l-14.97,28.51h9.54V68.3h8.64
		V80.24z"/>
	<path class="st8" d="M854.77,91.05c0,3.36-2.88,6.24-6.18,6.24c-3.33,0-6.24-2.88-6.24-6.24c0-3.33,2.91-6.18,6.24-6.18
		C851.89,84.88,854.77,87.72,854.77,91.05z"/>
	<path class="st8" d="M894.16,63.76c0,5.15-2.98,8.35-6.85,10.14c4.42,1.73,7.94,4.93,7.94,10.4c0,8.16-7.87,12.99-17.5,12.99
		c-9.63,0-17.5-4.83-17.5-12.99c0-5.47,3.49-8.67,7.9-10.4c-3.87-1.79-6.82-4.99-6.82-10.14c0-8.06,7.36-12.86,16.41-12.86
		C886.8,50.9,894.16,55.7,894.16,63.76z M869.55,83.57c0,3.94,3.71,6.02,8.19,6.02c4.45,0,8.19-2.08,8.19-6.02
		c0-4-3.74-6.14-8.19-6.14C873.27,77.42,869.55,79.57,869.55,83.57z M870.51,64.43c0,3.84,3.23,5.89,7.23,5.89
		c4,0,7.23-2.05,7.23-5.89c0-3.71-3.23-5.73-7.23-5.73C873.75,58.7,870.51,60.72,870.51,64.43z"/>
	<path class="st8" d="M920.18,70.99c0,5.44-4.26,9.44-9.98,9.44s-9.95-4-9.95-9.44c0-5.41,4.22-9.44,9.95-9.44
		S920.18,65.58,920.18,70.99z M906.35,70.99c0,2.14,1.63,3.74,3.84,3.74s3.84-1.6,3.84-3.74s-1.63-3.74-3.84-3.74
		S906.35,68.88,906.35,70.99z M914.96,96.49h-7.46l24.93-34.27h7.46L914.96,96.49z M947.34,87.69c0,5.41-4.29,9.44-10.02,9.44
		c-5.66,0-9.95-4.03-9.95-9.44c0-5.34,4.29-9.44,9.95-9.44C943.06,78.25,947.34,82.25,947.34,87.69z M933.52,87.69
		c0,2.14,1.6,3.74,3.81,3.74c2.27,0,3.87-1.6,3.87-3.74c0-2.14-1.6-3.78-3.87-3.78C935.12,83.92,933.52,85.55,933.52,87.69z"/>
</g>
<circle class="st8" cx="937.7" cy="128.7" r="9.81"/>
<circle class="st7" cx="937.7" cy="278.46" r="9.81"/>
</svg>
