<?xml version="1.0" encoding="utf-8"?>
<!-- Generator: Adobe Illustrator 24.3.0, SVG Export Plug-In . SVG Version: 6.00 Build 0)  -->
<svg version="1.1" id="Layer_1" xmlns="http://www.w3.org/2000/svg" xmlns:xlink="http://www.w3.org/1999/xlink" x="0px" y="0px"
	 viewBox="0 0 200 200" style="enable-background:new 0 0 200 200;" xml:space="preserve">
<style type="text/css">
	.st0{fill:#FFFFFF;stroke:#FFFFFF;stroke-width:12;stroke-miterlimit:10;}
	.st1{fill:#ED5A36;}
	.st2{fill:#203232;}
	.st3{fill:none;}
</style>
<path class="st0" d="M148.48,111.05c0-0.08,0-0.23,0-0.3c0-23.74-13.37-41.54-33.88-47.25v-3.31c0-0.75-0.3-1.5-0.75-2.03
	c-0.38-0.45-4.28-4.73-13.97-4.73s-13.52,4.28-13.97,4.73c-0.45,0.6-0.75,1.28-0.75,2.03v3.31c-20.51,5.71-33.88,23.51-33.88,47.25
	c0,0.08,0,0.23,0,0.3c-5.41,2.55-7.36,6.91-7.36,10.44c0,13.97,28.77,21.49,55.89,21.49s55.89-7.51,55.89-21.49
	C155.85,117.96,153.89,113.6,148.48,111.05z"/>
<path class="st1" d="M143.6,108.79c0-0.08,0-0.15,0-0.23c0-18.11-11.95-31.7-30.35-36.06v-2.55c0-0.6-0.23-1.13-0.68-1.58
	c-0.38-0.38-3.83-3.61-12.47-3.61S88.01,68,87.63,68.37c-0.45,0.45-0.68,0.98-0.68,1.58v2.55C68.62,76.86,56.6,90.46,56.6,108.57
	c0,0.08,0,0.15,0,0.23c-4.81,1.95-6.61,5.33-6.61,7.96c0,10.67,25.77,16.38,50.03,16.38s50.03-5.78,50.03-16.38
	C150.14,114.05,148.41,110.75,143.6,108.79z"/>
<path class="st2" d="M148.48,111.05c0-0.08,0-0.23,0-0.3c0-23.74-13.37-41.54-33.88-47.25v-3.31c0-0.75-0.3-1.5-0.75-2.03
	c-0.38-0.45-4.28-4.73-13.97-4.73s-13.52,4.28-13.97,4.73c-0.45,0.6-0.75,1.28-0.75,2.03v3.31c-20.51,5.71-33.88,23.51-33.88,47.25
	c0,0.08,0,0.23,0,0.3c-5.41,2.55-7.36,6.91-7.36,10.44c0,13.97,28.77,21.49,55.89,21.49s55.89-7.51,55.89-21.49
	C155.85,117.96,153.89,113.6,148.48,111.05z M99.95,136.59c-30.65,0-49.51-8.79-49.51-15.1c0-0.83,0.38-3.76,5.26-5.33
	c1.43-0.45,2.33-1.8,2.25-3.31c0-0.38-0.08-0.6-0.08-0.83c-0.08-0.38-0.08-0.6-0.08-1.28c0-19.83,10.74-35.01,27.42-40.49
	l6.46,36.81l0,0V61.61c1.2-0.75,3.68-1.88,8.26-1.88s7.14,1.13,8.26,1.88v45.45l0,0l6.46-36.89c16.68,5.56,27.42,20.66,27.42,40.49
	c0,0.68,0,0.9-0.08,1.28c0,0.23-0.08,0.45-0.08,0.83c-0.15,1.5,0.83,2.85,2.25,3.31c4.88,1.58,5.26,4.43,5.26,5.33
	C149.46,127.8,130.6,136.59,99.95,136.59z"/>
<path class="st2" d="M118.28,120.14c-7.29,2.93-17.13,4.58-27.8,4.58s-20.51-1.65-27.8-4.58l3.38-6.16
	C79.37,118.71,92.66,123.52,118.28,120.14z"/>
<rect x="53.37" y="60.79" class="st3" width="93.16" height="74.75"/>
</svg>
