<?xml version="1.0" encoding="utf-8"?>
<!-- Generator: Adobe Illustrator 24.3.0, SVG Export Plug-In . SVG Version: 6.00 Build 0)  -->
<svg version="1.1" id="Layer_1" xmlns="http://www.w3.org/2000/svg" xmlns:xlink="http://www.w3.org/1999/xlink" x="0px" y="0px"
	 viewBox="0 0 1228 611.9" style="enable-background:new 0 0 1228 611.9;" xml:space="preserve">
<style type="text/css">
	.st0{opacity:0.55;}
	.st1{fill:none;stroke:#8F9898;stroke-width:0.5;stroke-miterlimit:10;}
	.st2{fill:none;stroke:#203232;stroke-width:2;stroke-miterlimit:10;}
	.st3{fill:#203232;}
	.st4{fill:none;stroke:#D02259;stroke-width:4;stroke-linecap:round;stroke-miterlimit:10;}
	.st5{fill:none;stroke:#8F9898;stroke-width:4;stroke-linecap:round;stroke-miterlimit:10;}
	.st6{fill:none;stroke:#ED5A36;stroke-width:4;stroke-linecap:round;stroke-miterlimit:10;}
	.st7{fill:#ED5A36;}
	.st8{opacity:0.7;}
	.st9{fill:#D02259;}
	.st10{fill:#8F9898;}
</style>
<g>
	<g class="st0">
		<g>
			<line class="st1" x1="63.3" y1="510.1" x2="1197.2" y2="510.1"/>
			<line class="st1" x1="63.3" y1="350.1" x2="1197.2" y2="350.1"/>
			<line class="st1" x1="63.3" y1="190" x2="1197.2" y2="190"/>
			<line class="st1" x1="63.3" y1="30" x2="1197.2" y2="30"/>
		</g>
	</g>
	<line class="st2" x1="63.3" y1="510.1" x2="1197.8" y2="510.1"/>
	<g>
		<g>
			<path class="st3" d="M42.2,509.8c0,1.1-0.7,1.8-1.5,2.2c1,0.4,1.7,1.1,1.7,2.3c0,1.8-1.7,2.8-3.8,2.8c-2.1,0-3.8-1.1-3.8-2.8
				c0-1.2,0.8-1.9,1.7-2.3c-0.8-0.4-1.5-1.1-1.5-2.2c0-1.8,1.6-2.8,3.6-2.8S42.2,508,42.2,509.8z M36.9,514.1c0,0.9,0.8,1.3,1.8,1.3
				s1.8-0.5,1.8-1.3c0-0.9-0.8-1.3-1.8-1.3S36.9,513.3,36.9,514.1z M37.1,510c0,0.8,0.7,1.3,1.6,1.3s1.6-0.4,1.6-1.3
				c0-0.8-0.7-1.3-1.6-1.3S37.1,509.1,37.1,510z"/>
			<path class="st3" d="M52.3,512.1c0,3.2-1.9,5.1-4.2,5.1s-4.2-1.9-4.2-5.1s1.9-5.1,4.2-5.1C50.4,507,52.3,508.9,52.3,512.1z
				 M45.8,512.1c0,2.1,1,3.3,2.3,3.3s2.3-1.1,2.3-3.3c0-2.1-1-3.3-2.3-3.3S45.8,509.9,45.8,512.1z"/>
		</g>
		<g>
			<path class="st3" d="M39.1,353.5c-0.1,0-0.3,0-0.4,0c-2,0-3.4-1.4-3.4-3.3s1.6-3.3,3.7-3.3s3.7,1.4,3.7,3.3
				c0,0.9-0.3,1.7-0.9,2.6l-2.7,4.1h-2.4L39.1,353.5z M40.7,350.3c0-1-0.7-1.6-1.7-1.6s-1.7,0.7-1.7,1.6s0.7,1.6,1.7,1.6
				S40.7,351.2,40.7,350.3z"/>
			<path class="st3" d="M52.3,352c0,3.2-1.9,5.1-4.2,5.1s-4.2-1.9-4.2-5.1s1.9-5.1,4.2-5.1S52.3,348.8,52.3,352z M45.8,352
				c0,2.1,1,3.3,2.3,3.3s2.3-1.1,2.3-3.3s-1-3.3-2.3-3.3C46.8,348.8,45.8,349.9,45.8,352z"/>
		</g>
		<g>
			<path class="st3" d="M32.1,196.9h-1.9v-7.3l-2.3,1v-1.9l4.2-1.7V196.9z"/>
			<path class="st3" d="M42.4,192c0,3.2-1.9,5.1-4.2,5.1c-2.3,0-4.2-1.9-4.2-5.1s1.9-5.1,4.2-5.1S42.4,188.8,42.4,192z M35.9,192
				c0,2.1,1,3.3,2.3,3.3c1.3,0,2.3-1.1,2.3-3.3s-1-3.3-2.3-3.3C36.9,188.7,35.9,189.8,35.9,192z"/>
			<path class="st3" d="M52.3,192c0,3.2-1.9,5.1-4.2,5.1s-4.2-1.9-4.2-5.1s1.9-5.1,4.2-5.1S52.3,188.8,52.3,192z M45.8,192
				c0,2.1,1,3.3,2.3,3.3s2.3-1.1,2.3-3.3s-1-3.3-2.3-3.3S45.8,189.8,45.8,192z"/>
		</g>
		<g>
			<path class="st3" d="M36.2,36.8h-1.9v-7.3l-2.3,1v-1.9l4.2-1.7V36.8z"/>
			<path class="st3" d="M41.9,36.8H40v-7.3l-2.3,1v-1.9l4.2-1.7V36.8z"/>
			<path class="st3" d="M52.3,31.9c0,3.2-1.9,5.1-4.2,5.1s-4.2-1.9-4.2-5.1s1.9-5.1,4.2-5.1S52.3,28.7,52.3,31.9z M45.8,31.9
				c0,2.1,1,3.3,2.3,3.3s2.3-1.1,2.3-3.3s-1-3.3-2.3-3.3C46.8,28.7,45.8,29.8,45.8,31.9z"/>
		</g>
	</g>
	<line class="st2" x1="64" y1="510.7" x2="64" y2="30"/>
	<g>
		<g>
			<line class="st4" x1="70.3" y1="189.7" x2="65.6" y2="190"/>
			<line class="st4" x1="75" y1="184.1" x2="70.3" y2="189.7"/>
			<line class="st4" x1="79.6" y1="190.4" x2="75" y2="184.1"/>
			<line class="st4" x1="84.3" y1="195.5" x2="79.6" y2="190.4"/>
			<line class="st4" x1="89" y1="197.3" x2="84.3" y2="195.5"/>
			<line class="st4" x1="93.6" y1="190.9" x2="89" y2="197.3"/>
			<line class="st4" x1="98.3" y1="195.9" x2="93.6" y2="190.9"/>
			<line class="st4" x1="102.9" y1="199.6" x2="98.3" y2="195.9"/>
			<line class="st4" x1="107.6" y1="204.1" x2="102.9" y2="199.6"/>
			<line class="st4" x1="112.3" y1="202.9" x2="107.6" y2="204.1"/>
			<line class="st4" x1="116.9" y1="208.1" x2="112.3" y2="202.9"/>
			<line class="st4" x1="121.6" y1="210.3" x2="116.9" y2="208.1"/>
			<line class="st4" x1="126.2" y1="206.8" x2="121.6" y2="210.3"/>
			<line class="st4" x1="130.9" y1="207.1" x2="126.2" y2="206.8"/>
			<line class="st4" x1="135.6" y1="213.6" x2="130.9" y2="207.1"/>
			<line class="st4" x1="140.2" y1="208" x2="135.6" y2="213.6"/>
			<line class="st4" x1="144.9" y1="212.5" x2="140.2" y2="208"/>
			<line class="st4" x1="149.5" y1="214.7" x2="144.9" y2="212.5"/>
			<line class="st4" x1="154.2" y1="226.2" x2="149.5" y2="214.7"/>
			<line class="st4" x1="158.9" y1="220.9" x2="154.2" y2="226.2"/>
			<line class="st4" x1="163.5" y1="224.8" x2="158.9" y2="220.9"/>
			<line class="st4" x1="168.2" y1="232.4" x2="163.5" y2="224.8"/>
			<line class="st4" x1="172.8" y1="239" x2="168.2" y2="232.4"/>
			<line class="st4" x1="177.5" y1="230.5" x2="172.8" y2="239"/>
			<line class="st4" x1="182.2" y1="223.5" x2="177.5" y2="230.5"/>
			<line class="st4" x1="186.8" y1="220.7" x2="182.2" y2="223.5"/>
			<line class="st4" x1="191.5" y1="228.7" x2="186.8" y2="220.7"/>
			<line class="st4" x1="196.1" y1="238.7" x2="191.5" y2="228.7"/>
			<line class="st4" x1="200.8" y1="243.8" x2="196.1" y2="238.7"/>
			<line class="st4" x1="205.5" y1="240.1" x2="200.8" y2="243.8"/>
			<line class="st4" x1="210.1" y1="237.5" x2="205.5" y2="240.1"/>
			<line class="st4" x1="214.8" y1="239" x2="210.1" y2="237.5"/>
			<line class="st4" x1="219.5" y1="234.4" x2="214.8" y2="239"/>
			<line class="st4" x1="224.1" y1="238.3" x2="219.5" y2="234.4"/>
			<line class="st4" x1="228.8" y1="243" x2="224.1" y2="238.3"/>
			<line class="st4" x1="233.4" y1="242.2" x2="228.8" y2="243"/>
			<line class="st4" x1="238.1" y1="252.3" x2="233.4" y2="242.2"/>
			<line class="st4" x1="242.8" y1="250" x2="238.1" y2="252.3"/>
			<line class="st4" x1="247.4" y1="259.1" x2="242.8" y2="250"/>
			<line class="st4" x1="252.1" y1="261.1" x2="247.4" y2="259.1"/>
			<line class="st4" x1="256.7" y1="269.7" x2="252.1" y2="261.1"/>
			<line class="st4" x1="261.4" y1="281.5" x2="256.7" y2="269.7"/>
			<line class="st4" x1="266.1" y1="287.4" x2="261.4" y2="281.5"/>
			<line class="st4" x1="270.7" y1="276.6" x2="266.1" y2="287.4"/>
			<line class="st4" x1="275.4" y1="276.4" x2="270.7" y2="276.6"/>
			<line class="st4" x1="280" y1="285.1" x2="275.4" y2="276.4"/>
			<line class="st4" x1="284.7" y1="300.9" x2="280" y2="285.1"/>
			<line class="st4" x1="289.4" y1="309.9" x2="284.7" y2="300.9"/>
			<line class="st4" x1="294" y1="344.4" x2="289.4" y2="309.9"/>
			<line class="st4" x1="298.7" y1="335.9" x2="294" y2="344.4"/>
			<line class="st4" x1="303.3" y1="360" x2="298.7" y2="335.9"/>
			<line class="st4" x1="308" y1="375.4" x2="303.3" y2="360"/>
			<line class="st4" x1="312.7" y1="374.8" x2="308" y2="375.4"/>
			<line class="st4" x1="317.3" y1="403.6" x2="312.7" y2="374.8"/>
			<line class="st4" x1="322" y1="405.1" x2="317.3" y2="403.6"/>
			<line class="st4" x1="326.6" y1="425.7" x2="322" y2="405.1"/>
			<line class="st4" x1="331.3" y1="422.5" x2="326.6" y2="425.7"/>
			<line class="st4" x1="336" y1="425.4" x2="331.3" y2="422.5"/>
			<line class="st4" x1="340.6" y1="439" x2="336" y2="425.4"/>
			<line class="st4" x1="345.3" y1="422.8" x2="340.6" y2="439"/>
			<line class="st4" x1="350" y1="409.2" x2="345.3" y2="422.8"/>
			<line class="st4" x1="354.6" y1="386.2" x2="350" y2="409.2"/>
			<line class="st4" x1="359.3" y1="396.1" x2="354.6" y2="386.2"/>
			<line class="st4" x1="363.9" y1="415.9" x2="359.3" y2="396.1"/>
			<line class="st4" x1="368.6" y1="414.6" x2="363.9" y2="415.9"/>
			<line class="st4" x1="373.3" y1="427.5" x2="368.6" y2="414.6"/>
			<line class="st4" x1="377.9" y1="423.3" x2="373.3" y2="427.5"/>
			<line class="st4" x1="382.6" y1="436.6" x2="377.9" y2="423.3"/>
			<line class="st4" x1="387.2" y1="420.1" x2="382.6" y2="436.6"/>
			<line class="st4" x1="391.9" y1="409.9" x2="387.2" y2="420.1"/>
			<line class="st4" x1="396.6" y1="402.2" x2="391.9" y2="409.9"/>
			<line class="st4" x1="401.2" y1="391.2" x2="396.6" y2="402.2"/>
			<line class="st4" x1="405.9" y1="388.5" x2="401.2" y2="391.2"/>
			<line class="st4" x1="410.5" y1="403" x2="405.9" y2="388.5"/>
			<line class="st4" x1="415.2" y1="398.8" x2="410.5" y2="403"/>
			<line class="st4" x1="419.9" y1="413.6" x2="415.2" y2="398.8"/>
			<line class="st4" x1="424.5" y1="417.8" x2="419.9" y2="413.6"/>
			<line class="st4" x1="429.2" y1="412.9" x2="424.5" y2="417.8"/>
			<line class="st4" x1="433.8" y1="421.3" x2="429.2" y2="412.9"/>
			<line class="st4" x1="438.5" y1="428.6" x2="433.8" y2="421.3"/>
			<line class="st4" x1="443.2" y1="432.7" x2="438.5" y2="428.6"/>
			<line class="st4" x1="447.8" y1="438.7" x2="443.2" y2="432.7"/>
			<line class="st4" x1="452.5" y1="445" x2="447.8" y2="438.7"/>
			<line class="st4" x1="457.1" y1="446.5" x2="452.5" y2="445"/>
			<line class="st4" x1="461.8" y1="432.6" x2="457.1" y2="446.5"/>
			<line class="st4" x1="466.5" y1="411.2" x2="461.8" y2="432.6"/>
			<line class="st4" x1="471.1" y1="423.6" x2="466.5" y2="411.2"/>
			<line class="st4" x1="475.8" y1="427" x2="471.1" y2="423.6"/>
			<line class="st4" x1="480.5" y1="427.4" x2="475.8" y2="427"/>
			<line class="st4" x1="485.1" y1="424.9" x2="480.5" y2="427.4"/>
			<line class="st4" x1="489.8" y1="438.4" x2="485.1" y2="424.9"/>
			<line class="st4" x1="494.4" y1="435.4" x2="489.8" y2="438.4"/>
			<line class="st4" x1="499.1" y1="424.9" x2="494.4" y2="435.4"/>
			<line class="st4" x1="503.8" y1="430.5" x2="499.1" y2="424.9"/>
			<line class="st4" x1="508.4" y1="437" x2="503.8" y2="430.5"/>
			<line class="st4" x1="513.1" y1="436.4" x2="508.4" y2="437"/>
			<line class="st4" x1="517.7" y1="435.2" x2="513.1" y2="436.4"/>
			<line class="st4" x1="522.4" y1="436.6" x2="517.7" y2="435.2"/>
			<line class="st4" x1="527.1" y1="424.7" x2="522.4" y2="436.6"/>
			<line class="st4" x1="531.7" y1="423.2" x2="527.1" y2="424.7"/>
			<line class="st4" x1="536.4" y1="409.7" x2="531.7" y2="423.2"/>
			<line class="st4" x1="541" y1="400" x2="536.4" y2="409.7"/>
			<line class="st4" x1="545.7" y1="401.1" x2="541" y2="400"/>
			<line class="st4" x1="550.4" y1="395.7" x2="545.7" y2="401.1"/>
			<line class="st4" x1="555" y1="387" x2="550.4" y2="395.7"/>
			<line class="st4" x1="559.7" y1="391.8" x2="555" y2="387"/>
			<line class="st4" x1="564.3" y1="388.7" x2="559.7" y2="391.8"/>
			<line class="st4" x1="569" y1="386.9" x2="564.3" y2="388.7"/>
			<line class="st4" x1="573.7" y1="381.5" x2="569" y2="386.9"/>
			<line class="st4" x1="578.3" y1="361.3" x2="573.7" y2="381.5"/>
			<line class="st4" x1="583" y1="351" x2="578.3" y2="361.3"/>
			<line class="st4" x1="587.6" y1="356.6" x2="583" y2="351"/>
			<line class="st4" x1="592.3" y1="344.7" x2="587.6" y2="356.6"/>
			<line class="st4" x1="597" y1="340.5" x2="592.3" y2="344.7"/>
			<line class="st4" x1="601.6" y1="352.9" x2="597" y2="340.5"/>
			<line class="st4" x1="606.3" y1="356.4" x2="601.6" y2="352.9"/>
			<line class="st4" x1="611" y1="379.7" x2="606.3" y2="356.4"/>
			<line class="st4" x1="615.6" y1="381" x2="611" y2="379.7"/>
			<line class="st4" x1="620.3" y1="383.6" x2="615.6" y2="381"/>
			<line class="st4" x1="624.9" y1="386.7" x2="620.3" y2="383.6"/>
			<line class="st4" x1="629.6" y1="391.6" x2="624.9" y2="386.7"/>
			<line class="st4" x1="634.3" y1="409.6" x2="629.6" y2="391.6"/>
			<line class="st4" x1="638.9" y1="404.2" x2="634.3" y2="409.6"/>
			<line class="st4" x1="643.6" y1="401.2" x2="638.9" y2="404.2"/>
			<line class="st4" x1="648.2" y1="395.9" x2="643.6" y2="401.2"/>
			<line class="st4" x1="652.9" y1="408.2" x2="648.2" y2="395.9"/>
			<line class="st4" x1="657.6" y1="405.4" x2="652.9" y2="408.2"/>
			<line class="st4" x1="662.2" y1="418.6" x2="657.6" y2="405.4"/>
			<line class="st4" x1="666.9" y1="417.4" x2="662.2" y2="418.6"/>
			<line class="st4" x1="671.5" y1="420.4" x2="666.9" y2="417.4"/>
			<line class="st4" x1="676.2" y1="406.6" x2="671.5" y2="420.4"/>
			<line class="st4" x1="680.9" y1="397.7" x2="676.2" y2="406.6"/>
			<line class="st4" x1="685.5" y1="396.9" x2="680.9" y2="397.7"/>
			<line class="st4" x1="690.2" y1="396.7" x2="685.5" y2="396.9"/>
			<line class="st4" x1="694.8" y1="399.7" x2="690.2" y2="396.7"/>
			<line class="st4" x1="699.5" y1="394.2" x2="694.8" y2="399.7"/>
			<line class="st4" x1="704.2" y1="392.2" x2="699.5" y2="394.2"/>
			<line class="st4" x1="708.8" y1="391.8" x2="704.2" y2="392.2"/>
			<line class="st4" x1="713.5" y1="395.7" x2="708.8" y2="391.8"/>
			<line class="st4" x1="718.2" y1="392.1" x2="713.5" y2="395.7"/>
			<line class="st4" x1="722.8" y1="391.3" x2="718.2" y2="392.1"/>
			<line class="st4" x1="727.5" y1="392.7" x2="722.8" y2="391.3"/>
			<line class="st4" x1="732.1" y1="396.8" x2="727.5" y2="392.7"/>
			<line class="st4" x1="736.8" y1="394.5" x2="732.1" y2="396.8"/>
			<line class="st4" x1="741.5" y1="379.9" x2="736.8" y2="394.5"/>
			<line class="st4" x1="746.1" y1="378.4" x2="741.5" y2="379.9"/>
			<line class="st4" x1="750.8" y1="386.2" x2="746.1" y2="378.4"/>
			<line class="st4" x1="755.4" y1="390.4" x2="750.8" y2="386.2"/>
			<line class="st4" x1="760.1" y1="379.3" x2="755.4" y2="390.4"/>
			<line class="st4" x1="764.8" y1="382.2" x2="760.1" y2="379.3"/>
			<line class="st4" x1="769.4" y1="377.2" x2="764.8" y2="382.2"/>
			<line class="st4" x1="774.1" y1="380.7" x2="769.4" y2="377.2"/>
			<line class="st4" x1="778.7" y1="387.5" x2="774.1" y2="380.7"/>
			<line class="st4" x1="783.4" y1="399.5" x2="778.7" y2="387.5"/>
			<line class="st4" x1="788.1" y1="403.9" x2="783.4" y2="399.5"/>
			<line class="st4" x1="792.7" y1="402.2" x2="788.1" y2="403.9"/>
			<line class="st4" x1="797.4" y1="400.4" x2="792.7" y2="402.2"/>
			<line class="st4" x1="802" y1="410.6" x2="797.4" y2="400.4"/>
			<line class="st4" x1="806.7" y1="420.2" x2="802" y2="410.6"/>
			<line class="st4" x1="811.4" y1="411" x2="806.7" y2="420.2"/>
			<line class="st4" x1="816" y1="414.1" x2="811.4" y2="411"/>
			<line class="st4" x1="820.7" y1="411" x2="816" y2="414.1"/>
			<line class="st4" x1="825.3" y1="414.2" x2="820.7" y2="411"/>
			<line class="st4" x1="830" y1="422.1" x2="825.3" y2="414.2"/>
			<line class="st4" x1="834.7" y1="416.8" x2="830" y2="422.1"/>
			<line class="st4" x1="839.3" y1="414.5" x2="834.7" y2="416.8"/>
			<line class="st4" x1="844" y1="418.4" x2="839.3" y2="414.5"/>
			<line class="st4" x1="848.7" y1="424.6" x2="844" y2="418.4"/>
			<line class="st4" x1="853.3" y1="423.1" x2="848.7" y2="424.6"/>
			<line class="st4" x1="858" y1="420.3" x2="853.3" y2="423.1"/>
			<line class="st4" x1="862.6" y1="421.2" x2="858" y2="420.3"/>
			<line class="st4" x1="867.3" y1="420.3" x2="862.6" y2="421.2"/>
			<line class="st4" x1="872" y1="401.8" x2="867.3" y2="420.3"/>
			<line class="st4" x1="876.6" y1="406.8" x2="872" y2="401.8"/>
			<line class="st4" x1="881.3" y1="395.4" x2="876.6" y2="406.8"/>
			<line class="st4" x1="885.9" y1="392.6" x2="881.3" y2="395.4"/>
			<line class="st4" x1="890.6" y1="393.8" x2="885.9" y2="392.6"/>
			<line class="st4" x1="895.3" y1="393.1" x2="890.6" y2="393.8"/>
			<line class="st4" x1="899.9" y1="395.3" x2="895.3" y2="393.1"/>
			<line class="st4" x1="904.6" y1="400.7" x2="899.9" y2="395.3"/>
			<line class="st4" x1="909.2" y1="390.7" x2="904.6" y2="400.7"/>
			<line class="st4" x1="913.9" y1="393.4" x2="909.2" y2="390.7"/>
			<line class="st4" x1="918.6" y1="393.3" x2="913.9" y2="393.4"/>
			<line class="st4" x1="923.2" y1="386.5" x2="918.6" y2="393.3"/>
			<line class="st4" x1="927.9" y1="386" x2="923.2" y2="386.5"/>
			<line class="st4" x1="932.5" y1="380.2" x2="927.9" y2="386"/>
			<line class="st4" x1="937.2" y1="381.5" x2="932.5" y2="380.2"/>
			<line class="st4" x1="941.9" y1="391.9" x2="937.2" y2="381.5"/>
			<line class="st4" x1="946.5" y1="404.6" x2="941.9" y2="391.9"/>
			<line class="st4" x1="951.2" y1="413.8" x2="946.5" y2="404.6"/>
			<line class="st4" x1="955.8" y1="431.1" x2="951.2" y2="413.8"/>
			<line class="st4" x1="960.5" y1="425.7" x2="955.8" y2="431.1"/>
			<line class="st4" x1="965.2" y1="433.9" x2="960.5" y2="425.7"/>
			<line class="st4" x1="969.8" y1="437.4" x2="965.2" y2="433.9"/>
			<line class="st4" x1="974.5" y1="438.9" x2="969.8" y2="437.4"/>
			<line class="st4" x1="979.2" y1="430.8" x2="974.5" y2="438.9"/>
			<line class="st4" x1="983.8" y1="431.5" x2="979.2" y2="430.8"/>
			<line class="st4" x1="988.5" y1="435.4" x2="983.8" y2="431.5"/>
			<line class="st4" x1="993.1" y1="427.8" x2="988.5" y2="435.4"/>
			<line class="st4" x1="997.8" y1="432.1" x2="993.1" y2="427.8"/>
			<line class="st4" x1="1002.5" y1="429.2" x2="997.8" y2="432.1"/>
			<line class="st4" x1="1007.1" y1="429.2" x2="1002.5" y2="429.2"/>
			<line class="st4" x1="1011.8" y1="422.7" x2="1007.1" y2="429.2"/>
			<line class="st4" x1="1016.4" y1="424.2" x2="1011.8" y2="422.7"/>
			<line class="st4" x1="1021.1" y1="430.1" x2="1016.4" y2="424.2"/>
			<line class="st4" x1="1025.8" y1="429.5" x2="1021.1" y2="430.1"/>
			<line class="st4" x1="1030.4" y1="431.3" x2="1025.8" y2="429.5"/>
			<line class="st4" x1="1035.1" y1="429" x2="1030.4" y2="431.3"/>
			<line class="st4" x1="1039.7" y1="425.5" x2="1035.1" y2="429"/>
			<line class="st4" x1="1044.4" y1="424.4" x2="1039.7" y2="425.5"/>
			<line class="st4" x1="1049.1" y1="419.5" x2="1044.4" y2="424.4"/>
			<line class="st4" x1="1053.7" y1="418.5" x2="1049.1" y2="419.5"/>
			<line class="st4" x1="1058.4" y1="417.4" x2="1053.7" y2="418.5"/>
			<line class="st4" x1="1063" y1="420.4" x2="1058.4" y2="417.4"/>
			<line class="st4" x1="1067.7" y1="422.6" x2="1063" y2="420.4"/>
			<line class="st4" x1="1072.4" y1="429.7" x2="1067.7" y2="422.6"/>
			<line class="st4" x1="1077" y1="432.6" x2="1072.4" y2="429.7"/>
			<line class="st4" x1="1081.7" y1="430.5" x2="1077" y2="432.6"/>
			<line class="st4" x1="1086.3" y1="432.1" x2="1081.7" y2="430.5"/>
			<line class="st4" x1="1091" y1="420.5" x2="1086.3" y2="432.1"/>
			<line class="st4" x1="1095.7" y1="417.4" x2="1091" y2="420.5"/>
			<line class="st4" x1="1100.3" y1="406.2" x2="1095.7" y2="417.4"/>
			<line class="st4" x1="1105" y1="396" x2="1100.3" y2="406.2"/>
			<line class="st4" x1="1109.7" y1="389" x2="1105" y2="396"/>
			<line class="st4" x1="1114.3" y1="392.1" x2="1109.7" y2="389"/>
			<line class="st4" x1="1119" y1="393.9" x2="1114.3" y2="392.1"/>
			<line class="st4" x1="1123.6" y1="399.5" x2="1119" y2="393.9"/>
			<line class="st4" x1="1128.3" y1="401.5" x2="1123.6" y2="399.5"/>
			<line class="st4" x1="1133" y1="400.1" x2="1128.3" y2="401.5"/>
			<line class="st4" x1="1137.6" y1="391.9" x2="1133" y2="400.1"/>
			<line class="st4" x1="1142.3" y1="389.6" x2="1137.6" y2="391.9"/>
			<line class="st4" x1="1146.9" y1="387" x2="1142.3" y2="389.6"/>
			<line class="st4" x1="1151.6" y1="390.5" x2="1146.9" y2="387"/>
			<line class="st4" x1="1156.3" y1="397.7" x2="1151.6" y2="390.5"/>
			<line class="st4" x1="1160.9" y1="395.1" x2="1156.3" y2="397.7"/>
			<line class="st4" x1="1165.6" y1="389.7" x2="1160.9" y2="395.1"/>
			<line class="st4" x1="1170.2" y1="390.3" x2="1165.6" y2="389.7"/>
			<line class="st4" x1="1174.9" y1="390.4" x2="1170.2" y2="390.3"/>
			<line class="st4" x1="1179.6" y1="393.1" x2="1174.9" y2="390.4"/>
			<line class="st4" x1="1184.2" y1="382.2" x2="1179.6" y2="393.1"/>
		</g>
	</g>
	<g>
		<g>
			<line class="st5" x1="70.3" y1="190" x2="65.6" y2="190"/>
			<line class="st5" x1="75" y1="191.5" x2="70.3" y2="190"/>
			<line class="st5" x1="79.6" y1="197.5" x2="75" y2="191.5"/>
			<line class="st5" x1="84.3" y1="190.9" x2="79.6" y2="197.5"/>
			<line class="st5" x1="89" y1="198.6" x2="84.3" y2="190.9"/>
			<line class="st5" x1="93.6" y1="194.9" x2="89" y2="198.6"/>
			<line class="st5" x1="98.3" y1="196.6" x2="93.6" y2="194.9"/>
			<line class="st5" x1="102.9" y1="197.4" x2="98.3" y2="196.6"/>
			<line class="st5" x1="107.6" y1="195.8" x2="102.9" y2="197.4"/>
			<line class="st5" x1="112.3" y1="196" x2="107.6" y2="195.8"/>
			<line class="st5" x1="116.9" y1="193.6" x2="112.3" y2="196"/>
			<line class="st5" x1="121.6" y1="197" x2="116.9" y2="193.6"/>
			<line class="st5" x1="126.2" y1="203.9" x2="121.6" y2="197"/>
			<line class="st5" x1="130.9" y1="203.8" x2="126.2" y2="203.9"/>
			<line class="st5" x1="135.6" y1="205.6" x2="130.9" y2="203.8"/>
			<line class="st5" x1="140.2" y1="203.8" x2="135.6" y2="205.6"/>
			<line class="st5" x1="144.9" y1="209.7" x2="140.2" y2="203.8"/>
			<line class="st5" x1="149.5" y1="213.6" x2="144.9" y2="209.7"/>
			<line class="st5" x1="154.2" y1="221.7" x2="149.5" y2="213.6"/>
			<line class="st5" x1="158.9" y1="218.1" x2="154.2" y2="221.7"/>
			<line class="st5" x1="163.5" y1="222.3" x2="158.9" y2="218.1"/>
			<line class="st5" x1="168.2" y1="224.7" x2="163.5" y2="222.3"/>
			<line class="st5" x1="172.8" y1="225.7" x2="168.2" y2="224.7"/>
			<line class="st5" x1="177.5" y1="225.6" x2="172.8" y2="225.7"/>
			<line class="st5" x1="182.2" y1="220.8" x2="177.5" y2="225.6"/>
			<line class="st5" x1="186.8" y1="223" x2="182.2" y2="220.8"/>
			<line class="st5" x1="191.5" y1="227.9" x2="186.8" y2="223"/>
			<line class="st5" x1="196.1" y1="237.5" x2="191.5" y2="227.9"/>
			<line class="st5" x1="200.8" y1="239.4" x2="196.1" y2="237.5"/>
			<line class="st5" x1="205.5" y1="234" x2="200.8" y2="239.4"/>
			<line class="st5" x1="210.1" y1="238.4" x2="205.5" y2="234"/>
			<line class="st5" x1="214.8" y1="242.3" x2="210.1" y2="238.4"/>
			<line class="st5" x1="219.5" y1="241.7" x2="214.8" y2="242.3"/>
			<line class="st5" x1="224.1" y1="242.6" x2="219.5" y2="241.7"/>
			<line class="st5" x1="228.8" y1="249.7" x2="224.1" y2="242.6"/>
			<line class="st5" x1="233.4" y1="248.7" x2="228.8" y2="249.7"/>
			<line class="st5" x1="238.1" y1="257.5" x2="233.4" y2="248.7"/>
			<line class="st5" x1="242.8" y1="249.5" x2="238.1" y2="257.5"/>
			<line class="st5" x1="247.4" y1="258.7" x2="242.8" y2="249.5"/>
			<line class="st5" x1="252.1" y1="258.4" x2="247.4" y2="258.7"/>
			<line class="st5" x1="256.7" y1="262" x2="252.1" y2="258.4"/>
			<line class="st5" x1="261.4" y1="257.1" x2="256.7" y2="262"/>
			<line class="st5" x1="266.1" y1="261" x2="261.4" y2="257.1"/>
			<line class="st5" x1="270.7" y1="243.8" x2="266.1" y2="261"/>
			<line class="st5" x1="275.4" y1="235.6" x2="270.7" y2="243.8"/>
			<line class="st5" x1="280" y1="234.5" x2="275.4" y2="235.6"/>
			<line class="st5" x1="284.7" y1="237" x2="280" y2="234.5"/>
			<line class="st5" x1="289.4" y1="233.6" x2="284.7" y2="237"/>
			<line class="st5" x1="294" y1="244.8" x2="289.4" y2="233.6"/>
			<line class="st5" x1="298.7" y1="250" x2="294" y2="244.8"/>
			<line class="st5" x1="303.3" y1="262.2" x2="298.7" y2="250"/>
			<line class="st5" x1="308" y1="286.9" x2="303.3" y2="262.2"/>
			<line class="st5" x1="312.7" y1="287.7" x2="308" y2="286.9"/>
			<line class="st5" x1="317.3" y1="306.9" x2="312.7" y2="287.7"/>
			<line class="st5" x1="322" y1="324" x2="317.3" y2="306.9"/>
			<line class="st5" x1="326.6" y1="358.8" x2="322" y2="324"/>
			<line class="st5" x1="331.3" y1="383.4" x2="326.6" y2="358.8"/>
			<line class="st5" x1="336" y1="378.8" x2="331.3" y2="383.4"/>
			<line class="st5" x1="340.6" y1="384.6" x2="336" y2="378.8"/>
			<line class="st5" x1="345.3" y1="369.9" x2="340.6" y2="384.6"/>
			<line class="st5" x1="350" y1="356.1" x2="345.3" y2="369.9"/>
			<line class="st5" x1="354.6" y1="338.1" x2="350" y2="356.1"/>
			<line class="st5" x1="359.3" y1="339" x2="354.6" y2="338.1"/>
			<line class="st5" x1="363.9" y1="355" x2="359.3" y2="339"/>
			<line class="st5" x1="368.6" y1="356.6" x2="363.9" y2="355"/>
			<line class="st5" x1="373.3" y1="372.3" x2="368.6" y2="356.6"/>
			<line class="st5" x1="377.9" y1="377.3" x2="373.3" y2="372.3"/>
			<line class="st5" x1="382.6" y1="391.1" x2="377.9" y2="377.3"/>
			<line class="st5" x1="387.2" y1="386.2" x2="382.6" y2="391.1"/>
			<line class="st5" x1="391.9" y1="366.5" x2="387.2" y2="386.2"/>
			<line class="st5" x1="396.6" y1="368.2" x2="391.9" y2="366.5"/>
			<line class="st5" x1="401.2" y1="352.9" x2="396.6" y2="368.2"/>
			<line class="st5" x1="405.9" y1="351.6" x2="401.2" y2="352.9"/>
			<line class="st5" x1="410.5" y1="355.7" x2="405.9" y2="351.6"/>
			<line class="st5" x1="415.2" y1="348.9" x2="410.5" y2="355.7"/>
			<line class="st5" x1="419.9" y1="366.2" x2="415.2" y2="348.9"/>
			<line class="st5" x1="424.5" y1="374.4" x2="419.9" y2="366.2"/>
			<line class="st5" x1="429.2" y1="370.6" x2="424.5" y2="374.4"/>
			<line class="st5" x1="433.8" y1="376.6" x2="429.2" y2="370.6"/>
			<line class="st5" x1="438.5" y1="384.3" x2="433.8" y2="376.6"/>
			<line class="st5" x1="443.2" y1="388" x2="438.5" y2="384.3"/>
			<line class="st5" x1="447.8" y1="388.5" x2="443.2" y2="388"/>
			<line class="st5" x1="452.5" y1="381.2" x2="447.8" y2="388.5"/>
			<line class="st5" x1="457.1" y1="378.9" x2="452.5" y2="381.2"/>
			<line class="st5" x1="461.8" y1="379.2" x2="457.1" y2="378.9"/>
			<line class="st5" x1="466.5" y1="364.8" x2="461.8" y2="379.2"/>
			<line class="st5" x1="471.1" y1="363.9" x2="466.5" y2="364.8"/>
			<line class="st5" x1="475.8" y1="369.3" x2="471.1" y2="363.9"/>
			<line class="st5" x1="480.5" y1="370.7" x2="475.8" y2="369.3"/>
			<line class="st5" x1="485.1" y1="371.5" x2="480.5" y2="370.7"/>
			<line class="st5" x1="489.8" y1="383.2" x2="485.1" y2="371.5"/>
			<line class="st5" x1="494.4" y1="376.8" x2="489.8" y2="383.2"/>
			<line class="st5" x1="499.1" y1="371.5" x2="494.4" y2="376.8"/>
			<line class="st5" x1="503.8" y1="377.4" x2="499.1" y2="371.5"/>
			<line class="st5" x1="508.4" y1="372.8" x2="503.8" y2="377.4"/>
			<line class="st5" x1="513.1" y1="377.7" x2="508.4" y2="372.8"/>
			<line class="st5" x1="517.7" y1="377" x2="513.1" y2="377.7"/>
			<line class="st5" x1="522.4" y1="377.8" x2="517.7" y2="377"/>
			<line class="st5" x1="527.1" y1="364.1" x2="522.4" y2="377.8"/>
			<line class="st5" x1="531.7" y1="356.6" x2="527.1" y2="364.1"/>
			<line class="st5" x1="536.4" y1="343.6" x2="531.7" y2="356.6"/>
			<line class="st5" x1="541" y1="339.7" x2="536.4" y2="343.6"/>
			<line class="st5" x1="545.7" y1="348.3" x2="541" y2="339.7"/>
			<line class="st5" x1="550.4" y1="348.5" x2="545.7" y2="348.3"/>
			<line class="st5" x1="555" y1="329.5" x2="550.4" y2="348.5"/>
			<line class="st5" x1="559.7" y1="329.6" x2="555" y2="329.5"/>
			<line class="st5" x1="564.3" y1="325.1" x2="559.7" y2="329.6"/>
			<line class="st5" x1="569" y1="320.5" x2="564.3" y2="325.1"/>
			<line class="st5" x1="573.7" y1="308.4" x2="569" y2="320.5"/>
			<line class="st5" x1="578.3" y1="297.9" x2="573.7" y2="308.4"/>
			<line class="st5" x1="583" y1="291.4" x2="578.3" y2="297.9"/>
			<line class="st5" x1="587.6" y1="285.8" x2="583" y2="291.4"/>
			<line class="st5" x1="592.3" y1="288.1" x2="587.6" y2="285.8"/>
			<line class="st5" x1="597" y1="283.8" x2="592.3" y2="288.1"/>
			<line class="st5" x1="601.6" y1="281.5" x2="597" y2="283.8"/>
			<line class="st5" x1="606.3" y1="277" x2="601.6" y2="281.5"/>
			<line class="st5" x1="611" y1="299" x2="606.3" y2="277"/>
			<line class="st5" x1="615.6" y1="299.8" x2="611" y2="299"/>
			<line class="st5" x1="620.3" y1="291.5" x2="615.6" y2="299.8"/>
			<line class="st5" x1="624.9" y1="299.4" x2="620.3" y2="291.5"/>
			<line class="st5" x1="629.6" y1="301.2" x2="624.9" y2="299.4"/>
			<line class="st5" x1="634.3" y1="308.6" x2="629.6" y2="301.2"/>
			<line class="st5" x1="638.9" y1="309.4" x2="634.3" y2="308.6"/>
			<line class="st5" x1="643.6" y1="300.9" x2="638.9" y2="309.4"/>
			<line class="st5" x1="648.2" y1="296" x2="643.6" y2="300.9"/>
			<line class="st5" x1="652.9" y1="306.6" x2="648.2" y2="296"/>
			<line class="st5" x1="657.6" y1="307" x2="652.9" y2="306.6"/>
			<line class="st5" x1="662.2" y1="312.1" x2="657.6" y2="307"/>
			<line class="st5" x1="666.9" y1="310.8" x2="662.2" y2="312.1"/>
			<line class="st5" x1="671.5" y1="312.3" x2="666.9" y2="310.8"/>
			<line class="st5" x1="676.2" y1="306.8" x2="671.5" y2="312.3"/>
			<line class="st5" x1="680.9" y1="305.5" x2="676.2" y2="306.8"/>
			<line class="st5" x1="685.5" y1="308.8" x2="680.9" y2="305.5"/>
			<line class="st5" x1="690.2" y1="303.5" x2="685.5" y2="308.8"/>
			<line class="st5" x1="694.8" y1="309.8" x2="690.2" y2="303.5"/>
			<line class="st5" x1="699.5" y1="301.7" x2="694.8" y2="309.8"/>
			<line class="st5" x1="704.2" y1="302.8" x2="699.5" y2="301.7"/>
			<line class="st5" x1="708.8" y1="300.8" x2="704.2" y2="302.8"/>
			<line class="st5" x1="713.5" y1="300.7" x2="708.8" y2="300.8"/>
			<line class="st5" x1="718.2" y1="294.1" x2="713.5" y2="300.7"/>
			<line class="st5" x1="722.8" y1="290.4" x2="718.2" y2="294.1"/>
			<line class="st5" x1="727.5" y1="296.1" x2="722.8" y2="290.4"/>
			<line class="st5" x1="732.1" y1="292" x2="727.5" y2="296.1"/>
			<line class="st5" x1="736.8" y1="286.8" x2="732.1" y2="292"/>
			<line class="st5" x1="741.5" y1="270.5" x2="736.8" y2="286.8"/>
			<line class="st5" x1="746.1" y1="268" x2="741.5" y2="270.5"/>
			<line class="st5" x1="750.8" y1="266" x2="746.1" y2="268"/>
			<line class="st5" x1="755.4" y1="260.3" x2="750.8" y2="266"/>
			<line class="st5" x1="760.1" y1="249" x2="755.4" y2="260.3"/>
			<line class="st5" x1="764.8" y1="259" x2="760.1" y2="249"/>
			<line class="st5" x1="769.4" y1="252.2" x2="764.8" y2="259"/>
			<line class="st5" x1="774.1" y1="251" x2="769.4" y2="252.2"/>
			<line class="st5" x1="778.7" y1="261.8" x2="774.1" y2="251"/>
			<line class="st5" x1="783.4" y1="262.2" x2="778.7" y2="261.8"/>
			<line class="st5" x1="788.1" y1="259" x2="783.4" y2="262.2"/>
			<line class="st5" x1="792.7" y1="254.5" x2="788.1" y2="259"/>
			<line class="st5" x1="797.4" y1="263.6" x2="792.7" y2="254.5"/>
			<line class="st5" x1="802" y1="273.6" x2="797.4" y2="263.6"/>
			<line class="st5" x1="806.7" y1="276.4" x2="802" y2="273.6"/>
			<line class="st5" x1="811.4" y1="272" x2="806.7" y2="276.4"/>
			<line class="st5" x1="816" y1="271.8" x2="811.4" y2="272"/>
			<line class="st5" x1="820.7" y1="266.8" x2="816" y2="271.8"/>
			<line class="st5" x1="825.3" y1="265" x2="820.7" y2="266.8"/>
			<line class="st5" x1="830" y1="267.7" x2="825.3" y2="265"/>
			<line class="st5" x1="834.7" y1="258" x2="830" y2="267.7"/>
			<line class="st5" x1="839.3" y1="264.9" x2="834.7" y2="258"/>
			<line class="st5" x1="844" y1="263.2" x2="839.3" y2="264.9"/>
			<line class="st5" x1="848.7" y1="273.6" x2="844" y2="263.2"/>
			<line class="st5" x1="853.3" y1="273" x2="848.7" y2="273.6"/>
			<line class="st5" x1="858" y1="271.3" x2="853.3" y2="273"/>
			<line class="st5" x1="862.6" y1="274.4" x2="858" y2="271.3"/>
			<line class="st5" x1="867.3" y1="275.7" x2="862.6" y2="274.4"/>
			<line class="st5" x1="872" y1="258.3" x2="867.3" y2="275.7"/>
			<line class="st5" x1="876.6" y1="261.4" x2="872" y2="258.3"/>
			<line class="st5" x1="881.3" y1="260.2" x2="876.6" y2="261.4"/>
			<line class="st5" x1="885.9" y1="274" x2="881.3" y2="260.2"/>
			<line class="st5" x1="890.6" y1="276.2" x2="885.9" y2="274"/>
			<line class="st5" x1="895.3" y1="280.1" x2="890.6" y2="276.2"/>
			<line class="st5" x1="899.9" y1="282.5" x2="895.3" y2="280.1"/>
			<line class="st5" x1="904.6" y1="289.7" x2="899.9" y2="282.5"/>
			<line class="st5" x1="909.2" y1="280.9" x2="904.6" y2="289.7"/>
			<line class="st5" x1="913.9" y1="283.6" x2="909.2" y2="280.9"/>
			<line class="st5" x1="918.6" y1="278.7" x2="913.9" y2="283.6"/>
			<line class="st5" x1="923.2" y1="277.9" x2="918.6" y2="278.7"/>
			<line class="st5" x1="927.9" y1="278" x2="923.2" y2="277.9"/>
			<line class="st5" x1="932.5" y1="278.9" x2="927.9" y2="278"/>
			<line class="st5" x1="937.2" y1="277.7" x2="932.5" y2="278.9"/>
			<line class="st5" x1="941.9" y1="281.8" x2="937.2" y2="277.7"/>
			<line class="st5" x1="946.5" y1="300.7" x2="941.9" y2="281.8"/>
			<line class="st5" x1="951.2" y1="305.2" x2="946.5" y2="300.7"/>
			<line class="st5" x1="955.8" y1="318" x2="951.2" y2="305.2"/>
			<line class="st5" x1="960.5" y1="315.7" x2="955.8" y2="318"/>
			<line class="st5" x1="965.2" y1="324" x2="960.5" y2="315.7"/>
			<line class="st5" x1="969.8" y1="328.8" x2="965.2" y2="324"/>
			<line class="st5" x1="974.5" y1="317.7" x2="969.8" y2="328.8"/>
			<line class="st5" x1="979.2" y1="311.6" x2="974.5" y2="317.7"/>
			<line class="st5" x1="983.8" y1="301.3" x2="979.2" y2="311.6"/>
			<line class="st5" x1="988.5" y1="308.6" x2="983.8" y2="301.3"/>
			<line class="st5" x1="993.1" y1="303.5" x2="988.5" y2="308.6"/>
			<line class="st5" x1="997.8" y1="309.7" x2="993.1" y2="303.5"/>
			<line class="st5" x1="1002.5" y1="306.5" x2="997.8" y2="309.7"/>
			<line class="st5" x1="1007.1" y1="306.3" x2="1002.5" y2="306.5"/>
			<line class="st5" x1="1011.8" y1="294.1" x2="1007.1" y2="306.3"/>
			<line class="st5" x1="1016.4" y1="298" x2="1011.8" y2="294.1"/>
			<line class="st5" x1="1021.1" y1="309" x2="1016.4" y2="298"/>
			<line class="st5" x1="1025.8" y1="312.2" x2="1021.1" y2="309"/>
			<line class="st5" x1="1030.4" y1="320.3" x2="1025.8" y2="312.2"/>
			<line class="st5" x1="1035.1" y1="317.1" x2="1030.4" y2="320.3"/>
			<line class="st5" x1="1039.7" y1="312.9" x2="1035.1" y2="317.1"/>
			<line class="st5" x1="1044.4" y1="304.2" x2="1039.7" y2="312.9"/>
			<line class="st5" x1="1049.1" y1="298.3" x2="1044.4" y2="304.2"/>
			<line class="st5" x1="1053.7" y1="303.1" x2="1049.1" y2="298.3"/>
			<line class="st5" x1="1058.4" y1="299.3" x2="1053.7" y2="303.1"/>
			<line class="st5" x1="1063" y1="307.6" x2="1058.4" y2="299.3"/>
			<line class="st5" x1="1067.7" y1="312.6" x2="1063" y2="307.6"/>
			<line class="st5" x1="1072.4" y1="328.7" x2="1067.7" y2="312.6"/>
			<line class="st5" x1="1077" y1="333.6" x2="1072.4" y2="328.7"/>
			<line class="st5" x1="1081.7" y1="333.3" x2="1077" y2="333.6"/>
			<line class="st5" x1="1086.3" y1="336.2" x2="1081.7" y2="333.3"/>
			<line class="st5" x1="1091" y1="319.4" x2="1086.3" y2="336.2"/>
			<line class="st5" x1="1095.7" y1="313.1" x2="1091" y2="319.4"/>
			<line class="st5" x1="1100.3" y1="296.2" x2="1095.7" y2="313.1"/>
			<line class="st5" x1="1105" y1="292.3" x2="1100.3" y2="296.2"/>
			<line class="st5" x1="1109.7" y1="283.3" x2="1105" y2="292.3"/>
			<line class="st5" x1="1114.3" y1="286.8" x2="1109.7" y2="283.3"/>
			<line class="st5" x1="1119" y1="283.7" x2="1114.3" y2="286.8"/>
			<line class="st5" x1="1123.6" y1="280.6" x2="1119" y2="283.7"/>
			<line class="st5" x1="1128.3" y1="276.1" x2="1123.6" y2="280.6"/>
			<line class="st5" x1="1133" y1="271.9" x2="1128.3" y2="276.1"/>
			<line class="st5" x1="1137.6" y1="274.4" x2="1133" y2="271.9"/>
			<line class="st5" x1="1142.3" y1="272.6" x2="1137.6" y2="274.4"/>
			<line class="st5" x1="1146.9" y1="267.2" x2="1142.3" y2="272.6"/>
			<line class="st5" x1="1151.6" y1="270.7" x2="1146.9" y2="267.2"/>
			<line class="st5" x1="1156.3" y1="277" x2="1151.6" y2="270.7"/>
			<line class="st5" x1="1160.9" y1="269.4" x2="1156.3" y2="277"/>
			<line class="st5" x1="1165.6" y1="265.4" x2="1160.9" y2="269.4"/>
			<line class="st5" x1="1170.2" y1="266.1" x2="1165.6" y2="265.4"/>
			<line class="st5" x1="1174.9" y1="263.4" x2="1170.2" y2="266.1"/>
			<line class="st5" x1="1179.6" y1="268.5" x2="1174.9" y2="263.4"/>
			<line class="st5" x1="1184.2" y1="252.7" x2="1179.6" y2="268.5"/>
		</g>
	</g>
	<g>
		<g>
			<line class="st6" x1="70.3" y1="191.9" x2="65.6" y2="190"/>
			<line class="st6" x1="75" y1="193.8" x2="70.3" y2="191.9"/>
			<line class="st6" x1="79.6" y1="198" x2="75" y2="193.8"/>
			<line class="st6" x1="84.3" y1="199.3" x2="79.6" y2="198"/>
			<line class="st6" x1="89" y1="196.5" x2="84.3" y2="199.3"/>
			<line class="st6" x1="93.6" y1="197.9" x2="89" y2="196.5"/>
			<line class="st6" x1="98.3" y1="192.6" x2="93.6" y2="197.9"/>
			<line class="st6" x1="102.9" y1="189.6" x2="98.3" y2="192.6"/>
			<line class="st6" x1="107.6" y1="185.1" x2="102.9" y2="189.6"/>
			<line class="st6" x1="112.3" y1="186.4" x2="107.6" y2="185.1"/>
			<line class="st6" x1="116.9" y1="187.3" x2="112.3" y2="186.4"/>
			<line class="st6" x1="121.6" y1="187.7" x2="116.9" y2="187.3"/>
			<line class="st6" x1="126.2" y1="187.4" x2="121.6" y2="187.7"/>
			<line class="st6" x1="130.9" y1="187.4" x2="126.2" y2="187.4"/>
			<line class="st6" x1="135.6" y1="191.5" x2="130.9" y2="187.4"/>
			<line class="st6" x1="140.2" y1="190.1" x2="135.6" y2="191.5"/>
			<line class="st6" x1="144.9" y1="193.3" x2="140.2" y2="190.1"/>
			<line class="st6" x1="149.5" y1="191" x2="144.9" y2="193.3"/>
			<line class="st6" x1="154.2" y1="195.1" x2="149.5" y2="191"/>
			<line class="st6" x1="158.9" y1="196.7" x2="154.2" y2="195.1"/>
			<line class="st6" x1="163.5" y1="197.4" x2="158.9" y2="196.7"/>
			<line class="st6" x1="168.2" y1="201.6" x2="163.5" y2="197.4"/>
			<line class="st6" x1="172.8" y1="202.8" x2="168.2" y2="201.6"/>
			<line class="st6" x1="177.5" y1="207.4" x2="172.8" y2="202.8"/>
			<line class="st6" x1="182.2" y1="204.2" x2="177.5" y2="207.4"/>
			<line class="st6" x1="186.8" y1="205" x2="182.2" y2="204.2"/>
			<line class="st6" x1="191.5" y1="203.8" x2="186.8" y2="205"/>
			<line class="st6" x1="196.1" y1="208.6" x2="191.5" y2="203.8"/>
			<line class="st6" x1="200.8" y1="208.6" x2="196.1" y2="208.6"/>
			<line class="st6" x1="205.5" y1="204.9" x2="200.8" y2="208.6"/>
			<line class="st6" x1="210.1" y1="204" x2="205.5" y2="204.9"/>
			<line class="st6" x1="214.8" y1="205.3" x2="210.1" y2="204"/>
			<line class="st6" x1="219.5" y1="206.2" x2="214.8" y2="205.3"/>
			<line class="st6" x1="224.1" y1="205.7" x2="219.5" y2="206.2"/>
			<line class="st6" x1="228.8" y1="209.4" x2="224.1" y2="205.7"/>
			<line class="st6" x1="233.4" y1="209.8" x2="228.8" y2="209.4"/>
			<line class="st6" x1="238.1" y1="216.1" x2="233.4" y2="209.8"/>
			<line class="st6" x1="242.8" y1="220" x2="238.1" y2="216.1"/>
			<line class="st6" x1="247.4" y1="225.9" x2="242.8" y2="220"/>
			<line class="st6" x1="252.1" y1="224.7" x2="247.4" y2="225.9"/>
			<line class="st6" x1="256.7" y1="226.1" x2="252.1" y2="224.7"/>
			<line class="st6" x1="261.4" y1="223.6" x2="256.7" y2="226.1"/>
			<line class="st6" x1="266.1" y1="227.2" x2="261.4" y2="223.6"/>
			<line class="st6" x1="270.7" y1="221.4" x2="266.1" y2="227.2"/>
			<line class="st6" x1="275.4" y1="222.1" x2="270.7" y2="221.4"/>
			<line class="st6" x1="280" y1="215.7" x2="275.4" y2="222.1"/>
			<line class="st6" x1="284.7" y1="216.4" x2="280" y2="215.7"/>
			<line class="st6" x1="289.4" y1="219.2" x2="284.7" y2="216.4"/>
			<line class="st6" x1="294" y1="226" x2="289.4" y2="219.2"/>
			<line class="st6" x1="298.7" y1="224.9" x2="294" y2="226"/>
			<line class="st6" x1="303.3" y1="225.2" x2="298.7" y2="224.9"/>
			<line class="st6" x1="308" y1="237.1" x2="303.3" y2="225.2"/>
			<line class="st6" x1="312.7" y1="241.7" x2="308" y2="237.1"/>
			<line class="st6" x1="317.3" y1="250.1" x2="312.7" y2="241.7"/>
			<line class="st6" x1="322" y1="258" x2="317.3" y2="250.1"/>
			<line class="st6" x1="326.6" y1="261.7" x2="322" y2="258"/>
			<line class="st6" x1="331.3" y1="278.2" x2="326.6" y2="261.7"/>
			<line class="st6" x1="336" y1="272.2" x2="331.3" y2="278.2"/>
			<line class="st6" x1="340.6" y1="287.4" x2="336" y2="272.2"/>
			<line class="st6" x1="345.3" y1="280" x2="340.6" y2="287.4"/>
			<line class="st6" x1="350" y1="278" x2="345.3" y2="280"/>
			<line class="st6" x1="354.6" y1="269.5" x2="350" y2="278"/>
			<line class="st6" x1="359.3" y1="264.2" x2="354.6" y2="269.5"/>
			<line class="st6" x1="363.9" y1="268.8" x2="359.3" y2="264.2"/>
			<line class="st6" x1="368.6" y1="266.6" x2="363.9" y2="268.8"/>
			<line class="st6" x1="373.3" y1="276.2" x2="368.6" y2="266.6"/>
			<line class="st6" x1="377.9" y1="274.7" x2="373.3" y2="276.2"/>
			<line class="st6" x1="382.6" y1="274.9" x2="377.9" y2="274.7"/>
			<line class="st6" x1="387.2" y1="272.4" x2="382.6" y2="274.9"/>
			<line class="st6" x1="391.9" y1="265.2" x2="387.2" y2="272.4"/>
			<line class="st6" x1="396.6" y1="267.6" x2="391.9" y2="265.2"/>
			<line class="st6" x1="401.2" y1="261.9" x2="396.6" y2="267.6"/>
			<line class="st6" x1="405.9" y1="258.8" x2="401.2" y2="261.9"/>
			<line class="st6" x1="410.5" y1="259.3" x2="405.9" y2="258.8"/>
			<line class="st6" x1="415.2" y1="259" x2="410.5" y2="259.3"/>
			<line class="st6" x1="419.9" y1="260.6" x2="415.2" y2="259"/>
			<line class="st6" x1="424.5" y1="266" x2="419.9" y2="260.6"/>
			<line class="st6" x1="429.2" y1="261.1" x2="424.5" y2="266"/>
			<line class="st6" x1="433.8" y1="260.3" x2="429.2" y2="261.1"/>
			<line class="st6" x1="438.5" y1="265.1" x2="433.8" y2="260.3"/>
			<line class="st6" x1="443.2" y1="262.5" x2="438.5" y2="265.1"/>
			<line class="st6" x1="447.8" y1="259.2" x2="443.2" y2="262.5"/>
			<line class="st6" x1="452.5" y1="262" x2="447.8" y2="259.2"/>
			<line class="st6" x1="457.1" y1="258.9" x2="452.5" y2="262"/>
			<line class="st6" x1="461.8" y1="259.1" x2="457.1" y2="258.9"/>
			<line class="st6" x1="466.5" y1="253.3" x2="461.8" y2="259.1"/>
			<line class="st6" x1="471.1" y1="243.4" x2="466.5" y2="253.3"/>
			<line class="st6" x1="475.8" y1="246.6" x2="471.1" y2="243.4"/>
			<line class="st6" x1="480.5" y1="251.9" x2="475.8" y2="246.6"/>
			<line class="st6" x1="485.1" y1="249.7" x2="480.5" y2="251.9"/>
			<line class="st6" x1="489.8" y1="251.9" x2="485.1" y2="249.7"/>
			<line class="st6" x1="494.4" y1="251.3" x2="489.8" y2="251.9"/>
			<line class="st6" x1="499.1" y1="248" x2="494.4" y2="251.3"/>
			<line class="st6" x1="503.8" y1="248.5" x2="499.1" y2="248"/>
			<line class="st6" x1="508.4" y1="248.2" x2="503.8" y2="248.5"/>
			<line class="st6" x1="513.1" y1="247.7" x2="508.4" y2="248.2"/>
			<line class="st6" x1="517.7" y1="250.2" x2="513.1" y2="247.7"/>
			<line class="st6" x1="522.4" y1="252.1" x2="517.7" y2="250.2"/>
			<line class="st6" x1="527.1" y1="253.3" x2="522.4" y2="252.1"/>
			<line class="st6" x1="531.7" y1="248.8" x2="527.1" y2="253.3"/>
			<line class="st6" x1="536.4" y1="248.2" x2="531.7" y2="248.8"/>
			<line class="st6" x1="541" y1="248.4" x2="536.4" y2="248.2"/>
			<line class="st6" x1="545.7" y1="252.4" x2="541" y2="248.4"/>
			<line class="st6" x1="550.4" y1="254.3" x2="545.7" y2="252.4"/>
			<line class="st6" x1="555" y1="250.4" x2="550.4" y2="254.3"/>
			<line class="st6" x1="559.7" y1="251.4" x2="555" y2="250.4"/>
			<line class="st6" x1="564.3" y1="251.6" x2="559.7" y2="251.4"/>
			<line class="st6" x1="569" y1="248.4" x2="564.3" y2="251.6"/>
			<line class="st6" x1="573.7" y1="242.8" x2="569" y2="248.4"/>
			<line class="st6" x1="578.3" y1="237.4" x2="573.7" y2="242.8"/>
			<line class="st6" x1="583" y1="231.4" x2="578.3" y2="237.4"/>
			<line class="st6" x1="587.6" y1="232.1" x2="583" y2="231.4"/>
			<line class="st6" x1="592.3" y1="225.2" x2="587.6" y2="232.1"/>
			<line class="st6" x1="597" y1="223.8" x2="592.3" y2="225.2"/>
			<line class="st6" x1="601.6" y1="223.4" x2="597" y2="223.8"/>
			<line class="st6" x1="606.3" y1="219.6" x2="601.6" y2="223.4"/>
			<line class="st6" x1="611" y1="223.2" x2="606.3" y2="219.6"/>
			<line class="st6" x1="615.6" y1="226.1" x2="611" y2="223.2"/>
			<line class="st6" x1="620.3" y1="229.1" x2="615.6" y2="226.1"/>
			<line class="st6" x1="624.9" y1="227.7" x2="620.3" y2="229.1"/>
			<line class="st6" x1="629.6" y1="228.1" x2="624.9" y2="227.7"/>
			<line class="st6" x1="634.3" y1="227.5" x2="629.6" y2="228.1"/>
			<line class="st6" x1="638.9" y1="226.8" x2="634.3" y2="227.5"/>
			<line class="st6" x1="643.6" y1="227.6" x2="638.9" y2="226.8"/>
			<line class="st6" x1="648.2" y1="225.4" x2="643.6" y2="227.6"/>
			<line class="st6" x1="652.9" y1="223.4" x2="648.2" y2="225.4"/>
			<line class="st6" x1="657.6" y1="224.7" x2="652.9" y2="223.4"/>
			<line class="st6" x1="662.2" y1="225.1" x2="657.6" y2="224.7"/>
			<line class="st6" x1="666.9" y1="224.3" x2="662.2" y2="225.1"/>
			<line class="st6" x1="671.5" y1="225" x2="666.9" y2="224.3"/>
			<line class="st6" x1="676.2" y1="226.1" x2="671.5" y2="225"/>
			<line class="st6" x1="680.9" y1="225.3" x2="676.2" y2="226.1"/>
			<line class="st6" x1="685.5" y1="225.6" x2="680.9" y2="225.3"/>
			<line class="st6" x1="690.2" y1="222.3" x2="685.5" y2="225.6"/>
			<line class="st6" x1="694.8" y1="223.6" x2="690.2" y2="222.3"/>
			<line class="st6" x1="699.5" y1="222.2" x2="694.8" y2="223.6"/>
			<line class="st6" x1="704.2" y1="221.6" x2="699.5" y2="222.2"/>
			<line class="st6" x1="708.8" y1="224.9" x2="704.2" y2="221.6"/>
			<line class="st6" x1="713.5" y1="223.8" x2="708.8" y2="224.9"/>
			<line class="st6" x1="718.2" y1="227" x2="713.5" y2="223.8"/>
			<line class="st6" x1="722.8" y1="226.1" x2="718.2" y2="227"/>
			<line class="st6" x1="727.5" y1="228.7" x2="722.8" y2="226.1"/>
			<line class="st6" x1="732.1" y1="228.5" x2="727.5" y2="228.7"/>
			<line class="st6" x1="736.8" y1="228.8" x2="732.1" y2="228.5"/>
			<line class="st6" x1="741.5" y1="225.3" x2="736.8" y2="228.8"/>
			<line class="st6" x1="746.1" y1="224.3" x2="741.5" y2="225.3"/>
			<line class="st6" x1="750.8" y1="224.8" x2="746.1" y2="224.3"/>
			<line class="st6" x1="755.4" y1="225.5" x2="750.8" y2="224.8"/>
			<line class="st6" x1="760.1" y1="221.2" x2="755.4" y2="225.5"/>
			<line class="st6" x1="764.8" y1="221" x2="760.1" y2="221.2"/>
			<line class="st6" x1="769.4" y1="219.5" x2="764.8" y2="221"/>
			<line class="st6" x1="774.1" y1="219.9" x2="769.4" y2="219.5"/>
			<line class="st6" x1="778.7" y1="217.9" x2="774.1" y2="219.9"/>
			<line class="st6" x1="783.4" y1="218.7" x2="778.7" y2="217.9"/>
			<line class="st6" x1="788.1" y1="217.6" x2="783.4" y2="218.7"/>
			<line class="st6" x1="792.7" y1="213.2" x2="788.1" y2="217.6"/>
			<line class="st6" x1="797.4" y1="213.5" x2="792.7" y2="213.2"/>
			<line class="st6" x1="802" y1="215.2" x2="797.4" y2="213.5"/>
			<line class="st6" x1="806.7" y1="215.5" x2="802" y2="215.2"/>
			<line class="st6" x1="811.4" y1="214.9" x2="806.7" y2="215.5"/>
			<line class="st6" x1="816" y1="215.1" x2="811.4" y2="214.9"/>
			<line class="st6" x1="820.7" y1="214.8" x2="816" y2="215.1"/>
			<line class="st6" x1="825.3" y1="215.3" x2="820.7" y2="214.8"/>
			<line class="st6" x1="830" y1="214.4" x2="825.3" y2="215.3"/>
			<line class="st6" x1="834.7" y1="213.4" x2="830" y2="214.4"/>
			<line class="st6" x1="839.3" y1="212.9" x2="834.7" y2="213.4"/>
			<line class="st6" x1="844" y1="214.8" x2="839.3" y2="212.9"/>
			<line class="st6" x1="848.7" y1="215.5" x2="844" y2="214.8"/>
			<line class="st6" x1="853.3" y1="213.2" x2="848.7" y2="215.5"/>
			<line class="st6" x1="858" y1="211" x2="853.3" y2="213.2"/>
			<line class="st6" x1="862.6" y1="209.9" x2="858" y2="211"/>
			<line class="st6" x1="867.3" y1="209.2" x2="862.6" y2="209.9"/>
			<line class="st6" x1="872" y1="204.6" x2="867.3" y2="209.2"/>
			<line class="st6" x1="876.6" y1="204.2" x2="872" y2="204.6"/>
			<line class="st6" x1="881.3" y1="201.7" x2="876.6" y2="204.2"/>
			<line class="st6" x1="885.9" y1="205.7" x2="881.3" y2="201.7"/>
			<line class="st6" x1="890.6" y1="208.1" x2="885.9" y2="205.7"/>
			<line class="st6" x1="895.3" y1="207.4" x2="890.6" y2="208.1"/>
			<line class="st6" x1="899.9" y1="207.8" x2="895.3" y2="207.4"/>
			<line class="st6" x1="904.6" y1="209.1" x2="899.9" y2="207.8"/>
			<line class="st6" x1="909.2" y1="208.9" x2="904.6" y2="209.1"/>
			<line class="st6" x1="913.9" y1="208.8" x2="909.2" y2="208.9"/>
			<line class="st6" x1="918.6" y1="208.5" x2="913.9" y2="208.8"/>
			<line class="st6" x1="923.2" y1="206.4" x2="918.6" y2="208.5"/>
			<line class="st6" x1="927.9" y1="203.2" x2="923.2" y2="206.4"/>
			<line class="st6" x1="932.5" y1="200.8" x2="927.9" y2="203.2"/>
			<line class="st6" x1="937.2" y1="201.7" x2="932.5" y2="200.8"/>
			<line class="st6" x1="941.9" y1="196" x2="937.2" y2="201.7"/>
			<line class="st6" x1="946.5" y1="197.5" x2="941.9" y2="196"/>
			<line class="st6" x1="951.2" y1="201.2" x2="946.5" y2="197.5"/>
			<line class="st6" x1="955.8" y1="204.9" x2="951.2" y2="201.2"/>
			<line class="st6" x1="960.5" y1="210.2" x2="955.8" y2="204.9"/>
			<line class="st6" x1="965.2" y1="208.8" x2="960.5" y2="210.2"/>
			<line class="st6" x1="969.8" y1="208.9" x2="965.2" y2="208.8"/>
			<line class="st6" x1="974.5" y1="206.7" x2="969.8" y2="208.9"/>
			<line class="st6" x1="979.2" y1="205" x2="974.5" y2="206.7"/>
			<line class="st6" x1="983.8" y1="201.4" x2="979.2" y2="205"/>
			<line class="st6" x1="988.5" y1="203" x2="983.8" y2="201.4"/>
			<line class="st6" x1="993.1" y1="199.3" x2="988.5" y2="203"/>
			<line class="st6" x1="997.8" y1="198.3" x2="993.1" y2="199.3"/>
			<line class="st6" x1="1002.5" y1="196.7" x2="997.8" y2="198.3"/>
			<line class="st6" x1="1007.1" y1="195.5" x2="1002.5" y2="196.7"/>
			<line class="st6" x1="1011.8" y1="188.6" x2="1007.1" y2="195.5"/>
			<line class="st6" x1="1016.4" y1="192.3" x2="1011.8" y2="188.6"/>
			<line class="st6" x1="1021.1" y1="194.1" x2="1016.4" y2="192.3"/>
			<line class="st6" x1="1025.8" y1="193.1" x2="1021.1" y2="194.1"/>
			<line class="st6" x1="1030.4" y1="193.9" x2="1025.8" y2="193.1"/>
			<line class="st6" x1="1035.1" y1="193.2" x2="1030.4" y2="193.9"/>
			<line class="st6" x1="1039.7" y1="191.6" x2="1035.1" y2="193.2"/>
			<line class="st6" x1="1044.4" y1="191.1" x2="1039.7" y2="191.6"/>
			<line class="st6" x1="1049.1" y1="188.1" x2="1044.4" y2="191.1"/>
			<line class="st6" x1="1053.7" y1="190.3" x2="1049.1" y2="188.1"/>
			<line class="st6" x1="1058.4" y1="190.1" x2="1053.7" y2="190.3"/>
			<line class="st6" x1="1063" y1="190.6" x2="1058.4" y2="190.1"/>
			<line class="st6" x1="1067.7" y1="189" x2="1063" y2="190.6"/>
			<line class="st6" x1="1072.4" y1="191" x2="1067.7" y2="189"/>
			<line class="st6" x1="1077" y1="191.4" x2="1072.4" y2="191"/>
			<line class="st6" x1="1081.7" y1="191" x2="1077" y2="191.4"/>
			<line class="st6" x1="1086.3" y1="191.4" x2="1081.7" y2="191"/>
			<line class="st6" x1="1091" y1="189.8" x2="1086.3" y2="191.4"/>
			<line class="st6" x1="1095.7" y1="190.2" x2="1091" y2="189.8"/>
			<line class="st6" x1="1100.3" y1="181.4" x2="1095.7" y2="190.2"/>
			<line class="st6" x1="1105" y1="176" x2="1100.3" y2="181.4"/>
			<line class="st6" x1="1109.7" y1="172.2" x2="1105" y2="176"/>
			<line class="st6" x1="1114.3" y1="172" x2="1109.7" y2="172.2"/>
			<line class="st6" x1="1119" y1="173" x2="1114.3" y2="172"/>
			<line class="st6" x1="1123.6" y1="174.7" x2="1119" y2="173"/>
			<line class="st6" x1="1128.3" y1="172.8" x2="1123.6" y2="174.7"/>
			<line class="st6" x1="1133" y1="170" x2="1128.3" y2="172.8"/>
			<line class="st6" x1="1137.6" y1="167.4" x2="1133" y2="170"/>
			<line class="st6" x1="1142.3" y1="166.5" x2="1137.6" y2="167.4"/>
			<line class="st6" x1="1146.9" y1="171.3" x2="1142.3" y2="166.5"/>
			<line class="st6" x1="1151.6" y1="169.5" x2="1146.9" y2="171.3"/>
			<line class="st6" x1="1156.3" y1="169.5" x2="1151.6" y2="169.5"/>
			<line class="st6" x1="1160.9" y1="168.8" x2="1156.3" y2="169.5"/>
			<line class="st6" x1="1165.6" y1="167.3" x2="1160.9" y2="168.8"/>
			<line class="st6" x1="1170.2" y1="164.9" x2="1165.6" y2="167.3"/>
			<line class="st6" x1="1174.9" y1="165.1" x2="1170.2" y2="164.9"/>
			<line class="st6" x1="1179.6" y1="166.8" x2="1174.9" y2="165.1"/>
			<line class="st6" x1="1184.2" y1="165.2" x2="1179.6" y2="166.8"/>
		</g>
	</g>
	<g>
		<path class="st7" d="M1123.7,144.9h-3.9v-11.7l-3.8,1.4v-3.8l7.6-3v17.1H1123.7z"/>
		<path class="st7" d="M1141.1,136.5c0,5.4-3.3,8.7-7.4,8.7s-7.4-3.3-7.4-8.7s3.3-8.7,7.4-8.7
			C1137.9,127.8,1141.1,131.1,1141.1,136.5z M1130.4,136.5c0,3.3,1.5,5,3.3,5c1.9,0,3.4-1.7,3.4-5s-1.5-5-3.4-5
			C1131.9,131.6,1130.4,133.3,1130.4,136.5z"/>
		<path class="st7" d="M1150.3,144.9h-3.9v-11.7l-3.8,1.4v-3.8l7.6-3v17.1H1150.3z"/>
		<path class="st7" d="M1157.8,140.6l-1.9,7.8h-3.1l0.9-7.8H1157.8z"/>
		<path class="st7" d="M1170.8,131.7h-6.6l-0.1,2.6h1.7c3.9,0,6,2.1,6,5.1c0,3.6-2.7,5.8-6.4,5.8c-2.6,0-4.7-1-6.1-2.3l1.9-2.9
			c0.8,0.8,2.5,1.6,4.1,1.6s2.4-0.8,2.4-2c0-1.1-0.7-1.9-3-1.9h-4.1l0.2-9.6h9.9L1170.8,131.7L1170.8,131.7z"/>
		<path class="st7" d="M1184.8,131.7h-6.6l-0.1,2.6h1.7c3.9,0,6,2.1,6,5.1c0,3.6-2.7,5.8-6.4,5.8c-2.6,0-4.7-1-6.1-2.3l1.9-2.9
			c0.8,0.8,2.5,1.6,4.1,1.6s2.4-0.8,2.4-2c0-1.1-0.7-1.9-3-1.9h-4.1l0.2-9.6h9.9L1184.8,131.7L1184.8,131.7z"/>
	</g>
	<g class="st8">
		<path class="st3" d="M1126.2,235.3h-0.3c-3.8,0-6-2.5-6-5.6c0-3.4,2.8-5.9,6.5-5.9s6.5,2.4,6.5,5.7c0,1.6-0.6,3.1-1.7,4.7
			l-4.5,6.7h-4.7L1126.2,235.3z M1128.9,229.7c0-1.4-1-2.4-2.4-2.4s-2.5,1-2.5,2.4s1,2.3,2.5,2.3S1128.9,231,1128.9,229.7z"/>
		<path class="st3" d="M1141,229.8c0.1,0,0.2,0,0.3,0c3.8,0,6,2.5,6,5.6c0,3.4-2.8,5.9-6.5,5.9s-6.5-2.4-6.5-5.7
			c0-1.6,0.6-3.1,1.7-4.7l4.5-6.7h4.7L1141,229.8z M1138.3,235.4c0,1.4,1,2.4,2.4,2.4s2.5-1,2.5-2.4s-1-2.3-2.5-2.3
			C1139.4,233.1,1138.3,234.1,1138.3,235.4z"/>
		<path class="st3" d="M1153.8,236.6l-1.9,7.8h-3.1l0.9-7.8H1153.8z"/>
		<path class="st3" d="M1170.6,232.5c0,5.4-3.3,8.7-7.4,8.7s-7.4-3.3-7.4-8.7s3.3-8.7,7.4-8.7
			C1167.3,223.8,1170.6,227.1,1170.6,232.5z M1159.8,232.5c0,3.3,1.5,5,3.3,5c1.9,0,3.4-1.7,3.4-5s-1.5-5-3.4-5
			C1161.3,227.6,1159.8,229.3,1159.8,232.5z"/>
		<path class="st3" d="M1185.5,228.7c0,1.9-1.1,3.1-2.5,3.8c1.6,0.7,3,1.9,3,3.9c0,3.1-3,4.9-6.7,4.9s-6.7-1.8-6.7-4.9
			c0-2.1,1.3-3.3,2.9-3.9c-1.4-0.7-2.5-1.9-2.5-3.8c0-3,2.8-4.8,6.3-4.8C1182.6,223.8,1185.5,225.7,1185.5,228.7z M1176.7,235.9
			c0,1.3,1.2,1.9,2.5,1.9s2.5-0.7,2.5-1.9c0-1.3-1.1-2-2.5-2C1177.8,234,1176.7,234.7,1176.7,235.9z M1177,229.1
			c0,1.2,1,1.8,2.2,1.8s2.1-0.6,2.1-1.8s-1-1.8-2.1-1.8C1178,227.3,1177,227.9,1177,229.1z"/>
	</g>
	<g>
		<path class="st9" d="M1136.7,362.4c0,1.9-1.1,3.1-2.5,3.8c1.6,0.7,3,1.9,3,3.9c0,3.1-3,4.9-6.7,4.9s-6.7-1.8-6.7-4.9
			c0-2.1,1.3-3.3,2.9-3.9c-1.4-0.7-2.5-1.9-2.5-3.8c0-3,2.8-4.8,6.3-4.8C1133.9,357.5,1136.7,359.3,1136.7,362.4z M1127.9,369.6
			c0,1.3,1.2,1.9,2.5,1.9s2.5-0.7,2.5-1.9c0-1.3-1.1-2-2.5-2C1129.1,367.6,1127.9,368.3,1127.9,369.6z M1128.3,362.7
			c0,1.2,1,1.8,2.2,1.8s2.1-0.6,2.1-1.8c0-1.2-1-1.8-2.1-1.8C1129.2,361,1128.3,361.6,1128.3,362.7z"/>
		<path class="st9" d="M1150.8,360.9l-6.6,13.7h-4.6l6.6-13.2h-7.5v-3.6h12.1V360.9z"/>
		<path class="st9" d="M1157.2,370.3l-1.9,7.8h-3.1l0.9-7.8H1157.2z"/>
		<path class="st9" d="M1165,369h-0.3c-3.8,0-6-2.5-6-5.6c0-3.4,2.8-5.9,6.5-5.9s6.5,2.4,6.5,5.7c0,1.6-0.6,3.1-1.7,4.7l-4.5,6.7
			h-4.7L1165,369z M1167.7,363.3c0-1.4-1-2.4-2.4-2.4s-2.5,1-2.5,2.4s1,2.3,2.5,2.3S1167.7,364.7,1167.7,363.3z"/>
		<path class="st9" d="M1179.3,369h-0.3c-3.8,0-6-2.5-6-5.6c0-3.4,2.8-5.9,6.5-5.9s6.5,2.4,6.5,5.7c0,1.6-0.6,3.1-1.7,4.7l-4.5,6.7
			h-4.7L1179.3,369z M1182.1,363.3c0-1.4-1-2.4-2.4-2.4s-2.5,1-2.5,2.4s1,2.3,2.5,2.3S1182.1,364.7,1182.1,363.3z"/>
	</g>
	<g>
		<path class="st3" d="M38.2,541c3.1,0,5.1,1.9,5.1,4.9s-2,4.9-5.1,4.9h-4V541H38.2z M36.1,542.9v6.1h2.1c2.1,0,3.1-1.3,3.1-3.1
			s-1-3.1-3.1-3.1L36.1,542.9L36.1,542.9z"/>
		<path class="st3" d="M51.2,547.4c0,0.2,0,0.5,0,0.6h-4.8c0.2,1,0.9,1.4,1.7,1.4c0.6,0,1.2-0.2,1.7-0.7l1.1,1.2
			c-0.8,0.7-1.8,1-2.9,1c-2.1,0-3.5-1.4-3.5-3.6c0-2.1,1.4-3.6,3.4-3.6C49.8,543.9,51.2,545.3,51.2,547.4z M46.3,546.8h3
			c-0.2-0.9-0.7-1.4-1.5-1.4C47,545.4,46.5,546,46.3,546.8z M46.6,543.1l1.4-2.2h2.2l-1.8,2.2H46.6z"/>
		<path class="st3" d="M58.6,545.1l-1.3,1.1c-0.4-0.4-0.9-0.7-1.5-0.7c-0.9,0-1.7,0.7-1.7,1.9c0,1.1,0.7,1.9,1.7,1.9
			c0.6,0,1.1-0.3,1.5-0.7l1.3,1.1c-0.6,0.8-1.6,1.3-2.7,1.3c-2.2,0-3.6-1.5-3.6-3.6s1.5-3.6,3.6-3.6C57,543.9,58,544.3,58.6,545.1z"
			/>
		<path class="st3" d="M62.2,549.6c0,0.7-0.6,1.4-1.4,1.4c-0.7,0-1.4-0.6-1.4-1.4c0-0.7,0.6-1.4,1.4-1.4
			C61.6,548.3,62.2,548.9,62.2,549.6z"/>
		<path class="st3" d="M66.8,542.5c0.5-0.7,1.5-1.7,3.3-1.7c2.1,0,3.3,1.3,3.3,3.2c0,1.2-0.6,2-1.4,2.9l-2.1,2.2h3.7v1.8h-6.5v-1.5
			l3.5-3.6c0.5-0.5,0.8-1.1,0.8-1.7c0-0.9-0.6-1.5-1.5-1.5s-1.5,0.5-2,1.1L66.8,542.5z"/>
		<path class="st3" d="M83.3,545.9c0,3.2-1.9,5.1-4.2,5.1c-2.3,0-4.2-1.9-4.2-5.1s1.9-5.1,4.2-5.1C81.5,540.9,83.3,542.8,83.3,545.9
			z M76.9,545.9c0,2.1,1,3.3,2.3,3.3c1.3,0,2.3-1.1,2.3-3.3c0-2.1-1-3.3-2.3-3.3C77.9,542.7,76.9,543.8,76.9,545.9z"/>
		<path class="st3" d="M88.7,550.8h-1.9v-7.3l-2.3,1v-1.9l4.2-1.7V550.8z"/>
		<path class="st3" d="M94.1,547.4c-0.1,0-0.3,0-0.4,0c-2,0-3.4-1.4-3.4-3.3c0-1.9,1.6-3.3,3.7-3.3s3.7,1.4,3.7,3.3
			c0,0.9-0.3,1.7-0.9,2.6l-2.7,4.1h-2.3L94.1,547.4z M95.7,544.2c0-1-0.7-1.6-1.7-1.6s-1.7,0.7-1.7,1.6c0,0.9,0.7,1.6,1.7,1.6
			C94.9,545.8,95.7,545.1,95.7,544.2z"/>
	</g>
	<g>
		<path class="st3" d="M128.5,547.3c0,2.5-1.5,3.7-3.5,3.7c-1.6,0-2.6-0.7-3.1-1.4l1.1-1.4c0.4,0.5,1,0.9,1.9,0.9
			c1,0,1.7-0.6,1.7-2.1v-6h2v6.3H128.5z"/>
		<path class="st3" d="M137.2,550.8h-1.8v-0.7c-0.4,0.5-1.1,0.9-2,0.9c-1.9,0-3.3-1.5-3.3-3.6s1.4-3.6,3.3-3.6c0.9,0,1.6,0.4,2,0.9
			V544h1.8V550.8z M132,547.4c0,1,0.7,1.9,1.8,1.9c1,0,1.8-0.8,1.8-1.9c0-1.1-0.7-1.9-1.8-1.9C132.7,545.6,132,546.4,132,547.4z"/>
		<path class="st3" d="M145.6,546.5v4.3h-1.8v-3.7c0-1-0.5-1.5-1.3-1.5s-1.4,0.5-1.4,1.5v3.7h-1.8V544h1.8v0.8c0.5-0.7,1.2-1,2-1
			C144.5,543.9,145.6,544.9,145.6,546.5z"/>
		<path class="st3" d="M151.4,550.8h-2.1l-2.7-6.8h2l1.8,4.9l1.8-4.9h1.9L151.4,550.8z"/>
		<path class="st3" d="M157.5,549.6c0,0.7-0.6,1.4-1.4,1.4c-0.7,0-1.4-0.6-1.4-1.4c0-0.7,0.6-1.4,1.4-1.4
			C156.8,548.3,157.5,548.9,157.5,549.6z"/>
		<path class="st3" d="M162,542.5c0.5-0.7,1.5-1.7,3.3-1.7c2.1,0,3.3,1.3,3.3,3.2c0,1.2-0.6,2-1.4,2.9l-2.1,2.2h3.7v1.8h-6.5v-1.5
			l3.5-3.6c0.5-0.5,0.8-1.1,0.8-1.7c0-0.9-0.6-1.5-1.5-1.5s-1.5,0.5-2,1.1L162,542.5z"/>
		<path class="st3" d="M178.6,545.9c0,3.2-1.9,5.1-4.2,5.1s-4.2-1.9-4.2-5.1s1.9-5.1,4.2-5.1C176.7,540.9,178.6,542.8,178.6,545.9z
			 M172.1,545.9c0,2.1,1,3.3,2.3,3.3s2.3-1.1,2.3-3.3c0-2.1-1-3.3-2.3-3.3C173.1,542.7,172.1,543.8,172.1,545.9z"/>
		<path class="st3" d="M179.7,542.5c0.5-0.7,1.5-1.7,3.3-1.7c2.1,0,3.3,1.3,3.3,3.2c0,1.2-0.6,2-1.4,2.9l-2.1,2.2h3.7v1.8H180v-1.5
			l3.5-3.6c0.5-0.5,0.8-1.1,0.8-1.7c0-0.9-0.6-1.5-1.5-1.5s-1.5,0.5-2,1.1L179.7,542.5z"/>
		<path class="st3" d="M196.3,545.9c0,3.2-1.9,5.1-4.2,5.1s-4.2-1.9-4.2-5.1s1.9-5.1,4.2-5.1C194.4,540.9,196.3,542.8,196.3,545.9z
			 M189.8,545.9c0,2.1,1,3.3,2.3,3.3s2.3-1.1,2.3-3.3c0-2.1-1-3.3-2.3-3.3C190.8,542.7,189.8,543.8,189.8,545.9z"/>
	</g>
	<g>
		<path class="st3" d="M224.6,546.9h-4.9v4h-2V541h7.2v1.8h-5.2v2.2h4.9V546.9z"/>
		<path class="st3" d="M232.8,547.4c0,0.2,0,0.5,0,0.6H228c0.2,1,0.9,1.4,1.7,1.4c0.6,0,1.2-0.2,1.7-0.7l1.1,1.2
			c-0.8,0.7-1.8,1-2.9,1c-2.1,0-3.5-1.4-3.5-3.6c0-2.1,1.4-3.6,3.4-3.6C231.5,543.9,232.8,545.3,232.8,547.4z M228,546.8h3
			c-0.2-0.9-0.7-1.4-1.5-1.4C228.7,545.4,228.1,546,228,546.8z M228.3,543.1l1.4-2.2h2.2l-1.8,2.2H228.3z"/>
		<path class="st3" d="M238.3,550.8h-2.1l-2.7-6.8h2l1.8,4.9l1.8-4.9h1.9L238.3,550.8z"/>
		<path class="st3" d="M246.6,544l-0.3,1.8c-0.3-0.1-0.7-0.2-1.1-0.2c-0.8,0-1.4,0.5-1.4,1.5v3.7H242V544h1.8v0.7
			c0.4-0.6,1.1-0.9,1.9-0.9C246.1,543.9,246.4,543.9,246.6,544z"/>
		<path class="st3" d="M250.2,549.6c0,0.7-0.6,1.4-1.4,1.4c-0.7,0-1.4-0.6-1.4-1.4c0-0.7,0.6-1.4,1.4-1.4
			C249.6,548.3,250.2,548.9,250.2,549.6z"/>
		<path class="st3" d="M254.7,542.5c0.5-0.7,1.5-1.7,3.3-1.7c2.1,0,3.3,1.3,3.3,3.2c0,1.2-0.6,2-1.4,2.9l-2.1,2.2h3.7v1.8H255v-1.5
			l3.5-3.6c0.5-0.5,0.8-1.1,0.8-1.7c0-0.9-0.6-1.5-1.5-1.5s-1.5,0.5-2,1.1L254.7,542.5z"/>
		<path class="st3" d="M271.3,545.9c0,3.2-1.9,5.1-4.2,5.1c-2.3,0-4.2-1.9-4.2-5.1s1.9-5.1,4.2-5.1
			C269.4,540.9,271.3,542.8,271.3,545.9z M264.8,545.9c0,2.1,1,3.3,2.3,3.3c1.3,0,2.3-1.1,2.3-3.3c0-2.1-1-3.3-2.3-3.3
			C265.8,542.7,264.8,543.8,264.8,545.9z"/>
		<path class="st3" d="M272.5,542.5c0.5-0.7,1.5-1.7,3.3-1.7c2.1,0,3.3,1.3,3.3,3.2c0,1.2-0.6,2-1.4,2.9l-2.1,2.2h3.7v1.8h-6.5v-1.5
			l3.5-3.6c0.5-0.5,0.8-1.1,0.8-1.7c0-0.9-0.6-1.5-1.5-1.5s-1.5,0.5-2,1.1L272.5,542.5z"/>
		<path class="st3" d="M289.1,545.9c0,3.2-1.9,5.1-4.2,5.1s-4.2-1.9-4.2-5.1s1.9-5.1,4.2-5.1C287.2,540.9,289.1,542.8,289.1,545.9z
			 M282.6,545.9c0,2.1,1,3.3,2.3,3.3s2.3-1.1,2.3-3.3c0-2.1-1-3.3-2.3-3.3C283.6,542.7,282.6,543.8,282.6,545.9z"/>
	</g>
	<g>
		<path class="st3" d="M322.1,550.8h-2v-7.4l-2.4,6.5h-2.1l-2.4-6.4v7.3h-2V541h2.9l2.5,6.6l2.5-6.6h2.9v9.8H322.1z"/>
		<path class="st3" d="M330.9,550.8h-1.8v-0.7c-0.4,0.5-1.1,0.9-2,0.9c-1.9,0-3.3-1.5-3.3-3.6s1.4-3.6,3.3-3.6c0.9,0,1.6,0.4,2,0.9
			V544h1.8V550.8z M325.7,547.4c0,1,0.7,1.9,1.8,1.9c1,0,1.8-0.8,1.8-1.9c0-1.1-0.7-1.9-1.8-1.9
			C326.3,545.6,325.7,546.4,325.7,547.4z"/>
		<path class="st3" d="M337.4,544l-0.3,1.8c-0.3-0.1-0.7-0.2-1.1-0.2c-0.8,0-1.4,0.5-1.4,1.5v3.7h-1.8V544h1.8v0.7
			c0.4-0.6,1.1-0.9,1.9-0.9C336.9,543.9,337.2,543.9,337.4,544z"/>
		<path class="st3" d="M343.6,545.9c-0.5-0.3-1.4-0.5-2.2-0.6c-0.7,0-1,0.2-1,0.6c0,0.4,0.5,0.5,1.1,0.6l0.6,0.1
			c1.5,0.2,2.3,0.9,2.3,2c0,1.4-1.1,2.3-3.1,2.3c-0.9,0-2.1-0.2-3-0.8l0.7-1.4c0.6,0.4,1.3,0.7,2.3,0.7c0.8,0,1.3-0.2,1.3-0.6
			c0-0.3-0.3-0.5-1.1-0.6l-0.6-0.1c-1.6-0.2-2.3-0.9-2.3-2.1c0-1.4,1.1-2.2,2.9-2.2c1.1,0,1.9,0.2,2.8,0.6L343.6,545.9z"/>
		<path class="st3" d="M348.8,542.5c0.5-0.7,1.5-1.7,3.3-1.7c2.1,0,3.3,1.3,3.3,3.2c0,1.2-0.6,2-1.4,2.9l-2.1,2.2h3.7v1.8h-6.5v-1.5
			l3.5-3.6c0.5-0.5,0.8-1.1,0.8-1.7c0-0.9-0.6-1.5-1.5-1.5s-1.5,0.5-2,1.1L348.8,542.5z"/>
		<path class="st3" d="M365.3,545.9c0,3.2-1.9,5.1-4.2,5.1c-2.3,0-4.2-1.9-4.2-5.1s1.9-5.1,4.2-5.1
			C363.5,540.9,365.3,542.8,365.3,545.9z M358.9,545.9c0,2.1,1,3.3,2.3,3.3s2.3-1.1,2.3-3.3c0-2.1-1-3.3-2.3-3.3
			C359.9,542.7,358.9,543.8,358.9,545.9z"/>
		<path class="st3" d="M366.5,542.5c0.5-0.7,1.5-1.7,3.3-1.7c2.1,0,3.3,1.3,3.3,3.2c0,1.2-0.6,2-1.4,2.9l-2.1,2.2h3.7v1.8H367v-1.5
			l3.5-3.6c0.5-0.5,0.8-1.1,0.8-1.7c0-0.9-0.6-1.5-1.5-1.5s-1.5,0.5-2,1.1L366.5,542.5z"/>
		<path class="st3" d="M383.1,545.9c0,3.2-1.9,5.1-4.2,5.1c-2.3,0-4.2-1.9-4.2-5.1s1.9-5.1,4.2-5.1
			C381.2,540.9,383.1,542.8,383.1,545.9z M376.6,545.9c0,2.1,1,3.3,2.3,3.3s2.3-1.1,2.3-3.3c0-2.1-1-3.3-2.3-3.3
			C377.6,542.7,376.6,543.8,376.6,545.9z"/>
	</g>
	<g>
		<path class="st3" d="M417.6,550.8h-2.1l-0.9-2.3h-4.2l-0.9,2.3h-2l3.8-9.8h2.4L417.6,550.8z M411.2,546.8h2.8l-1.4-3.8
			L411.2,546.8z"/>
		<path class="st3" d="M422.7,550.8h-2.1l-2.7-6.8h2l1.8,4.9l1.8-4.9h1.9L422.7,550.8z"/>
		<path class="st3" d="M431.1,544l-0.3,1.8c-0.3-0.1-0.7-0.2-1.1-0.2c-0.8,0-1.4,0.5-1.4,1.5v3.7h-1.8V544h1.8v0.7
			c0.4-0.6,1.1-0.9,1.9-0.9C430.5,543.9,430.8,543.9,431.1,544z"/>
		<path class="st3" d="M434.6,549.6c0,0.7-0.6,1.4-1.4,1.4c-0.7,0-1.4-0.6-1.4-1.4c0-0.7,0.6-1.4,1.4-1.4
			C434,548.3,434.6,548.9,434.6,549.6z"/>
		<path class="st3" d="M439.2,542.5c0.5-0.7,1.5-1.7,3.3-1.7c2.1,0,3.3,1.3,3.3,3.2c0,1.2-0.6,2-1.4,2.9l-2.1,2.2h3.7v1.8h-6.5v-1.5
			l3.5-3.6c0.5-0.5,0.8-1.1,0.8-1.7c0-0.9-0.6-1.5-1.5-1.5s-1.5,0.5-2,1.1L439.2,542.5z"/>
		<path class="st3" d="M455.7,545.9c0,3.2-1.9,5.1-4.2,5.1c-2.3,0-4.2-1.9-4.2-5.1s1.9-5.1,4.2-5.1
			C453.9,540.9,455.7,542.8,455.7,545.9z M449.3,545.9c0,2.1,1,3.3,2.3,3.3s2.3-1.1,2.3-3.3c0-2.1-1-3.3-2.3-3.3
			C450.3,542.7,449.3,543.8,449.3,545.9z"/>
		<path class="st3" d="M456.9,542.5c0.5-0.7,1.5-1.7,3.3-1.7c2.1,0,3.3,1.3,3.3,3.2c0,1.2-0.6,2-1.4,2.9l-2.1,2.2h3.7v1.8h-6.5v-1.5
			l3.5-3.6c0.5-0.5,0.8-1.1,0.8-1.7c0-0.9-0.6-1.5-1.5-1.5s-1.5,0.5-2,1.1L456.9,542.5z"/>
		<path class="st3" d="M473.5,545.9c0,3.2-1.9,5.1-4.2,5.1c-2.3,0-4.2-1.9-4.2-5.1s1.9-5.1,4.2-5.1
			C471.6,540.9,473.5,542.8,473.5,545.9z M467,545.9c0,2.1,1,3.3,2.3,3.3s2.3-1.1,2.3-3.3c0-2.1-1-3.3-2.3-3.3
			C468,542.7,467,543.8,467,545.9z"/>
	</g>
	<g>
		<path class="st3" d="M514.4,550.8h-2v-7.4l-2.4,6.5h-2l-2.4-6.4v7.3h-2V541h2.9l2.5,6.6l2.5-6.6h2.9V550.8z"/>
		<path class="st3" d="M523.2,550.8h-1.8v-0.7c-0.4,0.5-1.1,0.9-2,0.9c-1.9,0-3.3-1.5-3.3-3.6s1.4-3.6,3.3-3.6c0.9,0,1.6,0.4,2,0.9
			V544h1.8V550.8z M517.9,547.4c0,1,0.7,1.9,1.8,1.9c1,0,1.8-0.8,1.8-1.9c0-1.1-0.7-1.9-1.8-1.9
			C518.6,545.6,517.9,546.4,517.9,547.4z"/>
		<path class="st3" d="M527.1,541.8c0,0.7-0.5,1.2-1.2,1.2s-1.2-0.5-1.2-1.2s0.5-1.2,1.2-1.2C526.6,540.7,527.1,541.2,527.1,541.8z
			 M526.9,550.8h-1.8V544h1.8V550.8z"/>
		<path class="st3" d="M531.8,542.5c0.5-0.7,1.5-1.7,3.3-1.7c2.1,0,3.3,1.3,3.3,3.2c0,1.2-0.6,2-1.4,2.9l-2.1,2.2h3.7v1.8h-6.5v-1.5
			l3.5-3.6c0.5-0.5,0.8-1.1,0.8-1.7c0-0.9-0.6-1.5-1.5-1.5c-0.9,0-1.5,0.5-2,1.1L531.8,542.5z"/>
		<path class="st3" d="M548.4,545.9c0,3.2-1.9,5.1-4.2,5.1s-4.2-1.9-4.2-5.1s1.9-5.1,4.2-5.1C546.5,540.9,548.4,542.8,548.4,545.9z
			 M541.9,545.9c0,2.1,1,3.3,2.3,3.3s2.3-1.1,2.3-3.3c0-2.1-1-3.3-2.3-3.3C542.9,542.7,541.9,543.8,541.9,545.9z"/>
		<path class="st3" d="M549.6,542.5c0.5-0.7,1.5-1.7,3.3-1.7c2.1,0,3.3,1.3,3.3,3.2c0,1.2-0.6,2-1.4,2.9l-2.1,2.2h3.7v1.8H550v-1.5
			l3.5-3.6c0.5-0.5,0.8-1.1,0.8-1.7c0-0.9-0.6-1.5-1.5-1.5s-1.5,0.5-2,1.1L549.6,542.5z"/>
		<path class="st3" d="M566.1,545.9c0,3.2-1.9,5.1-4.2,5.1s-4.2-1.9-4.2-5.1s1.9-5.1,4.2-5.1C564.3,540.9,566.1,542.8,566.1,545.9z
			 M559.7,545.9c0,2.1,1,3.3,2.3,3.3s2.3-1.1,2.3-3.3c0-2.1-1-3.3-2.3-3.3C560.7,542.7,559.7,543.8,559.7,545.9z"/>
	</g>
	<g>
		<path class="st3" d="M601.8,547.3c0,2.5-1.5,3.7-3.5,3.7c-1.6,0-2.6-0.7-3.1-1.4l1.1-1.4c0.4,0.5,1,0.9,1.9,0.9
			c1,0,1.7-0.6,1.7-2.1v-6h2v6.3H601.8z"/>
		<path class="st3" d="M610.1,547.9c0,2.1-1.5,3.1-3.2,3.1s-3.2-0.9-3.2-3.1V544h1.8v3.7c0,1.1,0.6,1.5,1.4,1.5
			c0.8,0,1.4-0.4,1.4-1.5V544h1.8V547.9z"/>
		<path class="st3" d="M614.1,541.8c0,0.7-0.5,1.2-1.2,1.2s-1.2-0.5-1.2-1.2s0.5-1.2,1.2-1.2C613.6,540.7,614.1,541.2,614.1,541.8z
			 M613.8,550.8H612V544h1.8V550.8z"/>
		<path class="st3" d="M622.2,546.5v4.3h-1.8v-3.7c0-1-0.5-1.5-1.3-1.5s-1.4,0.5-1.4,1.5v3.7h-1.8V544h1.8v0.8c0.5-0.7,1.2-1,2-1
			C621.1,543.9,622.2,544.9,622.2,546.5z"/>
		<path class="st3" d="M627,542.5c0.5-0.7,1.5-1.7,3.3-1.7c2.1,0,3.3,1.3,3.3,3.2c0,1.2-0.6,2-1.4,2.9l-2.1,2.2h3.7v1.8h-6.5v-1.5
			l3.5-3.6c0.5-0.5,0.8-1.1,0.8-1.7c0-0.9-0.6-1.5-1.5-1.5s-1.5,0.5-2,1.1L627,542.5z"/>
		<path class="st3" d="M643.6,545.9c0,3.2-1.9,5.1-4.2,5.1s-4.2-1.9-4.2-5.1s1.9-5.1,4.2-5.1C641.7,540.9,643.6,542.8,643.6,545.9z
			 M637.1,545.9c0,2.1,1,3.3,2.3,3.3s2.3-1.1,2.3-3.3c0-2.1-1-3.3-2.3-3.3C638.1,542.7,637.1,543.8,637.1,545.9z"/>
		<path class="st3" d="M644.8,542.5c0.5-0.7,1.5-1.7,3.3-1.7c2.1,0,3.3,1.3,3.3,3.2c0,1.2-0.6,2-1.4,2.9l-2.1,2.2h3.7v1.8h-6.5v-1.5
			l3.5-3.6c0.5-0.5,0.8-1.1,0.8-1.7c0-0.9-0.6-1.5-1.5-1.5s-1.5,0.5-2,1.1L644.8,542.5z"/>
		<path class="st3" d="M661.4,545.9c0,3.2-1.9,5.1-4.2,5.1s-4.2-1.9-4.2-5.1s1.9-5.1,4.2-5.1C659.5,540.9,661.4,542.8,661.4,545.9z
			 M654.9,545.9c0,2.1,1,3.3,2.3,3.3s2.3-1.1,2.3-3.3c0-2.1-1-3.3-2.3-3.3C655.9,542.7,654.9,543.8,654.9,545.9z"/>
	</g>
	<g>
		<path class="st3" d="M694,547.3c0,2.5-1.5,3.7-3.5,3.7c-1.6,0-2.6-0.7-3.1-1.4l1.1-1.4c0.4,0.5,1,0.9,1.9,0.9c1,0,1.7-0.6,1.7-2.1
			v-6h2v6.3H694z"/>
		<path class="st3" d="M702.4,547.9c0,2.1-1.5,3.1-3.2,3.1s-3.2-0.9-3.2-3.1V544h1.8v3.7c0,1.1,0.6,1.5,1.4,1.5
			c0.8,0,1.4-0.4,1.4-1.5V544h1.8V547.9z"/>
		<path class="st3" d="M706.4,541.8c0,0.7-0.5,1.2-1.2,1.2s-1.2-0.5-1.2-1.2s0.5-1.2,1.2-1.2S706.4,541.2,706.4,541.8z M706.1,550.8
			h-1.8V544h1.8V550.8z"/>
		<path class="st3" d="M709.9,550.8H708v-10.1h1.8v10.1H709.9z"/>
		<path class="st3" d="M713.6,550.8h-1.8v-10.1h1.8V550.8z"/>
		<path class="st3" d="M717.9,549.6c0,0.7-0.6,1.4-1.4,1.4c-0.7,0-1.4-0.6-1.4-1.4c0-0.7,0.6-1.4,1.4-1.4
			C717.2,548.3,717.9,548.9,717.9,549.6z"/>
		<path class="st3" d="M722.4,542.5c0.5-0.7,1.5-1.7,3.3-1.7c2.1,0,3.3,1.3,3.3,3.2c0,1.2-0.6,2-1.4,2.9l-2.1,2.2h3.7v1.8h-6.5v-1.5
			l3.5-3.6c0.5-0.5,0.8-1.1,0.8-1.7c0-0.9-0.6-1.5-1.5-1.5s-1.5,0.5-2,1.1L722.4,542.5z"/>
		<path class="st3" d="M739,545.9c0,3.2-1.9,5.1-4.2,5.1s-4.2-1.9-4.2-5.1s1.9-5.1,4.2-5.1C737.1,540.9,739,542.8,739,545.9z
			 M732.5,545.9c0,2.1,1,3.3,2.3,3.3s2.3-1.1,2.3-3.3c0-2.1-1-3.3-2.3-3.3C733.5,542.7,732.5,543.8,732.5,545.9z"/>
		<path class="st3" d="M740.1,542.5c0.5-0.7,1.5-1.7,3.3-1.7c2.1,0,3.3,1.3,3.3,3.2c0,1.2-0.6,2-1.4,2.9l-2.1,2.2h3.7v1.8h-6.5v-1.5
			l3.5-3.6c0.5-0.5,0.8-1.1,0.8-1.7c0-0.9-0.6-1.5-1.5-1.5s-1.5,0.5-2,1.1L740.1,542.5z"/>
		<path class="st3" d="M756.7,545.9c0,3.2-1.9,5.1-4.2,5.1s-4.2-1.9-4.2-5.1s1.9-5.1,4.2-5.1C754.8,540.9,756.7,542.8,756.7,545.9z
			 M750.2,545.9c0,2.1,1,3.3,2.3,3.3s2.3-1.1,2.3-3.3c0-2.1-1-3.3-2.3-3.3C751.2,542.7,750.2,543.8,750.2,545.9z"/>
	</g>
	<g>
		<path class="st3" d="M790.1,550.8H788l-0.9-2.3h-4.2l-0.9,2.3h-2l3.8-9.8h2.4L790.1,550.8z M783.6,546.8h2.8L785,543L783.6,546.8z
			"/>
		<path class="st3" d="M798.1,547.4c0,2-1.6,3.6-3.7,3.6c-2.1,0-3.7-1.5-3.7-3.6c0-2,1.6-3.6,3.7-3.6
			C796.5,543.9,798.1,545.4,798.1,547.4z M792.6,547.4c0,1.1,0.8,1.9,1.8,1.9s1.8-0.8,1.8-1.9s-0.8-1.9-1.8-1.9
			S792.6,546.3,792.6,547.4z"/>
		<path class="st3" d="M805.9,547.9c0,2.1-1.5,3.1-3.2,3.1s-3.2-0.9-3.2-3.1V544h1.8v3.7c0,1.1,0.6,1.5,1.4,1.5
			c0.8,0,1.4-0.4,1.4-1.5V544h1.8V547.9z M803.6,543.1l-0.9-1.1l-0.9,1.1H800l1.5-2.2h2.2l1.5,2.2H803.6z"/>
		<path class="st3" d="M812.7,545.7h-2.5v2.5c0,0.8,0.4,1.2,1,1.2c0.4,0,0.9-0.2,1.3-0.4l0.7,1.4c-0.6,0.4-1.3,0.7-2.2,0.7
			c-1.7,0-2.5-1-2.5-2.7v-2.6h-1.3V544h1.3v-2h1.8v2h2.5L812.7,545.7L812.7,545.7z"/>
		<path class="st3" d="M817.3,542.5c0.5-0.7,1.5-1.7,3.3-1.7c2.1,0,3.3,1.3,3.3,3.2c0,1.2-0.6,2-1.4,2.9l-2.1,2.2h3.7v1.8h-6.5v-1.5
			l3.5-3.6c0.5-0.5,0.8-1.1,0.8-1.7c0-0.9-0.6-1.5-1.5-1.5s-1.5,0.5-2,1.1L817.3,542.5z"/>
		<path class="st3" d="M833.9,545.9c0,3.2-1.9,5.1-4.2,5.1s-4.2-1.9-4.2-5.1s1.9-5.1,4.2-5.1C832,540.9,833.9,542.8,833.9,545.9z
			 M827.4,545.9c0,2.1,1,3.3,2.3,3.3s2.3-1.1,2.3-3.3c0-2.1-1-3.3-2.3-3.3C828.4,542.7,827.4,543.8,827.4,545.9z"/>
		<path class="st3" d="M835.1,542.5c0.5-0.7,1.5-1.7,3.3-1.7c2.1,0,3.3,1.3,3.3,3.2c0,1.2-0.6,2-1.4,2.9l-2.1,2.2h3.7v1.8h-6.5v-1.5
			l3.5-3.6c0.5-0.5,0.8-1.1,0.8-1.7c0-0.9-0.6-1.5-1.5-1.5s-1.5,0.5-2,1.1L835.1,542.5z"/>
		<path class="st3" d="M851.7,545.9c0,3.2-1.9,5.1-4.2,5.1s-4.2-1.9-4.2-5.1s1.9-5.1,4.2-5.1C849.8,540.9,851.7,542.8,851.7,545.9z
			 M845.2,545.9c0,2.1,1,3.3,2.3,3.3s2.3-1.1,2.3-3.3c0-2.1-1-3.3-2.3-3.3C846.2,542.7,845.2,543.8,845.2,545.9z"/>
	</g>
	<g>
		<path class="st3" d="M880.1,543.5c-0.8-0.5-1.7-0.8-2.8-0.8s-1.9,0.4-1.9,1.2c0,0.7,0.8,0.9,2,1.1l0.6,0.1c1.8,0.3,3.1,1,3.1,2.7
			c0,2.2-1.9,3.2-4,3.2c-1.5,0-3.1-0.4-4.1-1.3l1-1.6c0.7,0.6,1.9,1.1,3.1,1.1c1.1,0,1.9-0.4,1.9-1.2c0-0.7-0.7-0.9-2.1-1.1
			l-0.6-0.1c-1.7-0.3-3-1-3-2.8c0-2,1.8-3.1,3.9-3.1c1.4,0,2.5,0.3,3.7,1L880.1,543.5z"/>
		<path class="st3" d="M889.1,547.4c0,0.2,0,0.5,0,0.6h-4.8c0.2,1,0.9,1.4,1.7,1.4c0.6,0,1.2-0.2,1.7-0.7l1.1,1.2
			c-0.8,0.7-1.8,1-2.9,1c-2.1,0-3.5-1.4-3.5-3.6c0-2.1,1.4-3.6,3.4-3.6C887.7,543.9,889.1,545.3,889.1,547.4z M884.2,546.8h3
			c-0.2-0.9-0.7-1.4-1.5-1.4C884.9,545.4,884.4,546,884.2,546.8z"/>
		<path class="st3" d="M897.7,547.4c0,2-1.4,3.6-3.3,3.6c-0.9,0-1.6-0.4-2-0.9v3.5h-1.8V544h1.8v0.8c0.4-0.6,1.1-0.9,2-0.9
			C896.2,543.9,897.7,545.4,897.7,547.4z M892.3,547.4c0,1.1,0.7,1.9,1.7,1.9c1.1,0,1.8-0.8,1.8-1.9c0-1-0.7-1.9-1.8-1.9
			C893,545.6,892.3,546.4,892.3,547.4z"/>
		<path class="st3" d="M904.1,545.7h-2.5v2.5c0,0.8,0.4,1.2,1,1.2c0.4,0,0.9-0.2,1.3-0.4l0.7,1.4c-0.6,0.4-1.3,0.7-2.2,0.7
			c-1.7,0-2.5-1-2.5-2.7v-2.6h-1.3V544h1.3v-2h1.8v2h2.5L904.1,545.7L904.1,545.7z"/>
		<path class="st3" d="M908,549.6c0,0.7-0.6,1.4-1.4,1.4c-0.7,0-1.4-0.6-1.4-1.4c0-0.7,0.6-1.4,1.4-1.4
			C907.4,548.3,908,548.9,908,549.6z"/>
		<path class="st3" d="M912.5,542.5c0.5-0.7,1.5-1.7,3.3-1.7c2.1,0,3.3,1.3,3.3,3.2c0,1.2-0.6,2-1.4,2.9l-2.1,2.2h3.7v1.8H913v-1.5
			l3.5-3.6c0.5-0.5,0.8-1.1,0.8-1.7c0-0.9-0.6-1.5-1.5-1.5s-1.5,0.5-2,1.1L912.5,542.5z"/>
		<path class="st3" d="M929.1,545.9c0,3.2-1.9,5.1-4.2,5.1s-4.2-1.9-4.2-5.1s1.9-5.1,4.2-5.1C927.2,540.9,929.1,542.8,929.1,545.9z
			 M922.6,545.9c0,2.1,1,3.3,2.3,3.3s2.3-1.1,2.3-3.3c0-2.1-1-3.3-2.3-3.3C923.6,542.7,922.6,543.8,922.6,545.9z"/>
		<path class="st3" d="M930.3,542.5c0.5-0.7,1.5-1.7,3.3-1.7c2.1,0,3.3,1.3,3.3,3.2c0,1.2-0.6,2-1.4,2.9l-2.1,2.2h3.7v1.8h-6.5v-1.5
			l3.5-3.6c0.5-0.5,0.8-1.1,0.8-1.7c0-0.9-0.6-1.5-1.5-1.5s-1.5,0.5-2,1.1L930.3,542.5z"/>
		<path class="st3" d="M946.9,545.9c0,3.2-1.9,5.1-4.2,5.1s-4.2-1.9-4.2-5.1s1.9-5.1,4.2-5.1C945,540.9,946.9,542.8,946.9,545.9z
			 M940.4,545.9c0,2.1,1,3.3,2.3,3.3s2.3-1.1,2.3-3.3c0-2.1-1-3.3-2.3-3.3C941.4,542.7,940.4,543.8,940.4,545.9z"/>
	</g>
	<g>
		<path class="st3" d="M980.6,545.9c0,2.9-2.1,5.1-5.2,5.1s-5.1-2.2-5.1-5.1s2.1-5.1,5.1-5.1S980.6,543,980.6,545.9z M972.4,545.9
			c0,1.9,1.3,3.2,3.1,3.2s3.1-1.3,3.1-3.2s-1.3-3.2-3.1-3.2S972.4,544,972.4,545.9z"/>
		<path class="st3" d="M988.1,545.1l-1.3,1.1c-0.4-0.4-0.9-0.7-1.4-0.7c-0.9,0-1.7,0.7-1.7,1.9c0,1.1,0.7,1.9,1.7,1.9
			c0.6,0,1.1-0.3,1.5-0.7l1.3,1.1c-0.6,0.8-1.6,1.3-2.7,1.3c-2.2,0-3.6-1.5-3.6-3.6s1.5-3.6,3.6-3.6
			C986.5,543.9,987.5,544.3,988.1,545.1z"/>
		<path class="st3" d="M994.4,545.7h-2.5v2.5c0,0.8,0.4,1.2,1,1.2c0.4,0,0.9-0.2,1.3-0.4l0.7,1.4c-0.6,0.4-1.3,0.7-2.2,0.7
			c-1.7,0-2.5-1-2.5-2.7v-2.6h-1.3V544h1.3v-2h1.8v2h2.5L994.4,545.7L994.4,545.7z"/>
		<path class="st3" d="M998.3,549.6c0,0.7-0.6,1.4-1.4,1.4c-0.7,0-1.4-0.6-1.4-1.4c0-0.7,0.6-1.4,1.4-1.4
			C997.7,548.3,998.3,548.9,998.3,549.6z"/>
		<path class="st3" d="M1002.8,542.5c0.5-0.7,1.5-1.7,3.3-1.7c2.1,0,3.3,1.3,3.3,3.2c0,1.2-0.6,2-1.4,2.9l-2.1,2.2h3.7v1.8h-6.5
			v-1.5l3.5-3.6c0.5-0.5,0.8-1.1,0.8-1.7c0-0.9-0.6-1.5-1.5-1.5s-1.5,0.5-2,1.1L1002.8,542.5z"/>
		<path class="st3" d="M1019.4,545.9c0,3.2-1.9,5.1-4.2,5.1s-4.2-1.9-4.2-5.1s1.9-5.1,4.2-5.1
			C1017.5,540.9,1019.4,542.8,1019.4,545.9z M1012.9,545.9c0,2.1,1,3.3,2.3,3.3s2.3-1.1,2.3-3.3c0-2.1-1-3.3-2.3-3.3
			C1013.9,542.7,1012.9,543.8,1012.9,545.9z"/>
		<path class="st3" d="M1020.6,542.5c0.5-0.7,1.5-1.7,3.3-1.7c2.1,0,3.3,1.3,3.3,3.2c0,1.2-0.6,2-1.4,2.9l-2.1,2.2h3.7v1.8h-6.4
			v-1.5l3.5-3.6c0.5-0.5,0.8-1.1,0.8-1.7c0-0.9-0.6-1.5-1.5-1.5s-1.5,0.5-2,1.1L1020.6,542.5z"/>
		<path class="st3" d="M1037.2,545.9c0,3.2-1.9,5.1-4.2,5.1c-2.3,0-4.2-1.9-4.2-5.1s1.9-5.1,4.2-5.1
			C1035.3,540.9,1037.2,542.8,1037.2,545.9z M1030.7,545.9c0,2.1,1,3.3,2.3,3.3c1.3,0,2.3-1.1,2.3-3.3c0-2.1-1-3.3-2.3-3.3
			C1031.7,542.7,1030.7,543.8,1030.7,545.9z"/>
	</g>
	<g>
		<path class="st3" d="M1072.5,550.8h-1.8l-5-6.5v6.5h-2V541h1.8l5,6.5V541h2V550.8z"/>
		<path class="st3" d="M1081.5,547.4c0,2-1.6,3.6-3.7,3.6s-3.7-1.5-3.7-3.6c0-2,1.6-3.6,3.7-3.6
			C1079.9,543.9,1081.5,545.4,1081.5,547.4z M1076,547.4c0,1.1,0.8,1.9,1.8,1.9s1.8-0.8,1.8-1.9s-0.8-1.9-1.8-1.9
			S1076,546.3,1076,547.4z"/>
		<path class="st3" d="M1086.9,550.8h-2.1l-2.7-6.8h2l1.8,4.9l1.8-4.9h1.9L1086.9,550.8z"/>
		<path class="st3" d="M1093,549.6c0,0.7-0.6,1.4-1.4,1.4c-0.7,0-1.4-0.6-1.4-1.4c0-0.7,0.6-1.4,1.4-1.4
			C1092.4,548.3,1093,548.9,1093,549.6z"/>
		<path class="st3" d="M1097.5,542.5c0.5-0.7,1.5-1.7,3.3-1.7c2.1,0,3.3,1.3,3.3,3.2c0,1.2-0.6,2-1.4,2.9l-2.1,2.2h3.7v1.8h-6.5
			v-1.5l3.5-3.6c0.5-0.5,0.8-1.1,0.8-1.7c0-0.9-0.6-1.5-1.5-1.5s-1.5,0.5-2,1.1L1097.5,542.5z"/>
		<path class="st3" d="M1114.1,545.9c0,3.2-1.9,5.1-4.2,5.1c-2.3,0-4.2-1.9-4.2-5.1s1.9-5.1,4.2-5.1
			C1112.2,540.9,1114.1,542.8,1114.1,545.9z M1107.6,545.9c0,2.1,1,3.3,2.3,3.3s2.3-1.1,2.3-3.3c0-2.1-1-3.3-2.3-3.3
			C1108.6,542.7,1107.6,543.8,1107.6,545.9z"/>
		<path class="st3" d="M1115.3,542.5c0.5-0.7,1.5-1.7,3.3-1.7c2.1,0,3.3,1.3,3.3,3.2c0,1.2-0.6,2-1.4,2.9l-2.1,2.2h3.7v1.8h-6.5
			v-1.5l3.5-3.6c0.5-0.5,0.8-1.1,0.8-1.7c0-0.9-0.6-1.5-1.5-1.5s-1.5,0.5-2,1.1L1115.3,542.5z"/>
		<path class="st3" d="M1131.9,545.9c0,3.2-1.9,5.1-4.2,5.1c-2.3,0-4.2-1.9-4.2-5.1s1.9-5.1,4.2-5.1
			C1130,540.9,1131.9,542.8,1131.9,545.9z M1125.4,545.9c0,2.1,1,3.3,2.3,3.3s2.3-1.1,2.3-3.3c0-2.1-1-3.3-2.3-3.3
			C1126.4,542.7,1125.4,543.8,1125.4,545.9z"/>
	</g>
	<g>
		<path class="st3" d="M1162.2,541c3.1,0,5.1,1.9,5.1,4.9s-2,4.9-5.1,4.9h-4V541H1162.2z M1160.1,542.9v6.1h2.1
			c2.1,0,3.1-1.3,3.1-3.1s-1-3.1-3.1-3.1L1160.1,542.9L1160.1,542.9z"/>
		<path class="st3" d="M1175.2,547.4c0,0.2,0,0.5,0,0.6h-4.8c0.2,1,0.9,1.4,1.7,1.4c0.6,0,1.2-0.2,1.7-0.7l1.1,1.2
			c-0.8,0.7-1.8,1-2.9,1c-2.1,0-3.5-1.4-3.5-3.6c0-2.1,1.4-3.6,3.4-3.6C1173.8,543.9,1175.2,545.3,1175.2,547.4z M1170.4,546.8h3
			c-0.2-0.9-0.7-1.4-1.5-1.4C1171,545.4,1170.5,546,1170.4,546.8z M1170.7,543.1l1.4-2.2h2.2l-1.8,2.2H1170.7z"/>
		<path class="st3" d="M1182.6,545.1l-1.3,1.1c-0.4-0.4-0.9-0.7-1.4-0.7c-0.9,0-1.7,0.7-1.7,1.9c0,1.1,0.7,1.9,1.7,1.9
			c0.6,0,1.1-0.3,1.5-0.7l1.3,1.1c-0.6,0.8-1.6,1.3-2.7,1.3c-2.2,0-3.6-1.5-3.6-3.6s1.5-3.6,3.6-3.6
			C1181,543.9,1182,544.3,1182.6,545.1z"/>
		<path class="st3" d="M1186.2,549.6c0,0.7-0.6,1.4-1.4,1.4c-0.7,0-1.4-0.6-1.4-1.4c0-0.7,0.6-1.4,1.4-1.4
			C1185.6,548.3,1186.2,548.9,1186.2,549.6z"/>
		<path class="st3" d="M1190.8,542.5c0.5-0.7,1.5-1.7,3.3-1.7c2.1,0,3.3,1.3,3.3,3.2c0,1.2-0.6,2-1.4,2.9l-2.1,2.2h3.7v1.8h-6.5
			v-1.5l3.5-3.6c0.5-0.5,0.8-1.1,0.8-1.7c0-0.9-0.6-1.5-1.5-1.5s-1.5,0.5-2,1.1L1190.8,542.5z"/>
		<path class="st3" d="M1207.3,545.9c0,3.2-1.9,5.1-4.2,5.1c-2.3,0-4.2-1.9-4.2-5.1s1.9-5.1,4.2-5.1
			C1205.5,540.9,1207.3,542.8,1207.3,545.9z M1200.9,545.9c0,2.1,1,3.3,2.3,3.3s2.3-1.1,2.3-3.3c0-2.1-1-3.3-2.3-3.3
			C1201.9,542.7,1200.9,543.8,1200.9,545.9z"/>
		<path class="st3" d="M1208.5,542.5c0.5-0.7,1.5-1.7,3.3-1.7c2.1,0,3.3,1.3,3.3,3.2c0,1.2-0.6,2-1.4,2.9l-2.1,2.2h3.7v1.8h-6.5
			v-1.5l3.5-3.6c0.5-0.5,0.8-1.1,0.8-1.7c0-0.9-0.6-1.5-1.5-1.5s-1.5,0.5-2,1.1L1208.5,542.5z"/>
		<path class="st3" d="M1225.1,545.9c0,3.2-1.9,5.1-4.2,5.1c-2.3,0-4.2-1.9-4.2-5.1s1.9-5.1,4.2-5.1
			C1223.2,540.9,1225.1,542.8,1225.1,545.9z M1218.6,545.9c0,2.1,1,3.3,2.3,3.3s2.3-1.1,2.3-3.3c0-2.1-1-3.3-2.3-3.3
			C1219.6,542.7,1218.6,543.8,1218.6,545.9z"/>
	</g>
</g>
<g>
	<rect x="64.5" y="583.2" class="st7" width="19.1" height="19.1"/>
	<g>
		<path class="st3" d="M105.9,597.7h-2.4l-1-2.6h-4.8l-1,2.6h-2.3l4.4-11.2h2.7L105.9,597.7z M98.6,593.1h3.2l-1.6-4.3L98.6,593.1z"
			/>
		<path class="st3" d="M112.8,592.1c-0.6-0.3-1.6-0.6-2.5-0.6c-0.8,0-1.2,0.3-1.2,0.7c0,0.4,0.6,0.6,1.3,0.7l0.7,0.1
			c1.7,0.3,2.6,1,2.6,2.3c0,1.6-1.3,2.6-3.6,2.6c-1.1,0-2.4-0.2-3.4-0.9l0.8-1.6c0.7,0.4,1.5,0.8,2.6,0.8c1,0,1.4-0.3,1.4-0.7
			c0-0.4-0.4-0.6-1.3-0.7l-0.6-0.1c-1.8-0.2-2.7-1-2.7-2.4c0-1.6,1.2-2.5,3.3-2.5c1.2,0,2.2,0.2,3.2,0.7L112.8,592.1z"/>
		<path class="st3" d="M117.7,587.4c0,0.8-0.6,1.3-1.3,1.3c-0.8,0-1.3-0.6-1.3-1.3s0.6-1.3,1.3-1.3
			C117.1,586.1,117.7,586.7,117.7,587.4z M117.4,597.7h-2.1V590h2.1V597.7z"/>
		<path class="st3" d="M126.8,593.8c0,0.2,0,0.5,0,0.7h-5.5c0.2,1.1,1,1.6,2,1.6c0.7,0,1.4-0.3,2-0.7l1.2,1.3
			c-0.9,0.8-2,1.2-3.3,1.2c-2.4,0-4-1.6-4-4.1s1.6-4.1,3.9-4.1C125.3,589.8,126.8,591.4,126.8,593.8z M121.3,593.1h3.4
			c-0.2-1-0.8-1.6-1.7-1.6C122,591.6,121.5,592.2,121.3,593.1z"/>
	</g>
	<rect x="178" y="583.2" class="st10" width="19.1" height="19.1"/>
	<g>
		<path class="st3" d="M216.6,597.7h-8.4v-11.2h8.3v2h-6.1v2.5h5.8v2h-5.8v2.6h6.1V597.7z"/>
		<path class="st3" d="M226,594.4c0,2.4-1.7,3.5-3.7,3.5c-1.9,0-3.7-1.1-3.7-3.5v-4.4h2.1v4.3c0,1.2,0.7,1.7,1.6,1.7
			c0.9,0,1.6-0.5,1.6-1.7v-4.3h2.1V594.4z"/>
		<path class="st3" d="M233.4,589.9l-0.3,2.1c-0.3-0.2-0.8-0.2-1.3-0.2c-1,0-1.6,0.6-1.6,1.7v4.2h-2.1v-7.7h2v0.8
			c0.5-0.7,1.2-1.1,2.2-1.1C232.7,589.7,233.1,589.8,233.4,589.9z"/>
		<path class="st3" d="M242.7,593.8c0,2.3-1.8,4.1-4.2,4.1c-2.4,0-4.2-1.7-4.2-4.1c0-2.3,1.8-4.1,4.2-4.1
			C240.9,589.7,242.7,591.5,242.7,593.8z M236.5,593.8c0,1.3,0.9,2.1,2.1,2.1s2.1-0.9,2.1-2.1c0-1.3-0.9-2.1-2.1-2.1
			S236.5,592.6,236.5,593.8z"/>
		<path class="st3" d="M252.5,593.8c0,2.3-1.6,4.1-3.8,4.1c-1,0-1.8-0.4-2.3-1v4h-2.1v-10.9h2v0.9c0.5-0.6,1.2-1.1,2.3-1.1
			C250.9,589.7,252.5,591.5,252.5,593.8z M246.4,593.8c0,1.2,0.8,2.1,2,2.1c1.2,0,2-1,2-2.1c0-1.2-0.8-2.1-2-2.1
			C247.2,591.7,246.4,592.6,246.4,593.8z"/>
		<path class="st3" d="M261.4,593.8c0,0.2,0,0.5,0,0.7h-5.5c0.2,1.1,1,1.6,2,1.6c0.7,0,1.4-0.3,2-0.7l1.2,1.3
			c-0.9,0.8-2,1.2-3.3,1.2c-2.4,0-4-1.6-4-4.1s1.6-4.1,3.9-4.1C259.9,589.7,261.4,591.4,261.4,593.8z M255.9,593.1h3.4
			c-0.2-1-0.8-1.6-1.7-1.6C256.7,591.5,256.1,592.1,255.9,593.1z"/>
		<path class="st3" d="M273.9,591.2l-1.5,1.3c-0.5-0.5-1-0.8-1.7-0.8c-1.1,0-1.9,0.8-1.9,2.1c0,1.3,0.9,2.1,1.9,2.1
			c0.7,0,1.2-0.3,1.7-0.8l1.5,1.3c-0.7,0.9-1.8,1.5-3.1,1.5c-2.5,0-4.1-1.7-4.1-4.1c0-2.3,1.7-4.1,4.1-4.1
			C272,589.7,273.1,590.3,273.9,591.2z"/>
		<path class="st3" d="M282.6,593.8c0,0.2,0,0.5,0,0.7H277c0.2,1.1,1,1.6,2,1.6c0.7,0,1.4-0.3,2-0.7l1.2,1.3c-0.9,0.8-2,1.2-3.3,1.2
			c-2.4,0-4-1.6-4-4.1s1.6-4.1,3.9-4.1C281,589.7,282.6,591.4,282.6,593.8z M277,593.1h3.4c-0.2-1-0.8-1.6-1.7-1.6
			C277.8,591.5,277.2,592.1,277,593.1z"/>
		<path class="st3" d="M291.6,592.8v4.9h-2.1v-4.3c0-1.1-0.6-1.7-1.5-1.7c-0.9,0-1.6,0.6-1.6,1.8v4.2h-2.1v-7.7h2v0.9
			c0.6-0.8,1.4-1.1,2.3-1.1C290.3,589.7,291.6,591,291.6,592.8z"/>
		<path class="st3" d="M299.4,591.8h-2.8v2.8c0,1,0.5,1.3,1.2,1.3c0.5,0,1-0.2,1.5-0.5l0.8,1.6c-0.7,0.5-1.5,0.8-2.6,0.8
			c-1.9,0-2.9-1.1-2.9-3.1v-3H293v-1.9h1.5v-2.3h2.1v2.3h2.8V591.8z"/>
		<path class="st3" d="M306.5,589.9l-0.3,2.1c-0.3-0.2-0.8-0.2-1.3-0.2c-1,0-1.6,0.6-1.6,1.7v4.2h-2.1v-7.7h2v0.8
			c0.5-0.7,1.2-1.1,2.2-1.1C305.9,589.7,306.2,589.8,306.5,589.9z"/>
		<path class="st3" d="M315.5,597.7h-2v-0.9c-0.5,0.6-1.3,1.1-2.3,1.1c-2.1,0-3.8-1.8-3.8-4.1c0-2.3,1.6-4.1,3.8-4.1
			c1.1,0,1.8,0.4,2.3,1.1v-0.9h2V597.7z M309.6,593.8c0,1.2,0.8,2.1,2,2.1c1.2,0,2-0.9,2-2.1c0-1.2-0.8-2.1-2-2.1
			C310.3,591.7,309.6,592.6,309.6,593.8z"/>
		<path class="st3" d="M319.8,597.7h-2.1v-11.5h2.1V597.7z"/>
		<path class="st3" d="M329.2,593.8c0,0.2,0,0.5,0,0.7h-5.5c0.2,1.1,1,1.6,2,1.6c0.7,0,1.4-0.3,2-0.7l1.2,1.3
			c-0.9,0.8-2,1.2-3.3,1.2c-2.4,0-4-1.6-4-4.1s1.6-4.1,3.9-4.1C327.7,589.7,329.2,591.4,329.2,593.8z M323.7,593.1h3.4
			c-0.2-1-0.8-1.6-1.7-1.6C324.5,591.5,323.9,592.1,323.7,593.1z"/>
		<path class="st3" d="M342.1,593.8c0,0.2,0,0.5,0,0.7h-5.5c0.2,1.1,1,1.6,2,1.6c0.7,0,1.4-0.3,2-0.7l1.2,1.3
			c-0.9,0.8-2,1.2-3.3,1.2c-2.4,0-4-1.6-4-4.1s1.6-4.1,3.9-4.1C340.6,589.7,342.1,591.4,342.1,593.8z M336.6,593.1h3.4
			c-0.2-1-0.8-1.6-1.7-1.6C337.3,591.5,336.8,592.1,336.6,593.1z"/>
		<path class="st3" d="M349.4,591.8h-2.8v2.8c0,1,0.5,1.3,1.2,1.3c0.5,0,1-0.2,1.5-0.5l0.8,1.6c-0.7,0.5-1.5,0.8-2.6,0.8
			c-1.9,0-2.9-1.1-2.9-3.1v-3H343v-1.9h1.5v-2.3h2.1v2.3h2.8V591.8z"/>
		<path class="st3" d="M363.1,593.8c0,2.3-1.8,4.1-4.2,4.1c-2.4,0-4.2-1.7-4.2-4.1c0-2.3,1.8-4.1,4.2-4.1
			C361.3,589.7,363.1,591.5,363.1,593.8z M356.9,593.8c0,1.3,0.9,2.1,2.1,2.1s2.1-0.9,2.1-2.1c0-1.3-0.9-2.1-2.1-2.1
			S356.9,592.6,356.9,593.8z"/>
		<path class="st3" d="M370.1,589.9l-0.3,2.1c-0.3-0.2-0.8-0.2-1.3-0.2c-1,0-1.6,0.6-1.6,1.7v4.2h-2.1v-7.7h2v0.8
			c0.5-0.7,1.2-1.1,2.2-1.1C369.5,589.7,369.8,589.8,370.1,589.9z"/>
		<path class="st3" d="M373.9,587.4c0,0.8-0.6,1.3-1.3,1.3c-0.8,0-1.3-0.6-1.3-1.3s0.6-1.3,1.3-1.3
			C373.3,586.1,373.9,586.7,373.9,587.4z M373.6,597.7h-2.1v-7.7h2.1V597.7z"/>
		<path class="st3" d="M383,593.8c0,0.2,0,0.5,0,0.7h-5.5c0.2,1.1,1,1.6,2,1.6c0.7,0,1.4-0.3,2-0.7l1.2,1.3c-0.9,0.8-2,1.2-3.3,1.2
			c-2.4,0-4-1.6-4-4.1s1.6-4.1,3.9-4.1C381.5,589.7,383,591.4,383,593.8z M377.5,593.1h3.4c-0.2-1-0.8-1.6-1.7-1.6
			C378.3,591.5,377.7,592.1,377.5,593.1z"/>
		<path class="st3" d="M392.1,592.8v4.9H390v-4.3c0-1.1-0.6-1.7-1.5-1.7c-0.9,0-1.6,0.6-1.6,1.8v4.2h-2.1v-7.7h2v0.9
			c0.6-0.8,1.4-1.1,2.3-1.1C390.8,589.7,392.1,591,392.1,592.8z"/>
		<path class="st3" d="M399.8,591.8H397v2.8c0,1,0.5,1.3,1.2,1.3c0.5,0,1-0.2,1.5-0.5l0.8,1.6c-0.7,0.5-1.5,0.8-2.6,0.8
			c-1.9,0-2.9-1.1-2.9-3.1v-3h-1.5v-1.9h1.5v-2.3h2.1v2.3h2.8V591.8z"/>
		<path class="st3" d="M409.3,597.7h-2v-0.9c-0.5,0.6-1.3,1.1-2.3,1.1c-2.1,0-3.8-1.8-3.8-4.1c0-2.3,1.6-4.1,3.8-4.1
			c1.1,0,1.8,0.4,2.3,1.1v-0.9h2V597.7z M403.3,593.8c0,1.2,0.8,2.1,2,2.1c1.2,0,2-0.9,2-2.1c0-1.2-0.8-2.1-2-2.1
			C404.1,591.7,403.3,592.6,403.3,593.8z"/>
		<path class="st3" d="M413.6,597.7h-2.1v-11.5h2.1V597.7z"/>
		<path class="st3" d="M423,593.8c0,0.2,0,0.5,0,0.7h-5.5c0.2,1.1,1,1.6,2,1.6c0.7,0,1.4-0.3,2-0.7l1.2,1.3c-0.9,0.8-2,1.2-3.3,1.2
			c-2.4,0-4-1.6-4-4.1s1.6-4.1,3.9-4.1C421.4,589.7,423,591.4,423,593.8z M417.5,593.1h3.4c-0.2-1-0.8-1.6-1.7-1.6
			C418.2,591.5,417.6,592.1,417.5,593.1z"/>
		<path class="st3" d="M427.1,595.2l-1.1,4.8h-1.8l0.5-4.8H427.1z"/>
		<path class="st3" d="M445.4,597.7h-2.2v-8.5l-2.8,7.4h-2.4l-2.8-7.3v8.4h-2.2v-11.2h3.3l2.9,7.6l2.9-7.6h3.3V597.7z"/>
		<path class="st3" d="M455.7,593.8c0,2.3-1.8,4.1-4.2,4.1c-2.4,0-4.2-1.7-4.2-4.1c0-2.3,1.8-4.1,4.2-4.1
			C453.9,589.7,455.7,591.5,455.7,593.8z M449.5,593.8c0,1.3,0.9,2.1,2.1,2.1s2.1-0.9,2.1-2.1c0-1.3-0.9-2.1-2.1-2.1
			S449.5,592.6,449.5,593.8z"/>
		<path class="st3" d="M459.4,600.9h-2.3l2.7-4.9l-3.3-6.1h2.4l2.1,4l2.1-4h2.3L459.4,600.9z"/>
		<path class="st3" d="M473.7,593.8c0,0.2,0,0.5,0,0.7h-5.5c0.2,1.1,1,1.6,2,1.6c0.7,0,1.4-0.3,2-0.7l1.2,1.3
			c-0.9,0.8-2,1.2-3.3,1.2c-2.4,0-4-1.6-4-4.1s1.6-4.1,3.9-4.1C472.1,589.7,473.6,591.4,473.7,593.8z M468.1,593.1h3.4
			c-0.2-1-0.8-1.6-1.7-1.6C468.9,591.5,468.3,592.1,468.1,593.1z"/>
		<path class="st3" d="M482.7,592.8v4.9h-2.1v-4.3c0-1.1-0.6-1.7-1.5-1.7c-0.9,0-1.6,0.6-1.6,1.8v4.2h-2.1v-7.7h2v0.9
			c0.6-0.8,1.4-1.1,2.3-1.1C481.4,589.7,482.7,591,482.7,592.8z"/>
		<path class="st3" d="M489.3,594.4h-4.7v-1.8h4.7V594.4z"/>
		<path class="st3" d="M502.7,592.1c0,3.3-2.4,5.8-5.9,5.8c-3.4,0-5.9-2.5-5.9-5.8s2.4-5.8,5.9-5.8
			C500.3,586.3,502.7,588.8,502.7,592.1z M493.3,592.1c0,2.2,1.5,3.7,3.5,3.7c2.1,0,3.6-1.5,3.6-3.7s-1.5-3.7-3.6-3.7
			C494.8,588.4,493.3,589.9,493.3,592.1z"/>
		<path class="st3" d="M509.9,589.9l-0.3,2.1c-0.3-0.2-0.8-0.2-1.3-0.2c-1,0-1.6,0.6-1.6,1.7v4.2h-2.1v-7.7h2v0.8
			c0.5-0.7,1.2-1.1,2.2-1.1C509.2,589.7,509.6,589.8,509.9,589.9z"/>
		<path class="st3" d="M513.7,587.4c0,0.8-0.6,1.3-1.3,1.3s-1.3-0.6-1.3-1.3s0.6-1.3,1.3-1.3S513.7,586.7,513.7,587.4z M513.4,597.7
			h-2.1v-7.7h2.1V597.7z"/>
		<path class="st3" d="M522.8,593.8c0,0.2,0,0.5,0,0.7h-5.5c0.2,1.1,1,1.6,2,1.6c0.7,0,1.4-0.3,2-0.7l1.2,1.3
			c-0.9,0.8-2,1.2-3.3,1.2c-2.4,0-4-1.6-4-4.1s1.6-4.1,3.9-4.1C521.2,589.7,522.8,591.4,522.8,593.8z M517.2,593.1h3.4
			c-0.2-1-0.8-1.6-1.7-1.6C518,591.5,517.4,592.1,517.2,593.1z"/>
		<path class="st3" d="M531.8,592.8v4.9h-2.1v-4.3c0-1.1-0.6-1.7-1.5-1.7c-0.9,0-1.6,0.6-1.6,1.8v4.2h-2.1v-7.7h2v0.9
			c0.6-0.8,1.4-1.1,2.3-1.1C530.5,589.7,531.8,591,531.8,592.8z"/>
		<path class="st3" d="M539.6,591.8h-2.8v2.8c0,1,0.5,1.3,1.2,1.3c0.5,0,1-0.2,1.5-0.5l0.8,1.6c-0.7,0.5-1.5,0.8-2.6,0.8
			c-1.9,0-2.9-1.1-2.9-3.1v-3h-1.5v-1.9h1.5v-2.3h2.1v2.3h2.8V591.8z"/>
		<path class="st3" d="M552.6,593.8c0,0.2,0,0.5,0,0.7H547c0.2,1.1,1,1.6,2,1.6c0.7,0,1.4-0.3,2-0.7l1.2,1.3c-0.9,0.8-2,1.2-3.3,1.2
			c-2.4,0-4-1.6-4-4.1s1.6-4.1,3.9-4.1C551,589.7,552.6,591.4,552.6,593.8z M547,593.1h3.4c-0.2-1-0.8-1.6-1.7-1.6
			C547.8,591.5,547.2,592.1,547,593.1z"/>
		<path class="st3" d="M559.9,591.8h-2.8v2.8c0,1,0.5,1.3,1.2,1.3c0.5,0,1-0.2,1.5-0.5l0.8,1.6c-0.7,0.5-1.5,0.8-2.6,0.8
			c-1.9,0-2.9-1.1-2.9-3.1v-3h-1.5v-1.9h1.5v-2.3h2.1v2.3h2.8V591.8z"/>
		<path class="st3" d="M576.2,597.7h-2.4l-1-2.6h-4.8l-1,2.6h-2.3l4.4-11.2h2.7L576.2,597.7z M568.8,593h3.2l-1.6-4.3L568.8,593z"/>
		<path class="st3" d="M582.6,591.8h-2.4v5.9h-2.1v-5.9h-1.4v-1.9h1.4v-1c0-1.8,1-3,2.8-3c1.1,0,1.8,0.3,2.4,0.7l-0.8,1.6
			c-0.4-0.2-0.8-0.4-1.3-0.4c-0.6,0-0.9,0.4-0.9,1.1v0.9h2.4V591.8z"/>
		<path class="st3" d="M589.6,589.9l-0.3,2.1c-0.3-0.2-0.8-0.2-1.3-0.2c-1,0-1.6,0.6-1.6,1.7v4.2h-2.1v-7.7h2v0.8
			c0.5-0.7,1.2-1.1,2.2-1.1C588.9,589.7,589.3,589.8,589.6,589.9z"/>
		<path class="st3" d="M593.3,587.4c0,0.8-0.6,1.3-1.3,1.3c-0.8,0-1.3-0.6-1.3-1.3s0.6-1.3,1.3-1.3
			C592.8,586.1,593.3,586.7,593.3,587.4z M593.1,597.7H591v-7.7h2.1V597.7z"/>
		<path class="st3" d="M600.8,590.8v-0.9h2v10.9h-2.1v-4c-0.5,0.6-1.2,1-2.3,1c-2.1,0-3.8-1.8-3.8-4.1c0-2.3,1.6-4.1,3.8-4.1
			C599.6,589.7,600.3,590.2,600.8,590.8z M596.9,593.8c0,1.2,0.8,2.1,2,2.1c1.2,0,2-0.9,2-2.1c0-1.2-0.8-2.1-2-2.1
			C597.7,591.7,596.9,592.6,596.9,593.8z"/>
		<path class="st3" d="M612.3,594.4c0,2.4-1.7,3.5-3.7,3.5c-1.9,0-3.7-1.1-3.7-3.5v-4.4h2.1v4.3c0,1.2,0.7,1.7,1.6,1.7
			c0.9,0,1.6-0.5,1.6-1.7v-4.3h2.1V594.4z"/>
		<path class="st3" d="M621.7,593.8c0,0.2,0,0.5,0,0.7h-5.5c0.2,1.1,1,1.6,2,1.6c0.7,0,1.4-0.3,2-0.7l1.2,1.3
			c-0.9,0.8-2,1.2-3.3,1.2c-2.4,0-4-1.6-4-4.1s1.6-4.1,3.9-4.1C620.2,589.7,621.7,591.4,621.7,593.8z M616.2,593.1h3.4
			c-0.2-1-0.8-1.6-1.7-1.6C616.9,591.5,616.3,592.1,616.2,593.1z"/>
	</g>
	<rect x="663.5" y="583.2" class="st9" width="19.1" height="19.1"/>
	<g>
		<path class="st3" d="M703.7,597.7h-2.4l-1-2.6h-4.8l-1,2.6h-2.3l4.4-11.2h2.7L703.7,597.7z M696.3,593.1h3.2l-1.6-4.3L696.3,593.1
			z"/>
		<path class="st3" d="M717.5,592.8v4.9h-2.1v-4.3c0-1.1-0.6-1.7-1.5-1.7c-0.9,0-1.6,0.6-1.6,1.8v4.2h-2.1v-4.3
			c0-1.1-0.6-1.7-1.5-1.7c-0.9,0-1.6,0.6-1.6,1.8v4.2h-2.1V590h2v0.9c0.6-0.8,1.4-1.1,2.3-1.1c1.1,0,2,0.5,2.6,1.3
			c0.6-1,1.6-1.3,2.6-1.3C716.3,589.8,717.5,591,717.5,592.8z"/>
		<path class="st3" d="M726.8,593.8c0,0.2,0,0.5,0,0.7h-5.5c0.2,1.1,1,1.6,2,1.6c0.7,0,1.4-0.3,2-0.7l1.2,1.3
			c-0.9,0.8-2,1.2-3.3,1.2c-2.4,0-4-1.6-4-4.1s1.6-4.1,3.9-4.1C725.3,589.8,726.8,591.4,726.8,593.8z M721.3,593.1h3.4
			c-0.2-1-0.8-1.6-1.7-1.6C722.1,591.6,721.5,592.2,721.3,593.1z M721.7,588.9l1.6-2.5h2.5l-2.1,2.5H721.7z"/>
		<path class="st3" d="M733.8,589.9l-0.3,2.1c-0.3-0.2-0.8-0.2-1.3-0.2c-1,0-1.6,0.6-1.6,1.7v4.2h-2.1V590h2v0.8
			c0.5-0.7,1.2-1.1,2.2-1.1C733.2,589.8,733.6,589.8,733.8,589.9z"/>
		<path class="st3" d="M737.6,587.4c0,0.8-0.6,1.3-1.3,1.3c-0.8,0-1.3-0.6-1.3-1.3s0.6-1.3,1.3-1.3
			C737.1,586.1,737.6,586.7,737.6,587.4z M737.4,597.7h-2.1V590h2.1V597.7z"/>
		<path class="st3" d="M745.1,590.8V590h2v10.9h-2.1v-4c-0.5,0.6-1.2,1-2.3,1c-2.1,0-3.8-1.8-3.8-4.1c0-2.3,1.6-4.1,3.8-4.1
			C743.9,589.8,744.6,590.2,745.1,590.8z M741.2,593.8c0,1.2,0.8,2.1,2,2.1c1.2,0,2-0.9,2-2.1c0-1.2-0.8-2.1-2-2.1
			C742,591.7,741.2,592.7,741.2,593.8z"/>
		<path class="st3" d="M756.6,594.4c0,2.4-1.7,3.5-3.7,3.5c-1.9,0-3.7-1.1-3.7-3.5V590h2.1v4.3c0,1.2,0.7,1.7,1.6,1.7
			c0.9,0,1.6-0.5,1.6-1.7V590h2.1V594.4z"/>
		<path class="st3" d="M766,593.8c0,0.2,0,0.5,0,0.7h-5.5c0.2,1.1,1,1.6,2,1.6c0.7,0,1.4-0.3,2-0.7l1.2,1.3c-0.9,0.8-2,1.2-3.3,1.2
			c-2.4,0-4-1.6-4-4.1s1.6-4.1,3.9-4.1C764.4,589.8,766,591.4,766,593.8z M760.5,593.1h3.4c-0.2-1-0.8-1.6-1.7-1.6
			C761.2,591.6,760.6,592.2,760.5,593.1z"/>
		<path class="st3" d="M773.7,597.7h-2.1v-11.5h2.1V597.7z"/>
		<path class="st3" d="M783.6,597.7h-2v-0.9c-0.5,0.6-1.3,1.1-2.3,1.1c-2.1,0-3.8-1.8-3.8-4.1c0-2.3,1.6-4.1,3.8-4.1
			c1.1,0,1.8,0.4,2.3,1.1V590h2V597.7z M777.6,593.8c0,1.2,0.8,2.1,2,2.1c1.2,0,2-0.9,2-2.1c0-1.2-0.8-2.1-2-2.1
			C778.4,591.7,777.6,592.7,777.6,593.8z"/>
		<path class="st3" d="M791.4,591.8h-2.8v2.8c0,1,0.5,1.3,1.2,1.3c0.5,0,1-0.2,1.5-0.5l0.8,1.6c-0.7,0.5-1.5,0.8-2.6,0.8
			c-1.9,0-2.9-1.1-2.9-3.1v-3H785V590h1.5v-2.3h2.1v2.3h2.8V591.8z"/>
		<path class="st3" d="M795.6,587.4c0,0.8-0.6,1.3-1.3,1.3c-0.8,0-1.3-0.6-1.3-1.3s0.6-1.3,1.3-1.3
			C795,586.1,795.6,586.7,795.6,587.4z M795.3,597.7h-2.1V590h2.1V597.7z"/>
		<path class="st3" d="M804.8,592.8v4.9h-2.1v-4.3c0-1.1-0.6-1.7-1.5-1.7c-0.9,0-1.6,0.6-1.6,1.8v4.2h-2.1V590h2v0.9
			c0.6-0.8,1.4-1.1,2.3-1.1C803.6,589.8,804.8,591,804.8,592.8z"/>
		<path class="st3" d="M814.2,593.8c0,0.2,0,0.5,0,0.7h-5.5c0.2,1.1,1,1.6,2,1.6c0.7,0,1.4-0.3,2-0.7l1.2,1.3
			c-0.9,0.8-2,1.2-3.3,1.2c-2.4,0-4-1.6-4-4.1s1.6-4.1,3.9-4.1C812.6,589.8,814.1,591.4,814.2,593.8z M808.6,593.1h3.4
			c-0.2-1-0.8-1.6-1.7-1.6C809.4,591.6,808.8,592.2,808.6,593.1z"/>
	</g>
</g>
<g>
	<path d="M7.9,442.8c-0.5,0.8-0.9,1.8-0.9,3c0,1.2,0.5,2,1.3,2c0.8,0,1-0.9,1.2-2.2l0.1-0.6c0.3-1.9,1.1-3.3,2.9-3.3
		c2.3,0,3.4,2,3.4,4.3c0,1.6-0.5,3.3-1.4,4.4l-1.7-1.1c0.6-0.8,1.1-2,1.1-3.3c0-1.2-0.5-2.1-1.3-2.1c-0.7,0-1,0.8-1.2,2.2l-0.1,0.7
		c-0.3,1.9-1.1,3.2-3,3.2c-2.2,0-3.3-2-3.3-4.2c0-1.5,0.3-2.7,1.1-4L7.9,442.8z"/>
	<path d="M12.6,433.1c2.3,0,3.3,1.6,3.3,3.4c0,1.8-1,3.4-3.3,3.4H8.5v-2h4c1.2,0,1.6-0.6,1.6-1.5c0-0.8-0.5-1.5-1.6-1.5h-4v-2H12.6z
		"/>
	<path d="M8.4,426.1l1.9,0.3c-0.1,0.3-0.2,0.8-0.2,1.2c0,0.9,0.6,1.5,1.6,1.5h4v2H8.5v-1.9h0.8c-0.7-0.5-1-1.2-1-2
		C8.3,426.7,8.3,426.4,8.4,426.1z"/>
	<path d="M15.7,419.2v2H4.9v-2H15.7z"/>
	<path d="M15.7,410v1.9h-0.8c0.6,0.5,1,1.2,1,2.2c0,2-1.6,3.5-3.8,3.5s-3.8-1.5-3.8-3.5c0-1,0.4-1.7,1-2.2H8.5V410H15.7z
		 M12.1,415.6c1.1,0,2-0.7,2-1.9c0-1.1-0.9-1.9-2-1.9c-1.1,0-2,0.8-2,1.9C10.1,414.9,11,415.6,12.1,415.6z"/>
	<path d="M12.1,396.6c2.2,0,3.8,1.5,3.8,3.5c0,1-0.4,1.7-1,2.2h0.8v1.9H4.9v-2h4.3c-0.6-0.5-1-1.2-1-2.1
		C8.3,398.2,9.9,396.6,12.1,396.6z M12.1,402.4c1.1,0,2-0.8,2-1.9c0-1.2-0.9-1.9-2-1.9c-1.1,0-2,0.7-2,1.9
		C10.1,401.6,11,402.4,12.1,402.4z"/>
	<path d="M15.7,387.9v1.9h-0.8c0.6,0.5,1,1.2,1,2.2c0,2-1.6,3.5-3.8,3.5S8.3,394,8.3,392c0-1,0.4-1.7,1-2.2H8.5v-1.9H15.7z
		 M12.1,393.5c1.1,0,2-0.7,2-1.9c0-1.1-0.9-1.9-2-1.9c-1.1,0-2,0.8-2,1.9C10.1,392.8,11,393.5,12.1,393.5z"/>
	<path d="M10.5,380.6c-0.3,0.6-0.6,1.5-0.6,2.3c0,0.7,0.3,1.1,0.7,1.1c0.4,0,0.5-0.5,0.6-1.2l0.1-0.6c0.2-1.6,0.9-2.5,2.2-2.5
		c1.5,0,2.5,1.2,2.5,3.3c0,1-0.2,2.3-0.9,3.2l-1.5-0.8c0.4-0.6,0.7-1.4,0.7-2.5c0-0.9-0.3-1.3-0.7-1.3c-0.4,0-0.5,0.4-0.7,1.2
		l-0.1,0.6c-0.2,1.7-1,2.5-2.2,2.5c-1.5,0-2.4-1.2-2.4-3.1c0-1.2,0.2-2.1,0.7-3L10.5,380.6z"/>
	<path d="M12.1,371.5c0.2,0,0.5,0,0.7,0v5.2c1.1-0.2,1.5-0.9,1.5-1.9c0-0.6-0.3-1.3-0.7-1.8l1.3-1.1c0.8,0.8,1.1,1.9,1.1,3.1
		c0,2.2-1.5,3.8-3.8,3.8c-2.3,0-3.9-1.5-3.9-3.7C8.3,372.9,9.8,371.5,12.1,371.5z M11.4,376.7v-3.2c-0.9,0.2-1.5,0.7-1.5,1.6
		C10,376,10.5,376.5,11.4,376.7z"/>
	<path d="M9.2,361H4.9v-2h10.8v1.9h-0.8c0.6,0.5,1,1.2,1,2.2c0,2-1.6,3.5-3.8,3.5s-3.8-1.5-3.8-3.5C8.3,362.1,8.7,361.4,9.2,361z
		 M12.1,364.6c1.1,0,2-0.7,2-1.9c0-1.1-0.9-1.9-2-1.9c-1.1,0-2,0.8-2,1.9C10.1,363.9,11,364.6,12.1,364.6z"/>
	<path d="M4.9,354.4h4.5v2H4.9V354.4z"/>
	<path d="M12.6,344.8c2.3,0,3.3,1.6,3.3,3.4c0,1.8-1,3.4-3.3,3.4H8.5v-2h4c1.2,0,1.6-0.6,1.6-1.5c0-0.8-0.5-1.5-1.6-1.5h-4v-2H12.6z
		"/>
	<path d="M11.1,336h4.6v2h-4c-1.1,0-1.6,0.5-1.6,1.4c0,0.8,0.5,1.5,1.6,1.5h4v2H8.5V341h0.9c-0.8-0.5-1.1-1.3-1.1-2.1
		C8.3,337.2,9.4,336,11.1,336z"/>
	<path d="M6.1,328.1c0.7,0,1.2,0.5,1.2,1.3c0,0.7-0.5,1.2-1.2,1.2c-0.7,0-1.3-0.5-1.3-1.2C4.8,328.6,5.4,328.1,6.1,328.1z
		 M15.7,328.3v2H8.5v-2H15.7z"/>
	<path d="M11.1,319.4h4.6v2h-4c-1.1,0-1.6,0.5-1.6,1.4c0,0.8,0.5,1.5,1.6,1.5h4v2H8.5v-1.9h0.9c-0.8-0.5-1.1-1.3-1.1-2.1
		C8.3,320.6,9.4,319.4,11.1,319.4z"/>
	<path d="M15.7,313.4v2.3l-7.3,2.9v-2.1l5.2-1.9l-5.2-1.9v-2.1L15.7,313.4z"/>
	<path d="M12.1,302.8c0.2,0,0.5,0,0.7,0v5.2c1.1-0.2,1.5-0.9,1.5-1.9c0-0.6-0.3-1.3-0.7-1.8l1.3-1.1c0.8,0.8,1.1,1.9,1.1,3.1
		c0,2.2-1.5,3.8-3.8,3.8c-2.3,0-3.9-1.5-3.9-3.7C8.3,304.2,9.8,302.8,12.1,302.8z M11.4,308v-3.2c-0.9,0.2-1.5,0.7-1.5,1.6
		C10,307.3,10.5,307.8,11.4,308z"/>
	<path d="M10.5,296c-0.3,0.6-0.6,1.5-0.6,2.3c0,0.7,0.3,1.1,0.7,1.1c0.4,0,0.5-0.5,0.6-1.2l0.1-0.6c0.2-1.6,0.9-2.5,2.2-2.5
		c1.5,0,2.5,1.2,2.5,3.3c0,1-0.2,2.3-0.9,3.2l-1.5-0.8c0.4-0.6,0.7-1.4,0.7-2.5c0-0.9-0.3-1.3-0.7-1.3c-0.4,0-0.5,0.4-0.7,1.2
		l-0.1,0.6c-0.2,1.7-1,2.5-2.2,2.5c-1.5,0-2.4-1.2-2.4-3.1c0-1.2,0.2-2.1,0.7-3L10.5,296z"/>
	<path d="M10.2,288.4v2.6h2.7c0.9,0,1.2-0.5,1.2-1.1c0-0.5-0.2-1-0.5-1.4l1.5-0.7c0.4,0.6,0.8,1.4,0.8,2.4c0,1.8-1,2.7-2.9,2.7h-2.8
		v1.4H8.5V293H6.3v-2h2.2v-2.6H10.2z"/>
	<path d="M6.1,284.5c0.7,0,1.2,0.5,1.2,1.3c0,0.7-0.5,1.2-1.2,1.2c-0.7,0-1.3-0.5-1.3-1.2C4.8,285,5.4,284.5,6.1,284.5z M15.7,284.8
		v2H8.5v-2H15.7z"/>
	<path d="M10.5,277.5c-0.3,0.6-0.6,1.5-0.6,2.3c0,0.7,0.3,1.1,0.7,1.1c0.4,0,0.5-0.5,0.6-1.2l0.1-0.6c0.2-1.6,0.9-2.5,2.2-2.5
		c1.5,0,2.5,1.2,2.5,3.3c0,1-0.2,2.3-0.9,3.2l-1.5-0.8c0.4-0.6,0.7-1.4,0.7-2.5c0-0.9-0.3-1.3-0.7-1.3c-0.4,0-0.5,0.4-0.7,1.2
		l-0.1,0.6c-0.2,1.7-1,2.5-2.2,2.5c-1.5,0-2.4-1.2-2.4-3.1c0-1.2,0.2-2.1,0.7-3L10.5,277.5z"/>
	<path d="M10.5,269.9c-0.3,0.6-0.6,1.5-0.6,2.3c0,0.7,0.3,1.1,0.7,1.1c0.4,0,0.5-0.5,0.6-1.2l0.1-0.6c0.2-1.6,0.9-2.5,2.2-2.5
		c1.5,0,2.5,1.2,2.5,3.3c0,1-0.2,2.3-0.9,3.2l-1.5-0.8c0.4-0.6,0.7-1.4,0.7-2.5c0-0.9-0.3-1.3-0.7-1.3c-0.4,0-0.5,0.4-0.7,1.2
		l-0.1,0.6c-0.2,1.7-1,2.5-2.2,2.5c-1.5,0-2.4-1.2-2.4-3.1c0-1.2,0.2-2.1,0.7-3L10.5,269.9z"/>
	<path d="M12.1,260.8c0.2,0,0.5,0,0.7,0v5.2c1.1-0.2,1.5-0.9,1.5-1.9c0-0.6-0.3-1.3-0.7-1.8l1.3-1.1c0.8,0.8,1.1,1.9,1.1,3.1
		c0,2.2-1.5,3.8-3.8,3.8c-2.3,0-3.9-1.5-3.9-3.7C8.3,262.2,9.8,260.8,12.1,260.8z M11.4,266v-3.2c-0.9,0.2-1.5,0.7-1.5,1.6
		C10,265.3,10.5,265.8,11.4,266z"/>
	<path d="M11.1,247.4h4.6v2h-4c-1.1,0-1.6,0.5-1.6,1.4c0,0.8,0.5,1.5,1.6,1.5h4v2h-4c-1.1,0-1.6,0.5-1.6,1.4c0,0.8,0.5,1.5,1.6,1.5
		h4v2H8.5v-1.9h0.9c-0.8-0.5-1.1-1.3-1.1-2.1c0-1.1,0.5-1.9,1.2-2.4c-0.9-0.6-1.2-1.5-1.2-2.5C8.3,248.6,9.4,247.4,11.1,247.4z"/>
	<path d="M12.1,238.7c0.2,0,0.5,0,0.7,0v5.2c1.1-0.2,1.5-0.9,1.5-1.9c0-0.6-0.3-1.3-0.7-1.8l1.3-1.1c0.8,0.8,1.1,1.9,1.1,3.1
		c0,2.2-1.5,3.8-3.8,3.8c-2.3,0-3.9-1.5-3.9-3.7C8.3,240.1,9.8,238.7,12.1,238.7z M11.4,243.9v-3.2c-0.9,0.2-1.5,0.7-1.5,1.6
		C10,243.1,10.5,243.7,11.4,243.9z"/>
	<path d="M11.1,230.2h4.6v2h-4c-1.1,0-1.6,0.5-1.6,1.4c0,0.8,0.5,1.5,1.6,1.5h4v2H8.5v-1.9h0.9c-0.8-0.5-1.1-1.3-1.1-2.1
		C8.3,231.4,9.4,230.2,11.1,230.2z"/>
	<path d="M10.2,223v2.6h2.7c0.9,0,1.2-0.5,1.2-1.1c0-0.5-0.2-1-0.5-1.4l1.5-0.7c0.4,0.6,0.8,1.4,0.8,2.4c0,1.8-1,2.7-2.9,2.7h-2.8
		v1.4H8.5v-1.4H6.3v-2h2.2V223H10.2z"/>
	<path d="M6.1,215.4c0.7,0,1.2,0.5,1.2,1.3s-0.5,1.2-1.2,1.2c-0.7,0-1.3-0.5-1.3-1.2S5.4,215.4,6.1,215.4z M15.7,215.6v2H8.5v-2
		H15.7z"/>
	<path d="M11.1,206.7h4.6v2h-4c-1.1,0-1.6,0.5-1.6,1.4c0,0.8,0.5,1.5,1.6,1.5h4v2H8.5v-1.9h0.9c-0.8-0.5-1.1-1.3-1.1-2.1
		C8.3,207.9,9.4,206.7,11.1,206.7z"/>
	<path d="M6.1,202.5c0.7,0,1.2,0.5,1.2,1.3S6.8,205,6.1,205c-0.7,0-1.3-0.5-1.3-1.2S5.4,202.5,6.1,202.5z M15.7,202.7v2H8.5v-2H15.7
		z"/>
	<path d="M10.2,195.4v2.6h2.7c0.9,0,1.2-0.5,1.2-1.1c0-0.5-0.2-1-0.5-1.4l1.5-0.7c0.4,0.6,0.8,1.4,0.8,2.4c0,1.8-1,2.7-2.9,2.7h-2.8
		v1.4H8.5V200H6.3v-2h2.2v-2.6H10.2z"/>
	<path d="M6.1,191.5c0.7,0,1.2,0.5,1.2,1.3S6.8,194,6.1,194c-0.7,0-1.3-0.5-1.3-1.2S5.4,191.5,6.1,191.5z M15.7,191.7v2H8.5v-2H15.7
		z"/>
	<path d="M15.7,182.5v1.9h-0.8c0.6,0.5,1,1.2,1,2.2c0,2-1.6,3.5-3.8,3.5s-3.8-1.5-3.8-3.5c0-1,0.4-1.7,1-2.2H8.5v-1.9H15.7z
		 M12.1,188.1c1.1,0,2-0.7,2-1.9c0-1.1-0.9-1.9-2-1.9c-1.1,0-2,0.8-2,1.9C10.1,187.4,11,188.1,12.1,188.1z"/>
	<path d="M15.7,178.5v2H4.9v-2H15.7z"/>
	<path d="M9.2,167.5H4.9v-2h10.8v1.9h-0.8c0.6,0.5,1,1.2,1,2.2c0,2-1.6,3.5-3.8,3.5s-3.8-1.5-3.8-3.5C8.3,168.7,8.7,168,9.2,167.5z
		 M12.1,171.2c1.1,0,2-0.7,2-1.9c0-1.1-0.9-1.9-2-1.9c-1.1,0-2,0.8-2,1.9C10.1,170.5,11,171.2,12.1,171.2z"/>
	<path d="M12.1,156.8c0.2,0,0.5,0,0.7,0v5.2c1.1-0.2,1.5-0.9,1.5-1.9c0-0.6-0.3-1.3-0.7-1.8l1.3-1.1c0.8,0.8,1.1,1.9,1.1,3.1
		c0,2.2-1.5,3.8-3.8,3.8c-2.3,0-3.9-1.5-3.9-3.7C8.3,158.2,9.8,156.8,12.1,156.8z M11.4,162v-3.2c-0.9,0.2-1.5,0.7-1.5,1.6
		C10,161.2,10.5,161.8,11.4,162z"/>
	<path d="M15.7,147.6v2H7.9l1,2.5h-2l-1.8-4.5H15.7z"/>
	<path d="M10.5,136.5c3.4,0,5.4,2,5.4,4.5c0,2.5-2,4.5-5.4,4.5c-3.4,0-5.4-2-5.4-4.5C5,138.5,7.1,136.5,10.5,136.5z M10.5,143.5
		c2.3,0,3.5-1.1,3.5-2.4c0-1.4-1.2-2.4-3.5-2.4c-2.3,0-3.5,1.1-3.5,2.4C7,142.4,8.2,143.5,10.5,143.5z"/>
	<path d="M10.5,125.9c3.4,0,5.4,2,5.4,4.5c0,2.5-2,4.5-5.4,4.5c-3.4,0-5.4-2-5.4-4.5C5,127.9,7.1,125.9,10.5,125.9z M10.5,132.9
		c2.3,0,3.5-1.1,3.5-2.4c0-1.4-1.2-2.4-3.5-2.4c-2.3,0-3.5,1.1-3.5,2.4C7,131.8,8.2,132.9,10.5,132.9z"/>
	<path d="M4,115.2h1.4c0.1-1.3,0.5-2.2,1.1-3.1l1.6,0.9c-0.4,0.6-0.7,1.4-0.8,2.2h2.4c0.3-1.8,1.1-3.3,2.8-3.2
		c1.9,0,2.9,1.5,3.1,3.2H17v1.7h-1.4c-0.1,1.3-0.5,2.7-1.3,3.6l-1.6-1c0.5-0.6,0.9-1.5,1-2.5h-2.4l0,0.1c-0.3,1.8-1.1,3.2-2.9,3.1
		c-1.7,0-2.8-1.4-3-3.2H4V115.2z M9.3,116.9H7.3c0.2,0.7,0.5,1.1,1.1,1.1C8.9,118,9.2,117.6,9.3,116.9z M11.6,115.2h2.1
		c-0.2-0.7-0.5-1.1-1.1-1.2C12.1,114,11.8,114.5,11.6,115.2z"/>
	<path d="M11.5,100.8c2.9,0,4.4,1.9,4.4,4.5c0,2.7-1.5,4.5-4.4,4.5H5.2v-2.1h6.2c1.7,0,2.5-1,2.5-2.4c0-1.4-0.8-2.4-2.5-2.4H5.2
		v-2.1H11.5z"/>
	<path d="M7.9,91.4c-0.5,0.8-0.9,1.8-0.9,3c0,1.2,0.5,2,1.3,2c0.8,0,1-0.9,1.2-2.2l0.1-0.6c0.3-1.9,1.1-3.3,2.9-3.3
		c2.3,0,3.4,2,3.4,4.3c0,1.6-0.5,3.3-1.4,4.4L12.9,98c0.6-0.8,1.1-2,1.1-3.3c0-1.2-0.5-2.1-1.3-2.1c-0.7,0-1,0.8-1.2,2.2l-0.1,0.7
		c-0.3,1.9-1.1,3.2-3,3.2c-2.2,0-3.3-2-3.3-4.2c0-1.5,0.3-2.7,1.1-4L7.9,91.4z"/>
</g>
</svg>
