<?xml version="1.0" encoding="utf-8"?>
<!-- Generator: Adobe Illustrator 25.0.1, SVG Export Plug-In . SVG Version: 6.00 Build 0)  -->
<svg version="1.1" id="Layer_1" xmlns="http://www.w3.org/2000/svg" xmlns:xlink="http://www.w3.org/1999/xlink" x="0px" y="0px"
	 viewBox="0 0 1000 368.53" style="enable-background:new 0 0 1000 368.53;" xml:space="preserve">
<style type="text/css">
	.st0{fill:#ED5A36;}
	.st1{fill:#203232;}
	.st2{fill:none;stroke:#000000;stroke-miterlimit:10;}
	.st3{fill:#DFDFDF;stroke:#000000;stroke-width:0.5;stroke-miterlimit:10;}
	.st4{stroke:#000000;stroke-width:0.5;stroke-miterlimit:10;}
	.st5{fill:#DFDFDF;}
	.st6{fill:#F47E20;}
	.st7{fill:#E6E7E8;}
	.st8{fill:#FFFFFF;}
	.st9{fill:#FFFFFF;stroke:#231F20;stroke-miterlimit:10;}
</style>
<rect x="125.2" y="331.16" class="st0" width="372.18" height="26.45"/>
<g>
	<path class="st0" d="M30.51,103.04v4.07l-16.79,6.31v-3.56l13.4-4.81l-13.4-4.83v-3.48L30.51,103.04z"/>
	<path class="st0" d="M30.51,91.22v3.35H13.71v-3.35H30.51z"/>
	<path class="st0" d="M21.98,79.16l8.53-5.74v3.92l-5.98,3.86l5.98,3.87v3.86l-8.53-5.73l-8.26,5.58v-3.93l5.76-3.69l-5.76-3.72
		v-3.86L21.98,79.16z"/>
	<path class="st0" d="M20.48,62.12v-8.08h-6.76v-3.35h16.79v3.35H23.6v8.08h6.91v3.35H13.71v-3.35H20.48z"/>
	<path class="st0" d="M15.08,43.58c1.13,0,1.99,0.88,1.99,2c0,1.13-0.86,1.99-1.99,1.99c-1.13,0-2.01-0.86-2.01-1.99
		C13.07,44.45,13.96,43.58,15.08,43.58z M30.51,44v3.13H18.88V44H30.51z"/>
	<path class="st0" d="M20.18,32.48h-1.3v-3.07h10.66c3.73,0,5.99,2.43,5.99,6.27c0,1.83-0.48,3.78-1.4,5.09l-2.55-1.12
		c0.77-1.16,1.19-2.45,1.19-3.84c0-1.94-1.08-3.31-3.08-3.31h-0.82c0.97,0.79,1.57,1.97,1.57,3.57c0,2.83-2.36,5.35-5.92,5.35
		c-3.57,0-5.94-2.52-5.94-5.35C18.57,34.46,19.2,33.27,20.18,32.48z M24.51,38.21c1.68,0,3.05-1.14,3.05-2.93
		c0-1.74-1.32-2.91-3.05-2.91c-1.74,0-3.06,1.18-3.06,2.91C21.45,37.07,22.82,38.21,24.51,38.21z"/>
	<path class="st0" d="M20.13,22.98c-1.15-0.83-1.56-2.06-1.56-3.33c0-2.64,1.83-4.52,4.53-4.52h7.4v3.13h-6.39
		c-1.68,0-2.6,0.84-2.6,2.27c0,1.34,0.88,2.46,2.63,2.46h6.37v3.13H13.22v-3.13H20.13z"/>
</g>
<g>
	<path class="st1" d="M33.64,292.96v4.07l-16.79,6.31v-3.56l13.4-4.81l-13.4-4.83v-3.48L33.64,292.96z"/>
	<path class="st1" d="M33.64,281.13v3.35H16.84v-3.35H33.64z"/>
	<path class="st1" d="M25.11,269.08l8.53-5.74v3.92l-5.98,3.86l5.98,3.87v3.86l-8.53-5.73l-8.26,5.58v-3.93l5.76-3.69l-5.76-3.72
		v-3.86L25.11,269.08z"/>
	<path class="st1" d="M33.64,243.16v12.22H16.84v-3.35h13.66v-8.88H33.64z"/>
	<path class="st1" d="M27.82,229.24c3.5,0,6.12,2.67,6.12,6.3c0,3.61-2.61,6.27-6.12,6.27c-3.5,0-6.12-2.66-6.12-6.27
		C21.7,231.91,24.32,229.24,27.82,229.24z M27.82,238.62c1.88,0,3.2-1.32,3.2-3.08c0-1.76-1.32-3.09-3.2-3.09
		c-1.88,0-3.2,1.33-3.2,3.09C24.62,237.3,25.94,238.62,27.82,238.62z"/>
	<path class="st1" d="M30.17,213.89l-8.16-2.49v-3.27l11.62,3.93v3.57l-7.86,2.58l7.86,2.55v3.55l-11.62,3.93v-3.33l8.12-2.48
		l-8.12-2.6v-3.3L30.17,213.89z"/>
</g>
<g>
	<path d="M881.55,323.77h-1.97v-7.58l-2.44,0.99v-1.98l4.4-1.78V323.77z"/>
	<path d="M892.28,318.67c0,3.3-1.97,5.28-4.4,5.28c-2.44,0-4.39-1.98-4.39-5.28s1.95-5.28,4.39-5.28
		C890.31,313.4,892.28,315.38,892.28,318.67z M885.54,318.67c0,2.23,1.04,3.39,2.34,3.39c1.31,0,2.34-1.17,2.34-3.39
		s-1.03-3.39-2.34-3.39C886.58,315.28,885.54,316.45,885.54,318.67z"/>
	<path d="M894.44,325.22h-2.01l6.18-12.66h2.01L894.44,325.22z"/>
	<path d="M900.75,315.15c0.55-0.72,1.59-1.76,3.48-1.76c2.13,0,3.46,1.34,3.46,3.29c0,1.24-0.63,2.11-1.47,2.98l-2.18,2.26h3.89
		v1.84h-6.73v-1.54l3.6-3.69c0.54-0.54,0.84-1.11,0.84-1.75c0-0.89-0.62-1.52-1.56-1.52c-0.97,0-1.54,0.52-2.07,1.12L900.75,315.15z
		"/>
	<path d="M915.93,316.32c0,1.08-0.58,1.87-1.52,2.32c1.07,0.42,1.75,1.24,1.75,2.34c0,2.01-1.83,2.98-3.76,2.98
		c-1.53,0-2.79-0.55-3.56-1.48l1.17-1.29c0.59,0.62,1.44,0.97,2.31,0.97c0.99,0,1.78-0.43,1.78-1.32c0-0.87-0.9-1.33-2-1.33h-1.19
		v-1.75h1.19c0.99,0,1.78-0.44,1.78-1.3c0-0.82-0.74-1.27-1.69-1.27s-1.65,0.49-2.06,1.03l-1.24-1.24c0.67-0.9,1.78-1.58,3.4-1.58
		C914.46,313.4,915.93,314.56,915.93,316.32z"/>
	<path d="M918.5,325.22h-2.01l6.18-12.66h2.01L918.5,325.22z"/>
	<path d="M933.56,318.67c0,3.3-1.97,5.28-4.4,5.28c-2.44,0-4.39-1.98-4.39-5.28s1.95-5.28,4.39-5.28
		C931.6,313.4,933.56,315.38,933.56,318.67z M926.82,318.67c0,2.23,1.04,3.39,2.34,3.39c1.31,0,2.34-1.17,2.34-3.39
		s-1.03-3.39-2.34-3.39C927.86,315.28,926.82,316.45,926.82,318.67z"/>
	<path d="M942.66,316.32c0,1.17-0.68,1.9-1.56,2.31c1,0.39,1.81,1.12,1.81,2.37c0,1.86-1.79,2.96-3.98,2.96
		c-2.19,0-3.98-1.1-3.98-2.96c0-1.24,0.79-1.97,1.8-2.37c-0.88-0.41-1.55-1.14-1.55-2.31c0-1.83,1.67-2.93,3.73-2.93
		C940.98,313.4,942.66,314.49,942.66,316.32z M937.06,320.83c0,0.9,0.84,1.37,1.86,1.37c1.01,0,1.86-0.47,1.86-1.37
		c0-0.91-0.85-1.4-1.86-1.4C937.91,319.43,937.06,319.92,937.06,320.83z M937.28,316.48c0,0.87,0.74,1.34,1.65,1.34
		c0.91,0,1.64-0.46,1.64-1.34c0-0.85-0.74-1.3-1.64-1.3C938.01,315.17,937.28,315.63,937.28,316.48z"/>
</g>
<g>
	<path d="M793.8,323.77h-1.97v-7.58l-2.44,0.99v-1.98l4.4-1.78V323.77z"/>
	<path d="M799.77,323.77h-1.97v-7.58l-2.44,0.99v-1.98l4.4-1.78V323.77z"/>
	<path d="M802.68,325.22h-2.01l6.18-12.66h2.01L802.68,325.22z"/>
	<path d="M808.99,315.15c0.55-0.72,1.59-1.76,3.48-1.76c2.13,0,3.46,1.34,3.46,3.29c0,1.24-0.63,2.11-1.47,2.98l-2.18,2.26h3.89
		v1.84h-6.73v-1.54l3.6-3.69c0.54-0.54,0.84-1.11,0.84-1.75c0-0.89-0.62-1.52-1.56-1.52c-0.97,0-1.54,0.52-2.07,1.12L808.99,315.15z
		"/>
	<path d="M821.5,323.77h-1.97v-7.58l-2.44,0.99v-1.98l4.4-1.78V323.77z"/>
	<path d="M824.42,325.22h-2.01l6.18-12.66h2.01L824.42,325.22z"/>
	<path d="M839.47,318.67c0,3.3-1.97,5.28-4.4,5.28c-2.44,0-4.39-1.98-4.39-5.28s1.95-5.28,4.39-5.28
		C837.51,313.4,839.47,315.38,839.47,318.67z M832.73,318.67c0,2.23,1.04,3.39,2.34,3.39c1.31,0,2.34-1.17,2.34-3.39
		s-1.03-3.39-2.34-3.39C833.77,315.28,832.73,316.45,832.73,318.67z"/>
	<path d="M848.57,316.32c0,1.17-0.68,1.9-1.56,2.31c1,0.39,1.81,1.12,1.81,2.37c0,1.86-1.79,2.96-3.98,2.96
		c-2.19,0-3.98-1.1-3.98-2.96c0-1.24,0.79-1.97,1.8-2.37c-0.88-0.41-1.55-1.14-1.55-2.31c0-1.83,1.67-2.93,3.73-2.93
		S848.57,314.49,848.57,316.32z M842.97,320.83c0,0.9,0.84,1.37,1.86,1.37c1.01,0,1.86-0.47,1.86-1.37c0-0.91-0.85-1.4-1.86-1.4
		C843.82,319.43,842.97,319.92,842.97,320.83z M843.19,316.48c0,0.87,0.74,1.34,1.65,1.34c0.91,0,1.64-0.46,1.64-1.34
		c0-0.85-0.74-1.3-1.64-1.3C843.93,315.17,843.19,315.63,843.19,316.48z"/>
</g>
<g>
	<path d="M701.57,323.77h-1.97v-7.58l-2.44,0.99v-1.98l4.4-1.78V323.77z"/>
	<path d="M712.3,318.67c0,3.3-1.97,5.28-4.4,5.28c-2.44,0-4.39-1.98-4.39-5.28s1.95-5.28,4.39-5.28
		C710.33,313.4,712.3,315.38,712.3,318.67z M705.56,318.67c0,2.23,1.04,3.39,2.34,3.39c1.31,0,2.34-1.17,2.34-3.39
		s-1.03-3.39-2.34-3.39C706.6,315.28,705.56,316.45,705.56,318.67z"/>
	<path d="M714.46,325.22h-2.01l6.18-12.66h2.01L714.46,325.22z"/>
	<path d="M725.21,323.77h-1.97v-7.58l-2.44,0.99v-1.98l4.4-1.78V323.77z"/>
	<path d="M730.51,317.12c0.14-0.01,0.3-0.03,0.47-0.03c2.07,0,3.53,1.48,3.53,3.38c0,1.99-1.65,3.47-3.84,3.47
		c-2.18,0-3.82-1.46-3.82-3.44c0-0.93,0.35-1.78,0.97-2.71l2.82-4.23h2.37L730.51,317.12z M728.9,320.49c0,0.99,0.76,1.67,1.78,1.67
		c1.03,0,1.79-0.68,1.79-1.67c0-0.98-0.76-1.67-1.79-1.67C729.67,318.82,728.9,319.51,728.9,320.49z"/>
	<path d="M736.66,325.22h-2.01l6.18-12.66h2.01L736.66,325.22z"/>
	<path d="M751.72,318.67c0,3.3-1.97,5.28-4.4,5.28c-2.44,0-4.39-1.98-4.39-5.28s1.95-5.28,4.39-5.28
		C749.75,313.4,751.72,315.38,751.72,318.67z M744.98,318.67c0,2.23,1.04,3.39,2.34,3.39c1.31,0,2.34-1.17,2.34-3.39
		s-1.03-3.39-2.34-3.39C746.02,315.28,744.98,316.45,744.98,318.67z"/>
	<path d="M760.82,316.32c0,1.17-0.68,1.9-1.56,2.31c1,0.39,1.81,1.12,1.81,2.37c0,1.86-1.79,2.96-3.98,2.96
		c-2.19,0-3.98-1.1-3.98-2.96c0-1.24,0.79-1.97,1.8-2.37c-0.88-0.41-1.55-1.14-1.55-2.31c0-1.83,1.67-2.93,3.73-2.93
		S760.82,314.49,760.82,316.32z M755.22,320.83c0,0.9,0.84,1.37,1.86,1.37c1.01,0,1.86-0.47,1.86-1.37c0-0.91-0.85-1.4-1.86-1.4
		C756.06,319.43,755.22,319.92,755.22,320.83z M755.44,316.48c0,0.87,0.74,1.34,1.65,1.34c0.91,0,1.64-0.46,1.64-1.34
		c0-0.85-0.74-1.3-1.64-1.3C756.17,315.17,755.44,315.63,755.44,316.48z"/>
</g>
<g>
	<path d="M609.84,323.77h-1.97v-7.58l-2.44,0.99v-1.98l4.4-1.78V323.77z"/>
	<path d="M615.81,323.77h-1.97v-7.58l-2.44,0.99v-1.98l4.4-1.78V323.77z"/>
	<path d="M618.72,325.22h-2.01l6.18-12.66h2.01L618.72,325.22z"/>
	<path d="M625.03,315.15c0.55-0.72,1.59-1.76,3.48-1.76c2.13,0,3.46,1.34,3.46,3.29c0,1.24-0.63,2.11-1.47,2.98l-2.18,2.26h3.89
		v1.84h-6.73v-1.54l3.6-3.69c0.54-0.54,0.84-1.11,0.84-1.75c0-0.89-0.62-1.52-1.56-1.52c-0.97,0-1.54,0.52-2.07,1.12L625.03,315.15z
		"/>
	<path d="M642.28,318.67c0,3.3-1.97,5.28-4.4,5.28c-2.44,0-4.39-1.98-4.39-5.28s1.95-5.28,4.39-5.28
		C640.31,313.4,642.28,315.38,642.28,318.67z M635.54,318.67c0,2.23,1.04,3.39,2.34,3.39c1.31,0,2.34-1.17,2.34-3.39
		s-1.03-3.39-2.34-3.39C636.58,315.28,635.54,316.45,635.54,318.67z"/>
	<path d="M644.44,325.22h-2.01l6.18-12.66h2.01L644.44,325.22z"/>
	<path d="M659.5,318.67c0,3.3-1.97,5.28-4.4,5.28c-2.44,0-4.39-1.98-4.39-5.28s1.95-5.28,4.39-5.28
		C657.53,313.4,659.5,315.38,659.5,318.67z M652.75,318.67c0,2.23,1.04,3.39,2.34,3.39c1.31,0,2.34-1.17,2.34-3.39
		s-1.03-3.39-2.34-3.39C653.8,315.28,652.75,316.45,652.75,318.67z"/>
	<path d="M668.59,316.32c0,1.17-0.68,1.9-1.56,2.31c1,0.39,1.81,1.12,1.81,2.37c0,1.86-1.79,2.96-3.98,2.96
		c-2.19,0-3.98-1.1-3.98-2.96c0-1.24,0.79-1.97,1.8-2.37c-0.88-0.41-1.55-1.14-1.55-2.31c0-1.83,1.67-2.93,3.73-2.93
		S668.59,314.49,668.59,316.32z M663,320.83c0,0.9,0.84,1.37,1.86,1.37c1.01,0,1.86-0.47,1.86-1.37c0-0.91-0.85-1.4-1.86-1.4
		C663.84,319.43,663,319.92,663,320.83z M663.21,316.48c0,0.87,0.74,1.34,1.65,1.34c0.91,0,1.64-0.46,1.64-1.34
		c0-0.85-0.74-1.3-1.64-1.3C663.95,315.17,663.21,315.63,663.21,316.48z"/>
</g>
<g>
	<path d="M517.42,323.77h-1.97v-7.58l-2.44,0.99v-1.98l4.4-1.78V323.77z"/>
	<path d="M528.15,318.67c0,3.3-1.97,5.28-4.4,5.28c-2.44,0-4.39-1.98-4.39-5.28s1.95-5.28,4.39-5.28
		C526.18,313.4,528.15,315.38,528.15,318.67z M521.41,318.67c0,2.23,1.04,3.39,2.34,3.39c1.31,0,2.34-1.17,2.34-3.39
		s-1.03-3.39-2.34-3.39C522.45,315.28,521.41,316.45,521.41,318.67z"/>
	<path d="M530.31,325.22h-2.01l6.18-12.66h2.01L530.31,325.22z"/>
	<path d="M536.62,315.15c0.55-0.72,1.59-1.76,3.48-1.76c2.13,0,3.46,1.34,3.46,3.29c0,1.24-0.63,2.11-1.47,2.98l-2.18,2.26h3.89
		v1.84h-6.73v-1.54l3.6-3.69c0.54-0.54,0.84-1.11,0.84-1.75c0-0.89-0.62-1.52-1.56-1.52c-0.97,0-1.54,0.52-2.07,1.12L536.62,315.15z
		"/>
	<path d="M551.96,315.11l-4.22,8.65h-2.32l4.19-8.36h-4.84v-1.83h7.18V315.11z"/>
	<path d="M552.7,325.22h-2.01l6.18-12.66h2.01L552.7,325.22z"/>
	<path d="M567.76,318.67c0,3.3-1.97,5.28-4.4,5.28c-2.44,0-4.39-1.98-4.39-5.28s1.95-5.28,4.39-5.28
		C565.79,313.4,567.76,315.38,567.76,318.67z M561.02,318.67c0,2.23,1.04,3.39,2.34,3.39c1.31,0,2.34-1.17,2.34-3.39
		s-1.03-3.39-2.34-3.39C562.06,315.28,561.02,316.45,561.02,318.67z"/>
	<path d="M576.86,316.32c0,1.17-0.68,1.9-1.56,2.31c1,0.39,1.81,1.12,1.81,2.37c0,1.86-1.79,2.96-3.98,2.96
		c-2.19,0-3.98-1.1-3.98-2.96c0-1.24,0.79-1.97,1.8-2.37c-0.88-0.41-1.55-1.14-1.55-2.31c0-1.83,1.67-2.93,3.73-2.93
		C575.18,313.4,576.86,314.49,576.86,316.32z M571.26,320.83c0,0.9,0.84,1.37,1.86,1.37c1.01,0,1.86-0.47,1.86-1.37
		c0-0.91-0.85-1.4-1.86-1.4C572.1,319.43,571.26,319.92,571.26,320.83z M571.48,316.48c0,0.87,0.74,1.34,1.65,1.34
		c0.91,0,1.64-0.46,1.64-1.34c0-0.85-0.74-1.3-1.64-1.3C572.21,315.17,571.48,315.63,571.48,316.48z"/>
</g>
<g>
	<path d="M428.26,318.67c0,3.3-1.97,5.28-4.4,5.28c-2.44,0-4.39-1.98-4.39-5.28s1.95-5.28,4.39-5.28
		C426.29,313.4,428.26,315.38,428.26,318.67z M421.52,318.67c0,2.23,1.04,3.39,2.34,3.39c1.31,0,2.34-1.17,2.34-3.39
		s-1.03-3.39-2.34-3.39C422.56,315.28,421.52,316.45,421.52,318.67z"/>
	<path d="M436.25,316.32c0,1.08-0.58,1.87-1.52,2.32c1.07,0.42,1.75,1.24,1.75,2.34c0,2.01-1.83,2.98-3.76,2.98
		c-1.53,0-2.79-0.55-3.56-1.48l1.17-1.29c0.59,0.62,1.44,0.97,2.31,0.97c0.99,0,1.78-0.43,1.78-1.32c0-0.87-0.9-1.33-1.99-1.33
		h-1.19v-1.75h1.19c0.99,0,1.78-0.44,1.78-1.3c0-0.82-0.74-1.27-1.69-1.27c-0.95,0-1.65,0.49-2.06,1.03l-1.24-1.24
		c0.67-0.9,1.78-1.58,3.4-1.58C434.79,313.4,436.25,314.56,436.25,316.32z"/>
	<path d="M438.83,325.22h-2.01l6.18-12.66H445L438.83,325.22z"/>
	<path d="M449.57,323.77h-1.96v-7.58l-2.44,0.99v-1.98l4.4-1.78V323.77z"/>
	<path d="M454.87,317.12c0.14-0.01,0.3-0.03,0.47-0.03c2.07,0,3.53,1.48,3.53,3.38c0,1.99-1.65,3.47-3.84,3.47
		c-2.18,0-3.82-1.46-3.82-3.44c0-0.93,0.35-1.78,0.97-2.71l2.82-4.23h2.37L454.87,317.12z M453.27,320.49
		c0,0.99,0.76,1.67,1.78,1.67c1.03,0,1.79-0.68,1.79-1.67c0-0.98-0.76-1.67-1.79-1.67C454.03,318.82,453.27,319.51,453.27,320.49z"
		/>
	<path d="M461.02,325.22h-2.01l6.18-12.66h2.01L461.02,325.22z"/>
	<path d="M467.33,315.15c0.55-0.72,1.59-1.76,3.48-1.76c2.13,0,3.46,1.34,3.46,3.29c0,1.24-0.63,2.11-1.47,2.98l-2.18,2.26h3.89
		v1.84h-6.73v-1.54l3.6-3.69c0.54-0.54,0.84-1.11,0.84-1.75c0-0.89-0.62-1.52-1.56-1.52c-0.97,0-1.54,0.52-2.07,1.12L467.33,315.15z
		"/>
	<path d="M484.58,318.67c0,3.3-1.96,5.28-4.4,5.28c-2.44,0-4.39-1.98-4.39-5.28s1.95-5.28,4.39-5.28
		C482.61,313.4,484.58,315.38,484.58,318.67z M477.84,318.67c0,2.23,1.04,3.39,2.34,3.39c1.31,0,2.34-1.17,2.34-3.39
		s-1.03-3.39-2.34-3.39C478.88,315.28,477.84,316.45,477.84,318.67z"/>
</g>
<g>
	<path d="M335.1,318.67c0,3.3-1.96,5.28-4.4,5.28c-2.44,0-4.39-1.98-4.39-5.28s1.95-5.28,4.39-5.28
		C333.14,313.4,335.1,315.38,335.1,318.67z M328.36,318.67c0,2.23,1.04,3.39,2.34,3.39c1.31,0,2.34-1.17,2.34-3.39
		s-1.03-3.39-2.34-3.39C329.4,315.28,328.36,316.45,328.36,318.67z"/>
	<path d="M343.09,316.32c0,1.08-0.58,1.87-1.52,2.32c1.07,0.42,1.75,1.24,1.75,2.34c0,2.01-1.83,2.98-3.76,2.98
		c-1.53,0-2.79-0.55-3.56-1.48l1.17-1.29c0.59,0.62,1.44,0.97,2.31,0.97c0.99,0,1.78-0.43,1.78-1.32c0-0.87-0.9-1.33-1.99-1.33
		h-1.19v-1.75h1.19c0.99,0,1.78-0.44,1.78-1.3c0-0.82-0.74-1.27-1.69-1.27c-0.95,0-1.65,0.49-2.06,1.03l-1.24-1.24
		c0.67-0.9,1.78-1.58,3.4-1.58C341.63,313.4,343.09,314.56,343.09,316.32z"/>
	<path d="M345.67,325.22h-2.01l6.18-12.66h2.01L345.67,325.22z"/>
	<path d="M356.42,323.77h-1.96v-7.58l-2.44,0.99v-1.98l4.4-1.78V323.77z"/>
	<path d="M362.08,320.22c-0.14,0.02-0.28,0.03-0.46,0.03c-2.07,0-3.53-1.48-3.53-3.38c0-1.99,1.64-3.47,3.83-3.47
		c2.18,0,3.83,1.46,3.83,3.44c0,0.93-0.35,1.78-0.97,2.71l-2.82,4.23h-2.37L362.08,320.22z M363.71,316.85
		c0-0.99-0.76-1.68-1.78-1.68c-1.03,0-1.78,0.69-1.78,1.68c0,0.98,0.76,1.67,1.78,1.67C362.94,318.53,363.71,317.84,363.71,316.85z"
		/>
	<path d="M367.11,325.22h-2.01l6.18-12.66h2.01L367.11,325.22z"/>
	<path d="M373.42,315.15c0.55-0.72,1.59-1.76,3.48-1.76c2.13,0,3.46,1.34,3.46,3.29c0,1.24-0.63,2.11-1.47,2.98l-2.18,2.26h3.89
		v1.84h-6.73v-1.54l3.6-3.69c0.54-0.54,0.84-1.11,0.84-1.75c0-0.89-0.62-1.52-1.56-1.52c-0.97,0-1.54,0.52-2.07,1.12L373.42,315.15z
		"/>
	<path d="M390.66,318.67c0,3.3-1.96,5.28-4.4,5.28c-2.44,0-4.39-1.98-4.39-5.28s1.95-5.28,4.39-5.28
		C388.7,313.4,390.66,315.38,390.66,318.67z M383.92,318.67c0,2.23,1.04,3.39,2.34,3.39c1.31,0,2.34-1.17,2.34-3.39
		s-1.03-3.39-2.34-3.39C384.97,315.28,383.92,316.45,383.92,318.67z"/>
</g>
<g>
	<path d="M243.07,318.67c0,3.3-1.96,5.28-4.4,5.28c-2.44,0-4.39-1.98-4.39-5.28s1.95-5.28,4.39-5.28
		C241.1,313.4,243.07,315.38,243.07,318.67z M236.33,318.67c0,2.23,1.04,3.39,2.34,3.39c1.31,0,2.34-1.17,2.34-3.39
		s-1.03-3.39-2.34-3.39C237.37,315.28,236.33,316.45,236.33,318.67z"/>
	<path d="M251.06,316.32c0,1.08-0.58,1.87-1.52,2.32c1.07,0.42,1.75,1.24,1.75,2.34c0,2.01-1.83,2.98-3.76,2.98
		c-1.53,0-2.79-0.55-3.56-1.48l1.17-1.29c0.59,0.62,1.44,0.97,2.31,0.97c0.99,0,1.78-0.43,1.78-1.32c0-0.87-0.9-1.33-1.99-1.33
		h-1.19v-1.75h1.19c0.99,0,1.78-0.44,1.78-1.3c0-0.82-0.74-1.27-1.69-1.27c-0.95,0-1.65,0.49-2.06,1.03l-1.24-1.24
		c0.67-0.9,1.78-1.58,3.4-1.58C249.6,313.4,251.06,314.56,251.06,316.32z"/>
	<path d="M253.64,325.22h-2.01l6.18-12.66h2.01L253.64,325.22z"/>
	<path d="M264.39,323.77h-1.96v-7.58l-2.44,0.99v-1.98l4.4-1.78V323.77z"/>
	<path d="M273.21,315.11l-4.22,8.65h-2.31l4.19-8.36h-4.84v-1.83h7.18V315.11z"/>
	<path d="M273.96,325.22h-2.01l6.18-12.66h2.01L273.96,325.22z"/>
	<path d="M280.27,315.15c0.55-0.72,1.59-1.76,3.48-1.76c2.13,0,3.46,1.34,3.46,3.29c0,1.24-0.63,2.11-1.47,2.98l-2.18,2.26h3.89
		v1.84h-6.73v-1.54l3.6-3.69c0.54-0.54,0.84-1.11,0.84-1.75c0-0.89-0.62-1.52-1.56-1.52c-0.97,0-1.54,0.52-2.07,1.12L280.27,315.15z
		"/>
	<path d="M297.51,318.67c0,3.3-1.97,5.28-4.4,5.28c-2.44,0-4.39-1.98-4.39-5.28s1.95-5.28,4.39-5.28
		C295.54,313.4,297.51,315.38,297.51,318.67z M290.77,318.67c0,2.23,1.04,3.39,2.34,3.39c1.31,0,2.34-1.17,2.34-3.39
		s-1.03-3.39-2.34-3.39C291.81,315.28,290.77,316.45,290.77,318.67z"/>
</g>
<g>
	<path d="M148.51,318.67c0,3.3-1.96,5.28-4.4,5.28c-2.44,0-4.39-1.98-4.39-5.28s1.95-5.28,4.39-5.28
		C146.54,313.4,148.51,315.38,148.51,318.67z M141.77,318.67c0,2.23,1.04,3.39,2.34,3.39c1.31,0,2.34-1.17,2.34-3.39
		s-1.03-3.39-2.34-3.39C142.81,315.28,141.77,316.45,141.77,318.67z"/>
	<path d="M156.5,316.32c0,1.08-0.58,1.87-1.52,2.32c1.07,0.42,1.75,1.24,1.75,2.34c0,2.01-1.83,2.98-3.76,2.98
		c-1.53,0-2.79-0.55-3.56-1.48l1.17-1.29c0.59,0.62,1.44,0.97,2.31,0.97c0.99,0,1.78-0.43,1.78-1.32c0-0.87-0.9-1.33-1.99-1.33
		h-1.19v-1.75h1.19c0.99,0,1.78-0.44,1.78-1.3c0-0.82-0.74-1.27-1.69-1.27c-0.95,0-1.65,0.49-2.06,1.03l-1.24-1.24
		c0.67-0.9,1.78-1.58,3.4-1.58C155.04,313.4,156.5,314.56,156.5,316.32z"/>
	<path d="M159.08,325.22h-2.01l6.18-12.66h2.01L159.08,325.22z"/>
	<path d="M169.83,323.77h-1.96v-7.58l-2.44,0.99v-1.98l4.4-1.78V323.77z"/>
	<path d="M179.38,316.32c0,1.17-0.68,1.9-1.56,2.31c1,0.39,1.81,1.12,1.81,2.37c0,1.86-1.79,2.96-3.98,2.96
		c-2.19,0-3.98-1.1-3.98-2.96c0-1.24,0.79-1.97,1.8-2.37c-0.88-0.41-1.55-1.14-1.55-2.31c0-1.83,1.67-2.93,3.73-2.93
		C177.7,313.4,179.38,314.49,179.38,316.32z M173.78,320.83c0,0.9,0.84,1.37,1.86,1.37c1.01,0,1.86-0.47,1.86-1.37
		c0-0.91-0.85-1.4-1.86-1.4C174.62,319.43,173.78,319.92,173.78,320.83z M174,316.48c0,0.87,0.73,1.34,1.64,1.34
		c0.91,0,1.65-0.46,1.65-1.34c0-0.85-0.73-1.3-1.65-1.3C174.73,315.17,174,315.63,174,316.48z"/>
	<path d="M181.92,325.22h-2.01l6.18-12.66h2.01L181.92,325.22z"/>
	<path d="M188.23,315.15c0.55-0.72,1.59-1.76,3.48-1.76c2.13,0,3.46,1.34,3.46,3.29c0,1.24-0.63,2.11-1.47,2.98l-2.18,2.26h3.89
		v1.84h-6.73v-1.54l3.6-3.69c0.54-0.54,0.84-1.11,0.84-1.75c0-0.89-0.62-1.52-1.56-1.52c-0.97,0-1.54,0.52-2.07,1.12L188.23,315.15z
		"/>
	<path d="M205.48,318.67c0,3.3-1.97,5.28-4.4,5.28c-2.44,0-4.39-1.98-4.39-5.28s1.95-5.28,4.39-5.28
		C203.51,313.4,205.48,315.38,205.48,318.67z M198.74,318.67c0,2.23,1.04,3.39,2.34,3.39c1.31,0,2.34-1.17,2.34-3.39
		s-1.03-3.39-2.34-3.39C199.78,315.28,198.74,316.45,198.74,318.67z"/>
</g>
<g>
	<path d="M49.44,323.77h-1.96v-7.58l-2.44,0.99v-1.98l4.4-1.78V323.77z"/>
	<path d="M60.17,318.67c0,3.3-1.97,5.28-4.4,5.28c-2.44,0-4.39-1.98-4.39-5.28s1.95-5.28,4.39-5.28
		C58.21,313.4,60.17,315.38,60.17,318.67z M53.43,318.67c0,2.23,1.04,3.39,2.34,3.39c1.31,0,2.34-1.17,2.34-3.39
		s-1.03-3.39-2.34-3.39C54.47,315.28,53.43,316.45,53.43,318.67z"/>
	<path d="M62.33,325.22h-2.01l6.18-12.66h2.01L62.33,325.22z"/>
	<path d="M68.64,315.15c0.55-0.72,1.59-1.76,3.48-1.76c2.13,0,3.46,1.34,3.46,3.29c0,1.24-0.63,2.11-1.47,2.98l-2.18,2.26h3.89v1.84
		H69.1v-1.54l3.6-3.69c0.54-0.54,0.84-1.11,0.84-1.75c0-0.89-0.62-1.52-1.56-1.52c-0.97,0-1.54,0.52-2.07,1.12L68.64,315.15z"/>
	<path d="M83.19,320.07h1.42v1.83h-1.42v1.86h-1.97v-1.86H76.7v-1.43l3.57-6.89h2.18l-3.41,6.49h2.17v-2.71h1.97V320.07z"/>
	<path d="M86.62,325.22h-2.01l6.18-12.66h2.01L86.62,325.22z"/>
	<path d="M101.68,318.67c0,3.3-1.96,5.28-4.4,5.28c-2.44,0-4.39-1.98-4.39-5.28s1.95-5.28,4.39-5.28
		C99.71,313.4,101.68,315.38,101.68,318.67z M94.94,318.67c0,2.23,1.04,3.39,2.34,3.39c1.31,0,2.34-1.17,2.34-3.39
		s-1.03-3.39-2.34-3.39C95.98,315.28,94.94,316.45,94.94,318.67z"/>
	<path d="M110.78,316.32c0,1.17-0.68,1.9-1.56,2.31c1,0.39,1.81,1.12,1.81,2.37c0,1.86-1.79,2.96-3.98,2.96
		c-2.19,0-3.98-1.1-3.98-2.96c0-1.24,0.79-1.97,1.8-2.37c-0.88-0.41-1.55-1.14-1.55-2.31c0-1.83,1.67-2.93,3.73-2.93
		C109.1,313.4,110.78,314.49,110.78,316.32z M105.18,320.83c0,0.9,0.84,1.37,1.86,1.37c1.01,0,1.86-0.47,1.86-1.37
		c0-0.91-0.85-1.4-1.86-1.4C106.02,319.43,105.18,319.92,105.18,320.83z M105.4,316.48c0,0.87,0.73,1.34,1.64,1.34
		c0.91,0,1.65-0.46,1.65-1.34c0-0.85-0.73-1.3-1.65-1.3C106.13,315.17,105.4,315.63,105.4,316.48z"/>
</g>
<rect x="47.63" y="11.23" class="st6" width="64.66" height="160.98"/>
<rect x="47.63" y="171.43" class="st7" width="64.66" height="131.22"/>
<rect x="139.87" y="41.16" class="st0" width="64.66" height="118.97"/>
<rect x="139.87" y="159.85" class="st7" width="64.66" height="142.8"/>
<rect x="232.12" y="45.88" class="st0" width="64.66" height="106.6"/>
<rect x="232.12" y="152.48" class="st7" width="64.66" height="150.17"/>
<rect x="324.36" y="50.08" class="st0" width="64.66" height="115.67"/>
<rect x="324.36" y="165.75" class="st7" width="64.66" height="136.9"/>
<rect x="416.6" y="55.24" class="st0" width="64.66" height="189.68"/>
<rect x="416.6" y="244.93" class="st7" width="64.66" height="57.72"/>
<rect x="508.85" y="69.33" class="st6" width="64.66" height="116.66"/>
<rect x="508.85" y="185.44" class="st7" width="64.66" height="117.22"/>
<rect x="601.09" y="70.58" class="st6" width="64.66" height="64.28"/>
<rect x="601.09" y="134.86" class="st7" width="64.66" height="167.79"/>
<rect x="693.34" y="72.86" class="st6" width="64.66" height="108.07"/>
<rect x="693.34" y="180.94" class="st7" width="64.66" height="121.71"/>
<rect x="785.58" y="76.03" class="st6" width="64.66" height="67.69"/>
<rect x="785.58" y="143.19" class="st7" width="64.66" height="159.46"/>
<rect x="877.83" y="85.69" class="st6" width="64.66" height="109.73"/>
<rect x="877.83" y="196.27" class="st7" width="64.66" height="106.38"/>
<g>
	<path class="st8" d="M67.35,27c0,1.49-0.86,2.42-1.99,2.94c1.28,0.5,2.3,1.43,2.3,3.01c0,2.37-2.28,3.77-5.07,3.77
		s-5.07-1.4-5.07-3.77c0-1.59,1.01-2.51,2.29-3.01c-1.12-0.52-1.98-1.45-1.98-2.94c0-2.34,2.13-3.73,4.76-3.73S67.35,24.66,67.35,27
		z M60.22,32.74c0,1.14,1.08,1.74,2.38,1.74c1.29,0,2.38-0.6,2.38-1.74c0-1.16-1.09-1.78-2.38-1.78
		C61.3,30.96,60.22,31.58,60.22,32.74z M60.5,27.19c0,1.11,0.94,1.71,2.1,1.71s2.1-0.59,2.1-1.71c0-1.08-0.94-1.66-2.1-1.66
		S60.5,26.12,60.5,27.19z"/>
	<path class="st8" d="M74.17,31.97C74,32,73.81,32.01,73.59,32.01c-2.63,0-4.5-1.88-4.5-4.31c0-2.54,2.09-4.43,4.88-4.43
		c2.77,0,4.88,1.87,4.88,4.38c0,1.19-0.45,2.27-1.23,3.45l-3.6,5.39h-3.02L74.17,31.97z M76.24,27.67c0-1.26-0.97-2.13-2.27-2.13
		c-1.31,0-2.27,0.87-2.27,2.13c0,1.25,0.96,2.13,2.27,2.13C75.27,29.81,76.24,28.93,76.24,27.67z"/>
	<path class="st8" d="M82.93,34.91c0,0.97-0.83,1.81-1.79,1.81c-0.96,0-1.81-0.84-1.81-1.81c0-0.96,0.84-1.79,1.81-1.79
		C82.1,33.12,82.93,33.95,82.93,34.91z"/>
	<path class="st8" d="M92.94,25.83h-5.26l-0.06,2.6h1.49c3.02,0,4.55,1.74,4.55,3.91c0,2.79-2.12,4.39-4.74,4.39
		c-1.94,0-3.53-0.72-4.6-1.94l1.41-1.75c0.71,0.77,1.98,1.37,3.17,1.37c1.45,0,2.16-0.85,2.16-1.88c0-0.97-0.61-1.83-2.64-1.83
		h-3.09l0.14-7.19h7.47V25.83z"/>
	<path class="st8" d="M104.01,27c0,1.37-0.73,2.38-1.94,2.95c1.36,0.54,2.23,1.58,2.23,2.98c0,2.56-2.33,3.79-4.79,3.79
		c-1.95,0-3.55-0.7-4.54-1.88l1.49-1.64c0.75,0.79,1.84,1.24,2.95,1.24c1.26,0,2.27-0.55,2.27-1.69c0-1.11-1.14-1.7-2.54-1.7h-1.51
		v-2.23h1.52c1.26,0,2.27-0.56,2.27-1.65c0-1.05-0.95-1.62-2.15-1.62s-2.1,0.62-2.63,1.32l-1.58-1.59c0.85-1.15,2.26-2.01,4.33-2.01
		C102.15,23.27,104.01,24.75,104.01,27z"/>
</g>
<g>
	<path class="st1" d="M65.53,185.7c0.18-0.02,0.38-0.04,0.6-0.04c2.63,0,4.5,1.88,4.5,4.31c0,2.54-2.1,4.43-4.89,4.43
		c-2.77,0-4.87-1.87-4.87-4.38c0-1.19,0.45-2.26,1.23-3.45l3.6-5.39h3.02L65.53,185.7z M63.48,190c0,1.26,0.97,2.13,2.26,2.13
		c1.31,0,2.28-0.87,2.28-2.13c0-1.25-0.97-2.13-2.28-2.13C64.46,187.86,63.48,188.74,63.48,190z"/>
	<path class="st1" d="M80.77,183.14l-5.38,11.03h-2.95l5.34-10.65h-6.17v-2.34h9.16V183.14z"/>
	<path class="st1" d="M84.13,192.59c0,0.97-0.83,1.81-1.79,1.81c-0.96,0-1.81-0.84-1.81-1.81c0-0.96,0.84-1.79,1.81-1.79
		C83.29,190.8,84.13,191.63,84.13,192.59z"/>
	<path class="st1" d="M95.55,184.68c0,1.49-0.86,2.42-1.99,2.94c1.28,0.5,2.3,1.43,2.3,3.01c0,2.37-2.28,3.77-5.07,3.77
		s-5.07-1.4-5.07-3.77c0-1.59,1.01-2.51,2.29-3.01c-1.12-0.52-1.98-1.45-1.98-2.94c0-2.34,2.13-3.73,4.76-3.73
		S95.55,182.34,95.55,184.68z M88.41,190.42c0,1.14,1.08,1.74,2.38,1.74c1.29,0,2.38-0.6,2.38-1.74c0-1.16-1.09-1.78-2.38-1.78
		C89.49,188.64,88.41,189.26,88.41,190.42z M88.69,184.88c0,1.11,0.94,1.71,2.1,1.71s2.1-0.59,2.1-1.71c0-1.08-0.94-1.66-2.1-1.66
		S88.69,183.8,88.69,184.88z"/>
</g>
<g>
	<path class="st8" d="M160.54,57.01c0,1.49-0.86,2.42-1.99,2.94c1.28,0.5,2.3,1.43,2.3,3.01c0,2.37-2.28,3.77-5.07,3.77
		s-5.07-1.4-5.07-3.77c0-1.59,1.01-2.51,2.29-3.01c-1.12-0.52-1.98-1.45-1.98-2.94c0-2.34,2.13-3.73,4.76-3.73
		S160.54,54.67,160.54,57.01z M153.4,62.75c0,1.14,1.08,1.74,2.38,1.74c1.29,0,2.38-0.6,2.38-1.74c0-1.16-1.09-1.78-2.38-1.78
		C154.48,60.97,153.4,61.59,153.4,62.75z M153.68,57.2c0,1.11,0.94,1.71,2.1,1.71s2.1-0.59,2.1-1.71c0-1.08-0.94-1.66-2.1-1.66
		S153.68,56.12,153.68,57.2z"/>
	<path class="st8" d="M170.9,55.84h-5.26l-0.06,2.6h1.49c3.02,0,4.55,1.74,4.55,3.91c0,2.79-2.12,4.39-4.74,4.39
		c-1.94,0-3.53-0.72-4.6-1.94l1.41-1.75c0.71,0.77,1.98,1.37,3.17,1.37c1.45,0,2.16-0.85,2.16-1.88c0-0.97-0.61-1.83-2.64-1.83
		h-3.09l0.14-7.19h7.47V55.84z"/>
	<path class="st8" d="M176.85,64.92c0,0.97-0.83,1.81-1.79,1.81c-0.96,0-1.81-0.84-1.81-1.81c0-0.96,0.84-1.79,1.81-1.79
		C176.02,63.13,176.85,63.95,176.85,64.92z"/>
	<path class="st8" d="M186.45,61.78h1.81v2.34h-1.81v2.38h-2.5v-2.38h-5.76V62.3l4.56-8.79h2.78l-4.34,8.27h2.76v-3.46h2.5V61.78z"
		/>
	<path class="st8" d="M198.2,55.46l-5.38,11.03h-2.95l5.34-10.65h-6.17v-2.34h9.16V55.46z"/>
</g>
<g>
	<path class="st1" d="M155.32,172.47c0.18-0.02,0.38-0.04,0.6-0.04c2.63,0,4.5,1.88,4.5,4.31c0,2.54-2.1,4.43-4.89,4.43
		c-2.77,0-4.87-1.87-4.87-4.38c0-1.19,0.45-2.26,1.23-3.45l3.6-5.39h3.02L155.32,172.47z M153.27,176.76c0,1.26,0.97,2.13,2.26,2.13
		c1.31,0,2.28-0.87,2.28-2.13c0-1.25-0.97-2.13-2.28-2.13C154.24,174.63,153.27,175.51,153.27,176.76z"/>
	<path class="st1" d="M166.66,176.42c-0.18,0.03-0.36,0.04-0.58,0.04c-2.63,0-4.5-1.88-4.5-4.31c0-2.54,2.09-4.43,4.88-4.43
		c2.77,0,4.88,1.87,4.88,4.38c0,1.19-0.45,2.27-1.23,3.45l-3.6,5.39h-3.02L166.66,176.42z M168.73,172.13
		c0-1.26-0.97-2.13-2.27-2.13c-1.31,0-2.27,0.87-2.27,2.13c0,1.25,0.96,2.13,2.27,2.13C167.76,174.26,168.73,173.38,168.73,172.13z"
		/>
	<path class="st1" d="M175.42,179.36c0,0.97-0.83,1.81-1.79,1.81c-0.96,0-1.81-0.84-1.81-1.81c0-0.96,0.84-1.79,1.81-1.79
		C174.59,177.57,175.42,178.4,175.42,179.36z"/>
	<path class="st1" d="M185.71,171.45c0,1.37-0.73,2.38-1.94,2.95c1.36,0.54,2.23,1.58,2.23,2.98c0,2.56-2.33,3.79-4.79,3.79
		c-1.95,0-3.55-0.7-4.54-1.88l1.49-1.64c0.75,0.79,1.84,1.24,2.95,1.24c1.26,0,2.27-0.55,2.27-1.69c0-1.11-1.14-1.7-2.54-1.7h-1.51
		v-2.23h1.52c1.26,0,2.27-0.56,2.27-1.65c0-1.05-0.95-1.62-2.15-1.62s-2.1,0.62-2.63,1.32l-1.58-1.59c0.85-1.15,2.26-2.01,4.33-2.01
		C183.85,167.72,185.71,169.2,185.71,171.45z"/>
	<path class="st1" d="M196.54,169.91l-5.38,11.03h-2.95l5.34-10.65h-6.17v-2.34h9.16V169.91z"/>
</g>
<g>
	<path class="st8" d="M528.14,87.38c0,1.49-0.86,2.42-1.99,2.94c1.28,0.5,2.3,1.43,2.3,3.01c0,2.37-2.28,3.77-5.08,3.77
		c-2.79,0-5.07-1.4-5.07-3.77c0-1.59,1.01-2.51,2.29-3.01c-1.12-0.52-1.98-1.45-1.98-2.94c0-2.34,2.13-3.73,4.76-3.73
		C526.01,83.65,528.14,85.04,528.14,87.38z M521.01,93.12c0,1.14,1.08,1.74,2.38,1.74c1.29,0,2.38-0.6,2.38-1.74
		c0-1.16-1.08-1.78-2.38-1.78C522.08,91.34,521.01,91.96,521.01,93.12z M521.29,87.57c0,1.11,0.94,1.71,2.1,1.71
		c1.16,0,2.1-0.59,2.1-1.71c0-1.08-0.94-1.66-2.1-1.66C522.22,85.91,521.29,86.49,521.29,87.57z"/>
	<path class="st8" d="M535.36,96.87h-2.5V87.2l-3.11,1.26v-2.52l5.61-2.26V96.87z"/>
	<path class="st8" d="M541.25,95.29c0,0.97-0.83,1.81-1.79,1.81c-0.96,0-1.81-0.84-1.81-1.81c0-0.96,0.84-1.79,1.81-1.79
		C540.42,93.5,541.25,94.33,541.25,95.29z"/>
	<path class="st8" d="M547.26,88.4c0.18-0.02,0.38-0.04,0.6-0.04c2.63,0,4.5,1.88,4.5,4.31c0,2.54-2.1,4.43-4.89,4.43
		c-2.77,0-4.87-1.87-4.87-4.38c0-1.19,0.45-2.26,1.23-3.45l3.6-5.39h3.02L547.26,88.4z M545.21,92.69c0,1.26,0.97,2.13,2.26,2.13
		c1.31,0,2.28-0.87,2.28-2.13c0-1.25-0.97-2.13-2.28-2.13C546.18,90.56,545.21,91.44,545.21,92.69z"/>
	<path class="st8" d="M562.21,86.21h-5.26l-0.06,2.6h1.49c3.02,0,4.55,1.74,4.55,3.91c0,2.79-2.12,4.39-4.74,4.39
		c-1.94,0-3.53-0.72-4.6-1.94l1.41-1.75c0.71,0.77,1.98,1.37,3.17,1.37c1.45,0,2.16-0.85,2.16-1.88c0-0.97-0.61-1.83-2.64-1.83
		h-3.09l0.14-7.19h7.47V86.21z"/>
</g>
<g>
	<path class="st1" d="M525.92,194.63c0.18-0.02,0.38-0.04,0.6-0.04c2.63,0,4.5,1.88,4.5,4.31c0,2.54-2.1,4.43-4.89,4.43
		c-2.77,0-4.87-1.87-4.87-4.38c0-1.19,0.45-2.26,1.23-3.45l3.6-5.39h3.02L525.92,194.63z M523.87,198.92c0,1.26,0.97,2.13,2.26,2.13
		c1.31,0,2.28-0.87,2.28-2.13c0-1.25-0.97-2.13-2.28-2.13C524.84,196.79,523.87,197.67,523.87,198.92z"/>
	<path class="st1" d="M540.88,192.44h-5.26l-0.06,2.6h1.49c3.02,0,4.55,1.74,4.55,3.91c0,2.79-2.12,4.39-4.74,4.39
		c-1.94,0-3.53-0.72-4.6-1.94l1.41-1.75c0.71,0.77,1.98,1.37,3.17,1.37c1.45,0,2.16-0.85,2.16-1.88c0-0.97-0.61-1.83-2.64-1.83
		h-3.09l0.14-7.19h7.47V192.44z"/>
	<path class="st1" d="M546.82,201.52c0,0.97-0.83,1.81-1.79,1.81c-0.96,0-1.81-0.84-1.81-1.81c0-0.96,0.84-1.79,1.81-1.79
		C545.99,199.73,546.82,200.55,546.82,201.52z"/>
	<path class="st1" d="M552.43,198.58c-0.18,0.03-0.36,0.04-0.58,0.04c-2.63,0-4.5-1.88-4.5-4.31c0-2.54,2.09-4.43,4.88-4.43
		c2.77,0,4.88,1.87,4.88,4.38c0,1.19-0.45,2.27-1.23,3.45l-3.6,5.39h-3.02L552.43,198.58z M554.5,194.28c0-1.26-0.97-2.13-2.27-2.13
		c-1.31,0-2.27,0.87-2.27,2.13c0,1.25,0.96,2.13,2.27,2.13C553.52,196.42,554.5,195.54,554.5,194.28z"/>
</g>
<g>
	<path class="st8" d="M619.39,87.61c0,1.49-0.86,2.42-1.99,2.94c1.28,0.5,2.3,1.43,2.3,3.01c0,2.37-2.28,3.77-5.08,3.77
		c-2.79,0-5.07-1.4-5.07-3.77c0-1.59,1.01-2.51,2.29-3.01c-1.12-0.52-1.98-1.45-1.98-2.94c0-2.34,2.13-3.73,4.76-3.73
		C617.25,83.88,619.39,85.27,619.39,87.61z M612.25,93.35c0,1.14,1.08,1.74,2.38,1.74c1.29,0,2.38-0.6,2.38-1.74
		c0-1.16-1.08-1.78-2.38-1.78C613.33,91.57,612.25,92.19,612.25,93.35z M612.53,87.8c0,1.11,0.94,1.71,2.1,1.71
		c1.16,0,2.1-0.59,2.1-1.71c0-1.08-0.94-1.66-2.1-1.66C613.47,86.14,612.53,86.73,612.53,87.8z"/>
	<path class="st8" d="M626.61,97.1h-2.5v-9.67l-3.11,1.26v-2.52l5.61-2.26V97.1z"/>
	<path class="st8" d="M632.5,95.52c0,0.97-0.83,1.81-1.79,1.81c-0.96,0-1.81-0.84-1.81-1.81c0-0.96,0.84-1.79,1.81-1.79
		C631.66,93.73,632.5,94.56,632.5,95.52z"/>
	<path class="st8" d="M642.1,92.39h1.81v2.34h-1.81v2.38h-2.5v-2.38h-5.76v-1.82l4.56-8.79h2.78l-4.34,8.27h2.76v-3.46h2.5V92.39z"
		/>
	<path class="st8" d="M655.13,87.61c0,1.49-0.86,2.42-1.99,2.94c1.28,0.5,2.3,1.43,2.3,3.01c0,2.37-2.28,3.77-5.08,3.77
		c-2.79,0-5.07-1.4-5.07-3.77c0-1.59,1.01-2.51,2.29-3.01c-1.12-0.52-1.98-1.45-1.98-2.94c0-2.34,2.13-3.73,4.76-3.73
		C652.99,83.88,655.13,85.27,655.13,87.61z M647.99,93.35c0,1.14,1.08,1.74,2.38,1.74c1.29,0,2.38-0.6,2.38-1.74
		c0-1.16-1.08-1.78-2.38-1.78C649.07,91.57,647.99,92.19,647.99,93.35z M648.27,87.8c0,1.11,0.94,1.71,2.1,1.71
		c1.16,0,2.1-0.59,2.1-1.71c0-1.08-0.94-1.66-2.1-1.66C649.21,86.14,648.27,86.73,648.27,87.8z"/>
</g>
<g>
	<path class="st1" d="M619.66,145.91l-5.38,11.03h-2.95l5.34-10.65h-6.17v-2.34h9.16V145.91z"/>
	<path class="st1" d="M620.76,145.96c0.71-0.92,2.02-2.24,4.43-2.24c2.72,0,4.41,1.71,4.41,4.19c0,1.59-0.81,2.69-1.87,3.79
		l-2.77,2.88h4.96v2.35h-8.58v-1.96l4.59-4.7c0.69-0.7,1.07-1.41,1.07-2.23c0-1.13-0.79-1.94-1.99-1.94c-1.23,0-1.97,0.67-2.63,1.43
		L620.76,145.96z"/>
	<path class="st1" d="M635.23,155.37c0,0.97-0.83,1.81-1.79,1.81c-0.96,0-1.81-0.84-1.81-1.81c0-0.96,0.84-1.79,1.81-1.79
		C634.4,153.58,635.23,154.4,635.23,155.37z"/>
	<path class="st1" d="M645.52,145.91l-5.38,11.03h-2.95l5.34-10.65h-6.17v-2.34h9.16V145.91z"/>
	<path class="st1" d="M650.76,148.47c0.18-0.02,0.38-0.04,0.6-0.04c2.63,0,4.5,1.88,4.5,4.31c0,2.54-2.1,4.43-4.89,4.43
		c-2.77,0-4.87-1.87-4.87-4.38c0-1.19,0.45-2.26,1.23-3.45l3.6-5.39h3.02L650.76,148.47z M648.71,152.77c0,1.26,0.97,2.13,2.26,2.13
		c1.31,0,2.28-0.87,2.28-2.13c0-1.25-0.97-2.13-2.28-2.13C649.69,150.63,648.71,151.52,648.71,152.77z"/>
</g>
<g>
	<path class="st8" d="M712.97,89.37c0,1.49-0.86,2.42-1.99,2.94c1.28,0.5,2.3,1.43,2.3,3.01c0,2.37-2.28,3.77-5.08,3.77
		c-2.79,0-5.07-1.4-5.07-3.77c0-1.59,1.01-2.51,2.29-3.01c-1.12-0.52-1.98-1.45-1.98-2.94c0-2.34,2.13-3.73,4.76-3.73
		C710.83,85.63,712.97,87.03,712.97,89.37z M705.83,95.11c0,1.14,1.08,1.74,2.38,1.74c1.29,0,2.38-0.6,2.38-1.74
		c0-1.16-1.08-1.78-2.38-1.78C706.91,93.33,705.83,93.95,705.83,95.11z M706.11,89.56c0,1.11,0.94,1.71,2.1,1.71
		c1.16,0,2.1-0.59,2.1-1.71c0-1.08-0.94-1.66-2.1-1.66C707.05,87.9,706.11,88.48,706.11,89.56z"/>
	<path class="st8" d="M720.18,98.86h-2.5v-9.67l-3.11,1.26v-2.52l5.61-2.26V98.86z"/>
	<path class="st8" d="M726.08,97.28c0,0.97-0.83,1.81-1.79,1.81c-0.96,0-1.81-0.84-1.81-1.81c0-0.96,0.84-1.79,1.81-1.79
		C725.24,95.49,726.08,96.31,726.08,97.28z"/>
	<path class="st8" d="M731.96,98.86h-2.5v-9.67l-3.11,1.26v-2.52l5.61-2.26V98.86z"/>
	<path class="st8" d="M743.21,87.82l-5.38,11.03h-2.95l5.34-10.65h-6.17v-2.34h9.16V87.82z"/>
</g>
<g>
	<path class="st1" d="M707.74,194.63c0.18-0.02,0.38-0.04,0.6-0.04c2.63,0,4.5,1.88,4.5,4.31c0,2.54-2.1,4.43-4.89,4.43
		c-2.77,0-4.87-1.87-4.87-4.38c0-1.19,0.45-2.26,1.23-3.45l3.6-5.39h3.02L707.74,194.63z M705.69,198.92c0,1.26,0.97,2.13,2.26,2.13
		c1.31,0,2.28-0.87,2.28-2.13c0-1.25-0.97-2.13-2.28-2.13C706.67,196.79,705.69,197.67,705.69,198.92z"/>
	<path class="st1" d="M718.69,194.63c0.18-0.02,0.38-0.04,0.6-0.04c2.63,0,4.5,1.88,4.5,4.31c0,2.54-2.1,4.43-4.89,4.43
		c-2.77,0-4.87-1.87-4.87-4.38c0-1.19,0.45-2.26,1.23-3.45l3.6-5.39h3.02L718.69,194.63z M716.64,198.92c0,1.26,0.97,2.13,2.26,2.13
		c1.31,0,2.28-0.87,2.28-2.13c0-1.25-0.97-2.13-2.28-2.13C717.61,196.79,716.64,197.67,716.64,198.92z"/>
	<path class="st1" d="M728.78,201.52c0,0.97-0.83,1.81-1.79,1.81c-0.96,0-1.81-0.84-1.81-1.81c0-0.96,0.84-1.79,1.81-1.79
		C727.94,199.73,728.78,200.55,728.78,201.52z"/>
	<path class="st1" d="M738.79,192.44h-5.26l-0.06,2.6h1.49c3.02,0,4.55,1.74,4.55,3.91c0,2.79-2.12,4.39-4.74,4.39
		c-1.94,0-3.53-0.72-4.6-1.94l1.41-1.75c0.71,0.77,1.98,1.37,3.17,1.37c1.45,0,2.16-0.85,2.16-1.88c0-0.97-0.61-1.83-2.64-1.83
		h-3.09l0.14-7.19h7.47V192.44z"/>
	<path class="st1" d="M746.46,203.1h-2.5v-9.67l-3.11,1.26v-2.52l5.61-2.26V203.1z"/>
</g>
<g>
	<path class="st8" d="M805.29,93.6c0,1.49-0.86,2.42-1.99,2.94c1.28,0.5,2.3,1.43,2.3,3.01c0,2.37-2.28,3.77-5.07,3.77
		c-2.79,0-5.08-1.4-5.08-3.77c0-1.59,1.01-2.51,2.29-3.01c-1.12-0.52-1.98-1.45-1.98-2.94c0-2.34,2.13-3.73,4.76-3.73
		C803.16,89.87,805.29,91.26,805.29,93.6z M798.16,99.34c0,1.14,1.08,1.74,2.38,1.74c1.29,0,2.38-0.6,2.38-1.74
		c0-1.16-1.09-1.78-2.38-1.78C799.23,97.56,798.16,98.18,798.16,99.34z M798.43,93.79c0,1.11,0.94,1.71,2.1,1.71
		c1.16,0,2.1-0.59,2.1-1.71c0-1.08-0.94-1.66-2.1-1.66C799.37,92.13,798.43,92.71,798.43,93.79z"/>
	<path class="st8" d="M818.57,96.59c0,4.2-2.5,6.73-5.6,6.73c-3.11,0-5.59-2.52-5.59-6.73s2.49-6.73,5.59-6.73
		C816.06,89.87,818.57,92.39,818.57,96.59z M809.98,96.59c0,2.84,1.33,4.32,2.99,4.32c1.67,0,2.99-1.48,2.99-4.32
		s-1.32-4.32-2.99-4.32C811.3,92.27,809.98,93.75,809.98,96.59z"/>
	<path class="st8" d="M823.7,101.51c0,0.97-0.83,1.81-1.79,1.81c-0.96,0-1.81-0.84-1.81-1.81c0-0.96,0.84-1.79,1.81-1.79
		C822.86,99.72,823.7,100.54,823.7,101.51z"/>
	<path class="st8" d="M833.99,92.06l-5.38,11.03h-2.95L831,92.44h-6.17V90.1h9.16V92.06z"/>
	<path class="st8" d="M842.51,98.37h1.81v2.34h-1.81v2.38h-2.5v-2.38h-5.76v-1.82l4.55-8.79h2.78l-4.34,8.27h2.76v-3.46h2.5V98.37z"
		/>
</g>
<g>
	<path class="st1" d="M804.57,151.48l-5.38,11.03h-2.95l5.34-10.65h-6.17v-2.34h9.16V151.48z"/>
	<path class="st1" d="M811.41,162.51h-2.5v-9.67l-3.11,1.26v-2.52l5.61-2.26V162.51z"/>
	<path class="st1" d="M817.3,160.93c0,0.97-0.83,1.81-1.79,1.81c-0.96,0-1.81-0.84-1.81-1.81c0-0.96,0.84-1.79,1.81-1.79
		C816.47,159.14,817.3,159.97,817.3,160.93z"/>
	<path class="st1" d="M823.31,154.04c0.18-0.02,0.38-0.04,0.6-0.04c2.63,0,4.5,1.88,4.5,4.31c0,2.54-2.1,4.43-4.89,4.43
		c-2.77,0-4.87-1.87-4.87-4.38c0-1.19,0.45-2.26,1.23-3.45l3.6-5.39h3.02L823.31,154.04z M821.26,158.34c0,1.26,0.97,2.13,2.26,2.13
		c1.31,0,2.28-0.87,2.28-2.13c0-1.25-0.97-2.13-2.28-2.13C822.23,156.2,821.26,157.08,821.26,158.34z"/>
	<path class="st1" d="M838.54,153.02c0,1.37-0.73,2.38-1.94,2.95c1.36,0.54,2.23,1.58,2.23,2.98c0,2.56-2.33,3.79-4.79,3.79
		c-1.95,0-3.55-0.7-4.54-1.88l1.49-1.64c0.75,0.79,1.84,1.24,2.95,1.24c1.26,0,2.27-0.55,2.27-1.69c0-1.11-1.14-1.7-2.54-1.7h-1.51
		v-2.23h1.52c1.26,0,2.27-0.56,2.27-1.65c0-1.05-0.95-1.62-2.15-1.62s-2.1,0.62-2.63,1.32l-1.58-1.59c0.85-1.15,2.26-2.01,4.33-2.01
		C836.68,149.29,838.54,150.78,838.54,153.02z"/>
</g>
<g>
	<path class="st8" d="M896.15,102.63l-5.38,11.03h-2.95l5.34-10.65H887v-2.34h9.16V102.63z"/>
	<path class="st8" d="M902.32,109.14c-0.18,0.03-0.36,0.04-0.58,0.04c-2.63,0-4.5-1.88-4.5-4.31c0-2.54,2.09-4.43,4.88-4.43
		c2.77,0,4.88,1.87,4.88,4.38c0,1.19-0.45,2.27-1.23,3.45l-3.6,5.39h-3.02L902.32,109.14z M904.39,104.85
		c0-1.26-0.97-2.13-2.27-2.13c-1.31,0-2.27,0.87-2.27,2.13c0,1.25,0.96,2.13,2.27,2.13C903.42,106.98,904.39,106.1,904.39,104.85z"
		/>
	<path class="st8" d="M911.08,112.08c0,0.97-0.83,1.81-1.79,1.81c-0.96,0-1.81-0.84-1.81-1.81c0-0.96,0.84-1.79,1.81-1.79
		C910.25,110.29,911.08,111.12,911.08,112.08z"/>
	<path class="st8" d="M920.68,108.95h1.81v2.34h-1.81v2.38h-2.5v-2.38h-5.76v-1.82l4.56-8.79h2.78l-4.34,8.27h2.76v-3.46h2.5V108.95
		z"/>
	<path class="st8" d="M932.39,104.17c0,1.37-0.73,2.38-1.94,2.95c1.36,0.54,2.23,1.58,2.23,2.98c0,2.56-2.33,3.79-4.79,3.79
		c-1.95,0-3.55-0.7-4.54-1.88l1.49-1.64c0.75,0.79,1.84,1.24,2.95,1.24c1.26,0,2.27-0.55,2.27-1.69c0-1.11-1.14-1.7-2.54-1.7h-1.51
		V106h1.52c1.26,0,2.27-0.56,2.27-1.65c0-1.05-0.95-1.62-2.15-1.62s-2.1,0.62-2.63,1.32l-1.58-1.59c0.85-1.15,2.26-2.01,4.33-2.01
		C930.53,100.44,932.39,101.92,932.39,104.17z"/>
</g>
<g>
	<path class="st1" d="M890.42,206.89c0.18-0.02,0.38-0.04,0.6-0.04c2.63,0,4.5,1.88,4.5,4.31c0,2.54-2.1,4.43-4.89,4.43
		c-2.77,0-4.87-1.87-4.87-4.38c0-1.19,0.45-2.26,1.23-3.45l3.6-5.39h3.02L890.42,206.89z M888.37,211.19c0,1.26,0.97,2.13,2.26,2.13
		c1.31,0,2.28-0.87,2.28-2.13c0-1.25-0.97-2.13-2.28-2.13C889.35,209.06,888.37,209.94,888.37,211.19z"/>
	<path class="st1" d="M905.16,210.65h1.81v2.34h-1.81v2.38h-2.5v-2.38h-5.76v-1.82l4.56-8.79h2.78l-4.34,8.27h2.76v-3.46h2.5V210.65
		z"/>
	<path class="st1" d="M911.99,213.79c0,0.97-0.83,1.81-1.79,1.81c-0.96,0-1.81-0.84-1.81-1.81c0-0.96,0.84-1.79,1.81-1.79
		C911.16,212,911.99,212.82,911.99,213.79z"/>
	<path class="st1" d="M921.6,210.65h1.81v2.34h-1.81v2.38h-2.5v-2.38h-5.76v-1.82l4.55-8.79h2.78l-4.34,8.27h2.76v-3.46h2.5V210.65z
		"/>
	<path class="st1" d="M933.31,205.87c0,1.37-0.73,2.38-1.94,2.95c1.36,0.54,2.23,1.58,2.23,2.98c0,2.56-2.33,3.79-4.79,3.79
		c-1.95,0-3.55-0.7-4.54-1.88l1.49-1.64c0.75,0.79,1.84,1.24,2.95,1.24c1.26,0,2.27-0.55,2.27-1.69c0-1.11-1.14-1.7-2.54-1.7h-1.51
		v-2.23h1.52c1.26,0,2.27-0.56,2.27-1.65c0-1.05-0.95-1.62-2.15-1.62s-2.1,0.62-2.63,1.32l-1.58-1.59c0.85-1.15,2.26-2.01,4.33-2.01
		C931.44,202.14,933.31,203.63,933.31,205.87z"/>
</g>
<g>
	<path class="st8" d="M251.72,61c0,1.49-0.86,2.42-1.99,2.94c1.28,0.5,2.3,1.43,2.3,3.01c0,2.37-2.28,3.77-5.07,3.77
		s-5.07-1.4-5.07-3.77c0-1.59,1.01-2.51,2.29-3.01c-1.12-0.52-1.98-1.45-1.98-2.94c0-2.34,2.13-3.73,4.76-3.73
		S251.72,58.66,251.72,61z M244.59,66.74c0,1.14,1.08,1.74,2.38,1.74c1.29,0,2.38-0.6,2.38-1.74c0-1.16-1.09-1.78-2.38-1.78
		C245.66,64.96,244.59,65.58,244.59,66.74z M244.87,61.19c0,1.11,0.94,1.71,2.1,1.71s2.1-0.59,2.1-1.71c0-1.08-0.94-1.66-2.1-1.66
		S244.87,60.12,244.87,61.19z"/>
	<path class="st8" d="M261.52,65.77h1.81v2.34h-1.81v2.38h-2.5v-2.38h-5.76v-1.82l4.56-8.79h2.78l-4.34,8.27h2.76v-3.46h2.5V65.77z"
		/>
	<path class="st8" d="M268.36,68.91c0,0.97-0.83,1.81-1.79,1.81c-0.96,0-1.81-0.84-1.81-1.81c0-0.96,0.84-1.79,1.81-1.79
		C267.52,67.12,268.36,67.95,268.36,68.91z"/>
	<path class="st8" d="M279.78,61c0,1.49-0.86,2.42-1.99,2.94c1.28,0.5,2.3,1.43,2.3,3.01c0,2.37-2.28,3.77-5.07,3.77
		s-5.07-1.4-5.07-3.77c0-1.59,1.01-2.51,2.29-3.01c-1.12-0.52-1.98-1.45-1.98-2.94c0-2.34,2.13-3.73,4.76-3.73
		S279.78,58.66,279.78,61z M272.64,66.74c0,1.14,1.08,1.74,2.38,1.74c1.29,0,2.38-0.6,2.38-1.74c0-1.16-1.09-1.78-2.38-1.78
		C273.72,64.96,272.64,65.58,272.64,66.74z M272.92,61.19c0,1.11,0.94,1.71,2.1,1.71s2.1-0.59,2.1-1.71c0-1.08-0.94-1.66-2.1-1.66
		S272.92,60.12,272.92,61.19z"/>
	<path class="st8" d="M290.42,61c0,1.37-0.73,2.38-1.94,2.95c1.36,0.54,2.23,1.58,2.23,2.98c0,2.56-2.33,3.79-4.79,3.79
		c-1.95,0-3.55-0.7-4.54-1.88l1.49-1.64c0.75,0.79,1.84,1.24,2.95,1.24c1.26,0,2.27-0.55,2.27-1.69c0-1.11-1.14-1.7-2.54-1.7h-1.51
		v-2.23h1.52c1.26,0,2.27-0.56,2.27-1.65c0-1.05-0.95-1.62-2.15-1.62s-2.1,0.62-2.63,1.32l-1.58-1.59c0.85-1.15,2.26-2.01,4.33-2.01
		C288.56,57.27,290.42,58.75,290.42,61z"/>
</g>
<g>
	<path class="st1" d="M250.05,162.33l-5.38,11.03h-2.95l5.34-10.65h-6.17v-2.34h9.16V162.33z"/>
	<path class="st1" d="M262.4,166.86c0,4.2-2.5,6.73-5.6,6.73c-3.11,0-5.59-2.52-5.59-6.73s2.49-6.73,5.59-6.73
		C259.89,160.14,262.4,162.66,262.4,166.86z M253.81,166.86c0,2.84,1.33,4.32,2.99,4.32c1.67,0,2.99-1.48,2.99-4.32
		s-1.32-4.32-2.99-4.32C255.13,162.54,253.81,164.02,253.81,166.86z"/>
	<path class="st1" d="M267.53,171.78c0,0.97-0.83,1.81-1.79,1.81c-0.96,0-1.81-0.84-1.81-1.81c0-0.96,0.84-1.79,1.81-1.79
		C266.69,169.99,267.53,170.82,267.53,171.78z"/>
	<path class="st1" d="M277.82,163.87c0,1.37-0.73,2.38-1.94,2.95c1.36,0.54,2.23,1.58,2.23,2.98c0,2.56-2.33,3.79-4.79,3.79
		c-1.95,0-3.55-0.7-4.54-1.88l1.49-1.64c0.75,0.79,1.84,1.24,2.95,1.24c1.26,0,2.27-0.55,2.27-1.69c0-1.11-1.14-1.7-2.54-1.7h-1.51
		v-2.23h1.52c1.26,0,2.27-0.56,2.27-1.65c0-1.05-0.95-1.62-2.15-1.62s-2.1,0.62-2.63,1.32l-1.58-1.59c0.85-1.15,2.26-2.01,4.33-2.01
		C275.95,160.14,277.82,161.62,277.82,163.87z"/>
	<path class="st1" d="M288.65,162.33l-5.38,11.03h-2.95l5.34-10.65h-6.17v-2.34h9.16V162.33z"/>
</g>
<g>
	<path class="st8" d="M344.75,64.2c0,1.49-0.86,2.42-1.99,2.94c1.28,0.5,2.3,1.43,2.3,3.01c0,2.37-2.28,3.77-5.07,3.77
		s-5.07-1.4-5.07-3.77c0-1.59,1.01-2.51,2.29-3.01c-1.12-0.52-1.98-1.45-1.98-2.94c0-2.34,2.13-3.73,4.76-3.73
		S344.75,61.86,344.75,64.2z M337.61,69.94c0,1.14,1.08,1.74,2.38,1.74c1.29,0,2.38-0.6,2.38-1.74c0-1.16-1.09-1.78-2.38-1.78
		C338.69,68.16,337.61,68.78,337.61,69.94z M337.89,64.4c0,1.11,0.94,1.71,2.1,1.71s2.1-0.59,2.1-1.71c0-1.08-0.94-1.66-2.1-1.66
		S337.89,63.32,337.89,64.4z"/>
	<path class="st8" d="M354.55,68.98h1.81v2.34h-1.81v2.38h-2.5v-2.38h-5.76V69.5l4.56-8.79h2.78l-4.34,8.27h2.76v-3.46h2.5V68.98z"
		/>
	<path class="st8" d="M361.38,72.11c0,0.97-0.83,1.81-1.79,1.81c-0.96,0-1.81-0.84-1.81-1.81c0-0.96,0.84-1.79,1.81-1.79
		C360.55,70.32,361.38,71.15,361.38,72.11z"/>
	<path class="st8" d="M362.78,62.71c0.71-0.92,2.02-2.24,4.43-2.24c2.72,0,4.41,1.71,4.41,4.19c0,1.59-0.81,2.69-1.87,3.79
		l-2.77,2.88h4.96v2.35h-8.58v-1.96l4.59-4.7c0.69-0.7,1.07-1.41,1.07-2.23c0-1.13-0.79-1.94-1.99-1.94c-1.23,0-1.97,0.67-2.63,1.43
		L362.78,62.71z"/>
	<path class="st8" d="M377.83,65.22c0.18-0.02,0.38-0.04,0.6-0.04c2.63,0,4.5,1.88,4.5,4.31c0,2.54-2.1,4.43-4.89,4.43
		c-2.77,0-4.87-1.87-4.87-4.38c0-1.19,0.45-2.26,1.23-3.45l3.6-5.39h3.02L377.83,65.22z M375.78,69.52c0,1.26,0.97,2.13,2.26,2.13
		c1.31,0,2.28-0.87,2.28-2.13c0-1.25-0.97-2.13-2.28-2.13C376.76,67.38,375.78,68.26,375.78,69.52z"/>
</g>
<g>
	<path class="st1" d="M335.88,176.97c0.18-0.02,0.38-0.04,0.6-0.04c2.63,0,4.5,1.88,4.5,4.31c0,2.54-2.1,4.43-4.89,4.43
		c-2.77,0-4.87-1.87-4.87-4.38c0-1.19,0.45-2.26,1.23-3.45l3.6-5.39h3.02L335.88,176.97z M333.83,181.26c0,1.26,0.97,2.13,2.26,2.13
		c1.31,0,2.28-0.87,2.28-2.13c0-1.25-0.97-2.13-2.28-2.13C334.8,179.13,333.83,180.01,333.83,181.26z"/>
	<path class="st1" d="M352.24,175.95c0,1.49-0.86,2.42-1.99,2.94c1.28,0.5,2.3,1.43,2.3,3.01c0,2.37-2.28,3.77-5.07,3.77
		s-5.07-1.4-5.07-3.77c0-1.59,1.01-2.51,2.29-3.01c-1.12-0.52-1.98-1.45-1.98-2.94c0-2.34,2.13-3.73,4.76-3.73
		S352.24,173.61,352.24,175.95z M345.11,181.69c0,1.14,1.08,1.74,2.38,1.74c1.29,0,2.38-0.6,2.38-1.74c0-1.16-1.09-1.78-2.38-1.78
		C346.19,179.91,345.11,180.53,345.11,181.69z M345.39,176.14c0,1.11,0.94,1.71,2.1,1.71s2.1-0.59,2.1-1.71
		c0-1.08-0.94-1.66-2.1-1.66S345.39,175.06,345.39,176.14z"/>
	<path class="st1" d="M357.74,183.86c0,0.97-0.83,1.81-1.79,1.81c-0.96,0-1.81-0.84-1.81-1.81c0-0.96,0.84-1.79,1.81-1.79
		C356.9,182.07,357.74,182.89,357.74,183.86z"/>
	<path class="st1" d="M367.75,174.78h-5.26l-0.06,2.6h1.49c3.02,0,4.55,1.74,4.55,3.91c0,2.79-2.12,4.39-4.74,4.39
		c-1.94,0-3.53-0.72-4.6-1.94l1.41-1.75c0.71,0.77,1.98,1.37,3.17,1.37c1.45,0,2.16-0.85,2.16-1.88c0-0.97-0.61-1.83-2.64-1.83
		h-3.09l0.14-7.19h7.47V174.78z"/>
	<path class="st1" d="M378.93,174.4l-5.38,11.03h-2.95l5.34-10.65h-6.17v-2.34h9.16V174.4z"/>
</g>
<g>
	<path class="st8" d="M435.22,73.94c0,1.49-0.86,2.42-1.99,2.94c1.28,0.5,2.3,1.43,2.3,3.01c0,2.37-2.28,3.77-5.07,3.77
		s-5.07-1.4-5.07-3.77c0-1.59,1.01-2.51,2.29-3.01c-1.12-0.52-1.98-1.45-1.98-2.94c0-2.34,2.13-3.73,4.76-3.73
		S435.22,71.61,435.22,73.94z M428.09,79.69c0,1.14,1.08,1.74,2.38,1.74c1.29,0,2.38-0.6,2.38-1.74c0-1.16-1.09-1.78-2.38-1.78
		C429.16,77.91,428.09,78.53,428.09,79.69z M428.37,74.14c0,1.11,0.94,1.71,2.1,1.71s2.1-0.59,2.1-1.71c0-1.08-0.94-1.66-2.1-1.66
		S428.37,73.06,428.37,74.14z"/>
	<path class="st8" d="M445.86,73.94c0,1.37-0.73,2.38-1.94,2.95c1.36,0.54,2.23,1.58,2.23,2.98c0,2.56-2.33,3.79-4.79,3.79
		c-1.95,0-3.55-0.7-4.54-1.88l1.49-1.64c0.75,0.79,1.84,1.24,2.95,1.24c1.26,0,2.27-0.55,2.27-1.69c0-1.11-1.14-1.7-2.54-1.7h-1.51
		v-2.23h1.52c1.26,0,2.27-0.56,2.27-1.65c0-1.05-0.95-1.62-2.15-1.62s-2.1,0.62-2.63,1.32l-1.58-1.59c0.85-1.15,2.26-2.01,4.33-2.01
		C444,70.21,445.86,71.7,445.86,73.94z"/>
	<path class="st8" d="M451.33,81.86c0,0.97-0.83,1.81-1.79,1.81c-0.96,0-1.81-0.84-1.81-1.81c0-0.96,0.84-1.79,1.81-1.79
		C450.5,80.07,451.33,80.89,451.33,81.86z"/>
	<path class="st8" d="M461.34,72.77h-5.26l-0.06,2.6h1.49c3.02,0,4.55,1.74,4.55,3.91c0,2.79-2.12,4.39-4.74,4.39
		c-1.94,0-3.53-0.72-4.6-1.94l1.41-1.75c0.71,0.77,1.98,1.37,3.17,1.37c1.45,0,2.16-0.85,2.16-1.88c0-0.97-0.61-1.83-2.64-1.83
		h-3.09l0.14-7.19h7.47V72.77z"/>
	<path class="st8" d="M468.15,74.96c0.18-0.02,0.38-0.04,0.6-0.04c2.63,0,4.5,1.88,4.5,4.31c0,2.54-2.1,4.43-4.89,4.43
		c-2.77,0-4.87-1.87-4.87-4.38c0-1.19,0.45-2.26,1.23-3.45l3.6-5.39h3.02L468.15,74.96z M466.1,79.26c0,1.26,0.97,2.13,2.26,2.13
		c1.31,0,2.28-0.87,2.28-2.13c0-1.25-0.97-2.13-2.28-2.13C467.08,77.13,466.1,78.01,466.1,79.26z"/>
</g>
<g>
	<path class="st1" d="M434.04,252.58h-5.26l-0.06,2.6h1.49c3.02,0,4.55,1.74,4.55,3.91c0,2.79-2.12,4.39-4.74,4.39
		c-1.94,0-3.53-0.72-4.6-1.94l1.41-1.75c0.71,0.77,1.98,1.37,3.17,1.37c1.45,0,2.16-0.85,2.16-1.88c0-0.97-0.61-1.83-2.64-1.83
		h-3.09l0.14-7.19h7.47V252.58z"/>
	<path class="st1" d="M445.22,252.21l-5.38,11.03h-2.95l5.34-10.65h-6.17v-2.34h9.16V252.21z"/>
	<path class="st1" d="M448.58,261.66c0,0.97-0.83,1.81-1.79,1.81c-0.96,0-1.81-0.84-1.81-1.81c0-0.96,0.84-1.79,1.81-1.79
		C447.75,259.87,448.58,260.7,448.58,261.66z"/>
	<path class="st1" d="M460,253.75c0,1.49-0.86,2.42-1.99,2.94c1.28,0.5,2.3,1.43,2.3,3.01c0,2.37-2.28,3.77-5.07,3.77
		s-5.07-1.4-5.07-3.77c0-1.59,1.01-2.51,2.29-3.01c-1.12-0.52-1.98-1.45-1.98-2.94c0-2.34,2.13-3.73,4.76-3.73
		S460,251.41,460,253.75z M452.87,259.49c0,1.14,1.08,1.74,2.38,1.74c1.29,0,2.38-0.6,2.38-1.74c0-1.16-1.09-1.78-2.38-1.78
		C453.95,257.71,452.87,258.33,452.87,259.49z M453.15,253.94c0,1.11,0.94,1.71,2.1,1.71s2.1-0.59,2.1-1.71
		c0-1.08-0.94-1.66-2.1-1.66S453.15,252.87,453.15,253.94z"/>
	<path class="st1" d="M470.65,253.75c0,1.37-0.73,2.38-1.94,2.95c1.36,0.54,2.23,1.58,2.23,2.98c0,2.56-2.33,3.79-4.79,3.79
		c-1.95,0-3.55-0.7-4.54-1.88l1.49-1.64c0.75,0.79,1.84,1.24,2.95,1.24c1.26,0,2.27-0.55,2.27-1.69c0-1.11-1.14-1.7-2.54-1.7h-1.51
		v-2.23h1.52c1.26,0,2.27-0.56,2.27-1.65c0-1.05-0.95-1.62-2.15-1.62s-2.1,0.62-2.63,1.32l-1.58-1.59c0.85-1.15,2.26-2.01,4.33-2.01
		C468.78,250.02,470.65,251.5,470.65,253.75z"/>
</g>
<line class="st9" x1="40.38" y1="171.43" x2="121.05" y2="171.43"/>
<line class="st9" x1="131.86" y1="159.85" x2="212.54" y2="159.85"/>
<line class="st9" x1="225.18" y1="152.48" x2="305.85" y2="152.48"/>
<line class="st9" x1="314.98" y1="165.75" x2="395.65" y2="165.75"/>
<line class="st9" x1="408.59" y1="244.04" x2="489.27" y2="244.04"/>
<line class="st9" x1="500.84" y1="185.99" x2="581.51" y2="185.99"/>
<line class="st9" x1="593.08" y1="134.86" x2="673.76" y2="134.86"/>
<line class="st9" x1="685.33" y1="180.94" x2="766" y2="180.94"/>
<line class="st9" x1="777.57" y1="143.19" x2="858.25" y2="143.19"/>
<line class="st9" x1="869.82" y1="195.42" x2="950.49" y2="195.42"/>
<g>
	<path class="st8" d="M235.69,341.59l-2.16,1.32c-0.71-1.09-1.85-1.74-3.26-1.74c-2.29,0-3.98,1.67-3.98,4.12
		c0.01,2.53,1.76,4.12,3.98,4.12c1.4,0,2.53-0.63,3.29-1.73l2.05,1.48c-1.12,1.64-3.02,2.67-5.32,2.67c-3.88,0-6.62-2.75-6.62-6.54
		s2.74-6.54,6.62-6.54C232.62,338.77,234.67,339.83,235.69,341.59z"/>
	<path class="st8" d="M250.25,345.3c0,3.76-2.75,6.54-6.63,6.54c-3.88,0-6.62-2.77-6.62-6.54c0-3.76,2.74-6.54,6.62-6.54
		C247.5,338.77,250.25,341.54,250.25,345.3z M239.63,345.3c0,2.45,1.68,4.12,4,4.12c2.32,0,4-1.67,4-4.12c0-2.45-1.67-4.12-4-4.12
		C241.31,341.18,239.63,342.85,239.63,345.3z"/>
	<path class="st8" d="M258.59,351.6h-3.05L250.8,339h2.67l3.61,10.06l3.63-10.06h2.61L258.59,351.6z"/>
	<path class="st8" d="M267.45,351.6h-2.51V339h2.51V351.6z"/>
	<path class="st8" d="M275.51,339c3.94,0,6.54,2.5,6.54,6.3s-2.6,6.3-6.54,6.3h-5.19V339H275.51z M272.83,341.35v7.9h2.66
		c2.66,0,3.94-1.67,3.94-3.95c0-2.31-1.29-3.95-3.94-3.95H272.83z"/>
	<path class="st8" d="M289.2,347.84h-5.32v-2.05h5.32V347.84z"/>
	<path class="st8" d="M295.57,351.6h-2.43v-9.38l-3.02,1.22V341l5.45-2.2V351.6z"/>
	<path class="st8" d="M302.57,347.22c-0.17,0.03-0.35,0.04-0.57,0.04c-2.56,0-4.37-1.83-4.37-4.19c0-2.47,2.03-4.29,4.74-4.29
		c2.69,0,4.74,1.81,4.74,4.25c0,1.15-0.43,2.21-1.2,3.35l-3.49,5.23h-2.93L302.57,347.22z M304.58,343.05
		c0-1.22-0.95-2.07-2.21-2.07c-1.27,0-2.21,0.85-2.21,2.07c0,1.22,0.94,2.07,2.21,2.07C303.63,345.12,304.58,344.27,304.58,343.05z"
		/>
	<path class="st8" d="M316.06,346.99v4.61h-2.51V339h5.14c3.01,0,4.61,1.57,4.61,4.01c0,2.42-1.6,3.99-4.59,3.99H316.06z
		 M316.06,341.31v3.38h2.58c1.37,0,2.08-0.56,2.08-1.69c0-1.13-0.71-1.69-2.08-1.69H316.06z"/>
	<path class="st8" d="M333.52,351.6h-2.3v-0.96c-0.57,0.7-1.41,1.19-2.61,1.19c-2.4,0-4.22-1.97-4.22-4.59s1.82-4.59,4.22-4.59
		c1.2,0,2.03,0.49,2.61,1.2v-0.96h2.3V351.6z M326.8,347.24c0,1.33,0.87,2.4,2.25,2.4c1.34,0,2.25-1.03,2.25-2.4
		c0-1.38-0.91-2.4-2.25-2.4C327.67,344.83,326.8,345.91,326.8,347.24z"/>
	<path class="st8" d="M344.23,346.05v5.55h-2.35v-4.8c0-1.26-0.63-1.95-1.7-1.95c-1.01,0-1.85,0.66-1.85,1.97v4.78h-2.35v-8.72h2.29
		v1.03c0.62-0.93,1.58-1.26,2.57-1.26C342.82,342.65,344.23,344.02,344.23,346.05z"/>
	<path class="st8" d="M352.87,343.79v-5.15h2.34v12.96h-2.3v-0.96c-0.57,0.7-1.41,1.19-2.61,1.19c-2.4,0-4.22-1.97-4.22-4.59
		s1.82-4.59,4.22-4.59C351.48,342.65,352.3,343.1,352.87,343.79z M348.49,347.24c0,1.33,0.87,2.4,2.25,2.4
		c1.34,0,2.25-1.03,2.25-2.4c0-1.38-0.91-2.4-2.25-2.4C349.36,344.83,348.49,345.91,348.49,347.24z"/>
	<path class="st8" d="M365.79,347.23c0,0.27-0.02,0.59-0.04,0.79h-6.19c0.25,1.26,1.13,1.81,2.24,1.81c0.76,0,1.58-0.31,2.21-0.84
		l1.38,1.51c-0.99,0.91-2.25,1.32-3.72,1.32c-2.67,0-4.53-1.82-4.53-4.56c0-2.75,1.8-4.62,4.41-4.62
		C364.06,342.65,365.78,344.51,365.79,347.23z M359.57,346.42h3.86c-0.22-1.12-0.89-1.75-1.9-1.75
		C360.42,344.67,359.77,345.34,359.57,346.42z"/>
	<path class="st8" d="M381.84,346.05v5.55h-2.34v-4.8c0-1.26-0.64-1.95-1.7-1.95c-1.01,0-1.85,0.66-1.85,1.97v4.78h-2.35v-4.8
		c0-1.26-0.63-1.95-1.7-1.95c-1.01,0-1.85,0.66-1.85,1.97v4.78h-2.35v-8.72h2.29v1.03c0.62-0.93,1.58-1.26,2.57-1.26
		c1.26,0,2.3,0.57,2.88,1.5c0.68-1.11,1.82-1.5,2.96-1.5C380.45,342.65,381.84,344.02,381.84,346.05z"/>
	<path class="st8" d="M386.89,340.03c0,0.85-0.66,1.49-1.5,1.49c-0.85,0-1.49-0.65-1.49-1.49c0-0.85,0.65-1.51,1.49-1.51
		C386.23,338.51,386.89,339.18,386.89,340.03z M386.58,351.6h-2.35v-8.72h2.35V351.6z"/>
	<path class="st8" d="M396.64,344.29l-1.69,1.41c-0.53-0.57-1.1-0.87-1.86-0.87c-1.22,0-2.19,0.96-2.19,2.4
		c0,1.46,0.96,2.4,2.18,2.4c0.76,0,1.4-0.34,1.9-0.88l1.67,1.43c-0.82,1.05-2.04,1.64-3.5,1.64c-2.78,0-4.65-1.94-4.65-4.59
		c0-2.64,1.86-4.59,4.65-4.59C394.6,342.65,395.84,343.24,396.64,344.29z"/>
</g>
</svg>
