<?xml version="1.0" encoding="utf-8"?>
<!-- Generator: Adobe Illustrator 25.0.1, SVG Export Plug-In . SVG Version: 6.00 Build 0)  -->
<svg version="1.1" id="Layer_1" xmlns="http://www.w3.org/2000/svg" xmlns:xlink="http://www.w3.org/1999/xlink" x="0px" y="0px"
	 viewBox="0 0 1000 368.53" style="enable-background:new 0 0 1000 368.53;" xml:space="preserve">
<style type="text/css">
	.st0{fill:#ED5A36;}
	.st1{fill:#203232;}
	.st2{fill:none;stroke:#000000;stroke-miterlimit:10;}
	.st3{fill:#DFDFDF;stroke:#000000;stroke-width:0.5;stroke-miterlimit:10;}
	.st4{stroke:#000000;stroke-width:0.5;stroke-miterlimit:10;}
	.st5{fill:#DFDFDF;}
	.st6{fill:#F47E20;}
	.st7{fill:#E6E7E8;}
	.st8{fill:#FFFFFF;}
	.st9{fill:#FFFFFF;stroke:#231F20;stroke-miterlimit:10;}
</style>
<rect x="125.2" y="331.16" class="st0" width="372.18" height="26.45"/>
<g>
	<path class="st0" d="M20.55,142.94c-0.65,1.05-1.13,2.32-1.13,3.77c0,1.49,0.59,2.55,1.6,2.55c0.98,0,1.27-1.15,1.54-2.75
		l0.12-0.75c0.39-2.38,1.41-4.24,3.73-4.24c2.94,0,4.33,2.59,4.33,5.45c0,2.02-0.59,4.18-1.74,5.61l-2.14-1.38
		c0.77-0.96,1.44-2.53,1.44-4.24c0-1.47-0.58-2.61-1.61-2.61c-0.92,0-1.26,0.97-1.56,2.82L25,148.02c-0.37,2.35-1.41,4.06-3.81,4.06
		c-2.78,0-4.22-2.47-4.22-5.3c0-1.86,0.42-3.41,1.42-5.09L20.55,142.94z"/>
	<path class="st0" d="M25.9,129.84c2.78,0,4.85,2.12,4.85,4.99c0,2.86-2.07,4.97-4.85,4.97c-2.78,0-4.85-2.11-4.85-4.97
		C21.05,131.96,23.12,129.84,25.9,129.84z M25.9,137.27c1.49,0,2.54-1.05,2.54-2.44s-1.05-2.45-2.54-2.45s-2.54,1.06-2.54,2.45
		S24.4,137.27,25.9,137.27z"/>
	<path class="st0" d="M24.64,112.9h5.87v2.47h-5.07c-1.33,0-2.06,0.67-2.06,1.8c0,1.06,0.69,1.95,2.08,1.95h5.05v2.48h-5.07
		c-1.33,0-2.06,0.67-2.06,1.8c0,1.06,0.69,1.95,2.08,1.95h5.05v2.48h-9.21v-2.41h1.08c-0.98-0.66-1.33-1.66-1.33-2.71
		c0-1.33,0.6-2.42,1.58-3.04c-1.17-0.71-1.58-1.92-1.58-3.13C21.05,114.36,22.5,112.9,24.64,112.9z"/>
	<path class="st0" d="M24.64,95.45h5.87v2.47h-5.07c-1.33,0-2.06,0.67-2.06,1.8c0,1.06,0.69,1.95,2.08,1.95h5.05v2.48h-5.07
		c-1.33,0-2.06,0.67-2.06,1.8c0,1.06,0.69,1.95,2.08,1.95h5.05v2.48h-9.21v-2.41h1.08c-0.98-0.66-1.33-1.66-1.33-2.71
		c0-1.33,0.6-2.42,1.58-3.04c-1.17-0.71-1.58-1.92-1.58-3.13C21.05,96.92,22.5,95.45,24.64,95.45z"/>
	<path class="st0" d="M25.89,84.37c0.29,0,0.63,0.02,0.84,0.05v6.53c1.33-0.27,1.91-1.2,1.91-2.37c0-0.8-0.32-1.66-0.88-2.33
		l1.6-1.45c0.96,1.05,1.4,2.38,1.4,3.93c0,2.82-1.92,4.78-4.82,4.78s-4.88-1.9-4.88-4.66C21.05,86.2,23.01,84.38,25.89,84.37z
		 M25.03,90.94v-4.08c-1.18,0.23-1.84,0.94-1.84,2.01C23.19,90.04,23.89,90.72,25.03,90.94z"/>
	<path class="st0" d="M23.5,75.77v3.34h3.37c1.15,0,1.57-0.61,1.57-1.38c0-0.59-0.29-1.23-0.6-1.73l1.94-0.91
		c0.55,0.81,0.97,1.74,0.97,3.05c0,2.28-1.29,3.45-3.68,3.45H23.5v1.78h-2.21v-1.78h-2.74V79.1h2.74v-3.34H23.5z"/>
	<path class="st0" d="M22.26,62.29h-5.44v-2.47h13.69v2.42h-1.02c0.74,0.6,1.25,1.49,1.25,2.76c0,2.54-2.08,4.46-4.85,4.46
		s-4.85-1.92-4.85-4.46C21.05,63.76,21.53,62.89,22.26,62.29z M25.9,66.92c1.41,0,2.54-0.92,2.54-2.38c0-1.42-1.08-2.38-2.54-2.38
		c-1.46,0-2.54,0.96-2.54,2.38C23.36,65.99,24.49,66.92,25.9,66.92z"/>
	<path class="st0" d="M26.58,48.58c2.91,0,4.16,2.05,4.16,4.35c0,2.31-1.25,4.36-4.16,4.36h-5.29v-2.48h5.07
		c1.47,0,2.07-0.81,2.07-1.88c0-1.06-0.6-1.88-2.07-1.88h-5.07v-2.47H26.58z"/>
	<path class="st0" d="M30.51,34.45v3.22l-13.31,5v-2.82l10.62-3.81L17.2,32.21v-2.76L30.51,34.45z"/>
	<path class="st0" d="M30.51,25.1v2.65H17.2V25.1H30.51z"/>
	<path class="st0" d="M23.75,15.55l6.76-4.55v3.11l-4.74,3.06l4.74,3.07v3.06l-6.76-4.54l-6.55,4.42v-3.12l4.56-2.93l-4.56-2.95
		v-3.06L23.75,15.55z"/>
</g>
<g>
	<path class="st1" d="M23.06,290.02l1.4,2.28c-1.15,0.75-1.83,1.96-1.83,3.44c0,2.41,1.77,4.2,4.35,4.2
		c2.67-0.01,4.35-1.85,4.35-4.2c0-1.47-0.67-2.67-1.83-3.47l1.56-2.17c1.73,1.18,2.81,3.18,2.81,5.62c0,4.1-2.9,6.99-6.9,6.99
		s-6.9-2.89-6.9-6.99C20.08,293.27,21.2,291.1,23.06,290.02z"/>
	<path class="st1" d="M24.38,281.64l2.46,0.37c-0.18,0.41-0.29,1-0.29,1.5c0,1.15,0.7,1.94,2.07,1.94h5.02v2.48h-9.21v-2.4h1.01
		c-0.87-0.58-1.25-1.46-1.25-2.6C24.18,282.4,24.25,281.98,24.38,281.64z"/>
	<path class="st1" d="M29.01,271.7c0.29,0,0.63,0.02,0.84,0.05v6.53c1.33-0.27,1.91-1.2,1.91-2.37c0-0.8-0.32-1.66-0.88-2.33
		l1.6-1.45c0.96,1.04,1.4,2.38,1.4,3.93c0,2.82-1.92,4.78-4.82,4.78s-4.88-1.9-4.88-4.66C24.18,273.53,26.14,271.71,29.01,271.7z
		 M28.16,278.27v-4.08c-1.18,0.23-1.84,0.94-1.84,2.01C26.32,277.37,27.02,278.05,28.16,278.27z"/>
	<path class="st1" d="M29.71,261.04c2.91,0,4.16,2.05,4.16,4.35c0,2.31-1.25,4.36-4.16,4.36h-5.29v-2.48h5.07
		c1.47,0,2.07-0.81,2.07-1.88c0-1.06-0.6-1.88-2.07-1.88h-5.07v-2.47H29.71z"/>
	<path class="st1" d="M28.95,253.03l4.69-3.36v2.95l-2.93,2.07l2.93,2.03v2.87l-4.68-3.38l-4.54,3.3v-2.95l2.86-1.99l-2.86-1.98
		v-2.87L28.95,253.03z"/>
	<path class="st1" d="M25.38,236.82h-5.44v-2.47h13.69v2.42h-1.02c0.74,0.6,1.25,1.49,1.25,2.76c0,2.54-2.08,4.46-4.85,4.46
		s-4.85-1.92-4.85-4.46C24.18,238.29,24.66,237.42,25.38,236.82z M29.02,241.45c1.41,0,2.54-0.92,2.54-2.38
		c0-1.42-1.08-2.38-2.54-2.38c-1.46,0-2.54,0.96-2.54,2.38C26.49,240.53,27.62,241.45,29.02,241.45z"/>
	<path class="st1" d="M29.71,223.11c2.91,0,4.16,2.05,4.16,4.35c0,2.31-1.25,4.36-4.16,4.36h-5.29v-2.48h5.07
		c1.47,0,2.07-0.81,2.07-1.88c0-1.06-0.6-1.88-2.07-1.88h-5.07v-2.47H29.71z"/>
	<path class="st1" d="M33.64,208.98v3.22l-13.31,5v-2.82l10.62-3.81l-10.62-3.83v-2.76L33.64,208.98z"/>
	<path class="st1" d="M33.64,199.63v2.65H20.33v-2.65H33.64z"/>
	<path class="st1" d="M26.88,190.08l6.76-4.55v3.11l-4.74,3.06l4.74,3.07v3.06l-6.76-4.54l-6.55,4.42v-3.12l4.56-2.93l-4.56-2.95
		v-3.06L26.88,190.08z"/>
</g>
<g>
	<path d="M874.13,314.07c0.49-0.64,1.42-1.57,3.11-1.57c1.9,0,3.09,1.2,3.09,2.94c0,1.11-0.57,1.89-1.31,2.66l-1.94,2.02h3.48v1.64
		h-6.01v-1.37l3.22-3.3c0.48-0.49,0.75-0.99,0.75-1.56c0-0.79-0.55-1.36-1.39-1.36c-0.87,0-1.38,0.47-1.85,1L874.13,314.07z"/>
	<path d="M887.68,315.12c0,0.96-0.51,1.67-1.36,2.07c0.96,0.38,1.56,1.11,1.56,2.09c0,1.79-1.63,2.66-3.35,2.66
		c-1.37,0-2.49-0.49-3.18-1.32l1.05-1.15c0.53,0.55,1.29,0.87,2.07,0.87c0.88,0,1.59-0.38,1.59-1.18c0-0.78-0.8-1.19-1.78-1.19
		h-1.06v-1.56h1.07c0.88,0,1.59-0.39,1.59-1.16c0-0.73-0.66-1.14-1.51-1.14c-0.85,0-1.47,0.44-1.84,0.92l-1.11-1.11
		c0.6-0.81,1.59-1.41,3.04-1.41C886.38,312.51,887.68,313.55,887.68,315.12z"/>
	<path d="M893.01,319.05h-3.84v-1.48h3.84V319.05z"/>
	<path d="M897.61,321.77h-1.75V315l-2.18,0.88v-1.77l3.93-1.59V321.77z"/>
	<path d="M907.2,317.22c0,2.94-1.76,4.71-3.93,4.71c-2.18,0-3.92-1.77-3.92-4.71c0-2.95,1.74-4.71,3.92-4.71
		C905.44,312.51,907.2,314.27,907.2,317.22z M901.18,317.22c0,1.99,0.93,3.03,2.09,3.03c1.17,0,2.09-1.04,2.09-3.03
		c0-1.99-0.92-3.03-2.09-3.03C902.11,314.19,901.18,315.23,901.18,317.22z"/>
	<path d="M912.42,319.05h-3.84v-1.48h3.84V319.05z"/>
	<path d="M913.12,314.07c0.49-0.64,1.42-1.57,3.11-1.57c1.9,0,3.09,1.2,3.09,2.94c0,1.11-0.57,1.89-1.31,2.66l-1.94,2.02h3.48v1.64
		h-6.01v-1.37l3.22-3.3c0.48-0.49,0.75-0.99,0.75-1.56c0-0.79-0.55-1.36-1.39-1.36c-0.87,0-1.38,0.47-1.85,1L913.12,314.07z"/>
	<path d="M928.52,317.22c0,2.94-1.76,4.71-3.93,4.71c-2.18,0-3.92-1.77-3.92-4.71c0-2.95,1.74-4.71,3.92-4.71
		C926.77,312.51,928.52,314.27,928.52,317.22z M922.5,317.22c0,1.99,0.93,3.03,2.09,3.03c1.17,0,2.09-1.04,2.09-3.03
		c0-1.99-0.92-3.03-2.09-3.03C923.43,314.19,922.5,315.23,922.5,317.22z"/>
	<path d="M937.7,317.22c0,2.94-1.75,4.71-3.93,4.71c-2.18,0-3.92-1.77-3.92-4.71c0-2.95,1.74-4.71,3.92-4.71
		C935.95,312.51,937.7,314.27,937.7,317.22z M931.68,317.22c0,1.99,0.93,3.03,2.09,3.03c1.17,0,2.09-1.04,2.09-3.03
		c0-1.99-0.92-3.03-2.09-3.03C932.61,314.19,931.68,315.23,931.68,317.22z"/>
	<path d="M945.82,315.12c0,1.05-0.6,1.7-1.39,2.06c0.9,0.35,1.61,1,1.61,2.11c0,1.66-1.6,2.64-3.56,2.64
		c-1.96,0-3.56-0.98-3.56-2.64c0-1.11,0.71-1.76,1.61-2.11c-0.79-0.36-1.38-1.01-1.38-2.06c0-1.64,1.5-2.61,3.33-2.61
		C944.33,312.51,945.82,313.48,945.82,315.12z M940.83,319.14c0,0.8,0.75,1.22,1.66,1.22c0.9,0,1.66-0.42,1.66-1.22
		c0-0.81-0.76-1.25-1.66-1.25C941.58,317.89,940.83,318.33,940.83,319.14z M941.02,315.25c0,0.78,0.66,1.2,1.47,1.2
		s1.47-0.42,1.47-1.2c0-0.75-0.66-1.16-1.47-1.16S941.02,314.5,941.02,315.25z"/>
</g>
<g>
	<path d="M786.17,314.07c0.49-0.64,1.42-1.57,3.11-1.57c1.9,0,3.09,1.2,3.09,2.94c0,1.11-0.57,1.89-1.31,2.66l-1.94,2.02h3.48v1.64
		h-6.01v-1.37l3.22-3.3c0.48-0.49,0.75-0.99,0.75-1.56c0-0.79-0.55-1.36-1.39-1.36c-0.87,0-1.38,0.47-1.85,1L786.17,314.07z"/>
	<path d="M797.34,321.77h-1.75V315l-2.18,0.88v-1.77l3.93-1.59V321.77z"/>
	<path d="M802.97,319.05h-3.84v-1.48h3.84V319.05z"/>
	<path d="M807.58,321.77h-1.75V315l-2.18,0.88v-1.77l3.93-1.59V321.77z"/>
	<path d="M812.91,321.77h-1.75V315l-2.18,0.88v-1.77l3.93-1.59V321.77z"/>
	<path d="M818.54,319.05h-3.84v-1.48h3.84V319.05z"/>
	<path d="M819.24,314.07c0.49-0.64,1.42-1.57,3.11-1.57c1.9,0,3.09,1.2,3.09,2.94c0,1.11-0.57,1.89-1.31,2.66l-1.94,2.02h3.48v1.64
		h-6.01v-1.37l3.22-3.3c0.48-0.49,0.75-0.99,0.75-1.56c0-0.79-0.55-1.36-1.39-1.36c-0.87,0-1.38,0.47-1.85,1L819.24,314.07z"/>
	<path d="M834.64,317.22c0,2.94-1.76,4.71-3.93,4.71c-2.18,0-3.92-1.77-3.92-4.71c0-2.95,1.74-4.71,3.92-4.71
		C832.89,312.51,834.64,314.27,834.64,317.22z M828.62,317.22c0,1.99,0.93,3.03,2.09,3.03c1.17,0,2.09-1.04,2.09-3.03
		c0-1.99-0.92-3.03-2.09-3.03C829.55,314.19,828.62,315.23,828.62,317.22z"/>
	<path d="M843.82,317.22c0,2.94-1.76,4.71-3.93,4.71c-2.18,0-3.92-1.77-3.92-4.71c0-2.95,1.74-4.71,3.92-4.71
		C842.06,312.51,843.82,314.27,843.82,317.22z M837.8,317.22c0,1.99,0.93,3.03,2.09,3.03c1.17,0,2.09-1.04,2.09-3.03
		c0-1.99-0.92-3.03-2.09-3.03C838.73,314.19,837.8,315.23,837.8,317.22z"/>
	<path d="M851.94,315.12c0,1.05-0.6,1.7-1.39,2.06c0.9,0.35,1.61,1,1.61,2.11c0,1.66-1.6,2.64-3.56,2.64
		c-1.96,0-3.56-0.98-3.56-2.64c0-1.11,0.71-1.76,1.61-2.11c-0.79-0.36-1.38-1.01-1.38-2.06c0-1.64,1.5-2.61,3.33-2.61
		C850.45,312.51,851.94,313.48,851.94,315.12z M846.95,319.14c0,0.8,0.75,1.22,1.66,1.22c0.9,0,1.66-0.42,1.66-1.22
		c0-0.81-0.76-1.25-1.66-1.25C847.7,317.89,846.95,318.33,846.95,319.14z M847.14,315.25c0,0.78,0.66,1.2,1.47,1.2
		s1.47-0.42,1.47-1.2c0-0.75-0.66-1.16-1.47-1.16S847.14,314.5,847.14,315.25z"/>
</g>
<g>
	<path d="M697.92,321.77h-1.75V315l-2.18,0.88v-1.77l3.93-1.59V321.77z"/>
	<path d="M702.65,315.83c0.12-0.01,0.27-0.03,0.42-0.03c1.85,0,3.15,1.32,3.15,3.02c0,1.78-1.47,3.1-3.43,3.1
		c-1.94,0-3.41-1.31-3.41-3.07c0-0.83,0.31-1.59,0.86-2.42l2.52-3.78h2.12L702.65,315.83z M701.22,318.84c0,0.88,0.68,1.5,1.59,1.5
		c0.92,0,1.6-0.61,1.6-1.5c0-0.88-0.68-1.5-1.6-1.5C701.9,317.35,701.22,317.97,701.22,318.84z"/>
	<path d="M711.24,319.05h-3.84v-1.48h3.84V319.05z"/>
	<path d="M715.84,321.77h-1.75V315l-2.18,0.88v-1.77l3.93-1.59V321.77z"/>
	<path d="M725.42,317.22c0,2.94-1.75,4.71-3.93,4.71c-2.18,0-3.92-1.77-3.92-4.71c0-2.95,1.74-4.71,3.92-4.71
		C723.67,312.51,725.42,314.27,725.42,317.22z M719.4,317.22c0,1.99,0.93,3.03,2.09,3.03c1.17,0,2.09-1.04,2.09-3.03
		c0-1.99-0.92-3.03-2.09-3.03C720.33,314.19,719.4,315.23,719.4,317.22z"/>
	<path d="M730.65,319.05h-3.84v-1.48h3.84V319.05z"/>
	<path d="M731.35,314.07c0.49-0.64,1.42-1.57,3.11-1.57c1.9,0,3.09,1.2,3.09,2.94c0,1.11-0.57,1.89-1.31,2.66l-1.94,2.02h3.48v1.64
		h-6.01v-1.37l3.22-3.3c0.48-0.49,0.75-0.99,0.75-1.56c0-0.79-0.55-1.36-1.39-1.36c-0.87,0-1.38,0.47-1.85,1L731.35,314.07z"/>
	<path d="M746.75,317.22c0,2.94-1.75,4.71-3.93,4.71c-2.18,0-3.92-1.77-3.92-4.71c0-2.95,1.74-4.71,3.92-4.71
		C744.99,312.51,746.75,314.27,746.75,317.22z M740.73,317.22c0,1.99,0.93,3.03,2.09,3.03c1.17,0,2.09-1.04,2.09-3.03
		c0-1.99-0.92-3.03-2.09-3.03C741.66,314.19,740.73,315.23,740.73,317.22z"/>
	<path d="M755.93,317.22c0,2.94-1.75,4.71-3.93,4.71c-2.18,0-3.92-1.77-3.92-4.71c0-2.95,1.74-4.71,3.92-4.71
		C754.17,312.51,755.93,314.27,755.93,317.22z M749.91,317.22c0,1.99,0.93,3.03,2.09,3.03c1.17,0,2.09-1.04,2.09-3.03
		c0-1.99-0.92-3.03-2.09-3.03C750.84,314.19,749.91,315.23,749.91,317.22z"/>
	<path d="M764.05,315.12c0,1.05-0.6,1.7-1.39,2.06c0.9,0.35,1.61,1,1.61,2.11c0,1.66-1.6,2.64-3.56,2.64
		c-1.96,0-3.56-0.98-3.56-2.64c0-1.11,0.71-1.76,1.61-2.11c-0.79-0.36-1.38-1.01-1.38-2.06c0-1.64,1.5-2.61,3.33-2.61
		C762.56,312.51,764.05,313.48,764.05,315.12z M759.05,319.14c0,0.8,0.75,1.22,1.66,1.22c0.9,0,1.66-0.42,1.66-1.22
		c0-0.81-0.76-1.25-1.66-1.25C759.81,317.89,759.05,318.33,759.05,319.14z M759.25,315.25c0,0.78,0.66,1.2,1.47,1.2
		s1.47-0.42,1.47-1.2c0-0.75-0.66-1.16-1.47-1.16S759.25,314.5,759.25,315.25z"/>
</g>
<g>
	<path d="M602.29,314.07c0.49-0.64,1.42-1.57,3.11-1.57c1.9,0,3.09,1.2,3.09,2.94c0,1.11-0.57,1.89-1.31,2.66l-1.94,2.02h3.48v1.64
		h-6.01v-1.37l3.22-3.3c0.48-0.49,0.75-0.99,0.75-1.56c0-0.79-0.55-1.36-1.39-1.36c-0.87,0-1.38,0.47-1.85,1L602.29,314.07z"/>
	<path d="M617.69,317.22c0,2.94-1.76,4.71-3.93,4.71c-2.18,0-3.92-1.77-3.92-4.71c0-2.95,1.74-4.71,3.92-4.71
		C615.93,312.51,617.69,314.27,617.69,317.22z M611.67,317.22c0,1.99,0.93,3.03,2.09,3.03c1.17,0,2.09-1.04,2.09-3.03
		c0-1.99-0.92-3.03-2.09-3.03C612.6,314.19,611.67,315.23,611.67,317.22z"/>
	<path d="M622.92,319.05h-3.84v-1.48h3.84V319.05z"/>
	<path d="M627.52,321.77h-1.75V315l-2.18,0.88v-1.77l3.93-1.59V321.77z"/>
	<path d="M632.85,321.77h-1.75V315l-2.18,0.88v-1.77l3.93-1.59V321.77z"/>
	<path d="M638.48,319.05h-3.84v-1.48h3.84V319.05z"/>
	<path d="M639.18,314.07c0.49-0.64,1.42-1.57,3.11-1.57c1.9,0,3.09,1.2,3.09,2.94c0,1.11-0.57,1.89-1.31,2.66l-1.94,2.02h3.48v1.64
		h-6.01v-1.37l3.22-3.3c0.48-0.49,0.75-0.99,0.75-1.56c0-0.79-0.55-1.36-1.39-1.36c-0.87,0-1.38,0.47-1.85,1L639.18,314.07z"/>
	<path d="M654.58,317.22c0,2.94-1.75,4.71-3.93,4.71c-2.18,0-3.92-1.77-3.92-4.71c0-2.95,1.74-4.71,3.92-4.71
		C652.83,312.51,654.58,314.27,654.58,317.22z M648.56,317.22c0,1.99,0.93,3.03,2.09,3.03c1.17,0,2.09-1.04,2.09-3.03
		c0-1.99-0.92-3.03-2.09-3.03C649.49,314.19,648.56,315.23,648.56,317.22z"/>
	<path d="M663.76,317.22c0,2.94-1.75,4.71-3.93,4.71c-2.18,0-3.92-1.77-3.92-4.71c0-2.95,1.74-4.71,3.92-4.71
		C662.01,312.51,663.76,314.27,663.76,317.22z M657.74,317.22c0,1.99,0.93,3.03,2.09,3.03c1.17,0,2.09-1.04,2.09-3.03
		c0-1.99-0.92-3.03-2.09-3.03C658.67,314.19,657.74,315.23,657.74,317.22z"/>
	<path d="M671.89,315.12c0,1.05-0.6,1.7-1.39,2.06c0.9,0.35,1.61,1,1.61,2.11c0,1.66-1.6,2.64-3.56,2.64
		c-1.96,0-3.56-0.98-3.56-2.64c0-1.11,0.71-1.76,1.61-2.11c-0.79-0.36-1.38-1.01-1.38-2.06c0-1.64,1.5-2.61,3.33-2.61
		C670.39,312.51,671.89,313.48,671.89,315.12z M666.89,319.14c0,0.8,0.75,1.22,1.66,1.22c0.9,0,1.66-0.42,1.66-1.22
		c0-0.81-0.76-1.25-1.66-1.25C667.64,317.89,666.89,318.33,666.89,319.14z M667.08,315.25c0,0.78,0.66,1.2,1.47,1.2
		s1.47-0.42,1.47-1.2c0-0.75-0.66-1.16-1.47-1.16S667.08,314.5,667.08,315.25z"/>
</g>
<g>
	<path d="M509.66,314.07c0.49-0.64,1.42-1.57,3.11-1.57c1.9,0,3.09,1.2,3.09,2.94c0,1.11-0.57,1.89-1.31,2.66l-1.94,2.02h3.48v1.64
		h-6.01v-1.37l3.22-3.3c0.48-0.49,0.75-0.99,0.75-1.56c0-0.79-0.55-1.36-1.39-1.36c-0.87,0-1.38,0.47-1.85,1L509.66,314.07z"/>
	<path d="M523.37,314.04l-3.77,7.73h-2.07l3.74-7.46h-4.32v-1.64h6.42V314.04z"/>
	<path d="M527.55,319.05h-3.84v-1.48h3.84V319.05z"/>
	<path d="M532.15,321.77h-1.75V315l-2.18,0.88v-1.77l3.93-1.59V321.77z"/>
	<path d="M541.73,317.22c0,2.94-1.75,4.71-3.93,4.71c-2.18,0-3.92-1.77-3.92-4.71c0-2.95,1.74-4.71,3.92-4.71
		C539.97,312.51,541.73,314.27,541.73,317.22z M535.71,317.22c0,1.99,0.93,3.03,2.09,3.03c1.17,0,2.09-1.04,2.09-3.03
		c0-1.99-0.92-3.03-2.09-3.03C536.64,314.19,535.71,315.23,535.71,317.22z"/>
	<path d="M546.95,319.05h-3.84v-1.48h3.84V319.05z"/>
	<path d="M547.66,314.07c0.49-0.64,1.42-1.57,3.11-1.57c1.9,0,3.09,1.2,3.09,2.94c0,1.11-0.57,1.89-1.31,2.66l-1.94,2.02h3.48v1.64
		h-6.01v-1.37l3.22-3.3c0.48-0.49,0.75-0.99,0.75-1.56c0-0.79-0.55-1.36-1.39-1.36c-0.87,0-1.38,0.47-1.85,1L547.66,314.07z"/>
	<path d="M563.05,317.22c0,2.94-1.75,4.71-3.93,4.71c-2.18,0-3.92-1.77-3.92-4.71c0-2.95,1.74-4.71,3.92-4.71
		C561.3,312.51,563.05,314.27,563.05,317.22z M557.03,317.22c0,1.99,0.93,3.03,2.09,3.03c1.17,0,2.09-1.04,2.09-3.03
		c0-1.99-0.92-3.03-2.09-3.03C557.96,314.19,557.03,315.23,557.03,317.22z"/>
	<path d="M572.23,317.22c0,2.94-1.76,4.71-3.93,4.71c-2.18,0-3.92-1.77-3.92-4.71c0-2.95,1.74-4.71,3.92-4.71
		C570.48,312.51,572.23,314.27,572.23,317.22z M566.21,317.22c0,1.99,0.93,3.03,2.09,3.03c1.17,0,2.09-1.04,2.09-3.03
		c0-1.99-0.92-3.03-2.09-3.03C567.14,314.19,566.21,315.23,566.21,317.22z"/>
	<path d="M580.36,315.12c0,1.05-0.6,1.7-1.39,2.06c0.9,0.35,1.61,1,1.61,2.11c0,1.66-1.6,2.64-3.56,2.64
		c-1.96,0-3.56-0.98-3.56-2.64c0-1.11,0.71-1.76,1.61-2.11c-0.79-0.36-1.38-1.01-1.38-2.06c0-1.64,1.5-2.61,3.33-2.61
		C578.86,312.51,580.36,313.48,580.36,315.12z M575.36,319.14c0,0.8,0.75,1.22,1.66,1.22c0.9,0,1.66-0.42,1.66-1.22
		c0-0.81-0.76-1.25-1.66-1.25C576.11,317.89,575.36,318.33,575.36,319.14z M575.55,315.25c0,0.78,0.66,1.2,1.47,1.2
		s1.47-0.42,1.47-1.2c0-0.75-0.66-1.16-1.47-1.16S575.55,314.5,575.55,315.25z"/>
</g>
<g>
	<path d="M420.11,321.77h-1.75V315l-2.18,0.88v-1.77l3.93-1.59V321.77z"/>
	<path d="M424.84,315.83c0.12-0.01,0.27-0.03,0.42-0.03c1.85,0,3.15,1.32,3.15,3.02c0,1.78-1.47,3.1-3.43,3.1
		c-1.94,0-3.41-1.31-3.41-3.07c0-0.83,0.31-1.59,0.86-2.42l2.52-3.78h2.12L424.84,315.83z M423.4,318.84c0,0.88,0.68,1.5,1.59,1.5
		c0.92,0,1.6-0.61,1.6-1.5c0-0.88-0.68-1.5-1.6-1.5C424.08,317.35,423.4,317.97,423.4,318.84z"/>
	<path d="M433.42,319.05h-3.84v-1.48h3.84V319.05z"/>
	<path d="M442.66,317.22c0,2.94-1.75,4.71-3.93,4.71c-2.18,0-3.92-1.77-3.92-4.71c0-2.95,1.74-4.71,3.92-4.71
		C440.91,312.51,442.66,314.27,442.66,317.22z M436.64,317.22c0,1.99,0.93,3.03,2.09,3.03c1.17,0,2.09-1.04,2.09-3.03
		c0-1.99-0.92-3.03-2.09-3.03C437.57,314.19,436.64,315.23,436.64,317.22z"/>
	<path d="M449.8,315.12c0,0.96-0.51,1.67-1.36,2.07c0.96,0.38,1.56,1.11,1.56,2.09c0,1.79-1.63,2.66-3.35,2.66
		c-1.37,0-2.49-0.49-3.18-1.32l1.05-1.15c0.53,0.55,1.29,0.87,2.07,0.87c0.88,0,1.59-0.38,1.59-1.18c0-0.78-0.8-1.19-1.78-1.19
		h-1.06v-1.56h1.07c0.88,0,1.59-0.39,1.59-1.16c0-0.73-0.66-1.14-1.51-1.14c-0.84,0-1.47,0.44-1.84,0.92l-1.1-1.11
		c0.6-0.81,1.59-1.41,3.04-1.41C448.49,312.51,449.8,313.55,449.8,315.12z"/>
	<path d="M455.13,319.05h-3.84v-1.48h3.84V319.05z"/>
	<path d="M455.83,314.07c0.49-0.64,1.42-1.57,3.11-1.57c1.9,0,3.09,1.2,3.09,2.94c0,1.11-0.57,1.89-1.31,2.66l-1.94,2.02h3.48v1.64
		h-6.01v-1.37l3.22-3.3c0.48-0.49,0.75-0.99,0.75-1.56c0-0.79-0.55-1.36-1.39-1.36c-0.86,0-1.38,0.47-1.85,1L455.83,314.07z"/>
	<path d="M471.23,317.22c0,2.94-1.75,4.71-3.93,4.71c-2.18,0-3.92-1.77-3.92-4.71c0-2.95,1.74-4.71,3.92-4.71
		C469.47,312.51,471.23,314.27,471.23,317.22z M465.21,317.22c0,1.99,0.93,3.03,2.09,3.03c1.17,0,2.09-1.04,2.09-3.03
		c0-1.99-0.92-3.03-2.09-3.03C466.14,314.19,465.21,315.23,465.21,317.22z"/>
	<path d="M472.14,314.07c0.49-0.64,1.42-1.57,3.11-1.57c1.9,0,3.09,1.2,3.09,2.94c0,1.11-0.57,1.89-1.31,2.66l-1.94,2.02h3.48v1.64
		h-6.01v-1.37l3.22-3.3c0.48-0.49,0.75-0.99,0.75-1.56c0-0.79-0.55-1.36-1.39-1.36c-0.86,0-1.38,0.47-1.85,1L472.14,314.07z"/>
	<path d="M487.54,317.22c0,2.94-1.75,4.71-3.93,4.71c-2.18,0-3.92-1.77-3.92-4.71c0-2.95,1.74-4.71,3.92-4.71
		C485.79,312.51,487.54,314.27,487.54,317.22z M481.52,317.22c0,1.99,0.93,3.03,2.09,3.03c1.17,0,2.09-1.04,2.09-3.03
		c0-1.99-0.92-3.03-2.09-3.03C482.45,314.19,481.52,315.23,481.52,317.22z"/>
</g>
<g>
	<path d="M326.65,321.77h-1.75V315l-2.18,0.88v-1.77l3.93-1.59V321.77z"/>
	<path d="M331.7,318.6c-0.12,0.02-0.25,0.03-0.41,0.03c-1.85,0-3.15-1.32-3.15-3.02c0-1.78,1.46-3.1,3.42-3.1
		c1.94,0,3.42,1.31,3.42,3.07c0,0.83-0.31,1.59-0.86,2.42l-2.52,3.78h-2.12L331.7,318.6z M333.15,315.59c0-0.88-0.68-1.5-1.59-1.5
		c-0.92,0-1.59,0.61-1.59,1.5c0,0.88,0.68,1.5,1.59,1.5C332.47,317.09,333.15,316.47,333.15,315.59z"/>
	<path d="M339.82,319.05h-3.84v-1.48h3.84V319.05z"/>
	<path d="M349.05,317.22c0,2.94-1.75,4.71-3.93,4.71c-2.18,0-3.92-1.77-3.92-4.71c0-2.95,1.74-4.71,3.92-4.71
		C347.3,312.51,349.05,314.27,349.05,317.22z M343.03,317.22c0,1.99,0.93,3.03,2.09,3.03c1.17,0,2.09-1.04,2.09-3.03
		c0-1.99-0.92-3.03-2.09-3.03C343.96,314.19,343.03,315.23,343.03,317.22z"/>
	<path d="M356.19,315.12c0,0.96-0.51,1.67-1.36,2.07c0.96,0.38,1.56,1.11,1.56,2.09c0,1.79-1.63,2.66-3.35,2.66
		c-1.37,0-2.49-0.49-3.18-1.32l1.05-1.15c0.53,0.55,1.29,0.87,2.07,0.87c0.88,0,1.59-0.38,1.59-1.18c0-0.78-0.8-1.19-1.78-1.19
		h-1.06v-1.56h1.07c0.88,0,1.59-0.39,1.59-1.16c0-0.73-0.66-1.14-1.51-1.14c-0.84,0-1.47,0.44-1.84,0.92l-1.11-1.11
		c0.6-0.81,1.59-1.41,3.04-1.41C354.88,312.51,356.19,313.55,356.19,315.12z"/>
	<path d="M361.52,319.05h-3.84v-1.48h3.84V319.05z"/>
	<path d="M362.22,314.07c0.49-0.64,1.42-1.57,3.11-1.57c1.91,0,3.09,1.2,3.09,2.94c0,1.11-0.57,1.89-1.31,2.66l-1.94,2.02h3.48v1.64
		h-6.01v-1.37l3.22-3.3c0.48-0.49,0.75-0.99,0.75-1.56c0-0.79-0.55-1.36-1.39-1.36c-0.86,0-1.38,0.47-1.85,1L362.22,314.07z"/>
	<path d="M377.62,317.22c0,2.94-1.75,4.71-3.93,4.71c-2.18,0-3.92-1.77-3.92-4.71c0-2.95,1.74-4.71,3.92-4.71
		C375.87,312.51,377.62,314.27,377.62,317.22z M371.6,317.22c0,1.99,0.93,3.03,2.09,3.03c1.17,0,2.09-1.04,2.09-3.03
		c0-1.99-0.92-3.03-2.09-3.03C372.53,314.19,371.6,315.23,371.6,317.22z"/>
	<path d="M378.54,314.07c0.49-0.64,1.42-1.57,3.11-1.57c1.9,0,3.09,1.2,3.09,2.94c0,1.11-0.57,1.89-1.31,2.66l-1.94,2.02h3.48v1.64
		h-6.01v-1.37l3.22-3.3c0.48-0.49,0.75-0.99,0.75-1.56c0-0.79-0.55-1.36-1.39-1.36c-0.86,0-1.38,0.47-1.85,1L378.54,314.07z"/>
	<path d="M393.93,317.22c0,2.94-1.75,4.71-3.93,4.71c-2.18,0-3.92-1.77-3.92-4.71c0-2.95,1.74-4.71,3.92-4.71
		C392.18,312.51,393.93,314.27,393.93,317.22z M387.92,317.22c0,1.99,0.93,3.03,2.09,3.03c1.17,0,2.09-1.04,2.09-3.03
		c0-1.99-0.92-3.03-2.09-3.03C388.85,314.19,387.92,315.23,387.92,317.22z"/>
</g>
<g>
	<path d="M234.6,321.77h-1.75V315l-2.18,0.88v-1.77l3.93-1.59V321.77z"/>
	<path d="M242.49,314.04l-3.77,7.73h-2.07l3.74-7.46h-4.32v-1.64h6.42V314.04z"/>
	<path d="M246.67,319.05h-3.84v-1.48h3.84V319.05z"/>
	<path d="M255.91,317.22c0,2.94-1.75,4.71-3.93,4.71c-2.18,0-3.92-1.77-3.92-4.71c0-2.95,1.74-4.71,3.92-4.71
		C254.15,312.51,255.91,314.27,255.91,317.22z M249.89,317.22c0,1.99,0.93,3.03,2.09,3.03c1.17,0,2.09-1.04,2.09-3.03
		c0-1.99-0.92-3.03-2.09-3.03C250.82,314.19,249.89,315.23,249.89,317.22z"/>
	<path d="M263.04,315.12c0,0.96-0.51,1.67-1.36,2.07c0.96,0.38,1.56,1.11,1.56,2.09c0,1.79-1.63,2.66-3.35,2.66
		c-1.37,0-2.49-0.49-3.18-1.32l1.05-1.15c0.53,0.55,1.29,0.87,2.07,0.87c0.88,0,1.59-0.38,1.59-1.18c0-0.78-0.8-1.19-1.78-1.19
		h-1.06v-1.56h1.07c0.88,0,1.59-0.39,1.59-1.16c0-0.73-0.66-1.14-1.51-1.14c-0.84,0-1.47,0.44-1.84,0.92l-1.11-1.11
		c0.6-0.81,1.59-1.41,3.04-1.41C261.74,312.51,263.04,313.55,263.04,315.12z"/>
	<path d="M268.37,319.05h-3.84v-1.48h3.84V319.05z"/>
	<path d="M269.07,314.07c0.49-0.64,1.42-1.57,3.11-1.57c1.91,0,3.09,1.2,3.09,2.94c0,1.11-0.57,1.89-1.31,2.66l-1.94,2.02h3.48v1.64
		h-6.01v-1.37l3.22-3.3c0.48-0.49,0.75-0.99,0.75-1.56c0-0.79-0.55-1.36-1.39-1.36c-0.86,0-1.38,0.47-1.85,1L269.07,314.07z"/>
	<path d="M284.47,317.22c0,2.94-1.75,4.71-3.93,4.71c-2.18,0-3.92-1.77-3.92-4.71c0-2.95,1.74-4.71,3.92-4.71
		C282.72,312.51,284.47,314.27,284.47,317.22z M278.45,317.22c0,1.99,0.93,3.03,2.09,3.03c1.17,0,2.09-1.04,2.09-3.03
		c0-1.99-0.92-3.03-2.09-3.03C279.38,314.19,278.45,315.23,278.45,317.22z"/>
	<path d="M285.39,314.07c0.49-0.64,1.42-1.57,3.11-1.57c1.9,0,3.09,1.2,3.09,2.94c0,1.11-0.57,1.89-1.31,2.66l-1.94,2.02h3.48v1.64
		h-6.01v-1.37l3.22-3.3c0.48-0.49,0.75-0.99,0.75-1.56c0-0.79-0.55-1.36-1.39-1.36c-0.86,0-1.38,0.47-1.85,1L285.39,314.07z"/>
	<path d="M300.79,317.22c0,2.94-1.75,4.71-3.93,4.71c-2.18,0-3.92-1.77-3.92-4.71c0-2.95,1.74-4.71,3.92-4.71
		C299.03,312.51,300.79,314.27,300.79,317.22z M294.77,317.22c0,1.99,0.93,3.03,2.09,3.03c1.17,0,2.09-1.04,2.09-3.03
		c0-1.99-0.92-3.03-2.09-3.03C295.7,314.19,294.77,315.23,294.77,317.22z"/>
</g>
<g>
	<path d="M140.4,321.77h-1.75V315l-2.18,0.88v-1.77l3.93-1.59V321.77z"/>
	<path d="M148.93,315.12c0,1.05-0.6,1.7-1.39,2.06c0.9,0.35,1.61,1,1.61,2.11c0,1.66-1.6,2.64-3.56,2.64s-3.56-0.98-3.56-2.64
		c0-1.11,0.71-1.76,1.61-2.11c-0.79-0.36-1.38-1.01-1.38-2.06c0-1.64,1.49-2.61,3.33-2.61S148.93,313.48,148.93,315.12z
		 M143.93,319.14c0,0.8,0.75,1.22,1.66,1.22c0.9,0,1.66-0.42,1.66-1.22c0-0.81-0.76-1.25-1.66-1.25
		C144.68,317.89,143.93,318.33,143.93,319.14z M144.13,315.25c0,0.78,0.66,1.2,1.47,1.2s1.47-0.42,1.47-1.2
		c0-0.75-0.66-1.16-1.47-1.16S144.13,314.5,144.13,315.25z"/>
	<path d="M154.28,319.05h-3.84v-1.48h3.84V319.05z"/>
	<path d="M163.51,317.22c0,2.94-1.75,4.71-3.93,4.71c-2.18,0-3.92-1.77-3.92-4.71c0-2.95,1.74-4.71,3.92-4.71
		C161.76,312.51,163.51,314.27,163.51,317.22z M157.5,317.22c0,1.99,0.93,3.03,2.09,3.03c1.17,0,2.09-1.04,2.09-3.03
		c0-1.99-0.92-3.03-2.09-3.03C158.43,314.19,157.5,315.23,157.5,317.22z"/>
	<path d="M170.65,315.12c0,0.96-0.51,1.67-1.36,2.07c0.96,0.38,1.56,1.11,1.56,2.09c0,1.79-1.63,2.66-3.35,2.66
		c-1.37,0-2.49-0.49-3.18-1.32l1.05-1.15c0.53,0.55,1.29,0.87,2.07,0.87c0.88,0,1.59-0.38,1.59-1.18c0-0.78-0.8-1.19-1.78-1.19
		h-1.06v-1.56h1.07c0.88,0,1.59-0.39,1.59-1.16c0-0.73-0.66-1.14-1.51-1.14c-0.84,0-1.47,0.44-1.84,0.92l-1.1-1.11
		c0.6-0.81,1.59-1.41,3.04-1.41C169.35,312.51,170.65,313.55,170.65,315.12z"/>
	<path d="M175.98,319.05h-3.84v-1.48h3.84V319.05z"/>
	<path d="M176.68,314.07c0.49-0.64,1.42-1.57,3.11-1.57c1.91,0,3.09,1.2,3.09,2.94c0,1.11-0.57,1.89-1.31,2.66l-1.94,2.02h3.48v1.64
		h-6.01v-1.37l3.22-3.3c0.48-0.49,0.75-0.99,0.75-1.56c0-0.79-0.55-1.36-1.39-1.36c-0.86,0-1.38,0.47-1.85,1L176.68,314.07z"/>
	<path d="M192.08,317.22c0,2.94-1.76,4.71-3.93,4.71c-2.18,0-3.92-1.77-3.92-4.71c0-2.95,1.74-4.71,3.92-4.71
		C190.33,312.51,192.08,314.27,192.08,317.22z M186.06,317.22c0,1.99,0.93,3.03,2.09,3.03c1.17,0,2.09-1.04,2.09-3.03
		c0-1.99-0.92-3.03-2.09-3.03C186.99,314.19,186.06,315.23,186.06,317.22z"/>
	<path d="M193,314.07c0.49-0.64,1.42-1.57,3.11-1.57c1.9,0,3.09,1.2,3.09,2.94c0,1.11-0.57,1.89-1.31,2.66l-1.94,2.02h3.48v1.64
		h-6.01v-1.37l3.22-3.3c0.48-0.49,0.75-0.99,0.75-1.56c0-0.79-0.55-1.36-1.39-1.36c-0.86,0-1.38,0.47-1.85,1L193,314.07z"/>
	<path d="M208.4,317.22c0,2.94-1.75,4.71-3.93,4.71c-2.18,0-3.92-1.77-3.92-4.71c0-2.95,1.74-4.71,3.92-4.71
		C206.64,312.51,208.4,314.27,208.4,317.22z M202.38,317.22c0,1.99,0.93,3.03,2.09,3.03c1.17,0,2.09-1.04,2.09-3.03
		c0-1.99-0.92-3.03-2.09-3.03C203.31,314.19,202.38,315.23,202.38,317.22z"/>
</g>
<g>
	<path d="M41.97,314.07c0.49-0.64,1.42-1.57,3.11-1.57c1.91,0,3.09,1.2,3.09,2.94c0,1.11-0.57,1.89-1.31,2.66l-1.94,2.02h3.48v1.64
		h-6.01v-1.37l3.22-3.3c0.48-0.49,0.75-0.99,0.75-1.56c0-0.79-0.55-1.36-1.39-1.36c-0.86,0-1.38,0.47-1.85,1L41.97,314.07z"/>
	<path d="M54.96,318.47h1.27v1.64h-1.27v1.66H53.2v-1.66h-4.04v-1.27l3.19-6.16h1.95l-3.04,5.79h1.94v-2.42h1.75V318.47z"/>
	<path d="M61.19,319.05h-3.84v-1.48h3.84V319.05z"/>
	<path d="M65.79,321.77h-1.75V315l-2.18,0.88v-1.77l3.93-1.59V321.77z"/>
	<path d="M75.37,317.22c0,2.94-1.75,4.71-3.93,4.71c-2.18,0-3.92-1.77-3.92-4.71c0-2.95,1.74-4.71,3.92-4.71
		C73.61,312.51,75.37,314.27,75.37,317.22z M69.35,317.22c0,1.99,0.93,3.03,2.09,3.03c1.17,0,2.09-1.04,2.09-3.03
		c0-1.99-0.92-3.03-2.09-3.03C70.28,314.19,69.35,315.23,69.35,317.22z"/>
	<path d="M80.59,319.05h-3.84v-1.48h3.84V319.05z"/>
	<path d="M81.3,314.07c0.49-0.64,1.42-1.57,3.11-1.57c1.9,0,3.09,1.2,3.09,2.94c0,1.11-0.57,1.89-1.31,2.66l-1.94,2.02h3.48v1.64
		H81.7v-1.37l3.22-3.3c0.48-0.49,0.75-0.99,0.75-1.56c0-0.79-0.55-1.36-1.39-1.36c-0.86,0-1.38,0.47-1.85,1L81.3,314.07z"/>
	<path d="M96.69,317.22c0,2.94-1.75,4.71-3.93,4.71c-2.18,0-3.92-1.77-3.92-4.71c0-2.95,1.74-4.71,3.92-4.71
		C94.94,312.51,96.69,314.27,96.69,317.22z M90.68,317.22c0,1.99,0.93,3.03,2.09,3.03c1.17,0,2.09-1.04,2.09-3.03
		c0-1.99-0.92-3.03-2.09-3.03C91.61,314.19,90.68,315.23,90.68,317.22z"/>
	<path d="M105.87,317.22c0,2.94-1.75,4.71-3.93,4.71c-2.18,0-3.92-1.77-3.92-4.71c0-2.95,1.74-4.71,3.92-4.71
		C104.12,312.51,105.87,314.27,105.87,317.22z M99.85,317.22c0,1.99,0.93,3.03,2.09,3.03c1.17,0,2.09-1.04,2.09-3.03
		c0-1.99-0.92-3.03-2.09-3.03C100.78,314.19,99.85,315.23,99.85,317.22z"/>
	<path d="M114,315.12c0,1.05-0.6,1.7-1.39,2.06c0.9,0.35,1.61,1,1.61,2.11c0,1.66-1.6,2.64-3.56,2.64c-1.96,0-3.55-0.98-3.55-2.64
		c0-1.11,0.71-1.76,1.61-2.11c-0.79-0.36-1.38-1.01-1.38-2.06c0-1.64,1.5-2.61,3.33-2.61C112.5,312.51,114,313.48,114,315.12z
		 M109,319.14c0,0.8,0.75,1.22,1.66,1.22c0.9,0,1.66-0.42,1.66-1.22c0-0.81-0.76-1.25-1.66-1.25
		C109.75,317.89,109,318.33,109,319.14z M109.19,315.25c0,0.78,0.66,1.2,1.47,1.2c0.81,0,1.47-0.42,1.47-1.2
		c0-0.75-0.66-1.16-1.47-1.16C109.85,314.09,109.19,314.5,109.19,315.25z"/>
</g>
<rect x="47.63" y="11.23" class="st6" width="64.66" height="160.98"/>
<rect x="47.63" y="171.43" class="st7" width="64.66" height="131.22"/>
<rect x="139.87" y="41.16" class="st0" width="64.66" height="118.97"/>
<rect x="139.87" y="159.85" class="st7" width="64.66" height="142.8"/>
<rect x="232.12" y="45.88" class="st0" width="64.66" height="106.6"/>
<rect x="232.12" y="152.48" class="st7" width="64.66" height="150.17"/>
<rect x="324.36" y="50.08" class="st0" width="64.66" height="115.67"/>
<rect x="324.36" y="165.75" class="st7" width="64.66" height="136.9"/>
<rect x="416.6" y="55.24" class="st0" width="64.66" height="189.68"/>
<rect x="416.6" y="244.93" class="st7" width="64.66" height="57.72"/>
<rect x="508.85" y="69.33" class="st6" width="64.66" height="116.66"/>
<rect x="508.85" y="185.44" class="st7" width="64.66" height="117.22"/>
<rect x="601.09" y="70.58" class="st6" width="64.66" height="64.28"/>
<rect x="601.09" y="134.86" class="st7" width="64.66" height="167.79"/>
<rect x="693.34" y="72.86" class="st6" width="64.66" height="108.07"/>
<rect x="693.34" y="180.94" class="st7" width="64.66" height="121.71"/>
<rect x="785.58" y="76.03" class="st6" width="64.66" height="67.69"/>
<rect x="785.58" y="143.19" class="st7" width="64.66" height="159.46"/>
<rect x="877.83" y="85.69" class="st6" width="64.66" height="109.73"/>
<rect x="877.83" y="196.27" class="st7" width="64.66" height="106.38"/>
<g>
	<path class="st8" d="M67.35,27c0,1.49-0.86,2.42-1.99,2.94c1.28,0.5,2.3,1.43,2.3,3.01c0,2.37-2.28,3.77-5.08,3.77
		c-2.79,0-5.07-1.4-5.07-3.77c0-1.59,1.01-2.51,2.29-3.01c-1.12-0.52-1.98-1.45-1.98-2.94c0-2.34,2.13-3.73,4.76-3.73
		C65.22,23.27,67.35,24.66,67.35,27z M60.22,32.74c0,1.14,1.08,1.74,2.38,1.74c1.29,0,2.38-0.6,2.38-1.74
		c0-1.16-1.08-1.78-2.38-1.78C61.3,30.96,60.22,31.58,60.22,32.74z M60.5,27.19c0,1.11,0.94,1.71,2.1,1.71c1.16,0,2.1-0.59,2.1-1.71
		c0-1.08-0.94-1.66-2.1-1.66C61.44,25.53,60.5,26.12,60.5,27.19z"/>
	<path class="st8" d="M74.18,31.97C74,32,73.81,32.01,73.59,32.01c-2.63,0-4.5-1.88-4.5-4.31c0-2.54,2.09-4.43,4.88-4.43
		c2.77,0,4.88,1.87,4.88,4.38c0,1.19-0.45,2.27-1.23,3.45l-3.6,5.39h-3.02L74.18,31.97z M76.24,27.67c0-1.26-0.97-2.13-2.27-2.13
		c-1.31,0-2.27,0.87-2.27,2.13c0,1.25,0.96,2.13,2.27,2.13C75.27,29.81,76.24,28.93,76.24,27.67z"/>
	<path class="st8" d="M82.68,33.56l-1.3,5.53h-2.04l0.62-5.53H82.68z"/>
	<path class="st8" d="M92.76,25.83H87.5l-0.06,2.6h1.49c3.02,0,4.54,1.74,4.54,3.91c0,2.79-2.12,4.39-4.74,4.39
		c-1.94,0-3.53-0.72-4.6-1.94l1.41-1.75c0.71,0.77,1.98,1.37,3.17,1.37c1.45,0,2.16-0.85,2.16-1.88c0-0.97-0.61-1.83-2.64-1.83
		h-3.09l0.14-7.19h7.47V25.83z"/>
	<path class="st8" d="M103.83,27c0,1.37-0.73,2.38-1.94,2.95c1.36,0.54,2.23,1.58,2.23,2.98c0,2.56-2.33,3.79-4.79,3.79
		c-1.95,0-3.55-0.7-4.54-1.88l1.49-1.64c0.75,0.79,1.84,1.24,2.95,1.24c1.26,0,2.27-0.55,2.27-1.69c0-1.11-1.14-1.7-2.54-1.7h-1.51
		v-2.23h1.52c1.26,0,2.27-0.56,2.27-1.65c0-1.05-0.95-1.62-2.15-1.62c-1.21,0-2.1,0.62-2.63,1.32l-1.58-1.59
		c0.85-1.15,2.26-2.01,4.33-2.01C101.96,23.27,103.83,24.75,103.83,27z"/>
</g>
<g>
	<path class="st1" d="M65.53,185.7c0.18-0.02,0.38-0.04,0.6-0.04c2.63,0,4.5,1.88,4.5,4.31c0,2.54-2.1,4.43-4.89,4.43
		c-2.77,0-4.87-1.87-4.87-4.38c0-1.19,0.45-2.26,1.23-3.45l3.6-5.39h3.02L65.53,185.7z M63.48,190c0,1.26,0.97,2.13,2.26,2.13
		c1.31,0,2.28-0.87,2.28-2.13c0-1.25-0.97-2.13-2.28-2.13C64.46,187.86,63.48,188.74,63.48,190z"/>
	<path class="st1" d="M80.77,183.14l-5.38,11.03h-2.95l5.34-10.65h-6.17v-2.34h9.16V183.14z"/>
	<path class="st1" d="M83.88,191.24l-1.3,5.53h-2.04l0.62-5.53H83.88z"/>
	<path class="st1" d="M95.36,184.68c0,1.49-0.86,2.42-1.99,2.94c1.28,0.5,2.3,1.43,2.3,3.01c0,2.37-2.28,3.77-5.08,3.77
		c-2.79,0-5.07-1.4-5.07-3.77c0-1.59,1.01-2.51,2.29-3.01c-1.12-0.52-1.98-1.45-1.98-2.94c0-2.34,2.13-3.73,4.76-3.73
		C93.23,180.95,95.36,182.34,95.36,184.68z M88.23,190.42c0,1.14,1.08,1.74,2.38,1.74c1.29,0,2.38-0.6,2.38-1.74
		c0-1.16-1.08-1.78-2.38-1.78C89.31,188.64,88.23,189.26,88.23,190.42z M88.51,184.88c0,1.11,0.94,1.71,2.1,1.71
		c1.16,0,2.1-0.59,2.1-1.71c0-1.08-0.94-1.66-2.1-1.66C89.44,183.21,88.51,183.8,88.51,184.88z"/>
</g>
<g>
	<path class="st8" d="M160.54,57c0,1.49-0.86,2.42-1.98,2.94c1.28,0.5,2.3,1.43,2.3,3.01c0,2.37-2.28,3.77-5.08,3.77
		s-5.08-1.4-5.08-3.77c0-1.59,1.01-2.51,2.29-3.01c-1.12-0.52-1.98-1.45-1.98-2.94c0-2.34,2.13-3.73,4.76-3.73
		S160.54,54.67,160.54,57z M153.4,62.75c0,1.14,1.08,1.74,2.38,1.74c1.29,0,2.38-0.6,2.38-1.74c0-1.16-1.08-1.78-2.38-1.78
		C154.48,60.97,153.4,61.59,153.4,62.75z M153.68,57.2c0,1.11,0.94,1.71,2.1,1.71s2.1-0.59,2.1-1.71c0-1.08-0.94-1.66-2.1-1.66
		S153.68,56.12,153.68,57.2z"/>
	<path class="st8" d="M170.9,55.83h-5.26l-0.05,2.6h1.49c3.02,0,4.55,1.74,4.55,3.91c0,2.79-2.12,4.39-4.74,4.39
		c-1.94,0-3.53-0.72-4.6-1.94l1.41-1.75c0.71,0.77,1.98,1.37,3.17,1.37c1.45,0,2.16-0.85,2.16-1.88c0-0.97-0.61-1.83-2.64-1.83
		h-3.09l0.14-7.19h7.47V55.83z"/>
	<path class="st8" d="M176.6,63.56l-1.3,5.53h-2.04l0.62-5.53H176.6z"/>
	<path class="st8" d="M186.27,61.78h1.81v2.34h-1.81v2.38h-2.5v-2.38H178V62.3l4.55-8.79h2.78L181,61.78h2.77v-3.46h2.5V61.78z"/>
	<path class="st8" d="M198.01,55.46l-5.38,11.03h-2.95l5.34-10.65h-6.17v-2.34h9.16V55.46z"/>
</g>
<g>
	<path class="st1" d="M155.32,172.47c0.18-0.02,0.38-0.04,0.6-0.04c2.63,0,4.5,1.88,4.5,4.31c0,2.54-2.1,4.43-4.89,4.43
		c-2.77,0-4.87-1.87-4.87-4.38c0-1.19,0.45-2.26,1.23-3.45l3.6-5.39h3.03L155.32,172.47z M153.26,176.76c0,1.26,0.97,2.13,2.26,2.13
		c1.31,0,2.28-0.87,2.28-2.13c0-1.25-0.97-2.13-2.28-2.13C154.24,174.63,153.26,175.51,153.26,176.76z"/>
	<path class="st1" d="M166.66,176.42c-0.18,0.03-0.36,0.04-0.58,0.04c-2.63,0-4.5-1.88-4.5-4.31c0-2.54,2.09-4.43,4.88-4.43
		c2.77,0,4.88,1.87,4.88,4.38c0,1.19-0.45,2.27-1.23,3.45l-3.6,5.39h-3.02L166.66,176.42z M168.73,172.13
		c0-1.26-0.97-2.13-2.27-2.13c-1.31,0-2.27,0.87-2.27,2.13c0,1.25,0.96,2.13,2.27,2.13C167.76,174.26,168.73,173.38,168.73,172.13z"
		/>
	<path class="st1" d="M175.17,178.01l-1.3,5.53h-2.04l0.62-5.53H175.17z"/>
	<path class="st1" d="M185.53,171.45c0,1.37-0.73,2.38-1.94,2.95c1.36,0.54,2.23,1.58,2.23,2.98c0,2.56-2.33,3.79-4.79,3.79
		c-1.95,0-3.55-0.7-4.54-1.88l1.49-1.64c0.75,0.79,1.84,1.24,2.95,1.24c1.26,0,2.27-0.55,2.27-1.69c0-1.11-1.14-1.7-2.54-1.7h-1.51
		v-2.23h1.52c1.26,0,2.27-0.56,2.27-1.65c0-1.05-0.95-1.62-2.15-1.62s-2.1,0.62-2.63,1.32l-1.58-1.59c0.85-1.15,2.26-2.01,4.33-2.01
		C183.66,167.72,185.53,169.2,185.53,171.45z"/>
	<path class="st1" d="M196.35,169.91l-5.38,11.03h-2.95l5.34-10.65h-6.17v-2.34h9.16V169.91z"/>
</g>
<g>
	<path class="st8" d="M528.14,87.38c0,1.49-0.86,2.42-1.99,2.94c1.28,0.5,2.3,1.43,2.3,3.01c0,2.37-2.28,3.77-5.07,3.77
		c-2.79,0-5.08-1.4-5.08-3.77c0-1.59,1.01-2.51,2.29-3.01c-1.12-0.52-1.98-1.45-1.98-2.94c0-2.34,2.13-3.73,4.76-3.73
		C526.01,83.65,528.14,85.04,528.14,87.38z M521.01,93.12c0,1.14,1.08,1.74,2.38,1.74c1.29,0,2.38-0.6,2.38-1.74
		c0-1.16-1.09-1.78-2.38-1.78C522.09,91.34,521.01,91.96,521.01,93.12z M521.29,87.57c0,1.11,0.94,1.71,2.1,1.71
		c1.16,0,2.1-0.59,2.1-1.71c0-1.08-0.94-1.66-2.1-1.66C522.22,85.91,521.29,86.5,521.29,87.57z"/>
	<path class="st8" d="M535.36,96.87h-2.5V87.2l-3.11,1.26v-2.52l5.61-2.26V96.87z"/>
	<path class="st8" d="M541,93.94l-1.3,5.53h-2.04l0.62-5.53H541z"/>
	<path class="st8" d="M547.07,88.4c0.18-0.02,0.38-0.04,0.6-0.04c2.63,0,4.5,1.88,4.5,4.31c0,2.54-2.1,4.43-4.89,4.43
		c-2.77,0-4.87-1.87-4.87-4.38c0-1.19,0.45-2.26,1.23-3.45l3.6-5.39h3.02L547.07,88.4z M545.02,92.69c0,1.26,0.97,2.13,2.26,2.13
		c1.31,0,2.28-0.87,2.28-2.13c0-1.25-0.97-2.13-2.28-2.13C545.99,90.56,545.02,91.44,545.02,92.69z"/>
	<path class="st8" d="M562.03,86.21h-5.26l-0.06,2.6h1.49c3.02,0,4.55,1.74,4.55,3.91c0,2.79-2.12,4.39-4.74,4.39
		c-1.94,0-3.53-0.72-4.6-1.94l1.41-1.75c0.71,0.77,1.98,1.37,3.17,1.37c1.45,0,2.16-0.85,2.16-1.88c0-0.97-0.61-1.83-2.64-1.83
		h-3.09l0.14-7.19h7.47V86.21z"/>
</g>
<g>
	<path class="st1" d="M525.92,194.63c0.18-0.02,0.38-0.04,0.6-0.04c2.63,0,4.5,1.88,4.5,4.31c0,2.54-2.1,4.43-4.89,4.43
		c-2.77,0-4.87-1.87-4.87-4.38c0-1.19,0.45-2.26,1.23-3.45l3.6-5.39h3.02L525.92,194.63z M523.87,198.92c0,1.26,0.97,2.13,2.26,2.13
		c1.31,0,2.28-0.87,2.28-2.13c0-1.25-0.97-2.13-2.28-2.13C524.84,196.79,523.87,197.67,523.87,198.92z"/>
	<path class="st1" d="M540.88,192.44h-5.26l-0.06,2.6h1.49c3.02,0,4.55,1.74,4.55,3.91c0,2.79-2.12,4.39-4.74,4.39
		c-1.94,0-3.53-0.72-4.6-1.94l1.41-1.75c0.71,0.77,1.98,1.37,3.17,1.37c1.45,0,2.16-0.85,2.16-1.88c0-0.97-0.61-1.83-2.64-1.83
		h-3.09l0.14-7.19h7.47V192.44z"/>
	<path class="st1" d="M546.57,200.17l-1.3,5.53h-2.04l0.62-5.53H546.57z"/>
	<path class="st1" d="M552.24,198.58c-0.18,0.03-0.36,0.04-0.58,0.04c-2.63,0-4.5-1.88-4.5-4.31c0-2.54,2.09-4.43,4.88-4.43
		c2.77,0,4.88,1.87,4.88,4.38c0,1.19-0.45,2.27-1.23,3.45l-3.6,5.39h-3.02L552.24,198.58z M554.31,194.28
		c0-1.26-0.97-2.13-2.27-2.13c-1.31,0-2.27,0.87-2.27,2.13c0,1.25,0.96,2.13,2.27,2.13C553.34,196.42,554.31,195.54,554.31,194.28z"
		/>
</g>
<g>
	<path class="st8" d="M619.39,87.61c0,1.49-0.86,2.42-1.99,2.94c1.28,0.5,2.3,1.43,2.3,3.01c0,2.37-2.28,3.77-5.07,3.77
		c-2.79,0-5.08-1.4-5.08-3.77c0-1.59,1.01-2.51,2.29-3.01c-1.12-0.52-1.98-1.45-1.98-2.94c0-2.34,2.13-3.73,4.76-3.73
		C617.25,83.88,619.39,85.27,619.39,87.61z M612.25,93.35c0,1.14,1.08,1.74,2.38,1.74c1.29,0,2.38-0.6,2.38-1.74
		c0-1.16-1.09-1.78-2.38-1.78C613.33,91.57,612.25,92.19,612.25,93.35z M612.53,87.8c0,1.11,0.94,1.71,2.1,1.71
		c1.16,0,2.1-0.59,2.1-1.71c0-1.08-0.94-1.66-2.1-1.66C613.47,86.14,612.53,86.73,612.53,87.8z"/>
	<path class="st8" d="M626.61,97.1h-2.5v-9.67l-3.11,1.26v-2.52l5.61-2.26V97.1z"/>
	<path class="st8" d="M632.25,94.17l-1.3,5.53h-2.04l0.62-5.53H632.25z"/>
	<path class="st8" d="M641.91,92.39h1.81v2.34h-1.81v2.38h-2.5v-2.38h-5.76v-1.82l4.55-8.79h2.78l-4.34,8.27h2.76v-3.46h2.5V92.39z"
		/>
	<path class="st8" d="M654.94,87.61c0,1.49-0.86,2.42-1.99,2.94c1.28,0.5,2.3,1.43,2.3,3.01c0,2.37-2.28,3.77-5.07,3.77
		c-2.79,0-5.08-1.4-5.08-3.77c0-1.59,1.01-2.51,2.29-3.01c-1.12-0.52-1.98-1.45-1.98-2.94c0-2.34,2.13-3.73,4.76-3.73
		C652.81,83.88,654.94,85.27,654.94,87.61z M647.81,93.35c0,1.14,1.08,1.74,2.38,1.74c1.29,0,2.38-0.6,2.38-1.74
		c0-1.16-1.09-1.78-2.38-1.78C648.88,91.57,647.81,92.19,647.81,93.35z M648.09,87.8c0,1.11,0.94,1.71,2.1,1.71
		c1.16,0,2.1-0.59,2.1-1.71c0-1.08-0.94-1.66-2.1-1.66C649.02,86.14,648.09,86.73,648.09,87.8z"/>
</g>
<g>
	<path class="st1" d="M619.66,145.91l-5.38,11.03h-2.95l5.34-10.65h-6.17v-2.34h9.16V145.91z"/>
	<path class="st1" d="M620.76,145.96c0.71-0.92,2.02-2.24,4.43-2.24c2.72,0,4.41,1.71,4.41,4.19c0,1.59-0.81,2.69-1.87,3.79
		l-2.77,2.88h4.96v2.35h-8.58v-1.96l4.59-4.7c0.69-0.7,1.07-1.41,1.07-2.23c0-1.13-0.79-1.94-1.99-1.94c-1.23,0-1.97,0.67-2.63,1.43
		L620.76,145.96z"/>
	<path class="st1" d="M634.98,154.01l-1.3,5.53h-2.04l0.62-5.53H634.98z"/>
	<path class="st1" d="M645.34,145.91l-5.38,11.03h-2.95l5.34-10.65h-6.17v-2.34h9.16V145.91z"/>
	<path class="st1" d="M650.58,148.47c0.18-0.02,0.38-0.04,0.6-0.04c2.63,0,4.5,1.88,4.5,4.31c0,2.54-2.1,4.43-4.89,4.43
		c-2.77,0-4.87-1.87-4.87-4.38c0-1.19,0.45-2.26,1.23-3.45l3.6-5.39h3.02L650.58,148.47z M648.53,152.77c0,1.26,0.97,2.13,2.26,2.13
		c1.31,0,2.28-0.87,2.28-2.13c0-1.25-0.97-2.13-2.28-2.13C649.5,150.63,648.53,151.52,648.53,152.77z"/>
</g>
<g>
	<path class="st8" d="M712.97,89.36c0,1.49-0.86,2.42-1.99,2.94c1.28,0.5,2.3,1.43,2.3,3.01c0,2.37-2.28,3.77-5.07,3.77
		c-2.79,0-5.08-1.4-5.08-3.77c0-1.59,1.01-2.51,2.29-3.01c-1.12-0.52-1.98-1.45-1.98-2.94c0-2.34,2.13-3.73,4.76-3.73
		C710.83,85.63,712.97,87.03,712.97,89.36z M705.83,95.11c0,1.14,1.08,1.74,2.38,1.74c1.29,0,2.38-0.6,2.38-1.74
		c0-1.16-1.09-1.78-2.38-1.78C706.91,93.33,705.83,93.95,705.83,95.11z M706.11,89.56c0,1.11,0.94,1.71,2.1,1.71
		c1.16,0,2.1-0.59,2.1-1.71c0-1.08-0.94-1.66-2.1-1.66C707.05,87.9,706.11,88.48,706.11,89.56z"/>
	<path class="st8" d="M720.18,98.85h-2.5v-9.67l-3.11,1.26v-2.52l5.61-2.26V98.85z"/>
	<path class="st8" d="M725.83,95.92l-1.3,5.53h-2.04l0.62-5.53H725.83z"/>
	<path class="st8" d="M731.77,98.85h-2.5v-9.67l-3.11,1.26v-2.52l5.61-2.26V98.85z"/>
	<path class="st8" d="M743.03,87.82l-5.38,11.03h-2.95l5.34-10.65h-6.17v-2.34h9.16V87.82z"/>
</g>
<g>
	<path class="st1" d="M707.74,194.63c0.18-0.02,0.38-0.04,0.6-0.04c2.63,0,4.5,1.88,4.5,4.31c0,2.54-2.1,4.43-4.89,4.43
		c-2.77,0-4.87-1.87-4.87-4.38c0-1.19,0.45-2.26,1.23-3.45l3.6-5.39h3.02L707.74,194.63z M705.69,198.92c0,1.26,0.97,2.13,2.26,2.13
		c1.31,0,2.28-0.87,2.28-2.13c0-1.25-0.97-2.13-2.28-2.13C706.67,196.79,705.69,197.67,705.69,198.92z"/>
	<path class="st1" d="M718.69,194.63c0.18-0.02,0.38-0.04,0.6-0.04c2.63,0,4.5,1.88,4.5,4.31c0,2.54-2.1,4.43-4.89,4.43
		c-2.77,0-4.87-1.87-4.87-4.38c0-1.19,0.45-2.26,1.23-3.45l3.6-5.39h3.02L718.69,194.63z M716.64,198.92c0,1.26,0.97,2.13,2.26,2.13
		c1.31,0,2.28-0.87,2.28-2.13c0-1.25-0.97-2.13-2.28-2.13C717.61,196.79,716.64,197.67,716.64,198.92z"/>
	<path class="st1" d="M728.53,200.16l-1.3,5.53h-2.04l0.62-5.53H728.53z"/>
	<path class="st1" d="M738.6,192.44h-5.26l-0.06,2.6h1.49c3.02,0,4.55,1.74,4.55,3.91c0,2.79-2.12,4.39-4.74,4.39
		c-1.94,0-3.53-0.72-4.6-1.94l1.41-1.75c0.71,0.77,1.98,1.37,3.17,1.37c1.45,0,2.16-0.85,2.16-1.88c0-0.97-0.61-1.83-2.64-1.83
		h-3.09l0.14-7.19h7.47V192.44z"/>
	<path class="st1" d="M746.27,203.1h-2.5v-9.67l-3.11,1.26v-2.52l5.61-2.26V203.1z"/>
</g>
<g>
	<path class="st8" d="M805.29,93.6c0,1.49-0.86,2.42-1.99,2.94c1.28,0.5,2.3,1.43,2.3,3.01c0,2.37-2.28,3.77-5.08,3.77
		c-2.79,0-5.07-1.4-5.07-3.77c0-1.59,1.01-2.51,2.29-3.01c-1.12-0.52-1.98-1.45-1.98-2.94c0-2.34,2.13-3.73,4.76-3.73
		C803.16,89.87,805.29,91.26,805.29,93.6z M798.15,99.34c0,1.14,1.08,1.74,2.38,1.74c1.29,0,2.38-0.6,2.38-1.74
		c0-1.16-1.08-1.78-2.38-1.78C799.23,97.56,798.15,98.18,798.15,99.34z M798.43,93.79c0,1.11,0.94,1.71,2.1,1.71
		c1.16,0,2.1-0.59,2.1-1.71c0-1.08-0.94-1.66-2.1-1.66C799.37,92.13,798.43,92.71,798.43,93.79z"/>
	<path class="st8" d="M818.57,96.59c0,4.2-2.5,6.73-5.6,6.73c-3.11,0-5.59-2.52-5.59-6.73s2.49-6.73,5.59-6.73
		C816.06,89.87,818.57,92.39,818.57,96.59z M809.97,96.59c0,2.84,1.33,4.32,2.99,4.32c1.67,0,2.99-1.48,2.99-4.32
		s-1.32-4.32-2.99-4.32C811.3,92.27,809.97,93.75,809.97,96.59z"/>
	<path class="st8" d="M823.45,100.16l-1.3,5.53h-2.04l0.62-5.53H823.45z"/>
	<path class="st8" d="M833.8,92.06l-5.38,11.03h-2.95l5.34-10.65h-6.17V90.1h9.16V92.06z"/>
	<path class="st8" d="M842.33,98.37h1.81v2.34h-1.81v2.38h-2.5v-2.38h-5.76v-1.82l4.56-8.79h2.78l-4.34,8.27h2.76v-3.46h2.5V98.37z"
		/>
</g>
<g>
	<path class="st1" d="M804.57,151.48l-5.38,11.03h-2.95l5.34-10.65h-6.17v-2.34h9.16V151.48z"/>
	<path class="st1" d="M811.41,162.51h-2.5v-9.67l-3.11,1.26v-2.52l5.61-2.26V162.51z"/>
	<path class="st1" d="M817.05,159.58l-1.3,5.53h-2.04l0.62-5.53H817.05z"/>
	<path class="st1" d="M823.12,154.04c0.18-0.02,0.38-0.04,0.6-0.04c2.63,0,4.5,1.88,4.5,4.31c0,2.54-2.1,4.43-4.89,4.43
		c-2.77,0-4.87-1.87-4.87-4.38c0-1.19,0.45-2.26,1.23-3.45l3.6-5.39h3.02L823.12,154.04z M821.07,158.34c0,1.26,0.97,2.13,2.26,2.13
		c1.31,0,2.28-0.87,2.28-2.13c0-1.25-0.97-2.13-2.28-2.13C822.05,156.2,821.07,157.08,821.07,158.34z"/>
	<path class="st1" d="M838.36,153.02c0,1.37-0.73,2.38-1.94,2.95c1.36,0.54,2.23,1.58,2.23,2.98c0,2.56-2.33,3.79-4.79,3.79
		c-1.95,0-3.55-0.7-4.54-1.88l1.49-1.64c0.75,0.79,1.84,1.24,2.95,1.24c1.26,0,2.27-0.55,2.27-1.69c0-1.11-1.14-1.7-2.54-1.7h-1.51
		v-2.23h1.52c1.26,0,2.27-0.56,2.27-1.65c0-1.05-0.95-1.62-2.15-1.62s-2.1,0.62-2.63,1.32l-1.58-1.59c0.85-1.15,2.26-2.01,4.33-2.01
		C836.49,149.29,838.36,150.78,838.36,153.02z"/>
</g>
<g>
	<path class="st8" d="M896.15,102.63l-5.38,11.03h-2.95l5.34-10.65H887v-2.34h9.16V102.63z"/>
	<path class="st8" d="M902.32,109.14c-0.18,0.03-0.36,0.04-0.58,0.04c-2.63,0-4.5-1.88-4.5-4.31c0-2.54,2.09-4.43,4.88-4.43
		c2.77,0,4.88,1.87,4.88,4.38c0,1.19-0.45,2.27-1.23,3.45l-3.6,5.39h-3.02L902.32,109.14z M904.39,104.85
		c0-1.26-0.97-2.13-2.27-2.13c-1.31,0-2.27,0.87-2.27,2.13c0,1.25,0.96,2.13,2.27,2.13C903.42,106.98,904.39,106.1,904.39,104.85z"
		/>
	<path class="st8" d="M910.83,110.73l-1.3,5.53h-2.04l0.62-5.53H910.83z"/>
	<path class="st8" d="M920.5,108.95h1.81v2.34h-1.81v2.38h-2.5v-2.38h-5.76v-1.82l4.55-8.79h2.78l-4.34,8.27h2.77v-3.46h2.5V108.95z
		"/>
	<path class="st8" d="M932.21,104.17c0,1.37-0.73,2.38-1.94,2.95c1.36,0.54,2.23,1.58,2.23,2.98c0,2.56-2.33,3.79-4.79,3.79
		c-1.95,0-3.55-0.7-4.54-1.88l1.49-1.64c0.75,0.79,1.84,1.24,2.95,1.24c1.26,0,2.27-0.55,2.27-1.69c0-1.11-1.14-1.7-2.54-1.7h-1.51
		V106h1.52c1.26,0,2.27-0.56,2.27-1.65c0-1.05-0.95-1.62-2.15-1.62c-1.21,0-2.1,0.62-2.63,1.32l-1.58-1.59
		c0.85-1.15,2.26-2.01,4.33-2.01C930.34,100.44,932.21,101.92,932.21,104.17z"/>
</g>
<g>
	<path class="st1" d="M890.42,206.89c0.18-0.02,0.38-0.04,0.6-0.04c2.63,0,4.5,1.88,4.5,4.31c0,2.54-2.1,4.43-4.89,4.43
		c-2.77,0-4.87-1.87-4.87-4.38c0-1.19,0.45-2.26,1.23-3.45l3.6-5.39h3.02L890.42,206.89z M888.37,211.19c0,1.26,0.97,2.13,2.26,2.13
		c1.31,0,2.28-0.87,2.28-2.13c0-1.25-0.97-2.13-2.28-2.13C889.35,209.05,888.37,209.94,888.37,211.19z"/>
	<path class="st1" d="M905.16,210.65h1.81v2.34h-1.81v2.38h-2.5v-2.38h-5.76v-1.82l4.55-8.79h2.78l-4.34,8.27h2.76v-3.46h2.5V210.65
		z"/>
	<path class="st1" d="M911.74,212.43l-1.3,5.53h-2.04l0.62-5.53H911.74z"/>
	<path class="st1" d="M921.41,210.65h1.81v2.34h-1.81v2.38h-2.5v-2.38h-5.76v-1.82l4.56-8.79h2.78l-4.34,8.27h2.76v-3.46h2.5V210.65
		z"/>
	<path class="st1" d="M933.12,205.87c0,1.37-0.73,2.38-1.94,2.95c1.36,0.54,2.23,1.58,2.23,2.98c0,2.56-2.33,3.79-4.79,3.79
		c-1.95,0-3.55-0.7-4.54-1.88l1.49-1.64c0.75,0.79,1.84,1.24,2.95,1.24c1.26,0,2.27-0.55,2.27-1.69c0-1.11-1.14-1.7-2.54-1.7h-1.51
		v-2.23h1.52c1.26,0,2.27-0.56,2.27-1.65c0-1.05-0.95-1.62-2.15-1.62s-2.1,0.62-2.63,1.32l-1.58-1.59c0.85-1.15,2.26-2.01,4.33-2.01
		C931.26,202.14,933.12,203.63,933.12,205.87z"/>
</g>
<g>
	<path class="st8" d="M251.72,61c0,1.49-0.86,2.42-1.99,2.94c1.28,0.5,2.3,1.43,2.3,3.01c0,2.37-2.28,3.77-5.07,3.77
		c-2.79,0-5.08-1.4-5.08-3.77c0-1.59,1.01-2.51,2.29-3.01c-1.12-0.52-1.98-1.45-1.98-2.94c0-2.34,2.13-3.73,4.76-3.73
		C249.59,57.27,251.72,58.66,251.72,61z M244.59,66.74c0,1.14,1.08,1.74,2.38,1.74c1.29,0,2.38-0.6,2.38-1.74
		c0-1.16-1.09-1.78-2.38-1.78C245.66,64.96,244.59,65.58,244.59,66.74z M244.87,61.19c0,1.11,0.94,1.71,2.1,1.71
		c1.16,0,2.1-0.59,2.1-1.71c0-1.08-0.94-1.66-2.1-1.66C245.8,59.53,244.87,60.11,244.87,61.19z"/>
	<path class="st8" d="M261.52,65.77h1.81v2.34h-1.81v2.38h-2.5v-2.38h-5.76v-1.82l4.55-8.79h2.78l-4.34,8.27h2.76v-3.46h2.5V65.77z"
		/>
	<path class="st8" d="M268.11,67.56l-1.3,5.53h-2.04l0.62-5.53H268.11z"/>
	<path class="st8" d="M279.59,61c0,1.49-0.86,2.42-1.99,2.94c1.28,0.5,2.3,1.43,2.3,3.01c0,2.37-2.28,3.77-5.08,3.77
		c-2.79,0-5.07-1.4-5.07-3.77c0-1.59,1.01-2.51,2.29-3.01c-1.12-0.52-1.98-1.45-1.98-2.94c0-2.34,2.13-3.73,4.76-3.73
		C277.46,57.27,279.59,58.66,279.59,61z M272.46,66.74c0,1.14,1.08,1.74,2.38,1.74c1.29,0,2.38-0.6,2.38-1.74
		c0-1.16-1.08-1.78-2.38-1.78C273.53,64.96,272.46,65.58,272.46,66.74z M272.74,61.19c0,1.11,0.94,1.71,2.1,1.71
		c1.16,0,2.1-0.59,2.1-1.71c0-1.08-0.94-1.66-2.1-1.66C273.67,59.53,272.74,60.11,272.74,61.19z"/>
	<path class="st8" d="M290.23,61c0,1.37-0.73,2.38-1.94,2.95c1.36,0.54,2.23,1.58,2.23,2.98c0,2.56-2.33,3.79-4.79,3.79
		c-1.95,0-3.55-0.7-4.54-1.88l1.49-1.64c0.75,0.79,1.84,1.24,2.95,1.24c1.26,0,2.27-0.55,2.27-1.69c0-1.11-1.14-1.7-2.54-1.7h-1.51
		v-2.23h1.52c1.26,0,2.27-0.56,2.27-1.65c0-1.05-0.95-1.62-2.15-1.62s-2.1,0.62-2.63,1.32l-1.58-1.59c0.85-1.15,2.26-2.01,4.33-2.01
		C288.37,57.27,290.23,58.75,290.23,61z"/>
</g>
<g>
	<path class="st1" d="M250.05,162.33l-5.38,11.03h-2.95l5.34-10.65h-6.17v-2.34h9.16V162.33z"/>
	<path class="st1" d="M262.4,166.86c0,4.2-2.5,6.73-5.6,6.73c-3.11,0-5.59-2.52-5.59-6.73c0-4.2,2.49-6.73,5.59-6.73
		C259.89,160.14,262.4,162.66,262.4,166.86z M253.81,166.86c0,2.84,1.33,4.32,2.99,4.32c1.67,0,2.99-1.48,2.99-4.32
		s-1.32-4.32-2.99-4.32C255.13,162.54,253.81,164.02,253.81,166.86z"/>
	<path class="st1" d="M267.28,170.43l-1.3,5.53h-2.04l0.62-5.53H267.28z"/>
	<path class="st1" d="M277.63,163.87c0,1.37-0.73,2.38-1.94,2.95c1.36,0.54,2.23,1.58,2.23,2.98c0,2.56-2.33,3.8-4.79,3.8
		c-1.95,0-3.55-0.7-4.54-1.88l1.49-1.64c0.75,0.79,1.84,1.24,2.95,1.24c1.26,0,2.27-0.55,2.27-1.69c0-1.11-1.14-1.7-2.54-1.7h-1.51
		v-2.23h1.52c1.26,0,2.27-0.56,2.27-1.65c0-1.05-0.95-1.62-2.15-1.62c-1.21,0-2.1,0.62-2.63,1.32l-1.58-1.59
		c0.85-1.15,2.26-2.01,4.33-2.01C275.77,160.14,277.63,161.62,277.63,163.87z"/>
	<path class="st1" d="M288.46,162.33l-5.38,11.03h-2.95l5.34-10.65h-6.17v-2.34h9.16V162.33z"/>
</g>
<g>
	<path class="st8" d="M344.75,64.2c0,1.49-0.86,2.42-1.99,2.94c1.28,0.5,2.3,1.43,2.3,3.01c0,2.37-2.28,3.77-5.07,3.77
		c-2.79,0-5.08-1.4-5.08-3.77c0-1.59,1.01-2.51,2.29-3.01c-1.12-0.52-1.98-1.45-1.98-2.94c0-2.34,2.13-3.73,4.76-3.73
		C342.61,60.47,344.75,61.86,344.75,64.2z M337.61,69.94c0,1.14,1.08,1.74,2.38,1.74c1.29,0,2.38-0.6,2.38-1.74
		c0-1.16-1.09-1.78-2.38-1.78C338.69,68.16,337.61,68.78,337.61,69.94z M337.89,64.4c0,1.11,0.94,1.71,2.1,1.71
		c1.16,0,2.1-0.59,2.1-1.71c0-1.08-0.94-1.66-2.1-1.66C338.83,62.73,337.89,63.32,337.89,64.4z"/>
	<path class="st8" d="M354.55,68.98h1.81v2.34h-1.81v2.38h-2.5v-2.38h-5.76V69.5l4.55-8.79h2.78l-4.34,8.27h2.76v-3.46h2.5V68.98z"
		/>
	<path class="st8" d="M361.13,70.76l-1.3,5.53h-2.04l0.62-5.53H361.13z"/>
	<path class="st8" d="M362.59,62.71c0.71-0.92,2.02-2.24,4.43-2.24c2.72,0,4.41,1.71,4.41,4.19c0,1.59-0.81,2.69-1.87,3.79
		l-2.77,2.88h4.96v2.35h-8.58v-1.96l4.59-4.7c0.69-0.7,1.07-1.41,1.07-2.23c0-1.13-0.79-1.94-1.99-1.94c-1.23,0-1.97,0.67-2.63,1.43
		L362.59,62.71z"/>
	<path class="st8" d="M377.65,65.22c0.18-0.02,0.38-0.04,0.6-0.04c2.63,0,4.5,1.88,4.5,4.31c0,2.54-2.1,4.43-4.89,4.43
		c-2.77,0-4.87-1.87-4.87-4.38c0-1.19,0.45-2.26,1.23-3.45l3.6-5.39h3.02L377.65,65.22z M375.6,69.52c0,1.26,0.97,2.13,2.26,2.13
		c1.31,0,2.28-0.87,2.28-2.13c0-1.25-0.97-2.13-2.28-2.13C376.57,67.38,375.6,68.26,375.6,69.52z"/>
</g>
<g>
	<path class="st1" d="M335.88,176.96c0.18-0.02,0.38-0.04,0.6-0.04c2.63,0,4.5,1.88,4.5,4.31c0,2.54-2.1,4.43-4.89,4.43
		c-2.77,0-4.87-1.87-4.87-4.38c0-1.19,0.45-2.26,1.23-3.45l3.6-5.39h3.03L335.88,176.96z M333.83,181.26c0,1.26,0.97,2.13,2.26,2.13
		c1.31,0,2.28-0.87,2.28-2.13c0-1.25-0.97-2.13-2.28-2.13C334.8,179.13,333.83,180.01,333.83,181.26z"/>
	<path class="st1" d="M352.24,175.95c0,1.49-0.86,2.42-1.99,2.94c1.28,0.5,2.3,1.43,2.3,3.01c0,2.37-2.28,3.77-5.07,3.77
		c-2.79,0-5.08-1.4-5.08-3.77c0-1.59,1.01-2.51,2.29-3.01c-1.12-0.52-1.98-1.45-1.98-2.94c0-2.34,2.13-3.73,4.76-3.73
		C350.11,172.21,352.24,173.61,352.24,175.95z M345.11,181.69c0,1.14,1.08,1.74,2.38,1.74c1.29,0,2.38-0.6,2.38-1.74
		c0-1.16-1.09-1.78-2.38-1.78C346.19,179.91,345.11,180.53,345.11,181.69z M345.39,176.14c0,1.11,0.94,1.71,2.1,1.71
		c1.16,0,2.1-0.59,2.1-1.71c0-1.08-0.94-1.66-2.1-1.66C346.33,174.48,345.39,175.06,345.39,176.14z"/>
	<path class="st1" d="M357.49,182.5l-1.3,5.53h-2.04l0.62-5.53H357.49z"/>
	<path class="st1" d="M367.56,174.78h-5.26l-0.05,2.6h1.49c3.02,0,4.55,1.74,4.55,3.91c0,2.79-2.12,4.39-4.74,4.39
		c-1.94,0-3.53-0.72-4.6-1.94l1.41-1.75c0.71,0.77,1.98,1.37,3.17,1.37c1.45,0,2.16-0.85,2.16-1.88c0-0.97-0.61-1.83-2.64-1.83
		h-3.09l0.14-7.19h7.47V174.78z"/>
	<path class="st1" d="M378.74,174.4l-5.38,11.03h-2.95l5.34-10.65h-6.17v-2.34h9.16V174.4z"/>
</g>
<g>
	<path class="st8" d="M435.22,73.94c0,1.49-0.86,2.42-1.99,2.94c1.28,0.5,2.3,1.43,2.3,3.01c0,2.37-2.28,3.77-5.08,3.77
		c-2.79,0-5.07-1.4-5.07-3.77c0-1.59,1.01-2.51,2.29-3.01c-1.12-0.52-1.98-1.45-1.98-2.94c0-2.34,2.13-3.73,4.76-3.73
		C433.09,70.21,435.22,71.61,435.22,73.94z M428.09,79.69c0,1.14,1.08,1.74,2.38,1.74c1.29,0,2.38-0.6,2.38-1.74
		c0-1.16-1.08-1.78-2.38-1.78C429.16,77.91,428.09,78.53,428.09,79.69z M428.37,74.14c0,1.11,0.94,1.71,2.1,1.71
		c1.16,0,2.1-0.59,2.1-1.71c0-1.08-0.94-1.66-2.1-1.66C429.3,72.48,428.37,73.06,428.37,74.14z"/>
	<path class="st8" d="M445.86,73.94c0,1.37-0.73,2.38-1.94,2.95c1.36,0.54,2.23,1.58,2.23,2.98c0,2.56-2.33,3.79-4.79,3.79
		c-1.95,0-3.55-0.7-4.54-1.88l1.49-1.64c0.75,0.79,1.84,1.24,2.95,1.24c1.26,0,2.27-0.55,2.27-1.69c0-1.11-1.14-1.7-2.54-1.7h-1.51
		v-2.23h1.52c1.26,0,2.27-0.56,2.27-1.65c0-1.05-0.95-1.62-2.15-1.62s-2.1,0.62-2.63,1.32l-1.58-1.59c0.85-1.15,2.26-2.01,4.33-2.01
		C444,70.21,445.86,71.7,445.86,73.94z"/>
	<path class="st8" d="M451.08,80.5l-1.3,5.53h-2.04l0.62-5.53H451.08z"/>
	<path class="st8" d="M461.16,72.77h-5.26l-0.06,2.6h1.49c3.02,0,4.55,1.74,4.55,3.91c0,2.79-2.12,4.39-4.74,4.39
		c-1.94,0-3.53-0.72-4.6-1.94l1.41-1.75c0.71,0.77,1.98,1.37,3.17,1.37c1.45,0,2.16-0.85,2.16-1.88c0-0.97-0.61-1.83-2.64-1.83
		h-3.09l0.14-7.19h7.47V72.77z"/>
	<path class="st8" d="M467.97,74.96c0.18-0.02,0.38-0.04,0.6-0.04c2.63,0,4.5,1.88,4.5,4.31c0,2.54-2.1,4.43-4.89,4.43
		c-2.77,0-4.87-1.87-4.87-4.38c0-1.19,0.45-2.26,1.23-3.45l3.6-5.39h3.02L467.97,74.96z M465.92,79.26c0,1.26,0.97,2.13,2.26,2.13
		c1.31,0,2.28-0.87,2.28-2.13c0-1.25-0.97-2.13-2.28-2.13C466.89,77.13,465.92,78.01,465.92,79.26z"/>
</g>
<g>
	<path class="st1" d="M434.04,252.58h-5.26l-0.06,2.6h1.49c3.03,0,4.55,1.74,4.55,3.91c0,2.79-2.12,4.39-4.74,4.39
		c-1.94,0-3.53-0.72-4.6-1.94l1.41-1.75c0.71,0.77,1.98,1.37,3.17,1.37c1.45,0,2.16-0.85,2.16-1.88c0-0.97-0.61-1.83-2.64-1.83
		h-3.09l0.14-7.19h7.47V252.58z"/>
	<path class="st1" d="M445.22,252.21l-5.38,11.03h-2.95l5.34-10.65h-6.17v-2.34h9.16V252.21z"/>
	<path class="st1" d="M448.33,260.31l-1.3,5.53h-2.04l0.62-5.53H448.33z"/>
	<path class="st1" d="M459.82,253.75c0,1.49-0.86,2.42-1.99,2.94c1.28,0.5,2.3,1.43,2.3,3.01c0,2.37-2.28,3.77-5.08,3.77
		c-2.79,0-5.07-1.4-5.07-3.77c0-1.59,1.01-2.51,2.29-3.01c-1.12-0.52-1.98-1.45-1.98-2.94c0-2.34,2.13-3.73,4.76-3.73
		C457.68,250.02,459.82,251.41,459.82,253.75z M452.68,259.49c0,1.14,1.08,1.74,2.38,1.74c1.29,0,2.38-0.6,2.38-1.74
		c0-1.16-1.08-1.78-2.38-1.78C453.76,257.71,452.68,258.33,452.68,259.49z M452.96,253.94c0,1.11,0.94,1.71,2.1,1.71
		c1.16,0,2.1-0.59,2.1-1.71c0-1.08-0.94-1.66-2.1-1.66C453.9,252.28,452.96,252.87,452.96,253.94z"/>
	<path class="st1" d="M470.46,253.75c0,1.37-0.73,2.38-1.94,2.95c1.36,0.54,2.23,1.58,2.23,2.98c0,2.56-2.33,3.79-4.79,3.79
		c-1.95,0-3.55-0.7-4.54-1.88l1.49-1.64c0.75,0.79,1.84,1.24,2.95,1.24c1.26,0,2.27-0.55,2.27-1.69c0-1.11-1.14-1.7-2.54-1.7h-1.51
		v-2.23h1.52c1.26,0,2.27-0.56,2.27-1.65c0-1.05-0.95-1.62-2.15-1.62s-2.1,0.62-2.63,1.32l-1.58-1.59c0.85-1.15,2.26-2.01,4.33-2.01
		C468.6,250.02,470.46,251.5,470.46,253.75z"/>
</g>
<line class="st9" x1="40.38" y1="171.43" x2="121.05" y2="171.43"/>
<line class="st9" x1="131.86" y1="159.85" x2="212.54" y2="159.85"/>
<line class="st9" x1="225.18" y1="152.48" x2="305.85" y2="152.48"/>
<line class="st9" x1="314.98" y1="165.75" x2="395.65" y2="165.75"/>
<line class="st9" x1="408.59" y1="244.04" x2="489.27" y2="244.04"/>
<line class="st9" x1="500.84" y1="185.99" x2="581.51" y2="185.99"/>
<line class="st9" x1="593.08" y1="134.86" x2="673.76" y2="134.86"/>
<line class="st9" x1="685.33" y1="180.94" x2="766" y2="180.94"/>
<line class="st9" x1="777.57" y1="143.19" x2="858.25" y2="143.19"/>
<line class="st9" x1="869.82" y1="195.42" x2="950.49" y2="195.42"/>
<g>
	<path class="st8" d="M213.66,347v4.61h-2.51V339h5.14c3.01,0,4.61,1.57,4.61,4.01c0,2.42-1.6,3.99-4.59,3.99H213.66z
		 M213.66,341.31v3.38h2.58c1.37,0,2.08-0.56,2.08-1.69c0-1.13-0.71-1.69-2.08-1.69H213.66z"/>
	<path class="st8" d="M231.12,351.6h-2.29v-0.96c-0.57,0.7-1.41,1.19-2.61,1.19c-2.4,0-4.22-1.97-4.22-4.59s1.82-4.59,4.22-4.59
		c1.2,0,2.04,0.49,2.61,1.2v-0.96h2.29V351.6z M224.4,347.24c0,1.33,0.87,2.4,2.25,2.4c1.34,0,2.25-1.03,2.25-2.4
		c0-1.38-0.91-2.4-2.25-2.4C225.27,344.83,224.4,345.91,224.4,347.24z"/>
	<path class="st8" d="M241.83,346.05v5.55h-2.35v-4.8c0-1.26-0.63-1.95-1.7-1.95c-1.01,0-1.85,0.66-1.85,1.97v4.78h-2.35v-8.72h2.29
		v1.03c0.62-0.93,1.58-1.26,2.57-1.26C240.42,342.65,241.83,344.02,241.83,346.05z"/>
	<path class="st8" d="M250.47,343.79v-5.15h2.34v12.96h-2.29v-0.96c-0.57,0.7-1.41,1.19-2.61,1.19c-2.4,0-4.22-1.97-4.22-4.59
		s1.82-4.59,4.22-4.59C249.08,342.65,249.9,343.11,250.47,343.79z M246.09,347.24c0,1.33,0.87,2.4,2.25,2.4
		c1.34,0,2.25-1.03,2.25-2.4c0-1.38-0.91-2.4-2.25-2.4C246.96,344.83,246.09,345.91,246.09,347.24z"/>
	<path class="st8" d="M263.39,347.23c0,0.27-0.02,0.59-0.04,0.79h-6.18c0.25,1.26,1.13,1.81,2.24,1.81c0.76,0,1.58-0.31,2.21-0.84
		l1.38,1.51c-0.99,0.91-2.25,1.32-3.72,1.32c-2.67,0-4.53-1.82-4.53-4.56c0-2.75,1.8-4.62,4.41-4.62
		C261.66,342.65,263.38,344.51,263.39,347.23z M257.17,346.42h3.86c-0.22-1.12-0.89-1.75-1.9-1.75
		C258.02,344.67,257.37,345.34,257.17,346.42z M257.55,341.63l1.81-2.84h2.81l-2.38,2.84H257.55z"/>
	<path class="st8" d="M279.43,346.05v5.55h-2.34v-4.8c0-1.26-0.64-1.95-1.7-1.95c-1.01,0-1.85,0.66-1.85,1.97v4.78h-2.35v-4.8
		c0-1.26-0.63-1.95-1.7-1.95c-1.01,0-1.85,0.66-1.85,1.97v4.78h-2.35v-8.72h2.29v1.03c0.62-0.93,1.58-1.26,2.57-1.26
		c1.26,0,2.29,0.57,2.88,1.5c0.67-1.11,1.82-1.5,2.96-1.5C278.05,342.65,279.43,344.02,279.43,346.05z"/>
	<path class="st8" d="M284.49,340.03c0,0.85-0.66,1.49-1.5,1.49c-0.85,0-1.49-0.65-1.49-1.49c0-0.85,0.65-1.51,1.49-1.51
		C283.83,338.51,284.49,339.18,284.49,340.03z M284.17,351.6h-2.35v-8.72h2.35V351.6z"/>
	<path class="st8" d="M294.75,347.23c0,0.27-0.02,0.59-0.04,0.79h-6.19c0.25,1.26,1.13,1.81,2.24,1.81c0.76,0,1.58-0.31,2.21-0.84
		l1.38,1.51c-0.99,0.91-2.25,1.32-3.72,1.32c-2.67,0-4.53-1.82-4.53-4.56c0-2.75,1.8-4.62,4.41-4.62
		C293.02,342.65,294.74,344.51,294.75,347.23z M288.53,346.42h3.86c-0.22-1.12-0.89-1.75-1.9-1.75
		C289.39,344.67,288.74,345.34,288.53,346.42z"/>
	<path class="st8" d="M307.37,343.79v-5.15h2.34v12.96h-2.29v-0.96c-0.57,0.7-1.41,1.19-2.61,1.19c-2.4,0-4.22-1.97-4.22-4.59
		s1.82-4.59,4.22-4.59C305.97,342.65,306.8,343.11,307.37,343.79z M302.98,347.24c0,1.33,0.87,2.4,2.25,2.4
		c1.34,0,2.25-1.03,2.25-2.4c0-1.38-0.91-2.4-2.25-2.4C303.86,344.83,302.98,345.91,302.98,347.24z"/>
	<path class="st8" d="M320.28,347.23c0,0.27-0.02,0.59-0.04,0.79h-6.18c0.25,1.26,1.13,1.81,2.24,1.81c0.76,0,1.58-0.31,2.21-0.84
		l1.38,1.51c-0.99,0.91-2.25,1.32-3.72,1.32c-2.67,0-4.53-1.82-4.53-4.56c0-2.75,1.8-4.62,4.41-4.62
		C318.55,342.65,320.27,344.51,320.28,347.23z M314.06,346.42h3.86c-0.22-1.12-0.89-1.75-1.9-1.75
		C314.92,344.67,314.27,345.34,314.06,346.42z"/>
	<path class="st8" d="M338.27,341.59l-2.16,1.32c-0.71-1.09-1.85-1.74-3.26-1.74c-2.29,0-3.98,1.67-3.98,4.12
		c0.01,2.53,1.76,4.12,3.98,4.12c1.4,0,2.53-0.63,3.29-1.73l2.05,1.48c-1.12,1.64-3.02,2.67-5.32,2.67c-3.88,0-6.62-2.75-6.62-6.54
		s2.74-6.54,6.62-6.54C335.19,338.77,337.24,339.83,338.27,341.59z"/>
	<path class="st8" d="M352.82,345.3c0,3.76-2.75,6.54-6.63,6.54s-6.62-2.77-6.62-6.54c0-3.76,2.74-6.54,6.62-6.54
		S352.82,341.54,352.82,345.3z M342.2,345.3c0,2.45,1.68,4.12,4,4.12c2.32,0,4-1.67,4-4.12c0-2.45-1.67-4.12-4-4.12
		C343.88,341.18,342.2,342.85,342.2,345.3z"/>
	<path class="st8" d="M361.16,351.6h-3.05l-4.74-12.6h2.67l3.61,10.06l3.63-10.06h2.61L361.16,351.6z"/>
	<path class="st8" d="M370.02,351.6h-2.51V339h2.51V351.6z"/>
	<path class="st8" d="M378.08,339c3.94,0,6.54,2.5,6.54,6.3s-2.6,6.3-6.54,6.3h-5.19V339H378.08z M375.4,341.35v7.9h2.66
		c2.66,0,3.94-1.67,3.94-3.95c0-2.31-1.29-3.95-3.94-3.95H375.4z"/>
	<path class="st8" d="M391.77,347.84h-5.32v-2.05h5.32V347.84z"/>
	<path class="st8" d="M398.14,351.6h-2.43v-9.38l-3.02,1.22V341l5.45-2.2V351.6z"/>
	<path class="st8" d="M405.14,347.22c-0.17,0.03-0.35,0.04-0.57,0.04c-2.56,0-4.37-1.83-4.37-4.19c0-2.47,2.03-4.29,4.74-4.29
		c2.69,0,4.74,1.81,4.74,4.25c0,1.15-0.43,2.21-1.2,3.35l-3.49,5.23h-2.93L405.14,347.22z M407.15,343.05
		c0-1.22-0.95-2.07-2.21-2.07c-1.27,0-2.21,0.85-2.21,2.07c0,1.22,0.94,2.07,2.21,2.07C406.2,345.12,407.15,344.27,407.15,343.05z"
		/>
</g>
</svg>
