<?xml version="1.0" encoding="utf-8"?>
<!-- Generator: Adobe Illustrator 24.3.0, SVG Export Plug-In . SVG Version: 6.00 Build 0)  -->
<svg version="1.1" id="Layer_1" xmlns="http://www.w3.org/2000/svg" xmlns:xlink="http://www.w3.org/1999/xlink" x="0px" y="0px"
	 viewBox="0 0 1200 427" style="enable-background:new 0 0 1200 427;" xml:space="preserve">
<style type="text/css">
	.st0{fill:#203232;}
	.st1{fill:#ED5A36;stroke:#F57E20;stroke-miterlimit:10;}
	.st2{fill:#FFB819;}
	.st3{fill:#ED5A36;}
	.st4{fill:none;stroke:#203232;stroke-width:2;stroke-miterlimit:10;}
</style>
<g>
	<path class="st0" d="M10.5,316.8H8.6v-7.3l-2.3,1v-1.9l4.2-1.7V316.8z"/>
	<path class="st0" d="M20.8,311.9c0,3.2-1.9,5.1-4.2,5.1s-4.2-1.9-4.2-5.1s1.9-5.1,4.2-5.1S20.8,308.7,20.8,311.9z M14.3,311.9
		c0,2.1,1,3.3,2.3,3.3s2.3-1.1,2.3-3.3c0-2.1-1-3.3-2.3-3.3S14.3,309.7,14.3,311.9z"/>
	<path class="st0" d="M34.1,311.9c0,3.2-1.9,5.1-4.2,5.1s-4.2-1.9-4.2-5.1s1.9-5.1,4.2-5.1S34.1,308.7,34.1,311.9z M27.7,311.9
		c0,2.1,1,3.3,2.3,3.3s2.3-1.1,2.3-3.3c0-2.1-1-3.3-2.3-3.3S27.7,309.7,27.7,311.9z"/>
	<path class="st0" d="M44,311.9c0,3.2-1.9,5.1-4.2,5.1s-4.2-1.9-4.2-5.1s1.9-5.1,4.2-5.1S44,308.7,44,311.9z M37.5,311.9
		c0,2.1,1,3.3,2.3,3.3s2.3-1.1,2.3-3.3c0-2.1-1-3.3-2.3-3.3S37.5,309.7,37.5,311.9z"/>
	<path class="st0" d="M53.9,311.9c0,3.2-1.9,5.1-4.2,5.1s-4.2-1.9-4.2-5.1s1.9-5.1,4.2-5.1S53.9,308.7,53.9,311.9z M47.4,311.9
		c0,2.1,1,3.3,2.3,3.3s2.3-1.1,2.3-3.3c0-2.1-1-3.3-2.3-3.3S47.4,309.7,47.4,311.9z"/>
	<path class="st0" d="M63.9,305.8v1.3c1.2,0.1,2.1,0.5,2.9,1l-0.9,1.5c-0.6-0.4-1.3-0.6-2-0.8v2.2c1.7,0.3,3,1,3,2.6
		c0,1.7-1.4,2.7-3,2.9v1.4h-1.6v-1.4c-1.2-0.1-2.5-0.5-3.3-1.2l1-1.5c0.6,0.4,1.4,0.8,2.4,1v-2.3h-0.1c-1.7-0.3-3-1-2.9-2.7
		c0-1.6,1.3-2.6,3-2.8v-1.3L63.9,305.8L63.9,305.8z M62.3,310.8v-1.9c-0.7,0.2-1.1,0.5-1.1,1C61.3,310.4,61.6,310.6,62.3,310.8z
		 M63.9,313v1.9c0.6-0.2,1.1-0.5,1.1-1S64.6,313.1,63.9,313z"/>
</g>
<g>
	<path class="st0" d="M4.2,237.9c0.5-0.7,1.5-1.7,3.3-1.7c2.1,0,3.3,1.3,3.3,3.2c0,1.2-0.6,2-1.4,2.9l-2.1,2.2H11v1.8H4.6v-1.5
		l3.5-3.6c0.5-0.5,0.8-1.1,0.8-1.7c0-0.9-0.6-1.5-1.5-1.5s-1.5,0.5-2,1.1L4.2,237.9z"/>
	<path class="st0" d="M20.8,241.3c0,3.2-1.9,5.1-4.2,5.1s-4.2-1.9-4.2-5.1c0-3.2,1.9-5.1,4.2-5.1S20.8,238.1,20.8,241.3z
		 M14.3,241.3c0,2.1,1,3.3,2.3,3.3s2.3-1.1,2.3-3.3c0-2.1-1-3.3-2.3-3.3S14.3,239.1,14.3,241.3z"/>
	<path class="st0" d="M34.1,241.3c0,3.2-1.9,5.1-4.2,5.1s-4.2-1.9-4.2-5.1c0-3.2,1.9-5.1,4.2-5.1S34.1,238.1,34.1,241.3z
		 M27.7,241.3c0,2.1,1,3.3,2.3,3.3s2.3-1.1,2.3-3.3c0-2.1-1-3.3-2.3-3.3S27.7,239.1,27.7,241.3z"/>
	<path class="st0" d="M44,241.3c0,3.2-1.9,5.1-4.2,5.1s-4.2-1.9-4.2-5.1c0-3.2,1.9-5.1,4.2-5.1S44,238.1,44,241.3z M37.5,241.3
		c0,2.1,1,3.3,2.3,3.3s2.3-1.1,2.3-3.3c0-2.1-1-3.3-2.3-3.3S37.5,239.1,37.5,241.3z"/>
	<path class="st0" d="M53.9,241.3c0,3.2-1.9,5.1-4.2,5.1s-4.2-1.9-4.2-5.1c0-3.2,1.9-5.1,4.2-5.1S53.9,238.1,53.9,241.3z
		 M47.4,241.3c0,2.1,1,3.3,2.3,3.3s2.3-1.1,2.3-3.3c0-2.1-1-3.3-2.3-3.3S47.4,239.1,47.4,241.3z"/>
	<path class="st0" d="M63.9,235.2v1.3c1.2,0.1,2.1,0.5,2.9,1l-0.9,1.5c-0.6-0.4-1.3-0.6-2-0.8v2.2c1.7,0.3,3,1,3,2.6
		c0,1.7-1.4,2.7-3,2.9v1.4h-1.6V246c-1.2-0.1-2.5-0.5-3.3-1.2l1-1.5c0.6,0.4,1.4,0.8,2.4,1V242h-0.1c-1.7-0.3-3-1-2.9-2.7
		c0-1.6,1.3-2.6,3-2.8v-1.3H63.9z M62.3,240.2v-1.9c-0.7,0.2-1.1,0.5-1.1,1C61.3,239.8,61.6,240,62.3,240.2z M63.9,242.3v1.9
		c0.6-0.2,1.1-0.5,1.1-1C65,242.8,64.6,242.5,63.9,242.3z"/>
</g>
<g>
	<path class="st0" d="M53.9,382.4c0,3.2-1.9,5.1-4.2,5.1s-4.2-1.9-4.2-5.1s1.9-5.1,4.2-5.1S53.9,379.2,53.9,382.4z M47.4,382.4
		c0,2.1,1,3.3,2.3,3.3s2.3-1.1,2.3-3.3c0-2.1-1-3.3-2.3-3.3S47.4,380.2,47.4,382.4z"/>
	<path class="st0" d="M63.9,376.3v1.3c1.2,0.1,2.1,0.5,2.9,1l-0.9,1.5c-0.6-0.4-1.3-0.6-2-0.8v2.2c1.7,0.3,3,1,3,2.6
		c0,1.7-1.4,2.7-3,2.9v1.4h-1.6V387c-1.2-0.1-2.5-0.5-3.3-1.2l1-1.5c0.6,0.4,1.4,0.8,2.4,1V383h-0.1c-1.7-0.3-3-1-2.9-2.7
		c0-1.6,1.3-2.6,3-2.8v-1.3L63.9,376.3L63.9,376.3z M62.3,381.3v-1.9c-0.7,0.2-1.1,0.5-1.1,1C61.3,380.9,61.6,381.1,62.3,381.3z
		 M63.9,383.4v1.9c0.6-0.2,1.1-0.5,1.1-1C65,383.9,64.6,383.6,63.9,383.4z"/>
</g>
<g>
	<path class="st0" d="M10.8,168.4c0,1-0.6,1.8-1.5,2.2c1,0.4,1.7,1.2,1.7,2.2c0,1.9-1.8,2.9-3.6,2.9c-1.5,0-2.7-0.5-3.4-1.4l1.1-1.2
		c0.6,0.6,1.4,0.9,2.2,0.9c1,0,1.7-0.4,1.7-1.3c0-0.8-0.9-1.3-1.9-1.3H6v-1.7h1.1c1,0,1.7-0.4,1.7-1.2s-0.7-1.2-1.6-1.2
		s-1.6,0.5-2,1L4,167.1c0.6-0.9,1.7-1.5,3.3-1.5C9.4,165.6,10.8,166.7,10.8,168.4z"/>
	<path class="st0" d="M20.8,170.7c0,3.2-1.9,5.1-4.2,5.1s-4.2-1.9-4.2-5.1c0-3.2,1.9-5.1,4.2-5.1C18.9,165.6,20.8,167.5,20.8,170.7z
		 M14.3,170.7c0,2.1,1,3.3,2.3,3.3s2.3-1.1,2.3-3.3c0-2.1-1-3.3-2.3-3.3S14.3,168.5,14.3,170.7z"/>
	<path class="st0" d="M34.1,170.7c0,3.2-1.9,5.1-4.2,5.1s-4.2-1.9-4.2-5.1c0-3.2,1.9-5.1,4.2-5.1C32.2,165.6,34.1,167.5,34.1,170.7z
		 M27.7,170.7c0,2.1,1,3.3,2.3,3.3s2.3-1.1,2.3-3.3c0-2.1-1-3.3-2.3-3.3S27.7,168.5,27.7,170.7z"/>
	<path class="st0" d="M44,170.7c0,3.2-1.9,5.1-4.2,5.1s-4.2-1.9-4.2-5.1c0-3.2,1.9-5.1,4.2-5.1C42.1,165.6,44,167.5,44,170.7z
		 M37.5,170.7c0,2.1,1,3.3,2.3,3.3s2.3-1.1,2.3-3.3c0-2.1-1-3.3-2.3-3.3S37.5,168.5,37.5,170.7z"/>
	<path class="st0" d="M53.9,170.7c0,3.2-1.9,5.1-4.2,5.1s-4.2-1.9-4.2-5.1c0-3.2,1.9-5.1,4.2-5.1C52,165.6,53.9,167.5,53.9,170.7z
		 M47.4,170.7c0,2.1,1,3.3,2.3,3.3s2.3-1.1,2.3-3.3c0-2.1-1-3.3-2.3-3.3S47.4,168.5,47.4,170.7z"/>
	<path class="st0" d="M63.9,164.6v1.3c1.2,0.1,2.1,0.5,2.9,1l-0.9,1.5c-0.6-0.4-1.3-0.6-2-0.8v2.2c1.7,0.3,3,1,3,2.6
		c0,1.7-1.4,2.7-3,2.9v1.4h-1.6v-1.4c-1.2-0.1-2.5-0.5-3.3-1.2l1-1.5c0.6,0.4,1.4,0.8,2.4,1v-2.3h-0.1c-1.7-0.3-3-1-2.9-2.7
		c0-1.6,1.3-2.6,3-2.8v-1.3h1.5C63.9,164.5,63.9,164.6,63.9,164.6z M62.3,169.6v-1.9c-0.7,0.2-1.1,0.5-1.1,1
		C61.3,169.2,61.6,169.4,62.3,169.6z M63.9,171.7v1.9c0.6-0.2,1.1-0.5,1.1-1C65,172.2,64.6,171.9,63.9,171.7z"/>
</g>
<g>
	<path class="st0" d="M10,101.4h1.4v1.8H10v1.8H8.1v-1.8H3.7v-1.4l3.4-6.6h2.1L6,101.4h2.1v-2.6H10V101.4z"/>
	<path class="st0" d="M20.8,100.1c0,3.2-1.9,5.1-4.2,5.1s-4.2-1.9-4.2-5.1s1.9-5.1,4.2-5.1S20.8,96.9,20.8,100.1z M14.3,100.1
		c0,2.1,1,3.3,2.3,3.3s2.3-1.1,2.3-3.3c0-2.1-1-3.3-2.3-3.3C15.3,96.8,14.3,97.9,14.3,100.1z"/>
	<path class="st0" d="M34.1,100.1c0,3.2-1.9,5.1-4.2,5.1s-4.2-1.9-4.2-5.1s1.9-5.1,4.2-5.1S34.1,96.9,34.1,100.1z M27.7,100.1
		c0,2.1,1,3.3,2.3,3.3s2.3-1.1,2.3-3.3c0-2.1-1-3.3-2.3-3.3C28.7,96.8,27.7,97.9,27.7,100.1z"/>
	<path class="st0" d="M44,100.1c0,3.2-1.9,5.1-4.2,5.1s-4.2-1.9-4.2-5.1s1.9-5.1,4.2-5.1S44,96.9,44,100.1z M37.5,100.1
		c0,2.1,1,3.3,2.3,3.3s2.3-1.1,2.3-3.3c0-2.1-1-3.3-2.3-3.3C38.5,96.8,37.5,97.9,37.5,100.1z"/>
	<path class="st0" d="M53.9,100.1c0,3.2-1.9,5.1-4.2,5.1s-4.2-1.9-4.2-5.1s1.9-5.1,4.2-5.1S53.9,96.9,53.9,100.1z M47.4,100.1
		c0,2.1,1,3.3,2.3,3.3s2.3-1.1,2.3-3.3c0-2.1-1-3.3-2.3-3.3C48.4,96.8,47.4,97.9,47.4,100.1z"/>
	<path class="st0" d="M63.9,94v1.3c1.2,0.1,2.1,0.5,2.9,1l-0.9,1.5c-0.6-0.4-1.3-0.6-2-0.8v2.2c1.7,0.3,3,1,3,2.6
		c0,1.7-1.4,2.7-3,2.9v1.4h-1.6v-1.4c-1.2-0.1-2.5-0.5-3.3-1.2l1-1.5c0.6,0.4,1.4,0.8,2.4,1v-2.3h-0.1c-1.7-0.3-3-1-2.9-2.7
		c0-1.6,1.3-2.6,3-2.8V94H63.9z M62.3,99v-1.9c-0.7,0.2-1.1,0.5-1.1,1C61.3,98.6,61.6,98.8,62.3,99z M63.9,101.1v1.9
		c0.6-0.2,1.1-0.5,1.1-1C65,101.6,64.6,101.3,63.9,101.1z"/>
</g>
<g>
	<path class="st0" d="M10.4,26.3h-4v2h1.1c2.3,0,3.4,1.3,3.4,2.9c0,2.1-1.6,3.3-3.6,3.3c-1.5,0-2.7-0.5-3.5-1.5L5,31.8
		c0.5,0.6,1.5,1,2.4,1c1.1,0,1.6-0.6,1.6-1.4C9,30.6,8.5,30,7,30H4.7l0.1-5.4h5.6V26.3z"/>
	<path class="st0" d="M20.8,29.5c0,3.2-1.9,5.1-4.2,5.1s-4.2-1.9-4.2-5.1s1.9-5.1,4.2-5.1C18.9,24.4,20.8,26.3,20.8,29.5z
		 M14.3,29.5c0,2.1,1,3.3,2.3,3.3s2.3-1.1,2.3-3.3c0-2.1-1-3.3-2.3-3.3S14.3,27.3,14.3,29.5z"/>
	<path class="st0" d="M34.1,29.5c0,3.2-1.9,5.1-4.2,5.1s-4.2-1.9-4.2-5.1s1.9-5.1,4.2-5.1C32.2,24.4,34.1,26.3,34.1,29.5z
		 M27.7,29.5c0,2.1,1,3.3,2.3,3.3s2.3-1.1,2.3-3.3c0-2.1-1-3.3-2.3-3.3S27.7,27.3,27.7,29.5z"/>
	<path class="st0" d="M44,29.5c0,3.2-1.9,5.1-4.2,5.1s-4.2-1.9-4.2-5.1s1.9-5.1,4.2-5.1C42.1,24.4,44,26.3,44,29.5z M37.5,29.5
		c0,2.1,1,3.3,2.3,3.3s2.3-1.1,2.3-3.3c0-2.1-1-3.3-2.3-3.3S37.5,27.3,37.5,29.5z"/>
	<path class="st0" d="M53.9,29.5c0,3.2-1.9,5.1-4.2,5.1s-4.2-1.9-4.2-5.1s1.9-5.1,4.2-5.1C52,24.4,53.9,26.3,53.9,29.5z M47.4,29.5
		c0,2.1,1,3.3,2.3,3.3s2.3-1.1,2.3-3.3c0-2.1-1-3.3-2.3-3.3S47.4,27.3,47.4,29.5z"/>
	<path class="st0" d="M63.9,23.4v1.3c1.2,0.1,2.1,0.5,2.9,1l-0.9,1.5c-0.6-0.4-1.3-0.6-2-0.8v2.2c1.7,0.3,3,1,3,2.6
		c0,1.7-1.4,2.7-3,2.9v1.4h-1.6v-1.4c-1.2-0.1-2.5-0.5-3.3-1.2l1-1.5c0.6,0.4,1.4,0.8,2.4,1v-2.3h-0.1c-1.7-0.3-3-1-2.9-2.7
		c0-1.6,1.3-2.6,3-2.8v-1.3L63.9,23.4L63.9,23.4z M62.3,28.4v-1.9c-0.7,0.2-1.1,0.5-1.1,1C61.3,28,61.6,28.2,62.3,28.4z M63.9,30.5
		v1.9c0.6-0.2,1.1-0.5,1.1-1C65,31,64.6,30.7,63.9,30.5z"/>
</g>
<rect x="164" y="94.8" class="st1" width="58.6" height="217.6"/>
<rect x="382.7" y="251" class="st2" width="58.6" height="61.5"/>
<rect x="601.4" y="304.7" class="st2" width="58.6" height="7.7"/>
<rect x="820.1" y="312.4" class="st2" width="58.6" height="20.1"/>
<rect x="1038.8" y="312.4" class="st2" width="58.6" height="36.7"/>
<g>
	<path class="st0" d="M167.3,365.1l-7,14.3h-3.8l6.9-13.8h-8v-3h11.8v2.5H167.3z"/>
	<path class="st0" d="M173.3,375.6l-1.7,7.1H169l0.8-7.1H173.3z"/>
	<path class="st0" d="M175.2,365.1c0.9-1.2,2.6-2.9,5.7-2.9c3.5,0,5.7,2.2,5.7,5.4c0,2.1-1,3.5-2.4,4.9l-3.6,3.7h6.4v3h-11.1v-2.5
		l5.9-6.1c0.9-0.9,1.4-1.8,1.4-2.9c0-1.5-1-2.5-2.6-2.5s-2.5,0.9-3.4,1.8L175.2,365.1z"/>
	<path class="st0" d="M195.2,373.5c-0.2,0-0.5,0-0.8,0c-3.4,0-5.8-2.4-5.8-5.6c0-3.3,2.7-5.7,6.3-5.7s6.3,2.4,6.3,5.7
		c0,1.5-0.6,2.9-1.6,4.5l-4.7,7H191L195.2,373.5z M197.9,367.9c0-1.6-1.3-2.8-2.9-2.8c-1.7,0-2.9,1.1-2.9,2.8c0,1.6,1.2,2.8,2.9,2.8
		C196.7,370.7,197.9,369.6,197.9,367.9z"/>
	<path class="st0" d="M218.2,366.8c0,2.6-2,4.6-4.7,4.6s-4.7-2-4.7-4.6s2-4.6,4.7-4.6C216.2,362.2,218.2,364.2,218.2,366.8z
		 M211.5,366.8c0,1.2,0.9,2.1,2,2.1c1.2,0,2-0.9,2-2.1s-0.9-2.1-2-2.1C212.4,364.8,211.5,365.6,211.5,366.8z M215.8,379.3h-3.1
		l11.3-16.8h3.1L215.8,379.3z M230.8,375.1c0,2.6-2,4.6-4.7,4.6s-4.7-2-4.7-4.6s2-4.6,4.7-4.6S230.8,372.4,230.8,375.1z
		 M224.1,375.1c0,1.2,0.9,2.1,2,2.1c1.2,0,2-0.9,2-2.1s-0.9-2.1-2-2.1S224.1,373.8,224.1,375.1z"/>
	<path class="st0" d="M152.2,398.5h-1.4v-11.2h1.4V398.5z"/>
	<path class="st0" d="M162,393.8v4.7h-1.3v-4.3c0-1.4-0.8-2.2-2.1-2.2c-1.2,0-2.2,0.8-2.2,2.3v4.3H155V391h1.3v1
		c0.6-0.9,1.6-1.2,2.5-1.2C160.7,390.8,162,392,162,393.8z"/>
	<path class="st0" d="M167.9,398.5h-1.5l-3.2-7.6h1.4l2.6,6.3l2.6-6.3h1.4L167.9,398.5z"/>
	<path class="st0" d="M179.2,394.7c0,0.2,0,0.3,0,0.5h-6c0.2,1.6,1.3,2.4,2.6,2.4c0.9,0,1.7-0.3,2.3-0.9l0.7,0.9
		c-0.9,0.9-2,1.2-3.1,1.2c-2.3,0-3.9-1.6-3.9-4c0-2.3,1.6-4,3.8-4C177.7,390.8,179.2,392.4,179.2,394.7z M173.2,394.2h4.6
		c-0.2-1.3-1-2.2-2.3-2.2C174.3,391.9,173.4,392.9,173.2,394.2z"/>
	<path class="st0" d="M186.4,392.6c-0.5-0.3-1.4-0.7-2.4-0.7s-1.7,0.4-1.7,1.1c0,0.6,0.6,0.9,1.5,1l0.9,0.1c1.6,0.2,2.6,0.9,2.6,2.2
		c0,1.4-1.3,2.4-3.4,2.4c-0.9,0-2.2-0.2-3.2-1l0.6-1c0.6,0.4,1.3,0.8,2.6,0.8c1.2,0,2-0.4,2-1.2c0-0.6-0.5-0.9-1.5-1l-0.9-0.1
		c-1.7-0.2-2.5-1-2.5-2.1c0-1.5,1.2-2.3,3.1-2.3c1.2,0,2.3,0.3,3,0.8L186.4,392.6z"/>
	<path class="st0" d="M194.5,392.1h-3.2v3.7c0,1.1,0.6,1.6,1.4,1.6c0.6,0,1.1-0.2,1.6-0.5l0.6,1c-0.6,0.4-1.3,0.8-2.3,0.8
		c-1.6,0-2.6-0.9-2.6-2.8v-3.7h-1.6V391h1.6v-2.4h1.3v2.4h3.2V392.1z"/>
	<path class="st0" d="M198.1,388.3c0,0.5-0.4,0.9-0.9,0.9s-0.9-0.4-0.9-0.9s0.4-0.9,0.9-0.9C197.7,387.3,198.1,387.7,198.1,388.3z
		 M197.9,398.5h-1.3v-7.6h1.3V398.5z"/>
	<path class="st0" d="M210.1,392.1h-3.2v3.7c0,1.1,0.6,1.6,1.4,1.6c0.6,0,1.1-0.2,1.6-0.5l0.6,1c-0.6,0.4-1.3,0.8-2.3,0.8
		c-1.6,0-2.6-0.9-2.6-2.8v-3.7H204V391h1.6v-2.4h1.3v2.4h3.2V392.1z"/>
	<path class="st0" d="M219.3,394.7c0,2.3-1.7,4-4,4s-4-1.7-4-4s1.7-4,4-4S219.3,392.5,219.3,394.7z M212.6,394.7
		c0,1.6,1.2,2.7,2.7,2.7s2.7-1.1,2.7-2.7s-1.2-2.7-2.7-2.7S212.6,393.2,212.6,394.7z"/>
	<path class="st0" d="M228.3,395.4c0,2.3-1.6,3.3-3.5,3.3c-1.8,0-3.5-1-3.5-3.3V391h1.3v4.3c0,1.6,0.9,2.2,2.2,2.2
		c1.2,0,2.2-0.7,2.2-2.2V391h1.3V395.4z"/>
	<path class="st0" d="M235.9,392.6c-0.5-0.3-1.4-0.7-2.4-0.7s-1.7,0.4-1.7,1.1c0,0.6,0.6,0.9,1.5,1l0.9,0.1c1.6,0.2,2.6,0.9,2.6,2.2
		c0,1.4-1.3,2.4-3.4,2.4c-0.9,0-2.2-0.2-3.2-1l0.6-1c0.6,0.4,1.3,0.8,2.6,0.8c1.2,0,2-0.4,2-1.2c0-0.6-0.5-0.9-1.5-1l-0.9-0.1
		c-1.7-0.2-2.5-1-2.5-2.1c0-1.5,1.2-2.3,3.1-2.3c1.2,0,2.3,0.3,3,0.8L235.9,392.6z"/>
	<path class="st0" d="M164.6,417.7h-1.3v-11.5h1.3V417.7z"/>
	<path class="st0" d="M174.1,413.9c0,0.2,0,0.3,0,0.5h-6c0.2,1.6,1.3,2.4,2.6,2.4c0.9,0,1.7-0.3,2.3-0.9l0.7,0.9
		c-0.9,0.9-2,1.2-3.1,1.2c-2.3,0-3.9-1.6-3.9-4c0-2.3,1.6-4,3.8-4C172.6,410,174.1,411.6,174.1,413.9z M168.1,413.4h4.6
		c-0.2-1.3-1-2.2-2.3-2.2C169.2,411.1,168.3,412.1,168.1,413.4z"/>
	<path class="st0" d="M181.3,411.8c-0.5-0.3-1.4-0.7-2.4-0.7s-1.7,0.4-1.7,1.1c0,0.6,0.6,0.9,1.5,1l0.9,0.1c1.6,0.2,2.6,0.9,2.6,2.2
		c0,1.4-1.3,2.4-3.4,2.4c-0.9,0-2.2-0.2-3.2-1l0.6-1c0.6,0.4,1.3,0.8,2.6,0.8c1.2,0,2-0.4,2-1.2c0-0.6-0.5-0.9-1.5-1l-0.9-0.1
		c-1.7-0.2-2.5-1-2.5-2.1c0-1.5,1.2-2.3,3.1-2.3c1.2,0,2.3,0.3,3,0.8L181.3,411.8z"/>
	<path class="st0" d="M189.8,418.9c0,1.4-0.8,2.2-2,2.2c-0.4,0-0.8-0.1-1.1-0.2l0.3-1.1c0.2,0.1,0.4,0.2,0.7,0.2
		c0.5,0,0.8-0.3,0.8-1v-8.7h1.3V418.9z M190.1,407.5c0,0.5-0.4,0.9-0.9,0.9s-0.9-0.4-0.9-0.9s0.4-0.9,0.9-0.9
		C189.6,406.5,190.1,406.9,190.1,407.5z"/>
	<path class="st0" d="M199.9,413.9c0,2.3-1.7,4-4,4s-4-1.7-4-4s1.7-4,4-4S199.9,411.7,199.9,413.9z M193.2,413.9
		c0,1.6,1.2,2.7,2.7,2.7s2.7-1.1,2.7-2.7s-1.2-2.7-2.7-2.7C194.4,411.2,193.2,412.4,193.2,413.9z"/>
	<path class="st0" d="M208.8,414.6c0,2.3-1.6,3.3-3.5,3.3c-1.8,0-3.5-1-3.5-3.3v-4.4h1.3v4.3c0,1.6,0.9,2.2,2.2,2.2
		c1.2,0,2.2-0.7,2.2-2.2v-4.3h1.3V414.6z"/>
	<path class="st0" d="M216.3,410.2l-0.3,1.3c-0.4-0.2-0.9-0.3-1.3-0.3c-1.2,0-2,0.9-2,2.3v4.2h-1.3v-7.6h1.3v1
		c0.5-0.7,1.3-1.2,2.2-1.2C215.5,410,215.9,410.1,216.3,410.2z"/>
	<path class="st0" d="M223.1,411.8c-0.5-0.3-1.4-0.7-2.4-0.7s-1.7,0.4-1.7,1.1c0,0.6,0.6,0.9,1.5,1l0.9,0.1c1.6,0.2,2.6,0.9,2.6,2.2
		c0,1.4-1.3,2.4-3.4,2.4c-0.9,0-2.2-0.2-3.2-1l0.6-1c0.6,0.4,1.3,0.8,2.6,0.8c1.2,0,2-0.4,2-1.2c0-0.6-0.5-0.9-1.5-1l-0.9-0.1
		c-1.7-0.2-2.5-1-2.5-2.1c0-1.5,1.2-2.3,3.1-2.3c1.2,0,2.3,0.3,3,0.8L223.1,411.8z"/>
</g>
<g>
	<path class="st3" d="M153.4,78h2.3v3h-2.3v3.1h-3.2V81h-7.4v-2.4l5.9-11.4h3.6L146.6,78h3.6v-4.5h3.2L153.4,78L153.4,78z"/>
	<path class="st3" d="M171.9,75.7c0,5.4-3.2,8.7-7.2,8.7s-7.2-3.3-7.2-8.7c0-5.4,3.2-8.7,7.2-8.7S171.9,70.2,171.9,75.7z
		 M160.8,75.7c0,3.7,1.7,5.6,3.9,5.6s3.9-1.9,3.9-5.6s-1.7-5.6-3.9-5.6S160.8,72,160.8,75.7z"/>
	<path class="st3" d="M192.9,71.8c0,1.9-1.1,3.1-2.6,3.8c1.7,0.6,3,1.8,3,3.9c0,3.1-3,4.9-6.6,4.9s-6.6-1.8-6.6-4.9
		c0-2.1,1.3-3.2,3-3.9c-1.5-0.7-2.6-1.9-2.6-3.8c0-3,2.8-4.8,6.2-4.8S192.9,68.8,192.9,71.8z M183.6,79.2c0,1.5,1.4,2.3,3.1,2.3
		c1.7,0,3.1-0.8,3.1-2.3s-1.4-2.3-3.1-2.3C185,76.9,183.6,77.7,183.6,79.2z M184,72.1c0,1.4,1.2,2.2,2.7,2.2s2.7-0.8,2.7-2.2
		c0-1.4-1.2-2.1-2.7-2.1C185.2,69.9,184,70.7,184,72.1z"/>
	<path class="st3" d="M195.1,69.9c0.9-1.2,2.6-2.9,5.7-2.9c3.5,0,5.7,2.2,5.7,5.4c0,2.1-1,3.5-2.4,4.9l-3.6,3.7h6.4v3h-11.1v-2.5
		l5.9-6.1c0.9-0.9,1.4-1.8,1.4-2.9c0-1.5-1-2.5-2.6-2.5s-2.5,0.9-3.4,1.8L195.1,69.9z"/>
	<path class="st3" d="M220.1,71.8c0,1.8-0.9,3.1-2.5,3.8c1.8,0.7,2.9,2,2.9,3.8c0,3.3-3,4.9-6.2,4.9c-2.5,0-4.6-0.9-5.9-2.4l1.9-2.1
		c1,1,2.4,1.6,3.8,1.6c1.6,0,2.9-0.7,2.9-2.2c0-1.4-1.5-2.2-3.3-2.2h-2v-2.9h2c1.6,0,2.9-0.7,2.9-2.1s-1.2-2.1-2.8-2.1
		s-2.7,0.8-3.4,1.7l-2-2.1c1.1-1.5,2.9-2.6,5.6-2.6C217.7,67,220.1,68.9,220.1,71.8z"/>
	<path class="st3" d="M237.5,65.3v2.2c2,0.2,3.5,0.8,5,1.7l-1.5,2.6c-1-0.6-2.2-1.1-3.5-1.3v3.8c2.9,0.5,5.2,1.8,5.2,4.5
		c-0.1,3-2.3,4.6-5.1,5v2.4h-2.7v-2.3c-2.1-0.2-4.3-0.9-5.7-2l1.6-2.5c1,0.7,2.4,1.4,4.1,1.6v-4h-0.1c-2.9-0.5-5.1-1.7-5-4.6
		c0-2.7,2.2-4.5,5.1-4.9v-2.2C234.9,65.3,237.5,65.3,237.5,65.3z M234.8,73.9v-3.3c-1.1,0.3-1.8,0.9-1.8,1.7
		C232.9,73.1,233.6,73.6,234.8,73.9z M237.5,77.5v3.3c1.1-0.3,1.8-0.9,1.9-1.8C239.3,78.3,238.7,77.8,237.5,77.5z"/>
</g>
<g>
	<path class="st0" d="M370.9,240.1h-3.2v-12.5l-4,1.6v-3.3l7.3-2.9L370.9,240.1L370.9,240.1z"/>
	<path class="st0" d="M386.6,227.8c0,1.9-1.1,3.1-2.6,3.8c1.7,0.6,3,1.8,3,3.9c0,3.1-3,4.9-6.6,4.9s-6.6-1.8-6.6-4.9
		c0-2.1,1.3-3.2,3-3.9c-1.5-0.7-2.6-1.9-2.6-3.8c0-3,2.8-4.8,6.2-4.8S386.6,224.8,386.6,227.8z M377.4,235.2c0,1.5,1.4,2.3,3.1,2.3
		s3.1-0.8,3.1-2.3s-1.4-2.3-3.1-2.3S377.4,233.7,377.4,235.2z M377.7,228c0,1.4,1.2,2.2,2.7,2.2s2.7-0.8,2.7-2.2s-1.2-2.1-2.7-2.1
		C379,225.9,377.7,226.7,377.7,228z"/>
	<path class="st0" d="M406.6,225.8l-7,14.3h-3.8l6.9-13.8h-8v-3h11.8v2.5H406.6z"/>
	<path class="st0" d="M422.9,231.7c0,5.4-3.2,8.7-7.2,8.7s-7.2-3.3-7.2-8.7s3.2-8.7,7.2-8.7C419.7,223,422.9,226.2,422.9,231.7z
		 M411.8,231.7c0,3.7,1.7,5.6,3.9,5.6c2.2,0,3.9-1.9,3.9-5.6s-1.7-5.6-3.9-5.6C413.5,226.1,411.8,228,411.8,231.7z"/>
	<path class="st0" d="M435.3,234h2.3v3h-2.3v3.1h-3.2V237h-7.4v-2.4l5.9-11.4h3.6l-5.6,10.7h3.6v-4.5h3.2v4.6L435.3,234L435.3,234z"
		/>
	<path class="st0" d="M454.1,221.3v2.2c2,0.2,3.5,0.8,5,1.7l-1.5,2.6c-1-0.6-2.2-1.1-3.5-1.3v3.8c2.9,0.5,5.2,1.8,5.2,4.5
		c-0.1,3-2.3,4.6-5.1,5v2.4h-2.7v-2.3c-2.1-0.2-4.3-0.9-5.7-2l1.6-2.5c1,0.7,2.4,1.4,4.1,1.6v-4h-0.1c-2.9-0.5-5.1-1.7-5-4.6
		c0-2.7,2.2-4.5,5.1-4.9v-2.2H454.1z M451.4,229.8v-3.3c-1.1,0.3-1.8,0.9-1.8,1.7C449.6,229.1,450.2,229.5,451.4,229.8z
		 M454.1,233.5v3.3c1.1-0.3,1.8-0.9,1.9-1.8C455.9,234.3,455.3,233.8,454.1,233.5z"/>
</g>
<g>
	<path class="st0" d="M592,294.7h-3.2v-12.5l-4,1.6v-3.3l7.3-2.9L592,294.7L592,294.7z"/>
	<path class="st0" d="M601.9,294.7h-3.2v-12.5l-4,1.6v-3.3l7.3-2.9L601.9,294.7L601.9,294.7z"/>
	<path class="st0" d="M625.5,286.3c0,5.4-3.2,8.7-7.2,8.7s-7.2-3.3-7.2-8.7c0-5.4,3.2-8.7,7.2-8.7
		C622.3,277.6,625.5,280.9,625.5,286.3z M614.4,286.3c0,3.7,1.7,5.6,3.9,5.6s3.9-1.9,3.9-5.6s-1.7-5.6-3.9-5.6
		C616.1,280.7,614.4,282.6,614.4,286.3z"/>
	<path class="st0" d="M634.1,288.8c-0.2,0-0.5,0-0.8,0c-3.4,0-5.8-2.4-5.8-5.6c0-3.3,2.7-5.7,6.3-5.7s6.3,2.4,6.3,5.7
		c0,1.5-0.6,2.9-1.6,4.5l-4.7,7H630L634.1,288.8z M636.8,283.3c0-1.6-1.3-2.8-2.9-2.8c-1.7,0-2.9,1.1-2.9,2.8c0,1.6,1.2,2.8,2.9,2.8
		C635.5,286,636.8,284.9,636.8,283.3z"/>
	<path class="st0" d="M641.7,280.5c0.9-1.2,2.6-2.9,5.7-2.9c3.5,0,5.7,2.2,5.7,5.4c0,2.1-1,3.5-2.4,4.9l-3.6,3.7h6.4v3h-11.1v-2.5
		l5.9-6.1c0.9-0.9,1.4-1.8,1.4-2.9c0-1.5-1-2.5-2.6-2.5s-2.5,0.9-3.4,1.8L641.7,280.5z"/>
	<path class="st0" d="M670.3,275.9v2.2c2,0.2,3.5,0.8,5,1.7l-1.5,2.6c-1-0.6-2.2-1.1-3.5-1.3v3.8c2.9,0.5,5.2,1.8,5.2,4.5
		c-0.1,3-2.3,4.6-5.1,5v2.4h-2.7v-2.3c-2.1-0.2-4.3-0.9-5.7-2l1.6-2.5c1,0.7,2.4,1.4,4.1,1.6v-3.9h-0.1c-2.9-0.5-5.1-1.7-5-4.6
		c0-2.7,2.2-4.5,5.1-4.9V276h2.6L670.3,275.9L670.3,275.9z M667.6,284.5v-3.3c-1.1,0.3-1.8,0.9-1.8,1.7
		C665.8,283.7,666.5,284.2,667.6,284.5z M670.3,288.1v3.3c1.1-0.3,1.8-0.9,1.9-1.8C672.2,288.9,671.5,288.4,670.3,288.1z"/>
</g>
<g>
	<path class="st0" d="M822.2,286.7l-7,14.3h-3.8l6.9-13.8h-8v-3h11.8L822.2,286.7L822.2,286.7z"/>
	<path class="st0" d="M836.6,301h-3.2v-12.5l-4,1.6v-3.3l7.3-2.9L836.6,301L836.6,301z"/>
	<path class="st0" d="M850.6,287.2h-6.8l-0.1,3.4h1.9c3.9,0,5.9,2.2,5.9,5c0,3.6-2.7,5.7-6.1,5.7c-2.5,0-4.6-0.9-5.9-2.5l1.8-2.3
		c0.9,1,2.6,1.8,4.1,1.8c1.9,0,2.8-1.1,2.8-2.4s-0.8-2.4-3.4-2.4h-4l0.2-9.3h9.7v3L850.6,287.2L850.6,287.2z"/>
	<path class="st0" d="M864.9,288.7c0,1.8-0.9,3.1-2.5,3.8c1.8,0.7,2.9,2,2.9,3.8c0,3.3-3,4.9-6.2,4.9c-2.5,0-4.6-0.9-5.9-2.4
		l1.9-2.1c1,1,2.4,1.6,3.8,1.6c1.6,0,2.9-0.7,2.9-2.2c0-1.4-1.5-2.2-3.3-2.2h-2V291h2c1.6,0,2.9-0.7,2.9-2.1s-1.2-2.1-2.8-2.1
		s-2.7,0.8-3.4,1.7l-2-2.1c1.1-1.5,2.9-2.6,5.6-2.6C862.5,283.9,864.9,285.8,864.9,288.7z"/>
	<path class="st0" d="M882.2,282.2v2.2c2,0.2,3.5,0.8,5,1.7l-1.5,2.6c-1-0.6-2.2-1.1-3.5-1.3v3.8c2.9,0.5,5.2,1.8,5.2,4.5
		c-0.1,3-2.3,4.6-5.1,5v2.4h-2.7v-2.3c-2.1-0.2-4.3-0.9-5.7-2l1.6-2.5c1,0.7,2.4,1.4,4.1,1.6V294h-0.1c-2.9-0.5-5.1-1.7-5-4.6
		c0-2.7,2.2-4.5,5.1-4.9v-2.2L882.2,282.2L882.2,282.2L882.2,282.2z M879.6,290.7v-3.3c-1.1,0.3-1.8,0.9-1.8,1.7
		C877.7,290,878.4,290.4,879.6,290.7z M882.2,294.4v3.3c1.1-0.3,1.8-0.9,1.9-1.8C884.1,295.2,883.4,294.7,882.2,294.4z"/>
</g>
<g>
	<path class="st0" d="M1035.5,294.7h2.3v3h-2.3v3.1h-3.2v-3.1h-7.4v-2.4l5.9-11.4h3.6l-5.6,10.7h3.6v-4.5h3.2L1035.5,294.7
		L1035.5,294.7L1035.5,294.7z"/>
	<path class="st0" d="M1058.1,288.5c0,1.9-1.1,3.1-2.6,3.8c1.7,0.6,3,1.8,3,3.9c0,3.1-3,4.9-6.6,4.9s-6.6-1.8-6.6-4.9
		c0-2.1,1.3-3.2,3-3.9c-1.5-0.7-2.6-1.9-2.6-3.8c0-3,2.8-4.8,6.2-4.8S1058.1,285.5,1058.1,288.5z M1048.9,296c0,1.5,1.4,2.3,3.1,2.3
		s3.1-0.8,3.1-2.3s-1.4-2.3-3.1-2.3S1048.9,294.5,1048.9,296z M1049.2,288.8c0,1.4,1.2,2.2,2.7,2.2s2.7-0.8,2.7-2.2
		c0-1.4-1.2-2.1-2.7-2.1S1049.2,287.4,1049.2,288.8z"/>
	<path class="st0" d="M1075.3,292.4c0,5.4-3.2,8.7-7.2,8.7s-7.2-3.3-7.2-8.7c0-5.4,3.2-8.7,7.2-8.7
		C1072,283.7,1075.3,287,1075.3,292.4z M1064.1,292.4c0,3.7,1.7,5.6,3.9,5.6s3.9-1.9,3.9-5.6s-1.7-5.6-3.9-5.6
		C1065.9,286.8,1064.1,288.7,1064.1,292.4z"/>
	<path class="st0" d="M1088.8,288.5c0,1.8-0.9,3.1-2.5,3.8c1.8,0.7,2.9,2,2.9,3.8c0,3.3-3,4.9-6.2,4.9c-2.5,0-4.6-0.9-5.9-2.4
		l1.9-2.1c1,1,2.4,1.6,3.8,1.6c1.6,0,2.9-0.7,2.9-2.2c0-1.4-1.5-2.2-3.3-2.2h-2v-2.9h2c1.6,0,2.9-0.7,2.9-2.1s-1.2-2.1-2.8-2.1
		c-1.6,0-2.7,0.8-3.4,1.7l-2-2.1c1.1-1.5,2.9-2.6,5.6-2.6C1086.4,283.7,1088.8,285.6,1088.8,288.5z"/>
	<path class="st0" d="M1106.1,282.1v2.2c2,0.2,3.5,0.8,5,1.7l-1.5,2.6c-1-0.6-2.2-1.1-3.5-1.3v3.8c2.9,0.5,5.2,1.8,5.2,4.5
		c-0.1,3-2.3,4.6-5.1,5v2.4h-2.7v-2.3c-2.1-0.2-4.3-0.9-5.7-2l1.6-2.5c1,0.7,2.4,1.4,4.1,1.6v-3.9h-0.1c-2.9-0.5-5.1-1.7-5-4.6
		c0-2.7,2.2-4.5,5.1-4.9v-2.2h2.6V282.1z M1103.4,290.6v-3.3c-1.1,0.3-1.8,0.9-1.8,1.7C1101.6,289.9,1102.3,290.3,1103.4,290.6z
		 M1106.1,294.2v3.3c1.1-0.3,1.8-0.9,1.9-1.8C1108,295,1107.3,294.6,1106.1,294.2z"/>
</g>
<g>
	<g>
		<path class="st0" d="M386.8,367.1c0,1.8-0.9,3.1-2.5,3.8c1.8,0.7,2.9,2,2.9,3.8c0,3.3-3,4.9-6.2,4.9c-2.5,0-4.6-0.9-5.9-2.4
			l1.9-2.1c1,1,2.4,1.6,3.8,1.6c1.6,0,2.9-0.7,2.9-2.2c0-1.4-1.5-2.2-3.3-2.2h-2v-2.9h2c1.6,0,2.9-0.7,2.9-2.1s-1.2-2.1-2.8-2.1
			s-2.7,0.8-3.4,1.7l-2-2.1c1.1-1.5,2.9-2.6,5.6-2.6C384.4,362.2,386.8,364.2,386.8,367.1z"/>
		<path class="st0" d="M393.6,375.6l-1.7,7.1h-2.6l0.8-7.1H393.6z"/>
		<path class="st0" d="M402.5,379.3h-3.2v-12.5l-4,1.6v-3.3l7.3-2.9L402.5,379.3L402.5,379.3z"/>
		<path class="st0" d="M418.3,367.1c0,1.9-1.1,3.1-2.6,3.8c1.7,0.6,3,1.8,3,3.9c0,3.1-3,4.9-6.6,4.9s-6.6-1.8-6.6-4.9
			c0-2.1,1.3-3.2,3-3.9c-1.5-0.7-2.6-1.9-2.6-3.8c0-3,2.8-4.8,6.2-4.8S418.3,364,418.3,367.1z M409,374.5c0,1.5,1.4,2.3,3.1,2.3
			s3.1-0.8,3.1-2.3s-1.4-2.3-3.1-2.3S409,373,409,374.5z M409.4,367.3c0,1.4,1.2,2.2,2.7,2.2s2.7-0.8,2.7-2.2c0-1.4-1.2-2.1-2.7-2.1
			C410.6,365.2,409.4,365.9,409.4,367.3z"/>
		<path class="st0" d="M435.9,366.8c0,2.6-2,4.6-4.7,4.6s-4.7-2-4.7-4.6s2-4.6,4.7-4.6C433.9,362.2,435.9,364.2,435.9,366.8z
			 M429.2,366.8c0,1.2,0.9,2.1,2,2.1c1.2,0,2-0.9,2-2.1s-0.9-2.1-2-2.1C430.1,364.8,429.2,365.6,429.2,366.8z M433.5,379.3h-3.1
			l11.3-16.8h3.1L433.5,379.3z M448.5,375.1c0,2.6-2,4.6-4.7,4.6s-4.7-2-4.7-4.6s2-4.6,4.7-4.6S448.5,372.4,448.5,375.1z
			 M441.8,375.1c0,1.2,0.9,2.1,2,2.1c1.2,0,2-0.9,2-2.1s-0.9-2.1-2-2.1C442.7,373,441.8,373.8,441.8,375.1z"/>
		<path class="st0" d="M381.4,398.5H380v-9.6l-3.8,8.4h-1.5L371,389v9.6h-1.4v-11.2h2.2l3.8,8.4l3.8-8.4h2.2v11.1H381.4z"/>
		<path class="st0" d="M391.6,398.5h-1.3v-1c-0.6,0.7-1.5,1.2-2.7,1.2c-2.1,0-3.8-1.7-3.8-4s1.7-4,3.8-4c1.2,0,2.1,0.5,2.7,1.2v-1
			h1.3V398.5z M385.2,394.7c0,1.5,1.1,2.7,2.6,2.7s2.6-1.2,2.6-2.7c0-1.6-1.1-2.7-2.6-2.7C386.2,392,385.2,393.2,385.2,394.7z"/>
		<path class="st0" d="M401.2,393.8v4.7h-1.3v-4.3c0-1.4-0.8-2.2-2.1-2.2c-1.2,0-2.2,0.8-2.2,2.3v4.3h-1.3V391h1.3v1
			c0.6-0.9,1.6-1.2,2.5-1.2C399.9,390.8,401.2,392,401.2,393.8z"/>
		<path class="st0" d="M409.7,392v-1h1.3v10.8h-1.3v-4.2c-0.6,0.7-1.5,1.2-2.7,1.2c-2.1,0-3.8-1.7-3.8-4s1.7-4,3.8-4
			C408.2,390.8,409.1,391.2,409.7,392z M404.6,394.7c0,1.5,1.1,2.7,2.6,2.7s2.6-1.2,2.6-2.7c0-1.6-1.1-2.7-2.6-2.7
			C405.6,392,404.6,393.2,404.6,394.7z"/>
		<path class="st0" d="M420.5,395.4c0,2.3-1.6,3.3-3.5,3.3c-1.8,0-3.5-1-3.5-3.3V391h1.3v4.3c0,1.6,0.9,2.2,2.2,2.2
			c1.2,0,2.2-0.7,2.2-2.2V391h1.3V395.4z"/>
		<path class="st0" d="M429.9,394.7c0,0.2,0,0.3,0,0.5h-6c0.2,1.6,1.3,2.4,2.6,2.4c0.9,0,1.7-0.3,2.3-0.9l0.7,0.9
			c-0.9,0.9-2,1.2-3.1,1.2c-2.3,0-3.9-1.6-3.9-4c0-2.3,1.6-4,3.8-4C428.4,390.8,429.9,392.4,429.9,394.7z M423.9,394.2h4.6
			c-0.2-1.3-1-2.2-2.3-2.2C425,391.9,424.1,392.9,423.9,394.2z M425.2,389.8l1.6-2.4h1.7l-2,2.4H425.2z"/>
		<path class="st0" d="M437.7,398.5h-1.3V387h1.3V398.5z"/>
		<path class="st0" d="M447.2,394.7c0,0.2,0,0.3,0,0.5h-6c0.2,1.6,1.3,2.4,2.6,2.4c0.9,0,1.7-0.3,2.3-0.9l0.7,0.9
			c-0.9,0.9-2,1.2-3.1,1.2c-2.3,0-3.9-1.6-3.9-4c0-2.3,1.6-4,3.8-4C445.7,390.8,447.2,392.4,447.2,394.7z M441.2,394.2h4.6
			c-0.2-1.3-1-2.2-2.3-2.2C442.2,391.9,441.4,392.9,441.2,394.2z"/>
		<path class="st0" d="M454.4,392.6c-0.5-0.3-1.4-0.7-2.4-0.7s-1.7,0.4-1.7,1.1c0,0.6,0.6,0.9,1.5,1l0.9,0.1
			c1.6,0.2,2.6,0.9,2.6,2.2c0,1.4-1.3,2.4-3.4,2.4c-0.9,0-2.2-0.2-3.2-1l0.6-1c0.6,0.4,1.3,0.8,2.6,0.8c1.2,0,2-0.4,2-1.2
			c0-0.6-0.5-0.9-1.5-1l-0.9-0.1c-1.7-0.2-2.5-1-2.5-2.1c0-1.5,1.2-2.3,3.1-2.3c1.2,0,2.3,0.3,3,0.8L454.4,392.6z"/>
		<path class="st0" d="M349.7,416.5v-8.2l-3.2,1.1V408l4.5-1.6v10.1h2.9v1.3h-7.3v-1.3H349.7z"/>
		<path class="st0" d="M363.4,412.1c0,4.1-1.9,5.8-4.2,5.8c-2.3,0-4.2-1.6-4.2-5.8c0-4.1,1.9-5.8,4.2-5.8
			C361.5,406.4,363.4,408.2,363.4,412.1z M356.4,412.1c0,3.3,1.3,4.5,2.8,4.5s2.8-1.2,2.8-4.5c0-3.1-1.3-4.5-2.8-4.5
			C357.7,407.7,356.4,408.9,356.4,412.1z"/>
		<path class="st0" d="M382.3,413v4.7H381v-4.3c0-1.4-0.8-2.2-2.1-2.2c-1.3,0-2.2,0.9-2.2,2.3v4.3h-1.3v-4.3c0-1.4-0.8-2.2-2.1-2.2
			c-1.2,0-2.2,0.8-2.2,2.3v4.3h-1.3v-7.6h1.3v1c0.6-0.9,1.6-1.2,2.5-1.2c1.3,0,2.3,0.6,2.8,1.5c0.6-1.2,1.8-1.5,2.8-1.5
			C381,410,382.3,411.2,382.3,413z"/>
		<path class="st0" d="M391.7,413.9c0,0.2,0,0.3,0,0.5h-6c0.2,1.6,1.3,2.4,2.6,2.4c0.9,0,1.7-0.3,2.3-0.9l0.7,0.9
			c-0.9,0.9-2,1.2-3.1,1.2c-2.3,0-3.9-1.6-3.9-4c0-2.3,1.6-4,3.8-4C390.2,410,391.7,411.6,391.7,413.9z M385.7,413.4h4.6
			c-0.2-1.3-1-2.2-2.3-2.2C386.8,411.1,385.9,412.1,385.7,413.4z"/>
		<path class="st0" d="M395.4,407.5c0,0.5-0.4,0.9-0.9,0.9s-0.9-0.4-0.9-0.9s0.4-0.9,0.9-0.9S395.4,406.9,395.4,407.5z M395.1,417.7
			h-1.3v-7.6h1.3V417.7z"/>
		<path class="st0" d="M399,417.7h-1.3v-11.5h1.3V417.7z"/>
		<path class="st0" d="M402.9,417.7h-1.3v-11.5h1.3V417.7z"/>
		<path class="st0" d="M412.4,413.9c0,0.2,0,0.3,0,0.5h-6c0.2,1.6,1.3,2.4,2.6,2.4c0.9,0,1.7-0.3,2.3-0.9l0.7,0.9
			c-0.9,0.9-2,1.2-3.1,1.2c-2.3,0-3.9-1.6-3.9-4c0-2.3,1.6-4,3.8-4C410.9,410,412.4,411.6,412.4,413.9z M406.4,413.4h4.6
			c-0.2-1.3-1-2.2-2.3-2.2C407.5,411.1,406.6,412.1,406.4,413.4z"/>
		<path class="st0" d="M421.4,414.6c0,2.3-1.6,3.3-3.5,3.3c-1.8,0-3.5-1-3.5-3.3v-4.4h1.3v4.3c0,1.6,0.9,2.2,2.2,2.2
			c1.2,0,2.2-0.7,2.2-2.2v-4.3h1.3V414.6z"/>
		<path class="st0" d="M428.8,410.2l-0.3,1.3c-0.4-0.2-0.9-0.3-1.3-0.3c-1.2,0-2,0.9-2,2.3v4.2h-1.3v-7.6h1.3v1
			c0.5-0.7,1.3-1.2,2.2-1.2C428,410,428.4,410.1,428.8,410.2z"/>
		<path class="st0" d="M435.6,411.8c-0.5-0.3-1.4-0.7-2.4-0.7s-1.7,0.4-1.7,1.1c0,0.6,0.6,0.9,1.5,1l0.9,0.1
			c1.6,0.2,2.6,0.9,2.6,2.2c0,1.4-1.3,2.4-3.4,2.4c-0.9,0-2.2-0.2-3.2-1l0.6-1c0.6,0.4,1.3,0.8,2.6,0.8c1.2,0,2-0.4,2-1.2
			c0-0.6-0.5-0.9-1.5-1l-0.9-0.1c-1.7-0.2-2.5-1-2.5-2.1c0-1.5,1.2-2.3,3.1-2.3c1.2,0,2.3,0.3,3,0.8L435.6,411.8z"/>
		<path class="st0" d="M444.1,418.9c0,1.4-0.8,2.2-2,2.2c-0.4,0-0.8-0.1-1.1-0.2l0.3-1.1c0.2,0.1,0.4,0.2,0.7,0.2
			c0.5,0,0.8-0.3,0.8-1v-8.7h1.3L444.1,418.9L444.1,418.9z M444.3,407.5c0,0.5-0.4,0.9-0.9,0.9s-0.9-0.4-0.9-0.9s0.4-0.9,0.9-0.9
			C443.9,406.5,444.3,406.9,444.3,407.5z"/>
		<path class="st0" d="M454.2,413.9c0,2.3-1.7,4-4,4s-4-1.7-4-4s1.7-4,4-4S454.2,411.7,454.2,413.9z M447.5,413.9
			c0,1.6,1.2,2.7,2.7,2.7s2.7-1.1,2.7-2.7s-1.2-2.7-2.7-2.7C448.6,411.2,447.5,412.4,447.5,413.9z"/>
		<path class="st0" d="M463.1,414.6c0,2.3-1.6,3.3-3.5,3.3c-1.8,0-3.5-1-3.5-3.3v-4.4h1.3v4.3c0,1.6,0.9,2.2,2.2,2.2
			c1.2,0,2.2-0.7,2.2-2.2v-4.3h1.3V414.6z"/>
		<path class="st0" d="M470.6,410.2l-0.3,1.3c-0.4-0.2-0.9-0.3-1.3-0.3c-1.2,0-2,0.9-2,2.3v4.2h-1.3v-7.6h1.3v1
			c0.5-0.7,1.3-1.2,2.2-1.2C469.7,410,470.2,410.1,470.6,410.2z"/>
		<path class="st0" d="M477.4,411.8c-0.5-0.3-1.4-0.7-2.4-0.7s-1.7,0.4-1.7,1.1c0,0.6,0.6,0.9,1.5,1l0.9,0.1
			c1.6,0.2,2.6,0.9,2.6,2.2c0,1.4-1.3,2.4-3.4,2.4c-0.9,0-2.2-0.2-3.2-1l0.6-1c0.6,0.4,1.3,0.8,2.6,0.8c1.2,0,2-0.4,2-1.2
			c0-0.6-0.5-0.9-1.5-1l-0.9-0.1c-1.7-0.2-2.5-1-2.5-2.1c0-1.5,1.2-2.3,3.1-2.3c1.2,0,2.3,0.3,3,0.8L477.4,411.8z"/>
	</g>
</g>
<g>
	<g>
		<path class="st0" d="M606.1,370.9c0,5.4-3.2,8.7-7.2,8.7s-7.2-3.3-7.2-8.7c0-5.4,3.2-8.7,7.2-8.7
			C602.9,362.2,606.1,365.5,606.1,370.9z M595,370.9c0,3.7,1.7,5.6,3.9,5.6s3.9-1.9,3.9-5.6s-1.7-5.6-3.9-5.6
			C596.7,365.4,595,367.3,595,370.9z"/>
		<path class="st0" d="M612.6,375.6l-1.7,7.1h-2.6l0.8-7.1H612.6z"/>
		<path class="st0" d="M625.7,365.6h-6.8l-0.1,3.4h1.9c3.9,0,5.9,2.2,5.9,5c0,3.6-2.7,5.7-6.1,5.7c-2.5,0-4.6-0.9-5.9-2.5l1.8-2.3
			c0.9,1,2.6,1.8,4.1,1.8c1.9,0,2.8-1.1,2.8-2.4s-0.8-2.4-3.4-2.4h-4l0.2-9.3h9.7v3L625.7,365.6L625.7,365.6z"/>
		<path class="st0" d="M628.5,365.1c0.9-1.2,2.6-2.9,5.7-2.9c3.5,0,5.7,2.2,5.7,5.4c0,2.1-1,3.5-2.4,4.9l-3.6,3.7h6.4v3h-11.1v-2.5
			l5.9-6.1c0.9-0.9,1.4-1.8,1.4-2.9c0-1.5-1-2.5-2.6-2.5s-2.5,0.9-3.4,1.8L628.5,365.1z"/>
		<path class="st0" d="M657.4,366.8c0,2.6-2,4.6-4.7,4.6s-4.7-2-4.7-4.6s2-4.6,4.7-4.6C655.4,362.2,657.4,364.2,657.4,366.8z
			 M650.7,366.8c0,1.2,0.9,2.1,2,2.1c1.2,0,2-0.9,2-2.1s-0.9-2.1-2-2.1C651.6,364.8,650.7,365.6,650.7,366.8z M655,379.3h-3.1
			l11.3-16.8h3.1L655,379.3z M670,375.1c0,2.6-2,4.6-4.7,4.6s-4.7-2-4.7-4.6s2-4.6,4.7-4.6S670,372.4,670,375.1z M663.3,375.1
			c0,1.2,0.9,2.1,2,2.1c1.2,0,2-0.9,2-2.1s-0.9-2.1-2-2.1S663.3,373.8,663.3,375.1z"/>
		<path class="st0" d="M600.1,398.5h-1.4v-9.6l-3.8,8.4h-1.5l-3.8-8.4v9.6h-1.4v-11.2h2.2l3.8,8.4l3.8-8.4h2.2L600.1,398.5
			L600.1,398.5z"/>
		<path class="st0" d="M610.3,398.5H609v-1c-0.6,0.7-1.5,1.2-2.7,1.2c-2.1,0-3.8-1.7-3.8-4s1.7-4,3.8-4c1.2,0,2.1,0.5,2.7,1.2v-1
			h1.3V398.5z M603.9,394.7c0,1.5,1.1,2.7,2.6,2.7s2.6-1.2,2.6-2.7c0-1.6-1.1-2.7-2.6-2.7C604.9,392,603.9,393.2,603.9,394.7z"/>
		<path class="st0" d="M619.9,393.8v4.7h-1.3v-4.3c0-1.4-0.8-2.2-2.1-2.2c-1.2,0-2.2,0.8-2.2,2.3v4.3H613V391h1.3v1
			c0.6-0.9,1.6-1.2,2.5-1.2C618.6,390.8,619.9,392,619.9,393.8z"/>
		<path class="st0" d="M628.4,392v-1h1.3v10.8h-1.3v-4.2c-0.6,0.7-1.5,1.2-2.7,1.2c-2.1,0-3.8-1.7-3.8-4s1.7-4,3.8-4
			C626.9,390.8,627.8,391.2,628.4,392z M623.3,394.7c0,1.5,1.1,2.7,2.6,2.7s2.6-1.2,2.6-2.7c0-1.6-1.1-2.7-2.6-2.7
			C624.3,392,623.3,393.2,623.3,394.7z"/>
		<path class="st0" d="M639.2,395.4c0,2.3-1.6,3.3-3.5,3.3c-1.8,0-3.5-1-3.5-3.3V391h1.3v4.3c0,1.6,0.9,2.2,2.2,2.2
			c1.2,0,2.2-0.7,2.2-2.2V391h1.3V395.4z"/>
		<path class="st0" d="M648.6,394.7c0,0.2,0,0.3,0,0.5h-6c0.2,1.6,1.3,2.4,2.6,2.4c0.9,0,1.7-0.3,2.3-0.9l0.7,0.9
			c-0.9,0.9-2,1.2-3.1,1.2c-2.3,0-3.9-1.6-3.9-4c0-2.3,1.6-4,3.8-4C647.1,390.8,648.6,392.4,648.6,394.7z M642.6,394.2h4.6
			c-0.2-1.3-1-2.2-2.3-2.2C643.7,391.9,642.8,392.9,642.6,394.2z M643.9,389.8l1.6-2.4h1.7l-2,2.4H643.9z"/>
		<path class="st0" d="M656.4,398.5h-1.3V387h1.3V398.5z"/>
		<path class="st0" d="M665.9,394.7c0,0.2,0,0.3,0,0.5h-6c0.2,1.6,1.3,2.4,2.6,2.4c0.9,0,1.7-0.3,2.3-0.9l0.7,0.9
			c-0.9,0.9-2,1.2-3.1,1.2c-2.3,0-3.9-1.6-3.9-4c0-2.3,1.6-4,3.8-4C664.4,390.8,665.9,392.4,665.9,394.7z M659.9,394.2h4.6
			c-0.2-1.3-1-2.2-2.3-2.2C660.9,391.9,660.1,392.9,659.9,394.2z"/>
		<path class="st0" d="M673.1,392.6c-0.5-0.3-1.4-0.7-2.4-0.7s-1.7,0.4-1.7,1.1c0,0.6,0.6,0.9,1.5,1l0.9,0.1
			c1.6,0.2,2.6,0.9,2.6,2.2c0,1.4-1.3,2.4-3.4,2.4c-0.9,0-2.2-0.2-3.2-1l0.6-1c0.6,0.4,1.3,0.8,2.6,0.8c1.2,0,2-0.4,2-1.2
			c0-0.6-0.5-0.9-1.5-1l-0.9-0.1c-1.7-0.2-2.5-1-2.5-2.1c0-1.5,1.2-2.3,3.1-2.3c1.2,0,2.3,0.3,3,0.8L673.1,392.6z"/>
		<path class="st0" d="M564.8,408.2c0.5-0.8,1.5-1.9,3.5-1.9c2.3,0,3.6,1.5,3.6,3.5c0,1.4-0.8,2.4-1.5,3.2l-3.2,3.4h5.1v1.3h-7.1
			v-1.1l4.2-4.4c0.7-0.7,1.1-1.5,1.1-2.4c0-1.2-0.8-2.2-2.2-2.2c-1.2,0-1.9,0.6-2.4,1.4L564.8,408.2z"/>
		<path class="st0" d="M582.2,412.1c0,4.1-1.9,5.8-4.2,5.8s-4.2-1.6-4.2-5.8c0-4.1,1.9-5.8,4.2-5.8
			C580.3,406.4,582.2,408.2,582.2,412.1z M575.2,412.1c0,3.3,1.3,4.5,2.8,4.5s2.8-1.2,2.8-4.5c0-3.1-1.3-4.5-2.8-4.5
			C576.5,407.7,575.2,408.9,575.2,412.1z"/>
		<path class="st0" d="M601,413v4.7h-1.3v-4.3c0-1.4-0.8-2.2-2.1-2.2s-2.2,0.9-2.2,2.3v4.3h-1.3v-4.3c0-1.4-0.8-2.2-2.1-2.2
			c-1.2,0-2.2,0.8-2.2,2.3v4.3h-1.3v-7.6h1.3v1c0.6-0.9,1.6-1.2,2.5-1.2c1.3,0,2.3,0.6,2.8,1.5c0.6-1.2,1.8-1.5,2.8-1.5
			C599.7,410,601,411.2,601,413z"/>
		<path class="st0" d="M610.4,413.9c0,0.2,0,0.3,0,0.5h-6c0.2,1.6,1.3,2.4,2.6,2.4c0.9,0,1.7-0.3,2.3-0.9l0.7,0.9
			c-0.9,0.9-2,1.2-3.1,1.2c-2.3,0-3.9-1.6-3.9-4c0-2.3,1.6-4,3.8-4C608.9,410,610.4,411.6,610.4,413.9z M604.5,413.4h4.6
			c-0.2-1.3-1-2.2-2.3-2.2C605.5,411.1,604.7,412.1,604.5,413.4z"/>
		<path class="st0" d="M614.1,407.5c0,0.5-0.4,0.9-0.9,0.9s-0.9-0.4-0.9-0.9s0.4-0.9,0.9-0.9C613.7,406.5,614.1,406.9,614.1,407.5z
			 M613.8,417.7h-1.3v-7.6h1.3V417.7z"/>
		<path class="st0" d="M617.7,417.7h-1.3v-11.5h1.3V417.7z"/>
		<path class="st0" d="M621.7,417.7h-1.3v-11.5h1.3V417.7z"/>
		<path class="st0" d="M631.1,413.9c0,0.2,0,0.3,0,0.5h-6c0.2,1.6,1.3,2.4,2.6,2.4c0.9,0,1.7-0.3,2.3-0.9l0.7,0.9
			c-0.9,0.9-2,1.2-3.1,1.2c-2.3,0-3.9-1.6-3.9-4c0-2.3,1.6-4,3.8-4C629.6,410,631.1,411.6,631.1,413.9z M625.2,413.4h4.6
			c-0.2-1.3-1-2.2-2.3-2.2C626.2,411.1,625.4,412.1,625.2,413.4z"/>
		<path class="st0" d="M640.1,414.6c0,2.3-1.6,3.3-3.5,3.3c-1.8,0-3.5-1-3.5-3.3v-4.4h1.3v4.3c0,1.6,0.9,2.2,2.2,2.2
			c1.2,0,2.2-0.7,2.2-2.2v-4.3h1.3V414.6z"/>
		<path class="st0" d="M647.5,410.2l-0.3,1.3c-0.4-0.2-0.9-0.3-1.3-0.3c-1.2,0-2,0.9-2,2.3v4.2h-1.3v-7.6h1.3v1
			c0.5-0.7,1.3-1.2,2.2-1.2C646.7,410,647.1,410.1,647.5,410.2z"/>
		<path class="st0" d="M654.3,411.8c-0.5-0.3-1.4-0.7-2.4-0.7s-1.7,0.4-1.7,1.1c0,0.6,0.6,0.9,1.5,1l0.9,0.1
			c1.6,0.2,2.6,0.9,2.6,2.2c0,1.4-1.3,2.4-3.4,2.4c-0.9,0-2.2-0.2-3.2-1l0.6-1c0.6,0.4,1.3,0.8,2.6,0.8c1.2,0,2-0.4,2-1.2
			c0-0.6-0.5-0.9-1.5-1l-0.9-0.1c-1.7-0.2-2.5-1-2.5-2.1c0-1.5,1.2-2.3,3.1-2.3c1.2,0,2.3,0.3,3,0.8L654.3,411.8z"/>
		<path class="st0" d="M662.8,418.9c0,1.4-0.8,2.2-2,2.2c-0.4,0-0.8-0.1-1.1-0.2l0.3-1.1c0.2,0.1,0.4,0.2,0.7,0.2
			c0.5,0,0.8-0.3,0.8-1v-8.7h1.3V418.9z M663.1,407.5c0,0.5-0.4,0.9-0.9,0.9s-0.9-0.4-0.9-0.9s0.4-0.9,0.9-0.9
			S663.1,406.9,663.1,407.5z"/>
		<path class="st0" d="M672.9,413.9c0,2.3-1.7,4-4,4s-4-1.7-4-4s1.7-4,4-4S672.9,411.7,672.9,413.9z M666.2,413.9
			c0,1.6,1.2,2.7,2.7,2.7s2.7-1.1,2.7-2.7s-1.2-2.7-2.7-2.7C667.4,411.2,666.2,412.4,666.2,413.9z"/>
		<path class="st0" d="M681.9,414.6c0,2.3-1.6,3.3-3.5,3.3c-1.8,0-3.5-1-3.5-3.3v-4.4h1.3v4.3c0,1.6,0.9,2.2,2.2,2.2
			c1.2,0,2.2-0.7,2.2-2.2v-4.3h1.3V414.6z"/>
		<path class="st0" d="M689.3,410.2l-0.3,1.3c-0.4-0.2-0.9-0.3-1.3-0.3c-1.2,0-2,0.9-2,2.3v4.2h-1.3v-7.6h1.3v1
			c0.5-0.7,1.3-1.2,2.2-1.2C688.5,410,688.9,410.1,689.3,410.2z"/>
		<path class="st0" d="M696.1,411.8c-0.5-0.3-1.4-0.7-2.4-0.7s-1.7,0.4-1.7,1.1c0,0.6,0.6,0.9,1.5,1l0.9,0.1
			c1.6,0.2,2.6,0.9,2.6,2.2c0,1.4-1.3,2.4-3.4,2.4c-0.9,0-2.2-0.2-3.2-1l0.6-1c0.6,0.4,1.3,0.8,2.6,0.8c1.2,0,2-0.4,2-1.2
			c0-0.6-0.5-0.9-1.5-1l-0.9-0.1c-1.7-0.2-2.5-1-2.5-2.1c0-1.5,1.2-2.3,3.1-2.3c1.2,0,2.3,0.3,3,0.8L696.1,411.8z"/>
	</g>
</g>
<g>
	<g>
		<path class="st0" d="M815.8,374.2h-7.1v-2.7h7.1V374.2z"/>
		<path class="st0" d="M825,379.2h-3.2v-12.5l-4,1.6V365l7.3-2.9L825,379.2L825,379.2z"/>
		<path class="st0" d="M832.3,375.5l-1.7,7.1H828l0.8-7.1H832.3z"/>
		<path class="st0" d="M840.1,368.3c0.2,0,0.5,0,0.8,0c3.4,0,5.8,2.4,5.8,5.6c0,3.3-2.7,5.7-6.3,5.7s-6.3-2.4-6.3-5.7
			c0-1.5,0.6-2.9,1.6-4.5l4.7-7h3.9L840.1,368.3z M837.5,373.8c0,1.6,1.3,2.8,2.9,2.8c1.7,0,3-1.1,3-2.8c0-1.6-1.3-2.8-3-2.8
			C838.7,371.1,837.5,372.2,837.5,373.8z"/>
		<path class="st0" d="M854.3,368.3c0.2,0,0.5,0,0.8,0c3.4,0,5.8,2.4,5.8,5.6c0,3.3-2.7,5.7-6.3,5.7s-6.3-2.4-6.3-5.7
			c0-1.5,0.6-2.9,1.6-4.5l4.7-7h3.9L854.3,368.3z M851.6,373.8c0,1.6,1.3,2.8,2.9,2.8c1.7,0,3-1.1,3-2.8c0-1.6-1.3-2.8-3-2.8
			C852.9,371.1,851.6,372.2,851.6,373.8z"/>
		<path class="st0" d="M877.9,366.7c0,2.6-2,4.6-4.7,4.6s-4.7-2-4.7-4.6s2-4.6,4.7-4.6S877.9,364.1,877.9,366.7z M871.2,366.7
			c0,1.2,0.9,2.1,2,2.1c1.2,0,2-0.9,2-2.1s-0.9-2.1-2-2.1C872,364.7,871.2,365.5,871.2,366.7z M875.4,379.2h-3.1l11.3-16.8h3.1
			L875.4,379.2z M890.5,375c0,2.6-2,4.6-4.7,4.6s-4.7-2-4.7-4.6s2-4.6,4.7-4.6S890.5,372.3,890.5,375z M883.8,375
			c0,1.2,0.9,2.1,2,2.1c1.2,0,2-0.9,2-2.1s-0.9-2.1-2-2.1C884.6,372.9,883.8,373.7,883.8,375z"/>
		<path class="st0" d="M818.8,398.4h-1.4v-9.6l-3.8,8.4h-1.5l-3.8-8.4v9.6H807v-11.2h2.2l3.8,8.4l3.8-8.4h2.2v11.2H818.8z"/>
		<path class="st0" d="M829,398.4h-1.3v-1c-0.6,0.7-1.5,1.2-2.7,1.2c-2.1,0-3.8-1.7-3.8-4s1.7-4,3.8-4c1.2,0,2.1,0.5,2.7,1.2v-1h1.3
			V398.4z M822.6,394.6c0,1.5,1.1,2.7,2.6,2.7s2.6-1.2,2.6-2.7c0-1.6-1.1-2.7-2.6-2.7C823.6,391.9,822.6,393.1,822.6,394.6z"/>
		<path class="st0" d="M838.6,393.7v4.7h-1.3v-4.3c0-1.4-0.8-2.2-2.1-2.2c-1.2,0-2.2,0.8-2.2,2.3v4.3h-1.3v-7.6h1.3v1
			c0.6-0.9,1.6-1.2,2.5-1.2C837.3,390.7,838.6,391.9,838.6,393.7z"/>
		<path class="st0" d="M847.1,391.9v-1h1.3v10.8h-1.3v-4.2c-0.6,0.7-1.5,1.2-2.7,1.2c-2.1,0-3.8-1.7-3.8-4s1.7-4,3.8-4
			C845.6,390.7,846.5,391.1,847.1,391.9z M842,394.6c0,1.5,1.1,2.7,2.6,2.7s2.6-1.2,2.6-2.7c0-1.6-1.1-2.7-2.6-2.7
			C843,391.9,842,393.1,842,394.6z"/>
		<path class="st0" d="M857.9,395.3c0,2.3-1.6,3.3-3.5,3.3c-1.8,0-3.5-1-3.5-3.3v-4.4h1.3v4.3c0,1.6,0.9,2.2,2.2,2.2
			c1.2,0,2.2-0.7,2.2-2.2v-4.3h1.3V395.3z"/>
		<path class="st0" d="M867.3,394.6c0,0.2,0,0.3,0,0.5h-6c0.2,1.6,1.3,2.4,2.6,2.4c0.9,0,1.7-0.3,2.3-0.9l0.7,0.9
			c-0.9,0.9-2,1.2-3.1,1.2c-2.3,0-3.9-1.6-3.9-4c0-2.3,1.6-4,3.8-4C865.8,390.7,867.3,392.3,867.3,394.6z M861.3,394.1h4.6
			c-0.2-1.3-1-2.2-2.3-2.2C862.4,391.8,861.5,392.8,861.3,394.1z M862.6,389.7l1.6-2.4h1.7l-2,2.4H862.6z"/>
		<path class="st0" d="M875.1,398.4h-1.3v-11.5h1.3V398.4z"/>
		<path class="st0" d="M884.6,394.6c0,0.2,0,0.3,0,0.5h-6c0.2,1.6,1.3,2.4,2.6,2.4c0.9,0,1.7-0.3,2.3-0.9l0.7,0.9
			c-0.9,0.9-2,1.2-3.1,1.2c-2.3,0-3.9-1.6-3.9-4c0-2.3,1.6-4,3.8-4C883.1,390.7,884.6,392.3,884.6,394.6z M878.6,394.1h4.6
			c-0.2-1.3-1-2.2-2.3-2.2C879.6,391.8,878.8,392.8,878.6,394.1z"/>
		<path class="st0" d="M891.8,392.5c-0.5-0.3-1.4-0.7-2.4-0.7s-1.7,0.4-1.7,1.1c0,0.6,0.6,0.9,1.5,1l0.9,0.1
			c1.6,0.2,2.6,0.9,2.6,2.2c0,1.4-1.3,2.4-3.4,2.4c-0.9,0-2.2-0.2-3.2-1l0.6-1c0.6,0.4,1.3,0.8,2.6,0.8c1.2,0,2-0.4,2-1.2
			c0-0.6-0.5-0.9-1.5-1l-0.9-0.1c-1.7-0.2-2.5-1-2.5-2.1c0-1.5,1.2-2.3,3.1-2.3c1.2,0,2.3,0.3,3,0.8L891.8,392.5z"/>
		<path class="st0" d="M790.6,409.4c0,1.3-0.7,2.2-1.7,2.6c1.2,0.4,2,1.3,2,2.6c0,2.1-1.9,3.2-3.9,3.2c-1.6,0-2.9-0.6-3.7-1.5
			l0.9-0.9c0.7,0.7,1.7,1.2,2.8,1.2c1.4,0,2.5-0.6,2.5-2c0-1.3-1.2-2-2.6-2h-1.4v-1.2h1.4c1.3,0,2.4-0.6,2.4-1.9
			c0-1.2-1-1.9-2.4-1.9c-1.1,0-1.9,0.6-2.4,1.3l-1-0.8c0.6-1,1.8-1.7,3.5-1.7C789.1,406.3,790.6,407.5,790.6,409.4z"/>
		<path class="st0" d="M800.9,412c0,4.1-1.9,5.8-4.2,5.8s-4.2-1.6-4.2-5.8c0-4.1,1.9-5.8,4.2-5.8C799,406.3,800.9,408.1,800.9,412z
			 M793.9,412c0,3.3,1.3,4.5,2.8,4.5s2.8-1.2,2.8-4.5c0-3.1-1.3-4.5-2.8-4.5C795.2,407.6,793.9,408.8,793.9,412z"/>
		<path class="st0" d="M819.8,412.9v4.7h-1.3v-4.3c0-1.4-0.8-2.2-2.1-2.2s-2.2,0.9-2.2,2.3v4.3h-1.3v-4.3c0-1.4-0.8-2.2-2.1-2.2
			c-1.2,0-2.2,0.8-2.2,2.3v4.3h-1.3v-7.6h1.3v1c0.6-0.9,1.6-1.2,2.5-1.2c1.3,0,2.3,0.6,2.8,1.5c0.6-1.2,1.8-1.5,2.8-1.5
			C818.5,409.9,819.8,411.1,819.8,412.9z"/>
		<path class="st0" d="M829.2,413.8c0,0.2,0,0.3,0,0.5h-6c0.2,1.6,1.3,2.4,2.6,2.4c0.9,0,1.7-0.3,2.3-0.9l0.7,0.9
			c-0.9,0.9-2,1.2-3.1,1.2c-2.3,0-3.9-1.6-3.9-4c0-2.3,1.6-4,3.8-4C827.7,409.9,829.2,411.5,829.2,413.8z M823.2,413.3h4.6
			c-0.2-1.3-1-2.2-2.3-2.2C824.3,411,823.4,412,823.2,413.3z"/>
		<path class="st0" d="M832.9,407.4c0,0.5-0.4,0.9-0.9,0.9s-0.9-0.4-0.9-0.9s0.4-0.9,0.9-0.9C832.5,406.4,832.9,406.8,832.9,407.4z
			 M832.6,417.6h-1.3V410h1.3V417.6z"/>
		<path class="st0" d="M836.5,417.6h-1.3v-11.5h1.3V417.6z"/>
		<path class="st0" d="M840.4,417.6h-1.3v-11.5h1.3V417.6z"/>
		<path class="st0" d="M849.9,413.8c0,0.2,0,0.3,0,0.5h-6c0.2,1.6,1.3,2.4,2.6,2.4c0.9,0,1.7-0.3,2.3-0.9l0.7,0.9
			c-0.9,0.9-2,1.2-3.1,1.2c-2.3,0-3.9-1.6-3.9-4c0-2.3,1.6-4,3.8-4C848.4,409.9,849.9,411.5,849.9,413.8z M843.9,413.3h4.6
			c-0.2-1.3-1-2.2-2.3-2.2C845,411,844.1,412,843.9,413.3z"/>
		<path class="st0" d="M858.9,414.5c0,2.3-1.6,3.3-3.5,3.3c-1.8,0-3.5-1-3.5-3.3v-4.4h1.3v4.3c0,1.6,0.9,2.2,2.2,2.2
			c1.2,0,2.2-0.7,2.2-2.2v-4.3h1.3V414.5z"/>
		<path class="st0" d="M866.3,410.1l-0.3,1.3c-0.4-0.2-0.9-0.3-1.3-0.3c-1.2,0-2,0.9-2,2.3v4.2h-1.3V410h1.3v1
			c0.5-0.7,1.3-1.2,2.2-1.2C865.5,409.9,865.9,410,866.3,410.1z"/>
		<path class="st0" d="M873.1,411.7c-0.5-0.3-1.4-0.7-2.4-0.7s-1.7,0.4-1.7,1.1c0,0.6,0.6,0.9,1.5,1l0.9,0.1
			c1.6,0.2,2.6,0.9,2.6,2.2c0,1.4-1.3,2.4-3.4,2.4c-0.9,0-2.2-0.2-3.2-1l0.6-1c0.6,0.4,1.3,0.8,2.6,0.8c1.2,0,2-0.4,2-1.2
			c0-0.6-0.5-0.9-1.5-1l-0.9-0.1c-1.7-0.2-2.5-1-2.5-2.1c0-1.5,1.2-2.3,3.1-2.3c1.2,0,2.3,0.3,3,0.8L873.1,411.7z"/>
		<path class="st0" d="M881.6,418.8c0,1.4-0.8,2.2-2,2.2c-0.4,0-0.8-0.1-1.1-0.2l0.3-1.1c0.2,0.1,0.4,0.2,0.7,0.2
			c0.5,0,0.8-0.3,0.8-1v-8.7h1.3V418.8z M881.8,407.4c0,0.5-0.4,0.9-0.9,0.9s-0.9-0.4-0.9-0.9s0.4-0.9,0.9-0.9
			S881.8,406.8,881.8,407.4z"/>
		<path class="st0" d="M891.7,413.8c0,2.3-1.7,4-4,4s-4-1.7-4-4s1.7-4,4-4S891.7,411.6,891.7,413.8z M885,413.8
			c0,1.6,1.2,2.7,2.7,2.7s2.7-1.1,2.7-2.7s-1.2-2.7-2.7-2.7C886.1,411.1,885,412.3,885,413.8z"/>
		<path class="st0" d="M900.6,414.5c0,2.3-1.6,3.3-3.5,3.3c-1.8,0-3.5-1-3.5-3.3v-4.4h1.3v4.3c0,1.6,0.9,2.2,2.2,2.2
			c1.2,0,2.2-0.7,2.2-2.2v-4.3h1.3V414.5z"/>
		<path class="st0" d="M908.1,410.1l-0.3,1.3c-0.4-0.2-0.9-0.3-1.3-0.3c-1.2,0-2,0.9-2,2.3v4.2h-1.3V410h1.3v1
			c0.5-0.7,1.3-1.2,2.2-1.2C907.2,409.9,907.7,410,908.1,410.1z"/>
		<path class="st0" d="M914.9,411.7c-0.5-0.3-1.4-0.7-2.4-0.7s-1.7,0.4-1.7,1.1c0,0.6,0.6,0.9,1.5,1l0.9,0.1
			c1.6,0.2,2.6,0.9,2.6,2.2c0,1.4-1.3,2.4-3.4,2.4c-0.9,0-2.2-0.2-3.2-1l0.6-1c0.6,0.4,1.3,0.8,2.6,0.8c1.2,0,2-0.4,2-1.2
			c0-0.6-0.5-0.9-1.5-1l-0.9-0.1c-1.7-0.2-2.5-1-2.5-2.1c0-1.5,1.2-2.3,3.1-2.3c1.2,0,2.3,0.3,3,0.8L914.9,411.7z"/>
	</g>
</g>
<g>
	<line class="st4" x1="83.9" y1="312.4" x2="1177.4" y2="312.4"/>
</g>
<g>
	<g>
		<path class="st0" d="M1031,373.8h-7.1v-2.7h7.1V373.8z"/>
		<path class="st0" d="M1044.6,366.6c0,1.8-0.9,3.1-2.5,3.8c1.8,0.7,2.9,2,2.9,3.8c0,3.3-3,4.9-6.2,4.9c-2.5,0-4.6-0.9-5.9-2.4
			l1.9-2.1c1,1,2.4,1.6,3.8,1.6c1.6,0,2.9-0.7,2.9-2.2c0-1.4-1.5-2.2-3.3-2.2h-2v-2.9h2c1.6,0,2.9-0.7,2.9-2.1s-1.2-2.1-2.8-2.1
			c-1.6,0-2.7,0.8-3.4,1.7l-2-2.1c1.1-1.5,2.9-2.6,5.6-2.6C1042.2,361.7,1044.6,363.7,1044.6,366.6z"/>
		<path class="st0" d="M1051.4,375l-1.7,7.1h-2.6l0.8-7.1H1051.4z"/>
		<path class="st0" d="M1059.2,367.9c0.2,0,0.5,0,0.8,0c3.4,0,5.8,2.4,5.8,5.6c0,3.3-2.7,5.7-6.3,5.7c-3.6,0-6.3-2.4-6.3-5.7
			c0-1.5,0.6-2.9,1.6-4.5l4.7-7h3.9L1059.2,367.9z M1056.6,373.4c0,1.6,1.3,2.8,2.9,2.8c1.7,0,3-1.1,3-2.8c0-1.6-1.3-2.8-3-2.8
			C1057.8,370.7,1056.6,371.8,1056.6,373.4z"/>
		<path class="st0" d="M1082.3,370.4c0,5.4-3.2,8.7-7.2,8.7s-7.2-3.3-7.2-8.7c0-5.4,3.2-8.7,7.2-8.7
			C1079.1,361.7,1082.3,365,1082.3,370.4z M1071.2,370.4c0,3.7,1.7,5.6,3.9,5.6c2.2,0,3.9-1.9,3.9-5.6s-1.7-5.6-3.9-5.6
			C1072.9,364.8,1071.2,366.8,1071.2,370.4z"/>
		<path class="st0" d="M1099.7,366.3c0,2.6-2,4.6-4.7,4.6s-4.7-2-4.7-4.6s2-4.6,4.7-4.6C1097.7,361.7,1099.7,363.7,1099.7,366.3z
			 M1093,366.3c0,1.2,0.9,2.1,2,2.1c1.2,0,2-0.9,2-2.1s-0.9-2.1-2-2.1C1093.9,364.2,1093,365.1,1093,366.3z M1097.3,378.8h-3.1
			l11.3-16.8h3.1L1097.3,378.8z M1112.3,374.5c0,2.6-2,4.6-4.7,4.6s-4.7-2-4.7-4.6s2-4.6,4.7-4.6
			C1110.3,370,1112.3,371.9,1112.3,374.5z M1105.6,374.5c0,1.2,0.9,2.1,2,2.1c1.2,0,2-0.9,2-2.1s-0.9-2.1-2-2.1
			C1106.5,372.5,1105.6,373.3,1105.6,374.5z"/>
		<path class="st0" d="M1037.4,398h-1.4v-9.6l-3.8,8.4h-1.5l-3.8-8.4v9.6h-1.4v-11.2h2.2l3.8,8.4l3.8-8.4h2.2L1037.4,398L1037.4,398
			z"/>
		<path class="st0" d="M1047.6,398h-1.3v-1c-0.6,0.7-1.5,1.2-2.7,1.2c-2.1,0-3.8-1.7-3.8-4s1.7-4,3.8-4c1.2,0,2.1,0.5,2.7,1.2v-1
			h1.3V398z M1041.1,394.2c0,1.5,1.1,2.7,2.6,2.7s2.6-1.2,2.6-2.7c0-1.6-1.1-2.7-2.6-2.7C1042.1,391.5,1041.1,392.7,1041.1,394.2z"
			/>
		<path class="st0" d="M1057.1,393.3v4.7h-1.3v-4.3c0-1.4-0.8-2.2-2.1-2.2c-1.2,0-2.2,0.8-2.2,2.3v4.3h-1.3v-7.6h1.3v1
			c0.6-0.9,1.6-1.2,2.5-1.2C1055.8,390.3,1057.1,391.5,1057.1,393.3z"/>
		<path class="st0" d="M1065.7,391.5v-1h1.3v10.8h-1.3V397c-0.6,0.7-1.5,1.2-2.7,1.2c-2.1,0-3.8-1.7-3.8-4s1.7-4,3.8-4
			C1064.2,390.3,1065.1,390.7,1065.7,391.5z M1060.5,394.2c0,1.5,1.1,2.7,2.6,2.7s2.6-1.2,2.6-2.7c0-1.6-1.1-2.7-2.6-2.7
			C1061.5,391.5,1060.5,392.7,1060.5,394.2z"/>
		<path class="st0" d="M1076.5,394.8c0,2.3-1.6,3.3-3.5,3.3c-1.8,0-3.5-1-3.5-3.3v-4.4h1.3v4.3c0,1.6,0.9,2.2,2.2,2.2
			c1.2,0,2.2-0.7,2.2-2.2v-4.3h1.3V394.8z"/>
		<path class="st0" d="M1085.9,394.2c0,0.2,0,0.3,0,0.5h-6c0.2,1.6,1.3,2.4,2.6,2.4c0.9,0,1.7-0.3,2.3-0.9l0.7,0.9
			c-0.9,0.9-2,1.2-3.1,1.2c-2.3,0-3.9-1.6-3.9-4c0-2.3,1.6-4,3.8-4C1084.4,390.3,1085.8,391.9,1085.9,394.2z M1079.9,393.6h4.6
			c-0.2-1.3-1-2.2-2.3-2.2C1080.9,391.4,1080.1,392.3,1079.9,393.6z M1081.2,389.3l1.6-2.4h1.7l-2,2.4H1081.2z"/>
		<path class="st0" d="M1093.6,398h-1.3v-11.5h1.3V398z"/>
		<path class="st0" d="M1103.1,394.2c0,0.2,0,0.3,0,0.5h-6c0.2,1.6,1.3,2.4,2.6,2.4c0.9,0,1.7-0.3,2.3-0.9l0.7,0.9
			c-0.9,0.9-2,1.2-3.1,1.2c-2.3,0-3.9-1.6-3.9-4c0-2.3,1.6-4,3.8-4C1101.6,390.3,1103.1,391.9,1103.1,394.2z M1097.1,393.6h4.6
			c-0.2-1.3-1-2.2-2.3-2.2C1098.2,391.4,1097.3,392.3,1097.1,393.6z"/>
		<path class="st0" d="M1110.3,392.1c-0.5-0.3-1.4-0.7-2.4-0.7s-1.7,0.4-1.7,1.1c0,0.6,0.6,0.9,1.5,1l0.9,0.1
			c1.6,0.2,2.6,0.9,2.6,2.2c0,1.4-1.3,2.4-3.4,2.4c-0.9,0-2.2-0.2-3.2-1l0.6-1c0.6,0.4,1.3,0.8,2.6,0.8c1.2,0,2-0.4,2-1.2
			c0-0.6-0.5-0.9-1.5-1l-0.9-0.1c-1.7-0.2-2.5-1-2.5-2.1c0-1.5,1.2-2.3,3.1-2.3c1.2,0,2.3,0.3,3,0.8L1110.3,392.1z"/>
		<path class="st0" d="M1007.9,413.6h1.9v1.3h-1.9v2.3h-1.4v-2.3h-5.2v-1l4.2-7.8h1.5l-4.1,7.6h3.5v-3.1h1.4L1007.9,413.6
			L1007.9,413.6z"/>
		<path class="st0" d="M1019.6,411.6c0,4.1-1.9,5.8-4.2,5.8s-4.2-1.6-4.2-5.8c0-4.1,1.9-5.8,4.2-5.8
			C1017.7,405.9,1019.6,407.7,1019.6,411.6z M1012.6,411.6c0,3.3,1.3,4.5,2.8,4.5s2.8-1.2,2.8-4.5c0-3.1-1.3-4.5-2.8-4.5
			C1013.9,407.2,1012.6,408.3,1012.6,411.6z"/>
		<path class="st0" d="M1038.5,412.5v4.7h-1.3v-4.3c0-1.4-0.8-2.2-2.1-2.2c-1.3,0-2.2,0.9-2.2,2.3v4.3h-1.3V413
			c0-1.4-0.8-2.2-2.1-2.2c-1.2,0-2.2,0.8-2.2,2.3v4.3h-1.3v-7.6h1.3v1c0.6-0.9,1.6-1.2,2.5-1.2c1.3,0,2.3,0.6,2.8,1.5
			c0.6-1.2,1.8-1.5,2.8-1.5C1037.2,409.5,1038.5,410.7,1038.5,412.5z"/>
		<path class="st0" d="M1047.9,413.4c0,0.2,0,0.3,0,0.5h-6c0.2,1.6,1.3,2.4,2.6,2.4c0.9,0,1.7-0.3,2.3-0.9l0.7,0.9
			c-0.9,0.9-2,1.2-3.1,1.2c-2.3,0-3.9-1.6-3.9-4c0-2.3,1.6-4,3.8-4C1046.4,409.5,1047.9,411.1,1047.9,413.4z M1041.9,412.8h4.6
			c-0.2-1.3-1-2.2-2.3-2.2C1043,410.6,1042.1,411.5,1041.9,412.8z"/>
		<path class="st0" d="M1051.6,407c0,0.5-0.4,0.9-0.9,0.9s-0.9-0.4-0.9-0.9s0.4-0.9,0.9-0.9C1051.1,406,1051.6,406.4,1051.6,407z
			 M1051.3,417.2h-1.3v-7.6h1.3V417.2z"/>
		<path class="st0" d="M1055.2,417.2h-1.3v-11.5h1.3V417.2z"/>
		<path class="st0" d="M1059.1,417.2h-1.3v-11.5h1.3V417.2z"/>
		<path class="st0" d="M1068.6,413.4c0,0.2,0,0.3,0,0.5h-6c0.2,1.6,1.3,2.4,2.6,2.4c0.9,0,1.7-0.3,2.3-0.9l0.7,0.9
			c-0.9,0.9-2,1.2-3.1,1.2c-2.3,0-3.9-1.6-3.9-4c0-2.3,1.6-4,3.8-4C1067.1,409.5,1068.6,411.1,1068.6,413.4z M1062.6,412.8h4.6
			c-0.2-1.3-1-2.2-2.3-2.2C1063.7,410.6,1062.8,411.5,1062.6,412.8z"/>
		<path class="st0" d="M1077.5,414c0,2.3-1.6,3.3-3.5,3.3c-1.8,0-3.5-1-3.5-3.3v-4.4h1.3v4.3c0,1.6,0.9,2.2,2.2,2.2
			c1.2,0,2.2-0.7,2.2-2.2v-4.3h1.3V414z"/>
		<path class="st0" d="M1085,409.7l-0.3,1.3c-0.4-0.2-0.9-0.3-1.3-0.3c-1.2,0-2,0.9-2,2.3v4.2h-1.3v-7.6h1.3v1
			c0.5-0.7,1.3-1.2,2.2-1.2C1084.2,409.5,1084.6,409.5,1085,409.7z"/>
		<path class="st0" d="M1091.8,411.3c-0.5-0.3-1.4-0.7-2.4-0.7s-1.7,0.4-1.7,1.1c0,0.6,0.6,0.9,1.5,1l0.9,0.1
			c1.6,0.2,2.6,0.9,2.6,2.2c0,1.4-1.3,2.4-3.4,2.4c-0.9,0-2.2-0.2-3.2-1l0.6-1c0.6,0.4,1.3,0.8,2.6,0.8c1.2,0,2-0.4,2-1.2
			c0-0.6-0.5-0.9-1.5-1l-0.9-0.1c-1.7-0.2-2.5-1-2.5-2.1c0-1.5,1.2-2.3,3.1-2.3c1.2,0,2.3,0.3,3,0.8L1091.8,411.3z"/>
		<path class="st0" d="M1100.3,418.4c0,1.4-0.8,2.2-2,2.2c-0.4,0-0.8-0.1-1.1-0.2l0.3-1.1c0.2,0.1,0.4,0.2,0.7,0.2
			c0.5,0,0.8-0.3,0.8-1v-8.7h1.3L1100.3,418.4L1100.3,418.4z M1100.5,407c0,0.5-0.4,0.9-0.9,0.9s-0.9-0.4-0.9-0.9s0.4-0.9,0.9-0.9
			S1100.5,406.4,1100.5,407z"/>
		<path class="st0" d="M1110.4,413.4c0,2.3-1.7,4-4,4s-4-1.7-4-4s1.7-4,4-4S1110.4,411.2,1110.4,413.4z M1103.7,413.4
			c0,1.6,1.2,2.7,2.7,2.7s2.7-1.1,2.7-2.7s-1.2-2.7-2.7-2.7C1104.8,410.7,1103.7,411.8,1103.7,413.4z"/>
		<path class="st0" d="M1119.3,414c0,2.3-1.6,3.3-3.5,3.3c-1.8,0-3.5-1-3.5-3.3v-4.4h1.3v4.3c0,1.6,0.9,2.2,2.2,2.2
			c1.2,0,2.2-0.7,2.2-2.2v-4.3h1.3V414z"/>
		<path class="st0" d="M1126.8,409.7l-0.3,1.3c-0.4-0.2-0.9-0.3-1.3-0.3c-1.2,0-2,0.9-2,2.3v4.2h-1.3v-7.6h1.3v1
			c0.5-0.7,1.3-1.2,2.2-1.2C1125.9,409.5,1126.4,409.5,1126.8,409.7z"/>
		<path class="st0" d="M1133.6,411.3c-0.5-0.3-1.4-0.7-2.4-0.7s-1.7,0.4-1.7,1.1c0,0.6,0.6,0.9,1.5,1l0.9,0.1
			c1.6,0.2,2.6,0.9,2.6,2.2c0,1.4-1.3,2.4-3.4,2.4c-0.9,0-2.2-0.2-3.2-1l0.6-1c0.6,0.4,1.3,0.8,2.6,0.8c1.2,0,2-0.4,2-1.2
			c0-0.6-0.5-0.9-1.5-1l-0.9-0.1c-1.7-0.2-2.5-1-2.5-2.1c0-1.5,1.2-2.3,3.1-2.3c1.2,0,2.3,0.3,3,0.8L1133.6,411.3z"/>
	</g>
</g>
<line class="st4" x1="82.5" y1="388.5" x2="82.5" y2="26.5"/>
</svg>
