<?xml version="1.0" encoding="utf-8"?>
<!-- Generator: Adobe Illustrator 24.3.0, SVG Export Plug-In . SVG Version: 6.00 Build 0)  -->
<svg version="1.1" id="Layer_1" xmlns="http://www.w3.org/2000/svg" xmlns:xlink="http://www.w3.org/1999/xlink" x="0px" y="0px"
	 viewBox="0 0 1200 422" style="enable-background:new 0 0 1200 422;" xml:space="preserve">
<style type="text/css">
	.st0{fill:#203232;}
	.st1{fill:#ED5A36;stroke:#F57E20;stroke-miterlimit:10;}
	.st2{fill:#FFB819;}
	.st3{fill:#ED5A36;}
	.st4{fill:none;stroke:#203232;stroke-width:2;stroke-miterlimit:10;}
</style>
<g>
	<path class="st0" d="M13.6,305.8v1.3c1.2,0.1,2.1,0.5,2.9,1l-0.9,1.5c-0.6-0.4-1.3-0.6-2-0.8v2.2c1.7,0.3,3,1,3,2.6
		c0,1.7-1.4,2.7-3,2.9v1.4H12v-1.4c-1.2-0.1-2.5-0.5-3.3-1.2l1-1.5c0.6,0.4,1.4,0.8,2.4,1v-2.3H12c-1.7-0.3-3-1-2.9-2.7
		c0-1.6,1.3-2.6,3-2.8v-1.3L13.6,305.8L13.6,305.8z M12,310.8v-1.9c-0.7,0.2-1.1,0.5-1.1,1C11,310.3,11.3,310.6,12,310.8z
		 M13.6,312.9v1.9c0.6-0.2,1.1-0.5,1.1-1C14.7,313.4,14.3,313.1,13.6,312.9z"/>
	<path class="st0" d="M22.2,316.7h-1.9v-7.3l-2.3,1v-1.9l4.2-1.7V316.7z"/>
	<path class="st0" d="M32.5,311.8c0,3.2-1.9,5.1-4.2,5.1s-4.2-1.9-4.2-5.1s1.9-5.1,4.2-5.1C30.6,306.8,32.5,308.7,32.5,311.8z
		 M26,311.8c0,2.1,1,3.3,2.3,3.3s2.3-1.1,2.3-3.3c0-2.1-1-3.3-2.3-3.3C27,308.6,26,309.7,26,311.8z"/>
	<path class="st0" d="M36.3,314.5l-1,4.2h-1.5l0.5-4.2H36.3z"/>
	<path class="st0" d="M46.1,311.8c0,3.2-1.9,5.1-4.2,5.1s-4.2-1.9-4.2-5.1s1.9-5.1,4.2-5.1C44.2,306.8,46.1,308.7,46.1,311.8z
		 M39.6,311.8c0,2.1,1,3.3,2.3,3.3s2.3-1.1,2.3-3.3c0-2.1-1-3.3-2.3-3.3C40.6,308.6,39.6,309.7,39.6,311.8z"/>
	<path class="st0" d="M56,311.8c0,3.2-1.9,5.1-4.2,5.1s-4.2-1.9-4.2-5.1s1.9-5.1,4.2-5.1C54.1,306.8,56,308.7,56,311.8z M49.5,311.8
		c0,2.1,1,3.3,2.3,3.3s2.3-1.1,2.3-3.3c0-2.1-1-3.3-2.3-3.3C50.5,308.6,49.5,309.7,49.5,311.8z"/>
	<path class="st0" d="M65.9,311.8c0,3.2-1.9,5.1-4.2,5.1s-4.2-1.9-4.2-5.1s1.9-5.1,4.2-5.1C64,306.8,65.9,308.7,65.9,311.8z
		 M59.4,311.8c0,2.1,1,3.3,2.3,3.3s2.3-1.1,2.3-3.3c0-2.1-1-3.3-2.3-3.3C60.4,308.6,59.4,309.7,59.4,311.8z"/>
</g>
<g>
	<path class="st0" d="M11.5,235.2v1.3c1.2,0.1,2.1,0.5,2.9,1l-0.9,1.5c-0.6-0.4-1.3-0.6-2-0.8v2.2c1.7,0.3,3,1,3,2.6
		c0,1.7-1.4,2.7-3,2.9v1.4H9.9V246c-1.2-0.1-2.5-0.5-3.3-1.2l1-1.5c0.6,0.4,1.4,0.8,2.4,1V242H9.9c-1.7-0.3-3-1-2.9-2.7
		c0-1.6,1.3-2.6,3-2.8v-1.3H11.5z M9.9,240.2v-1.9c-0.7,0.2-1.1,0.5-1.1,1C8.8,239.7,9.2,240,9.9,240.2z M11.5,242.3v1.9
		c0.6-0.2,1.1-0.5,1.1-1C12.5,242.8,12.2,242.5,11.5,242.3z"/>
	<path class="st0" d="M15.9,237.9c0.5-0.7,1.5-1.7,3.3-1.7c2.1,0,3.3,1.3,3.3,3.2c0,1.2-0.6,2-1.4,2.9l-2.1,2.2h3.7v1.8h-6.5v-1.5
		l3.5-3.6c0.5-0.5,0.8-1.1,0.8-1.7c0-0.9-0.6-1.5-1.5-1.5s-1.5,0.5-2,1.1L15.9,237.9z"/>
	<path class="st0" d="M32.5,241.2c0,3.2-1.9,5.1-4.2,5.1s-4.2-1.9-4.2-5.1c0-3.2,1.9-5.1,4.2-5.1C30.6,236.2,32.5,238.1,32.5,241.2z
		 M26,241.2c0,2.1,1,3.3,2.3,3.3s2.3-1.1,2.3-3.3c0-2.1-1-3.3-2.3-3.3C27,238,26,239.1,26,241.2z"/>
	<path class="st0" d="M36.3,243.9l-1,4.2h-1.5l0.5-4.2H36.3z"/>
	<path class="st0" d="M46.1,241.2c0,3.2-1.9,5.1-4.2,5.1s-4.2-1.9-4.2-5.1c0-3.2,1.9-5.1,4.2-5.1C44.2,236.2,46.1,238.1,46.1,241.2z
		 M39.6,241.2c0,2.1,1,3.3,2.3,3.3s2.3-1.1,2.3-3.3c0-2.1-1-3.3-2.3-3.3C40.6,238,39.6,239.1,39.6,241.2z"/>
	<path class="st0" d="M56,241.2c0,3.2-1.9,5.1-4.2,5.1s-4.2-1.9-4.2-5.1c0-3.2,1.9-5.1,4.2-5.1C54.1,236.2,56,238.1,56,241.2z
		 M49.5,241.2c0,2.1,1,3.3,2.3,3.3s2.3-1.1,2.3-3.3c0-2.1-1-3.3-2.3-3.3C50.5,238,49.5,239.1,49.5,241.2z"/>
	<path class="st0" d="M65.9,241.2c0,3.2-1.9,5.1-4.2,5.1s-4.2-1.9-4.2-5.1c0-3.2,1.9-5.1,4.2-5.1C64,236.2,65.9,238.1,65.9,241.2z
		 M59.4,241.2c0,2.1,1,3.3,2.3,3.3s2.3-1.1,2.3-3.3c0-2.1-1-3.3-2.3-3.3C60.4,238,59.4,239.1,59.4,241.2z"/>
</g>
<g>
	<path class="st0" d="M52.7,376.3v1.3c1.2,0.1,2.1,0.5,2.9,1l-0.9,1.5c-0.6-0.4-1.3-0.6-2-0.8v2.2c1.7,0.3,3,1,3,2.6
		c0,1.7-1.4,2.7-3,2.9v1.4h-1.6V387c-1.2-0.1-2.5-0.5-3.3-1.2l1-1.5c0.6,0.4,1.4,0.8,2.4,1V383h-0.1c-1.7-0.3-3-1-2.9-2.7
		c0-1.6,1.3-2.6,3-2.8v-1.3L52.7,376.3L52.7,376.3z M51.2,381.3v-1.9c-0.7,0.2-1.1,0.5-1.1,1C50.1,380.8,50.5,381.1,51.2,381.3z
		 M52.7,383.4v1.9c0.6-0.2,1.1-0.5,1.1-1S53.4,383.6,52.7,383.4z"/>
	<path class="st0" d="M65.9,382.3c0,3.2-1.9,5.1-4.2,5.1s-4.2-1.9-4.2-5.1s1.9-5.1,4.2-5.1C64,377.2,65.9,379.2,65.9,382.3z
		 M59.4,382.3c0,2.1,1,3.3,2.3,3.3s2.3-1.1,2.3-3.3c0-2.1-1-3.3-2.3-3.3C60.4,379.1,59.4,380.2,59.4,382.3z"/>
</g>
<g>
	<path class="st0" d="M11.3,164.6v1.3c1.2,0.1,2.1,0.5,2.9,1l-0.9,1.5c-0.6-0.4-1.3-0.6-2-0.8v2.2c1.7,0.3,3,1,3,2.6
		c0,1.7-1.4,2.7-3,2.9v1.4H9.8v-1.4c-1.2-0.1-2.5-0.5-3.3-1.2l1-1.5c0.6,0.4,1.4,0.8,2.4,1v-2.3H9.8c-1.7-0.3-3-1-2.9-2.7
		c0-1.6,1.3-2.6,3-2.8v-1.3h1.4V164.6z M9.8,169.6v-1.9c-0.7,0.2-1.1,0.5-1.1,1C8.7,169.1,9.1,169.4,9.8,169.6z M11.3,171.7v1.9
		c0.6-0.2,1.1-0.5,1.1-1C12.4,172.2,12,171.9,11.3,171.7z"/>
	<path class="st0" d="M22.5,168.4c0,1-0.6,1.8-1.5,2.2c1,0.4,1.7,1.2,1.7,2.2c0,1.9-1.8,2.9-3.6,2.9c-1.5,0-2.7-0.5-3.4-1.4l1.1-1.2
		c0.6,0.6,1.4,0.9,2.2,0.9c1,0,1.7-0.4,1.7-1.3c0-0.8-0.9-1.3-1.9-1.3h-1.1v-1.7h1.1c1,0,1.7-0.4,1.7-1.2s-0.7-1.2-1.6-1.2
		s-1.6,0.5-2,1l-1.2-1.2c0.6-0.9,1.7-1.5,3.3-1.5C21.1,165.6,22.5,166.7,22.5,168.4z"/>
	<path class="st0" d="M32.5,170.6c0,3.2-1.9,5.1-4.2,5.1s-4.2-1.9-4.2-5.1c0-3.2,1.9-5.1,4.2-5.1C30.6,165.6,32.5,167.5,32.5,170.6z
		 M26,170.6c0,2.1,1,3.3,2.3,3.3s2.3-1.1,2.3-3.3c0-2.1-1-3.3-2.3-3.3C27,167.4,26,168.5,26,170.6z"/>
	<path class="st0" d="M36.3,173.3l-1,4.2h-1.5l0.5-4.2H36.3z"/>
	<path class="st0" d="M46.1,170.6c0,3.2-1.9,5.1-4.2,5.1s-4.2-1.9-4.2-5.1c0-3.2,1.9-5.1,4.2-5.1C44.2,165.6,46.1,167.5,46.1,170.6z
		 M39.6,170.6c0,2.1,1,3.3,2.3,3.3s2.3-1.1,2.3-3.3c0-2.1-1-3.3-2.3-3.3C40.6,167.4,39.6,168.5,39.6,170.6z"/>
	<path class="st0" d="M56,170.6c0,3.2-1.9,5.1-4.2,5.1s-4.2-1.9-4.2-5.1c0-3.2,1.9-5.1,4.2-5.1C54.1,165.6,56,167.5,56,170.6z
		 M49.5,170.6c0,2.1,1,3.3,2.3,3.3s2.3-1.1,2.3-3.3c0-2.1-1-3.3-2.3-3.3C50.5,167.4,49.5,168.5,49.5,170.6z"/>
	<path class="st0" d="M65.9,170.6c0,3.2-1.9,5.1-4.2,5.1s-4.2-1.9-4.2-5.1c0-3.2,1.9-5.1,4.2-5.1C64,165.6,65.9,167.5,65.9,170.6z
		 M59.4,170.6c0,2.1,1,3.3,2.3,3.3s2.3-1.1,2.3-3.3c0-2.1-1-3.3-2.3-3.3C60.4,167.4,59.4,168.5,59.4,170.6z"/>
</g>
<g>
	<path class="st0" d="M11.2,94v1.3c1.2,0.1,2.1,0.5,2.9,1l-0.9,1.5c-0.6-0.4-1.3-0.6-2-0.8v2.2c1.7,0.3,3,1,3,2.6
		c0,1.7-1.4,2.7-3,2.9v1.4H9.6v-1.4c-1.2-0.1-2.5-0.5-3.3-1.2l1-1.5c0.6,0.4,1.4,0.8,2.4,1v-2.3H9.6c-1.7-0.3-3-1-2.9-2.7
		c0-1.6,1.3-2.6,3-2.8V94H11.2z M9.6,99v-2c-0.7,0.2-1.1,0.5-1.1,1S8.9,98.8,9.6,99z M11.2,101.1v1.9c0.6-0.2,1.1-0.5,1.1-1
		C12.3,101.6,11.9,101.3,11.2,101.1z"/>
	<path class="st0" d="M21.7,101.4H23v1.8h-1.4v1.8h-1.9v-1.8h-4.3v-1.4l3.4-6.6H21l-3.3,6.2h2.1v-2.6h1.9V101.4z"/>
	<path class="st0" d="M32.5,100c0,3.2-1.9,5.1-4.2,5.1s-4.2-1.9-4.2-5.1s1.9-5.1,4.2-5.1C30.6,95,32.5,96.9,32.5,100z M26,100
		c0,2.1,1,3.3,2.3,3.3s2.3-1.1,2.3-3.3c0-2.1-1-3.3-2.3-3.3C27,96.8,26,97.9,26,100z"/>
	<path class="st0" d="M36.3,102.7l-1,4.2h-1.5l0.5-4.2H36.3z"/>
	<path class="st0" d="M46.1,100c0,3.2-1.9,5.1-4.2,5.1s-4.2-1.9-4.2-5.1s1.9-5.1,4.2-5.1C44.2,95,46.1,96.9,46.1,100z M39.6,100
		c0,2.1,1,3.3,2.3,3.3s2.3-1.1,2.3-3.3c0-2.1-1-3.3-2.3-3.3C40.6,96.8,39.6,97.9,39.6,100z"/>
	<path class="st0" d="M56,100c0,3.2-1.9,5.1-4.2,5.1s-4.2-1.9-4.2-5.1s1.9-5.1,4.2-5.1C54.1,95,56,96.9,56,100z M49.5,100
		c0,2.1,1,3.3,2.3,3.3s2.3-1.1,2.3-3.3c0-2.1-1-3.3-2.3-3.3C50.5,96.8,49.5,97.9,49.5,100z"/>
	<path class="st0" d="M65.9,100c0,3.2-1.9,5.1-4.2,5.1s-4.2-1.9-4.2-5.1s1.9-5.1,4.2-5.1C64,95,65.9,96.9,65.9,100z M59.4,100
		c0,2.1,1,3.3,2.3,3.3s2.3-1.1,2.3-3.3c0-2.1-1-3.3-2.3-3.3C60.4,96.8,59.4,97.9,59.4,100z"/>
</g>
<g>
	<path class="st0" d="M11.2,23.4v1.3c1.2,0.1,2.1,0.5,2.9,1l-0.9,1.5c-0.6-0.4-1.3-0.6-2-0.8v2.2c1.7,0.3,3,1,3,2.6
		c0,1.7-1.4,2.7-3,2.9v1.4H9.6v-1.4c-1.2-0.1-2.5-0.5-3.3-1.2l1-1.5c0.6,0.4,1.4,0.8,2.4,1v-2.3H9.6c-1.7-0.3-3-1-2.9-2.7
		c0-1.6,1.3-2.6,3-2.8v-1.3L11.2,23.4L11.2,23.4z M9.6,28.4v-1.9c-0.7,0.2-1.1,0.5-1.1,1C8.5,27.9,8.9,28.2,9.6,28.4z M11.2,30.5
		v1.9c0.6-0.2,1.1-0.5,1.1-1C12.3,31,11.9,30.7,11.2,30.5z"/>
	<path class="st0" d="M22.1,26.3h-4v2h1.1c2.3,0,3.4,1.3,3.4,2.9c0,2.1-1.6,3.3-3.6,3.3c-1.5,0-2.7-0.5-3.5-1.5l1.1-1.3
		c0.5,0.6,1.5,1,2.4,1c1.1,0,1.6-0.6,1.6-1.4c0-0.7-0.5-1.4-2-1.4h-2.3l0.1-5.4H22L22.1,26.3L22.1,26.3z"/>
	<path class="st0" d="M32.5,29.4c0,3.2-1.9,5.1-4.2,5.1s-4.2-1.9-4.2-5.1s1.9-5.1,4.2-5.1C30.6,24.4,32.5,26.3,32.5,29.4z M26,29.4
		c0,2.1,1,3.3,2.3,3.3s2.3-1.1,2.3-3.3c0-2.1-1-3.3-2.3-3.3C27,26.2,26,27.3,26,29.4z"/>
	<path class="st0" d="M36.3,32.1l-1,4.2h-1.5l0.5-4.2H36.3z"/>
	<path class="st0" d="M46.1,29.4c0,3.2-1.9,5.1-4.2,5.1s-4.2-1.9-4.2-5.1s1.9-5.1,4.2-5.1C44.2,24.4,46.1,26.3,46.1,29.4z
		 M39.6,29.4c0,2.1,1,3.3,2.3,3.3s2.3-1.1,2.3-3.3c0-2.1-1-3.3-2.3-3.3C40.6,26.2,39.6,27.3,39.6,29.4z"/>
	<path class="st0" d="M56,29.4c0,3.2-1.9,5.1-4.2,5.1s-4.2-1.9-4.2-5.1s1.9-5.1,4.2-5.1C54.1,24.4,56,26.3,56,29.4z M49.5,29.4
		c0,2.1,1,3.3,2.3,3.3s2.3-1.1,2.3-3.3c0-2.1-1-3.3-2.3-3.3C50.5,26.2,49.5,27.3,49.5,29.4z"/>
	<path class="st0" d="M65.9,29.4c0,3.2-1.9,5.1-4.2,5.1s-4.2-1.9-4.2-5.1s1.9-5.1,4.2-5.1C64,24.4,65.9,26.3,65.9,29.4z M59.4,29.4
		c0,2.1,1,3.3,2.3,3.3s2.3-1.1,2.3-3.3c0-2.1-1-3.3-2.3-3.3C60.4,26.2,59.4,27.3,59.4,29.4z"/>
</g>
<rect x="162.7" y="94.7" class="st1" width="58.6" height="217.6"/>
<rect x="381.4" y="250.9" class="st2" width="58.6" height="61.5"/>
<rect x="600.1" y="304.7" class="st2" width="58.6" height="7.7"/>
<rect x="818.8" y="312.4" class="st2" width="58.6" height="20.1"/>
<rect x="1037.5" y="312.4" class="st2" width="58.6" height="36.7"/>
<g>
	<path class="st0" d="M168.9,365l-7,14.3h-3.8l6.9-13.8h-8v-3h11.8v2.5H168.9z"/>
	<path class="st0" d="M175.2,377.3c0,1.3-1.1,2.3-2.3,2.3s-2.3-1.1-2.3-2.3c0-1.2,1.1-2.3,2.3-2.3
		C174.1,374.9,175.2,376,175.2,377.3z"/>
	<path class="st0" d="M177,365.1c0.9-1.2,2.6-2.9,5.7-2.9c3.5,0,5.7,2.2,5.7,5.4c0,2.1-1,3.5-2.4,4.9l-3.6,3.7h6.4v3h-11.1v-2.5
		l5.9-6.1c0.9-0.9,1.4-1.8,1.4-2.9c0-1.5-1-2.5-2.6-2.5s-2.5,0.9-3.4,1.8L177,365.1z"/>
	<path class="st0" d="M197.1,373.5c-0.2,0-0.5,0-0.8,0c-3.4,0-5.8-2.4-5.8-5.6c0-3.3,2.7-5.7,6.3-5.7s6.3,2.4,6.3,5.7
		c0,1.5-0.6,2.9-1.6,4.5l-4.7,7h-3.9L197.1,373.5z M199.7,367.9c0-1.6-1.3-2.8-2.9-2.8c-1.7,0-2.9,1.1-2.9,2.8
		c0,1.6,1.2,2.8,2.9,2.8C198.5,370.7,199.7,369.5,199.7,367.9z"/>
	<path class="st0" d="M214.1,366.8c0,2.6-2,4.6-4.7,4.6s-4.7-2-4.7-4.6s2-4.6,4.7-4.6C212.1,362.2,214.1,364.2,214.1,366.8z
		 M207.4,366.8c0,1.2,0.9,2.1,2,2.1c1.2,0,2-0.9,2-2.1s-0.9-2.1-2-2.1C208.3,364.7,207.4,365.6,207.4,366.8z M211.6,379.3h-3.1
		l11.3-16.8h3.1L211.6,379.3z M226.7,375c0,2.6-2,4.6-4.7,4.6s-4.7-2-4.7-4.6s2-4.6,4.7-4.6S226.7,372.4,226.7,375z M220,375
		c0,1.2,0.9,2.1,2,2.1c1.2,0,2-0.9,2-2.1s-0.9-2.1-2-2.1S220,373.8,220,375z"/>
	<path class="st0" d="M123.4,398.5H122v-11.2h1.4V398.5z"/>
	<path class="st0" d="M133.2,393.8v4.7h-1.3v-4.3c0-1.4-0.8-2.2-2.1-2.2c-1.2,0-2.2,0.8-2.2,2.3v4.3h-1.3V391h1.3v1
		c0.6-0.9,1.6-1.2,2.5-1.2C131.9,390.7,133.2,392,133.2,393.8z"/>
	<path class="st0" d="M139.1,398.5h-1.5l-3.2-7.6h1.4l2.6,6.3l2.6-6.3h1.4L139.1,398.5z"/>
	<path class="st0" d="M150.4,394.7c0,0.2,0,0.3,0,0.5h-6c0.2,1.6,1.3,2.4,2.6,2.4c0.9,0,1.7-0.3,2.3-0.9l0.7,0.9
		c-0.9,0.9-2,1.2-3.1,1.2c-2.3,0-3.9-1.6-3.9-4c0-2.3,1.6-4,3.8-4C148.9,390.7,150.4,392.4,150.4,394.7z M144.4,394.1h4.6
		c-0.2-1.3-1-2.2-2.3-2.2C145.5,391.9,144.6,392.8,144.4,394.1z"/>
	<path class="st0" d="M157.7,392.6c-0.5-0.3-1.4-0.7-2.4-0.7s-1.7,0.4-1.7,1.1c0,0.6,0.6,0.9,1.5,1l0.9,0.1c1.6,0.2,2.6,0.9,2.6,2.2
		c0,1.4-1.3,2.4-3.4,2.4c-0.9,0-2.2-0.2-3.2-1l0.6-1c0.6,0.4,1.3,0.8,2.6,0.8c1.2,0,2-0.4,2-1.2c0-0.6-0.5-0.9-1.5-1l-0.9-0.1
		c-1.7-0.2-2.5-1-2.5-2.1c0-1.5,1.2-2.3,3.1-2.3c1.2,0,2.3,0.3,3,0.8L157.7,392.6z"/>
	<path class="st0" d="M165.8,392.1h-3.2v3.7c0,1.1,0.6,1.6,1.4,1.6c0.6,0,1.1-0.2,1.6-0.5l0.6,1c-0.6,0.4-1.3,0.8-2.3,0.8
		c-1.6,0-2.6-0.9-2.6-2.8v-3.7h-1.6V391h1.6v-2.4h1.3v2.4h3.2V392.1z"/>
	<path class="st0" d="M174.4,394.7c0,0.2,0,0.3,0,0.5h-6c0.2,1.6,1.3,2.4,2.6,2.4c0.9,0,1.7-0.3,2.3-0.9l0.7,0.9
		c-0.9,0.9-2,1.2-3.1,1.2c-2.3,0-3.9-1.6-3.9-4c0-2.3,1.6-4,3.8-4C172.9,390.7,174.4,392.4,174.4,394.7z M168.4,394.1h4.6
		c-0.2-1.3-1-2.2-2.3-2.2S168.6,392.8,168.4,394.1z"/>
	<path class="st0" d="M182.4,391.9V387h1.3v11.5h-1.3v-1c-0.6,0.7-1.5,1.2-2.7,1.2c-2.1,0-3.8-1.7-3.8-4s1.7-4,3.8-4
		C181,390.7,181.8,391.2,182.4,391.9z M177.3,394.7c0,1.5,1.1,2.7,2.6,2.7s2.6-1.2,2.6-2.7c0-1.6-1.1-2.7-2.6-2.7
		C178.3,392,177.3,393.2,177.3,394.7z"/>
	<path class="st0" d="M197.6,394.7c0,0.2,0,0.3,0,0.5h-6c0.2,1.6,1.3,2.4,2.6,2.4c0.9,0,1.7-0.3,2.3-0.9l0.7,0.9
		c-0.9,0.9-2,1.2-3.1,1.2c-2.3,0-3.9-1.6-3.9-4c0-2.3,1.6-4,3.8-4C196.1,390.7,197.6,392.4,197.6,394.7z M191.6,394.1h4.6
		c-0.2-1.3-1-2.2-2.3-2.2S191.8,392.8,191.6,394.1z"/>
	<path class="st0" d="M203.1,398.5h-1.5l-3.2-7.6h1.4l2.6,6.3l2.6-6.3h1.4L203.1,398.5z"/>
	<path class="st0" d="M214.4,394.7c0,0.2,0,0.3,0,0.5h-6c0.2,1.6,1.3,2.4,2.6,2.4c0.9,0,1.7-0.3,2.3-0.9l0.7,0.9
		c-0.9,0.9-2,1.2-3.1,1.2c-2.3,0-3.9-1.6-3.9-4c0-2.3,1.6-4,3.8-4C212.9,390.7,214.4,392.4,214.4,394.7z M208.4,394.1h4.6
		c-0.2-1.3-1-2.2-2.3-2.2C209.5,391.9,208.6,392.8,208.4,394.1z"/>
	<path class="st0" d="M221.4,391l-0.3,1.3c-0.4-0.2-0.9-0.3-1.3-0.3c-1.2,0-2,0.9-2,2.3v4.2h-1.3v-7.6h1.3v1
		c0.5-0.7,1.3-1.2,2.2-1.2C220.6,390.7,221,390.8,221.4,391z"/>
	<path class="st0" d="M224.6,401.7h-1.4l2.8-4.9l-3.5-6h1.5l2.7,4.7l2.6-4.7h1.4L224.6,401.7z"/>
	<path class="st0" d="M242.4,391.9V387h1.3v11.5h-1.3v-1c-0.6,0.7-1.5,1.2-2.7,1.2c-2.1,0-3.8-1.7-3.8-4s1.7-4,3.8-4
		C240.9,390.7,241.8,391.2,242.4,391.9z M237.3,394.7c0,1.5,1.1,2.7,2.6,2.7s2.6-1.2,2.6-2.7c0-1.6-1.1-2.7-2.6-2.7
		C238.3,392,237.3,393.2,237.3,394.7z"/>
	<path class="st0" d="M253.6,398.5h-1.3v-1c-0.6,0.7-1.5,1.2-2.7,1.2c-2.1,0-3.8-1.7-3.8-4s1.7-4,3.8-4c1.2,0,2.1,0.5,2.7,1.2v-1
		h1.3V398.5z M247.2,394.7c0,1.5,1.1,2.7,2.6,2.7s2.6-1.2,2.6-2.7c0-1.6-1.1-2.7-2.6-2.7C248.2,392,247.2,393.2,247.2,394.7z"/>
	<path class="st0" d="M257.3,401.7h-1.4l2.8-4.9l-3.5-6h1.5l2.7,4.7l2.6-4.7h1.4L257.3,401.7z"/>
</g>
<g>
	<path class="st3" d="M153.6,65.3v2.2c2,0.2,3.5,0.8,5,1.7l-1.5,2.6c-1-0.6-2.2-1.1-3.5-1.3v3.8c2.9,0.5,5.2,1.8,5.2,4.5
		c-0.1,3-2.3,4.6-5.1,5v2.4H151v-2.3c-2.1-0.2-4.3-0.9-5.7-2l1.6-2.5c1,0.7,2.4,1.4,4.1,1.6v-4h-0.1c-2.9-0.5-5.1-1.7-5-4.6
		c0-2.7,2.2-4.5,5.1-4.9v-2.2H153.6z M150.9,73.8v-3.3c-1.1,0.3-1.8,0.9-1.8,1.7C149.1,73.1,149.8,73.5,150.9,73.8z M153.6,77.5v3.3
		c1.1-0.3,1.8-0.9,1.9-1.8C155.5,78.2,154.8,77.8,153.6,77.5z"/>
	<path class="st3" d="M171.6,77.9h2.3v3h-2.3V84h-3.2v-3H161v-2.4l5.9-11.4h3.6l-5.6,10.7h3.6v-4.5h3.2v4.5H171.6z"/>
	<path class="st3" d="M190.2,75.6c0,5.4-3.2,8.7-7.2,8.7s-7.2-3.3-7.2-8.7c0-5.4,3.2-8.7,7.2-8.7C186.9,66.9,190.2,70.2,190.2,75.6z
		 M179.1,75.6c0,3.7,1.7,5.6,3.9,5.6s3.9-1.9,3.9-5.6S185.2,70,183,70S179.1,72,179.1,75.6z"/>
	<path class="st3" d="M196.7,80.2l-1.7,7.1h-2.6l0.8-7.1H196.7z"/>
	<path class="st3" d="M211.6,71.8c0,1.9-1.1,3.1-2.6,3.8c1.7,0.6,3,1.8,3,3.9c0,3.1-3,4.9-6.6,4.9s-6.6-1.8-6.6-4.9
		c0-2.1,1.3-3.2,3-3.9c-1.5-0.7-2.6-1.9-2.6-3.8c0-3,2.8-4.8,6.2-4.8S211.6,68.7,211.6,71.8z M202.4,79.2c0,1.5,1.4,2.3,3.1,2.3
		c1.7,0,3.1-0.8,3.1-2.3s-1.4-2.3-3.1-2.3C203.8,76.9,202.4,77.7,202.4,79.2z M202.7,72c0,1.4,1.2,2.2,2.7,2.2s2.7-0.8,2.7-2.2
		c0-1.4-1.2-2.1-2.7-2.1S202.7,70.6,202.7,72z"/>
	<path class="st3" d="M213.8,69.8c0.9-1.2,2.6-2.9,5.7-2.9c3.5,0,5.7,2.2,5.7,5.4c0,2.1-1,3.5-2.4,4.9l-3.6,3.7h6.4v3h-11.1v-2.5
		l5.9-6.1c0.9-0.9,1.4-1.8,1.4-2.9c0-1.5-1-2.5-2.6-2.5s-2.5,0.9-3.4,1.8L213.8,69.8z"/>
	<path class="st3" d="M238.9,71.8c0,1.8-0.9,3.1-2.5,3.8c1.8,0.7,2.9,2,2.9,3.8c0,3.3-3,4.9-6.2,4.9c-2.5,0-4.6-0.9-5.9-2.4l1.9-2.1
		c1,1,2.4,1.6,3.8,1.6c1.6,0,2.9-0.7,2.9-2.2c0-1.4-1.5-2.2-3.3-2.2h-2v-2.9h2c1.6,0,2.9-0.7,2.9-2.1s-1.2-2.1-2.8-2.1
		s-2.7,0.8-3.4,1.7l-2-2.1c1.1-1.5,2.9-2.6,5.6-2.6C236.5,66.9,238.9,68.9,238.9,71.8z"/>
</g>
<g>
	<path class="st0" d="M374.4,221.3v2.2c2,0.2,3.5,0.8,5,1.7l-1.5,2.6c-1-0.6-2.2-1.1-3.5-1.3v3.8c2.9,0.5,5.2,1.8,5.2,4.5
		c-0.1,3-2.3,4.6-5.1,5v2.4h-2.7v-2.3c-2.1-0.2-4.3-0.9-5.7-2l1.6-2.5c1,0.7,2.4,1.4,4.1,1.6v-4h-0.1c-2.9-0.5-5.1-1.7-5-4.6
		c0-2.7,2.2-4.5,5.1-4.9v-2.2H374.4z M371.7,229.8v-3.3c-1.1,0.3-1.8,0.9-1.8,1.7C369.9,229.1,370.6,229.5,371.7,229.8z
		 M374.4,233.5v3.3c1.1-0.3,1.8-0.9,1.9-1.8C376.3,234.2,375.6,233.8,374.4,233.5z"/>
	<path class="st0" d="M389.1,240h-3.2v-12.5l-4,1.6v-3.3l7.3-2.9L389.1,240L389.1,240z"/>
	<path class="st0" d="M404.9,227.8c0,1.9-1.1,3.1-2.6,3.8c1.7,0.6,3,1.8,3,3.9c0,3.1-3,4.9-6.6,4.9s-6.6-1.8-6.6-4.9
		c0-2.1,1.3-3.2,3-3.9c-1.5-0.7-2.6-1.9-2.6-3.8c0-3,2.8-4.8,6.2-4.8S404.9,224.7,404.9,227.8z M395.6,235.2c0,1.5,1.4,2.3,3.1,2.3
		s3.1-0.8,3.1-2.3s-1.4-2.3-3.1-2.3S395.6,233.7,395.6,235.2z M396,228c0,1.4,1.2,2.2,2.7,2.2s2.7-0.8,2.7-2.2s-1.2-2.1-2.7-2.1
		S396,226.6,396,228z"/>
	<path class="st0" d="M411.7,236.2l-1.7,7.1h-2.6l0.8-7.1H411.7z"/>
	<path class="st0" d="M425.3,225.8l-7,14.3h-3.8l6.9-13.8h-8v-3h11.8v2.5H425.3z"/>
	<path class="st0" d="M441.6,231.6c0,5.4-3.2,8.7-7.2,8.7s-7.2-3.3-7.2-8.7s3.2-8.7,7.2-8.7C438.4,222.9,441.6,226.2,441.6,231.6z
		 M430.5,231.6c0,3.7,1.7,5.6,3.9,5.6c2.2,0,3.9-1.9,3.9-5.6s-1.7-5.6-3.9-5.6C432.3,226,430.5,228,430.5,231.6z"/>
	<path class="st0" d="M454.1,233.9h2.3v3h-2.3v3.1h-3.2v-3h-7.4v-2.4l5.9-11.4h3.6l-5.6,10.7h3.6v-4.5h3.2v4.5H454.1z"/>
</g>
<g>
	<path class="st0" d="M590.2,275.9v2.2c2,0.2,3.5,0.8,5,1.7l-1.5,2.6c-1-0.6-2.2-1.1-3.5-1.3v3.8c2.9,0.5,5.2,1.8,5.2,4.5
		c-0.1,3-2.3,4.6-5.1,5v2.4h-2.7v-2.3c-2.1-0.2-4.3-0.9-5.7-2l1.6-2.5c1,0.7,2.4,1.4,4.1,1.6v-3.9h-0.1c-2.9-0.5-5.1-1.7-5-4.6
		c0-2.7,2.2-4.5,5.1-4.9V276h2.6V275.9z M587.5,284.4v-3.3c-1.1,0.3-1.8,0.9-1.8,1.7C585.7,283.7,586.4,284.1,587.5,284.4z
		 M590.2,288.1v3.3c1.1-0.3,1.8-0.9,1.9-1.8C592.1,288.9,591.4,288.4,590.2,288.1z"/>
	<path class="st0" d="M604.9,294.6h-3.2v-12.5l-4,1.6v-3.3l7.3-2.9L604.9,294.6L604.9,294.6z"/>
	<path class="st0" d="M614.8,294.6h-3.2v-12.5l-4,1.6v-3.3l7.3-2.9L614.8,294.6L614.8,294.6z"/>
	<path class="st0" d="M622.1,290.9l-1.7,7.1h-2.6l0.8-7.1H622.1z"/>
	<path class="st0" d="M638.9,286.2c0,5.4-3.2,8.7-7.2,8.7s-7.2-3.3-7.2-8.7c0-5.4,3.2-8.7,7.2-8.7
		C635.6,277.6,638.9,280.8,638.9,286.2z M627.8,286.2c0,3.7,1.7,5.6,3.9,5.6s3.9-1.9,3.9-5.6s-1.7-5.6-3.9-5.6
		C629.5,280.7,627.8,282.6,627.8,286.2z"/>
	<path class="st0" d="M647.5,288.8c-0.2,0-0.5,0-0.8,0c-3.4,0-5.8-2.4-5.8-5.6c0-3.3,2.7-5.7,6.3-5.7s6.3,2.4,6.3,5.7
		c0,1.5-0.6,2.9-1.6,4.5l-4.7,7h-3.9L647.5,288.8z M650.1,283.3c0-1.6-1.3-2.8-2.9-2.8c-1.7,0-2.9,1.1-2.9,2.8
		c0,1.6,1.2,2.8,2.9,2.8C648.9,286,650.1,284.9,650.1,283.3z"/>
	<path class="st0" d="M655.1,280.4c0.9-1.2,2.6-2.9,5.7-2.9c3.5,0,5.7,2.2,5.7,5.4c0,2.1-1,3.5-2.4,4.9l-3.6,3.7h6.4v3h-11.1V292
		l5.9-6.1c0.9-0.9,1.4-1.8,1.4-2.9c0-1.5-1-2.5-2.6-2.5s-2.5,0.9-3.4,1.8L655.1,280.4z"/>
</g>
<g>
	<path class="st0" d="M821,282.2v2.2c2,0.2,3.5,0.8,5,1.7l-1.5,2.6c-1-0.6-2.2-1.1-3.5-1.3v3.8c2.9,0.5,5.2,1.8,5.2,4.5
		c-0.1,3-2.3,4.6-5.1,5v2.4h-2.7v-2.3c-2.1-0.2-4.3-0.9-5.7-2l1.6-2.5c1,0.7,2.4,1.4,4.1,1.6V294h-0.1c-2.9-0.5-5.1-1.7-5-4.6
		c0-2.7,2.2-4.5,5.1-4.9v-2.2h2.6V282.2z M818.4,290.7v-3.3c-1.1,0.3-1.8,0.9-1.8,1.7C816.5,290,817.2,290.4,818.4,290.7z
		 M821,294.3v3.3c1.1-0.3,1.8-0.9,1.9-1.8C822.9,295.1,822.3,294.7,821,294.3z"/>
	<path class="st0" d="M840.5,286.7l-7,14.3h-3.8l6.9-13.8h-8v-3h11.8L840.5,286.7L840.5,286.7z"/>
	<path class="st0" d="M846.4,297.1l-1.7,7.1h-2.6l0.8-7.1H846.4z"/>
	<path class="st0" d="M855.4,300.9h-3.2v-12.5l-4,1.6v-3.3l7.3-2.9L855.4,300.9L855.4,300.9z"/>
	<path class="st0" d="M869.3,287.1h-6.8l-0.1,3.4h1.9c3.9,0,5.9,2.2,5.9,5c0,3.6-2.7,5.7-6.1,5.7c-2.5,0-4.6-0.9-5.9-2.5l1.8-2.3
		c0.9,1,2.6,1.8,4.1,1.8c1.9,0,2.8-1.1,2.8-2.4s-0.8-2.4-3.4-2.4h-4l0.2-9.3h9.7v3H869.3z"/>
	<path class="st0" d="M883.6,288.7c0,1.8-0.9,3.1-2.5,3.8c1.8,0.7,2.9,2,2.9,3.8c0,3.3-3,4.9-6.2,4.9c-2.5,0-4.6-0.9-5.9-2.4
		l1.9-2.1c1,1,2.4,1.6,3.8,1.6c1.6,0,2.9-0.7,2.9-2.2c0-1.4-1.5-2.2-3.3-2.2h-2V291h2c1.6,0,2.9-0.7,2.9-2.1s-1.2-2.1-2.8-2.1
		s-2.7,0.8-3.4,1.7l-2-2.1c1.1-1.5,2.9-2.6,5.6-2.6C881.2,283.8,883.6,285.7,883.6,288.7z"/>
</g>
<g>
	<path class="st0" d="M1033.2,282v2.2c2,0.2,3.5,0.8,5,1.7l-1.5,2.6c-1-0.6-2.2-1.1-3.5-1.3v3.8c2.9,0.5,5.2,1.8,5.2,4.5
		c-0.1,3-2.3,4.6-5.1,5v2.4h-2.7v-2.3c-2.1-0.2-4.3-0.9-5.7-2l1.6-2.5c1,0.7,2.4,1.4,4.1,1.6v-3.9h-0.1c-2.9-0.5-5.1-1.7-5-4.6
		c0-2.7,2.2-4.5,5.1-4.9V282H1033.2z M1030.5,290.6v-3.3c-1.1,0.3-1.8,0.9-1.8,1.7C1028.7,289.8,1029.3,290.3,1030.5,290.6z
		 M1033.2,294.2v3.3c1.1-0.3,1.8-0.9,1.9-1.8C1035,295,1034.4,294.5,1033.2,294.2z"/>
	<path class="st0" d="M1051.2,294.7h2.3v3h-2.3v3.1h-3.2v-3.1h-7.4v-2.4l5.9-11.4h3.6l-5.6,10.7h3.6v-4.5h3.2L1051.2,294.7
		L1051.2,294.7z"/>
	<path class="st0" d="M1059.4,297l-1.7,7.1h-2.6l0.8-7.1H1059.4z"/>
	<path class="st0" d="M1074.2,288.5c0,1.9-1.1,3.1-2.6,3.8c1.7,0.6,3,1.8,3,3.9c0,3.1-3,4.9-6.6,4.9s-6.6-1.8-6.6-4.9
		c0-2.1,1.3-3.2,3-3.9c-1.5-0.7-2.6-1.9-2.6-3.8c0-3,2.8-4.8,6.2-4.8C1071.4,283.7,1074.2,285.5,1074.2,288.5z M1065,295.9
		c0,1.5,1.4,2.3,3.1,2.3s3.1-0.8,3.1-2.3s-1.4-2.3-3.1-2.3S1065,294.4,1065,295.9z M1065.3,288.8c0,1.4,1.2,2.2,2.7,2.2
		s2.7-0.8,2.7-2.2c0-1.4-1.2-2.1-2.7-2.1S1065.3,287.4,1065.3,288.8z"/>
	<path class="st0" d="M1091.4,292.4c0,5.4-3.2,8.7-7.2,8.7s-7.2-3.3-7.2-8.7c0-5.4,3.2-8.7,7.2-8.7
		C1088.1,283.7,1091.4,286.9,1091.4,292.4z M1080.3,292.4c0,3.7,1.7,5.6,3.9,5.6c2.2,0,3.9-1.9,3.9-5.6s-1.7-5.6-3.9-5.6
		S1080.3,288.7,1080.3,292.4z"/>
	<path class="st0" d="M1104.9,288.5c0,1.8-0.9,3.1-2.5,3.8c1.8,0.7,2.9,2,2.9,3.8c0,3.3-3,4.9-6.2,4.9c-2.5,0-4.6-0.9-5.9-2.4
		l1.9-2.1c1,1,2.4,1.6,3.8,1.6c1.6,0,2.9-0.7,2.9-2.2c0-1.4-1.5-2.2-3.3-2.2h-2v-2.9h2c1.6,0,2.9-0.7,2.9-2.1s-1.2-2.1-2.8-2.1
		c-1.6,0-2.7,0.8-3.4,1.7l-2-2.1c1.1-1.5,2.9-2.6,5.6-2.6C1102.5,283.7,1104.9,285.6,1104.9,288.5z"/>
</g>
<g>
	<g>
		<path class="st0" d="M388.4,367c0,1.8-0.9,3.1-2.5,3.8c1.8,0.7,2.9,2,2.9,3.8c0,3.3-3,4.9-6.2,4.9c-2.5,0-4.6-0.9-5.9-2.4l1.9-2.1
			c1,1,2.4,1.6,3.8,1.6c1.6,0,2.9-0.7,2.9-2.2c0-1.4-1.5-2.2-3.3-2.2h-2v-2.9h2c1.6,0,2.9-0.7,2.9-2.1s-1.2-2.1-2.8-2.1
			s-2.7,0.8-3.4,1.7l-2-2.1c1.1-1.5,2.9-2.6,5.6-2.6C386,362.2,388.4,364.1,388.4,367z"/>
		<path class="st0" d="M395.4,377.3c0,1.3-1.1,2.3-2.3,2.3c-1.2,0-2.3-1.1-2.3-2.3c0-1.2,1.1-2.3,2.3-2.3
			C394.4,374.9,395.4,376,395.4,377.3z"/>
		<path class="st0" d="M404.3,379.3h-3.2v-12.5l-4,1.6v-3.3l7.3-2.9L404.3,379.3L404.3,379.3z"/>
		<path class="st0" d="M420.1,367c0,1.9-1.1,3.1-2.6,3.8c1.7,0.6,3,1.8,3,3.9c0,3.1-3,4.9-6.6,4.9s-6.6-1.8-6.6-4.9
			c0-2.1,1.3-3.2,3-3.9c-1.5-0.7-2.6-1.9-2.6-3.8c0-3,2.8-4.8,6.2-4.8S420.1,364,420.1,367z M410.8,374.5c0,1.5,1.4,2.3,3.1,2.3
			s3.1-0.8,3.1-2.3s-1.4-2.3-3.1-2.3C412.2,372.2,410.8,373,410.8,374.5z M411.2,367.3c0,1.4,1.2,2.2,2.7,2.2s2.7-0.8,2.7-2.2
			c0-1.4-1.2-2.1-2.7-2.1C412.4,365.1,411.2,365.9,411.2,367.3z"/>
		<path class="st0" d="M431.8,366.8c0,2.6-2,4.6-4.7,4.6s-4.7-2-4.7-4.6s2-4.6,4.7-4.6C429.8,362.2,431.8,364.2,431.8,366.8z
			 M425.1,366.8c0,1.2,0.9,2.1,2,2.1c1.2,0,2-0.9,2-2.1s-0.9-2.1-2-2.1C425.9,364.7,425.1,365.6,425.1,366.8z M429.3,379.3h-3.1
			l11.3-16.8h3.1L429.3,379.3z M444.4,375c0,2.6-2,4.6-4.7,4.6s-4.7-2-4.7-4.6s2-4.6,4.7-4.6S444.4,372.4,444.4,375z M437.7,375
			c0,1.2,0.9,2.1,2,2.1c1.2,0,2-0.9,2-2.1s-0.9-2.1-2-2.1C438.5,372.9,437.7,373.8,437.7,375z"/>
		<path class="st0" d="M349.9,398.5h-1.4v-9.6l-3.8,8.4h-1.5l-3.8-8.4v9.6H338v-11.2h2.2l3.8,8.4l3.8-8.4h2.2v11.2H349.9z"/>
		<path class="st0" d="M354.4,388.2c0,0.5-0.4,0.9-0.9,0.9s-0.9-0.4-0.9-0.9s0.4-0.9,0.9-0.9C354,387.3,354.4,387.7,354.4,388.2z
			 M354.2,398.5h-1.3v-7.6h1.3V398.5z"/>
		<path class="st0" d="M362,392.6c-0.5-0.3-1.4-0.7-2.4-0.7s-1.7,0.4-1.7,1.1c0,0.6,0.6,0.9,1.5,1l0.9,0.1c1.6,0.2,2.6,0.9,2.6,2.2
			c0,1.4-1.3,2.4-3.4,2.4c-0.9,0-2.2-0.2-3.2-1l0.6-1c0.6,0.4,1.3,0.8,2.6,0.8c1.2,0,2-0.4,2-1.2c0-0.6-0.5-0.9-1.5-1l-0.9-0.1
			c-1.7-0.2-2.5-1-2.5-2.1c0-1.5,1.2-2.3,3.1-2.3c1.2,0,2.3,0.3,3,0.8L362,392.6z"/>
		<path class="st0" d="M369.8,392.6c-0.5-0.3-1.4-0.7-2.4-0.7s-1.7,0.4-1.7,1.1c0,0.6,0.6,0.9,1.5,1l0.9,0.1
			c1.6,0.2,2.6,0.9,2.6,2.2c0,1.4-1.3,2.4-3.4,2.4c-0.9,0-2.2-0.2-3.2-1l0.6-1c0.6,0.4,1.3,0.8,2.6,0.8c1.2,0,2-0.4,2-1.2
			c0-0.6-0.5-0.9-1.5-1l-0.9-0.1c-1.7-0.2-2.5-1-2.5-2.1c0-1.5,1.2-2.3,3.1-2.3c1.2,0,2.3,0.3,3,0.8L369.8,392.6z"/>
		<path class="st0" d="M379.4,394.7c0,0.2,0,0.3,0,0.5h-6c0.2,1.6,1.3,2.4,2.6,2.4c0.9,0,1.7-0.3,2.3-0.9l0.7,0.9
			c-0.9,0.9-2,1.2-3.1,1.2c-2.3,0-3.9-1.6-3.9-4c0-2.3,1.6-4,3.8-4C377.9,390.7,379.4,392.4,379.4,394.7z M373.4,394.1h4.6
			c-0.2-1.3-1-2.2-2.3-2.2C374.5,391.9,373.6,392.8,373.4,394.1z"/>
		<path class="st0" d="M387.5,391.9V387h1.3v11.5h-1.3v-1c-0.6,0.7-1.5,1.2-2.7,1.2c-2.1,0-3.8-1.7-3.8-4s1.7-4,3.8-4
			C386,390.7,386.9,391.2,387.5,391.9z M382.4,394.7c0,1.5,1.1,2.7,2.6,2.7s2.6-1.2,2.6-2.7c0-1.6-1.1-2.7-2.6-2.7
			C383.4,392,382.4,393.2,382.4,394.7z"/>
		<path class="st0" d="M401,392.1h-3.2v3.7c0,1.1,0.6,1.6,1.4,1.6c0.6,0,1.1-0.2,1.6-0.5l0.6,1c-0.6,0.4-1.3,0.8-2.3,0.8
			c-1.6,0-2.6-0.9-2.6-2.8v-3.7h-1.6V391h1.6v-2.4h1.3v2.4h3.2V392.1z"/>
		<path class="st0" d="M410.3,394.7c0,2.3-1.7,4-4,4s-4-1.7-4-4s1.7-4,4-4S410.3,392.4,410.3,394.7z M403.6,394.7
			c0,1.6,1.2,2.7,2.7,2.7s2.7-1.1,2.7-2.7s-1.2-2.7-2.7-2.7C404.7,392,403.6,393.1,403.6,394.7z"/>
		<path class="st0" d="M420.2,394.7c0,2.3-1.7,4-3.8,4c-1.2,0-2.1-0.5-2.7-1.2v4.2h-1.3v-10.8h1.3v1c0.6-0.7,1.5-1.2,2.7-1.2
			C418.5,390.7,420.2,392.4,420.2,394.7z M413.6,394.7c0,1.6,1.1,2.7,2.6,2.7c1.6,0,2.6-1.2,2.6-2.7s-1.1-2.7-2.6-2.7
			S413.6,393.2,413.6,394.7z"/>
		<path class="st0" d="M429.9,397.2V389l-3.2,1.1v-1.4l4.5-1.6v10.1h2.9v1.3h-7.3v-1.3H429.9z"/>
		<path class="st0" d="M443.7,392.9c0,4.1-1.9,5.8-4.2,5.8c-2.3,0-4.2-1.6-4.2-5.8c0-4.1,1.9-5.8,4.2-5.8
			C441.8,387.1,443.7,389,443.7,392.9z M436.7,392.9c0,3.3,1.3,4.5,2.8,4.5s2.8-1.2,2.8-4.5c0-3.1-1.3-4.5-2.8-4.5
			C438,388.5,436.7,389.6,436.7,392.9z"/>
		<path class="st0" d="M455.8,391.9V387h1.3v11.5h-1.3v-1c-0.6,0.7-1.5,1.2-2.7,1.2c-2.1,0-3.8-1.7-3.8-4s1.7-4,3.8-4
			C454.3,390.7,455.2,391.2,455.8,391.9z M450.7,394.7c0,1.5,1.1,2.7,2.6,2.7s2.6-1.2,2.6-2.7c0-1.6-1.1-2.7-2.6-2.7
			C451.7,392,450.7,393.2,450.7,394.7z"/>
		<path class="st0" d="M467,398.5h-1.3v-1c-0.6,0.7-1.5,1.2-2.7,1.2c-2.1,0-3.8-1.7-3.8-4s1.7-4,3.8-4c1.2,0,2.1,0.5,2.7,1.2v-1h1.3
			V398.5z M460.6,394.7c0,1.5,1.1,2.7,2.6,2.7s2.6-1.2,2.6-2.7c0-1.6-1.1-2.7-2.6-2.7C461.6,392,460.6,393.2,460.6,394.7z"/>
		<path class="st0" d="M470.7,401.7h-1.4l2.8-4.9l-3.5-6h1.5l2.7,4.7l2.6-4.7h1.4L470.7,401.7z"/>
		<path class="st0" d="M483.3,392.6c-0.5-0.3-1.4-0.7-2.4-0.7s-1.7,0.4-1.7,1.1c0,0.6,0.6,0.9,1.5,1l0.9,0.1
			c1.6,0.2,2.6,0.9,2.6,2.2c0,1.4-1.3,2.4-3.4,2.4c-0.9,0-2.2-0.2-3.2-1l0.6-1c0.6,0.4,1.3,0.8,2.6,0.8c1.2,0,2-0.4,2-1.2
			c0-0.6-0.5-0.9-1.5-1l-0.9-0.1c-1.7-0.2-2.5-1-2.5-2.1c0-1.5,1.2-2.3,3.1-2.3c1.2,0,2.3,0.3,3,0.8L483.3,392.6z"/>
	</g>
</g>
<g>
	<g>
		<path class="st0" d="M607.7,370.9c0,5.4-3.2,8.7-7.2,8.7s-7.2-3.3-7.2-8.7c0-5.4,3.2-8.7,7.2-8.7
			C604.4,362.2,607.7,365.5,607.7,370.9z M596.6,370.9c0,3.7,1.7,5.6,3.9,5.6s3.9-1.9,3.9-5.6s-1.7-5.6-3.9-5.6
			S596.6,367.2,596.6,370.9z"/>
		<path class="st0" d="M614.5,377.3c0,1.3-1.1,2.3-2.3,2.3s-2.3-1.1-2.3-2.3c0-1.2,1.1-2.3,2.3-2.3
			C613.5,374.9,614.5,376,614.5,377.3z"/>
		<path class="st0" d="M627.5,365.5h-6.8l-0.1,3.4h1.9c3.9,0,5.9,2.2,5.9,5c0,3.6-2.7,5.7-6.1,5.7c-2.5,0-4.6-0.9-5.9-2.5l1.8-2.3
			c0.9,1,2.6,1.8,4.1,1.8c1.9,0,2.8-1.1,2.8-2.4s-0.8-2.4-3.4-2.4h-4l0.2-9.3h9.7v3H627.5z"/>
		<path class="st0" d="M630.3,365.1c0.9-1.2,2.6-2.9,5.7-2.9c3.5,0,5.7,2.2,5.7,5.4c0,2.1-1,3.5-2.4,4.9l-3.6,3.7h6.4v3H631v-2.5
			l5.9-6.1c0.9-0.9,1.4-1.8,1.4-2.9c0-1.5-1-2.5-2.6-2.5s-2.5,0.9-3.4,1.8L630.3,365.1z"/>
		<path class="st0" d="M653.3,366.8c0,2.6-2,4.6-4.7,4.6s-4.7-2-4.7-4.6s2-4.6,4.7-4.6C651.3,362.2,653.3,364.2,653.3,366.8z
			 M646.6,366.8c0,1.2,0.9,2.1,2,2.1c1.2,0,2-0.9,2-2.1s-0.9-2.1-2-2.1C647.5,364.7,646.6,365.6,646.6,366.8z M650.8,379.3h-3.1
			l11.3-16.8h3.1L650.8,379.3z M665.9,375c0,2.6-2,4.6-4.7,4.6s-4.7-2-4.7-4.6s2-4.6,4.7-4.6S665.9,372.4,665.9,375z M659.2,375
			c0,1.2,0.9,2.1,2,2.1c1.2,0,2-0.9,2-2.1s-0.9-2.1-2-2.1C660.1,372.9,659.2,373.8,659.2,375z"/>
		<path class="st0" d="M568.6,398.5h-1.4v-9.6l-3.8,8.4H562l-3.8-8.4v9.6h-1.4v-11.2h2.2l3.8,8.4l3.8-8.4h2.2v11.2H568.6z"/>
		<path class="st0" d="M573.1,388.2c0,0.5-0.4,0.9-0.9,0.9s-0.9-0.4-0.9-0.9s0.4-0.9,0.9-0.9C572.7,387.3,573.1,387.7,573.1,388.2z
			 M572.9,398.5h-1.3v-7.6h1.3V398.5z"/>
		<path class="st0" d="M580.6,392.6c-0.5-0.3-1.4-0.7-2.4-0.7s-1.7,0.4-1.7,1.1c0,0.6,0.6,0.9,1.5,1l0.9,0.1
			c1.6,0.2,2.6,0.9,2.6,2.2c0,1.4-1.3,2.4-3.4,2.4c-0.9,0-2.2-0.2-3.2-1l0.6-1c0.6,0.4,1.3,0.8,2.6,0.8c1.2,0,2-0.4,2-1.2
			c0-0.6-0.5-0.9-1.5-1l-0.9-0.1c-1.7-0.2-2.5-1-2.5-2.1c0-1.5,1.2-2.3,3.1-2.3c1.2,0,2.3,0.3,3,0.8L580.6,392.6z"/>
		<path class="st0" d="M588.5,392.6c-0.5-0.3-1.4-0.7-2.4-0.7s-1.7,0.4-1.7,1.1c0,0.6,0.6,0.9,1.5,1l0.9,0.1
			c1.6,0.2,2.6,0.9,2.6,2.2c0,1.4-1.3,2.4-3.4,2.4c-0.9,0-2.2-0.2-3.2-1l0.6-1c0.6,0.4,1.3,0.8,2.6,0.8c1.2,0,2-0.4,2-1.2
			c0-0.6-0.5-0.9-1.5-1l-0.9-0.1c-1.7-0.2-2.5-1-2.5-2.1c0-1.5,1.2-2.3,3.1-2.3c1.2,0,2.3,0.3,3,0.8L588.5,392.6z"/>
		<path class="st0" d="M598.1,394.7c0,0.2,0,0.3,0,0.5h-6c0.2,1.6,1.3,2.4,2.6,2.4c0.9,0,1.7-0.3,2.3-0.9l0.7,0.9
			c-0.9,0.9-2,1.2-3.1,1.2c-2.3,0-3.9-1.6-3.9-4c0-2.3,1.6-4,3.8-4C596.6,390.7,598.1,392.4,598.1,394.7z M592.1,394.1h4.6
			c-0.2-1.3-1-2.2-2.3-2.2C593.2,391.9,592.3,392.8,592.1,394.1z"/>
		<path class="st0" d="M606.2,391.9V387h1.3v11.5h-1.3v-1c-0.6,0.7-1.5,1.2-2.7,1.2c-2.1,0-3.8-1.7-3.8-4s1.7-4,3.8-4
			C604.7,390.7,605.6,391.2,606.2,391.9z M601.1,394.7c0,1.5,1.1,2.7,2.6,2.7s2.6-1.2,2.6-2.7c0-1.6-1.1-2.7-2.6-2.7
			C602.1,392,601.1,393.2,601.1,394.7z"/>
		<path class="st0" d="M619.7,392.1h-3.2v3.7c0,1.1,0.6,1.6,1.4,1.6c0.6,0,1.1-0.2,1.6-0.5l0.6,1c-0.6,0.4-1.3,0.8-2.3,0.8
			c-1.6,0-2.6-0.9-2.6-2.8v-3.7h-1.6V391h1.6v-2.4h1.3v2.4h3.2V392.1z"/>
		<path class="st0" d="M628.9,394.7c0,2.3-1.7,4-4,4s-4-1.7-4-4s1.7-4,4-4S628.9,392.4,628.9,394.7z M622.2,394.7
			c0,1.6,1.2,2.7,2.7,2.7s2.7-1.1,2.7-2.7s-1.2-2.7-2.7-2.7S622.2,393.1,622.2,394.7z"/>
		<path class="st0" d="M638.9,394.7c0,2.3-1.7,4-3.8,4c-1.2,0-2.1-0.5-2.7-1.2v4.2h-1.3v-10.8h1.3v1c0.6-0.7,1.5-1.2,2.7-1.2
			C637.2,390.7,638.9,392.4,638.9,394.7z M632.3,394.7c0,1.6,1.1,2.7,2.6,2.7c1.6,0,2.6-1.2,2.6-2.7s-1.1-2.7-2.6-2.7
			C633.4,392,632.3,393.2,632.3,394.7z"/>
		<path class="st0" d="M645,389c0.5-0.8,1.5-1.9,3.5-1.9c2.3,0,3.6,1.5,3.6,3.5c0,1.4-0.8,2.4-1.5,3.2l-3.2,3.4h5.1v1.3h-7.1v-1.1
			l4.2-4.4c0.7-0.7,1.1-1.5,1.1-2.4c0-1.2-0.8-2.2-2.2-2.2c-1.2,0-1.9,0.6-2.4,1.4L645,389z"/>
		<path class="st0" d="M662.4,392.9c0,4.1-1.9,5.8-4.2,5.8s-4.2-1.6-4.2-5.8c0-4.1,1.9-5.8,4.2-5.8S662.4,389,662.4,392.9z
			 M655.4,392.9c0,3.3,1.3,4.5,2.8,4.5s2.8-1.2,2.8-4.5c0-3.1-1.3-4.5-2.8-4.5C656.7,388.5,655.4,389.6,655.4,392.9z"/>
		<path class="st0" d="M674.6,391.9V387h1.3v11.5h-1.3v-1c-0.6,0.7-1.5,1.2-2.7,1.2c-2.1,0-3.8-1.7-3.8-4s1.7-4,3.8-4
			C673.1,390.7,674,391.2,674.6,391.9z M669.4,394.7c0,1.5,1.1,2.7,2.6,2.7s2.6-1.2,2.6-2.7c0-1.6-1.1-2.7-2.6-2.7
			C670.4,392,669.4,393.2,669.4,394.7z"/>
		<path class="st0" d="M685.8,398.5h-1.3v-1c-0.6,0.7-1.5,1.2-2.7,1.2c-2.1,0-3.8-1.7-3.8-4s1.7-4,3.8-4c1.2,0,2.1,0.5,2.7,1.2v-1
			h1.3V398.5z M679.3,394.7c0,1.5,1.1,2.7,2.6,2.7s2.6-1.2,2.6-2.7c0-1.6-1.1-2.7-2.6-2.7C680.3,392,679.3,393.2,679.3,394.7z"/>
		<path class="st0" d="M689.4,401.7H688l2.8-4.9l-3.5-6h1.5l2.7,4.7l2.6-4.7h1.4L689.4,401.7z"/>
		<path class="st0" d="M702.1,392.6c-0.5-0.3-1.4-0.7-2.4-0.7s-1.7,0.4-1.7,1.1c0,0.6,0.6,0.9,1.5,1l0.9,0.1
			c1.6,0.2,2.6,0.9,2.6,2.2c0,1.4-1.3,2.4-3.4,2.4c-0.9,0-2.2-0.2-3.2-1l0.6-1c0.6,0.4,1.3,0.8,2.6,0.8c1.2,0,2-0.4,2-1.2
			c0-0.6-0.5-0.9-1.5-1l-0.9-0.1c-1.7-0.2-2.5-1-2.5-2.1c0-1.5,1.2-2.3,3.1-2.3c1.2,0,2.3,0.3,3,0.8L702.1,392.6z"/>
	</g>
</g>
<g>
	<g>
		<path class="st0" d="M817.3,374.3h-7.1v-2.7h7.1V374.3z"/>
		<path class="st0" d="M826.5,379.3h-3.2v-12.5l-4,1.6v-3.3l7.3-2.9L826.5,379.3L826.5,379.3z"/>
		<path class="st0" d="M834.2,377.3c0,1.3-1.1,2.3-2.3,2.3s-2.3-1.1-2.3-2.3c0-1.2,1.1-2.3,2.3-2.3
			C833.1,374.9,834.2,376,834.2,377.3z"/>
		<path class="st0" d="M841.9,368.4c0.2,0,0.5,0,0.8,0c3.4,0,5.8,2.4,5.8,5.6c0,3.3-2.7,5.7-6.3,5.7s-6.3-2.4-6.3-5.7
			c0-1.5,0.6-2.9,1.6-4.5l4.7-7h3.9L841.9,368.4z M839.3,373.9c0,1.6,1.3,2.8,2.9,2.8c1.7,0,3-1.1,3-2.8c0-1.6-1.3-2.8-3-2.8
			S839.3,372.3,839.3,373.9z"/>
		<path class="st0" d="M856.1,368.4c0.2,0,0.5,0,0.8,0c3.4,0,5.8,2.4,5.8,5.6c0,3.3-2.7,5.7-6.3,5.7s-6.3-2.4-6.3-5.7
			c0-1.5,0.6-2.9,1.6-4.5l4.7-7h3.9L856.1,368.4z M853.4,373.9c0,1.6,1.3,2.8,2.9,2.8c1.7,0,3-1.1,3-2.8c0-1.6-1.3-2.8-3-2.8
			C854.7,371.1,853.4,372.3,853.4,373.9z"/>
		<path class="st0" d="M873.7,366.8c0,2.6-2,4.6-4.7,4.6s-4.7-2-4.7-4.6s2-4.6,4.7-4.6C871.7,362.2,873.7,364.2,873.7,366.8z
			 M867,366.8c0,1.2,0.9,2.1,2,2.1c1.2,0,2-0.9,2-2.1s-0.9-2.1-2-2.1C867.9,364.7,867,365.6,867,366.8z M871.3,379.3h-3.1l11.3-16.8
			h3.1L871.3,379.3z M886.3,375c0,2.6-2,4.6-4.7,4.6s-4.7-2-4.7-4.6s2-4.6,4.7-4.6S886.3,372.4,886.3,375z M879.6,375
			c0,1.2,0.9,2.1,2,2.1c1.2,0,2-0.9,2-2.1s-0.9-2.1-2-2.1S879.6,373.8,879.6,375z"/>
		<path class="st0" d="M787.3,398.5h-1.4v-9.6l-3.8,8.4h-1.5l-3.8-8.4v9.6h-1.4v-11.2h2.2l3.8,8.4l3.8-8.4h2.2L787.3,398.5
			L787.3,398.5z"/>
		<path class="st0" d="M791.8,388.2c0,0.5-0.4,0.9-0.9,0.9s-0.9-0.4-0.9-0.9s0.4-0.9,0.9-0.9C791.3,387.3,791.8,387.7,791.8,388.2z
			 M791.5,398.5h-1.3v-7.6h1.3V398.5z"/>
		<path class="st0" d="M799.3,392.6c-0.5-0.3-1.4-0.7-2.4-0.7s-1.7,0.4-1.7,1.1c0,0.6,0.6,0.9,1.5,1l0.9,0.1
			c1.6,0.2,2.6,0.9,2.6,2.2c0,1.4-1.3,2.4-3.4,2.4c-0.9,0-2.2-0.2-3.2-1l0.6-1c0.6,0.4,1.3,0.8,2.6,0.8c1.2,0,2-0.4,2-1.2
			c0-0.6-0.5-0.9-1.5-1l-0.9-0.1c-1.7-0.2-2.5-1-2.5-2.1c0-1.5,1.2-2.3,3.1-2.3c1.2,0,2.3,0.3,3,0.8L799.3,392.6z"/>
		<path class="st0" d="M807.2,392.6c-0.5-0.3-1.4-0.7-2.4-0.7s-1.7,0.4-1.7,1.1c0,0.6,0.6,0.9,1.5,1l0.9,0.1
			c1.6,0.2,2.6,0.9,2.6,2.2c0,1.4-1.3,2.4-3.4,2.4c-0.9,0-2.2-0.2-3.2-1l0.6-1c0.6,0.4,1.3,0.8,2.6,0.8c1.2,0,2-0.4,2-1.2
			c0-0.6-0.5-0.9-1.5-1l-0.9-0.1c-1.7-0.2-2.5-1-2.5-2.1c0-1.5,1.2-2.3,3.1-2.3c1.2,0,2.3,0.3,3,0.8L807.2,392.6z"/>
		<path class="st0" d="M816.7,394.7c0,0.2,0,0.3,0,0.5h-6c0.2,1.6,1.3,2.4,2.6,2.4c0.9,0,1.7-0.3,2.3-0.9l0.7,0.9
			c-0.9,0.9-2,1.2-3.1,1.2c-2.3,0-3.9-1.6-3.9-4c0-2.3,1.6-4,3.8-4C815.2,390.7,816.7,392.4,816.7,394.7z M810.8,394.1h4.6
			c-0.2-1.3-1-2.2-2.3-2.2S811,392.8,810.8,394.1z"/>
		<path class="st0" d="M824.8,391.9V387h1.3v11.5h-1.3v-1c-0.6,0.7-1.5,1.2-2.7,1.2c-2.1,0-3.8-1.7-3.8-4s1.7-4,3.8-4
			C823.3,390.7,824.2,391.2,824.8,391.9z M819.7,394.7c0,1.5,1.1,2.7,2.6,2.7s2.6-1.2,2.6-2.7c0-1.6-1.1-2.7-2.6-2.7
			C820.7,392,819.7,393.2,819.7,394.7z"/>
		<path class="st0" d="M838.3,392.1h-3.2v3.7c0,1.1,0.6,1.6,1.4,1.6c0.6,0,1.1-0.2,1.6-0.5l0.6,1c-0.6,0.4-1.3,0.8-2.3,0.8
			c-1.6,0-2.6-0.9-2.6-2.8v-3.7h-1.6V391h1.6v-2.4h1.3v2.4h3.2V392.1z"/>
		<path class="st0" d="M847.6,394.7c0,2.3-1.7,4-4,4s-4-1.7-4-4s1.7-4,4-4S847.6,392.4,847.6,394.7z M840.9,394.7
			c0,1.6,1.2,2.7,2.7,2.7s2.7-1.1,2.7-2.7s-1.2-2.7-2.7-2.7C842,392,840.9,393.1,840.9,394.7z"/>
		<path class="st0" d="M857.5,394.7c0,2.3-1.7,4-3.8,4c-1.2,0-2.1-0.5-2.7-1.2v4.2h-1.3v-10.8h1.3v1c0.6-0.7,1.5-1.2,2.7-1.2
			C855.8,390.7,857.5,392.4,857.5,394.7z M850.9,394.7c0,1.6,1.1,2.7,2.6,2.7c1.6,0,2.6-1.2,2.6-2.7s-1.1-2.7-2.6-2.7
			S850.9,393.2,850.9,394.7z"/>
		<path class="st0" d="M870.8,390.3c0,1.3-0.7,2.2-1.7,2.6c1.2,0.4,2,1.3,2,2.6c0,2.1-1.9,3.2-3.9,3.2c-1.6,0-2.9-0.6-3.7-1.5
			l0.9-0.9c0.7,0.7,1.7,1.2,2.8,1.2c1.4,0,2.5-0.6,2.5-2c0-1.3-1.2-2-2.6-2h-1.4v-1.2h1.4c1.3,0,2.4-0.6,2.4-1.9
			c0-1.2-1-1.9-2.4-1.9c-1.1,0-1.9,0.6-2.4,1.3l-1-0.8c0.6-1,1.8-1.7,3.5-1.7C869.3,387.1,870.8,388.4,870.8,390.3z"/>
		<path class="st0" d="M881.2,392.9c0,4.1-1.9,5.8-4.2,5.8s-4.2-1.6-4.2-5.8c0-4.1,1.9-5.8,4.2-5.8S881.2,389,881.2,392.9z
			 M874.2,392.9c0,3.3,1.3,4.5,2.8,4.5s2.8-1.2,2.8-4.5c0-3.1-1.3-4.5-2.8-4.5C875.4,388.5,874.2,389.6,874.2,392.9z"/>
		<path class="st0" d="M893.3,391.9V387h1.3v11.5h-1.3v-1c-0.6,0.7-1.5,1.2-2.7,1.2c-2.1,0-3.8-1.7-3.8-4s1.7-4,3.8-4
			C891.8,390.7,892.7,391.2,893.3,391.9z M888.2,394.7c0,1.5,1.1,2.7,2.6,2.7s2.6-1.2,2.6-2.7c0-1.6-1.1-2.7-2.6-2.7
			C889.2,392,888.2,393.2,888.2,394.7z"/>
		<path class="st0" d="M904.5,398.5h-1.3v-1c-0.6,0.7-1.5,1.2-2.7,1.2c-2.1,0-3.8-1.7-3.8-4s1.7-4,3.8-4c1.2,0,2.1,0.5,2.7,1.2v-1
			h1.3V398.5z M898.1,394.7c0,1.5,1.1,2.7,2.6,2.7s2.6-1.2,2.6-2.7c0-1.6-1.1-2.7-2.6-2.7C899.1,392,898.1,393.2,898.1,394.7z"/>
		<path class="st0" d="M908.2,401.7h-1.4l2.8-4.9l-3.5-6h1.5l2.7,4.7l2.6-4.7h1.4L908.2,401.7z"/>
		<path class="st0" d="M920.8,392.6c-0.5-0.3-1.4-0.7-2.4-0.7s-1.7,0.4-1.7,1.1c0,0.6,0.6,0.9,1.5,1l0.9,0.1
			c1.6,0.2,2.6,0.9,2.6,2.2c0,1.4-1.3,2.4-3.4,2.4c-0.9,0-2.2-0.2-3.2-1l0.6-1c0.6,0.4,1.3,0.8,2.6,0.8c1.2,0,2-0.4,2-1.2
			c0-0.6-0.5-0.9-1.5-1l-0.9-0.1c-1.7-0.2-2.5-1-2.5-2.1c0-1.5,1.2-2.3,3.1-2.3c1.2,0,2.3,0.3,3,0.8L920.8,392.6z"/>
	</g>
</g>
<g>
	<g>
		<path class="st0" d="M1032.7,374.3h-7.1v-2.7h7.1V374.3z"/>
		<path class="st0" d="M1046.3,367c0,1.8-0.9,3.1-2.5,3.8c1.8,0.7,2.9,2,2.9,3.8c0,3.3-3,4.9-6.2,4.9c-2.5,0-4.6-0.9-5.9-2.4
			l1.9-2.1c1,1,2.4,1.6,3.8,1.6c1.6,0,2.9-0.7,2.9-2.2c0-1.4-1.5-2.2-3.3-2.2h-2v-2.9h2c1.6,0,2.9-0.7,2.9-2.1s-1.2-2.1-2.8-2.1
			c-1.6,0-2.7,0.8-3.4,1.7l-2-2.1c1.1-1.5,2.9-2.6,5.6-2.6C1043.9,362.2,1046.3,364.1,1046.3,367z"/>
		<path class="st0" d="M1053.4,377.3c0,1.3-1.1,2.3-2.3,2.3c-1.2,0-2.3-1.1-2.3-2.3c0-1.2,1.1-2.3,2.3-2.3
			C1052.3,374.9,1053.4,376,1053.4,377.3z"/>
		<path class="st0" d="M1061.2,368.4c0.2,0,0.5,0,0.8,0c3.4,0,5.8,2.4,5.8,5.6c0,3.3-2.7,5.7-6.3,5.7c-3.6,0-6.3-2.4-6.3-5.7
			c0-1.5,0.6-2.9,1.6-4.5l4.7-7h3.9L1061.2,368.4z M1058.5,373.9c0,1.6,1.3,2.8,2.9,2.8c1.7,0,3-1.1,3-2.8c0-1.6-1.3-2.8-3-2.8
			C1059.8,371.1,1058.5,372.3,1058.5,373.9z"/>
		<path class="st0" d="M1084.3,370.9c0,5.4-3.2,8.7-7.2,8.7s-7.2-3.3-7.2-8.7c0-5.4,3.2-8.7,7.2-8.7
			C1081,362.2,1084.3,365.5,1084.3,370.9z M1073.2,370.9c0,3.7,1.7,5.6,3.9,5.6c2.2,0,3.9-1.9,3.9-5.6s-1.7-5.6-3.9-5.6
			C1074.9,365.3,1073.2,367.2,1073.2,370.9z"/>
		<path class="st0" d="M1095.8,366.8c0,2.6-2,4.6-4.7,4.6s-4.7-2-4.7-4.6s2-4.6,4.7-4.6C1093.8,362.2,1095.8,364.2,1095.8,366.8z
			 M1089.1,366.8c0,1.2,0.9,2.1,2,2.1c1.2,0,2-0.9,2-2.1s-0.9-2.1-2-2.1C1089.9,364.7,1089.1,365.6,1089.1,366.8z M1093.3,379.3
			h-3.1l11.3-16.8h3.1L1093.3,379.3z M1108.4,375c0,2.6-2,4.6-4.7,4.6s-4.7-2-4.7-4.6s2-4.6,4.7-4.6S1108.4,372.4,1108.4,375z
			 M1101.7,375c0,1.2,0.9,2.1,2,2.1c1.2,0,2-0.9,2-2.1s-0.9-2.1-2-2.1C1102.5,372.9,1101.7,373.8,1101.7,375z"/>
		<path class="st0" d="M1005.8,398.5h-1.4v-9.6l-3.8,8.4h-1.5l-3.8-8.4v9.6H994v-11.2h2.2l3.8,8.4l3.8-8.4h2.2v11.2H1005.8z"/>
		<path class="st0" d="M1010.3,388.2c0,0.5-0.4,0.9-0.9,0.9s-0.9-0.4-0.9-0.9s0.4-0.9,0.9-0.9
			C1009.9,387.3,1010.3,387.7,1010.3,388.2z M1010,398.5h-1.3v-7.6h1.3V398.5z"/>
		<path class="st0" d="M1017.8,392.6c-0.5-0.3-1.4-0.7-2.4-0.7s-1.7,0.4-1.7,1.1c0,0.6,0.6,0.9,1.5,1l0.9,0.1
			c1.6,0.2,2.6,0.9,2.6,2.2c0,1.4-1.3,2.4-3.4,2.4c-0.9,0-2.2-0.2-3.2-1l0.6-1c0.6,0.4,1.3,0.8,2.6,0.8c1.2,0,2-0.4,2-1.2
			c0-0.6-0.5-0.9-1.5-1l-0.9-0.1c-1.7-0.2-2.5-1-2.5-2.1c0-1.5,1.2-2.3,3.1-2.3c1.2,0,2.3,0.3,3,0.8L1017.8,392.6z"/>
		<path class="st0" d="M1025.7,392.6c-0.5-0.3-1.4-0.7-2.4-0.7s-1.7,0.4-1.7,1.1c0,0.6,0.6,0.9,1.5,1l0.9,0.1
			c1.6,0.2,2.6,0.9,2.6,2.2c0,1.4-1.3,2.4-3.4,2.4c-0.9,0-2.2-0.2-3.2-1l0.6-1c0.6,0.4,1.3,0.8,2.6,0.8c1.2,0,2-0.4,2-1.2
			c0-0.6-0.5-0.9-1.5-1l-0.9-0.1c-1.7-0.2-2.5-1-2.5-2.1c0-1.5,1.2-2.3,3.1-2.3c1.2,0,2.3,0.3,3,0.8L1025.7,392.6z"/>
		<path class="st0" d="M1035.3,394.7c0,0.2,0,0.3,0,0.5h-6c0.2,1.6,1.3,2.4,2.6,2.4c0.9,0,1.7-0.3,2.3-0.9l0.7,0.9
			c-0.9,0.9-2,1.2-3.1,1.2c-2.3,0-3.9-1.6-3.9-4c0-2.3,1.6-4,3.8-4C1033.8,390.7,1035.3,392.4,1035.3,394.7z M1029.3,394.1h4.6
			c-0.2-1.3-1-2.2-2.3-2.2C1030.3,391.9,1029.5,392.8,1029.3,394.1z"/>
		<path class="st0" d="M1043.4,391.9V387h1.3v11.5h-1.3v-1c-0.6,0.7-1.5,1.2-2.7,1.2c-2.1,0-3.8-1.7-3.8-4s1.7-4,3.8-4
			C1041.9,390.7,1042.8,391.2,1043.4,391.9z M1038.2,394.7c0,1.5,1.1,2.7,2.6,2.7s2.6-1.2,2.6-2.7c0-1.6-1.1-2.7-2.6-2.7
			C1039.3,392,1038.2,393.2,1038.2,394.7z"/>
		<path class="st0" d="M1056.9,392.1h-3.2v3.7c0,1.1,0.6,1.6,1.4,1.6c0.6,0,1.1-0.2,1.6-0.5l0.6,1c-0.6,0.4-1.3,0.8-2.3,0.8
			c-1.6,0-2.6-0.9-2.6-2.8v-3.7h-1.6V391h1.6v-2.4h1.3v2.4h3.2V392.1z"/>
		<path class="st0" d="M1066.1,394.7c0,2.3-1.7,4-4,4s-4-1.7-4-4s1.7-4,4-4S1066.1,392.4,1066.1,394.7z M1059.4,394.7
			c0,1.6,1.2,2.7,2.7,2.7s2.7-1.1,2.7-2.7s-1.2-2.7-2.7-2.7S1059.4,393.1,1059.4,394.7z"/>
		<path class="st0" d="M1076,394.7c0,2.3-1.7,4-3.8,4c-1.2,0-2.1-0.5-2.7-1.2v4.2h-1.3v-10.8h1.3v1c0.6-0.7,1.5-1.2,2.7-1.2
			C1074.4,390.7,1076,392.4,1076,394.7z M1069.5,394.7c0,1.6,1.1,2.7,2.6,2.7c1.6,0,2.6-1.2,2.6-2.7s-1.1-2.7-2.6-2.7
			S1069.5,393.2,1069.5,394.7z"/>
		<path class="st0" d="M1088.3,394.9h1.9v1.3h-1.9v2.3h-1.4v-2.3h-5.2v-1l4.2-7.8h1.5l-4.1,7.6h3.5v-3.1h1.4L1088.3,394.9
			L1088.3,394.9z"/>
		<path class="st0" d="M1100,392.9c0,4.1-1.9,5.8-4.2,5.8c-2.3,0-4.2-1.6-4.2-5.8c0-4.1,1.9-5.8,4.2-5.8S1100,389,1100,392.9z
			 M1093,392.9c0,3.3,1.3,4.5,2.8,4.5s2.8-1.2,2.8-4.5c0-3.1-1.3-4.5-2.8-4.5C1094.3,388.5,1093,389.6,1093,392.9z"/>
		<path class="st0" d="M1112.2,391.9V387h1.3v11.5h-1.3v-1c-0.6,0.7-1.5,1.2-2.7,1.2c-2.1,0-3.8-1.7-3.8-4s1.7-4,3.8-4
			C1110.7,390.7,1111.6,391.2,1112.2,391.9z M1107,394.7c0,1.5,1.1,2.7,2.6,2.7s2.6-1.2,2.6-2.7c0-1.6-1.1-2.7-2.6-2.7
			S1107,393.2,1107,394.7z"/>
		<path class="st0" d="M1123.4,398.5h-1.3v-1c-0.6,0.7-1.5,1.2-2.7,1.2c-2.1,0-3.8-1.7-3.8-4s1.7-4,3.8-4c1.2,0,2.1,0.5,2.7,1.2v-1
			h1.3V398.5z M1116.9,394.7c0,1.5,1.1,2.7,2.6,2.7s2.6-1.2,2.6-2.7c0-1.6-1.1-2.7-2.6-2.7S1116.9,393.2,1116.9,394.7z"/>
		<path class="st0" d="M1127.1,401.7h-1.4l2.8-4.9l-3.5-6h1.5l2.7,4.7l2.6-4.7h1.4L1127.1,401.7z"/>
		<path class="st0" d="M1139.7,392.6c-0.5-0.3-1.4-0.7-2.4-0.7s-1.7,0.4-1.7,1.1c0,0.6,0.6,0.9,1.5,1l0.9,0.1
			c1.6,0.2,2.6,0.9,2.6,2.2c0,1.4-1.3,2.4-3.4,2.4c-0.9,0-2.2-0.2-3.2-1l0.6-1c0.6,0.4,1.3,0.8,2.6,0.8c1.2,0,2-0.4,2-1.2
			c0-0.6-0.5-0.9-1.5-1l-0.9-0.1c-1.7-0.2-2.5-1-2.5-2.1c0-1.5,1.2-2.3,3.1-2.3c1.2,0,2.3,0.3,3,0.8L1139.7,392.6z"/>
	</g>
</g>
<g>
	<line class="st4" x1="82.6" y1="312.4" x2="1176.1" y2="312.4"/>
</g>
<line class="st4" x1="82.5" y1="388.5" x2="82.5" y2="26.5"/>
</svg>
