<?xml version="1.0" encoding="utf-8"?>
<!-- Generator: Adobe Illustrator 24.3.0, SVG Export Plug-In . SVG Version: 6.00 Build 0)  -->
<svg version="1.1" id="Layer_3" xmlns="http://www.w3.org/2000/svg" xmlns:xlink="http://www.w3.org/1999/xlink" x="0px" y="0px"
	 viewBox="0 0 216 216" style="enable-background:new 0 0 216 216;" xml:space="preserve">
<style type="text/css">
	.st0{fill:#F04C24;}
	.st1{fill:#091821;}
	.st2{fill:#FFFFFF;}
</style>
<path class="st0" d="M60.3,126.4c3.3,3.1,4.8,4.3,6.9,2.2c8.5-8.8,31.1-31.1,35.6-31.5c1.1,1.6,1.6,2,1.6,2l-35.6,35.8
	C68.8,134.8,61,134.1,60.3,126.4z"/>
<polygon class="st0" points="101.3,151.6 122.2,126.1 131.2,101.6 138.4,103.4 142.8,94.2 147.2,91.6 148.5,138.2 152.1,142.1 
	152.8,151.9 134.3,151.5 131.5,144.1 126.6,152.4 "/>
<path class="st0" d="M80.7,72.3c8.2,0.8,20.2,10.1,27.7,17c0.4,0.4,2.2-1.6,2.6-5.2c0.5,0.4,0.2,6.2,0.7,6.6
	c5.6,4.9,7.7,7.3,9.6,9.9c-1.2,2.9-1.9,5-1.9,5S94.1,79.8,80.7,72.3z"/>
<g>
	<path class="st1" d="M67.4,132.5l36-34.6l0.7,0.5c5.8,3.8,12.5,13.9,12.5,13.9l-1,5.2l0,0c-3.9-5.6-9.3-12.2-12.8-16.5l-32.7,34.1
		c-0.5,0.5-1.4,1.1-3,1.1c0,0,0,0,0,0c-2.2,0-4.9-1.3-6.2-2.6c-1.9-1.9-3.8-6.7-1.5-9.1l34.2-32.8c-12-12.4-23.8-20.5-23.9-20.6
		c-0.7-0.4-1-1.3-0.9-2.1s0.9-1.4,1.7-1.5c0.8-0.1,1.6-0.1,2.5-0.1c9.5,0,21.4,5.1,32.2,13.8l8,0l0.5,8c2,2.1,5.3,5.6,8.3,8.8
		l-1.4,4.2c-4-4.5-9.4-10.1-10.8-11.5L111,84l-7.1,1.3C95.3,78,83.2,72,75,70.6c5.2,3.8,13.9,10.8,21.7,19.1l2.4,2.3
		c-8,3-37,35.4-37,35.4c-0.2,0.5,0.6,2.8,1.5,3.7C64.7,132.1,67,132.9,67.4,132.5z"/>
	<path class="st1" d="M99.8,151.6c0,0,23.2-31.1,23.2-31.3l7.5-23.4l19.9-9.5l-1,61.6l-41.6,2.1l1.5,1.5l45.9,2.2l0-71.6l-2.8-1.7
		l-24.4,12.3c-0.5,0.2-0.8,0.6-1,1.1l-8.1,24.5l-27.8,32.3L99.8,151.6z"/>
	<path class="st0" d="M98.7,132.5l-13.3,4.8l0.3-12l8.9-3L98.7,132.5z"/>
</g>
<polygon class="st2" points="123.4,137.1 125.7,132.4 129.2,134.8 "/>
<polygon class="st2" points="136.4,124.9 135.3,119.8 139.5,119.5 "/>
<polygon class="st0" points="104.9,116.9 106.5,116.7 107,113.5 103.9,112.5 96.6,115.9 105.4,125.7 105.9,121.7 "/>
</svg>
