<?xml version="1.0" encoding="utf-8"?>
<!-- Generator: Adobe Illustrator 24.3.0, SVG Export Plug-In . SVG Version: 6.00 Build 0)  -->
<svg version="1.1" id="Layer_1" xmlns="http://www.w3.org/2000/svg" xmlns:xlink="http://www.w3.org/1999/xlink" x="0px" y="0px"
	 viewBox="0 0 1000 326.4" style="enable-background:new 0 0 1000 326.4;" xml:space="preserve">
<style type="text/css">
	.st0{fill:none;stroke:#BCBEC0;stroke-width:2;stroke-miterlimit:10;}
	.st1{fill:#202323;}
	.st2{fill:#ED5A36;}
	.st3{fill:#F47E20;}
</style>
<line class="st0" x1="405.1" y1="27.1" x2="405.1" y2="280.2"/>
<g>
	<path class="st1" d="M18.9,48.3H3.7V26.6h2.7v19.1h12.4V48.3z"/>
	<path class="st1" d="M35.1,40.9c0,0.3,0,0.7,0,0.9H23.5c0.4,3.1,2.5,4.6,5,4.6c1.7,0,3.3-0.7,4.5-1.8l1.3,1.7
		c-1.8,1.7-3.9,2.2-6,2.2c-4.4,0-7.5-3.1-7.5-7.7c0-4.5,3.1-7.7,7.3-7.7C32.2,33.2,35.1,36.4,35.1,40.9z M23.5,39.8h9
		c-0.3-2.6-2-4.3-4.4-4.3C25.6,35.5,23.9,37.3,23.5,39.8z"/>
	<path class="st1" d="M57.6,34.8V26h4v22.3h-4v-1.7c-1,1.2-2.4,2-4.5,2c-4.1,0-7.3-3.4-7.3-7.9s3.1-7.9,7.3-7.9
		C55.2,32.9,56.6,33.6,57.6,34.8z M50,40.8c0,2.3,1.5,4.1,3.9,4.1c2.3,0,3.9-1.8,3.9-4.1c0-2.4-1.6-4.1-3.9-4.1
		C51.5,36.6,50,38.5,50,40.8z"/>
	<path class="st1" d="M79.7,40.7c0,0.5,0,1-0.1,1.4H68.9c0.4,2.2,2,3.1,3.9,3.1c1.3,0,2.7-0.5,3.8-1.4l2.4,2.6
		c-1.7,1.6-3.9,2.3-6.4,2.3c-4.6,0-7.8-3.1-7.8-7.9c0-4.7,3.1-8,7.6-8C76.7,32.9,79.6,36.1,79.7,40.7z M68.9,39.3h6.7
		c-0.4-1.9-1.5-3-3.3-3C70.4,36.3,69.3,37.5,68.9,39.3z M69.6,31.1l3.1-4.9h4.8l-4.1,4.9H69.6z"/>
	<path class="st1" d="M92.7,36.9H88v11.4h-4V36.9h-2.8v-3.6H84v-1.9c0-3.5,1.9-5.8,5.4-5.8c2,0,3.5,0.6,4.6,1.3l-1.6,3.1
		c-0.7-0.4-1.6-0.7-2.6-0.7c-1.2,0-1.8,0.7-1.8,2.1v1.8h4.7V36.9z"/>
	<path class="st1" d="M100.2,28.3c0,1.5-1.1,2.6-2.6,2.6c-1.5,0-2.6-1.1-2.6-2.6c0-1.5,1.1-2.6,2.6-2.6
		C99.1,25.7,100.2,26.9,100.2,28.3z M99.7,48.3h-4v-15h4V48.3z"/>
	<path class="st1" d="M116.9,35.7l-2.9,2.4c-0.9-1-1.9-1.5-3.2-1.5c-2.1,0-3.8,1.6-3.8,4.1c0,2.5,1.7,4.1,3.8,4.1
		c1.3,0,2.4-0.6,3.3-1.5l2.9,2.5c-1.4,1.8-3.5,2.8-6,2.8c-4.8,0-8-3.3-8-7.9c0-4.5,3.2-7.9,8-7.9C113.4,32.9,115.5,33.9,116.9,35.7z
		"/>
	<path class="st1" d="M124.2,28.3c0,1.5-1.1,2.6-2.6,2.6c-1.5,0-2.6-1.1-2.6-2.6c0-1.5,1.1-2.6,2.6-2.6
		C123.1,25.7,124.2,26.9,124.2,28.3z M123.7,48.3h-4v-15h4V48.3z"/>
	<path class="st1" d="M138.7,36.9h-5.4v5.5c0,1.9,1,2.6,2.2,2.6c1,0,2-0.5,2.8-1l1.5,3.2c-1.3,0.9-2.8,1.6-5,1.6
		c-3.7,0-5.6-2.1-5.6-6v-5.8h-2.9v-3.6h2.9v-4.5h4v4.5h5.4V36.9z"/>
	<path class="st1" d="M165.3,40.8c0,4.5-3.1,7.9-7.3,7.9c-2.1,0-3.5-0.8-4.5-2v1.7h-4V26h4v8.9c1-1.2,2.4-2,4.4-2
		C162.2,32.9,165.3,36.2,165.3,40.8z M153.4,40.8c0,2.4,1.6,4.1,3.9,4.1c2.4,0,3.9-1.8,3.9-4.1s-1.5-4.1-3.9-4.1
		C155,36.6,153.4,38.4,153.4,40.8z"/>
	<path class="st1" d="M182.6,41.9c0,4.7-3.3,6.8-7.1,6.8c-3.8,0-7.1-2-7.1-6.8v-8.6h4v8.3c0,2.4,1.3,3.4,3.1,3.4
		c1.7,0,3.1-1,3.1-3.4v-8.3h4V41.9z"/>
	<path class="st1" d="M197.3,34.8V26h4v22.3h-4v-1.7c-1,1.2-2.4,2-4.5,2c-4.1,0-7.3-3.4-7.3-7.9s3.1-7.9,7.3-7.9
		C194.9,32.9,196.3,33.6,197.3,34.8z M189.7,40.8c0,2.3,1.5,4.1,3.9,4.1c2.3,0,3.9-1.8,3.9-4.1c0-2.4-1.6-4.1-3.9-4.1
		C191.2,36.6,189.7,38.5,189.7,40.8z"/>
	<path class="st1" d="M216,34.9v-1.7h4V47c0,4.8-3.1,7.7-8.1,7.7c-2.4,0-4.9-0.6-6.6-1.8l1.4-3.3c1.5,1,3.2,1.5,5,1.5
		c2.5,0,4.3-1.4,4.3-4v-1.1c-1,1.3-2.5,2-4.6,2c-3.7,0-6.9-3.1-6.9-7.7c0-4.6,3.3-7.7,6.9-7.7C213.5,32.9,215,33.7,216,34.9z
		 M208.6,40.5c0,2.2,1.5,3.9,3.8,3.9c2.2,0,3.8-1.7,3.8-3.9c0-2.2-1.5-4-3.8-4C210.1,36.6,208.6,38.3,208.6,40.5z"/>
	<path class="st1" d="M238.1,40.7c0,0.5,0,1-0.1,1.4h-10.7c0.4,2.2,2,3.1,3.9,3.1c1.3,0,2.7-0.5,3.8-1.4l2.4,2.6
		c-1.7,1.6-3.9,2.3-6.4,2.3c-4.6,0-7.8-3.1-7.8-7.9c0-4.7,3.1-8,7.6-8C235.1,32.9,238,36.1,238.1,40.7z M227.4,39.3h6.7
		c-0.4-1.9-1.5-3-3.3-3C228.8,36.3,227.7,37.5,227.4,39.3z M228,31.1l3.1-4.9h4.8l-4.1,4.9H228z"/>
	<path class="st1" d="M252,36.9h-5.4v5.5c0,1.9,1,2.6,2.2,2.6c1,0,2-0.5,2.8-1l1.5,3.2c-1.3,0.9-2.8,1.6-5,1.6c-3.7,0-5.6-2.1-5.6-6
		v-5.8h-2.9v-3.6h2.9v-4.5h4v4.5h5.4V36.9z"/>
	<path class="st1" d="M270,48.3h-4v-1.7c-1,1.2-2.4,2-4.5,2c-4.1,0-7.3-3.4-7.3-7.9s3.1-7.9,7.3-7.9c2.1,0,3.5,0.8,4.5,2.1v-1.7h4
		V48.3z M258.4,40.8c0,2.3,1.5,4.1,3.9,4.1c2.3,0,3.9-1.8,3.9-4.1c0-2.4-1.6-4.1-3.9-4.1C259.9,36.6,258.4,38.5,258.4,40.8z"/>
	<path class="st1" d="M278.6,28.3c0,1.5-1.1,2.6-2.6,2.6c-1.5,0-2.6-1.1-2.6-2.6c0-1.5,1.1-2.6,2.6-2.6
		C277.5,25.7,278.6,26.9,278.6,28.3z M278.1,48.3h-4v-15h4V48.3z"/>
	<path class="st1" d="M292.5,33.2l-0.6,4c-0.7-0.3-1.6-0.5-2.4-0.5c-1.9,0-3.2,1.1-3.2,3.4v8.2h-4v-15h3.9v1.6c0.9-1.4,2.4-2,4.2-2
		C291.2,32.9,291.9,33,292.5,33.2z"/>
	<path class="st1" d="M308.5,40.7c0,0.5,0,1-0.1,1.4h-10.7c0.4,2.2,2,3.1,3.9,3.1c1.3,0,2.7-0.5,3.8-1.4l2.4,2.6
		c-1.7,1.6-3.9,2.3-6.4,2.3c-4.6,0-7.8-3.1-7.8-7.9c0-4.7,3.1-8,7.6-8C305.5,32.9,308.5,36.1,308.5,40.7z M297.8,39.3h6.7
		c-0.4-1.9-1.5-3-3.3-3C299.3,36.3,298.2,37.5,297.8,39.3z"/>
	<path class="st1" d="M15.9,72.9l-2.9,2.4c-0.9-1-1.9-1.5-3.2-1.5C7.6,73.8,6,75.5,6,78c0,2.5,1.7,4.1,3.8,4.1
		c1.3,0,2.4-0.6,3.3-1.5l2.9,2.5c-1.4,1.8-3.5,2.8-6,2.8c-4.8,0-8-3.3-8-7.9c0-4.5,3.2-7.9,8-7.9C12.4,70.1,14.5,71.1,15.9,72.9z"/>
	<path class="st1" d="M33.1,85.5h-4v-1.7c-1,1.2-2.4,2-4.5,2c-4.1,0-7.3-3.4-7.3-7.9s3.1-7.9,7.3-7.9c2.1,0,3.5,0.8,4.5,2.1v-1.7h4
		V85.5z M21.5,78c0,2.3,1.5,4.1,3.9,4.1c2.3,0,3.9-1.8,3.9-4.1c0-2.4-1.6-4.1-3.9-4.1C23,73.8,21.5,75.7,21.5,78z"/>
	<path class="st1" d="M51.4,75.9v9.6h-4v-8.3c0-2.2-1.1-3.4-2.9-3.4c-1.7,0-3.2,1.1-3.2,3.4v8.2h-4v-15h3.9v1.8
		c1.1-1.6,2.7-2.2,4.4-2.2C49,70.1,51.4,72.4,51.4,75.9z"/>
	<path class="st1" d="M70.2,85.5h-4v-1.7c-1,1.2-2.4,2-4.5,2c-4.1,0-7.3-3.4-7.3-7.9s3.1-7.9,7.3-7.9c2.1,0,3.5,0.8,4.5,2.1v-1.7h4
		V85.5z M58.6,78c0,2.3,1.5,4.1,3.9,4.1c2.3,0,3.9-1.8,3.9-4.1c0-2.4-1.6-4.1-3.9-4.1C60.1,73.8,58.6,75.7,58.6,78z"/>
	<path class="st1" d="M85,72v-8.9h4v22.3h-4v-1.7c-1,1.2-2.4,2-4.5,2c-4.1,0-7.3-3.4-7.3-7.9s3.1-7.9,7.3-7.9
		C82.6,70.1,84,70.8,85,72z M77.5,78c0,2.3,1.5,4.1,3.9,4.1c2.3,0,3.9-1.8,3.9-4.1c0-2.4-1.6-4.1-3.9-4.1C79,73.8,77.5,75.7,77.5,78
		z"/>
	<path class="st1" d="M97.7,65.5c0,1.5-1.1,2.6-2.6,2.6c-1.5,0-2.6-1.1-2.6-2.6c0-1.5,1.1-2.6,2.6-2.6
		C96.6,62.9,97.7,64.1,97.7,65.5z M97.2,85.5h-4v-15h4V85.5z"/>
	<path class="st1" d="M115.2,77.9c0,0.5,0,1-0.1,1.4h-10.7c0.4,2.2,2,3.1,3.9,3.1c1.3,0,2.7-0.5,3.8-1.4l2.4,2.6
		c-1.7,1.6-3.9,2.3-6.4,2.3c-4.6,0-7.8-3.1-7.8-7.9c0-4.7,3.1-8,7.6-8C112.3,70.1,115.2,73.3,115.2,77.9z M104.5,76.5h6.7
		c-0.4-1.9-1.5-3-3.3-3C106,73.5,104.9,74.7,104.5,76.5z"/>
	<path class="st1" d="M132.6,75.9v9.6h-4v-8.3c0-2.2-1.1-3.4-2.9-3.4c-1.7,0-3.2,1.1-3.2,3.4v8.2h-4v-15h3.9v1.8
		c1.1-1.6,2.7-2.2,4.4-2.2C130.1,70.1,132.6,72.4,132.6,75.9z"/>
	<path class="st1" d="M159.8,78c0,4.5-3.1,7.9-7.3,7.9c-2,0-3.4-0.8-4.4-2v7.8h-4V70.5h4v1.7c1-1.2,2.4-2.1,4.5-2.1
		C156.6,70.1,159.8,73.4,159.8,78z M147.9,78c0,2.4,1.6,4.1,3.9,4.1c2.4,0,3.9-1.8,3.9-4.1s-1.5-4.1-3.9-4.1
		C149.5,73.8,147.9,75.6,147.9,78z"/>
	<path class="st1" d="M178.2,78c0,4.5-3.5,7.9-8.1,7.9c-4.7,0-8.1-3.4-8.1-7.9s3.4-7.9,8.1-7.9C174.8,70.1,178.2,73.4,178.2,78z
		 M166.1,78c0,2.4,1.7,4.1,4,4.1s4-1.7,4-4.1s-1.7-4.1-4-4.1S166.1,75.5,166.1,78z"/>
	<path class="st1" d="M195.5,79.1c0,4.7-3.3,6.8-7.1,6.8c-3.8,0-7.1-2-7.1-6.8v-8.6h4v8.3c0,2.4,1.3,3.4,3.1,3.4
		c1.7,0,3.1-1,3.1-3.4v-8.3h4V79.1z"/>
	<path class="st1" d="M209.7,70.4l-0.6,4c-0.7-0.3-1.6-0.5-2.4-0.5c-1.9,0-3.2,1.1-3.2,3.4v8.2h-4v-15h3.9v1.6c0.9-1.4,2.4-2,4.2-2
		C208.5,70.1,209.1,70.2,209.7,70.4z"/>
	<path class="st1" d="M223.7,85.5h-4V63.2h4V85.5z"/>
	<path class="st1" d="M232.5,63.2l-2.2,9.2h-3.4l1-9.2H232.5z"/>
	<path class="st1" d="M247.4,77.9c0,0.5,0,1-0.1,1.4h-10.7c0.4,2.2,2,3.1,3.9,3.1c1.3,0,2.7-0.5,3.8-1.4l2.4,2.6
		c-1.7,1.6-3.9,2.3-6.4,2.3c-4.6,0-7.8-3.1-7.8-7.9c0-4.7,3.1-8,7.6-8C244.4,70.1,247.4,73.3,247.4,77.9z M236.7,76.5h6.7
		c-0.4-1.9-1.5-3-3.3-3C238.2,73.5,237.1,74.7,236.7,76.5z"/>
	<path class="st1" d="M258.6,77.8l5.5,7.6h-4.8l-3.4-4.8l-3.3,4.8h-4.7l5.5-7.6l-5.4-7.4h4.8l3.2,4.7l3.2-4.7h4.7L258.6,77.8z"/>
	<path class="st1" d="M279.6,77.9c0,0.5,0,1-0.1,1.4h-10.7c0.4,2.2,2,3.1,3.9,3.1c1.3,0,2.7-0.5,3.8-1.4l2.4,2.6
		c-1.7,1.6-3.9,2.3-6.4,2.3c-4.6,0-7.8-3.1-7.8-7.9c0-4.7,3.1-8,7.6-8C276.6,70.1,279.5,73.3,279.6,77.9z M268.8,76.5h6.7
		c-0.4-1.9-1.5-3-3.3-3C270.3,73.5,269.2,74.7,268.8,76.5z"/>
	<path class="st1" d="M293,70.4l-0.6,4c-0.7-0.3-1.6-0.5-2.4-0.5c-1.9,0-3.2,1.1-3.2,3.4v8.2h-4v-15h3.9v1.6c0.9-1.4,2.4-2,4.2-2
		C291.7,70.1,292.4,70.2,293,70.4z"/>
	<path class="st1" d="M308.1,72.9l-2.9,2.4c-0.9-1-1.9-1.5-3.2-1.5c-2.1,0-3.8,1.6-3.8,4.1c0,2.5,1.7,4.1,3.8,4.1
		c1.3,0,2.4-0.6,3.3-1.5l2.9,2.5c-1.4,1.8-3.5,2.8-6,2.8c-4.8,0-8-3.3-8-7.9c0-4.5,3.2-7.9,8-7.9C304.6,70.1,306.8,71.1,308.1,72.9z
		"/>
	<path class="st1" d="M315.5,65.5c0,1.5-1.1,2.6-2.6,2.6c-1.5,0-2.6-1.1-2.6-2.6c0-1.5,1.1-2.6,2.6-2.6
		C314.4,62.9,315.5,64.1,315.5,65.5z M315,85.5h-4v-15h4V85.5z"/>
	<path class="st1" d="M332.1,72.9l-2.9,2.4c-0.9-1-1.9-1.5-3.2-1.5c-2.1,0-3.8,1.6-3.8,4.1c0,2.5,1.7,4.1,3.8,4.1
		c1.3,0,2.4-0.6,3.3-1.5l2.9,2.5c-1.4,1.8-3.5,2.8-6,2.8c-4.8,0-8-3.3-8-7.9c0-4.5,3.2-7.9,8-7.9C328.6,70.1,330.8,71.1,332.1,72.9z
		"/>
	<path class="st1" d="M348.6,77.9c0,0.5,0,1-0.1,1.4h-10.7c0.4,2.2,2,3.1,3.9,3.1c1.3,0,2.7-0.5,3.8-1.4l2.4,2.6
		c-1.7,1.6-3.9,2.3-6.4,2.3c-4.6,0-7.8-3.1-7.8-7.9c0-4.7,3.1-8,7.6-8C345.6,70.1,348.5,73.3,348.6,77.9z M337.9,76.5h6.7
		c-0.4-1.9-1.5-3-3.3-3C339.3,73.5,338.2,74.7,337.9,76.5z"/>
	<path class="st1" d="M1.7,104.3c1.2-1.5,3.4-3.7,7.4-3.7c4.5,0,7.4,2.9,7.4,7c0,2.7-1.3,4.5-3.1,6.3l-4.6,4.8H17v3.9H2.7v-3.3
		l7.7-7.9c1.1-1.2,1.8-2.4,1.8-3.7c0-1.9-1.3-3.2-3.3-3.2c-2.1,0-3.3,1.1-4.4,2.4L1.7,104.3z"/>
	<path class="st1" d="M38.3,111.8c0,7-4.2,11.2-9.4,11.2c-5.2,0-9.3-4.2-9.3-11.2s4.2-11.2,9.3-11.2
		C34.1,100.6,38.3,104.8,38.3,111.8z M23.9,111.8c0,4.7,2.2,7.2,5,7.2c2.8,0,5-2.5,5-7.2s-2.2-7.2-5-7.2
		C26.1,104.6,23.9,107.1,23.9,111.8z"/>
	<path class="st1" d="M40.3,104.3c1.2-1.5,3.4-3.7,7.4-3.7c4.5,0,7.4,2.9,7.4,7c0,2.7-1.3,4.5-3.1,6.3l-4.6,4.8h8.3v3.9H41.2v-3.3
		l7.7-7.9c1.1-1.2,1.8-2.4,1.8-3.7c0-1.9-1.3-3.2-3.3-3.2c-2.1,0-3.3,1.1-4.4,2.4L40.3,104.3z"/>
	<path class="st1" d="M76.9,111.8c0,7-4.2,11.2-9.4,11.2c-5.2,0-9.3-4.2-9.3-11.2s4.2-11.2,9.3-11.2
		C72.7,100.6,76.9,104.8,76.9,111.8z M62.5,111.8c0,4.7,2.2,7.2,5,7.2c2.8,0,5-2.5,5-7.2s-2.2-7.2-5-7.2
		C64.7,104.6,62.5,107.1,62.5,111.8z"/>
	<path class="st1" d="M98.5,110.3h-5.7v12.4h-2.5v-12.4H87v-2.3h3.3v-2.5c0-3.1,1.4-5.4,4.9-5.4c1.7,0,3,0.5,4,1.1l-0.9,2.1
		c-0.8-0.5-1.9-0.9-3-0.9c-1.8,0-2.5,1.1-2.5,3v2.5h5.7V110.3z"/>
	<path class="st1" d="M111.2,108.1l-0.6,2.5c-0.7-0.4-1.7-0.6-2.5-0.6c-2.2,0-3.8,1.7-3.8,4.4v8.2h-2.5v-14.7h2.5v1.9
		c1-1.4,2.6-2.2,4.3-2.2C109.5,107.6,110.4,107.8,111.2,108.1z"/>
	<path class="st1" d="M128.3,115.3c0,4.4-3.3,7.7-7.8,7.7s-7.8-3.3-7.8-7.7c0-4.4,3.3-7.7,7.8-7.7S128.3,110.9,128.3,115.3z
		 M123.1,105.7l-2.5-2.8l-2.5,2.8h-2.7l3.6-4.5h3.4l3.5,4.5H123.1z M115.3,115.3c0,3.1,2.2,5.3,5.2,5.3c2.9,0,5.2-2.2,5.2-5.3
		c0-3.1-2.2-5.3-5.2-5.3C117.6,110,115.3,112.2,115.3,115.3z"/>
	<path class="st1" d="M134.9,122.7h-2.5v-22.3h2.5V122.7z"/>
	<path class="st1" d="M153.3,115.3c0,0.3,0,0.7,0,0.9h-11.6c0.4,3.1,2.5,4.6,5,4.6c1.7,0,3.3-0.7,4.5-1.8l1.3,1.7
		c-1.8,1.7-3.9,2.2-6,2.2c-4.4,0-7.5-3.1-7.5-7.7c0-4.5,3.1-7.7,7.3-7.7C150.4,107.6,153.2,110.8,153.3,115.3z M141.7,114.2h9
		c-0.3-2.6-2-4.3-4.4-4.3C143.7,109.9,142.1,111.7,141.7,114.2z"/>
</g>
<g>
	<path class="st2" d="M2.8,188.5c5.7-7.4,16.3-18.1,35.8-18.1c22,0,35.6,13.8,35.6,33.9c0,12.8-6.5,21.7-15.1,30.7l-22.4,23.3h40.1
		v19H7.4v-15.8l37.1-38c5.5-5.6,8.6-11.4,8.6-18c0-9.1-6.4-15.7-16-15.7c-10,0-15.9,5.4-21.3,11.5L2.8,188.5z"/>
	<path class="st2" d="M180.5,224.8c0,34-20.2,54.4-45.3,54.4c-25.1,0-45.2-20.4-45.2-54.4s20.1-54.4,45.2-54.4
		C160.2,170.4,180.5,190.8,180.5,224.8z M111,224.8c0,22.9,10.7,34.9,24.1,34.9c13.5,0,24.1-12,24.1-34.9s-10.6-34.9-24.1-34.9
		C121.7,189.8,111,201.8,111,224.8z"/>
	<path class="st2" d="M283.4,199c0,16.5-12.5,28.7-29.3,28.7c-16.7,0-29.2-12.2-29.2-28.7c0-16.3,12.5-28.6,29.2-28.6
		C270.8,170.4,283.4,182.6,283.4,199z M241.4,199c0,7.6,5.4,13,12.6,13c7.3,0,12.7-5.4,12.7-13c0-7.5-5.3-12.9-12.7-12.9
		C246.8,186.1,241.4,191.5,241.4,199z M268,277.3h-19.6l70.4-105h19.6L268,277.3z M362.2,250.5c0,16.4-12.5,28.6-29.3,28.6
		c-16.7,0-29.2-12.2-29.2-28.6c0-16.2,12.5-28.6,29.2-28.6C349.7,221.9,362.2,234.2,362.2,250.5z M320.3,250.5c0,7.6,5.3,13,12.6,13
		c7.3,0,12.7-5.4,12.7-13c0-7.6-5.3-13-12.7-13C325.6,237.5,320.3,242.9,320.3,250.5z"/>
</g>
<g>
	<path class="st2" d="M514.5,191.1H472l-0.5,21h12.1c24.4,0,36.7,14,36.7,31.6c0,22.6-17.1,35.5-38.3,35.5
		c-15.7,0-28.5-5.8-37.2-15.7l11.4-14.2c5.7,6.2,16,11.1,25.6,11.1c11.7,0,17.5-6.9,17.5-15.2c0-7.9-4.9-14.8-21.4-14.8h-25
		l1.1-58.1h60.4V191.1z"/>
	<path class="st2" d="M625.5,224.8c0,34-20.2,54.4-45.3,54.4c-25.1,0-45.2-20.4-45.2-54.4s20.1-54.4,45.2-54.4
		C605.2,170.4,625.5,190.8,625.5,224.8z M556,224.8c0,22.9,10.7,34.9,24.1,34.9c13.5,0,24.1-12,24.1-34.9s-10.6-34.9-24.1-34.9
		C566.8,189.8,556,201.8,556,224.8z"/>
	<path class="st2" d="M728.4,199c0,16.5-12.5,28.7-29.3,28.7c-16.7,0-29.2-12.2-29.2-28.7c0-16.3,12.5-28.6,29.2-28.6
		C715.9,170.4,728.4,182.6,728.4,199z M686.5,199c0,7.6,5.4,13,12.6,13c7.3,0,12.7-5.4,12.7-13c0-7.5-5.3-12.9-12.7-12.9
		C691.9,186.1,686.5,191.5,686.5,199z M713,277.3h-19.6l70.4-105h19.6L713,277.3z M807.2,250.5c0,16.4-12.5,28.6-29.3,28.6
		c-16.7,0-29.2-12.2-29.2-28.6c0-16.2,12.5-28.6,29.2-28.6C794.7,221.9,807.2,234.2,807.2,250.5z M765.3,250.5c0,7.6,5.3,13,12.6,13
		c7.3,0,12.7-5.4,12.7-13c0-7.6-5.3-13-12.7-13C770.6,237.5,765.3,242.9,765.3,250.5z"/>
</g>
<g>
	<path class="st3" d="M844,238c2.4-3.2,7-7.7,15.3-7.7c9.4,0,15.2,5.9,15.2,14.5c0,5.5-2.8,9.3-6.5,13.1l-9.6,10h17.1v8.1H846v-6.8
		l15.8-16.2c2.4-2.4,3.7-4.9,3.7-7.7c0-3.9-2.7-6.7-6.8-6.7c-4.3,0-6.8,2.3-9.1,4.9L844,238z"/>
	<path class="st3" d="M919.8,253.5c0,14.5-8.6,23.2-19.3,23.2c-10.7,0-19.3-8.7-19.3-23.2s8.6-23.2,19.3-23.2
		C911.2,230.3,919.8,239,919.8,253.5z M890.2,253.5c0,9.8,4.6,14.9,10.3,14.9c5.8,0,10.3-5.1,10.3-14.9c0-9.8-4.5-14.9-10.3-14.9
		C894.8,238.6,890.2,243.7,890.2,253.5z"/>
	<path class="st3" d="M924.4,238c2.4-3.2,7-7.7,15.3-7.7c9.4,0,15.2,5.9,15.2,14.5c0,5.5-2.8,9.3-6.5,13.1l-9.6,10h17.1v8.1h-29.6
		v-6.8l15.8-16.2c2.4-2.4,3.7-4.9,3.7-7.7c0-3.9-2.7-6.7-6.8-6.7c-4.3,0-6.8,2.3-9.1,4.9L924.4,238z"/>
	<path class="st3" d="M979.4,275.9h-8.6v-33.3l-10.7,4.4v-8.7l19.4-7.8V275.9z"/>
</g>
<g>
	<path class="st1" d="M462.2,48.3h-15.2V26.6h2.7v19.1h12.4V48.3z"/>
	<path class="st1" d="M479.3,48.3h-2.5v-2c-1.2,1.4-2.9,2.3-5.2,2.3c-4.1,0-7.4-3.2-7.4-7.7c0-4.4,3.2-7.7,7.4-7.7
		c2.3,0,4,0.9,5.2,2.3v-2h2.5V48.3z M466.8,40.9c0,2.9,2,5.3,5.1,5.3c3,0,5.1-2.3,5.1-5.3c0-3-2.1-5.3-5.1-5.3
		C468.8,35.6,466.8,38,466.8,40.9z"/>
	<path class="st1" d="M507.7,40.9c0,4.4-3.2,7.7-7.4,7.7c-2.3,0-4-0.9-5.2-2.3v8.2h-2.5V33.5h2.5v2c1.1-1.4,2.9-2.3,5.2-2.3
		C504.5,33.2,507.7,36.5,507.7,40.9z M495,40.9c0,3,2.1,5.3,5.1,5.3c3.1,0,5.1-2.4,5.1-5.3s-2-5.3-5.1-5.3
		C497.1,35.6,495,37.9,495,40.9z"/>
	<path class="st1" d="M525.8,48.3h-2.5v-2c-1.2,1.4-2.9,2.3-5.2,2.3c-4.1,0-7.4-3.2-7.4-7.7c0-4.4,3.2-7.7,7.4-7.7
		c2.3,0,4,0.9,5.2,2.3v-2h2.5V48.3z M513.3,40.9c0,2.9,2,5.3,5.1,5.3c3,0,5.1-2.3,5.1-5.3c0-3-2.1-5.3-5.1-5.3
		C515.3,35.6,513.3,38,513.3,40.9z"/>
	<path class="st1" d="M540.5,33.7l-0.6,2.5c-0.7-0.4-1.7-0.6-2.5-0.6c-2.2,0-3.8,1.7-3.8,4.4v8.2H531V33.5h2.5v1.9
		c1-1.4,2.6-2.2,4.3-2.2C538.9,33.2,539.7,33.4,540.5,33.7z"/>
	<path class="st1" d="M554.2,35.9H548V43c0,2.2,1.2,3.2,2.8,3.2c1.1,0,2.2-0.4,3-1l1.2,1.9c-1.1,0.8-2.6,1.5-4.4,1.5
		c-3.2,0-5.1-1.8-5.1-5.5v-7.2h-3.1v-2.3h3.1v-4.6h2.5v4.6h6.2V35.9z"/>
	<path class="st1" d="M577.6,35.5V26h2.5v22.3h-2.5v-2c-1.2,1.4-2.9,2.3-5.2,2.3c-4.1,0-7.4-3.2-7.4-7.7c0-4.4,3.2-7.7,7.4-7.7
		C574.8,33.2,576.5,34.1,577.6,35.5z M567.7,40.9c0,2.9,2,5.3,5.1,5.3c3,0,5.1-2.3,5.1-5.3c0-3-2.1-5.3-5.1-5.3
		C569.7,35.6,567.7,38,567.7,40.9z"/>
	<path class="st1" d="M598.7,42.1c0,4.4-3.2,6.5-6.7,6.5c-3.6,0-6.7-2-6.7-6.5v-8.6h2.5v8.3c0,3,1.8,4.3,4.2,4.3
		c2.4,0,4.2-1.3,4.2-4.3v-8.3h2.5V42.1z"/>
	<path class="st1" d="M635.6,38.7v9.6h-4V40c0-2.2-1.1-3.4-2.9-3.4c-1.7,0-3.2,1.1-3.2,3.4v8.2h-4V40c0-2.2-1.1-3.4-2.9-3.4
		c-1.7,0-3.2,1.1-3.2,3.4v8.2h-4v-15h3.9V35c1.1-1.6,2.7-2.2,4.4-2.2c2.2,0,4,1,5,2.6c1.2-1.9,3.1-2.6,5.1-2.6
		C633.3,32.9,635.6,35.2,635.6,38.7z"/>
	<path class="st1" d="M654.4,48.3h-4v-1.7c-1,1.2-2.4,2-4.5,2c-4.1,0-7.3-3.4-7.3-7.9s3.1-7.9,7.3-7.9c2.1,0,3.5,0.8,4.5,2.1v-1.7h4
		V48.3z M642.8,40.8c0,2.3,1.5,4.1,3.9,4.1c2.3,0,3.9-1.8,3.9-4.1c0-2.4-1.6-4.1-3.9-4.1C644.3,36.6,642.8,38.5,642.8,40.8z"/>
	<path class="st1" d="M668.8,33.2l-0.6,4c-0.7-0.3-1.6-0.5-2.4-0.5c-1.9,0-3.2,1.1-3.2,3.4v8.2h-4v-15h3.9v1.6c0.9-1.4,2.4-2,4.2-2
		C667.5,32.9,668.2,33,668.8,33.2z"/>
	<path class="st1" d="M683.9,35.7l-2.9,2.4c-0.9-1-1.9-1.5-3.2-1.5c-2.1,0-3.8,1.6-3.8,4.1c0,2.5,1.7,4.1,3.8,4.1
		c1.3,0,2.4-0.6,3.3-1.5l2.9,2.5c-1.4,1.8-3.5,2.8-6,2.8c-4.8,0-8-3.3-8-7.9c0-4.5,3.2-7.9,8-7.9C680.4,32.9,682.5,33.9,683.9,35.7z
		"/>
	<path class="st1" d="M690.7,34.9c1.1-1.5,2.7-2,4.3-2c3.4,0,5.8,2.4,5.8,5.9v9.6h-4V40c0-2.2-1.1-3.4-2.9-3.4
		c-1.7,0-3.2,1.1-3.2,3.4v8.2h-4V25.9h4V34.9z"/>
	<path class="st1" d="M718.8,40.7c0,0.5,0,1-0.1,1.4h-10.7c0.4,2.2,2,3.1,3.9,3.1c1.3,0,2.7-0.5,3.8-1.4l2.4,2.6
		c-1.7,1.6-3.9,2.3-6.4,2.3c-4.6,0-7.8-3.1-7.8-7.9c0-4.7,3.1-8,7.6-8C715.9,32.9,718.8,36.1,718.8,40.7z M708.1,39.3h6.7
		c-0.4-1.9-1.5-3-3.3-3C709.6,36.3,708.5,37.5,708.1,39.3z M708.8,31.1l3.1-4.9h4.8l-4.1,4.9H708.8z"/>
	<path class="st1" d="M740.3,34.8V26h4v22.3h-4v-1.7c-1,1.2-2.4,2-4.5,2c-4.1,0-7.3-3.4-7.3-7.9s3.1-7.9,7.3-7.9
		C737.9,32.9,739.3,33.6,740.3,34.8z M732.7,40.8c0,2.3,1.5,4.1,3.9,4.1c2.3,0,3.9-1.8,3.9-4.1c0-2.4-1.6-4.1-3.9-4.1
		C734.2,36.6,732.7,38.5,732.7,40.8z"/>
	<path class="st1" d="M762.3,40.7c0,0.5,0,1-0.1,1.4h-10.7c0.4,2.2,2,3.1,3.9,3.1c1.3,0,2.7-0.5,3.8-1.4l2.4,2.6
		c-1.7,1.6-3.9,2.3-6.4,2.3c-4.6,0-7.8-3.1-7.8-7.9c0-4.7,3.1-8,7.6-8C759.4,32.9,762.3,36.1,762.3,40.7z M751.6,39.3h6.7
		c-0.4-1.9-1.5-3-3.3-3C753.1,36.3,752,37.5,751.6,39.3z"/>
	<path class="st1" d="M776.2,37.4c-1.2-0.6-3.1-1.2-4.8-1.2c-1.5,0-2.3,0.5-2.3,1.4c0,0.9,1.1,1.1,2.4,1.3l1.3,0.2
		c3.3,0.5,5.1,2,5.1,4.5c0,3.1-2.5,5.1-6.9,5.1c-2,0-4.7-0.4-6.7-1.8l1.6-3.1c1.3,0.9,2.9,1.5,5.1,1.5c1.9,0,2.8-0.5,2.8-1.4
		c0-0.7-0.8-1.1-2.5-1.4l-1.2-0.2c-3.5-0.5-5.2-2-5.2-4.6c0-3.1,2.4-4.9,6.3-4.9c2.4,0,4.3,0.4,6.3,1.4L776.2,37.4z"/>
	<path class="st1" d="M803.8,40.8c0,4.5-3.5,7.9-8.1,7.9c-4.7,0-8.1-3.4-8.1-7.9s3.4-7.9,8.1-7.9C800.3,32.9,803.8,36.2,803.8,40.8z
		 M791.7,40.8c0,2.4,1.7,4.1,4,4.1c2.3,0,4-1.7,4-4.1s-1.7-4.1-4-4.1C793.4,36.6,791.7,38.3,791.7,40.8z"/>
	<path class="st1" d="M822.6,40.8c0,4.5-3.1,7.9-7.3,7.9c-2.1,0-3.5-0.8-4.5-2v1.7h-4V26h4v8.9c1-1.2,2.4-2,4.4-2
		C819.5,32.9,822.6,36.2,822.6,40.8z M810.7,40.8c0,2.4,1.6,4.1,3.9,4.1c2.4,0,3.9-1.8,3.9-4.1s-1.5-4.1-3.9-4.1
		C812.3,36.6,810.7,38.4,810.7,40.8z"/>
	<path class="st1" d="M829.8,48.3h-4V26h4V48.3z"/>
	<path class="st1" d="M838.5,28.3c0,1.5-1.1,2.6-2.6,2.6c-1.5,0-2.6-1.1-2.6-2.6c0-1.5,1.1-2.6,2.6-2.6
		C837.4,25.7,838.5,26.9,838.5,28.3z M838,48.3h-4v-15h4V48.3z"/>
	<path class="st1" d="M852.7,34.9v-1.7h4V47c0,4.8-3.1,7.7-8.1,7.7c-2.4,0-4.9-0.6-6.6-1.8l1.4-3.3c1.5,1,3.2,1.5,5,1.5
		c2.5,0,4.3-1.4,4.3-4v-1.1c-1,1.3-2.5,2-4.6,2c-3.7,0-6.9-3.1-6.9-7.7c0-4.6,3.3-7.7,6.9-7.7C850.1,32.9,851.7,33.7,852.7,34.9z
		 M845.3,40.5c0,2.2,1.5,3.9,3.8,3.9c2.2,0,3.8-1.7,3.8-3.9c0-2.2-1.5-4-3.8-4C846.8,36.6,845.3,38.3,845.3,40.5z"/>
	<path class="st1" d="M875.5,48.3h-4v-1.7c-1,1.2-2.4,2-4.5,2c-4.1,0-7.3-3.4-7.3-7.9s3.1-7.9,7.3-7.9c2.1,0,3.5,0.8,4.5,2.1v-1.7h4
		V48.3z M864,40.8c0,2.3,1.5,4.1,3.9,4.1c2.3,0,3.9-1.8,3.9-4.1c0-2.4-1.6-4.1-3.9-4.1C865.5,36.6,864,38.5,864,40.8z"/>
	<path class="st1" d="M890.5,36.9h-5.4v5.5c0,1.9,1,2.6,2.2,2.6c1,0,2-0.5,2.8-1l1.5,3.2c-1.3,0.9-2.8,1.6-5,1.6
		c-3.7,0-5.6-2.1-5.6-6v-5.8h-2.9v-3.6h2.9v-4.5h4v4.5h5.4V36.9z"/>
	<path class="st1" d="M898.5,28.3c0,1.5-1.1,2.6-2.6,2.6c-1.5,0-2.6-1.1-2.6-2.6c0-1.5,1.1-2.6,2.6-2.6
		C897.4,25.7,898.5,26.9,898.5,28.3z M898,48.3h-4v-15h4V48.3z"/>
	<path class="st1" d="M917.4,40.8c0,4.5-3.5,7.9-8.1,7.9c-4.7,0-8.1-3.4-8.1-7.9s3.4-7.9,8.1-7.9C913.9,32.9,917.4,36.2,917.4,40.8z
		 M905.3,40.8c0,2.4,1.7,4.1,4,4.1s4-1.7,4-4.1s-1.7-4.1-4-4.1S905.3,38.3,905.3,40.8z"/>
	<path class="st1" d="M934.7,38.7v9.6h-4V40c0-2.2-1.1-3.4-2.9-3.4c-1.7,0-3.2,1.1-3.2,3.4v8.2h-4v-15h3.9V35
		c1.1-1.6,2.7-2.2,4.4-2.2C932.3,32.9,934.7,35.2,934.7,38.7z"/>
	<path class="st1" d="M949.5,37.4c-1.2-0.6-3.1-1.2-4.8-1.2c-1.5,0-2.3,0.5-2.3,1.4c0,0.9,1.1,1.1,2.4,1.3l1.3,0.2
		c3.3,0.5,5.1,2,5.1,4.5c0,3.1-2.5,5.1-6.9,5.1c-2,0-4.7-0.4-6.7-1.8l1.6-3.1c1.3,0.9,2.9,1.5,5.1,1.5c1.9,0,2.8-0.5,2.8-1.4
		c0-0.7-0.8-1.1-2.5-1.4l-1.2-0.2c-3.5-0.5-5.2-2-5.2-4.6c0-3.1,2.4-4.9,6.3-4.9c2.4,0,4.3,0.4,6.3,1.4L949.5,37.4z"/>
	<path class="st1" d="M456.9,72v-8.9h4v22.3h-4v-1.7c-1,1.2-2.4,2-4.5,2c-4.1,0-7.3-3.4-7.3-7.9s3.1-7.9,7.3-7.9
		C454.5,70.1,455.9,70.8,456.9,72z M449.3,78c0,2.3,1.5,4.1,3.9,4.1c2.3,0,3.9-1.8,3.9-4.1c0-2.4-1.6-4.1-3.9-4.1
		C450.8,73.8,449.3,75.7,449.3,78z"/>
	<path class="st1" d="M469.7,63.2l-2.2,9.2h-3.4l1-9.2H469.7z"/>
	<path class="st1" d="M489.7,85.5h-16.2V63.8h16.1v4h-11.8v4.8H489v4h-11.2v5h11.9V85.5z M478.6,61.9l3.1-4.9h4.8l-4.1,4.9H478.6z"
		/>
	<path class="st1" d="M504.5,74.1H499v5.5c0,1.9,1,2.6,2.2,2.6c1,0,2-0.5,2.8-1l1.5,3.2c-1.3,0.9-2.8,1.6-5,1.6
		c-3.7,0-5.6-2.1-5.6-6v-5.8h-2.9v-3.6h2.9V66h4v4.5h5.4V74.1z"/>
	<path class="st1" d="M522.5,85.5h-4v-1.7c-1,1.2-2.4,2-4.5,2c-4.1,0-7.3-3.4-7.3-7.9s3.1-7.9,7.3-7.9c2.1,0,3.5,0.8,4.5,2.1v-1.7h4
		V85.5z M510.9,78c0,2.3,1.5,4.1,3.9,4.1c2.3,0,3.9-1.8,3.9-4.1c0-2.4-1.6-4.1-3.9-4.1C512.4,73.8,510.9,75.7,510.9,78z"/>
	<path class="st1" d="M537.5,74.1H532v5.5c0,1.9,1,2.6,2.2,2.6c1,0,2-0.5,2.8-1l1.5,3.2c-1.3,0.9-2.8,1.6-5,1.6
		c-3.7,0-5.6-2.1-5.6-6v-5.8h-2.9v-3.6h2.9V66h4v4.5h5.4V74.1z"/>
	<path class="st1" d="M561.5,72.9l-2.9,2.4c-0.9-1-1.9-1.5-3.2-1.5c-2.1,0-3.8,1.6-3.8,4.1c0,2.5,1.7,4.1,3.8,4.1
		c1.3,0,2.4-0.6,3.3-1.5l2.9,2.5c-1.4,1.8-3.5,2.8-6,2.8c-4.8,0-8-3.3-8-7.9c0-4.5,3.2-7.9,8-7.9C558,70.1,560.1,71.1,561.5,72.9z"
		/>
	<path class="st1" d="M578.7,85.5h-4v-1.7c-1,1.2-2.4,2-4.5,2c-4.1,0-7.3-3.4-7.3-7.9s3.1-7.9,7.3-7.9c2.1,0,3.5,0.8,4.5,2.1v-1.7h4
		V85.5z M567.2,78c0,2.3,1.5,4.1,3.9,4.1c2.3,0,3.9-1.8,3.9-4.1c0-2.4-1.6-4.1-3.9-4.1C568.7,73.8,567.2,75.7,567.2,78z"/>
	<path class="st1" d="M597,75.9v9.6h-4v-8.3c0-2.2-1.1-3.4-2.9-3.4c-1.7,0-3.2,1.1-3.2,3.4v8.2h-4v-15h3.9v1.8
		c1.1-1.6,2.7-2.2,4.4-2.2C594.6,70.1,597,72.4,597,75.9z"/>
	<path class="st1" d="M615.8,85.5h-4v-1.7c-1,1.2-2.4,2-4.5,2c-4.1,0-7.3-3.4-7.3-7.9s3.1-7.9,7.3-7.9c2.1,0,3.5,0.8,4.5,2.1v-1.7h4
		V85.5z M604.2,78c0,2.3,1.5,4.1,3.9,4.1c2.3,0,3.9-1.8,3.9-4.1c0-2.4-1.6-4.1-3.9-4.1C605.7,73.8,604.2,75.7,604.2,78z"/>
	<path class="st1" d="M630.6,72v-8.9h4v22.3h-4v-1.7c-1,1.2-2.4,2-4.5,2c-4.1,0-7.3-3.4-7.3-7.9s3.1-7.9,7.3-7.9
		C628.2,70.1,629.7,70.8,630.6,72z M623.1,78c0,2.3,1.5,4.1,3.9,4.1c2.3,0,3.9-1.8,3.9-4.1c0-2.4-1.6-4.1-3.9-4.1
		C624.6,73.8,623.1,75.7,623.1,78z"/>
	<path class="st1" d="M643.4,65.5c0,1.5-1.1,2.6-2.6,2.6c-1.5,0-2.6-1.1-2.6-2.6c0-1.5,1.1-2.6,2.6-2.6
		C642.2,62.9,643.4,64.1,643.4,65.5z M642.8,85.5h-4v-15h4V85.5z"/>
	<path class="st1" d="M660.9,77.9c0,0.5,0,1-0.1,1.4h-10.7c0.4,2.2,2,3.1,3.9,3.1c1.3,0,2.7-0.5,3.8-1.4l2.4,2.6
		c-1.7,1.6-3.9,2.3-6.4,2.3c-4.6,0-7.8-3.1-7.8-7.9c0-4.7,3.1-8,7.6-8C657.9,70.1,660.9,73.3,660.9,77.9z M650.2,76.5h6.7
		c-0.4-1.9-1.5-3-3.3-3C651.6,73.5,650.5,74.7,650.2,76.5z"/>
	<path class="st1" d="M678.2,75.9v9.6h-4v-8.3c0-2.2-1.1-3.4-2.9-3.4c-1.7,0-3.2,1.1-3.2,3.4v8.2h-4v-15h3.9v1.8
		c1.1-1.6,2.7-2.2,4.4-2.2C675.8,70.1,678.2,72.4,678.2,75.9z"/>
	<path class="st1" d="M696.4,75.9v9.6h-4v-8.3c0-2.2-1.1-3.4-2.9-3.4c-1.7,0-3.2,1.1-3.2,3.4v8.2h-4v-15h3.9v1.8
		c1.1-1.6,2.7-2.2,4.4-2.2C693.9,70.1,696.4,72.4,696.4,75.9z"/>
	<path class="st1" d="M714.3,77.9c0,0.5,0,1-0.1,1.4h-10.7c0.4,2.2,2,3.1,3.9,3.1c1.3,0,2.7-0.5,3.8-1.4l2.4,2.6
		c-1.7,1.6-3.9,2.3-6.4,2.3c-4.6,0-7.8-3.1-7.8-7.9c0-4.7,3.1-8,7.6-8C711.3,70.1,714.3,73.3,714.3,77.9z M703.6,76.5h6.7
		c-0.4-1.9-1.5-3-3.3-3C705.1,73.5,704,74.7,703.6,76.5z"/>
	<path class="st1" d="M728.1,74.6c-1.2-0.6-3.1-1.2-4.8-1.2c-1.5,0-2.3,0.5-2.3,1.4c0,0.9,1.1,1.1,2.4,1.3l1.3,0.2
		c3.3,0.5,5.1,2,5.1,4.5c0,3.1-2.5,5.1-6.9,5.1c-2,0-4.7-0.4-6.7-1.8l1.6-3.1c1.3,0.9,2.9,1.5,5.1,1.5c1.9,0,2.8-0.5,2.8-1.4
		c0-0.7-0.8-1.1-2.5-1.4l-1.2-0.2c-3.5-0.5-5.2-2-5.2-4.6c0-3.1,2.4-4.9,6.3-4.9c2.4,0,4.3,0.4,6.3,1.4L728.1,74.6z"/>
	<path class="st1" d="M753,72.7v-9.6h2.5v22.3H753v-2c-1.2,1.4-2.9,2.3-5.2,2.3c-4.1,0-7.4-3.2-7.4-7.7c0-4.4,3.2-7.7,7.4-7.7
		C750.2,70.4,751.9,71.3,753,72.7z M743.1,78.1c0,2.9,2,5.3,5.1,5.3c3,0,5.1-2.3,5.1-5.3c0-3-2.1-5.3-5.1-5.3
		C745.1,72.8,743.1,75.2,743.1,78.1z"/>
	<path class="st1" d="M773.9,78.1c0,0.3,0,0.7,0,0.9h-11.6c0.4,3.1,2.5,4.6,5,4.6c1.7,0,3.3-0.7,4.5-1.8l1.3,1.7
		c-1.8,1.7-3.9,2.2-6,2.2c-4.4,0-7.5-3.1-7.5-7.7c0-4.5,3.1-7.7,7.3-7.7C771,70.4,773.9,73.6,773.9,78.1z M762.3,77h9
		c-0.3-2.6-2-4.3-4.4-4.3C764.3,72.7,762.7,74.5,762.3,77z M764.8,68.5l3.2-4.7h3.2l-3.9,4.7H764.8z"/>
	<path class="st1" d="M787.9,73.1h-6.2v7.2c0,2.2,1.2,3.2,2.8,3.2c1.1,0,2.2-0.4,3-1l1.2,1.9c-1.1,0.8-2.6,1.5-4.4,1.5
		c-3.2,0-5.1-1.8-5.1-5.5v-7.2H776v-2.3h3.1v-4.6h2.5v4.6h6.2V73.1z"/>
	<path class="st1" d="M804.9,78.1c0,0.3,0,0.7,0,0.9h-11.6c0.4,3.1,2.5,4.6,5,4.6c1.7,0,3.3-0.7,4.5-1.8l1.3,1.7
		c-1.8,1.7-3.9,2.2-6,2.2c-4.4,0-7.5-3.1-7.5-7.7c0-4.5,3.1-7.7,7.3-7.7C801.9,70.4,804.8,73.6,804.9,78.1z M793.3,77h9
		c-0.3-2.6-2-4.3-4.4-4.3C795.3,72.7,793.7,74.5,793.3,77z"/>
	<path class="st1" d="M822.4,76.3v9.1h-2.5v-8.3c0-2.7-1.5-4.3-4-4.3c-2.4,0-4.4,1.6-4.4,4.4v8.3h-2.5V70.7h2.5v1.9
		c1.2-1.7,3.1-2.2,4.8-2.2C819.9,70.4,822.4,72.8,822.4,76.3z"/>
	<path class="st1" d="M840.8,79.3c0,4.4-3.2,6.5-6.7,6.5c-3.5,0-6.7-2-6.7-6.5v-8.6h2.5v8.3c0,3,1.8,4.3,4.2,4.3
		c2.4,0,4.2-1.3,4.2-4.3v-8.3h2.5V79.3z"/>
	<path class="st1" d="M858.9,78.1c0,0.3,0,0.7,0,0.9h-11.6c0.4,3.1,2.5,4.6,5,4.6c1.7,0,3.3-0.7,4.5-1.8l1.3,1.7
		c-1.8,1.7-3.9,2.2-6,2.2c-4.4,0-7.5-3.1-7.5-7.7c0-4.5,3.1-7.7,7.3-7.7C856,70.4,858.9,73.6,858.9,78.1z M847.3,77h9
		c-0.3-2.6-2-4.3-4.4-4.3C849.4,72.7,847.7,74.5,847.3,77z"/>
	<path class="st1" d="M886.2,78.1c0,4.4-3.2,7.7-7.4,7.7c-2.3,0-4-0.9-5.2-2.3v8.2h-2.5V70.7h2.5v2c1.1-1.4,2.9-2.3,5.2-2.3
		C883,70.4,886.2,73.7,886.2,78.1z M873.5,78.1c0,3,2.1,5.3,5.1,5.3c3.1,0,5.1-2.4,5.1-5.3s-2-5.3-5.1-5.3
		C875.6,72.8,873.5,75.1,873.5,78.1z"/>
	<path class="st1" d="M904.3,85.5h-2.5v-2c-1.2,1.4-2.9,2.3-5.2,2.3c-4.1,0-7.4-3.2-7.4-7.7c0-4.4,3.2-7.7,7.4-7.7
		c2.3,0,4,0.9,5.2,2.3v-2h2.5V85.5z M891.8,78.1c0,2.9,2,5.3,5.1,5.3c3,0,5.1-2.3,5.1-5.3c0-3-2.1-5.3-5.1-5.3
		C893.8,72.8,891.8,75.2,891.8,78.1z"/>
	<path class="st1" d="M919,70.9l-0.6,2.5c-0.7-0.4-1.7-0.6-2.5-0.6c-2.2,0-3.8,1.7-3.8,4.4v8.2h-2.5V70.7h2.5v1.9
		c1-1.4,2.6-2.2,4.3-2.2C917.4,70.4,918.2,70.6,919,70.9z"/>
	<path class="st1" d="M932.7,85.5h-2.5V63.2h2.5V85.5z"/>
	<path class="st1" d="M951.9,85.5h-2.5v-2c-1.2,1.4-2.9,2.3-5.2,2.3c-4.1,0-7.4-3.2-7.4-7.7c0-4.4,3.2-7.7,7.4-7.7
		c2.3,0,4,0.9,5.2,2.3v-2h2.5V85.5z M939.4,78.1c0,2.9,2,5.3,5.1,5.3c3,0,5.1-2.3,5.1-5.3c0-3-2.1-5.3-5.1-5.3
		C941.4,72.8,939.4,75.2,939.4,78.1z"/>
	<path class="st1" d="M455.3,101c5.1,0,8.2,1.9,8.2,6c0,2.2-1.3,3.9-3.1,4.6c2,0.7,3.6,2.5,3.6,4.9c0,4.2-3,6.2-8.2,6.2h-9.4V101
		H455.3z M450.8,104.8v5.1h4.4c2.2,0,3.8-0.4,3.8-2.6c0-2-1.7-2.5-3.8-2.5H450.8z M450.8,113.7v5.2l4.9,0c2.4,0,3.9-0.6,3.9-2.6
		c0-2-1.5-2.6-3.9-2.6H450.8z"/>
	<path class="st1" d="M482.2,122.7h-4V121c-1,1.2-2.4,2-4.5,2c-4.1,0-7.3-3.4-7.3-7.9s3.1-7.9,7.3-7.9c2.1,0,3.5,0.8,4.5,2.1v-1.7h4
		V122.7z M470.6,115.2c0,2.3,1.5,4.1,3.9,4.1c2.3,0,3.9-1.8,3.9-4.1c0-2.4-1.6-4.1-3.9-4.1C472.2,111,470.6,112.9,470.6,115.2z"/>
	<path class="st1" d="M500.5,113.1v9.6h-4v-8.3c0-2.2-1.1-3.4-2.9-3.4c-1.7,0-3.2,1.1-3.2,3.4v8.2h-4v-15h3.9v1.8
		c1.1-1.6,2.7-2.2,4.4-2.2C498.1,107.3,500.5,109.6,500.5,113.1z"/>
	<path class="st1" d="M515.3,109.3v-1.7h4v21.2h-4v-7.8c-1,1.2-2.4,2-4.4,2c-4.1,0-7.3-3.4-7.3-7.9s3.1-7.9,7.3-7.9
		C512.9,107.3,514.3,108.1,515.3,109.3z M507.7,115.2c0,2.3,1.5,4.1,3.9,4.1c2.3,0,3.9-1.8,3.9-4.1c0-2.4-1.6-4.1-3.9-4.1
		C509.2,111,507.7,112.9,507.7,115.2z"/>
	<path class="st1" d="M537.5,116.3c0,4.7-3.3,6.8-7.1,6.8c-3.8,0-7.1-2-7.1-6.8v-8.6h4v8.3c0,2.4,1.3,3.4,3.1,3.4
		c1.7,0,3.1-1,3.1-3.4v-8.3h4V116.3z"/>
	<path class="st1" d="M555.4,115.1c0,0.5,0,1-0.1,1.4h-10.7c0.4,2.2,2,3.1,3.9,3.1c1.3,0,2.7-0.5,3.8-1.4l2.4,2.6
		c-1.7,1.6-3.9,2.3-6.4,2.3c-4.6,0-7.8-3.1-7.8-7.9c0-4.7,3.1-8,7.6-8C552.4,107.3,555.4,110.5,555.4,115.1z M544.7,113.7h6.7
		c-0.4-1.9-1.5-3-3.3-3C546.2,110.7,545,111.9,544.7,113.7z"/>
	<path class="st1" d="M576.8,109.2v-8.9h4v22.3h-4V121c-1,1.2-2.4,2-4.5,2c-4.1,0-7.3-3.4-7.3-7.9s3.1-7.9,7.3-7.9
		C574.4,107.3,575.8,108,576.8,109.2z M569.3,115.2c0,2.3,1.5,4.1,3.9,4.1c2.3,0,3.9-1.8,3.9-4.1c0-2.4-1.6-4.1-3.9-4.1
		C570.8,111,569.3,112.9,569.3,115.2z"/>
	<path class="st1" d="M599,116.3c0,4.7-3.3,6.8-7.1,6.8c-3.8,0-7.1-2-7.1-6.8v-8.6h4v8.3c0,2.4,1.3,3.4,3.1,3.4c1.7,0,3.1-1,3.1-3.4
		v-8.3h4V116.3z"/>
	<path class="st1" d="M630.5,105.4l-3.7,2.3c-1.2-1.9-3.2-3-5.6-3c-3.9,0-6.9,2.9-6.9,7.1c0,4.4,3,7.1,6.9,7.1c2.4,0,4.4-1.1,5.7-3
		l3.5,2.5c-1.9,2.8-5.2,4.6-9.2,4.6c-6.7,0-11.4-4.7-11.4-11.3s4.7-11.3,11.4-11.3C625.2,100.6,628.7,102.4,630.5,105.4z"/>
	<path class="st1" d="M648.2,122.7h-4V121c-1,1.2-2.4,2-4.5,2c-4.1,0-7.3-3.4-7.3-7.9s3.1-7.9,7.3-7.9c2.1,0,3.5,0.8,4.5,2.1v-1.7h4
		V122.7z M636.6,115.2c0,2.3,1.5,4.1,3.9,4.1c2.3,0,3.9-1.8,3.9-4.1c0-2.4-1.6-4.1-3.9-4.1C638.1,111,636.6,112.9,636.6,115.2z"/>
	<path class="st1" d="M666.4,113.1v9.6h-4v-8.3c0-2.2-1.1-3.4-2.9-3.4c-1.7,0-3.2,1.1-3.2,3.4v8.2h-4v-15h3.9v1.8
		c1.1-1.6,2.7-2.2,4.4-2.2C664,107.3,666.4,109.6,666.4,113.1z"/>
	<path class="st1" d="M685.2,122.7h-4V121c-1,1.2-2.4,2-4.5,2c-4.1,0-7.3-3.4-7.3-7.9s3.1-7.9,7.3-7.9c2.1,0,3.5,0.8,4.5,2.1v-1.7h4
		V122.7z M673.6,115.2c0,2.3,1.5,4.1,3.9,4.1c2.3,0,3.9-1.8,3.9-4.1c0-2.4-1.6-4.1-3.9-4.1C675.1,111,673.6,112.9,673.6,115.2z"/>
	<path class="st1" d="M700.1,109.2v-8.9h4v22.3h-4V121c-1,1.2-2.4,2-4.5,2c-4.1,0-7.3-3.4-7.3-7.9s3.1-7.9,7.3-7.9
		C697.6,107.3,699.1,108,700.1,109.2z M692.5,115.2c0,2.3,1.5,4.1,3.9,4.1c2.3,0,3.9-1.8,3.9-4.1c0-2.4-1.6-4.1-3.9-4.1
		C694,111,692.5,112.9,692.5,115.2z"/>
	<path class="st1" d="M723,122.7h-4V121c-1,1.2-2.4,2-4.5,2c-4.1,0-7.3-3.4-7.3-7.9s3.1-7.9,7.3-7.9c2.1,0,3.5,0.8,4.5,2.1v-1.7h4
		V122.7z M711.4,115.2c0,2.3,1.5,4.1,3.9,4.1c2.3,0,3.9-1.8,3.9-4.1c0-2.4-1.6-4.1-3.9-4.1C712.9,111,711.4,112.9,711.4,115.2z"/>
	<path class="st1" d="M750.8,115.3c0,4.4-3.2,7.7-7.4,7.7c-2.3,0-4-0.9-5.2-2.3v8.2h-2.5v-20.9h2.5v2c1.1-1.4,2.9-2.3,5.2-2.3
		C747.6,107.6,750.8,110.9,750.8,115.3z M738.1,115.3c0,3,2.1,5.3,5.1,5.3c3.1,0,5.1-2.4,5.1-5.3s-2-5.3-5.1-5.3
		C740.2,110,738.1,112.3,738.1,115.3z"/>
	<path class="st1" d="M769.4,115.3c0,4.4-3.3,7.7-7.8,7.7s-7.8-3.3-7.8-7.7c0-4.4,3.3-7.7,7.8-7.7S769.4,110.9,769.4,115.3z
		 M756.4,115.3c0,3.1,2.2,5.3,5.2,5.3c2.9,0,5.2-2.2,5.2-5.3c0-3.1-2.2-5.3-5.2-5.3C758.6,110,756.4,112.2,756.4,115.3z"/>
	<path class="st1" d="M786.8,116.5c0,4.4-3.2,6.5-6.7,6.5c-3.6,0-6.7-2-6.7-6.5v-8.6h2.5v8.3c0,3,1.8,4.3,4.2,4.3
		c2.4,0,4.2-1.3,4.2-4.3v-8.3h2.5V116.5z"/>
	<path class="st1" d="M801.3,108.1l-0.6,2.5c-0.7-0.4-1.7-0.6-2.5-0.6c-2.2,0-3.8,1.7-3.8,4.4v8.2h-2.5v-14.7h2.5v1.9
		c1-1.4,2.6-2.2,4.3-2.2C799.7,107.6,800.5,107.8,801.3,108.1z"/>
	<path class="st1" d="M814.1,108.1l-0.6,2.5c-0.7-0.4-1.7-0.6-2.5-0.6c-2.2,0-3.8,1.7-3.8,4.4v8.2h-2.5v-14.7h2.5v1.9
		c1-1.4,2.6-2.2,4.3-2.2C812.5,107.6,813.4,107.8,814.1,108.1z"/>
	<path class="st1" d="M830.8,122.7h-2.5v-2c-1.2,1.4-2.9,2.3-5.2,2.3c-4.1,0-7.4-3.2-7.4-7.7c0-4.4,3.2-7.7,7.4-7.7
		c2.3,0,4,0.9,5.2,2.3v-2h2.5V122.7z M818.3,115.3c0,2.9,2,5.3,5.1,5.3c3,0,5.1-2.3,5.1-5.3c0-3-2.1-5.3-5.1-5.3
		C820.3,110,818.3,112.4,818.3,115.3z"/>
	<path class="st1" d="M839.1,102.8c0,1-0.8,1.8-1.8,1.8s-1.8-0.8-1.8-1.8c0-1,0.8-1.8,1.8-1.8S839.1,101.7,839.1,102.8z
		 M838.6,122.7H836v-14.7h2.5V122.7z"/>
	<path class="st1" d="M853.8,110.3h-6.2v7.2c0,2.2,1.2,3.2,2.8,3.2c1.1,0,2.2-0.4,3-1l1.2,1.9c-1.1,0.8-2.6,1.5-4.4,1.5
		c-3.2,0-5.1-1.8-5.1-5.5v-7.2h-3.1v-2.3h3.1v-4.6h2.5v4.6h6.2V110.3z"/>
	<path class="st1" d="M877.3,109.9v-9.6h2.5v22.3h-2.5v-2c-1.2,1.4-2.9,2.3-5.2,2.3c-4.1,0-7.4-3.2-7.4-7.7c0-4.4,3.2-7.7,7.4-7.7
		C874.4,107.6,876.1,108.5,877.3,109.9z M867.3,115.3c0,2.9,2,5.3,5.1,5.3c3,0,5.1-2.3,5.1-5.3c0-3-2.1-5.3-5.1-5.3
		C869.3,110,867.3,112.4,867.3,115.3z"/>
	<path class="st1" d="M898.1,115.3c0,0.3,0,0.7,0,0.9h-11.6c0.4,3.1,2.5,4.6,5,4.6c1.7,0,3.3-0.7,4.5-1.8l1.3,1.7
		c-1.8,1.7-3.9,2.2-6,2.2c-4.4,0-7.5-3.1-7.5-7.7c0-4.5,3.1-7.7,7.3-7.7C895.2,107.6,898.1,110.8,898.1,115.3z M886.5,114.2h9
		c-0.3-2.6-2-4.3-4.4-4.3C888.6,109.9,886.9,111.7,886.5,114.2z M889.1,105.7l3.2-4.7h3.2l-3.9,4.7H889.1z"/>
	<path class="st1" d="M917.3,115.3c0,4.4-3.2,7.7-7.4,7.7c-2.3,0-4-0.9-5.2-2.3v8.2h-2.5v-20.9h2.5v2c1.1-1.4,2.9-2.3,5.2-2.3
		C914.1,107.6,917.3,110.9,917.3,115.3z M904.6,115.3c0,3,2.1,5.3,5.1,5.3c3.1,0,5.1-2.4,5.1-5.3s-2-5.3-5.1-5.3
		C906.7,110,904.6,112.3,904.6,115.3z"/>
	<path class="st1" d="M935.4,122.7h-2.5v-2c-1.2,1.4-2.9,2.3-5.2,2.3c-4.1,0-7.4-3.2-7.4-7.7c0-4.4,3.2-7.7,7.4-7.7
		c2.3,0,4,0.9,5.2,2.3v-2h2.5V122.7z M922.9,115.3c0,2.9,2,5.3,5.1,5.3c3,0,5.1-2.3,5.1-5.3c0-3-2.1-5.3-5.1-5.3
		C924.9,110,922.9,112.4,922.9,115.3z"/>
	<path class="st1" d="M950.5,111.2c-0.9-0.6-2.8-1.4-4.7-1.4c-2,0-3.3,0.9-3.3,2.2c0,1.2,1.1,1.7,2.9,1.9l1.7,0.2
		c3.1,0.4,5,1.7,5,4.2c0,2.8-2.5,4.6-6.5,4.6c-1.8,0-4.3-0.4-6.2-1.9l1.2-1.9c1.1,0.9,2.6,1.6,5,1.6c2.4,0,3.9-0.8,3.9-2.2
		c0-1.1-1-1.8-3-2l-1.7-0.2c-3.3-0.4-4.9-1.9-4.9-4.1c0-2.8,2.3-4.5,5.9-4.5c2.3,0,4.4,0.6,5.9,1.6L950.5,111.2z"/>
	<path class="st1" d="M965.8,111.2c-0.9-0.6-2.8-1.4-4.7-1.4c-2,0-3.3,0.9-3.3,2.2c0,1.2,1.1,1.7,2.9,1.9l1.7,0.2
		c3.1,0.4,5,1.7,5,4.2c0,2.8-2.5,4.6-6.5,4.6c-1.8,0-4.3-0.4-6.2-1.9l1.2-1.9c1.1,0.9,2.6,1.6,5,1.6c2.4,0,3.9-0.8,3.9-2.2
		c0-1.1-1-1.8-3-2l-1.7-0.2c-3.3-0.4-4.9-1.9-4.9-4.1c0-2.8,2.3-4.5,5.9-4.5c2.3,0,4.4,0.6,5.9,1.6L965.8,111.2z"/>
	<path class="st1" d="M984.2,115.3c0,0.3,0,0.7,0,0.9h-11.6c0.4,3.1,2.5,4.6,5,4.6c1.7,0,3.3-0.7,4.5-1.8l1.3,1.7
		c-1.8,1.7-3.9,2.2-6,2.2c-4.4,0-7.5-3.1-7.5-7.7c0-4.5,3.1-7.7,7.3-7.7C981.3,107.6,984.2,110.8,984.2,115.3z M972.6,114.2h9
		c-0.3-2.6-2-4.3-4.4-4.3C974.6,109.9,973,111.7,972.6,114.2z"/>
	<path class="st1" d="M997.8,108.1l-0.6,2.5c-0.7-0.4-1.7-0.6-2.5-0.6c-2.2,0-3.8,1.7-3.8,4.4v8.2h-2.5v-14.7h2.5v1.9
		c1-1.4,2.6-2.2,4.3-2.2C996.2,107.6,997,107.8,997.8,108.1z"/>
</g>
<g>
	<path class="st1" d="M855.2,182.7v-6.8h1.8v15.8h-1.8v-1.4c-0.8,1-2,1.6-3.7,1.6c-2.9,0-5.2-2.3-5.2-5.4s2.3-5.4,5.2-5.4
		C853.2,181.1,854.4,181.7,855.2,182.7z M848.1,186.5c0,2.1,1.5,3.8,3.6,3.8c2.1,0,3.6-1.6,3.6-3.8c0-2.1-1.5-3.8-3.6-3.8
		C849.6,182.8,848.1,184.5,848.1,186.5z"/>
	<path class="st1" d="M863,175.9l-1.2,5.7h-1.6l0.6-5.7H863z"/>
	<path class="st1" d="M868.4,177.6c0,0.7-0.6,1.3-1.3,1.3c-0.7,0-1.3-0.5-1.3-1.3c0-0.7,0.5-1.3,1.3-1.3
		C867.9,176.3,868.4,176.9,868.4,177.6z M868.1,191.8h-1.8v-10.5h1.8V191.8z"/>
	<path class="st1" d="M880.4,182.7l-1.2,1.2c-0.8-0.7-1.7-1.2-2.8-1.2c-2,0-3.5,1.6-3.5,3.8s1.5,3.8,3.5,3.8c1.1,0,2.1-0.5,2.8-1.2
		l1.1,1.2c-0.9,1.1-2.3,1.6-3.9,1.6c-3.2,0-5.4-2.3-5.4-5.4s2.2-5.4,5.4-5.4C878.1,181.1,879.5,181.7,880.4,182.7z"/>
	<path class="st1" d="M885.3,177.6c0,0.7-0.6,1.3-1.3,1.3s-1.3-0.5-1.3-1.3c0-0.7,0.6-1.3,1.3-1.3S885.3,176.9,885.3,177.6z
		 M884.9,191.8h-1.8v-10.5h1.8V191.8z"/>
	<path class="st1" d="M896.4,191.8h-1.8v-15.8h1.8V191.8z"/>
	<path class="st1" d="M910.2,191.8h-1.8v-1.4c-0.8,1-2,1.6-3.7,1.6c-2.9,0-5.2-2.3-5.2-5.4s2.3-5.4,5.2-5.4c1.6,0,2.9,0.6,3.7,1.6
		v-1.4h1.8V191.8z M901.3,186.5c0,2.1,1.5,3.8,3.6,3.8c2.1,0,3.6-1.6,3.6-3.8c0-2.1-1.5-3.8-3.6-3.8
		C902.7,182.8,901.3,184.5,901.3,186.5z"/>
	<path class="st1" d="M853.9,209.3h-4v8.8h-1.8v-8.8h-2.3v-1.6h2.3v-1.8c0-2.2,1-3.8,3.5-3.8c1.2,0,2.1,0.3,2.9,0.8l-0.6,1.5
		c-0.5-0.3-1.3-0.6-2.1-0.6c-1.2,0-1.8,0.8-1.8,2.1v1.8h4V209.3z"/>
	<path class="st1" d="M858.7,204c0,0.7-0.6,1.3-1.3,1.3c-0.7,0-1.3-0.5-1.3-1.3c0-0.7,0.5-1.3,1.3-1.3
		C858.1,202.7,858.7,203.3,858.7,204z M858.3,218.2h-1.8v-10.5h1.8V218.2z"/>
	<path class="st1" d="M871.7,211.7v6.5h-1.8v-5.9c0-1.9-1.1-3.1-2.9-3.1c-1.7,0-3.1,1.2-3.1,3.1v5.9h-1.8v-10.5h1.8v1.4
		c0.9-1.2,2.2-1.6,3.4-1.6C869.9,207.5,871.7,209.2,871.7,211.7z"/>
	<path class="st1" d="M889.4,209.1v-6.8h1.8v15.8h-1.8v-1.4c-0.8,1-2,1.6-3.7,1.6c-2.9,0-5.2-2.3-5.2-5.4c0-3.2,2.3-5.4,5.2-5.4
		C887.3,207.5,888.6,208.1,889.4,209.1z M882.3,212.9c0,2.1,1.5,3.8,3.6,3.8c2.1,0,3.6-1.6,3.6-3.8c0-2.1-1.5-3.8-3.6-3.8
		C883.7,209.2,882.3,210.9,882.3,212.9z"/>
	<path class="st1" d="M904.3,212.9c0,0.2,0,0.5,0,0.7h-8.2c0.3,2.2,1.8,3.2,3.6,3.2c1.2,0,2.3-0.5,3.2-1.2l1,1.2
		c-1.3,1.2-2.8,1.6-4.3,1.6c-3.1,0-5.3-2.2-5.3-5.4c0-3.2,2.2-5.4,5.2-5.4C902.3,207.5,904.3,209.7,904.3,212.9z M896.1,212.1h6.4
		c-0.2-1.8-1.4-3-3.1-3C897.5,209.1,896.4,210.3,896.1,212.1z"/>
</g>
<g>
	<path class="st1" d="M690.6,306.5h-1.8v-1.4c-0.8,1-2,1.6-3.7,1.6c-2.9,0-5.2-2.3-5.2-5.4s2.3-5.4,5.2-5.4c1.6,0,2.9,0.6,3.7,1.6
		V296h1.8V306.5z M681.8,301.3c0,2.1,1.5,3.8,3.6,3.8c2.1,0,3.6-1.6,3.6-3.8c0-2.1-1.5-3.8-3.6-3.8
		C683.2,297.5,681.8,299.2,681.8,301.3z"/>
	<path class="st1" d="M703.9,302.1c0,3.2-2.3,4.6-4.8,4.6c-2.5,0-4.8-1.4-4.8-4.6V296h1.8v5.9c0,2.1,1.3,3.1,3,3.1
		c1.7,0,3-0.9,3-3.1V296h1.8V302.1z"/>
	<path class="st1" d="M720.2,296.2l-0.4,1.8c-0.5-0.3-1.2-0.4-1.8-0.4c-1.6,0-2.7,1.2-2.7,3.1v5.8h-1.8V296h1.8v1.4
		c0.7-1,1.8-1.6,3.1-1.6C719,295.8,719.6,295.9,720.2,296.2z"/>
	<path class="st1" d="M724.4,310.9h-2l3.9-6.7l-4.8-8.2h2l3.8,6.4l3.6-6.4h2L724.4,310.9z"/>
	<path class="st1" d="M742.3,297.7H738v5.1c0,1.6,0.8,2.3,2,2.3c0.8,0,1.5-0.3,2.1-0.7l0.8,1.4c-0.8,0.6-1.8,1-3.1,1
		c-2.3,0-3.6-1.2-3.6-3.9v-5.1h-2.2V296h2.2v-3.3h1.8v3.3h4.4V297.7z"/>
	<path class="st1" d="M747,297.4c0.9-1.2,2.2-1.6,3.4-1.6c2.6,0,4.4,1.7,4.4,4.2v6.5H753v-5.9c0-1.9-1.1-3.1-2.9-3.1
		c-1.7,0-3.1,1.2-3.1,3.1v5.9h-1.8v-15.8h1.8V297.4z"/>
	<path class="st1" d="M775.8,300v6.5H774v-5.9c0-1.9-1.1-3.1-2.9-3.1c-1.7,0-3.1,1.2-3.1,3.1v5.9h-1.8v-5.9c0-1.9-1.1-3.1-2.9-3.1
		c-1.7,0-3.1,1.2-3.1,3.1v5.9h-1.8V296h1.8v1.4c0.9-1.2,2.2-1.6,3.4-1.6c1.8,0,3.2,0.8,3.9,2.1c0.9-1.6,2.5-2.1,3.9-2.1
		C774,295.8,775.8,297.5,775.8,300z"/>
	<path class="st1" d="M788.8,301.2c0,0.2,0,0.5,0,0.7h-8.2c0.3,2.2,1.8,3.2,3.6,3.2c1.2,0,2.3-0.5,3.2-1.2l1,1.2
		c-1.3,1.2-2.8,1.6-4.3,1.6c-3.1,0-5.3-2.2-5.3-5.4c0-3.2,2.2-5.4,5.2-5.4C786.7,295.8,788.8,298,788.8,301.2z M780.6,300.4h6.4
		c-0.2-1.8-1.4-3-3.1-3C782,297.4,780.9,298.7,780.6,300.4z"/>
	<path class="st1" d="M807.6,306.5h-1.8v-1.4c-0.8,1-2,1.6-3.7,1.6c-2.9,0-5.2-2.3-5.2-5.4s2.3-5.4,5.2-5.4c1.6,0,2.9,0.6,3.7,1.6
		V296h1.8V306.5z M798.8,301.3c0,2.1,1.5,3.8,3.6,3.8c2.1,0,3.6-1.6,3.6-3.8c0-2.1-1.5-3.8-3.6-3.8
		C800.2,297.5,798.8,299.2,798.8,301.3z"/>
	<path class="st1" d="M820,297.5l-1.2,1.2c-0.8-0.7-1.7-1.2-2.8-1.2c-2,0-3.5,1.6-3.5,3.8s1.5,3.8,3.5,3.8c1.1,0,2.1-0.5,2.8-1.2
		l1.1,1.2c-0.9,1.1-2.3,1.6-3.9,1.6c-3.2,0-5.4-2.3-5.4-5.4s2.2-5.4,5.4-5.4C817.6,295.8,819,296.4,820,297.5z"/>
	<path class="st1" d="M829.9,297.7h-4.4v5.1c0,1.6,0.8,2.3,2,2.3c0.8,0,1.5-0.3,2.1-0.7l0.8,1.4c-0.8,0.6-1.8,1-3.1,1
		c-2.3,0-3.6-1.2-3.6-3.9v-5.1h-2.2V296h2.2v-3.3h1.8v3.3h4.4V297.7z"/>
	<path class="st1" d="M842.3,302.1c0,3.2-2.3,4.6-4.8,4.6c-2.5,0-4.8-1.4-4.8-4.6V296h1.8v5.9c0,2.1,1.3,3.1,3,3.1
		c1.7,0,3-0.9,3-3.1V296h1.8V302.1z"/>
	<path class="st1" d="M855.3,301.2c0,0.2,0,0.5,0,0.7H847c0.3,2.2,1.8,3.2,3.6,3.2c1.2,0,2.3-0.5,3.2-1.2l1,1.2
		c-1.3,1.2-2.8,1.6-4.3,1.6c-3.1,0-5.3-2.2-5.3-5.4c0-3.2,2.2-5.4,5.2-5.4C853.2,295.8,855.2,298,855.3,301.2z M847,300.4h6.4
		c-0.2-1.8-1.4-3-3.1-3C848.5,297.4,847.3,298.7,847,300.4z"/>
	<path class="st1" d="M860.1,306.5h-1.8v-15.8h1.8V306.5z"/>
	<path class="st1" d="M877.9,297.4v-6.8h1.8v15.8h-1.8v-1.4c-0.8,1-2,1.6-3.7,1.6c-2.9,0-5.2-2.3-5.2-5.4s2.3-5.4,5.2-5.4
		C875.8,295.8,877.1,296.5,877.9,297.4z M870.8,301.3c0,2.1,1.5,3.8,3.6,3.8c2.1,0,3.6-1.6,3.6-3.8c0-2.1-1.5-3.8-3.6-3.8
		C872.2,297.5,870.8,299.2,870.8,301.3z"/>
	<path class="st1" d="M892.8,301.2c0,0.2,0,0.5,0,0.7h-8.2c0.3,2.2,1.8,3.2,3.6,3.2c1.2,0,2.3-0.5,3.2-1.2l1,1.2
		c-1.3,1.2-2.8,1.6-4.3,1.6c-3.1,0-5.3-2.2-5.3-5.4c0-3.2,2.2-5.4,5.2-5.4C890.7,295.8,892.8,298,892.8,301.2z M884.6,300.4h6.4
		c-0.2-1.8-1.4-3-3.1-3C886,297.4,884.9,298.7,884.6,300.4z"/>
	<path class="st1" d="M902.9,298.4c-0.7-0.5-2-1-3.4-1c-1.4,0-2.4,0.6-2.4,1.6c0,0.8,0.8,1.2,2,1.4l1.2,0.2c2.2,0.3,3.5,1.2,3.5,3
		c0,2-1.8,3.3-4.6,3.3c-1.3,0-3-0.3-4.4-1.3l0.8-1.3c0.8,0.6,1.8,1.1,3.6,1.1c1.7,0,2.8-0.6,2.8-1.6c0-0.8-0.7-1.3-2.1-1.4l-1.2-0.1
		c-2.3-0.3-3.5-1.3-3.5-2.9c0-2,1.7-3.2,4.2-3.2c1.7,0,3.2,0.4,4.2,1.1L902.9,298.4z"/>
	<path class="st1" d="M922.6,306.5h-1.8v-1.4c-0.8,1-2,1.6-3.7,1.6c-2.9,0-5.2-2.3-5.2-5.4s2.3-5.4,5.2-5.4c1.6,0,2.9,0.6,3.7,1.6
		V296h1.8V306.5z M913.7,301.3c0,2.1,1.5,3.8,3.6,3.8c2.1,0,3.6-1.6,3.6-3.8c0-2.1-1.5-3.8-3.6-3.8
		C915.1,297.5,913.7,299.2,913.7,301.3z"/>
	<path class="st1" d="M934.9,297.5l-1.2,1.2c-0.8-0.7-1.7-1.2-2.8-1.2c-2,0-3.5,1.6-3.5,3.8s1.5,3.8,3.5,3.8c1.1,0,2.1-0.5,2.8-1.2
		l1.1,1.2c-0.9,1.1-2.3,1.6-3.9,1.6c-3.2,0-5.4-2.3-5.4-5.4s2.2-5.4,5.4-5.4C932.6,295.8,934,296.4,934.9,297.5z"/>
	<path class="st1" d="M939.4,297.4c0.9-1.2,2.2-1.6,3.4-1.6c2.6,0,4.4,1.7,4.4,4.2v6.5h-1.8v-5.9c0-1.9-1.1-3.1-2.9-3.1
		c-1.7,0-3.1,1.2-3.1,3.1v5.9h-1.8v-15.8h1.8V297.4z"/>
	<path class="st1" d="M960.8,306.5H959v-1.4c-0.8,1-2,1.6-3.7,1.6c-2.9,0-5.2-2.3-5.2-5.4s2.3-5.4,5.2-5.4c1.6,0,2.9,0.6,3.7,1.6
		V296h1.8V306.5z M951.9,301.3c0,2.1,1.5,3.8,3.6,3.8c2.1,0,3.6-1.6,3.6-3.8c0-2.1-1.5-3.8-3.6-3.8
		C953.4,297.5,951.9,299.2,951.9,301.3z"/>
	<path class="st1" d="M971.7,297.7h-4.4v5.1c0,1.6,0.8,2.3,2,2.3c0.8,0,1.5-0.3,2.1-0.7l0.8,1.4c-0.8,0.6-1.8,1-3.1,1
		c-2.3,0-3.6-1.2-3.6-3.9v-5.1h-2.2V296h2.2v-3.3h1.8v3.3h4.4V297.7z"/>
	<path class="st1" d="M981.6,298.4c-0.7-0.5-2-1-3.4-1c-1.4,0-2.4,0.6-2.4,1.6c0,0.8,0.8,1.2,2,1.4l1.2,0.2c2.2,0.3,3.5,1.2,3.5,3
		c0,2-1.8,3.3-4.6,3.3c-1.3,0-3-0.3-4.4-1.3l0.8-1.3c0.8,0.6,1.8,1.1,3.6,1.1c1.7,0,2.8-0.6,2.8-1.6c0-0.8-0.7-1.3-2.1-1.4l-1.2-0.1
		c-2.3-0.3-3.5-1.3-3.5-2.9c0-2,1.7-3.2,4.2-3.2c1.7,0,3.2,0.4,4.2,1.1L981.6,298.4z"/>
</g>
</svg>
