<?xml version="1.0" encoding="utf-8"?>
<!-- Generator: Adobe Illustrator 24.3.0, SVG Export Plug-In . SVG Version: 6.00 Build 0)  -->
<svg version="1.1" id="Layer_1" xmlns="http://www.w3.org/2000/svg" xmlns:xlink="http://www.w3.org/1999/xlink" x="0px" y="0px"
	 viewBox="0 0 250 250" style="enable-background:new 0 0 250 250;" xml:space="preserve">
<style type="text/css">
	.st0{fill:#ED5B36;}
	.st1{fill:#FFFFFF;}
	.st2{fill:#203231;}
</style>
<g>
	<path class="st0" d="M158.4,122.9l-58.6-0.5c-5.5,0-10.4-3.7-12.3-9.1L81.8,97c-0.5-1.4,0.5-2.8,1.9-2.8h83.2L158.4,122.9z"/>
	<circle class="st0" cx="78.9" cy="151.4" r="9.2"/>
	<g>
		<circle class="st1" cx="80.1" cy="153.2" r="3.4"/>
		<path class="st2" d="M80.3,157.2c-1,0.3-2.3,0-3.2-0.8c-0.9-0.8-1.5-2-1.5-3.2c0-1.2,0.6-2.4,1.5-3.2c0.9-0.8,2.2-1.1,3.2-0.8
			c-2.1,0.6-3.3,2.2-3.2,4C77.1,154.9,78.3,156.6,80.3,157.2z"/>
	</g>
	<circle class="st0" cx="140" cy="151.4" r="9.2"/>
	<g>
		<circle class="st1" cx="141.2" cy="153.2" r="3.4"/>
		<path class="st2" d="M141.5,157.2c-1,0.3-2.3,0-3.2-0.8c-0.9-0.8-1.5-2-1.5-3.2c0-1.2,0.6-2.4,1.5-3.2c0.9-0.8,2.2-1.1,3.2-0.8
			c-2.1,0.6-3.3,2.2-3.2,4C138.2,154.9,139.4,156.6,141.5,157.2z"/>
	</g>
	<path class="st2" d="M78.8,169.4c-8.7,0-15.7-7-15.7-15.7c0-8.7,7.1-15.7,15.7-15.7s15.7,7,15.7,15.7
		C94.5,162.4,87.4,169.4,78.8,169.4z M80.3,144.9c-6.2-1-11.4,4.2-10.4,10.4c0.6,3.7,3.6,6.7,7.3,7.3c6.2,1,11.5-4.2,10.4-10.4
		C87,148.5,84,145.5,80.3,144.9z"/>
	<path class="st2" d="M140.1,169.4c-8.7,0-15.7-7-15.7-15.7c0-8.7,7-15.7,15.7-15.7c8.7,0,15.7,7,15.7,15.7
		C155.8,162.4,148.8,169.4,140.1,169.4z M141.6,144.9c-6.2-1-11.4,4.2-10.4,10.4c0.6,3.7,3.6,6.7,7.3,7.3c6.2,1,11.4-4.2,10.4-10.4
		C148.4,148.5,145.3,145.5,141.6,144.9z"/>
	<rect x="92.9" y="150.4" class="st2" width="34.8" height="6.7"/>
	<path class="st2" d="M83.5,141.9l-6.4-2l3.3-10.5L62.3,75.3c-0.3-0.8-0.9-1.4-1.6-1.6l-9.4-3.1c-1.1-0.4-0.8-2,0.3-1.9l13.7,0
		c1.1,0,2.1,0.7,2.5,1.8l19.7,59L83.5,141.9z"/>
	<path class="st2" d="M153.9,134.1H81.8L66.3,84.5h107.2l-12.3,43.1C160.9,131.3,157.8,134.1,153.9,134.1z M84.6,120.4
		c1.3,4.2,5.2,7,9.5,7h59.8c0.1,0,0.6,0,0.6-0.4v-0.5l10.1-35.4H75.4L84.6,120.4z"/>
	<g>
		<polygon class="st2" points="152.2,105.5 88.4,98.8 88.4,98.8 152.2,98.8 		"/>
		<polygon class="st2" points="145.1,119.8 95.5,112.7 95.5,112.7 145.1,112.7 		"/>
	</g>
</g>
</svg>
