<?xml version="1.0" encoding="utf-8"?>
<!-- Generator: Adobe Illustrator 24.3.0, SVG Export Plug-In . SVG Version: 6.00 Build 0)  -->
<svg version="1.1" id="Layer_1" xmlns="http://www.w3.org/2000/svg" xmlns:xlink="http://www.w3.org/1999/xlink" x="0px" y="0px"
	 viewBox="0 0 1000 360" style="enable-background:new 0 0 1000 360;" xml:space="preserve">
<style type="text/css">
	.st0{fill:#203232;}
	.st1{fill:none;stroke:#ED5A36;stroke-width:4.7817;stroke-miterlimit:10;}
	.st2{fill:none;stroke:#ED5A36;stroke-width:4.7817;stroke-miterlimit:10;stroke-dasharray:12.2674,7.3605;}
	.st3{fill:none;stroke:#ED5A36;stroke-width:4.7817;stroke-miterlimit:10;stroke-dasharray:13.4303,8.0582;}
	.st4{fill:#F57E20;}
	.st5{fill:none;stroke:#B3B3B3;stroke-width:2.3908;stroke-miterlimit:10;}
</style>
<g>
	<path class="st0" d="M754.4,16.6c1.1-1.4,3.1-3.5,6.9-3.5c4.2,0,6.8,2.6,6.8,6.5c0,2.5-1.2,4.2-2.9,5.9l-4.3,4.5h7.7v3.6h-13.3v-3
		l7.1-7.3c1.1-1.1,1.6-2.2,1.6-3.4c0-1.8-1.2-3-3.1-3c-1.9,0-3,1-4.1,2.2L754.4,16.6z"/>
	<path class="st0" d="M776,29l-2,8.5h-3.2l1-8.5H776z"/>
	<path class="st0" d="M792,18.9c0,2.1-1.1,3.7-3,4.6c2.1,0.8,3.4,2.4,3.4,4.6c0,4-3.6,5.9-7.4,5.9c-3,0-5.5-1.1-7-2.9l2.3-2.5
		c1.2,1.2,2.8,1.9,4.6,1.9c2,0,3.5-0.8,3.5-2.6c0-1.7-1.8-2.6-3.9-2.6h-2.3v-3.4h2.4c2,0,3.5-0.9,3.5-2.6c0-1.6-1.5-2.5-3.3-2.5
		c-1.9,0-3.2,1-4.1,2l-2.4-2.5c1.3-1.8,3.5-3.1,6.7-3.1C789.1,13.1,792,15.4,792,18.9z"/>
	<path class="st0" d="M813.1,18.6c0,3.2-2.4,5.5-5.6,5.5c-3.2,0-5.6-2.3-5.6-5.5c0-3.1,2.4-5.5,5.6-5.5
		C810.7,13.1,813.1,15.4,813.1,18.6z M805,18.6c0,1.5,1,2.5,2.4,2.5c1.4,0,2.4-1,2.4-2.5c0-1.4-1-2.5-2.4-2.5
		C806.1,16.1,805,17.1,805,18.6z M810.1,33.5h-3.8l13.5-20.1h3.7L810.1,33.5z M828.1,28.4c0,3.1-2.4,5.5-5.6,5.5
		c-3.2,0-5.6-2.3-5.6-5.5c0-3.1,2.4-5.5,5.6-5.5C825.7,22.9,828.1,25.3,828.1,28.4z M820.1,28.4c0,1.4,1,2.5,2.4,2.5
		c1.4,0,2.4-1,2.4-2.5s-1-2.5-2.4-2.5C821.1,25.9,820.1,27,820.1,28.4z"/>
</g>
<g>
	<path class="st0" d="M442.9,281.2h-8.5V278h8.5V281.2z"/>
	<path class="st0" d="M457.9,279.9h2.8v3.6h-2.8v3.7H454v-3.7h-8.9v-2.8l7-13.6h4.3l-6.7,12.8h4.3v-5.4h3.9V279.9z"/>
	<path class="st0" d="M467.6,282.7l-2,8.5h-3.2l1-8.5H467.6z"/>
	<path class="st0" d="M477,274.1c0.3,0,0.6-0.1,0.9-0.1c4.1,0,7,2.9,7,6.7c0,3.9-3.2,6.8-7.6,6.8c-4.3,0-7.5-2.9-7.5-6.8
		c0-1.8,0.7-3.5,1.9-5.3l5.6-8.3h4.7L477,274.1z M473.8,280.8c0,2,1.5,3.3,3.5,3.3c2,0,3.5-1.3,3.5-3.3c0-1.9-1.5-3.3-3.5-3.3
		C475.3,277.5,473.8,278.8,473.8,280.8z"/>
	<path class="st0" d="M505.2,272.3c0,3.2-2.4,5.5-5.6,5.5c-3.2,0-5.6-2.3-5.6-5.5c0-3.1,2.4-5.5,5.6-5.5
		C502.8,266.8,505.2,269.1,505.2,272.3z M497.2,272.3c0,1.5,1,2.5,2.4,2.5c1.4,0,2.4-1,2.4-2.5c0-1.4-1-2.5-2.4-2.5
		C498.2,269.8,497.2,270.8,497.2,272.3z M502.3,287.2h-3.8l13.5-20.1h3.7L502.3,287.2z M520.3,282.1c0,3.1-2.4,5.5-5.6,5.5
		c-3.2,0-5.6-2.3-5.6-5.5c0-3.1,2.4-5.5,5.6-5.5C517.9,276.6,520.3,279,520.3,282.1z M512.3,282.1c0,1.4,1,2.5,2.4,2.5
		c1.4,0,2.4-1,2.4-2.5s-1-2.5-2.4-2.5C513.3,279.6,512.3,280.7,512.3,282.1z"/>
</g>
<g>
	<path class="st0" d="M127.1,281.2h-8.5V278h8.5V281.2z"/>
	<path class="st0" d="M142,279.9h2.8v3.6H142v3.7h-3.9v-3.7h-8.9v-2.8l7-13.6h4.3l-6.7,12.8h4.3v-5.4h3.9V279.9z"/>
	<path class="st0" d="M151.8,282.7l-2,8.5h-3.2l1-8.5H151.8z"/>
	<path class="st0" d="M161.2,274.1c0.3,0,0.6-0.1,0.9-0.1c4.1,0,7,2.9,7,6.7c0,3.9-3.2,6.8-7.6,6.8c-4.3,0-7.5-2.9-7.5-6.8
		c0-1.8,0.7-3.5,1.9-5.3l5.6-8.3h4.7L161.2,274.1z M158,280.8c0,2,1.5,3.3,3.5,3.3c2,0,3.5-1.3,3.5-3.3c0-1.9-1.5-3.3-3.5-3.3
		C159.5,277.5,158,278.8,158,280.8z"/>
	<path class="st0" d="M189.4,272.3c0,3.2-2.4,5.5-5.6,5.5c-3.2,0-5.6-2.3-5.6-5.5c0-3.1,2.4-5.5,5.6-5.5
		C187,266.8,189.4,269.1,189.4,272.3z M181.4,272.3c0,1.5,1,2.5,2.4,2.5c1.4,0,2.4-1,2.4-2.5c0-1.4-1-2.5-2.4-2.5
		C182.4,269.8,181.4,270.8,181.4,272.3z M186.4,287.2h-3.8l13.5-20.1h3.7L186.4,287.2z M204.5,282.1c0,3.1-2.4,5.5-5.6,5.5
		c-3.2,0-5.6-2.3-5.6-5.5c0-3.1,2.4-5.5,5.6-5.5C202.1,276.6,204.5,279,204.5,282.1z M196.4,282.1c0,1.4,1,2.5,2.4,2.5
		c1.4,0,2.4-1,2.4-2.5s-1-2.5-2.4-2.5C197.5,279.6,196.4,280.7,196.4,282.1z"/>
</g>
<g>
	<path class="st0" d="M84.4,314.6c3.2,0,4.9,1.5,4.9,4.1c0,2.2-1.5,3.7-4.1,4l4.1,5.4h-3.2l-3.9-5.3h-0.8v5.3h-2.7v-13.4H84.4z
		 M81.4,317.1v3.3h2.9c1.5,0,2.2-0.5,2.2-1.7c0-1.1-0.8-1.6-2.2-1.6H81.4z"/>
	<path class="st0" d="M100.2,323.4c0,0.3,0,0.6,0,0.8h-6.6c0.3,1.3,1.2,1.9,2.4,1.9c0.8,0,1.7-0.3,2.3-0.9l1.5,1.6
		c-1.1,1-2.4,1.4-4,1.4c-2.8,0-4.8-1.9-4.8-4.9s1.9-4.9,4.7-4.9C98.4,318.5,100.2,320.5,100.2,323.4z M93.6,322.5h4.1
		c-0.2-1.2-0.9-1.9-2-1.9C94.5,320.7,93.8,321.4,93.6,322.5z"/>
	<path class="st0" d="M110.3,320.3l-1.8,1.5c-0.6-0.6-1.2-0.9-2-0.9c-1.3,0-2.3,1-2.3,2.6c0,1.5,1,2.6,2.3,2.6c0.8,0,1.5-0.4,2-0.9
		l1.8,1.5c-0.9,1.1-2.2,1.7-3.7,1.7c-3,0-4.9-2.1-4.9-4.9c0-2.8,2-4.9,4.9-4.9C108.1,318.5,109.5,319.1,110.3,320.3z"/>
	<path class="st0" d="M120.8,324.1c0,2.9-2.1,4.2-4.4,4.2c-2.3,0-4.4-1.3-4.4-4.2v-5.3h2.5v5.1c0,1.5,0.8,2.1,1.9,2.1
		c1.1,0,1.9-0.6,1.9-2.1v-5.1h2.5V324.1z"/>
	<path class="st0" d="M125.8,328h-2.5v-13.8h2.5V328z"/>
	<path class="st0" d="M148.2,322.1v5.9h-2.5v-5.1c0-1.3-0.7-2.1-1.8-2.1c-1.1,0-2,0.7-2,2.1v5.1h-2.5v-5.1c0-1.3-0.7-2.1-1.8-2.1
		c-1.1,0-2,0.7-2,2.1v5.1h-2.5v-9.3h2.4v1.1c0.7-1,1.7-1.3,2.7-1.3c1.3,0,2.4,0.6,3.1,1.6c0.7-1.2,1.9-1.6,3.1-1.6
		C146.8,318.5,148.2,320,148.2,322.1z"/>
	<path class="st0" d="M160.2,323.4c0,2.8-2.1,4.9-5,4.9c-2.9,0-5-2.1-5-4.9s2.1-4.9,5-4.9C158.1,318.5,160.2,320.6,160.2,323.4z
		 M152.7,323.4c0,1.5,1.1,2.6,2.5,2.6s2.5-1.1,2.5-2.6s-1.1-2.6-2.5-2.6S152.7,321.9,152.7,323.4z"/>
	<path class="st0" d="M164.6,331.9h-2.7l3.2-5.8l-4-7.3h2.8l2.5,4.8l2.5-4.8h2.7L164.6,331.9z"/>
	<path class="st0" d="M181.7,323.4c0,0.3,0,0.6,0,0.8H175c0.3,1.3,1.2,1.9,2.4,1.9c0.8,0,1.7-0.3,2.3-0.9l1.5,1.6
		c-1.1,1-2.4,1.4-4,1.4c-2.8,0-4.8-1.9-4.8-4.9s1.9-4.9,4.7-4.9C179.8,318.5,181.7,320.5,181.7,323.4z M175.1,322.5h4.1
		c-0.2-1.2-0.9-1.9-2-1.9C176,320.7,175.3,321.4,175.1,322.5z"/>
	<path class="st0" d="M192.5,322.1v5.9H190v-5.1c0-1.3-0.7-2.1-1.8-2.1c-1.1,0-2,0.7-2,2.1v5.1h-2.5v-9.3h2.4v1.1
		c0.7-1,1.7-1.3,2.7-1.3C191,318.5,192.5,320,192.5,322.1z"/>
	<path class="st0" d="M209.4,323.4c0,2.8-1.9,4.9-4.5,4.9c-1.2,0-2.1-0.5-2.7-1.2v4.8h-2.5v-13.1h2.4v1c0.6-0.8,1.5-1.3,2.8-1.3
		C207.5,318.5,209.4,320.6,209.4,323.4z M202.1,323.4c0,1.5,1,2.6,2.4,2.6c1.5,0,2.4-1.1,2.4-2.6s-0.9-2.6-2.4-2.6
		C203.1,320.8,202.1,321.9,202.1,323.4z"/>
	<path class="st0" d="M220.9,323.4c0,2.8-2.1,4.9-5,4.9c-2.9,0-5-2.1-5-4.9s2.1-4.9,5-4.9C218.8,318.5,220.9,320.6,220.9,323.4z
		 M213.4,323.4c0,1.5,1.1,2.6,2.5,2.6s2.5-1.1,2.5-2.6s-1.1-2.6-2.5-2.6S213.4,321.9,213.4,323.4z"/>
	<path class="st0" d="M231.7,324.1c0,2.9-2.1,4.2-4.4,4.2c-2.3,0-4.4-1.3-4.4-4.2v-5.3h2.5v5.1c0,1.5,0.8,2.1,1.9,2.1
		c1.1,0,1.9-0.6,1.9-2.1v-5.1h2.5V324.1z"/>
	<path class="st0" d="M240.5,318.7l-0.4,2.5c-0.4-0.2-1-0.3-1.5-0.3c-1.2,0-2,0.7-2,2.1v5.1h-2.5v-9.3h2.4v1
		c0.6-0.9,1.5-1.3,2.6-1.3C239.8,318.5,240.2,318.6,240.5,318.7z"/>
	<path class="st0" d="M105.9,351h-2.4v-1c-0.6,0.7-1.5,1.3-2.8,1.3c-2.6,0-4.5-2.1-4.5-4.9s1.9-4.9,4.5-4.9c1.3,0,2.2,0.5,2.8,1.3
		v-1h2.4V351z M98.8,346.3c0,1.4,0.9,2.6,2.4,2.6c1.4,0,2.4-1.1,2.4-2.6s-1-2.6-2.4-2.6C99.7,343.8,98.8,344.9,98.8,346.3z"/>
	<path class="st0" d="M115.3,343.9h-3.4v3.4c0,1.2,0.6,1.6,1.4,1.6c0.6,0,1.2-0.3,1.7-0.6l0.9,2c-0.8,0.6-1.8,1-3.1,1
		c-2.3,0-3.5-1.3-3.5-3.7v-3.6h-1.8v-2.2h1.8V339h2.5v2.8h3.4V343.9z"/>
	<path class="st0" d="M124.2,343.9h-3.4v3.4c0,1.2,0.6,1.6,1.4,1.6c0.6,0,1.2-0.3,1.7-0.6l0.9,2c-0.8,0.6-1.8,1-3.1,1
		c-2.3,0-3.5-1.3-3.5-3.7v-3.6h-1.8v-2.2h1.8V339h2.5v2.8h3.4V343.9z"/>
	<path class="st0" d="M135,346.3c0,0.3,0,0.6,0,0.8h-6.6c0.3,1.3,1.2,1.9,2.4,1.9c0.8,0,1.7-0.3,2.3-0.9l1.5,1.6
		c-1.1,1-2.4,1.4-4,1.4c-2.8,0-4.8-1.9-4.8-4.9s1.9-4.9,4.7-4.9C133.2,341.5,135,343.4,135,346.3z M128.4,345.5h4.1
		c-0.2-1.2-0.9-1.9-2-1.9C129.3,343.6,128.6,344.3,128.4,345.5z"/>
	<path class="st0" d="M139.9,338.7c0,0.9-0.7,1.6-1.6,1.6s-1.6-0.7-1.6-1.6c0-0.9,0.7-1.6,1.6-1.6S139.9,337.8,139.9,338.7z
		 M139.6,351h-2.5v-9.3h2.5V351z"/>
	<path class="st0" d="M150.9,345.1v5.9h-2.5v-5.1c0-1.3-0.7-2.1-1.8-2.1c-1.1,0-2,0.7-2,2.1v5.1h-2.5v-9.3h2.4v1.1
		c0.7-1,1.7-1.3,2.7-1.3C149.4,341.5,150.9,342.9,150.9,345.1z"/>
	<path class="st0" d="M160.1,342.7v-5.5h2.5V351h-2.4v-1c-0.6,0.7-1.5,1.3-2.8,1.3c-2.6,0-4.5-2.1-4.5-4.9s1.9-4.9,4.5-4.9
		C158.6,341.5,159.5,341.9,160.1,342.7z M155.5,346.3c0,1.4,0.9,2.6,2.4,2.6c1.4,0,2.4-1.1,2.4-2.6s-1-2.6-2.4-2.6
		C156.4,343.8,155.5,344.9,155.5,346.3z"/>
	<path class="st0" d="M171.6,341.7l-0.4,2.5c-0.4-0.2-1-0.3-1.5-0.3c-1.2,0-2,0.7-2,2.1v5.1h-2.5v-9.3h2.4v1
		c0.6-0.9,1.5-1.3,2.6-1.3C170.8,341.5,171.2,341.5,171.6,341.7z"/>
	<path class="st0" d="M181.9,346.3c0,0.3,0,0.6,0,0.8h-6.6c0.3,1.3,1.2,1.9,2.4,1.9c0.8,0,1.7-0.3,2.3-0.9l1.5,1.6
		c-1.1,1-2.4,1.4-4,1.4c-2.8,0-4.8-1.9-4.8-4.9s1.9-4.9,4.7-4.9C180,341.5,181.9,343.4,181.9,346.3z M175.3,345.5h4.1
		c-0.2-1.2-0.9-1.9-2-1.9C176.2,343.6,175.5,344.3,175.3,345.5z"/>
	<path class="st0" d="M198.8,339.7l-7,8.8h7v2.5h-10.5v-2.1l7-8.9h-6.9v-2.5h10.5V339.7z"/>
	<path class="st0" d="M211.2,351h-10v-13.4h9.9v2.4h-7.3v3h6.9v2.4h-6.9v3.1h7.3V351z"/>
	<path class="st0" d="M225.9,351h-2.5l-6.8-8.9l0,8.9h-2.7v-13.4h2.5l6.8,8.9v-8.9h2.7V351z"/>
</g>
<g>
	<path class="st0" d="M407.6,328H405v-10l-3.2,1.3v-2.6l5.8-2.3V328z"/>
	<path class="st0" d="M409.8,316.7c0.7-0.9,2.1-2.3,4.6-2.3c2.8,0,4.5,1.8,4.5,4.3c0,1.6-0.8,2.8-1.9,3.9l-2.9,3h5.1v2.4h-8.8v-2
		l4.7-4.9c0.7-0.7,1.1-1.5,1.1-2.3c0-1.2-0.8-2-2-2c-1.3,0-2,0.7-2.7,1.5L409.8,316.7z"/>
	<path class="st0" d="M432.6,319.7v-5.5h2.5V328h-2.4v-1c-0.6,0.7-1.5,1.3-2.8,1.3c-2.6,0-4.5-2.1-4.5-4.9s1.9-4.9,4.5-4.9
		C431.2,318.5,432,319,432.6,319.7z M428,323.4c0,1.4,0.9,2.6,2.4,2.6c1.4,0,2.4-1.1,2.4-2.6s-1-2.6-2.4-2.6
		C428.9,320.8,428,322,428,323.4z"/>
	<path class="st0" d="M446.4,323.4c0,0.3,0,0.6,0,0.8h-6.6c0.3,1.3,1.2,1.9,2.4,1.9c0.8,0,1.7-0.3,2.3-0.9l1.5,1.6
		c-1.1,1-2.4,1.4-4,1.4c-2.8,0-4.8-1.9-4.8-4.9s1.9-4.9,4.7-4.9C444.5,318.5,446.4,320.5,446.4,323.4z M439.8,322.5h4.1
		c-0.2-1.2-0.9-1.9-2-1.9C440.7,320.7,440,321.4,439.8,322.5z"/>
	<path class="st0" d="M454.7,318.7l-0.4,2.5c-0.4-0.2-1-0.3-1.5-0.3c-1.2,0-2,0.7-2,2.1v5.1h-2.5v-9.3h2.4v1
		c0.6-0.9,1.5-1.3,2.6-1.3C454,318.5,454.4,318.6,454.7,318.7z"/>
	<path class="st0" d="M465.2,322.1v5.9h-2.5v-5.1c0-1.3-0.7-2.1-1.8-2.1c-1.1,0-2,0.7-2,2.1v5.1h-2.5v-9.3h2.4v1.1
		c0.7-1,1.7-1.3,2.7-1.3C463.7,318.5,465.2,320,465.2,322.1z"/>
	<path class="st0" d="M470.6,315.7c0,0.9-0.7,1.6-1.6,1.6s-1.6-0.7-1.6-1.6c0-0.9,0.7-1.6,1.6-1.6S470.6,314.8,470.6,315.7z
		 M470.2,328h-2.5v-9.3h2.5V328z"/>
	<path class="st0" d="M481.5,323.4c0,0.3,0,0.6,0,0.8h-6.6c0.3,1.3,1.2,1.9,2.4,1.9c0.8,0,1.7-0.3,2.3-0.9l1.5,1.6
		c-1.1,1-2.4,1.4-4,1.4c-2.8,0-4.8-1.9-4.8-4.9s1.9-4.9,4.7-4.9C479.6,318.5,481.5,320.5,481.5,323.4z M474.9,322.5h4.1
		c-0.2-1.2-0.9-1.9-2-1.9C475.8,320.7,475.1,321.4,474.9,322.5z"/>
	<path class="st0" d="M489.8,318.7l-0.4,2.5c-0.4-0.2-1-0.3-1.5-0.3c-1.2,0-2,0.7-2,2.1v5.1h-2.5v-9.3h2.4v1
		c0.6-0.9,1.5-1.3,2.6-1.3C489.1,318.5,489.5,318.6,489.8,318.7z"/>
	<path class="st0" d="M498.2,321.3c-0.7-0.4-1.9-0.7-3-0.8c-0.9,0-1.4,0.3-1.4,0.8c0,0.5,0.7,0.7,1.5,0.8l0.8,0.1
		c2,0.3,3.1,1.2,3.1,2.8c0,1.9-1.6,3.1-4.3,3.1c-1.3,0-2.9-0.2-4.1-1.1l1-1.9c0.8,0.5,1.8,0.9,3.2,0.9c1.2,0,1.7-0.3,1.7-0.9
		c0-0.4-0.5-0.7-1.5-0.9l-0.8-0.1c-2.1-0.3-3.2-1.2-3.2-2.8c0-1.9,1.5-3,3.9-3c1.5,0,2.6,0.3,3.9,0.9L498.2,321.3z"/>
	<path class="st0" d="M521,322.1v5.9h-2.5v-5.1c0-1.3-0.7-2.1-1.8-2.1c-1.1,0-2,0.7-2,2.1v5.1h-2.5v-5.1c0-1.3-0.7-2.1-1.8-2.1
		c-1.1,0-2,0.7-2,2.1v5.1H506v-9.3h2.4v1.1c0.7-1,1.7-1.3,2.7-1.3c1.3,0,2.4,0.6,3.1,1.6c0.7-1.2,1.9-1.6,3.1-1.6
		C519.5,318.5,521,320,521,322.1z"/>
	<path class="st0" d="M533,323.4c0,2.8-2.1,4.9-5,4.9c-2.9,0-5-2.1-5-4.9s2.1-4.9,5-4.9C530.9,318.5,533,320.6,533,323.4z
		 M525.5,323.4c0,1.5,1.1,2.6,2.5,2.6s2.5-1.1,2.5-2.6s-1.1-2.6-2.5-2.6S525.5,321.9,525.5,323.4z"/>
	<path class="st0" d="M537.9,315.7c0,0.9-0.7,1.6-1.6,1.6s-1.6-0.7-1.6-1.6c0-0.9,0.7-1.6,1.6-1.6S537.9,314.8,537.9,315.7z
		 M537.5,328H535v-9.3h2.5V328z"/>
	<path class="st0" d="M546.8,321.3c-0.7-0.4-1.9-0.7-3-0.8c-0.9,0-1.4,0.3-1.4,0.8c0,0.5,0.7,0.7,1.5,0.8l0.8,0.1
		c2,0.3,3.1,1.2,3.1,2.8c0,1.9-1.6,3.1-4.3,3.1c-1.3,0-2.9-0.2-4.1-1.1l1-1.9c0.8,0.5,1.8,0.9,3.2,0.9c1.2,0,1.7-0.3,1.7-0.9
		c0-0.4-0.5-0.7-1.5-0.9l-0.8-0.1c-2.1-0.3-3.2-1.2-3.2-2.8c0-1.9,1.5-3,3.9-3c1.5,0,2.6,0.3,3.9,0.9L546.8,321.3z"/>
	<path class="st0" d="M421.6,339.3c-2.5,1.2-3.8,3.5-3.8,6.2c0,2.7,1.3,5,3.8,6.2l-0.8,2.2c-3.3-1.3-5.6-4.5-5.6-8.4
		c0-3.9,2.3-7.1,5.6-8.4L421.6,339.3z"/>
	<path class="st0" d="M432.1,346.3c0,0.3,0,0.6,0,0.8h-6.6c0.3,1.3,1.2,1.9,2.4,1.9c0.8,0,1.7-0.3,2.3-0.9l1.5,1.6
		c-1.1,1-2.4,1.4-4,1.4c-2.8,0-4.8-1.9-4.8-4.9s1.9-4.9,4.7-4.9C430.3,341.5,432.1,343.4,432.1,346.3z M425.5,345.5h4.1
		c-0.2-1.2-0.9-1.9-2-1.9C426.4,343.6,425.7,344.3,425.5,345.5z"/>
	<path class="st0" d="M440.8,344.3c-0.7-0.4-1.9-0.7-3-0.8c-0.9,0-1.4,0.3-1.4,0.8c0,0.5,0.7,0.7,1.5,0.8l0.8,0.1
		c2,0.3,3.1,1.2,3.1,2.8c0,1.9-1.6,3.1-4.3,3.1c-1.3,0-2.9-0.2-4.1-1.1l1-1.9c0.8,0.5,1.8,0.9,3.2,0.9c1.2,0,1.7-0.3,1.7-0.9
		c0-0.4-0.5-0.7-1.5-0.9l-0.8-0.1c-2.1-0.3-3.2-1.2-3.2-2.8c0-1.9,1.5-3,3.9-3c1.5,0,2.6,0.3,3.9,0.9L440.8,344.3z"/>
	<path class="st0" d="M450.6,343.9h-3.4v3.4c0,1.2,0.6,1.6,1.4,1.6c0.6,0,1.2-0.3,1.7-0.6l0.9,2c-0.8,0.6-1.8,1-3.1,1
		c-2.3,0-3.5-1.3-3.5-3.7v-3.6h-1.8v-2.2h1.8V339h2.5v2.8h3.4V343.9z"/>
	<path class="st0" d="M455.6,338.7c0,0.9-0.7,1.6-1.6,1.6s-1.6-0.7-1.6-1.6c0-0.9,0.7-1.6,1.6-1.6S455.6,337.8,455.6,338.7z
		 M455.3,351h-2.5v-9.3h2.5V351z"/>
	<path class="st0" d="M472.9,345.1v5.9h-2.5v-5.1c0-1.3-0.7-2.1-1.8-2.1c-1.1,0-2,0.7-2,2.1v5.1h-2.5v-5.1c0-1.3-0.7-2.1-1.8-2.1
		c-1.1,0-2,0.7-2,2.1v5.1h-2.5v-9.3h2.4v1.1c0.7-1,1.7-1.3,2.7-1.3c1.3,0,2.4,0.6,3.1,1.6c0.7-1.2,1.9-1.6,3.1-1.6
		C471.4,341.5,472.9,342.9,472.9,345.1z"/>
	<path class="st0" d="M484.6,351h-2.4v-1c-0.6,0.7-1.5,1.3-2.8,1.3c-2.6,0-4.5-2.1-4.5-4.9s1.9-4.9,4.5-4.9c1.3,0,2.2,0.5,2.8,1.3
		v-1h2.4V351z M477.4,346.3c0,1.4,0.9,2.6,2.4,2.6c1.4,0,2.4-1.1,2.4-2.6s-1-2.6-2.4-2.6C478.4,343.8,477.4,344.9,477.4,346.3z"/>
	<path class="st0" d="M493.9,343.9h-3.4v3.4c0,1.2,0.6,1.6,1.4,1.6c0.6,0,1.2-0.3,1.7-0.6l0.9,2c-0.8,0.6-1.8,1-3.1,1
		c-2.3,0-3.5-1.3-3.5-3.7v-3.6h-1.8v-2.2h1.8V339h2.5v2.8h3.4V343.9z"/>
	<path class="st0" d="M498.9,338.7c0,0.9-0.7,1.6-1.6,1.6s-1.6-0.7-1.6-1.6c0-0.9,0.7-1.6,1.6-1.6S498.9,337.8,498.9,338.7z
		 M498.6,351h-2.5v-9.3h2.5V351z"/>
	<path class="st0" d="M510.7,346.3c0,2.8-2.1,4.9-5,4.9c-2.9,0-5-2.1-5-4.9s2.1-4.9,5-4.9C508.6,341.5,510.7,343.5,510.7,346.3z
		 M503.2,346.3c0,1.5,1.1,2.6,2.5,2.6s2.5-1.1,2.5-2.6s-1.1-2.6-2.5-2.6S503.2,344.8,503.2,346.3z"/>
	<path class="st0" d="M521.5,345.1v5.9H519v-5.1c0-1.3-0.7-2.1-1.8-2.1c-1.1,0-2,0.7-2,2.1v5.1h-2.5v-9.3h2.4v1.1
		c0.7-1,1.7-1.3,2.7-1.3C520,341.5,521.5,342.9,521.5,345.1z"/>
	<path class="st0" d="M530.7,344.3c-0.7-0.4-1.9-0.7-3-0.8c-0.9,0-1.4,0.3-1.4,0.8c0,0.5,0.7,0.7,1.5,0.8l0.8,0.1
		c2,0.3,3.1,1.2,3.1,2.8c0,1.9-1.6,3.1-4.3,3.1c-1.3,0-2.9-0.2-4.1-1.1l1-1.9c0.8,0.5,1.8,0.9,3.2,0.9c1.2,0,1.7-0.3,1.7-0.9
		c0-0.4-0.5-0.7-1.5-0.9l-0.8-0.1c-2.1-0.3-3.2-1.2-3.2-2.8c0-1.9,1.5-3,3.9-3c1.5,0,2.6,0.3,3.9,0.9L530.7,344.3z"/>
	<path class="st0" d="M533,351.7c2.5-1.2,3.8-3.5,3.8-6.2s-1.3-5-3.8-6.2l0.8-2.2c3.3,1.3,5.6,4.5,5.6,8.4c0,3.9-2.3,7.1-5.6,8.4
		L533,351.7z"/>
</g>
<g>
	<path class="st0" d="M715.3,328h-2.6v-10l-3.2,1.3v-2.6l5.8-2.3V328z"/>
	<path class="st0" d="M717.5,316.7c0.7-0.9,2.1-2.3,4.6-2.3c2.8,0,4.5,1.8,4.5,4.3c0,1.6-0.8,2.8-1.9,3.9l-2.9,3h5.1v2.4h-8.8v-2
		l4.7-4.9c0.7-0.7,1.1-1.5,1.1-2.3c0-1.2-0.8-2-2-2c-1.3,0-2,0.7-2.7,1.5L717.5,316.7z"/>
	<path class="st0" d="M743.4,323.4c0,2.8-1.9,4.9-4.5,4.9c-1.2,0-2.1-0.5-2.7-1.2v4.8h-2.5v-13.1h2.4v1c0.6-0.8,1.5-1.3,2.8-1.3
		C741.4,318.5,743.4,320.6,743.4,323.4z M736,323.4c0,1.5,1,2.6,2.4,2.6c1.5,0,2.4-1.1,2.4-2.6s-0.9-2.6-2.4-2.6
		C737,320.8,736,321.9,736,323.4z"/>
	<path class="st0" d="M751.7,318.7l-0.4,2.5c-0.4-0.2-1-0.3-1.5-0.3c-1.2,0-2,0.7-2,2.1v5.1h-2.5v-9.3h2.4v1
		c0.6-0.9,1.5-1.3,2.6-1.3C751,318.5,751.4,318.6,751.7,318.7z"/>
	<path class="st0" d="M762.9,323.4c0,2.8-2.1,4.9-5,4.9c-2.9,0-5-2.1-5-4.9s2.1-4.9,5-4.9C760.8,318.5,762.9,320.6,762.9,323.4z
		 M755.4,323.4c0,1.5,1.1,2.6,2.5,2.6s2.5-1.1,2.5-2.6s-1.1-2.6-2.5-2.6S755.4,321.9,755.4,323.4z"/>
	<path class="st0" d="M773,320.3l-1.8,1.5c-0.6-0.6-1.2-0.9-2-0.9c-1.3,0-2.3,1-2.3,2.6c0,1.5,1,2.6,2.3,2.6c0.8,0,1.5-0.4,2-0.9
		l1.8,1.5c-0.9,1.1-2.2,1.7-3.7,1.7c-3,0-4.9-2.1-4.9-4.9c0-2.8,2-4.9,4.9-4.9C770.8,318.5,772.2,319.1,773,320.3z"/>
	<path class="st0" d="M777.3,319.7c0.7-0.9,1.6-1.2,2.7-1.2c2.1,0,3.6,1.5,3.6,3.6v5.9h-2.5v-5.1c0-1.3-0.7-2.1-1.8-2.1
		c-1.1,0-2,0.7-2,2.1v5.1h-2.5v-13.8h2.5V319.7z"/>
	<path class="st0" d="M795.2,328h-2.4v-1c-0.6,0.7-1.5,1.3-2.8,1.3c-2.6,0-4.5-2.1-4.5-4.9s1.9-4.9,4.5-4.9c1.3,0,2.2,0.5,2.8,1.3
		v-1h2.4V328z M788.1,323.4c0,1.4,0.9,2.6,2.4,2.6c1.4,0,2.4-1.1,2.4-2.6s-1-2.6-2.4-2.6C789,320.8,788.1,322,788.1,323.4z"/>
	<path class="st0" d="M800.7,315.7c0,0.9-0.7,1.6-1.6,1.6s-1.6-0.7-1.6-1.6c0-0.9,0.7-1.6,1.6-1.6S800.7,314.8,800.7,315.7z
		 M800.4,328h-2.5v-9.3h2.5V328z"/>
	<path class="st0" d="M811.7,322.1v5.9h-2.5v-5.1c0-1.3-0.7-2.1-1.8-2.1c-1.1,0-2,0.7-2,2.1v5.1H803v-9.3h2.4v1.1
		c0.7-1,1.7-1.3,2.7-1.3C810.2,318.5,811.7,320,811.7,322.1z"/>
	<path class="st0" d="M820.9,321.3c-0.7-0.4-1.9-0.7-3-0.8c-0.9,0-1.4,0.3-1.4,0.8c0,0.5,0.7,0.7,1.5,0.8l0.8,0.1
		c2,0.3,3.1,1.2,3.1,2.8c0,1.9-1.6,3.1-4.3,3.1c-1.3,0-2.9-0.2-4.1-1.1l1-1.9c0.8,0.5,1.8,0.9,3.2,0.9c1.2,0,1.7-0.3,1.7-0.9
		c0-0.4-0.5-0.7-1.5-0.9l-0.8-0.1c-2.1-0.3-3.2-1.2-3.2-2.8c0-1.9,1.5-3,3.9-3c1.5,0,2.6,0.3,3.9,0.9L820.9,321.3z"/>
	<path class="st0" d="M843.7,322.1v5.9h-2.5v-5.1c0-1.3-0.7-2.1-1.8-2.1c-1.1,0-2,0.7-2,2.1v5.1H835v-5.1c0-1.3-0.7-2.1-1.8-2.1
		c-1.1,0-2,0.7-2,2.1v5.1h-2.5v-9.3h2.4v1.1c0.7-1,1.7-1.3,2.7-1.3c1.3,0,2.4,0.6,3.1,1.6c0.7-1.2,1.9-1.6,3.1-1.6
		C842.3,318.5,843.7,320,843.7,322.1z"/>
	<path class="st0" d="M855.7,323.4c0,2.8-2.1,4.9-5,4.9c-2.9,0-5-2.1-5-4.9s2.1-4.9,5-4.9C853.6,318.5,855.7,320.6,855.7,323.4z
		 M848.3,323.4c0,1.5,1.1,2.6,2.5,2.6s2.5-1.1,2.5-2.6s-1.1-2.6-2.5-2.6S848.3,321.9,848.3,323.4z"/>
	<path class="st0" d="M860.6,315.7c0,0.9-0.7,1.6-1.6,1.6s-1.6-0.7-1.6-1.6c0-0.9,0.7-1.6,1.6-1.6S860.6,314.8,860.6,315.7z
		 M860.3,328h-2.5v-9.3h2.5V328z"/>
	<path class="st0" d="M869.5,321.3c-0.7-0.4-1.9-0.7-3-0.8c-0.9,0-1.4,0.3-1.4,0.8c0,0.5,0.7,0.7,1.5,0.8l0.8,0.1
		c2,0.3,3.1,1.2,3.1,2.8c0,1.9-1.6,3.1-4.3,3.1c-1.3,0-2.9-0.2-4.1-1.1l1-1.9c0.8,0.5,1.8,0.9,3.2,0.9c1.2,0,1.7-0.3,1.7-0.9
		c0-0.4-0.5-0.7-1.5-0.9l-0.8-0.1c-2.1-0.3-3.2-1.2-3.2-2.8c0-1.9,1.5-3,3.9-3c1.5,0,2.6,0.3,3.9,0.9L869.5,321.3z"/>
	<path class="st0" d="M736.8,339.3c-2.5,1.2-3.8,3.5-3.8,6.2c0,2.7,1.3,5,3.8,6.2L736,354c-3.3-1.3-5.6-4.5-5.6-8.4
		c0-3.9,2.3-7.1,5.6-8.4L736.8,339.3z"/>
	<path class="st0" d="M747.3,346.3c0,0.3,0,0.6,0,0.8h-6.6c0.3,1.3,1.2,1.9,2.4,1.9c0.8,0,1.7-0.3,2.3-0.9l1.5,1.6
		c-1.1,1-2.4,1.4-4,1.4c-2.8,0-4.8-1.9-4.8-4.9s1.9-4.9,4.7-4.9C745.5,341.5,747.3,343.4,747.3,346.3z M740.7,345.5h4.1
		c-0.2-1.2-0.9-1.9-2-1.9C741.6,343.6,740.9,344.3,740.7,345.5z"/>
	<path class="st0" d="M756,344.3c-0.7-0.4-1.9-0.7-3-0.8c-0.9,0-1.4,0.3-1.4,0.8c0,0.5,0.7,0.7,1.5,0.8l0.8,0.1
		c2,0.3,3.1,1.2,3.1,2.8c0,1.9-1.6,3.1-4.3,3.1c-1.3,0-2.9-0.2-4.1-1.1l1-1.9c0.8,0.5,1.8,0.9,3.2,0.9c1.2,0,1.7-0.3,1.7-0.9
		c0-0.4-0.5-0.7-1.5-0.9l-0.8-0.1c-2.1-0.3-3.2-1.2-3.2-2.8c0-1.9,1.5-3,3.9-3c1.5,0,2.6,0.3,3.9,0.9L756,344.3z"/>
	<path class="st0" d="M765.8,343.9h-3.4v3.4c0,1.2,0.6,1.6,1.4,1.6c0.6,0,1.2-0.3,1.7-0.6l0.9,2c-0.8,0.6-1.8,1-3.1,1
		c-2.3,0-3.5-1.3-3.5-3.7v-3.6h-1.8v-2.2h1.8V339h2.5v2.8h3.4V343.9z"/>
	<path class="st0" d="M770.8,338.7c0,0.9-0.7,1.6-1.6,1.6s-1.6-0.7-1.6-1.6c0-0.9,0.7-1.6,1.6-1.6S770.8,337.8,770.8,338.7z
		 M770.5,351H768v-9.3h2.5V351z"/>
	<path class="st0" d="M788.1,345.1v5.9h-2.5v-5.1c0-1.3-0.7-2.1-1.8-2.1c-1.1,0-2,0.7-2,2.1v5.1h-2.5v-5.1c0-1.3-0.7-2.1-1.8-2.1
		c-1.1,0-2,0.7-2,2.1v5.1h-2.5v-9.3h2.4v1.1c0.7-1,1.7-1.3,2.7-1.3c1.3,0,2.4,0.6,3.1,1.6c0.7-1.2,1.9-1.6,3.1-1.6
		C786.6,341.5,788.1,342.9,788.1,345.1z"/>
	<path class="st0" d="M799.8,351h-2.4v-1c-0.6,0.7-1.5,1.3-2.8,1.3c-2.6,0-4.5-2.1-4.5-4.9s1.9-4.9,4.5-4.9c1.3,0,2.2,0.5,2.8,1.3
		v-1h2.4V351z M792.6,346.3c0,1.4,0.9,2.6,2.4,2.6c1.4,0,2.4-1.1,2.4-2.6s-1-2.6-2.4-2.6C793.6,343.8,792.6,344.9,792.6,346.3z"/>
	<path class="st0" d="M809.1,343.9h-3.4v3.4c0,1.2,0.6,1.6,1.4,1.6c0.6,0,1.2-0.3,1.7-0.6l0.9,2c-0.8,0.6-1.8,1-3.1,1
		c-2.3,0-3.5-1.3-3.5-3.7v-3.6h-1.8v-2.2h1.8V339h2.5v2.8h3.4V343.9z"/>
	<path class="st0" d="M814.2,338.7c0,0.9-0.7,1.6-1.6,1.6s-1.6-0.7-1.6-1.6c0-0.9,0.7-1.6,1.6-1.6S814.2,337.8,814.2,338.7z
		 M813.8,351h-2.5v-9.3h2.5V351z"/>
	<path class="st0" d="M825.9,346.3c0,2.8-2.1,4.9-5,4.9c-2.9,0-5-2.1-5-4.9s2.1-4.9,5-4.9C823.8,341.5,825.9,343.5,825.9,346.3z
		 M818.4,346.3c0,1.5,1.1,2.6,2.5,2.6s2.5-1.1,2.5-2.6s-1.1-2.6-2.5-2.6S818.4,344.8,818.4,346.3z"/>
	<path class="st0" d="M836.7,345.1v5.9h-2.5v-5.1c0-1.3-0.7-2.1-1.8-2.1c-1.1,0-2,0.7-2,2.1v5.1h-2.5v-9.3h2.4v1.1
		c0.7-1,1.7-1.3,2.7-1.3C835.2,341.5,836.7,342.9,836.7,345.1z"/>
	<path class="st0" d="M845.9,344.3c-0.7-0.4-1.9-0.7-3-0.8c-0.9,0-1.4,0.3-1.4,0.8c0,0.5,0.7,0.7,1.5,0.8l0.8,0.1
		c2,0.3,3.1,1.2,3.1,2.8c0,1.9-1.6,3.1-4.3,3.1c-1.3,0-2.9-0.2-4.1-1.1l1-1.9c0.8,0.5,1.8,0.9,3.2,0.9c1.2,0,1.7-0.3,1.7-0.9
		c0-0.4-0.5-0.7-1.5-0.9l-0.8-0.1c-2.1-0.3-3.2-1.2-3.2-2.8c0-1.9,1.5-3,3.9-3c1.5,0,2.6,0.3,3.9,0.9L845.9,344.3z"/>
	<path class="st0" d="M848.2,351.7c2.5-1.2,3.8-3.5,3.8-6.2s-1.3-5-3.8-6.2l0.8-2.2c3.3,1.3,5.6,4.5,5.6,8.4c0,3.9-2.3,7.1-5.6,8.4
		L848.2,351.7z"/>
</g>
<g>
	<g>
		<g>
			<line class="st1" x1="119.3" y1="115.8" x2="119.3" y2="121.8"/>
			<line class="st2" x1="119.3" y1="129.1" x2="119.3" y2="243.2"/>
			<polyline class="st1" points="119.3,246.9 119.3,252.9 125.2,252.9 			"/>
			<line class="st3" x1="133.3" y1="252.9" x2="193.7" y2="252.9"/>
			<polyline class="st1" points="197.8,252.9 203.7,252.9 203.7,246.9 			"/>
			<line class="st2" x1="203.7" y1="239.5" x2="203.7" y2="125.4"/>
			<line class="st1" x1="203.7" y1="121.8" x2="203.7" y2="115.8"/>
		</g>
	</g>
	<rect x="434.8" y="115.8" class="st4" width="84.5" height="137.1"/>
	<rect x="750.3" y="47.2" class="st4" width="84.5" height="68.5"/>
	<g>
		<line class="st5" x1="3.7" y1="115.8" x2="950.3" y2="115.8"/>
	</g>
</g>
</svg>
