<?xml version="1.0" encoding="utf-8"?>
<!-- Generator: Adobe Illustrator 24.3.0, SVG Export Plug-In . SVG Version: 6.00 Build 0)  -->
<svg version="1.1" id="Layer_1" xmlns="http://www.w3.org/2000/svg" xmlns:xlink="http://www.w3.org/1999/xlink" x="0px" y="0px"
	 viewBox="0 0 1000 386.3" style="enable-background:new 0 0 1000 386.3;" xml:space="preserve">
<style type="text/css">
	.st0{fill:none;stroke:#ED5A36;stroke-width:5.0377;stroke-miterlimit:10;}
	.st1{fill:none;stroke:#ED5A36;stroke-width:5.0377;stroke-miterlimit:10;stroke-dasharray:12.9244,7.7546;}
	.st2{fill:none;stroke:#ED5A36;stroke-width:5.0377;stroke-miterlimit:10;stroke-dasharray:14.1495,8.4897;}
	.st3{fill:#203232;}
	.st4{fill:#F57E20;}
	.st5{fill:none;stroke:#B3B3B3;stroke-width:2.5189;stroke-miterlimit:10;}
</style>
<g>
	<g>
		<line class="st0" x1="124.5" y1="113.6" x2="124.5" y2="119.9"/>
		<line class="st1" x1="124.5" y1="127.7" x2="124.5" y2="247.9"/>
		<polyline class="st0" points="124.5,251.8 124.5,258.1 130.8,258.1 		"/>
		<line class="st2" x1="139.3" y1="258.1" x2="202.9" y2="258.1"/>
		<polyline class="st0" points="207.2,258.1 213.5,258.1 213.5,251.8 		"/>
		<line class="st1" x1="213.5" y1="244" x2="213.5" y2="123.8"/>
		<line class="st0" x1="213.5" y1="119.9" x2="213.5" y2="113.6"/>
	</g>
</g>
<g>
	<path class="st3" d="M800.6,10.1c1.1-1.5,3.3-3.6,7.2-3.6c4.4,0,7.2,2.8,7.2,6.8c0,2.6-1.3,4.4-3.1,6.2l-4.5,4.7h8.1V28h-14v-3.2
		l7.5-7.7c1.1-1.1,1.7-2.3,1.7-3.6c0-1.8-1.3-3.2-3.2-3.2c-2,0-3.2,1.1-4.3,2.3L800.6,10.1z"/>
	<path class="st3" d="M823.7,25.5c0,1.6-1.4,2.9-2.9,2.9c-1.6,0-2.9-1.4-2.9-2.9c0-1.6,1.4-2.9,2.9-2.9
		C822.4,22.6,823.7,23.9,823.7,25.5z"/>
	<path class="st3" d="M840.5,12.6c0,2.2-1.2,3.9-3.2,4.8c2.2,0.9,3.6,2.6,3.6,4.9c0,4.2-3.8,6.2-7.8,6.2c-3.2,0-5.8-1.1-7.4-3.1
		l2.4-2.7c1.2,1.3,3,2,4.8,2c2.1,0,3.7-0.9,3.7-2.8c0-1.8-1.9-2.8-4.1-2.8h-2.5v-3.6h2.5c2.1,0,3.7-0.9,3.7-2.7
		c0-1.7-1.5-2.6-3.5-2.6c-2,0-3.4,1-4.3,2.1l-2.6-2.6c1.4-1.9,3.7-3.3,7.1-3.3C837.5,6.5,840.5,8.9,840.5,12.6z"/>
	<path class="st3" d="M855.2,12.3c0,3.3-2.5,5.8-5.9,5.8c-3.4,0-5.9-2.5-5.9-5.8c0-3.3,2.5-5.8,5.9-5.8
		C852.7,6.5,855.2,9,855.2,12.3z M846.8,12.3c0,1.5,1.1,2.6,2.5,2.6c1.5,0,2.6-1.1,2.6-2.6c0-1.5-1.1-2.6-2.6-2.6
		C847.8,9.7,846.8,10.7,846.8,12.3z M852.1,28h-4l14.2-21.2h3.9L852.1,28z M871.1,22.6c0,3.3-2.5,5.8-5.9,5.8
		c-3.4,0-5.9-2.5-5.9-5.8c0-3.3,2.5-5.8,5.9-5.8C868.6,16.9,871.1,19.3,871.1,22.6z M862.6,22.6c0,1.5,1.1,2.6,2.5,2.6
		c1.5,0,2.6-1.1,2.6-2.6c0-1.5-1.1-2.6-2.6-2.6C863.7,20,862.6,21.1,862.6,22.6z"/>
</g>
<g>
	<path class="st3" d="M466.9,296.7H458v-3.4h8.9V296.7z"/>
	<path class="st3" d="M482.7,295.4h2.9v3.8h-2.9v3.9h-4.1v-3.9h-9.4v-3l7.4-14.3h4.5l-7.1,13.5h4.5v-5.6h4.1V295.4z"/>
	<path class="st3" d="M493.3,300.5c0,1.6-1.4,2.9-2.9,2.9c-1.6,0-2.9-1.4-2.9-2.9c0-1.6,1.4-2.9,2.9-2.9
		C492,297.5,493.3,298.9,493.3,300.5z"/>
	<path class="st3" d="M503.1,289.2c0.3,0,0.6-0.1,1-0.1c4.3,0,7.3,3.1,7.3,7c0,4.1-3.4,7.2-8,7.2c-4.5,0-7.9-3-7.9-7.1
		c0-1.9,0.7-3.7,2-5.6l5.9-8.8h4.9L503.1,289.2z M499.8,296.2c0,2.1,1.6,3.5,3.7,3.5c2.1,0,3.7-1.4,3.7-3.5c0-2-1.6-3.5-3.7-3.5
		C501.4,292.8,499.8,294.2,499.8,296.2z"/>
	<path class="st3" d="M525.4,287.3c0,3.3-2.5,5.8-5.9,5.8c-3.4,0-5.9-2.5-5.9-5.8c0-3.3,2.5-5.8,5.9-5.8
		C522.8,281.5,525.4,284,525.4,287.3z M516.9,287.3c0,1.5,1.1,2.6,2.5,2.6c1.5,0,2.6-1.1,2.6-2.6c0-1.5-1.1-2.6-2.6-2.6
		C518,284.7,516.9,285.7,516.9,287.3z M522.3,303h-4l14.2-21.2h3.9L522.3,303z M541.2,297.6c0,3.3-2.5,5.8-5.9,5.8
		c-3.4,0-5.9-2.5-5.9-5.8c0-3.3,2.5-5.8,5.9-5.8C538.7,291.9,541.2,294.3,541.2,297.6z M532.8,297.6c0,1.5,1.1,2.6,2.5,2.6
		c1.5,0,2.6-1.1,2.6-2.6c0-1.5-1.1-2.6-2.6-2.6C533.9,295,532.8,296.1,532.8,297.6z"/>
</g>
<g>
	<path class="st3" d="M140.2,296.7h-8.9v-3.4h8.9V296.7z"/>
	<path class="st3" d="M156,295.4h2.9v3.8H156v3.9h-4.1v-3.9h-9.4v-3l7.4-14.3h4.5l-7.1,13.5h4.5v-5.6h4.1V295.4z"/>
	<path class="st3" d="M166.7,300.5c0,1.6-1.4,2.9-2.9,2.9c-1.6,0-2.9-1.4-2.9-2.9c0-1.6,1.4-2.9,2.9-2.9
		C165.3,297.5,166.7,298.9,166.7,300.5z"/>
	<path class="st3" d="M176.5,289.2c0.3,0,0.6-0.1,1-0.1c4.3,0,7.3,3.1,7.3,7c0,4.1-3.4,7.2-8,7.2c-4.5,0-7.9-3-7.9-7.1
		c0-1.9,0.7-3.7,2-5.6l5.9-8.8h4.9L176.5,289.2z M173.1,296.2c0,2.1,1.6,3.5,3.7,3.5c2.1,0,3.7-1.4,3.7-3.5c0-2-1.6-3.5-3.7-3.5
		C174.7,292.8,173.1,294.2,173.1,296.2z"/>
	<path class="st3" d="M198.7,287.3c0,3.3-2.5,5.8-5.9,5.8c-3.4,0-5.9-2.5-5.9-5.8c0-3.3,2.5-5.8,5.9-5.8
		C196.2,281.5,198.7,284,198.7,287.3z M190.2,287.3c0,1.5,1.1,2.6,2.5,2.6c1.5,0,2.6-1.1,2.6-2.6c0-1.5-1.1-2.6-2.6-2.6
		C191.3,284.7,190.2,285.7,190.2,287.3z M195.6,303h-4l14.2-21.2h3.9L195.6,303z M214.6,297.6c0,3.3-2.5,5.8-5.9,5.8
		c-3.4,0-5.9-2.5-5.9-5.8c0-3.3,2.5-5.8,5.9-5.8C212,291.9,214.6,294.3,214.6,297.6z M206.1,297.6c0,1.5,1.1,2.6,2.5,2.6
		c1.5,0,2.6-1.1,2.6-2.6c0-1.5-1.1-2.6-2.6-2.6C207.2,295,206.1,296.1,206.1,297.6z"/>
</g>
<g>
	<path class="st3" d="M107.6,343.1h-3l-1.2-3.3h-6l-1.2,3.3h-2.9l5.5-14.1h3.4L107.6,343.1z M98.3,337.2h4.1l-2-5.5L98.3,337.2z"/>
	<path class="st3" d="M114.9,343.1h-3l-3.9-9.8h2.9l2.5,7l2.6-7h2.8L114.9,343.1z"/>
	<path class="st3" d="M129.3,338.2c0,0.3,0,0.7-0.1,0.9h-6.9c0.3,1.4,1.3,2,2.5,2c0.8,0,1.8-0.3,2.5-0.9l1.5,1.7
		c-1.1,1-2.5,1.5-4.2,1.5c-3,0-5.1-2-5.1-5.1s2-5.2,4.9-5.2C127.4,333,129.3,335.1,129.3,338.2z M122.4,337.3h4.3
		c-0.2-1.3-1-2-2.1-2C123.3,335.3,122.6,336.1,122.4,337.3z"/>
	<path class="st3" d="M138.2,333.3l-0.4,2.6c-0.4-0.2-1.1-0.3-1.6-0.3c-1.2,0-2.1,0.7-2.1,2.2v5.3h-2.6v-9.8h2.6v1.1
		c0.6-0.9,1.6-1.3,2.8-1.3C137.4,333,137.8,333.1,138.2,333.3z"/>
	<path class="st3" d="M149.6,343.1H147V342c-0.6,0.8-1.6,1.3-2.9,1.3c-2.7,0-4.7-2.2-4.7-5.1c0-2.9,2-5.1,4.7-5.1
		c1.3,0,2.3,0.5,2.9,1.3v-1.1h2.6V343.1z M142,338.2c0,1.5,1,2.7,2.5,2.7c1.5,0,2.5-1.1,2.5-2.7c0-1.5-1-2.7-2.5-2.7
		C143,335.5,142,336.7,142,338.2z"/>
	<path class="st3" d="M159.2,334.4v-1.1h2.6v9c0,3.1-2,5-5.3,5c-1.5,0-3.2-0.4-4.3-1.2l0.9-2.1c1,0.6,2.1,1,3.2,1
		c1.6,0,2.8-0.9,2.8-2.6v-0.7c-0.7,0.8-1.7,1.3-3,1.3c-2.4,0-4.5-2-4.5-5c0-3,2.1-5,4.5-5C157.6,333,158.6,333.6,159.2,334.4z
		 M154.4,338c0,1.4,1,2.6,2.5,2.6c1.5,0,2.4-1.1,2.4-2.6c0-1.5-1-2.6-2.4-2.6C155.4,335.5,154.4,336.6,154.4,338z"/>
	<path class="st3" d="M173.7,338.2c0,0.3,0,0.7-0.1,0.9h-6.9c0.3,1.4,1.3,2,2.5,2c0.8,0,1.8-0.3,2.5-0.9l1.5,1.7
		c-1.1,1-2.5,1.5-4.2,1.5c-3,0-5.1-2-5.1-5.1s2-5.2,4.9-5.2C171.7,333,173.6,335.1,173.7,338.2z M166.7,337.3h4.3
		c-0.2-1.3-1-2-2.1-2C167.7,335.3,166.9,336.1,166.7,337.3z"/>
	<path class="st3" d="M187.8,334.3v-5.8h2.6v14.5h-2.6V342c-0.6,0.8-1.6,1.3-2.9,1.3c-2.7,0-4.7-2.2-4.7-5.1c0-2.9,2-5.1,4.7-5.1
		C186.2,333,187.1,333.6,187.8,334.3z M182.9,338.2c0,1.5,1,2.7,2.5,2.7c1.5,0,2.5-1.1,2.5-2.7c0-1.5-1-2.7-2.5-2.7
		C183.9,335.5,182.9,336.7,182.9,338.2z"/>
	<path class="st3" d="M202.2,338.2c0,0.3,0,0.7-0.1,0.9h-6.9c0.3,1.4,1.3,2,2.5,2c0.8,0,1.8-0.3,2.5-0.9l1.5,1.7
		c-1.1,1-2.5,1.5-4.2,1.5c-3,0-5.1-2-5.1-5.1s2-5.2,4.9-5.2C200.3,333,202.2,335.1,202.2,338.2z M195.3,337.3h4.3
		c-0.2-1.3-1-2-2.1-2C196.2,335.3,195.5,336.1,195.3,337.3z"/>
	<path class="st3" d="M212.9,334.9l-1.9,1.6c-0.6-0.6-1.2-1-2.1-1c-1.4,0-2.4,1.1-2.4,2.7c0,1.6,1.1,2.7,2.4,2.7
		c0.8,0,1.6-0.4,2.1-1l1.9,1.6c-0.9,1.2-2.3,1.8-3.9,1.8c-3.1,0-5.2-2.2-5.2-5.1c0-3,2.1-5.1,5.2-5.1
		C210.6,333,212,333.7,212.9,334.9z"/>
	<path class="st3" d="M217.4,343.1h-2.6v-14.5h2.6V343.1z"/>
	<path class="st3" d="M223.2,330.1c0,0.9-0.7,1.7-1.7,1.7s-1.7-0.7-1.7-1.7c0-0.9,0.7-1.7,1.7-1.7S223.2,329.2,223.2,330.1z
		 M222.8,343.1h-2.6v-9.8h2.6V343.1z"/>
	<path class="st3" d="M234.8,336.9v6.2h-2.6v-5.4c0-1.4-0.7-2.2-1.9-2.2c-1.1,0-2.1,0.7-2.1,2.2v5.4h-2.6v-9.8h2.6v1.1
		c0.7-1,1.8-1.4,2.9-1.4C233.2,333,234.8,334.6,234.8,336.9z"/>
	<path class="st3" d="M246.6,338.2c0,0.3,0,0.7-0.1,0.9h-6.9c0.3,1.4,1.3,2,2.5,2c0.8,0,1.8-0.3,2.5-0.9l1.5,1.7
		c-1.1,1-2.5,1.5-4.2,1.5c-3,0-5.1-2-5.1-5.1s2-5.2,4.9-5.2C244.6,333,246.6,335.1,246.6,338.2z M239.6,337.3h4.3
		c-0.2-1.3-1-2-2.1-2C240.6,335.3,239.8,336.1,239.6,337.3z"/>
	<path class="st3" d="M77.5,359.8h-3v7.4h-2.6v-7.4H70v-2.3h1.8v-1.2c0-2.3,1.2-3.8,3.5-3.8c1.3,0,2.3,0.4,3,0.9l-1,2
		c-0.5-0.3-1.1-0.5-1.7-0.5c-0.8,0-1.1,0.5-1.1,1.4v1.2h3V359.8z"/>
	<path class="st3" d="M89.5,362.4c0,2.9-2.2,5.1-5.3,5.1c-3,0-5.3-2.2-5.3-5.1c0-2.9,2.2-5.1,5.3-5.1
		C87.2,357.2,89.5,359.4,89.5,362.4z M81.6,362.4c0,1.6,1.1,2.7,2.6,2.7c1.5,0,2.6-1.1,2.6-2.7c0-1.6-1.1-2.7-2.6-2.7
		C82.7,359.7,81.6,360.8,81.6,362.4z"/>
	<path class="st3" d="M98.3,357.4l-0.4,2.6c-0.4-0.2-1.1-0.3-1.6-0.3c-1.2,0-2.1,0.7-2.1,2.2v5.3h-2.6v-9.8h2.6v1.1
		c0.6-0.9,1.6-1.3,2.8-1.3C97.5,357.2,97.9,357.3,98.3,357.4z"/>
	<path class="st3" d="M114.3,361v6.2h-2.6v-5.4c0-1.4-0.7-2.2-1.9-2.2c-1.1,0-2.1,0.7-2.1,2.2v5.4h-2.6v-9.8h2.6v1.1
		c0.7-1,1.8-1.4,2.9-1.4C112.7,357.2,114.3,358.8,114.3,361z"/>
	<path class="st3" d="M126.1,362.4c0,0.3,0,0.7-0.1,0.9h-6.9c0.3,1.4,1.3,2,2.5,2c0.8,0,1.8-0.3,2.5-0.9l1.5,1.7
		c-1.1,1-2.5,1.5-4.2,1.5c-3,0-5.1-2-5.1-5.1c0-3.1,2-5.2,4.9-5.2C124.1,357.2,126.1,359.3,126.1,362.4z M119.1,361.5h4.3
		c-0.2-1.3-1-2-2.1-2C120.1,359.5,119.3,360.2,119.1,361.5z"/>
	<path class="st3" d="M135.3,359.8h-3.5v3.6c0,1.2,0.6,1.7,1.5,1.7c0.6,0,1.3-0.3,1.8-0.6l1,2.1c-0.9,0.6-1.8,1-3.2,1
		c-2.4,0-3.7-1.4-3.7-3.9v-3.8h-1.9v-2.3h1.9v-2.9h2.6v2.9h3.5V359.8z"/>
	<path class="st3" d="M150.6,359.4l-4.8,5.5h4.9v2.3h-8.5v-1.9l4.9-5.5h-4.8v-2.3h8.3V359.4z"/>
	<path class="st3" d="M162.2,362.4c0,0.3,0,0.7-0.1,0.9h-6.9c0.3,1.4,1.3,2,2.5,2c0.8,0,1.8-0.3,2.5-0.9l1.5,1.7
		c-1.1,1-2.5,1.5-4.2,1.5c-3,0-5.1-2-5.1-5.1c0-3.1,2-5.2,4.9-5.2C160.2,357.2,162.1,359.3,162.2,362.4z M155.2,361.5h4.3
		c-0.2-1.3-1-2-2.1-2C156.2,359.5,155.4,360.2,155.2,361.5z"/>
	<path class="st3" d="M171,357.4l-0.4,2.6c-0.4-0.2-1.1-0.3-1.6-0.3c-1.2,0-2.1,0.7-2.1,2.2v5.3h-2.6v-9.8h2.6v1.1
		c0.6-0.9,1.6-1.3,2.8-1.3C170.2,357.2,170.6,357.3,171,357.4z"/>
	<path class="st3" d="M182.7,362.4c0,2.9-2.2,5.1-5.3,5.1c-3,0-5.3-2.2-5.3-5.1c0-2.9,2.2-5.1,5.3-5.1
		C180.5,357.2,182.7,359.4,182.7,362.4z M174.8,362.4c0,1.6,1.1,2.7,2.6,2.7c1.5,0,2.6-1.1,2.6-2.7c0-1.6-1.1-2.7-2.6-2.7
		C175.9,359.7,174.8,360.8,174.8,362.4z"/>
	<path class="st3" d="M200.1,362.4c0,2.9-2,5.1-4.7,5.1c-1.3,0-2.2-0.5-2.9-1.3v5h-2.6v-13.8h2.6v1.1c0.6-0.8,1.6-1.3,2.9-1.3
		C198,357.2,200.1,359.4,200.1,362.4z M192.3,362.4c0,1.5,1,2.7,2.5,2.7c1.6,0,2.5-1.2,2.5-2.7c0-1.5-1-2.7-2.5-2.7
		C193.4,359.7,192.3,360.8,192.3,362.4z"/>
	<path class="st3" d="M211.8,367.3h-2.6v-1.1c-0.6,0.8-1.6,1.3-2.9,1.3c-2.7,0-4.7-2.2-4.7-5.1c0-2.9,2-5.1,4.7-5.1
		c1.3,0,2.3,0.5,2.9,1.3v-1.1h2.6V367.3z M204.3,362.4c0,1.5,1,2.7,2.5,2.7c1.5,0,2.5-1.1,2.5-2.7c0-1.5-1-2.7-2.5-2.7
		C205.3,359.7,204.3,360.9,204.3,362.4z"/>
	<path class="st3" d="M221.7,359.8h-3.5v3.6c0,1.2,0.6,1.7,1.5,1.7c0.6,0,1.3-0.3,1.8-0.6l1,2.1c-0.9,0.6-1.8,1-3.2,1
		c-2.4,0-3.7-1.4-3.7-3.9v-3.8h-1.9v-2.3h1.9v-2.9h2.6v2.9h3.5V359.8z"/>
	<path class="st3" d="M226.6,358.5c0.7-1,1.7-1.3,2.8-1.3c2.2,0,3.8,1.5,3.8,3.8v6.2h-2.6v-5.4c0-1.4-0.7-2.2-1.9-2.2
		c-1.1,0-2.1,0.7-2.1,2.2v5.4H224v-14.5h2.6V358.5z"/>
	<path class="st3" d="M246.9,364.3l2.1-6.9h2.8l-3.3,9.8h-3l-2.2-6.6l-2.1,6.6h-3l-3.3-9.8h2.8l2.1,6.8l2.2-6.8h2.8L246.9,364.3z"/>
	<path class="st3" d="M263,367.3h-2.6v-1.1c-0.6,0.8-1.6,1.3-2.9,1.3c-2.7,0-4.7-2.2-4.7-5.1c0-2.9,2-5.1,4.7-5.1
		c1.3,0,2.3,0.5,2.9,1.3v-1.1h2.6V367.3z M255.4,362.4c0,1.5,1,2.7,2.5,2.7c1.5,0,2.5-1.1,2.5-2.7c0-1.5-1-2.7-2.5-2.7
		C256.4,359.7,255.4,360.9,255.4,362.4z"/>
	<path class="st3" d="M268.1,371.3h-2.9l3.4-6.1l-4.2-7.7h3l2.7,5l2.6-5h2.9L268.1,371.3z"/>
</g>
<g>
	<path class="st3" d="M434.8,343.1h-10.3V329h2.8v11.5h7.5V343.1z"/>
	<path class="st3" d="M446.1,343.1h-2.6V342c-0.6,0.8-1.6,1.3-2.9,1.3c-2.7,0-4.7-2.2-4.7-5.1c0-2.9,2-5.1,4.7-5.1
		c1.3,0,2.3,0.5,2.9,1.3v-1.1h2.6V343.1z M438.6,338.2c0,1.5,1,2.7,2.5,2.7c1.5,0,2.5-1.1,2.5-2.7c0-1.5-1-2.7-2.5-2.7
		C439.6,335.5,438.6,336.7,438.6,338.2z"/>
	<path class="st3" d="M455.9,336c-0.8-0.4-2-0.8-3.1-0.8c-1,0-1.5,0.4-1.5,0.9c0,0.6,0.7,0.7,1.6,0.8l0.9,0.1
		c2.1,0.3,3.3,1.3,3.3,2.9c0,2-1.7,3.3-4.5,3.3c-1.3,0-3.1-0.3-4.3-1.1l1-2c0.8,0.6,1.9,1,3.3,1c1.2,0,1.8-0.3,1.8-0.9
		c0-0.5-0.5-0.7-1.6-0.9l-0.8-0.1c-2.3-0.3-3.4-1.3-3.4-3c0-2,1.6-3.2,4.1-3.2c1.6,0,2.8,0.3,4.1,0.9L455.9,336z"/>
	<path class="st3" d="M466.2,335.6h-3.5v3.6c0,1.2,0.6,1.7,1.5,1.7c0.6,0,1.3-0.3,1.8-0.6l1,2.1c-0.9,0.6-1.8,1-3.2,1
		c-2.4,0-3.7-1.4-3.7-3.9v-3.8h-1.9v-2.3h1.9v-2.9h2.6v2.9h3.5V335.6z"/>
	<path class="st3" d="M478.7,343.1H476v-10.5l-3.4,1.4v-2.7l6.1-2.5V343.1z"/>
	<path class="st3" d="M481,331.1c0.8-1,2.2-2.4,4.8-2.4c3,0,4.8,1.9,4.8,4.6c0,1.7-0.9,2.9-2,4.1l-3,3.1h5.4v2.6h-9.3v-2.1l5-5.1
		c0.7-0.8,1.2-1.5,1.2-2.4c0-1.2-0.9-2.1-2.2-2.1c-1.3,0-2.1,0.7-2.9,1.6L481,331.1z"/>
	<path class="st3" d="M513.9,336.9v6.2h-2.6v-5.4c0-1.4-0.7-2.2-1.9-2.2c-1.1,0-2.1,0.7-2.1,2.2v5.4h-2.6v-5.4
		c0-1.4-0.7-2.2-1.9-2.2c-1.1,0-2.1,0.7-2.1,2.2v5.4h-2.6v-9.8h2.6v1.1c0.7-1,1.8-1.4,2.9-1.4c1.4,0,2.6,0.6,3.2,1.7
		c0.8-1.2,2-1.7,3.3-1.7C512.3,333,513.9,334.6,513.9,336.9z"/>
	<path class="st3" d="M526.5,338.2c0,2.9-2.2,5.1-5.3,5.1c-3,0-5.3-2.2-5.3-5.1c0-2.9,2.2-5.1,5.3-5.1
		C524.3,333,526.5,335.2,526.5,338.2z M518.7,338.2c0,1.6,1.1,2.7,2.6,2.7c1.5,0,2.6-1.1,2.6-2.7c0-1.6-1.1-2.7-2.6-2.7
		C519.8,335.5,518.7,336.6,518.7,338.2z"/>
	<path class="st3" d="M537.9,336.9v6.2h-2.6v-5.4c0-1.4-0.7-2.2-1.9-2.2c-1.1,0-2.1,0.7-2.1,2.2v5.4h-2.6v-9.8h2.6v1.1
		c0.7-1,1.8-1.4,2.9-1.4C536.3,333,537.9,334.6,537.9,336.9z"/>
	<path class="st3" d="M547.7,335.6h-3.5v3.6c0,1.2,0.6,1.7,1.5,1.7c0.6,0,1.3-0.3,1.8-0.6l1,2.1c-0.9,0.6-1.8,1-3.2,1
		c-2.4,0-3.7-1.4-3.7-3.9v-3.8h-1.9v-2.3h1.9v-2.9h2.6v2.9h3.5V335.6z"/>
	<path class="st3" d="M552.6,334.4c0.7-1,1.7-1.3,2.8-1.3c2.2,0,3.8,1.5,3.8,3.8v6.2h-2.6v-5.4c0-1.4-0.7-2.2-1.9-2.2
		c-1.1,0-2.1,0.7-2.1,2.2v5.4H550v-14.5h2.6V334.4z"/>
	<path class="st3" d="M568.9,336c-0.8-0.4-2-0.8-3.1-0.8c-1,0-1.5,0.4-1.5,0.9c0,0.6,0.7,0.7,1.6,0.8l0.9,0.1
		c2.1,0.3,3.3,1.3,3.3,2.9c0,2-1.7,3.3-4.5,3.3c-1.3,0-3.1-0.3-4.3-1.1l1-2c0.8,0.6,1.9,1,3.3,1c1.2,0,1.8-0.3,1.8-0.9
		c0-0.5-0.5-0.7-1.6-0.9l-0.8-0.1c-2.3-0.3-3.4-1.3-3.4-3c0-2,1.6-3.2,4.1-3.2c1.6,0,2.8,0.3,4.1,0.9L568.9,336z"/>
	<path class="st3" d="M453.7,355c-2.6,1.2-4,3.7-4,6.5c0,2.8,1.4,5.3,4,6.5l-0.8,2.3c-3.5-1.4-5.9-4.7-5.9-8.9
		c0-4.2,2.4-7.5,5.9-8.9L453.7,355z"/>
	<path class="st3" d="M466.5,367.3H456v-14.1h10.5v2.6h-7.7v3.1h7.3v2.6h-7.3v3.2h7.7V367.3z"/>
	<path class="st3" d="M476.2,360.2c-0.8-0.4-2-0.8-3.1-0.8c-1,0-1.5,0.4-1.5,0.9c0,0.6,0.7,0.7,1.6,0.8l0.9,0.1
		c2.1,0.3,3.3,1.3,3.3,2.9c0,2-1.7,3.3-4.5,3.3c-1.3,0-3.1-0.3-4.3-1.1l1-2c0.8,0.6,1.9,1,3.3,1c1.2,0,1.8-0.3,1.8-0.9
		c0-0.5-0.5-0.7-1.6-0.9l-0.8-0.1c-2.3-0.3-3.4-1.3-3.4-3c0-2,1.6-3.2,4.1-3.2c1.6,0,2.8,0.3,4.1,0.9L476.2,360.2z"/>
	<path class="st3" d="M486.5,359.8h-3.5v3.6c0,1.2,0.6,1.7,1.5,1.7c0.6,0,1.3-0.3,1.8-0.6l1,2.1c-0.9,0.6-1.8,1-3.2,1
		c-2.4,0-3.7-1.4-3.7-3.9v-3.8h-1.9v-2.3h1.9v-2.9h2.6v2.9h3.5V359.8z"/>
	<path class="st3" d="M491.8,354.3c0,0.9-0.7,1.7-1.7,1.7c-0.9,0-1.7-0.7-1.7-1.7c0-0.9,0.7-1.7,1.7-1.7
		C491,352.6,491.8,353.3,491.8,354.3z M491.4,367.3h-2.6v-9.8h2.6V367.3z"/>
	<path class="st3" d="M510,361v6.2h-2.6v-5.4c0-1.4-0.7-2.2-1.9-2.2c-1.1,0-2.1,0.7-2.1,2.2v5.4h-2.6v-5.4c0-1.4-0.7-2.2-1.9-2.2
		c-1.1,0-2.1,0.7-2.1,2.2v5.4h-2.6v-9.8h2.6v1.1c0.7-1,1.8-1.4,2.9-1.4c1.4,0,2.6,0.6,3.2,1.7c0.8-1.2,2-1.7,3.3-1.7
		C508.4,357.2,510,358.8,510,361z"/>
	<path class="st3" d="M522.3,367.3h-2.6v-1.1c-0.6,0.8-1.6,1.3-2.9,1.3c-2.7,0-4.7-2.2-4.7-5.1c0-2.9,2-5.1,4.7-5.1
		c1.3,0,2.3,0.5,2.9,1.3v-1.1h2.6V367.3z M514.8,362.4c0,1.5,1,2.7,2.5,2.7c1.5,0,2.5-1.1,2.5-2.7c0-1.5-1-2.7-2.5-2.7
		C515.7,359.7,514.8,360.9,514.8,362.4z"/>
	<path class="st3" d="M532.1,359.8h-3.5v3.6c0,1.2,0.6,1.7,1.5,1.7c0.6,0,1.3-0.3,1.8-0.6l1,2.1c-0.9,0.6-1.8,1-3.2,1
		c-2.4,0-3.7-1.4-3.7-3.9v-3.8h-1.9v-2.3h1.9v-2.9h2.6v2.9h3.5V359.8z"/>
	<path class="st3" d="M543.5,362.4c0,0.3,0,0.7-0.1,0.9h-6.9c0.3,1.4,1.3,2,2.5,2c0.8,0,1.8-0.3,2.5-0.9l1.5,1.7
		c-1.1,1-2.5,1.5-4.2,1.5c-3,0-5.1-2-5.1-5.1c0-3.1,2-5.2,4.9-5.2C541.6,357.2,543.5,359.3,543.5,362.4z M536.6,361.5h4.3
		c-0.2-1.3-1-2-2.1-2C537.5,359.5,536.8,360.2,536.6,361.5z"/>
	<path class="st3" d="M544.9,368.1c2.6-1.2,4-3.7,4-6.5c0-2.8-1.4-5.3-4-6.5l0.8-2.3c3.5,1.4,5.9,4.7,5.9,8.9c0,4.2-2.4,7.5-5.9,8.9
		L544.9,368.1z"/>
</g>
<g>
	<path class="st3" d="M770,343.1h-2.6l-7.2-9.4l0,9.4h-2.8V329h2.6l7.2,9.4V329h2.8V343.1z"/>
	<path class="st3" d="M782,338.2c0,0.3,0,0.7-0.1,0.9H775c0.3,1.4,1.3,2,2.5,2c0.8,0,1.8-0.3,2.5-0.9l1.5,1.7
		c-1.1,1-2.5,1.5-4.2,1.5c-3,0-5.1-2-5.1-5.1s2-5.2,4.9-5.2C780.1,333,782,335.1,782,338.2z M775.1,337.3h4.3c-0.2-1.3-1-2-2.1-2
		C776,335.3,775.3,336.1,775.1,337.3z"/>
	<path class="st3" d="M790,338.1l3.6,5h-3.1l-2.2-3.1l-2.2,3.1h-3l3.6-5l-3.5-4.8h3.1l2.1,3l2.1-3h3L790,338.1z"/>
	<path class="st3" d="M802.3,335.6h-3.5v3.6c0,1.2,0.6,1.7,1.5,1.7c0.6,0,1.3-0.3,1.8-0.6l1,2.1c-0.9,0.6-1.8,1-3.2,1
		c-2.4,0-3.7-1.4-3.7-3.9v-3.8h-1.9v-2.3h1.9v-2.9h2.6v2.9h3.5V335.6z"/>
	<path class="st3" d="M814.9,343.1h-2.7v-10.5l-3.4,1.4v-2.7l6.1-2.5V343.1z"/>
	<path class="st3" d="M817.2,331.1c0.8-1,2.2-2.4,4.8-2.4c3,0,4.8,1.9,4.8,4.6c0,1.7-0.9,2.9-2,4.1l-3,3.1h5.4v2.6h-9.3v-2.1l5-5.1
		c0.7-0.8,1.2-1.5,1.2-2.4c0-1.2-0.9-2.1-2.2-2.1c-1.3,0-2.1,0.7-2.9,1.6L817.2,331.1z"/>
	<path class="st3" d="M850,336.9v6.2h-2.6v-5.4c0-1.4-0.7-2.2-1.9-2.2c-1.1,0-2.1,0.7-2.1,2.2v5.4h-2.6v-5.4c0-1.4-0.7-2.2-1.9-2.2
		c-1.1,0-2.1,0.7-2.1,2.2v5.4h-2.6v-9.8h2.6v1.1c0.7-1,1.8-1.4,2.9-1.4c1.4,0,2.6,0.6,3.2,1.7c0.8-1.2,2-1.7,3.3-1.7
		C848.5,333,850,334.6,850,336.9z"/>
	<path class="st3" d="M862.7,338.2c0,2.9-2.2,5.1-5.3,5.1c-3,0-5.3-2.2-5.3-5.1c0-2.9,2.2-5.1,5.3-5.1
		C860.4,333,862.7,335.2,862.7,338.2z M854.8,338.2c0,1.6,1.1,2.7,2.6,2.7c1.5,0,2.6-1.1,2.6-2.7c0-1.6-1.1-2.7-2.6-2.7
		C855.9,335.5,854.8,336.6,854.8,338.2z"/>
	<path class="st3" d="M874,336.9v6.2h-2.6v-5.4c0-1.4-0.7-2.2-1.9-2.2c-1.1,0-2.1,0.7-2.1,2.2v5.4h-2.6v-9.8h2.6v1.1
		c0.7-1,1.8-1.4,2.9-1.4C872.5,333,874,334.6,874,336.9z"/>
	<path class="st3" d="M883.8,335.6h-3.5v3.6c0,1.2,0.6,1.7,1.5,1.7c0.6,0,1.3-0.3,1.8-0.6l1,2.1c-0.9,0.6-1.8,1-3.2,1
		c-2.4,0-3.7-1.4-3.7-3.9v-3.8h-1.9v-2.3h1.9v-2.9h2.6v2.9h3.5V335.6z"/>
	<path class="st3" d="M888.8,334.4c0.7-1,1.7-1.3,2.8-1.3c2.2,0,3.8,1.5,3.8,3.8v6.2h-2.6v-5.4c0-1.4-0.7-2.2-1.9-2.2
		c-1.1,0-2.1,0.7-2.1,2.2v5.4h-2.6v-14.5h2.6V334.4z"/>
	<path class="st3" d="M905,336c-0.8-0.4-2-0.8-3.1-0.8c-1,0-1.5,0.4-1.5,0.9c0,0.6,0.7,0.7,1.6,0.8l0.9,0.1c2.1,0.3,3.3,1.3,3.3,2.9
		c0,2-1.7,3.3-4.5,3.3c-1.3,0-3.1-0.3-4.3-1.1l1-2c0.8,0.6,1.9,1,3.3,1c1.2,0,1.8-0.3,1.8-0.9c0-0.5-0.5-0.7-1.6-0.9l-0.8-0.1
		c-2.3-0.3-3.4-1.3-3.4-3c0-2,1.6-3.2,4.1-3.2c1.6,0,2.8,0.3,4.1,0.9L905,336z"/>
	<path class="st3" d="M788.2,355c-2.6,1.2-4,3.7-4,6.5c0,2.8,1.4,5.3,4,6.5l-0.8,2.3c-3.5-1.4-5.9-4.7-5.9-8.9
		c0-4.2,2.4-7.5,5.9-8.9L788.2,355z"/>
	<path class="st3" d="M801,367.3h-10.5v-14.1h10.5v2.6h-7.7v3.1h7.3v2.6h-7.3v3.2h7.7V367.3z"/>
	<path class="st3" d="M810.6,360.2c-0.8-0.4-2-0.8-3.1-0.8c-1,0-1.5,0.4-1.5,0.9c0,0.6,0.7,0.7,1.6,0.8l0.9,0.1
		c2.1,0.3,3.3,1.3,3.3,2.9c0,2-1.7,3.3-4.5,3.3c-1.3,0-3.1-0.3-4.3-1.1l1-2c0.8,0.6,1.9,1,3.3,1c1.2,0,1.8-0.3,1.8-0.9
		c0-0.5-0.5-0.7-1.6-0.9l-0.8-0.1c-2.3-0.3-3.4-1.3-3.4-3c0-2,1.6-3.2,4.1-3.2c1.6,0,2.8,0.3,4.1,0.9L810.6,360.2z"/>
	<path class="st3" d="M820.9,359.8h-3.5v3.6c0,1.2,0.6,1.7,1.5,1.7c0.6,0,1.3-0.3,1.8-0.6l1,2.1c-0.9,0.6-1.8,1-3.2,1
		c-2.4,0-3.7-1.4-3.7-3.9v-3.8h-1.9v-2.3h1.9v-2.9h2.6v2.9h3.5V359.8z"/>
	<path class="st3" d="M826.2,354.3c0,0.9-0.7,1.7-1.7,1.7s-1.7-0.7-1.7-1.7c0-0.9,0.7-1.7,1.7-1.7S826.2,353.3,826.2,354.3z
		 M825.9,367.3h-2.6v-9.8h2.6V367.3z"/>
	<path class="st3" d="M844.5,361v6.2h-2.6v-5.4c0-1.4-0.7-2.2-1.9-2.2c-1.1,0-2.1,0.7-2.1,2.2v5.4h-2.6v-5.4c0-1.4-0.7-2.2-1.9-2.2
		c-1.1,0-2.1,0.7-2.1,2.2v5.4h-2.6v-9.8h2.6v1.1c0.7-1,1.8-1.4,2.9-1.4c1.4,0,2.6,0.6,3.2,1.7c0.8-1.2,2-1.7,3.3-1.7
		C842.9,357.2,844.5,358.8,844.5,361z"/>
	<path class="st3" d="M856.8,367.3h-2.6v-1.1c-0.6,0.8-1.6,1.3-2.9,1.3c-2.7,0-4.7-2.2-4.7-5.1c0-2.9,2-5.1,4.7-5.1
		c1.3,0,2.3,0.5,2.9,1.3v-1.1h2.6V367.3z M849.2,362.4c0,1.5,1,2.7,2.5,2.7c1.5,0,2.5-1.1,2.5-2.7c0-1.5-1-2.7-2.5-2.7
		C850.2,359.7,849.2,360.9,849.2,362.4z"/>
	<path class="st3" d="M866.6,359.8h-3.5v3.6c0,1.2,0.6,1.7,1.5,1.7c0.6,0,1.3-0.3,1.8-0.6l1,2.1c-0.9,0.6-1.8,1-3.2,1
		c-2.4,0-3.7-1.4-3.7-3.9v-3.8h-1.9v-2.3h1.9v-2.9h2.6v2.9h3.5V359.8z"/>
	<path class="st3" d="M878,362.4c0,0.3,0,0.7-0.1,0.9H871c0.3,1.4,1.3,2,2.5,2c0.8,0,1.8-0.3,2.5-0.9l1.5,1.7
		c-1.1,1-2.5,1.5-4.2,1.5c-3,0-5.1-2-5.1-5.1c0-3.1,2-5.2,4.9-5.2C876.1,357.2,878,359.3,878,362.4z M871,361.5h4.3
		c-0.2-1.3-1-2-2.1-2C872,359.5,871.3,360.2,871,361.5z"/>
	<path class="st3" d="M879.4,368.1c2.6-1.2,4-3.7,4-6.5c0-2.8-1.4-5.3-4-6.5l0.8-2.3c3.5,1.4,5.9,4.7,5.9,8.9c0,4.2-2.4,7.5-5.9,8.9
		L879.4,368.1z"/>
</g>
<rect x="456.9" y="113.6" class="st4" width="89" height="144.4"/>
<rect x="789.3" y="41.4" class="st4" width="89" height="72.2"/>
<g>
	<line class="st5" x1="2.8" y1="113.6" x2="1000" y2="113.6"/>
</g>
</svg>
