<?xml version="1.0" encoding="utf-8"?>
<!-- Generator: Adobe Illustrator 25.4.1, SVG Export Plug-In . SVG Version: 6.00 Build 0)  -->
<svg version="1.1" id="Layer_1" xmlns="http://www.w3.org/2000/svg" xmlns:xlink="http://www.w3.org/1999/xlink" x="0px" y="0px"
	 viewBox="0 0 250 250" style="enable-background:new 0 0 250 250;" xml:space="preserve">
<style type="text/css">
	.st0{fill:#ED5A35;}
	.st1{fill:#404041;}
</style>
<polygon class="st0" points="101.9,181.4 140.2,173.3 101.9,173.3 "/>
<polygon class="st0" points="104.4,196.2 137.7,189.2 104.4,189.2 "/>
<rect x="103.6" y="162.8" class="st0" width="15.7" height="9.6"/>
<path class="st0" d="M131.9,156.9h-7.2h-7.1h-7.2H103c-0.7-5.1-2-9.2-4.2-12.1c-15.6-20.5-16.1-39.9-16.1-40
	c0-21.7,17.2-39.4,38.4-39.4s38.4,17.7,38.4,39.4c0,0.2-0.6,19.5-16.2,40.1c-2.1,2.9-3.5,7-4.2,12.1H131.9z"/>
<g>
	<path class="st1" d="M173.7,102.7c0-27.1-22-49.1-49.1-49.1c-27.1,0-49.1,22-49.1,49.1c0,0.2,0.5,23,18.9,46.6
		c1.2,1.7,2.2,4.3,2.7,7.7h-1.8v8.1h4.8v5.3h-4.8v8.1l58.5-8.1h-45.6v-5.3h45.6v-8.1H152c0.6-3.3,1.5-6,2.7-7.6
		C173.2,125.7,173.7,102.9,173.7,102.7z M136.1,156.9l4.8-45.6l0-0.9l-12.6,46.5h-7.5l-12.6-46.5l0,0.9l4.8,45.6h-7.9
		c-0.7-5.3-2.2-9.6-4.4-12.6c-16.6-21.4-17.2-41.4-17.2-41.6c0-22.6,18.4-40.9,40.9-40.9s40.9,18.4,40.9,40.9
		c0,0.2-0.6,20.3-17.2,41.7c-2.3,3-3.7,7.3-4.5,12.6H136.1z"/>
	<polygon class="st1" points="105.4,192 143.7,183.9 105.4,183.9 	"/>
</g>
<polygon class="st1" points="105.4,192 143.7,183.9 105.4,183.9 "/>
</svg>
