<?xml version="1.0" encoding="utf-8"?>
<!-- Generator: Adobe Illustrator 23.1.1, SVG Export Plug-In . SVG Version: 6.00 Build 0)  -->
<svg version="1.1" id="Layer_1" xmlns="http://www.w3.org/2000/svg" xmlns:xlink="http://www.w3.org/1999/xlink" x="0px" y="0px"
	 viewBox="0 0 115 79.1" style="enable-background:new 0 0 115 79.1;" xml:space="preserve">
<style type="text/css">
	.st0{display:none;}
	.st1{display:inline;}
	.st2{fill:#1CBDEF;}
	.st3{fill:#213332;}
	.st4{clip-path:url(#SVGID_2_);fill:#15BEF0;}
	.st5{clip-path:url(#SVGID_4_);fill:#213232;}
	.st6{clip-path:url(#SVGID_6_);fill:#FFFFFF;}
	.st7{display:inline;fill:#213232;}
	.st8{display:inline;fill:#15BEF0;}
	.st9{font-family:'MarkOT-Bold';}
	.st10{font-size:30.3143px;}
	.st11{fill:#7C4496;}
	.st12{fill:none;stroke:#213332;stroke-width:3.1868;stroke-miterlimit:10;}
</style>
<g class="st0">
	<g class="st1">
		<path class="st2" d="M61.1,7.4l0.5,1.4h12.7l-10.2,7.4l3.9,12l-10.2-7.4l-10.2,7.4C53,15.8,61.1,7.4,61.1,7.4z"/>
		<path class="st2" d="M80.5,31.5l0.5,1.4h12.7l-10.2,7.4l3.9,12l-10.2-7.4L67,52.3C72.5,39.9,80.5,31.5,80.5,31.5z"/>
		<path class="st2" d="M99.8,56.5l0.5,1.4H113l-10.2,7.4l3.9,12l-10.2-7.4l-10.2,7.4C91.7,64.9,99.8,56.5,99.8,56.5z"/>
		<path class="st2" d="M61.1,56.5l0.5,1.4h12.7L64,65.4l3.9,12L57.7,70l-10.2,7.4C53,64.9,61.1,56.5,61.1,56.5z"/>
		<path class="st2" d="M22,56.5l0.5,1.4h12.7L25,65.3l3.9,12l-10.2-7.4L8.5,77.3C14,64.9,22,56.5,22,56.5z"/>
		<path class="st2" d="M41.5,31.5l0.5,1.4h12.7l-10.2,7.4l3.9,12l-10.2-7.4L28,52.3C33.5,39.9,41.5,31.5,41.5,31.5z"/>
		<path class="st3" d="M48.7,52.9l-10.6-7.7l-10.6,7.7l4.1-12.5L21,32.7h13l4.1-12.5l4.1,12.5h13.1l-10.6,7.7L48.7,52.9z M40.5,34.7
			C38.7,30.5,38,20.8,38,20.8s-0.3,9.8-2.1,14c-5.6,0.6-14-1.7-14-1.7s10.3,3.4,13.4,6.2C34,44,28.1,52.1,28.1,52.1s6.2-7.6,10-10.7
			c3.9,3.1,10,10.7,10,10.7s-5.4-8.4-7.2-12.8c3.2-2.8,13.4-6.2,13.4-6.2S45.5,35.1,40.5,34.7z"/>
		<path class="st3" d="M87.7,52.9l-10.6-7.7l-10.6,7.7l4.1-12.5L60,32.8h13.1l4.1-12.5l4.1,12.5h13.1l-10.6,7.7L87.7,52.9z
			 M79.6,34.7c-1.8-4.2-2.5-13.9-2.5-13.9s-0.3,9.8-2.1,14c-5.6,0.6-14-1.7-14-1.7s10.3,3.4,13.4,6.2C73,44,67.2,52.1,67.2,52.1
			s6.2-7.6,10-10.7c3.9,3.1,10,10.7,10,10.7s-5.4-8.4-7.2-12.8c3.2-2.8,13.4-6.2,13.4-6.2S84.6,35.1,79.6,34.7z"/>
		<path class="st3" d="M29.2,78l-10.6-7.7L8,78l4.1-12.5L1.4,57.8h13.1l4.1-12.5l4.1,12.5h13.1l-10.6,7.7L29.2,78z M21,59.8
			c-1.8-4.2-2.5-13.9-2.5-13.9s-0.3,9.8-2.1,14c-5.6,0.5-14-1.8-14-1.8s10.3,3.4,13.4,6.2C14.5,69,8.6,77.1,8.6,77.1
			s6.2-7.6,10-10.7c3.9,3.1,10,10.7,10,10.7s-5.4-8.4-7.2-12.8c3.2-2.8,13.4-6.2,13.4-6.2S26,60.1,21,59.8z"/>
		<path class="st3" d="M68.3,78l-10.6-7.7L47,78l4.1-12.5l-10.6-7.7h13.1l4.1-12.5l4.1,12.5h13.1l-10.6,7.7L68.3,78z M60.1,59.8
			c-1.8-4.2-2.5-13.9-2.5-13.9s-0.3,9.8-2.1,14c-5.6,0.5-14-1.8-14-1.8s10.3,3.4,13.4,6.2c-1.3,4.7-7.2,12.8-7.2,12.8
			s6.2-7.6,10-10.7c3.9,3.1,10,10.7,10,10.7s-5.4-8.4-7.2-12.8c3.2-2.8,13.4-6.2,13.4-6.2S65.1,60.1,60.1,59.8z"/>
		<path class="st3" d="M68.3,28.8l-10.6-7.7L47,28.8l4.1-12.5L40.5,8.6h13.1l4.1-12.5l4.1,12.5h13.1l-10.6,7.7L68.3,28.8z
			 M60.1,10.6c-1.8-4.2-2.5-13.9-2.5-13.9s-0.3,9.8-2.1,14C49.8,11.3,41.4,9,41.4,9s10.3,3.4,13.4,6.2C53.5,19.9,47.6,28,47.6,28
			s6.2-7.6,10-10.7c3.9,3.1,10,10.7,10,10.7s-5.4-8.4-7.2-12.8C63.6,12.4,73.8,9,73.8,9S65.1,11,60.1,10.6z"/>
		<path class="st3" d="M107,78l-10.6-7.7L85.8,78l4.1-12.5l-10.6-7.7h13.1l4.1-12.5l4.1,12.5h13.1l-10.6,7.7L107,78z M98.9,59.8
			c-1.8-4.2-2.5-13.9-2.5-13.9s-0.3,9.8-2.1,14c-5.6,0.5-14-1.8-14-1.8s10.3,3.4,13.4,6.2c-1.3,4.7-7.2,12.8-7.2,12.8
			s6.2-7.6,10-10.7c3.9,3.1,10,10.7,10,10.7s-5.4-8.4-7.2-12.8c3.2-2.8,13.4-6.2,13.4-6.2S103.9,60.1,98.9,59.8z"/>
	</g>
</g>
<g class="st0">
	<g class="st1">
		<g>
			<g>
				<defs>
					<rect id="SVGID_1_" x="5.5" y="11.6" width="104.7" height="66.4"/>
				</defs>
				<clipPath id="SVGID_2_">
					<use xlink:href="#SVGID_1_"  style="overflow:visible;"/>
				</clipPath>
				<path class="st4" d="M7.1,59.2l0.5-45.6h100.9l-1.3,35.3C88.4,58.9,7.1,59.2,7.1,59.2"/>
			</g>
		</g>
		<g>
			<g>
				<defs>
					<rect id="SVGID_3_" x="5.5" y="11.6" width="104.7" height="66.4"/>
				</defs>
				<clipPath id="SVGID_4_">
					<use xlink:href="#SVGID_3_"  style="overflow:visible;"/>
				</clipPath>
				<path class="st5" d="M110.3,63.2H5.6V11.6h104.7C110.3,11.6,110.3,63.2,110.3,63.2z M10,63.2c44.1-2.2,82.7-3.7,96-10.1
					L105.9,16H10V63.2z"/>
			</g>
		</g>
		<g>
			<g>
				<defs>
					<rect id="SVGID_5_" x="5.5" y="11.6" width="104.7" height="66.4"/>
				</defs>
				<clipPath id="SVGID_6_">
					<use xlink:href="#SVGID_5_"  style="overflow:visible;"/>
				</clipPath>
				<path class="st6" d="M76.7,37.4c0,9.6-7.7,17.3-17.3,17.3S42.1,47,42.1,37.4s7.7-17.3,17.3-17.3C68.9,20.1,76.7,27.8,76.7,37.4"
					/>
			</g>
		</g>
	</g>
	<polygon class="st7" points="5.6,70.6 110.3,70.6 110.3,66.1 	"/>
	<polygon class="st7" points="5.6,78 110.3,77.9 110.3,73.5 	"/>
	<text transform="matrix(1 -1.981392e-04 1.981392e-04 1 48.8388 48.3956)" class="st8 st9 st10">$</text>
</g>
<g id="Layer_3" class="st0">
	<g class="st1">
		<path class="st2" d="M105,8H13c44.2,13.7,92,13.2,92,13.2V8z"/>
		<ellipse class="st2" cx="49.7" cy="71.1" rx="5.8" ry="4.4"/>
		<ellipse class="st2" cx="17.8" cy="71.1" rx="5.8" ry="4.4"/>
		<ellipse class="st2" cx="65.8" cy="71.1" rx="5.8" ry="4.4"/>
		<ellipse class="st2" cx="81.8" cy="71.1" rx="5.8" ry="4.4"/>
		<ellipse class="st2" cx="97.9" cy="71.1" rx="5.8" ry="4.4"/>
		<path class="st3" d="M52.7,63.4V9.9c-3.3,41.5-5.8,53.5-5.8,53.5H52.7z"/>
		<g>
			<path class="st3" d="M49.7,65c2.3,0,4.2,1.9,4.2,4.2s-1.9,4.2-4.2,4.2s-4.2-1.9-4.2-4.2S47.4,65,49.7,65 M49.7,62.2
				c-3.9,0-7,3.1-7,7s3.1,7,7,7s7-3.1,7-7C56.8,65.3,53.6,62.2,49.7,62.2L49.7,62.2z"/>
		</g>
		<g>
			<path class="st3" d="M17.8,65c2.3,0,4.2,1.9,4.2,4.2s-1.9,4.2-4.2,4.2s-4.2-1.9-4.2-4.2S15.5,65,17.8,65 M17.8,62.2
				c-3.9,0-7,3.1-7,7s3.1,7,7,7s7-3.1,7-7C24.9,65.3,21.7,62.2,17.8,62.2L17.8,62.2z"/>
		</g>
		<g>
			<path class="st3" d="M65.8,65c2.3,0,4.2,1.9,4.2,4.2s-1.9,4.2-4.2,4.2s-4.2-1.9-4.2-4.2S63.4,65,65.8,65 M65.8,62.2
				c-3.9,0-7,3.1-7,7s3.1,7,7,7s7-3.1,7-7S69.7,62.2,65.8,62.2L65.8,62.2z"/>
		</g>
		<g>
			<path class="st3" d="M81.8,65c2.3,0,4.2,1.9,4.2,4.2s-1.9,4.2-4.2,4.2c-2.3,0-4.2-1.9-4.2-4.2S79.5,65,81.8,65 M81.8,62.2
				c-3.9,0-7,3.1-7,7s3.1,7,7,7s7-3.1,7-7S85.7,62.2,81.8,62.2L81.8,62.2z"/>
		</g>
		<g>
			<path class="st3" d="M97.9,65c2.3,0,4.2,1.9,4.2,4.2s-1.9,4.2-4.2,4.2s-4.2-1.9-4.2-4.2S95.5,65,97.9,65 M97.9,62.2
				c-3.9,0-7,3.1-7,7s3.1,7,7,7s7-3.1,7-7S101.7,62.2,97.9,62.2L97.9,62.2z"/>
		</g>
		<path class="st3" d="M105,8H13c71.4,5.2,92,13.2,92,13.2V8z"/>
		<path class="st3" d="M68.6,63.4V11.2c-3.3,40.5-5.8,52.2-5.8,52.2H68.6z"/>
		<path class="st3" d="M22.3,64.3l16-55.2C22.8,51,16.7,62.7,16.7,62.7L22.3,64.3z"/>
		<path class="st3" d="M84.7,63.4V13.2c-3.3,38.9-5.8,50.2-5.8,50.2H84.7z"/>
		<path class="st3" d="M100.5,63.4V15.8c-3.3,37-5.8,47.6-5.8,47.6H100.5z"/>
	</g>
</g>
<g id="Layer_4" class="st0">
	<g class="st1">
		<path class="st2" d="M22,16.3c0,13,0,35,0,48.1v7.1h26.7V3.2C34.5,3.2,22,16.3,22,16.3z"/>
		<path class="st2" d="M64.6,17.2c0,13,0,35,0,48.1v7.1h26.7v-55C77.1,17.4,64.6,17.2,64.6,17.2z"/>
		<path class="st3" d="M103.7,70.5H5.8c38.8,6.3,97.9,7.6,97.9,7.6L103.7,70.5z"/>
		<path class="st3" d="M61.8-6.6l-2.4,9h-8.2h-3.9v3.9v60.5l-23.9,3.4V-4.2L61.8-6.6z M63.3-8.1H19.5v78.8h31.7V6.3h12.1L63.3-8.1
			L63.3-8.1z"/>
		<path class="st3" d="M33,30.4v10.2h-5.2v-7C31,30.5,33,30.4,33,30.4z"/>
		<path class="st3" d="M33,17.3v10.2h-5.2v-7C31,17.4,33,17.3,33,17.3z"/>
		<path class="st3" d="M33,3.8V14h-5.2V7C31,3.9,33,3.8,33,3.8z"/>
		<path class="st3" d="M80.4,57.4v13.3h15.5V9.3h-41v61.4h15.5v-8.8C74.7,57.7,80.4,57.4,80.4,57.4z M67.2,53.2H62v-7h5.2V53.2z
			 M67.2,40.4H62v-7h5.2V40.4z M67.2,27.6H62v-7h5.2V27.6z M78,53.2h-5.2v-7H78V53.2z M78,40.4h-5.2v-7H78V40.4z M78,27.6h-5.2v-7
			H78V27.6z M88.8,53.2h-5.2v-7h5.2V53.2z M88.8,40.4h-5.2v-7h5.2V40.4z M88.8,27.6h-5.2v-7h5.2V27.6z"/>
	</g>
</g>
<g id="Layer_5">
	<g>
		<path class="st11" d="M74.4,41.2c0,9.5,0,19,0,28.4v5.2h22.1V25.1C84.7,29,74.4,41.2,74.4,41.2z"/>
		<path class="st11" d="M12.9,61.3c0,3.1,0,6.2,0,9.4v4.1h20.5V41.7C20.5,48.3,12.9,61.3,12.9,61.3z"/>
		<path class="st11" d="M65,49.7v25.1H43.3v-25c3.6,2.6,7.2,5.3,10.8,8c3.4-2.7,6.9-5.5,10.5-8.3C64.8,49.6,64.9,49.6,65,49.7"/>
		<path class="st3" d="M35.3,10.7c6.2,6.3,12.3,12.6,18.3,18.7C81.2,5.2,99.4,2.5,99.4,2.5C81.8,7.9,53.9,38.6,53.9,38.6
			c-6.2-6.4-12.4-12.7-18.7-19C24.7,30.2,12.1,38.4,5.6,53.8c4.9-19.7,19-32.4,29.2-42.6C34.9,11.1,35,11,35.3,10.7"/>
		<path class="st12" d="M66.6,37.4"/>
		<g>
			<path class="st3" d="M94.8,16.5v55.1H76v-3.4v-4.5c0-10.2,0-20.4,0-30.6C78.2,30.4,85.8,21.4,94.8,16.5 M97.9,11.6
				C84.5,16.5,72.8,32,72.8,32c0,12.1,0,24.1,0,36.2v6.6h25.1V11.6L97.9,11.6z"/>
		</g>
		<g>
			<path class="st3" d="M31.9,36.8v34.8H13.2v-2.3v-2.5c0-3,0-6,0-9.1C14.8,55,21.5,44.3,31.9,36.8 M35.1,31
				C19.3,39.7,10,56.9,10,56.9c0,4.1,0,8.3,0,12.4v5.5h25.1V31L35.1,31z"/>
		</g>
		<g>
			<path class="st3" d="M63.4,44.6v27H44.7V45c2.4,2.3,4.7,4.5,7.1,6.8l2.3,2.2l2.2-2.2L63.4,44.6 M66.6,36.8L54.1,49.5
				c-4.3-4.1-8.4-8-12.5-12v37.3h25V36.8L66.6,36.8z"/>
		</g>
	</g>
</g>
</svg>
