<?xml version="1.0" encoding="utf-8"?>
<!-- Generator: Adobe Illustrator 23.1.1, SVG Export Plug-In . SVG Version: 6.00 Build 0)  -->
<svg version="1.1" id="Layer_1" xmlns="http://www.w3.org/2000/svg" xmlns:xlink="http://www.w3.org/1999/xlink" x="0px" y="0px"
	 viewBox="0 0 115 70.1" style="enable-background:new 0 0 115 70.1;" xml:space="preserve">
<style type="text/css">
	.st0{display:none;}
	.st1{display:inline;}
	.st2{fill:#1CBDEF;}
	.st3{fill:#213332;}
	.st4{clip-path:url(#SVGID_2_);fill:#7C4496;}
	.st5{clip-path:url(#SVGID_4_);fill:#213232;}
	.st6{clip-path:url(#SVGID_6_);fill:#FFFFFF;}
	.st7{fill:#213232;}
	.st8{enable-background:new    ;}
	.st9{fill:#7C4496;}
</style>
<g class="st0">
	<g class="st1">
		<path class="st2" d="M61.1-1.6l0.5,1.4h12.7L64.1,7.2l3.9,12l-10.2-7.4l-10.2,7.4C53,6.8,61.1-1.6,61.1-1.6z"/>
		<path class="st2" d="M80.5,22.5l0.5,1.4h12.7l-10.2,7.4l3.9,12l-10.2-7.4L67,43.3C72.5,30.9,80.5,22.5,80.5,22.5z"/>
		<path class="st2" d="M99.8,47.5l0.5,1.4H113l-10.2,7.4l3.9,12l-10.2-7.4l-10.2,7.4C91.7,55.9,99.8,47.5,99.8,47.5z"/>
		<path class="st2" d="M61.1,47.5l0.5,1.4h12.7L64,56.4l3.9,12L57.7,61l-10.2,7.4C53,55.9,61.1,47.5,61.1,47.5z"/>
		<path class="st2" d="M22,47.5l0.5,1.4h12.7L25,56.3l3.9,12l-10.2-7.4L8.5,68.3C14,55.9,22,47.5,22,47.5z"/>
		<path class="st2" d="M41.5,22.5l0.5,1.4h12.7l-10.2,7.4l3.9,12l-10.2-7.4L28,43.3C33.5,30.9,41.5,22.5,41.5,22.5z"/>
		<path class="st3" d="M48.7,43.9l-10.6-7.7l-10.6,7.7l4.1-12.5L21,23.7h13l4.1-12.5l4.1,12.5h13.1l-10.6,7.7L48.7,43.9z M40.5,25.7
			C38.7,21.5,38,11.8,38,11.8s-0.3,9.8-2.1,14c-5.6,0.6-14-1.7-14-1.7s10.3,3.4,13.4,6.2C34,35,28.1,43.1,28.1,43.1s6.2-7.6,10-10.7
			c3.9,3.1,10,10.7,10,10.7s-5.4-8.4-7.2-12.8c3.2-2.8,13.4-6.2,13.4-6.2S45.5,26.1,40.5,25.7z"/>
		<path class="st3" d="M87.7,43.9l-10.6-7.7l-10.6,7.7l4.1-12.5L60,23.8h13.1l4.1-12.5l4.1,12.5h13.1l-10.6,7.7L87.7,43.9z
			 M79.6,25.7c-1.8-4.2-2.5-13.9-2.5-13.9s-0.3,9.8-2.1,14c-5.6,0.6-14-1.7-14-1.7s10.3,3.4,13.4,6.2C73,35,67.2,43.1,67.2,43.1
			s6.2-7.6,10-10.7c3.9,3.1,10,10.7,10,10.7s-5.4-8.4-7.2-12.8c3.2-2.8,13.4-6.2,13.4-6.2S84.6,26.1,79.6,25.7z"/>
		<path class="st3" d="M29.2,69l-10.6-7.7L8,69l4.1-12.5L1.4,48.8h13.1l4.1-12.5l4.1,12.5h13.1l-10.6,7.7L29.2,69z M21,50.8
			c-1.8-4.2-2.5-13.9-2.5-13.9s-0.3,9.8-2.1,14c-5.6,0.5-14-1.8-14-1.8s10.3,3.4,13.4,6.2C14.5,60,8.6,68.1,8.6,68.1
			s6.2-7.6,10-10.7c3.9,3.1,10,10.7,10,10.7s-5.4-8.4-7.2-12.8c3.2-2.8,13.4-6.2,13.4-6.2S26,51.1,21,50.8z"/>
		<path class="st3" d="M68.3,69l-10.6-7.7L47,69l4.1-12.5l-10.6-7.7h13.1l4.1-12.5l4.1,12.5h13.1l-10.6,7.7L68.3,69z M60.1,50.8
			c-1.8-4.2-2.5-13.9-2.5-13.9s-0.3,9.8-2.1,14c-5.6,0.5-14-1.8-14-1.8s10.3,3.4,13.4,6.2c-1.3,4.7-7.2,12.8-7.2,12.8
			s6.2-7.6,10-10.7c3.9,3.1,10,10.7,10,10.7s-5.4-8.4-7.2-12.8c3.2-2.8,13.4-6.2,13.4-6.2S65.1,51.1,60.1,50.8z"/>
		<path class="st3" d="M68.3,19.8l-10.6-7.7L47,19.8l4.1-12.5L40.5-0.4h13.1l4.1-12.5l4.1,12.5h13.1L64.3,7.3L68.3,19.8z M60.1,1.6
			c-1.8-4.2-2.5-13.9-2.5-13.9s-0.3,9.8-2.1,14C49.8,2.3,41.4,0,41.4,0s10.3,3.4,13.4,6.2C53.5,10.9,47.6,19,47.6,19
			s6.2-7.6,10-10.7c3.9,3.1,10,10.7,10,10.7s-5.4-8.4-7.2-12.8C63.6,3.4,73.8,0,73.8,0S65.1,2,60.1,1.6z"/>
		<path class="st3" d="M107,69l-10.6-7.7L85.8,69l4.1-12.5l-10.6-7.7h13.1l4.1-12.5l4.1,12.5h13.1l-10.6,7.7L107,69z M98.9,50.8
			c-1.8-4.2-2.5-13.9-2.5-13.9s-0.3,9.8-2.1,14c-5.6,0.5-14-1.8-14-1.8s10.3,3.4,13.4,6.2c-1.3,4.7-7.2,12.8-7.2,12.8
			s6.2-7.6,10-10.7c3.9,3.1,10,10.7,10,10.7s-5.4-8.4-7.2-12.8c3.2-2.8,13.4-6.2,13.4-6.2S103.9,51.1,98.9,50.8z"/>
	</g>
</g>
<g>
	<g>
		<g>
			<defs>
				<rect id="SVGID_1_" x="5.5" y="2.6" width="104.7" height="66.4"/>
			</defs>
			<clipPath id="SVGID_2_">
				<use xlink:href="#SVGID_1_"  style="overflow:visible;"/>
			</clipPath>
			<path class="st4" d="M7.1,50.2L7.6,4.6h100.9l-1.3,35.3C88.4,49.9,7.1,50.2,7.1,50.2"/>
		</g>
		<g>
			<defs>
				<rect id="SVGID_3_" x="5.5" y="2.6" width="104.7" height="66.4"/>
			</defs>
			<clipPath id="SVGID_4_">
				<use xlink:href="#SVGID_3_"  style="overflow:visible;"/>
			</clipPath>
			<path class="st5" d="M110.3,54.2H5.6V2.6h104.7V54.2z M10,54.2c44.1-2.2,82.7-3.7,96-10.1L105.9,7H10V54.2z"/>
		</g>
		<g>
			<defs>
				<rect id="SVGID_5_" x="5.5" y="2.6" width="104.7" height="66.4"/>
			</defs>
			<clipPath id="SVGID_6_">
				<use xlink:href="#SVGID_5_"  style="overflow:visible;"/>
			</clipPath>
			<path class="st6" d="M76.7,28.4c0,9.6-7.7,17.3-17.3,17.3S42.1,38,42.1,28.4s7.7-17.3,17.3-17.3C68.9,11.1,76.7,18.8,76.7,28.4"
				/>
		</g>
	</g>
	<polygon class="st7" points="5.6,61.6 110.3,61.6 110.3,57.1 	"/>
	<polygon class="st7" points="5.6,69 110.3,68.9 110.3,64.5 	"/>
	<g class="st8">
		<path class="st9" d="M61.4,15.7l0,2.8c2.5,0.2,4.5,1,6.3,2.1l-1.9,3.2c-1.2-0.8-2.7-1.4-4.4-1.7l0,4.8c3.7,0.6,6.6,2.2,6.5,5.7
			c-0.1,3.7-3,5.8-6.5,6.3v3h-3.4l0-2.9c-2.7-0.2-5.4-1.1-7.2-2.5l2.1-3.2c1.2,0.9,3.1,1.8,5.1,2.1l0-4.9l-0.2,0
			c-3.7-0.6-6.4-2.2-6.3-5.8c0.1-3.4,2.8-5.6,6.5-6.2v-2.8H61.4z M58,26.5l0-4.2c-1.4,0.3-2.3,1.1-2.3,2.2
			C55.7,25.6,56.6,26.1,58,26.5z M61.4,31.1l0,4.2c1.4-0.3,2.3-1.1,2.3-2.2C63.8,32.1,62.9,31.5,61.4,31.1z"/>
	</g>
</g>
<g id="Layer_3" class="st0">
	<g class="st1">
		<path class="st2" d="M105-1H13c44.2,13.7,92,13.2,92,13.2V-1z"/>
		<ellipse class="st2" cx="49.7" cy="62.1" rx="5.8" ry="4.4"/>
		<ellipse class="st2" cx="17.8" cy="62.1" rx="5.8" ry="4.4"/>
		<ellipse class="st2" cx="65.8" cy="62.1" rx="5.8" ry="4.4"/>
		<ellipse class="st2" cx="81.8" cy="62.1" rx="5.8" ry="4.4"/>
		<ellipse class="st2" cx="97.9" cy="62.1" rx="5.8" ry="4.4"/>
		<path class="st3" d="M52.7,54.4V0.9c-3.3,41.5-5.8,53.5-5.8,53.5H52.7z"/>
		<g>
			<path class="st3" d="M49.7,56c2.3,0,4.2,1.9,4.2,4.2s-1.9,4.2-4.2,4.2s-4.2-1.9-4.2-4.2S47.4,56,49.7,56 M49.7,53.2
				c-3.9,0-7,3.1-7,7s3.1,7,7,7s7-3.1,7-7C56.8,56.3,53.6,53.2,49.7,53.2L49.7,53.2z"/>
		</g>
		<g>
			<path class="st3" d="M17.8,56c2.3,0,4.2,1.9,4.2,4.2s-1.9,4.2-4.2,4.2s-4.2-1.9-4.2-4.2S15.5,56,17.8,56 M17.8,53.2
				c-3.9,0-7,3.1-7,7s3.1,7,7,7s7-3.1,7-7C24.9,56.3,21.7,53.2,17.8,53.2L17.8,53.2z"/>
		</g>
		<g>
			<path class="st3" d="M65.8,56c2.3,0,4.2,1.9,4.2,4.2s-1.9,4.2-4.2,4.2s-4.2-1.9-4.2-4.2S63.4,56,65.8,56 M65.8,53.2
				c-3.9,0-7,3.1-7,7s3.1,7,7,7s7-3.1,7-7S69.7,53.2,65.8,53.2L65.8,53.2z"/>
		</g>
		<g>
			<path class="st3" d="M81.8,56c2.3,0,4.2,1.9,4.2,4.2s-1.9,4.2-4.2,4.2c-2.3,0-4.2-1.9-4.2-4.2S79.5,56,81.8,56 M81.8,53.2
				c-3.9,0-7,3.1-7,7s3.1,7,7,7s7-3.1,7-7S85.7,53.2,81.8,53.2L81.8,53.2z"/>
		</g>
		<g>
			<path class="st3" d="M97.9,56c2.3,0,4.2,1.9,4.2,4.2s-1.9,4.2-4.2,4.2s-4.2-1.9-4.2-4.2S95.5,56,97.9,56 M97.9,53.2
				c-3.9,0-7,3.1-7,7s3.1,7,7,7s7-3.1,7-7S101.7,53.2,97.9,53.2L97.9,53.2z"/>
		</g>
		<path class="st3" d="M105-1H13c71.4,5.2,92,13.2,92,13.2V-1z"/>
		<path class="st3" d="M68.6,54.4V2.2c-3.3,40.5-5.8,52.2-5.8,52.2H68.6z"/>
		<path class="st3" d="M22.3,55.3l16-55.2C22.8,42,16.7,53.7,16.7,53.7L22.3,55.3z"/>
		<path class="st3" d="M84.7,54.4V4.2c-3.3,38.9-5.8,50.2-5.8,50.2H84.7z"/>
		<path class="st3" d="M100.5,54.4V6.8c-3.3,37-5.8,47.6-5.8,47.6H100.5z"/>
	</g>
</g>
<g id="Layer_4" class="st0">
	<g class="st1">
		<path class="st2" d="M22,7.3c0,13,0,35,0,48.1v7.1h26.7V-5.8C34.5-5.8,22,7.3,22,7.3z"/>
		<path class="st2" d="M64.6,8.2c0,13,0,35,0,48.1v7.1h26.7v-55C77.1,8.4,64.6,8.2,64.6,8.2z"/>
		<path class="st3" d="M103.7,61.5H5.8c38.8,6.3,97.9,7.6,97.9,7.6L103.7,61.5z"/>
		<path class="st3" d="M61.8-15.6l-2.4,9h-8.2h-3.9v3.9v60.5l-23.9,3.4v-74.4L61.8-15.6z M63.3-17.1H19.5v78.8h31.7V-2.7h12.1
			L63.3-17.1L63.3-17.1z"/>
		<path class="st3" d="M33,21.4v10.2h-5.2v-7C31,21.5,33,21.4,33,21.4z"/>
		<path class="st3" d="M33,8.3v10.2h-5.2v-7C31,8.4,33,8.3,33,8.3z"/>
		<path class="st3" d="M33-5.2V5h-5.2v-7C31-5.1,33-5.2,33-5.2z"/>
		<path class="st3" d="M80.4,48.4v13.3h15.5V0.3h-41v61.4h15.5v-8.8C74.7,48.7,80.4,48.4,80.4,48.4z M67.2,44.2H62v-7h5.2V44.2z
			 M67.2,31.4H62v-7h5.2V31.4z M67.2,18.6H62v-7h5.2V18.6z M78,44.2h-5.2v-7H78V44.2z M78,31.4h-5.2v-7H78V31.4z M78,18.6h-5.2v-7
			H78V18.6z M88.8,44.2h-5.2v-7h5.2V44.2z M88.8,31.4h-5.2v-7h5.2V31.4z M88.8,18.6h-5.2v-7h5.2V18.6z"/>
	</g>
</g>
</svg>
