<?xml version="1.0" encoding="utf-8"?>
<!-- Generator: Adobe Illustrator 23.1.1, SVG Export Plug-In . SVG Version: 6.00 Build 0)  -->
<svg version="1.1" id="Layer_1" xmlns="http://www.w3.org/2000/svg" xmlns:xlink="http://www.w3.org/1999/xlink" x="0px" y="0px"
	 viewBox="0 0 115 115" style="enable-background:new 0 0 115 115;" xml:space="preserve">
<style type="text/css">
	.st0{display:none;}
	.st1{display:inline;}
	.st2{fill:#1CBDEF;}
	.st3{fill:#213332;}
	.st4{clip-path:url(#SVGID_2_);fill:#15BEF0;}
	.st5{clip-path:url(#SVGID_4_);fill:#213232;}
	.st6{clip-path:url(#SVGID_6_);fill:#FFFFFF;}
	.st7{display:inline;fill:#213232;}
	.st8{display:inline;fill:#15BEF0;}
	.st9{font-family:'MarkOT-Bold';}
	.st10{font-size:30.3143px;}
	.st11{fill:#7C4496;}
</style>
<g class="st0">
	<g class="st1">
		<path class="st2" d="M61.1,43.3l0.5,1.4h12.7l-10.2,7.4l3.9,12l-10.2-7.4l-10.2,7.4C53,51.7,61.1,43.3,61.1,43.3z"/>
		<path class="st2" d="M80.5,67.4l0.5,1.4h12.7l-10.2,7.4l3.9,12l-10.2-7.4L67,88.2C72.5,75.8,80.5,67.4,80.5,67.4z"/>
		<path class="st2" d="M99.8,92.4l0.5,1.4H113l-10.2,7.4l3.9,12l-10.2-7.4l-10.2,7.4C91.7,100.8,99.8,92.4,99.8,92.4z"/>
		<path class="st2" d="M61.1,92.4l0.5,1.4h12.7L64,101.3l3.9,12l-10.2-7.4l-10.2,7.4C53,100.8,61.1,92.4,61.1,92.4z"/>
		<path class="st2" d="M22,92.4l0.5,1.4h12.7L25,101.2l3.9,12l-10.2-7.4l-10.2,7.4C14,100.8,22,92.4,22,92.4z"/>
		<path class="st2" d="M41.5,67.4l0.5,1.4h12.7l-10.2,7.4l3.9,12l-10.2-7.4L28,88.2C33.5,75.8,41.5,67.4,41.5,67.4z"/>
		<path class="st3" d="M48.7,88.8l-10.6-7.7l-10.6,7.7l4.1-12.5L21,68.6h13l4.1-12.5l4.1,12.5h13.1l-10.6,7.7L48.7,88.8z M40.5,70.6
			C38.7,66.4,38,56.7,38,56.7s-0.3,9.8-2.1,14c-5.6,0.6-14-1.7-14-1.7s10.3,3.4,13.4,6.2C34,79.9,28.1,88,28.1,88s6.2-7.6,10-10.7
			c3.9,3.1,10,10.7,10,10.7s-5.4-8.4-7.2-12.8c3.2-2.8,13.4-6.2,13.4-6.2S45.5,71,40.5,70.6z"/>
		<path class="st3" d="M87.7,88.8l-10.6-7.7l-10.6,7.7l4.1-12.5L60,68.7h13.1l4.1-12.5l4.1,12.5h13.1l-10.6,7.7L87.7,88.8z
			 M79.6,70.6c-1.8-4.2-2.5-13.9-2.5-13.9s-0.3,9.8-2.1,14C69.4,71.3,61,69,61,69s10.3,3.4,13.4,6.2C73,79.9,67.2,88,67.2,88
			s6.2-7.6,10-10.7c3.9,3.1,10,10.7,10,10.7s-5.4-8.4-7.2-12.8c3.2-2.8,13.4-6.2,13.4-6.2S84.6,71,79.6,70.6z"/>
		<path class="st3" d="M29.2,113.9l-10.6-7.7L8,113.9l4.1-12.5L1.4,93.7h13.1l4.1-12.5l4.1,12.5h13.1l-10.6,7.7L29.2,113.9z
			 M21,95.7c-1.8-4.2-2.5-13.9-2.5-13.9s-0.3,9.8-2.1,14c-5.6,0.5-14-1.8-14-1.8s10.3,3.4,13.4,6.2c-1.3,4.7-7.2,12.8-7.2,12.8
			s6.2-7.6,10-10.7c3.9,3.1,10,10.7,10,10.7s-5.4-8.4-7.2-12.8c3.2-2.8,13.4-6.2,13.4-6.2S26,96,21,95.7z"/>
		<path class="st3" d="M68.3,113.9l-10.6-7.7L47,113.9l4.1-12.5l-10.6-7.7h13.1l4.1-12.5l4.1,12.5h13.1l-10.6,7.7L68.3,113.9z
			 M60.1,95.7c-1.8-4.2-2.5-13.9-2.5-13.9s-0.3,9.8-2.1,14c-5.6,0.5-14-1.8-14-1.8s10.3,3.4,13.4,6.2c-1.3,4.7-7.2,12.8-7.2,12.8
			s6.2-7.6,10-10.7c3.9,3.1,10,10.7,10,10.7s-5.4-8.4-7.2-12.8c3.2-2.8,13.4-6.2,13.4-6.2S65.1,96,60.1,95.7z"/>
		<path class="st3" d="M68.3,64.7L57.7,57L47,64.7l4.1-12.5l-10.6-7.7h13.1L57.7,32l4.1,12.5h13.1l-10.6,7.7L68.3,64.7z M60.1,46.5
			c-1.8-4.2-2.5-13.9-2.5-13.9s-0.3,9.8-2.1,14c-5.7,0.6-14.1-1.7-14.1-1.7s10.3,3.4,13.4,6.2c-1.3,4.7-7.2,12.8-7.2,12.8
			s6.2-7.6,10-10.7c3.9,3.1,10,10.7,10,10.7s-5.4-8.4-7.2-12.8c3.2-2.8,13.4-6.2,13.4-6.2S65.1,46.9,60.1,46.5z"/>
		<path class="st3" d="M107,113.9l-10.6-7.7l-10.6,7.7l4.1-12.5l-10.6-7.7h13.1l4.1-12.5l4.1,12.5h13.1l-10.6,7.7L107,113.9z
			 M98.9,95.7c-1.8-4.2-2.5-13.9-2.5-13.9s-0.3,9.8-2.1,14c-5.6,0.5-14-1.8-14-1.8s10.3,3.4,13.4,6.2c-1.3,4.7-7.2,12.8-7.2,12.8
			s6.2-7.6,10-10.7c3.9,3.1,10,10.7,10,10.7s-5.4-8.4-7.2-12.8c3.2-2.8,13.4-6.2,13.4-6.2S103.9,96,98.9,95.7z"/>
	</g>
</g>
<g class="st0">
	<g class="st1">
		<g>
			<defs>
				<rect id="SVGID_1_" x="5.5" y="47.5" width="104.7" height="66.4"/>
			</defs>
			<clipPath id="SVGID_2_">
				<use xlink:href="#SVGID_1_"  style="overflow:visible;"/>
			</clipPath>
			<path class="st4" d="M7.1,95.1l0.5-45.6h100.9l-1.3,35.3C88.4,94.8,7.1,95.1,7.1,95.1"/>
		</g>
		<g>
			<defs>
				<rect id="SVGID_3_" x="5.5" y="47.5" width="104.7" height="66.4"/>
			</defs>
			<clipPath id="SVGID_4_">
				<use xlink:href="#SVGID_3_"  style="overflow:visible;"/>
			</clipPath>
			<path class="st5" d="M110.3,99.1H5.6V47.5h104.7V99.1z M10,99.1c44.1-2.2,82.7-3.7,96-10.1l-0.1-37.1H10V99.1z"/>
		</g>
		<g>
			<defs>
				<rect id="SVGID_5_" x="5.5" y="47.5" width="104.7" height="66.4"/>
			</defs>
			<clipPath id="SVGID_6_">
				<use xlink:href="#SVGID_5_"  style="overflow:visible;"/>
			</clipPath>
			<path class="st6" d="M76.7,73.3c0,9.6-7.7,17.3-17.3,17.3s-17.3-7.7-17.3-17.3S49.8,56,59.4,56C68.9,56,76.7,63.7,76.7,73.3"/>
		</g>
	</g>
	<polygon class="st7" points="5.6,106.5 110.3,106.5 110.3,102 	"/>
	<polygon class="st7" points="5.6,113.9 110.3,113.8 110.3,109.4 	"/>
	<text transform="matrix(1 -1.981392e-04 1.981392e-04 1 48.8388 84.2638)" class="st8 st9 st10">$</text>
</g>
<g id="Layer_3" class="st0">
	<g class="st1">
		<path class="st2" d="M105,43.9H13c44.2,13.7,92,13.2,92,13.2V43.9z"/>
		<ellipse class="st2" cx="49.7" cy="107" rx="5.8" ry="4.4"/>
		<ellipse class="st2" cx="17.8" cy="107" rx="5.8" ry="4.4"/>
		<ellipse class="st2" cx="65.8" cy="107" rx="5.8" ry="4.4"/>
		<ellipse class="st2" cx="81.8" cy="107" rx="5.8" ry="4.4"/>
		<ellipse class="st2" cx="97.9" cy="107" rx="5.8" ry="4.4"/>
		<path class="st3" d="M52.7,99.3V45.8c-3.3,41.5-5.8,53.5-5.8,53.5H52.7z"/>
		<g>
			<path class="st3" d="M49.7,100.9c2.3,0,4.2,1.9,4.2,4.2s-1.9,4.2-4.2,4.2s-4.2-1.9-4.2-4.2S47.4,100.9,49.7,100.9 M49.7,98.1
				c-3.9,0-7,3.1-7,7s3.1,7,7,7s7-3.1,7-7C56.8,101.2,53.6,98.1,49.7,98.1L49.7,98.1z"/>
		</g>
		<g>
			<path class="st3" d="M17.8,100.9c2.3,0,4.2,1.9,4.2,4.2s-1.9,4.2-4.2,4.2s-4.2-1.9-4.2-4.2S15.5,100.9,17.8,100.9 M17.8,98.1
				c-3.9,0-7,3.1-7,7s3.1,7,7,7s7-3.1,7-7C24.9,101.2,21.7,98.1,17.8,98.1L17.8,98.1z"/>
		</g>
		<g>
			<path class="st3" d="M65.8,100.9c2.3,0,4.2,1.9,4.2,4.2s-1.9,4.2-4.2,4.2s-4.2-1.9-4.2-4.2S63.4,100.9,65.8,100.9 M65.8,98.1
				c-3.9,0-7,3.1-7,7s3.1,7,7,7s7-3.1,7-7S69.7,98.1,65.8,98.1L65.8,98.1z"/>
		</g>
		<g>
			<path class="st3" d="M81.8,100.9c2.3,0,4.2,1.9,4.2,4.2s-1.9,4.2-4.2,4.2c-2.3,0-4.2-1.9-4.2-4.2S79.5,100.9,81.8,100.9
				 M81.8,98.1c-3.9,0-7,3.1-7,7s3.1,7,7,7s7-3.1,7-7S85.7,98.1,81.8,98.1L81.8,98.1z"/>
		</g>
		<g>
			<path class="st3" d="M97.9,100.9c2.3,0,4.2,1.9,4.2,4.2s-1.9,4.2-4.2,4.2s-4.2-1.9-4.2-4.2S95.5,100.9,97.9,100.9 M97.9,98.1
				c-3.9,0-7,3.1-7,7s3.1,7,7,7s7-3.1,7-7S101.7,98.1,97.9,98.1L97.9,98.1z"/>
		</g>
		<path class="st3" d="M105,43.9H13c71.4,5.2,92,13.2,92,13.2V43.9z"/>
		<path class="st3" d="M68.6,99.3V47.1c-3.3,40.5-5.8,52.2-5.8,52.2H68.6z"/>
		<path class="st3" d="M22.3,100.2l16-55.2C22.8,86.9,16.7,98.6,16.7,98.6L22.3,100.2z"/>
		<path class="st3" d="M84.7,99.3V49.1c-3.3,38.9-5.8,50.2-5.8,50.2H84.7z"/>
		<path class="st3" d="M100.5,99.3V51.7c-3.3,37-5.8,47.6-5.8,47.6H100.5z"/>
	</g>
</g>
<g id="Layer_4">
	<g>
		<path class="st11" d="M22,52.2c0,13,0,35,0,48.1v7.1h26.7V39.1C34.5,39.1,22,52.2,22,52.2z"/>
		<path class="st11" d="M64.6,53.1c0,13,0,35,0,48.1v7.1h26.7v-55C77.1,53.3,64.6,53.1,64.6,53.1z"/>
		<path class="st3" d="M103.7,106.4H5.8c38.8,6.3,97.9,7.6,97.9,7.6S103.7,106.4,103.7,106.4z"/>
		<path class="st3" d="M61.8,29.3l-2.4,9h-8.2h-3.9v3.9v60.5l-23.9,3.4V31.7L61.8,29.3z M63.3,27.8H19.5v78.8h31.7V42.2h12.1
			L63.3,27.8L63.3,27.8z"/>
		<path class="st3" d="M33,66.3v10.2h-5.2v-7C31,66.4,33,66.3,33,66.3z"/>
		<path class="st3" d="M33,53.2v10.2h-5.2v-7C31,53.3,33,53.2,33,53.2z"/>
		<path class="st3" d="M33,39.7v10.2h-5.2v-7C31,39.8,33,39.7,33,39.7z"/>
		<path class="st3" d="M80.4,93.3v13.3h15.5V45.2h-41v61.4h15.5v-8.8C74.7,93.6,80.4,93.3,80.4,93.3z M67.2,89.1H62v-7h5.2V89.1z
			 M67.2,76.3H62v-7h5.2V76.3z M67.2,63.5H62v-7h5.2V63.5z M78,89.1h-5.2v-7H78V89.1z M78,76.3h-5.2v-7H78V76.3z M78,63.5h-5.2v-7
			H78V63.5z M88.8,89.1h-5.2v-7h5.2V89.1z M88.8,76.3h-5.2v-7h5.2V76.3z M88.8,63.5h-5.2v-7h5.2V63.5z"/>
	</g>
</g>
</svg>
