<?xml version="1.0" encoding="utf-8"?>
<!-- Generator: Adobe Illustrator 23.1.1, SVG Export Plug-In . SVG Version: 6.00 Build 0)  -->
<svg version="1.1" id="Layer_1" xmlns="http://www.w3.org/2000/svg" xmlns:xlink="http://www.w3.org/1999/xlink" x="0px" y="0px"
	 viewBox="0 0 153 150" style="enable-background:new 0 0 153 150;" xml:space="preserve">
<style type="text/css">
	.st0{display:none;}
	.st1{display:inline;}
	.st2{fill:#1CBDEF;}
	.st3{fill:#213332;}
	.st4{clip-path:url(#SVGID_2_);fill:#15BEF0;}
	.st5{clip-path:url(#SVGID_4_);fill:#213232;}
	.st6{clip-path:url(#SVGID_6_);fill:#FFFFFF;}
	.st7{display:inline;fill:#213232;}
	.st8{display:inline;fill:#15BEF0;}
	.st9{font-family:'MarkOT-Bold';}
	.st10{font-size:41.3642px;}
	.st11{fill:#7C4496;}
</style>
<g class="st0">
	<g class="st1">
		<path class="st2" d="M81.2,54.6l0.6,1.9h16.9L85,66.4l5.2,16.1l-13.7-9.9l-13.7,9.9C70.4,65.8,81.2,54.6,81.2,54.6z"/>
		<path class="st2" d="M107.3,86.9l0.6,1.9h16.9l-13.7,9.9l5.2,16.1l-13.7-9.9L89,114.8C96.5,98.1,107.3,86.9,107.3,86.9z"/>
		<path class="st2" d="M133.1,120.4l0.6,1.9h16.9l-13.7,9.9l5.2,16.1l-13.7-9.9l-13.7,9.9C122.3,131.6,133.1,120.4,133.1,120.4z"/>
		<path class="st2" d="M81.3,120.4l0.6,1.9h16.9l-13.7,9.9l5.2,16.1l-13.7-9.9L63,148.3C70.5,131.6,81.3,120.4,81.3,120.4z"/>
		<path class="st2" d="M29.1,120.4l0.6,1.9h16.9L33,132.2l5.2,16.1l-13.7-9.9l-13.7,9.9C18.3,131.6,29.1,120.4,29.1,120.4z"/>
		<path class="st2" d="M55.1,86.9l0.6,1.9h16.9L59,98.7l5.2,16.1l-13.7-9.9l-13.7,9.9C44.4,98.1,55.1,86.9,55.1,86.9z"/>
		<path class="st3" d="M64.7,115.6l-14.2-10.3l-14.2,10.3l5.4-16.7L27.6,88.6h17.5l5.4-16.7l5.4,16.7h17.5L59.3,98.9L64.7,115.6z
			 M53.8,91.2c-2.5-5.6-3.3-18.6-3.3-18.6s-0.4,13.1-2.8,18.8C40.2,92.1,28.9,89,28.9,89s13.8,4.5,17.9,8.3
			c-1.8,6.2-9.7,17.1-9.7,17.1s8.2-10.2,13.3-14.3c5.2,4.1,13.4,14.3,13.4,14.3s-7.2-11.2-9.6-17.1c4.3-3.7,17.9-8.3,17.9-8.3
			S60.5,91.7,53.8,91.2z"/>
		<path class="st3" d="M116.9,115.6l-14.2-10.3l-14.2,10.3L94,98.9L79.8,88.6h17.5l5.4-16.7l5.4,16.7h17.5l-14.2,10.3L116.9,115.6z
			 M106,91.2c-2.5-5.6-3.3-18.6-3.3-18.6s-0.4,13.1-2.8,18.8C92.4,92.1,81.2,89,81.2,89s13.8,4.5,17.9,8.3
			c-1.8,6.2-9.7,17.1-9.7,17.1s8.2-10.2,13.3-14.3c5.2,4.1,13.4,14.3,13.4,14.3s-7.2-11.2-9.6-17.1c4.3-3.7,17.9-8.3,17.9-8.3
			S112.7,91.7,106,91.2z"/>
		<path class="st3" d="M38.7,149l-14.2-10.3L10.3,149l5.4-16.7L1.5,122H19l5.4-16.7l5.4,16.7h17.5l-14.2,10.3L38.7,149z M27.7,124.7
			c-2.5-5.6-3.3-18.6-3.3-18.6s-0.4,13.1-2.8,18.8c-7.6,0.7-18.8-2.3-18.8-2.3s13.8,4.5,17.9,8.3C18.9,137.1,11,148,11,148
			s8.2-10.2,13.3-14.3c5.2,4.1,13.4,14.3,13.4,14.3s-7.2-11.2-9.6-17.1c4.3-3.7,17.9-8.3,17.9-8.3S34.4,125.2,27.7,124.7z"/>
		<path class="st3" d="M90.9,149l-14.2-10.3L62.5,149l5.4-16.7L53.7,122h17.5l5.4-16.7L82,122h17.5l-14.2,10.3L90.9,149z M80,124.7
			c-2.5-5.6-3.3-18.6-3.3-18.6s-0.4,13.1-2.8,18.8c-7.6,0.7-18.8-2.3-18.8-2.3s13.8,4.5,17.9,8.3c-1.8,6.2-9.7,17.1-9.7,17.1
			s8.2-10.2,13.3-14.3C81.8,137.8,90,148,90,148s-7.2-11.2-9.6-17.1c4.3-3.7,17.9-8.3,17.9-8.3S86.7,125.2,80,124.7z"/>
		<path class="st3" d="M90.9,83.3L76.7,73L62.5,83.3l5.4-16.7L53.7,56.3h17.5l5.4-16.7L82,56.3h17.5l-14,10.3L90.9,83.3z M80,58.9
			c-2.5-5.6-3.3-18.6-3.3-18.6s-0.4,13.1-2.8,18.8c-7.6,0.7-18.8-2.3-18.8-2.3s13.8,4.5,17.9,8.3c-1.8,6.2-9.7,17.1-9.7,17.1
			S71.5,72,76.6,67.9C81.8,72,90,82.2,90,82.2S82.8,71,80.4,65.1c4.3-3.7,17.9-8.3,17.9-8.3S86.7,59.5,80,58.9z"/>
		<path class="st3" d="M142.7,149l-14.2-10.3L114.3,149l5.4-16.7L105.6,122h17.5l5.4-16.7L134,122h17.5l-14.2,10.3L142.7,149z
			 M131.8,124.7c-2.5-5.6-3.3-18.6-3.3-18.6s-0.4,13.1-2.8,18.8c-7.6,0.7-18.8-2.3-18.8-2.3s13.8,4.5,17.9,8.3
			c-1.8,6.2-9.7,17.1-9.7,17.1s8.2-10.2,13.3-14.3c5.2,4.1,13.4,14.3,13.4,14.3s-7.2-11.2-9.6-17.1c4.3-3.7,17.9-8.3,17.9-8.3
			S138.5,125.2,131.8,124.7z"/>
	</g>
</g>
<g class="st0">
	<g class="st1">
		<g>
			<defs>
				<rect id="SVGID_1_" x="4.7" y="57" width="142.9" height="90.6"/>
			</defs>
			<clipPath id="SVGID_2_">
				<use xlink:href="#SVGID_1_"  style="overflow:visible;"/>
			</clipPath>
			<path class="st4" d="M6.8,122l0.7-62.2h137.7l-1.8,48.2C117.7,121.6,6.8,122,6.8,122"/>
		</g>
		<g>
			<defs>
				<rect id="SVGID_3_" x="4.7" y="57" width="142.9" height="90.6"/>
			</defs>
			<clipPath id="SVGID_4_">
				<use xlink:href="#SVGID_3_"  style="overflow:visible;"/>
			</clipPath>
			<path class="st5" d="M147.6,127.5H4.7V57.1h142.9V127.5z M10.7,127.5c60.2-3,112.9-5.1,130.9-13.8l-0.1-50.6H10.7L10.7,127.5z"/>
		</g>
		<g>
			<defs>
				<rect id="SVGID_5_" x="4.7" y="57" width="142.9" height="90.6"/>
			</defs>
			<clipPath id="SVGID_6_">
				<use xlink:href="#SVGID_5_"  style="overflow:visible;"/>
			</clipPath>
			<path class="st6" d="M101.8,92.3c0,13-10.6,23.6-23.6,23.6s-23.6-10.6-23.6-23.6s10.6-23.6,23.6-23.6
				C91.2,68.7,101.8,79.2,101.8,92.3"/>
		</g>
	</g>
	<polygon class="st7" points="4.7,137.6 147.6,137.5 147.6,131.5 	"/>
	<polygon class="st7" points="4.7,147.6 147.6,147.6 147.6,141.6 	"/>
	<text transform="matrix(1 -1.981392e-04 1.981392e-04 1 63.7703 107.2401)" class="st8 st9 st10">$</text>
</g>
<g id="Layer_3">
	<g>
		<path class="st11" d="M145.8,44.2H9.5c65.4,20.3,136.3,19.6,136.3,19.6V44.2z"/>
		<ellipse class="st11" cx="64" cy="137.6" rx="8.6" ry="6.5"/>
		<ellipse class="st11" cx="16.8" cy="137.6" rx="8.6" ry="6.5"/>
		<ellipse class="st11" cx="87.7" cy="137.6" rx="8.6" ry="6.5"/>
		<ellipse class="st11" cx="111.5" cy="137.6" rx="8.6" ry="6.5"/>
		<ellipse class="st11" cx="135.2" cy="137.6" rx="8.6" ry="6.5"/>
		<path class="st3" d="M68.4,126.2V47c-4.9,61.5-8.6,79.2-8.6,79.2H68.4z"/>
		<g>
			<path class="st3" d="M64,128.5c3.5,0,6.3,2.8,6.3,6.3S67.4,141,64,141s-6.3-2.8-6.3-6.3S60.5,128.5,64,128.5 M64,124.4
				c-5.7,0-10.4,4.7-10.4,10.4s4.7,10.4,10.4,10.4s10.4-4.7,10.4-10.4S69.7,124.4,64,124.4L64,124.4z"/>
		</g>
		<g>
			<path class="st3" d="M16.8,128.5c3.5,0,6.3,2.8,6.3,6.3s-2.8,6.3-6.3,6.3s-6.3-2.8-6.3-6.3S13.3,128.5,16.8,128.5 M16.8,124.4
				c-5.7,0-10.4,4.7-10.4,10.4s4.7,10.4,10.4,10.4s10.4-4.7,10.4-10.4S22.5,124.4,16.8,124.4L16.8,124.4z"/>
		</g>
		<g>
			<path class="st3" d="M87.7,128.5c3.5,0,6.3,2.8,6.3,6.3s-2.8,6.3-6.3,6.3s-6.3-2.8-6.3-6.3S84.3,128.5,87.7,128.5 M87.7,124.4
				c-5.7,0-10.4,4.7-10.4,10.4s4.7,10.4,10.4,10.4s10.4-4.7,10.4-10.4S93.5,124.4,87.7,124.4L87.7,124.4z"/>
		</g>
		<g>
			<path class="st3" d="M111.5,128.5c3.5,0,6.3,2.8,6.3,6.3s-2.8,6.3-6.3,6.3s-6.3-2.8-6.3-6.3S108,128.5,111.5,128.5 M111.5,124.4
				c-5.7,0-10.4,4.7-10.4,10.4s4.7,10.4,10.4,10.4s10.4-4.7,10.4-10.4S117.2,124.4,111.5,124.4L111.5,124.4z"/>
		</g>
		<g>
			<path class="st3" d="M135.2,128.5c3.5,0,6.3,2.8,6.3,6.3s-2.8,6.3-6.3,6.3s-6.3-2.8-6.3-6.3S131.8,128.5,135.2,128.5
				 M135.2,124.4c-5.7,0-10.4,4.7-10.4,10.4s4.7,10.4,10.4,10.4s10.4-4.7,10.4-10.4S141,124.4,135.2,124.4L135.2,124.4z"/>
		</g>
		<path class="st3" d="M145.8,44.2H9.5c105.7,7.6,136.3,19.6,136.3,19.6V44.2z"/>
		<path class="st3" d="M91.9,126.2V48.9c-4.9,60-8.6,77.3-8.6,77.3S91.9,126.2,91.9,126.2z"/>
		<path class="st3" d="M23.4,127.5l23.7-81.7c-23.1,62-32,79.3-32,79.3L23.4,127.5z"/>
		<path class="st3" d="M115.8,126.2V51.9c-4.9,57.6-8.6,74.3-8.6,74.3S115.8,126.2,115.8,126.2z"/>
		<path class="st3" d="M139.2,126.2V55.7c-4.9,54.7-8.6,70.5-8.6,70.5H139.2z"/>
	</g>
</g>
</svg>
