<svg id="Layer_1" data-name="Layer 1" xmlns="http://www.w3.org/2000/svg" viewBox="0 0 200 200"><defs><style>.cls-1{fill:#ed5a36;}.cls-2{fill:#203232;}</style></defs><title>Diversification-2c</title><path class="cls-1" d="M120.2,89.41l38.36-45.95a44.18,44.18,0,0,1,16.7,23.11Z"/><path class="cls-1" d="M86.28,109.81l-1,58.92C59.29,166.8,36.76,140,35,108.81c-1.08-18.69,4.78-34.15,16.75-44.2Z"/><path class="cls-2" d="M111.18,93,154,34.3l2.42,1.77a60.53,60.53,0,0,1,23,31.74l.92,2.86Zm44.09-50.21-41.06,48,58.47-23.92A54,54,0,0,0,155.27,42.74Z"/><path class="cls-2" d="M93.77,111.65,54.21,57l2.43-1.76c22.67-16.39,51.92-16.32,74.51.17l2.42,1.77Z"/><path class="cls-2" d="M96.63,169.93h-3A63.46,63.46,0,0,1,30.4,106.4,61.94,61.94,0,0,1,56.64,55.19l2.43-1.76,37.71,52.15ZM57.77,61.86C43.82,73,36.44,88.3,36.4,106.42a57.44,57.44,0,0,0,54.25,57.42l.13-56.32Z"/><path class="cls-2" d="M93.81,169.93H90.63l.15-65.56,62.4-20.11.92,2.85a63.45,63.45,0,0,1-40.87,79.77A60.86,60.86,0,0,1,93.81,169.93Zm3-61.19-.12,55.13a53.79,53.79,0,0,0,14.73-2.71c29.16-9.4,50.4-36.84,41.8-76.91Z"/></svg>