<svg id="Layer_1" data-name="Layer 1" xmlns="http://www.w3.org/2000/svg" viewBox="0 0 200 200"><defs><style>.cls-1{fill:#203232;}.cls-2,.cls-3{fill:#ed5a36;}.cls-3{stroke:#203232;stroke-width:6px;}</style></defs><title>interest-rate-2c</title><path class="cls-1" d="M76.53,90.64s11.6-39.42,44-55.38l6.37,7.31C99,54.25,76.53,90.64,76.53,90.64Z"/><path class="cls-2" d="M110.22,128.75c0,5.52,0,18.48,0,24v3H133V118.48C119.15,128.81,110.22,128.75,110.22,128.75Z"/><path class="cls-2" d="M69.54,102c0,5.52,0,13.58,0,19.1v36.44H92.27V125.76C78.37,121.6,69.54,102,69.54,102Z"/><path class="cls-2" d="M29.52,71.55c0,5.52,0,22.89,0,28.41v57.12H52.26V86.35C44.11,78.21,29.52,71.55,29.52,71.55Z"/><path class="cls-2" d="M151.67,95.66c0,4.09,0,12.3,0,16.39v45.89h22.72V80.2C162.31,80.2,151.67,95.66,151.67,95.66Z"/><path class="cls-1" d="M48.6,70.22v82.51H32.14V70.22H48.6M54.8,64H25.94v94.93H54.8V64Z"/><path class="cls-1" d="M88.71,92.67V153H72.26V92.67H88.71m6.21-6.21H66.05v72.7H94.92V86.46Z"/><path class="cls-1" d="M171.69,78v75.82H153.51V78h18.18M177,72.66H148.17v86.5H177V72.66Z"/><path class="cls-1" d="M129.84,120.6V153H113.39V120.6h16.45m6.21-6.2H107.18v44.76h28.87V114.4Z"/><path class="cls-1" d="M8.93,166.05H186.52v16.56C149.14,172,8.93,166.05,8.93,166.05Z"/><circle class="cls-3" cx="121.17" cy="71.28" r="11.14"/><circle class="cls-3" cx="81.15" cy="43.64" r="11.14"/><polygon class="cls-1" points="130.19 33.77 115.55 29.78 128.2 48.81 130.19 33.77"/></svg>