<svg id="Layer_1" data-name="Layer 1" xmlns="http://www.w3.org/2000/svg" viewBox="0 0 200 200"><defs><style>.cls-1{fill:#ed5a36;}.cls-2{fill:#203232;}</style></defs><title>Protection-2c</title><path class="cls-1" d="M152.88,56.86l0,3c.88,94.61-51.6,109.9-53.83,110.51l-1,.27-1.35-.57c-4.53-2.58-31.57-8-47.27-72.34C82.51,66.67,152.88,56.86,152.88,56.86Z"/><path class="cls-2" d="M98.09,171.19l-1.4-.59c-4.52-1.27-56.81-18.14-56.81-114.33V53.15H43c27.38,0,52.44-21.08,52.69-21.3l2-1.74,2,1.76c.24.21,24.88,21.39,52.2,21l3.12,0,0,3.12c.92,98.39-53.66,114.29-56,114.92ZM51.64,62.07c1.08,88.69,43.92,107.17,46.74,108,6.77-2.47,44.74-24.34,45-108.24-24-1-39.23-24-45.68-29.09C91.18,37.8,75.63,60.84,51.64,62.07Z"/><path class="cls-2" d="M95.52,136.85a79,79,0,0,0-16.87-31.36l-7.27,7.08,24.14,24.28,37.24-64.31-8.17-4.77C108.74,90.82,95.52,136.85,95.52,136.85Z"/></svg>