<?xml version="1.0" encoding="utf-8"?>
<!-- Generator: Adobe Illustrator 23.0.6, SVG Export Plug-In . SVG Version: 6.00 Build 0)  -->
<svg version="1.1" id="Layer_1" xmlns="http://www.w3.org/2000/svg" xmlns:xlink="http://www.w3.org/1999/xlink" x="0px" y="0px"
	 viewBox="0 0 72 16" style="enable-background:new 0 0 72 16;" xml:space="preserve">
<style type="text/css">
	.st0{fill:#2C2C2C;}
	.st1{fill-rule:evenodd;clip-rule:evenodd;fill:#444444;}
	.st2{fill-rule:evenodd;clip-rule:evenodd;fill:#15BEF0;}
</style>
<g>
	<path class="st0" d="M3.6,12.1H1.6v1.7H0.7V9.7h3.1v0.8H1.6v0.9h2.1V12.1z"/>
	<path class="st0" d="M7.3,13.8H6.5v-0.3c-0.2,0.2-0.5,0.4-0.9,0.4c-0.8,0-1.4-0.7-1.4-1.5c0-0.9,0.6-1.5,1.4-1.5
		c0.4,0,0.7,0.2,0.9,0.4V11h0.8V13.8z M5.1,12.4c0,0.4,0.3,0.8,0.7,0.8c0.4,0,0.7-0.3,0.7-0.8s-0.3-0.8-0.7-0.8
		C5.4,11.6,5.1,12,5.1,12.4z"/>
	<path class="st0" d="M9,10c0,0.3-0.2,0.5-0.5,0.5S8,10.3,8,10c0-0.3,0.2-0.5,0.5-0.5S9,9.7,9,10z M8.9,13.8H8.1V11h0.8V13.8z"/>
	<path class="st0" d="M12.7,12.4c0,0.9-0.6,1.5-1.4,1.5c-0.4,0-0.7-0.2-0.9-0.4v0.3H9.7V9.6h0.8v1.7c0.2-0.2,0.5-0.4,0.8-0.4
		C12.1,10.9,12.7,11.5,12.7,12.4z M10.4,12.4c0,0.5,0.3,0.8,0.7,0.8c0.5,0,0.7-0.4,0.7-0.8s-0.3-0.8-0.7-0.8
		C10.7,11.6,10.4,11.9,10.4,12.4z"/>
	<path class="st0" d="M14.1,13.8h-0.8V9.6h0.8V13.8z"/>
	<path class="st0" d="M17.6,12.4c0,0.1,0,0.2,0,0.3h-2c0.1,0.4,0.4,0.6,0.7,0.6c0.2,0,0.5-0.1,0.7-0.3l0.5,0.5
		c-0.3,0.3-0.7,0.4-1.2,0.4c-0.9,0-1.5-0.6-1.5-1.5c0-0.9,0.6-1.5,1.5-1.5C17,10.9,17.5,11.5,17.6,12.4z M15.5,12.1h1.3
		c-0.1-0.4-0.3-0.6-0.6-0.6C15.8,11.5,15.6,11.8,15.5,12.1z"/>
</g>
<g>
	<path class="st0" d="M31.5,13.8h-0.8v-3.1l-1,2.7h-0.9l-1-2.7v3.1h-0.8V9.7h1.2l1.1,2.8l1.1-2.8h1.2V13.8z"/>
	<path class="st0" d="M35.3,12.4c0,0.9-0.7,1.5-1.6,1.5c-0.9,0-1.6-0.6-1.6-1.5c0-0.9,0.7-1.5,1.6-1.5
		C34.7,10.9,35.3,11.5,35.3,12.4z M33,12.4c0,0.5,0.3,0.8,0.8,0.8s0.8-0.3,0.8-0.8c0-0.5-0.3-0.8-0.8-0.8S33,11.9,33,12.4z"/>
	<path class="st0" d="M36.7,15h-0.9l1-1.8L35.6,11h0.9l0.8,1.5L38,11h0.9L36.7,15z"/>
	<path class="st0" d="M42,12.4c0,0.1,0,0.2,0,0.3h-2c0.1,0.4,0.4,0.6,0.7,0.6c0.2,0,0.5-0.1,0.7-0.3l0.5,0.5
		c-0.3,0.3-0.7,0.4-1.2,0.4c-0.9,0-1.5-0.6-1.5-1.5c0-0.9,0.6-1.5,1.5-1.5C41.4,10.9,42,11.5,42,12.4z M39.9,12.1h1.3
		c-0.1-0.4-0.3-0.6-0.6-0.6C40.2,11.5,40,11.8,39.9,12.1z"/>
	<path class="st0" d="M45.3,12v1.8h-0.8v-1.6c0-0.4-0.2-0.6-0.6-0.6c-0.3,0-0.6,0.2-0.6,0.7v1.6h-0.8V11h0.8v0.3
		c0.2-0.3,0.5-0.4,0.8-0.4C44.9,10.9,45.3,11.3,45.3,12z"/>
</g>
<g>
	<path class="st0" d="M59.9,13.8h-3.1V9.7h3.1v0.8h-2.3v0.9h2.2v0.8h-2.2v1h2.3V13.8z M57.8,9.3l0.6-0.9h0.9l-0.8,0.9H57.8z"/>
	<path class="st0" d="M61.5,13.8h-0.8V9.6h0.8V13.8z"/>
	<path class="st0" d="M65,12.4c0,0.1,0,0.2,0,0.3h-2c0.1,0.4,0.4,0.6,0.7,0.6c0.2,0,0.5-0.1,0.7-0.3l0.5,0.5
		c-0.3,0.3-0.7,0.4-1.2,0.4c-0.9,0-1.5-0.6-1.5-1.5c0-0.9,0.6-1.5,1.5-1.5C64.5,10.9,65,11.5,65,12.4z M63,12.1h1.3
		c-0.1-0.4-0.3-0.6-0.6-0.6C63.3,11.5,63,11.8,63,12.1z"/>
	<path class="st0" d="M67.4,13.8h-0.9L65.3,11h0.8l0.7,2.1l0.8-2.1h0.8L67.4,13.8z"/>
	<path class="st0" d="M71.7,12.4c0,0.1,0,0.2,0,0.3h-2c0.1,0.4,0.4,0.6,0.7,0.6c0.2,0,0.5-0.1,0.7-0.3l0.5,0.5
		c-0.3,0.3-0.7,0.4-1.2,0.4c-0.9,0-1.5-0.6-1.5-1.5c0-0.9,0.6-1.5,1.5-1.5C71.1,10.9,71.7,11.5,71.7,12.4z M69.6,12.1h1.3
		c-0.1-0.4-0.3-0.6-0.6-0.6C69.9,11.5,69.7,11.8,69.6,12.1z M69.8,10.5l0.6-0.9h0.9l-0.8,0.9H69.8z"/>
</g>
<rect x="0.7" y="1" class="st1" width="13.6" height="7.1"/>
<rect x="15" y="1" class="st1" width="13.6" height="7.1"/>
<rect x="29.3" y="1" class="st2" width="13.6" height="7.1"/>
<rect x="43.6" y="1" class="st1" width="13.6" height="7.1"/>
<rect x="57.9" y="1" class="st1" width="13.6" height="7.1"/>
</svg>
