<?xml version="1.0" encoding="utf-8"?>
<!-- Generator: Adobe Illustrator 23.0.6, SVG Export Plug-In . SVG Version: 6.00 Build 0)  -->
<svg version="1.1" id="Layer_1" xmlns="http://www.w3.org/2000/svg" xmlns:xlink="http://www.w3.org/1999/xlink" x="0px" y="0px"
	 viewBox="0 0 72 16" style="enable-background:new 0 0 72 16;" xml:space="preserve">
<style type="text/css">
	.st0{enable-background:new    ;}
	.st1{fill:#2C2C2C;}
	.st2{fill:#444444;}
	.st3{fill:#15BEF0;}
</style>
<g class="st0">
	<path class="st1" d="M4.6,13.8h-3V9.7h0.8v3.4h2.2V13.8z"/>
</g>
<g class="st0">
	<path class="st1" d="M8,12.4c0,0.9-0.7,1.5-1.6,1.5s-1.6-0.6-1.6-1.5s0.7-1.5,1.6-1.5C7.4,10.9,8,11.5,8,12.4z M5.7,12.4
		c0,0.5,0.3,0.8,0.8,0.8s0.8-0.3,0.8-0.8S7,11.6,6.5,11.6S5.7,11.9,5.7,12.4z"/>
	<path class="st1" d="M11.8,13l0.6-2h0.8l-1,2.9h-0.9L10.7,12l-0.6,1.9H9.2l-1-2.9H9l0.6,2l0.6-2H11L11.8,13z"/>
</g>
<g class="st0">
	<path class="st1" d="M34.8,13.8H34v-3.1l-1,2.7h-0.9l-1-2.7v3.1h-0.8V9.7h1.2l1.1,2.8l1.1-2.8h1.2L34.8,13.8L34.8,13.8z"/>
</g>
<g class="st0">
	<path class="st1" d="M38.4,12.4c0,0.1,0,0.2,0,0.3h-2c0.1,0.4,0.4,0.6,0.7,0.6c0.2,0,0.5-0.1,0.7-0.3l0.5,0.5
		c-0.3,0.3-0.7,0.4-1.2,0.4c-0.9,0-1.5-0.6-1.5-1.5s0.6-1.5,1.5-1.5C37.8,10.9,38.4,11.5,38.4,12.4z M36.3,12.1h1.3
		c-0.1-0.4-0.3-0.6-0.6-0.6C36.6,11.5,36.4,11.8,36.3,12.1z"/>
	<path class="st1" d="M41.1,11.3V9.6h0.8v4.3h-0.8v-0.3c-0.2,0.2-0.5,0.4-0.9,0.4c-0.8,0-1.4-0.7-1.4-1.5c0-0.9,0.6-1.5,1.4-1.5
		C40.6,10.9,40.9,11,41.1,11.3z M39.6,12.4c0,0.4,0.3,0.8,0.7,0.8s0.7-0.3,0.7-0.8s-0.3-0.8-0.7-0.8C39.9,11.6,39.6,12,39.6,12.4z"
		/>
</g>
<g class="st0">
	<path class="st1" d="M59.4,11.4h2V9.7h0.8v4.2h-0.8v-1.7h-2v1.7h-0.8V9.7h0.8V11.4z"/>
</g>
<g class="st0">
	<path class="st1" d="M64,10c0,0.3-0.2,0.5-0.5,0.5S63,10.3,63,10s0.2-0.5,0.5-0.5S64,9.7,64,10z M63.9,13.8h-0.8V11h0.8V13.8z"/>
</g>
<g class="st0">
	<path class="st1" d="M66.7,11.3V11h0.8v2.6c0,0.9-0.6,1.5-1.6,1.5c-0.5,0-0.9-0.1-1.3-0.3l0.3-0.6c0.3,0.2,0.6,0.3,1,0.3
		c0.5,0,0.8-0.3,0.8-0.8v-0.2c-0.2,0.2-0.5,0.4-0.9,0.4c-0.7,0-1.3-0.6-1.3-1.5s0.6-1.5,1.3-1.5C66.3,10.9,66.6,11,66.7,11.3z
		 M65.3,12.4c0,0.4,0.3,0.8,0.7,0.8c0.4,0,0.7-0.3,0.7-0.8c0-0.4-0.3-0.8-0.7-0.8C65.6,11.6,65.3,11.9,65.3,12.4z"/>
</g>
<g class="st0">
	<path class="st1" d="M69.1,11.3c0.2-0.3,0.5-0.4,0.8-0.4c0.7,0,1.1,0.5,1.1,1.1v1.8h-0.8v-1.6c0-0.4-0.2-0.6-0.6-0.6
		c-0.3,0-0.6,0.2-0.6,0.7v1.6h-0.8V9.6H69L69.1,11.3L69.1,11.3z"/>
</g>
<rect x="0.7" y="1" class="st2" width="13.6" height="7.1"/>
<rect x="15" y="1" class="st2" width="13.6" height="7.1"/>
<rect x="29.3" y="1" class="st3" width="13.6" height="7.1"/>
<rect x="43.6" y="1" class="st2" width="13.6" height="7.1"/>
<rect x="57.9" y="1" class="st2" width="13.6" height="7.1"/>
</svg>
