<svg id="Layer_1" data-name="Layer 1" xmlns="http://www.w3.org/2000/svg" viewBox="0 0 200 200"><defs><style>.cls-1{fill:#203232;}.cls-2{fill:#bbbdbf;}.cls-3,.cls-4{fill:#ed5a36;}.cls-4{stroke:#203232;stroke-width:6px;}</style></defs><title>returns-2c</title><path class="cls-1" d="M39.36,110.61s57.13-69,131.79-69l.32,5.86C97.48,47.45,39.36,110.61,39.36,110.61Z"/><path class="cls-2" d="M28.53,151c0,4.17,0,5.11,0,9.28v2.28H51.26V134.4A119.07,119.07,0,0,0,28.53,151Z"/><path class="cls-3" d="M69.43,123.1c0,4.17,0,9.1,0,13.27v27.55H92.17V111.57A230.63,230.63,0,0,0,69.43,123.1Z"/><path class="cls-3" d="M109.67,104.53c0,4.17,0,11.7,0,15.88v43.18H132.4V97.66C119,101,109.67,104.53,109.67,104.53Z"/><path class="cls-3" d="M151.57,94c0,4.17,0,18.87,0,23v46.84H174.3V92.21A150.67,150.67,0,0,0,151.57,94Z"/><path class="cls-1" d="M129.55,98.62v61H111.48v-61h18.07m5.4-5.39H106.08V165H135V93.23Z"/><path class="cls-1" d="M89.42,115.6v44.16H71.34V115.6H89.42m5.39-5.4H66v55H94.81v-55Z"/><path class="cls-1" d="M171.53,82.29v77.47H153.46V82.29h18.07m5.4-5.4H148.06v88.27h28.87V76.89Z"/><rect class="cls-3" x="28.63" y="134.02" width="23.47" height="28.44"/><path class="cls-1" d="M49.4,136.72v23H31.33v-23H49.4m5.4-5.4H25.93v33.84H54.8V131.32Z"/><path class="cls-1" d="M8.82,172.05H186.41v16.56C149,178,8.82,172.05,8.82,172.05Z"/><circle class="cls-4" cx="121.18" cy="53.43" r="11.14"/><circle class="cls-4" cx="162.49" cy="46.65" r="11.14"/><circle class="cls-4" cx="80.38" cy="74.11" r="11.14"/><circle class="cls-4" cx="40.36" cy="107.61" r="11.14"/></svg>