<?xml version="1.0" encoding="utf-8"?>
<!-- Generator: Adobe Illustrator 24.1.2, SVG Export Plug-In . SVG Version: 6.00 Build 0)  -->
<svg version="1.1" xmlns="http://www.w3.org/2000/svg" xmlns:xlink="http://www.w3.org/1999/xlink" x="0px" y="0px"
	 viewBox="0 0 1080 427" style="enable-background:new 0 0 1080 427;" xml:space="preserve">
<style type="text/css">
	.st0{fill:none;stroke:#D8D8D8;stroke-linejoin:round;stroke-miterlimit:10;}
	.st1{fill:none;stroke:#FFB819;stroke-width:4;stroke-linecap:round;stroke-miterlimit:10;}
	.st2{fill:none;stroke:#203232;stroke-width:4;stroke-linecap:round;stroke-miterlimit:10;}
	.st3{fill:none;stroke:#ED5A35;stroke-width:4;stroke-linecap:round;stroke-miterlimit:10;}
	.st4{fill:none;stroke:#D02259;stroke-width:4;stroke-linecap:round;stroke-miterlimit:10;}
	.st5{fill:#203232;}
	.st6{fill:#ED5A35;}
	.st7{fill:#D02259;}
	.st8{fill:#FFB819;}
</style>
<g id="Layer_1">
	<g>
		<g>
			<line class="st0" x1="56.49" y1="336.87" x2="1052.87" y2="336.87"/>
			<line class="st0" x1="56.49" y1="292.12" x2="1052.87" y2="292.12"/>
			<line class="st0" x1="56.49" y1="247.37" x2="1052.87" y2="247.37"/>
			<line class="st0" x1="56.49" y1="202.62" x2="1052.87" y2="202.62"/>
			<line class="st0" x1="56.49" y1="157.87" x2="1052.87" y2="157.87"/>
			<line class="st0" x1="56.49" y1="113.12" x2="1052.87" y2="113.12"/>
			<line class="st0" x1="56.49" y1="68.37" x2="1052.87" y2="68.37"/>
			<line class="st0" x1="56.49" y1="23.62" x2="1052.87" y2="23.62"/>
		</g>
	</g>
	<g>
		<g>
			<g>
				<line class="st1" x1="1048.1" y1="311.79" x2="1053.37" y2="317.19"/>
				<line class="st1" x1="1042.84" y1="317.64" x2="1048.1" y2="311.79"/>
				<line class="st1" x1="1037.58" y1="314.49" x2="1042.84" y2="317.64"/>
				<line class="st1" x1="1032.31" y1="314.04" x2="1037.58" y2="314.49"/>
				<line class="st1" x1="1027.05" y1="320.34" x2="1032.31" y2="314.04"/>
				<line class="st1" x1="1021.79" y1="314.94" x2="1027.05" y2="320.34"/>
				<line class="st1" x1="1016.52" y1="321.24" x2="1021.79" y2="314.94"/>
				<line class="st1" x1="1011.26" y1="313.59" x2="1016.52" y2="321.24"/>
				<line class="st1" x1="1006" y1="302.33" x2="1011.26" y2="313.59"/>
				<line class="st1" x1="1000.73" y1="309.98" x2="1006" y2="302.33"/>
				<line class="st1" x1="995.47" y1="312.24" x2="1000.73" y2="309.98"/>
				<line class="st1" x1="990.2" y1="319.44" x2="995.47" y2="312.24"/>
				<line class="st1" x1="984.94" y1="325.29" x2="990.2" y2="319.44"/>
				<line class="st1" x1="979.68" y1="313.59" x2="984.94" y2="325.29"/>
				<line class="st1" x1="974.41" y1="308.63" x2="979.68" y2="313.59"/>
				<line class="st1" x1="969.15" y1="302.78" x2="974.41" y2="308.63"/>
				<line class="st1" x1="963.89" y1="293.33" x2="969.15" y2="302.78"/>
				<line class="st1" x1="958.62" y1="296.93" x2="963.89" y2="293.33"/>
				<line class="st1" x1="953.36" y1="285.68" x2="958.62" y2="296.93"/>
				<line class="st1" x1="948.1" y1="287.03" x2="953.36" y2="285.68"/>
				<line class="st1" x1="942.83" y1="282.98" x2="948.1" y2="287.03"/>
				<line class="st1" x1="937.57" y1="279.83" x2="942.83" y2="282.98"/>
				<line class="st1" x1="932.3" y1="276.68" x2="937.57" y2="279.83"/>
				<line class="st1" x1="927.04" y1="272.63" x2="932.3" y2="276.68"/>
				<line class="st1" x1="921.78" y1="278.93" x2="927.04" y2="272.63"/>
				<line class="st1" x1="916.51" y1="273.98" x2="921.78" y2="278.93"/>
				<line class="st1" x1="911.25" y1="280.28" x2="916.51" y2="273.98"/>
				<line class="st1" x1="905.99" y1="278.48" x2="911.25" y2="280.28"/>
				<line class="st1" x1="900.72" y1="268.58" x2="905.99" y2="278.48"/>
				<line class="st1" x1="895.46" y1="271.73" x2="900.72" y2="268.58"/>
				<line class="st1" x1="890.2" y1="264.53" x2="895.46" y2="271.73"/>
				<line class="st1" x1="884.93" y1="262.28" x2="890.2" y2="264.53"/>
				<line class="st1" x1="879.67" y1="274.88" x2="884.93" y2="262.28"/>
				<line class="st1" x1="874.4" y1="277.13" x2="879.67" y2="274.88"/>
				<line class="st1" x1="869.14" y1="277.58" x2="874.4" y2="277.13"/>
				<line class="st1" x1="863.88" y1="273.08" x2="869.14" y2="277.58"/>
				<line class="st1" x1="858.61" y1="277.58" x2="863.88" y2="273.08"/>
				<line class="st1" x1="853.35" y1="269.48" x2="858.61" y2="277.58"/>
				<line class="st1" x1="848.09" y1="272.63" x2="853.35" y2="269.48"/>
				<line class="st1" x1="842.82" y1="280.28" x2="848.09" y2="272.63"/>
				<line class="st1" x1="837.56" y1="279.38" x2="842.82" y2="280.28"/>
				<line class="st1" x1="832.3" y1="278.93" x2="837.56" y2="279.38"/>
				<line class="st1" x1="827.03" y1="284.33" x2="832.3" y2="278.93"/>
				<line class="st1" x1="821.77" y1="274.43" x2="827.03" y2="284.33"/>
				<line class="st1" x1="816.5" y1="284.78" x2="821.77" y2="274.43"/>
				<line class="st1" x1="811.24" y1="281.63" x2="816.5" y2="284.78"/>
				<line class="st1" x1="805.98" y1="286.58" x2="811.24" y2="281.63"/>
				<line class="st1" x1="800.71" y1="299.18" x2="805.98" y2="286.58"/>
				<line class="st1" x1="795.45" y1="296.93" x2="800.71" y2="299.18"/>
				<line class="st1" x1="790.19" y1="299.18" x2="795.45" y2="296.93"/>
				<line class="st1" x1="784.92" y1="299.63" x2="790.19" y2="299.18"/>
				<line class="st1" x1="779.66" y1="287.48" x2="784.92" y2="299.63"/>
				<line class="st1" x1="774.4" y1="281.63" x2="779.66" y2="287.48"/>
				<line class="st1" x1="769.13" y1="287.03" x2="774.4" y2="281.63"/>
				<line class="st1" x1="763.87" y1="288.83" x2="769.13" y2="287.03"/>
				<line class="st1" x1="758.6" y1="279.38" x2="763.87" y2="288.83"/>
				<line class="st1" x1="753.34" y1="265.43" x2="758.6" y2="279.38"/>
				<line class="st1" x1="748.08" y1="272.63" x2="753.34" y2="265.43"/>
				<line class="st1" x1="742.81" y1="270.38" x2="748.08" y2="272.63"/>
				<line class="st1" x1="737.55" y1="267.23" x2="742.81" y2="270.38"/>
				<line class="st1" x1="732.29" y1="257.78" x2="737.55" y2="267.23"/>
				<line class="st1" x1="727.02" y1="264.98" x2="732.29" y2="257.78"/>
				<line class="st1" x1="721.76" y1="259.58" x2="727.02" y2="264.98"/>
				<line class="st1" x1="716.5" y1="271.73" x2="721.76" y2="259.58"/>
				<line class="st1" x1="711.23" y1="277.58" x2="716.5" y2="271.73"/>
				<line class="st1" x1="705.97" y1="285.68" x2="711.23" y2="277.58"/>
				<line class="st1" x1="700.7" y1="278.93" x2="705.97" y2="285.68"/>
				<line class="st1" x1="695.44" y1="280.28" x2="700.7" y2="278.93"/>
				<line class="st1" x1="690.18" y1="269.48" x2="695.44" y2="280.28"/>
				<line class="st1" x1="684.91" y1="262.28" x2="690.18" y2="269.48"/>
				<line class="st1" x1="679.65" y1="255.98" x2="684.91" y2="262.28"/>
				<line class="st1" x1="674.39" y1="251.02" x2="679.65" y2="255.98"/>
				<line class="st1" x1="669.12" y1="253.73" x2="674.39" y2="251.02"/>
				<line class="st1" x1="663.86" y1="242.02" x2="669.12" y2="253.73"/>
				<line class="st1" x1="658.6" y1="237.97" x2="663.86" y2="242.02"/>
				<line class="st1" x1="653.33" y1="232.57" x2="658.6" y2="237.97"/>
				<line class="st1" x1="648.07" y1="227.62" x2="653.33" y2="232.57"/>
				<line class="st1" x1="642.8" y1="223.12" x2="648.07" y2="227.62"/>
				<line class="st1" x1="637.54" y1="220.87" x2="642.8" y2="223.12"/>
				<line class="st1" x1="632.28" y1="219.07" x2="637.54" y2="220.87"/>
				<line class="st1" x1="627.01" y1="206.92" x2="632.28" y2="219.07"/>
				<line class="st1" x1="621.75" y1="217.72" x2="627.01" y2="206.92"/>
				<line class="st1" x1="616.49" y1="218.62" x2="621.75" y2="217.72"/>
				<line class="st1" x1="611.22" y1="213.67" x2="616.49" y2="218.62"/>
				<line class="st1" x1="605.96" y1="210.07" x2="611.22" y2="213.67"/>
				<line class="st1" x1="600.7" y1="218.62" x2="605.96" y2="210.07"/>
				<line class="st1" x1="595.43" y1="215.92" x2="600.7" y2="218.62"/>
				<line class="st1" x1="590.17" y1="226.27" x2="595.43" y2="215.92"/>
				<line class="st1" x1="584.9" y1="238.87" x2="590.17" y2="226.27"/>
				<line class="st1" x1="579.64" y1="235.72" x2="584.9" y2="238.87"/>
				<line class="st1" x1="574.38" y1="228.52" x2="579.64" y2="235.72"/>
				<line class="st1" x1="569.11" y1="218.17" x2="574.38" y2="228.52"/>
				<line class="st1" x1="563.85" y1="234.82" x2="569.11" y2="218.17"/>
				<line class="st1" x1="558.59" y1="231.22" x2="563.85" y2="234.82"/>
				<line class="st1" x1="553.32" y1="228.07" x2="558.59" y2="231.22"/>
				<line class="st1" x1="548.06" y1="228.97" x2="553.32" y2="228.07"/>
				<line class="st1" x1="542.8" y1="233.92" x2="548.06" y2="228.97"/>
				<line class="st1" x1="537.53" y1="236.17" x2="542.8" y2="233.92"/>
				<line class="st1" x1="532.27" y1="222.67" x2="537.53" y2="236.17"/>
				<line class="st1" x1="527.01" y1="239.77" x2="532.27" y2="222.67"/>
				<line class="st1" x1="521.74" y1="219.07" x2="527.01" y2="239.77"/>
				<line class="st1" x1="516.48" y1="213.22" x2="521.74" y2="219.07"/>
				<line class="st1" x1="511.21" y1="211.87" x2="516.48" y2="213.22"/>
				<line class="st1" x1="505.95" y1="213.22" x2="511.21" y2="211.87"/>
				<line class="st1" x1="500.69" y1="211.42" x2="505.95" y2="213.22"/>
				<line class="st1" x1="495.42" y1="191.16" x2="500.69" y2="211.42"/>
				<line class="st1" x1="490.16" y1="202.87" x2="495.42" y2="191.16"/>
				<line class="st1" x1="484.9" y1="208.72" x2="490.16" y2="202.87"/>
				<line class="st1" x1="479.63" y1="193.87" x2="484.9" y2="208.72"/>
				<line class="st1" x1="474.37" y1="179.46" x2="479.63" y2="193.87"/>
				<line class="st1" x1="469.11" y1="157.86" x2="474.37" y2="179.46"/>
				<line class="st1" x1="463.84" y1="157.86" x2="469.11" y2="157.86"/>
				<line class="st1" x1="458.58" y1="147.96" x2="463.84" y2="157.86"/>
				<line class="st1" x1="453.31" y1="143.01" x2="458.58" y2="147.96"/>
				<line class="st1" x1="448.05" y1="151.11" x2="453.31" y2="143.01"/>
				<line class="st1" x1="442.79" y1="152.01" x2="448.05" y2="151.11"/>
				<line class="st1" x1="437.52" y1="160.56" x2="442.79" y2="152.01"/>
				<line class="st1" x1="432.26" y1="173.61" x2="437.52" y2="160.56"/>
				<line class="st1" x1="427" y1="180.36" x2="432.26" y2="173.61"/>
				<line class="st1" x1="421.73" y1="191.16" x2="427" y2="180.36"/>
				<line class="st1" x1="416.47" y1="198.37" x2="421.73" y2="191.16"/>
				<line class="st1" x1="411.21" y1="173.61" x2="416.47" y2="198.37"/>
				<line class="st1" x1="405.94" y1="177.66" x2="411.21" y2="173.61"/>
				<line class="st1" x1="400.68" y1="174.06" x2="405.94" y2="177.66"/>
				<line class="st1" x1="395.41" y1="157.86" x2="400.68" y2="174.06"/>
				<line class="st1" x1="390.15" y1="154.71" x2="395.41" y2="157.86"/>
				<line class="st1" x1="384.89" y1="154.26" x2="390.15" y2="154.71"/>
				<line class="st1" x1="379.62" y1="149.76" x2="384.89" y2="154.26"/>
				<line class="st1" x1="374.36" y1="141.21" x2="379.62" y2="149.76"/>
				<line class="st1" x1="369.1" y1="151.56" x2="374.36" y2="141.21"/>
				<line class="st1" x1="363.83" y1="148.41" x2="369.1" y2="151.56"/>
				<line class="st1" x1="358.57" y1="148.86" x2="363.83" y2="148.41"/>
				<line class="st1" x1="353.31" y1="147.06" x2="358.57" y2="148.86"/>
				<line class="st1" x1="348.04" y1="145.26" x2="353.31" y2="147.06"/>
				<line class="st1" x1="342.78" y1="141.21" x2="348.04" y2="145.26"/>
				<line class="st1" x1="337.51" y1="132.2" x2="342.78" y2="141.21"/>
				<line class="st1" x1="332.25" y1="150.66" x2="337.51" y2="132.2"/>
				<line class="st1" x1="326.99" y1="159.21" x2="332.25" y2="150.66"/>
				<line class="st1" x1="321.72" y1="153.81" x2="326.99" y2="159.21"/>
				<line class="st1" x1="316.46" y1="145.26" x2="321.72" y2="153.81"/>
				<line class="st1" x1="311.2" y1="161.01" x2="316.46" y2="145.26"/>
				<line class="st1" x1="305.93" y1="147.06" x2="311.2" y2="161.01"/>
				<line class="st1" x1="300.67" y1="118.25" x2="305.93" y2="147.06"/>
				<line class="st1" x1="295.41" y1="112.85" x2="300.67" y2="118.25"/>
				<line class="st1" x1="290.14" y1="105.65" x2="295.41" y2="112.85"/>
				<line class="st1" x1="284.88" y1="97.55" x2="290.14" y2="105.65"/>
				<line class="st1" x1="279.61" y1="85.85" x2="284.88" y2="97.55"/>
				<line class="st1" x1="274.35" y1="95.3" x2="279.61" y2="85.85"/>
				<line class="st1" x1="269.09" y1="108.35" x2="274.35" y2="95.3"/>
				<line class="st1" x1="263.82" y1="118.25" x2="269.09" y2="108.35"/>
				<line class="st1" x1="258.56" y1="118.7" x2="263.82" y2="118.25"/>
				<line class="st1" x1="253.3" y1="116.9" x2="258.56" y2="118.7"/>
				<line class="st1" x1="248.03" y1="99.8" x2="253.3" y2="116.9"/>
				<line class="st1" x1="242.77" y1="107.9" x2="248.03" y2="99.8"/>
				<line class="st1" x1="237.51" y1="102.95" x2="242.77" y2="107.9"/>
				<line class="st1" x1="232.24" y1="98.9" x2="237.51" y2="102.95"/>
				<line class="st1" x1="226.98" y1="102.95" x2="232.24" y2="98.9"/>
				<line class="st1" x1="221.71" y1="98" x2="226.98" y2="102.95"/>
				<line class="st1" x1="216.45" y1="88.1" x2="221.71" y2="98"/>
				<line class="st1" x1="211.19" y1="94.85" x2="216.45" y2="88.1"/>
				<line class="st1" x1="205.92" y1="107" x2="211.19" y2="94.85"/>
				<line class="st1" x1="200.66" y1="111.05" x2="205.92" y2="107"/>
				<line class="st1" x1="195.4" y1="115.55" x2="200.66" y2="111.05"/>
				<line class="st1" x1="190.13" y1="109.25" x2="195.4" y2="115.55"/>
				<line class="st1" x1="184.87" y1="116" x2="190.13" y2="109.25"/>
				<line class="st1" x1="179.61" y1="127.25" x2="184.87" y2="116"/>
				<line class="st1" x1="174.34" y1="125.45" x2="179.61" y2="127.25"/>
				<line class="st1" x1="169.08" y1="126.8" x2="174.34" y2="125.45"/>
				<line class="st1" x1="163.81" y1="124.55" x2="169.08" y2="126.8"/>
				<line class="st1" x1="158.55" y1="117.35" x2="163.81" y2="124.55"/>
				<line class="st1" x1="153.29" y1="110.6" x2="158.55" y2="117.35"/>
				<line class="st1" x1="148.02" y1="114.65" x2="153.29" y2="110.6"/>
				<line class="st1" x1="142.76" y1="116" x2="148.02" y2="114.65"/>
				<line class="st1" x1="137.5" y1="124.1" x2="142.76" y2="116"/>
				<line class="st1" x1="132.23" y1="136.71" x2="137.5" y2="124.1"/>
				<line class="st1" x1="126.97" y1="137.61" x2="132.23" y2="136.71"/>
				<line class="st1" x1="121.71" y1="144.81" x2="126.97" y2="137.61"/>
				<line class="st1" x1="116.44" y1="138.06" x2="121.71" y2="144.81"/>
				<line class="st1" x1="111.18" y1="141.21" x2="116.44" y2="138.06"/>
				<line class="st1" x1="105.91" y1="152.01" x2="111.18" y2="141.21"/>
				<line class="st1" x1="100.65" y1="154.26" x2="105.91" y2="152.01"/>
				<line class="st1" x1="95.39" y1="147.96" x2="100.65" y2="154.26"/>
				<line class="st1" x1="90.12" y1="152.91" x2="95.39" y2="147.96"/>
				<line class="st1" x1="84.86" y1="146.61" x2="90.12" y2="152.91"/>
				<line class="st1" x1="79.6" y1="140.76" x2="84.86" y2="146.61"/>
				<line class="st1" x1="74.33" y1="130.85" x2="79.6" y2="140.76"/>
				<line class="st1" x1="69.07" y1="126.35" x2="74.33" y2="130.85"/>
				<line class="st1" x1="63.81" y1="134.01" x2="69.07" y2="126.35"/>
				<line class="st1" x1="58.54" y1="128.15" x2="63.81" y2="134.01"/>
			</g>
		</g>
		<g>
			<g>
				<line class="st2" x1="1048.1" y1="291.53" x2="1053.37" y2="293.33"/>
				<line class="st2" x1="1042.84" y1="293.33" x2="1048.1" y2="291.53"/>
				<line class="st2" x1="1037.58" y1="292.88" x2="1042.84" y2="293.33"/>
				<line class="st2" x1="1032.31" y1="293.78" x2="1037.58" y2="292.88"/>
				<line class="st2" x1="1027.05" y1="295.58" x2="1032.31" y2="293.78"/>
				<line class="st2" x1="1021.79" y1="293.33" x2="1027.05" y2="295.58"/>
				<line class="st2" x1="1016.52" y1="300.98" x2="1021.79" y2="293.33"/>
				<line class="st2" x1="1011.26" y1="296.93" x2="1016.52" y2="300.98"/>
				<line class="st2" x1="1006" y1="294.68" x2="1011.26" y2="296.93"/>
				<line class="st2" x1="1000.73" y1="297.38" x2="1006" y2="294.68"/>
				<line class="st2" x1="995.47" y1="300.08" x2="1000.73" y2="297.38"/>
				<line class="st2" x1="990.2" y1="303.68" x2="995.47" y2="300.08"/>
				<line class="st2" x1="984.94" y1="306.38" x2="990.2" y2="303.68"/>
				<line class="st2" x1="979.68" y1="300.98" x2="984.94" y2="306.38"/>
				<line class="st2" x1="974.41" y1="300.98" x2="979.68" y2="300.98"/>
				<line class="st2" x1="969.15" y1="298.28" x2="974.41" y2="300.98"/>
				<line class="st2" x1="963.89" y1="296.03" x2="969.15" y2="298.28"/>
				<line class="st2" x1="958.62" y1="297.83" x2="963.89" y2="296.03"/>
				<line class="st2" x1="953.36" y1="295.13" x2="958.62" y2="297.83"/>
				<line class="st2" x1="948.1" y1="293.78" x2="953.36" y2="295.13"/>
				<line class="st2" x1="942.83" y1="294.23" x2="948.1" y2="293.78"/>
				<line class="st2" x1="937.57" y1="289.73" x2="942.83" y2="294.23"/>
				<line class="st2" x1="932.3" y1="288.38" x2="937.57" y2="289.73"/>
				<line class="st2" x1="927.04" y1="288.38" x2="932.3" y2="288.38"/>
				<line class="st2" x1="921.78" y1="289.28" x2="927.04" y2="288.38"/>
				<line class="st2" x1="916.51" y1="291.08" x2="921.78" y2="289.28"/>
				<line class="st2" x1="911.25" y1="292.43" x2="916.51" y2="291.08"/>
				<line class="st2" x1="905.99" y1="292.43" x2="911.25" y2="292.43"/>
				<line class="st2" x1="900.72" y1="291.53" x2="905.99" y2="292.43"/>
				<line class="st2" x1="895.46" y1="291.98" x2="900.72" y2="291.53"/>
				<line class="st2" x1="890.2" y1="291.53" x2="895.46" y2="291.98"/>
				<line class="st2" x1="884.93" y1="290.18" x2="890.2" y2="291.53"/>
				<line class="st2" x1="879.67" y1="291.98" x2="884.93" y2="290.18"/>
				<line class="st2" x1="874.4" y1="292.43" x2="879.67" y2="291.98"/>
				<line class="st2" x1="869.14" y1="291.08" x2="874.4" y2="292.43"/>
				<line class="st2" x1="863.88" y1="291.08" x2="869.14" y2="291.08"/>
				<line class="st2" x1="858.61" y1="293.78" x2="863.88" y2="291.08"/>
				<line class="st2" x1="853.35" y1="290.18" x2="858.61" y2="293.78"/>
				<line class="st2" x1="848.09" y1="290.18" x2="853.35" y2="290.18"/>
				<line class="st2" x1="842.82" y1="291.98" x2="848.09" y2="290.18"/>
				<line class="st2" x1="837.56" y1="293.33" x2="842.82" y2="291.98"/>
				<line class="st2" x1="832.3" y1="290.63" x2="837.56" y2="293.33"/>
				<line class="st2" x1="827.03" y1="291.53" x2="832.3" y2="290.63"/>
				<line class="st2" x1="821.77" y1="290.18" x2="827.03" y2="291.53"/>
				<line class="st2" x1="816.5" y1="291.98" x2="821.77" y2="290.18"/>
				<line class="st2" x1="811.24" y1="292.88" x2="816.5" y2="291.98"/>
				<line class="st2" x1="805.98" y1="296.03" x2="811.24" y2="292.88"/>
				<line class="st2" x1="800.71" y1="297.83" x2="805.98" y2="296.03"/>
				<line class="st2" x1="795.45" y1="296.93" x2="800.71" y2="297.83"/>
				<line class="st2" x1="790.19" y1="302.78" x2="795.45" y2="296.93"/>
				<line class="st2" x1="784.92" y1="303.68" x2="790.19" y2="302.78"/>
				<line class="st2" x1="779.66" y1="299.18" x2="784.92" y2="303.68"/>
				<line class="st2" x1="774.4" y1="297.38" x2="779.66" y2="299.18"/>
				<line class="st2" x1="769.13" y1="295.58" x2="774.4" y2="297.38"/>
				<line class="st2" x1="763.87" y1="296.93" x2="769.13" y2="295.58"/>
				<line class="st2" x1="758.6" y1="289.28" x2="763.87" y2="296.93"/>
				<line class="st2" x1="753.34" y1="282.08" x2="758.6" y2="289.28"/>
				<line class="st2" x1="748.08" y1="280.28" x2="753.34" y2="282.08"/>
				<line class="st2" x1="742.81" y1="280.28" x2="748.08" y2="280.28"/>
				<line class="st2" x1="737.55" y1="278.03" x2="742.81" y2="280.28"/>
				<line class="st2" x1="732.29" y1="276.68" x2="737.55" y2="278.03"/>
				<line class="st2" x1="727.02" y1="275.33" x2="732.29" y2="276.68"/>
				<line class="st2" x1="721.76" y1="273.08" x2="727.02" y2="275.33"/>
				<line class="st2" x1="716.5" y1="276.23" x2="721.76" y2="273.08"/>
				<line class="st2" x1="711.23" y1="278.48" x2="716.5" y2="276.23"/>
				<line class="st2" x1="705.97" y1="275.78" x2="711.23" y2="278.48"/>
				<line class="st2" x1="700.7" y1="278.93" x2="705.97" y2="275.78"/>
				<line class="st2" x1="695.44" y1="281.63" x2="700.7" y2="278.93"/>
				<line class="st2" x1="690.18" y1="279.38" x2="695.44" y2="281.63"/>
				<line class="st2" x1="684.91" y1="274.88" x2="690.18" y2="279.38"/>
				<line class="st2" x1="679.65" y1="273.53" x2="684.91" y2="274.88"/>
				<line class="st2" x1="674.39" y1="269.93" x2="679.65" y2="273.53"/>
				<line class="st2" x1="669.12" y1="271.73" x2="674.39" y2="269.93"/>
				<line class="st2" x1="663.86" y1="269.93" x2="669.12" y2="271.73"/>
				<line class="st2" x1="658.6" y1="268.58" x2="663.86" y2="269.93"/>
				<line class="st2" x1="653.33" y1="268.13" x2="658.6" y2="268.58"/>
				<line class="st2" x1="648.07" y1="265.88" x2="653.33" y2="268.13"/>
				<line class="st2" x1="642.8" y1="264.98" x2="648.07" y2="265.88"/>
				<line class="st2" x1="637.54" y1="267.68" x2="642.8" y2="264.98"/>
				<line class="st2" x1="632.28" y1="265.88" x2="637.54" y2="267.68"/>
				<line class="st2" x1="627.01" y1="260.48" x2="632.28" y2="265.88"/>
				<line class="st2" x1="621.75" y1="266.78" x2="627.01" y2="260.48"/>
				<line class="st2" x1="616.49" y1="267.23" x2="621.75" y2="266.78"/>
				<line class="st2" x1="611.22" y1="263.18" x2="616.49" y2="267.23"/>
				<line class="st2" x1="605.96" y1="261.38" x2="611.22" y2="263.18"/>
				<line class="st2" x1="600.7" y1="257.78" x2="605.96" y2="261.38"/>
				<line class="st2" x1="595.43" y1="255.53" x2="600.7" y2="257.78"/>
				<line class="st2" x1="590.17" y1="255.53" x2="595.43" y2="255.53"/>
				<line class="st2" x1="584.9" y1="266.78" x2="590.17" y2="255.53"/>
				<line class="st2" x1="579.64" y1="269.03" x2="584.9" y2="266.78"/>
				<line class="st2" x1="574.38" y1="264.08" x2="579.64" y2="269.03"/>
				<line class="st2" x1="569.11" y1="260.03" x2="574.38" y2="264.08"/>
				<line class="st2" x1="563.85" y1="258.23" x2="569.11" y2="260.03"/>
				<line class="st2" x1="558.59" y1="261.83" x2="563.85" y2="258.23"/>
				<line class="st2" x1="553.32" y1="259.13" x2="558.59" y2="261.83"/>
				<line class="st2" x1="548.06" y1="259.13" x2="553.32" y2="259.13"/>
				<line class="st2" x1="542.8" y1="258.23" x2="548.06" y2="259.13"/>
				<line class="st2" x1="537.53" y1="258.23" x2="542.8" y2="258.23"/>
				<line class="st2" x1="532.27" y1="256.43" x2="537.53" y2="258.23"/>
				<line class="st2" x1="527.01" y1="256.88" x2="532.27" y2="256.43"/>
				<line class="st2" x1="521.74" y1="253.73" x2="527.01" y2="256.88"/>
				<line class="st2" x1="516.48" y1="249.67" x2="521.74" y2="253.73"/>
				<line class="st2" x1="511.21" y1="250.57" x2="516.48" y2="249.67"/>
				<line class="st2" x1="505.95" y1="250.57" x2="511.21" y2="250.57"/>
				<line class="st2" x1="500.69" y1="249.67" x2="505.95" y2="250.57"/>
				<line class="st2" x1="495.42" y1="245.62" x2="500.69" y2="249.67"/>
				<line class="st2" x1="490.16" y1="246.97" x2="495.42" y2="245.62"/>
				<line class="st2" x1="484.9" y1="247.42" x2="490.16" y2="246.97"/>
				<line class="st2" x1="479.63" y1="247.42" x2="484.9" y2="247.42"/>
				<line class="st2" x1="474.37" y1="245.17" x2="479.63" y2="247.42"/>
				<line class="st2" x1="469.11" y1="242.47" x2="474.37" y2="245.17"/>
				<line class="st2" x1="463.84" y1="241.57" x2="469.11" y2="242.47"/>
				<line class="st2" x1="458.58" y1="239.32" x2="463.84" y2="241.57"/>
				<line class="st2" x1="453.31" y1="237.07" x2="458.58" y2="239.32"/>
				<line class="st2" x1="448.05" y1="237.07" x2="453.31" y2="237.07"/>
				<line class="st2" x1="442.79" y1="238.87" x2="448.05" y2="237.07"/>
				<line class="st2" x1="437.52" y1="242.92" x2="442.79" y2="238.87"/>
				<line class="st2" x1="432.26" y1="240.22" x2="437.52" y2="242.92"/>
				<line class="st2" x1="427" y1="251.48" x2="432.26" y2="240.22"/>
				<line class="st2" x1="421.73" y1="251.48" x2="427" y2="251.48"/>
				<line class="st2" x1="416.47" y1="250.12" x2="421.73" y2="251.48"/>
				<line class="st2" x1="411.21" y1="245.62" x2="416.47" y2="250.12"/>
				<line class="st2" x1="405.94" y1="244.72" x2="411.21" y2="245.62"/>
				<line class="st2" x1="400.68" y1="236.62" x2="405.94" y2="244.72"/>
				<line class="st2" x1="395.41" y1="235.72" x2="400.68" y2="236.62"/>
				<line class="st2" x1="390.15" y1="230.77" x2="395.41" y2="235.72"/>
				<line class="st2" x1="384.89" y1="234.82" x2="390.15" y2="230.77"/>
				<line class="st2" x1="379.62" y1="233.92" x2="384.89" y2="234.82"/>
				<line class="st2" x1="374.36" y1="235.27" x2="379.62" y2="233.92"/>
				<line class="st2" x1="369.1" y1="236.62" x2="374.36" y2="235.27"/>
				<line class="st2" x1="363.83" y1="229.87" x2="369.1" y2="236.62"/>
				<line class="st2" x1="358.57" y1="235.27" x2="363.83" y2="229.87"/>
				<line class="st2" x1="353.31" y1="234.82" x2="358.57" y2="235.27"/>
				<line class="st2" x1="348.04" y1="229.87" x2="353.31" y2="234.82"/>
				<line class="st2" x1="342.78" y1="232.57" x2="348.04" y2="229.87"/>
				<line class="st2" x1="337.51" y1="226.72" x2="342.78" y2="232.57"/>
				<line class="st2" x1="332.25" y1="229.42" x2="337.51" y2="226.72"/>
				<line class="st2" x1="326.99" y1="233.02" x2="332.25" y2="229.42"/>
				<line class="st2" x1="321.72" y1="236.17" x2="326.99" y2="233.02"/>
				<line class="st2" x1="316.46" y1="235.27" x2="321.72" y2="236.17"/>
				<line class="st2" x1="311.2" y1="240.67" x2="316.46" y2="235.27"/>
				<line class="st2" x1="305.93" y1="230.77" x2="311.2" y2="240.67"/>
				<line class="st2" x1="300.67" y1="227.17" x2="305.93" y2="230.77"/>
				<line class="st2" x1="295.41" y1="227.62" x2="300.67" y2="227.17"/>
				<line class="st2" x1="290.14" y1="229.87" x2="295.41" y2="227.62"/>
				<line class="st2" x1="284.88" y1="224.47" x2="290.14" y2="229.87"/>
				<line class="st2" x1="279.61" y1="221.77" x2="284.88" y2="224.47"/>
				<line class="st2" x1="274.35" y1="214.57" x2="279.61" y2="221.77"/>
				<line class="st2" x1="269.09" y1="222.22" x2="274.35" y2="214.57"/>
				<line class="st2" x1="263.82" y1="236.17" x2="269.09" y2="222.22"/>
				<line class="st2" x1="258.56" y1="232.12" x2="263.82" y2="236.17"/>
				<line class="st2" x1="253.3" y1="228.97" x2="258.56" y2="232.12"/>
				<line class="st2" x1="248.03" y1="225.82" x2="253.3" y2="228.97"/>
				<line class="st2" x1="242.77" y1="227.17" x2="248.03" y2="225.82"/>
				<line class="st2" x1="237.51" y1="221.32" x2="242.77" y2="227.17"/>
				<line class="st2" x1="232.24" y1="217.72" x2="237.51" y2="221.32"/>
				<line class="st2" x1="226.98" y1="221.32" x2="232.24" y2="217.72"/>
				<line class="st2" x1="221.71" y1="212.77" x2="226.98" y2="221.32"/>
				<line class="st2" x1="216.45" y1="209.17" x2="221.71" y2="212.77"/>
				<line class="st2" x1="211.19" y1="215.02" x2="216.45" y2="209.17"/>
				<line class="st2" x1="205.92" y1="219.07" x2="211.19" y2="215.02"/>
				<line class="st2" x1="200.66" y1="219.07" x2="205.92" y2="219.07"/>
				<line class="st2" x1="195.4" y1="219.97" x2="200.66" y2="219.07"/>
				<line class="st2" x1="190.13" y1="217.27" x2="195.4" y2="219.97"/>
				<line class="st2" x1="184.87" y1="217.72" x2="190.13" y2="217.27"/>
				<line class="st2" x1="179.61" y1="219.52" x2="184.87" y2="217.72"/>
				<line class="st2" x1="174.34" y1="216.82" x2="179.61" y2="219.52"/>
				<line class="st2" x1="169.08" y1="218.62" x2="174.34" y2="216.82"/>
				<line class="st2" x1="163.81" y1="220.87" x2="169.08" y2="218.62"/>
				<line class="st2" x1="158.55" y1="207.37" x2="163.81" y2="220.87"/>
				<line class="st2" x1="153.29" y1="207.37" x2="158.55" y2="207.37"/>
				<line class="st2" x1="148.02" y1="211.42" x2="153.29" y2="207.37"/>
				<line class="st2" x1="142.76" y1="207.37" x2="148.02" y2="211.42"/>
				<line class="st2" x1="137.5" y1="214.12" x2="142.76" y2="207.37"/>
				<line class="st2" x1="132.23" y1="222.22" x2="137.5" y2="214.12"/>
				<line class="st2" x1="126.97" y1="223.57" x2="132.23" y2="222.22"/>
				<line class="st2" x1="121.71" y1="227.62" x2="126.97" y2="223.57"/>
				<line class="st2" x1="116.44" y1="229.42" x2="121.71" y2="227.62"/>
				<line class="st2" x1="111.18" y1="224.47" x2="116.44" y2="229.42"/>
				<line class="st2" x1="105.91" y1="227.62" x2="111.18" y2="224.47"/>
				<line class="st2" x1="100.65" y1="233.47" x2="105.91" y2="227.62"/>
				<line class="st2" x1="95.39" y1="235.27" x2="100.65" y2="233.47"/>
				<line class="st2" x1="90.12" y1="241.57" x2="95.39" y2="235.27"/>
				<line class="st2" x1="84.86" y1="237.97" x2="90.12" y2="241.57"/>
				<line class="st2" x1="79.6" y1="237.97" x2="84.86" y2="237.97"/>
				<line class="st2" x1="74.33" y1="234.37" x2="79.6" y2="237.97"/>
				<line class="st2" x1="69.07" y1="227.62" x2="74.33" y2="234.37"/>
				<line class="st2" x1="63.81" y1="234.37" x2="69.07" y2="227.62"/>
				<line class="st2" x1="58.54" y1="229.42" x2="63.81" y2="234.37"/>
			</g>
		</g>
		<g>
			<g>
				<line class="st3" x1="1048.1" y1="262.28" x2="1053.37" y2="263.18"/>
				<line class="st3" x1="1042.84" y1="269.93" x2="1048.1" y2="262.28"/>
				<line class="st3" x1="1037.58" y1="264.08" x2="1042.84" y2="269.93"/>
				<line class="st3" x1="1032.31" y1="264.53" x2="1037.58" y2="264.08"/>
				<line class="st3" x1="1027.05" y1="264.98" x2="1032.31" y2="264.53"/>
				<line class="st3" x1="1021.79" y1="263.63" x2="1027.05" y2="264.98"/>
				<line class="st3" x1="1016.52" y1="242.02" x2="1021.79" y2="263.63"/>
				<line class="st3" x1="1011.26" y1="225.82" x2="1016.52" y2="242.02"/>
				<line class="st3" x1="1006" y1="207.37" x2="1011.26" y2="225.82"/>
				<line class="st3" x1="1000.73" y1="213.67" x2="1006" y2="207.37"/>
				<line class="st3" x1="995.47" y1="217.72" x2="1000.73" y2="213.67"/>
				<line class="st3" x1="990.2" y1="219.07" x2="995.47" y2="217.72"/>
				<line class="st3" x1="984.94" y1="226.27" x2="990.2" y2="219.07"/>
				<line class="st3" x1="979.68" y1="203.32" x2="984.94" y2="226.27"/>
				<line class="st3" x1="974.41" y1="203.32" x2="979.68" y2="203.32"/>
				<line class="st3" x1="969.15" y1="198.37" x2="974.41" y2="203.32"/>
				<line class="st3" x1="963.89" y1="181.26" x2="969.15" y2="198.37"/>
				<line class="st3" x1="958.62" y1="185.31" x2="963.89" y2="181.26"/>
				<line class="st3" x1="953.36" y1="171.36" x2="958.62" y2="185.31"/>
				<line class="st3" x1="948.1" y1="175.41" x2="953.36" y2="171.36"/>
				<line class="st3" x1="942.83" y1="173.16" x2="948.1" y2="175.41"/>
				<line class="st3" x1="937.57" y1="159.21" x2="942.83" y2="173.16"/>
				<line class="st3" x1="932.3" y1="152.46" x2="937.57" y2="159.21"/>
				<line class="st3" x1="927.04" y1="156.06" x2="932.3" y2="152.46"/>
				<line class="st3" x1="921.78" y1="165.06" x2="927.04" y2="156.06"/>
				<line class="st3" x1="916.51" y1="160.56" x2="921.78" y2="165.06"/>
				<line class="st3" x1="911.25" y1="165.06" x2="916.51" y2="160.56"/>
				<line class="st3" x1="905.99" y1="165.06" x2="911.25" y2="165.06"/>
				<line class="st3" x1="900.72" y1="161.01" x2="905.99" y2="165.06"/>
				<line class="st3" x1="895.46" y1="170.46" x2="900.72" y2="161.01"/>
				<line class="st3" x1="890.2" y1="165.06" x2="895.46" y2="170.46"/>
				<line class="st3" x1="884.93" y1="171.81" x2="890.2" y2="165.06"/>
				<line class="st3" x1="879.67" y1="185.31" x2="884.93" y2="171.81"/>
				<line class="st3" x1="874.4" y1="185.31" x2="879.67" y2="185.31"/>
				<line class="st3" x1="869.14" y1="186.66" x2="874.4" y2="185.31"/>
				<line class="st3" x1="863.88" y1="188.91" x2="869.14" y2="186.66"/>
				<line class="st3" x1="858.61" y1="198.37" x2="863.88" y2="188.91"/>
				<line class="st3" x1="853.35" y1="190.71" x2="858.61" y2="198.37"/>
				<line class="st3" x1="848.09" y1="190.26" x2="853.35" y2="190.71"/>
				<line class="st3" x1="842.82" y1="194.77" x2="848.09" y2="190.26"/>
				<line class="st3" x1="837.56" y1="191.16" x2="842.82" y2="194.77"/>
				<line class="st3" x1="832.3" y1="186.21" x2="837.56" y2="191.16"/>
				<line class="st3" x1="827.03" y1="186.21" x2="832.3" y2="186.21"/>
				<line class="st3" x1="821.77" y1="183.51" x2="827.03" y2="186.21"/>
				<line class="st3" x1="816.5" y1="183.96" x2="821.77" y2="183.51"/>
				<line class="st3" x1="811.24" y1="186.66" x2="816.5" y2="183.96"/>
				<line class="st3" x1="805.98" y1="211.42" x2="811.24" y2="186.66"/>
				<line class="st3" x1="800.71" y1="222.22" x2="805.98" y2="211.42"/>
				<line class="st3" x1="795.45" y1="222.67" x2="800.71" y2="222.22"/>
				<line class="st3" x1="790.19" y1="228.52" x2="795.45" y2="222.67"/>
				<line class="st3" x1="784.92" y1="227.62" x2="790.19" y2="228.52"/>
				<line class="st3" x1="779.66" y1="210.52" x2="784.92" y2="227.62"/>
				<line class="st3" x1="774.4" y1="211.42" x2="779.66" y2="210.52"/>
				<line class="st3" x1="769.13" y1="214.12" x2="774.4" y2="211.42"/>
				<line class="st3" x1="763.87" y1="215.92" x2="769.13" y2="214.12"/>
				<line class="st3" x1="758.6" y1="207.37" x2="763.87" y2="215.92"/>
				<line class="st3" x1="753.34" y1="191.61" x2="758.6" y2="207.37"/>
				<line class="st3" x1="748.08" y1="194.32" x2="753.34" y2="191.61"/>
				<line class="st3" x1="742.81" y1="197.47" x2="748.08" y2="194.32"/>
				<line class="st3" x1="737.55" y1="201.97" x2="742.81" y2="197.47"/>
				<line class="st3" x1="732.29" y1="193.87" x2="737.55" y2="201.97"/>
				<line class="st3" x1="727.02" y1="195.67" x2="732.29" y2="193.87"/>
				<line class="st3" x1="721.76" y1="188.01" x2="727.02" y2="195.67"/>
				<line class="st3" x1="716.5" y1="198.37" x2="721.76" y2="188.01"/>
				<line class="st3" x1="711.23" y1="202.42" x2="716.5" y2="198.37"/>
				<line class="st3" x1="705.97" y1="207.37" x2="711.23" y2="202.42"/>
				<line class="st3" x1="700.7" y1="204.22" x2="705.97" y2="207.37"/>
				<line class="st3" x1="695.44" y1="219.97" x2="700.7" y2="204.22"/>
				<line class="st3" x1="690.18" y1="196.12" x2="695.44" y2="219.97"/>
				<line class="st3" x1="684.91" y1="196.57" x2="690.18" y2="196.12"/>
				<line class="st3" x1="679.65" y1="188.46" x2="684.91" y2="196.57"/>
				<line class="st3" x1="674.39" y1="181.71" x2="679.65" y2="188.46"/>
				<line class="st3" x1="669.12" y1="188.46" x2="674.39" y2="181.71"/>
				<line class="st3" x1="663.86" y1="178.56" x2="669.12" y2="188.46"/>
				<line class="st3" x1="658.6" y1="179.91" x2="663.86" y2="178.56"/>
				<line class="st3" x1="653.33" y1="182.16" x2="658.6" y2="179.91"/>
				<line class="st3" x1="648.07" y1="174.51" x2="653.33" y2="182.16"/>
				<line class="st3" x1="642.8" y1="171.36" x2="648.07" y2="174.51"/>
				<line class="st3" x1="637.54" y1="174.51" x2="642.8" y2="171.36"/>
				<line class="st3" x1="632.28" y1="174.96" x2="637.54" y2="174.51"/>
				<line class="st3" x1="627.01" y1="157.41" x2="632.28" y2="174.96"/>
				<line class="st3" x1="621.75" y1="170.46" x2="627.01" y2="157.41"/>
				<line class="st3" x1="616.49" y1="179.01" x2="621.75" y2="170.46"/>
				<line class="st3" x1="611.22" y1="176.31" x2="616.49" y2="179.01"/>
				<line class="st3" x1="605.96" y1="168.66" x2="611.22" y2="176.31"/>
				<line class="st3" x1="600.7" y1="177.66" x2="605.96" y2="168.66"/>
				<line class="st3" x1="595.43" y1="181.71" x2="600.7" y2="177.66"/>
				<line class="st3" x1="590.17" y1="197.92" x2="595.43" y2="181.71"/>
				<line class="st3" x1="584.9" y1="218.62" x2="590.17" y2="197.92"/>
				<line class="st3" x1="579.64" y1="210.52" x2="584.9" y2="218.62"/>
				<line class="st3" x1="574.38" y1="209.17" x2="579.64" y2="210.52"/>
				<line class="st3" x1="569.11" y1="204.67" x2="574.38" y2="209.17"/>
				<line class="st3" x1="563.85" y1="214.57" x2="569.11" y2="204.67"/>
				<line class="st3" x1="558.59" y1="220.87" x2="563.85" y2="214.57"/>
				<line class="st3" x1="553.32" y1="217.72" x2="558.59" y2="220.87"/>
				<line class="st3" x1="548.06" y1="220.42" x2="553.32" y2="217.72"/>
				<line class="st3" x1="542.8" y1="224.02" x2="548.06" y2="220.42"/>
				<line class="st3" x1="537.53" y1="227.62" x2="542.8" y2="224.02"/>
				<line class="st3" x1="532.27" y1="219.97" x2="537.53" y2="227.62"/>
				<line class="st3" x1="527.01" y1="223.57" x2="532.27" y2="219.97"/>
				<line class="st3" x1="521.74" y1="207.82" x2="527.01" y2="223.57"/>
				<line class="st3" x1="516.48" y1="194.32" x2="521.74" y2="207.82"/>
				<line class="st3" x1="511.21" y1="205.12" x2="516.48" y2="194.32"/>
				<line class="st3" x1="505.95" y1="212.77" x2="511.21" y2="205.12"/>
				<line class="st3" x1="500.69" y1="209.17" x2="505.95" y2="212.77"/>
				<line class="st3" x1="495.42" y1="200.62" x2="500.69" y2="209.17"/>
				<line class="st3" x1="490.16" y1="198.82" x2="495.42" y2="200.62"/>
				<line class="st3" x1="484.9" y1="207.37" x2="490.16" y2="198.82"/>
				<line class="st3" x1="479.63" y1="193.87" x2="484.9" y2="207.37"/>
				<line class="st3" x1="474.37" y1="167.76" x2="479.63" y2="193.87"/>
				<line class="st3" x1="469.11" y1="151.56" x2="474.37" y2="167.76"/>
				<line class="st3" x1="463.84" y1="156.06" x2="469.11" y2="151.56"/>
				<line class="st3" x1="458.58" y1="145.71" x2="463.84" y2="156.06"/>
				<line class="st3" x1="453.31" y1="137.61" x2="458.58" y2="145.71"/>
				<line class="st3" x1="448.05" y1="139.41" x2="453.31" y2="137.61"/>
				<line class="st3" x1="442.79" y1="142.11" x2="448.05" y2="139.41"/>
				<line class="st3" x1="437.52" y1="145.71" x2="442.79" y2="142.11"/>
				<line class="st3" x1="432.26" y1="167.76" x2="437.52" y2="145.71"/>
				<line class="st3" x1="427" y1="176.76" x2="432.26" y2="167.76"/>
				<line class="st3" x1="421.73" y1="180.81" x2="427" y2="176.76"/>
				<line class="st3" x1="416.47" y1="182.61" x2="421.73" y2="180.81"/>
				<line class="st3" x1="411.21" y1="162.81" x2="416.47" y2="182.61"/>
				<line class="st3" x1="405.94" y1="161.91" x2="411.21" y2="162.81"/>
				<line class="st3" x1="400.68" y1="146.16" x2="405.94" y2="161.91"/>
				<line class="st3" x1="395.41" y1="129.5" x2="400.68" y2="146.16"/>
				<line class="st3" x1="390.15" y1="121.4" x2="395.41" y2="129.5"/>
				<line class="st3" x1="384.89" y1="131.3" x2="390.15" y2="121.4"/>
				<line class="st3" x1="379.62" y1="132.66" x2="384.89" y2="131.3"/>
				<line class="st3" x1="374.36" y1="120.95" x2="379.62" y2="132.66"/>
				<line class="st3" x1="369.1" y1="149.76" x2="374.36" y2="120.95"/>
				<line class="st3" x1="363.83" y1="141.66" x2="369.1" y2="149.76"/>
				<line class="st3" x1="358.57" y1="144.81" x2="363.83" y2="141.66"/>
				<line class="st3" x1="353.31" y1="140.76" x2="358.57" y2="144.81"/>
				<line class="st3" x1="348.04" y1="137.16" x2="353.31" y2="140.76"/>
				<line class="st3" x1="342.78" y1="134.91" x2="348.04" y2="137.16"/>
				<line class="st3" x1="337.51" y1="138.06" x2="342.78" y2="134.91"/>
				<line class="st3" x1="332.25" y1="153.36" x2="337.51" y2="138.06"/>
				<line class="st3" x1="326.99" y1="174.06" x2="332.25" y2="153.36"/>
				<line class="st3" x1="321.72" y1="158.31" x2="326.99" y2="174.06"/>
				<line class="st3" x1="316.46" y1="165.96" x2="321.72" y2="158.31"/>
				<line class="st3" x1="311.2" y1="194.32" x2="316.46" y2="165.96"/>
				<line class="st3" x1="305.93" y1="162.36" x2="311.2" y2="194.32"/>
				<line class="st3" x1="300.67" y1="116" x2="305.93" y2="162.36"/>
				<line class="st3" x1="295.41" y1="121.85" x2="300.67" y2="116"/>
				<line class="st3" x1="290.14" y1="122.3" x2="295.41" y2="121.85"/>
				<line class="st3" x1="284.88" y1="116" x2="290.14" y2="122.3"/>
				<line class="st3" x1="279.61" y1="115.1" x2="284.88" y2="116"/>
				<line class="st3" x1="274.35" y1="111.05" x2="279.61" y2="115.1"/>
				<line class="st3" x1="269.09" y1="125.9" x2="274.35" y2="111.05"/>
				<line class="st3" x1="263.82" y1="140.31" x2="269.09" y2="125.9"/>
				<line class="st3" x1="258.56" y1="135.81" x2="263.82" y2="140.31"/>
				<line class="st3" x1="253.3" y1="132.2" x2="258.56" y2="135.81"/>
				<line class="st3" x1="248.03" y1="112.85" x2="253.3" y2="132.2"/>
				<line class="st3" x1="242.77" y1="116.45" x2="248.03" y2="112.85"/>
				<line class="st3" x1="237.51" y1="92.6" x2="242.77" y2="116.45"/>
				<line class="st3" x1="232.24" y1="87.2" x2="237.51" y2="92.6"/>
				<line class="st3" x1="226.98" y1="89.9" x2="232.24" y2="87.2"/>
				<line class="st3" x1="221.71" y1="80.45" x2="226.98" y2="89.9"/>
				<line class="st3" x1="216.45" y1="67.84" x2="221.71" y2="80.45"/>
				<line class="st3" x1="211.19" y1="73.7" x2="216.45" y2="67.84"/>
				<line class="st3" x1="205.92" y1="85.85" x2="211.19" y2="73.7"/>
				<line class="st3" x1="200.66" y1="84.95" x2="205.92" y2="85.85"/>
				<line class="st3" x1="195.4" y1="88.1" x2="200.66" y2="84.95"/>
				<line class="st3" x1="190.13" y1="77.3" x2="195.4" y2="88.1"/>
				<line class="st3" x1="184.87" y1="82.25" x2="190.13" y2="77.3"/>
				<line class="st3" x1="179.61" y1="93.05" x2="184.87" y2="82.25"/>
				<line class="st3" x1="174.34" y1="86.75" x2="179.61" y2="93.05"/>
				<line class="st3" x1="169.08" y1="85.4" x2="174.34" y2="86.75"/>
				<line class="st3" x1="163.81" y1="80.9" x2="169.08" y2="85.4"/>
				<line class="st3" x1="158.55" y1="69.64" x2="163.81" y2="80.9"/>
				<line class="st3" x1="153.29" y1="62.44" x2="158.55" y2="69.64"/>
				<line class="st3" x1="148.02" y1="63.34" x2="153.29" y2="62.44"/>
				<line class="st3" x1="142.76" y1="66.49" x2="148.02" y2="63.34"/>
				<line class="st3" x1="137.5" y1="75.5" x2="142.76" y2="66.49"/>
				<line class="st3" x1="132.23" y1="89" x2="137.5" y2="75.5"/>
				<line class="st3" x1="126.97" y1="90.35" x2="132.23" y2="89"/>
				<line class="st3" x1="121.71" y1="96.2" x2="126.97" y2="90.35"/>
				<line class="st3" x1="116.44" y1="92.15" x2="121.71" y2="96.2"/>
				<line class="st3" x1="111.18" y1="89" x2="116.44" y2="92.15"/>
				<line class="st3" x1="105.91" y1="99.35" x2="111.18" y2="89"/>
				<line class="st3" x1="100.65" y1="113.3" x2="105.91" y2="99.35"/>
				<line class="st3" x1="95.39" y1="101.15" x2="100.65" y2="113.3"/>
				<line class="st3" x1="90.12" y1="117.8" x2="95.39" y2="101.15"/>
				<line class="st3" x1="84.86" y1="114.65" x2="90.12" y2="117.8"/>
				<line class="st3" x1="79.6" y1="104.75" x2="84.86" y2="114.65"/>
				<line class="st3" x1="74.33" y1="92.15" x2="79.6" y2="104.75"/>
				<line class="st3" x1="69.07" y1="96.65" x2="74.33" y2="92.15"/>
				<line class="st3" x1="63.81" y1="107.9" x2="69.07" y2="96.65"/>
				<line class="st3" x1="58.54" y1="103.85" x2="63.81" y2="107.9"/>
			</g>
		</g>
		<g>
			<g>
				<line class="st4" x1="1048.1" y1="265.88" x2="1053.37" y2="268.58"/>
				<line class="st4" x1="1042.84" y1="273.08" x2="1048.1" y2="265.88"/>
				<line class="st4" x1="1037.58" y1="269.93" x2="1042.84" y2="273.08"/>
				<line class="st4" x1="1032.31" y1="269.93" x2="1037.58" y2="269.93"/>
				<line class="st4" x1="1027.05" y1="269.48" x2="1032.31" y2="269.93"/>
				<line class="st4" x1="1021.79" y1="262.73" x2="1027.05" y2="269.48"/>
				<line class="st4" x1="1016.52" y1="242.92" x2="1021.79" y2="262.73"/>
				<line class="st4" x1="1011.26" y1="236.62" x2="1016.52" y2="242.92"/>
				<line class="st4" x1="1006" y1="217.27" x2="1011.26" y2="236.62"/>
				<line class="st4" x1="1000.73" y1="228.07" x2="1006" y2="217.27"/>
				<line class="st4" x1="995.47" y1="230.32" x2="1000.73" y2="228.07"/>
				<line class="st4" x1="990.2" y1="232.57" x2="995.47" y2="230.32"/>
				<line class="st4" x1="984.94" y1="241.57" x2="990.2" y2="232.57"/>
				<line class="st4" x1="979.68" y1="227.17" x2="984.94" y2="241.57"/>
				<line class="st4" x1="974.41" y1="228.07" x2="979.68" y2="227.17"/>
				<line class="st4" x1="969.15" y1="226.72" x2="974.41" y2="228.07"/>
				<line class="st4" x1="963.89" y1="216.82" x2="969.15" y2="226.72"/>
				<line class="st4" x1="958.62" y1="220.87" x2="963.89" y2="216.82"/>
				<line class="st4" x1="953.36" y1="206.47" x2="958.62" y2="220.87"/>
				<line class="st4" x1="948.1" y1="209.17" x2="953.36" y2="206.47"/>
				<line class="st4" x1="942.83" y1="205.12" x2="948.1" y2="209.17"/>
				<line class="st4" x1="937.57" y1="191.61" x2="942.83" y2="205.12"/>
				<line class="st4" x1="932.3" y1="181.71" x2="937.57" y2="191.61"/>
				<line class="st4" x1="927.04" y1="184.41" x2="932.3" y2="181.71"/>
				<line class="st4" x1="921.78" y1="193.42" x2="927.04" y2="184.41"/>
				<line class="st4" x1="916.51" y1="189.81" x2="921.78" y2="193.42"/>
				<line class="st4" x1="911.25" y1="196.12" x2="916.51" y2="189.81"/>
				<line class="st4" x1="905.99" y1="192.97" x2="911.25" y2="196.12"/>
				<line class="st4" x1="900.72" y1="190.26" x2="905.99" y2="192.97"/>
				<line class="st4" x1="895.46" y1="199.72" x2="900.72" y2="190.26"/>
				<line class="st4" x1="890.2" y1="193.42" x2="895.46" y2="199.72"/>
				<line class="st4" x1="884.93" y1="190.71" x2="890.2" y2="193.42"/>
				<line class="st4" x1="879.67" y1="201.97" x2="884.93" y2="190.71"/>
				<line class="st4" x1="874.4" y1="208.72" x2="879.67" y2="201.97"/>
				<line class="st4" x1="869.14" y1="206.02" x2="874.4" y2="208.72"/>
				<line class="st4" x1="863.88" y1="199.27" x2="869.14" y2="206.02"/>
				<line class="st4" x1="858.61" y1="210.52" x2="863.88" y2="199.27"/>
				<line class="st4" x1="853.35" y1="201.52" x2="858.61" y2="210.52"/>
				<line class="st4" x1="848.09" y1="214.57" x2="853.35" y2="201.52"/>
				<line class="st4" x1="842.82" y1="229.87" x2="848.09" y2="214.57"/>
				<line class="st4" x1="837.56" y1="224.02" x2="842.82" y2="229.87"/>
				<line class="st4" x1="832.3" y1="220.87" x2="837.56" y2="224.02"/>
				<line class="st4" x1="827.03" y1="220.42" x2="832.3" y2="220.87"/>
				<line class="st4" x1="821.77" y1="214.57" x2="827.03" y2="220.42"/>
				<line class="st4" x1="816.5" y1="216.37" x2="821.77" y2="214.57"/>
				<line class="st4" x1="811.24" y1="222.67" x2="816.5" y2="216.37"/>
				<line class="st4" x1="805.98" y1="240.22" x2="811.24" y2="222.67"/>
				<line class="st4" x1="800.71" y1="249.22" x2="805.98" y2="240.22"/>
				<line class="st4" x1="795.45" y1="247.87" x2="800.71" y2="249.22"/>
				<line class="st4" x1="790.19" y1="247.42" x2="795.45" y2="247.87"/>
				<line class="st4" x1="784.92" y1="246.07" x2="790.19" y2="247.42"/>
				<line class="st4" x1="779.66" y1="234.37" x2="784.92" y2="246.07"/>
				<line class="st4" x1="774.4" y1="225.82" x2="779.66" y2="234.37"/>
				<line class="st4" x1="769.13" y1="238.87" x2="774.4" y2="225.82"/>
				<line class="st4" x1="763.87" y1="240.22" x2="769.13" y2="238.87"/>
				<line class="st4" x1="758.6" y1="238.87" x2="763.87" y2="240.22"/>
				<line class="st4" x1="753.34" y1="231.22" x2="758.6" y2="238.87"/>
				<line class="st4" x1="748.08" y1="223.12" x2="753.34" y2="231.22"/>
				<line class="st4" x1="742.81" y1="224.47" x2="748.08" y2="223.12"/>
				<line class="st4" x1="737.55" y1="229.42" x2="742.81" y2="224.47"/>
				<line class="st4" x1="732.29" y1="226.72" x2="737.55" y2="229.42"/>
				<line class="st4" x1="727.02" y1="228.97" x2="732.29" y2="226.72"/>
				<line class="st4" x1="721.76" y1="218.17" x2="727.02" y2="228.97"/>
				<line class="st4" x1="716.5" y1="220.87" x2="721.76" y2="218.17"/>
				<line class="st4" x1="711.23" y1="222.67" x2="716.5" y2="220.87"/>
				<line class="st4" x1="705.97" y1="233.02" x2="711.23" y2="222.67"/>
				<line class="st4" x1="700.7" y1="235.27" x2="705.97" y2="233.02"/>
				<line class="st4" x1="695.44" y1="237.52" x2="700.7" y2="235.27"/>
				<line class="st4" x1="690.18" y1="213.22" x2="695.44" y2="237.52"/>
				<line class="st4" x1="684.91" y1="210.07" x2="690.18" y2="213.22"/>
				<line class="st4" x1="679.65" y1="201.52" x2="684.91" y2="210.07"/>
				<line class="st4" x1="674.39" y1="197.47" x2="679.65" y2="201.52"/>
				<line class="st4" x1="669.12" y1="204.22" x2="674.39" y2="197.47"/>
				<line class="st4" x1="663.86" y1="196.57" x2="669.12" y2="204.22"/>
				<line class="st4" x1="658.6" y1="193.42" x2="663.86" y2="196.57"/>
				<line class="st4" x1="653.33" y1="192.97" x2="658.6" y2="193.42"/>
				<line class="st4" x1="648.07" y1="185.76" x2="653.33" y2="192.97"/>
				<line class="st4" x1="642.8" y1="183.06" x2="648.07" y2="185.76"/>
				<line class="st4" x1="637.54" y1="184.86" x2="642.8" y2="183.06"/>
				<line class="st4" x1="632.28" y1="188.46" x2="637.54" y2="184.86"/>
				<line class="st4" x1="627.01" y1="169.56" x2="632.28" y2="188.46"/>
				<line class="st4" x1="621.75" y1="179.01" x2="627.01" y2="169.56"/>
				<line class="st4" x1="616.49" y1="184.86" x2="621.75" y2="179.01"/>
				<line class="st4" x1="611.22" y1="179.46" x2="616.49" y2="184.86"/>
				<line class="st4" x1="605.96" y1="176.31" x2="611.22" y2="179.46"/>
				<line class="st4" x1="600.7" y1="183.51" x2="605.96" y2="176.31"/>
				<line class="st4" x1="595.43" y1="183.96" x2="600.7" y2="183.51"/>
				<line class="st4" x1="590.17" y1="201.07" x2="595.43" y2="183.96"/>
				<line class="st4" x1="584.9" y1="217.27" x2="590.17" y2="201.07"/>
				<line class="st4" x1="579.64" y1="209.62" x2="584.9" y2="217.27"/>
				<line class="st4" x1="574.38" y1="211.42" x2="579.64" y2="209.62"/>
				<line class="st4" x1="569.11" y1="204.22" x2="574.38" y2="211.42"/>
				<line class="st4" x1="563.85" y1="212.77" x2="569.11" y2="204.22"/>
				<line class="st4" x1="558.59" y1="217.27" x2="563.85" y2="212.77"/>
				<line class="st4" x1="553.32" y1="213.67" x2="558.59" y2="217.27"/>
				<line class="st4" x1="548.06" y1="215.92" x2="553.32" y2="213.67"/>
				<line class="st4" x1="542.8" y1="214.12" x2="548.06" y2="215.92"/>
				<line class="st4" x1="537.53" y1="218.17" x2="542.8" y2="214.12"/>
				<line class="st4" x1="532.27" y1="215.47" x2="537.53" y2="218.17"/>
				<line class="st4" x1="527.01" y1="215.47" x2="532.27" y2="215.47"/>
				<line class="st4" x1="521.74" y1="202.42" x2="527.01" y2="215.47"/>
				<line class="st4" x1="516.48" y1="198.82" x2="521.74" y2="202.42"/>
				<line class="st4" x1="511.21" y1="204.67" x2="516.48" y2="198.82"/>
				<line class="st4" x1="505.95" y1="208.72" x2="511.21" y2="204.67"/>
				<line class="st4" x1="500.69" y1="206.47" x2="505.95" y2="208.72"/>
				<line class="st4" x1="495.42" y1="197.02" x2="500.69" y2="206.47"/>
				<line class="st4" x1="490.16" y1="191.16" x2="495.42" y2="197.02"/>
				<line class="st4" x1="484.9" y1="197.02" x2="490.16" y2="191.16"/>
				<line class="st4" x1="479.63" y1="181.71" x2="484.9" y2="197.02"/>
				<line class="st4" x1="474.37" y1="168.66" x2="479.63" y2="181.71"/>
				<line class="st4" x1="469.11" y1="153.81" x2="474.37" y2="168.66"/>
				<line class="st4" x1="463.84" y1="155.61" x2="469.11" y2="153.81"/>
				<line class="st4" x1="458.58" y1="149.76" x2="463.84" y2="155.61"/>
				<line class="st4" x1="453.31" y1="143.01" x2="458.58" y2="149.76"/>
				<line class="st4" x1="448.05" y1="145.26" x2="453.31" y2="143.01"/>
				<line class="st4" x1="442.79" y1="146.61" x2="448.05" y2="145.26"/>
				<line class="st4" x1="437.52" y1="153.36" x2="442.79" y2="146.61"/>
				<line class="st4" x1="432.26" y1="156.06" x2="437.52" y2="153.36"/>
				<line class="st4" x1="427" y1="167.31" x2="432.26" y2="156.06"/>
				<line class="st4" x1="421.73" y1="169.56" x2="427" y2="167.31"/>
				<line class="st4" x1="416.47" y1="168.66" x2="421.73" y2="169.56"/>
				<line class="st4" x1="411.21" y1="153.36" x2="416.47" y2="168.66"/>
				<line class="st4" x1="405.94" y1="155.16" x2="411.21" y2="153.36"/>
				<line class="st4" x1="400.68" y1="143.01" x2="405.94" y2="155.16"/>
				<line class="st4" x1="395.41" y1="129.5" x2="400.68" y2="143.01"/>
				<line class="st4" x1="390.15" y1="133.11" x2="395.41" y2="129.5"/>
				<line class="st4" x1="384.89" y1="141.21" x2="390.15" y2="133.11"/>
				<line class="st4" x1="379.62" y1="143.01" x2="384.89" y2="141.21"/>
				<line class="st4" x1="374.36" y1="131.3" x2="379.62" y2="143.01"/>
				<line class="st4" x1="369.1" y1="148.86" x2="374.36" y2="131.3"/>
				<line class="st4" x1="363.83" y1="139.86" x2="369.1" y2="148.86"/>
				<line class="st4" x1="358.57" y1="144.81" x2="363.83" y2="139.86"/>
				<line class="st4" x1="353.31" y1="141.66" x2="358.57" y2="144.81"/>
				<line class="st4" x1="348.04" y1="138.06" x2="353.31" y2="141.66"/>
				<line class="st4" x1="342.78" y1="142.56" x2="348.04" y2="138.06"/>
				<line class="st4" x1="337.51" y1="141.21" x2="342.78" y2="142.56"/>
				<line class="st4" x1="332.25" y1="154.26" x2="337.51" y2="141.21"/>
				<line class="st4" x1="326.99" y1="168.66" x2="332.25" y2="154.26"/>
				<line class="st4" x1="321.72" y1="152.91" x2="326.99" y2="168.66"/>
				<line class="st4" x1="316.46" y1="156.51" x2="321.72" y2="152.91"/>
				<line class="st4" x1="311.2" y1="173.16" x2="316.46" y2="156.51"/>
				<line class="st4" x1="305.93" y1="144.36" x2="311.2" y2="173.16"/>
				<line class="st4" x1="300.67" y1="124.55" x2="305.93" y2="144.36"/>
				<line class="st4" x1="295.41" y1="124.55" x2="300.67" y2="124.55"/>
				<line class="st4" x1="290.14" y1="134.91" x2="295.41" y2="124.55"/>
				<line class="st4" x1="284.88" y1="127.25" x2="290.14" y2="134.91"/>
				<line class="st4" x1="279.61" y1="125.9" x2="284.88" y2="127.25"/>
				<line class="st4" x1="274.35" y1="126.8" x2="279.61" y2="125.9"/>
				<line class="st4" x1="269.09" y1="132.2" x2="274.35" y2="126.8"/>
				<line class="st4" x1="263.82" y1="138.96" x2="269.09" y2="132.2"/>
				<line class="st4" x1="258.56" y1="129.95" x2="263.82" y2="138.96"/>
				<line class="st4" x1="253.3" y1="119.15" x2="258.56" y2="129.95"/>
				<line class="st4" x1="248.03" y1="114.2" x2="253.3" y2="119.15"/>
				<line class="st4" x1="242.77" y1="114.65" x2="248.03" y2="114.2"/>
				<line class="st4" x1="237.51" y1="99.8" x2="242.77" y2="114.65"/>
				<line class="st4" x1="232.24" y1="98.45" x2="237.51" y2="99.8"/>
				<line class="st4" x1="226.98" y1="94.4" x2="232.24" y2="98.45"/>
				<line class="st4" x1="221.71" y1="89.9" x2="226.98" y2="94.4"/>
				<line class="st4" x1="216.45" y1="88.55" x2="221.71" y2="89.9"/>
				<line class="st4" x1="211.19" y1="91.7" x2="216.45" y2="88.55"/>
				<line class="st4" x1="205.92" y1="107" x2="211.19" y2="91.7"/>
				<line class="st4" x1="200.66" y1="108.8" x2="205.92" y2="107"/>
				<line class="st4" x1="195.4" y1="112.4" x2="200.66" y2="108.8"/>
				<line class="st4" x1="190.13" y1="105.65" x2="195.4" y2="112.4"/>
				<line class="st4" x1="184.87" y1="109.7" x2="190.13" y2="105.65"/>
				<line class="st4" x1="179.61" y1="118.25" x2="184.87" y2="109.7"/>
				<line class="st4" x1="174.34" y1="112.4" x2="179.61" y2="118.25"/>
				<line class="st4" x1="169.08" y1="113.75" x2="174.34" y2="112.4"/>
				<line class="st4" x1="163.81" y1="108.8" x2="169.08" y2="113.75"/>
				<line class="st4" x1="158.55" y1="99.8" x2="163.81" y2="108.8"/>
				<line class="st4" x1="153.29" y1="87.65" x2="158.55" y2="99.8"/>
				<line class="st4" x1="148.02" y1="93.5" x2="153.29" y2="87.65"/>
				<line class="st4" x1="142.76" y1="92.6" x2="148.02" y2="93.5"/>
				<line class="st4" x1="137.5" y1="102.05" x2="142.76" y2="92.6"/>
				<line class="st4" x1="132.23" y1="107.9" x2="137.5" y2="102.05"/>
				<line class="st4" x1="126.97" y1="106.1" x2="132.23" y2="107.9"/>
				<line class="st4" x1="121.71" y1="114.65" x2="126.97" y2="106.1"/>
				<line class="st4" x1="116.44" y1="111.05" x2="121.71" y2="114.65"/>
				<line class="st4" x1="111.18" y1="106.1" x2="116.44" y2="111.05"/>
				<line class="st4" x1="105.91" y1="115.1" x2="111.18" y2="106.1"/>
				<line class="st4" x1="100.65" y1="123.2" x2="105.91" y2="115.1"/>
				<line class="st4" x1="95.39" y1="119.6" x2="100.65" y2="123.2"/>
				<line class="st4" x1="90.12" y1="125" x2="95.39" y2="119.6"/>
				<line class="st4" x1="84.86" y1="117.35" x2="90.12" y2="125"/>
				<line class="st4" x1="79.6" y1="107.45" x2="84.86" y2="117.35"/>
				<line class="st4" x1="74.33" y1="99.35" x2="79.6" y2="107.45"/>
				<line class="st4" x1="69.07" y1="101.6" x2="74.33" y2="99.35"/>
				<line class="st4" x1="63.81" y1="104.3" x2="69.07" y2="101.6"/>
				<line class="st4" x1="58.54" y1="99.8" x2="63.81" y2="104.3"/>
			</g>
		</g>
	</g>
	<line class="st0" x1="56.24" y1="336.5" x2="56.24" y2="23.5"/>
</g>
<g id="Layer_2">
	<g>
		<path class="st5" d="M72.12,348.7c0.53-0.69,1.53-1.69,3.35-1.69c2.05,0,3.33,1.29,3.33,3.17c0,1.2-0.61,2.03-1.42,2.86
			l-2.09,2.18h3.75V357h-6.48v-1.48l3.47-3.55c0.52-0.53,0.81-1.07,0.81-1.68c0-0.85-0.6-1.46-1.5-1.46c-0.93,0-1.48,0.5-1.99,1.08
			L72.12,348.7z"/>
		<path class="st5" d="M88.71,352.09c0,3.17-1.89,5.08-4.23,5.08c-2.35,0-4.22-1.9-4.22-5.08s1.88-5.08,4.22-5.08
			C86.82,347.02,88.71,348.92,88.71,352.09z M82.22,352.09c0,2.14,1,3.26,2.26,3.26c1.26,0,2.25-1.12,2.25-3.26
			c0-2.14-0.99-3.26-2.25-3.26C83.23,348.83,82.22,349.95,82.22,352.09z"/>
		<path class="st5" d="M98.59,352.09c0,3.17-1.89,5.08-4.23,5.08c-2.35,0-4.22-1.9-4.22-5.08s1.88-5.08,4.22-5.08
			C96.7,347.02,98.59,348.92,98.59,352.09z M92.11,352.09c0,2.14,1,3.26,2.26,3.26c1.26,0,2.25-1.12,2.25-3.26
			c0-2.14-0.99-3.26-2.25-3.26C93.11,348.83,92.11,349.95,92.11,352.09z"/>
		<path class="st5" d="M106.28,348.95h-3.97l-0.04,1.96h1.13c2.28,0,3.43,1.31,3.43,2.95c0,2.11-1.6,3.31-3.58,3.31
			c-1.46,0-2.66-0.55-3.47-1.46l1.06-1.32c0.53,0.58,1.49,1.04,2.4,1.04c1.09,0,1.63-0.64,1.63-1.42c0-0.74-0.46-1.38-2-1.38h-2.33
			l0.11-5.43h5.64V348.95z"/>
	</g>
	<g>
		<path class="st5" d="M133.52,349.2c0.53-0.69,1.53-1.69,3.35-1.69c2.05,0,3.33,1.29,3.33,3.17c0,1.2-0.61,2.03-1.42,2.86
			l-2.09,2.18h3.75v1.77h-6.48v-1.48l3.47-3.55c0.52-0.53,0.81-1.07,0.81-1.68c0-0.85-0.6-1.46-1.5-1.46c-0.93,0-1.48,0.5-1.99,1.08
			L133.52,349.2z"/>
		<path class="st5" d="M150.11,352.59c0,3.17-1.89,5.08-4.23,5.08c-2.35,0-4.22-1.9-4.22-5.08s1.88-5.08,4.22-5.08
			C148.22,347.52,150.11,349.42,150.11,352.59z M143.63,352.59c0,2.14,1,3.26,2.26,3.26c1.26,0,2.25-1.12,2.25-3.26
			c0-2.14-0.99-3.26-2.25-3.26C144.63,349.33,143.63,350.45,143.63,352.59z"/>
		<path class="st5" d="M159.99,352.59c0,3.17-1.89,5.08-4.23,5.08c-2.35,0-4.22-1.9-4.22-5.08s1.88-5.08,4.22-5.08
			C158.1,347.52,159.99,349.42,159.99,352.59z M153.51,352.59c0,2.14,1,3.26,2.26,3.26c1.26,0,2.25-1.12,2.25-3.26
			c0-2.14-0.99-3.26-2.25-3.26C154.51,349.33,153.51,350.45,153.51,352.59z"/>
		<path class="st5" d="M164.65,351.1c0.13-0.01,0.29-0.03,0.46-0.03c1.99,0,3.4,1.42,3.4,3.26c0,1.92-1.58,3.34-3.69,3.34
			c-2.09,0-3.68-1.41-3.68-3.31c0-0.9,0.34-1.71,0.93-2.61l2.72-4.07h2.28L164.65,351.1z M163.11,354.34c0,0.95,0.74,1.61,1.71,1.61
			c0.99,0,1.72-0.66,1.72-1.61c0-0.95-0.74-1.61-1.72-1.61C163.84,352.73,163.11,353.4,163.11,354.34z"/>
	</g>
	<g>
		<g>
			<rect x="55.11" y="387.88" class="st6" width="22" height="19.62"/>
		</g>
		<g>
			<path class="st5" d="M97.64,400.46c0,3.48-2.22,5.26-5.43,5.26c-3.2,0-5.43-1.77-5.43-5.26v-7.57h2.52v7.45
				c0,2.07,1.17,2.98,2.91,2.98c1.74,0,2.91-0.91,2.91-2.98v-7.45h2.52V400.46z"/>
			<path class="st5" d="M103.16,403.97c0,0.95-0.81,1.75-1.74,1.75c-0.94,0-1.76-0.81-1.76-1.75c0-0.94,0.82-1.74,1.76-1.74
				C102.35,402.23,103.16,403.03,103.16,403.97z"/>
			<path class="st5" d="M113.89,396.07c-0.99-0.61-2.2-1.07-3.57-1.07c-1.41,0-2.41,0.56-2.41,1.51c0,0.93,1.09,1.21,2.6,1.46
				l0.71,0.12c2.25,0.37,4.02,1.33,4.02,3.53c0,2.78-2.45,4.1-5.16,4.1c-1.91,0-3.96-0.56-5.31-1.65l1.31-2.03
				c0.91,0.73,2.39,1.36,4.02,1.36c1.4,0,2.48-0.55,2.48-1.52c0-0.87-0.92-1.2-2.67-1.48l-0.8-0.13c-2.22-0.35-3.84-1.33-3.84-3.61
				c0-2.63,2.34-4,5.02-4c1.76,0,3.23,0.4,4.82,1.34L113.89,396.07z"/>
			<path class="st5" d="M120.33,403.97c0,0.95-0.81,1.75-1.74,1.75c-0.94,0-1.76-0.81-1.76-1.75c0-0.94,0.82-1.74,1.76-1.74
				C119.52,402.23,120.33,403.03,120.33,403.97z"/>
		</g>
	</g>
	<g>
		<g>
			<rect x="175.07" y="387.88" class="st7" width="22" height="19.62"/>
		</g>
		<g>
			<path class="st5" d="M218.45,395.49l-2.16,1.32c-0.71-1.09-1.85-1.74-3.26-1.74c-2.29,0-3.98,1.67-3.98,4.12
				c0.01,2.53,1.76,4.12,3.98,4.12c1.4,0,2.53-0.63,3.29-1.73l2.05,1.48c-1.12,1.64-3.02,2.67-5.32,2.67
				c-3.88,0-6.62-2.75-6.62-6.54s2.74-6.54,6.62-6.54C215.37,392.66,217.42,393.72,218.45,395.49z"/>
			<path class="st5" d="M229.01,405.5h-2.3v-0.96c-0.57,0.7-1.41,1.19-2.61,1.19c-2.4,0-4.22-1.97-4.22-4.59s1.82-4.59,4.22-4.59
				c1.2,0,2.03,0.49,2.61,1.2v-0.96h2.3V405.5z M222.29,401.13c0,1.33,0.87,2.4,2.25,2.4c1.34,0,2.25-1.03,2.25-2.4
				c0-1.38-0.91-2.4-2.25-2.4C223.16,398.73,222.29,399.8,222.29,401.13z"/>
			<path class="st5" d="M239.72,399.94v5.55h-2.35v-4.8c0-1.26-0.63-1.95-1.7-1.95c-1.01,0-1.85,0.66-1.85,1.97v4.78h-2.35v-8.72
				h2.29v1.03c0.62-0.93,1.58-1.26,2.57-1.26C238.31,396.54,239.72,397.92,239.72,399.94z"/>
			<path class="st5" d="M250.7,405.5h-2.3v-0.96c-0.57,0.7-1.41,1.19-2.61,1.19c-2.4,0-4.22-1.97-4.22-4.59s1.82-4.59,4.22-4.59
				c1.2,0,2.03,0.49,2.61,1.2v-0.96h2.3V405.5z M243.98,401.13c0,1.33,0.87,2.4,2.25,2.4c1.34,0,2.25-1.03,2.25-2.4
				c0-1.38-0.91-2.4-2.25-2.4C244.85,398.73,243.98,399.8,243.98,401.13z"/>
			<path class="st5" d="M259.41,397.68v-5.15h2.34v12.96h-2.3v-0.96c-0.57,0.7-1.41,1.19-2.61,1.19c-2.4,0-4.22-1.97-4.22-4.59
				s1.82-4.59,4.22-4.59C258.02,396.54,258.85,397,259.41,397.68z M255.03,401.13c0,1.33,0.87,2.4,2.25,2.4
				c1.34,0,2.25-1.03,2.25-2.4c0-1.38-0.91-2.4-2.25-2.4C255.9,398.73,255.03,399.8,255.03,401.13z"/>
			<path class="st5" d="M272.81,405.5h-2.3v-0.96c-0.57,0.7-1.41,1.19-2.61,1.19c-2.4,0-4.22-1.97-4.22-4.59s1.82-4.59,4.22-4.59
				c1.2,0,2.03,0.49,2.61,1.2v-0.96h2.3V405.5z M266.08,401.13c0,1.33,0.87,2.4,2.25,2.4c1.34,0,2.25-1.03,2.25-2.4
				c0-1.38-0.91-2.4-2.25-2.4C266.95,398.73,266.08,399.8,266.08,401.13z"/>
		</g>
	</g>
	<g>
		<g>
			<rect x="328.04" y="387.88" class="st5" width="22" height="19.62"/>
		</g>
		<g>
			<path class="st5" d="M364.86,400.9c0,3.16-1.89,4.82-4.52,4.82c-2.09,0-3.34-0.91-4.02-1.75l1.46-1.83
				c0.51,0.63,1.29,1.17,2.45,1.17c1.33,0,2.12-0.83,2.12-2.65v-7.78h2.51V400.9z"/>
			<path class="st5" d="M376.04,405.5h-2.3v-0.96c-0.57,0.7-1.41,1.19-2.61,1.19c-2.4,0-4.22-1.97-4.22-4.59s1.82-4.59,4.22-4.59
				c1.2,0,2.03,0.49,2.61,1.2v-0.96h2.3V405.5z M369.31,401.13c0,1.33,0.87,2.4,2.25,2.4c1.34,0,2.25-1.03,2.25-2.4
				c0-1.38-0.91-2.4-2.25-2.4C370.19,398.73,369.31,399.8,369.31,401.13z"/>
			<path class="st5" d="M387.63,401.13c0,2.62-1.82,4.59-4.22,4.59c-1.17,0-2-0.46-2.57-1.13v4.51h-2.34v-12.33h2.3v0.96
				c0.57-0.71,1.4-1.2,2.6-1.2C385.81,396.54,387.63,398.51,387.63,401.13z M380.72,401.13c0,1.38,0.91,2.4,2.24,2.4
				c1.39,0,2.25-1.07,2.25-2.4s-0.86-2.4-2.25-2.4C381.63,398.73,380.72,399.75,380.72,401.13z"/>
			<path class="st5" d="M398.13,405.5h-2.3v-0.96c-0.57,0.7-1.41,1.19-2.61,1.19c-2.4,0-4.22-1.97-4.22-4.59s1.82-4.59,4.22-4.59
				c1.2,0,2.03,0.49,2.61,1.2v-0.96h2.3V405.5z M391.41,401.13c0,1.33,0.87,2.4,2.25,2.4c1.34,0,2.25-1.03,2.25-2.4
				c0-1.38-0.91-2.4-2.25-2.4C392.28,398.73,391.41,399.8,391.41,401.13z"/>
			<path class="st5" d="M408.84,399.94v5.55h-2.35v-4.8c0-1.26-0.63-1.95-1.7-1.95c-1.01,0-1.85,0.66-1.85,1.97v4.78h-2.35v-8.72
				h2.29v1.03c0.62-0.93,1.58-1.26,2.57-1.26C407.43,396.54,408.84,397.92,408.84,399.94z"/>
		</g>
	</g>
	<g>
		<g>
			<rect x="464" y="387.88" class="st8" width="22" height="19.62"/>
		</g>
		<g>
			<path class="st5" d="M504.87,394.59l-1.81,1.77c-0.71-0.82-1.76-1.32-3.04-1.32c-2.3,0-3.98,1.69-3.98,4.15
				c0,2.57,1.76,4.19,3.93,4.19c2.05,0,3.25-0.99,3.58-2.78h-3.21v-2.1h5.8c0.03,0.24,0.04,0.48,0.04,0.71
				c0,3.82-2.58,6.51-6.16,6.51c-3.49,0-6.59-2.46-6.59-6.53c0-3.81,2.78-6.54,6.65-6.54C502.09,392.66,503.76,393.38,504.87,394.59
				z"/>
			<path class="st5" d="M516.36,401.12c0,0.27-0.02,0.59-0.04,0.79h-6.19c0.25,1.26,1.13,1.81,2.24,1.81c0.76,0,1.58-0.31,2.21-0.84
				l1.38,1.51c-0.99,0.91-2.25,1.32-3.72,1.32c-2.67,0-4.53-1.82-4.53-4.56c0-2.75,1.8-4.62,4.41-4.62
				C514.63,396.54,516.35,398.4,516.36,401.12z M510.14,400.31H514c-0.22-1.12-0.89-1.75-1.9-1.75
				C510.99,398.56,510.34,399.23,510.14,400.31z"/>
			<path class="st5" d="M524.23,396.73l-0.35,2.33c-0.39-0.17-0.95-0.28-1.42-0.28c-1.09,0-1.84,0.67-1.84,1.96v4.75h-2.35v-8.72
				h2.28v0.95c0.55-0.82,1.39-1.19,2.46-1.19C523.51,396.54,523.91,396.61,524.23,396.73z"/>
			<path class="st5" d="M539.97,399.94v5.55h-2.34v-4.8c0-1.26-0.64-1.95-1.7-1.95c-1.01,0-1.85,0.66-1.85,1.97v4.78h-2.35v-4.8
				c0-1.26-0.63-1.95-1.7-1.95c-1.01,0-1.85,0.66-1.85,1.97v4.78h-2.35v-8.72h2.29v1.03c0.62-0.93,1.58-1.26,2.57-1.26
				c1.26,0,2.3,0.57,2.88,1.5c0.68-1.11,1.82-1.5,2.96-1.5C538.58,396.54,539.97,397.92,539.97,399.94z"/>
			<path class="st5" d="M550.94,405.5h-2.3v-0.96c-0.57,0.7-1.41,1.19-2.61,1.19c-2.4,0-4.22-1.97-4.22-4.59s1.82-4.59,4.22-4.59
				c1.2,0,2.03,0.49,2.61,1.2v-0.96h2.3V405.5z M544.22,401.13c0,1.33,0.87,2.4,2.25,2.4c1.34,0,2.25-1.03,2.25-2.4
				c0-1.38-0.91-2.4-2.25-2.4C545.09,398.73,544.22,399.8,544.22,401.13z"/>
			<path class="st5" d="M561.65,399.94v5.55h-2.35v-4.8c0-1.26-0.63-1.95-1.7-1.95c-1.01,0-1.85,0.66-1.85,1.97v4.78h-2.35v-8.72
				h2.29v1.03c0.62-0.93,1.58-1.26,2.57-1.26C560.24,396.54,561.65,397.92,561.65,399.94z"/>
			<path class="st5" d="M566.21,409.13h-2.58l3.05-5.49l-3.76-6.87h2.67l2.39,4.48l2.32-4.48h2.58L566.21,409.13z"/>
		</g>
	</g>
	<g>
		<path class="st5" d="M199.08,349.2c0.53-0.69,1.53-1.69,3.35-1.69c2.05,0,3.33,1.29,3.33,3.17c0,1.2-0.61,2.03-1.42,2.86
			l-2.09,2.18H206v1.77h-6.48v-1.48l3.47-3.55c0.52-0.53,0.81-1.07,0.81-1.68c0-0.85-0.6-1.46-1.5-1.46c-0.93,0-1.48,0.5-1.99,1.08
			L199.08,349.2z"/>
		<path class="st5" d="M215.67,352.59c0,3.17-1.89,5.08-4.23,5.08c-2.35,0-4.22-1.9-4.22-5.08s1.88-5.08,4.22-5.08
			C213.78,347.52,215.67,349.42,215.67,352.59z M209.19,352.59c0,2.14,1,3.26,2.26,3.26c1.26,0,2.25-1.12,2.25-3.26
			c0-2.14-0.99-3.26-2.25-3.26C210.19,349.33,209.19,350.45,209.19,352.59z"/>
		<path class="st5" d="M225.55,352.59c0,3.17-1.89,5.08-4.23,5.08c-2.35,0-4.22-1.9-4.22-5.08s1.88-5.08,4.22-5.08
			C223.66,347.52,225.55,349.42,225.55,352.59z M219.07,352.59c0,2.14,1,3.26,2.26,3.26c1.26,0,2.25-1.12,2.25-3.26
			c0-2.14-0.99-3.26-2.25-3.26C220.07,349.33,219.07,350.45,219.07,352.59z"/>
		<path class="st5" d="M233.61,349.17l-4.06,8.33h-2.23l4.03-8.04h-4.66v-1.77h6.91V349.17z"/>
	</g>
	<g>
		<path class="st5" d="M264.9,349.2c0.53-0.69,1.53-1.69,3.35-1.69c2.05,0,3.33,1.29,3.33,3.17c0,1.2-0.61,2.03-1.42,2.86
			l-2.09,2.18h3.75v1.77h-6.48v-1.48l3.47-3.55c0.52-0.53,0.81-1.07,0.81-1.68c0-0.85-0.6-1.46-1.5-1.46c-0.93,0-1.48,0.5-1.99,1.08
			L264.9,349.2z"/>
		<path class="st5" d="M281.49,352.59c0,3.17-1.89,5.08-4.23,5.08c-2.35,0-4.22-1.9-4.22-5.08s1.88-5.08,4.22-5.08
			C279.6,347.52,281.49,349.42,281.49,352.59z M275,352.59c0,2.14,1,3.26,2.26,3.26c1.26,0,2.25-1.12,2.25-3.26
			c0-2.14-0.99-3.26-2.25-3.26C276,349.33,275,350.45,275,352.59z"/>
		<path class="st5" d="M291.37,352.59c0,3.17-1.89,5.08-4.23,5.08c-2.35,0-4.22-1.9-4.22-5.08s1.88-5.08,4.22-5.08
			C289.48,347.52,291.37,349.42,291.37,352.59z M284.89,352.59c0,2.14,1,3.26,2.26,3.26c1.26,0,2.25-1.12,2.25-3.26
			c0-2.14-0.99-3.26-2.25-3.26C285.89,349.33,284.89,350.45,284.89,352.59z"/>
		<path class="st5" d="M300.12,350.33c0,1.13-0.65,1.83-1.5,2.22c0.97,0.38,1.74,1.08,1.74,2.28c0,1.79-1.72,2.84-3.83,2.84
			c-2.11,0-3.83-1.06-3.83-2.84c0-1.2,0.76-1.9,1.73-2.28c-0.85-0.39-1.49-1.09-1.49-2.22c0-1.76,1.61-2.82,3.59-2.82
			C298.51,347.52,300.12,348.57,300.12,350.33z M294.74,354.67c0,0.86,0.81,1.32,1.79,1.32c0.97,0,1.79-0.46,1.79-1.32
			c0-0.88-0.82-1.34-1.79-1.34C295.55,353.32,294.74,353.79,294.74,354.67z M294.95,350.48c0,0.84,0.71,1.29,1.58,1.29
			s1.58-0.45,1.58-1.29c0-0.81-0.71-1.25-1.58-1.25S294.95,349.67,294.95,350.48z"/>
	</g>
	<g>
		<path class="st5" d="M332.52,349.2c0.53-0.69,1.53-1.69,3.35-1.69c2.05,0,3.33,1.29,3.33,3.17c0,1.2-0.61,2.03-1.42,2.86
			l-2.09,2.18h3.75v1.77h-6.48v-1.48l3.47-3.55c0.52-0.53,0.81-1.07,0.81-1.68c0-0.85-0.6-1.46-1.5-1.46c-0.93,0-1.48,0.5-1.99,1.08
			L332.52,349.2z"/>
		<path class="st5" d="M349.11,352.59c0,3.17-1.89,5.08-4.23,5.08c-2.35,0-4.22-1.9-4.22-5.08s1.88-5.08,4.22-5.08
			C347.22,347.52,349.11,349.42,349.11,352.59z M342.63,352.59c0,2.14,1,3.26,2.26,3.26c1.26,0,2.25-1.12,2.25-3.26
			c0-2.14-0.99-3.26-2.25-3.26C343.63,349.33,342.63,350.45,342.63,352.59z"/>
		<path class="st5" d="M358.99,352.59c0,3.17-1.89,5.08-4.23,5.08c-2.35,0-4.22-1.9-4.22-5.08s1.88-5.08,4.22-5.08
			C357.1,347.52,358.99,349.42,358.99,352.59z M352.51,352.59c0,2.14,1,3.26,2.26,3.26c1.26,0,2.25-1.12,2.25-3.26
			c0-2.14-0.99-3.26-2.25-3.26C353.51,349.33,352.51,350.45,352.51,352.59z"/>
		<path class="st5" d="M364,354.08c-0.13,0.02-0.27,0.03-0.44,0.03c-1.99,0-3.4-1.42-3.4-3.26c0-1.92,1.58-3.34,3.68-3.34
			c2.09,0,3.68,1.41,3.68,3.31c0,0.9-0.34,1.72-0.93,2.61l-2.72,4.07h-2.28L364,354.08z M365.57,350.84c0-0.95-0.74-1.61-1.72-1.61
			c-0.99,0-1.72,0.66-1.72,1.61c0,0.95,0.73,1.61,1.72,1.61C364.83,352.45,365.57,351.79,365.57,350.84z"/>
	</g>
	<g>
		<path class="st5" d="M398.04,349.2c0.53-0.69,1.53-1.69,3.35-1.69c2.05,0,3.33,1.29,3.33,3.17c0,1.2-0.61,2.03-1.42,2.86
			l-2.09,2.18h3.75v1.77h-6.48v-1.48l3.47-3.55c0.52-0.53,0.81-1.07,0.81-1.68c0-0.85-0.6-1.46-1.5-1.46c-0.93,0-1.48,0.5-1.99,1.08
			L398.04,349.2z"/>
		<path class="st5" d="M414.62,352.59c0,3.17-1.89,5.08-4.23,5.08c-2.35,0-4.22-1.9-4.22-5.08s1.88-5.08,4.22-5.08
			C412.73,347.52,414.62,349.42,414.62,352.59z M408.14,352.59c0,2.14,1,3.26,2.26,3.26c1.26,0,2.25-1.12,2.25-3.26
			c0-2.14-0.99-3.26-2.25-3.26C409.14,349.33,408.14,350.45,408.14,352.59z"/>
		<path class="st5" d="M419.93,357.5h-1.89v-7.3l-2.35,0.95v-1.9l4.24-1.71V357.5z"/>
		<path class="st5" d="M430.25,352.59c0,3.17-1.89,5.08-4.23,5.08c-2.35,0-4.22-1.9-4.22-5.08s1.88-5.08,4.22-5.08
			C428.36,347.52,430.25,349.42,430.25,352.59z M423.77,352.59c0,2.14,1,3.26,2.26,3.26c1.26,0,2.25-1.12,2.25-3.26
			c0-2.14-0.99-3.26-2.25-3.26C424.77,349.33,423.77,350.45,423.77,352.59z"/>
	</g>
	<g>
		<path class="st5" d="M456.17,349.2c0.53-0.69,1.53-1.69,3.35-1.69c2.05,0,3.33,1.29,3.33,3.17c0,1.2-0.61,2.03-1.42,2.86
			l-2.09,2.18h3.75v1.77h-6.48v-1.48l3.47-3.55c0.52-0.53,0.81-1.07,0.81-1.68c0-0.85-0.6-1.46-1.5-1.46c-0.93,0-1.48,0.5-1.99,1.08
			L456.17,349.2z"/>
		<path class="st5" d="M472.76,352.59c0,3.17-1.89,5.08-4.23,5.08c-2.35,0-4.22-1.9-4.22-5.08s1.88-5.08,4.22-5.08
			C470.87,347.52,472.76,349.42,472.76,352.59z M466.28,352.59c0,2.14,1,3.26,2.26,3.26c1.26,0,2.25-1.12,2.25-3.26
			c0-2.14-0.99-3.26-2.25-3.26C467.28,349.33,466.28,350.45,466.28,352.59z"/>
		<path class="st5" d="M478.07,357.5h-1.89v-7.3l-2.35,0.95v-1.9l4.24-1.71V357.5z"/>
		<path class="st5" d="M483.82,357.5h-1.89v-7.3l-2.35,0.95v-1.9l4.24-1.71V357.5z"/>
	</g>
	<g>
		<path class="st5" d="M518.04,349.2c0.53-0.69,1.53-1.69,3.35-1.69c2.05,0,3.33,1.29,3.33,3.17c0,1.2-0.61,2.03-1.42,2.86
			l-2.09,2.18h3.75v1.77h-6.48v-1.48l3.47-3.55c0.52-0.53,0.81-1.07,0.81-1.68c0-0.85-0.6-1.46-1.5-1.46c-0.93,0-1.48,0.5-1.99,1.08
			L518.04,349.2z"/>
		<path class="st5" d="M534.63,352.59c0,3.17-1.89,5.08-4.23,5.08c-2.35,0-4.22-1.9-4.22-5.08s1.88-5.08,4.22-5.08
			C532.74,347.52,534.63,349.42,534.63,352.59z M528.14,352.59c0,2.14,1,3.26,2.26,3.26c1.26,0,2.25-1.12,2.25-3.26
			c0-2.14-0.99-3.26-2.25-3.26C529.14,349.33,528.14,350.45,528.14,352.59z"/>
		<path class="st5" d="M539.94,357.5h-1.89v-7.3l-2.35,0.95v-1.9l4.24-1.71V357.5z"/>
		<path class="st5" d="M541.55,349.2c0.53-0.69,1.53-1.69,3.35-1.69c2.05,0,3.33,1.29,3.33,3.17c0,1.2-0.61,2.03-1.42,2.86
			l-2.09,2.18h3.75v1.77h-6.48v-1.48l3.47-3.55c0.52-0.53,0.81-1.07,0.81-1.68c0-0.85-0.6-1.46-1.5-1.46c-0.93,0-1.48,0.5-1.99,1.08
			L541.55,349.2z"/>
	</g>
	<g>
		<path class="st5" d="M582.91,349.2c0.53-0.69,1.53-1.69,3.35-1.69c2.05,0,3.33,1.29,3.33,3.17c0,1.2-0.61,2.03-1.42,2.86
			l-2.09,2.18h3.75v1.77h-6.48v-1.48l3.47-3.55c0.52-0.53,0.81-1.07,0.81-1.68c0-0.85-0.6-1.46-1.5-1.46c-0.93,0-1.48,0.5-1.99,1.08
			L582.91,349.2z"/>
		<path class="st5" d="M599.5,352.59c0,3.17-1.89,5.08-4.23,5.08c-2.35,0-4.22-1.9-4.22-5.08s1.88-5.08,4.22-5.08
			C597.61,347.52,599.5,349.42,599.5,352.59z M593.01,352.59c0,2.14,1,3.26,2.25,3.26c1.26,0,2.25-1.12,2.25-3.26
			c0-2.14-0.99-3.26-2.25-3.26C594.02,349.33,593.01,350.45,593.01,352.59z"/>
		<path class="st5" d="M604.81,357.5h-1.89v-7.3l-2.35,0.95v-1.9l4.24-1.71V357.5z"/>
		<path class="st5" d="M613.14,350.33c0,1.04-0.55,1.8-1.46,2.23c1.03,0.41,1.68,1.19,1.68,2.25c0,1.93-1.76,2.86-3.61,2.86
			c-1.47,0-2.68-0.53-3.42-1.42l1.13-1.24c0.57,0.6,1.39,0.94,2.23,0.94c0.95,0,1.72-0.41,1.72-1.27c0-0.84-0.86-1.28-1.92-1.28
			h-1.14v-1.68h1.15c0.95,0,1.72-0.42,1.72-1.25c0-0.79-0.71-1.23-1.63-1.23c-0.91,0-1.58,0.47-1.98,1l-1.19-1.2
			c0.64-0.87,1.71-1.52,3.27-1.52C611.73,347.52,613.14,348.64,613.14,350.33z"/>
	</g>
	<g>
		<path class="st5" d="M650.74,348.2c0.53-0.69,1.53-1.69,3.35-1.69c2.05,0,3.33,1.29,3.33,3.17c0,1.2-0.61,2.03-1.42,2.86
			l-2.09,2.18h3.75v1.77h-6.48v-1.48l3.47-3.55c0.52-0.53,0.81-1.07,0.81-1.68c0-0.85-0.6-1.46-1.5-1.46c-0.93,0-1.48,0.5-1.99,1.08
			L650.74,348.2z"/>
		<path class="st5" d="M667.33,351.59c0,3.17-1.89,5.08-4.23,5.08c-2.35,0-4.22-1.9-4.22-5.08s1.88-5.08,4.22-5.08
			C665.44,346.52,667.33,348.42,667.33,351.59z M660.85,351.59c0,2.14,1,3.26,2.25,3.26c1.26,0,2.25-1.12,2.25-3.26
			c0-2.14-0.99-3.26-2.25-3.26C661.85,348.33,660.85,349.45,660.85,351.59z"/>
		<path class="st5" d="M672.64,356.5h-1.89v-7.3l-2.35,0.95v-1.9l4.24-1.71V356.5z"/>
		<path class="st5" d="M680.32,352.94h1.37v1.76h-1.37v1.79h-1.89v-1.79h-4.35v-1.37l3.44-6.63h2.1l-3.28,6.24h2.09v-2.61h1.89
			V352.94z"/>
	</g>
	<g>
		<path class="st5" d="M716.76,348.2c0.53-0.69,1.53-1.69,3.35-1.69c2.05,0,3.33,1.29,3.33,3.17c0,1.2-0.61,2.03-1.42,2.86
			l-2.09,2.18h3.75v1.77h-6.48v-1.48l3.47-3.55c0.52-0.53,0.8-1.07,0.8-1.68c0-0.85-0.59-1.46-1.5-1.46c-0.93,0-1.48,0.5-1.99,1.08
			L716.76,348.2z"/>
		<path class="st5" d="M733.35,351.59c0,3.17-1.89,5.08-4.23,5.08c-2.35,0-4.22-1.9-4.22-5.08s1.88-5.08,4.22-5.08
			C731.46,346.52,733.35,348.42,733.35,351.59z M726.86,351.59c0,2.14,1,3.26,2.26,3.26c1.26,0,2.25-1.12,2.25-3.26
			c0-2.14-0.99-3.26-2.25-3.26C727.86,348.33,726.86,349.45,726.86,351.59z"/>
		<path class="st5" d="M738.66,356.5h-1.89v-7.3l-2.35,0.95v-1.9l4.24-1.71V356.5z"/>
		<path class="st5" d="M746.78,348.45h-3.97l-0.04,1.96h1.13c2.28,0,3.43,1.31,3.43,2.95c0,2.11-1.6,3.31-3.58,3.31
			c-1.46,0-2.66-0.55-3.47-1.46l1.06-1.32c0.53,0.58,1.49,1.04,2.4,1.04c1.09,0,1.63-0.64,1.63-1.42c0-0.74-0.46-1.38-2-1.38h-2.33
			l0.1-5.43h5.64V348.45z"/>
	</g>
	<g>
		<path class="st5" d="M770.66,348.2c0.53-0.69,1.53-1.69,3.35-1.69c2.05,0,3.33,1.29,3.33,3.17c0,1.2-0.61,2.03-1.42,2.86
			l-2.09,2.18h3.75v1.77h-6.48v-1.48l3.47-3.55c0.52-0.53,0.81-1.07,0.81-1.68c0-0.85-0.6-1.46-1.5-1.46c-0.93,0-1.48,0.5-1.99,1.08
			L770.66,348.2z"/>
		<path class="st5" d="M787.25,351.59c0,3.17-1.89,5.08-4.23,5.08c-2.35,0-4.22-1.9-4.22-5.08s1.88-5.08,4.22-5.08
			C785.36,346.52,787.25,348.42,787.25,351.59z M780.76,351.59c0,2.14,1,3.26,2.25,3.26c1.26,0,2.25-1.12,2.25-3.26
			c0-2.14-0.99-3.26-2.25-3.26C781.76,348.33,780.76,349.45,780.76,351.59z"/>
		<path class="st5" d="M792.56,356.5h-1.89v-7.3l-2.35,0.95v-1.9l4.24-1.71V356.5z"/>
		<path class="st5" d="M797.65,350.1c0.13-0.01,0.29-0.03,0.46-0.03c1.99,0,3.4,1.42,3.4,3.26c0,1.92-1.58,3.34-3.69,3.34
			c-2.09,0-3.68-1.41-3.68-3.31c0-0.9,0.34-1.71,0.93-2.61l2.72-4.07h2.28L797.65,350.1z M796.11,353.34c0,0.95,0.74,1.61,1.71,1.61
			c0.99,0,1.72-0.66,1.72-1.61c0-0.95-0.74-1.61-1.72-1.61C796.84,351.73,796.11,352.4,796.11,353.34z"/>
	</g>
	<g>
		<path class="st5" d="M833.22,348.2c0.53-0.69,1.53-1.69,3.35-1.69c2.05,0,3.33,1.29,3.33,3.17c0,1.2-0.61,2.03-1.42,2.86
			l-2.09,2.18h3.75v1.77h-6.48v-1.48l3.47-3.55c0.52-0.53,0.8-1.07,0.8-1.68c0-0.85-0.59-1.46-1.5-1.46c-0.93,0-1.48,0.5-1.99,1.08
			L833.22,348.2z"/>
		<path class="st5" d="M849.81,351.59c0,3.17-1.89,5.08-4.23,5.08c-2.35,0-4.22-1.9-4.22-5.08s1.88-5.08,4.22-5.08
			C847.92,346.52,849.81,348.42,849.81,351.59z M843.32,351.59c0,2.14,1,3.26,2.26,3.26c1.26,0,2.25-1.12,2.25-3.26
			c0-2.14-0.99-3.26-2.25-3.26C844.32,348.33,843.32,349.45,843.32,351.59z"/>
		<path class="st5" d="M855.12,356.5h-1.89v-7.3l-2.35,0.95v-1.9l4.24-1.71V356.5z"/>
		<path class="st5" d="M863.61,348.17l-4.06,8.33h-2.23l4.03-8.04h-4.66v-1.77h6.91V348.17z"/>
	</g>
	<g>
		<path class="st5" d="M901.04,348.2c0.53-0.69,1.53-1.69,3.35-1.69c2.05,0,3.33,1.29,3.33,3.17c0,1.2-0.61,2.03-1.42,2.86
			l-2.09,2.18h3.75v1.77h-6.48v-1.48l3.47-3.55c0.52-0.53,0.81-1.07,0.81-1.68c0-0.85-0.6-1.46-1.5-1.46c-0.93,0-1.48,0.5-1.99,1.08
			L901.04,348.2z"/>
		<path class="st5" d="M917.63,351.59c0,3.17-1.89,5.08-4.23,5.08c-2.35,0-4.22-1.9-4.22-5.08s1.88-5.08,4.22-5.08
			C915.73,346.52,917.63,348.42,917.63,351.59z M911.14,351.59c0,2.14,1,3.26,2.25,3.26c1.26,0,2.25-1.12,2.25-3.26
			c0-2.14-0.99-3.26-2.25-3.26C912.14,348.33,911.14,349.45,911.14,351.59z"/>
		<path class="st5" d="M922.94,356.5h-1.89v-7.3l-2.35,0.95v-1.9l4.24-1.71V356.5z"/>
		<path class="st5" d="M932.12,349.33c0,1.13-0.65,1.83-1.5,2.22c0.97,0.38,1.74,1.08,1.74,2.28c0,1.79-1.72,2.84-3.83,2.84
			s-3.83-1.06-3.83-2.84c0-1.2,0.76-1.9,1.73-2.28c-0.85-0.39-1.49-1.09-1.49-2.22c0-1.76,1.61-2.82,3.59-2.82
			S932.12,347.57,932.12,349.33z M926.74,353.67c0,0.86,0.81,1.32,1.79,1.32c0.97,0,1.79-0.46,1.79-1.32c0-0.88-0.82-1.34-1.79-1.34
			C927.55,352.32,926.74,352.79,926.74,353.67z M926.95,349.48c0,0.84,0.71,1.29,1.58,1.29c0.88,0,1.58-0.45,1.58-1.29
			c0-0.81-0.71-1.25-1.58-1.25C927.65,348.22,926.95,348.67,926.95,349.48z"/>
	</g>
	<g>
		<path class="st5" d="M966.66,348.2c0.53-0.69,1.53-1.69,3.35-1.69c2.05,0,3.33,1.29,3.33,3.17c0,1.2-0.61,2.03-1.42,2.86
			l-2.09,2.18h3.75v1.77h-6.48v-1.48l3.47-3.55c0.52-0.53,0.81-1.07,0.81-1.68c0-0.85-0.6-1.46-1.5-1.46c-0.93,0-1.48,0.5-1.99,1.08
			L966.66,348.2z"/>
		<path class="st5" d="M983.25,351.59c0,3.17-1.89,5.08-4.23,5.08c-2.35,0-4.22-1.9-4.22-5.08s1.88-5.08,4.22-5.08
			C981.36,346.52,983.25,348.42,983.25,351.59z M976.76,351.59c0,2.14,1,3.26,2.25,3.26c1.26,0,2.25-1.12,2.25-3.26
			c0-2.14-0.99-3.26-2.25-3.26C977.76,348.33,976.76,349.45,976.76,351.59z"/>
		<path class="st5" d="M988.56,356.5h-1.89v-7.3l-2.35,0.95v-1.9l4.24-1.71V356.5z"/>
		<path class="st5" d="M994,353.08c-0.13,0.02-0.27,0.03-0.44,0.03c-1.99,0-3.4-1.42-3.4-3.26c0-1.92,1.58-3.34,3.68-3.34
			c2.09,0,3.68,1.41,3.68,3.31c0,0.9-0.34,1.72-0.93,2.61l-2.72,4.07h-2.28L994,353.08z M995.57,349.84c0-0.95-0.74-1.61-1.72-1.61
			c-0.99,0-1.72,0.66-1.72,1.61c0,0.95,0.73,1.61,1.72,1.61C994.83,351.45,995.57,350.79,995.57,349.84z"/>
	</g>
	<g>
		<path class="st5" d="M1027.9,348.2c0.53-0.69,1.53-1.69,3.35-1.69c2.05,0,3.33,1.29,3.33,3.17c0,1.2-0.61,2.03-1.42,2.86
			l-2.09,2.18h3.75v1.77h-6.48v-1.48l3.47-3.55c0.52-0.53,0.81-1.07,0.81-1.68c0-0.85-0.6-1.46-1.5-1.46c-0.93,0-1.48,0.5-1.99,1.08
			L1027.9,348.2z"/>
		<path class="st5" d="M1044.49,351.59c0,3.17-1.89,5.08-4.23,5.08c-2.35,0-4.22-1.9-4.22-5.08s1.88-5.08,4.22-5.08
			C1042.6,346.52,1044.49,348.42,1044.49,351.59z M1038,351.59c0,2.14,1,3.26,2.25,3.26c1.26,0,2.25-1.12,2.25-3.26
			c0-2.14-0.99-3.26-2.25-3.26C1039,348.33,1038,349.45,1038,351.59z"/>
		<path class="st5" d="M1045.67,348.2c0.53-0.69,1.53-1.69,3.35-1.69c2.05,0,3.33,1.29,3.33,3.17c0,1.2-0.61,2.03-1.42,2.86
			l-2.09,2.18h3.75v1.77h-6.48v-1.48l3.47-3.55c0.52-0.53,0.81-1.07,0.81-1.68c0-0.85-0.6-1.46-1.5-1.46c-0.93,0-1.48,0.5-1.99,1.08
			L1045.67,348.2z"/>
		<path class="st5" d="M1062.25,351.59c0,3.17-1.89,5.08-4.23,5.08c-2.35,0-4.22-1.9-4.22-5.08s1.88-5.08,4.22-5.08
			C1060.36,346.52,1062.25,348.42,1062.25,351.59z M1055.77,351.59c0,2.14,1,3.26,2.25,3.26c1.26,0,2.25-1.12,2.25-3.26
			c0-2.14-0.99-3.26-2.25-3.26C1056.77,348.33,1055.77,349.45,1055.77,351.59z"/>
	</g>
	<g>
		<g>
			<path class="st5" d="M21.35,337.04h-4.73v-1.82h4.73V337.04z"/>
			<path class="st5" d="M27.49,340.38h-2.16v-8.33l-2.68,1.09v-2.17l4.84-1.95V340.38z"/>
			<path class="st5" d="M35.64,332.04c0,1.76-1.34,3.06-3.13,3.06c-1.78,0-3.12-1.3-3.12-3.06c0-1.74,1.33-3.05,3.12-3.05
				C34.31,328.99,35.64,330.29,35.64,332.04z M31.17,332.04c0,0.82,0.58,1.39,1.34,1.39c0.78,0,1.35-0.58,1.35-1.39
				c0-0.8-0.57-1.38-1.35-1.38C31.75,330.66,31.17,331.24,31.17,332.04z M34,340.38h-2.1l7.51-11.19h2.09L34,340.38z M44.05,337.53
				c0,1.75-1.34,3.05-3.13,3.05c-1.78,0-3.12-1.3-3.12-3.05c0-1.73,1.34-3.05,3.12-3.05C42.71,334.47,44.05,335.79,44.05,337.53z
				 M39.58,337.53c0,0.81,0.57,1.38,1.34,1.38c0.78,0,1.35-0.58,1.35-1.38s-0.57-1.38-1.35-1.38
				C40.15,336.15,39.58,336.72,39.58,337.53z"/>
		</g>
		<g>
			<path class="st5" d="M27.98,290.12c0,3.62-2.16,5.8-4.83,5.8c-2.68,0-4.82-2.17-4.82-5.8s2.14-5.8,4.82-5.8
				C25.83,284.32,27.98,286.5,27.98,290.12z M20.58,290.12c0,2.45,1.14,3.73,2.57,3.73c1.44,0,2.57-1.28,2.57-3.73
				c0-2.45-1.14-3.73-2.57-3.73C21.72,286.39,20.58,287.67,20.58,290.12z"/>
			<path class="st5" d="M35.64,287.37c0,1.76-1.34,3.06-3.13,3.06c-1.78,0-3.12-1.3-3.12-3.06c0-1.74,1.33-3.05,3.12-3.05
				C34.31,284.32,35.64,285.62,35.64,287.37z M31.17,287.37c0,0.82,0.58,1.39,1.34,1.39c0.78,0,1.35-0.58,1.35-1.39
				c0-0.8-0.57-1.38-1.35-1.38C31.75,285.99,31.17,286.57,31.17,287.37z M34,295.71h-2.09l7.51-11.19h2.09L34,295.71z M44.05,292.86
				c0,1.75-1.34,3.05-3.13,3.05c-1.78,0-3.12-1.3-3.12-3.05c0-1.73,1.33-3.05,3.12-3.05C42.71,289.81,44.05,291.12,44.05,292.86z
				 M39.58,292.86c0,0.81,0.57,1.38,1.34,1.38c0.78,0,1.35-0.58,1.35-1.38s-0.57-1.38-1.35-1.38
				C40.14,291.48,39.58,292.05,39.58,292.86z"/>
		</g>
		<g>
			<path class="st5" d="M27.49,250.05h-2.16v-8.33l-2.68,1.09v-2.17l4.84-1.95V250.05z"/>
			<path class="st5" d="M35.64,241.7c0,1.76-1.34,3.06-3.13,3.06c-1.78,0-3.12-1.3-3.12-3.06c0-1.74,1.33-3.05,3.12-3.05
				C34.31,238.65,35.64,239.96,35.64,241.7z M31.17,241.7c0,0.82,0.58,1.39,1.34,1.39c0.78,0,1.35-0.58,1.35-1.39
				c0-0.8-0.57-1.38-1.35-1.38C31.75,240.32,31.17,240.9,31.17,241.7z M34,250.05h-2.1l7.51-11.19h2.09L34,250.05z M44.05,247.19
				c0,1.75-1.34,3.05-3.13,3.05c-1.78,0-3.12-1.3-3.12-3.05c0-1.73,1.34-3.05,3.12-3.05C42.71,244.14,44.05,245.45,44.05,247.19z
				 M39.58,247.19c0,0.81,0.57,1.38,1.34,1.38c0.78,0,1.35-0.58,1.35-1.38s-0.57-1.38-1.35-1.38
				C40.15,245.81,39.58,246.38,39.58,247.19z"/>
		</g>
		<g>
			<path class="st5" d="M20.33,195.91c0.61-0.79,1.74-1.93,3.82-1.93c2.34,0,3.8,1.47,3.8,3.61c0,1.37-0.7,2.32-1.61,3.27
				l-2.39,2.49h4.28v2.02h-7.4v-1.69l3.96-4.05c0.59-0.6,0.92-1.22,0.92-1.92c0-0.98-0.68-1.67-1.71-1.67
				c-1.06,0-1.7,0.58-2.27,1.23L20.33,195.91z"/>
			<path class="st5" d="M35.64,197.03c0,1.76-1.34,3.06-3.13,3.06c-1.78,0-3.12-1.3-3.12-3.06c0-1.74,1.33-3.05,3.12-3.05
				C34.31,193.99,35.64,195.29,35.64,197.03z M31.17,197.03c0,0.82,0.58,1.39,1.34,1.39c0.78,0,1.35-0.58,1.35-1.39
				c0-0.8-0.57-1.38-1.35-1.38C31.75,195.66,31.17,196.23,31.17,197.03z M34,205.38h-2.09l7.51-11.19h2.09L34,205.38z M44.05,202.52
				c0,1.75-1.34,3.05-3.13,3.05c-1.78,0-3.12-1.3-3.12-3.05c0-1.73,1.33-3.05,3.12-3.05C42.71,199.47,44.05,200.78,44.05,202.52z
				 M39.58,202.52c0,0.81,0.57,1.38,1.34,1.38c0.78,0,1.35-0.58,1.35-1.38s-0.57-1.38-1.35-1.38
				C40.14,201.14,39.58,201.72,39.58,202.52z"/>
		</g>
		<g>
			<path class="st5" d="M27.86,154.53c0,1.18-0.63,2.06-1.67,2.54c1.18,0.46,1.92,1.36,1.92,2.57c0,2.21-2.01,3.27-4.13,3.27
				c-1.68,0-3.06-0.6-3.91-1.62l1.29-1.42c0.65,0.68,1.58,1.07,2.54,1.07c1.09,0,1.96-0.47,1.96-1.46c0-0.96-0.98-1.46-2.19-1.46
				h-1.3v-1.92h1.31c1.09,0,1.96-0.48,1.96-1.42c0-0.9-0.82-1.4-1.85-1.4c-1.04,0-1.81,0.54-2.26,1.14l-1.36-1.37
				c0.74-0.99,1.95-1.73,3.73-1.73C26.25,151.32,27.86,152.6,27.86,154.53z"/>
			<path class="st5" d="M35.64,154.36c0,1.76-1.34,3.06-3.13,3.06c-1.78,0-3.12-1.3-3.12-3.06c0-1.74,1.33-3.05,3.12-3.05
				C34.31,151.32,35.64,152.62,35.64,154.36z M31.17,154.36c0,0.82,0.58,1.39,1.34,1.39c0.78,0,1.35-0.58,1.35-1.39
				c0-0.8-0.57-1.38-1.35-1.38C31.75,152.99,31.17,153.56,31.17,154.36z M34,162.71h-2.1l7.51-11.19h2.09L34,162.71z M44.05,159.86
				c0,1.75-1.34,3.05-3.13,3.05c-1.78,0-3.12-1.3-3.12-3.05c0-1.73,1.34-3.05,3.12-3.05C42.71,156.8,44.05,158.11,44.05,159.86z
				 M39.58,159.86c0,0.81,0.57,1.38,1.34,1.38c0.78,0,1.35-0.58,1.35-1.38s-0.57-1.38-1.35-1.38
				C40.15,158.47,39.58,159.05,39.58,159.86z"/>
		</g>
		<g>
			<path class="st5" d="M26.92,113.98h1.56V116h-1.56v2.05h-2.16V116h-4.97v-1.57l3.93-7.57h2.4l-3.74,7.12h2.38V111h2.16V113.98z"
				/>
			<path class="st5" d="M35.64,109.69c0,1.76-1.34,3.06-3.13,3.06c-1.78,0-3.12-1.3-3.12-3.06c0-1.74,1.33-3.05,3.12-3.05
				C34.31,106.65,35.64,107.95,35.64,109.69z M31.17,109.69c0,0.82,0.58,1.39,1.34,1.39c0.78,0,1.35-0.58,1.35-1.39
				c0-0.8-0.57-1.38-1.35-1.38C31.75,108.32,31.17,108.9,31.17,109.69z M34,118.04h-2.09l7.51-11.19h2.09L34,118.04z M44.05,115.19
				c0,1.75-1.34,3.05-3.13,3.05c-1.78,0-3.12-1.3-3.12-3.05c0-1.73,1.33-3.05,3.12-3.05C42.71,112.13,44.05,113.44,44.05,115.19z
				 M39.58,115.19c0,0.81,0.57,1.38,1.34,1.38c0.78,0,1.35-0.58,1.35-1.38s-0.57-1.38-1.35-1.38
				C40.14,113.8,39.58,114.38,39.58,115.19z"/>
		</g>
		<g>
			<path class="st5" d="M27.44,64.19h-4.53l-0.05,2.24h1.29c2.61,0,3.92,1.5,3.92,3.37c0,2.41-1.82,3.78-4.09,3.78
				c-1.67,0-3.04-0.62-3.97-1.67l1.22-1.51c0.61,0.66,1.7,1.18,2.73,1.18c1.25,0,1.86-0.74,1.86-1.62c0-0.84-0.53-1.58-2.28-1.58
				h-2.66l0.12-6.2h6.44V64.19z"/>
			<path class="st5" d="M35.64,65.03c0,1.76-1.34,3.06-3.13,3.06c-1.78,0-3.12-1.3-3.12-3.06c0-1.74,1.33-3.05,3.12-3.05
				C34.31,61.98,35.64,63.28,35.64,65.03z M31.17,65.03c0,0.82,0.58,1.39,1.34,1.39c0.78,0,1.35-0.58,1.35-1.39
				c0-0.8-0.57-1.38-1.35-1.38C31.75,63.65,31.17,64.23,31.17,65.03z M34,73.37h-2.09l7.51-11.19h2.09L34,73.37z M44.05,70.52
				c0,1.75-1.34,3.05-3.13,3.05c-1.78,0-3.12-1.3-3.12-3.05c0-1.73,1.33-3.05,3.12-3.05C42.71,67.47,44.05,68.78,44.05,70.52z
				 M39.58,70.52c0,0.81,0.57,1.38,1.34,1.38c0.78,0,1.35-0.58,1.35-1.38s-0.57-1.38-1.35-1.38C40.14,69.14,39.58,69.71,39.58,70.52
				z"/>
		</g>
		<g>
			<path class="st5" d="M23.88,20.41c0.15-0.02,0.33-0.03,0.52-0.03c2.27,0,3.88,1.62,3.88,3.72c0,2.19-1.81,3.81-4.21,3.81
				c-2.39,0-4.2-1.61-4.2-3.77c0-1.02,0.38-1.95,1.06-2.97l3.1-4.65h2.61L23.88,20.41z M22.11,24.11c0,1.09,0.84,1.84,1.95,1.84
				c1.13,0,1.97-0.75,1.97-1.84c0-1.08-0.84-1.84-1.97-1.84C22.95,22.27,22.11,23.03,22.11,24.11z"/>
			<path class="st5" d="M35.64,19.36c0,1.76-1.34,3.06-3.13,3.06c-1.78,0-3.12-1.3-3.12-3.06c0-1.74,1.33-3.05,3.12-3.05
				C34.31,16.31,35.64,17.62,35.64,19.36z M31.17,19.36c0,0.82,0.58,1.39,1.34,1.39c0.78,0,1.35-0.58,1.35-1.39
				c0-0.8-0.57-1.38-1.35-1.38C31.75,17.98,31.17,18.56,31.17,19.36z M34,27.71h-2.1l7.51-11.19h2.09L34,27.71z M44.05,24.85
				c0,1.75-1.34,3.05-3.13,3.05c-1.78,0-3.12-1.3-3.12-3.05c0-1.73,1.34-3.05,3.12-3.05C42.71,21.8,44.05,23.11,44.05,24.85z
				 M39.58,24.85c0,0.81,0.57,1.38,1.34,1.38c0.78,0,1.35-0.58,1.35-1.38s-0.57-1.38-1.35-1.38C40.15,23.47,39.58,24.04,39.58,24.85
				z"/>
		</g>
	</g>
</g>
</svg>
