<svg id="Layer_1" data-name="Layer 1" xmlns="http://www.w3.org/2000/svg" viewBox="0 0 525.87 302.83"><defs><style>.cls-1{fill:#ed5b35;}.cls-2{fill:none;stroke-width:1.62px;}.cls-2,.cls-4,.cls-5{stroke:#203232;stroke-miterlimit:10;}.cls-3,.cls-4,.cls-5{fill:#203232;}.cls-4{stroke-width:2px;}.cls-5{stroke-width:0.45px;}</style></defs><rect class="cls-1" x="60.77" y="43.34" width="36.5" height="208.82"/><rect class="cls-1" x="165.42" y="172.32" width="36.5" height="79.84"/><rect class="cls-1" x="270.07" y="67.91" width="36.5" height="184.25"/><rect class="cls-1" x="374.72" y="39.25" width="36.5" height="212.92"/><rect class="cls-1" x="479.36" y="80.19" width="36.5" height="171.97"/><line class="cls-2" x1="41.33" y1="252.16" x2="525.87" y2="252.16"/><path class="cls-3" d="M297.36,496.42a4.09,4.09,0,0,1,1.67.34,3.61,3.61,0,0,1,1.38,1.06,5.16,5.16,0,0,1,.94,1.81,8.65,8.65,0,0,1,.34,2.59,9,9,0,0,1-.34,2.66,5,5,0,0,1-.94,1.79,3.41,3.41,0,0,1-1.38,1,4.25,4.25,0,0,1-1.67.33,4.49,4.49,0,0,1-1.71-.33,3.54,3.54,0,0,1-1.4-1,5.14,5.14,0,0,1-.95-1.79,10.28,10.28,0,0,1,0-5.32,5.29,5.29,0,0,1,.95-1.8,3.54,3.54,0,0,1,1.4-1A4.68,4.68,0,0,1,297.36,496.42Zm0,2.07a1.84,1.84,0,0,0-.83.19,1.77,1.77,0,0,0-.7.62,3.53,3.53,0,0,0-.47,1.15,7.3,7.3,0,0,0-.18,1.77,7.42,7.42,0,0,0,.18,1.77,3.53,3.53,0,0,0,.47,1.15,1.85,1.85,0,0,0,.7.62,2,2,0,0,0,.83.19,1.88,1.88,0,0,0,.8-.19,1.78,1.78,0,0,0,.67-.62,3.53,3.53,0,0,0,.47-1.15,8,8,0,0,0,.17-1.77,7.56,7.56,0,0,0-.17-1.7,3.79,3.79,0,0,0-.47-1.16,1.91,1.91,0,0,0-.67-.66A1.65,1.65,0,0,0,297.36,498.49Z" transform="translate(-284.38 -250.75)"/><path class="cls-3" d="M305.84,496.42a3.34,3.34,0,0,1,1.24.23,3.19,3.19,0,0,1,1,.64,2.94,2.94,0,0,1,.66,1,3.22,3.22,0,0,1,0,2.44,3,3,0,0,1-.66,1,3.19,3.19,0,0,1-1,.64,3.46,3.46,0,0,1-2.48,0,3.19,3.19,0,0,1-1-.64,3,3,0,0,1-.66-1,3.35,3.35,0,0,1,0-2.44,2.94,2.94,0,0,1,.66-1,3.19,3.19,0,0,1,1-.64A3.34,3.34,0,0,1,305.84,496.42Zm0,1.67a1.4,1.4,0,0,0-.54.1,1.42,1.42,0,0,0-.43.29,1.23,1.23,0,0,0-.28.44,1.58,1.58,0,0,0-.1.55,1.69,1.69,0,0,0,.1.56,1.44,1.44,0,0,0,.28.44,1.23,1.23,0,0,0,.43.28,1.41,1.41,0,0,0,.54.11,1.33,1.33,0,0,0,.54-.11,1.15,1.15,0,0,0,.43-.28,1.44,1.44,0,0,0,.28-.44,1.47,1.47,0,0,0,.1-.56,1.38,1.38,0,0,0-.1-.55,1.23,1.23,0,0,0-.28-.44,1.3,1.3,0,0,0-.43-.29A1.33,1.33,0,0,0,305.84,498.09Zm1.49,9.73h-2.1l7.51-11.2h2.09Zm6.92-5.91a3.18,3.18,0,0,1,1.24.23,3,3,0,0,1,1,.64,2.88,2.88,0,0,1,.66,1,3.32,3.32,0,0,1,0,2.43,3,3,0,0,1-.66,1,3.19,3.19,0,0,1-1,.64,3.37,3.37,0,0,1-1.24.23,3.34,3.34,0,0,1-1.24-.23,3.19,3.19,0,0,1-1-.64,3,3,0,0,1-.66-1,3.32,3.32,0,0,1,0-2.43,2.94,2.94,0,0,1,.66-1,3,3,0,0,1,1-.65A3.34,3.34,0,0,1,314.25,501.91Zm0,1.67a1.37,1.37,0,0,0-.54.1,1.3,1.3,0,0,0-.43.29,1.33,1.33,0,0,0-.28.44,1.58,1.58,0,0,0-.1.55,1.64,1.64,0,0,0,.1.56,1.44,1.44,0,0,0,.28.44,1.28,1.28,0,0,0,.43.28,1.37,1.37,0,0,0,.54.11,1.41,1.41,0,0,0,.54-.11,1.28,1.28,0,0,0,.43-.28,1.44,1.44,0,0,0,.28-.44,1.64,1.64,0,0,0,.1-.56,1.58,1.58,0,0,0-.1-.55,1.33,1.33,0,0,0-.28-.44,1.3,1.3,0,0,0-.43-.29A1.4,1.4,0,0,0,314.25,503.58Z" transform="translate(-284.38 -250.75)"/><path class="cls-3" d="M293.29,457.4a6.06,6.06,0,0,1,.56-.63,4.64,4.64,0,0,1,.8-.63,4.59,4.59,0,0,1,2.47-.67,4.36,4.36,0,0,1,1.58.27,3.33,3.33,0,0,1,1.2.74,3.06,3.06,0,0,1,.75,1.14,3.92,3.92,0,0,1,.27,1.47,3.21,3.21,0,0,1-.13,1,3.68,3.68,0,0,1-.34.85,4.52,4.52,0,0,1-.51.75c-.19.24-.41.48-.64.72l-2.39,2.49h4.28v2h-7.4v-1.68l4-4.06a3.46,3.46,0,0,0,.68-.92,2.2,2.2,0,0,0,.24-1,1.78,1.78,0,0,0-.12-.67,1.63,1.63,0,0,0-.35-.53,1.53,1.53,0,0,0-.54-.35,2,2,0,0,0-.7-.12,2.39,2.39,0,0,0-.73.1,2.11,2.11,0,0,0-.59.27,3.14,3.14,0,0,0-.51.39c-.15.15-.3.3-.44.47Z" transform="translate(-284.38 -250.75)"/><path class="cls-3" d="M305.84,455.47a3.15,3.15,0,0,1,1.24.24,2.86,2.86,0,0,1,1,.64,2.94,2.94,0,0,1,.66,1,3,3,0,0,1,.24,1.21,3.14,3.14,0,0,1-.24,1.23,2.94,2.94,0,0,1-.66,1,2.86,2.86,0,0,1-1,.64,3.46,3.46,0,0,1-2.48,0,2.86,2.86,0,0,1-1-.64,2.94,2.94,0,0,1-.66-1,3.32,3.32,0,0,1-.23-1.23,3.18,3.18,0,0,1,.23-1.21,2.94,2.94,0,0,1,.66-1,2.86,2.86,0,0,1,1-.64A3.15,3.15,0,0,1,305.84,455.47Zm0,1.68a1.36,1.36,0,0,0-1,.38,1.33,1.33,0,0,0-.28.44,1.63,1.63,0,0,0-.1.55,1.69,1.69,0,0,0,.1.56,1.33,1.33,0,0,0,.28.44,1.42,1.42,0,0,0,.43.29,1.4,1.4,0,0,0,.54.1,1.33,1.33,0,0,0,.54-.1,1.3,1.3,0,0,0,.43-.29,1.33,1.33,0,0,0,.28-.44,1.47,1.47,0,0,0,.1-.56,1.42,1.42,0,0,0-.1-.55,1.33,1.33,0,0,0-.28-.44,1.28,1.28,0,0,0-.43-.28A1.33,1.33,0,0,0,305.84,457.15Zm1.49,9.72h-2.1l7.51-11.2h2.09Zm6.92-5.91a3.37,3.37,0,0,1,1.24.23,3.19,3.19,0,0,1,1,.64,3.09,3.09,0,0,1,.66,1,3,3,0,0,1,.23,1.22,3,3,0,0,1-.23,1.21,2.88,2.88,0,0,1-.66,1,3,3,0,0,1-1,.64,3.18,3.18,0,0,1-1.24.23,3.15,3.15,0,0,1-1.24-.23,3,3,0,0,1-1-.64,2.88,2.88,0,0,1-.66-1,3.3,3.3,0,0,1,0-2.42,3,3,0,0,1,.66-1,3,3,0,0,1,1-.64A3.15,3.15,0,0,1,314.25,461Zm0,1.67a1.37,1.37,0,0,0-.54.11,1.17,1.17,0,0,0-.43.29,1.28,1.28,0,0,0-.28.43,1.64,1.64,0,0,0-.1.56,1.58,1.58,0,0,0,.1.55,1.33,1.33,0,0,0,.28.44,1.3,1.3,0,0,0,.43.29,1.37,1.37,0,0,0,.54.1,1.4,1.4,0,0,0,.54-.1,1.3,1.3,0,0,0,.43-.29,1.33,1.33,0,0,0,.28-.44,1.58,1.58,0,0,0,.1-.55,1.64,1.64,0,0,0-.1-.56,1.28,1.28,0,0,0-.28-.43,1.17,1.17,0,0,0-.43-.29A1.41,1.41,0,0,0,314.25,462.63Z" transform="translate(-284.38 -250.75)"/><path class="cls-3" d="M300.11,421.86h1.56v2h-1.56v2.05H298v-2.05h-5v-1.57l3.93-7.57h2.4l-3.74,7.12H298v-3h2.16Z" transform="translate(-284.38 -250.75)"/><path class="cls-3" d="M305.84,414.53a3.34,3.34,0,0,1,1.24.23,3,3,0,0,1,1,.64,2.94,2.94,0,0,1,.66,1,3.22,3.22,0,0,1,0,2.44,3,3,0,0,1-.66,1,3.19,3.19,0,0,1-1,.64,3.46,3.46,0,0,1-2.48,0,3.19,3.19,0,0,1-1-.64,3,3,0,0,1-.66-1,3.35,3.35,0,0,1,0-2.44,2.94,2.94,0,0,1,.66-1,3,3,0,0,1,1-.64A3.34,3.34,0,0,1,305.84,414.53Zm0,1.67a1.4,1.4,0,0,0-.54.1,1.42,1.42,0,0,0-.43.29,1.28,1.28,0,0,0-.28.43,1.69,1.69,0,0,0-.1.56,1.74,1.74,0,0,0,.1.56,1.44,1.44,0,0,0,.28.44,1.39,1.39,0,0,0,.43.28,1.41,1.41,0,0,0,.54.11,1.33,1.33,0,0,0,.54-.11,1.28,1.28,0,0,0,.43-.28,1.44,1.44,0,0,0,.28-.44,1.5,1.5,0,0,0,.1-.56,1.47,1.47,0,0,0-.1-.56,1.28,1.28,0,0,0-.28-.43,1.3,1.3,0,0,0-.43-.29A1.33,1.33,0,0,0,305.84,416.2Zm1.49,9.73h-2.1l7.51-11.2h2.09Zm6.92-5.91a3.18,3.18,0,0,1,1.24.23,3,3,0,0,1,1,.64,2.88,2.88,0,0,1,.66,1,3,3,0,0,1,.23,1.21,3,3,0,0,1-.89,2.19,3.19,3.19,0,0,1-1,.64,3.37,3.37,0,0,1-1.24.23,3.34,3.34,0,0,1-1.24-.23,3.19,3.19,0,0,1-1-.64,3.09,3.09,0,0,1-.66-1,3.32,3.32,0,0,1,0-2.43,2.94,2.94,0,0,1,.66-1,3,3,0,0,1,1-.65A3.15,3.15,0,0,1,314.25,420Zm0,1.67a1.37,1.37,0,0,0-.54.1,1.3,1.3,0,0,0-.43.29,1.33,1.33,0,0,0-.28.44,1.58,1.58,0,0,0-.1.55,1.69,1.69,0,0,0,.1.56,1.28,1.28,0,0,0,.28.43,1.17,1.17,0,0,0,.43.29,1.37,1.37,0,0,0,.54.11,1.41,1.41,0,0,0,.54-.11,1.17,1.17,0,0,0,.43-.29,1.28,1.28,0,0,0,.28-.43,1.69,1.69,0,0,0,.1-.56,1.58,1.58,0,0,0-.1-.55,1.33,1.33,0,0,0-.28-.44,1.3,1.3,0,0,0-.43-.29A1.4,1.4,0,0,0,314.25,421.69Z" transform="translate(-284.38 -250.75)"/><path class="cls-3" d="M297.11,377.68l.24,0h.28a3.94,3.94,0,0,1,1.56.29,3.54,3.54,0,0,1,2,2,3.78,3.78,0,0,1,.29,1.47,3.65,3.65,0,0,1-1.2,2.73,4.38,4.38,0,0,1-1.34.8,5.12,5.12,0,0,1-3.34,0,4,4,0,0,1-1.33-.79,3.72,3.72,0,0,1-.89-1.19,3.65,3.65,0,0,1-.32-1.51,4.15,4.15,0,0,1,.28-1.49,7.74,7.74,0,0,1,.79-1.49l3.1-4.65h2.61Zm.18,1.86a2.19,2.19,0,0,0-.77.14,2.07,2.07,0,0,0-.62.38,1.85,1.85,0,0,0-.41.58,1.78,1.78,0,0,0-.15.74,1.86,1.86,0,0,0,.15.75,1.74,1.74,0,0,0,.41.58,2.07,2.07,0,0,0,.62.38,2.19,2.19,0,0,0,.77.13,2.22,2.22,0,0,0,.79-.13,1.85,1.85,0,0,0,.62-.38,1.5,1.5,0,0,0,.41-.58,1.86,1.86,0,0,0,.15-.75,1.78,1.78,0,0,0-.15-.74,1.58,1.58,0,0,0-.41-.58,1.85,1.85,0,0,0-.62-.38A2.22,2.22,0,0,0,297.29,379.54Z" transform="translate(-284.38 -250.75)"/><path class="cls-3" d="M305.84,373.58a3.34,3.34,0,0,1,1.24.23,3,3,0,0,1,1,.65,2.94,2.94,0,0,1,.66,1,3,3,0,0,1,.24,1.21,3.05,3.05,0,0,1-.24,1.22,2.88,2.88,0,0,1-.66,1,3,3,0,0,1-1,.64,3.46,3.46,0,0,1-2.48,0,3,3,0,0,1-1-.64,2.88,2.88,0,0,1-.66-1,3.23,3.23,0,0,1-.23-1.22,3.18,3.18,0,0,1,.23-1.21,2.94,2.94,0,0,1,.66-1,3,3,0,0,1,1-.65A3.34,3.34,0,0,1,305.84,373.58Zm0,1.67a1.41,1.41,0,0,0-.54.11,1.39,1.39,0,0,0-.43.28,1.33,1.33,0,0,0-.28.44,1.63,1.63,0,0,0-.1.55,1.69,1.69,0,0,0,.1.56,1.33,1.33,0,0,0,.28.44,1.42,1.42,0,0,0,.43.29,1.4,1.4,0,0,0,.54.1,1.33,1.33,0,0,0,.54-.1,1.3,1.3,0,0,0,.43-.29,1.33,1.33,0,0,0,.28-.44,1.47,1.47,0,0,0,.1-.56,1.42,1.42,0,0,0-.1-.55,1.33,1.33,0,0,0-.28-.44,1.28,1.28,0,0,0-.43-.28A1.33,1.33,0,0,0,305.84,375.25Zm1.49,9.73h-2.1l7.51-11.2h2.09Zm6.92-5.91a3.37,3.37,0,0,1,1.24.23,3.19,3.19,0,0,1,1,.64,3,3,0,0,1,.66,1,3.32,3.32,0,0,1,0,2.43,2.88,2.88,0,0,1-.66,1,3,3,0,0,1-1,.64,3.18,3.18,0,0,1-1.24.23A3.15,3.15,0,0,1,313,385a3,3,0,0,1-1-.64,2.88,2.88,0,0,1-.66-1,3.22,3.22,0,0,1-.23-1.21,3.18,3.18,0,0,1,.23-1.21,3,3,0,0,1,.66-1,3,3,0,0,1,1-.64A3.15,3.15,0,0,1,314.25,379.07Zm0,1.67a1.37,1.37,0,0,0-.54.11,1.28,1.28,0,0,0-.43.28,1.44,1.44,0,0,0-.28.44,1.64,1.64,0,0,0-.1.56,1.58,1.58,0,0,0,.1.55,1.33,1.33,0,0,0,.28.44,1.3,1.3,0,0,0,.43.29,1.37,1.37,0,0,0,.54.1,1.4,1.4,0,0,0,.54-.1,1.3,1.3,0,0,0,.43-.29,1.33,1.33,0,0,0,.28-.44,1.58,1.58,0,0,0,.1-.55,1.64,1.64,0,0,0-.1-.56,1.44,1.44,0,0,0-.28-.44,1.28,1.28,0,0,0-.43-.28A1.41,1.41,0,0,0,314.25,380.74Z" transform="translate(-284.38 -250.75)"/><path class="cls-3" d="M297.33,332.64a5.53,5.53,0,0,1,1.6.22,3.84,3.84,0,0,1,1.3.63,2.94,2.94,0,0,1,.88,1,2.75,2.75,0,0,1,.33,1.35,3.06,3.06,0,0,1-.13.88,2.42,2.42,0,0,1-.91,1.25,3.54,3.54,0,0,1-.67.41,5.05,5.05,0,0,1,.77.39,3.08,3.08,0,0,1,.63.56,2.35,2.35,0,0,1,.42.72,2.52,2.52,0,0,1,.16.93,2.7,2.7,0,0,1-.34,1.37,3.26,3.26,0,0,1-.94,1,4.61,4.61,0,0,1-1.4.64,6.59,6.59,0,0,1-1.7.22,6.71,6.71,0,0,1-1.7-.22,4.55,4.55,0,0,1-1.39-.64,3.26,3.26,0,0,1-.94-1A2.7,2.7,0,0,1,293,341a2.75,2.75,0,0,1,.15-.93,2.35,2.35,0,0,1,.42-.72,3.08,3.08,0,0,1,.63-.56,5.05,5.05,0,0,1,.77-.39,3.54,3.54,0,0,1-.67-.41,2.51,2.51,0,0,1-.54-.54,2.79,2.79,0,0,1-.36-.71,2.75,2.75,0,0,1-.13-.88,2.86,2.86,0,0,1,.32-1.35,3.05,3.05,0,0,1,.88-1,4,4,0,0,1,1.31-.63A5.5,5.5,0,0,1,297.33,332.64Zm0,6.63a2.9,2.9,0,0,0-.79.1,2,2,0,0,0-.65.29,1.55,1.55,0,0,0-.44.48,1.29,1.29,0,0,0-.16.66,1.23,1.23,0,0,0,.16.65,1.41,1.41,0,0,0,.44.47,1.84,1.84,0,0,0,.65.29,3.17,3.17,0,0,0,1.58,0,1.84,1.84,0,0,0,.65-.29,1.35,1.35,0,0,0,.45-.47,1.23,1.23,0,0,0,.16-.65,1.29,1.29,0,0,0-.16-.66,1.47,1.47,0,0,0-.45-.48,2,2,0,0,0-.65-.29A2.9,2.9,0,0,0,297.33,339.27Zm0-4.68a2.63,2.63,0,0,0-.7.09,1.65,1.65,0,0,0-.58.28,1.27,1.27,0,0,0-.38.45,1.22,1.22,0,0,0-.14.61,1.34,1.34,0,0,0,.14.64,1.4,1.4,0,0,0,.38.46,2.08,2.08,0,0,0,.58.28,2.63,2.63,0,0,0,.7.09,2.71,2.71,0,0,0,.71-.09,1.9,1.9,0,0,0,.57-.28,1.32,1.32,0,0,0,.39-.46,1.34,1.34,0,0,0,.14-.64,1.22,1.22,0,0,0-.14-.61,1.2,1.2,0,0,0-.39-.45,1.52,1.52,0,0,0-.57-.28A2.71,2.71,0,0,0,297.33,334.59Z" transform="translate(-284.38 -250.75)"/><path class="cls-3" d="M305.84,332.64a3.15,3.15,0,0,1,1.24.23,3,3,0,0,1,1,.64,2.94,2.94,0,0,1,.66,1,3.22,3.22,0,0,1,0,2.44,3.09,3.09,0,0,1-.66,1,3.19,3.19,0,0,1-1,.64,3.46,3.46,0,0,1-2.48,0,3.19,3.19,0,0,1-1-.64,3.09,3.09,0,0,1-.66-1,3.35,3.35,0,0,1,0-2.44,2.94,2.94,0,0,1,.66-1,3,3,0,0,1,1-.64A3.15,3.15,0,0,1,305.84,332.64Zm0,1.67a1.4,1.4,0,0,0-.54.1,1.42,1.42,0,0,0-.43.29,1.28,1.28,0,0,0-.28.43,1.68,1.68,0,0,0-.1.55,1.64,1.64,0,0,0,.1.56,1.23,1.23,0,0,0,.28.44,1.26,1.26,0,0,0,.43.29,1.41,1.41,0,0,0,.54.11,1.33,1.33,0,0,0,.54-.11,1.17,1.17,0,0,0,.43-.29,1.23,1.23,0,0,0,.28-.44,1.43,1.43,0,0,0,.1-.56,1.45,1.45,0,0,0-.1-.55,1.28,1.28,0,0,0-.28-.43,1.3,1.3,0,0,0-.43-.29A1.33,1.33,0,0,0,305.84,334.31Zm1.49,9.73h-2.1l7.51-11.2h2.09Zm6.92-5.92a3.19,3.19,0,0,1,1.24.24,2.86,2.86,0,0,1,1,.64,2.94,2.94,0,0,1,.66,1,3.35,3.35,0,0,1,0,2.44,2.94,2.94,0,0,1-.66,1,2.86,2.86,0,0,1-1,.64,3.19,3.19,0,0,1-1.24.24A3.15,3.15,0,0,1,313,344a2.86,2.86,0,0,1-1-.64,2.94,2.94,0,0,1-.66-1,3.32,3.32,0,0,1,0-2.43,3.09,3.09,0,0,1,.66-1,3.19,3.19,0,0,1,1-.64A3.15,3.15,0,0,1,314.25,338.12Zm0,1.68a1.37,1.37,0,0,0-.54.1,1.3,1.3,0,0,0-.43.29,1.39,1.39,0,0,0-.28.43,1.62,1.62,0,0,0,0,1.12,1.39,1.39,0,0,0,.28.43,1.17,1.17,0,0,0,.43.29,1.37,1.37,0,0,0,.54.1,1.4,1.4,0,0,0,.54-.1,1.17,1.17,0,0,0,.43-.29,1.39,1.39,0,0,0,.28-.43,1.62,1.62,0,0,0,0-1.12,1.39,1.39,0,0,0-.28-.43,1.3,1.3,0,0,0-.43-.29A1.4,1.4,0,0,0,314.25,339.8Z" transform="translate(-284.38 -250.75)"/><path class="cls-3" d="M287.16,301v-6.42l-2.78,1v-2.15l4.93-1.74V301h2.54v2H284.5v-2Z" transform="translate(-284.38 -250.75)"/><path class="cls-3" d="M297.36,291.69A4.1,4.1,0,0,1,299,292a3.58,3.58,0,0,1,1.38,1,5.25,5.25,0,0,1,.94,1.81,8.65,8.65,0,0,1,.34,2.59,9,9,0,0,1-.34,2.66,5.11,5.11,0,0,1-.94,1.8,3.6,3.6,0,0,1-1.38,1,4.43,4.43,0,0,1-1.67.32,4.68,4.68,0,0,1-1.71-.32,3.75,3.75,0,0,1-1.4-1,5.29,5.29,0,0,1-.95-1.8,10.28,10.28,0,0,1,0-5.32,5.29,5.29,0,0,1,.95-1.8,3.54,3.54,0,0,1,1.4-1A4.68,4.68,0,0,1,297.36,291.69Zm0,2.07a2,2,0,0,0-.83.19,1.85,1.85,0,0,0-.7.62,3.53,3.53,0,0,0-.47,1.15,7.42,7.42,0,0,0-.18,1.77,7.3,7.3,0,0,0,.18,1.77,3.53,3.53,0,0,0,.47,1.15,1.77,1.77,0,0,0,.7.62,1.84,1.84,0,0,0,.83.19,1.74,1.74,0,0,0,.8-.19,1.7,1.7,0,0,0,.67-.62,3.53,3.53,0,0,0,.47-1.15,7.91,7.91,0,0,0,.17-1.77,7.56,7.56,0,0,0-.17-1.7,3.79,3.79,0,0,0-.47-1.16,1.91,1.91,0,0,0-.67-.66A1.65,1.65,0,0,0,297.36,293.76Z" transform="translate(-284.38 -250.75)"/><path class="cls-3" d="M305.84,291.69a3.34,3.34,0,0,1,1.24.23,3.19,3.19,0,0,1,1,.64,3.09,3.09,0,0,1,.66,1,3,3,0,0,1,.24,1.21,3.05,3.05,0,0,1-.24,1.22,2.88,2.88,0,0,1-.66,1,3,3,0,0,1-1,.64,3.46,3.46,0,0,1-2.48,0,3,3,0,0,1-1-.64,2.88,2.88,0,0,1-.66-1,3.23,3.23,0,0,1-.23-1.22,3.18,3.18,0,0,1,.23-1.21,3.09,3.09,0,0,1,.66-1,3.19,3.19,0,0,1,1-.64A3.34,3.34,0,0,1,305.84,291.69Zm0,1.67a1.41,1.41,0,0,0-.54.11,1.39,1.39,0,0,0-.43.28,1.33,1.33,0,0,0-.28.44,1.63,1.63,0,0,0-.1.55,1.69,1.69,0,0,0,.1.56,1.33,1.33,0,0,0,.28.44,1.42,1.42,0,0,0,.43.29,1.4,1.4,0,0,0,.54.1,1.33,1.33,0,0,0,.54-.1,1.3,1.3,0,0,0,.43-.29,1.33,1.33,0,0,0,.28-.44,1.47,1.47,0,0,0,.1-.56,1.42,1.42,0,0,0-.1-.55,1.33,1.33,0,0,0-.28-.44,1.28,1.28,0,0,0-.43-.28A1.33,1.33,0,0,0,305.84,293.36Zm1.49,9.73h-2.1l7.51-11.2h2.09Zm6.92-5.91a3.37,3.37,0,0,1,1.24.23,3.19,3.19,0,0,1,1,.64,3,3,0,0,1,.66,1,3.32,3.32,0,0,1,0,2.43,3,3,0,0,1-.66,1,3.19,3.19,0,0,1-1,.64,3.37,3.37,0,0,1-1.24.23,3.34,3.34,0,0,1-1.24-.23,3.19,3.19,0,0,1-1-.64,3,3,0,0,1-.66-1,3.22,3.22,0,0,1-.23-1.21,3.18,3.18,0,0,1,.23-1.21,2.88,2.88,0,0,1,.66-1,3,3,0,0,1,1-.64A3.15,3.15,0,0,1,314.25,297.18Zm0,1.67a1.37,1.37,0,0,0-.54.11,1.15,1.15,0,0,0-.43.28,1.44,1.44,0,0,0-.28.44,1.59,1.59,0,0,0,0,1.11,1.44,1.44,0,0,0,.28.44,1.3,1.3,0,0,0,.43.29,1.57,1.57,0,0,0,.54.1,1.62,1.62,0,0,0,.54-.1,1.3,1.3,0,0,0,.43-.29,1.44,1.44,0,0,0,.28-.44,1.59,1.59,0,0,0,0-1.11,1.44,1.44,0,0,0-.28-.44,1.15,1.15,0,0,0-.43-.28A1.41,1.41,0,0,0,314.25,298.85Z" transform="translate(-284.38 -250.75)"/><path class="cls-3" d="M287.16,260.1v-6.43l-2.78,1v-2.16l4.93-1.74v9.33h2.54v2H284.5v-2Z" transform="translate(-284.38 -250.75)"/><path class="cls-3" d="M293.29,252.67a7.29,7.29,0,0,1,.56-.63,4.64,4.64,0,0,1,.8-.63,4.48,4.48,0,0,1,2.47-.66,4.37,4.37,0,0,1,1.58.26,3.47,3.47,0,0,1,1.2.74,3.15,3.15,0,0,1,.75,1.14,3.92,3.92,0,0,1,.27,1.47,3.32,3.32,0,0,1-.13,1,3.79,3.79,0,0,1-.34.84,4.52,4.52,0,0,1-.51.75c-.19.24-.41.48-.64.72l-2.39,2.49h4.28v2h-7.4v-1.69l4-4.06a3.46,3.46,0,0,0,.68-.92,2.17,2.17,0,0,0,.24-1,1.81,1.81,0,0,0-.12-.67,1.75,1.75,0,0,0-.35-.53,1.68,1.68,0,0,0-.54-.35,2,2,0,0,0-.7-.12,2.39,2.39,0,0,0-.73.1,2.88,2.88,0,0,0-.59.27,3.14,3.14,0,0,0-.51.39c-.15.15-.3.31-.44.47Z" transform="translate(-284.38 -250.75)"/><path class="cls-3" d="M305.84,250.75a3.15,3.15,0,0,1,1.24.23,3,3,0,0,1,1,.64,2.94,2.94,0,0,1,.66,1,3,3,0,0,1,.24,1.21,3,3,0,0,1-.9,2.2,3.19,3.19,0,0,1-1,.64,3.46,3.46,0,0,1-2.48,0,3.19,3.19,0,0,1-1-.64,3.09,3.09,0,0,1-.66-1,3.28,3.28,0,0,1-.23-1.23,3.22,3.22,0,0,1,.23-1.21,2.94,2.94,0,0,1,.66-1,3,3,0,0,1,1-.64A3.15,3.15,0,0,1,305.84,250.75Zm0,1.67a1.4,1.4,0,0,0-.54.1,1.42,1.42,0,0,0-.43.29,1.28,1.28,0,0,0-.28.43,1.68,1.68,0,0,0-.1.55,1.64,1.64,0,0,0,.1.56,1.33,1.33,0,0,0,.28.44,1.26,1.26,0,0,0,.43.29,1.41,1.41,0,0,0,.54.11,1.33,1.33,0,0,0,.54-.11,1.17,1.17,0,0,0,.43-.29,1.33,1.33,0,0,0,.28-.44,1.43,1.43,0,0,0,.1-.56,1.45,1.45,0,0,0-.1-.55,1.28,1.28,0,0,0-.28-.43,1.3,1.3,0,0,0-.43-.29A1.33,1.33,0,0,0,305.84,252.42Zm1.49,9.73h-2.1l7.51-11.2h2.09Zm6.92-5.92a3.19,3.19,0,0,1,1.24.24,2.86,2.86,0,0,1,1,.64,2.94,2.94,0,0,1,.66,1,3.35,3.35,0,0,1,0,2.44,2.94,2.94,0,0,1-.66,1,2.86,2.86,0,0,1-1,.64,3.19,3.19,0,0,1-1.24.24,3.15,3.15,0,0,1-1.24-.24,2.86,2.86,0,0,1-1-.64,2.94,2.94,0,0,1-.66-1,3.32,3.32,0,0,1,0-2.43,3.09,3.09,0,0,1,.66-1,3.19,3.19,0,0,1,1-.64A3.15,3.15,0,0,1,314.25,256.23Zm0,1.68a1.37,1.37,0,0,0-.54.1,1.3,1.3,0,0,0-.43.29,1.39,1.39,0,0,0-.28.43,1.62,1.62,0,0,0,0,1.12,1.39,1.39,0,0,0,.28.43,1.3,1.3,0,0,0,.43.29,1.37,1.37,0,0,0,.54.1,1.4,1.4,0,0,0,.54-.1,1.3,1.3,0,0,0,.43-.29,1.39,1.39,0,0,0,.28-.43,1.62,1.62,0,0,0,0-1.12,1.39,1.39,0,0,0-.28-.43,1.3,1.3,0,0,0-.43-.29A1.4,1.4,0,0,0,314.25,257.91Z" transform="translate(-284.38 -250.75)"/><line class="cls-4" x1="41.33" y1="252.43" x2="41.33" y2="6.28"/><line class="cls-5" x1="41.24" y1="252.16" x2="51.24" y2="252.16"/><line class="cls-5" x1="41.24" y1="211.22" x2="51.24" y2="211.22"/><line class="cls-5" x1="41.24" y1="170.27" x2="51.24" y2="170.27"/><line class="cls-5" x1="41.24" y1="129.33" x2="51.24" y2="129.33"/><line class="cls-5" x1="41.24" y1="88.38" x2="51.24" y2="88.38"/><line class="cls-5" x1="41.24" y1="47.44" x2="51.24" y2="47.44"/><line class="cls-5" x1="41.24" y1="6.49" x2="51.24" y2="6.49"/><path class="cls-3" d="M359.12,526.71a5.5,5.5,0,0,1-.35,2,3.93,3.93,0,0,1-1,1.46,4.15,4.15,0,0,1-1.53.88,6.52,6.52,0,0,1-3.91,0,4,4,0,0,1-1.52-.88,3.71,3.71,0,0,1-1-1.46,5.29,5.29,0,0,1-.36-2V520h2.24v6.62a3.47,3.47,0,0,0,.19,1.18,2.2,2.2,0,0,0,.53.83,2.31,2.31,0,0,0,.82.48,3.41,3.41,0,0,0,1.05.15,3.51,3.51,0,0,0,1.05-.15,2.31,2.31,0,0,0,.82-.48,2.18,2.18,0,0,0,.52-.83,3.25,3.25,0,0,0,.19-1.18V520h2.24Z" transform="translate(-284.38 -250.75)"/><path class="cls-3" d="M362.31,528.28a1.52,1.52,0,0,1,.59.12,1.49,1.49,0,0,1,.49.34,1.72,1.72,0,0,1,.34.49,1.48,1.48,0,0,1,.12.59,1.53,1.53,0,0,1-.12.6,1.92,1.92,0,0,1-.34.5,1.87,1.87,0,0,1-.49.34,1.54,1.54,0,0,1-1.19,0,1.77,1.77,0,0,1-.5-.34,1.92,1.92,0,0,1-.34-.5,1.53,1.53,0,0,1-.12-.6,1.48,1.48,0,0,1,.12-.59,1.72,1.72,0,0,1,.34-.49,1.43,1.43,0,0,1,.5-.34A1.53,1.53,0,0,1,362.31,528.28Z" transform="translate(-284.38 -250.75)"/><path class="cls-3" d="M373.39,522.8a8.15,8.15,0,0,0-1.46-.68,5.34,5.34,0,0,0-1.72-.27,3.85,3.85,0,0,0-.86.09,2.35,2.35,0,0,0-.68.27,1.19,1.19,0,0,0-.44.42,1,1,0,0,0-.16.57.78.78,0,0,0,.17.52,1.3,1.3,0,0,0,.48.35,3.67,3.67,0,0,0,.73.24q.42.11.93.18l.63.11a7.35,7.35,0,0,1,1.4.35,3.87,3.87,0,0,1,1.14.61,2.65,2.65,0,0,1,1,2.17,3.28,3.28,0,0,1-.38,1.61,3.36,3.36,0,0,1-1,1.14,4.56,4.56,0,0,1-1.46.68,6.64,6.64,0,0,1-1.74.22,9.29,9.29,0,0,1-1.28-.09,8.27,8.27,0,0,1-1.26-.28,6.62,6.62,0,0,1-1.17-.46,5.39,5.39,0,0,1-1-.63l1.16-1.8a6.53,6.53,0,0,0,.7.46,5.82,5.82,0,0,0,2.87.74,4.77,4.77,0,0,0,.87-.08,2.32,2.32,0,0,0,.7-.27,1.34,1.34,0,0,0,.46-.42,1,1,0,0,0,.17-.58.81.81,0,0,0-.15-.49,1.19,1.19,0,0,0-.45-.36,4,4,0,0,0-.75-.26c-.29-.07-.64-.14-1-.2l-.72-.11a7.5,7.5,0,0,1-1.36-.35,3.53,3.53,0,0,1-1.08-.61,2.66,2.66,0,0,1-.72-.94,3.09,3.09,0,0,1-.25-1.31,3.21,3.21,0,0,1,.36-1.54,3.27,3.27,0,0,1,1-1.11,4.33,4.33,0,0,1,1.42-.67,5.92,5.92,0,0,1,1.7-.23,8.26,8.26,0,0,1,1.13.07,6.14,6.14,0,0,1,1.07.21,7.19,7.19,0,0,1,1,.37,9.41,9.41,0,0,1,1,.54Z" transform="translate(-284.38 -250.75)"/><path class="cls-3" d="M377.56,528.28a1.45,1.45,0,0,1,.59.12,1.53,1.53,0,0,1,.5.34,1.51,1.51,0,0,1,.33.49,1.49,1.49,0,0,1,.13.59,1.54,1.54,0,0,1-.13.6,1.67,1.67,0,0,1-.33.5,1.92,1.92,0,0,1-.5.34,1.51,1.51,0,0,1-1.18,0,1.77,1.77,0,0,1-.5-.34,1.7,1.7,0,0,1-.34-.5,1.38,1.38,0,0,1-.13-.6,1.34,1.34,0,0,1,.13-.59,1.54,1.54,0,0,1,.34-.49,1.53,1.53,0,0,1,1.09-.46Z" transform="translate(-284.38 -250.75)"/><path class="cls-3" d="M342.31,550.38h-8.37v-11.2h8.31v2.05h-6.08v2.48H342v2h-5.8v2.57h6.14Z" transform="translate(-284.38 -250.75)"/><path class="cls-3" d="M347.58,542.42a2.8,2.8,0,0,1,2.32,1.06v-.85h2v11h-2.08v-4a2.71,2.71,0,0,1-.94.73,2.91,2.91,0,0,1-1.34.28,3.55,3.55,0,0,1-1.49-.31,3.74,3.74,0,0,1-1.19-.86,4,4,0,0,1-.79-1.29,4.83,4.83,0,0,1,0-3.24,4,4,0,0,1,.79-1.29,3.9,3.9,0,0,1,1.19-.86A3.55,3.55,0,0,1,347.58,542.42Zm.39,1.94a2,2,0,0,0-.83.17,1.83,1.83,0,0,0-.63.46,1.86,1.86,0,0,0-.4.68,2.56,2.56,0,0,0,0,1.67,1.81,1.81,0,0,0,.4.67,1.71,1.71,0,0,0,.63.46,2,2,0,0,0,.83.17,2.13,2.13,0,0,0,.81-.16,1.81,1.81,0,0,0,.63-.45,1.88,1.88,0,0,0,.41-.68,2.48,2.48,0,0,0,0-1.7,2,2,0,0,0-.41-.68,1.81,1.81,0,0,0-.63-.45A2.13,2.13,0,0,0,348,544.36Z" transform="translate(-284.38 -250.75)"/><path class="cls-3" d="M361.41,547.08a3.81,3.81,0,0,1-.3,1.58,3,3,0,0,1-.81,1.08,3.17,3.17,0,0,1-1.17.64,4.86,4.86,0,0,1-1.39.2,4.92,4.92,0,0,1-1.39-.2,3.33,3.33,0,0,1-1.17-.64,3,3,0,0,1-.81-1.08,3.81,3.81,0,0,1-.3-1.58v-4.45h2.09v4.26a2.36,2.36,0,0,0,.12.8,1.45,1.45,0,0,0,.33.54,1.36,1.36,0,0,0,.5.31,2.19,2.19,0,0,0,.63.1,2.13,2.13,0,0,0,.63-.1,1.36,1.36,0,0,0,.5-.31,1.47,1.47,0,0,0,.34-.54,2.36,2.36,0,0,0,.12-.8v-4.26h2.08Z" transform="translate(-284.38 -250.75)"/><path class="cls-3" d="M364.57,538.75a1.3,1.3,0,0,1,.52.1,1.42,1.42,0,0,1,.71.71,1.39,1.39,0,0,1,.1.53,1.35,1.35,0,0,1-.1.53,1.37,1.37,0,0,1-.29.42,1.34,1.34,0,0,1-.42.28,1.3,1.3,0,0,1-.52.1,1.32,1.32,0,0,1-.53-.1,1.34,1.34,0,0,1-.42-.28,1.19,1.19,0,0,1-.28-.42,1.35,1.35,0,0,1-.1-.53,1.39,1.39,0,0,1,.1-.53,1.19,1.19,0,0,1,.28-.42,1.37,1.37,0,0,1,.42-.29A1.32,1.32,0,0,1,364.57,538.75Zm1.05,11.63h-2.09v-7.75h2.09Z" transform="translate(-284.38 -250.75)"/><path class="cls-3" d="M373.44,544.48h-2.81v2.84a1.82,1.82,0,0,0,.09.61,1.19,1.19,0,0,0,.25.41.87.87,0,0,0,.37.22,1.33,1.33,0,0,0,.45.08,2.12,2.12,0,0,0,.76-.16,5.08,5.08,0,0,0,.7-.35l.76,1.63a5.18,5.18,0,0,1-1.12.59,4.18,4.18,0,0,1-1.44.23,2.8,2.8,0,0,1-2.18-.79,3.28,3.28,0,0,1-.73-2.31v-3h-1.49v-1.85h1.49v-2.31h2.09v2.31h2.81Z" transform="translate(-284.38 -250.75)"/><path class="cls-3" d="M376.31,538.75a1.27,1.27,0,0,1,.52.1,1.3,1.3,0,0,1,.43.29,1.34,1.34,0,0,1,.28.42,1.4,1.4,0,0,1,.11.53,1.36,1.36,0,0,1-.11.53,1.34,1.34,0,0,1-.28.42,1.37,1.37,0,0,1-1.9,0,1.31,1.31,0,0,1-.38-.95,1.39,1.39,0,0,1,.1-.53,1.34,1.34,0,0,1,.28-.42,1.3,1.3,0,0,1,.43-.29A1.27,1.27,0,0,1,376.31,538.75Zm1.06,11.63h-2.09v-7.75h2.09Z" transform="translate(-284.38 -250.75)"/><path class="cls-3" d="M383,542.42a3.8,3.8,0,0,1,1.53.3,3.32,3.32,0,0,1,1.19.83,3.69,3.69,0,0,1,.77,1.29,4.84,4.84,0,0,1,.28,1.65c0,.13,0,.25,0,.38a2.92,2.92,0,0,1,0,.33h-5.5a2.11,2.11,0,0,0,.26.72,1.81,1.81,0,0,0,.45.5,1.76,1.76,0,0,0,.58.29,2.69,2.69,0,0,0,.7.09,2.83,2.83,0,0,0,1-.19,3.18,3.18,0,0,0,.94-.55l1.22,1.34a4.17,4.17,0,0,1-1.49.9,5.5,5.5,0,0,1-1.81.28,4.54,4.54,0,0,1-1.63-.29,3.68,3.68,0,0,1-2.1-2.11,4.59,4.59,0,0,1-.29-1.66,4.67,4.67,0,0,1,.28-1.66,3.82,3.82,0,0,1,.81-1.3,3.54,3.54,0,0,1,1.23-.84A4.15,4.15,0,0,1,383,542.42Zm0,1.8a1.62,1.62,0,0,0-1.17.41,2.06,2.06,0,0,0-.57,1.14h3.43a2.07,2.07,0,0,0-.58-1.15A1.54,1.54,0,0,0,383,544.22Z" transform="translate(-284.38 -250.75)"/><path class="cls-3" d="M394,544.79c-.15-.08-.33-.15-.52-.23s-.4-.14-.62-.2a6.38,6.38,0,0,0-.66-.15,5.16,5.16,0,0,0-.67-.05,1.61,1.61,0,0,0-.89.19.59.59,0,0,0-.3.51.39.39,0,0,0,.1.28.64.64,0,0,0,.27.18,1.73,1.73,0,0,0,.4.12l.49.08.69.11a3.89,3.89,0,0,1,1.94.76,1.94,1.94,0,0,1,.68,1.56,2.45,2.45,0,0,1-.24,1.09,2.2,2.2,0,0,1-.7.82,3.23,3.23,0,0,1-1.12.53,5.3,5.3,0,0,1-1.5.19,8.45,8.45,0,0,1-.85,0,7.19,7.19,0,0,1-.89-.15,5.73,5.73,0,0,1-.89-.28,4.28,4.28,0,0,1-.82-.44l.82-1.59a3.5,3.5,0,0,0,.53.31,4.84,4.84,0,0,0,.61.24,4.37,4.37,0,0,0,.69.16,5.18,5.18,0,0,0,.81.05,2.29,2.29,0,0,0,1.08-.19.58.58,0,0,0,.36-.53.51.51,0,0,0-.31-.45,3.21,3.21,0,0,0-1-.27l-.63-.08c-1.79-.25-2.68-1-2.68-2.36a2.39,2.39,0,0,1,.22-1.06,2.09,2.09,0,0,1,.65-.8,3,3,0,0,1,1-.5,5.19,5.19,0,0,1,1.37-.17,8.26,8.26,0,0,1,.88,0,7.39,7.39,0,0,1,.82.14,6.82,6.82,0,0,1,.77.23,6.37,6.37,0,0,1,.77.33Z" transform="translate(-284.38 -250.75)"/><path class="cls-3" d="M463.37,526.71a5.29,5.29,0,0,1-.36,2,3.71,3.71,0,0,1-1,1.46,4,4,0,0,1-1.53.88,6.49,6.49,0,0,1-3.9,0,4.15,4.15,0,0,1-1.53-.88,3.71,3.71,0,0,1-1-1.46,5.3,5.3,0,0,1-.35-2V520H456v6.62a3.25,3.25,0,0,0,.19,1.18,2.18,2.18,0,0,0,.52.83,2.31,2.31,0,0,0,.82.48,3.51,3.51,0,0,0,1.05.15,3.41,3.41,0,0,0,1-.15,2.31,2.31,0,0,0,.82-.48,2.2,2.2,0,0,0,.53-.83,3.47,3.47,0,0,0,.19-1.18V520h2.24Z" transform="translate(-284.38 -250.75)"/><path class="cls-3" d="M466.55,528.28a1.45,1.45,0,0,1,.59.12,1.39,1.39,0,0,1,.49.34,1.54,1.54,0,0,1,.34.49,1.48,1.48,0,0,1,.12.59,1.53,1.53,0,0,1-.12.6,1.65,1.65,0,0,1-.83.84,1.45,1.45,0,0,1-.59.12,1.53,1.53,0,0,1-.6-.12,1.65,1.65,0,0,1-.83-.84,1.38,1.38,0,0,1-.13-.6,1.34,1.34,0,0,1,.13-.59,1.54,1.54,0,0,1,.34-.49,1.39,1.39,0,0,1,.49-.34A1.53,1.53,0,0,1,466.55,528.28Z" transform="translate(-284.38 -250.75)"/><path class="cls-3" d="M477.63,522.8a7.84,7.84,0,0,0-1.46-.68,5.3,5.3,0,0,0-1.72-.27,3.85,3.85,0,0,0-.86.09,2.48,2.48,0,0,0-.68.27,1.27,1.27,0,0,0-.44.42,1,1,0,0,0-.16.57.83.83,0,0,0,.17.52,1.49,1.49,0,0,0,.48.35,3.91,3.91,0,0,0,.73.24q.44.11.93.18l.63.11a7.65,7.65,0,0,1,1.41.35,3.94,3.94,0,0,1,1.13.61,2.58,2.58,0,0,1,1,2.17,3.27,3.27,0,0,1-.37,1.61,3.39,3.39,0,0,1-1,1.14,4.56,4.56,0,0,1-1.46.68,6.56,6.56,0,0,1-1.73.22,9.32,9.32,0,0,1-1.29-.09,8.84,8.84,0,0,1-1.26-.28,6.62,6.62,0,0,1-1.17-.46,5.3,5.3,0,0,1-1-.63l1.16-1.8a5.51,5.51,0,0,0,.69.46,6.76,6.76,0,0,0,.86.38,5.63,5.63,0,0,0,1,.27,6.06,6.06,0,0,0,1.06.09,4.65,4.65,0,0,0,.86-.08,2.22,2.22,0,0,0,.7-.27,1.38,1.38,0,0,0,.47-.42,1,1,0,0,0,.17-.58.76.76,0,0,0-.16-.49,1.19,1.19,0,0,0-.45-.36,4.2,4.2,0,0,0-.74-.26c-.3-.07-.64-.14-1-.2l-.71-.11a7.61,7.61,0,0,1-1.37-.35,3.53,3.53,0,0,1-1.08-.61,2.75,2.75,0,0,1-.71-.94,3.41,3.41,0,0,1,.11-2.85,3.24,3.24,0,0,1,1-1.11,4.33,4.33,0,0,1,1.42-.67,6,6,0,0,1,1.71-.23,8.47,8.47,0,0,1,1.13.07,6.53,6.53,0,0,1,1.07.21,7.08,7.08,0,0,1,1,.37,9.53,9.53,0,0,1,1.05.54Z" transform="translate(-284.38 -250.75)"/><path class="cls-3" d="M481.81,528.28a1.52,1.52,0,0,1,.59.12,1.49,1.49,0,0,1,.49.34,1.72,1.72,0,0,1,.34.49,1.48,1.48,0,0,1,.12.59,1.53,1.53,0,0,1-.12.6,1.92,1.92,0,0,1-.34.5,1.87,1.87,0,0,1-.49.34,1.54,1.54,0,0,1-1.19,0,1.77,1.77,0,0,1-.5-.34,1.92,1.92,0,0,1-.34-.5,1.53,1.53,0,0,1-.12-.6,1.48,1.48,0,0,1,.12-.59,1.72,1.72,0,0,1,.34-.49,1.43,1.43,0,0,1,.5-.34A1.53,1.53,0,0,1,481.81,528.28Z" transform="translate(-284.38 -250.75)"/><path class="cls-3" d="M450.09,539.18a8,8,0,0,1,1.77.18,4.2,4.2,0,0,1,1.34.57,2.64,2.64,0,0,1,.85,1,3.12,3.12,0,0,1,.29,1.38,2.58,2.58,0,0,1-.12.8,2.77,2.77,0,0,1-.34.69,2.85,2.85,0,0,1-.51.53,2.19,2.19,0,0,1-.65.36,2.89,2.89,0,0,1,.72.37,2.63,2.63,0,0,1,.59.56,2.47,2.47,0,0,1,.4.73,2.37,2.37,0,0,1,.15.85,3.26,3.26,0,0,1-.28,1.41,2.56,2.56,0,0,1-.82,1,3.65,3.65,0,0,1-1.32.6,7.42,7.42,0,0,1-1.79.2h-4.85v-11.2Zm-2.34,2v2.61H450a4.67,4.67,0,0,0,.77,0,1.73,1.73,0,0,0,.63-.2,1.08,1.08,0,0,0,.42-.4,1.3,1.3,0,0,0,.15-.67,1.24,1.24,0,0,0-.15-.64,1.18,1.18,0,0,0-.43-.4,1.81,1.81,0,0,0-.62-.19,4.75,4.75,0,0,0-.78-.06Zm0,4.57v2.69h2.5a5.35,5.35,0,0,0,.84-.06,1.62,1.62,0,0,0,.63-.22,1,1,0,0,0,.4-.42,1.29,1.29,0,0,0,.14-.66,1.28,1.28,0,0,0-.14-.65,1,1,0,0,0-.4-.41,1.8,1.8,0,0,0-.63-.22,5.35,5.35,0,0,0-.84-.06Z" transform="translate(-284.38 -250.75)"/><path class="cls-3" d="M460.14,542.42a4.44,4.44,0,0,1,1.68.31,4,4,0,0,1,1.33.85,4.2,4.2,0,0,1,.88,1.3,4.14,4.14,0,0,1,.31,1.62,4.07,4.07,0,0,1-.31,1.62,4.2,4.2,0,0,1-.88,1.3,4,4,0,0,1-1.33.85,4.44,4.44,0,0,1-1.68.31,4.35,4.35,0,0,1-1.67-.31,4,4,0,0,1-1.32-.85,3.88,3.88,0,0,1-.88-1.3,4.07,4.07,0,0,1-.31-1.62,4.14,4.14,0,0,1,.31-1.62,3.88,3.88,0,0,1,.88-1.3,4,4,0,0,1,1.32-.85A4.35,4.35,0,0,1,460.14,542.42Zm0,1.94a2.17,2.17,0,0,0-.81.16,2,2,0,0,0-.66.44,2.25,2.25,0,0,0-.43.68,2.39,2.39,0,0,0-.15.86,2.35,2.35,0,0,0,.15.86,2.13,2.13,0,0,0,.43.68,2,2,0,0,0,.66.44,2.16,2.16,0,0,0,1.63,0,1.92,1.92,0,0,0,1.09-1.12,2.35,2.35,0,0,0,.16-.86,2.39,2.39,0,0,0-.16-.86,2.07,2.07,0,0,0-.43-.68,2,2,0,0,0-.66-.44A2.18,2.18,0,0,0,460.14,544.36Z" transform="translate(-284.38 -250.75)"/><path class="cls-3" d="M470.36,542.42a3.21,3.21,0,0,1,1.21.22,2.74,2.74,0,0,1,1.58,1.57,3.32,3.32,0,0,1,.22,1.23v4.94h-2.08v-4.26a1.92,1.92,0,0,0-.4-1.3,1.44,1.44,0,0,0-1.12-.44,1.9,1.9,0,0,0-.63.11,1.29,1.29,0,0,0-.52.33,1.44,1.44,0,0,0-.35.54,2,2,0,0,0-.14.77v4.25h-2.08v-7.75h2v.91a2.27,2.27,0,0,1,1-.87A3.23,3.23,0,0,1,470.36,542.42Z" transform="translate(-284.38 -250.75)"/><path class="cls-3" d="M478.77,542.42a2.81,2.81,0,0,1,2.28,1v-4.58h2.08v11.52h-2v-.86a2.88,2.88,0,0,1-.95.77,3,3,0,0,1-1.37.29,3.47,3.47,0,0,1-1.48-.31,3.67,3.67,0,0,1-1.2-.86,3.81,3.81,0,0,1-.78-1.29,4.67,4.67,0,0,1,0-3.24,3.71,3.71,0,0,1,2-2.15A3.47,3.47,0,0,1,478.77,542.42Zm.39,1.94a2,2,0,0,0-.83.17,1.83,1.83,0,0,0-.63.46,1.86,1.86,0,0,0-.4.68,2.56,2.56,0,0,0,0,1.67,1.81,1.81,0,0,0,.4.67,1.71,1.71,0,0,0,.63.46,2,2,0,0,0,.83.17,2.09,2.09,0,0,0,.81-.16,2,2,0,0,0,.64-.45,2,2,0,0,0,.4-.68,2.48,2.48,0,0,0,0-1.7,2.11,2.11,0,0,0-.4-.68,2,2,0,0,0-.64-.45A2.09,2.09,0,0,0,479.16,544.36Z" transform="translate(-284.38 -250.75)"/><path class="cls-3" d="M490.89,544.79c-.16-.08-.33-.15-.53-.23l-.61-.2c-.22-.06-.44-.11-.67-.15a5.16,5.16,0,0,0-.67-.05,1.61,1.61,0,0,0-.89.19.59.59,0,0,0-.3.51.39.39,0,0,0,.1.28.64.64,0,0,0,.27.18,1.73,1.73,0,0,0,.4.12l.5.08.68.11a3.85,3.85,0,0,1,1.94.76,1.94,1.94,0,0,1,.68,1.56,2.45,2.45,0,0,1-.24,1.09,2.2,2.2,0,0,1-.7.82,3.15,3.15,0,0,1-1.12.53,5.3,5.3,0,0,1-1.5.19,8.13,8.13,0,0,1-.84,0,7,7,0,0,1-.9-.15,5.73,5.73,0,0,1-.89-.28,4.28,4.28,0,0,1-.82-.44l.83-1.59a3.4,3.4,0,0,0,.52.31,4.84,4.84,0,0,0,.61.24,4.65,4.65,0,0,0,.69.16,5.23,5.23,0,0,0,.82.05,2.35,2.35,0,0,0,1.08-.19.59.59,0,0,0,.35-.53.49.49,0,0,0-.31-.45,3.21,3.21,0,0,0-1-.27l-.63-.08c-1.79-.25-2.68-1-2.68-2.36a2.39,2.39,0,0,1,.22-1.06,2.19,2.19,0,0,1,.65-.8,3,3,0,0,1,1-.5,5.19,5.19,0,0,1,1.37-.17,8.26,8.26,0,0,1,.88,0,7,7,0,0,1,.82.14,7.67,7.67,0,0,1,.78.23,7,7,0,0,1,.76.33Z" transform="translate(-284.38 -250.75)"/><path class="cls-3" d="M561.77,520a6.26,6.26,0,0,1,1.76.23,3.75,3.75,0,0,1,1.29.67,2.8,2.8,0,0,1,.79,1.07,3.89,3.89,0,0,1,.26,1.44,3.4,3.4,0,0,1-.23,1.26,2.78,2.78,0,0,1-.68,1,3.23,3.23,0,0,1-1.08.69,4.75,4.75,0,0,1-1.44.35l3.44,4.49h-2.7l-3.26-4.46h-.66v4.46H557V520ZM559.26,522v2.74h2.46a2.32,2.32,0,0,0,1.39-.34,1.22,1.22,0,0,0,.46-1.05,1.18,1.18,0,0,0-.47-1,2.43,2.43,0,0,0-1.38-.32Z" transform="translate(-284.38 -250.75)"/><path class="cls-3" d="M570.84,523.22a3.8,3.8,0,0,1,1.53.3,3.32,3.32,0,0,1,1.19.83,3.69,3.69,0,0,1,.77,1.29,4.84,4.84,0,0,1,.28,1.65c0,.13,0,.25,0,.38a2.92,2.92,0,0,1,0,.33h-5.5a2.11,2.11,0,0,0,.26.72,1.81,1.81,0,0,0,.45.5,1.71,1.71,0,0,0,.59.29,2.56,2.56,0,0,0,.69.09,2.83,2.83,0,0,0,1-.19,3.06,3.06,0,0,0,.94-.55l1.23,1.34a4.29,4.29,0,0,1-1.5.9,5.5,5.5,0,0,1-1.81.28,4.54,4.54,0,0,1-1.63-.29,3.68,3.68,0,0,1-2.1-2.11,4.59,4.59,0,0,1-.29-1.66,4.46,4.46,0,0,1,.29-1.66,3.8,3.8,0,0,1,.8-1.3,3.58,3.58,0,0,1,1.24-.84A4.06,4.06,0,0,1,570.84,523.22Zm0,1.8a1.63,1.63,0,0,0-1.17.41,2.06,2.06,0,0,0-.57,1.14h3.43a2.07,2.07,0,0,0-.58-1.15A1.54,1.54,0,0,0,570.82,525Z" transform="translate(-284.38 -250.75)"/><path class="cls-3" d="M583.94,531.18h-2v-.86a2.88,2.88,0,0,1-.95.77,3,3,0,0,1-1.37.29,3.55,3.55,0,0,1-1.49-.31,3.63,3.63,0,0,1-1.19-.86,4,4,0,0,1-.79-1.29,4.83,4.83,0,0,1,0-3.24,4,4,0,0,1,.79-1.29,3.78,3.78,0,0,1,1.19-.86,3.55,3.55,0,0,1,1.49-.31,3,3,0,0,1,1.37.29,2.88,2.88,0,0,1,.95.77v-.85h2Zm-4-6a2,2,0,0,0-.82.17,1.83,1.83,0,0,0-.63.46,1.86,1.86,0,0,0-.4.68,2.4,2.4,0,0,0,0,1.67,1.81,1.81,0,0,0,.4.67,1.83,1.83,0,0,0,.63.46,2,2,0,0,0,.82.17,2.14,2.14,0,0,0,.82-.16,1.81,1.81,0,0,0,.63-.45,1.88,1.88,0,0,0,.41-.68,2.65,2.65,0,0,0,0-1.7,1.88,1.88,0,0,0-.41-.68,1.81,1.81,0,0,0-.63-.45A2.14,2.14,0,0,0,580,525.16Z" transform="translate(-284.38 -250.75)"/><path class="cls-3" d="M588.22,531.18h-2.09V519.66h2.09Z" transform="translate(-284.38 -250.75)"/><path class="cls-3" d="M556.09,550.38h-8.37v-11.2H556v2.05H550v2.48h5.79v2H550v2.57h6.14Z" transform="translate(-284.38 -250.75)"/><path class="cls-3" d="M563.76,544.79c-.16-.08-.33-.15-.53-.23l-.61-.2c-.22-.06-.44-.11-.67-.15a5,5,0,0,0-.66-.05,1.65,1.65,0,0,0-.9.19.59.59,0,0,0-.3.51.43.43,0,0,0,.1.28.64.64,0,0,0,.27.18,1.9,1.9,0,0,0,.4.12l.5.08.68.11a3.85,3.85,0,0,1,1.94.76,1.91,1.91,0,0,1,.68,1.56,2.45,2.45,0,0,1-.24,1.09,2.2,2.2,0,0,1-.7.82,3.18,3.18,0,0,1-1.11.53,5.43,5.43,0,0,1-1.51.19,8.13,8.13,0,0,1-.84,0,7,7,0,0,1-.9-.15,5.73,5.73,0,0,1-.89-.28,4.6,4.6,0,0,1-.82-.44l.83-1.59a3.4,3.4,0,0,0,.52.31,4.84,4.84,0,0,0,.61.24,5,5,0,0,0,.69.16,5.23,5.23,0,0,0,.82.05,2.35,2.35,0,0,0,1.08-.19.59.59,0,0,0,.35-.53.5.5,0,0,0-.3-.45,3.38,3.38,0,0,0-1-.27l-.63-.08c-1.79-.25-2.68-1-2.68-2.36a2.39,2.39,0,0,1,.22-1.06,2.19,2.19,0,0,1,.65-.8,3.09,3.09,0,0,1,1-.5,5.19,5.19,0,0,1,1.37-.17,8.45,8.45,0,0,1,.89,0,7.21,7.21,0,0,1,.81.14,7,7,0,0,1,.78.23,6.24,6.24,0,0,1,.76.33Z" transform="translate(-284.38 -250.75)"/><path class="cls-3" d="M571.88,544.48h-2.81v2.84a1.82,1.82,0,0,0,.09.61,1.05,1.05,0,0,0,.25.41.81.81,0,0,0,.37.22,1.33,1.33,0,0,0,.45.08,2,2,0,0,0,.75-.16,4.16,4.16,0,0,0,.7-.35l.77,1.63a5,5,0,0,1-1.13.59,4.18,4.18,0,0,1-1.44.23,2.79,2.79,0,0,1-2.17-.79,3.28,3.28,0,0,1-.73-2.31v-3h-1.5v-1.85H567v-2.31h2.09v2.31h2.81Z" transform="translate(-284.38 -250.75)"/><path class="cls-3" d="M581.25,550.38h-2v-.86a2.88,2.88,0,0,1-1,.77,3,3,0,0,1-1.37.29,3.55,3.55,0,0,1-1.49-.31,3.74,3.74,0,0,1-1.19-.86,4,4,0,0,1-.79-1.29,4.83,4.83,0,0,1,0-3.24,4,4,0,0,1,.79-1.29,3.9,3.9,0,0,1,1.19-.86,3.55,3.55,0,0,1,1.49-.31,2.8,2.8,0,0,1,2.32,1.06v-.85h2Zm-4-6a2,2,0,0,0-.83.17,1.83,1.83,0,0,0-.63.46,1.86,1.86,0,0,0-.4.68,2.56,2.56,0,0,0,0,1.67,1.81,1.81,0,0,0,.4.67,1.71,1.71,0,0,0,.63.46,2,2,0,0,0,.83.17,2.09,2.09,0,0,0,.81-.16,1.81,1.81,0,0,0,.63-.45,1.88,1.88,0,0,0,.41-.68,2.48,2.48,0,0,0,0-1.7,2,2,0,0,0-.41-.68,1.81,1.81,0,0,0-.63-.45A2.09,2.09,0,0,0,577.28,544.36Z" transform="translate(-284.38 -250.75)"/><path class="cls-3" d="M589.07,544.48h-2.81v2.84a1.82,1.82,0,0,0,.09.61,1.19,1.19,0,0,0,.25.41.94.94,0,0,0,.37.22,1.33,1.33,0,0,0,.45.08,2.12,2.12,0,0,0,.76-.16,5.08,5.08,0,0,0,.7-.35l.76,1.63a5.18,5.18,0,0,1-1.12.59,4.18,4.18,0,0,1-1.44.23,2.81,2.81,0,0,1-2.18-.79,3.33,3.33,0,0,1-.73-2.31v-3h-1.49v-1.85h1.49v-2.31h2.09v2.31h2.81Z" transform="translate(-284.38 -250.75)"/><path class="cls-3" d="M594.25,542.42a3.88,3.88,0,0,1,1.54.3,3.28,3.28,0,0,1,1.18.83,3.69,3.69,0,0,1,.77,1.29,4.61,4.61,0,0,1,.28,1.65c0,.13,0,.25,0,.38s0,.24,0,.33h-5.5a2.35,2.35,0,0,0,.27.72,1.78,1.78,0,0,0,.44.5,1.81,1.81,0,0,0,.59.29,2.63,2.63,0,0,0,.7.09,2.91,2.91,0,0,0,1-.19,3.31,3.31,0,0,0,.94-.55l1.22,1.34a4.17,4.17,0,0,1-1.49.9,5.54,5.54,0,0,1-1.81.28,4.46,4.46,0,0,1-1.63-.29,3.68,3.68,0,0,1-1.27-.83,3.63,3.63,0,0,1-.83-1.28,4.38,4.38,0,0,1-.3-1.66,4.67,4.67,0,0,1,.29-1.66,3.8,3.8,0,0,1,.8-1.3,3.68,3.68,0,0,1,1.24-.84A4.09,4.09,0,0,1,594.25,542.42Zm0,1.8a1.66,1.66,0,0,0-1.18.41,2.06,2.06,0,0,0-.57,1.14h3.43a2,2,0,0,0-.57-1.15A1.56,1.56,0,0,0,594.24,544.22Z" transform="translate(-284.38 -250.75)"/><path class="cls-3" d="M628.36,531.18h-2.23V520h2.23Z" transform="translate(-284.38 -250.75)"/><path class="cls-3" d="M634.64,523.22a3.18,3.18,0,0,1,1.21.22,2.84,2.84,0,0,1,1,.62,2.7,2.7,0,0,1,.62,1,3.32,3.32,0,0,1,.23,1.23v4.94h-2.09v-4.26a1.87,1.87,0,0,0-.4-1.3,1.42,1.42,0,0,0-1.11-.44,1.91,1.91,0,0,0-.64.11,1.36,1.36,0,0,0-.52.33,1.58,1.58,0,0,0-.35.54,2,2,0,0,0-.13.77v4.25h-2.09v-7.75h2v.91a2.35,2.35,0,0,1,1-.87A3.18,3.18,0,0,1,634.64,523.22Z" transform="translate(-284.38 -250.75)"/><path class="cls-3" d="M644.4,525.28H642v5.9h-2.08v-5.9h-1.45v-1.85h1.45v-1a4,4,0,0,1,.18-1.24,2.6,2.6,0,0,1,.53-1,2.26,2.26,0,0,1,.87-.6,2.94,2.94,0,0,1,1.19-.22,4.3,4.3,0,0,1,1.37.2,4.4,4.4,0,0,1,1,.5l-.84,1.62a3.14,3.14,0,0,0-.62-.27,2.33,2.33,0,0,0-.7-.11c-.61,0-.92.37-.92,1.09v.94h2.41Z" transform="translate(-284.38 -250.75)"/><path class="cls-3" d="M649.64,523.22a5.35,5.35,0,0,1,.61,0,2.24,2.24,0,0,1,.48.13l-.31,2.07a3.59,3.59,0,0,0-.6-.18,3.91,3.91,0,0,0-.67-.07,2,2,0,0,0-.66.11,1.5,1.5,0,0,0-.51.33,1.46,1.46,0,0,0-.34.55,2.2,2.2,0,0,0-.12.76v4.22h-2.09v-7.75h2v.85a2.2,2.2,0,0,1,.91-.81A3,3,0,0,1,649.64,523.22Z" transform="translate(-284.38 -250.75)"/><path class="cls-3" d="M659.12,531.18h-2v-.86a2.88,2.88,0,0,1-1,.77,3,3,0,0,1-1.37.29,3.55,3.55,0,0,1-1.49-.31,3.74,3.74,0,0,1-1.19-.86,4,4,0,0,1-.79-1.29,4.83,4.83,0,0,1,0-3.24,4,4,0,0,1,.79-1.29,3.9,3.9,0,0,1,1.19-.86,3.55,3.55,0,0,1,1.49-.31,3,3,0,0,1,1.37.29,2.88,2.88,0,0,1,1,.77v-.85h2Zm-4-6a2,2,0,0,0-.83.17,1.83,1.83,0,0,0-.63.46,1.86,1.86,0,0,0-.4.68,2.56,2.56,0,0,0,0,1.67,1.81,1.81,0,0,0,.4.67,1.83,1.83,0,0,0,.63.46,2,2,0,0,0,.83.17,2.13,2.13,0,0,0,.81-.16,1.81,1.81,0,0,0,.63-.45,1.88,1.88,0,0,0,.41-.68,2.48,2.48,0,0,0,0-1.7,1.88,1.88,0,0,0-.41-.68,1.81,1.81,0,0,0-.63-.45A2.13,2.13,0,0,0,655.15,525.16Z" transform="translate(-284.38 -250.75)"/><path class="cls-3" d="M666.47,525.59c-.15-.08-.33-.15-.52-.23s-.4-.14-.62-.2a6.38,6.38,0,0,0-.66-.15,5.16,5.16,0,0,0-.67,0,1.61,1.61,0,0,0-.89.19.59.59,0,0,0-.3.51.39.39,0,0,0,.1.28.64.64,0,0,0,.27.18,1.73,1.73,0,0,0,.4.12l.49.08.69.11a3.89,3.89,0,0,1,1.94.76,1.94,1.94,0,0,1,.68,1.56,2.45,2.45,0,0,1-.24,1.09,2.2,2.2,0,0,1-.7.82,3.23,3.23,0,0,1-1.12.53,5.3,5.3,0,0,1-1.5.19,8.45,8.45,0,0,1-.85,0,7.19,7.19,0,0,1-.89-.15,5.73,5.73,0,0,1-.89-.28,4.28,4.28,0,0,1-.82-.44l.82-1.59a4.07,4.07,0,0,0,.53.31,4.84,4.84,0,0,0,.61.24,4.37,4.37,0,0,0,.69.16,5.18,5.18,0,0,0,.81,0,2.29,2.29,0,0,0,1.08-.19.58.58,0,0,0,.36-.53.51.51,0,0,0-.31-.45,3.21,3.21,0,0,0-1-.27l-.63-.08c-1.79-.25-2.68-1-2.68-2.36a2.39,2.39,0,0,1,.22-1.06,2.09,2.09,0,0,1,.65-.8,3,3,0,0,1,1-.5,5.19,5.19,0,0,1,1.37-.17,8.26,8.26,0,0,1,.88,0,7.39,7.39,0,0,1,.82.14,6.82,6.82,0,0,1,.77.23c.26.09.51.2.77.32Z" transform="translate(-284.38 -250.75)"/><path class="cls-3" d="M674.19,525.28h-2.8v2.84a1.82,1.82,0,0,0,.09.61,1.05,1.05,0,0,0,.25.41.84.84,0,0,0,.36.22,1.38,1.38,0,0,0,.45.08,2,2,0,0,0,.76-.16,4.57,4.57,0,0,0,.7-.35l.77,1.63a5.26,5.26,0,0,1-1.13.59,4.18,4.18,0,0,1-1.44.23,2.79,2.79,0,0,1-2.17-.79,3.28,3.28,0,0,1-.73-2.31v-3h-1.5v-1.85h1.5v-2.31h2.09v2.31h2.8Z" transform="translate(-284.38 -250.75)"/><path class="cls-3" d="M679.84,523.22a5.35,5.35,0,0,1,.61,0,2.24,2.24,0,0,1,.48.13l-.31,2.07a3.59,3.59,0,0,0-.6-.18,3.91,3.91,0,0,0-.67-.07,2,2,0,0,0-.66.11,1.5,1.5,0,0,0-.51.33,1.46,1.46,0,0,0-.34.55,2.2,2.2,0,0,0-.12.76v4.22h-2.09v-7.75h2v.85a2.2,2.2,0,0,1,.91-.81A3,3,0,0,1,679.84,523.22Z" transform="translate(-284.38 -250.75)"/><path class="cls-3" d="M689.17,527.88a3.81,3.81,0,0,1-.3,1.58,3.05,3.05,0,0,1-.8,1.08,3.33,3.33,0,0,1-1.17.64,4.92,4.92,0,0,1-1.39.2,5,5,0,0,1-1.4-.2,3.33,3.33,0,0,1-1.17-.64,3,3,0,0,1-.81-1.08,3.81,3.81,0,0,1-.3-1.58v-4.45h2.09v4.26a2.36,2.36,0,0,0,.12.8,1.45,1.45,0,0,0,.33.54,1.32,1.32,0,0,0,.51.31,2,2,0,0,0,1.25,0,1.36,1.36,0,0,0,.84-.85,2.36,2.36,0,0,0,.12-.8v-4.26h2.08Z" transform="translate(-284.38 -250.75)"/><path class="cls-3" d="M694.55,523.22a4.1,4.1,0,0,1,1.77.38,3.57,3.57,0,0,1,1.33,1.08l-1.5,1.26a2.65,2.65,0,0,0-.76-.58,2,2,0,0,0-.9-.2,1.76,1.76,0,0,0-.76.16,1.87,1.87,0,0,0-.62.43,2.15,2.15,0,0,0-.41.67,2.5,2.5,0,0,0-.15.88,2.42,2.42,0,0,0,.15.88,2,2,0,0,0,.41.67,1.74,1.74,0,0,0,.61.43,1.79,1.79,0,0,0,.76.16,1.93,1.93,0,0,0,.93-.22,2.61,2.61,0,0,0,.76-.57l1.49,1.27a3.72,3.72,0,0,1-1.35,1.08,4,4,0,0,1-1.76.38,4.35,4.35,0,0,1-1.69-.31,3.9,3.9,0,0,1-1.31-.85,3.79,3.79,0,0,1-.84-1.29,4.73,4.73,0,0,1,0-3.26,3.79,3.79,0,0,1,.84-1.29,3.9,3.9,0,0,1,1.31-.85A4.35,4.35,0,0,1,694.55,523.22Z" transform="translate(-284.38 -250.75)"/><path class="cls-3" d="M704.46,525.28h-2.8v2.84a1.82,1.82,0,0,0,.09.61,1.05,1.05,0,0,0,.25.41.81.81,0,0,0,.37.22,1.33,1.33,0,0,0,.45.08,2,2,0,0,0,.75-.16,4.16,4.16,0,0,0,.7-.35l.77,1.63a5.26,5.26,0,0,1-1.13.59,4.18,4.18,0,0,1-1.44.23,2.79,2.79,0,0,1-2.17-.79,3.28,3.28,0,0,1-.73-2.31v-3h-1.5v-1.85h1.5v-2.31h2.09v2.31h2.8Z" transform="translate(-284.38 -250.75)"/><path class="cls-3" d="M713.11,527.88a3.8,3.8,0,0,1-.31,1.58,2.83,2.83,0,0,1-.8,1.08,3.17,3.17,0,0,1-1.17.64,4.86,4.86,0,0,1-1.39.2,4.92,4.92,0,0,1-1.39-.2,3.33,3.33,0,0,1-1.17-.64,3,3,0,0,1-.81-1.08,3.81,3.81,0,0,1-.3-1.58v-4.45h2.09v4.26a2.36,2.36,0,0,0,.12.8,1.45,1.45,0,0,0,.33.54,1.36,1.36,0,0,0,.5.31,2.19,2.19,0,0,0,.63.1,2.13,2.13,0,0,0,.63-.1,1.45,1.45,0,0,0,.5-.31,1.47,1.47,0,0,0,.34-.54,2.36,2.36,0,0,0,.12-.8v-4.26h2.08Z" transform="translate(-284.38 -250.75)"/><path class="cls-3" d="M719,523.22a5.51,5.51,0,0,1,.61,0,2.24,2.24,0,0,1,.48.13l-.31,2.07a3.59,3.59,0,0,0-.6-.18,3.91,3.91,0,0,0-.67-.07,2,2,0,0,0-.66.11,1.5,1.5,0,0,0-.51.33,1.46,1.46,0,0,0-.34.55,2.2,2.2,0,0,0-.12.76v4.22h-2.09v-7.75h2v.85a2.2,2.2,0,0,1,.91-.81A3,3,0,0,1,719,523.22Z" transform="translate(-284.38 -250.75)"/><path class="cls-3" d="M724.33,523.22a3.8,3.8,0,0,1,1.53.3,3.32,3.32,0,0,1,1.19.83,3.69,3.69,0,0,1,.77,1.29,4.84,4.84,0,0,1,.28,1.65c0,.13,0,.25,0,.38a2.92,2.92,0,0,1,0,.33h-5.5a1.93,1.93,0,0,0,.27.72,1.78,1.78,0,0,0,.44.5,1.71,1.71,0,0,0,.59.29,2.61,2.61,0,0,0,.69.09,2.83,2.83,0,0,0,1-.19,3.06,3.06,0,0,0,.94-.55l1.23,1.34a4.25,4.25,0,0,1-1.49.9,5.6,5.6,0,0,1-1.82.28,4.45,4.45,0,0,1-1.62-.29,3.73,3.73,0,0,1-1.28-.83,3.61,3.61,0,0,1-.82-1.28,4.38,4.38,0,0,1-.3-1.66,4.46,4.46,0,0,1,.29-1.66,3.8,3.8,0,0,1,.8-1.3,3.58,3.58,0,0,1,1.24-.84A4.09,4.09,0,0,1,724.33,523.22Zm0,1.8a1.63,1.63,0,0,0-1.17.41,2.06,2.06,0,0,0-.57,1.14H726a2,2,0,0,0-.58-1.15A1.53,1.53,0,0,0,724.31,525Z" transform="translate(-284.38 -250.75)"/><path class="cls-3" d="M763.58,531.18h-8.37V520h8.3v2h-6.07v2.48h5.79v2h-5.79v2.57h6.14Z" transform="translate(-284.38 -250.75)"/><path class="cls-3" d="M770,523.22a3.18,3.18,0,0,1,1.21.22,2.84,2.84,0,0,1,1,.62,2.7,2.7,0,0,1,.62,1,3.32,3.32,0,0,1,.23,1.23v4.94h-2.09v-4.26a1.87,1.87,0,0,0-.4-1.3,1.42,1.42,0,0,0-1.11-.44,1.91,1.91,0,0,0-.64.11,1.36,1.36,0,0,0-.52.33,1.74,1.74,0,0,0-.35.54,2,2,0,0,0-.13.77v4.25h-2.09v-7.75h2v.91a2.35,2.35,0,0,1,1-.87A3.18,3.18,0,0,1,770,523.22Z" transform="translate(-284.38 -250.75)"/><path class="cls-3" d="M778.59,523.22a3.8,3.8,0,0,1,1.53.3,3.32,3.32,0,0,1,1.19.83,3.85,3.85,0,0,1,.77,1.29,4.84,4.84,0,0,1,.27,1.65c0,.13,0,.25,0,.38s0,.24,0,.33h-5.49a2.11,2.11,0,0,0,.26.72,1.81,1.81,0,0,0,.45.5,1.76,1.76,0,0,0,.58.29,2.63,2.63,0,0,0,.7.09,2.83,2.83,0,0,0,1-.19,3.18,3.18,0,0,0,.94-.55L782,530.2a4.17,4.17,0,0,1-1.49.9,5.5,5.5,0,0,1-1.81.28,4.54,4.54,0,0,1-1.63-.29,3.68,3.68,0,0,1-1.27-.83A3.78,3.78,0,0,1,775,529a4.38,4.38,0,0,1-.29-1.66,4.67,4.67,0,0,1,.28-1.66,3.82,3.82,0,0,1,.81-1.3,3.54,3.54,0,0,1,1.23-.84A4.11,4.11,0,0,1,778.59,523.22Zm0,1.8a1.66,1.66,0,0,0-1.18.41,2.12,2.12,0,0,0-.56,1.14h3.43a2.07,2.07,0,0,0-.58-1.15A1.56,1.56,0,0,0,778.57,525Z" transform="translate(-284.38 -250.75)"/><path class="cls-3" d="M788.27,523.22a5.32,5.32,0,0,1,.6,0,2.09,2.09,0,0,1,.48.13l-.31,2.07a3.59,3.59,0,0,0-.6-.18,3.9,3.9,0,0,0-.66-.07,2,2,0,0,0-.66.11,1.65,1.65,0,0,0-.52.33,1.58,1.58,0,0,0-.33.55,2.2,2.2,0,0,0-.12.76v4.22h-2.09v-7.75h2v.85a2.22,2.22,0,0,1,.92-.81A3,3,0,0,1,788.27,523.22Z" transform="translate(-284.38 -250.75)"/><path class="cls-3" d="M793.6,523.22a3.19,3.19,0,0,1,1.41.29,2.82,2.82,0,0,1,1,.78v-.86h2v7.11a4.7,4.7,0,0,1-.29,1.68,3.53,3.53,0,0,1-.84,1.25,3.66,3.66,0,0,1-1.32.79,5.23,5.23,0,0,1-1.73.27,7.26,7.26,0,0,1-.93-.06,8.43,8.43,0,0,1-.9-.17,6,6,0,0,1-.84-.3,3.92,3.92,0,0,1-.73-.4l.75-1.71a4.9,4.9,0,0,0,1.22.59,4.22,4.22,0,0,0,1.34.2,2.82,2.82,0,0,0,.89-.13,2.08,2.08,0,0,0,.7-.39,1.85,1.85,0,0,0,.45-.64,2.28,2.28,0,0,0,.17-.89v-.55a2.77,2.77,0,0,1-1,.77,3.18,3.18,0,0,1-1.4.28,3.27,3.27,0,0,1-1.35-.28,3.62,3.62,0,0,1-1.14-.8,3.79,3.79,0,0,1-.78-1.25,4.25,4.25,0,0,1-.3-1.62,4.18,4.18,0,0,1,.3-1.62,3.79,3.79,0,0,1,.78-1.25,3.5,3.5,0,0,1,1.14-.81A3.43,3.43,0,0,1,793.6,523.22Zm.53,1.92a1.92,1.92,0,0,0-.81.16,1.8,1.8,0,0,0-.61.44,1.92,1.92,0,0,0-.4.64,2.36,2.36,0,0,0-.13.8,2.26,2.26,0,0,0,.13.79,2,2,0,0,0,.4.65,1.78,1.78,0,0,0,.61.43,1.92,1.92,0,0,0,.81.16,2,2,0,0,0,.79-.15,2,2,0,0,0,.62-.43,1.85,1.85,0,0,0,.39-.65,2.07,2.07,0,0,0,.14-.8,2.16,2.16,0,0,0-.14-.81,1.94,1.94,0,0,0-.39-.65,1.79,1.79,0,0,0-.62-.42A1.86,1.86,0,0,0,794.13,525.14Z" transform="translate(-284.38 -250.75)"/><path class="cls-3" d="M802.17,534.41h-2.29l2.71-4.88-3.34-6.1h2.37l2.13,4,2.06-4h2.29Z" transform="translate(-284.38 -250.75)"/><path class="cls-3" d="M347.92,281.72v-8l-3.48,1.24v-2.69l6.17-2.18v11.66h3.17v2.56H344.6v-2.56Z" transform="translate(-284.38 -250.75)"/><path class="cls-3" d="M360.67,270a5.11,5.11,0,0,1,2.09.43,4.77,4.77,0,0,1,1.73,1.32,6.69,6.69,0,0,1,1.17,2.26,11.06,11.06,0,0,1,.43,3.24,11.39,11.39,0,0,1-.43,3.32,6.45,6.45,0,0,1-1.17,2.25,4.52,4.52,0,0,1-1.73,1.27,5.45,5.45,0,0,1-2.09.41,5.57,5.57,0,0,1-2.13-.41,4.51,4.51,0,0,1-1.75-1.27,6.31,6.31,0,0,1-1.19-2.25,10.72,10.72,0,0,1-.44-3.32,10.84,10.84,0,0,1,.44-3.33,6.49,6.49,0,0,1,1.19-2.25,4.51,4.51,0,0,1,1.75-1.27A5.57,5.57,0,0,1,360.67,270Zm0,2.59a2.5,2.5,0,0,0-1,.23,2.28,2.28,0,0,0-.87.78,4.22,4.22,0,0,0-.59,1.43,9.34,9.34,0,0,0-.22,2.22,9.19,9.19,0,0,0,.22,2.21,4.19,4.19,0,0,0,.59,1.44,2.17,2.17,0,0,0,.87.77,2.37,2.37,0,0,0,1,.24,2.23,2.23,0,0,0,1-.24,2.11,2.11,0,0,0,.84-.77,4.4,4.4,0,0,0,.58-1.44,9.73,9.73,0,0,0,.22-2.21,9.3,9.3,0,0,0-.22-2.13,4.76,4.76,0,0,0-.58-1.45,2.34,2.34,0,0,0-.84-.82A2.13,2.13,0,0,0,360.67,272.62Z" transform="translate(-284.38 -250.75)"/><path class="cls-3" d="M369.41,280.65a1.88,1.88,0,0,1,.74.15,2.37,2.37,0,0,1,.61.42,2,2,0,0,1,.42.62,1.79,1.79,0,0,1,0,1.48,1.93,1.93,0,0,1-.42.63,2,2,0,0,1-.61.42,1.73,1.73,0,0,1-.74.16,1.78,1.78,0,0,1-.75-.16A1.89,1.89,0,0,1,368,284a1.93,1.93,0,0,1-.42-.63,1.79,1.79,0,0,1,0-1.48,2,2,0,0,1,.42-.62,2.26,2.26,0,0,1,.62-.42A1.93,1.93,0,0,1,369.41,280.65Z" transform="translate(-284.38 -250.75)"/><path class="cls-3" d="M373.13,272.44a7.67,7.67,0,0,1,.7-.8,5.42,5.42,0,0,1,1-.78,5.71,5.71,0,0,1,1.34-.6,6.06,6.06,0,0,1,1.74-.23,5.63,5.63,0,0,1,2,.33,4.41,4.41,0,0,1,1.49.92,4.12,4.12,0,0,1,.95,1.43,5,5,0,0,1,.33,1.84,4.5,4.5,0,0,1-.16,1.19,4.8,4.8,0,0,1-.42,1.05,6.59,6.59,0,0,1-.64.95c-.25.3-.52.6-.8.9l-3,3.11H383v2.53h-9.25v-2.11l4.95-5.07a4.84,4.84,0,0,0,.85-1.16,2.67,2.67,0,0,0,.3-1.24,2.24,2.24,0,0,0-.16-.84,1.92,1.92,0,0,0-1.11-1.1,2.41,2.41,0,0,0-.87-.15,3.18,3.18,0,0,0-.91.12,3.51,3.51,0,0,0-1.37.83,7.81,7.81,0,0,0-.56.59Z" transform="translate(-284.38 -250.75)"/><path class="cls-3" d="M458.85,398.64a6.4,6.4,0,0,1,2,.29,4.76,4.76,0,0,1,1.57.81,3.56,3.56,0,0,1,1,1.27,3.7,3.7,0,0,1,.36,1.65,3.31,3.31,0,0,1-.55,1.92,3.79,3.79,0,0,1-1.54,1.26,4.12,4.12,0,0,1,1.76,1.25,3.06,3.06,0,0,1,.64,2,3.58,3.58,0,0,1-.43,1.8,4,4,0,0,1-1.16,1.28,5.2,5.2,0,0,1-1.65.76,7.66,7.66,0,0,1-1.92.25,7.28,7.28,0,0,1-2.83-.53,5.44,5.44,0,0,1-2.06-1.5l1.61-1.77a4.39,4.39,0,0,0,3.18,1.34,4.21,4.21,0,0,0,1-.11,2.52,2.52,0,0,0,.78-.34,1.58,1.58,0,0,0,.52-.57,1.6,1.6,0,0,0,.19-.8,1.46,1.46,0,0,0-.21-.79,1.82,1.82,0,0,0-.59-.58,2.83,2.83,0,0,0-.87-.35,4.57,4.57,0,0,0-1.07-.11h-1.63v-2.4h1.64a4.21,4.21,0,0,0,1-.11,2.52,2.52,0,0,0,.78-.34,1.63,1.63,0,0,0,.52-.56,1.49,1.49,0,0,0,.19-.77,1.54,1.54,0,0,0-.18-.75,1.52,1.52,0,0,0-.49-.55,2.4,2.4,0,0,0-.74-.34,3.29,3.29,0,0,0-.91-.11,3.34,3.34,0,0,0-.91.11,3.76,3.76,0,0,0-.77.31,3.32,3.32,0,0,0-.65.46,3.6,3.6,0,0,0-.5.54l-1.7-1.71a5.41,5.41,0,0,1,.8-.86,5,5,0,0,1,1-.69,5.62,5.62,0,0,1,1.29-.46A6.74,6.74,0,0,1,458.85,398.64Z" transform="translate(-284.38 -250.75)"/><path class="cls-3" d="M468.05,409.26a1.85,1.85,0,0,1,.74.15,2.06,2.06,0,0,1,.62.42,1.89,1.89,0,0,1,.42.62,1.9,1.9,0,0,1,0,1.48,1.93,1.93,0,0,1-.42.63,1.89,1.89,0,0,1-.62.42,1.86,1.86,0,0,1-.74.16,2,2,0,0,1-1.36-.58,2.13,2.13,0,0,1-.43-.63,1.79,1.79,0,0,1,0-1.48,2.09,2.09,0,0,1,.43-.62,2.06,2.06,0,0,1,.62-.42A1.88,1.88,0,0,1,468.05,409.26Z" transform="translate(-284.38 -250.75)"/><path class="cls-3" d="M477.06,408l-.29,0h-.34a5.22,5.22,0,0,1-2-.36,4.55,4.55,0,0,1-2.89-4.29,4.51,4.51,0,0,1,1.51-3.41,5,5,0,0,1,1.66-1,6.33,6.33,0,0,1,4.18,0,5.24,5.24,0,0,1,1.67,1,4.46,4.46,0,0,1,1.5,3.38,5.15,5.15,0,0,1-.34,1.86,9.39,9.39,0,0,1-1,1.86l-3.88,5.81h-3.26Zm-.22-2.33a2.78,2.78,0,0,0,1-.17,2.38,2.38,0,0,0,.78-.48,2.08,2.08,0,0,0,.52-.72,2.34,2.34,0,0,0,.18-.93,2.42,2.42,0,0,0-.18-.94,2.08,2.08,0,0,0-.52-.72,2.36,2.36,0,0,0-.78-.47,2.57,2.57,0,0,0-1-.17,2.62,2.62,0,0,0-1,.17,2.31,2.31,0,0,0-.77.47,2.05,2.05,0,0,0-.51.72,2.43,2.43,0,0,0-.19.94,2.34,2.34,0,0,0,.19.93,2.05,2.05,0,0,0,.51.72,2.33,2.33,0,0,0,.77.48A2.84,2.84,0,0,0,476.84,405.69Z" transform="translate(-284.38 -250.75)"/><path class="cls-3" d="M564.17,304l-.29,0h-.34a5.22,5.22,0,0,1-2-.36,4.55,4.55,0,0,1-2.89-4.29A4.51,4.51,0,0,1,560.2,296a5,5,0,0,1,1.66-1,5.92,5.92,0,0,1,2.09-.36,6.19,6.19,0,0,1,2.09.35,5.24,5.24,0,0,1,1.67,1,4.46,4.46,0,0,1,1.5,3.38,5.15,5.15,0,0,1-.34,1.86,9.39,9.39,0,0,1-1,1.86L564,308.84h-3.26Zm-.22-2.33a2.78,2.78,0,0,0,1-.17,2.56,2.56,0,0,0,.78-.48,2.22,2.22,0,0,0,.52-.72,2.34,2.34,0,0,0,.18-.93,2.42,2.42,0,0,0-.18-.94,2.22,2.22,0,0,0-.52-.72,2.36,2.36,0,0,0-.78-.47,2.57,2.57,0,0,0-1-.17,2.62,2.62,0,0,0-1,.17,2.21,2.21,0,0,0-.77.47,2.05,2.05,0,0,0-.51.72,2.26,2.26,0,0,0-.19.94,2.18,2.18,0,0,0,.19.93,2.05,2.05,0,0,0,.51.72,2.4,2.4,0,0,0,.77.48A2.84,2.84,0,0,0,564,301.64Z" transform="translate(-284.38 -250.75)"/><path class="cls-3" d="M572.7,305.21a1.85,1.85,0,0,1,.74.15,1.89,1.89,0,0,1,.62.42,2.26,2.26,0,0,1,.42.62,1.9,1.9,0,0,1,0,1.48,2.31,2.31,0,0,1-.42.63,1.89,1.89,0,0,1-.62.42,1.79,1.79,0,0,1-1.48,0,1.79,1.79,0,0,1-.62-.42,2.13,2.13,0,0,1-.43-.63,1.79,1.79,0,0,1,0-1.48,2.09,2.09,0,0,1,.43-.62,1.79,1.79,0,0,1,.62-.42A1.85,1.85,0,0,1,572.7,305.21Z" transform="translate(-284.38 -250.75)"/><path class="cls-3" d="M581.5,294.59a5.16,5.16,0,0,1,2.1.43,4.52,4.52,0,0,1,1.72,1.32,6.27,6.27,0,0,1,1.17,2.26,10.73,10.73,0,0,1,.43,3.24,11.1,11.1,0,0,1-.43,3.32,6.13,6.13,0,0,1-1.17,2.25,4.49,4.49,0,0,1-1.72,1.27,5.5,5.5,0,0,1-2.1.41,5.65,5.65,0,0,1-2.13-.41,4.58,4.58,0,0,1-1.75-1.27,6.47,6.47,0,0,1-1.19-2.25,12.78,12.78,0,0,1,0-6.65,6.47,6.47,0,0,1,1.19-2.25,4.48,4.48,0,0,1,1.75-1.27A5.64,5.64,0,0,1,581.5,294.59Zm0,2.59a2.31,2.31,0,0,0-1,.23,2.28,2.28,0,0,0-.87.78,4.33,4.33,0,0,0-.6,1.43,9.89,9.89,0,0,0-.22,2.22,9.73,9.73,0,0,0,.22,2.21,4.4,4.4,0,0,0,.6,1.44,2.25,2.25,0,0,0,.87.77,2.32,2.32,0,0,0,1,.24,2.2,2.2,0,0,0,1-.24,2.28,2.28,0,0,0,.85-.77,4.63,4.63,0,0,0,.58-1.44,9.79,9.79,0,0,0,.21-2.21,9.35,9.35,0,0,0-.21-2.13,5,5,0,0,0-.58-1.45,2.36,2.36,0,0,0-.85-.82A2,2,0,0,0,581.5,297.18Z" transform="translate(-284.38 -250.75)"/><path class="cls-3" d="M661.86,277.34v-8l-3.48,1.24v-2.69l6.17-2.18v11.66h3.17v2.56h-9.18v-2.56Z" transform="translate(-284.38 -250.75)"/><path class="cls-3" d="M674.61,265.65a5.16,5.16,0,0,1,2.1.43,4.73,4.73,0,0,1,1.72,1.32,6.69,6.69,0,0,1,1.17,2.26,10.73,10.73,0,0,1,.43,3.24,11.06,11.06,0,0,1-.43,3.32,6.45,6.45,0,0,1-1.17,2.25,4.49,4.49,0,0,1-1.72,1.27,5.5,5.5,0,0,1-2.1.41,5.65,5.65,0,0,1-2.13-.41,4.51,4.51,0,0,1-1.75-1.27,6.31,6.31,0,0,1-1.19-2.25,11,11,0,0,1-.44-3.32,11.15,11.15,0,0,1,.44-3.33,6.49,6.49,0,0,1,1.19-2.25,4.51,4.51,0,0,1,1.75-1.27A5.64,5.64,0,0,1,674.61,265.65Zm0,2.59a2.46,2.46,0,0,0-1,.23,2.28,2.28,0,0,0-.87.78,4.43,4.43,0,0,0-.6,1.43,9.34,9.34,0,0,0-.22,2.22,9.19,9.19,0,0,0,.22,2.21,4.4,4.4,0,0,0,.6,1.44,2.17,2.17,0,0,0,.87.77,2.32,2.32,0,0,0,1,.24,2.2,2.2,0,0,0,1.85-1,4.63,4.63,0,0,0,.58-1.44,9.79,9.79,0,0,0,.21-2.21,9.35,9.35,0,0,0-.21-2.13,5,5,0,0,0-.58-1.45,2.44,2.44,0,0,0-.85-.82A2.1,2.1,0,0,0,674.61,268.24Z" transform="translate(-284.38 -250.75)"/><path class="cls-3" d="M683.35,276.27a1.85,1.85,0,0,1,.74.15,2,2,0,0,1,1,1,1.9,1.9,0,0,1,0,1.48,2.31,2.31,0,0,1-.42.63,2,2,0,0,1-.62.42,1.79,1.79,0,0,1-1.48,0,1.79,1.79,0,0,1-.62-.42,2.13,2.13,0,0,1-.43-.63,1.79,1.79,0,0,1,0-1.48,2.22,2.22,0,0,1,.43-.62,2.12,2.12,0,0,1,.62-.42A1.85,1.85,0,0,1,683.35,276.27Z" transform="translate(-284.38 -250.75)"/><path class="cls-3" d="M695.59,274.82h1.95v2.52h-1.95v2.56h-2.7v-2.56h-6.21v-2l4.91-9.47h3l-4.68,8.91h3v-3.73h2.7Z" transform="translate(-284.38 -250.75)"/><path class="cls-3" d="M773.23,306.53a7.09,7.09,0,0,1,2,.27,5.26,5.26,0,0,1,1.63.79,3.82,3.82,0,0,1,1.1,1.27,3.49,3.49,0,0,1,.41,1.69,3.41,3.41,0,0,1-.17,1.09,3.24,3.24,0,0,1-.45.89,2.93,2.93,0,0,1-.68.68,4.48,4.48,0,0,1-.84.51,5.19,5.19,0,0,1,1,.49,3.71,3.71,0,0,1,.78.69,3.06,3.06,0,0,1,.53.91,3.28,3.28,0,0,1,.2,1.16,3.34,3.34,0,0,1-.43,1.71,4,4,0,0,1-1.18,1.27,5.36,5.36,0,0,1-1.74.8,7.65,7.65,0,0,1-2.12.28,7.77,7.77,0,0,1-2.13-.28,5.56,5.56,0,0,1-1.74-.8,4,4,0,0,1-1.17-1.27,3.34,3.34,0,0,1-.43-1.71,3.13,3.13,0,0,1,.71-2.07,4,4,0,0,1,.79-.69,5.19,5.19,0,0,1,1-.49,4.48,4.48,0,0,1-.84-.51,3.13,3.13,0,0,1-.68-.68,3.24,3.24,0,0,1-.45-.89,3.42,3.42,0,0,1-.16-1.09,3.49,3.49,0,0,1,.4-1.69,3.94,3.94,0,0,1,1.1-1.27,5.49,5.49,0,0,1,1.63-.79A7.21,7.21,0,0,1,773.23,306.53Zm0,8.29a4,4,0,0,0-1,.12,2.74,2.74,0,0,0-.81.37,1.86,1.86,0,0,0-.55.6,1.73,1.73,0,0,0-.2.83,1.62,1.62,0,0,0,.2.81,1.93,1.93,0,0,0,.55.59,2.5,2.5,0,0,0,.81.36,4,4,0,0,0,1,.12,3.87,3.87,0,0,0,1-.12,2.55,2.55,0,0,0,.82-.36,1.82,1.82,0,0,0,.55-.59,1.53,1.53,0,0,0,.21-.81,1.63,1.63,0,0,0-.21-.83,1.75,1.75,0,0,0-.55-.6,2.8,2.8,0,0,0-.82-.37A3.87,3.87,0,0,0,773.23,314.82Zm0-5.85a3.53,3.53,0,0,0-.88.11,2.41,2.41,0,0,0-.72.35,1.64,1.64,0,0,0-.49.56,1.74,1.74,0,0,0-.17.77,1.8,1.8,0,0,0,.17.79,1.62,1.62,0,0,0,.49.58,2.41,2.41,0,0,0,.72.35,3.29,3.29,0,0,0,1.76,0,2.41,2.41,0,0,0,.72-.35,1.5,1.5,0,0,0,.48-.58,1.67,1.67,0,0,0,.18-.79,1.62,1.62,0,0,0-.18-.77,1.52,1.52,0,0,0-.48-.56,2.41,2.41,0,0,0-.72-.35A3.53,3.53,0,0,0,773.23,309Z" transform="translate(-284.38 -250.75)"/><path class="cls-3" d="M782,317.15a1.85,1.85,0,0,1,.74.15,2.21,2.21,0,0,1,.61.42,2,2,0,0,1,.42.62,1.79,1.79,0,0,1,0,1.48,1.93,1.93,0,0,1-.42.63,1.85,1.85,0,0,1-.61.42,1.7,1.7,0,0,1-.74.16,1.78,1.78,0,0,1-.75-.16,2,2,0,0,1-.62-.42,2.31,2.31,0,0,1-.42-.63,1.79,1.79,0,0,1,0-1.48,2,2,0,0,1,1-1A1.93,1.93,0,0,1,782,317.15Z" transform="translate(-284.38 -250.75)"/><path class="cls-3" d="M794.24,315.7h2v2.52h-2v2.56h-2.7v-2.56h-6.21v-2l4.91-9.47h3l-4.68,8.91h3V312h2.7Z" transform="translate(-284.38 -250.75)"/></svg>