<svg id="Layer_1" data-name="Layer 1" xmlns="http://www.w3.org/2000/svg" viewBox="0 0 525.12 302.29"><defs><style>.cls-1{fill:#ed5b35;}.cls-2,.cls-4,.cls-5{fill:none;stroke:#203232;stroke-miterlimit:10;}.cls-2{stroke-width:2.05px;}.cls-3{fill:#203232;}.cls-4{stroke-width:2px;}.cls-5{stroke-width:0.58px;}</style></defs><rect class="cls-1" x="60.67" y="217.14" width="36.5" height="34.39"/><rect class="cls-1" x="164.91" y="221.07" width="36.5" height="30.46"/><rect class="cls-1" x="269.15" y="156.22" width="36.5" height="95.31"/><rect class="cls-1" x="373.4" y="116.91" width="36.5" height="134.62"/><rect class="cls-1" x="477.64" y="47.15" width="36.5" height="204.38"/><line class="cls-2" x1="40.03" y1="251.53" x2="525.12" y2="251.53"/><path class="cls-3" d="M298.08,496.67a4.1,4.1,0,0,1,1.67.35,3.69,3.69,0,0,1,1.38,1.05,5.25,5.25,0,0,1,.94,1.81,8.65,8.65,0,0,1,.34,2.59,9,9,0,0,1-.34,2.66,5,5,0,0,1-.94,1.8,3.6,3.6,0,0,1-1.38,1,4.43,4.43,0,0,1-1.67.32,4.68,4.68,0,0,1-1.71-.32,3.75,3.75,0,0,1-1.4-1,5.19,5.19,0,0,1-1-1.8,10.28,10.28,0,0,1,0-5.32,5.29,5.29,0,0,1,1-1.8,3.64,3.64,0,0,1,1.4-1A4.68,4.68,0,0,1,298.08,496.67Zm0,2.07a2,2,0,0,0-.83.19,1.85,1.85,0,0,0-.7.62,3.32,3.32,0,0,0-.47,1.15,7.42,7.42,0,0,0-.18,1.77,7.3,7.3,0,0,0,.18,1.77,3.32,3.32,0,0,0,.47,1.15,1.77,1.77,0,0,0,.7.62,1.84,1.84,0,0,0,.83.19,1.77,1.77,0,0,0,.8-.19,1.7,1.7,0,0,0,.67-.62,3.53,3.53,0,0,0,.47-1.15,7.91,7.91,0,0,0,.17-1.77,7.56,7.56,0,0,0-.17-1.7,3.79,3.79,0,0,0-.47-1.16,1.91,1.91,0,0,0-.67-.66A1.68,1.68,0,0,0,298.08,498.74Z" transform="translate(-284.41 -251.02)"/><path class="cls-3" d="M306.56,496.67a3.34,3.34,0,0,1,1.24.23,3.19,3.19,0,0,1,1,.64,3.09,3.09,0,0,1,.66,1,3,3,0,0,1,.24,1.21,3.05,3.05,0,0,1-.24,1.22,2.88,2.88,0,0,1-.66,1,3,3,0,0,1-1,.64,3.46,3.46,0,0,1-2.48,0,3,3,0,0,1-1-.64,2.88,2.88,0,0,1-.66-1,3.23,3.23,0,0,1-.23-1.22,3.18,3.18,0,0,1,.23-1.21,3.09,3.09,0,0,1,.66-1,3.19,3.19,0,0,1,1-.64A3.34,3.34,0,0,1,306.56,496.67Zm0,1.67a1.41,1.41,0,0,0-.54.11,1.39,1.39,0,0,0-.43.28,1.33,1.33,0,0,0-.28.44,1.63,1.63,0,0,0-.1.55,1.69,1.69,0,0,0,.1.56,1.33,1.33,0,0,0,.28.44,1.42,1.42,0,0,0,.43.29,1.4,1.4,0,0,0,.54.1,1.37,1.37,0,0,0,.54-.1,1.3,1.3,0,0,0,.43-.29,1.33,1.33,0,0,0,.28-.44,1.47,1.47,0,0,0,.1-.56,1.42,1.42,0,0,0-.1-.55,1.33,1.33,0,0,0-.28-.44,1.28,1.28,0,0,0-.43-.28A1.37,1.37,0,0,0,306.56,498.34Zm1.49,9.73H306l7.51-11.2h2.09Zm6.92-5.91a3.37,3.37,0,0,1,1.24.23,3.19,3.19,0,0,1,1,.64,3,3,0,0,1,.66,1,3.32,3.32,0,0,1,0,2.43,3,3,0,0,1-.66,1,3.19,3.19,0,0,1-1,.64,3.37,3.37,0,0,1-1.24.23,3.3,3.3,0,0,1-1.24-.23,3.19,3.19,0,0,1-1-.64,3,3,0,0,1-.66-1,3,3,0,0,1-.23-1.21,3,3,0,0,1,.23-1.21,2.88,2.88,0,0,1,.66-1,3,3,0,0,1,1-.64A3.12,3.12,0,0,1,315,502.16Zm0,1.67a1.33,1.33,0,0,0-.54.11,1.28,1.28,0,0,0-.43.28,1.41,1.41,0,0,0-.38,1,1.42,1.42,0,0,0,.1.55,1.44,1.44,0,0,0,.28.44,1.3,1.3,0,0,0,.43.29,1.53,1.53,0,0,0,.54.1,1.62,1.62,0,0,0,.54-.1,1.42,1.42,0,0,0,.43-.29,1.44,1.44,0,0,0,.28-.44,1.59,1.59,0,0,0,0-1.11,1.44,1.44,0,0,0-.28-.44,1.39,1.39,0,0,0-.43-.28A1.41,1.41,0,0,0,315,503.83Z" transform="translate(-284.41 -251.02)"/><path class="cls-3" d="M301.33,449.75H296.8l-.05,2.24H298a5.21,5.21,0,0,1,1.71.26A3.7,3.7,0,0,1,301,453a2.88,2.88,0,0,1,.73,1.07,3.41,3.41,0,0,1,.25,1.32,3.84,3.84,0,0,1-.32,1.6,3.52,3.52,0,0,1-.88,1.19,3.7,3.7,0,0,1-1.3.74,4.82,4.82,0,0,1-1.59.25,5.59,5.59,0,0,1-2.26-.44,4.8,4.8,0,0,1-1.71-1.23l1.22-1.51a3.44,3.44,0,0,0,.53.46,4.09,4.09,0,0,0,.68.38,4.71,4.71,0,0,0,.75.25,3.44,3.44,0,0,0,.77.09,2.28,2.28,0,0,0,.82-.13,1.53,1.53,0,0,0,.58-.35,1.46,1.46,0,0,0,.35-.51,1.68,1.68,0,0,0,.12-.63,1.73,1.73,0,0,0-.11-.6,1.29,1.29,0,0,0-.37-.51,2,2,0,0,0-.71-.34,3.74,3.74,0,0,0-1.09-.13h-2.67l.12-6.2h6.44Z" transform="translate(-284.41 -251.02)"/><path class="cls-3" d="M306.56,447.54a3.34,3.34,0,0,1,1.24.23,3.19,3.19,0,0,1,1,.64,3.09,3.09,0,0,1,.66,1,3,3,0,0,1,.24,1.21,3.05,3.05,0,0,1-.24,1.22,2.88,2.88,0,0,1-.66,1,3,3,0,0,1-1,.64,3.46,3.46,0,0,1-2.48,0,3,3,0,0,1-1-.64,2.88,2.88,0,0,1-.66-1,3.23,3.23,0,0,1-.23-1.22,3.18,3.18,0,0,1,.23-1.21,3.09,3.09,0,0,1,.66-1,3.19,3.19,0,0,1,1-.64A3.34,3.34,0,0,1,306.56,447.54Zm0,1.67a1.41,1.41,0,0,0-.54.11,1.39,1.39,0,0,0-.43.28,1.33,1.33,0,0,0-.28.44,1.63,1.63,0,0,0-.1.55,1.69,1.69,0,0,0,.1.56,1.33,1.33,0,0,0,.28.44,1.42,1.42,0,0,0,.43.29,1.4,1.4,0,0,0,.54.1,1.37,1.37,0,0,0,.54-.1,1.3,1.3,0,0,0,.43-.29,1.33,1.33,0,0,0,.28-.44,1.47,1.47,0,0,0,.1-.56,1.42,1.42,0,0,0-.1-.55,1.33,1.33,0,0,0-.28-.44,1.28,1.28,0,0,0-.43-.28A1.37,1.37,0,0,0,306.56,449.21Zm1.49,9.73H306l7.51-11.2h2.09ZM315,453a3.37,3.37,0,0,1,1.24.23,3.19,3.19,0,0,1,1,.64,3,3,0,0,1,.66,1,3.32,3.32,0,0,1,0,2.43,3,3,0,0,1-.66,1,3.19,3.19,0,0,1-1,.64,3.37,3.37,0,0,1-1.24.23,3.3,3.3,0,0,1-1.24-.23,3.19,3.19,0,0,1-1-.64,3,3,0,0,1-.66-1,3,3,0,0,1-.23-1.22,3,3,0,0,1,.23-1.2,2.88,2.88,0,0,1,.66-1,3,3,0,0,1,1-.64A3.12,3.12,0,0,1,315,453Zm0,1.67a1.53,1.53,0,0,0-.54.1,1.48,1.48,0,0,0-.43.29,1.44,1.44,0,0,0-.28.44,1.42,1.42,0,0,0-.1.55,1.41,1.41,0,0,0,.38,1,1.3,1.3,0,0,0,.43.29,1.53,1.53,0,0,0,.54.1,1.62,1.62,0,0,0,.54-.1,1.42,1.42,0,0,0,.43-.29,1.44,1.44,0,0,0,.28-.44,1.59,1.59,0,0,0,0-1.11,1.44,1.44,0,0,0-.28-.44,1.31,1.31,0,0,0-1-.39Z" transform="translate(-284.41 -251.02)"/><path class="cls-3" d="M287.88,407.76v-6.42l-2.79,1v-2.15l4.94-1.75v9.33h2.54v2.05h-7.35v-2.05Z" transform="translate(-284.41 -251.02)"/><path class="cls-3" d="M298.08,398.41a4.26,4.26,0,0,1,1.67.34,3.71,3.71,0,0,1,1.38,1.06,5.25,5.25,0,0,1,.94,1.81,8.65,8.65,0,0,1,.34,2.59,9,9,0,0,1-.34,2.66,5.11,5.11,0,0,1-.94,1.8,3.6,3.6,0,0,1-1.38,1,4.43,4.43,0,0,1-1.67.32,4.68,4.68,0,0,1-1.71-.32,3.75,3.75,0,0,1-1.4-1,5.29,5.29,0,0,1-1-1.8,10.28,10.28,0,0,1,0-5.32,5.29,5.29,0,0,1,1-1.8,3.54,3.54,0,0,1,1.4-1A4.68,4.68,0,0,1,298.08,398.41Zm0,2.07a1.81,1.81,0,0,0-1.53.81,3.32,3.32,0,0,0-.47,1.15,8.79,8.79,0,0,0,0,3.54,3.32,3.32,0,0,0,.47,1.15,1.81,1.81,0,0,0,1.53.81,1.71,1.71,0,0,0,1.47-.81A3.53,3.53,0,0,0,300,406a8,8,0,0,0,.17-1.77,7.56,7.56,0,0,0-.17-1.7,3.79,3.79,0,0,0-.47-1.16,1.91,1.91,0,0,0-.67-.66A1.68,1.68,0,0,0,298.08,400.48Z" transform="translate(-284.41 -251.02)"/><path class="cls-3" d="M306.56,398.41a3.34,3.34,0,0,1,1.24.23,3.19,3.19,0,0,1,1,.64,3,3,0,0,1,.9,2.18,3.05,3.05,0,0,1-.24,1.22,2.88,2.88,0,0,1-.66,1,3,3,0,0,1-1,.64,3.46,3.46,0,0,1-2.48,0,3,3,0,0,1-1-.64,2.88,2.88,0,0,1-.66-1,3.23,3.23,0,0,1-.23-1.22,3.18,3.18,0,0,1,.23-1.21,3,3,0,0,1,.66-1,3.19,3.19,0,0,1,1-.64A3.34,3.34,0,0,1,306.56,398.41Zm0,1.67a1.41,1.41,0,0,0-.54.11,1.39,1.39,0,0,0-.43.28,1.33,1.33,0,0,0-.28.44,1.63,1.63,0,0,0-.1.55,1.69,1.69,0,0,0,.1.56,1.33,1.33,0,0,0,.28.44,1.42,1.42,0,0,0,.43.29,1.4,1.4,0,0,0,.54.1,1.37,1.37,0,0,0,.54-.1,1.3,1.3,0,0,0,.43-.29,1.33,1.33,0,0,0,.28-.44,1.47,1.47,0,0,0,.1-.56,1.42,1.42,0,0,0-.1-.55,1.33,1.33,0,0,0-.28-.44,1.28,1.28,0,0,0-.43-.28A1.37,1.37,0,0,0,306.56,400.08Zm1.49,9.73H306l7.51-11.2h2.09ZM315,403.9a3.37,3.37,0,0,1,1.24.23,3.19,3.19,0,0,1,1,.64,3,3,0,0,1,.66,1,3.32,3.32,0,0,1,0,2.43,3,3,0,0,1-.66,1,3.19,3.19,0,0,1-1,.64A3.37,3.37,0,0,1,315,410a3.3,3.3,0,0,1-1.24-.23,3.19,3.19,0,0,1-1-.64,3,3,0,0,1-.66-1,3,3,0,0,1-.23-1.22,3,3,0,0,1,.23-1.2,2.88,2.88,0,0,1,.66-1,3.21,3.21,0,0,1,1-.65A3.3,3.3,0,0,1,315,403.9Zm0,1.67a1.53,1.53,0,0,0-.54.1,1.3,1.3,0,0,0-.43.29,1.33,1.33,0,0,0-.28.44,1.42,1.42,0,0,0-.1.55,1.41,1.41,0,0,0,.38,1,1.15,1.15,0,0,0,.43.28,1.33,1.33,0,0,0,.54.11,1.41,1.41,0,0,0,.54-.11,1.23,1.23,0,0,0,.43-.28,1.44,1.44,0,0,0,.28-.44,1.59,1.59,0,0,0,0-1.11,1.33,1.33,0,0,0-.28-.44,1.42,1.42,0,0,0-.43-.29A1.62,1.62,0,0,0,315,405.57Z" transform="translate(-284.41 -251.02)"/><path class="cls-3" d="M287.88,358.63v-6.42l-2.79,1v-2.15L290,349.3v9.33h2.54v2.05h-7.35v-2.05Z" transform="translate(-284.41 -251.02)"/><path class="cls-3" d="M301.33,351.49H296.8l-.05,2.24H298a5.21,5.21,0,0,1,1.71.26,3.7,3.7,0,0,1,1.23.72,2.88,2.88,0,0,1,.73,1.07,3.41,3.41,0,0,1,.25,1.32,3.87,3.87,0,0,1-.32,1.6,3.52,3.52,0,0,1-.88,1.19,3.87,3.87,0,0,1-1.3.74,4.82,4.82,0,0,1-1.59.25,5.59,5.59,0,0,1-2.26-.44,4.8,4.8,0,0,1-1.71-1.23l1.22-1.51a3.44,3.44,0,0,0,.53.46,5,5,0,0,0,.68.38,4.71,4.71,0,0,0,.75.25,3.44,3.44,0,0,0,.77.09,2.28,2.28,0,0,0,.82-.13,1.53,1.53,0,0,0,.58-.35,1.41,1.41,0,0,0,.35-.52,1.59,1.59,0,0,0,.12-.62,1.73,1.73,0,0,0-.11-.6,1.22,1.22,0,0,0-.37-.51,2,2,0,0,0-.71-.34,3.74,3.74,0,0,0-1.09-.13h-2.67l.12-6.2h6.44Z" transform="translate(-284.41 -251.02)"/><path class="cls-3" d="M306.56,349.28a3.34,3.34,0,0,1,1.24.23,3.19,3.19,0,0,1,1,.64,2.88,2.88,0,0,1,.66,1,3,3,0,0,1,.24,1.21,3.05,3.05,0,0,1-.24,1.22,3,3,0,0,1-.66,1,3.19,3.19,0,0,1-1,.64,3.46,3.46,0,0,1-2.48,0,3.19,3.19,0,0,1-1-.64,3,3,0,0,1-.66-1,3.23,3.23,0,0,1-.23-1.22,3.18,3.18,0,0,1,.23-1.21,2.88,2.88,0,0,1,.66-1,3.19,3.19,0,0,1,1-.64A3.34,3.34,0,0,1,306.56,349.28Zm0,1.67a1.41,1.41,0,0,0-.54.11,1.22,1.22,0,0,0-.71.72,1.63,1.63,0,0,0-.1.55,1.69,1.69,0,0,0,.1.56,1.44,1.44,0,0,0,.28.44,1.42,1.42,0,0,0,.43.29,1.62,1.62,0,0,0,.54.1,1.57,1.57,0,0,0,.54-.1,1.3,1.3,0,0,0,.43-.29,1.44,1.44,0,0,0,.28-.44,1.47,1.47,0,0,0,.1-.56,1.42,1.42,0,0,0-.1-.55,1.23,1.23,0,0,0-.28-.44,1.15,1.15,0,0,0-.43-.28A1.37,1.37,0,0,0,306.56,351Zm1.49,9.73H306l7.51-11.2h2.09Zm6.92-5.91a3.18,3.18,0,0,1,1.24.23,3,3,0,0,1,1,.64,2.88,2.88,0,0,1,.66,1,3.32,3.32,0,0,1,0,2.43,3,3,0,0,1-.66,1,3.19,3.19,0,0,1-1,.64,3.37,3.37,0,0,1-1.24.23,3.3,3.3,0,0,1-1.24-.23,3.19,3.19,0,0,1-1-.64,3,3,0,0,1-.66-1,3,3,0,0,1-.23-1.22,3,3,0,0,1,.23-1.2,2.88,2.88,0,0,1,.66-1,3.21,3.21,0,0,1,1-.65A3.3,3.3,0,0,1,315,354.77Zm0,1.67a1.33,1.33,0,0,0-.54.1,1.3,1.3,0,0,0-.43.29,1.33,1.33,0,0,0-.28.44,1.42,1.42,0,0,0-.1.55,1.41,1.41,0,0,0,.38,1,1.28,1.28,0,0,0,.43.28,1.33,1.33,0,0,0,.54.11,1.41,1.41,0,0,0,.54-.11,1.39,1.39,0,0,0,.43-.28,1.44,1.44,0,0,0,.28-.44,1.59,1.59,0,0,0,0-1.11,1.33,1.33,0,0,0-.28-.44,1.42,1.42,0,0,0-.43-.29A1.4,1.4,0,0,0,315,356.44Z" transform="translate(-284.41 -251.02)"/><path class="cls-3" d="M284.41,302.08a7.3,7.3,0,0,1,.56-.64,4.28,4.28,0,0,1,.8-.63,4.45,4.45,0,0,1,1.08-.47,4.54,4.54,0,0,1,1.39-.19,4.63,4.63,0,0,1,1.58.26,3.47,3.47,0,0,1,1.2.74,3.1,3.1,0,0,1,.75,1.15,3.83,3.83,0,0,1,.27,1.46,3.28,3.28,0,0,1-.13,1,3.44,3.44,0,0,1-.34.84,4.59,4.59,0,0,1-.51.76c-.2.24-.41.48-.64.72L288,309.52h4.28v2h-7.4v-1.69l4-4.06a3.46,3.46,0,0,0,.68-.92,2.14,2.14,0,0,0,.24-1,1.85,1.85,0,0,0-.12-.67,1.75,1.75,0,0,0-.35-.53,1.66,1.66,0,0,0-.54-.34,1.78,1.78,0,0,0-.7-.13,2.74,2.74,0,0,0-.73.1,2.88,2.88,0,0,0-.59.27,3.14,3.14,0,0,0-.51.39c-.15.15-.3.31-.44.47Z" transform="translate(-284.41 -251.02)"/><path class="cls-3" d="M298.08,300.15a4.09,4.09,0,0,1,1.67.34,3.61,3.61,0,0,1,1.38,1.06,5.16,5.16,0,0,1,.94,1.81,8.65,8.65,0,0,1,.34,2.59,9,9,0,0,1-.34,2.66,5,5,0,0,1-.94,1.79,3.41,3.41,0,0,1-1.38,1,4.25,4.25,0,0,1-1.67.33,4.49,4.49,0,0,1-1.71-.33,3.54,3.54,0,0,1-1.4-1,5.14,5.14,0,0,1-1-1.79,10.28,10.28,0,0,1,0-5.32,5.29,5.29,0,0,1,1-1.8,3.54,3.54,0,0,1,1.4-1A4.48,4.48,0,0,1,298.08,300.15Zm0,2.07a1.84,1.84,0,0,0-.83.19,1.77,1.77,0,0,0-.7.62,3.32,3.32,0,0,0-.47,1.15,7.3,7.3,0,0,0-.18,1.77,7.42,7.42,0,0,0,.18,1.77,3.32,3.32,0,0,0,.47,1.15,1.85,1.85,0,0,0,.7.62,2,2,0,0,0,.83.19,1.91,1.91,0,0,0,.8-.19,1.78,1.78,0,0,0,.67-.62,3.53,3.53,0,0,0,.47-1.15,8,8,0,0,0,.17-1.77,7.56,7.56,0,0,0-.17-1.7,3.79,3.79,0,0,0-.47-1.16,1.91,1.91,0,0,0-.67-.66A1.68,1.68,0,0,0,298.08,302.22Z" transform="translate(-284.41 -251.02)"/><path class="cls-3" d="M306.56,300.15a3.34,3.34,0,0,1,1.24.23,3.19,3.19,0,0,1,1,.64,2.94,2.94,0,0,1,.66,1,3.22,3.22,0,0,1,0,2.44,3,3,0,0,1-.66,1,3.19,3.19,0,0,1-1,.64,3.46,3.46,0,0,1-2.48,0,3.19,3.19,0,0,1-1-.64,3,3,0,0,1-.66-1,3.35,3.35,0,0,1,0-2.44,2.94,2.94,0,0,1,.66-1,3.19,3.19,0,0,1,1-.64A3.34,3.34,0,0,1,306.56,300.15Zm0,1.67a1.4,1.4,0,0,0-.54.1,1.42,1.42,0,0,0-.43.29,1.28,1.28,0,0,0-.28.43,1.62,1.62,0,0,0,0,1.12,1.44,1.44,0,0,0,.28.44,1.23,1.23,0,0,0,.43.28,1.41,1.41,0,0,0,.54.11,1.37,1.37,0,0,0,.54-.11,1.15,1.15,0,0,0,.43-.28,1.44,1.44,0,0,0,.28-.44,1.62,1.62,0,0,0,0-1.12,1.28,1.28,0,0,0-.28-.43,1.3,1.3,0,0,0-.43-.29A1.37,1.37,0,0,0,306.56,301.82Zm1.49,9.73H306l7.51-11.2h2.09Zm6.92-5.91a3.18,3.18,0,0,1,1.24.23,3,3,0,0,1,1,.64,2.88,2.88,0,0,1,.66,1,3,3,0,0,1,.23,1.21,3,3,0,0,1-.23,1.22,3.09,3.09,0,0,1-.66,1,3.19,3.19,0,0,1-1,.64,3.37,3.37,0,0,1-1.24.23,3.3,3.3,0,0,1-1.24-.23,3.19,3.19,0,0,1-1-.64,3.09,3.09,0,0,1-.66-1,3.32,3.32,0,0,1,0-2.43,2.94,2.94,0,0,1,.66-1,3,3,0,0,1,1-.65A3.3,3.3,0,0,1,315,305.64Zm0,1.67a1.33,1.33,0,0,0-.54.1,1.3,1.3,0,0,0-.43.29,1.33,1.33,0,0,0-.28.44,1.38,1.38,0,0,0-.1.55,1.43,1.43,0,0,0,.1.56,1.28,1.28,0,0,0,.28.43,1.17,1.17,0,0,0,.43.29,1.33,1.33,0,0,0,.54.11,1.41,1.41,0,0,0,.54-.11,1.26,1.26,0,0,0,.43-.29,1.28,1.28,0,0,0,.28-.43,1.64,1.64,0,0,0,.1-.56,1.58,1.58,0,0,0-.1-.55,1.33,1.33,0,0,0-.28-.44,1.42,1.42,0,0,0-.43-.29A1.4,1.4,0,0,0,315,307.31Z" transform="translate(-284.41 -251.02)"/><path class="cls-3" d="M284.41,253a7.3,7.3,0,0,1,.56-.64,4.28,4.28,0,0,1,.8-.63,4.45,4.45,0,0,1,1.08-.47,4.54,4.54,0,0,1,1.39-.19,4.63,4.63,0,0,1,1.58.26,3.47,3.47,0,0,1,1.2.74,3.1,3.1,0,0,1,.75,1.15,3.83,3.83,0,0,1,.27,1.46,3.28,3.28,0,0,1-.13,1,3.44,3.44,0,0,1-.34.84,4.59,4.59,0,0,1-.51.76c-.2.24-.41.48-.64.72L288,260.39h4.28v2h-7.4v-1.69l4-4.06a3.46,3.46,0,0,0,.68-.92,2.14,2.14,0,0,0,.24-1,1.81,1.81,0,0,0-.12-.67,1.75,1.75,0,0,0-.35-.53,1.5,1.5,0,0,0-.54-.34,1.78,1.78,0,0,0-.7-.13,2.39,2.39,0,0,0-.73.1,2.88,2.88,0,0,0-.59.27,3.14,3.14,0,0,0-.51.39c-.15.15-.3.31-.44.47Z" transform="translate(-284.41 -251.02)"/><path class="cls-3" d="M301.33,253.23H296.8l-.05,2.24H298a5,5,0,0,1,1.71.26,3.7,3.7,0,0,1,1.23.72,2.8,2.8,0,0,1,.73,1.07,3.36,3.36,0,0,1,.25,1.31,3.89,3.89,0,0,1-.32,1.61,3.52,3.52,0,0,1-.88,1.19,3.87,3.87,0,0,1-1.3.74,5.09,5.09,0,0,1-1.59.25,5.59,5.59,0,0,1-2.26-.44A5.06,5.06,0,0,1,293.9,261l1.22-1.52a3.48,3.48,0,0,0,.53.47,4,4,0,0,0,.68.37,4.74,4.74,0,0,0,.75.26,3.44,3.44,0,0,0,.77.09,2.52,2.52,0,0,0,.82-.13,1.66,1.66,0,0,0,.58-.35,1.41,1.41,0,0,0,.35-.52,1.61,1.61,0,0,0,.12-.63,1.81,1.81,0,0,0-.11-.6,1.19,1.19,0,0,0-.37-.5,2,2,0,0,0-.71-.34,3.74,3.74,0,0,0-1.09-.13h-2.67l.12-6.2h6.44Z" transform="translate(-284.41 -251.02)"/><path class="cls-3" d="M306.56,251a3.15,3.15,0,0,1,1.24.23,3,3,0,0,1,1,.64,2.94,2.94,0,0,1,.66,1,3.22,3.22,0,0,1,0,2.44,3,3,0,0,1-.66,1,3.19,3.19,0,0,1-1,.64,3.46,3.46,0,0,1-2.48,0,3.19,3.19,0,0,1-1-.64,3,3,0,0,1-.66-1,3.35,3.35,0,0,1,0-2.44,2.94,2.94,0,0,1,.66-1,3,3,0,0,1,1-.64A3.15,3.15,0,0,1,306.56,251Zm0,1.67a1.4,1.4,0,0,0-.54.1,1.42,1.42,0,0,0-.43.29,1.28,1.28,0,0,0-.28.43,1.62,1.62,0,0,0,0,1.12,1.44,1.44,0,0,0,.28.44,1.39,1.39,0,0,0,.43.28,1.41,1.41,0,0,0,.54.11,1.37,1.37,0,0,0,.54-.11,1.28,1.28,0,0,0,.43-.28,1.44,1.44,0,0,0,.28-.44,1.62,1.62,0,0,0,0-1.12,1.28,1.28,0,0,0-.28-.43,1.3,1.3,0,0,0-.43-.29A1.37,1.37,0,0,0,306.56,252.69Zm1.49,9.73H306l7.51-11.2h2.09Zm6.92-5.91a3.18,3.18,0,0,1,1.24.23,3,3,0,0,1,1,.64,2.88,2.88,0,0,1,.66,1,3,3,0,0,1,.23,1.21,3,3,0,0,1-.89,2.19,3.19,3.19,0,0,1-1,.64,3.37,3.37,0,0,1-1.24.23,3.3,3.3,0,0,1-1.24-.23,3.19,3.19,0,0,1-1-.64,3.19,3.19,0,0,1-.66-3.4,2.94,2.94,0,0,1,.66-1,3,3,0,0,1,1-.65A3.11,3.11,0,0,1,315,256.51Zm0,1.67a1.33,1.33,0,0,0-.54.1,1.3,1.3,0,0,0-.43.29,1.33,1.33,0,0,0-.28.44,1.38,1.38,0,0,0-.1.55,1.47,1.47,0,0,0,.1.56,1.28,1.28,0,0,0,.28.43,1.17,1.17,0,0,0,.43.29,1.33,1.33,0,0,0,.54.11,1.41,1.41,0,0,0,.54-.11,1.26,1.26,0,0,0,.43-.29,1.28,1.28,0,0,0,.28-.43,1.69,1.69,0,0,0,.1-.56,1.58,1.58,0,0,0-.1-.55,1.33,1.33,0,0,0-.28-.44,1.42,1.42,0,0,0-.43-.29A1.4,1.4,0,0,0,315,258.18Z" transform="translate(-284.41 -251.02)"/><line class="cls-4" x1="41" y1="251.98" x2="41" y2="5.88"/><line class="cls-5" x1="40.01" y1="251.53" x2="50.01" y2="251.53"/><line class="cls-5" x1="40.01" y1="202.4" x2="50.01" y2="202.4"/><line class="cls-5" x1="40.01" y1="153.27" x2="50.01" y2="153.27"/><line class="cls-5" x1="40.01" y1="104.14" x2="50.01" y2="104.14"/><line class="cls-5" x1="40.01" y1="55.01" x2="50.01" y2="55.01"/><line class="cls-5" x1="40.01" y1="5.88" x2="50.01" y2="5.88"/><path class="cls-3" d="M358.4,526.44a5.3,5.3,0,0,1-.35,2,3.9,3.9,0,0,1-1,1.46,4.15,4.15,0,0,1-1.53.88,6.52,6.52,0,0,1-3.91,0,4,4,0,0,1-1.52-.88,3.78,3.78,0,0,1-1-1.46,5.29,5.29,0,0,1-.36-2v-6.73H351v6.61a3.49,3.49,0,0,0,.19,1.19,2.2,2.2,0,0,0,.53.83,2.31,2.31,0,0,0,.82.48,3.41,3.41,0,0,0,1.05.15,3.51,3.51,0,0,0,1.05-.15,2.31,2.31,0,0,0,.82-.48,2.18,2.18,0,0,0,.52-.83,3.27,3.27,0,0,0,.19-1.19v-6.61h2.24Z" transform="translate(-284.41 -251.02)"/><path class="cls-3" d="M361.59,528a1.53,1.53,0,0,1,.59.13,1.63,1.63,0,0,1,.49.33,1.92,1.92,0,0,1,.34.5,1.51,1.51,0,0,1,0,1.18,1.77,1.77,0,0,1-.34.5,1.49,1.49,0,0,1-.49.34,1.43,1.43,0,0,1-1.19,0,1.53,1.53,0,0,1-.5-.34,1.77,1.77,0,0,1-.34-.5,1.51,1.51,0,0,1,0-1.18,1.92,1.92,0,0,1,.34-.5,1.67,1.67,0,0,1,.5-.33A1.54,1.54,0,0,1,361.59,528Z" transform="translate(-284.41 -251.02)"/><path class="cls-3" d="M372.67,522.53a7.51,7.51,0,0,0-1.46-.68,5.34,5.34,0,0,0-1.72-.27,3.85,3.85,0,0,0-.86.09,2.2,2.2,0,0,0-.68.27,1.19,1.19,0,0,0-.44.42,1,1,0,0,0-.16.56.74.74,0,0,0,.17.52,1.32,1.32,0,0,0,.48.36,4.46,4.46,0,0,0,.73.24q.42.11.93.18l.63.1a7.35,7.35,0,0,1,1.4.36,3.85,3.85,0,0,1,1.14.6,2.77,2.77,0,0,1,.75.92,2.63,2.63,0,0,1,.28,1.26,3.28,3.28,0,0,1-.38,1.61,3.36,3.36,0,0,1-1,1.14,4.34,4.34,0,0,1-1.46.67,6.64,6.64,0,0,1-1.74.23A9.29,9.29,0,0,1,368,531a8.27,8.27,0,0,1-1.26-.28,7.49,7.49,0,0,1-1.17-.46,5.42,5.42,0,0,1-1-.64l1.16-1.8a5.3,5.3,0,0,0,.7.46,5.51,5.51,0,0,0,.85.39,7.26,7.26,0,0,0,1,.27,6,6,0,0,0,1,.09,4,4,0,0,0,.87-.09,2.08,2.08,0,0,0,.7-.26,1.45,1.45,0,0,0,.46-.42,1,1,0,0,0,.17-.58.84.84,0,0,0-.15-.5,1.28,1.28,0,0,0-.45-.35,3.43,3.43,0,0,0-.75-.26c-.29-.07-.63-.14-1-.2l-.72-.11a7.5,7.5,0,0,1-1.36-.35,3.53,3.53,0,0,1-1.08-.61,2.78,2.78,0,0,1-.72-.94,3.09,3.09,0,0,1-.25-1.31,3.13,3.13,0,0,1,1.34-2.65,4.56,4.56,0,0,1,1.42-.68,6.34,6.34,0,0,1,1.7-.22,10.28,10.28,0,0,1,1.13.06,7.91,7.91,0,0,1,2.11.59,9.41,9.41,0,0,1,1,.54Z" transform="translate(-284.41 -251.02)"/><path class="cls-3" d="M376.84,528a1.45,1.45,0,0,1,.59.13,1.49,1.49,0,0,1,.83.83,1.4,1.4,0,0,1,0,1.18,1.56,1.56,0,0,1-.33.5,1.53,1.53,0,0,1-.5.34,1.31,1.31,0,0,1-.59.13,1.34,1.34,0,0,1-.59-.13,1.43,1.43,0,0,1-.5-.34,1.77,1.77,0,0,1-.34-.5,1.4,1.4,0,0,1,0-1.18,1.92,1.92,0,0,1,.34-.5,1.56,1.56,0,0,1,.5-.33A1.49,1.49,0,0,1,376.84,528Z" transform="translate(-284.41 -251.02)"/><path class="cls-3" d="M341.59,550.11h-8.37v-11.2h8.31V541h-6.08v2.48h5.8v2h-5.8v2.58h6.14Z" transform="translate(-284.41 -251.02)"/><path class="cls-3" d="M346.86,542.15a3,3,0,0,1,1.37.29,2.88,2.88,0,0,1,.95.77v-.85h2v10.95h-2.08v-4a2.84,2.84,0,0,1-.94.73,2.89,2.89,0,0,1-1.34.28,3.55,3.55,0,0,1-1.49-.31,3.9,3.9,0,0,1-1.19-.86,4,4,0,0,1-.79-1.29,4.83,4.83,0,0,1,0-3.24,4,4,0,0,1,.79-1.29,3.74,3.74,0,0,1,1.19-.86A3.55,3.55,0,0,1,346.86,542.15Zm.39,1.94a2,2,0,0,0-.83.17,1.71,1.71,0,0,0-.63.46,1.86,1.86,0,0,0-.4.68,2.3,2.3,0,0,0-.14.83,2.23,2.23,0,0,0,.14.83,1.86,1.86,0,0,0,.4.68,2,2,0,0,0,.63.46,2,2,0,0,0,.83.16,2.09,2.09,0,0,0,.81-.15,1.81,1.81,0,0,0,.63-.45,2,2,0,0,0,.41-.68,2.37,2.37,0,0,0,.15-.85,2.34,2.34,0,0,0-.15-.85,1.88,1.88,0,0,0-.41-.68,1.81,1.81,0,0,0-.63-.45A2.09,2.09,0,0,0,347.25,544.09Z" transform="translate(-284.41 -251.02)"/><path class="cls-3" d="M360.69,546.8a3.77,3.77,0,0,1-.3,1.58,3,3,0,0,1-.81,1.09,3,3,0,0,1-1.16.63,4.65,4.65,0,0,1-1.4.21,4.59,4.59,0,0,1-1.39-.21,3.16,3.16,0,0,1-1.17-.63,3,3,0,0,1-.81-1.09,3.77,3.77,0,0,1-.3-1.58v-4.44h2.09v4.26a2.36,2.36,0,0,0,.12.8,1.45,1.45,0,0,0,.33.54,1.19,1.19,0,0,0,.51.3,1.79,1.79,0,0,0,.62.1,1.81,1.81,0,0,0,.63-.1,1.22,1.22,0,0,0,.5-.3,1.47,1.47,0,0,0,.34-.54,2.36,2.36,0,0,0,.12-.8v-4.26h2.08Z" transform="translate(-284.41 -251.02)"/><path class="cls-3" d="M363.85,538.48a1.3,1.3,0,0,1,.52.1,1.54,1.54,0,0,1,.42.28,1.42,1.42,0,0,1,.29.43,1.35,1.35,0,0,1,.1.53,1.27,1.27,0,0,1-.1.52,1.3,1.3,0,0,1-.29.43,1.34,1.34,0,0,1-.42.28,1.3,1.3,0,0,1-.52.1,1.32,1.32,0,0,1-.53-.1,1.34,1.34,0,0,1-.42-.28,1.35,1.35,0,0,1-.38-.95,1.35,1.35,0,0,1,.1-.53,1.39,1.39,0,0,1,.28-.43,1.54,1.54,0,0,1,.42-.28A1.32,1.32,0,0,1,363.85,538.48Zm1,11.63h-2.09v-7.75h2.09Z" transform="translate(-284.41 -251.02)"/><path class="cls-3" d="M372.72,544.21h-2.81V547a1.89,1.89,0,0,0,.09.62,1.14,1.14,0,0,0,.25.4.8.8,0,0,0,.37.23,1.33,1.33,0,0,0,.45.07,2.1,2.1,0,0,0,.76-.15,6.53,6.53,0,0,0,.7-.35l.76,1.63a5.18,5.18,0,0,1-1.12.59,4.18,4.18,0,0,1-1.44.23,2.85,2.85,0,0,1-2.18-.79,3.28,3.28,0,0,1-.73-2.31v-3h-1.49v-1.85h1.49v-2.31h2.09v2.31h2.81Z" transform="translate(-284.41 -251.02)"/><path class="cls-3" d="M375.59,538.48a1.27,1.27,0,0,1,.52.1,1.45,1.45,0,0,1,.43.28,1.39,1.39,0,0,1,.28.43,1.36,1.36,0,0,1,.11.53,1.33,1.33,0,0,1-2.57.52,1.46,1.46,0,0,1-.1-.52,1.56,1.56,0,0,1,.1-.53,1.39,1.39,0,0,1,.28-.43,1.45,1.45,0,0,1,.43-.28A1.27,1.27,0,0,1,375.59,538.48Zm1.06,11.63h-2.09v-7.75h2.09Z" transform="translate(-284.41 -251.02)"/><path class="cls-3" d="M382.28,542.15a4,4,0,0,1,1.53.29,3.48,3.48,0,0,1,1.19.84,3.65,3.65,0,0,1,.77,1.28,4.94,4.94,0,0,1,.28,1.66c0,.12,0,.25,0,.38a2.88,2.88,0,0,1,0,.32h-5.5a2.09,2.09,0,0,0,.26.73,1.81,1.81,0,0,0,.45.5,1.71,1.71,0,0,0,.59.29,2.56,2.56,0,0,0,.69.09,2.83,2.83,0,0,0,1-.19,3.06,3.06,0,0,0,.94-.55l1.23,1.34a4.18,4.18,0,0,1-1.5.89,5.5,5.5,0,0,1-1.81.29,4.54,4.54,0,0,1-1.63-.29,3.68,3.68,0,0,1-2.1-2.11,4.63,4.63,0,0,1-.29-1.66,4.51,4.51,0,0,1,.29-1.67,3.85,3.85,0,0,1,.8-1.29,3.58,3.58,0,0,1,1.24-.84A4.09,4.09,0,0,1,382.28,542.15Zm0,1.8a1.63,1.63,0,0,0-1.17.41,2.06,2.06,0,0,0-.57,1.14H384a2.07,2.07,0,0,0-.58-1.15A1.54,1.54,0,0,0,382.26,544Z" transform="translate(-284.41 -251.02)"/><path class="cls-3" d="M393.25,544.52c-.15-.08-.33-.15-.52-.23s-.4-.14-.62-.2a6.38,6.38,0,0,0-.66-.15,3.88,3.88,0,0,0-.67-.06,1.6,1.6,0,0,0-.89.2.59.59,0,0,0-.3.51.4.4,0,0,0,.1.28.91.91,0,0,0,.27.18,1.73,1.73,0,0,0,.4.12l.49.08.69.11a3.8,3.8,0,0,1,1.94.76,1.94,1.94,0,0,1,.68,1.56,2.38,2.38,0,0,1-.24,1.08,2.15,2.15,0,0,1-.7.83,3.23,3.23,0,0,1-1.12.53,5.3,5.3,0,0,1-1.5.19c-.27,0-.55,0-.85,0a5.66,5.66,0,0,1-.89-.14,7.06,7.06,0,0,1-.89-.28,4.28,4.28,0,0,1-.82-.44l.82-1.59a5.64,5.64,0,0,0,.53.31,4.84,4.84,0,0,0,.61.24,4.37,4.37,0,0,0,.69.16,6.77,6.77,0,0,0,.81.05,2.29,2.29,0,0,0,1.08-.19.6.6,0,0,0,.36-.54.51.51,0,0,0-.31-.44,2.94,2.94,0,0,0-1-.27l-.63-.09c-1.79-.24-2.68-1-2.68-2.35a2.47,2.47,0,0,1,.22-1.07,2.24,2.24,0,0,1,.65-.79,2.83,2.83,0,0,1,1-.5,4.8,4.8,0,0,1,1.37-.17,8.26,8.26,0,0,1,.88,0,7.39,7.39,0,0,1,.82.14,6.77,6.77,0,0,1,.77.22c.26.1.51.2.77.33Z" transform="translate(-284.41 -251.02)"/><path class="cls-3" d="M462.65,526.44a5.29,5.29,0,0,1-.36,2,3.78,3.78,0,0,1-1,1.46,4,4,0,0,1-1.53.88,6.49,6.49,0,0,1-3.9,0,4.15,4.15,0,0,1-1.53-.88,3.9,3.9,0,0,1-1-1.46,5.5,5.5,0,0,1-.35-2v-6.73h2.24v6.61a3.27,3.27,0,0,0,.19,1.19,2.18,2.18,0,0,0,.52.83,2.31,2.31,0,0,0,.82.48,3.51,3.51,0,0,0,1.05.15,3.41,3.41,0,0,0,1.05-.15,2.31,2.31,0,0,0,.82-.48,2.2,2.2,0,0,0,.53-.83,3.49,3.49,0,0,0,.19-1.19v-6.61h2.24Z" transform="translate(-284.41 -251.02)"/><path class="cls-3" d="M465.83,528a1.45,1.45,0,0,1,.59.13,1.51,1.51,0,0,1,.49.33,1.53,1.53,0,0,1,.34.5,1.52,1.52,0,0,1-.34,1.68,1.39,1.39,0,0,1-.49.34,1.31,1.31,0,0,1-.59.13,1.38,1.38,0,0,1-.6-.13,1.39,1.39,0,0,1-.49-.34,1.58,1.58,0,0,1-.34-.5,1.4,1.4,0,0,1,0-1.18,1.7,1.7,0,0,1,.34-.5,1.51,1.51,0,0,1,.49-.33A1.54,1.54,0,0,1,465.83,528Z" transform="translate(-284.41 -251.02)"/><path class="cls-3" d="M476.91,522.53a7.25,7.25,0,0,0-1.46-.68,5.3,5.3,0,0,0-1.72-.27,3.85,3.85,0,0,0-.86.09,2.2,2.2,0,0,0-.68.27,1.36,1.36,0,0,0-.44.42,1,1,0,0,0-.16.56.79.79,0,0,0,.17.52,1.51,1.51,0,0,0,.48.36,4.81,4.81,0,0,0,.73.24q.43.11.93.18l.63.1a7.46,7.46,0,0,1,1.41.36,3.92,3.92,0,0,1,1.13.6,2.93,2.93,0,0,1,.76.92,2.75,2.75,0,0,1,.27,1.26,3.19,3.19,0,0,1-1.39,2.75,4.34,4.34,0,0,1-1.46.67,6.57,6.57,0,0,1-1.73.23,9.32,9.32,0,0,1-1.29-.09,8.84,8.84,0,0,1-1.26-.28,7.49,7.49,0,0,1-1.17-.46,5.34,5.34,0,0,1-1-.64l1.16-1.8a4.6,4.6,0,0,0,.69.46,5.62,5.62,0,0,0,.86.39,7.12,7.12,0,0,0,1,.27,6.06,6.06,0,0,0,1.06.09,3.91,3.91,0,0,0,.86-.09,2,2,0,0,0,.7-.26,1.49,1.49,0,0,0,.47-.42,1,1,0,0,0,.17-.58.79.79,0,0,0-.16-.5,1.28,1.28,0,0,0-.45-.35,3.52,3.52,0,0,0-.74-.26c-.3-.07-.64-.14-1-.2l-.71-.11a7.61,7.61,0,0,1-1.37-.35,3.53,3.53,0,0,1-1.08-.61,2.75,2.75,0,0,1-.71-.94,3.41,3.41,0,0,1,.11-2.85,3.15,3.15,0,0,1,1-1.11,4.56,4.56,0,0,1,1.42-.68,6.36,6.36,0,0,1,1.71-.22,10.42,10.42,0,0,1,1.13.06,7.81,7.81,0,0,1,1.07.22,7.08,7.08,0,0,1,1,.37,9.53,9.53,0,0,1,1.05.54Z" transform="translate(-284.41 -251.02)"/><path class="cls-3" d="M481.09,528a1.53,1.53,0,0,1,.59.13,1.63,1.63,0,0,1,.49.33,1.92,1.92,0,0,1,.34.5,1.51,1.51,0,0,1,0,1.18,1.77,1.77,0,0,1-.34.5,1.49,1.49,0,0,1-.49.34,1.43,1.43,0,0,1-1.19,0,1.53,1.53,0,0,1-.5-.34,1.77,1.77,0,0,1-.34-.5,1.51,1.51,0,0,1,0-1.18,1.92,1.92,0,0,1,.34-.5,1.67,1.67,0,0,1,.5-.33A1.54,1.54,0,0,1,481.09,528Z" transform="translate(-284.41 -251.02)"/><path class="cls-3" d="M449.38,538.91a7.94,7.94,0,0,1,1.76.18,4,4,0,0,1,1.34.57,2.64,2.64,0,0,1,.85,1,3.12,3.12,0,0,1,.29,1.38,2.63,2.63,0,0,1-.12.8,2.77,2.77,0,0,1-.34.69,2.85,2.85,0,0,1-.51.53,2.76,2.76,0,0,1-.65.36,2.59,2.59,0,0,1,.72.37,2.42,2.42,0,0,1,.59.56,2.55,2.55,0,0,1,.4.72,2.47,2.47,0,0,1,.15.86,3.26,3.26,0,0,1-.28,1.41,2.56,2.56,0,0,1-.82,1,3.65,3.65,0,0,1-1.32.6,7.42,7.42,0,0,1-1.79.2H444.8v-11.2Zm-2.35,2v2.61h2.29a4.67,4.67,0,0,0,.77,0,1.73,1.73,0,0,0,.63-.2,1.08,1.08,0,0,0,.42-.4,1.33,1.33,0,0,0,.15-.67,1.24,1.24,0,0,0-.15-.64,1.18,1.18,0,0,0-.43-.4,2.05,2.05,0,0,0-.62-.2,6.26,6.26,0,0,0-.78,0Zm0,4.57v2.69h2.5a5.35,5.35,0,0,0,.84-.06,1.62,1.62,0,0,0,.63-.22,1,1,0,0,0,.4-.42,1.29,1.29,0,0,0,.14-.66,1.28,1.28,0,0,0-.14-.65,1,1,0,0,0-.4-.42,1.8,1.8,0,0,0-.63-.21,5.35,5.35,0,0,0-.84-.06Z" transform="translate(-284.41 -251.02)"/><path class="cls-3" d="M459.42,542.15a4.41,4.41,0,0,1,1.68.31,4,4,0,0,1,1.33.85,4,4,0,0,1,.88,1.3,4.14,4.14,0,0,1,.31,1.62,4.07,4.07,0,0,1-.31,1.62,3.89,3.89,0,0,1-.88,1.29,4,4,0,0,1-1.33.86,4.41,4.41,0,0,1-1.68.31,4.35,4.35,0,0,1-1.67-.31,4,4,0,0,1-1.32-.86,3.95,3.95,0,0,1-1.19-2.91,4.14,4.14,0,0,1,.31-1.62,4.2,4.2,0,0,1,.88-1.3,4,4,0,0,1,1.32-.85A4.35,4.35,0,0,1,459.42,542.15Zm0,1.94a2,2,0,0,0-.81.16,2,2,0,0,0-.66.44,2.2,2.2,0,0,0-.43.67,2.45,2.45,0,0,0-.15.87,2.39,2.39,0,0,0,.15.86,2.25,2.25,0,0,0,.43.68,2.12,2.12,0,0,0,.66.44,2.29,2.29,0,0,0,1.63,0,2,2,0,0,0,.66-.44,2.07,2.07,0,0,0,.43-.68,2.39,2.39,0,0,0,.16-.86,2.45,2.45,0,0,0-.16-.87,2,2,0,0,0-.43-.67,1.87,1.87,0,0,0-.66-.44A2,2,0,0,0,459.42,544.09Z" transform="translate(-284.41 -251.02)"/><path class="cls-3" d="M469.64,542.15a3.18,3.18,0,0,1,1.21.22,2.66,2.66,0,0,1,1.58,1.57,3.24,3.24,0,0,1,.22,1.23v4.94h-2.08v-4.27a1.91,1.91,0,0,0-.4-1.29,1.44,1.44,0,0,0-1.12-.44,1.67,1.67,0,0,0-.63.11,1.38,1.38,0,0,0-.52.32,1.48,1.48,0,0,0-.35.55,2,2,0,0,0-.14.77v4.25h-2.08v-7.75h2v.91a2.32,2.32,0,0,1,1-.87A3.23,3.23,0,0,1,469.64,542.15Z" transform="translate(-284.41 -251.02)"/><path class="cls-3" d="M478.05,542.15a2.81,2.81,0,0,1,2.28,1v-4.58h2.08v11.52h-2v-.86a2.88,2.88,0,0,1-.95.77,3,3,0,0,1-1.37.29,3.47,3.47,0,0,1-1.48-.31,3.82,3.82,0,0,1-1.2-.86,4,4,0,0,1-.78-1.29,4.67,4.67,0,0,1,0-3.24,4,4,0,0,1,.78-1.29,3.67,3.67,0,0,1,1.2-.86A3.47,3.47,0,0,1,478.05,542.15Zm.39,1.94a2,2,0,0,0-.83.17,1.71,1.71,0,0,0-.63.46,1.86,1.86,0,0,0-.4.68,2.3,2.3,0,0,0-.14.83,2.23,2.23,0,0,0,.14.83,1.86,1.86,0,0,0,.4.68,2,2,0,0,0,.63.46,2,2,0,0,0,.83.16,2.09,2.09,0,0,0,.81-.15,2,2,0,0,0,.64-.45,2.11,2.11,0,0,0,.4-.68,2.37,2.37,0,0,0,.15-.85,2.34,2.34,0,0,0-.15-.85,2,2,0,0,0-.4-.68,2,2,0,0,0-.64-.45A2.09,2.09,0,0,0,478.44,544.09Z" transform="translate(-284.41 -251.02)"/><path class="cls-3" d="M490.17,544.52c-.16-.08-.33-.15-.53-.23l-.61-.2c-.22-.06-.44-.11-.67-.15a3.79,3.79,0,0,0-.67-.06,1.63,1.63,0,0,0-.89.2.59.59,0,0,0-.3.51.45.45,0,0,0,.1.28.91.91,0,0,0,.27.18,1.9,1.9,0,0,0,.4.12l.5.08.68.11a3.77,3.77,0,0,1,1.94.76,1.94,1.94,0,0,1,.68,1.56,2.38,2.38,0,0,1-.24,1.08,2.15,2.15,0,0,1-.7.83,3.15,3.15,0,0,1-1.12.53,5.3,5.3,0,0,1-1.5.19,8.21,8.21,0,0,1-.84,0,5.61,5.61,0,0,1-.9-.14,7.06,7.06,0,0,1-.89-.28,4.28,4.28,0,0,1-.82-.44l.83-1.59a4.46,4.46,0,0,0,.52.31,4.84,4.84,0,0,0,.61.24,4.65,4.65,0,0,0,.69.16,6.81,6.81,0,0,0,.82.05,2.35,2.35,0,0,0,1.08-.19.6.6,0,0,0,.35-.54.49.49,0,0,0-.31-.44,2.94,2.94,0,0,0-1-.27L487,547c-1.79-.24-2.68-1-2.68-2.35a2.47,2.47,0,0,1,.22-1.07,2.24,2.24,0,0,1,.65-.79,2.91,2.91,0,0,1,1-.5,4.8,4.8,0,0,1,1.37-.17,8.26,8.26,0,0,1,.88,0,7,7,0,0,1,.82.14,7.59,7.59,0,0,1,.78.22c.25.1.5.2.76.33Z" transform="translate(-284.41 -251.02)"/><path class="cls-3" d="M561.05,519.71a6.26,6.26,0,0,1,1.76.23,3.43,3.43,0,0,1,1.29.67,2.8,2.8,0,0,1,.79,1.07,3.81,3.81,0,0,1,.26,1.44,3.4,3.4,0,0,1-.23,1.26,2.87,2.87,0,0,1-.68,1,3.45,3.45,0,0,1-1.08.69,4.75,4.75,0,0,1-1.44.35l3.45,4.49h-2.71l-3.26-4.46h-.66v4.46h-2.23v-11.2Zm-2.51,2v2.75H561a2.3,2.3,0,0,0,1.38-.34,1.22,1.22,0,0,0,.46-1,1.14,1.14,0,0,0-.47-1,2.41,2.41,0,0,0-1.37-.33Z" transform="translate(-284.41 -251.02)"/><path class="cls-3" d="M570.12,523a4,4,0,0,1,1.53.29,3.48,3.48,0,0,1,1.19.84,3.65,3.65,0,0,1,.77,1.28,4.94,4.94,0,0,1,.28,1.66c0,.12,0,.25,0,.38a2.88,2.88,0,0,1,0,.32h-5.5a2.09,2.09,0,0,0,.26.73,1.81,1.81,0,0,0,.45.5,1.71,1.71,0,0,0,.59.29,2.61,2.61,0,0,0,.69.09,2.83,2.83,0,0,0,1-.19,3.06,3.06,0,0,0,.94-.55l1.23,1.34a4.18,4.18,0,0,1-1.5.89,5.5,5.5,0,0,1-1.81.29,4.54,4.54,0,0,1-1.63-.29,3.68,3.68,0,0,1-2.1-2.11,4.63,4.63,0,0,1-.29-1.66,4.51,4.51,0,0,1,.29-1.67,3.85,3.85,0,0,1,.8-1.29,3.58,3.58,0,0,1,1.24-.84A4.09,4.09,0,0,1,570.12,523Zm0,1.8a1.63,1.63,0,0,0-1.17.41,2.06,2.06,0,0,0-.57,1.14h3.43a2.07,2.07,0,0,0-.58-1.15A1.54,1.54,0,0,0,570.1,524.75Z" transform="translate(-284.41 -251.02)"/><path class="cls-3" d="M583.22,530.91h-2v-.86a2.88,2.88,0,0,1-.95.77,3,3,0,0,1-1.37.29,3.71,3.71,0,0,1-1.49-.31,3.9,3.9,0,0,1-1.19-.86,4,4,0,0,1-.79-1.29,4.83,4.83,0,0,1,0-3.24,4,4,0,0,1,.79-1.29,3.74,3.74,0,0,1,1.19-.86,3.55,3.55,0,0,1,1.49-.31,3,3,0,0,1,1.37.29,2.88,2.88,0,0,1,.95.77v-.85h2Zm-4-6a2,2,0,0,0-.83.17,1.71,1.71,0,0,0-.63.46,1.86,1.86,0,0,0-.4.68,2.3,2.3,0,0,0-.14.83,2.23,2.23,0,0,0,.14.83,1.86,1.86,0,0,0,.4.68,2,2,0,0,0,.63.46,2,2,0,0,0,.83.16,2,2,0,0,0,.81-.16,1.67,1.67,0,0,0,.63-.44,2,2,0,0,0,.41-.68,2.37,2.37,0,0,0,.15-.85,2.34,2.34,0,0,0-.15-.85,1.88,1.88,0,0,0-.41-.68,1.81,1.81,0,0,0-.63-.45A2.13,2.13,0,0,0,579.25,524.89Z" transform="translate(-284.41 -251.02)"/><path class="cls-3" d="M587.5,530.91h-2.09V519.39h2.09Z" transform="translate(-284.41 -251.02)"/><path class="cls-3" d="M555.37,550.11H547v-11.2h8.3V541h-6.07v2.48H555v2h-5.79v2.58h6.14Z" transform="translate(-284.41 -251.02)"/><path class="cls-3" d="M563,544.52c-.16-.08-.33-.15-.53-.23l-.61-.2c-.22-.06-.44-.11-.67-.15a3.68,3.68,0,0,0-.66-.06,1.67,1.67,0,0,0-.9.2.59.59,0,0,0-.3.51.45.45,0,0,0,.1.28.91.91,0,0,0,.27.18,1.9,1.9,0,0,0,.4.12l.5.08.69.11a3.84,3.84,0,0,1,1.94.76,1.93,1.93,0,0,1,.67,1.56,2.38,2.38,0,0,1-.24,1.08,2.22,2.22,0,0,1-.69.83,3.32,3.32,0,0,1-1.12.53,5.43,5.43,0,0,1-1.51.19,8.38,8.38,0,0,1-.84,0,5.61,5.61,0,0,1-.9-.14,7.06,7.06,0,0,1-.89-.28,4.6,4.6,0,0,1-.82-.44l.83-1.59a3.88,3.88,0,0,0,.53.31,4.17,4.17,0,0,0,.6.24,4.79,4.79,0,0,0,.7.16,6.51,6.51,0,0,0,.81.05,2.35,2.35,0,0,0,1.08-.19.6.6,0,0,0,.35-.54.5.5,0,0,0-.3-.44,3,3,0,0,0-1-.27l-.63-.09c-1.79-.24-2.68-1-2.68-2.35a2.47,2.47,0,0,1,.22-1.07,2.24,2.24,0,0,1,.65-.79,2.91,2.91,0,0,1,1-.5,4.8,4.8,0,0,1,1.37-.17,8.45,8.45,0,0,1,.89,0,6.84,6.84,0,0,1,.81.14,6.94,6.94,0,0,1,.78.22c.25.1.51.2.76.33Z" transform="translate(-284.41 -251.02)"/><path class="cls-3" d="M571.16,544.21h-2.81V547a1.89,1.89,0,0,0,.09.62,1.14,1.14,0,0,0,.25.4.8.8,0,0,0,.37.23,1.33,1.33,0,0,0,.45.07,2.1,2.1,0,0,0,.76-.15,5.56,5.56,0,0,0,.69-.35l.77,1.63a5.18,5.18,0,0,1-1.12.59,4.22,4.22,0,0,1-1.44.23,2.83,2.83,0,0,1-2.18-.79,3.28,3.28,0,0,1-.73-2.31v-3h-1.49v-1.85h1.49v-2.31h2.09v2.31h2.81Z" transform="translate(-284.41 -251.02)"/><path class="cls-3" d="M580.53,550.11h-2v-.86a2.88,2.88,0,0,1-1,.77,3,3,0,0,1-1.37.29,3.47,3.47,0,0,1-1.48-.31,3.71,3.71,0,0,1-2-2.15,4.67,4.67,0,0,1,0-3.24,3.81,3.81,0,0,1,.78-1.29,3.67,3.67,0,0,1,1.2-.86,3.47,3.47,0,0,1,1.48-.31,3,3,0,0,1,1.37.29,2.88,2.88,0,0,1,1,.77v-.85h2Zm-4-6a2,2,0,0,0-.83.17,1.71,1.71,0,0,0-.63.46,1.86,1.86,0,0,0-.4.68,2.3,2.3,0,0,0-.14.83,2.23,2.23,0,0,0,.14.83,1.86,1.86,0,0,0,.4.68,2,2,0,0,0,.63.46,2,2,0,0,0,.83.16,2.09,2.09,0,0,0,.81-.15,2,2,0,0,0,.64-.45,2.11,2.11,0,0,0,.4-.68,2.37,2.37,0,0,0,.15-.85,2.34,2.34,0,0,0-.15-.85,2,2,0,0,0-.4-.68,2,2,0,0,0-.64-.45A2.09,2.09,0,0,0,576.56,544.09Z" transform="translate(-284.41 -251.02)"/><path class="cls-3" d="M588.35,544.21h-2.81V547a1.89,1.89,0,0,0,.09.62,1.3,1.3,0,0,0,.25.4.85.85,0,0,0,.37.23,1.33,1.33,0,0,0,.45.07,2.06,2.06,0,0,0,.76-.15,6.53,6.53,0,0,0,.7-.35l.77,1.63a5.51,5.51,0,0,1-1.13.59,4.18,4.18,0,0,1-1.44.23,2.85,2.85,0,0,1-2.18-.79,3.33,3.33,0,0,1-.73-2.31v-3H582v-1.85h1.49v-2.31h2.09v2.31h2.81Z" transform="translate(-284.41 -251.02)"/><path class="cls-3" d="M593.53,542.15a4.06,4.06,0,0,1,1.54.29,3.44,3.44,0,0,1,1.18.84,3.82,3.82,0,0,1,.78,1.28,4.94,4.94,0,0,1,.27,1.66c0,.12,0,.25,0,.38s0,.23,0,.32h-5.49a2.09,2.09,0,0,0,.26.73,1.78,1.78,0,0,0,.44.5,1.81,1.81,0,0,0,.59.29,2.63,2.63,0,0,0,.7.09,2.91,2.91,0,0,0,1-.19,3.31,3.31,0,0,0,.94-.55l1.22,1.34a4.14,4.14,0,0,1-1.49.89,5.54,5.54,0,0,1-1.81.29A4.46,4.46,0,0,1,592,550a3.68,3.68,0,0,1-1.27-.83,3.63,3.63,0,0,1-.83-1.28,4.42,4.42,0,0,1-.3-1.66,4.72,4.72,0,0,1,.29-1.67,3.72,3.72,0,0,1,.81-1.29,3.54,3.54,0,0,1,1.23-.84A4.09,4.09,0,0,1,593.53,542.15Zm0,1.8a1.66,1.66,0,0,0-1.18.41,2.06,2.06,0,0,0-.57,1.14h3.44a2.07,2.07,0,0,0-.58-1.15A1.56,1.56,0,0,0,593.52,544Z" transform="translate(-284.41 -251.02)"/><path class="cls-3" d="M627.64,530.91h-2.23v-11.2h2.23Z" transform="translate(-284.41 -251.02)"/><path class="cls-3" d="M633.92,523a3.18,3.18,0,0,1,1.21.22,3,3,0,0,1,1,.61,2.69,2.69,0,0,1,.62,1,3.25,3.25,0,0,1,.23,1.23v4.94h-2.09v-4.27a1.86,1.86,0,0,0-.4-1.29,1.42,1.42,0,0,0-1.11-.44,1.69,1.69,0,0,0-.64.11,1.46,1.46,0,0,0-.52.32,1.79,1.79,0,0,0-.35.55,2,2,0,0,0-.13.77v4.25h-2.09v-7.75h2v.91a2.35,2.35,0,0,1,1-.87A3.18,3.18,0,0,1,633.92,523Z" transform="translate(-284.41 -251.02)"/><path class="cls-3" d="M643.68,525h-2.41v5.9h-2.08V525h-1.45v-1.85h1.45v-1a4,4,0,0,1,.18-1.24,2.52,2.52,0,0,1,.53-1,2.4,2.4,0,0,1,.87-.61,3.12,3.12,0,0,1,1.19-.21,4,4,0,0,1,1.37.2,4.82,4.82,0,0,1,1,.49l-.84,1.63a3.14,3.14,0,0,0-.62-.27,2.33,2.33,0,0,0-.7-.11c-.61,0-.92.37-.92,1.09v.94h2.41Z" transform="translate(-284.41 -251.02)"/><path class="cls-3" d="M648.92,523a3.74,3.74,0,0,1,.61,0,2.09,2.09,0,0,1,.48.13l-.31,2.07a2.36,2.36,0,0,0-.6-.18,3.11,3.11,0,0,0-.67-.07,2,2,0,0,0-.66.11,1.5,1.5,0,0,0-.51.33,1.42,1.42,0,0,0-.34.54,2.24,2.24,0,0,0-.12.76v4.23h-2.09v-7.75h2V524a2.25,2.25,0,0,1,.91-.8A3,3,0,0,1,648.92,523Z" transform="translate(-284.41 -251.02)"/><path class="cls-3" d="M658.4,530.91h-2v-.86a2.88,2.88,0,0,1-1,.77,3,3,0,0,1-1.37.29,3.71,3.71,0,0,1-1.49-.31,3.9,3.9,0,0,1-1.19-.86,4,4,0,0,1-.79-1.29,4.83,4.83,0,0,1,0-3.24,4,4,0,0,1,.79-1.29,3.74,3.74,0,0,1,1.19-.86A3.55,3.55,0,0,1,654,523a3,3,0,0,1,1.37.29,2.88,2.88,0,0,1,1,.77v-.85h2Zm-4-6a2,2,0,0,0-.83.17,1.71,1.71,0,0,0-.63.46,1.86,1.86,0,0,0-.4.68,2.3,2.3,0,0,0-.14.83,2.23,2.23,0,0,0,.14.83,1.86,1.86,0,0,0,.4.68,2,2,0,0,0,.63.46,2,2,0,0,0,.83.16,1.92,1.92,0,0,0,.81-.16,1.79,1.79,0,0,0,.64-.44,2.11,2.11,0,0,0,.4-.68,2.37,2.37,0,0,0,.15-.85,2.34,2.34,0,0,0-.15-.85,2,2,0,0,0-.4-.68,2,2,0,0,0-.64-.45A2.09,2.09,0,0,0,654.43,524.89Z" transform="translate(-284.41 -251.02)"/><path class="cls-3" d="M665.75,525.32c-.15-.08-.33-.15-.52-.23s-.4-.14-.62-.2a6.38,6.38,0,0,0-.66-.15,3.88,3.88,0,0,0-.67-.06,1.6,1.6,0,0,0-.89.2.56.56,0,0,0-.3.51.4.4,0,0,0,.1.28.91.91,0,0,0,.27.18,1.73,1.73,0,0,0,.4.12l.49.08.69.11a3.8,3.8,0,0,1,1.94.76,1.92,1.92,0,0,1,.68,1.56,2.38,2.38,0,0,1-.24,1.08,2.15,2.15,0,0,1-.7.83,3.43,3.43,0,0,1-1.12.53,5.3,5.3,0,0,1-1.5.19c-.27,0-.55,0-.85-.05a5.66,5.66,0,0,1-.89-.14,7.06,7.06,0,0,1-.89-.28,4.28,4.28,0,0,1-.82-.44l.82-1.59a5.64,5.64,0,0,0,.53.31,4.84,4.84,0,0,0,.61.24,4.37,4.37,0,0,0,.69.16,6.77,6.77,0,0,0,.81,0,2.29,2.29,0,0,0,1.08-.19.6.6,0,0,0,.36-.54.49.49,0,0,0-.31-.44,2.94,2.94,0,0,0-1-.27l-.63-.09c-1.79-.24-2.68-1-2.68-2.35a2.47,2.47,0,0,1,.22-1.07,2.24,2.24,0,0,1,.65-.79,2.83,2.83,0,0,1,1-.5,4.8,4.8,0,0,1,1.37-.17,8.26,8.26,0,0,1,.88,0,7.39,7.39,0,0,1,.82.14,6.77,6.77,0,0,1,.77.22c.26.1.51.2.77.33Z" transform="translate(-284.41 -251.02)"/><path class="cls-3" d="M673.47,525h-2.8v2.83a1.89,1.89,0,0,0,.09.62,1,1,0,0,0,.25.4.86.86,0,0,0,.36.23,1.43,1.43,0,0,0,.46.07,2,2,0,0,0,.75-.15,5.71,5.71,0,0,0,.7-.35l.77,1.63a5.26,5.26,0,0,1-1.13.59,4.18,4.18,0,0,1-1.44.23,2.83,2.83,0,0,1-2.17-.79,3.28,3.28,0,0,1-.73-2.31v-3h-1.5v-1.85h1.5v-2.31h2.09v2.31h2.8Z" transform="translate(-284.41 -251.02)"/><path class="cls-3" d="M679.12,523a3.74,3.74,0,0,1,.61,0,2.24,2.24,0,0,1,.48.13l-.31,2.07a2.36,2.36,0,0,0-.6-.18,3.11,3.11,0,0,0-.67-.07,2,2,0,0,0-.66.11,1.5,1.5,0,0,0-.51.33,1.42,1.42,0,0,0-.34.54,2.24,2.24,0,0,0-.12.76v4.23h-2.09v-7.75h2V524a2.25,2.25,0,0,1,.91-.8A3,3,0,0,1,679.12,523Z" transform="translate(-284.41 -251.02)"/><path class="cls-3" d="M688.45,527.6a3.77,3.77,0,0,1-.3,1.58,3.09,3.09,0,0,1-.8,1.09,3.16,3.16,0,0,1-1.17.63,4.59,4.59,0,0,1-1.39.21,4.65,4.65,0,0,1-1.4-.21,3.16,3.16,0,0,1-1.17-.63,3,3,0,0,1-.81-1.09,3.77,3.77,0,0,1-.3-1.58v-4.44h2.09v4.26a2.36,2.36,0,0,0,.12.8,1.45,1.45,0,0,0,.33.54,1.26,1.26,0,0,0,.51.3,1.81,1.81,0,0,0,.63.1,1.79,1.79,0,0,0,.62-.1,1.22,1.22,0,0,0,.5-.3,1.35,1.35,0,0,0,.34-.54,2.36,2.36,0,0,0,.12-.8v-4.26h2.08Z" transform="translate(-284.41 -251.02)"/><path class="cls-3" d="M693.83,523a4.1,4.1,0,0,1,1.77.38,3.57,3.57,0,0,1,1.33,1.08l-1.5,1.26a2.52,2.52,0,0,0-.76-.58,2,2,0,0,0-.9-.2,1.94,1.94,0,0,0-.76.15,1.92,1.92,0,0,0-1,1.11,2.5,2.5,0,0,0-.15.88,2.46,2.46,0,0,0,.15.88,2.15,2.15,0,0,0,.41.67,1.74,1.74,0,0,0,.61.43,1.94,1.94,0,0,0,.76.15,2.05,2.05,0,0,0,.93-.21,2.61,2.61,0,0,0,.76-.57l1.49,1.27a3.72,3.72,0,0,1-1.35,1.08,4,4,0,0,1-1.76.38,4.35,4.35,0,0,1-1.69-.31,4.06,4.06,0,0,1-1.31-.85,3.79,3.79,0,0,1-.84-1.29,4.73,4.73,0,0,1,0-3.26,3.79,3.79,0,0,1,.84-1.29,3.9,3.9,0,0,1,1.31-.85A4.35,4.35,0,0,1,693.83,523Z" transform="translate(-284.41 -251.02)"/><path class="cls-3" d="M703.75,525h-2.81v2.83a1.89,1.89,0,0,0,.09.62,1,1,0,0,0,.25.4.83.83,0,0,0,.37.23,1.33,1.33,0,0,0,.45.07,2,2,0,0,0,.75-.15,5.07,5.07,0,0,0,.7-.35l.77,1.63a5.26,5.26,0,0,1-1.13.59,4.18,4.18,0,0,1-1.44.23,2.83,2.83,0,0,1-2.17-.79,3.28,3.28,0,0,1-.73-2.31v-3h-1.5v-1.85h1.5v-2.31h2.09v2.31h2.81Z" transform="translate(-284.41 -251.02)"/><path class="cls-3" d="M712.39,527.6a3.77,3.77,0,0,1-.3,1.58,3.09,3.09,0,0,1-2,1.72,4.54,4.54,0,0,1-1.39.21,4.59,4.59,0,0,1-1.39-.21,3.16,3.16,0,0,1-1.17-.63,3,3,0,0,1-.81-1.09,3.77,3.77,0,0,1-.3-1.58v-4.44h2.09v4.26a2.36,2.36,0,0,0,.12.8,1.45,1.45,0,0,0,.33.54,1.22,1.22,0,0,0,.5.3,1.89,1.89,0,0,0,.63.1,1.85,1.85,0,0,0,.63-.1,1.22,1.22,0,0,0,.5-.3,1.47,1.47,0,0,0,.34-.54,2.36,2.36,0,0,0,.12-.8v-4.26h2.08Z" transform="translate(-284.41 -251.02)"/><path class="cls-3" d="M718.32,523a3.74,3.74,0,0,1,.61,0,2.24,2.24,0,0,1,.48.13l-.31,2.07a2.36,2.36,0,0,0-.6-.18,3.11,3.11,0,0,0-.67-.07,2,2,0,0,0-.66.11,1.5,1.5,0,0,0-.51.33,1.42,1.42,0,0,0-.34.54,2.24,2.24,0,0,0-.12.76v4.23h-2.09v-7.75h2V524a2.25,2.25,0,0,1,.91-.8A3,3,0,0,1,718.32,523Z" transform="translate(-284.41 -251.02)"/><path class="cls-3" d="M723.61,523a4,4,0,0,1,1.53.29,3.48,3.48,0,0,1,1.19.84,3.65,3.65,0,0,1,.77,1.28,4.7,4.7,0,0,1,.28,1.66c0,.12,0,.25,0,.38s0,.23,0,.32h-5.5a2.1,2.1,0,0,0,.27.73,1.78,1.78,0,0,0,.44.5,1.71,1.71,0,0,0,.59.29,2.61,2.61,0,0,0,.69.09,2.83,2.83,0,0,0,1-.19,3.06,3.06,0,0,0,.94-.55l1.23,1.34a4.14,4.14,0,0,1-1.49.89,5.6,5.6,0,0,1-1.82.29,4.45,4.45,0,0,1-1.62-.29,3.73,3.73,0,0,1-1.28-.83,3.61,3.61,0,0,1-.82-1.28,4.42,4.42,0,0,1-.3-1.66,4.72,4.72,0,0,1,.29-1.67,3.85,3.85,0,0,1,.8-1.29,3.68,3.68,0,0,1,1.24-.84A4.09,4.09,0,0,1,723.61,523Zm0,1.8a1.65,1.65,0,0,0-1.17.41,2.06,2.06,0,0,0-.57,1.14h3.43a2.06,2.06,0,0,0-.57-1.15A1.57,1.57,0,0,0,723.59,524.75Z" transform="translate(-284.41 -251.02)"/><path class="cls-3" d="M762.86,530.91h-8.37v-11.2h8.3v2h-6.07v2.48h5.79v2h-5.79v2.58h6.14Z" transform="translate(-284.41 -251.02)"/><path class="cls-3" d="M769.28,523a3.27,3.27,0,0,1,1.22.22,2.93,2.93,0,0,1,1,.61,2.86,2.86,0,0,1,.63,1,3.45,3.45,0,0,1,.22,1.23v4.94h-2.09v-4.27a1.86,1.86,0,0,0-.4-1.29,1.42,1.42,0,0,0-1.11-.44,1.69,1.69,0,0,0-.64.11,1.46,1.46,0,0,0-.52.32,1.79,1.79,0,0,0-.35.55,2,2,0,0,0-.13.77v4.25H765v-7.75h2v.91a2.35,2.35,0,0,1,1-.87A3.18,3.18,0,0,1,769.28,523Z" transform="translate(-284.41 -251.02)"/><path class="cls-3" d="M777.87,523a4,4,0,0,1,1.53.29,3.48,3.48,0,0,1,1.19.84,3.8,3.8,0,0,1,.77,1.28,4.94,4.94,0,0,1,.27,1.66c0,.12,0,.25,0,.38a1.51,1.51,0,0,1,0,.32H776.1a2.09,2.09,0,0,0,.26.73,1.81,1.81,0,0,0,.45.5,1.76,1.76,0,0,0,.58.29,2.69,2.69,0,0,0,.7.09,2.83,2.83,0,0,0,1-.19,3.06,3.06,0,0,0,.94-.55l1.22,1.34a4.14,4.14,0,0,1-1.49.89,5.5,5.5,0,0,1-1.81.29,4.54,4.54,0,0,1-1.63-.29,3.68,3.68,0,0,1-2.1-2.11,4.63,4.63,0,0,1-.29-1.66,4.72,4.72,0,0,1,.28-1.67,3.87,3.87,0,0,1,.81-1.29,3.54,3.54,0,0,1,1.23-.84A4.15,4.15,0,0,1,777.87,523Zm0,1.8a1.66,1.66,0,0,0-1.18.41,2.12,2.12,0,0,0-.56,1.14h3.43a2.07,2.07,0,0,0-.58-1.15A1.56,1.56,0,0,0,777.85,524.75Z" transform="translate(-284.41 -251.02)"/><path class="cls-3" d="M787.55,523a3.7,3.7,0,0,1,.6,0,2.09,2.09,0,0,1,.48.13l-.31,2.07a2.36,2.36,0,0,0-.6-.18,3.09,3.09,0,0,0-.66-.07,2,2,0,0,0-.66.11,1.65,1.65,0,0,0-.52.33,1.54,1.54,0,0,0-.33.54,2.24,2.24,0,0,0-.12.76v4.23h-2.09v-7.75h2V524a2.27,2.27,0,0,1,.92-.8A3,3,0,0,1,787.55,523Z" transform="translate(-284.41 -251.02)"/><path class="cls-3" d="M792.88,523a3.06,3.06,0,0,1,1.41.29,2.73,2.73,0,0,1,1,.78v-.86h2.05v7.11a4.6,4.6,0,0,1-.29,1.67,3.49,3.49,0,0,1-.84,1.26,3.81,3.81,0,0,1-1.32.79,5.23,5.23,0,0,1-1.73.27,7.26,7.26,0,0,1-.93-.06,6.52,6.52,0,0,1-.9-.18,4.9,4.9,0,0,1-.84-.29,3.71,3.71,0,0,1-.73-.41l.75-1.7a4.9,4.9,0,0,0,1.22.59,4.52,4.52,0,0,0,1.34.2,2.82,2.82,0,0,0,.89-.13,2.08,2.08,0,0,0,.7-.39,1.89,1.89,0,0,0,.45-.65,2.19,2.19,0,0,0,.17-.88v-.55a2.88,2.88,0,0,1-1,.77,3.18,3.18,0,0,1-1.4.28,3.3,3.3,0,0,1-1.35-.28,3.62,3.62,0,0,1-1.14-.8,3.79,3.79,0,0,1-.78-1.25,4.55,4.55,0,0,1,0-3.25,3.74,3.74,0,0,1,.78-1.24,3.5,3.5,0,0,1,1.14-.81A3.3,3.3,0,0,1,792.88,523Zm.53,1.92a1.92,1.92,0,0,0-.81.16,1.78,1.78,0,0,0-.61.43,2.15,2.15,0,0,0-.4.65,2.36,2.36,0,0,0-.13.8,2.26,2.26,0,0,0,.13.79,2,2,0,0,0,.4.64,1.8,1.8,0,0,0,.61.44,1.92,1.92,0,0,0,.81.16,1.86,1.86,0,0,0,.79-.16,1.79,1.79,0,0,0,.62-.42,1.94,1.94,0,0,0,.39-.65,2.1,2.1,0,0,0,.14-.8,2.16,2.16,0,0,0-.14-.81,1.85,1.85,0,0,0-.39-.65,2,2,0,0,0-.62-.43A2,2,0,0,0,793.41,524.87Z" transform="translate(-284.41 -251.02)"/><path class="cls-3" d="M801.45,534.14h-2.29l2.72-4.88-3.35-6.1h2.37l2.13,4,2.06-4h2.29Z" transform="translate(-284.41 -251.02)"/><path class="cls-3" d="M354.14,443.71a6.75,6.75,0,0,1,2,.29,5,5,0,0,1,1.57.82,3.73,3.73,0,0,1,1,1.26,3.78,3.78,0,0,1,.36,1.66,3.24,3.24,0,0,1-.56,1.92,3.76,3.76,0,0,1-1.53,1.26,4.18,4.18,0,0,1,1.76,1.25,3.11,3.11,0,0,1,.64,1.95,3.59,3.59,0,0,1-.43,1.81,4,4,0,0,1-1.16,1.28,5.19,5.19,0,0,1-1.65.75,7.77,7.77,0,0,1-4.75-.27,5.37,5.37,0,0,1-2.06-1.5l1.61-1.77a4.51,4.51,0,0,0,1.44,1,4.46,4.46,0,0,0,1.74.34,4.07,4.07,0,0,0,1-.1,2.7,2.7,0,0,0,.79-.34,1.67,1.67,0,0,0,.52-.57,1.6,1.6,0,0,0,.19-.8,1.43,1.43,0,0,0-.21-.79,2,2,0,0,0-.6-.58,2.88,2.88,0,0,0-.86-.35,4.57,4.57,0,0,0-1.07-.11h-1.63v-2.4h1.64a3.71,3.71,0,0,0,1-.12,2.33,2.33,0,0,0,.77-.33,1.66,1.66,0,0,0,.53-.56,1.5,1.5,0,0,0,.19-.78,1.6,1.6,0,0,0-.18-.75,1.83,1.83,0,0,0-.49-.55,2.64,2.64,0,0,0-.74-.33,3.51,3.51,0,0,0-1.82,0,3.85,3.85,0,0,0-.78.31,3.67,3.67,0,0,0-.64.45,4.92,4.92,0,0,0-.5.54l-1.7-1.71a5.32,5.32,0,0,1,.8-.85,5.12,5.12,0,0,1,1-.7,5.93,5.93,0,0,1,1.29-.45A6.66,6.66,0,0,1,354.14,443.71Z" transform="translate(-284.41 -251.02)"/><path class="cls-3" d="M363.34,454.33a1.93,1.93,0,0,1,1.35.58,2.09,2.09,0,0,1,.43.62,1.8,1.8,0,0,1,.15.73,1.9,1.9,0,0,1-.15.75,2,2,0,0,1-.43.62,1.74,1.74,0,0,1-.61.43,1.9,1.9,0,0,1-1.48,0,1.69,1.69,0,0,1-.62-.43,2,2,0,0,1-.43-.62,1.74,1.74,0,0,1-.16-.75,1.66,1.66,0,0,1,.16-.73,2.09,2.09,0,0,1,.43-.62,1.79,1.79,0,0,1,.62-.42A1.86,1.86,0,0,1,363.34,454.33Z" transform="translate(-284.41 -251.02)"/><path class="cls-3" d="M376.21,446.47h-5.67l-.06,2.81h1.61a6.09,6.09,0,0,1,2.14.33,4.41,4.41,0,0,1,1.53.89,3.62,3.62,0,0,1,.92,1.34,4.29,4.29,0,0,1,.31,1.65,4.78,4.78,0,0,1-.4,2,4.28,4.28,0,0,1-1.1,1.48,4.78,4.78,0,0,1-1.62.92,6.15,6.15,0,0,1-2,.31,7.07,7.07,0,0,1-2.83-.54,6.1,6.1,0,0,1-2.13-1.55l1.52-1.88a4.91,4.91,0,0,0,.67.58,5.68,5.68,0,0,0,.84.47,5.75,5.75,0,0,0,.94.31,4.07,4.07,0,0,0,1,.11,2.88,2.88,0,0,0,1-.16,2,2,0,0,0,.73-.43,1.84,1.84,0,0,0,.43-.65,2.09,2.09,0,0,0,0-1.53,1.56,1.56,0,0,0-.46-.64,2.33,2.33,0,0,0-.88-.42,4.82,4.82,0,0,0-1.37-.17H368l.15-7.75h8Z" transform="translate(-284.41 -251.02)"/><path class="cls-3" d="M458.38,448.09a6.4,6.4,0,0,1,2,.29,4.76,4.76,0,0,1,1.57.81,3.56,3.56,0,0,1,1,1.27,3.7,3.7,0,0,1,.36,1.65,3.31,3.31,0,0,1-.55,1.92,3.79,3.79,0,0,1-1.54,1.26,4.12,4.12,0,0,1,1.76,1.25,3.08,3.08,0,0,1,.64,2,3.58,3.58,0,0,1-.43,1.8,4,4,0,0,1-1.16,1.28,5.2,5.2,0,0,1-1.65.76,7.66,7.66,0,0,1-1.92.25,7.28,7.28,0,0,1-2.83-.53,5.44,5.44,0,0,1-2.06-1.5l1.61-1.77a4.39,4.39,0,0,0,3.18,1.34,4.21,4.21,0,0,0,1-.11,2.52,2.52,0,0,0,.78-.34,1.58,1.58,0,0,0,.52-.57,1.6,1.6,0,0,0,.19-.8,1.46,1.46,0,0,0-.21-.79,1.82,1.82,0,0,0-.59-.58,3.11,3.11,0,0,0-.87-.35,5.17,5.17,0,0,0-1.07-.11h-1.63v-2.4h1.64a4.21,4.21,0,0,0,1-.11,2.52,2.52,0,0,0,.78-.34,1.55,1.55,0,0,0,.52-.56,1.49,1.49,0,0,0,.19-.77,1.54,1.54,0,0,0-.18-.75,1.52,1.52,0,0,0-.49-.55,2.4,2.4,0,0,0-.74-.34,3.72,3.72,0,0,0-.91-.11,3.34,3.34,0,0,0-1.68.42,3.32,3.32,0,0,0-.65.46,3.6,3.6,0,0,0-.5.54l-1.7-1.71a5.41,5.41,0,0,1,.8-.86,5,5,0,0,1,1-.69,5.62,5.62,0,0,1,1.29-.46A6.74,6.74,0,0,1,458.38,448.09Z" transform="translate(-284.41 -251.02)"/><path class="cls-3" d="M467.58,458.71a1.85,1.85,0,0,1,.74.15,2.26,2.26,0,0,1,.62.42,1.89,1.89,0,0,1,.42.62,1.9,1.9,0,0,1,0,1.48,1.93,1.93,0,0,1-.42.63,1.89,1.89,0,0,1-.62.42,1.7,1.7,0,0,1-.74.16,1.73,1.73,0,0,1-.74-.16,1.89,1.89,0,0,1-.62-.42,2.13,2.13,0,0,1-.43-.63,1.79,1.79,0,0,1,0-1.48,2.09,2.09,0,0,1,.43-.62,2.26,2.26,0,0,1,.62-.42A1.88,1.88,0,0,1,467.58,458.71Z" transform="translate(-284.41 -251.02)"/><path class="cls-3" d="M475.63,459.78v-8L472.15,453V450.3l6.17-2.18v11.66h3.17v2.56h-9.18v-2.56Z" transform="translate(-284.41 -251.02)"/><path class="cls-3" d="M563.3,393a1.39,1.39,0,0,1-.3,0h-.33a5.18,5.18,0,0,1-2-.36,4.46,4.46,0,0,1-2.53-2.46,4.6,4.6,0,0,1-.36-1.83,4.46,4.46,0,0,1,.4-1.9,4.56,4.56,0,0,1,1.1-1.51,5.27,5.27,0,0,1,1.67-1,6.22,6.22,0,0,1,4.17,0,5.12,5.12,0,0,1,1.67,1,4.58,4.58,0,0,1,1.11,1.5,4.37,4.37,0,0,1,.4,1.88,5.17,5.17,0,0,1-.35,1.87,9.8,9.8,0,0,1-1,1.85l-3.88,5.81h-3.26Zm-.22-2.33a2.61,2.61,0,0,0,1-.17,2.36,2.36,0,0,0,.78-.47,2.09,2.09,0,0,0,.51-.73,2.37,2.37,0,0,0,0-1.86,2.09,2.09,0,0,0-.51-.73,2.54,2.54,0,0,0-.78-.47,2.88,2.88,0,0,0-1.95,0,2.54,2.54,0,0,0-.78.47,2.39,2.39,0,0,0-.51.73,2.49,2.49,0,0,0,0,1.86,2.39,2.39,0,0,0,.51.73,2.36,2.36,0,0,0,.78.47A2.59,2.59,0,0,0,563.08,390.66Z" transform="translate(-284.41 -251.02)"/><path class="cls-3" d="M571.83,394.23a1.89,1.89,0,0,1,.74.16,1.85,1.85,0,0,1,.61.42,2,2,0,0,1,.42.61,1.73,1.73,0,0,1,.16.74,1.78,1.78,0,0,1-.16.75,1.91,1.91,0,0,1-1.77,1.2,1.93,1.93,0,0,1-.75-.15,2,2,0,0,1-.62-.43,2.06,2.06,0,0,1-.42-.62,1.78,1.78,0,0,1-.16-.75,1.73,1.73,0,0,1,.16-.74,2.14,2.14,0,0,1,.42-.61,2,2,0,0,1,.62-.42A1.94,1.94,0,0,1,571.83,394.23Z" transform="translate(-284.41 -251.02)"/><path class="cls-3" d="M585.56,386l-5.8,11.89h-3.18l5.76-11.48h-6.65v-2.52h9.87Z" transform="translate(-284.41 -251.02)"/><path class="cls-3" d="M660.58,355.84v-8l-3.48,1.24v-2.69l6.17-2.18v11.66h3.17v2.56h-9.18v-2.56Z" transform="translate(-284.41 -251.02)"/><path class="cls-3" d="M672.87,344.15a6.7,6.7,0,0,1,2,.29,5,5,0,0,1,1.57.82,3.62,3.62,0,0,1,1.37,2.91,3.27,3.27,0,0,1-.55,1.92,3.64,3.64,0,0,1-1.54,1.26,4.14,4.14,0,0,1,1.76,1.26,3,3,0,0,1,.64,1.95,3.59,3.59,0,0,1-.43,1.81,3.92,3.92,0,0,1-1.16,1.27,5,5,0,0,1-1.65.76,7.22,7.22,0,0,1-1.92.25,7.07,7.07,0,0,1-2.83-.53,5.24,5.24,0,0,1-2.06-1.5l1.61-1.77a4.22,4.22,0,0,0,1.44,1,4.36,4.36,0,0,0,1.74.35,3.72,3.72,0,0,0,1-.11,2.48,2.48,0,0,0,.78-.33,1.58,1.58,0,0,0,.52-.57,1.62,1.62,0,0,0,.19-.81,1.48,1.48,0,0,0-.21-.79,1.89,1.89,0,0,0-.59-.57,2.6,2.6,0,0,0-.87-.35,4.55,4.55,0,0,0-1.07-.12H671v-2.4h1.64a3.72,3.72,0,0,0,1-.11,2.48,2.48,0,0,0,.78-.33,1.63,1.63,0,0,0,.52-.56,1.67,1.67,0,0,0,0-1.53,1.61,1.61,0,0,0-.49-.55,2.38,2.38,0,0,0-.74-.33,3.28,3.28,0,0,0-.91-.12,3.34,3.34,0,0,0-.91.12,3.1,3.1,0,0,0-.77.31,3.75,3.75,0,0,0-.65.45,4.92,4.92,0,0,0-.5.54l-1.7-1.71a6.43,6.43,0,0,1,.8-.86,5.87,5.87,0,0,1,1-.69,6.12,6.12,0,0,1,1.29-.45A6.73,6.73,0,0,1,672.87,344.15Z" transform="translate(-284.41 -251.02)"/><path class="cls-3" d="M682.07,354.77a1.7,1.7,0,0,1,.74.16,2,2,0,0,1,.62.42,2.21,2.21,0,0,1,.42.61,1.88,1.88,0,0,1,.15.74,1.93,1.93,0,0,1-.15.75,2.42,2.42,0,0,1-.42.62,2.22,2.22,0,0,1-.62.43,1.9,1.9,0,0,1-1.48,0,2,2,0,0,1-.62-.43,2.22,2.22,0,0,1-.43-.62,1.78,1.78,0,0,1-.16-.75,1.73,1.73,0,0,1,.16-.74,2,2,0,0,1,.43-.61,1.79,1.79,0,0,1,.62-.42A1.7,1.7,0,0,1,682.07,354.77Z" transform="translate(-284.41 -251.02)"/><path class="cls-3" d="M695.8,346.51,690,358.4h-3.18l5.76-11.48h-6.65V344.4h9.87Z" transform="translate(-284.41 -251.02)"/><path class="cls-3" d="M760.5,276.51a7.67,7.67,0,0,1,.7-.8,5.42,5.42,0,0,1,1-.78,5.71,5.71,0,0,1,1.34-.6,6.06,6.06,0,0,1,1.74-.23,5.63,5.63,0,0,1,2,.33,4.41,4.41,0,0,1,1.49.92,4.12,4.12,0,0,1,1,1.43,5,5,0,0,1,.33,1.84,4.56,4.56,0,0,1-.16,1.19,4.8,4.8,0,0,1-.42,1.05,6.59,6.59,0,0,1-.64.95c-.25.3-.52.6-.8.9l-3,3.11h5.35v2.53h-9.25v-2.11l5-5.07a4.84,4.84,0,0,0,.85-1.16,2.67,2.67,0,0,0,.3-1.24,2.06,2.06,0,0,0-.16-.84,1.89,1.89,0,0,0-.43-.66,2.1,2.1,0,0,0-.68-.44,2.41,2.41,0,0,0-.87-.15,3.18,3.18,0,0,0-.91.12,3.51,3.51,0,0,0-1.37.83,6.28,6.28,0,0,0-.56.59Z" transform="translate(-284.41 -251.02)"/><path class="cls-3" d="M777.58,274.1a5.11,5.11,0,0,1,2.09.43,4.55,4.55,0,0,1,1.73,1.32,6.59,6.59,0,0,1,1.17,2.26,11.06,11.06,0,0,1,.43,3.24,11.39,11.39,0,0,1-.43,3.32,6.45,6.45,0,0,1-1.17,2.25,4.52,4.52,0,0,1-1.73,1.27,5.45,5.45,0,0,1-2.09.41,5.57,5.57,0,0,1-2.13-.41,4.51,4.51,0,0,1-1.75-1.27,6.31,6.31,0,0,1-1.19-2.25,10.72,10.72,0,0,1-.44-3.32,10.84,10.84,0,0,1,.44-3.33,6.49,6.49,0,0,1,1.19-2.25,4.41,4.41,0,0,1,1.75-1.27A5.57,5.57,0,0,1,777.58,274.1Zm0,2.59a2.5,2.5,0,0,0-1,.23,2.28,2.28,0,0,0-.87.78,4.22,4.22,0,0,0-.59,1.43,9.34,9.34,0,0,0-.22,2.22,9.19,9.19,0,0,0,.22,2.21,4.19,4.19,0,0,0,.59,1.44,2.17,2.17,0,0,0,.87.77,2.37,2.37,0,0,0,1,.24,2.23,2.23,0,0,0,1-.24,2.11,2.11,0,0,0,.84-.77,4.19,4.19,0,0,0,.58-1.44,9.73,9.73,0,0,0,.22-2.21,9.3,9.3,0,0,0-.22-2.13,4.52,4.52,0,0,0-.58-1.45,2.34,2.34,0,0,0-.84-.82A2,2,0,0,0,777.58,276.69Z" transform="translate(-284.41 -251.02)"/><path class="cls-3" d="M786.32,284.72a1.88,1.88,0,0,1,.74.15,2.37,2.37,0,0,1,.61.42,1.89,1.89,0,0,1,.42.62,1.79,1.79,0,0,1,0,1.48,1.93,1.93,0,0,1-.42.63,2,2,0,0,1-.61.42,1.73,1.73,0,0,1-.74.16,1.78,1.78,0,0,1-.75-.16A1.89,1.89,0,0,1,785,288a1.93,1.93,0,0,1-.42-.63,1.79,1.79,0,0,1,0-1.48,1.89,1.89,0,0,1,.42-.62,2.26,2.26,0,0,1,.62-.42A1.93,1.93,0,0,1,786.32,284.72Z" transform="translate(-284.41 -251.02)"/><path class="cls-3" d="M795.09,274.1a7.14,7.14,0,0,1,2,.27,5.37,5.37,0,0,1,1.63.79,3.94,3.94,0,0,1,1.1,1.27,3.49,3.49,0,0,1,.41,1.69,3.41,3.41,0,0,1-.17,1.09,3.24,3.24,0,0,1-.45.89,3.13,3.13,0,0,1-.68.68,4.48,4.48,0,0,1-.84.51,5.51,5.51,0,0,1,1,.49,3.71,3.71,0,0,1,.78.69,3.14,3.14,0,0,1,.73,2.07,3.44,3.44,0,0,1-.43,1.71,4,4,0,0,1-1.18,1.27,5.56,5.56,0,0,1-1.74.8,8.2,8.2,0,0,1-4.25,0,5.56,5.56,0,0,1-1.74-.8,3.82,3.82,0,0,1-1.17-1.27,3.34,3.34,0,0,1-.43-1.71,3.28,3.28,0,0,1,.19-1.16,3,3,0,0,1,.52-.91,3.77,3.77,0,0,1,.79-.69,5.19,5.19,0,0,1,1-.49,4.48,4.48,0,0,1-.84-.51,3.13,3.13,0,0,1-.68-.68,3.24,3.24,0,0,1-.45-.89,3.42,3.42,0,0,1-.16-1.09,3.49,3.49,0,0,1,.4-1.69,3.94,3.94,0,0,1,1.1-1.27,5.37,5.37,0,0,1,1.63-.79A7.16,7.16,0,0,1,795.09,274.1Zm0,8.29a4,4,0,0,0-1,.12,2.74,2.74,0,0,0-.81.37,1.86,1.86,0,0,0-.55.6,1.6,1.6,0,0,0-.2.83,1.57,1.57,0,0,0,.2.81,1.93,1.93,0,0,0,.55.59,2.5,2.5,0,0,0,.81.36,4,4,0,0,0,1,.12,3.93,3.93,0,0,0,1-.12,2.65,2.65,0,0,0,.82-.36,1.93,1.93,0,0,0,.55-.59,1.58,1.58,0,0,0,.21-.81,1.6,1.6,0,0,0-.21-.83,1.86,1.86,0,0,0-.55-.6,2.93,2.93,0,0,0-.82-.37A3.93,3.93,0,0,0,795.09,282.39Zm0-5.85a3.48,3.48,0,0,0-.88.11,2,2,0,0,0-.72.35,1.64,1.64,0,0,0-.49.56,1.62,1.62,0,0,0-.17.77,1.67,1.67,0,0,0,.17.79,1.71,1.71,0,0,0,.49.58,2.2,2.2,0,0,0,.72.35,3.07,3.07,0,0,0,.88.12,3.17,3.17,0,0,0,.88-.12,2.41,2.41,0,0,0,.72-.35,1.8,1.8,0,0,0,.48-.58,1.67,1.67,0,0,0,.18-.79,1.62,1.62,0,0,0-.18-.77,1.73,1.73,0,0,0-.48-.56,2.19,2.19,0,0,0-.72-.35A3.6,3.6,0,0,0,795.09,276.54Z" transform="translate(-284.41 -251.02)"/></svg>