<svg id="Layer_1" data-name="Layer 1" xmlns="http://www.w3.org/2000/svg" viewBox="0 0 526.08 299.29"><defs><style>.cls-1{fill:#ed5b35;}.cls-2,.cls-4,.cls-5{fill:none;stroke:#203232;stroke-miterlimit:10;}.cls-2{stroke-width:2.05px;}.cls-3{fill:#203232;}.cls-4{stroke-width:2px;}.cls-5{stroke-width:0.58px;}</style></defs><rect class="cls-1" x="61.63" y="217.14" width="36.5" height="34.39"/><rect class="cls-1" x="165.87" y="221.07" width="36.5" height="30.46"/><rect class="cls-1" x="269.08" y="156.22" width="36.5" height="95.31"/><rect class="cls-1" x="375.29" y="116.91" width="36.5" height="134.62"/><rect class="cls-1" x="478.6" y="47.15" width="36.5" height="204.38"/><line class="cls-2" x1="40.99" y1="251.53" x2="526.08" y2="251.53"/><path class="cls-3" d="M296.71,496.67a4.1,4.1,0,0,1,1.67.35,3.69,3.69,0,0,1,1.38,1.05,5.25,5.25,0,0,1,.94,1.81,8.65,8.65,0,0,1,.34,2.59,9,9,0,0,1-.34,2.66,5,5,0,0,1-.94,1.8,3.6,3.6,0,0,1-1.38,1,4.43,4.43,0,0,1-1.67.32A4.64,4.64,0,0,1,295,508a3.75,3.75,0,0,1-1.4-1,5.19,5.19,0,0,1-1-1.8,10.28,10.28,0,0,1,0-5.32,5.29,5.29,0,0,1,1-1.8,3.64,3.64,0,0,1,1.4-1A4.64,4.64,0,0,1,296.71,496.67Zm0,2.07a2,2,0,0,0-.83.19,1.78,1.78,0,0,0-.7.62,3.32,3.32,0,0,0-.47,1.15,7.42,7.42,0,0,0-.18,1.77,7.3,7.3,0,0,0,.18,1.77,3.32,3.32,0,0,0,.47,1.15,1.71,1.71,0,0,0,.7.62,1.84,1.84,0,0,0,.83.19,1.77,1.77,0,0,0,.8-.19,1.7,1.7,0,0,0,.67-.62,3.53,3.53,0,0,0,.47-1.15,7.91,7.91,0,0,0,.17-1.77,7.56,7.56,0,0,0-.17-1.7,3.79,3.79,0,0,0-.47-1.16,1.91,1.91,0,0,0-.67-.66A1.68,1.68,0,0,0,296.71,498.74Z" transform="translate(-283.04 -251.02)"/><path class="cls-3" d="M309.15,496.67a3.37,3.37,0,0,1,1.24.23,3.19,3.19,0,0,1,1,.64,3.09,3.09,0,0,1,.66,1,3,3,0,0,1,.23,1.21,3,3,0,0,1-.23,1.22,2.88,2.88,0,0,1-.66,1,3,3,0,0,1-1,.64,3.18,3.18,0,0,1-1.24.23,3.11,3.11,0,0,1-1.24-.23,3,3,0,0,1-1-.64,2.88,2.88,0,0,1-.66-1,3,3,0,0,1-.23-1.22,3,3,0,0,1,.23-1.21,3.09,3.09,0,0,1,.66-1,3.19,3.19,0,0,1,1-.64A3.3,3.3,0,0,1,309.15,496.67Zm0,1.67a1.37,1.37,0,0,0-.54.11,1.28,1.28,0,0,0-.43.28,1.33,1.33,0,0,0-.28.44,1.63,1.63,0,0,0-.1.55,1.69,1.69,0,0,0,.1.56,1.33,1.33,0,0,0,.28.44,1.3,1.3,0,0,0,.43.29,1.37,1.37,0,0,0,.54.1,1.4,1.4,0,0,0,.54-.1,1.3,1.3,0,0,0,.43-.29,1.33,1.33,0,0,0,.28-.44,1.69,1.69,0,0,0,.1-.56,1.63,1.63,0,0,0-.1-.55,1.33,1.33,0,0,0-.28-.44,1.28,1.28,0,0,0-.43-.28A1.41,1.41,0,0,0,309.15,498.34Zm1.48,9.73h-2.09l7.51-11.2h2.09Zm6.92-5.91a3.39,3.39,0,0,1,1.25.23,3.19,3.19,0,0,1,1,.64,3,3,0,0,1,.66,1,3.32,3.32,0,0,1,0,2.43,3,3,0,0,1-.66,1,3.19,3.19,0,0,1-1,.64,3.48,3.48,0,0,1-2.49,0,3.26,3.26,0,0,1-1-.64,3,3,0,0,1-.66-1,3,3,0,0,1-.24-1.21,3,3,0,0,1,.24-1.21,2.88,2.88,0,0,1,.66-1,3.08,3.08,0,0,1,1-.64A3.19,3.19,0,0,1,317.55,502.16Zm0,1.67a1.32,1.32,0,0,0-.53.11,1.28,1.28,0,0,0-.43.28,1.41,1.41,0,0,0-.38,1,1.42,1.42,0,0,0,.1.55,1.44,1.44,0,0,0,.28.44,1.3,1.3,0,0,0,.43.29,1.51,1.51,0,0,0,.53.1,1.63,1.63,0,0,0,.55-.1,1.42,1.42,0,0,0,.43-.29,1.44,1.44,0,0,0,.28-.44,1.59,1.59,0,0,0,0-1.11,1.44,1.44,0,0,0-.28-.44,1.39,1.39,0,0,0-.43-.28A1.42,1.42,0,0,0,317.55,503.83Z" transform="translate(-283.04 -251.02)"/><path class="cls-3" d="M300,449.75h-4.53l-.05,2.24h1.29a5.21,5.21,0,0,1,1.71.26,3.7,3.7,0,0,1,1.23.72,3,3,0,0,1,.73,1.07,3.41,3.41,0,0,1,.25,1.32,3.84,3.84,0,0,1-.32,1.6,3.52,3.52,0,0,1-.88,1.19,3.7,3.7,0,0,1-1.3.74,4.9,4.9,0,0,1-1.59.25,5.67,5.67,0,0,1-2.27-.44,4.86,4.86,0,0,1-1.7-1.23l1.22-1.51a3,3,0,0,0,.53.46,4,4,0,0,0,.67.38,4.83,4.83,0,0,0,.76.25,3.44,3.44,0,0,0,.77.09,2.31,2.31,0,0,0,.82-.13,1.53,1.53,0,0,0,.58-.35,1.46,1.46,0,0,0,.35-.51,1.68,1.68,0,0,0,.12-.63,1.73,1.73,0,0,0-.11-.6,1.29,1.29,0,0,0-.37-.51,2,2,0,0,0-.71-.34,3.78,3.78,0,0,0-1.09-.13H293.4l.12-6.2H300Z" transform="translate(-283.04 -251.02)"/><path class="cls-3" d="M309.15,447.54a3.37,3.37,0,0,1,1.24.23,3.19,3.19,0,0,1,1,.64,3.09,3.09,0,0,1,.66,1,3,3,0,0,1,.23,1.21,3,3,0,0,1-.23,1.22,2.88,2.88,0,0,1-.66,1,3,3,0,0,1-1,.64,3.18,3.18,0,0,1-1.24.23,3.11,3.11,0,0,1-1.24-.23,3,3,0,0,1-1-.64,2.88,2.88,0,0,1-.66-1,3,3,0,0,1-.23-1.22,3,3,0,0,1,.23-1.21,3.09,3.09,0,0,1,.66-1,3.19,3.19,0,0,1,1-.64A3.3,3.3,0,0,1,309.15,447.54Zm0,1.67a1.37,1.37,0,0,0-.54.11,1.28,1.28,0,0,0-.43.28,1.33,1.33,0,0,0-.28.44,1.63,1.63,0,0,0-.1.55,1.69,1.69,0,0,0,.1.56,1.33,1.33,0,0,0,.28.44,1.3,1.3,0,0,0,.43.29,1.37,1.37,0,0,0,.54.1,1.4,1.4,0,0,0,.54-.1,1.3,1.3,0,0,0,.43-.29,1.33,1.33,0,0,0,.28-.44,1.69,1.69,0,0,0,.1-.56,1.63,1.63,0,0,0-.1-.55,1.33,1.33,0,0,0-.28-.44,1.28,1.28,0,0,0-.43-.28A1.41,1.41,0,0,0,309.15,449.21Zm1.48,9.73h-2.09l7.51-11.2h2.09Zm6.92-5.91a3.39,3.39,0,0,1,1.25.23,3.19,3.19,0,0,1,1,.64,3,3,0,0,1,.66,1,3.32,3.32,0,0,1,0,2.43,3,3,0,0,1-.66,1,3.19,3.19,0,0,1-1,.64,3.48,3.48,0,0,1-2.49,0,3.26,3.26,0,0,1-1-.64,3,3,0,0,1-.66-1,3.05,3.05,0,0,1-.24-1.22,3,3,0,0,1,.24-1.2,2.88,2.88,0,0,1,.66-1,3.08,3.08,0,0,1,1-.64A3.19,3.19,0,0,1,317.55,453Zm0,1.67a1.51,1.51,0,0,0-.53.1,1.48,1.48,0,0,0-.43.29,1.44,1.44,0,0,0-.28.44,1.42,1.42,0,0,0-.1.55,1.41,1.41,0,0,0,.38,1,1.3,1.3,0,0,0,.43.29,1.51,1.51,0,0,0,.53.1,1.63,1.63,0,0,0,.55-.1,1.42,1.42,0,0,0,.43-.29,1.44,1.44,0,0,0,.28-.44,1.59,1.59,0,0,0,0-1.11,1.44,1.44,0,0,0-.28-.44,1.31,1.31,0,0,0-1-.39Z" transform="translate(-283.04 -251.02)"/><path class="cls-3" d="M286.51,407.76v-6.42l-2.79,1v-2.15l4.94-1.75v9.33h2.53v2.05h-7.34v-2.05Z" transform="translate(-283.04 -251.02)"/><path class="cls-3" d="M296.71,398.41a4.26,4.26,0,0,1,1.67.34,3.71,3.71,0,0,1,1.38,1.06,5.25,5.25,0,0,1,.94,1.81,8.65,8.65,0,0,1,.34,2.59,9,9,0,0,1-.34,2.66,5.11,5.11,0,0,1-.94,1.8,3.6,3.6,0,0,1-1.38,1,4.43,4.43,0,0,1-1.67.32,4.64,4.64,0,0,1-1.71-.32,3.75,3.75,0,0,1-1.4-1,5.29,5.29,0,0,1-1-1.8,10.28,10.28,0,0,1,0-5.32,5.29,5.29,0,0,1,1-1.8,3.54,3.54,0,0,1,1.4-1A4.64,4.64,0,0,1,296.71,398.41Zm0,2.07a1.84,1.84,0,0,0-.83.19,1.78,1.78,0,0,0-.7.62,3.32,3.32,0,0,0-.47,1.15,8.79,8.79,0,0,0,0,3.54,3.32,3.32,0,0,0,.47,1.15,1.78,1.78,0,0,0,.7.62,1.84,1.84,0,0,0,.83.19,1.71,1.71,0,0,0,1.47-.81,3.53,3.53,0,0,0,.47-1.15,8,8,0,0,0,.17-1.77,7.56,7.56,0,0,0-.17-1.7,3.79,3.79,0,0,0-.47-1.16,1.91,1.91,0,0,0-.67-.66A1.68,1.68,0,0,0,296.71,400.48Z" transform="translate(-283.04 -251.02)"/><path class="cls-3" d="M309.15,398.41a3.37,3.37,0,0,1,1.24.23,3.19,3.19,0,0,1,1,.64,3,3,0,0,1,.89,2.18,3,3,0,0,1-.23,1.22,2.88,2.88,0,0,1-.66,1,3,3,0,0,1-1,.64,3.18,3.18,0,0,1-1.24.23,3.15,3.15,0,0,1-1.24-.23,3,3,0,0,1-1-.64,2.88,2.88,0,0,1-.66-1,3,3,0,0,1-.23-1.22,3,3,0,0,1,.89-2.18,3.19,3.19,0,0,1,1-.64A3.34,3.34,0,0,1,309.15,398.41Zm0,1.67a1.37,1.37,0,0,0-.54.11,1.39,1.39,0,0,0-.43.28,1.33,1.33,0,0,0-.28.44,1.63,1.63,0,0,0-.1.55,1.69,1.69,0,0,0,.1.56,1.33,1.33,0,0,0,.28.44,1.42,1.42,0,0,0,.43.29,1.51,1.51,0,0,0,1.08,0,1.3,1.3,0,0,0,.43-.29,1.33,1.33,0,0,0,.28-.44,1.47,1.47,0,0,0,.1-.56,1.42,1.42,0,0,0-.1-.55,1.33,1.33,0,0,0-.28-.44,1.28,1.28,0,0,0-.43-.28A1.37,1.37,0,0,0,309.15,400.08Zm1.48,9.73h-2.09l7.51-11.2h2.09Zm6.92-5.91a3.39,3.39,0,0,1,1.25.23,3.19,3.19,0,0,1,1,.64,3,3,0,0,1,.66,1,3.32,3.32,0,0,1,0,2.43,3,3,0,0,1-.66,1,3.19,3.19,0,0,1-1,.64,3.48,3.48,0,0,1-2.49,0,3.26,3.26,0,0,1-1-.64,3,3,0,0,1-.66-1,3.05,3.05,0,0,1-.24-1.22,3,3,0,0,1,.24-1.2,2.88,2.88,0,0,1,.66-1,3.29,3.29,0,0,1,1-.65A3.37,3.37,0,0,1,317.55,403.9Zm0,1.67a1.51,1.51,0,0,0-.53.1,1.3,1.3,0,0,0-.43.29,1.33,1.33,0,0,0-.28.44,1.42,1.42,0,0,0-.1.55,1.41,1.41,0,0,0,.38,1,1.15,1.15,0,0,0,.43.28,1.32,1.32,0,0,0,.53.11,1.42,1.42,0,0,0,.55-.11,1.23,1.23,0,0,0,.43-.28,1.44,1.44,0,0,0,.28-.44,1.59,1.59,0,0,0,0-1.11,1.33,1.33,0,0,0-.28-.44,1.42,1.42,0,0,0-.43-.29A1.63,1.63,0,0,0,317.55,405.57Z" transform="translate(-283.04 -251.02)"/><path class="cls-3" d="M286.51,358.63v-6.42l-2.79,1v-2.15l4.94-1.75v9.33h2.53v2.05h-7.34v-2.05Z" transform="translate(-283.04 -251.02)"/><path class="cls-3" d="M300,351.49h-4.53l-.05,2.24h1.29a5.21,5.21,0,0,1,1.71.26,3.7,3.7,0,0,1,1.23.72,3,3,0,0,1,.73,1.07,3.41,3.41,0,0,1,.25,1.32,3.87,3.87,0,0,1-.32,1.6,3.52,3.52,0,0,1-.88,1.19,3.87,3.87,0,0,1-1.3.74,4.9,4.9,0,0,1-1.59.25,5.67,5.67,0,0,1-2.27-.44,4.86,4.86,0,0,1-1.7-1.23l1.22-1.51a3,3,0,0,0,.53.46,4,4,0,0,0,1.43.63,3.44,3.44,0,0,0,.77.09,2.31,2.31,0,0,0,.82-.13,1.53,1.53,0,0,0,.58-.35,1.41,1.41,0,0,0,.35-.52,1.59,1.59,0,0,0,.12-.62,1.73,1.73,0,0,0-.11-.6,1.22,1.22,0,0,0-.37-.51,2,2,0,0,0-.71-.34,3.78,3.78,0,0,0-1.09-.13H293.4l.12-6.2H300Z" transform="translate(-283.04 -251.02)"/><path class="cls-3" d="M309.15,349.28a3.37,3.37,0,0,1,1.24.23,3.19,3.19,0,0,1,1,.64,2.88,2.88,0,0,1,.66,1,3,3,0,0,1,.23,1.21,3,3,0,0,1-.23,1.22,3,3,0,0,1-.66,1,3.19,3.19,0,0,1-1,.64,3.37,3.37,0,0,1-1.24.23,3.34,3.34,0,0,1-1.24-.23,3.19,3.19,0,0,1-1-.64,3,3,0,0,1-.66-1,3,3,0,0,1-.23-1.22,3,3,0,0,1,.23-1.21,2.88,2.88,0,0,1,.66-1,3.19,3.19,0,0,1,1-.64A3.34,3.34,0,0,1,309.15,349.28Zm0,1.67a1.37,1.37,0,0,0-.54.11,1.22,1.22,0,0,0-.71.72,1.63,1.63,0,0,0-.1.55,1.69,1.69,0,0,0,.1.56,1.44,1.44,0,0,0,.28.44,1.42,1.42,0,0,0,.43.29,1.51,1.51,0,0,0,1.08,0,1.3,1.3,0,0,0,.43-.29,1.44,1.44,0,0,0,.28-.44,1.47,1.47,0,0,0,.1-.56,1.42,1.42,0,0,0-.1-.55,1.23,1.23,0,0,0-.28-.44,1.15,1.15,0,0,0-.43-.28A1.37,1.37,0,0,0,309.15,351Zm1.48,9.73h-2.09l7.51-11.2h2.09Zm6.92-5.91a3.2,3.2,0,0,1,1.25.23,3,3,0,0,1,1,.64,2.88,2.88,0,0,1,.66,1,3.32,3.32,0,0,1,0,2.43,3,3,0,0,1-.66,1,3.19,3.19,0,0,1-1,.64,3.48,3.48,0,0,1-2.49,0,3.26,3.26,0,0,1-1-.64,3,3,0,0,1-.66-1,3.05,3.05,0,0,1-.24-1.22,3,3,0,0,1,.24-1.2,2.88,2.88,0,0,1,.66-1,3.29,3.29,0,0,1,1-.65A3.37,3.37,0,0,1,317.55,354.77Zm0,1.67a1.32,1.32,0,0,0-.53.1,1.3,1.3,0,0,0-.43.29,1.33,1.33,0,0,0-.28.44,1.42,1.42,0,0,0-.1.55,1.41,1.41,0,0,0,.38,1,1.28,1.28,0,0,0,.43.28,1.32,1.32,0,0,0,.53.11,1.42,1.42,0,0,0,.55-.11,1.39,1.39,0,0,0,.43-.28,1.44,1.44,0,0,0,.28-.44,1.59,1.59,0,0,0,0-1.11,1.33,1.33,0,0,0-.28-.44,1.31,1.31,0,0,0-1-.39Z" transform="translate(-283.04 -251.02)"/><path class="cls-3" d="M283,302.08a7.3,7.3,0,0,1,.56-.64,4.28,4.28,0,0,1,.8-.63,4.71,4.71,0,0,1,2.47-.66,4.63,4.63,0,0,1,1.58.26,3.47,3.47,0,0,1,1.2.74,3.1,3.1,0,0,1,.75,1.15,3.83,3.83,0,0,1,.27,1.46,3.28,3.28,0,0,1-.13,1,3.44,3.44,0,0,1-.34.84,4.59,4.59,0,0,1-.51.76c-.2.24-.41.48-.64.72l-2.39,2.48h4.28v2h-7.4v-1.69l4-4.06a3.46,3.46,0,0,0,.68-.92,2.14,2.14,0,0,0,.24-1,1.67,1.67,0,0,0-.13-.67,1.55,1.55,0,0,0-.34-.53,1.66,1.66,0,0,0-.54-.34,1.78,1.78,0,0,0-.7-.13,2.74,2.74,0,0,0-.73.1,2.88,2.88,0,0,0-.59.27,3.14,3.14,0,0,0-.51.39c-.15.15-.3.31-.44.47Z" transform="translate(-283.04 -251.02)"/><path class="cls-3" d="M296.71,300.15a4.09,4.09,0,0,1,1.67.34,3.61,3.61,0,0,1,1.38,1.06,5.16,5.16,0,0,1,.94,1.81A8.65,8.65,0,0,1,301,306a9,9,0,0,1-.34,2.66,5,5,0,0,1-.94,1.79,3.41,3.41,0,0,1-1.38,1,4.25,4.25,0,0,1-1.67.33,4.45,4.45,0,0,1-1.71-.33,3.54,3.54,0,0,1-1.4-1,5.14,5.14,0,0,1-1-1.79,10.28,10.28,0,0,1,0-5.32,5.29,5.29,0,0,1,1-1.8,3.54,3.54,0,0,1,1.4-1A4.45,4.45,0,0,1,296.71,300.15Zm0,2.07a1.84,1.84,0,0,0-.83.19,1.71,1.71,0,0,0-.7.62,3.32,3.32,0,0,0-.47,1.15,7.3,7.3,0,0,0-.18,1.77,7.42,7.42,0,0,0,.18,1.77,3.32,3.32,0,0,0,.47,1.15,1.78,1.78,0,0,0,.7.62,2,2,0,0,0,.83.19,1.91,1.91,0,0,0,.8-.19,1.78,1.78,0,0,0,.67-.62,3.53,3.53,0,0,0,.47-1.15,8,8,0,0,0,.17-1.77,7.56,7.56,0,0,0-.17-1.7,3.79,3.79,0,0,0-.47-1.16,1.91,1.91,0,0,0-.67-.66A1.68,1.68,0,0,0,296.71,302.22Z" transform="translate(-283.04 -251.02)"/><path class="cls-3" d="M309.15,300.15a3.37,3.37,0,0,1,1.24.23,3.19,3.19,0,0,1,1,.64,2.94,2.94,0,0,1,.66,1,3.35,3.35,0,0,1,0,2.44,3,3,0,0,1-.66,1,3.19,3.19,0,0,1-1,.64,3.37,3.37,0,0,1-1.24.23,3.34,3.34,0,0,1-1.24-.23,3.19,3.19,0,0,1-1-.64,3,3,0,0,1-.66-1,3.35,3.35,0,0,1,0-2.44,2.94,2.94,0,0,1,.66-1,3.19,3.19,0,0,1,1-.64A3.34,3.34,0,0,1,309.15,300.15Zm0,1.67a1.37,1.37,0,0,0-.54.1,1.42,1.42,0,0,0-.43.29,1.28,1.28,0,0,0-.28.43,1.62,1.62,0,0,0,0,1.12,1.44,1.44,0,0,0,.28.44,1.23,1.23,0,0,0,.43.28,1.38,1.38,0,0,0,1.08,0,1.15,1.15,0,0,0,.43-.28,1.44,1.44,0,0,0,.28-.44,1.62,1.62,0,0,0,0-1.12,1.28,1.28,0,0,0-.28-.43,1.3,1.3,0,0,0-.43-.29A1.37,1.37,0,0,0,309.15,301.82Zm1.48,9.73h-2.09l7.51-11.2h2.09Zm6.92-5.91a3.2,3.2,0,0,1,1.25.23,3,3,0,0,1,1,.64,2.88,2.88,0,0,1,.66,1,3.18,3.18,0,0,1,.23,1.21,3.23,3.23,0,0,1-.23,1.22,3.09,3.09,0,0,1-.66,1,3.19,3.19,0,0,1-1,.64,3.48,3.48,0,0,1-2.49,0,3.26,3.26,0,0,1-1-.64,3.09,3.09,0,0,1-.66-1,3.2,3.2,0,0,1,0-2.43,2.94,2.94,0,0,1,.66-1,3.11,3.11,0,0,1,1-.65A3.37,3.37,0,0,1,317.55,305.64Zm0,1.67a1.32,1.32,0,0,0-.53.1,1.3,1.3,0,0,0-.43.29,1.33,1.33,0,0,0-.28.44,1.38,1.38,0,0,0-.1.55,1.43,1.43,0,0,0,.1.56,1.28,1.28,0,0,0,.28.43,1.17,1.17,0,0,0,.43.29,1.32,1.32,0,0,0,.53.11,1.42,1.42,0,0,0,.55-.11,1.26,1.26,0,0,0,.43-.29,1.28,1.28,0,0,0,.28-.43,1.64,1.64,0,0,0,.1-.56,1.58,1.58,0,0,0-.1-.55,1.33,1.33,0,0,0-.28-.44,1.31,1.31,0,0,0-1-.39Z" transform="translate(-283.04 -251.02)"/><path class="cls-3" d="M283,253a7.3,7.3,0,0,1,.56-.64,4.28,4.28,0,0,1,.8-.63,4.71,4.71,0,0,1,2.47-.66,4.63,4.63,0,0,1,1.58.26,3.47,3.47,0,0,1,1.2.74,3.1,3.1,0,0,1,.75,1.15,3.83,3.83,0,0,1,.27,1.46,3.28,3.28,0,0,1-.13,1,3.44,3.44,0,0,1-.34.84,4.59,4.59,0,0,1-.51.76c-.2.24-.41.48-.64.72l-2.39,2.48h4.28v2h-7.4v-1.69l4-4.06a3.46,3.46,0,0,0,.68-.92,2.14,2.14,0,0,0,.24-1,1.63,1.63,0,0,0-.13-.67,1.55,1.55,0,0,0-.34-.53,1.5,1.5,0,0,0-.54-.34,1.78,1.78,0,0,0-.7-.13,2.39,2.39,0,0,0-.73.1,2.88,2.88,0,0,0-.59.27,3.14,3.14,0,0,0-.51.39c-.15.15-.3.31-.44.47Z" transform="translate(-283.04 -251.02)"/><path class="cls-3" d="M300,253.23h-4.53l-.05,2.24h1.29a5,5,0,0,1,1.71.26,3.7,3.7,0,0,1,1.23.72,2.92,2.92,0,0,1,.73,1.07,3.36,3.36,0,0,1,.25,1.31,3.89,3.89,0,0,1-.32,1.61,3.52,3.52,0,0,1-.88,1.19,3.87,3.87,0,0,1-1.3.74,5.19,5.19,0,0,1-1.59.25,5.67,5.67,0,0,1-2.27-.44,5.12,5.12,0,0,1-1.7-1.23l1.22-1.52a3.06,3.06,0,0,0,.53.47,4,4,0,0,0,.67.37,4.86,4.86,0,0,0,.76.26,3.44,3.44,0,0,0,.77.09,2.56,2.56,0,0,0,.82-.13,1.66,1.66,0,0,0,.58-.35,1.41,1.41,0,0,0,.35-.52,1.61,1.61,0,0,0,.12-.63,1.81,1.81,0,0,0-.11-.6,1.19,1.19,0,0,0-.37-.5,2,2,0,0,0-.71-.34,3.78,3.78,0,0,0-1.09-.13H293.4l.12-6.2H300Z" transform="translate(-283.04 -251.02)"/><path class="cls-3" d="M309.15,251a3.18,3.18,0,0,1,1.24.23,3,3,0,0,1,1,.64,2.94,2.94,0,0,1,.66,1,3.35,3.35,0,0,1,0,2.44,3,3,0,0,1-.66,1,3.19,3.19,0,0,1-1,.64,3.37,3.37,0,0,1-1.24.23,3.34,3.34,0,0,1-1.24-.23,3.19,3.19,0,0,1-1-.64,3,3,0,0,1-.66-1,3.35,3.35,0,0,1,0-2.44,2.94,2.94,0,0,1,.66-1,3,3,0,0,1,1-.64A3.15,3.15,0,0,1,309.15,251Zm0,1.67a1.37,1.37,0,0,0-.54.1,1.42,1.42,0,0,0-.43.29,1.28,1.28,0,0,0-.28.43,1.62,1.62,0,0,0,0,1.12,1.44,1.44,0,0,0,.28.44,1.39,1.39,0,0,0,.43.28,1.38,1.38,0,0,0,1.08,0,1.28,1.28,0,0,0,.43-.28,1.44,1.44,0,0,0,.28-.44,1.62,1.62,0,0,0,0-1.12,1.28,1.28,0,0,0-.28-.43,1.3,1.3,0,0,0-.43-.29A1.37,1.37,0,0,0,309.15,252.69Zm1.48,9.73h-2.09l7.51-11.2h2.09Zm6.92-5.91a3.2,3.2,0,0,1,1.25.23,3,3,0,0,1,1,.64,2.88,2.88,0,0,1,.66,1,3.18,3.18,0,0,1,.23,1.21,3.27,3.27,0,0,1-.23,1.22,3.09,3.09,0,0,1-.66,1,3.19,3.19,0,0,1-1,.64,3.48,3.48,0,0,1-2.49,0,3.26,3.26,0,0,1-1-.64,3.13,3.13,0,0,1-.66-3.4,2.94,2.94,0,0,1,.66-1,3.11,3.11,0,0,1,1-.65A3.18,3.18,0,0,1,317.55,256.51Zm0,1.67a1.32,1.32,0,0,0-.53.1,1.3,1.3,0,0,0-.43.29,1.33,1.33,0,0,0-.28.44,1.38,1.38,0,0,0-.1.55,1.47,1.47,0,0,0,.1.56,1.28,1.28,0,0,0,.28.43,1.17,1.17,0,0,0,.43.29,1.32,1.32,0,0,0,.53.11,1.42,1.42,0,0,0,.55-.11,1.26,1.26,0,0,0,.43-.29,1.28,1.28,0,0,0,.28-.43,1.69,1.69,0,0,0,.1-.56,1.58,1.58,0,0,0-.1-.55,1.33,1.33,0,0,0-.28-.44,1.31,1.31,0,0,0-1-.39Z" transform="translate(-283.04 -251.02)"/><line class="cls-4" x1="41.96" y1="251.98" x2="41.96" y2="5.88"/><line class="cls-5" x1="40.97" y1="251.53" x2="50.97" y2="251.53"/><line class="cls-5" x1="40.97" y1="202.4" x2="50.97" y2="202.4"/><line class="cls-5" x1="40.97" y1="153.27" x2="50.97" y2="153.27"/><line class="cls-5" x1="40.97" y1="104.14" x2="50.97" y2="104.14"/><line class="cls-5" x1="40.97" y1="55.01" x2="50.97" y2="55.01"/><line class="cls-5" x1="40.97" y1="5.88" x2="50.97" y2="5.88"/><path class="cls-3" d="M343.12,530.91h-2.38l-1-2.61H335l-1,2.61h-2.33l4.36-11.2h2.72Zm-7.37-4.67H339l-1.61-4.32Z" transform="translate(-283.04 -251.02)"/><path class="cls-3" d="M347.85,523a4.1,4.1,0,0,1,1.77.38,3.57,3.57,0,0,1,1.33,1.08l-1.5,1.26a2.62,2.62,0,0,0-.75-.58,2.06,2.06,0,0,0-.91-.2,1.94,1.94,0,0,0-.76.15,2,2,0,0,0-1,1.11,2.5,2.5,0,0,0-.15.88,2.46,2.46,0,0,0,.15.88,2.15,2.15,0,0,0,.41.67,1.74,1.74,0,0,0,.61.43,1.94,1.94,0,0,0,.76.15,2.05,2.05,0,0,0,.93-.21,2.61,2.61,0,0,0,.76-.57l1.49,1.27a3.77,3.77,0,0,1-1.34,1.08,4.1,4.1,0,0,1-1.77.38,4.39,4.39,0,0,1-1.69-.31,3.91,3.91,0,0,1-1.3-.85,3.52,3.52,0,0,1-.84-1.29,4.58,4.58,0,0,1,0-3.26,3.52,3.52,0,0,1,.84-1.29,3.76,3.76,0,0,1,1.3-.85A4.39,4.39,0,0,1,347.85,523Z" transform="translate(-283.04 -251.02)"/><path class="cls-3" d="M358.17,525h-2.81v2.83a1.89,1.89,0,0,0,.09.62,1.14,1.14,0,0,0,.25.4.89.89,0,0,0,.37.23,1.33,1.33,0,0,0,.45.07,2.1,2.1,0,0,0,.76-.15,6.53,6.53,0,0,0,.7-.35l.76,1.63a5.18,5.18,0,0,1-1.12.59,4.26,4.26,0,0,1-1.44.23,2.83,2.83,0,0,1-2.18-.79,3.28,3.28,0,0,1-.73-2.31v-3h-1.49v-1.85h1.49v-2.31h2.09v2.31h2.81Z" transform="translate(-283.04 -251.02)"/><path class="cls-3" d="M361,519.28a1.35,1.35,0,0,1,.95.38,1.39,1.39,0,0,1,.28.43,1.36,1.36,0,0,1,.11.53,1.34,1.34,0,1,1-2.67,0,1.35,1.35,0,0,1,.1-.53,1.39,1.39,0,0,1,.28-.43,1.35,1.35,0,0,1,1-.38Zm1.06,11.63H360v-7.75h2.09Z" transform="translate(-283.04 -251.02)"/><path class="cls-3" d="M368,523a4.44,4.44,0,0,1,1.68.31,4,4,0,0,1,1.33.85,4.2,4.2,0,0,1,.88,1.3,4.14,4.14,0,0,1,.31,1.62,3.95,3.95,0,0,1-1.19,2.91,4,4,0,0,1-1.33.86,4.44,4.44,0,0,1-1.68.31,4.35,4.35,0,0,1-1.67-.31,4,4,0,0,1-1.32-.86,3.75,3.75,0,0,1-.88-1.29,4.07,4.07,0,0,1-.31-1.62,4.14,4.14,0,0,1,.31-1.62,3.88,3.88,0,0,1,.88-1.3,4,4,0,0,1,1.32-.85A4.35,4.35,0,0,1,368,523Zm0,1.94a2,2,0,0,0-.81.16,1.87,1.87,0,0,0-.66.44,2.2,2.2,0,0,0-.43.67,2.45,2.45,0,0,0-.15.87,2.39,2.39,0,0,0,.15.86,2.25,2.25,0,0,0,.43.68,2,2,0,0,0,.66.44,2.16,2.16,0,0,0,.81.15,2.21,2.21,0,0,0,.82-.15,2.12,2.12,0,0,0,.66-.44,2.07,2.07,0,0,0,.43-.68,2.39,2.39,0,0,0,.16-.86,2.45,2.45,0,0,0-.16-.87,2,2,0,0,0-.43-.67,2,2,0,0,0-.66-.44A2,2,0,0,0,368,524.89Z" transform="translate(-283.04 -251.02)"/><path class="cls-3" d="M378.21,523a3.21,3.21,0,0,1,1.21.22,2.66,2.66,0,0,1,1.58,1.57,3.24,3.24,0,0,1,.22,1.23v4.94h-2.09v-4.27a1.91,1.91,0,0,0-.39-1.29,1.45,1.45,0,0,0-1.12-.44,1.67,1.67,0,0,0-.63.11,1.38,1.38,0,0,0-.52.32,1.64,1.64,0,0,0-.36.55,2.26,2.26,0,0,0-.13.77v4.25H373.9v-7.75h2v.91a2.27,2.27,0,0,1,1-.87A3.2,3.2,0,0,1,378.21,523Z" transform="translate(-283.04 -251.02)"/><path class="cls-3" d="M388.91,525.32c-.15-.08-.33-.15-.52-.23s-.4-.14-.62-.2l-.66-.15a3.88,3.88,0,0,0-.67-.06,1.67,1.67,0,0,0-.9.2.57.57,0,0,0-.29.51.4.4,0,0,0,.1.28.75.75,0,0,0,.26.18,2.09,2.09,0,0,0,.4.12l.5.08.69.11a3.8,3.8,0,0,1,1.94.76,1.92,1.92,0,0,1,.67,1.56,2.38,2.38,0,0,1-.24,1.08,2.13,2.13,0,0,1-.69.83,3.53,3.53,0,0,1-1.12.53,5.38,5.38,0,0,1-1.51.19c-.26,0-.54,0-.84-.05a5.78,5.78,0,0,1-.9-.14,7.61,7.61,0,0,1-.89-.28,4.51,4.51,0,0,1-.81-.44l.82-1.59a4.6,4.6,0,0,0,.53.31,5.36,5.36,0,0,0,.6.24,4.79,4.79,0,0,0,.7.16,6.77,6.77,0,0,0,.81,0,2.29,2.29,0,0,0,1.08-.19.59.59,0,0,0,.35-.54.5.5,0,0,0-.3-.44,2.94,2.94,0,0,0-1-.27l-.64-.09c-1.78-.24-2.68-1-2.68-2.35a2.47,2.47,0,0,1,.23-1.07,2.14,2.14,0,0,1,.65-.79,2.86,2.86,0,0,1,1-.5,4.87,4.87,0,0,1,1.38-.17,8.38,8.38,0,0,1,.88,0,6.84,6.84,0,0,1,.81.14,6.39,6.39,0,0,1,.78.22c.25.1.51.2.76.33Z" transform="translate(-283.04 -251.02)"/><path class="cls-3" d="M350,550.11h-2v-.86a3.1,3.1,0,0,1-.95.77,3,3,0,0,1-1.37.29,3.52,3.52,0,0,1-1.49-.31,3.67,3.67,0,0,1-1.19-.86,3.83,3.83,0,0,1-.79-1.29,4.83,4.83,0,0,1,0-3.24,3.83,3.83,0,0,1,.79-1.29,3.58,3.58,0,0,1,2.68-1.17,3,3,0,0,1,1.37.29,3.1,3.1,0,0,1,.95.77v-.85h2Zm-4-6a2.05,2.05,0,0,0-.83.17,1.9,1.9,0,0,0-.63.46,2.18,2.18,0,0,0-.4.68,2.54,2.54,0,0,0-.14.83,2.45,2.45,0,0,0,.14.83,2.18,2.18,0,0,0,.4.68,2.22,2.22,0,0,0,.63.46,2,2,0,0,0,.83.16,2.18,2.18,0,0,0,.82-.15,2,2,0,0,0,.63-.45,2.13,2.13,0,0,0,.41-.68,2.61,2.61,0,0,0,.14-.85,2.57,2.57,0,0,0-.14-.85,1.94,1.94,0,0,0-1-1.13A2.18,2.18,0,0,0,346.05,544.09Z" transform="translate(-283.04 -251.02)"/><path class="cls-3" d="M361.72,542.15a3.35,3.35,0,0,1,1.25.22,3,3,0,0,1,1,.61,2.84,2.84,0,0,1,.62,1,3.24,3.24,0,0,1,.22,1.23v4.94H362.7v-4.27a1.86,1.86,0,0,0-.4-1.29,1.45,1.45,0,0,0-1.11-.44,1.69,1.69,0,0,0-.64.11,1.46,1.46,0,0,0-.52.32,1.79,1.79,0,0,0-.35.55,2,2,0,0,0-.13.77v4.25h-2.09v-4.27a1.86,1.86,0,0,0-.4-1.29,1.42,1.42,0,0,0-1.11-.44,1.69,1.69,0,0,0-.64.11,1.46,1.46,0,0,0-.52.32,1.79,1.79,0,0,0-.35.55,2,2,0,0,0-.13.77v4.25h-2.09v-7.75h2v.91a2.35,2.35,0,0,1,1-.87,3.37,3.37,0,0,1,2.77.1,2.75,2.75,0,0,1,1,1,2.5,2.5,0,0,1,.52-.63,2.58,2.58,0,0,1,.64-.41,3,3,0,0,1,.72-.22A3.81,3.81,0,0,1,361.72,542.15Z" transform="translate(-283.04 -251.02)"/><path class="cls-3" d="M370.35,542.15a4,4,0,0,1,1.53.29,3.48,3.48,0,0,1,1.19.84,3.65,3.65,0,0,1,.77,1.28,4.94,4.94,0,0,1,.28,1.66c0,.12,0,.25,0,.38a2.88,2.88,0,0,1,0,.32h-5.5a2.09,2.09,0,0,0,.26.73,1.81,1.81,0,0,0,.45.5,1.71,1.71,0,0,0,.59.29,2.56,2.56,0,0,0,.69.09,2.83,2.83,0,0,0,1-.19,3.06,3.06,0,0,0,.94-.55l1.23,1.34a4.18,4.18,0,0,1-1.5.89,5.5,5.5,0,0,1-1.81.29,4.54,4.54,0,0,1-1.63-.29,3.68,3.68,0,0,1-2.1-2.11,4.63,4.63,0,0,1-.29-1.66,4.51,4.51,0,0,1,.29-1.67,3.85,3.85,0,0,1,.8-1.29,3.58,3.58,0,0,1,1.24-.84A4.09,4.09,0,0,1,370.35,542.15Zm0,1.8a1.63,1.63,0,0,0-1.17.41,2.06,2.06,0,0,0-.57,1.14H372a2.07,2.07,0,0,0-.58-1.15A1.54,1.54,0,0,0,370.33,544Zm-1.4-2.7,1.61-2.53H373l-2.12,2.53Z" transform="translate(-283.04 -251.02)"/><path class="cls-3" d="M380,542.15a3.7,3.7,0,0,1,.6,0,2.34,2.34,0,0,1,.49.13l-.32,2.07a2.36,2.36,0,0,0-.6-.18,3.09,3.09,0,0,0-.66-.07,2,2,0,0,0-.66.11,1.65,1.65,0,0,0-.52.33,1.54,1.54,0,0,0-.33.54,2.24,2.24,0,0,0-.12.76v4.23h-2.09v-7.75h2v.85a2.22,2.22,0,0,1,.92-.81A3,3,0,0,1,380,542.15Z" transform="translate(-283.04 -251.02)"/><path class="cls-3" d="M382.33,547.21a1.45,1.45,0,0,1,.59.12,1.53,1.53,0,0,1,.5.34,1.51,1.51,0,0,1,.33.49,1.4,1.4,0,0,1,0,1.18,1.56,1.56,0,0,1-.33.5,1.53,1.53,0,0,1-.5.34,1.4,1.4,0,0,1-1.18,0,1.43,1.43,0,0,1-.5-.34,1.58,1.58,0,0,1-.34-.5,1.4,1.4,0,0,1,0-1.18,1.54,1.54,0,0,1,.34-.49,1.53,1.53,0,0,1,1.09-.46Z" transform="translate(-283.04 -251.02)"/><path class="cls-3" d="M448.91,519.5a6.34,6.34,0,0,1,2.38.44,5.4,5.4,0,0,1,3.07,3,6.34,6.34,0,0,1,0,4.64,5.4,5.4,0,0,1-3.07,3,6.34,6.34,0,0,1-2.38.44,6.25,6.25,0,0,1-2.37-.44,5.44,5.44,0,0,1-1.87-1.21,5.51,5.51,0,0,1-1.21-1.84,6.47,6.47,0,0,1,0-4.64,5.51,5.51,0,0,1,1.21-1.84,5.44,5.44,0,0,1,1.87-1.21A6.25,6.25,0,0,1,448.91,519.5Zm0,2.14a3.7,3.7,0,0,0-1.42.27,3.49,3.49,0,0,0-1.13.75,3.55,3.55,0,0,0-.74,1.16,4.4,4.4,0,0,0,0,3,3.55,3.55,0,0,0,.74,1.16,3.31,3.31,0,0,0,1.13.74,3.9,3.9,0,0,0,2.85,0,3.18,3.18,0,0,0,1.12-.74,3.39,3.39,0,0,0,.74-1.16,4.4,4.4,0,0,0,0-3,3.39,3.39,0,0,0-.74-1.16,3.34,3.34,0,0,0-1.12-.75A3.72,3.72,0,0,0,448.91,521.64Z" transform="translate(-283.04 -251.02)"/><path class="cls-3" d="M461,523a3.58,3.58,0,0,1,2.68,1.17,4,4,0,0,1,.8,1.29,4.83,4.83,0,0,1,0,3.24,3.83,3.83,0,0,1-.79,1.29,3.78,3.78,0,0,1-1.19.86,3.71,3.71,0,0,1-1.49.31,2.8,2.8,0,0,1-2.32-1.06v.86h-2V519.39h2.08V524a3.09,3.09,0,0,1,.94-.73A2.87,2.87,0,0,1,461,523Zm-.38,1.94a2.09,2.09,0,0,0-.81.16,1.81,1.81,0,0,0-.63.45,2,2,0,0,0-.41.68,2.57,2.57,0,0,0-.14.85,2.61,2.61,0,0,0,.14.85,2.13,2.13,0,0,0,.41.68,1.67,1.67,0,0,0,.63.44,1.92,1.92,0,0,0,.81.16,1.86,1.86,0,0,0,1.46-.62,2,2,0,0,0,.4-.68,2.45,2.45,0,0,0,.14-.83,2.54,2.54,0,0,0-.14-.83,2,2,0,0,0-.4-.68,1.71,1.71,0,0,0-.63-.46A2,2,0,0,0,460.6,524.89Z" transform="translate(-283.04 -251.02)"/><path class="cls-3" d="M468.53,530.91h-2.08V519.39h2.08Z" transform="translate(-283.04 -251.02)"/><path class="cls-3" d="M471.76,519.28a1.35,1.35,0,0,1,.95.38,1.39,1.39,0,0,1,.28.43,1.35,1.35,0,0,1,.1.53,1.31,1.31,0,0,1-1.33,1.33,1.31,1.31,0,0,1-.95-.38,1.35,1.35,0,0,1-.38-1,1.35,1.35,0,0,1,.1-.53,1.39,1.39,0,0,1,.28-.43,1.31,1.31,0,0,1,.95-.38Zm1.05,11.63h-2.08v-7.75h2.08Z" transform="translate(-283.04 -251.02)"/><path class="cls-3" d="M478.09,523a3.06,3.06,0,0,1,1.41.29,2.73,2.73,0,0,1,1,.78v-.86h2.05v7.11a4.6,4.6,0,0,1-.29,1.67,3.25,3.25,0,0,1-.84,1.26,3.81,3.81,0,0,1-1.32.79,5.19,5.19,0,0,1-1.73.27,7.38,7.38,0,0,1-.93-.06,6.52,6.52,0,0,1-.9-.18,4.9,4.9,0,0,1-.84-.29,3.37,3.37,0,0,1-.72-.41l.74-1.7a5.08,5.08,0,0,0,1.22.59,4.52,4.52,0,0,0,1.34.2,2.77,2.77,0,0,0,.89-.13,2.08,2.08,0,0,0,.7-.39,1.89,1.89,0,0,0,.45-.65,2.19,2.19,0,0,0,.17-.88v-.55a2.88,2.88,0,0,1-1,.77,3.18,3.18,0,0,1-1.4.28,3.3,3.3,0,0,1-1.35-.28,3.62,3.62,0,0,1-1.14-.8,3.79,3.79,0,0,1-.78-1.25,4.7,4.7,0,0,1,0-3.25,3.74,3.74,0,0,1,.78-1.24,3.5,3.5,0,0,1,1.14-.81A3.3,3.3,0,0,1,478.09,523Zm.53,1.92a1.92,1.92,0,0,0-.81.16,1.78,1.78,0,0,0-.61.43,1.94,1.94,0,0,0-.39.65,2.36,2.36,0,0,0-.14.8,2.26,2.26,0,0,0,.14.79,1.9,1.9,0,0,0,1,1.08,1.92,1.92,0,0,0,.81.16,1.86,1.86,0,0,0,.79-.16,1.79,1.79,0,0,0,.62-.42,2.15,2.15,0,0,0,.4-.65,2.32,2.32,0,0,0,.14-.8,2.38,2.38,0,0,0-.14-.81,2,2,0,0,0-.4-.65,2,2,0,0,0-.62-.43A2,2,0,0,0,478.62,524.87Z" transform="translate(-283.04 -251.02)"/><path class="cls-3" d="M485.86,528a1.45,1.45,0,0,1,.59.13,1.49,1.49,0,0,1,.83.83,1.4,1.4,0,0,1,0,1.18,1.56,1.56,0,0,1-.33.5,1.53,1.53,0,0,1-.5.34,1.31,1.31,0,0,1-.59.13,1.34,1.34,0,0,1-.59-.13,1.43,1.43,0,0,1-.5-.34,1.77,1.77,0,0,1-.34-.5,1.4,1.4,0,0,1,0-1.18,1.92,1.92,0,0,1,.34-.5,1.56,1.56,0,0,1,.5-.33A1.49,1.49,0,0,1,485.86,528Z" transform="translate(-283.04 -251.02)"/><path class="cls-3" d="M454.27,550.11h-2v-.86a2.88,2.88,0,0,1-1,.77,3,3,0,0,1-1.37.29,3.55,3.55,0,0,1-1.49-.31,3.78,3.78,0,0,1-1.19-.86,4,4,0,0,1-.79-1.29,4.83,4.83,0,0,1,0-3.24,4,4,0,0,1,.79-1.29,3.63,3.63,0,0,1,1.19-.86,3.55,3.55,0,0,1,1.49-.31,3,3,0,0,1,1.37.29,2.88,2.88,0,0,1,1,.77v-.85h2Zm-4-6a2,2,0,0,0-.82.17,1.84,1.84,0,0,0-.64.46,2,2,0,0,0-.39.68,2.31,2.31,0,0,0-.15.83,2.23,2.23,0,0,0,.15.83,2,2,0,0,0,.39.68,2.14,2.14,0,0,0,.64.46,2,2,0,0,0,.82.16,2.14,2.14,0,0,0,.82-.15,1.81,1.81,0,0,0,.63-.45,2,2,0,0,0,.41-.68,2.37,2.37,0,0,0,.14-.85,2.33,2.33,0,0,0-.14-.85,1.88,1.88,0,0,0-.41-.68,1.81,1.81,0,0,0-.63-.45A2.14,2.14,0,0,0,450.29,544.09Z" transform="translate(-283.04 -251.02)"/><path class="cls-3" d="M466,542.15a3.33,3.33,0,0,1,1.24.22,2.91,2.91,0,0,1,1,.61,2.69,2.69,0,0,1,.62,1,3.24,3.24,0,0,1,.22,1.23v4.94h-2.08v-4.27a1.86,1.86,0,0,0-.4-1.29,1.42,1.42,0,0,0-1.11-.44,1.67,1.67,0,0,0-.63.11,1.38,1.38,0,0,0-.52.32,1.64,1.64,0,0,0-.36.55,2,2,0,0,0-.13.77v4.25H461.7v-4.27a1.91,1.91,0,0,0-.39-1.29,1.45,1.45,0,0,0-1.12-.44,1.67,1.67,0,0,0-.63.11,1.31,1.31,0,0,0-.52.32,1.64,1.64,0,0,0-.36.55,2.26,2.26,0,0,0-.13.77v4.25h-2.09v-7.75h2v.91a2.27,2.27,0,0,1,1-.87,3.37,3.37,0,0,1,2.77.1,2.75,2.75,0,0,1,1.05,1,2.73,2.73,0,0,1,.52-.63,2.63,2.63,0,0,1,.65-.41,2.79,2.79,0,0,1,.71-.22A3.84,3.84,0,0,1,466,542.15Z" transform="translate(-283.04 -251.02)"/><path class="cls-3" d="M474.59,542.15a4,4,0,0,1,1.53.29,3.48,3.48,0,0,1,1.19.84,3.65,3.65,0,0,1,.77,1.28,4.7,4.7,0,0,1,.28,1.66c0,.12,0,.25,0,.38s0,.23,0,.32h-5.5a2.1,2.1,0,0,0,.27.73,1.78,1.78,0,0,0,.44.5,1.71,1.71,0,0,0,.59.29,2.61,2.61,0,0,0,.69.09,2.83,2.83,0,0,0,1-.19,3.06,3.06,0,0,0,.94-.55l1.23,1.34a4.14,4.14,0,0,1-1.49.89,5.6,5.6,0,0,1-1.82.29,4.45,4.45,0,0,1-1.62-.29,3.73,3.73,0,0,1-1.28-.83,3.61,3.61,0,0,1-.82-1.28,4.42,4.42,0,0,1-.3-1.66,4.72,4.72,0,0,1,.29-1.67,3.85,3.85,0,0,1,.8-1.29,3.68,3.68,0,0,1,1.24-.84A4.09,4.09,0,0,1,474.59,542.15Zm0,1.8a1.65,1.65,0,0,0-1.17.41,2.06,2.06,0,0,0-.57,1.14h3.43a2.06,2.06,0,0,0-.57-1.15A1.57,1.57,0,0,0,474.57,544Zm-1.4-2.7,1.61-2.53h2.5l-2.11,2.53Z" transform="translate(-283.04 -251.02)"/><path class="cls-3" d="M484.27,542.15a3.82,3.82,0,0,1,.61,0,2.42,2.42,0,0,1,.48.13l-.31,2.07a2.36,2.36,0,0,0-.6-.18,3.11,3.11,0,0,0-.67-.07,2,2,0,0,0-.66.11,1.5,1.5,0,0,0-.51.33,1.42,1.42,0,0,0-.34.54,2.24,2.24,0,0,0-.12.76v4.23h-2.09v-7.75h2v.85a2.2,2.2,0,0,1,.91-.81A3,3,0,0,1,484.27,542.15Z" transform="translate(-283.04 -251.02)"/><path class="cls-3" d="M486.57,547.21a1.53,1.53,0,0,1,.6.12,1.49,1.49,0,0,1,.49.34,1.51,1.51,0,0,1,.33.49,1.4,1.4,0,0,1,0,1.18,1.56,1.56,0,0,1-.33.5,1.49,1.49,0,0,1-.49.34,1.43,1.43,0,0,1-1.19,0,1.43,1.43,0,0,1-.5-.34,1.77,1.77,0,0,1-.34-.5,1.4,1.4,0,0,1,0-1.18,1.72,1.72,0,0,1,.34-.49,1.43,1.43,0,0,1,.5-.34A1.52,1.52,0,0,1,486.57,547.21Z" transform="translate(-283.04 -251.02)"/><path class="cls-3" d="M534.37,530.91h-2.23v-11.2h2.23Z" transform="translate(-283.04 -251.02)"/><path class="cls-3" d="M545.92,523a3.35,3.35,0,0,1,1.25.22,3,3,0,0,1,1,.61,2.86,2.86,0,0,1,.63,1A3.45,3.45,0,0,1,549,526v4.94H546.9v-4.27a1.91,1.91,0,0,0-.4-1.29,1.45,1.45,0,0,0-1.11-.44,1.69,1.69,0,0,0-.64.11,1.46,1.46,0,0,0-.52.32,1.62,1.62,0,0,0-.35.55,2,2,0,0,0-.13.77v4.25h-2.09v-4.27a1.86,1.86,0,0,0-.4-1.29,1.42,1.42,0,0,0-1.11-.44,1.69,1.69,0,0,0-.64.11,1.46,1.46,0,0,0-.52.32,1.62,1.62,0,0,0-.35.55,2,2,0,0,0-.13.77v4.25h-2.09v-7.75h2v.91a2.35,2.35,0,0,1,1-.87,3.18,3.18,0,0,1,1.26-.25,3.23,3.23,0,0,1,1.51.35,2.75,2.75,0,0,1,1,1,2.5,2.5,0,0,1,.52-.63,2.58,2.58,0,0,1,.64-.41,3,3,0,0,1,.72-.22A3.74,3.74,0,0,1,545.92,523Z" transform="translate(-283.04 -251.02)"/><path class="cls-3" d="M560.29,523a3.3,3.3,0,0,1,1.24.22,2.91,2.91,0,0,1,1,.61,2.86,2.86,0,0,1,.63,1,3.45,3.45,0,0,1,.22,1.23v4.94h-2.08v-4.27a1.91,1.91,0,0,0-.4-1.29,1.45,1.45,0,0,0-1.12-.44,1.67,1.67,0,0,0-.63.11,1.38,1.38,0,0,0-.52.32,1.48,1.48,0,0,0-.35.55,2,2,0,0,0-.14.77v4.25H556v-4.27a1.91,1.91,0,0,0-.4-1.29,1.44,1.44,0,0,0-1.12-.44,1.67,1.67,0,0,0-.63.11,1.38,1.38,0,0,0-.52.32,1.48,1.48,0,0,0-.35.55,2,2,0,0,0-.14.77v4.25h-2.08v-7.75h2v.91a2.27,2.27,0,0,1,1-.87,3.39,3.39,0,0,1,2.78.1,2.75,2.75,0,0,1,1,1,2.5,2.5,0,0,1,.52-.63,2.58,2.58,0,0,1,.64-.41,3.07,3.07,0,0,1,.71-.22A3.84,3.84,0,0,1,560.29,523Z" transform="translate(-283.04 -251.02)"/><path class="cls-3" d="M568.86,523a4.35,4.35,0,0,1,1.67.31,3.82,3.82,0,0,1,2.21,2.15,4.14,4.14,0,0,1,.32,1.62,4.07,4.07,0,0,1-.32,1.62,3.86,3.86,0,0,1-.87,1.29,4.06,4.06,0,0,1-1.34.86,4.65,4.65,0,0,1-3.34,0,3.91,3.91,0,0,1-1.33-.86,3.86,3.86,0,0,1-.87-1.29,4.07,4.07,0,0,1-.32-1.62,4.14,4.14,0,0,1,.32-1.62,4,4,0,0,1,.87-1.3,3.89,3.89,0,0,1,1.33-.85A4.32,4.32,0,0,1,568.86,523Zm0,1.94a2,2,0,0,0-.82.16,1.83,1.83,0,0,0-.65.44,2,2,0,0,0-.43.67,2.25,2.25,0,0,0-.16.87,2.2,2.2,0,0,0,.16.86,2.07,2.07,0,0,0,.43.68,2,2,0,0,0,.65.44,2.18,2.18,0,0,0,.82.15,2.25,2.25,0,0,0,.82-.15,2,2,0,0,0,.65-.44,2.1,2.1,0,0,0,.44-.68,2.39,2.39,0,0,0,.15-.86,2.45,2.45,0,0,0-.15-.87,2.05,2.05,0,0,0-.44-.67,1.83,1.83,0,0,0-.65-.44A2.07,2.07,0,0,0,568.86,524.89Z" transform="translate(-283.04 -251.02)"/><path class="cls-3" d="M578.79,523a3.58,3.58,0,0,1,2.68,1.17,4,4,0,0,1,.8,1.29,4.83,4.83,0,0,1,0,3.24,3.83,3.83,0,0,1-.79,1.29,3.67,3.67,0,0,1-1.19.86,3.71,3.71,0,0,1-1.49.31,2.8,2.8,0,0,1-2.32-1.06v.86h-2V519.39h2.08V524a3.09,3.09,0,0,1,.94-.73A2.87,2.87,0,0,1,578.79,523Zm-.38,1.94a2.09,2.09,0,0,0-.81.16,1.94,1.94,0,0,0-1,1.13,2.57,2.57,0,0,0-.14.85,2.61,2.61,0,0,0,.14.85,2.13,2.13,0,0,0,.41.68,1.84,1.84,0,0,0,.63.44,1.92,1.92,0,0,0,.81.16,1.86,1.86,0,0,0,1.46-.62,2,2,0,0,0,.4-.68,2.45,2.45,0,0,0,.14-.83,2.54,2.54,0,0,0-.14-.83,2,2,0,0,0-.4-.68,1.71,1.71,0,0,0-.63-.46A2,2,0,0,0,578.41,524.89Z" transform="translate(-283.04 -251.02)"/><path class="cls-3" d="M585,519.28a1.35,1.35,0,0,1,.95.38,1.39,1.39,0,0,1,.28.43,1.36,1.36,0,0,1,.11.53,1.34,1.34,0,1,1-2.67,0,1.35,1.35,0,0,1,.1-.53,1.39,1.39,0,0,1,.28-.43,1.35,1.35,0,0,1,1-.38ZM586,530.91h-2.09v-7.75H586Z" transform="translate(-283.04 -251.02)"/><path class="cls-3" d="M590.15,530.91h-2.08V519.39h2.08Z" transform="translate(-283.04 -251.02)"/><path class="cls-3" d="M593.06,519.28a1.3,1.3,0,0,1,.52.1,1.34,1.34,0,0,1,.42.28,1.42,1.42,0,0,1,.29.43,1.35,1.35,0,0,1,.1.53,1.27,1.27,0,0,1-.1.52,1.3,1.3,0,0,1-.29.43,1.34,1.34,0,0,1-.42.28,1.3,1.3,0,0,1-.52.1,1.31,1.31,0,0,1-.95-.38,1.35,1.35,0,0,1-.38-1,1.35,1.35,0,0,1,.1-.53,1.39,1.39,0,0,1,.28-.43,1.31,1.31,0,0,1,.95-.38Zm1.05,11.63H592v-7.75h2.08Z" transform="translate(-283.04 -251.02)"/><path class="cls-3" d="M599.42,523a4,4,0,0,1,1.54.29,3.44,3.44,0,0,1,1.18.84,3.67,3.67,0,0,1,.78,1.28,4.94,4.94,0,0,1,.27,1.66c0,.12,0,.25,0,.38s0,.23,0,.32h-5.49a2.09,2.09,0,0,0,.26.73,1.78,1.78,0,0,0,1,.79,2.63,2.63,0,0,0,.7.09,2.83,2.83,0,0,0,1-.19,3.18,3.18,0,0,0,.94-.55l1.22,1.34a4.14,4.14,0,0,1-1.49.89,5.54,5.54,0,0,1-1.81.29,4.5,4.5,0,0,1-1.63-.29,3.68,3.68,0,0,1-1.27-.83,3.63,3.63,0,0,1-.83-1.28,4.42,4.42,0,0,1-.3-1.66,4.72,4.72,0,0,1,.29-1.67,3.87,3.87,0,0,1,.81-1.29,3.54,3.54,0,0,1,1.23-.84A4.09,4.09,0,0,1,599.42,523Zm0,1.8a1.66,1.66,0,0,0-1.18.41,2.12,2.12,0,0,0-.56,1.14h3.43a2.07,2.07,0,0,0-.58-1.15A1.56,1.56,0,0,0,599.41,524.75Z" transform="translate(-283.04 -251.02)"/><path class="cls-3" d="M608.79,523a3.7,3.7,0,0,1,.6,0,2.09,2.09,0,0,1,.48.13l-.31,2.07a2.36,2.36,0,0,0-.6-.18,3.09,3.09,0,0,0-.66-.07,2,2,0,0,0-.66.11,1.54,1.54,0,0,0-.52.33,1.4,1.4,0,0,0-.33.54,2.24,2.24,0,0,0-.12.76v4.23h-2.09v-7.75h2V524a2.27,2.27,0,0,1,.92-.8A2.94,2.94,0,0,1,608.79,523Z" transform="translate(-283.04 -251.02)"/><path class="cls-3" d="M624.54,530.91H622.3v-11.2h2.24Z" transform="translate(-283.04 -251.02)"/><path class="cls-3" d="M630.82,523a3.21,3.21,0,0,1,1.21.22,2.82,2.82,0,0,1,1,.61,2.86,2.86,0,0,1,.63,1,3.24,3.24,0,0,1,.22,1.23v4.94h-2.09v-4.27a1.91,1.91,0,0,0-.39-1.29,1.45,1.45,0,0,0-1.12-.44,1.67,1.67,0,0,0-.63.11,1.38,1.38,0,0,0-.52.32,1.64,1.64,0,0,0-.36.55,2.26,2.26,0,0,0-.13.77v4.25H626.5v-7.75h2v.91a2.27,2.27,0,0,1,1-.87A3.2,3.2,0,0,1,630.82,523Z" transform="translate(-283.04 -251.02)"/><path class="cls-3" d="M640.58,525h-2.41v5.9h-2.09V525h-1.45v-1.85h1.45v-1a4,4,0,0,1,.18-1.24,2.66,2.66,0,0,1,.53-1,2.58,2.58,0,0,1,.87-.61,3.14,3.14,0,0,1,1.2-.21,4,4,0,0,1,1.36.2,4.82,4.82,0,0,1,1,.49l-.83,1.63a3,3,0,0,0-.63-.27,2.28,2.28,0,0,0-.7-.11c-.61,0-.91.37-.91,1.09v.94h2.41Z" transform="translate(-283.04 -251.02)"/><path class="cls-3" d="M645.82,523a3.7,3.7,0,0,1,.6,0,2.09,2.09,0,0,1,.48.13l-.31,2.07a2.36,2.36,0,0,0-.6-.18,3.09,3.09,0,0,0-.66-.07,2,2,0,0,0-.66.11,1.65,1.65,0,0,0-.52.33,1.54,1.54,0,0,0-.33.54,2.24,2.24,0,0,0-.12.76v4.23h-2.09v-7.75h2V524a2.27,2.27,0,0,1,.92-.8A3,3,0,0,1,645.82,523Z" transform="translate(-283.04 -251.02)"/><path class="cls-3" d="M655.3,530.91h-2v-.86a3,3,0,0,1-1,.77,3,3,0,0,1-1.36.29,3.58,3.58,0,0,1-2.68-1.17,3.83,3.83,0,0,1-.79-1.29,4.67,4.67,0,0,1,0-3.24,3.83,3.83,0,0,1,.79-1.29,3.58,3.58,0,0,1,2.68-1.17,3,3,0,0,1,1.36.29,3,3,0,0,1,1,.77v-.85h2Zm-4-6a2.05,2.05,0,0,0-.83.17,1.71,1.71,0,0,0-.63.46,2,2,0,0,0-.4.68,2.54,2.54,0,0,0-.14.83,2.45,2.45,0,0,0,.14.83,2,2,0,0,0,.4.68,2,2,0,0,0,.63.46,2,2,0,0,0,.83.16,2,2,0,0,0,.82-.16,1.84,1.84,0,0,0,.63-.44,2.33,2.33,0,0,0,.41-.68,2.61,2.61,0,0,0,.14-.85,2.57,2.57,0,0,0-.14-.85,2.2,2.2,0,0,0-.41-.68,2,2,0,0,0-.63-.45A2.18,2.18,0,0,0,651.32,524.89Z" transform="translate(-283.04 -251.02)"/><path class="cls-3" d="M662.65,525.32c-.16-.08-.33-.15-.53-.23l-.61-.2c-.22-.06-.44-.11-.67-.15a3.68,3.68,0,0,0-.66-.06,1.67,1.67,0,0,0-.9.2.56.56,0,0,0-.3.51.45.45,0,0,0,.1.28.91.91,0,0,0,.27.18,1.9,1.9,0,0,0,.4.12l.5.08.69.11a3.8,3.8,0,0,1,1.94.76,1.92,1.92,0,0,1,.67,1.56,2.38,2.38,0,0,1-.24,1.08,2.22,2.22,0,0,1-.69.83,3.53,3.53,0,0,1-1.12.53,5.43,5.43,0,0,1-1.51.19,8.38,8.38,0,0,1-.84-.05,5.61,5.61,0,0,1-.9-.14,7.06,7.06,0,0,1-.89-.28,4.6,4.6,0,0,1-.82-.44l.83-1.59a3.88,3.88,0,0,0,.53.31,4.17,4.17,0,0,0,.6.24,4.79,4.79,0,0,0,.7.16,6.51,6.51,0,0,0,.81,0,2.35,2.35,0,0,0,1.08-.19.6.6,0,0,0,.35-.54.5.5,0,0,0-.3-.44,3,3,0,0,0-1-.27l-.63-.09c-1.79-.24-2.68-1-2.68-2.35a2.62,2.62,0,0,1,.22-1.07,2.24,2.24,0,0,1,.65-.79,3,3,0,0,1,1-.5,4.8,4.8,0,0,1,1.37-.17,8.45,8.45,0,0,1,.89,0,6.84,6.84,0,0,1,.81.14,6.94,6.94,0,0,1,.78.22c.25.1.51.2.76.33Z" transform="translate(-283.04 -251.02)"/><path class="cls-3" d="M670.37,525h-2.81v2.83a1.89,1.89,0,0,0,.09.62,1.14,1.14,0,0,0,.25.4.89.89,0,0,0,.37.23,1.33,1.33,0,0,0,.45.07,2.1,2.1,0,0,0,.76-.15,6.53,6.53,0,0,0,.7-.35l.76,1.63a5.18,5.18,0,0,1-1.12.59,4.18,4.18,0,0,1-1.44.23,2.85,2.85,0,0,1-2.18-.79,3.28,3.28,0,0,1-.73-2.31v-3H664v-1.85h1.49v-2.31h2.09v2.31h2.81Z" transform="translate(-283.04 -251.02)"/><path class="cls-3" d="M676,523a3.7,3.7,0,0,1,.6,0,2.09,2.09,0,0,1,.48.13l-.31,2.07a2.36,2.36,0,0,0-.6-.18,3.09,3.09,0,0,0-.66-.07,2,2,0,0,0-.66.11,1.65,1.65,0,0,0-.52.33,1.54,1.54,0,0,0-.33.54,2.24,2.24,0,0,0-.12.76v4.23h-2.09v-7.75h2V524a2.27,2.27,0,0,1,.92-.8A3,3,0,0,1,676,523Z" transform="translate(-283.04 -251.02)"/><path class="cls-3" d="M685.34,527.6a3.77,3.77,0,0,1-.3,1.58,3,3,0,0,1-.8,1.09,3.16,3.16,0,0,1-1.17.63,4.54,4.54,0,0,1-1.39.21,4.59,4.59,0,0,1-1.39-.21,3.16,3.16,0,0,1-1.17-.63,3,3,0,0,1-.81-1.09,3.77,3.77,0,0,1-.3-1.58v-4.44h2.09v4.26a2.36,2.36,0,0,0,.12.8,1.45,1.45,0,0,0,.33.54,1.22,1.22,0,0,0,.5.3,1.89,1.89,0,0,0,.63.1,1.79,1.79,0,0,0,.62-.1,1.26,1.26,0,0,0,.51-.3,1.45,1.45,0,0,0,.33-.54,2.36,2.36,0,0,0,.12-.8v-4.26h2.08Z" transform="translate(-283.04 -251.02)"/><path class="cls-3" d="M690.72,523a4.1,4.1,0,0,1,1.77.38,3.5,3.5,0,0,1,1.33,1.08l-1.5,1.26a2.62,2.62,0,0,0-.75-.58,2,2,0,0,0-.91-.2,1.94,1.94,0,0,0-.76.15,2,2,0,0,0-1,1.11,2.5,2.5,0,0,0-.15.88,2.46,2.46,0,0,0,.15.88,2.15,2.15,0,0,0,.41.67,1.77,1.77,0,0,0,.62.43,1.87,1.87,0,0,0,.76.15,2,2,0,0,0,.92-.21,2.49,2.49,0,0,0,.76-.57l1.49,1.27a3.68,3.68,0,0,1-1.34,1.08,4.1,4.1,0,0,1-1.77.38,4.39,4.39,0,0,1-1.69-.31,4,4,0,0,1-1.3-.85,3.79,3.79,0,0,1-.84-1.29,4.58,4.58,0,0,1,0-3.26,3.79,3.79,0,0,1,.84-1.29,3.86,3.86,0,0,1,1.3-.85A4.39,4.39,0,0,1,690.72,523Z" transform="translate(-283.04 -251.02)"/><path class="cls-3" d="M700.64,525h-2.81v2.83a1.89,1.89,0,0,0,.09.62,1.3,1.3,0,0,0,.25.4,1,1,0,0,0,.37.23,1.33,1.33,0,0,0,.45.07,2.06,2.06,0,0,0,.76-.15,6.53,6.53,0,0,0,.7-.35l.77,1.63a5.26,5.26,0,0,1-1.13.59,4.18,4.18,0,0,1-1.44.23,2.85,2.85,0,0,1-2.18-.79,3.33,3.33,0,0,1-.73-2.31v-3h-1.49v-1.85h1.49v-2.31h2.09v2.31h2.81Z" transform="translate(-283.04 -251.02)"/><path class="cls-3" d="M709.28,527.6a3.77,3.77,0,0,1-.3,1.58,3.09,3.09,0,0,1-.8,1.09,3.16,3.16,0,0,1-1.17.63,4.59,4.59,0,0,1-1.39.21,4.65,4.65,0,0,1-1.4-.21,3.16,3.16,0,0,1-1.17-.63,3,3,0,0,1-.81-1.09,3.77,3.77,0,0,1-.3-1.58v-4.44H704v4.26a2.36,2.36,0,0,0,.12.8,1.45,1.45,0,0,0,.33.54,1.19,1.19,0,0,0,.51.3,1.81,1.81,0,0,0,.63.1,1.79,1.79,0,0,0,.62-.1,1.22,1.22,0,0,0,.5-.3,1.35,1.35,0,0,0,.34-.54,2.36,2.36,0,0,0,.12-.8v-4.26h2.08Z" transform="translate(-283.04 -251.02)"/><path class="cls-3" d="M715.22,523a3.7,3.7,0,0,1,.6,0,2.09,2.09,0,0,1,.48.13l-.31,2.07a2.36,2.36,0,0,0-.6-.18,3.09,3.09,0,0,0-.66-.07,2,2,0,0,0-.66.11,1.65,1.65,0,0,0-.52.33,1.54,1.54,0,0,0-.33.54,2.24,2.24,0,0,0-.12.76v4.23H711v-7.75h2V524a2.27,2.27,0,0,1,.92-.8A3,3,0,0,1,715.22,523Z" transform="translate(-283.04 -251.02)"/><path class="cls-3" d="M720.5,523a4.06,4.06,0,0,1,1.54.29,3.44,3.44,0,0,1,1.18.84,3.82,3.82,0,0,1,.78,1.28,4.94,4.94,0,0,1,.27,1.66c0,.12,0,.25,0,.38s0,.23,0,.32h-5.49a2.09,2.09,0,0,0,.26.73,1.78,1.78,0,0,0,.44.5,1.81,1.81,0,0,0,.59.29,2.63,2.63,0,0,0,.7.09,2.91,2.91,0,0,0,1-.19,3.18,3.18,0,0,0,.94-.55l1.22,1.34a4.14,4.14,0,0,1-1.49.89,5.54,5.54,0,0,1-1.81.29,4.5,4.5,0,0,1-1.63-.29,3.68,3.68,0,0,1-1.27-.83,3.63,3.63,0,0,1-.83-1.28,4.42,4.42,0,0,1-.3-1.66,4.72,4.72,0,0,1,.29-1.67,3.72,3.72,0,0,1,.81-1.29,3.54,3.54,0,0,1,1.23-.84A4.09,4.09,0,0,1,720.5,523Zm0,1.8a1.66,1.66,0,0,0-1.18.41,2.06,2.06,0,0,0-.57,1.14h3.44a2.07,2.07,0,0,0-.58-1.15A1.56,1.56,0,0,0,720.49,524.75Z" transform="translate(-283.04 -251.02)"/><path class="cls-3" d="M731.08,525.32c-.15-.08-.33-.15-.52-.23s-.4-.14-.62-.2l-.66-.15a3.88,3.88,0,0,0-.67-.06,1.67,1.67,0,0,0-.9.2.56.56,0,0,0-.29.51.4.4,0,0,0,.1.28.75.75,0,0,0,.26.18,2.09,2.09,0,0,0,.4.12l.5.08.69.11a3.8,3.8,0,0,1,1.94.76,1.92,1.92,0,0,1,.67,1.56,2.38,2.38,0,0,1-.24,1.08,2.22,2.22,0,0,1-.69.83,3.53,3.53,0,0,1-1.12.53,5.38,5.38,0,0,1-1.51.19c-.26,0-.54,0-.84-.05a5.78,5.78,0,0,1-.9-.14,7.06,7.06,0,0,1-.89-.28,4.51,4.51,0,0,1-.81-.44l.82-1.59a3.88,3.88,0,0,0,.53.31,4.69,4.69,0,0,0,.6.24,4.79,4.79,0,0,0,.7.16,6.77,6.77,0,0,0,.81,0,2.29,2.29,0,0,0,1.08-.19.6.6,0,0,0,.35-.54.5.5,0,0,0-.3-.44,2.94,2.94,0,0,0-1-.27l-.63-.09c-1.78-.24-2.68-1-2.68-2.35a2.47,2.47,0,0,1,.23-1.07,2.21,2.21,0,0,1,.64-.79,3,3,0,0,1,1-.5,4.8,4.8,0,0,1,1.37-.17,8.45,8.45,0,0,1,.89,0,6.84,6.84,0,0,1,.81.14,6.39,6.39,0,0,1,.78.22c.25.1.51.2.76.33Z" transform="translate(-283.04 -251.02)"/><path class="cls-3" d="M760.9,530.91h-8.37v-11.2h8.3v2h-6.07v2.48h5.79v2h-5.79v2.58h6.14Zm-5.7-12.15,1.61-2.52h2.49l-2.11,2.52Z" transform="translate(-283.04 -251.02)"/><path class="cls-3" d="M767.16,523a3.18,3.18,0,0,1,1.21.22,2.66,2.66,0,0,1,1.58,1.57,3.24,3.24,0,0,1,.22,1.23v4.94h-2.08v-4.27a1.86,1.86,0,0,0-.4-1.29,1.42,1.42,0,0,0-1.11-.44,1.69,1.69,0,0,0-.64.11,1.46,1.46,0,0,0-.52.32,1.62,1.62,0,0,0-.35.55,2,2,0,0,0-.13.77v4.25h-2.09v-7.75h2v.91a2.35,2.35,0,0,1,1-.87A3.15,3.15,0,0,1,767.16,523Z" transform="translate(-283.04 -251.02)"/><path class="cls-3" d="M775.58,523a4.06,4.06,0,0,1,1.54.29,3.44,3.44,0,0,1,1.18.84,3.82,3.82,0,0,1,.78,1.28,4.94,4.94,0,0,1,.27,1.66c0,.12,0,.25,0,.38s0,.23,0,.32h-5.49a2.09,2.09,0,0,0,.26.73,1.78,1.78,0,0,0,.44.5,1.81,1.81,0,0,0,.59.29,2.63,2.63,0,0,0,.7.09,2.91,2.91,0,0,0,1-.19,3.31,3.31,0,0,0,.94-.55l1.22,1.34a4.14,4.14,0,0,1-1.49.89,5.54,5.54,0,0,1-1.81.29,4.46,4.46,0,0,1-1.63-.29,3.68,3.68,0,0,1-1.27-.83,3.63,3.63,0,0,1-.83-1.28,4.42,4.42,0,0,1-.3-1.66,4.72,4.72,0,0,1,.29-1.67,3.85,3.85,0,0,1,.8-1.29,3.68,3.68,0,0,1,1.24-.84A4.09,4.09,0,0,1,775.58,523Zm0,1.8a1.66,1.66,0,0,0-1.18.41,2.06,2.06,0,0,0-.57,1.14h3.43a2,2,0,0,0-.57-1.15A1.56,1.56,0,0,0,775.57,524.75Z" transform="translate(-283.04 -251.02)"/><path class="cls-3" d="M785.1,523a3.74,3.74,0,0,1,.61,0,2.09,2.09,0,0,1,.48.13l-.31,2.07a2.36,2.36,0,0,0-.6-.18,3.09,3.09,0,0,0-.66-.07,2,2,0,0,0-.66.11,1.45,1.45,0,0,0-.52.33,1.42,1.42,0,0,0-.34.54,2.24,2.24,0,0,0-.12.76v4.23H780.9v-7.75h2V524a2.25,2.25,0,0,1,.91-.8A3,3,0,0,1,785.1,523Z" transform="translate(-283.04 -251.02)"/><path class="cls-3" d="M790.28,523a3.12,3.12,0,0,1,1.41.29,2.91,2.91,0,0,1,1,.78v-.86h2.05v7.11a4.4,4.4,0,0,1-.3,1.67,3.25,3.25,0,0,1-.84,1.26,3.68,3.68,0,0,1-1.31.79,5.29,5.29,0,0,1-1.74.27,7.22,7.22,0,0,1-.92-.06,7,7,0,0,1-.91-.18,4.8,4.8,0,0,1-.83-.29,3.44,3.44,0,0,1-.73-.41l.74-1.7a5,5,0,0,0,1.23.59,4.52,4.52,0,0,0,1.34.2,2.82,2.82,0,0,0,.89-.13,1.94,1.94,0,0,0,.69-.39,1.79,1.79,0,0,0,.46-.65,2.19,2.19,0,0,0,.16-.88v-.55a2.71,2.71,0,0,1-1,.77,3.13,3.13,0,0,1-1.39.28,3.31,3.31,0,0,1-1.36-.28,3.58,3.58,0,0,1-1.13-.8,4,4,0,0,1-.79-1.25,4.7,4.7,0,0,1,0-3.25,3.93,3.93,0,0,1,.79-1.24,3.46,3.46,0,0,1,1.13-.81A3.31,3.31,0,0,1,790.28,523Zm.53,1.92a1.92,1.92,0,0,0-.81.16,1.82,1.82,0,0,0-.62.43,1.94,1.94,0,0,0-.39.65,2.36,2.36,0,0,0-.14.8,2.26,2.26,0,0,0,.14.79,1.81,1.81,0,0,0,.39.64,1.84,1.84,0,0,0,.62.44,1.92,1.92,0,0,0,.81.16,1.89,1.89,0,0,0,.79-.16,1.75,1.75,0,0,0,.61-.42,1.82,1.82,0,0,0,.4-.65,2.32,2.32,0,0,0,.14-.8,2.38,2.38,0,0,0-.14-.81,1.73,1.73,0,0,0-.4-.65,1.92,1.92,0,0,0-.61-.43A2.06,2.06,0,0,0,790.81,524.87Z" transform="translate(-283.04 -251.02)"/><path class="cls-3" d="M797.79,519.28a1.35,1.35,0,0,1,1,.38,1.39,1.39,0,0,1,.28.43,1.36,1.36,0,0,1,.11.53,1.33,1.33,0,0,1-2.57.52,1.46,1.46,0,0,1-.1-.52,1.56,1.56,0,0,1,.1-.53,1.39,1.39,0,0,1,.28-.43,1.35,1.35,0,0,1,.95-.38Zm1.06,11.63h-2.09v-7.75h2.09Z" transform="translate(-283.04 -251.02)"/><path class="cls-3" d="M804.32,523a4,4,0,0,1,1.53.29,3.48,3.48,0,0,1,1.19.84,3.65,3.65,0,0,1,.77,1.28,4.94,4.94,0,0,1,.28,1.66c0,.12,0,.25,0,.38a2.88,2.88,0,0,1,0,.32h-5.5a2.09,2.09,0,0,0,.26.73,1.81,1.81,0,0,0,.45.5,1.71,1.71,0,0,0,.59.29,2.61,2.61,0,0,0,.69.09,2.83,2.83,0,0,0,1-.19,3.06,3.06,0,0,0,.94-.55l1.23,1.34a4.18,4.18,0,0,1-1.5.89,5.5,5.5,0,0,1-1.81.29,4.54,4.54,0,0,1-1.63-.29,3.68,3.68,0,0,1-2.1-2.11,4.63,4.63,0,0,1-.29-1.66,4.51,4.51,0,0,1,.29-1.67,3.85,3.85,0,0,1,.8-1.29,3.58,3.58,0,0,1,1.24-.84A4.09,4.09,0,0,1,804.32,523Zm0,1.8a1.63,1.63,0,0,0-1.17.41,2.06,2.06,0,0,0-.57,1.14H806a2.07,2.07,0,0,0-.58-1.15A1.53,1.53,0,0,0,804.3,524.75Z" transform="translate(-283.04 -251.02)"/><path class="cls-3" d="M353.83,443.71a6.75,6.75,0,0,1,2,.29,4.82,4.82,0,0,1,1.56.82,3.64,3.64,0,0,1,1,1.26,3.78,3.78,0,0,1,.36,1.66,3.32,3.32,0,0,1-.56,1.92,3.83,3.83,0,0,1-1.53,1.26,4.09,4.09,0,0,1,1.75,1.25,3.06,3.06,0,0,1,.65,1.95,3.59,3.59,0,0,1-.44,1.81,3.92,3.92,0,0,1-1.15,1.28,5.19,5.19,0,0,1-1.65.75,7.22,7.22,0,0,1-1.92.25,7.33,7.33,0,0,1-2.84-.52,5.41,5.41,0,0,1-2.05-1.5l1.61-1.77a4.3,4.3,0,0,0,1.44,1,4.46,4.46,0,0,0,1.74.34,4.07,4.07,0,0,0,1-.1,2.52,2.52,0,0,0,.78-.34,1.57,1.57,0,0,0,.72-1.37,1.36,1.36,0,0,0-.22-.79,1.82,1.82,0,0,0-.59-.58,2.83,2.83,0,0,0-.87-.35,4.48,4.48,0,0,0-1.06-.11h-1.63v-2.4h1.64a3.58,3.58,0,0,0,.95-.12,2.3,2.3,0,0,0,.78-.33,1.66,1.66,0,0,0,.53-.56,1.5,1.5,0,0,0,.19-.78,1.6,1.6,0,0,0-.18-.75,1.74,1.74,0,0,0-.5-.55,2.57,2.57,0,0,0-.73-.33,3.51,3.51,0,0,0-1.82,0,3.85,3.85,0,0,0-.78.31,3.67,3.67,0,0,0-.64.45,4.92,4.92,0,0,0-.5.54l-1.7-1.71a5.32,5.32,0,0,1,.8-.85,5.12,5.12,0,0,1,1-.7,6,6,0,0,1,1.28-.45A6.81,6.81,0,0,1,353.83,443.71Z" transform="translate(-283.04 -251.02)"/><path class="cls-3" d="M364.69,454.8l-1.4,6h-2.2l.67-6Z" transform="translate(-283.04 -251.02)"/><path class="cls-3" d="M375.7,446.47H370l-.06,2.81h1.61a6.13,6.13,0,0,1,2.14.33,4.41,4.41,0,0,1,1.53.89,3.62,3.62,0,0,1,.92,1.34,4.29,4.29,0,0,1,.31,1.65,4.94,4.94,0,0,1-.4,2A4.28,4.28,0,0,1,375,457a4.78,4.78,0,0,1-1.62.92,6.19,6.19,0,0,1-2,.31,7,7,0,0,1-2.83-.54,6.1,6.1,0,0,1-2.13-1.55l1.52-1.88a4.37,4.37,0,0,0,.67.58,5.68,5.68,0,0,0,.84.47,5.75,5.75,0,0,0,.94.31,4.07,4.07,0,0,0,1,.11,3,3,0,0,0,1-.16,2.11,2.11,0,0,0,.73-.43,1.84,1.84,0,0,0,.43-.65,2.09,2.09,0,0,0,0-1.53,1.56,1.56,0,0,0-.46-.64,2.41,2.41,0,0,0-.88-.42,4.82,4.82,0,0,0-1.37-.17H367.5l.15-7.75h8.05Z" transform="translate(-283.04 -251.02)"/><path class="cls-3" d="M458.07,448.09a6.4,6.4,0,0,1,2,.29,4.76,4.76,0,0,1,1.57.81,3.65,3.65,0,0,1,1.37,2.92,3.31,3.31,0,0,1-.55,1.92,3.79,3.79,0,0,1-1.54,1.26,4.12,4.12,0,0,1,1.76,1.25,3.08,3.08,0,0,1,.64,2,3.58,3.58,0,0,1-.43,1.8,4,4,0,0,1-1.16,1.28,5.2,5.2,0,0,1-1.65.76,7.66,7.66,0,0,1-1.92.25,7.25,7.25,0,0,1-2.83-.53,5.44,5.44,0,0,1-2.06-1.5l1.61-1.77a4.39,4.39,0,0,0,3.18,1.34,4.21,4.21,0,0,0,1-.11,2.75,2.75,0,0,0,.78-.34,1.58,1.58,0,0,0,.52-.57,1.6,1.6,0,0,0,.19-.8,1.46,1.46,0,0,0-.21-.79,1.92,1.92,0,0,0-.59-.58,3.11,3.11,0,0,0-.87-.35,5.17,5.17,0,0,0-1.07-.11h-1.63v-2.4h1.64a4.21,4.21,0,0,0,1-.11,2.75,2.75,0,0,0,.78-.34,1.55,1.55,0,0,0,.52-.56,1.49,1.49,0,0,0,.19-.77,1.54,1.54,0,0,0-.18-.75,1.52,1.52,0,0,0-.49-.55,2.4,2.4,0,0,0-.74-.34,3.72,3.72,0,0,0-.91-.11,3.78,3.78,0,0,0-.91.11,3.54,3.54,0,0,0-.77.31,3.32,3.32,0,0,0-.65.46,3.6,3.6,0,0,0-.5.54l-1.7-1.71a5.41,5.41,0,0,1,.8-.86,5,5,0,0,1,1-.69,5.62,5.62,0,0,1,1.29-.46A6.74,6.74,0,0,1,458.07,448.09Z" transform="translate(-283.04 -251.02)"/><path class="cls-3" d="M468.93,459.18l-1.4,6h-2.2l.67-6Z" transform="translate(-283.04 -251.02)"/><path class="cls-3" d="M475.12,459.78v-8L471.64,453V450.3l6.17-2.18v11.66H481v2.56H471.8v-2.56Z" transform="translate(-283.04 -251.02)"/><path class="cls-3" d="M562,393a1.39,1.39,0,0,1-.3,0h-.33a5.18,5.18,0,0,1-2-.36,4.67,4.67,0,0,1-1.53-1,4.45,4.45,0,0,1-1-1.48,4.6,4.6,0,0,1-.36-1.83,4.46,4.46,0,0,1,.4-1.9A4.7,4.7,0,0,1,558,385a5.27,5.27,0,0,1,1.67-1,6.22,6.22,0,0,1,4.17,0,5.12,5.12,0,0,1,1.67,1,4.58,4.58,0,0,1,1.11,1.5,4.37,4.37,0,0,1,.4,1.88,5.17,5.17,0,0,1-.35,1.87,9.26,9.26,0,0,1-1,1.85l-3.88,5.81h-3.26Zm-.22-2.33a2.57,2.57,0,0,0,1-.17,2.36,2.36,0,0,0,.78-.47,2.09,2.09,0,0,0,.51-.73,2.37,2.37,0,0,0,0-1.86,2.09,2.09,0,0,0-.51-.73,2.54,2.54,0,0,0-.78-.47,2.78,2.78,0,0,0-1-.17,2.84,2.84,0,0,0-1,.17,2.54,2.54,0,0,0-.78.47,2.39,2.39,0,0,0-.51.73,2.49,2.49,0,0,0,0,1.86,2.39,2.39,0,0,0,.51.73,2.36,2.36,0,0,0,.78.47A2.62,2.62,0,0,0,561.73,390.66Z" transform="translate(-283.04 -251.02)"/><path class="cls-3" d="M572.14,394.7l-1.4,6h-2.2l.67-6Z" transform="translate(-283.04 -251.02)"/><path class="cls-3" d="M584,386l-5.8,11.89H575l5.76-11.48h-6.65v-2.52H584Z" transform="translate(-283.04 -251.02)"/><path class="cls-3" d="M661.21,355.84v-8l-3.49,1.24v-2.69l6.17-2.18v11.66h3.17v2.56h-9.18v-2.56Z" transform="translate(-283.04 -251.02)"/><path class="cls-3" d="M673.5,344.15a6.68,6.68,0,0,1,2,.29,5,5,0,0,1,1.57.82,3.61,3.61,0,0,1,1,1.26,3.77,3.77,0,0,1,.37,1.65,3.27,3.27,0,0,1-.56,1.92,3.67,3.67,0,0,1-1.53,1.26,4.17,4.17,0,0,1,1.75,1.26,3,3,0,0,1,.64,1.95,3.59,3.59,0,0,1-.43,1.81,3.81,3.81,0,0,1-1.16,1.27,5,5,0,0,1-1.65.76,7.69,7.69,0,0,1-4.75-.28,5.24,5.24,0,0,1-2.06-1.5l1.62-1.77a4.08,4.08,0,0,0,1.43,1,4.36,4.36,0,0,0,1.74.35,3.72,3.72,0,0,0,1-.11,2.3,2.3,0,0,0,.78-.33,1.58,1.58,0,0,0,.52-.57,1.62,1.62,0,0,0,.2-.81,1.49,1.49,0,0,0-.22-.79,1.79,1.79,0,0,0-.59-.57,2.6,2.6,0,0,0-.87-.35,4.55,4.55,0,0,0-1.07-.12h-1.63v-2.4h1.64a3.72,3.72,0,0,0,1-.11,2.3,2.3,0,0,0,.78-.33,1.63,1.63,0,0,0,.52-.56,1.72,1.72,0,0,0,0-1.53,1.64,1.64,0,0,0-.5-.55,2.38,2.38,0,0,0-.74-.33,3.28,3.28,0,0,0-.91-.12,3.34,3.34,0,0,0-.91.12,3.45,3.45,0,0,0-.77.31,3.75,3.75,0,0,0-.65.45,6.15,6.15,0,0,0-.5.54l-1.69-1.71a5.75,5.75,0,0,1,.79-.86,5.61,5.61,0,0,1,1-.69,5.84,5.84,0,0,1,1.28-.45A6.75,6.75,0,0,1,673.5,344.15Z" transform="translate(-283.04 -251.02)"/><path class="cls-3" d="M684.35,355.24l-1.4,6h-2.2l.67-6Z" transform="translate(-283.04 -251.02)"/><path class="cls-3" d="M696.22,346.51l-5.8,11.89h-3.17L693,346.92h-6.65V344.4h9.87Z" transform="translate(-283.04 -251.02)"/><path class="cls-3" d="M760.18,276.51a9.07,9.07,0,0,1,.7-.8,6.18,6.18,0,0,1,1-.78,5.59,5.59,0,0,1,3.08-.83,5.65,5.65,0,0,1,2,.33,4.41,4.41,0,0,1,1.49.92,4,4,0,0,1,.94,1.43,5,5,0,0,1,.33,1.84,4.56,4.56,0,0,1-.15,1.19,4.83,4.83,0,0,1-.43,1.05,5.8,5.8,0,0,1-.63.95c-.25.3-.52.6-.8.9l-3,3.11h5.34v2.53H760.8v-2.11l5-5.07a4.63,4.63,0,0,0,.86-1.16,2.67,2.67,0,0,0,.3-1.24,2.24,2.24,0,0,0-.16-.84,1.78,1.78,0,0,0-.44-.66,2,2,0,0,0-.67-.44,2.46,2.46,0,0,0-.88-.15,3.16,3.16,0,0,0-.9.12,3.34,3.34,0,0,0-.74.34,3.75,3.75,0,0,0-.64.49,7.91,7.91,0,0,0-.56.59Z" transform="translate(-283.04 -251.02)"/><path class="cls-3" d="M777.26,274.1a5.16,5.16,0,0,1,2.1.43,4.45,4.45,0,0,1,1.72,1.32,6.27,6.27,0,0,1,1.17,2.26,10.73,10.73,0,0,1,.43,3.24,11.06,11.06,0,0,1-.43,3.32,6.13,6.13,0,0,1-1.17,2.25,4.41,4.41,0,0,1-1.72,1.27,5.5,5.5,0,0,1-2.1.41,5.65,5.65,0,0,1-2.13-.41,4.58,4.58,0,0,1-1.75-1.27,6.3,6.3,0,0,1-1.18-2.25,10.7,10.7,0,0,1-.45-3.32,10.81,10.81,0,0,1,.45-3.33,6.47,6.47,0,0,1,1.18-2.25,4.48,4.48,0,0,1,1.75-1.27A5.64,5.64,0,0,1,777.26,274.1Zm0,2.59a2.49,2.49,0,0,0-1,.23,2.28,2.28,0,0,0-.87.78,4.43,4.43,0,0,0-.6,1.43,9.89,9.89,0,0,0-.22,2.22,9.73,9.73,0,0,0,.22,2.21,4.4,4.4,0,0,0,.6,1.44,2.17,2.17,0,0,0,.87.77,2.35,2.35,0,0,0,1,.24,2.17,2.17,0,0,0,1-.24,2.13,2.13,0,0,0,.85-.77,4.4,4.4,0,0,0,.58-1.44,9.73,9.73,0,0,0,.22-2.21,9.3,9.3,0,0,0-.22-2.13,4.76,4.76,0,0,0-.58-1.45,2.36,2.36,0,0,0-.85-.82A2,2,0,0,0,777.26,276.69Z" transform="translate(-283.04 -251.02)"/><path class="cls-3" d="M787.26,285.19l-1.4,6h-2.2l.67-6Z" transform="translate(-283.04 -251.02)"/><path class="cls-3" d="M794.57,274.1a7.16,7.16,0,0,1,2,.27,5.37,5.37,0,0,1,1.63.79,3.94,3.94,0,0,1,1.1,1.27,3.49,3.49,0,0,1,.41,1.69,3.41,3.41,0,0,1-.17,1.09,3.24,3.24,0,0,1-.45.89,3.13,3.13,0,0,1-.68.68,4.56,4.56,0,0,1-.85.51,5.61,5.61,0,0,1,1,.49,4,4,0,0,1,.78.69,3.07,3.07,0,0,1,.72,2.07,3.34,3.34,0,0,1-.43,1.71,3.82,3.82,0,0,1-1.17,1.27,5.56,5.56,0,0,1-1.74.8,8.2,8.2,0,0,1-4.25,0,5.56,5.56,0,0,1-1.74-.8,3.82,3.82,0,0,1-1.17-1.27,3.35,3.35,0,0,1-.44-1.71,3.53,3.53,0,0,1,.19-1.16,3.29,3.29,0,0,1,.53-.91,3.71,3.71,0,0,1,.78-.69,5.51,5.51,0,0,1,1-.49,4.83,4.83,0,0,1-.84-.51,3.09,3.09,0,0,1-.67-.68,3.24,3.24,0,0,1-.45-.89,3.41,3.41,0,0,1-.17-1.09,3.49,3.49,0,0,1,.41-1.69,3.94,3.94,0,0,1,1.1-1.27,5.37,5.37,0,0,1,1.63-.79A7.14,7.14,0,0,1,794.57,274.1Zm0,8.29a4,4,0,0,0-1,.12,2.74,2.74,0,0,0-.81.37,1.86,1.86,0,0,0-.55.6,1.6,1.6,0,0,0-.21.83,1.58,1.58,0,0,0,.21.81,1.93,1.93,0,0,0,.55.59,2.5,2.5,0,0,0,.81.36,4.14,4.14,0,0,0,2,0,2.65,2.65,0,0,0,.82-.36,1.93,1.93,0,0,0,.55-.59,1.57,1.57,0,0,0,.2-.81,1.6,1.6,0,0,0-.2-.83,1.86,1.86,0,0,0-.55-.6,2.93,2.93,0,0,0-.82-.37A4,4,0,0,0,794.57,282.39Zm0-5.85a3.6,3.6,0,0,0-.88.11,2.19,2.19,0,0,0-.72.35,1.73,1.73,0,0,0-.48.56,1.62,1.62,0,0,0-.18.77,1.67,1.67,0,0,0,.18.79,1.8,1.8,0,0,0,.48.58,2.41,2.41,0,0,0,.72.35,3.32,3.32,0,0,0,1.77,0,2.24,2.24,0,0,0,.71-.35,1.71,1.71,0,0,0,.49-.58,1.67,1.67,0,0,0,.17-.79,1.62,1.62,0,0,0-.17-.77,1.64,1.64,0,0,0-.49-.56,2.05,2.05,0,0,0-.71-.35A3.62,3.62,0,0,0,794.57,276.54Z" transform="translate(-283.04 -251.02)"/></svg>