<svg id="Layer_1" data-name="Layer 1" xmlns="http://www.w3.org/2000/svg" viewBox="0 0 1083.12 446.92"><defs><style>.cls-1,.cls-2,.cls-4,.cls-5,.cls-6{fill:none;}.cls-1,.cls-2,.cls-4{stroke:#203232;stroke-miterlimit:10;}.cls-1,.cls-5,.cls-6{stroke-linecap:round;}.cls-1,.cls-5{stroke-width:3px;}.cls-2{stroke-width:2px;}.cls-3{fill:#203232;}.cls-4{stroke-width:0.31px;}.cls-5,.cls-6{stroke:#ec5a35;stroke-linejoin:round;}.cls-6{stroke-width:3.21px;}</style></defs><line class="cls-1" x1="1048.76" y1="45.52" x2="1062.67" y2="24.91"/><line class="cls-1" x1="1034.85" y1="53.76" x2="1048.76" y2="45.52"/><line class="cls-1" x1="1020.95" y1="78.49" x2="1034.85" y2="53.76"/><line class="cls-1" x1="1007.04" y1="111.46" x2="1020.95" y2="78.49"/><line class="cls-1" x1="993.13" y1="115.58" x2="1007.04" y2="111.46"/><line class="cls-1" x1="979.23" y1="111.46" x2="993.13" y2="115.58"/><line class="cls-1" x1="965.32" y1="111.46" x2="979.23" y2="111.46"/><line class="cls-1" x1="951.41" y1="127.95" x2="965.32" y2="111.46"/><line class="cls-1" x1="937.51" y1="160.92" x2="951.41" y2="127.95"/><line class="cls-1" x1="923.6" y1="226.87" x2="937.51" y2="160.92"/><line class="cls-1" x1="909.69" y1="263.96" x2="923.6" y2="226.87"/><line class="cls-1" x1="895.79" y1="276.32" x2="909.69" y2="263.96"/><line class="cls-1" x1="881.88" y1="276.32" x2="895.79" y2="276.32"/><line class="cls-1" x1="867.97" y1="284.57" x2="881.88" y2="276.32"/><line class="cls-1" x1="854.06" y1="284.57" x2="867.97" y2="284.57"/><line class="cls-1" x1="840.16" y1="276.32" x2="854.06" y2="284.57"/><line class="cls-1" x1="826.25" y1="280.45" x2="840.16" y2="276.32"/><line class="cls-1" x1="812.34" y1="292.81" x2="826.25" y2="280.45"/><line class="cls-1" x1="798.44" y1="309.3" x2="812.34" y2="292.81"/><line class="cls-1" x1="784.53" y1="329.91" x2="798.44" y2="309.3"/><line class="cls-1" x1="770.62" y1="321.66" x2="784.53" y2="329.91"/><line class="cls-1" x1="756.72" y1="272.2" x2="770.62" y2="321.66"/><line class="cls-1" x1="742.81" y1="239.23" x2="756.72" y2="272.2"/><line class="cls-1" x1="728.9" y1="230.99" x2="742.81" y2="239.23"/><line class="cls-1" x1="715" y1="239.23" x2="728.9" y2="230.99"/><line class="cls-1" x1="701.09" y1="247.47" x2="715" y2="239.23"/><line class="cls-1" x1="687.18" y1="259.84" x2="701.09" y2="247.47"/><line class="cls-1" x1="673.28" y1="263.96" x2="687.18" y2="259.84"/><line class="cls-1" x1="659.37" y1="263.96" x2="673.28" y2="263.96"/><line class="cls-1" x1="645.46" y1="259.84" x2="659.37" y2="263.96"/><line class="cls-1" x1="631.56" y1="268.08" x2="645.46" y2="259.84"/><line class="cls-1" x1="617.65" y1="259.84" x2="631.56" y2="268.08"/><line class="cls-1" x1="603.74" y1="251.59" x2="617.65" y2="259.84"/><line class="cls-1" x1="589.84" y1="255.72" x2="603.74" y2="251.59"/><line class="cls-1" x1="575.93" y1="272.2" x2="589.84" y2="255.72"/><line class="cls-1" x1="562.02" y1="268.08" x2="575.93" y2="272.2"/><line class="cls-1" x1="548.12" y1="255.72" x2="562.02" y2="268.08"/><line class="cls-1" x1="534.21" y1="243.35" x2="548.12" y2="255.72"/><line class="cls-1" x1="520.3" y1="230.99" x2="534.21" y2="243.35"/><line class="cls-1" x1="506.39" y1="239.23" x2="520.3" y2="230.99"/><line class="cls-1" x1="492.49" y1="222.74" x2="506.39" y2="239.23"/><line class="cls-1" x1="478.58" y1="214.5" x2="492.49" y2="222.74"/><line class="cls-1" x1="464.67" y1="214.5" x2="478.58" y2="214.5"/><line class="cls-1" x1="450.77" y1="218.62" x2="464.67" y2="214.5"/><line class="cls-1" x1="436.86" y1="230.99" x2="450.77" y2="218.62"/><line class="cls-1" x1="422.95" y1="235.11" x2="436.86" y2="230.99"/><line class="cls-1" x1="409.05" y1="243.35" x2="422.95" y2="235.11"/><line class="cls-1" x1="395.14" y1="247.47" x2="409.05" y2="243.35"/><line class="cls-1" x1="381.23" y1="247.47" x2="395.14" y2="247.47"/><line class="cls-1" x1="367.33" y1="243.35" x2="381.23" y2="247.47"/><line class="cls-1" x1="353.42" y1="251.59" x2="367.33" y2="243.35"/><line class="cls-1" x1="339.51" y1="243.35" x2="353.42" y2="251.59"/><line class="cls-1" x1="325.61" y1="255.72" x2="339.51" y2="243.35"/><line class="cls-1" x1="311.7" y1="263.96" x2="325.61" y2="255.72"/><line class="cls-1" x1="297.79" y1="268.08" x2="311.7" y2="263.96"/><line class="cls-1" x1="283.89" y1="255.72" x2="297.79" y2="268.08"/><line class="cls-1" x1="269.98" y1="243.35" x2="283.89" y2="255.72"/><line class="cls-1" x1="256.07" y1="235.11" x2="269.98" y2="243.35"/><line class="cls-1" x1="242.17" y1="222.74" x2="256.07" y2="235.11"/><line class="cls-1" x1="228.26" y1="230.99" x2="242.17" y2="222.74"/><line class="cls-1" x1="214.35" y1="247.47" x2="228.26" y2="230.99"/><line class="cls-1" x1="200.45" y1="263.96" x2="214.35" y2="247.47"/><line class="cls-1" x1="186.54" y1="268.08" x2="200.45" y2="263.96"/><line class="cls-1" x1="172.63" y1="272.2" x2="186.54" y2="268.08"/><line class="cls-1" x1="158.72" y1="288.69" x2="172.63" y2="272.2"/><line class="cls-1" x1="144.82" y1="301.05" x2="158.72" y2="288.69"/><line class="cls-1" x1="130.91" y1="292.81" x2="144.82" y2="301.05"/><line class="cls-1" x1="117" y1="292.81" x2="130.91" y2="292.81"/><line class="cls-1" x1="103.1" y1="288.69" x2="117" y2="292.81"/><line class="cls-1" x1="89.19" y1="296.93" x2="103.1" y2="288.69"/><line class="cls-1" x1="75.28" y1="292.81" x2="89.19" y2="296.93"/><line class="cls-1" x1="61.38" y1="276.32" x2="75.28" y2="292.81"/><line class="cls-2" x1="53.82" y1="332.96" x2="1069.77" y2="332.96"/><path class="cls-3" d="M8.55,552.32H3.82v-1.83H8.55Z" transform="translate(-3.82 -176.98)"/><path class="cls-3" d="M13.67,553.61v-6.42l-2.79,1V546l4.94-1.74v9.32h2.53v2H11v-2Z" transform="translate(-3.82 -176.98)"/><path class="cls-3" d="M21.26,552.76a1.48,1.48,0,0,1,.59.12,1.68,1.68,0,0,1,.83.83,1.48,1.48,0,0,1,.12.59,1.53,1.53,0,0,1-.12.6,1.65,1.65,0,0,1-.83.84,1.48,1.48,0,0,1-.59.12,1.53,1.53,0,0,1-.6-.12,1.72,1.72,0,0,1-.49-.34,1.53,1.53,0,0,1-.34-.5,1.38,1.38,0,0,1-.13-.6,1.34,1.34,0,0,1,.13-.59,1.39,1.39,0,0,1,.34-.49,1.49,1.49,0,0,1,1.09-.46Z" transform="translate(-3.82 -176.98)"/><path class="cls-3" d="M28.3,544.26a4.26,4.26,0,0,1,1.67.34,3.71,3.71,0,0,1,1.38,1.06,5.25,5.25,0,0,1,.94,1.81,8.65,8.65,0,0,1,.34,2.59,9,9,0,0,1-.34,2.66,5.11,5.11,0,0,1-.94,1.8,3.6,3.6,0,0,1-1.38,1,4.43,4.43,0,0,1-1.67.32,4.68,4.68,0,0,1-1.71-.32,3.75,3.75,0,0,1-1.4-1,5.29,5.29,0,0,1-1-1.8,10.28,10.28,0,0,1,0-5.32,5.29,5.29,0,0,1,1-1.8,3.54,3.54,0,0,1,1.4-1A4.68,4.68,0,0,1,28.3,544.26Zm0,2.07a2,2,0,0,0-.83.19,1.85,1.85,0,0,0-.7.62,3.53,3.53,0,0,0-.47,1.15,8.79,8.79,0,0,0,0,3.54,3.53,3.53,0,0,0,.47,1.15,1.77,1.77,0,0,0,.7.62,1.84,1.84,0,0,0,.83.19,1.74,1.74,0,0,0,.8-.19,1.7,1.7,0,0,0,.67-.62,3.53,3.53,0,0,0,.47-1.15,8,8,0,0,0,.17-1.77,7.56,7.56,0,0,0-.17-1.7,3.79,3.79,0,0,0-.47-1.16,1.91,1.91,0,0,0-.67-.66A1.65,1.65,0,0,0,28.3,546.33Z" transform="translate(-3.82 -176.98)"/><path class="cls-3" d="M36.78,544.26a3.34,3.34,0,0,1,1.24.23,3.19,3.19,0,0,1,1,.64,3.09,3.09,0,0,1,.66,1,3,3,0,0,1,.24,1.21,3.05,3.05,0,0,1-.24,1.22,2.88,2.88,0,0,1-.66,1,3,3,0,0,1-1,.64,3.46,3.46,0,0,1-2.48,0,3,3,0,0,1-1-.64,2.88,2.88,0,0,1-.66-1,3.23,3.23,0,0,1-.23-1.22,3.18,3.18,0,0,1,.23-1.21,3.09,3.09,0,0,1,.66-1,3.19,3.19,0,0,1,1-.64A3.34,3.34,0,0,1,36.78,544.26Zm0,1.67a1.41,1.41,0,0,0-.54.11,1.39,1.39,0,0,0-.43.28,1.33,1.33,0,0,0-.28.44,1.63,1.63,0,0,0-.1.55,1.69,1.69,0,0,0,.1.56,1.33,1.33,0,0,0,.28.44,1.42,1.42,0,0,0,.43.29,1.4,1.4,0,0,0,.54.1,1.33,1.33,0,0,0,.54-.1,1.3,1.3,0,0,0,.43-.29,1.33,1.33,0,0,0,.28-.44,1.47,1.47,0,0,0,.1-.56,1.42,1.42,0,0,0-.1-.55,1.33,1.33,0,0,0-.28-.44,1.28,1.28,0,0,0-.43-.28A1.33,1.33,0,0,0,36.78,545.93Zm1.49,9.73h-2.1l7.51-11.2h2.09Zm6.92-5.91a3.37,3.37,0,0,1,1.24.23,3.19,3.19,0,0,1,1,.64,3,3,0,0,1,.66,1,3.32,3.32,0,0,1,0,2.43,3,3,0,0,1-.66,1,3.19,3.19,0,0,1-1,.64,3.37,3.37,0,0,1-1.24.23,3.34,3.34,0,0,1-1.24-.23,3.19,3.19,0,0,1-1-.64,3,3,0,0,1-.66-1,3.23,3.23,0,0,1-.23-1.22,3.17,3.17,0,0,1,.23-1.2,2.88,2.88,0,0,1,.66-1,3,3,0,0,1,1-.64A3.15,3.15,0,0,1,45.19,549.75Zm0,1.67a1.57,1.57,0,0,0-.54.1,1.3,1.3,0,0,0-.43.29,1.44,1.44,0,0,0-.28.44,1.59,1.59,0,0,0,0,1.11,1.44,1.44,0,0,0,.28.44,1.15,1.15,0,0,0,.43.28,1.37,1.37,0,0,0,.54.11,1.41,1.41,0,0,0,.54-.11,1.15,1.15,0,0,0,.43-.28,1.44,1.44,0,0,0,.28-.44,1.59,1.59,0,0,0,0-1.11,1.44,1.44,0,0,0-.28-.44,1.3,1.3,0,0,0-.43-.29A1.62,1.62,0,0,0,45.19,551.42Z" transform="translate(-3.82 -176.98)"/><path class="cls-3" d="M14.27,503.45a4.1,4.1,0,0,1,1.67.35,3.69,3.69,0,0,1,1.38,1.05,5.25,5.25,0,0,1,.94,1.81,8.65,8.65,0,0,1,.34,2.59,9,9,0,0,1-.34,2.66,5,5,0,0,1-.94,1.8,3.6,3.6,0,0,1-1.38,1,4.43,4.43,0,0,1-1.67.32,4.64,4.64,0,0,1-1.71-.32,3.75,3.75,0,0,1-1.4-1,5.19,5.19,0,0,1-.95-1.8,10.28,10.28,0,0,1,0-5.32,5.29,5.29,0,0,1,.95-1.8,3.75,3.75,0,0,1,1.4-1A4.64,4.64,0,0,1,14.27,503.45Zm0,2.07a2,2,0,0,0-.83.19,1.78,1.78,0,0,0-.7.62,3.32,3.32,0,0,0-.47,1.15,7.42,7.42,0,0,0-.18,1.77,7.3,7.3,0,0,0,.18,1.77,3.32,3.32,0,0,0,.47,1.15,1.71,1.71,0,0,0,.7.62,1.84,1.84,0,0,0,.83.19,1.77,1.77,0,0,0,.8-.19,1.7,1.7,0,0,0,.67-.62,3.53,3.53,0,0,0,.47-1.15,7.91,7.91,0,0,0,.17-1.77,7.56,7.56,0,0,0-.17-1.7,3.79,3.79,0,0,0-.47-1.16,1.91,1.91,0,0,0-.67-.66A1.68,1.68,0,0,0,14.27,505.52Z" transform="translate(-3.82 -176.98)"/><path class="cls-3" d="M21.26,512a1.48,1.48,0,0,1,.59.12,1.72,1.72,0,0,1,.49.34,1.54,1.54,0,0,1,.34.49,1.48,1.48,0,0,1,.12.59,1.53,1.53,0,0,1-.12.6,1.7,1.7,0,0,1-.34.5,1.54,1.54,0,0,1-.49.34,1.48,1.48,0,0,1-.59.12,1.59,1.59,0,0,1-1.43-1,1.38,1.38,0,0,1-.13-.6,1.34,1.34,0,0,1,.13-.59,1.39,1.39,0,0,1,.34-.49,1.72,1.72,0,0,1,.49-.34A1.53,1.53,0,0,1,21.26,512Z" transform="translate(-3.82 -176.98)"/><path class="cls-3" d="M28.3,503.45a4.1,4.1,0,0,1,1.67.35,3.69,3.69,0,0,1,1.38,1.05,5.25,5.25,0,0,1,.94,1.81,8.65,8.65,0,0,1,.34,2.59,9,9,0,0,1-.34,2.66,5,5,0,0,1-.94,1.8,3.6,3.6,0,0,1-1.38,1,4.43,4.43,0,0,1-1.67.32,4.68,4.68,0,0,1-1.71-.32,3.75,3.75,0,0,1-1.4-1,5.19,5.19,0,0,1-1-1.8,10.28,10.28,0,0,1,0-5.32,5.29,5.29,0,0,1,1-1.8,3.75,3.75,0,0,1,1.4-1A4.68,4.68,0,0,1,28.3,503.45Zm0,2.07a2,2,0,0,0-.83.19,1.85,1.85,0,0,0-.7.62,3.53,3.53,0,0,0-.47,1.15,7.42,7.42,0,0,0-.18,1.77A7.3,7.3,0,0,0,26.3,511a3.53,3.53,0,0,0,.47,1.15,1.77,1.77,0,0,0,.7.62,1.84,1.84,0,0,0,.83.19,1.74,1.74,0,0,0,.8-.19,1.7,1.7,0,0,0,.67-.62,3.53,3.53,0,0,0,.47-1.15,7.91,7.91,0,0,0,.17-1.77,7.56,7.56,0,0,0-.17-1.7,3.79,3.79,0,0,0-.47-1.16,1.91,1.91,0,0,0-.67-.66A1.65,1.65,0,0,0,28.3,505.52Z" transform="translate(-3.82 -176.98)"/><path class="cls-3" d="M36.78,503.45a3.34,3.34,0,0,1,1.24.23,3.19,3.19,0,0,1,1,.64,3.09,3.09,0,0,1,.66,1,3,3,0,0,1,.24,1.21,3.05,3.05,0,0,1-.24,1.22,2.88,2.88,0,0,1-.66,1,3,3,0,0,1-1,.64,3.46,3.46,0,0,1-2.48,0,3,3,0,0,1-1-.64,2.88,2.88,0,0,1-.66-1,3.23,3.23,0,0,1-.23-1.22,3.18,3.18,0,0,1,.23-1.21,3.09,3.09,0,0,1,.66-1,3.19,3.19,0,0,1,1-.64A3.34,3.34,0,0,1,36.78,503.45Zm0,1.67a1.41,1.41,0,0,0-.54.11,1.39,1.39,0,0,0-.43.28,1.33,1.33,0,0,0-.28.44,1.63,1.63,0,0,0-.1.55,1.69,1.69,0,0,0,.1.56,1.33,1.33,0,0,0,.28.44,1.42,1.42,0,0,0,.43.29,1.4,1.4,0,0,0,.54.1,1.33,1.33,0,0,0,.54-.1,1.3,1.3,0,0,0,.43-.29,1.33,1.33,0,0,0,.28-.44,1.47,1.47,0,0,0,.1-.56A1.42,1.42,0,0,0,38,506a1.33,1.33,0,0,0-.28-.44,1.28,1.28,0,0,0-.43-.28A1.33,1.33,0,0,0,36.78,505.12Zm1.49,9.73h-2.1l7.51-11.2h2.09Zm6.92-5.91a3.37,3.37,0,0,1,1.24.23,3.19,3.19,0,0,1,1,.64,3,3,0,0,1,.66,1,3.32,3.32,0,0,1,0,2.43,2.88,2.88,0,0,1-.66,1,3,3,0,0,1-1,.64,3.37,3.37,0,0,1-1.24.23,3.34,3.34,0,0,1-1.24-.23,3,3,0,0,1-1-.64,2.88,2.88,0,0,1-.66-1,3.22,3.22,0,0,1-.23-1.21,3.18,3.18,0,0,1,.23-1.21,3,3,0,0,1,.66-1,3,3,0,0,1,1-.64A3.15,3.15,0,0,1,45.19,508.94Zm0,1.67a1.37,1.37,0,0,0-.54.11,1.28,1.28,0,0,0-.43.28,1.44,1.44,0,0,0-.28.44,1.59,1.59,0,0,0,0,1.11,1.33,1.33,0,0,0,.28.44,1.3,1.3,0,0,0,.43.29,1.37,1.37,0,0,0,.54.1,1.4,1.4,0,0,0,.54-.1,1.3,1.3,0,0,0,.43-.29,1.33,1.33,0,0,0,.28-.44,1.59,1.59,0,0,0,0-1.11,1.44,1.44,0,0,0-.28-.44,1.28,1.28,0,0,0-.43-.28A1.41,1.41,0,0,0,45.19,510.61Z" transform="translate(-3.82 -176.98)"/><path class="cls-3" d="M13.67,472v-6.43l-2.79,1v-2.15l4.94-1.74V472h2.53v2H11v-2Z" transform="translate(-3.82 -176.98)"/><path class="cls-3" d="M21.26,471.14a1.48,1.48,0,0,1,.59.12,1.72,1.72,0,0,1,.49.34,1.66,1.66,0,0,1,.34.49,1.54,1.54,0,0,1,0,1.19,1.58,1.58,0,0,1-.34.5,1.54,1.54,0,0,1-.49.34,1.48,1.48,0,0,1-.59.12,1.49,1.49,0,0,1-1.09-.46,1.43,1.43,0,0,1-.34-.5,1.43,1.43,0,0,1,0-1.19,1.49,1.49,0,0,1,.34-.49,1.72,1.72,0,0,1,.49-.34A1.53,1.53,0,0,1,21.26,471.14Z" transform="translate(-3.82 -176.98)"/><path class="cls-3" d="M28.3,462.64A4.1,4.1,0,0,1,30,463,3.69,3.69,0,0,1,31.35,464a5.25,5.25,0,0,1,.94,1.81,8.7,8.7,0,0,1,.34,2.59,9,9,0,0,1-.34,2.66,4.94,4.94,0,0,1-.94,1.8,3.6,3.6,0,0,1-1.38,1,4.25,4.25,0,0,1-1.67.32,4.48,4.48,0,0,1-1.71-.32,3.75,3.75,0,0,1-1.4-1,5.1,5.1,0,0,1-1-1.8,10.28,10.28,0,0,1,0-5.32,5.29,5.29,0,0,1,1-1.8,3.75,3.75,0,0,1,1.4-1A4.68,4.68,0,0,1,28.3,462.64Zm0,2.08a2,2,0,0,0-.83.18,1.94,1.94,0,0,0-.7.62,3.62,3.62,0,0,0-.47,1.15,8.84,8.84,0,0,0,0,3.55,3.46,3.46,0,0,0,.47,1.14,1.77,1.77,0,0,0,.7.62,1.84,1.84,0,0,0,.83.19,1.74,1.74,0,0,0,.8-.19,1.7,1.7,0,0,0,.67-.62,3.46,3.46,0,0,0,.47-1.14,8.07,8.07,0,0,0,.17-1.78,7.62,7.62,0,0,0-.17-1.7,3.9,3.9,0,0,0-.47-1.16,1.91,1.91,0,0,0-.67-.66A1.76,1.76,0,0,0,28.3,464.72Z" transform="translate(-3.82 -176.98)"/><path class="cls-3" d="M36.78,462.64a3.15,3.15,0,0,1,1.24.24,2.86,2.86,0,0,1,1,.64,2.94,2.94,0,0,1,.66,1,3,3,0,0,1,.24,1.21,3.14,3.14,0,0,1-.24,1.23,2.94,2.94,0,0,1-.66,1,2.86,2.86,0,0,1-1,.64,3.32,3.32,0,0,1-2.48,0,2.86,2.86,0,0,1-1-.64,2.94,2.94,0,0,1-.66-1,3.32,3.32,0,0,1-.23-1.23,3.18,3.18,0,0,1,.23-1.21,2.94,2.94,0,0,1,.66-1,2.86,2.86,0,0,1,1-.64A3.15,3.15,0,0,1,36.78,462.64Zm0,1.68a1.36,1.36,0,0,0-1,.38,1.33,1.33,0,0,0-.28.44,1.59,1.59,0,0,0,0,1.11,1.33,1.33,0,0,0,.28.44,1.42,1.42,0,0,0,.43.29,1.4,1.4,0,0,0,.54.1,1.33,1.33,0,0,0,.54-.1,1.3,1.3,0,0,0,.43-.29,1.33,1.33,0,0,0,.28-.44,1.47,1.47,0,0,0,.1-.56,1.45,1.45,0,0,0-.1-.55,1.33,1.33,0,0,0-.28-.44,1.28,1.28,0,0,0-.43-.28A1.33,1.33,0,0,0,36.78,464.32ZM38.27,474h-2.1l7.51-11.2h2.09Zm6.92-5.91a3.37,3.37,0,0,1,1.24.23,3.19,3.19,0,0,1,1,.64,3,3,0,0,1,.89,2.19,3,3,0,0,1-.23,1.21,2.88,2.88,0,0,1-.66,1,3,3,0,0,1-1,.64,3.18,3.18,0,0,1-1.24.23A3.15,3.15,0,0,1,44,474a3,3,0,0,1-1-.64,2.88,2.88,0,0,1-.66-1,3.18,3.18,0,0,1-.23-1.21A3.22,3.22,0,0,1,42.3,470a3,3,0,0,1,.66-1,3.19,3.19,0,0,1,1-.64A3.15,3.15,0,0,1,45.19,468.13Zm0,1.67a1.37,1.37,0,0,0-.54.11,1.17,1.17,0,0,0-.43.29,1.28,1.28,0,0,0-.28.43,1.69,1.69,0,0,0-.1.56,1.58,1.58,0,0,0,.1.55,1.33,1.33,0,0,0,.28.44,1.3,1.3,0,0,0,.43.29,1.37,1.37,0,0,0,.54.1,1.4,1.4,0,0,0,.54-.1,1.3,1.3,0,0,0,.43-.29,1.33,1.33,0,0,0,.28-.44,1.58,1.58,0,0,0,.1-.55,1.69,1.69,0,0,0-.1-.56,1.28,1.28,0,0,0-.28-.43,1.17,1.17,0,0,0-.43-.29A1.41,1.41,0,0,0,45.19,469.8Z" transform="translate(-3.82 -176.98)"/><path class="cls-3" d="M10.2,423.76a7.29,7.29,0,0,1,.56-.63,4.28,4.28,0,0,1,.8-.63,5,5,0,0,1,1.07-.48,5,5,0,0,1,1.4-.18,4.4,4.4,0,0,1,1.58.26,3.47,3.47,0,0,1,1.2.74,3.28,3.28,0,0,1,.75,1.14,3.92,3.92,0,0,1,.27,1.47,3.32,3.32,0,0,1-.13,1,3.79,3.79,0,0,1-.34.84,4.52,4.52,0,0,1-.51.75c-.2.24-.41.48-.64.72l-2.39,2.49H18.1v2H10.7v-1.69l4-4.06a3.46,3.46,0,0,0,.68-.92,2.17,2.17,0,0,0,.24-1,1.63,1.63,0,0,0-.13-.67,1.55,1.55,0,0,0-.34-.53,1.68,1.68,0,0,0-.54-.35,2,2,0,0,0-.7-.12,2.39,2.39,0,0,0-.73.1,2.88,2.88,0,0,0-.59.27,3.14,3.14,0,0,0-.51.39l-.45.47Z" transform="translate(-3.82 -176.98)"/><path class="cls-3" d="M21.26,430.33a1.34,1.34,0,0,1,.59.13,1.51,1.51,0,0,1,.49.33,1.66,1.66,0,0,1,.34.49,1.54,1.54,0,0,1,0,1.19,1.58,1.58,0,0,1-.34.5,1.39,1.39,0,0,1-.49.34,1.49,1.49,0,0,1-.59.13,1.54,1.54,0,0,1-.6-.13,1.39,1.39,0,0,1-.49-.34,1.43,1.43,0,0,1-.34-.5,1.43,1.43,0,0,1,0-1.19,1.49,1.49,0,0,1,.34-.49,1.51,1.51,0,0,1,.49-.33A1.38,1.38,0,0,1,21.26,430.33Z" transform="translate(-3.82 -176.98)"/><path class="cls-3" d="M28.3,421.84a4.09,4.09,0,0,1,1.67.34,3.61,3.61,0,0,1,1.38,1.06,5.11,5.11,0,0,1,.94,1.8,8.72,8.72,0,0,1,.34,2.6,9,9,0,0,1-.34,2.66,5,5,0,0,1-.94,1.79,3.41,3.41,0,0,1-1.38,1,4.25,4.25,0,0,1-1.67.33,4.49,4.49,0,0,1-1.71-.33,3.54,3.54,0,0,1-1.4-1,5.14,5.14,0,0,1-1-1.79,10.28,10.28,0,0,1,0-5.32,5.1,5.1,0,0,1,1-1.8,3.54,3.54,0,0,1,1.4-1A4.48,4.48,0,0,1,28.3,421.84Zm0,2.07a1.84,1.84,0,0,0-.83.19,1.77,1.77,0,0,0-.7.62,3.46,3.46,0,0,0-.47,1.14,8.84,8.84,0,0,0,0,3.55,3.62,3.62,0,0,0,.47,1.15,1.94,1.94,0,0,0,.7.62,2,2,0,0,0,.83.18,1.67,1.67,0,0,0,1.47-.8,3.62,3.62,0,0,0,.47-1.15,8,8,0,0,0,.17-1.77,7.5,7.5,0,0,0-.17-1.7,3.69,3.69,0,0,0-.47-1.16,1.76,1.76,0,0,0-.67-.66A1.65,1.65,0,0,0,28.3,423.91Z" transform="translate(-3.82 -176.98)"/><path class="cls-3" d="M36.78,421.84a3.15,3.15,0,0,1,1.24.23,3,3,0,0,1,1,.64,2.94,2.94,0,0,1,.66,1,3,3,0,0,1,.24,1.21,3,3,0,0,1-.9,2.2,3.19,3.19,0,0,1-1,.64,3.46,3.46,0,0,1-2.48,0,3.19,3.19,0,0,1-1-.64,3.09,3.09,0,0,1-.66-1,3.28,3.28,0,0,1-.23-1.23,3.22,3.22,0,0,1,.23-1.21,2.94,2.94,0,0,1,.66-1,3,3,0,0,1,1-.64A3.15,3.15,0,0,1,36.78,421.84Zm0,1.67a1.4,1.4,0,0,0-.54.1,1.42,1.42,0,0,0-.43.29,1.28,1.28,0,0,0-.28.43,1.68,1.68,0,0,0-.1.55,1.64,1.64,0,0,0,.1.56,1.33,1.33,0,0,0,.28.44,1.26,1.26,0,0,0,.43.29,1.41,1.41,0,0,0,.54.11,1.33,1.33,0,0,0,.54-.11,1.17,1.17,0,0,0,.43-.29,1.33,1.33,0,0,0,.28-.44,1.43,1.43,0,0,0,.1-.56,1.45,1.45,0,0,0-.1-.55,1.28,1.28,0,0,0-.28-.43,1.3,1.3,0,0,0-.43-.29A1.33,1.33,0,0,0,36.78,423.51Zm1.49,9.73h-2.1L43.68,422h2.09Zm6.92-5.92a3.19,3.19,0,0,1,1.24.24,2.86,2.86,0,0,1,1,.64,2.94,2.94,0,0,1,.66,1,3.35,3.35,0,0,1,0,2.44,2.94,2.94,0,0,1-.66,1,2.86,2.86,0,0,1-1,.64,3.19,3.19,0,0,1-1.24.24A3.15,3.15,0,0,1,44,433.2a2.86,2.86,0,0,1-1-.64,2.94,2.94,0,0,1-.66-1,3.27,3.27,0,0,1-.23-1.22,3.22,3.22,0,0,1,.23-1.21,3.09,3.09,0,0,1,.66-1,3.19,3.19,0,0,1,1-.64A3.15,3.15,0,0,1,45.19,427.32Zm0,1.68a1.37,1.37,0,0,0-.54.1,1.17,1.17,0,0,0-.43.29,1.39,1.39,0,0,0-.28.43,1.62,1.62,0,0,0,0,1.12,1.39,1.39,0,0,0,.28.43,1.3,1.3,0,0,0,.43.29,1.37,1.37,0,0,0,.54.1,1.4,1.4,0,0,0,.54-.1,1.3,1.3,0,0,0,.43-.29,1.39,1.39,0,0,0,.28-.43,1.62,1.62,0,0,0,0-1.12,1.39,1.39,0,0,0-.28-.43,1.17,1.17,0,0,0-.43-.29A1.4,1.4,0,0,0,45.19,429Z" transform="translate(-3.82 -176.98)"/><path class="cls-3" d="M13.9,381a5.09,5.09,0,0,1,1.61.23,3.76,3.76,0,0,1,1.26.65,2.92,2.92,0,0,1,.81,1,3,3,0,0,1,.29,1.32,2.62,2.62,0,0,1-.45,1.54,3,3,0,0,1-1.23,1,3.29,3.29,0,0,1,1.41,1,2.49,2.49,0,0,1,.51,1.57,2.89,2.89,0,0,1-.34,1.44,3.13,3.13,0,0,1-.93,1,4.22,4.22,0,0,1-1.32.61,6,6,0,0,1-1.53.2,5.64,5.64,0,0,1-2.27-.43,4.2,4.2,0,0,1-1.65-1.2l1.29-1.41a3.51,3.51,0,0,0,2.55,1.07,3.1,3.1,0,0,0,.76-.09,1.85,1.85,0,0,0,.62-.27,1.29,1.29,0,0,0,.42-.45,1.25,1.25,0,0,0,.16-.65,1.11,1.11,0,0,0-.18-.63,1.48,1.48,0,0,0-.47-.46,2.38,2.38,0,0,0-.69-.28,3.91,3.91,0,0,0-.86-.09h-1.3v-1.92h1.31a3.19,3.19,0,0,0,.77-.09,2,2,0,0,0,.62-.27,1.35,1.35,0,0,0,.42-.44,1.36,1.36,0,0,0,0-1.22,1.21,1.21,0,0,0-.4-.44,1.78,1.78,0,0,0-.59-.27,2.73,2.73,0,0,0-.72-.09,2.81,2.81,0,0,0-.73.09,2.44,2.44,0,0,0-.62.25,2.68,2.68,0,0,0-.52.36,3.19,3.19,0,0,0-.4.43l-1.36-1.37a4.53,4.53,0,0,1,.64-.68,4.31,4.31,0,0,1,.83-.56,5.2,5.2,0,0,1,1-.36A5.36,5.36,0,0,1,13.9,381Z" transform="translate(-3.82 -176.98)"/><path class="cls-3" d="M21.26,389.52a1.34,1.34,0,0,1,.59.13,1.51,1.51,0,0,1,.49.33,1.58,1.58,0,0,1,.34.5,1.45,1.45,0,0,1,.12.59,1.48,1.48,0,0,1-.12.59,1.58,1.58,0,0,1-.34.5,1.39,1.39,0,0,1-.49.34,1.34,1.34,0,0,1-.59.13,1.38,1.38,0,0,1-.6-.13,1.39,1.39,0,0,1-.49-.34,1.43,1.43,0,0,1-.34-.5,1.34,1.34,0,0,1-.13-.59,1.31,1.31,0,0,1,.13-.59,1.43,1.43,0,0,1,.34-.5,1.51,1.51,0,0,1,.49-.33A1.38,1.38,0,0,1,21.26,389.52Z" transform="translate(-3.82 -176.98)"/><path class="cls-3" d="M28.3,381a4.09,4.09,0,0,1,1.67.34,3.61,3.61,0,0,1,1.38,1.06,5.07,5.07,0,0,1,.94,1.81,8.65,8.65,0,0,1,.34,2.59,9,9,0,0,1-.34,2.66,5,5,0,0,1-.94,1.79,3.41,3.41,0,0,1-1.38,1,4.25,4.25,0,0,1-1.67.33,4.49,4.49,0,0,1-1.71-.33,3.54,3.54,0,0,1-1.4-1,5.14,5.14,0,0,1-1-1.79,10.28,10.28,0,0,1,0-5.32,5.1,5.1,0,0,1,1-1.8,3.54,3.54,0,0,1,1.4-1A4.48,4.48,0,0,1,28.3,381Zm0,2.07a1.84,1.84,0,0,0-.83.19,1.77,1.77,0,0,0-.7.62,3.53,3.53,0,0,0-.47,1.15,7.3,7.3,0,0,0-.18,1.77,7.42,7.42,0,0,0,.18,1.77,3.53,3.53,0,0,0,.47,1.15,1.85,1.85,0,0,0,.7.62,2,2,0,0,0,.83.19,1.88,1.88,0,0,0,.8-.19,1.78,1.78,0,0,0,.67-.62,3.53,3.53,0,0,0,.47-1.15,8,8,0,0,0,.17-1.77,7.56,7.56,0,0,0-.17-1.7,3.79,3.79,0,0,0-.47-1.16,1.91,1.91,0,0,0-.67-.66A1.65,1.65,0,0,0,28.3,383.1Z" transform="translate(-3.82 -176.98)"/><path class="cls-3" d="M36.78,381a3.15,3.15,0,0,1,1.24.23,3,3,0,0,1,1,.64,2.94,2.94,0,0,1,.66,1,3.22,3.22,0,0,1,0,2.44,3,3,0,0,1-.66,1,3.19,3.19,0,0,1-1,.64,3.46,3.46,0,0,1-2.48,0,3.19,3.19,0,0,1-1-.64,3,3,0,0,1-.66-1,3.35,3.35,0,0,1,0-2.44,2.94,2.94,0,0,1,.66-1,3,3,0,0,1,1-.64A3.15,3.15,0,0,1,36.78,381Zm0,1.67a1.4,1.4,0,0,0-.54.1,1.42,1.42,0,0,0-.43.29,1.28,1.28,0,0,0-.28.43,1.69,1.69,0,0,0-.1.56,1.74,1.74,0,0,0,.1.56,1.44,1.44,0,0,0,.28.44,1.39,1.39,0,0,0,.43.28,1.41,1.41,0,0,0,.54.11,1.33,1.33,0,0,0,.54-.11,1.28,1.28,0,0,0,.43-.28,1.44,1.44,0,0,0,.28-.44,1.5,1.5,0,0,0,.1-.56,1.47,1.47,0,0,0-.1-.56,1.28,1.28,0,0,0-.28-.43,1.3,1.3,0,0,0-.43-.29A1.33,1.33,0,0,0,36.78,382.7Zm1.49,9.73h-2.1l7.51-11.2h2.09Zm6.92-5.91a3.18,3.18,0,0,1,1.24.23,3,3,0,0,1,1,.64,2.88,2.88,0,0,1,.66,1,3,3,0,0,1,.23,1.21,3,3,0,0,1-.89,2.19,3.19,3.19,0,0,1-1,.64,3.37,3.37,0,0,1-1.24.23A3.34,3.34,0,0,1,44,392.4a3.19,3.19,0,0,1-1-.64,3.09,3.09,0,0,1-.66-1,3.32,3.32,0,0,1,0-2.43,2.94,2.94,0,0,1,.66-1,3,3,0,0,1,1-.65A3.15,3.15,0,0,1,45.19,386.52Zm0,1.67a1.37,1.37,0,0,0-.54.1,1.3,1.3,0,0,0-.43.29,1.33,1.33,0,0,0-.28.44,1.58,1.58,0,0,0-.1.55,1.69,1.69,0,0,0,.1.56,1.28,1.28,0,0,0,.28.43,1.17,1.17,0,0,0,.43.29,1.37,1.37,0,0,0,.54.11,1.41,1.41,0,0,0,.54-.11,1.17,1.17,0,0,0,.43-.29,1.28,1.28,0,0,0,.28-.43,1.69,1.69,0,0,0,.1-.56,1.58,1.58,0,0,0-.1-.55,1.33,1.33,0,0,0-.28-.44,1.3,1.3,0,0,0-.43-.29A1.4,1.4,0,0,0,45.19,388.19Z" transform="translate(-3.82 -176.98)"/><path class="cls-3" d="M17,347.55h1.56v2H17v2.05H14.86v-2.05h-5V348l3.93-7.57h2.4l-3.75,7.12h2.39v-3H17Z" transform="translate(-3.82 -176.98)"/><path class="cls-3" d="M21.26,348.71a1.49,1.49,0,0,1,.59.13,1.51,1.51,0,0,1,.49.33,1.7,1.7,0,0,1,.34.5,1.51,1.51,0,0,1,0,1.18,1.58,1.58,0,0,1-.34.5,1.39,1.39,0,0,1-.49.34,1.34,1.34,0,0,1-.59.13,1.38,1.38,0,0,1-.6-.13,1.39,1.39,0,0,1-.49-.34,1.43,1.43,0,0,1-.34-.5,1.4,1.4,0,0,1,0-1.18,1.53,1.53,0,0,1,.34-.5,1.51,1.51,0,0,1,.49-.33A1.54,1.54,0,0,1,21.26,348.71Z" transform="translate(-3.82 -176.98)"/><path class="cls-3" d="M28.3,340.22a4.09,4.09,0,0,1,1.67.34,3.61,3.61,0,0,1,1.38,1.06,5.16,5.16,0,0,1,.94,1.81,8.65,8.65,0,0,1,.34,2.59,9,9,0,0,1-.34,2.66,5,5,0,0,1-.94,1.79,3.41,3.41,0,0,1-1.38,1,4.25,4.25,0,0,1-1.67.33,4.49,4.49,0,0,1-1.71-.33,3.54,3.54,0,0,1-1.4-1,5.14,5.14,0,0,1-1-1.79,10.28,10.28,0,0,1,0-5.32,5.29,5.29,0,0,1,1-1.8,3.54,3.54,0,0,1,1.4-1A4.68,4.68,0,0,1,28.3,340.22Zm0,2.07a1.84,1.84,0,0,0-.83.19,1.77,1.77,0,0,0-.7.62,3.53,3.53,0,0,0-.47,1.15,7.3,7.3,0,0,0-.18,1.77,7.42,7.42,0,0,0,.18,1.77,3.53,3.53,0,0,0,.47,1.15,1.85,1.85,0,0,0,.7.62,2,2,0,0,0,.83.19,1.88,1.88,0,0,0,.8-.19,1.78,1.78,0,0,0,.67-.62,3.53,3.53,0,0,0,.47-1.15,8,8,0,0,0,.17-1.77,7.56,7.56,0,0,0-.17-1.7,3.79,3.79,0,0,0-.47-1.16,1.91,1.91,0,0,0-.67-.66A1.65,1.65,0,0,0,28.3,342.29Z" transform="translate(-3.82 -176.98)"/><path class="cls-3" d="M36.78,340.22a3.34,3.34,0,0,1,1.24.23,3.19,3.19,0,0,1,1,.64,2.94,2.94,0,0,1,.66,1,3.09,3.09,0,0,1,.24,1.22,3.05,3.05,0,0,1-.24,1.22,3,3,0,0,1-.66,1,3.19,3.19,0,0,1-1,.64,3.46,3.46,0,0,1-2.48,0,3.19,3.19,0,0,1-1-.64,3,3,0,0,1-.66-1,3.23,3.23,0,0,1-.23-1.22,3.27,3.27,0,0,1,.23-1.22,2.94,2.94,0,0,1,.66-1,3.19,3.19,0,0,1,1-.64A3.34,3.34,0,0,1,36.78,340.22Zm0,1.67a1.62,1.62,0,0,0-.54.1,1.42,1.42,0,0,0-.43.29,1.28,1.28,0,0,0-.28.43,1.74,1.74,0,0,0-.1.56,1.69,1.69,0,0,0,.1.56,1.44,1.44,0,0,0,.28.44,1.23,1.23,0,0,0,.43.28,1.41,1.41,0,0,0,.54.11,1.33,1.33,0,0,0,.54-.11,1.15,1.15,0,0,0,.43-.28,1.44,1.44,0,0,0,.28-.44,1.47,1.47,0,0,0,.1-.56,1.5,1.5,0,0,0-.1-.56,1.28,1.28,0,0,0-.28-.43,1.3,1.3,0,0,0-.43-.29A1.53,1.53,0,0,0,36.78,341.89Zm1.49,9.73h-2.1l7.51-11.2h2.09Zm6.92-5.91a3.18,3.18,0,0,1,1.24.23,3,3,0,0,1,1,.64,2.88,2.88,0,0,1,.66,1,3.32,3.32,0,0,1,0,2.43,3.09,3.09,0,0,1-.66,1,3.19,3.19,0,0,1-1,.64,3.37,3.37,0,0,1-1.24.23,3.34,3.34,0,0,1-1.24-.23,3.19,3.19,0,0,1-1-.64,3.09,3.09,0,0,1-.66-1,3.32,3.32,0,0,1,0-2.43,2.94,2.94,0,0,1,.66-1,3,3,0,0,1,1-.65A3.34,3.34,0,0,1,45.19,345.71Zm0,1.67a1.37,1.37,0,0,0-.54.1,1.3,1.3,0,0,0-.43.29,1.33,1.33,0,0,0-.28.44,1.58,1.58,0,0,0-.1.55,1.64,1.64,0,0,0,.1.56,1.28,1.28,0,0,0,.28.43,1.17,1.17,0,0,0,.43.29,1.37,1.37,0,0,0,.54.11,1.41,1.41,0,0,0,.54-.11,1.17,1.17,0,0,0,.43-.29,1.28,1.28,0,0,0,.28-.43,1.64,1.64,0,0,0,.1-.56,1.58,1.58,0,0,0-.1-.55,1.33,1.33,0,0,0-.28-.44,1.3,1.3,0,0,0-.43-.29A1.4,1.4,0,0,0,45.19,347.38Z" transform="translate(-3.82 -176.98)"/><path class="cls-3" d="M17.52,301.62H13l-.05,2.24h1.29a5.21,5.21,0,0,1,1.71.26,3.7,3.7,0,0,1,1.23.72,3,3,0,0,1,.73,1.07,3.41,3.41,0,0,1,.25,1.32,3.87,3.87,0,0,1-.32,1.6A3.52,3.52,0,0,1,17,310a3.87,3.87,0,0,1-1.3.74,4.9,4.9,0,0,1-1.59.25,5.67,5.67,0,0,1-2.27-.44,4.86,4.86,0,0,1-1.7-1.23l1.22-1.51a3,3,0,0,0,.53.46,4.84,4.84,0,0,0,.67.38,4.83,4.83,0,0,0,.76.25A3.44,3.44,0,0,0,14,309a2.31,2.31,0,0,0,.82-.13,1.53,1.53,0,0,0,.58-.35,1.41,1.41,0,0,0,.35-.52,1.59,1.59,0,0,0,.12-.62,1.73,1.73,0,0,0-.11-.6,1.22,1.22,0,0,0-.37-.51,2,2,0,0,0-.71-.34,3.78,3.78,0,0,0-1.09-.13H11l.12-6.2h6.44Z" transform="translate(-3.82 -176.98)"/><path class="cls-3" d="M21.26,307.91a1.48,1.48,0,0,1,.59.12,1.39,1.39,0,0,1,.49.34,1.54,1.54,0,0,1,.34.49,1.45,1.45,0,0,1,.12.59,1.53,1.53,0,0,1-.12.6,1.65,1.65,0,0,1-.83.84,1.48,1.48,0,0,1-.59.12,1.53,1.53,0,0,1-.6-.12,1.72,1.72,0,0,1-.49-.34,1.53,1.53,0,0,1-.34-.5,1.38,1.38,0,0,1-.13-.6,1.31,1.31,0,0,1,.13-.59,1.68,1.68,0,0,1,.83-.83A1.53,1.53,0,0,1,21.26,307.91Z" transform="translate(-3.82 -176.98)"/><path class="cls-3" d="M28.3,299.41a4.09,4.09,0,0,1,1.67.34,3.71,3.71,0,0,1,1.38,1.06,5.16,5.16,0,0,1,.94,1.81,8.65,8.65,0,0,1,.34,2.59,9,9,0,0,1-.34,2.66,5.11,5.11,0,0,1-.94,1.8,3.6,3.6,0,0,1-1.38,1,4.43,4.43,0,0,1-1.67.32,4.68,4.68,0,0,1-1.71-.32,3.75,3.75,0,0,1-1.4-1,5.29,5.29,0,0,1-1-1.8,10.28,10.28,0,0,1,0-5.32,5.29,5.29,0,0,1,1-1.8,3.54,3.54,0,0,1,1.4-1A4.68,4.68,0,0,1,28.3,299.41Zm0,2.07a1.81,1.81,0,0,0-1.53.81,3.53,3.53,0,0,0-.47,1.15,8.79,8.79,0,0,0,0,3.54,3.53,3.53,0,0,0,.47,1.15,1.81,1.81,0,0,0,1.53.81,1.74,1.74,0,0,0,.8-.19,1.78,1.78,0,0,0,.67-.62,3.53,3.53,0,0,0,.47-1.15,8,8,0,0,0,.17-1.77,7.56,7.56,0,0,0-.17-1.7,3.79,3.79,0,0,0-.47-1.16,1.91,1.91,0,0,0-.67-.66A1.65,1.65,0,0,0,28.3,301.48Z" transform="translate(-3.82 -176.98)"/><path class="cls-3" d="M36.78,299.41a3.34,3.34,0,0,1,1.24.23,3.19,3.19,0,0,1,1,.64,3,3,0,0,1,.9,2.18,3.05,3.05,0,0,1-.24,1.22,2.88,2.88,0,0,1-.66,1,3,3,0,0,1-1,.64,3.46,3.46,0,0,1-2.48,0,3,3,0,0,1-1-.64,2.88,2.88,0,0,1-.66-1,3.23,3.23,0,0,1-.23-1.22,3.18,3.18,0,0,1,.23-1.21,3,3,0,0,1,.66-1,3.19,3.19,0,0,1,1-.64A3.34,3.34,0,0,1,36.78,299.41Zm0,1.67a1.41,1.41,0,0,0-.54.11,1.39,1.39,0,0,0-.43.28,1.33,1.33,0,0,0-.28.44,1.63,1.63,0,0,0-.1.55,1.69,1.69,0,0,0,.1.56,1.33,1.33,0,0,0,.28.44,1.42,1.42,0,0,0,.43.29,1.4,1.4,0,0,0,.54.1,1.33,1.33,0,0,0,.54-.1,1.3,1.3,0,0,0,.43-.29A1.33,1.33,0,0,0,38,303a1.47,1.47,0,0,0,.1-.56,1.42,1.42,0,0,0-.1-.55,1.33,1.33,0,0,0-.28-.44,1.28,1.28,0,0,0-.43-.28A1.33,1.33,0,0,0,36.78,301.08Zm1.49,9.73h-2.1l7.51-11.2h2.09Zm6.92-5.91a3.37,3.37,0,0,1,1.24.23,3,3,0,0,1,1,.64,2.88,2.88,0,0,1,.66,1,3.32,3.32,0,0,1,0,2.43,3,3,0,0,1-.66,1,3.19,3.19,0,0,1-1,.64,3.37,3.37,0,0,1-1.24.23,3.34,3.34,0,0,1-1.24-.23,3.19,3.19,0,0,1-1-.64,3,3,0,0,1-.66-1,3.23,3.23,0,0,1-.23-1.22,3.17,3.17,0,0,1,.23-1.2,2.88,2.88,0,0,1,.66-1,3.21,3.21,0,0,1,1-.65A3.34,3.34,0,0,1,45.19,304.9Zm0,1.67a1.37,1.37,0,0,0-.54.1,1.3,1.3,0,0,0-.43.29,1.33,1.33,0,0,0-.28.44,1.59,1.59,0,0,0,0,1.11,1.44,1.44,0,0,0,.28.44,1.15,1.15,0,0,0,.43.28,1.37,1.37,0,0,0,.54.11,1.41,1.41,0,0,0,.54-.11,1.15,1.15,0,0,0,.43-.28,1.44,1.44,0,0,0,.28-.44,1.59,1.59,0,0,0,0-1.11,1.33,1.33,0,0,0-.28-.44,1.3,1.3,0,0,0-.43-.29A1.4,1.4,0,0,0,45.19,306.57Z" transform="translate(-3.82 -176.98)"/><path class="cls-3" d="M14,262.7l.24,0h.28a4.2,4.2,0,0,1,1.56.28,3.88,3.88,0,0,1,1.23.79,3.57,3.57,0,0,1,.8,1.18,3.78,3.78,0,0,1,.29,1.47,3.66,3.66,0,0,1-.32,1.52,3.55,3.55,0,0,1-.89,1.21,4,4,0,0,1-1.33.79,4.6,4.6,0,0,1-1.68.29,4.7,4.7,0,0,1-1.66-.28,4,4,0,0,1-1.33-.79,3.65,3.65,0,0,1-.89-1.2,3.57,3.57,0,0,1-.32-1.5,4,4,0,0,1,.28-1.49,7.74,7.74,0,0,1,.79-1.49l3.1-4.65h2.61Zm.18,1.86a2.19,2.19,0,0,0-.77.14,2,2,0,0,0-.62.38,1.61,1.61,0,0,0-.41.58,1.78,1.78,0,0,0-.15.74,1.86,1.86,0,0,0,.15.75,1.61,1.61,0,0,0,.41.58,2.15,2.15,0,0,0,.62.38,2.19,2.19,0,0,0,.77.13,2.22,2.22,0,0,0,.79-.13,2.15,2.15,0,0,0,.62-.38,1.61,1.61,0,0,0,.41-.58,1.86,1.86,0,0,0,.15-.75,1.78,1.78,0,0,0-.15-.74,1.61,1.61,0,0,0-.41-.58,2,2,0,0,0-.62-.38A2.22,2.22,0,0,0,14.2,264.56Z" transform="translate(-3.82 -176.98)"/><path class="cls-3" d="M21.26,267.1a1.48,1.48,0,0,1,.59.12,1.68,1.68,0,0,1,.83.83,1.48,1.48,0,0,1,.12.59,1.53,1.53,0,0,1-.12.6,1.65,1.65,0,0,1-.83.84,1.48,1.48,0,0,1-.59.12,1.53,1.53,0,0,1-.6-.12,1.72,1.72,0,0,1-.49-.34,1.53,1.53,0,0,1-.34-.5,1.38,1.38,0,0,1-.13-.6,1.34,1.34,0,0,1,.13-.59,1.39,1.39,0,0,1,.34-.49,1.49,1.49,0,0,1,1.09-.46Z" transform="translate(-3.82 -176.98)"/><path class="cls-3" d="M28.3,258.6A4.1,4.1,0,0,1,30,259,3.58,3.58,0,0,1,31.35,260a5.25,5.25,0,0,1,.94,1.81,8.65,8.65,0,0,1,.34,2.59,9,9,0,0,1-.34,2.66,5.11,5.11,0,0,1-.94,1.8,3.6,3.6,0,0,1-1.38,1,4.43,4.43,0,0,1-1.67.32,4.68,4.68,0,0,1-1.71-.32,3.75,3.75,0,0,1-1.4-1,5.29,5.29,0,0,1-1-1.8,10.28,10.28,0,0,1,0-5.32,5.29,5.29,0,0,1,1-1.8,3.54,3.54,0,0,1,1.4-1A4.68,4.68,0,0,1,28.3,258.6Zm0,2.07a2,2,0,0,0-.83.19,1.85,1.85,0,0,0-.7.62,3.53,3.53,0,0,0-.47,1.15,7.42,7.42,0,0,0-.18,1.77,7.3,7.3,0,0,0,.18,1.77,3.53,3.53,0,0,0,.47,1.15,1.77,1.77,0,0,0,.7.62,1.84,1.84,0,0,0,.83.19,1.74,1.74,0,0,0,.8-.19,1.7,1.7,0,0,0,.67-.62,3.53,3.53,0,0,0,.47-1.15,7.91,7.91,0,0,0,.17-1.77,7.56,7.56,0,0,0-.17-1.7,3.79,3.79,0,0,0-.47-1.16,1.91,1.91,0,0,0-.67-.66A1.65,1.65,0,0,0,28.3,260.67Z" transform="translate(-3.82 -176.98)"/><path class="cls-3" d="M36.78,258.6a3.34,3.34,0,0,1,1.24.23,3.19,3.19,0,0,1,1,.64,3.09,3.09,0,0,1,.66,1,3,3,0,0,1,.24,1.21,3.05,3.05,0,0,1-.24,1.22,2.88,2.88,0,0,1-.66,1,3,3,0,0,1-1,.64,3.46,3.46,0,0,1-2.48,0,3,3,0,0,1-1-.64,2.88,2.88,0,0,1-.66-1,3.23,3.23,0,0,1-.23-1.22,3.18,3.18,0,0,1,.23-1.21,3.09,3.09,0,0,1,.66-1,3.19,3.19,0,0,1,1-.64A3.34,3.34,0,0,1,36.78,258.6Zm0,1.67a1.41,1.41,0,0,0-.54.11,1.39,1.39,0,0,0-.43.28,1.33,1.33,0,0,0-.28.44,1.63,1.63,0,0,0-.1.55,1.69,1.69,0,0,0,.1.56,1.33,1.33,0,0,0,.28.44,1.42,1.42,0,0,0,.43.29,1.4,1.4,0,0,0,.54.1,1.33,1.33,0,0,0,.54-.1,1.3,1.3,0,0,0,.43-.29,1.33,1.33,0,0,0,.28-.44,1.47,1.47,0,0,0,.1-.56,1.42,1.42,0,0,0-.1-.55,1.33,1.33,0,0,0-.28-.44,1.28,1.28,0,0,0-.43-.28A1.33,1.33,0,0,0,36.78,260.27ZM38.27,270h-2.1l7.51-11.2h2.09Zm6.92-5.91a3.37,3.37,0,0,1,1.24.23,3.19,3.19,0,0,1,1,.64,3,3,0,0,1,.66,1,3.32,3.32,0,0,1,0,2.43,3,3,0,0,1-.66,1,3.19,3.19,0,0,1-1,.64,3.37,3.37,0,0,1-1.24.23A3.34,3.34,0,0,1,44,270a3.19,3.19,0,0,1-1-.64,3,3,0,0,1-.66-1,3.22,3.22,0,0,1-.23-1.21,3.18,3.18,0,0,1,.23-1.21,2.88,2.88,0,0,1,.66-1,3,3,0,0,1,1-.64A3.15,3.15,0,0,1,45.19,264.09Zm0,1.67a1.37,1.37,0,0,0-.54.11,1.28,1.28,0,0,0-.43.28,1.44,1.44,0,0,0-.28.44,1.59,1.59,0,0,0,0,1.11,1.44,1.44,0,0,0,.28.44,1.3,1.3,0,0,0,.43.29,1.57,1.57,0,0,0,.54.1,1.62,1.62,0,0,0,.54-.1,1.3,1.3,0,0,0,.43-.29,1.44,1.44,0,0,0,.28-.44,1.59,1.59,0,0,0,0-1.11,1.44,1.44,0,0,0-.28-.44,1.28,1.28,0,0,0-.43-.28A1.41,1.41,0,0,0,45.19,265.76Z" transform="translate(-3.82 -176.98)"/><path class="cls-3" d="M18.21,219.68l-4.64,9.51H11l4.6-9.18H10.31v-2h7.9Z" transform="translate(-3.82 -176.98)"/><path class="cls-3" d="M21.26,226.29a1.48,1.48,0,0,1,.59.12,1.72,1.72,0,0,1,.49.34,1.54,1.54,0,0,1,.34.49,1.54,1.54,0,0,1,0,1.19,1.58,1.58,0,0,1-.34.5,1.54,1.54,0,0,1-.49.34,1.48,1.48,0,0,1-.59.12,1.49,1.49,0,0,1-1.09-.46,1.43,1.43,0,0,1-.34-.5,1.43,1.43,0,0,1,0-1.19,1.39,1.39,0,0,1,.34-.49,1.72,1.72,0,0,1,.49-.34A1.53,1.53,0,0,1,21.26,226.29Z" transform="translate(-3.82 -176.98)"/><path class="cls-3" d="M28.3,217.79a4.1,4.1,0,0,1,1.67.35,3.69,3.69,0,0,1,1.38,1.05,5.25,5.25,0,0,1,.94,1.81,8.7,8.7,0,0,1,.34,2.59,9,9,0,0,1-.34,2.66,4.94,4.94,0,0,1-.94,1.8,3.6,3.6,0,0,1-1.38,1,4.25,4.25,0,0,1-1.67.32,4.48,4.48,0,0,1-1.71-.32,3.75,3.75,0,0,1-1.4-1,5.1,5.1,0,0,1-1-1.8,10.28,10.28,0,0,1,0-5.32,5.29,5.29,0,0,1,1-1.8,3.75,3.75,0,0,1,1.4-1A4.68,4.68,0,0,1,28.3,217.79Zm0,2.08a2,2,0,0,0-.83.18,1.94,1.94,0,0,0-.7.62,3.53,3.53,0,0,0-.47,1.15,8.84,8.84,0,0,0,0,3.55,3.46,3.46,0,0,0,.47,1.14,1.77,1.77,0,0,0,.7.62,1.84,1.84,0,0,0,.83.19,1.74,1.74,0,0,0,.8-.19,1.7,1.7,0,0,0,.67-.62,3.46,3.46,0,0,0,.47-1.14,8.07,8.07,0,0,0,.17-1.78,7.62,7.62,0,0,0-.17-1.7,3.79,3.79,0,0,0-.47-1.16,1.91,1.91,0,0,0-.67-.66A1.64,1.64,0,0,0,28.3,219.87Z" transform="translate(-3.82 -176.98)"/><path class="cls-3" d="M36.78,217.79A3.15,3.15,0,0,1,38,218a2.86,2.86,0,0,1,1,.64,2.94,2.94,0,0,1,.66,1,3,3,0,0,1,.24,1.21,3.14,3.14,0,0,1-.24,1.23,2.94,2.94,0,0,1-.66,1,2.86,2.86,0,0,1-1,.64,3.32,3.32,0,0,1-2.48,0,2.86,2.86,0,0,1-1-.64,2.94,2.94,0,0,1-.66-1,3.32,3.32,0,0,1-.23-1.23,3.18,3.18,0,0,1,.23-1.21,2.94,2.94,0,0,1,.66-1,2.86,2.86,0,0,1,1-.64A3.15,3.15,0,0,1,36.78,217.79Zm0,1.68a1.36,1.36,0,0,0-1,.38,1.33,1.33,0,0,0-.28.44,1.63,1.63,0,0,0-.1.55,1.69,1.69,0,0,0,.1.56,1.33,1.33,0,0,0,.28.44,1.42,1.42,0,0,0,.43.29,1.4,1.4,0,0,0,.54.1,1.33,1.33,0,0,0,.54-.1,1.3,1.3,0,0,0,.43-.29,1.33,1.33,0,0,0,.28-.44,1.47,1.47,0,0,0,.1-.56,1.42,1.42,0,0,0-.1-.55,1.33,1.33,0,0,0-.28-.44,1.28,1.28,0,0,0-.43-.28A1.33,1.33,0,0,0,36.78,219.47Zm1.49,9.72h-2.1L43.68,218h2.09Zm6.92-5.91a3.37,3.37,0,0,1,1.24.23,3.19,3.19,0,0,1,1,.64,3.09,3.09,0,0,1,.66,1,3.32,3.32,0,0,1,0,2.43,2.88,2.88,0,0,1-.66,1,3,3,0,0,1-1,.64,3.18,3.18,0,0,1-1.24.23,3.15,3.15,0,0,1-1.24-.23,3,3,0,0,1-1-.64,2.88,2.88,0,0,1-.66-1,3.3,3.3,0,0,1,0-2.42,3,3,0,0,1,.66-1,3,3,0,0,1,1-.64A3.15,3.15,0,0,1,45.19,223.28Zm0,1.67a1.37,1.37,0,0,0-.54.11,1.17,1.17,0,0,0-.43.29,1.28,1.28,0,0,0-.28.43,1.64,1.64,0,0,0-.1.56,1.58,1.58,0,0,0,.1.55,1.33,1.33,0,0,0,.28.44,1.3,1.3,0,0,0,.43.29,1.37,1.37,0,0,0,.54.1,1.4,1.4,0,0,0,.54-.1,1.3,1.3,0,0,0,.43-.29,1.33,1.33,0,0,0,.28-.44,1.58,1.58,0,0,0,.1-.55,1.64,1.64,0,0,0-.1-.56,1.28,1.28,0,0,0-.28-.43,1.17,1.17,0,0,0-.43-.29A1.41,1.41,0,0,0,45.19,225Z" transform="translate(-3.82 -176.98)"/><path class="cls-3" d="M14.24,177a5.89,5.89,0,0,1,1.6.22,4,4,0,0,1,1.3.64,2.94,2.94,0,0,1,.88,1,2.89,2.89,0,0,1,.19,2.23,2.11,2.11,0,0,1-.36.7,2.35,2.35,0,0,1-.54.55,4.23,4.23,0,0,1-.68.41,4.06,4.06,0,0,1,.78.39,3,3,0,0,1,.63.55,2.55,2.55,0,0,1,.58,1.66,2.67,2.67,0,0,1-.35,1.36,3,3,0,0,1-.94,1,4.23,4.23,0,0,1-1.39.64,6.68,6.68,0,0,1-3.4,0,4.33,4.33,0,0,1-1.39-.64,3.15,3.15,0,0,1-.94-1,2.67,2.67,0,0,1-.34-1.36,2.75,2.75,0,0,1,.15-.93,2.53,2.53,0,0,1,.42-.73,3,3,0,0,1,.63-.55,4.28,4.28,0,0,1,.77-.39,4.14,4.14,0,0,1-.67-.41,2.35,2.35,0,0,1-.54-.55,2.57,2.57,0,0,1-.36-.7,2.75,2.75,0,0,1-.13-.88,2.86,2.86,0,0,1,.32-1.35,3.05,3.05,0,0,1,.88-1,4.1,4.1,0,0,1,1.31-.64A5.87,5.87,0,0,1,14.24,177Zm0,6.64a2.85,2.85,0,0,0-.79.1,1.84,1.84,0,0,0-.65.29,1.44,1.44,0,0,0-.44.48,1.3,1.3,0,0,0-.17.66,1.26,1.26,0,0,0,.17.65,1.41,1.41,0,0,0,.44.47,1.84,1.84,0,0,0,.65.29,3.28,3.28,0,0,0,.79.1,3.35,3.35,0,0,0,.79-.1,1.84,1.84,0,0,0,.65-.29,1.44,1.44,0,0,0,.45-.47,1.25,1.25,0,0,0,.16-.65,1.29,1.29,0,0,0-.16-.66,1.47,1.47,0,0,0-.45-.48,1.84,1.84,0,0,0-.65-.29A2.9,2.9,0,0,0,14.24,183.62Zm0-4.68a2.63,2.63,0,0,0-.7.09,1.82,1.82,0,0,0-.58.27,1.57,1.57,0,0,0-.39.46,1.34,1.34,0,0,0-.14.61,1.39,1.39,0,0,0,.14.63,1.35,1.35,0,0,0,.39.46,1.65,1.65,0,0,0,.58.28,2.28,2.28,0,0,0,.7.1,2.34,2.34,0,0,0,.71-.1,1.52,1.52,0,0,0,.57-.28,1.16,1.16,0,0,0,.39-.46,1.39,1.39,0,0,0,.14-.63,1.34,1.34,0,0,0-.14-.61,1.32,1.32,0,0,0-.39-.46A1.67,1.67,0,0,0,15,179,2.71,2.71,0,0,0,14.24,178.94Z" transform="translate(-3.82 -176.98)"/><path class="cls-3" d="M21.26,185.48a1.48,1.48,0,0,1,.59.12,1.72,1.72,0,0,1,.49.34,1.66,1.66,0,0,1,.34.49,1.54,1.54,0,0,1,0,1.19,1.58,1.58,0,0,1-.34.5,1.54,1.54,0,0,1-.49.34,1.48,1.48,0,0,1-.59.12,1.49,1.49,0,0,1-1.09-.46,1.43,1.43,0,0,1-.34-.5,1.43,1.43,0,0,1,0-1.19,1.49,1.49,0,0,1,.34-.49,1.72,1.72,0,0,1,.49-.34A1.53,1.53,0,0,1,21.26,185.48Z" transform="translate(-3.82 -176.98)"/><path class="cls-3" d="M28.3,177a4.1,4.1,0,0,1,1.67.35,3.69,3.69,0,0,1,1.38,1,5.25,5.25,0,0,1,.94,1.81,8.7,8.7,0,0,1,.34,2.59,9,9,0,0,1-.34,2.66,4.94,4.94,0,0,1-.94,1.8,3.6,3.6,0,0,1-1.38,1,4.25,4.25,0,0,1-1.67.32,4.48,4.48,0,0,1-1.71-.32,3.75,3.75,0,0,1-1.4-1,5.1,5.1,0,0,1-1-1.8,10.28,10.28,0,0,1,0-5.32,5.29,5.29,0,0,1,1-1.8,3.75,3.75,0,0,1,1.4-1A4.68,4.68,0,0,1,28.3,177Zm0,2.08a2,2,0,0,0-.83.18,1.94,1.94,0,0,0-.7.62A3.62,3.62,0,0,0,26.3,181a8.84,8.84,0,0,0,0,3.55,3.46,3.46,0,0,0,.47,1.14,1.77,1.77,0,0,0,.7.62,1.84,1.84,0,0,0,.83.19,1.74,1.74,0,0,0,.8-.19,1.7,1.7,0,0,0,.67-.62,3.46,3.46,0,0,0,.47-1.14,8.07,8.07,0,0,0,.17-1.78,7.62,7.62,0,0,0-.17-1.7,3.9,3.9,0,0,0-.47-1.16,1.91,1.91,0,0,0-.67-.66A1.76,1.76,0,0,0,28.3,179.06Z" transform="translate(-3.82 -176.98)"/><path class="cls-3" d="M36.78,177a3.15,3.15,0,0,1,1.24.24,2.86,2.86,0,0,1,1,.64,2.94,2.94,0,0,1,.66,1,3,3,0,0,1,.24,1.21,3.1,3.1,0,0,1-.24,1.23,2.94,2.94,0,0,1-.66,1,2.86,2.86,0,0,1-1,.64,3.32,3.32,0,0,1-2.48,0,2.86,2.86,0,0,1-1-.64,2.94,2.94,0,0,1-.66-1,3.28,3.28,0,0,1-.23-1.23,3.22,3.22,0,0,1,.23-1.21,2.94,2.94,0,0,1,.66-1,2.86,2.86,0,0,1,1-.64A3.15,3.15,0,0,1,36.78,177Zm0,1.68a1.36,1.36,0,0,0-1,.38,1.33,1.33,0,0,0-.28.44,1.68,1.68,0,0,0-.1.55,1.64,1.64,0,0,0,.1.56,1.33,1.33,0,0,0,.28.44,1.26,1.26,0,0,0,.43.29,1.4,1.4,0,0,0,.54.1,1.33,1.33,0,0,0,.54-.1,1.17,1.17,0,0,0,.43-.29,1.33,1.33,0,0,0,.28-.44,1.43,1.43,0,0,0,.1-.56,1.45,1.45,0,0,0-.1-.55,1.33,1.33,0,0,0-.28-.44,1.28,1.28,0,0,0-.43-.28A1.33,1.33,0,0,0,36.78,178.66Zm1.49,9.72h-2.1l7.51-11.2h2.09Zm6.92-5.91a3.37,3.37,0,0,1,1.24.23,3.19,3.19,0,0,1,1,.64,3,3,0,0,1,.89,2.19,3,3,0,0,1-.23,1.21,2.88,2.88,0,0,1-.66,1,3,3,0,0,1-1,.64,3.18,3.18,0,0,1-1.24.23,3.15,3.15,0,0,1-1.24-.23,3,3,0,0,1-1-.64,2.88,2.88,0,0,1-.66-1,3.18,3.18,0,0,1-.23-1.21,3.22,3.22,0,0,1,.23-1.21,3,3,0,0,1,.66-1,3.19,3.19,0,0,1,1-.64A3.15,3.15,0,0,1,45.19,182.47Zm0,1.67a1.37,1.37,0,0,0-.54.11,1.17,1.17,0,0,0-.43.29,1.28,1.28,0,0,0-.28.43,1.69,1.69,0,0,0-.1.56,1.58,1.58,0,0,0,.1.55,1.33,1.33,0,0,0,.28.44,1.3,1.3,0,0,0,.43.29,1.37,1.37,0,0,0,.54.1,1.4,1.4,0,0,0,.54-.1,1.3,1.3,0,0,0,.43-.29,1.33,1.33,0,0,0,.28-.44,1.58,1.58,0,0,0,.1-.55,1.69,1.69,0,0,0-.1-.56,1.28,1.28,0,0,0-.28-.43,1.17,1.17,0,0,0-.43-.29A1.41,1.41,0,0,0,45.19,184.14Z" transform="translate(-3.82 -176.98)"/><line class="cls-2" x1="53.82" y1="373.93" x2="53.82" y2="6.34"/><line class="cls-4" x1="53.41" y1="373.77" x2="63.41" y2="373.77"/><line class="cls-4" x1="53.41" y1="332.96" x2="63.41" y2="332.96"/><line class="cls-4" x1="53.41" y1="292.15" x2="63.41" y2="292.15"/><line class="cls-4" x1="53.41" y1="251.34" x2="63.41" y2="251.34"/><line class="cls-4" x1="53.41" y1="210.53" x2="63.41" y2="210.53"/><line class="cls-4" x1="53.41" y1="169.73" x2="63.41" y2="169.73"/><line class="cls-4" x1="53.41" y1="128.92" x2="63.41" y2="128.92"/><line class="cls-4" x1="53.41" y1="88.11" x2="63.41" y2="88.11"/><line class="cls-4" x1="53.41" y1="47.3" x2="63.41" y2="47.3"/><line class="cls-4" x1="53.41" y1="6.49" x2="63.41" y2="6.49"/><line class="cls-5" x1="1048.9" y1="137.08" x2="1062.81" y2="124.84"/><line class="cls-5" x1="1034.98" y1="141.16" x2="1048.9" y2="137.08"/><line class="cls-5" x1="1021.06" y1="141.16" x2="1034.98" y2="141.16"/><line class="cls-5" x1="1007.15" y1="153.4" x2="1021.06" y2="141.16"/><line class="cls-5" x1="993.23" y1="165.65" x2="1007.15" y2="153.4"/><line class="cls-5" x1="979.31" y1="181.97" x2="993.23" y2="165.65"/><line class="cls-5" x1="965.39" y1="206.45" x2="979.31" y2="181.97"/><line class="cls-5" x1="951.48" y1="186.05" x2="965.39" y2="206.45"/><line class="cls-5" x1="937.56" y1="194.21" x2="951.48" y2="186.05"/><line class="cls-5" x1="923.64" y1="243.18" x2="937.56" y2="194.21"/><line class="cls-5" x1="909.73" y1="288.07" x2="923.64" y2="243.18"/><line class="cls-5" x1="895.81" y1="292.15" x2="909.73" y2="288.07"/><line class="cls-5" x1="881.89" y1="304.39" x2="895.81" y2="292.15"/><line class="cls-5" x1="867.97" y1="292.15" x2="881.89" y2="304.39"/><line class="cls-5" x1="854.06" y1="304.39" x2="867.97" y2="292.15"/><line class="cls-5" x1="840.14" y1="312.56" x2="854.06" y2="304.39"/><line class="cls-5" x1="826.22" y1="328.88" x2="840.14" y2="312.56"/><line class="cls-5" x1="812.31" y1="328.88" x2="826.22" y2="328.88"/><line class="cls-5" x1="798.39" y1="304.39" x2="812.31" y2="328.88"/><line class="cls-5" x1="784.47" y1="349.28" x2="798.39" y2="304.39"/><line class="cls-5" x1="770.55" y1="341.12" x2="784.47" y2="349.28"/><line class="cls-5" x1="756.64" y1="296.23" x2="770.55" y2="341.12"/><line class="cls-5" x1="742.72" y1="243.18" x2="756.64" y2="296.23"/><line class="cls-5" x1="728.8" y1="235.02" x2="742.72" y2="243.18"/><line class="cls-5" x1="714.89" y1="243.18" x2="728.8" y2="235.02"/><line class="cls-5" x1="700.97" y1="243.18" x2="714.89" y2="243.18"/><line class="cls-5" x1="687.05" y1="255.42" x2="700.97" y2="243.18"/><line class="cls-5" x1="673.13" y1="255.42" x2="687.05" y2="255.42"/><line class="cls-5" x1="659.22" y1="255.42" x2="673.13" y2="255.42"/><line class="cls-5" x1="645.3" y1="251.34" x2="659.22" y2="255.42"/><line class="cls-5" x1="631.38" y1="251.34" x2="645.3" y2="251.34"/><line class="cls-5" x1="617.47" y1="235.02" x2="631.38" y2="251.34"/><line class="cls-5" x1="603.55" y1="251.34" x2="617.47" y2="235.02"/><line class="cls-5" x1="589.63" y1="255.42" x2="603.55" y2="251.34"/><line class="cls-5" x1="575.71" y1="271.75" x2="589.63" y2="255.42"/><line class="cls-5" x1="561.8" y1="275.83" x2="575.71" y2="271.75"/><line class="cls-5" x1="547.88" y1="251.34" x2="561.8" y2="275.83"/><line class="cls-5" x1="533.96" y1="263.59" x2="547.88" y2="251.34"/><line class="cls-5" x1="520.05" y1="235.02" x2="533.96" y2="263.59"/><line class="cls-5" x1="506.13" y1="243.18" x2="520.05" y2="235.02"/><line class="cls-5" x1="492.21" y1="218.7" x2="506.13" y2="243.18"/><line class="cls-5" x1="478.29" y1="210.53" x2="492.21" y2="218.7"/><line class="cls-5" x1="464.38" y1="230.94" x2="478.29" y2="210.53"/><line class="cls-5" x1="450.46" y1="243.18" x2="464.38" y2="230.94"/><line class="cls-5" x1="436.54" y1="243.18" x2="450.46" y2="243.18"/><line class="cls-5" x1="422.63" y1="239.1" x2="436.54" y2="243.18"/><line class="cls-5" x1="408.71" y1="243.18" x2="422.63" y2="239.1"/><line class="cls-5" x1="394.79" y1="263.59" x2="408.71" y2="243.18"/><line class="cls-5" x1="380.87" y1="255.42" x2="394.79" y2="263.59"/><line class="cls-5" x1="366.96" y1="247.26" x2="380.87" y2="255.42"/><line class="cls-5" x1="353.04" y1="275.83" x2="366.96" y2="247.26"/><line class="cls-5" x1="339.12" y1="267.67" x2="353.04" y2="275.83"/><line class="cls-5" x1="325.21" y1="275.83" x2="339.12" y2="267.67"/><line class="cls-5" x1="311.29" y1="283.99" x2="325.21" y2="275.83"/><line class="cls-5" x1="297.37" y1="292.15" x2="311.29" y2="283.99"/><line class="cls-5" x1="283.45" y1="279.91" x2="297.37" y2="292.15"/><line class="cls-5" x1="269.54" y1="267.67" x2="283.45" y2="279.91"/><line class="cls-5" x1="255.62" y1="267.67" x2="269.54" y2="267.67"/><line class="cls-5" x1="241.7" y1="251.34" x2="255.62" y2="267.67"/><line class="cls-5" x1="227.79" y1="247.26" x2="241.7" y2="251.34"/><line class="cls-5" x1="213.87" y1="271.75" x2="227.79" y2="247.26"/><line class="cls-5" x1="199.95" y1="283.99" x2="213.87" y2="271.75"/><line class="cls-5" x1="186.03" y1="271.75" x2="199.95" y2="283.99"/><line class="cls-5" x1="172.12" y1="279.91" x2="186.03" y2="271.75"/><line class="cls-5" x1="158.2" y1="288.07" x2="172.12" y2="279.91"/><line class="cls-5" x1="144.28" y1="279.91" x2="158.2" y2="288.07"/><line class="cls-5" x1="130.37" y1="271.75" x2="144.28" y2="279.91"/><line class="cls-5" x1="116.45" y1="271.75" x2="130.37" y2="271.75"/><line class="cls-5" x1="102.53" y1="263.59" x2="116.45" y2="271.75"/><line class="cls-5" x1="88.61" y1="279.91" x2="102.53" y2="263.59"/><line class="cls-5" x1="74.7" y1="275.83" x2="88.61" y2="279.91"/><line class="cls-5" x1="60.78" y1="251.34" x2="74.7" y2="275.83"/><path class="cls-3" d="M48.49,578.63a5.24,5.24,0,0,1-.3,1.85,3.76,3.76,0,0,1-.83,1.34,3.43,3.43,0,0,1-1.28.82,4.65,4.65,0,0,1-1.61.27,5.31,5.31,0,0,1-1.25-.14,4.34,4.34,0,0,1-1-.36,3.65,3.65,0,0,1-.77-.5,4.07,4.07,0,0,1-.55-.55l1.29-1.63a2.92,2.92,0,0,0,.39.4,2.6,2.6,0,0,0,1.08.56,3.15,3.15,0,0,0,.71.08,1.77,1.77,0,0,0,1.39-.57,2.65,2.65,0,0,0,.5-1.78v-6.91h2.23Z" transform="translate(-3.82 -176.98)"/><path class="cls-3" d="M58.42,582.71h-2v-.86a2.88,2.88,0,0,1-1,.77,3,3,0,0,1-1.37.29,3.67,3.67,0,0,1-1.48-.31,3.82,3.82,0,0,1-1.2-.86,4,4,0,0,1-.78-1.29,4.67,4.67,0,0,1,0-3.24,4,4,0,0,1,.78-1.29,3.67,3.67,0,0,1,1.2-.86,3.51,3.51,0,0,1,1.48-.31,3,3,0,0,1,1.37.29,2.88,2.88,0,0,1,1,.77V575h2Zm-4-6a2.05,2.05,0,0,0-.83.17,1.71,1.71,0,0,0-.63.46,2,2,0,0,0-.4.68,2.54,2.54,0,0,0-.14.83,2.45,2.45,0,0,0,.14.83,2,2,0,0,0,.4.68,2,2,0,0,0,.63.46,2,2,0,0,0,.83.16,1.92,1.92,0,0,0,.81-.16,1.79,1.79,0,0,0,.64-.44,2.11,2.11,0,0,0,.4-.68,2.37,2.37,0,0,0,.15-.85,2.34,2.34,0,0,0-.15-.85,2,2,0,0,0-.4-.68,2,2,0,0,0-.64-.45A2.09,2.09,0,0,0,54.45,576.69Z" transform="translate(-3.82 -176.98)"/><path class="cls-3" d="M64.93,574.75a3.18,3.18,0,0,1,1.21.22,2.66,2.66,0,0,1,1.58,1.57,3.24,3.24,0,0,1,.22,1.23v4.94H65.86v-4.27a1.91,1.91,0,0,0-.4-1.29,1.44,1.44,0,0,0-1.12-.44,1.67,1.67,0,0,0-.63.11,1.38,1.38,0,0,0-.52.32,1.48,1.48,0,0,0-.35.55,2,2,0,0,0-.14.77v4.25H60.62V575h2v.91a2.32,2.32,0,0,1,1-.87A3.23,3.23,0,0,1,64.93,574.75Z" transform="translate(-3.82 -176.98)"/><path class="cls-3" d="M74.59,579.36H69.86v-1.82h4.73Z" transform="translate(-3.82 -176.98)"/><path class="cls-3" d="M76.25,573.24a5.94,5.94,0,0,1,.56-.64,4,4,0,0,1,.8-.63,4.38,4.38,0,0,1,1.07-.47,4.58,4.58,0,0,1,1.39-.19,4.65,4.65,0,0,1,1.59.26,3.69,3.69,0,0,1,1.19.74,3.25,3.25,0,0,1,.76,1.15,4,4,0,0,1,.26,1.46,3.66,3.66,0,0,1-.12,1,3.89,3.89,0,0,1-.34.84,6.3,6.3,0,0,1-.51.76c-.2.24-.41.48-.64.72l-2.4,2.48h4.28v2h-7.4V581l4-4.06a3.75,3.75,0,0,0,.69-.92,2.13,2.13,0,0,0,.23-1,1.85,1.85,0,0,0-.12-.67,1.58,1.58,0,0,0-.35-.53,1.66,1.66,0,0,0-.54-.34,1.75,1.75,0,0,0-.7-.13,2.66,2.66,0,0,0-.72.1,2.74,2.74,0,0,0-.6.27,2.69,2.69,0,0,0-.5.39c-.16.15-.31.31-.45.47Z" transform="translate(-3.82 -176.98)"/><path class="cls-3" d="M89.91,571.31a4.17,4.17,0,0,1,1.68.34A3.77,3.77,0,0,1,93,572.71a5.32,5.32,0,0,1,.93,1.81,8.63,8.63,0,0,1,.35,2.59,8.93,8.93,0,0,1-.35,2.66,5.12,5.12,0,0,1-.93,1.79,3.55,3.55,0,0,1-1.38,1,4.34,4.34,0,0,1-1.68.33,4.4,4.4,0,0,1-1.7-.33,3.47,3.47,0,0,1-1.4-1,5,5,0,0,1-1-1.79,10,10,0,0,1,0-5.32,5,5,0,0,1,1-1.8,3.47,3.47,0,0,1,1.4-1A4.59,4.59,0,0,1,89.91,571.31Zm0,2.07a1.87,1.87,0,0,0-.83.19,1.75,1.75,0,0,0-.69.62,3.52,3.52,0,0,0-.48,1.15,7.36,7.36,0,0,0-.17,1.77,7.47,7.47,0,0,0,.17,1.77,3.52,3.52,0,0,0,.48,1.15,1.83,1.83,0,0,0,.69.62,2,2,0,0,0,.83.19,1.85,1.85,0,0,0,.8-.19,1.8,1.8,0,0,0,.68-.62,3.53,3.53,0,0,0,.46-1.15,7.47,7.47,0,0,0,.17-1.77,7,7,0,0,0-.17-1.7,3.79,3.79,0,0,0-.46-1.16,1.94,1.94,0,0,0-.68-.66A1.62,1.62,0,0,0,89.91,573.38Z" transform="translate(-3.82 -176.98)"/><path class="cls-3" d="M98.91,580.66v-6.42l-2.78,1v-2.15l4.93-1.75v9.33h2.54v2.05H96.26v-2.05Z" transform="translate(-3.82 -176.98)"/><path class="cls-3" d="M108.86,575.4l.25,0h.27a4.22,4.22,0,0,1,1.57.29,3.93,3.93,0,0,1,1.23.79,3.62,3.62,0,0,1,.8,1.18,3.72,3.72,0,0,1,.28,1.46,3.56,3.56,0,0,1-.32,1.53,3.49,3.49,0,0,1-.88,1.2,4.08,4.08,0,0,1-1.34.8,5,5,0,0,1-3.34,0,4.28,4.28,0,0,1-1.33-.78,3.73,3.73,0,0,1-.88-1.2,3.44,3.44,0,0,1-.32-1.51,4.22,4.22,0,0,1,.27-1.49,8.27,8.27,0,0,1,.79-1.48l3.11-4.65h2.6Zm.19,1.87a2.11,2.11,0,0,0-.77.13,2,2,0,0,0-.62.38,1.83,1.83,0,0,0-.42.58,2.08,2.08,0,0,0,0,1.5,1.73,1.73,0,0,0,.42.58,1.83,1.83,0,0,0,.62.37,2.11,2.11,0,0,0,.77.14,2.21,2.21,0,0,0,.78-.14,2,2,0,0,0,.63-.37,1.89,1.89,0,0,0,.41-2.08,2,2,0,0,0-.41-.58,2,2,0,0,0-1.41-.51Z" transform="translate(-3.82 -176.98)"/><path class="cls-3" d="M210.82,578.63a5.24,5.24,0,0,1-.3,1.85,3.76,3.76,0,0,1-.83,1.34,3.48,3.48,0,0,1-1.27.82,4.69,4.69,0,0,1-1.61.27,5.34,5.34,0,0,1-1.26-.14,4.52,4.52,0,0,1-1-.36,3.93,3.93,0,0,1-.77-.5,4.07,4.07,0,0,1-.55-.55l1.3-1.63a3.55,3.55,0,0,0,.38.4,3,3,0,0,0,.49.33,2.78,2.78,0,0,0,.59.23,3.22,3.22,0,0,0,.71.08,1.75,1.75,0,0,0,1.39-.57,2.65,2.65,0,0,0,.5-1.78v-6.91h2.23Z" transform="translate(-3.82 -176.98)"/><path class="cls-3" d="M220.76,582.71h-2v-.86a3.1,3.1,0,0,1-.95.77,3,3,0,0,1-1.37.29,3.58,3.58,0,0,1-2.68-1.17,3.83,3.83,0,0,1-.79-1.29,4.83,4.83,0,0,1,0-3.24,3.83,3.83,0,0,1,.79-1.29,3.58,3.58,0,0,1,2.68-1.17,3,3,0,0,1,1.37.29,3.1,3.1,0,0,1,.95.77V575h2Zm-4-6a2.05,2.05,0,0,0-.83.17,1.9,1.9,0,0,0-.63.46,2.18,2.18,0,0,0-.4.68,2.54,2.54,0,0,0-.14.83,2.45,2.45,0,0,0,.14.83,2.18,2.18,0,0,0,.4.68,2.22,2.22,0,0,0,.63.46,2,2,0,0,0,.83.16,2,2,0,0,0,.82-.16,1.84,1.84,0,0,0,.63-.44,2.13,2.13,0,0,0,.41-.68,2.61,2.61,0,0,0,.14-.85,2.57,2.57,0,0,0-.14-.85,1.94,1.94,0,0,0-1-1.13A2.18,2.18,0,0,0,216.78,576.69Z" transform="translate(-3.82 -176.98)"/><path class="cls-3" d="M227.26,574.75a3.18,3.18,0,0,1,1.21.22,3,3,0,0,1,1,.61,2.84,2.84,0,0,1,.62,1,3.25,3.25,0,0,1,.23,1.23v4.94h-2.09v-4.27a1.86,1.86,0,0,0-.4-1.29,1.42,1.42,0,0,0-1.11-.44,1.69,1.69,0,0,0-.64.11,1.46,1.46,0,0,0-.52.32,1.79,1.79,0,0,0-.35.55,2,2,0,0,0-.13.77v4.25H223V575h2v.91a2.35,2.35,0,0,1,1-.87A3.18,3.18,0,0,1,227.26,574.75Z" transform="translate(-3.82 -176.98)"/><path class="cls-3" d="M236.93,579.36H232.2v-1.82h4.73Z" transform="translate(-3.82 -176.98)"/><path class="cls-3" d="M238.58,573.24a7.3,7.3,0,0,1,.56-.64,4,4,0,0,1,.8-.63,4.64,4.64,0,0,1,2.46-.66,4.65,4.65,0,0,1,1.59.26,3.63,3.63,0,0,1,1.2.74,3.23,3.23,0,0,1,.75,1.15,3.83,3.83,0,0,1,.27,1.46,3.65,3.65,0,0,1-.13,1,3.89,3.89,0,0,1-.34.84,4.59,4.59,0,0,1-.51.76c-.2.24-.41.48-.64.72l-2.39,2.48h4.28v2h-7.4V581l4-4.06a3.69,3.69,0,0,0,.68-.92,2.14,2.14,0,0,0,.24-1,1.67,1.67,0,0,0-.13-.67,1.58,1.58,0,0,0-.35-.53,1.47,1.47,0,0,0-.54-.34,1.73,1.73,0,0,0-.69-.13,2.74,2.74,0,0,0-.73.1,3.24,3.24,0,0,0-.6.27,3.07,3.07,0,0,0-.5.39l-.45.47Z" transform="translate(-3.82 -176.98)"/><path class="cls-3" d="M252.25,571.31a4.09,4.09,0,0,1,1.67.34,3.61,3.61,0,0,1,1.38,1.06,5.16,5.16,0,0,1,.94,1.81,8.65,8.65,0,0,1,.34,2.59,9,9,0,0,1-.34,2.66,5,5,0,0,1-.94,1.79,3.41,3.41,0,0,1-1.38,1,4.25,4.25,0,0,1-1.67.33,4.42,4.42,0,0,1-1.71-.33,3.54,3.54,0,0,1-1.4-1,5,5,0,0,1-.95-1.79,10.28,10.28,0,0,1,0-5.32,5,5,0,0,1,.95-1.8,3.54,3.54,0,0,1,1.4-1A4.6,4.6,0,0,1,252.25,571.31Zm0,2.07a1.84,1.84,0,0,0-.83.19,1.71,1.71,0,0,0-.7.62,3.32,3.32,0,0,0-.47,1.15,7.3,7.3,0,0,0-.18,1.77,7.42,7.42,0,0,0,.18,1.77,3.32,3.32,0,0,0,.47,1.15,1.78,1.78,0,0,0,.7.62,2,2,0,0,0,.83.19,1.84,1.84,0,0,0,.79-.19,1.73,1.73,0,0,0,.68-.62,3.53,3.53,0,0,0,.47-1.15,8,8,0,0,0,.17-1.77,7.56,7.56,0,0,0-.17-1.7,3.79,3.79,0,0,0-.47-1.16,1.86,1.86,0,0,0-.68-.66A1.61,1.61,0,0,0,252.25,573.38Z" transform="translate(-3.82 -176.98)"/><path class="cls-3" d="M261.25,580.66v-6.42l-2.79,1v-2.15l4.94-1.75v9.33h2.53v2.05h-7.34v-2.05Z" transform="translate(-3.82 -176.98)"/><path class="cls-3" d="M275.39,573.2l-4.64,9.51H268.2l4.61-9.19h-5.32v-2h7.9Z" transform="translate(-3.82 -176.98)"/><path class="cls-3" d="M373.15,578.63a5.24,5.24,0,0,1-.3,1.85,3.63,3.63,0,0,1-.83,1.34,3.4,3.4,0,0,1-1.27.82,4.65,4.65,0,0,1-1.61.27,5.4,5.4,0,0,1-1.26-.14,4.71,4.71,0,0,1-1-.36,3.93,3.93,0,0,1-.77-.5,4.75,4.75,0,0,1-.55-.55l1.3-1.63a3.55,3.55,0,0,0,.38.4,3.49,3.49,0,0,0,.49.33,2.67,2.67,0,0,0,.6.23,3.06,3.06,0,0,0,.7.08,1.74,1.74,0,0,0,1.39-.57,2.59,2.59,0,0,0,.5-1.78v-6.91h2.23Z" transform="translate(-3.82 -176.98)"/><path class="cls-3" d="M383.09,582.71h-2v-.86a3,3,0,0,1-.95.77,3,3,0,0,1-1.37.29,3.71,3.71,0,0,1-1.49-.31,3.78,3.78,0,0,1-1.19-.86,3.83,3.83,0,0,1-.79-1.29,4.83,4.83,0,0,1,0-3.24,3.83,3.83,0,0,1,.79-1.29,3.63,3.63,0,0,1,1.19-.86,3.55,3.55,0,0,1,1.49-.31,3,3,0,0,1,1.37.29,3,3,0,0,1,.95.77V575h2Zm-4-6a2,2,0,0,0-.82.17,1.84,1.84,0,0,0-.64.46,2.18,2.18,0,0,0-.4.68,2.54,2.54,0,0,0-.14.83,2.45,2.45,0,0,0,.14.83,2.18,2.18,0,0,0,.4.68,2.14,2.14,0,0,0,.64.46,2.18,2.18,0,0,0,1.64,0,1.67,1.67,0,0,0,.63-.44,2,2,0,0,0,.41-.68,2.37,2.37,0,0,0,.14-.85A2.33,2.33,0,0,0,381,578a1.88,1.88,0,0,0-.41-.68,1.81,1.81,0,0,0-.63-.45A2.14,2.14,0,0,0,379.11,576.69Z" transform="translate(-3.82 -176.98)"/><path class="cls-3" d="M389.59,574.75a3.23,3.23,0,0,1,1.22.22,2.82,2.82,0,0,1,.95.61,2.86,2.86,0,0,1,.63,1,3.24,3.24,0,0,1,.22,1.23v4.94h-2.09v-4.27a1.91,1.91,0,0,0-.39-1.29,1.45,1.45,0,0,0-1.12-.44,1.72,1.72,0,0,0-.64.11,1.46,1.46,0,0,0-.52.32,1.79,1.79,0,0,0-.35.55,2,2,0,0,0-.13.77v4.25h-2.09V575h2v.91a2.35,2.35,0,0,1,1-.87A3.18,3.18,0,0,1,389.59,574.75Z" transform="translate(-3.82 -176.98)"/><path class="cls-3" d="M399.26,579.36h-4.73v-1.82h4.73Z" transform="translate(-3.82 -176.98)"/><path class="cls-3" d="M400.91,573.24a7.3,7.3,0,0,1,.56-.64,4.28,4.28,0,0,1,.8-.63,4.45,4.45,0,0,1,1.08-.47,4.54,4.54,0,0,1,1.39-.19,4.63,4.63,0,0,1,1.58.26,3.63,3.63,0,0,1,1.2.74,3.1,3.1,0,0,1,.75,1.15,3.83,3.83,0,0,1,.27,1.46,3.28,3.28,0,0,1-.13,1,3.44,3.44,0,0,1-.34.84,4.59,4.59,0,0,1-.51.76c-.2.24-.41.48-.64.72l-2.39,2.48h4.28v2h-7.4V581l4-4.06a3.46,3.46,0,0,0,.68-.92,2.14,2.14,0,0,0,.24-1,1.85,1.85,0,0,0-.12-.67,1.75,1.75,0,0,0-.35-.53,1.66,1.66,0,0,0-.54-.34,1.78,1.78,0,0,0-.7-.13,2.74,2.74,0,0,0-.73.1,2.88,2.88,0,0,0-.59.27,3.14,3.14,0,0,0-.51.39c-.15.15-.3.31-.44.47Z" transform="translate(-3.82 -176.98)"/><path class="cls-3" d="M414.58,571.31a4.09,4.09,0,0,1,1.67.34,3.61,3.61,0,0,1,1.38,1.06,5.16,5.16,0,0,1,.94,1.81,8.65,8.65,0,0,1,.34,2.59,9,9,0,0,1-.34,2.66,5,5,0,0,1-.94,1.79,3.41,3.41,0,0,1-1.38,1,4.25,4.25,0,0,1-1.67.33,4.49,4.49,0,0,1-1.71-.33,3.54,3.54,0,0,1-1.4-1,5.14,5.14,0,0,1-1-1.79,10.28,10.28,0,0,1,0-5.32,5.19,5.19,0,0,1,1-1.8,3.54,3.54,0,0,1,1.4-1A4.68,4.68,0,0,1,414.58,571.31Zm0,2.07a1.84,1.84,0,0,0-.83.19,1.77,1.77,0,0,0-.7.62,3.53,3.53,0,0,0-.47,1.15,7.3,7.3,0,0,0-.18,1.77,7.42,7.42,0,0,0,.18,1.77,3.53,3.53,0,0,0,.47,1.15,1.85,1.85,0,0,0,.7.62,2,2,0,0,0,.83.19,1.88,1.88,0,0,0,.8-.19,1.78,1.78,0,0,0,.67-.62,3.53,3.53,0,0,0,.47-1.15,8,8,0,0,0,.17-1.77,7.56,7.56,0,0,0-.17-1.7,3.79,3.79,0,0,0-.47-1.16,1.91,1.91,0,0,0-.67-.66A1.65,1.65,0,0,0,414.58,573.38Z" transform="translate(-3.82 -176.98)"/><path class="cls-3" d="M423.58,580.66v-6.42l-2.79,1v-2.15l4.94-1.75v9.33h2.54v2.05h-7.35v-2.05Z" transform="translate(-3.82 -176.98)"/><path class="cls-3" d="M433.75,571.31a5.53,5.53,0,0,1,1.6.22,4,4,0,0,1,1.3.63,2.94,2.94,0,0,1,.88,1,2.75,2.75,0,0,1,.33,1.35,3,3,0,0,1-.13.88,2.79,2.79,0,0,1-.36.71,2.87,2.87,0,0,1-.55.55,4.09,4.09,0,0,1-.67.4,4.32,4.32,0,0,1,.77.4,2.77,2.77,0,0,1,.63.55,2.29,2.29,0,0,1,.42.73,2.43,2.43,0,0,1,.16.92,2.7,2.7,0,0,1-.34,1.37,3.26,3.26,0,0,1-.94,1,4.61,4.61,0,0,1-1.4.64,6.68,6.68,0,0,1-3.4,0,4.55,4.55,0,0,1-1.39-.64,3.15,3.15,0,0,1-.94-1,2.7,2.7,0,0,1-.34-1.37,2.65,2.65,0,0,1,.15-.92A2.29,2.29,0,0,1,430,578a2.77,2.77,0,0,1,.63-.55,4.32,4.32,0,0,1,.77-.4,4.09,4.09,0,0,1-.67-.4,2.56,2.56,0,0,1-.54-.55,2.79,2.79,0,0,1-.36-.71,2.71,2.71,0,0,1-.13-.88,2.86,2.86,0,0,1,.32-1.35,3.05,3.05,0,0,1,.88-1,4.09,4.09,0,0,1,1.31-.63A5.5,5.5,0,0,1,433.75,571.31Zm0,6.63a2.9,2.9,0,0,0-.79.1,2,2,0,0,0-.65.29,1.55,1.55,0,0,0-.44.48,1.33,1.33,0,0,0-.16.67,1.22,1.22,0,0,0,.16.64,1.55,1.55,0,0,0,.44.48,2,2,0,0,0,.65.28,3.17,3.17,0,0,0,1.58,0,2,2,0,0,0,.65-.28,1.47,1.47,0,0,0,.45-.48,1.22,1.22,0,0,0,.16-.64,1.33,1.33,0,0,0-.16-.67,1.47,1.47,0,0,0-.45-.48,2,2,0,0,0-.65-.29A2.9,2.9,0,0,0,433.75,577.94Zm0-4.68a2.63,2.63,0,0,0-.7.09,1.84,1.84,0,0,0-.58.28,1.27,1.27,0,0,0-.38.45,1.22,1.22,0,0,0-.14.61,1.34,1.34,0,0,0,.14.64,1.3,1.3,0,0,0,.38.46,2.08,2.08,0,0,0,.58.28,2.63,2.63,0,0,0,.7.09,2.71,2.71,0,0,0,.71-.09,1.9,1.9,0,0,0,.57-.28,1.23,1.23,0,0,0,.39-.46,1.34,1.34,0,0,0,.14-.64,1.22,1.22,0,0,0-.14-.61,1.2,1.2,0,0,0-.39-.45,1.69,1.69,0,0,0-.57-.28A2.71,2.71,0,0,0,433.75,573.26Z" transform="translate(-3.82 -176.98)"/><path class="cls-3" d="M535.49,578.63a5.24,5.24,0,0,1-.3,1.85,3.76,3.76,0,0,1-.83,1.34,3.43,3.43,0,0,1-1.28.82,4.65,4.65,0,0,1-1.61.27,5.31,5.31,0,0,1-1.25-.14,4.34,4.34,0,0,1-1-.36,3.65,3.65,0,0,1-.77-.5,3.57,3.57,0,0,1-.55-.55l1.29-1.63a2.92,2.92,0,0,0,.39.4,2.89,2.89,0,0,0,.48.33,2.67,2.67,0,0,0,.6.23,3.15,3.15,0,0,0,.71.08,1.77,1.77,0,0,0,1.39-.57,2.65,2.65,0,0,0,.5-1.78v-6.91h2.23Z" transform="translate(-3.82 -176.98)"/><path class="cls-3" d="M545.42,582.71h-2v-.86a2.88,2.88,0,0,1-1,.77,3,3,0,0,1-1.37.29,3.63,3.63,0,0,1-1.48-.31,3.82,3.82,0,0,1-1.2-.86,4,4,0,0,1-.78-1.29,4.67,4.67,0,0,1,0-3.24,4,4,0,0,1,.78-1.29,3.67,3.67,0,0,1,1.2-.86,3.47,3.47,0,0,1,1.48-.31,3,3,0,0,1,1.37.29,2.88,2.88,0,0,1,1,.77V575h2Zm-4-6a2,2,0,0,0-.83.17,1.71,1.71,0,0,0-.63.46,1.86,1.86,0,0,0-.4.68,2.3,2.3,0,0,0-.14.83,2.23,2.23,0,0,0,.14.83,1.86,1.86,0,0,0,.4.68,2,2,0,0,0,.63.46,2,2,0,0,0,.83.16,1.92,1.92,0,0,0,.81-.16,1.79,1.79,0,0,0,.64-.44,2.11,2.11,0,0,0,.4-.68,2.37,2.37,0,0,0,.15-.85,2.34,2.34,0,0,0-.15-.85,2,2,0,0,0-.4-.68,2,2,0,0,0-.64-.45A2.09,2.09,0,0,0,541.45,576.69Z" transform="translate(-3.82 -176.98)"/><path class="cls-3" d="M551.93,574.75a3.21,3.21,0,0,1,1.21.22,2.66,2.66,0,0,1,1.58,1.57,3.24,3.24,0,0,1,.22,1.23v4.94h-2.08v-4.27a1.91,1.91,0,0,0-.4-1.29,1.44,1.44,0,0,0-1.12-.44,1.67,1.67,0,0,0-.63.11,1.38,1.38,0,0,0-.52.32,1.64,1.64,0,0,0-.36.55,2.26,2.26,0,0,0-.13.77v4.25h-2.08V575h2v.91a2.27,2.27,0,0,1,1-.87A3.2,3.2,0,0,1,551.93,574.75Z" transform="translate(-3.82 -176.98)"/><path class="cls-3" d="M561.59,579.36h-4.73v-1.82h4.73Z" transform="translate(-3.82 -176.98)"/><path class="cls-3" d="M563.25,573.24a5.94,5.94,0,0,1,.56-.64,4,4,0,0,1,.8-.63,4.38,4.38,0,0,1,1.07-.47,5,5,0,0,1,3,.07,3.63,3.63,0,0,1,1.2.74,3.25,3.25,0,0,1,.76,1.15,4,4,0,0,1,.26,1.46,3.66,3.66,0,0,1-.12,1,4.47,4.47,0,0,1-.34.84,5.39,5.39,0,0,1-.52.76c-.19.24-.41.48-.64.72l-2.39,2.48h4.28v2h-7.4V581l4-4.06a3.75,3.75,0,0,0,.69-.92,2.26,2.26,0,0,0,.23-1,1.85,1.85,0,0,0-.12-.67,1.58,1.58,0,0,0-.35-.53,1.66,1.66,0,0,0-.54-.34,1.75,1.75,0,0,0-.7-.13,2.61,2.61,0,0,0-.72.1,2.74,2.74,0,0,0-.6.27,2.69,2.69,0,0,0-.5.39c-.16.15-.31.31-.45.47Z" transform="translate(-3.82 -176.98)"/><path class="cls-3" d="M576.91,571.31a4.17,4.17,0,0,1,1.68.34,3.77,3.77,0,0,1,1.38,1.06,5.32,5.32,0,0,1,.93,1.81,8.63,8.63,0,0,1,.35,2.59,8.93,8.93,0,0,1-.35,2.66,5.12,5.12,0,0,1-.93,1.79,3.55,3.55,0,0,1-1.38,1,4.34,4.34,0,0,1-1.68.33,4.4,4.4,0,0,1-1.7-.33,3.47,3.47,0,0,1-1.4-1,5.15,5.15,0,0,1-1-1.79,10.28,10.28,0,0,1,0-5.32,5.2,5.2,0,0,1,1-1.8,3.47,3.47,0,0,1,1.4-1A4.59,4.59,0,0,1,576.91,571.31Zm0,2.07a1.87,1.87,0,0,0-.83.19,1.75,1.75,0,0,0-.69.62,3.52,3.52,0,0,0-.48,1.15,7.3,7.3,0,0,0-.18,1.77,7.42,7.42,0,0,0,.18,1.77,3.52,3.52,0,0,0,.48,1.15,1.83,1.83,0,0,0,.69.62,2,2,0,0,0,.83.19,1.85,1.85,0,0,0,.8-.19,1.8,1.8,0,0,0,.68-.62,3.53,3.53,0,0,0,.46-1.15,7.47,7.47,0,0,0,.17-1.77,7,7,0,0,0-.17-1.7,3.79,3.79,0,0,0-.46-1.16,1.94,1.94,0,0,0-.68-.66A1.62,1.62,0,0,0,576.91,573.38Z" transform="translate(-3.82 -176.98)"/><path class="cls-3" d="M585.91,580.66v-6.42l-2.78,1v-2.15l4.93-1.75v9.33h2.54v2.05h-7.35v-2.05Z" transform="translate(-3.82 -176.98)"/><path class="cls-3" d="M596.28,578.81l-.24,0h-.27a4.13,4.13,0,0,1-1.56-.28,3.6,3.6,0,0,1-2-2,3.78,3.78,0,0,1-.29-1.47,3.7,3.7,0,0,1,.32-1.52,3.76,3.76,0,0,1,.89-1.2,3.87,3.87,0,0,1,1.33-.8,4.55,4.55,0,0,1,1.67-.29,4.76,4.76,0,0,1,1.67.28,4.06,4.06,0,0,1,1.34.79,3.73,3.73,0,0,1,.88,1.2,3.57,3.57,0,0,1,.32,1.5,4,4,0,0,1-.28,1.5,7.6,7.6,0,0,1-.78,1.48l-3.11,4.65h-2.61ZM596.1,577a2.21,2.21,0,0,0,.78-.14,1.85,1.85,0,0,0,.62-.38,1.63,1.63,0,0,0,.42-.58,2,2,0,0,0,.14-.74,2,2,0,0,0-.14-.75,1.63,1.63,0,0,0-.42-.58,2,2,0,0,0-.62-.38,2.4,2.4,0,0,0-1.56,0,2,2,0,0,0-.62.38,1.74,1.74,0,0,0-.41.58,1.86,1.86,0,0,0-.15.75,1.78,1.78,0,0,0,.15.74,1.74,1.74,0,0,0,.41.58,1.85,1.85,0,0,0,.62.38A2.21,2.21,0,0,0,596.1,577Z" transform="translate(-3.82 -176.98)"/><path class="cls-3" d="M697.82,578.63a5.24,5.24,0,0,1-.3,1.85,3.76,3.76,0,0,1-.83,1.34,3.48,3.48,0,0,1-1.27.82,4.71,4.71,0,0,1-1.62.27,5.31,5.31,0,0,1-1.25-.14,4.34,4.34,0,0,1-1-.36,3.65,3.65,0,0,1-.77-.5,4.07,4.07,0,0,1-.55-.55l1.29-1.63a3.66,3.66,0,0,0,.39.4,2.62,2.62,0,0,0,.49.33,2.78,2.78,0,0,0,.59.23,3.15,3.15,0,0,0,.71.08,1.77,1.77,0,0,0,1.39-.57,2.65,2.65,0,0,0,.5-1.78v-6.91h2.23Z" transform="translate(-3.82 -176.98)"/><path class="cls-3" d="M707.76,582.71h-2v-.86a3,3,0,0,1-1,.77,3,3,0,0,1-1.36.29,3.58,3.58,0,0,1-2.68-1.17,3.83,3.83,0,0,1-.79-1.29,4.67,4.67,0,0,1,0-3.24,3.83,3.83,0,0,1,.79-1.29,3.58,3.58,0,0,1,2.68-1.17,3,3,0,0,1,1.36.29,3,3,0,0,1,1,.77V575h2Zm-4-6a2.05,2.05,0,0,0-.83.17,1.71,1.71,0,0,0-.63.46,2,2,0,0,0-.4.68,2.54,2.54,0,0,0-.14.83,2.45,2.45,0,0,0,.14.83,2,2,0,0,0,.4.68,2,2,0,0,0,.63.46,2,2,0,0,0,.83.16,2,2,0,0,0,.82-.16,1.84,1.84,0,0,0,.63-.44,2.33,2.33,0,0,0,.41-.68,2.61,2.61,0,0,0,.14-.85,2.57,2.57,0,0,0-.14-.85,2.2,2.2,0,0,0-.41-.68,2,2,0,0,0-.63-.45A2.18,2.18,0,0,0,703.78,576.69Z" transform="translate(-3.82 -176.98)"/><path class="cls-3" d="M714.26,574.75a3.18,3.18,0,0,1,1.21.22,3,3,0,0,1,1,.61,2.84,2.84,0,0,1,.62,1,3.25,3.25,0,0,1,.23,1.23v4.94h-2.09v-4.27a1.86,1.86,0,0,0-.4-1.29,1.42,1.42,0,0,0-1.11-.44,1.69,1.69,0,0,0-.64.11,1.46,1.46,0,0,0-.52.32,1.62,1.62,0,0,0-.35.55,2,2,0,0,0-.13.77v4.25H710V575h2v.91a2.35,2.35,0,0,1,1-.87A3.18,3.18,0,0,1,714.26,574.75Z" transform="translate(-3.82 -176.98)"/><path class="cls-3" d="M723.92,579.36H719.2v-1.82h4.72Z" transform="translate(-3.82 -176.98)"/><path class="cls-3" d="M725.58,573.24a7.3,7.3,0,0,1,.56-.64,4,4,0,0,1,.8-.63,4.64,4.64,0,0,1,2.46-.66,4.65,4.65,0,0,1,1.59.26,3.48,3.48,0,0,1,1.19.74,3.25,3.25,0,0,1,.76,1.15,3.83,3.83,0,0,1,.26,1.46,3.66,3.66,0,0,1-.12,1,3.89,3.89,0,0,1-.34.84,5.31,5.31,0,0,1-.51.76c-.2.24-.41.48-.64.72l-2.39,2.48h4.28v2h-7.4V581l4-4.06a4,4,0,0,0,.68-.92,2.14,2.14,0,0,0,.24-1,1.86,1.86,0,0,0-.13-.67,1.58,1.58,0,0,0-.35-.53,1.66,1.66,0,0,0-.54-.34,1.75,1.75,0,0,0-.7-.13,2.72,2.72,0,0,0-.72.1,3,3,0,0,0-.6.27,2.69,2.69,0,0,0-.5.39c-.16.15-.3.31-.45.47Z" transform="translate(-3.82 -176.98)"/><path class="cls-3" d="M739.24,571.31a4.14,4.14,0,0,1,1.68.34,3.61,3.61,0,0,1,1.38,1.06,5.33,5.33,0,0,1,.94,1.81,9,9,0,0,1,.34,2.59,9.3,9.3,0,0,1-.34,2.66,5.13,5.13,0,0,1-.94,1.79,3.41,3.41,0,0,1-1.38,1,4.3,4.3,0,0,1-1.68.33,4.4,4.4,0,0,1-1.7-.33,3.54,3.54,0,0,1-1.4-1,5,5,0,0,1-.95-1.79,10.28,10.28,0,0,1,0-5.32,5,5,0,0,1,.95-1.8,3.54,3.54,0,0,1,1.4-1A4.59,4.59,0,0,1,739.24,571.31Zm0,2.07a1.83,1.83,0,0,0-.82.19,1.71,1.71,0,0,0-.7.62,3.52,3.52,0,0,0-.48,1.15,7.91,7.91,0,0,0-.17,1.77,8,8,0,0,0,.17,1.77,3.52,3.52,0,0,0,.48,1.15,1.78,1.78,0,0,0,.7.62,2,2,0,0,0,.82.19,1.85,1.85,0,0,0,.8-.19,1.73,1.73,0,0,0,.68-.62,3.53,3.53,0,0,0,.46-1.15,7.42,7.42,0,0,0,.18-1.77,7,7,0,0,0-.18-1.7,3.79,3.79,0,0,0-.46-1.16,1.86,1.86,0,0,0-.68-.66A1.62,1.62,0,0,0,739.24,573.38Z" transform="translate(-3.82 -176.98)"/><path class="cls-3" d="M744.78,573.24a7.3,7.3,0,0,1,.56-.64,4,4,0,0,1,.8-.63,4.64,4.64,0,0,1,2.46-.66,4.65,4.65,0,0,1,1.59.26,3.48,3.48,0,0,1,1.19.74,3.25,3.25,0,0,1,.76,1.15,3.83,3.83,0,0,1,.26,1.46,3.66,3.66,0,0,1-.12,1,3.89,3.89,0,0,1-.34.84,5.31,5.31,0,0,1-.51.76c-.2.24-.41.48-.64.72l-2.39,2.48h4.28v2h-7.4V581l4-4.06a4,4,0,0,0,.68-.92,2.14,2.14,0,0,0,.24-1,1.86,1.86,0,0,0-.13-.67,1.58,1.58,0,0,0-.35-.53,1.66,1.66,0,0,0-.54-.34,1.75,1.75,0,0,0-.7-.13,2.72,2.72,0,0,0-.72.1,3,3,0,0,0-.6.27,2.69,2.69,0,0,0-.5.39c-.16.15-.3.31-.45.47Z" transform="translate(-3.82 -176.98)"/><path class="cls-3" d="M758.44,571.31a4.14,4.14,0,0,1,1.68.34,3.77,3.77,0,0,1,1.38,1.06,5.33,5.33,0,0,1,.94,1.81,8.65,8.65,0,0,1,.34,2.59,9,9,0,0,1-.34,2.66,5.13,5.13,0,0,1-.94,1.79,3.55,3.55,0,0,1-1.38,1,4.3,4.3,0,0,1-1.68.33,4.4,4.4,0,0,1-1.7-.33,3.54,3.54,0,0,1-1.4-1,5,5,0,0,1-1-1.79,10.28,10.28,0,0,1,0-5.32,5,5,0,0,1,1-1.8,3.54,3.54,0,0,1,1.4-1A4.59,4.59,0,0,1,758.44,571.31Zm0,2.07a1.83,1.83,0,0,0-.82.19,1.71,1.71,0,0,0-.7.62,3.52,3.52,0,0,0-.48,1.15,7.91,7.91,0,0,0-.17,1.77,8,8,0,0,0,.17,1.77,3.52,3.52,0,0,0,.48,1.15,1.78,1.78,0,0,0,.7.62,2,2,0,0,0,.82.19,1.85,1.85,0,0,0,.8-.19,1.8,1.8,0,0,0,.68-.62,3.53,3.53,0,0,0,.46-1.15,7.42,7.42,0,0,0,.18-1.77,7,7,0,0,0-.18-1.7,3.79,3.79,0,0,0-.46-1.16,1.94,1.94,0,0,0-.68-.66A1.62,1.62,0,0,0,758.44,573.38Z" transform="translate(-3.82 -176.98)"/><path class="cls-3" d="M860.15,578.63a5.24,5.24,0,0,1-.3,1.85,3.63,3.63,0,0,1-.83,1.34,3.4,3.4,0,0,1-1.27.82,4.65,4.65,0,0,1-1.61.27,5.34,5.34,0,0,1-1.26-.14,4.52,4.52,0,0,1-1-.36,3.93,3.93,0,0,1-.77-.5,4.75,4.75,0,0,1-.55-.55l1.3-1.63a3.55,3.55,0,0,0,.38.4,3.49,3.49,0,0,0,.49.33,2.67,2.67,0,0,0,.6.23,3.06,3.06,0,0,0,.7.08,1.74,1.74,0,0,0,1.39-.57,2.65,2.65,0,0,0,.5-1.78v-6.91h2.23Z" transform="translate(-3.82 -176.98)"/><path class="cls-3" d="M870.09,582.71h-2v-.86a3,3,0,0,1-.95.77,3,3,0,0,1-1.37.29,3.71,3.71,0,0,1-1.49-.31,3.78,3.78,0,0,1-1.19-.86,3.83,3.83,0,0,1-.79-1.29,4.83,4.83,0,0,1,0-3.24,3.83,3.83,0,0,1,.79-1.29,3.63,3.63,0,0,1,1.19-.86,3.55,3.55,0,0,1,1.49-.31,3,3,0,0,1,1.37.29,3,3,0,0,1,.95.77V575h2Zm-4-6a2,2,0,0,0-.82.17,1.84,1.84,0,0,0-.64.46,2.18,2.18,0,0,0-.4.68,2.54,2.54,0,0,0-.14.83,2.45,2.45,0,0,0,.14.83,2.18,2.18,0,0,0,.4.68,2.14,2.14,0,0,0,.64.46,2,2,0,0,0,.82.16,2,2,0,0,0,.82-.16,1.67,1.67,0,0,0,.63-.44,2.13,2.13,0,0,0,.41-.68,2.37,2.37,0,0,0,.14-.85A2.33,2.33,0,0,0,868,578a2,2,0,0,0-.41-.68,1.81,1.81,0,0,0-.63-.45A2.18,2.18,0,0,0,866.11,576.69Z" transform="translate(-3.82 -176.98)"/><path class="cls-3" d="M876.59,574.75a3.27,3.27,0,0,1,1.22.22,2.82,2.82,0,0,1,1,.61,2.86,2.86,0,0,1,.63,1,3.24,3.24,0,0,1,.22,1.23v4.94h-2.09v-4.27a1.91,1.91,0,0,0-.39-1.29,1.45,1.45,0,0,0-1.12-.44,1.72,1.72,0,0,0-.64.11,1.46,1.46,0,0,0-.52.32,1.79,1.79,0,0,0-.35.55,2,2,0,0,0-.13.77v4.25h-2.09V575h2v.91a2.35,2.35,0,0,1,1-.87A3.18,3.18,0,0,1,876.59,574.75Z" transform="translate(-3.82 -176.98)"/><path class="cls-3" d="M886.26,579.36h-4.73v-1.82h4.73Z" transform="translate(-3.82 -176.98)"/><path class="cls-3" d="M887.91,573.24a7.3,7.3,0,0,1,.56-.64,4.28,4.28,0,0,1,.8-.63,4.71,4.71,0,0,1,2.47-.66,4.63,4.63,0,0,1,1.58.26,3.63,3.63,0,0,1,1.2.74,3.1,3.1,0,0,1,.75,1.15,3.83,3.83,0,0,1,.27,1.46,3.28,3.28,0,0,1-.13,1,3.44,3.44,0,0,1-.34.84,4.59,4.59,0,0,1-.51.76c-.2.24-.41.48-.64.72l-2.39,2.48h4.28v2h-7.4V581l4-4.06a3.46,3.46,0,0,0,.68-.92,2.14,2.14,0,0,0,.24-1,1.85,1.85,0,0,0-.12-.67,1.75,1.75,0,0,0-.35-.53,1.66,1.66,0,0,0-.54-.34,1.78,1.78,0,0,0-.7-.13,2.74,2.74,0,0,0-.73.1,2.88,2.88,0,0,0-.59.27,3.14,3.14,0,0,0-.51.39c-.15.15-.3.31-.44.47Z" transform="translate(-3.82 -176.98)"/><path class="cls-3" d="M901.58,571.31a4.09,4.09,0,0,1,1.67.34,3.61,3.61,0,0,1,1.38,1.06,5.16,5.16,0,0,1,.94,1.81,8.65,8.65,0,0,1,.34,2.59,9,9,0,0,1-.34,2.66,5,5,0,0,1-.94,1.79,3.41,3.41,0,0,1-1.38,1,4.25,4.25,0,0,1-1.67.33,4.45,4.45,0,0,1-1.71-.33,3.54,3.54,0,0,1-1.4-1,5.14,5.14,0,0,1-1-1.79,10.28,10.28,0,0,1,0-5.32,5.19,5.19,0,0,1,1-1.8,3.54,3.54,0,0,1,1.4-1A4.64,4.64,0,0,1,901.58,571.31Zm0,2.07a1.84,1.84,0,0,0-.83.19,1.77,1.77,0,0,0-.7.62,3.32,3.32,0,0,0-.47,1.15,7.3,7.3,0,0,0-.18,1.77,7.42,7.42,0,0,0,.18,1.77,3.32,3.32,0,0,0,.47,1.15,1.85,1.85,0,0,0,.7.62,2,2,0,0,0,.83.19,1.91,1.91,0,0,0,.8-.19,1.78,1.78,0,0,0,.67-.62,3.53,3.53,0,0,0,.47-1.15,8,8,0,0,0,.17-1.77,7.56,7.56,0,0,0-.17-1.7,3.79,3.79,0,0,0-.47-1.16,1.91,1.91,0,0,0-.67-.66A1.68,1.68,0,0,0,901.58,573.38Z" transform="translate(-3.82 -176.98)"/><path class="cls-3" d="M907.11,573.24a7.3,7.3,0,0,1,.56-.64,4.28,4.28,0,0,1,.8-.63,4.45,4.45,0,0,1,1.08-.47,4.54,4.54,0,0,1,1.39-.19,4.63,4.63,0,0,1,1.58.26,3.63,3.63,0,0,1,1.2.74,3.1,3.1,0,0,1,.75,1.15,3.83,3.83,0,0,1,.27,1.46,3.28,3.28,0,0,1-.13,1,3.44,3.44,0,0,1-.34.84,4.59,4.59,0,0,1-.51.76c-.2.24-.41.48-.64.72l-2.39,2.48H915v2h-7.4V581l4-4.06a3.46,3.46,0,0,0,.68-.92,2.14,2.14,0,0,0,.24-1,1.85,1.85,0,0,0-.12-.67,1.75,1.75,0,0,0-.35-.53,1.66,1.66,0,0,0-.54-.34,1.78,1.78,0,0,0-.7-.13,2.74,2.74,0,0,0-.73.1,2.88,2.88,0,0,0-.59.27,3.14,3.14,0,0,0-.51.39c-.15.15-.3.31-.44.47Z" transform="translate(-3.82 -176.98)"/><path class="cls-3" d="M920.18,580.66v-6.42l-2.79,1v-2.15l4.94-1.75v9.33h2.54v2.05h-7.35v-2.05Z" transform="translate(-3.82 -176.98)"/><path class="cls-3" d="M1022.49,578.63a5.24,5.24,0,0,1-.3,1.85,3.65,3.65,0,0,1-.84,1.34,3.32,3.32,0,0,1-1.27.82,4.65,4.65,0,0,1-1.61.27,5.46,5.46,0,0,1-1.26-.14,4.71,4.71,0,0,1-1-.36,3.85,3.85,0,0,1-.76-.5,4.19,4.19,0,0,1-.56-.55l1.3-1.63a2.92,2.92,0,0,0,.39.4,2.89,2.89,0,0,0,.48.33,2.67,2.67,0,0,0,.6.23,3.15,3.15,0,0,0,.71.08,1.73,1.73,0,0,0,1.38-.57,2.59,2.59,0,0,0,.5-1.78v-6.91h2.24Z" transform="translate(-3.82 -176.98)"/><path class="cls-3" d="M1032.42,582.71h-2v-.86a2.88,2.88,0,0,1-1,.77,3,3,0,0,1-1.37.29,3.63,3.63,0,0,1-1.48-.31,3.82,3.82,0,0,1-1.2-.86,4,4,0,0,1-.79-1.29,4.83,4.83,0,0,1,0-3.24,4,4,0,0,1,.79-1.29,3.67,3.67,0,0,1,1.2-.86,3.47,3.47,0,0,1,1.48-.31,3,3,0,0,1,1.37.29,2.88,2.88,0,0,1,1,.77V575h2Zm-4-6a2,2,0,0,0-.83.17,1.71,1.71,0,0,0-.63.46,1.86,1.86,0,0,0-.4.68,2.3,2.3,0,0,0-.14.83,2.23,2.23,0,0,0,.14.83,1.86,1.86,0,0,0,.4.68,2,2,0,0,0,.63.46,2,2,0,0,0,.83.16,1.92,1.92,0,0,0,.81-.16,1.79,1.79,0,0,0,.64-.44,2.11,2.11,0,0,0,.4-.68,2.37,2.37,0,0,0,.15-.85,2.34,2.34,0,0,0-.15-.85,2,2,0,0,0-.4-.68,2,2,0,0,0-.64-.45A2.09,2.09,0,0,0,1028.45,576.69Z" transform="translate(-3.82 -176.98)"/><path class="cls-3" d="M1038.93,574.75a3.21,3.21,0,0,1,1.21.22,2.82,2.82,0,0,1,.95.61,2.86,2.86,0,0,1,.63,1,3.24,3.24,0,0,1,.22,1.23v4.94h-2.09v-4.27a1.91,1.91,0,0,0-.39-1.29,1.45,1.45,0,0,0-1.12-.44,1.67,1.67,0,0,0-.63.11,1.38,1.38,0,0,0-.52.32,1.64,1.64,0,0,0-.36.55,2.26,2.26,0,0,0-.13.77v4.25h-2.08V575h2v.91a2.27,2.27,0,0,1,1-.87A3.2,3.2,0,0,1,1038.93,574.75Z" transform="translate(-3.82 -176.98)"/><path class="cls-3" d="M1048.59,579.36h-4.73v-1.82h4.73Z" transform="translate(-3.82 -176.98)"/><path class="cls-3" d="M1050.25,573.24a5.94,5.94,0,0,1,.56-.64,4,4,0,0,1,.8-.63,4.38,4.38,0,0,1,1.07-.47,4.54,4.54,0,0,1,1.39-.19,4.59,4.59,0,0,1,1.58.26,3.63,3.63,0,0,1,1.2.74,3.25,3.25,0,0,1,.76,1.15,4,4,0,0,1,.26,1.46,3.66,3.66,0,0,1-.12,1,4.47,4.47,0,0,1-.34.84,5.39,5.39,0,0,1-.52.76c-.19.24-.41.48-.64.72l-2.39,2.48h4.28v2h-7.4V581l4-4.06a3.75,3.75,0,0,0,.69-.92,2.26,2.26,0,0,0,.23-1,1.85,1.85,0,0,0-.12-.67,1.58,1.58,0,0,0-.35-.53,1.66,1.66,0,0,0-.54-.34,1.75,1.75,0,0,0-.7-.13,2.61,2.61,0,0,0-.72.1,2.74,2.74,0,0,0-.6.27,2.69,2.69,0,0,0-.5.39c-.16.15-.31.31-.45.47Z" transform="translate(-3.82 -176.98)"/><path class="cls-3" d="M1063.91,571.31a4.17,4.17,0,0,1,1.68.34,3.77,3.77,0,0,1,1.38,1.06,5.32,5.32,0,0,1,.93,1.81,8.63,8.63,0,0,1,.35,2.59,8.93,8.93,0,0,1-.35,2.66,5.12,5.12,0,0,1-.93,1.79,3.55,3.55,0,0,1-1.38,1,4.34,4.34,0,0,1-1.68.33,4.4,4.4,0,0,1-1.7-.33,3.47,3.47,0,0,1-1.4-1,5.15,5.15,0,0,1-1-1.79,10.28,10.28,0,0,1,0-5.32,5.2,5.2,0,0,1,1-1.8,3.47,3.47,0,0,1,1.4-1A4.59,4.59,0,0,1,1063.91,571.31Zm0,2.07a1.87,1.87,0,0,0-.83.19,1.75,1.75,0,0,0-.69.62,3.52,3.52,0,0,0-.48,1.15,7.3,7.3,0,0,0-.18,1.77,7.42,7.42,0,0,0,.18,1.77,3.52,3.52,0,0,0,.48,1.15,1.83,1.83,0,0,0,.69.62,2,2,0,0,0,.83.19,1.88,1.88,0,0,0,.8-.19,1.8,1.8,0,0,0,.68-.62,3.53,3.53,0,0,0,.46-1.15,8,8,0,0,0,.17-1.77,7.56,7.56,0,0,0-.17-1.7,3.79,3.79,0,0,0-.46-1.16,1.94,1.94,0,0,0-.68-.66A1.65,1.65,0,0,0,1063.91,573.38Z" transform="translate(-3.82 -176.98)"/><path class="cls-3" d="M1069.45,573.24a5.94,5.94,0,0,1,.56-.64,4,4,0,0,1,.8-.63,4.38,4.38,0,0,1,1.07-.47,4.54,4.54,0,0,1,1.39-.19,4.59,4.59,0,0,1,1.58.26,3.63,3.63,0,0,1,1.2.74,3.25,3.25,0,0,1,.76,1.15,4,4,0,0,1,.26,1.46,3.66,3.66,0,0,1-.12,1,4.47,4.47,0,0,1-.34.84,5.39,5.39,0,0,1-.52.76c-.19.24-.41.48-.64.72l-2.39,2.48h4.28v2h-7.4V581l4-4.06a3.75,3.75,0,0,0,.69-.92,2.26,2.26,0,0,0,.23-1,1.85,1.85,0,0,0-.12-.67,1.58,1.58,0,0,0-.35-.53,1.66,1.66,0,0,0-.54-.34,1.75,1.75,0,0,0-.7-.13,2.61,2.61,0,0,0-.72.1,2.74,2.74,0,0,0-.6.27,2.69,2.69,0,0,0-.5.39c-.16.15-.31.31-.45.47Z" transform="translate(-3.82 -176.98)"/><path class="cls-3" d="M1079.05,573.24a5.94,5.94,0,0,1,.56-.64,4,4,0,0,1,.8-.63,4.21,4.21,0,0,1,1.07-.47,4.54,4.54,0,0,1,1.39-.19,4.59,4.59,0,0,1,1.58.26,3.63,3.63,0,0,1,1.2.74,3.25,3.25,0,0,1,.76,1.15,4,4,0,0,1,.26,1.46,3.66,3.66,0,0,1-.12,1,4.47,4.47,0,0,1-.34.84,5.39,5.39,0,0,1-.52.76c-.19.24-.41.48-.64.72l-2.39,2.48h4.28v2h-7.4V581l4-4.06a3.75,3.75,0,0,0,.69-.92,2.26,2.26,0,0,0,.23-1,1.85,1.85,0,0,0-.12-.67,1.75,1.75,0,0,0-.35-.53,1.66,1.66,0,0,0-.54-.34,1.75,1.75,0,0,0-.7-.13,2.61,2.61,0,0,0-.72.1,2.74,2.74,0,0,0-.6.27,2.69,2.69,0,0,0-.5.39c-.16.15-.31.31-.45.47Z" transform="translate(-3.82 -176.98)"/><path class="cls-3" d="M479.52,610.83a7.15,7.15,0,0,1,1.68.2,6.34,6.34,0,0,1,1.51.56,5.62,5.62,0,0,1,1.26.89,5.13,5.13,0,0,1,.95,1.18L482.76,615a3.87,3.87,0,0,0-1.37-1.27,3.78,3.78,0,0,0-1.89-.46,4.08,4.08,0,0,0-1.58.3,3.67,3.67,0,0,0-1.26.84,3.72,3.72,0,0,0-.83,1.3,4.37,4.37,0,0,0-.31,1.68,4.65,4.65,0,0,0,.31,1.71,3.91,3.91,0,0,0,.85,1.3,3.66,3.66,0,0,0,1.26.82,4.2,4.2,0,0,0,1.56.29,3.94,3.94,0,0,0,1.89-.45,4.06,4.06,0,0,0,1.4-1.28l2,1.48a5.72,5.72,0,0,1-1,1.1,5.86,5.86,0,0,1-1.23.85,6.84,6.84,0,0,1-1.46.53,7.32,7.32,0,0,1-1.65.18,7.21,7.21,0,0,1-2.67-.48,6.25,6.25,0,0,1-2.09-1.36,6.14,6.14,0,0,1-1.37-2.07,7.39,7.39,0,0,1,0-5.24,6.12,6.12,0,0,1,3.46-3.43A7.21,7.21,0,0,1,479.52,610.83Z" transform="translate(-3.82 -176.98)"/><path class="cls-3" d="M495.26,623.67H493v-1a3.22,3.22,0,0,1-2.61,1.18,4,4,0,0,1-1.68-.35,4.12,4.12,0,0,1-1.34-1,4.34,4.34,0,0,1-.88-1.45,5,5,0,0,1-.32-1.83,4.94,4.94,0,0,1,.32-1.82,4.23,4.23,0,0,1,2.22-2.42,4.11,4.11,0,0,1,1.68-.35,3.16,3.16,0,0,1,2.61,1.2v-1h2.29Zm-4.47-6.77a2.18,2.18,0,0,0-.93.19,2.05,2.05,0,0,0-.71.51,2.12,2.12,0,0,0-.45.77,2.81,2.81,0,0,0,0,1.87,2,2,0,0,0,.45.76,2.08,2.08,0,0,0,.71.52,2.41,2.41,0,0,0,1.85,0,2.11,2.11,0,0,0,.71-.51,2.24,2.24,0,0,0,.46-.76,3,3,0,0,0,.16-1,2.91,2.91,0,0,0-.16-.95,2.39,2.39,0,0,0-.46-.77,2.23,2.23,0,0,0-.71-.5A2.32,2.32,0,0,0,490.79,616.9Z" transform="translate(-3.82 -176.98)"/><path class="cls-3" d="M502.58,614.71a3.78,3.78,0,0,1,1.36.25,3.33,3.33,0,0,1,1.08.69,3.2,3.2,0,0,1,.7,1.08,3.66,3.66,0,0,1,.25,1.39v5.55h-2.35v-4.8a2.15,2.15,0,0,0-.44-1.45,1.59,1.59,0,0,0-1.26-.5,2.08,2.08,0,0,0-.71.12,1.52,1.52,0,0,0-.59.37,1.69,1.69,0,0,0-.39.62,2.24,2.24,0,0,0-.15.86v4.78h-2.35V615H500v1a2.65,2.65,0,0,1,1.15-1A3.61,3.61,0,0,1,502.58,614.71Z" transform="translate(-3.82 -176.98)"/><path class="cls-3" d="M517,623.67h-2.29v-1a3.22,3.22,0,0,1-2.61,1.18,4,4,0,0,1-1.68-.35,4.12,4.12,0,0,1-1.34-1,4.34,4.34,0,0,1-.88-1.45,5,5,0,0,1-.32-1.83,4.94,4.94,0,0,1,.32-1.82,4.23,4.23,0,0,1,2.22-2.42,4.11,4.11,0,0,1,1.68-.35,3.16,3.16,0,0,1,2.61,1.2v-1H517Zm-4.47-6.77a2.18,2.18,0,0,0-.93.19,2.05,2.05,0,0,0-.71.51,2.12,2.12,0,0,0-.45.77,2.81,2.81,0,0,0,0,1.87,2,2,0,0,0,.45.76,2.08,2.08,0,0,0,.71.52,2.41,2.41,0,0,0,1.85,0,2.11,2.11,0,0,0,.71-.51,2.24,2.24,0,0,0,.46-.76,3,3,0,0,0,.16-1,2.91,2.91,0,0,0-.16-.95,2.39,2.39,0,0,0-.46-.77,2.23,2.23,0,0,0-.71-.5A2.32,2.32,0,0,0,512.48,616.9Z" transform="translate(-3.82 -176.98)"/><path class="cls-3" d="M523.1,614.71a3.33,3.33,0,0,1,1.51.32,3.17,3.17,0,0,1,1,.83v-5.15H528v13h-2.29v-1a3.22,3.22,0,0,1-2.61,1.18,4,4,0,0,1-1.68-.35,4.12,4.12,0,0,1-1.34-1,4.51,4.51,0,0,1-.88-1.45,5,5,0,0,1-.32-1.83,4.94,4.94,0,0,1,.32-1.82,4.51,4.51,0,0,1,.88-1.45,4.3,4.3,0,0,1,1.34-1A4.11,4.11,0,0,1,523.1,614.71Zm.43,2.19a2.18,2.18,0,0,0-.93.19,2.05,2.05,0,0,0-.71.51,2.12,2.12,0,0,0-.45.77,2.81,2.81,0,0,0,0,1.87,2,2,0,0,0,.45.76,2.08,2.08,0,0,0,.71.52,2.34,2.34,0,0,0,.93.19,2.29,2.29,0,0,0,.92-.18,2.11,2.11,0,0,0,.71-.51,2.24,2.24,0,0,0,.46-.76,2.73,2.73,0,0,0,.16-1,2.67,2.67,0,0,0-.16-.95,2.39,2.39,0,0,0-.46-.77,2.23,2.23,0,0,0-.71-.5A2.29,2.29,0,0,0,523.53,616.9Z" transform="translate(-3.82 -176.98)"/><path class="cls-3" d="M539.06,623.67h-2.3v-1a3.2,3.2,0,0,1-1.07.85,3.33,3.33,0,0,1-1.54.33,3.88,3.88,0,0,1-1.67-.35,3.92,3.92,0,0,1-1.34-1,4.36,4.36,0,0,1-.89-1.45,5.21,5.21,0,0,1-.32-1.83,5.16,5.16,0,0,1,.32-1.82,4.36,4.36,0,0,1,.89-1.45,4.08,4.08,0,0,1,1.34-1,4,4,0,0,1,1.67-.35,3.33,3.33,0,0,1,1.54.33,3.26,3.26,0,0,1,1.07.87v-1h2.3Zm-4.48-6.77a2.18,2.18,0,0,0-.93.19,2.05,2.05,0,0,0-.71.51,2.12,2.12,0,0,0-.45.77,2.81,2.81,0,0,0,0,1.87,2,2,0,0,0,.45.76,2.08,2.08,0,0,0,.71.52,2.34,2.34,0,0,0,.93.19,2.29,2.29,0,0,0,.92-.18,2,2,0,0,0,.71-.51,2.24,2.24,0,0,0,.46-.76,2.73,2.73,0,0,0,.16-1,2.67,2.67,0,0,0-.16-.95,2.39,2.39,0,0,0-.46-.77,2.12,2.12,0,0,0-.71-.5A2.29,2.29,0,0,0,534.58,616.9Z" transform="translate(-3.82 -176.98)"/><line class="cls-6" x1="422.53" y1="441.78" x2="457.53" y2="441.78"/><path class="cls-3" d="M641.79,618.64a6,6,0,0,1-.4,2.29,4.41,4.41,0,0,1-1.11,1.64,4.73,4.73,0,0,1-1.72,1,7.5,7.5,0,0,1-4.4,0,4.69,4.69,0,0,1-1.71-1,4.44,4.44,0,0,1-1.12-1.64,6.2,6.2,0,0,1-.4-2.29v-7.57h2.52v7.44a3.62,3.62,0,0,0,.22,1.34,2.36,2.36,0,0,0,.59.92,2.18,2.18,0,0,0,.92.54,4,4,0,0,0,2.36,0,2.18,2.18,0,0,0,.92-.54,2.37,2.37,0,0,0,.6-.92,3.85,3.85,0,0,0,.21-1.34v-7.44h2.52Z" transform="translate(-3.82 -176.98)"/><path class="cls-3" d="M645.37,620.4a1.71,1.71,0,0,1,.67.14,1.75,1.75,0,0,1,.55.38,1.93,1.93,0,0,1,.38.55,1.67,1.67,0,0,1,.14.67,1.71,1.71,0,0,1-.14.67,2,2,0,0,1-.38.56,1.75,1.75,0,0,1-.55.38,1.67,1.67,0,0,1-1.34,0,1.8,1.8,0,0,1-.94-.94,1.55,1.55,0,0,1-.14-.67,1.52,1.52,0,0,1,.14-.67,1.75,1.75,0,0,1,.38-.55,1.79,1.79,0,0,1,.56-.38A1.71,1.71,0,0,1,645.37,620.4Z" transform="translate(-3.82 -176.98)"/><path class="cls-3" d="M657.83,614.25a7.5,7.5,0,0,0-1.64-.77,6,6,0,0,0-1.93-.31,4.17,4.17,0,0,0-1,.11,2.62,2.62,0,0,0-.76.3,1.41,1.41,0,0,0-.5.47,1.14,1.14,0,0,0-.18.64.86.86,0,0,0,.19.58,1.52,1.52,0,0,0,.54.4,3.85,3.85,0,0,0,.83.27c.31.08.66.14,1,.2l.71.12a8.3,8.3,0,0,1,1.58.4,4.59,4.59,0,0,1,1.28.68,3,3,0,0,1,.85,1,3.13,3.13,0,0,1,.31,1.42,3.59,3.59,0,0,1-.43,1.81,3.76,3.76,0,0,1-1.13,1.28,5.2,5.2,0,0,1-1.65.76,7.34,7.34,0,0,1-2,.25,10.2,10.2,0,0,1-1.45-.1,9.43,9.43,0,0,1-1.42-.31,8.31,8.31,0,0,1-1.31-.52,6,6,0,0,1-1.13-.71l1.3-2a6.36,6.36,0,0,0,.79.52,6.05,6.05,0,0,0,1,.43,6.12,6.12,0,0,0,1.08.3,6.67,6.67,0,0,0,1.19.11,4.25,4.25,0,0,0,1-.1,2.24,2.24,0,0,0,.79-.3,1.59,1.59,0,0,0,.52-.47,1.11,1.11,0,0,0,.19-.65.89.89,0,0,0-.17-.56,1.34,1.34,0,0,0-.51-.4,4,4,0,0,0-.83-.29c-.34-.08-.72-.15-1.16-.23l-.8-.12a8.45,8.45,0,0,1-1.54-.39,4.07,4.07,0,0,1-1.21-.69,3,3,0,0,1-.81-1.06,3.92,3.92,0,0,1,.13-3.2,3.77,3.77,0,0,1,1.09-1.26,5.13,5.13,0,0,1,1.6-.75,7.12,7.12,0,0,1,1.92-.26,10.43,10.43,0,0,1,1.27.08,8,8,0,0,1,1.2.24,9.13,9.13,0,0,1,1.17.42,10.8,10.8,0,0,1,1.17.6Z" transform="translate(-3.82 -176.98)"/><path class="cls-3" d="M662.53,620.4a1.67,1.67,0,0,1,.67.14,1.86,1.86,0,0,1,.93.93,1.67,1.67,0,0,1,.14.67,1.71,1.71,0,0,1-.14.67,1.79,1.79,0,0,1-.38.56,1.75,1.75,0,0,1-.55.38,1.52,1.52,0,0,1-.67.14,1.58,1.58,0,0,1-.67-.14,1.79,1.79,0,0,1-.56-.38,2,2,0,0,1-.38-.56,1.71,1.71,0,0,1-.14-.67,1.67,1.67,0,0,1,.14-.67,1.93,1.93,0,0,1,.38-.55,1.79,1.79,0,0,1,.56-.38A1.75,1.75,0,0,1,662.53,620.4Z" transform="translate(-3.82 -176.98)"/><line class="cls-1" x1="580.1" y1="441.78" x2="615.1" y2="441.78"/></svg>