<svg id="Layer_1" data-name="Layer 1" xmlns="http://www.w3.org/2000/svg" viewBox="0 0 1082.19 446.92"><defs><style>.cls-1,.cls-2,.cls-4,.cls-5,.cls-6{fill:none;}.cls-1,.cls-2,.cls-4{stroke:#203232;stroke-miterlimit:10;}.cls-1,.cls-5,.cls-6{stroke-linecap:round;}.cls-1,.cls-5{stroke-width:3px;}.cls-2{stroke-width:2px;}.cls-3{fill:#203232;}.cls-4{stroke-width:0.31px;}.cls-5,.cls-6{stroke:#ec5a35;stroke-linejoin:round;}.cls-6{stroke-width:3.21px;}</style></defs><line class="cls-1" x1="1049.02" y1="45.52" x2="1062.93" y2="24.91"/><line class="cls-1" x1="1035.12" y1="53.76" x2="1049.02" y2="45.52"/><line class="cls-1" x1="1021.21" y1="78.49" x2="1035.12" y2="53.76"/><line class="cls-1" x1="1007.3" y1="111.46" x2="1021.21" y2="78.49"/><line class="cls-1" x1="993.4" y1="115.58" x2="1007.3" y2="111.46"/><line class="cls-1" x1="979.49" y1="111.46" x2="993.4" y2="115.58"/><line class="cls-1" x1="965.58" y1="111.46" x2="979.49" y2="111.46"/><line class="cls-1" x1="951.68" y1="127.95" x2="965.58" y2="111.46"/><line class="cls-1" x1="937.77" y1="160.92" x2="951.68" y2="127.95"/><line class="cls-1" x1="923.86" y1="226.87" x2="937.77" y2="160.92"/><line class="cls-1" x1="909.96" y1="263.96" x2="923.86" y2="226.87"/><line class="cls-1" x1="896.05" y1="276.32" x2="909.96" y2="263.96"/><line class="cls-1" x1="882.14" y1="276.32" x2="896.05" y2="276.32"/><line class="cls-1" x1="868.23" y1="284.57" x2="882.14" y2="276.32"/><line class="cls-1" x1="854.33" y1="284.57" x2="868.23" y2="284.57"/><line class="cls-1" x1="840.42" y1="276.32" x2="854.33" y2="284.57"/><line class="cls-1" x1="826.51" y1="280.45" x2="840.42" y2="276.32"/><line class="cls-1" x1="812.61" y1="292.81" x2="826.51" y2="280.45"/><line class="cls-1" x1="798.7" y1="309.3" x2="812.61" y2="292.81"/><line class="cls-1" x1="784.79" y1="329.91" x2="798.7" y2="309.3"/><line class="cls-1" x1="770.89" y1="321.66" x2="784.79" y2="329.91"/><line class="cls-1" x1="756.98" y1="272.2" x2="770.89" y2="321.66"/><line class="cls-1" x1="743.07" y1="239.23" x2="756.98" y2="272.2"/><line class="cls-1" x1="729.17" y1="230.99" x2="743.07" y2="239.23"/><line class="cls-1" x1="715.26" y1="239.23" x2="729.17" y2="230.99"/><line class="cls-1" x1="701.35" y1="247.47" x2="715.26" y2="239.23"/><line class="cls-1" x1="687.45" y1="259.84" x2="701.35" y2="247.47"/><line class="cls-1" x1="673.54" y1="263.96" x2="687.45" y2="259.84"/><line class="cls-1" x1="659.63" y1="263.96" x2="673.54" y2="263.96"/><line class="cls-1" x1="645.73" y1="259.84" x2="659.63" y2="263.96"/><line class="cls-1" x1="631.82" y1="268.08" x2="645.73" y2="259.84"/><line class="cls-1" x1="617.91" y1="259.84" x2="631.82" y2="268.08"/><line class="cls-1" x1="604.01" y1="251.59" x2="617.91" y2="259.84"/><line class="cls-1" x1="590.1" y1="255.72" x2="604.01" y2="251.59"/><line class="cls-1" x1="576.19" y1="272.2" x2="590.1" y2="255.72"/><line class="cls-1" x1="562.29" y1="268.08" x2="576.19" y2="272.2"/><line class="cls-1" x1="548.38" y1="255.72" x2="562.29" y2="268.08"/><line class="cls-1" x1="534.47" y1="243.35" x2="548.38" y2="255.72"/><line class="cls-1" x1="520.57" y1="230.99" x2="534.47" y2="243.35"/><line class="cls-1" x1="506.66" y1="239.23" x2="520.57" y2="230.99"/><line class="cls-1" x1="492.75" y1="222.74" x2="506.66" y2="239.23"/><line class="cls-1" x1="478.84" y1="214.5" x2="492.75" y2="222.74"/><line class="cls-1" x1="464.94" y1="214.5" x2="478.84" y2="214.5"/><line class="cls-1" x1="451.03" y1="218.62" x2="464.94" y2="214.5"/><line class="cls-1" x1="437.12" y1="230.99" x2="451.03" y2="218.62"/><line class="cls-1" x1="423.22" y1="235.11" x2="437.12" y2="230.99"/><line class="cls-1" x1="409.31" y1="243.35" x2="423.22" y2="235.11"/><line class="cls-1" x1="395.4" y1="247.47" x2="409.31" y2="243.35"/><line class="cls-1" x1="381.5" y1="247.47" x2="395.4" y2="247.47"/><line class="cls-1" x1="367.59" y1="243.35" x2="381.5" y2="247.47"/><line class="cls-1" x1="353.68" y1="251.59" x2="367.59" y2="243.35"/><line class="cls-1" x1="339.78" y1="243.35" x2="353.68" y2="251.59"/><line class="cls-1" x1="325.87" y1="255.72" x2="339.78" y2="243.35"/><line class="cls-1" x1="311.96" y1="263.96" x2="325.87" y2="255.72"/><line class="cls-1" x1="298.06" y1="268.08" x2="311.96" y2="263.96"/><line class="cls-1" x1="284.15" y1="255.72" x2="298.06" y2="268.08"/><line class="cls-1" x1="270.24" y1="243.35" x2="284.15" y2="255.72"/><line class="cls-1" x1="256.34" y1="235.11" x2="270.24" y2="243.35"/><line class="cls-1" x1="242.43" y1="222.74" x2="256.34" y2="235.11"/><line class="cls-1" x1="228.52" y1="230.99" x2="242.43" y2="222.74"/><line class="cls-1" x1="214.62" y1="247.47" x2="228.52" y2="230.99"/><line class="cls-1" x1="200.71" y1="263.96" x2="214.62" y2="247.47"/><line class="cls-1" x1="186.8" y1="268.08" x2="200.71" y2="263.96"/><line class="cls-1" x1="172.9" y1="272.2" x2="186.8" y2="268.08"/><line class="cls-1" x1="158.99" y1="288.69" x2="172.9" y2="272.2"/><line class="cls-1" x1="145.08" y1="301.05" x2="158.99" y2="288.69"/><line class="cls-1" x1="131.17" y1="292.81" x2="145.08" y2="301.05"/><line class="cls-1" x1="117.27" y1="292.81" x2="131.17" y2="292.81"/><line class="cls-1" x1="103.36" y1="288.69" x2="117.27" y2="292.81"/><line class="cls-1" x1="89.45" y1="296.93" x2="103.36" y2="288.69"/><line class="cls-1" x1="75.55" y1="292.81" x2="89.45" y2="296.93"/><line class="cls-1" x1="61.64" y1="276.32" x2="75.55" y2="292.81"/><line class="cls-2" x1="54.09" y1="332.96" x2="1070.04" y2="332.96"/><path class="cls-3" d="M5.06,552.32H.34v-1.83H5.06Z" transform="translate(-0.34 -176.98)"/><path class="cls-3" d="M10.18,553.61v-6.42l-2.78,1V546l4.93-1.74v9.32h2.54v2H7.53v-2Z" transform="translate(-0.34 -176.98)"/><path class="cls-3" d="M19.1,553.13,18,557.9H16.22l.54-4.77Z" transform="translate(-0.34 -176.98)"/><path class="cls-3" d="M24.66,544.26a4.26,4.26,0,0,1,1.67.34,3.71,3.71,0,0,1,1.38,1.06,5.25,5.25,0,0,1,.94,1.81,8.65,8.65,0,0,1,.34,2.59,9,9,0,0,1-.34,2.66,5.11,5.11,0,0,1-.94,1.8,3.6,3.6,0,0,1-1.38,1,4.43,4.43,0,0,1-1.67.32,4.6,4.6,0,0,1-1.71-.32,3.75,3.75,0,0,1-1.4-1,5.12,5.12,0,0,1-.95-1.8,10.28,10.28,0,0,1,0-5.32,5.12,5.12,0,0,1,.95-1.8,3.54,3.54,0,0,1,1.4-1A4.6,4.6,0,0,1,24.66,544.26Zm0,2.07a2,2,0,0,0-.83.19,1.78,1.78,0,0,0-.7.62,3.32,3.32,0,0,0-.47,1.15,8.79,8.79,0,0,0,0,3.54,3.32,3.32,0,0,0,.47,1.15,1.71,1.71,0,0,0,.7.62,1.84,1.84,0,0,0,.83.19,1.77,1.77,0,0,0,.8-.19,1.7,1.7,0,0,0,.67-.62,3.53,3.53,0,0,0,.47-1.15,8,8,0,0,0,.17-1.77,7.56,7.56,0,0,0-.17-1.7,3.79,3.79,0,0,0-.47-1.16,1.91,1.91,0,0,0-.67-.66A1.68,1.68,0,0,0,24.66,546.33Z" transform="translate(-0.34 -176.98)"/><path class="cls-3" d="M37.09,544.26a3.39,3.39,0,0,1,1.25.23,3.19,3.19,0,0,1,1,.64,3.09,3.09,0,0,1,.66,1,3.18,3.18,0,0,1,.23,1.21,3.23,3.23,0,0,1-.23,1.22,2.88,2.88,0,0,1-.66,1,3,3,0,0,1-1,.64,3.48,3.48,0,0,1-2.49,0,3.08,3.08,0,0,1-1-.64,2.88,2.88,0,0,1-.66-1,3.05,3.05,0,0,1-.24-1.22,3,3,0,0,1,.24-1.21,3.09,3.09,0,0,1,.66-1,3.26,3.26,0,0,1,1-.64A3.37,3.37,0,0,1,37.09,544.26Zm0,1.67a1.32,1.32,0,0,0-.53.11,1.28,1.28,0,0,0-.43.28,1.33,1.33,0,0,0-.28.44,1.42,1.42,0,0,0-.1.55,1.47,1.47,0,0,0,.1.56,1.33,1.33,0,0,0,.28.44,1.3,1.3,0,0,0,.43.29,1.32,1.32,0,0,0,.53.1,1.31,1.31,0,0,0,1-.39,1.33,1.33,0,0,0,.28-.44,1.69,1.69,0,0,0,.1-.56,1.63,1.63,0,0,0-.1-.55,1.33,1.33,0,0,0-.28-.44,1.39,1.39,0,0,0-.43-.28A1.42,1.42,0,0,0,37.09,545.93Zm1.49,9.73H36.49L44,544.46h2.09Zm6.92-5.91a3.39,3.39,0,0,1,1.25.23,3.19,3.19,0,0,1,1,.64,3,3,0,0,1,.66,1,3.32,3.32,0,0,1,0,2.43,3,3,0,0,1-.66,1,3.19,3.19,0,0,1-1,.64,3.39,3.39,0,0,1-1.25.23,3.34,3.34,0,0,1-1.24-.23,3.19,3.19,0,0,1-1-.64,3,3,0,0,1-.65-1,3.05,3.05,0,0,1-.24-1.22,3,3,0,0,1,.24-1.2,2.85,2.85,0,0,1,.65-1,3,3,0,0,1,1-.64A3.15,3.15,0,0,1,45.5,549.75Zm0,1.67a1.51,1.51,0,0,0-.53.1,1.3,1.3,0,0,0-.43.29,1.44,1.44,0,0,0-.28.44,1.42,1.42,0,0,0-.1.55,1.41,1.41,0,0,0,.38,1,1.15,1.15,0,0,0,.43.28,1.32,1.32,0,0,0,.53.11,1.42,1.42,0,0,0,.55-.11,1.19,1.19,0,0,0,.42-.28,1.27,1.27,0,0,0,.28-.44,1.43,1.43,0,0,0,.1-.56,1.42,1.42,0,0,0-.1-.55,1.27,1.27,0,0,0-.28-.44,1.37,1.37,0,0,0-.42-.29A1.63,1.63,0,0,0,45.5,551.42Z" transform="translate(-0.34 -176.98)"/><path class="cls-3" d="M10.78,503.45a4.14,4.14,0,0,1,1.68.35,3.85,3.85,0,0,1,1.38,1.05,5.42,5.42,0,0,1,.94,1.81,9,9,0,0,1,.34,2.59,9.3,9.3,0,0,1-.34,2.66,5.18,5.18,0,0,1-.94,1.8,3.76,3.76,0,0,1-1.38,1,4.48,4.48,0,0,1-1.68.32,4.59,4.59,0,0,1-1.7-.32,3.75,3.75,0,0,1-1.4-1,5,5,0,0,1-.95-1.8,10.28,10.28,0,0,1,0-5.32,5.12,5.12,0,0,1,.95-1.8,3.75,3.75,0,0,1,1.4-1A4.59,4.59,0,0,1,10.78,503.45Zm0,2.07a2,2,0,0,0-.82.19,1.78,1.78,0,0,0-.7.62,3.52,3.52,0,0,0-.48,1.15,8,8,0,0,0-.17,1.77A7.91,7.91,0,0,0,8.78,511a3.52,3.52,0,0,0,.48,1.15,1.71,1.71,0,0,0,.7.62,1.83,1.83,0,0,0,.82.19,1.74,1.74,0,0,0,1.48-.81,3.53,3.53,0,0,0,.46-1.15,7.3,7.3,0,0,0,.18-1.77,7,7,0,0,0-.18-1.7,3.79,3.79,0,0,0-.46-1.16,1.94,1.94,0,0,0-.68-.66A1.62,1.62,0,0,0,10.78,505.52Z" transform="translate(-0.34 -176.98)"/><path class="cls-3" d="M19.1,512.32,18,517.09H16.22l.54-4.77Z" transform="translate(-0.34 -176.98)"/><path class="cls-3" d="M24.66,503.45a4.1,4.1,0,0,1,1.67.35,3.69,3.69,0,0,1,1.38,1.05,5.25,5.25,0,0,1,.94,1.81,8.65,8.65,0,0,1,.34,2.59,9,9,0,0,1-.34,2.66,5,5,0,0,1-.94,1.8,3.6,3.6,0,0,1-1.38,1,4.43,4.43,0,0,1-1.67.32,4.6,4.6,0,0,1-1.71-.32,3.75,3.75,0,0,1-1.4-1,5,5,0,0,1-.95-1.8,10.28,10.28,0,0,1,0-5.32,5.12,5.12,0,0,1,.95-1.8,3.75,3.75,0,0,1,1.4-1A4.6,4.6,0,0,1,24.66,503.45Zm0,2.07a2,2,0,0,0-.83.19,1.78,1.78,0,0,0-.7.62,3.32,3.32,0,0,0-.47,1.15,7.42,7.42,0,0,0-.18,1.77,7.3,7.3,0,0,0,.18,1.77,3.32,3.32,0,0,0,.47,1.15,1.71,1.71,0,0,0,.7.62,1.84,1.84,0,0,0,.83.19,1.77,1.77,0,0,0,.8-.19,1.7,1.7,0,0,0,.67-.62A3.53,3.53,0,0,0,26.6,511a7.91,7.91,0,0,0,.17-1.77,7.56,7.56,0,0,0-.17-1.7,3.79,3.79,0,0,0-.47-1.16,1.91,1.91,0,0,0-.67-.66A1.68,1.68,0,0,0,24.66,505.52Z" transform="translate(-0.34 -176.98)"/><path class="cls-3" d="M37.09,503.45a3.39,3.39,0,0,1,1.25.23,3.19,3.19,0,0,1,1,.64,3.09,3.09,0,0,1,.66,1,3.18,3.18,0,0,1,.23,1.21,3.23,3.23,0,0,1-.23,1.22,2.88,2.88,0,0,1-.66,1,3,3,0,0,1-1,.64,3.48,3.48,0,0,1-2.49,0,3.08,3.08,0,0,1-1-.64,2.88,2.88,0,0,1-.66-1A3.05,3.05,0,0,1,34,506.5a3,3,0,0,1,.24-1.21,3.09,3.09,0,0,1,.66-1,3.26,3.26,0,0,1,1-.64A3.37,3.37,0,0,1,37.09,503.45Zm0,1.67a1.32,1.32,0,0,0-.53.11,1.28,1.28,0,0,0-.43.28,1.33,1.33,0,0,0-.28.44,1.42,1.42,0,0,0-.1.55,1.47,1.47,0,0,0,.1.56,1.33,1.33,0,0,0,.28.44,1.3,1.3,0,0,0,.43.29,1.32,1.32,0,0,0,.53.1,1.31,1.31,0,0,0,1-.39,1.33,1.33,0,0,0,.28-.44,1.69,1.69,0,0,0,.1-.56,1.63,1.63,0,0,0-.1-.55,1.33,1.33,0,0,0-.28-.44,1.39,1.39,0,0,0-.43-.28A1.42,1.42,0,0,0,37.09,505.12Zm1.49,9.73H36.49L44,503.65h2.09Zm6.92-5.91a3.39,3.39,0,0,1,1.25.23,3.19,3.19,0,0,1,1,.64,3,3,0,0,1,.66,1,3.32,3.32,0,0,1,0,2.43,2.88,2.88,0,0,1-.66,1,3,3,0,0,1-1,.64,3.39,3.39,0,0,1-1.25.23,3.34,3.34,0,0,1-1.24-.23,3,3,0,0,1-1-.64,2.85,2.85,0,0,1-.65-1,3,3,0,0,1-.24-1.21,3,3,0,0,1,.24-1.21,3,3,0,0,1,.65-1,3,3,0,0,1,1-.64A3.15,3.15,0,0,1,45.5,508.94Zm0,1.67a1.32,1.32,0,0,0-.53.11,1.28,1.28,0,0,0-.43.28,1.41,1.41,0,0,0-.38,1,1.42,1.42,0,0,0,.1.55,1.33,1.33,0,0,0,.28.44,1.3,1.3,0,0,0,.43.29,1.32,1.32,0,0,0,.53.1,1.42,1.42,0,0,0,.55-.1,1.37,1.37,0,0,0,.42-.29,1.18,1.18,0,0,0,.28-.44,1.42,1.42,0,0,0,.1-.55,1.43,1.43,0,0,0-.1-.56,1.27,1.27,0,0,0-.28-.44,1.34,1.34,0,0,0-.42-.28A1.42,1.42,0,0,0,45.5,510.61Z" transform="translate(-0.34 -176.98)"/><path class="cls-3" d="M10.18,472v-6.43l-2.78,1v-2.15l4.93-1.74V472h2.54v2H7.53v-2Z" transform="translate(-0.34 -176.98)"/><path class="cls-3" d="M19.1,471.52,18,476.28H16.22l.54-4.76Z" transform="translate(-0.34 -176.98)"/><path class="cls-3" d="M24.66,462.64a4.1,4.1,0,0,1,1.67.35A3.69,3.69,0,0,1,27.71,464a5.25,5.25,0,0,1,.94,1.81,8.7,8.7,0,0,1,.34,2.59,9,9,0,0,1-.34,2.66,4.94,4.94,0,0,1-.94,1.8,3.6,3.6,0,0,1-1.38,1,4.25,4.25,0,0,1-1.67.32,4.41,4.41,0,0,1-1.71-.32,3.75,3.75,0,0,1-1.4-1,5,5,0,0,1-.95-1.8,10.28,10.28,0,0,1,0-5.32,5.12,5.12,0,0,1,.95-1.8,3.75,3.75,0,0,1,1.4-1A4.6,4.6,0,0,1,24.66,462.64Zm0,2.08a2,2,0,0,0-.83.18,1.86,1.86,0,0,0-.7.62,3.4,3.4,0,0,0-.47,1.15,8.84,8.84,0,0,0,0,3.55,3.26,3.26,0,0,0,.47,1.14,1.71,1.71,0,0,0,.7.62,1.84,1.84,0,0,0,.83.19,1.77,1.77,0,0,0,.8-.19,1.7,1.7,0,0,0,.67-.62,3.46,3.46,0,0,0,.47-1.14,8.07,8.07,0,0,0,.17-1.78,7.62,7.62,0,0,0-.17-1.7,3.9,3.9,0,0,0-.47-1.16,1.91,1.91,0,0,0-.67-.66A1.79,1.79,0,0,0,24.66,464.72Z" transform="translate(-0.34 -176.98)"/><path class="cls-3" d="M37.09,462.64a3.2,3.2,0,0,1,1.25.24,2.86,2.86,0,0,1,1,.64,2.94,2.94,0,0,1,.66,1,3.18,3.18,0,0,1,.23,1.21,3.32,3.32,0,0,1-.23,1.23,2.94,2.94,0,0,1-.66,1,2.86,2.86,0,0,1-1,.64,3.35,3.35,0,0,1-2.49,0,3,3,0,0,1-1.64-1.6,3.14,3.14,0,0,1-.24-1.23,3,3,0,0,1,.24-1.21,3,3,0,0,1,1.64-1.6A3.19,3.19,0,0,1,37.09,462.64Zm0,1.68a1.32,1.32,0,0,0-.53.1,1.28,1.28,0,0,0-.43.28,1.33,1.33,0,0,0-.28.44,1.45,1.45,0,0,0-.1.55,1.47,1.47,0,0,0,.1.56,1.33,1.33,0,0,0,.28.44,1.3,1.3,0,0,0,.43.29,1.32,1.32,0,0,0,.53.1,1.31,1.31,0,0,0,1-.39,1.33,1.33,0,0,0,.28-.44,1.59,1.59,0,0,0,0-1.11,1.33,1.33,0,0,0-.28-.44,1.39,1.39,0,0,0-.43-.28A1.42,1.42,0,0,0,37.09,464.32ZM38.58,474H36.49L44,462.84h2.09Zm6.92-5.91a3.39,3.39,0,0,1,1.25.23,3.19,3.19,0,0,1,1,.64,3.09,3.09,0,0,1,.66,1,3.27,3.27,0,0,1,.23,1.22,3.18,3.18,0,0,1-.23,1.21,2.88,2.88,0,0,1-.66,1,3,3,0,0,1-1,.64,3.2,3.2,0,0,1-1.25.23,3.15,3.15,0,0,1-1.24-.23,3,3,0,0,1-1-.64,2.85,2.85,0,0,1-.65-1,3,3,0,0,1-.24-1.21,3,3,0,0,1,.24-1.21,3,3,0,0,1,.65-1,3.19,3.19,0,0,1,1-.64A3.15,3.15,0,0,1,45.5,468.13Zm0,1.67a1.32,1.32,0,0,0-.53.11,1.17,1.17,0,0,0-.43.29,1.28,1.28,0,0,0-.28.43,1.47,1.47,0,0,0-.1.56,1.38,1.38,0,0,0,.1.55,1.33,1.33,0,0,0,.28.44,1.3,1.3,0,0,0,.43.29,1.32,1.32,0,0,0,.53.1,1.42,1.42,0,0,0,.55-.1,1.37,1.37,0,0,0,.42-.29,1.18,1.18,0,0,0,.28-.44,1.38,1.38,0,0,0,.1-.55,1.47,1.47,0,0,0-.1-.56,1.15,1.15,0,0,0-.28-.43,1.22,1.22,0,0,0-.42-.29A1.42,1.42,0,0,0,45.5,469.8Z" transform="translate(-0.34 -176.98)"/><path class="cls-3" d="M6.72,423.76a7.29,7.29,0,0,1,.56-.63,4,4,0,0,1,.8-.63A5,5,0,0,1,9.15,422a4.93,4.93,0,0,1,1.39-.18,4.42,4.42,0,0,1,1.59.26,3.34,3.34,0,0,1,1.19.74,3.31,3.31,0,0,1,.76,1.14,3.92,3.92,0,0,1,.26,1.47,3.71,3.71,0,0,1-.12,1,4.35,4.35,0,0,1-.34.84,5.22,5.22,0,0,1-.51.75c-.2.24-.41.48-.64.72l-2.4,2.49h4.29v2H7.22v-1.69l4-4.06a4,4,0,0,0,.68-.92,2.17,2.17,0,0,0,.24-1,1.82,1.82,0,0,0-.13-.67,1.58,1.58,0,0,0-.35-.53,1.68,1.68,0,0,0-.54-.35,1.94,1.94,0,0,0-.7-.12,2.37,2.37,0,0,0-.72.1,2.74,2.74,0,0,0-.6.27,2.69,2.69,0,0,0-.5.39c-.16.15-.3.31-.45.47Z" transform="translate(-0.34 -176.98)"/><path class="cls-3" d="M19.1,430.71,18,435.48H16.22l.54-4.77Z" transform="translate(-0.34 -176.98)"/><path class="cls-3" d="M24.66,421.84a4.09,4.09,0,0,1,1.67.34,3.61,3.61,0,0,1,1.38,1.06,5.11,5.11,0,0,1,.94,1.8,8.72,8.72,0,0,1,.34,2.6,9,9,0,0,1-.34,2.66,5,5,0,0,1-.94,1.79,3.41,3.41,0,0,1-1.38,1,4.25,4.25,0,0,1-1.67.33,4.42,4.42,0,0,1-1.71-.33,3.54,3.54,0,0,1-1.4-1,5,5,0,0,1-.95-1.79,10.28,10.28,0,0,1,0-5.32,5,5,0,0,1,.95-1.8,3.54,3.54,0,0,1,1.4-1A4.41,4.41,0,0,1,24.66,421.84Zm0,2.07a1.84,1.84,0,0,0-.83.19,1.71,1.71,0,0,0-.7.62,3.26,3.26,0,0,0-.47,1.14,8.84,8.84,0,0,0,0,3.55,3.4,3.4,0,0,0,.47,1.15,1.86,1.86,0,0,0,.7.62,2,2,0,0,0,.83.18,1.9,1.9,0,0,0,.8-.18,1.87,1.87,0,0,0,.67-.62,3.62,3.62,0,0,0,.47-1.15,8,8,0,0,0,.17-1.77,7.5,7.5,0,0,0-.17-1.7,3.69,3.69,0,0,0-.47-1.16,1.76,1.76,0,0,0-.67-.66A1.68,1.68,0,0,0,24.66,423.91Z" transform="translate(-0.34 -176.98)"/><path class="cls-3" d="M37.09,421.84a3.2,3.2,0,0,1,1.25.23,3,3,0,0,1,1,.64,2.94,2.94,0,0,1,.66,1,3.22,3.22,0,0,1,.23,1.21,3.28,3.28,0,0,1-.23,1.23,3.09,3.09,0,0,1-.66,1,3.19,3.19,0,0,1-1,.64,3.48,3.48,0,0,1-2.49,0,3.26,3.26,0,0,1-1-.64,3,3,0,0,1-.9-2.2,3,3,0,0,1,.24-1.21,2.94,2.94,0,0,1,.66-1,3.08,3.08,0,0,1,1-.64A3.18,3.18,0,0,1,37.09,421.84Zm0,1.67a1.32,1.32,0,0,0-.53.1,1.3,1.3,0,0,0-.43.29,1.28,1.28,0,0,0-.28.43,1.45,1.45,0,0,0-.1.55,1.43,1.43,0,0,0,.1.56,1.33,1.33,0,0,0,.28.44,1.17,1.17,0,0,0,.43.29,1.32,1.32,0,0,0,.53.11,1.42,1.42,0,0,0,.55-.11,1.26,1.26,0,0,0,.43-.29,1.33,1.33,0,0,0,.28-.44,1.64,1.64,0,0,0,.1-.56,1.68,1.68,0,0,0-.1-.55,1.28,1.28,0,0,0-.28-.43,1.31,1.31,0,0,0-1-.39Zm1.49,9.73H36.49L44,422h2.09Zm6.92-5.92a3.2,3.2,0,0,1,1.25.24,2.86,2.86,0,0,1,1,.64,2.94,2.94,0,0,1,.66,1,3.35,3.35,0,0,1,0,2.44,2.94,2.94,0,0,1-.66,1,2.86,2.86,0,0,1-1,.64,3.2,3.2,0,0,1-1.25.24,3.15,3.15,0,0,1-1.24-.24,2.86,2.86,0,0,1-1-.64,2.91,2.91,0,0,1-.65-1,3.09,3.09,0,0,1-.24-1.22,3.06,3.06,0,0,1,.89-2.18,3.19,3.19,0,0,1,1-.64A3.15,3.15,0,0,1,45.5,427.32Zm0,1.68a1.32,1.32,0,0,0-.53.1,1.17,1.17,0,0,0-.43.29,1.39,1.39,0,0,0-.28.43,1.62,1.62,0,0,0,0,1.12,1.39,1.39,0,0,0,.28.43,1.3,1.3,0,0,0,.43.29,1.32,1.32,0,0,0,.53.1,1.42,1.42,0,0,0,.55-.1,1.37,1.37,0,0,0,.42-.29,1.23,1.23,0,0,0,.28-.43,1.62,1.62,0,0,0,0-1.12,1.23,1.23,0,0,0-.28-.43,1.22,1.22,0,0,0-.42-.29A1.42,1.42,0,0,0,45.5,429Z" transform="translate(-0.34 -176.98)"/><path class="cls-3" d="M10.42,381a5.09,5.09,0,0,1,1.61.23,3.71,3.71,0,0,1,1.25.65,3.07,3.07,0,0,1,.82,1,3,3,0,0,1,.28,1.32,2.61,2.61,0,0,1-.44,1.54,3.08,3.08,0,0,1-1.23,1,3.35,3.35,0,0,1,1.41,1,2.49,2.49,0,0,1,.51,1.57,2.79,2.79,0,0,1-.35,1.44,3.1,3.1,0,0,1-.92,1,4.22,4.22,0,0,1-1.32.61,6.08,6.08,0,0,1-1.54.2,5.59,5.59,0,0,1-2.26-.43A4.2,4.2,0,0,1,6.59,391l1.29-1.41a3.42,3.42,0,0,0,1.15.79,3.49,3.49,0,0,0,1.39.28,3.13,3.13,0,0,0,.77-.09,2,2,0,0,0,.62-.27,1.29,1.29,0,0,0,.42-.45,1.36,1.36,0,0,0,.15-.65,1.1,1.1,0,0,0-.17-.63,1.48,1.48,0,0,0-.47-.46,2.33,2.33,0,0,0-.7-.28,3.76,3.76,0,0,0-.85-.09H8.89v-1.92H10.2a3,3,0,0,0,.76-.09,2,2,0,0,0,.63-.27A1.35,1.35,0,0,0,12,385a1.36,1.36,0,0,0,0-1.22,1.21,1.21,0,0,0-.4-.44,1.78,1.78,0,0,0-.59-.27,2.81,2.81,0,0,0-.73-.09,2.73,2.73,0,0,0-.72.09,2.3,2.3,0,0,0-.62.25,2.41,2.41,0,0,0-.52.36,2.65,2.65,0,0,0-.4.43l-1.36-1.37a4.07,4.07,0,0,1,.64-.68,3.77,3.77,0,0,1,.83-.56,5,5,0,0,1,1-.36A5.36,5.36,0,0,1,10.42,381Z" transform="translate(-0.34 -176.98)"/><path class="cls-3" d="M19.1,389.9,18,394.67H16.22l.54-4.77Z" transform="translate(-0.34 -176.98)"/><path class="cls-3" d="M24.66,381a4.09,4.09,0,0,1,1.67.34,3.61,3.61,0,0,1,1.38,1.06,5.07,5.07,0,0,1,.94,1.81,8.65,8.65,0,0,1,.34,2.59,9,9,0,0,1-.34,2.66,5,5,0,0,1-.94,1.79,3.41,3.41,0,0,1-1.38,1,4.25,4.25,0,0,1-1.67.33A4.42,4.42,0,0,1,23,392.3a3.54,3.54,0,0,1-1.4-1,5,5,0,0,1-.95-1.79,10.28,10.28,0,0,1,0-5.32,5,5,0,0,1,.95-1.8,3.54,3.54,0,0,1,1.4-1A4.41,4.41,0,0,1,24.66,381Zm0,2.07a1.84,1.84,0,0,0-.83.19,1.71,1.71,0,0,0-.7.62,3.32,3.32,0,0,0-.47,1.15,7.3,7.3,0,0,0-.18,1.77,7.42,7.42,0,0,0,.18,1.77,3.32,3.32,0,0,0,.47,1.15,1.78,1.78,0,0,0,.7.62,2,2,0,0,0,.83.19,1.91,1.91,0,0,0,.8-.19,1.78,1.78,0,0,0,.67-.62,3.53,3.53,0,0,0,.47-1.15,8,8,0,0,0,.17-1.77,7.56,7.56,0,0,0-.17-1.7,3.79,3.79,0,0,0-.47-1.16,1.91,1.91,0,0,0-.67-.66A1.68,1.68,0,0,0,24.66,383.1Z" transform="translate(-0.34 -176.98)"/><path class="cls-3" d="M37.09,381a3.2,3.2,0,0,1,1.25.23,3,3,0,0,1,1,.64,2.94,2.94,0,0,1,.66,1,3.35,3.35,0,0,1,0,2.44,3,3,0,0,1-.66,1,3.19,3.19,0,0,1-1,.64,3.48,3.48,0,0,1-2.49,0,3.26,3.26,0,0,1-1-.64,3,3,0,0,1-.66-1,3.22,3.22,0,0,1,0-2.44,2.94,2.94,0,0,1,.66-1,3.08,3.08,0,0,1,1-.64A3.18,3.18,0,0,1,37.09,381Zm0,1.67a1.32,1.32,0,0,0-.53.1,1.3,1.3,0,0,0-.43.29,1.28,1.28,0,0,0-.28.43,1.47,1.47,0,0,0-.1.56,1.5,1.5,0,0,0,.1.56,1.44,1.44,0,0,0,.28.44,1.28,1.28,0,0,0,.43.28,1.32,1.32,0,0,0,.53.11,1.42,1.42,0,0,0,.55-.11,1.39,1.39,0,0,0,.43-.28,1.44,1.44,0,0,0,.28-.44,1.74,1.74,0,0,0,.1-.56,1.69,1.69,0,0,0-.1-.56,1.28,1.28,0,0,0-.28-.43,1.31,1.31,0,0,0-1-.39Zm1.49,9.73H36.49L44,381.23h2.09Zm6.92-5.91a3.2,3.2,0,0,1,1.25.23,3,3,0,0,1,1,.64,2.88,2.88,0,0,1,.66,1,3.18,3.18,0,0,1,.23,1.21,3.27,3.27,0,0,1-.23,1.22,3.09,3.09,0,0,1-.66,1,3.19,3.19,0,0,1-1,.64,3.39,3.39,0,0,1-1.25.23,3.34,3.34,0,0,1-1.24-.23,3.19,3.19,0,0,1-1-.64,3.15,3.15,0,0,1-.65-3.4,2.91,2.91,0,0,1,.65-1,3,3,0,0,1,1-.65A3.15,3.15,0,0,1,45.5,386.52Zm0,1.67a1.32,1.32,0,0,0-.53.1,1.3,1.3,0,0,0-.43.29,1.33,1.33,0,0,0-.28.44,1.38,1.38,0,0,0-.1.55,1.47,1.47,0,0,0,.1.56,1.28,1.28,0,0,0,.28.43,1.17,1.17,0,0,0,.43.29,1.32,1.32,0,0,0,.53.11,1.42,1.42,0,0,0,.55-.11,1.22,1.22,0,0,0,.42-.29,1.15,1.15,0,0,0,.28-.43,1.47,1.47,0,0,0,.1-.56,1.38,1.38,0,0,0-.1-.55,1.18,1.18,0,0,0-.28-.44,1.37,1.37,0,0,0-.42-.29A1.42,1.42,0,0,0,45.5,388.19Z" transform="translate(-0.34 -176.98)"/><path class="cls-3" d="M13.54,347.55H15.1v2H13.54v2.05H11.38v-2.05h-5V348l3.92-7.57h2.41L9,347.55h2.39v-3h2.16Z" transform="translate(-0.34 -176.98)"/><path class="cls-3" d="M19.1,349.09,18,353.86H16.22l.54-4.77Z" transform="translate(-0.34 -176.98)"/><path class="cls-3" d="M24.66,340.22a4.09,4.09,0,0,1,1.67.34,3.61,3.61,0,0,1,1.38,1.06,5.16,5.16,0,0,1,.94,1.81A8.65,8.65,0,0,1,29,346a9,9,0,0,1-.34,2.66,5,5,0,0,1-.94,1.79,3.41,3.41,0,0,1-1.38,1,4.25,4.25,0,0,1-1.67.33,4.42,4.42,0,0,1-1.71-.33,3.54,3.54,0,0,1-1.4-1,5,5,0,0,1-.95-1.79,10.28,10.28,0,0,1,0-5.32,5.12,5.12,0,0,1,.95-1.8,3.54,3.54,0,0,1,1.4-1A4.6,4.6,0,0,1,24.66,340.22Zm0,2.07a1.84,1.84,0,0,0-.83.19,1.71,1.71,0,0,0-.7.62,3.32,3.32,0,0,0-.47,1.15,7.3,7.3,0,0,0-.18,1.77,7.42,7.42,0,0,0,.18,1.77,3.32,3.32,0,0,0,.47,1.15,1.78,1.78,0,0,0,.7.62,2,2,0,0,0,.83.19,1.91,1.91,0,0,0,.8-.19,1.78,1.78,0,0,0,.67-.62,3.53,3.53,0,0,0,.47-1.15,8,8,0,0,0,.17-1.77,7.56,7.56,0,0,0-.17-1.7,3.79,3.79,0,0,0-.47-1.16,1.91,1.91,0,0,0-.67-.66A1.68,1.68,0,0,0,24.66,342.29Z" transform="translate(-0.34 -176.98)"/><path class="cls-3" d="M37.09,340.22a3.39,3.39,0,0,1,1.25.23,3.19,3.19,0,0,1,1,.64,2.94,2.94,0,0,1,.66,1,3.27,3.27,0,0,1,.23,1.22,3.23,3.23,0,0,1-.23,1.22,3,3,0,0,1-.66,1,3.19,3.19,0,0,1-1,.64,3.48,3.48,0,0,1-2.49,0,3.26,3.26,0,0,1-1-.64,3,3,0,0,1-.66-1,3.05,3.05,0,0,1-.24-1.22,3.09,3.09,0,0,1,.24-1.22,2.94,2.94,0,0,1,.66-1,3.26,3.26,0,0,1,1-.64A3.37,3.37,0,0,1,37.09,340.22Zm0,1.67a1.51,1.51,0,0,0-.53.1,1.3,1.3,0,0,0-.43.29,1.28,1.28,0,0,0-.28.43,1.5,1.5,0,0,0-.1.56,1.47,1.47,0,0,0,.1.56,1.44,1.44,0,0,0,.28.44,1.15,1.15,0,0,0,.43.28,1.32,1.32,0,0,0,.53.11,1.42,1.42,0,0,0,.55-.11,1.23,1.23,0,0,0,.43-.28,1.44,1.44,0,0,0,.28-.44,1.69,1.69,0,0,0,.1-.56,1.74,1.74,0,0,0-.1-.56,1.28,1.28,0,0,0-.28-.43,1.42,1.42,0,0,0-.43-.29A1.63,1.63,0,0,0,37.09,341.89Zm1.49,9.73H36.49L44,340.42h2.09Zm6.92-5.91a3.2,3.2,0,0,1,1.25.23,3,3,0,0,1,1,.64,2.88,2.88,0,0,1,.66,1,3.32,3.32,0,0,1,0,2.43,3.09,3.09,0,0,1-.66,1,3.19,3.19,0,0,1-1,.64,3.39,3.39,0,0,1-1.25.23,3.34,3.34,0,0,1-1.24-.23,3.19,3.19,0,0,1-1-.64,3.15,3.15,0,0,1-.65-3.4,2.91,2.91,0,0,1,.65-1,3,3,0,0,1,1-.65A3.34,3.34,0,0,1,45.5,345.71Zm0,1.67a1.32,1.32,0,0,0-.53.1,1.3,1.3,0,0,0-.43.29,1.33,1.33,0,0,0-.28.44,1.38,1.38,0,0,0-.1.55,1.43,1.43,0,0,0,.1.56,1.28,1.28,0,0,0,.28.43A1.17,1.17,0,0,0,45,350a1.32,1.32,0,0,0,.53.11,1.42,1.42,0,0,0,.55-.11,1.22,1.22,0,0,0,.42-.29,1.15,1.15,0,0,0,.28-.43,1.43,1.43,0,0,0,.1-.56,1.38,1.38,0,0,0-.1-.55,1.18,1.18,0,0,0-.28-.44,1.37,1.37,0,0,0-.42-.29A1.42,1.42,0,0,0,45.5,347.38Z" transform="translate(-0.34 -176.98)"/><path class="cls-3" d="M14,301.62H9.5l0,2.24h1.28a5.32,5.32,0,0,1,1.72.26,3.65,3.65,0,0,1,1.22.72,2.9,2.9,0,0,1,.74,1.07,3.6,3.6,0,0,1,.24,1.32,3.72,3.72,0,0,1-.32,1.6,3.37,3.37,0,0,1-.87,1.19,4,4,0,0,1-1.3.74,4.9,4.9,0,0,1-1.59.25,5.64,5.64,0,0,1-2.27-.44,4.77,4.77,0,0,1-1.7-1.23l1.21-1.51a3.11,3.11,0,0,0,.54.46,4.84,4.84,0,0,0,.67.38,4.71,4.71,0,0,0,.75.25,3.46,3.46,0,0,0,.78.09,2.31,2.31,0,0,0,.82-.13,1.61,1.61,0,0,0,.58-.35,1.54,1.54,0,0,0,.35-.52,1.8,1.8,0,0,0,.11-.62,1.52,1.52,0,0,0-.11-.6,1.14,1.14,0,0,0-.37-.51,1.91,1.91,0,0,0-.7-.34,3.81,3.81,0,0,0-1.1-.13H7.48l.12-6.2H14Z" transform="translate(-0.34 -176.98)"/><path class="cls-3" d="M19.1,308.28,18,313.05H16.22l.54-4.77Z" transform="translate(-0.34 -176.98)"/><path class="cls-3" d="M24.66,299.41a4.09,4.09,0,0,1,1.67.34,3.71,3.71,0,0,1,1.38,1.06,5.16,5.16,0,0,1,.94,1.81,8.65,8.65,0,0,1,.34,2.59,9,9,0,0,1-.34,2.66,5.11,5.11,0,0,1-.94,1.8,3.6,3.6,0,0,1-1.38,1,4.43,4.43,0,0,1-1.67.32,4.6,4.6,0,0,1-1.71-.32,3.75,3.75,0,0,1-1.4-1,5.12,5.12,0,0,1-.95-1.8,10.28,10.28,0,0,1,0-5.32,5.12,5.12,0,0,1,.95-1.8,3.54,3.54,0,0,1,1.4-1A4.6,4.6,0,0,1,24.66,299.41Zm0,2.07a1.84,1.84,0,0,0-.83.19,1.78,1.78,0,0,0-.7.62,3.32,3.32,0,0,0-.47,1.15,8.79,8.79,0,0,0,0,3.54,3.32,3.32,0,0,0,.47,1.15,1.78,1.78,0,0,0,.7.62,1.84,1.84,0,0,0,.83.19,1.71,1.71,0,0,0,1.47-.81A3.53,3.53,0,0,0,26.6,307a8,8,0,0,0,.17-1.77,7.56,7.56,0,0,0-.17-1.7,3.79,3.79,0,0,0-.47-1.16,1.91,1.91,0,0,0-.67-.66A1.68,1.68,0,0,0,24.66,301.48Z" transform="translate(-0.34 -176.98)"/><path class="cls-3" d="M37.09,299.41a3.39,3.39,0,0,1,1.25.23,3.19,3.19,0,0,1,1,.64,3,3,0,0,1,.66,1,3.18,3.18,0,0,1,.23,1.21,3.23,3.23,0,0,1-.23,1.22,2.88,2.88,0,0,1-.66,1,3,3,0,0,1-1,.64,3.48,3.48,0,0,1-2.49,0,3.08,3.08,0,0,1-1-.64,2.88,2.88,0,0,1-.66-1,3.05,3.05,0,0,1-.24-1.22,3,3,0,0,1,.9-2.18,3.26,3.26,0,0,1,1-.64A3.37,3.37,0,0,1,37.09,299.41Zm0,1.67a1.32,1.32,0,0,0-.53.11,1.28,1.28,0,0,0-.43.28,1.33,1.33,0,0,0-.28.44,1.42,1.42,0,0,0-.1.55,1.47,1.47,0,0,0,.1.56,1.33,1.33,0,0,0,.28.44,1.3,1.3,0,0,0,.43.29,1.32,1.32,0,0,0,.53.1,1.31,1.31,0,0,0,1-.39,1.33,1.33,0,0,0,.28-.44,1.69,1.69,0,0,0,.1-.56,1.63,1.63,0,0,0-.1-.55,1.33,1.33,0,0,0-.28-.44,1.39,1.39,0,0,0-.43-.28A1.42,1.42,0,0,0,37.09,301.08Zm1.49,9.73H36.49L44,299.61h2.09Zm6.92-5.91a3.39,3.39,0,0,1,1.25.23,3,3,0,0,1,1,.64,2.88,2.88,0,0,1,.66,1,3.32,3.32,0,0,1,0,2.43,3,3,0,0,1-.66,1,3.19,3.19,0,0,1-1,.64,3.39,3.39,0,0,1-1.25.23,3.34,3.34,0,0,1-1.24-.23,3.19,3.19,0,0,1-1-.64,3,3,0,0,1-.65-1,3.05,3.05,0,0,1-.24-1.22,3,3,0,0,1,.24-1.2,2.85,2.85,0,0,1,.65-1,3.21,3.21,0,0,1,1-.65A3.34,3.34,0,0,1,45.5,304.9Zm0,1.67a1.32,1.32,0,0,0-.53.1,1.3,1.3,0,0,0-.43.29,1.33,1.33,0,0,0-.28.44,1.42,1.42,0,0,0-.1.55,1.41,1.41,0,0,0,.38,1,1.15,1.15,0,0,0,.43.28,1.32,1.32,0,0,0,.53.11,1.42,1.42,0,0,0,.55-.11,1.19,1.19,0,0,0,.42-.28,1.27,1.27,0,0,0,.28-.44,1.43,1.43,0,0,0,.1-.56,1.42,1.42,0,0,0-.1-.55,1.18,1.18,0,0,0-.28-.44,1.37,1.37,0,0,0-.42-.29A1.42,1.42,0,0,0,45.5,306.57Z" transform="translate(-0.34 -176.98)"/><path class="cls-3" d="M10.54,262.7l.24,0h.28a4.2,4.2,0,0,1,1.56.28,3.88,3.88,0,0,1,1.23.79,3.57,3.57,0,0,1,.8,1.18,3.78,3.78,0,0,1,.29,1.47,3.61,3.61,0,0,1-1.21,2.73,4.12,4.12,0,0,1-1.33.79,4.64,4.64,0,0,1-1.68.29,4.7,4.7,0,0,1-1.66-.28,4.06,4.06,0,0,1-1.34-.79,3.62,3.62,0,0,1-.88-1.2,3.57,3.57,0,0,1-.32-1.5,4,4,0,0,1,.28-1.49,7.66,7.66,0,0,1,.78-1.49l3.11-4.65H13.3Zm.18,1.86a2.11,2.11,0,0,0-.77.14,1.85,1.85,0,0,0-.62.38,1.5,1.5,0,0,0-.41.58,1.78,1.78,0,0,0-.15.74,1.86,1.86,0,0,0,.15.75,1.5,1.5,0,0,0,.41.58,2,2,0,0,0,.62.38,2.11,2.11,0,0,0,.77.13,2,2,0,0,0,1.41-.51,1.74,1.74,0,0,0,.41-.58,1.86,1.86,0,0,0,.15-.75,1.78,1.78,0,0,0-.15-.74,1.74,1.74,0,0,0-.41-.58,2,2,0,0,0-.63-.38A2.21,2.21,0,0,0,10.72,264.56Z" transform="translate(-0.34 -176.98)"/><path class="cls-3" d="M19.1,267.47,18,272.24H16.22l.54-4.77Z" transform="translate(-0.34 -176.98)"/><path class="cls-3" d="M24.66,258.6a4.1,4.1,0,0,1,1.67.35A3.58,3.58,0,0,1,27.71,260a5.25,5.25,0,0,1,.94,1.81A8.65,8.65,0,0,1,29,264.4a9,9,0,0,1-.34,2.66,5.11,5.11,0,0,1-.94,1.8,3.6,3.6,0,0,1-1.38,1,4.43,4.43,0,0,1-1.67.32,4.6,4.6,0,0,1-1.71-.32,3.75,3.75,0,0,1-1.4-1,5.12,5.12,0,0,1-.95-1.8,10.28,10.28,0,0,1,0-5.32,5.12,5.12,0,0,1,.95-1.8,3.54,3.54,0,0,1,1.4-1A4.6,4.6,0,0,1,24.66,258.6Zm0,2.07a2,2,0,0,0-.83.19,1.78,1.78,0,0,0-.7.62,3.32,3.32,0,0,0-.47,1.15,7.42,7.42,0,0,0-.18,1.77,7.3,7.3,0,0,0,.18,1.77,3.32,3.32,0,0,0,.47,1.15,1.71,1.71,0,0,0,.7.62,1.84,1.84,0,0,0,.83.19,1.77,1.77,0,0,0,.8-.19,1.7,1.7,0,0,0,.67-.62,3.53,3.53,0,0,0,.47-1.15,7.91,7.91,0,0,0,.17-1.77,7.56,7.56,0,0,0-.17-1.7,3.79,3.79,0,0,0-.47-1.16,1.91,1.91,0,0,0-.67-.66A1.68,1.68,0,0,0,24.66,260.67Z" transform="translate(-0.34 -176.98)"/><path class="cls-3" d="M37.09,258.6a3.39,3.39,0,0,1,1.25.23,3.19,3.19,0,0,1,1,.64,3.09,3.09,0,0,1,.66,1,3.18,3.18,0,0,1,.23,1.21,3.23,3.23,0,0,1-.23,1.22,2.88,2.88,0,0,1-.66,1,3,3,0,0,1-1,.64,3.48,3.48,0,0,1-2.49,0,3.08,3.08,0,0,1-1-.64,2.88,2.88,0,0,1-.66-1,3.05,3.05,0,0,1-.24-1.22,3,3,0,0,1,.24-1.21,3.09,3.09,0,0,1,.66-1,3.26,3.26,0,0,1,1-.64A3.37,3.37,0,0,1,37.09,258.6Zm0,1.67a1.32,1.32,0,0,0-.53.11,1.28,1.28,0,0,0-.43.28,1.33,1.33,0,0,0-.28.44,1.42,1.42,0,0,0-.1.55,1.47,1.47,0,0,0,.1.56,1.33,1.33,0,0,0,.28.44,1.3,1.3,0,0,0,.43.29,1.32,1.32,0,0,0,.53.1,1.31,1.31,0,0,0,1-.39,1.33,1.33,0,0,0,.28-.44,1.69,1.69,0,0,0,.1-.56,1.63,1.63,0,0,0-.1-.55,1.33,1.33,0,0,0-.28-.44,1.39,1.39,0,0,0-.43-.28A1.42,1.42,0,0,0,37.09,260.27ZM38.58,270H36.49L44,258.8h2.09Zm6.92-5.91a3.39,3.39,0,0,1,1.25.23,3.19,3.19,0,0,1,1,.64,3,3,0,0,1,.66,1,3.32,3.32,0,0,1,0,2.43,3,3,0,0,1-.66,1,3.19,3.19,0,0,1-1,.64,3.39,3.39,0,0,1-1.25.23,3.34,3.34,0,0,1-1.24-.23,3.19,3.19,0,0,1-1-.64,3,3,0,0,1-.65-1,3,3,0,0,1-.24-1.21,3,3,0,0,1,.24-1.21,2.85,2.85,0,0,1,.65-1,3,3,0,0,1,1-.64A3.15,3.15,0,0,1,45.5,264.09Zm0,1.67a1.32,1.32,0,0,0-.53.11,1.28,1.28,0,0,0-.43.28,1.41,1.41,0,0,0-.38,1,1.42,1.42,0,0,0,.1.55,1.44,1.44,0,0,0,.28.44,1.3,1.3,0,0,0,.43.29,1.51,1.51,0,0,0,.53.1,1.63,1.63,0,0,0,.55-.1,1.37,1.37,0,0,0,.42-.29,1.27,1.27,0,0,0,.28-.44,1.42,1.42,0,0,0,.1-.55,1.43,1.43,0,0,0-.1-.56,1.27,1.27,0,0,0-.28-.44,1.34,1.34,0,0,0-.42-.28A1.42,1.42,0,0,0,45.5,265.76Z" transform="translate(-0.34 -176.98)"/><path class="cls-3" d="M14.73,219.68l-4.64,9.51H7.54L12.15,220H6.83v-2h7.9Z" transform="translate(-0.34 -176.98)"/><path class="cls-3" d="M19.1,226.67,18,231.43H16.22l.54-4.76Z" transform="translate(-0.34 -176.98)"/><path class="cls-3" d="M24.66,217.79a4.1,4.1,0,0,1,1.67.35,3.69,3.69,0,0,1,1.38,1.05,5.25,5.25,0,0,1,.94,1.81,8.7,8.7,0,0,1,.34,2.59,9,9,0,0,1-.34,2.66,4.94,4.94,0,0,1-.94,1.8,3.6,3.6,0,0,1-1.38,1,4.25,4.25,0,0,1-1.67.32,4.41,4.41,0,0,1-1.71-.32,3.75,3.75,0,0,1-1.4-1,5,5,0,0,1-.95-1.8,10.28,10.28,0,0,1,0-5.32,5.12,5.12,0,0,1,.95-1.8,3.75,3.75,0,0,1,1.4-1A4.6,4.6,0,0,1,24.66,217.79Zm0,2.08a2,2,0,0,0-.83.18,1.86,1.86,0,0,0-.7.62,3.32,3.32,0,0,0-.47,1.15,8.84,8.84,0,0,0,0,3.55,3.26,3.26,0,0,0,.47,1.14,1.71,1.71,0,0,0,.7.62,1.84,1.84,0,0,0,.83.19,1.77,1.77,0,0,0,.8-.19,1.7,1.7,0,0,0,.67-.62,3.46,3.46,0,0,0,.47-1.14,8.07,8.07,0,0,0,.17-1.78,7.62,7.62,0,0,0-.17-1.7,3.79,3.79,0,0,0-.47-1.16,1.91,1.91,0,0,0-.67-.66A1.66,1.66,0,0,0,24.66,219.87Z" transform="translate(-0.34 -176.98)"/><path class="cls-3" d="M37.09,217.79a3.2,3.2,0,0,1,1.25.24,2.86,2.86,0,0,1,1,.64,2.94,2.94,0,0,1,.66,1,3.18,3.18,0,0,1,.23,1.21,3.32,3.32,0,0,1-.23,1.23,2.94,2.94,0,0,1-.66,1,2.86,2.86,0,0,1-1,.64,3.35,3.35,0,0,1-2.49,0,3,3,0,0,1-1.64-1.6,3.14,3.14,0,0,1-.24-1.23,3,3,0,0,1,.24-1.21,3,3,0,0,1,1.64-1.6A3.19,3.19,0,0,1,37.09,217.79Zm0,1.68a1.32,1.32,0,0,0-.53.1,1.28,1.28,0,0,0-.43.28,1.33,1.33,0,0,0-.28.44,1.42,1.42,0,0,0-.1.55,1.47,1.47,0,0,0,.1.56,1.33,1.33,0,0,0,.28.44,1.3,1.3,0,0,0,.43.29,1.32,1.32,0,0,0,.53.1,1.31,1.31,0,0,0,1-.39,1.33,1.33,0,0,0,.28-.44,1.69,1.69,0,0,0,.1-.56,1.63,1.63,0,0,0-.1-.55,1.33,1.33,0,0,0-.28-.44,1.39,1.39,0,0,0-.43-.28A1.42,1.42,0,0,0,37.09,219.47Zm1.49,9.72H36.49L44,218h2.09Zm6.92-5.91a3.39,3.39,0,0,1,1.25.23,3.19,3.19,0,0,1,1,.64,3.09,3.09,0,0,1,.66,1,3.32,3.32,0,0,1,0,2.43,2.88,2.88,0,0,1-.66,1,3,3,0,0,1-1,.64,3.2,3.2,0,0,1-1.25.23,3.15,3.15,0,0,1-1.24-.23,3,3,0,0,1-1-.64,2.85,2.85,0,0,1-.65-1,3.17,3.17,0,0,1,0-2.42,3,3,0,0,1,.65-1,3,3,0,0,1,1-.64A3.15,3.15,0,0,1,45.5,223.28Zm0,1.67a1.32,1.32,0,0,0-.53.11,1.17,1.17,0,0,0-.43.29,1.28,1.28,0,0,0-.28.43,1.43,1.43,0,0,0-.1.56,1.38,1.38,0,0,0,.1.55,1.33,1.33,0,0,0,.28.44,1.3,1.3,0,0,0,.43.29,1.32,1.32,0,0,0,.53.1,1.42,1.42,0,0,0,.55-.1,1.37,1.37,0,0,0,.42-.29,1.18,1.18,0,0,0,.28-.44,1.38,1.38,0,0,0,.1-.55,1.43,1.43,0,0,0-.1-.56,1.15,1.15,0,0,0-.28-.43,1.22,1.22,0,0,0-.42-.29A1.42,1.42,0,0,0,45.5,225Z" transform="translate(-0.34 -176.98)"/><path class="cls-3" d="M10.76,177a5.82,5.82,0,0,1,1.59.22,4.1,4.1,0,0,1,1.31.64,3.05,3.05,0,0,1,.88,1,3,3,0,0,1,.19,2.23,2.57,2.57,0,0,1-.36.7,2.35,2.35,0,0,1-.54.55,4.23,4.23,0,0,1-.68.41,4.06,4.06,0,0,1,.78.39,3,3,0,0,1,.63.55,2.78,2.78,0,0,1,.42.73,2.75,2.75,0,0,1,.16.93,2.67,2.67,0,0,1-.35,1.36,3.15,3.15,0,0,1-.94,1,4.33,4.33,0,0,1-1.39.64,6.24,6.24,0,0,1-1.7.22,6.24,6.24,0,0,1-1.7-.22,4.23,4.23,0,0,1-1.39-.64,3.15,3.15,0,0,1-.94-1,2.67,2.67,0,0,1-.35-1.36A2.55,2.55,0,0,1,7,183.68a2.75,2.75,0,0,1,.62-.55,4.06,4.06,0,0,1,.78-.39,4.14,4.14,0,0,1-.67-.41,2.35,2.35,0,0,1-.54-.55,2.57,2.57,0,0,1-.36-.7A3,3,0,0,1,7,178.85a3.05,3.05,0,0,1,.88-1,4,4,0,0,1,1.3-.64A5.89,5.89,0,0,1,10.76,177Zm0,6.64a3,3,0,0,0-.8.1,2,2,0,0,0-.65.29,1.41,1.41,0,0,0-.43.48,1.3,1.3,0,0,0-.17.66,1.26,1.26,0,0,0,.17.65,1.38,1.38,0,0,0,.43.47,2,2,0,0,0,.65.29,3.44,3.44,0,0,0,.8.1,3.35,3.35,0,0,0,.79-.1,1.93,1.93,0,0,0,.65-.29,1.41,1.41,0,0,0,.44-.47,1.26,1.26,0,0,0,.17-.65,1.3,1.3,0,0,0-.17-.66,1.44,1.44,0,0,0-.44-.48,1.93,1.93,0,0,0-.65-.29A2.9,2.9,0,0,0,10.76,183.62Zm0-4.68a2.58,2.58,0,0,0-.7.09,1.72,1.72,0,0,0-.58.27,1.32,1.32,0,0,0-.39.46,1.34,1.34,0,0,0-.14.61,1.39,1.39,0,0,0,.14.63,1.16,1.16,0,0,0,.39.46,1.57,1.57,0,0,0,.58.28,2.24,2.24,0,0,0,.7.1,2.28,2.28,0,0,0,.7-.1,1.65,1.65,0,0,0,.58-.28,1.35,1.35,0,0,0,.39-.46,1.39,1.39,0,0,0,.14-.63,1.34,1.34,0,0,0-.14-.61,1.57,1.57,0,0,0-.39-.46,1.82,1.82,0,0,0-.58-.27A2.63,2.63,0,0,0,10.76,178.94Z" transform="translate(-0.34 -176.98)"/><path class="cls-3" d="M19.1,185.86,18,190.62H16.22l.54-4.76Z" transform="translate(-0.34 -176.98)"/><path class="cls-3" d="M24.66,177a4.1,4.1,0,0,1,1.67.35,3.69,3.69,0,0,1,1.38,1,5.25,5.25,0,0,1,.94,1.81,8.7,8.7,0,0,1,.34,2.59,9,9,0,0,1-.34,2.66,4.94,4.94,0,0,1-.94,1.8,3.6,3.6,0,0,1-1.38,1,4.25,4.25,0,0,1-1.67.32,4.41,4.41,0,0,1-1.71-.32,3.75,3.75,0,0,1-1.4-1,5,5,0,0,1-.95-1.8,10.28,10.28,0,0,1,0-5.32,5.12,5.12,0,0,1,.95-1.8,3.75,3.75,0,0,1,1.4-1A4.6,4.6,0,0,1,24.66,177Zm0,2.08a2,2,0,0,0-.83.18,1.86,1.86,0,0,0-.7.62,3.4,3.4,0,0,0-.47,1.15,8.84,8.84,0,0,0,0,3.55,3.26,3.26,0,0,0,.47,1.14,1.71,1.71,0,0,0,.7.62,1.84,1.84,0,0,0,.83.19,1.77,1.77,0,0,0,.8-.19,1.7,1.7,0,0,0,.67-.62,3.46,3.46,0,0,0,.47-1.14,8.07,8.07,0,0,0,.17-1.78,7.62,7.62,0,0,0-.17-1.7,3.9,3.9,0,0,0-.47-1.16,1.91,1.91,0,0,0-.67-.66A1.79,1.79,0,0,0,24.66,179.06Z" transform="translate(-0.34 -176.98)"/><path class="cls-3" d="M37.09,177a3.2,3.2,0,0,1,1.25.24,2.86,2.86,0,0,1,1,.64,2.94,2.94,0,0,1,.66,1,3.22,3.22,0,0,1,.23,1.21,3.28,3.28,0,0,1-.23,1.23,2.94,2.94,0,0,1-.66,1,2.86,2.86,0,0,1-1,.64,3.35,3.35,0,0,1-2.49,0,3,3,0,0,1-1.64-1.6A3.1,3.1,0,0,1,34,180a3,3,0,0,1,.24-1.21,3,3,0,0,1,1.64-1.6A3.19,3.19,0,0,1,37.09,177Zm0,1.68a1.32,1.32,0,0,0-.53.1,1.28,1.28,0,0,0-.43.28,1.33,1.33,0,0,0-.28.44,1.45,1.45,0,0,0-.1.55,1.43,1.43,0,0,0,.1.56,1.33,1.33,0,0,0,.28.44,1.17,1.17,0,0,0,.43.29,1.32,1.32,0,0,0,.53.1,1.42,1.42,0,0,0,.55-.1,1.26,1.26,0,0,0,.43-.29,1.33,1.33,0,0,0,.28-.44,1.64,1.64,0,0,0,.1-.56,1.68,1.68,0,0,0-.1-.55,1.33,1.33,0,0,0-.28-.44,1.39,1.39,0,0,0-.43-.28A1.42,1.42,0,0,0,37.09,178.66Zm1.49,9.72H36.49L44,177.18h2.09Zm6.92-5.91a3.39,3.39,0,0,1,1.25.23,3.19,3.19,0,0,1,1,.64,3.09,3.09,0,0,1,.66,1,3.27,3.27,0,0,1,.23,1.22,3.18,3.18,0,0,1-.23,1.21,2.88,2.88,0,0,1-.66,1,3,3,0,0,1-1,.64,3.2,3.2,0,0,1-1.25.23,3.15,3.15,0,0,1-1.24-.23,3,3,0,0,1-1-.64,2.85,2.85,0,0,1-.65-1,3,3,0,0,1-.24-1.21,3,3,0,0,1,.24-1.21,3,3,0,0,1,.65-1,3.19,3.19,0,0,1,1-.64A3.15,3.15,0,0,1,45.5,182.47Zm0,1.67a1.32,1.32,0,0,0-.53.11,1.17,1.17,0,0,0-.43.29,1.28,1.28,0,0,0-.28.43,1.47,1.47,0,0,0-.1.56,1.38,1.38,0,0,0,.1.55,1.33,1.33,0,0,0,.28.44,1.3,1.3,0,0,0,.43.29,1.32,1.32,0,0,0,.53.1,1.42,1.42,0,0,0,.55-.1,1.37,1.37,0,0,0,.42-.29,1.18,1.18,0,0,0,.28-.44,1.38,1.38,0,0,0,.1-.55,1.47,1.47,0,0,0-.1-.56,1.15,1.15,0,0,0-.28-.43,1.22,1.22,0,0,0-.42-.29A1.42,1.42,0,0,0,45.5,184.14Z" transform="translate(-0.34 -176.98)"/><line class="cls-2" x1="54.09" y1="373.93" x2="54.09" y2="6.34"/><line class="cls-4" x1="53.68" y1="373.77" x2="63.68" y2="373.77"/><line class="cls-4" x1="53.68" y1="332.96" x2="63.68" y2="332.96"/><line class="cls-4" x1="53.68" y1="292.15" x2="63.68" y2="292.15"/><line class="cls-4" x1="53.68" y1="251.34" x2="63.68" y2="251.34"/><line class="cls-4" x1="53.68" y1="210.53" x2="63.68" y2="210.53"/><line class="cls-4" x1="53.68" y1="169.73" x2="63.68" y2="169.73"/><line class="cls-4" x1="53.68" y1="128.92" x2="63.68" y2="128.92"/><line class="cls-4" x1="53.68" y1="88.11" x2="63.68" y2="88.11"/><line class="cls-4" x1="53.68" y1="47.3" x2="63.68" y2="47.3"/><line class="cls-4" x1="53.68" y1="6.49" x2="63.68" y2="6.49"/><line class="cls-5" x1="1049.16" y1="137.08" x2="1063.08" y2="124.84"/><line class="cls-5" x1="1035.24" y1="141.16" x2="1049.16" y2="137.08"/><line class="cls-5" x1="1021.33" y1="141.16" x2="1035.24" y2="141.16"/><line class="cls-5" x1="1007.41" y1="153.4" x2="1021.33" y2="141.16"/><line class="cls-5" x1="993.49" y1="165.65" x2="1007.41" y2="153.4"/><line class="cls-5" x1="979.58" y1="181.97" x2="993.49" y2="165.65"/><line class="cls-5" x1="965.66" y1="206.45" x2="979.58" y2="181.97"/><line class="cls-5" x1="951.74" y1="186.05" x2="965.66" y2="206.45"/><line class="cls-5" x1="937.82" y1="194.21" x2="951.74" y2="186.05"/><line class="cls-5" x1="923.91" y1="243.18" x2="937.82" y2="194.21"/><line class="cls-5" x1="909.99" y1="288.07" x2="923.91" y2="243.18"/><line class="cls-5" x1="896.07" y1="292.15" x2="909.99" y2="288.07"/><line class="cls-5" x1="882.16" y1="304.39" x2="896.07" y2="292.15"/><line class="cls-5" x1="868.24" y1="292.15" x2="882.16" y2="304.39"/><line class="cls-5" x1="854.32" y1="304.39" x2="868.24" y2="292.15"/><line class="cls-5" x1="840.4" y1="312.56" x2="854.32" y2="304.39"/><line class="cls-5" x1="826.49" y1="328.88" x2="840.4" y2="312.56"/><line class="cls-5" x1="812.57" y1="328.88" x2="826.49" y2="328.88"/><line class="cls-5" x1="798.65" y1="304.39" x2="812.57" y2="328.88"/><line class="cls-5" x1="784.74" y1="349.28" x2="798.65" y2="304.39"/><line class="cls-5" x1="770.82" y1="341.12" x2="784.74" y2="349.28"/><line class="cls-5" x1="756.9" y1="296.23" x2="770.82" y2="341.12"/><line class="cls-5" x1="742.98" y1="243.18" x2="756.9" y2="296.23"/><line class="cls-5" x1="729.07" y1="235.02" x2="742.98" y2="243.18"/><line class="cls-5" x1="715.15" y1="243.18" x2="729.07" y2="235.02"/><line class="cls-5" x1="701.23" y1="243.18" x2="715.15" y2="243.18"/><line class="cls-5" x1="687.32" y1="255.42" x2="701.23" y2="243.18"/><line class="cls-5" x1="673.4" y1="255.42" x2="687.32" y2="255.42"/><line class="cls-5" x1="659.48" y1="255.42" x2="673.4" y2="255.42"/><line class="cls-5" x1="645.56" y1="251.34" x2="659.48" y2="255.42"/><line class="cls-5" x1="631.65" y1="251.34" x2="645.56" y2="251.34"/><line class="cls-5" x1="617.73" y1="235.02" x2="631.65" y2="251.34"/><line class="cls-5" x1="603.81" y1="251.34" x2="617.73" y2="235.02"/><line class="cls-5" x1="589.9" y1="255.42" x2="603.81" y2="251.34"/><line class="cls-5" x1="575.98" y1="271.75" x2="589.9" y2="255.42"/><line class="cls-5" x1="562.06" y1="275.83" x2="575.98" y2="271.75"/><line class="cls-5" x1="548.14" y1="251.34" x2="562.06" y2="275.83"/><line class="cls-5" x1="534.23" y1="263.59" x2="548.14" y2="251.34"/><line class="cls-5" x1="520.31" y1="235.02" x2="534.23" y2="263.59"/><line class="cls-5" x1="506.39" y1="243.18" x2="520.31" y2="235.02"/><line class="cls-5" x1="492.48" y1="218.7" x2="506.39" y2="243.18"/><line class="cls-5" x1="478.56" y1="210.53" x2="492.48" y2="218.7"/><line class="cls-5" x1="464.64" y1="230.94" x2="478.56" y2="210.53"/><line class="cls-5" x1="450.72" y1="243.18" x2="464.64" y2="230.94"/><line class="cls-5" x1="436.81" y1="243.18" x2="450.72" y2="243.18"/><line class="cls-5" x1="422.89" y1="239.1" x2="436.81" y2="243.18"/><line class="cls-5" x1="408.97" y1="243.18" x2="422.89" y2="239.1"/><line class="cls-5" x1="395.06" y1="263.59" x2="408.97" y2="243.18"/><line class="cls-5" x1="381.14" y1="255.42" x2="395.06" y2="263.59"/><line class="cls-5" x1="367.22" y1="247.26" x2="381.14" y2="255.42"/><line class="cls-5" x1="353.3" y1="275.83" x2="367.22" y2="247.26"/><line class="cls-5" x1="339.39" y1="267.67" x2="353.3" y2="275.83"/><line class="cls-5" x1="325.47" y1="275.83" x2="339.39" y2="267.67"/><line class="cls-5" x1="311.55" y1="283.99" x2="325.47" y2="275.83"/><line class="cls-5" x1="297.64" y1="292.15" x2="311.55" y2="283.99"/><line class="cls-5" x1="283.72" y1="279.91" x2="297.64" y2="292.15"/><line class="cls-5" x1="269.8" y1="267.67" x2="283.72" y2="279.91"/><line class="cls-5" x1="255.88" y1="267.67" x2="269.8" y2="267.67"/><line class="cls-5" x1="241.97" y1="251.34" x2="255.88" y2="267.67"/><line class="cls-5" x1="228.05" y1="247.26" x2="241.97" y2="251.34"/><line class="cls-5" x1="214.13" y1="271.75" x2="228.05" y2="247.26"/><line class="cls-5" x1="200.22" y1="283.99" x2="214.13" y2="271.75"/><line class="cls-5" x1="186.3" y1="271.75" x2="200.22" y2="283.99"/><line class="cls-5" x1="172.38" y1="279.91" x2="186.3" y2="271.75"/><line class="cls-5" x1="158.46" y1="288.07" x2="172.38" y2="279.91"/><line class="cls-5" x1="144.55" y1="279.91" x2="158.46" y2="288.07"/><line class="cls-5" x1="130.63" y1="271.75" x2="144.55" y2="279.91"/><line class="cls-5" x1="116.71" y1="271.75" x2="130.63" y2="271.75"/><line class="cls-5" x1="102.8" y1="263.59" x2="116.71" y2="271.75"/><line class="cls-5" x1="88.88" y1="279.91" x2="102.8" y2="263.59"/><line class="cls-5" x1="74.96" y1="275.83" x2="88.88" y2="279.91"/><line class="cls-5" x1="61.04" y1="251.34" x2="74.96" y2="275.83"/><path class="cls-3" d="M43.27,578.63a5.24,5.24,0,0,1-.3,1.85,3.76,3.76,0,0,1-.83,1.34,3.43,3.43,0,0,1-1.28.82,4.65,4.65,0,0,1-1.61.27,5.31,5.31,0,0,1-1.25-.14,4.34,4.34,0,0,1-1-.36,3.65,3.65,0,0,1-.77-.5,4.07,4.07,0,0,1-.55-.55L37,579.73a2.92,2.92,0,0,0,.39.4,2.6,2.6,0,0,0,1.08.56,3.15,3.15,0,0,0,.71.08,1.77,1.77,0,0,0,1.39-.57,2.65,2.65,0,0,0,.5-1.78v-6.91h2.23Z" transform="translate(-0.34 -176.98)"/><path class="cls-3" d="M53.21,582.71h-2v-.86a2.84,2.84,0,0,1-2.32,1.06,3.58,3.58,0,0,1-2.68-1.17,3.83,3.83,0,0,1-.79-1.29,4.67,4.67,0,0,1,0-3.24,3.83,3.83,0,0,1,.79-1.29,3.58,3.58,0,0,1,2.68-1.17,2.84,2.84,0,0,1,2.32,1.06V575h2Zm-4-6a2.05,2.05,0,0,0-.83.17,1.71,1.71,0,0,0-.63.46,2,2,0,0,0-.4.68,2.54,2.54,0,0,0-.14.83,2.45,2.45,0,0,0,.14.83,2,2,0,0,0,.4.68,2,2,0,0,0,.63.46,2,2,0,0,0,.83.16,1.92,1.92,0,0,0,.81-.16,1.79,1.79,0,0,0,.64-.44,2.11,2.11,0,0,0,.4-.68,2.37,2.37,0,0,0,.15-.85,2.34,2.34,0,0,0-.15-.85,2,2,0,0,0-.4-.68,2,2,0,0,0-.64-.45A2.09,2.09,0,0,0,49.23,576.69Z" transform="translate(-0.34 -176.98)"/><path class="cls-3" d="M59.71,574.75a3.18,3.18,0,0,1,1.21.22,2.66,2.66,0,0,1,1.58,1.57,3.24,3.24,0,0,1,.22,1.23v4.94H60.64v-4.27a1.91,1.91,0,0,0-.4-1.29,1.44,1.44,0,0,0-1.12-.44,1.67,1.67,0,0,0-.63.11,1.46,1.46,0,0,0-.52.32,1.48,1.48,0,0,0-.35.55,2,2,0,0,0-.14.77v4.25H55.4V575h2v.91a2.32,2.32,0,0,1,1-.87A3.23,3.23,0,0,1,59.71,574.75Z" transform="translate(-0.34 -176.98)"/><path class="cls-3" d="M69.17,582.71H66.76L63.7,575H66l2,5.55L70,575h2.2Z" transform="translate(-0.34 -176.98)"/><path class="cls-3" d="M73.9,579.8a1.45,1.45,0,0,1,.59.13,1.51,1.51,0,0,1,.49.33,1.53,1.53,0,0,1,.34.5,1.45,1.45,0,0,1,.12.59,1.48,1.48,0,0,1-.12.59,1.43,1.43,0,0,1-.34.5,1.39,1.39,0,0,1-.49.34,1.31,1.31,0,0,1-.59.13,1.38,1.38,0,0,1-.6-.13,1.49,1.49,0,0,1-.49-.34,1.58,1.58,0,0,1-.34-.5,1.34,1.34,0,0,1-.13-.59,1.31,1.31,0,0,1,.13-.59,1.7,1.7,0,0,1,.34-.5,1.63,1.63,0,0,1,.49-.33A1.54,1.54,0,0,1,73.9,579.8Z" transform="translate(-0.34 -176.98)"/><path class="cls-3" d="M80.84,573.24a5.94,5.94,0,0,1,.56-.64,4,4,0,0,1,.8-.63,4.38,4.38,0,0,1,1.07-.47,5,5,0,0,1,3,.07,3.63,3.63,0,0,1,1.2.74,3.25,3.25,0,0,1,.76,1.15,4,4,0,0,1,.26,1.46,3.66,3.66,0,0,1-.12,1,4.47,4.47,0,0,1-.34.84,5.39,5.39,0,0,1-.52.76c-.19.24-.41.48-.64.72l-2.39,2.48h4.28v2h-7.4V581l4-4.06A3.75,3.75,0,0,0,86,576a2.26,2.26,0,0,0,.23-1,1.85,1.85,0,0,0-.12-.67,1.58,1.58,0,0,0-.35-.53,1.66,1.66,0,0,0-.54-.34,1.75,1.75,0,0,0-.7-.13,2.61,2.61,0,0,0-.72.1,2.74,2.74,0,0,0-.6.27,2.69,2.69,0,0,0-.5.39c-.16.15-.31.31-.45.47Z" transform="translate(-0.34 -176.98)"/><path class="cls-3" d="M94.5,571.31a4.17,4.17,0,0,1,1.68.34,3.77,3.77,0,0,1,1.38,1.06,5.32,5.32,0,0,1,.93,1.81,8.63,8.63,0,0,1,.35,2.59,8.93,8.93,0,0,1-.35,2.66,5.12,5.12,0,0,1-.93,1.79,3.55,3.55,0,0,1-1.38,1,4.34,4.34,0,0,1-1.68.33,4.4,4.4,0,0,1-1.7-.33,3.47,3.47,0,0,1-1.4-1,5.15,5.15,0,0,1-1-1.79,10.28,10.28,0,0,1,0-5.32,5.2,5.2,0,0,1,1-1.8,3.47,3.47,0,0,1,1.4-1A4.59,4.59,0,0,1,94.5,571.31Zm0,2.07a1.87,1.87,0,0,0-.83.19,1.75,1.75,0,0,0-.69.62,3.52,3.52,0,0,0-.48,1.15,7.3,7.3,0,0,0-.18,1.77,7.42,7.42,0,0,0,.18,1.77A3.52,3.52,0,0,0,93,580a1.83,1.83,0,0,0,.69.62,2,2,0,0,0,.83.19,1.88,1.88,0,0,0,.8-.19A1.8,1.8,0,0,0,96,580a3.53,3.53,0,0,0,.46-1.15,7.47,7.47,0,0,0,.17-1.77,7,7,0,0,0-.17-1.7,3.79,3.79,0,0,0-.46-1.16,1.94,1.94,0,0,0-.68-.66A1.65,1.65,0,0,0,94.5,573.38Z" transform="translate(-0.34 -176.98)"/><path class="cls-3" d="M103.5,580.66v-6.42l-2.78,1v-2.15l4.93-1.75v9.33h2.54v2.05h-7.35v-2.05Z" transform="translate(-0.34 -176.98)"/><path class="cls-3" d="M113.45,575.4l.25,0H114a4.22,4.22,0,0,1,1.57.29,3.78,3.78,0,0,1,1.22.79,3.34,3.34,0,0,1,.8,1.18,3.82,3.82,0,0,1,0,3,3.62,3.62,0,0,1-.88,1.2,4.08,4.08,0,0,1-1.34.8,5,5,0,0,1-3.34,0,4.28,4.28,0,0,1-1.33-.78,3.59,3.59,0,0,1-.88-1.2,3.44,3.44,0,0,1-.32-1.51,4.22,4.22,0,0,1,.27-1.49,8.27,8.27,0,0,1,.79-1.48l3.1-4.65h2.61Zm.19,1.87a2.2,2.2,0,0,0-.78.13,2.29,2.29,0,0,0-.62.38,2,2,0,0,0-.41.58,1.84,1.84,0,0,0,.41,2.08,2,2,0,0,0,.62.37,2.24,2.24,0,0,0,1.56,0,1.83,1.83,0,0,0,.62-.37,1.73,1.73,0,0,0,.42-.58,2.08,2.08,0,0,0,0-1.5,1.83,1.83,0,0,0-.42-.58,2,2,0,0,0-.62-.38A2.2,2.2,0,0,0,113.64,577.27Z" transform="translate(-0.34 -176.98)"/><path class="cls-3" d="M205.77,578.63a5.24,5.24,0,0,1-.3,1.85,3.76,3.76,0,0,1-.83,1.34,3.43,3.43,0,0,1-1.28.82,4.65,4.65,0,0,1-1.61.27,5.31,5.31,0,0,1-1.25-.14,4.34,4.34,0,0,1-1-.36,3.65,3.65,0,0,1-.77-.5,4.07,4.07,0,0,1-.55-.55l1.29-1.63a2.92,2.92,0,0,0,.39.4,2.6,2.6,0,0,0,1.08.56,3.15,3.15,0,0,0,.71.08,1.77,1.77,0,0,0,1.39-.57,2.65,2.65,0,0,0,.5-1.78v-6.91h2.23Z" transform="translate(-0.34 -176.98)"/><path class="cls-3" d="M215.7,582.71h-2v-.86a2.88,2.88,0,0,1-.95.77,3,3,0,0,1-1.37.29,3.67,3.67,0,0,1-1.48-.31,3.82,3.82,0,0,1-1.2-.86,4,4,0,0,1-.78-1.29,4.67,4.67,0,0,1,0-3.24,4,4,0,0,1,.78-1.29,3.67,3.67,0,0,1,1.2-.86,3.51,3.51,0,0,1,1.48-.31,3,3,0,0,1,1.37.29,2.88,2.88,0,0,1,.95.77V575h2Zm-4-6a2,2,0,0,0-.83.17,1.71,1.71,0,0,0-.63.46,2,2,0,0,0-.4.68,2.54,2.54,0,0,0-.14.83,2.45,2.45,0,0,0,.14.83,2,2,0,0,0,.4.68,2,2,0,0,0,.63.46,2,2,0,0,0,.83.16,1.92,1.92,0,0,0,.81-.16,1.79,1.79,0,0,0,.64-.44,2.11,2.11,0,0,0,.4-.68,2.37,2.37,0,0,0,.15-.85,2.34,2.34,0,0,0-.15-.85,2,2,0,0,0-.4-.68,2,2,0,0,0-.64-.45A2.09,2.09,0,0,0,211.73,576.69Z" transform="translate(-0.34 -176.98)"/><path class="cls-3" d="M222.21,574.75a3.18,3.18,0,0,1,1.21.22,2.66,2.66,0,0,1,1.58,1.57,3.24,3.24,0,0,1,.22,1.23v4.94h-2.08v-4.27a1.91,1.91,0,0,0-.4-1.29,1.44,1.44,0,0,0-1.12-.44,1.67,1.67,0,0,0-.63.11,1.38,1.38,0,0,0-.52.32,1.48,1.48,0,0,0-.35.55,2,2,0,0,0-.14.77v4.25H217.9V575h2v.91a2.32,2.32,0,0,1,1-.87A3.23,3.23,0,0,1,222.21,574.75Z" transform="translate(-0.34 -176.98)"/><path class="cls-3" d="M231.67,582.71h-2.41L226.2,575h2.27l2,5.55,2-5.55h2.2Z" transform="translate(-0.34 -176.98)"/><path class="cls-3" d="M236.4,579.8a1.45,1.45,0,0,1,.59.13,1.51,1.51,0,0,1,.49.33,1.53,1.53,0,0,1,.34.5,1.45,1.45,0,0,1,.12.59,1.48,1.48,0,0,1-.12.59,1.43,1.43,0,0,1-.34.5,1.39,1.39,0,0,1-.49.34,1.31,1.31,0,0,1-.59.13,1.38,1.38,0,0,1-.6-.13,1.39,1.39,0,0,1-.49-.34,1.58,1.58,0,0,1-.34-.5,1.34,1.34,0,0,1-.13-.59,1.31,1.31,0,0,1,.13-.59,1.7,1.7,0,0,1,.34-.5,1.51,1.51,0,0,1,.49-.33A1.54,1.54,0,0,1,236.4,579.8Z" transform="translate(-0.34 -176.98)"/><path class="cls-3" d="M243.34,573.24a5.94,5.94,0,0,1,.56-.64,4,4,0,0,1,.8-.63,4.38,4.38,0,0,1,1.07-.47,4.54,4.54,0,0,1,1.39-.19,4.59,4.59,0,0,1,1.58.26,3.63,3.63,0,0,1,1.2.74,3.25,3.25,0,0,1,.76,1.15,4,4,0,0,1,.26,1.46,3.66,3.66,0,0,1-.12,1,4.47,4.47,0,0,1-.34.84,5.39,5.39,0,0,1-.52.76c-.19.24-.41.48-.64.72L247,580.68h4.28v2h-7.4V581l4-4.06a3.75,3.75,0,0,0,.69-.92,2.26,2.26,0,0,0,.23-1,1.85,1.85,0,0,0-.12-.67,1.58,1.58,0,0,0-.35-.53,1.66,1.66,0,0,0-.54-.34,1.75,1.75,0,0,0-.7-.13,2.61,2.61,0,0,0-.72.1,2.74,2.74,0,0,0-.6.27,2.69,2.69,0,0,0-.5.39c-.16.15-.31.31-.45.47Z" transform="translate(-0.34 -176.98)"/><path class="cls-3" d="M257,571.31a4.17,4.17,0,0,1,1.68.34,3.77,3.77,0,0,1,1.38,1.06,5.32,5.32,0,0,1,.93,1.81,8.63,8.63,0,0,1,.35,2.59,8.93,8.93,0,0,1-.35,2.66,5.12,5.12,0,0,1-.93,1.79,3.55,3.55,0,0,1-1.38,1,4.34,4.34,0,0,1-1.68.33,4.4,4.4,0,0,1-1.7-.33,3.47,3.47,0,0,1-1.4-1,5.15,5.15,0,0,1-1-1.79,10.28,10.28,0,0,1,0-5.32,5.2,5.2,0,0,1,1-1.8,3.47,3.47,0,0,1,1.4-1A4.59,4.59,0,0,1,257,571.31Zm0,2.07a1.87,1.87,0,0,0-.83.19,1.75,1.75,0,0,0-.69.62,3.52,3.52,0,0,0-.48,1.15,7.3,7.3,0,0,0-.18,1.77,7.42,7.42,0,0,0,.18,1.77,3.52,3.52,0,0,0,.48,1.15,1.83,1.83,0,0,0,.69.62,2,2,0,0,0,.83.19,1.88,1.88,0,0,0,.8-.19,1.8,1.8,0,0,0,.68-.62,3.53,3.53,0,0,0,.46-1.15,8,8,0,0,0,.17-1.77,7.56,7.56,0,0,0-.17-1.7,3.79,3.79,0,0,0-.46-1.16,1.94,1.94,0,0,0-.68-.66A1.65,1.65,0,0,0,257,573.38Z" transform="translate(-0.34 -176.98)"/><path class="cls-3" d="M266,580.66v-6.42l-2.78,1v-2.15l4.93-1.75v9.33h2.54v2.05h-7.35v-2.05Z" transform="translate(-0.34 -176.98)"/><path class="cls-3" d="M280.14,573.2l-4.64,9.51H273l4.61-9.19h-5.32v-2h7.89Z" transform="translate(-0.34 -176.98)"/><path class="cls-3" d="M366.27,578.63a5.24,5.24,0,0,1-.3,1.85,3.76,3.76,0,0,1-.83,1.34,3.43,3.43,0,0,1-1.28.82,4.65,4.65,0,0,1-1.61.27,5.31,5.31,0,0,1-1.25-.14,4.34,4.34,0,0,1-1-.36,3.65,3.65,0,0,1-.77-.5,4.07,4.07,0,0,1-.55-.55l1.29-1.63a2.92,2.92,0,0,0,.39.4,2.6,2.6,0,0,0,1.08.56,3.15,3.15,0,0,0,.71.08,1.77,1.77,0,0,0,1.39-.57,2.65,2.65,0,0,0,.5-1.78v-6.91h2.23Z" transform="translate(-0.34 -176.98)"/><path class="cls-3" d="M376.2,582.71h-2v-.86a2.88,2.88,0,0,1-1,.77,3,3,0,0,1-1.37.29,3.67,3.67,0,0,1-1.48-.31,3.82,3.82,0,0,1-1.2-.86,4,4,0,0,1-.78-1.29,4.67,4.67,0,0,1,0-3.24,4,4,0,0,1,.78-1.29,3.67,3.67,0,0,1,1.2-.86,3.51,3.51,0,0,1,1.48-.31,3,3,0,0,1,1.37.29,2.88,2.88,0,0,1,1,.77V575h2Zm-4-6a2,2,0,0,0-.83.17,1.71,1.71,0,0,0-.63.46,2,2,0,0,0-.4.68,2.54,2.54,0,0,0-.14.83,2.45,2.45,0,0,0,.14.83,2,2,0,0,0,.4.68,2,2,0,0,0,.63.46,2,2,0,0,0,.83.16,1.92,1.92,0,0,0,.81-.16,1.79,1.79,0,0,0,.64-.44,2.11,2.11,0,0,0,.4-.68,2.37,2.37,0,0,0,.15-.85,2.34,2.34,0,0,0-.15-.85,2,2,0,0,0-.4-.68,2,2,0,0,0-.64-.45A2.09,2.09,0,0,0,372.23,576.69Z" transform="translate(-0.34 -176.98)"/><path class="cls-3" d="M382.71,574.75a3.18,3.18,0,0,1,1.21.22,2.66,2.66,0,0,1,1.58,1.57,3.24,3.24,0,0,1,.22,1.23v4.94h-2.08v-4.27a1.91,1.91,0,0,0-.4-1.29,1.44,1.44,0,0,0-1.12-.44,1.67,1.67,0,0,0-.63.11,1.38,1.38,0,0,0-.52.32,1.48,1.48,0,0,0-.35.55,2,2,0,0,0-.14.77v4.25H378.4V575h2v.91a2.32,2.32,0,0,1,1-.87A3.23,3.23,0,0,1,382.71,574.75Z" transform="translate(-0.34 -176.98)"/><path class="cls-3" d="M392.17,582.71h-2.41L386.7,575H389l2,5.55,2-5.55h2.2Z" transform="translate(-0.34 -176.98)"/><path class="cls-3" d="M396.9,579.8a1.45,1.45,0,0,1,.59.13,1.51,1.51,0,0,1,.49.33,1.53,1.53,0,0,1,.34.5,1.45,1.45,0,0,1,.12.59,1.48,1.48,0,0,1-.12.59,1.43,1.43,0,0,1-.34.5,1.39,1.39,0,0,1-.49.34,1.31,1.31,0,0,1-.59.13,1.38,1.38,0,0,1-.6-.13,1.39,1.39,0,0,1-.49-.34,1.58,1.58,0,0,1-.34-.5,1.34,1.34,0,0,1-.13-.59,1.31,1.31,0,0,1,.13-.59,1.7,1.7,0,0,1,.34-.5,1.51,1.51,0,0,1,.49-.33A1.54,1.54,0,0,1,396.9,579.8Z" transform="translate(-0.34 -176.98)"/><path class="cls-3" d="M403.84,573.24a5.94,5.94,0,0,1,.56-.64,4,4,0,0,1,.8-.63,4.38,4.38,0,0,1,1.07-.47,4.54,4.54,0,0,1,1.39-.19,4.59,4.59,0,0,1,1.58.26,3.63,3.63,0,0,1,1.2.74,3.25,3.25,0,0,1,.76,1.15,4,4,0,0,1,.26,1.46,3.66,3.66,0,0,1-.12,1,4.47,4.47,0,0,1-.34.84,5.39,5.39,0,0,1-.52.76c-.19.24-.41.48-.64.72l-2.39,2.48h4.28v2h-7.4V581l4-4.06A3.75,3.75,0,0,0,409,576a2.26,2.26,0,0,0,.23-1,1.85,1.85,0,0,0-.12-.67,1.58,1.58,0,0,0-.35-.53,1.66,1.66,0,0,0-.54-.34,1.75,1.75,0,0,0-.7-.13,2.61,2.61,0,0,0-.72.1,2.74,2.74,0,0,0-.6.27,2.69,2.69,0,0,0-.5.39c-.16.15-.31.31-.45.47Z" transform="translate(-0.34 -176.98)"/><path class="cls-3" d="M417.5,571.31a4.17,4.17,0,0,1,1.68.34,3.77,3.77,0,0,1,1.38,1.06,5.32,5.32,0,0,1,.93,1.81,8.63,8.63,0,0,1,.35,2.59,8.93,8.93,0,0,1-.35,2.66,5.12,5.12,0,0,1-.93,1.79,3.55,3.55,0,0,1-1.38,1,4.34,4.34,0,0,1-1.68.33,4.4,4.4,0,0,1-1.7-.33,3.47,3.47,0,0,1-1.4-1,5.15,5.15,0,0,1-1-1.79,10.28,10.28,0,0,1,0-5.32,5.2,5.2,0,0,1,1-1.8,3.47,3.47,0,0,1,1.4-1A4.59,4.59,0,0,1,417.5,571.31Zm0,2.07a1.87,1.87,0,0,0-.83.19,1.75,1.75,0,0,0-.69.62,3.52,3.52,0,0,0-.48,1.15,7.3,7.3,0,0,0-.18,1.77,7.42,7.42,0,0,0,.18,1.77A3.52,3.52,0,0,0,416,580a1.83,1.83,0,0,0,.69.62,2,2,0,0,0,.83.19,1.88,1.88,0,0,0,.8-.19A1.8,1.8,0,0,0,419,580a3.53,3.53,0,0,0,.46-1.15,8,8,0,0,0,.17-1.77,7.56,7.56,0,0,0-.17-1.7,3.79,3.79,0,0,0-.46-1.16,1.94,1.94,0,0,0-.68-.66A1.65,1.65,0,0,0,417.5,573.38Z" transform="translate(-0.34 -176.98)"/><path class="cls-3" d="M426.5,580.66v-6.42l-2.78,1v-2.15l4.93-1.75v9.33h2.54v2.05h-7.35v-2.05Z" transform="translate(-0.34 -176.98)"/><path class="cls-3" d="M436.68,571.31a5.5,5.5,0,0,1,1.59.22,4.09,4.09,0,0,1,1.31.63,3.05,3.05,0,0,1,.88,1,2.86,2.86,0,0,1,.32,1.35,2.71,2.71,0,0,1-.13.88,2.79,2.79,0,0,1-.36.71,2.61,2.61,0,0,1-.55.55,4.09,4.09,0,0,1-.67.4,4.32,4.32,0,0,1,.77.4,2.77,2.77,0,0,1,.63.55,2.51,2.51,0,0,1,.43.73,2.65,2.65,0,0,1,.15.92,2.7,2.7,0,0,1-.34,1.37,3.15,3.15,0,0,1-.94,1,4.55,4.55,0,0,1-1.39.64,6.71,6.71,0,0,1-1.7.22,6.59,6.59,0,0,1-1.7-.22,4.5,4.5,0,0,1-1.4-.64,3.26,3.26,0,0,1-.94-1,2.7,2.7,0,0,1-.34-1.37,2.65,2.65,0,0,1,.15-.92,2.29,2.29,0,0,1,.42-.73,2.77,2.77,0,0,1,.63-.55,4.09,4.09,0,0,1,.78-.4,4.18,4.18,0,0,1-.68-.4,3.13,3.13,0,0,1-.54-.55,2.79,2.79,0,0,1-.36-.71,3,3,0,0,1-.13-.88,2.75,2.75,0,0,1,.33-1.35,2.84,2.84,0,0,1,.88-1,4,4,0,0,1,1.3-.63A5.53,5.53,0,0,1,436.68,571.31Zm0,6.63a2.92,2.92,0,0,0-.8.1,2.14,2.14,0,0,0-.65.29,1.55,1.55,0,0,0-.44.48,1.33,1.33,0,0,0-.16.67,1.22,1.22,0,0,0,.16.64,1.55,1.55,0,0,0,.44.48,2.13,2.13,0,0,0,.65.28,2.92,2.92,0,0,0,.8.1,2.83,2.83,0,0,0,.78-.1,2.19,2.19,0,0,0,.66-.28,1.55,1.55,0,0,0,.44-.48,1.22,1.22,0,0,0,.16-.64,1.33,1.33,0,0,0-.16-.67,1.55,1.55,0,0,0-.44-.48,2.2,2.2,0,0,0-.66-.29A2.83,2.83,0,0,0,436.68,577.94Zm0-4.68a2.65,2.65,0,0,0-.71.09,1.69,1.69,0,0,0-.57.28,1.2,1.2,0,0,0-.39.45,1.22,1.22,0,0,0-.14.61,1.34,1.34,0,0,0,.14.64,1.23,1.23,0,0,0,.39.46,1.9,1.9,0,0,0,.57.28,2.81,2.81,0,0,0,1.41,0,2.08,2.08,0,0,0,.58-.28,1.3,1.3,0,0,0,.38-.46,1.34,1.34,0,0,0,.14-.64,1.22,1.22,0,0,0-.14-.61,1.27,1.27,0,0,0-.38-.45,1.84,1.84,0,0,0-.58-.28A2.63,2.63,0,0,0,436.68,573.26Z" transform="translate(-0.34 -176.98)"/><path class="cls-3" d="M526.77,578.63a5.24,5.24,0,0,1-.3,1.85,3.76,3.76,0,0,1-.83,1.34,3.43,3.43,0,0,1-1.28.82,4.65,4.65,0,0,1-1.61.27,5.31,5.31,0,0,1-1.25-.14,4.34,4.34,0,0,1-1-.36,3.65,3.65,0,0,1-.77-.5,4.07,4.07,0,0,1-.55-.55l1.29-1.63a2.92,2.92,0,0,0,.39.4,2.89,2.89,0,0,0,.48.33,2.67,2.67,0,0,0,.6.23,3.15,3.15,0,0,0,.71.08,1.77,1.77,0,0,0,1.39-.57,2.65,2.65,0,0,0,.5-1.78v-6.91h2.23Z" transform="translate(-0.34 -176.98)"/><path class="cls-3" d="M536.7,582.71h-2v-.86a2.88,2.88,0,0,1-.95.77,3,3,0,0,1-1.37.29,3.63,3.63,0,0,1-1.48-.31,3.82,3.82,0,0,1-1.2-.86,4,4,0,0,1-.78-1.29,4.67,4.67,0,0,1,0-3.24,4,4,0,0,1,.78-1.29,3.67,3.67,0,0,1,1.2-.86,3.47,3.47,0,0,1,1.48-.31,3,3,0,0,1,1.37.29,2.88,2.88,0,0,1,.95.77V575h2Zm-4-6a2,2,0,0,0-.83.17,1.71,1.71,0,0,0-.63.46,1.86,1.86,0,0,0-.4.68,2.3,2.3,0,0,0-.14.83,2.23,2.23,0,0,0,.14.83,1.86,1.86,0,0,0,.4.68,2,2,0,0,0,.63.46,2,2,0,0,0,.83.16,1.92,1.92,0,0,0,.81-.16,1.79,1.79,0,0,0,.64-.44,2.11,2.11,0,0,0,.4-.68,2.37,2.37,0,0,0,.15-.85,2.34,2.34,0,0,0-.15-.85,2,2,0,0,0-.4-.68,2,2,0,0,0-.64-.45A2.09,2.09,0,0,0,532.73,576.69Z" transform="translate(-0.34 -176.98)"/><path class="cls-3" d="M543.21,574.75a3.18,3.18,0,0,1,1.21.22,2.66,2.66,0,0,1,1.58,1.57,3.24,3.24,0,0,1,.22,1.23v4.94h-2.08v-4.27a1.91,1.91,0,0,0-.4-1.29,1.44,1.44,0,0,0-1.12-.44,1.67,1.67,0,0,0-.63.11,1.38,1.38,0,0,0-.52.32,1.48,1.48,0,0,0-.35.55,2,2,0,0,0-.14.77v4.25H538.9V575h2v.91a2.32,2.32,0,0,1,1-.87A3.23,3.23,0,0,1,543.21,574.75Z" transform="translate(-0.34 -176.98)"/><path class="cls-3" d="M552.67,582.71h-2.41L547.2,575h2.27l2,5.55,2-5.55h2.2Z" transform="translate(-0.34 -176.98)"/><path class="cls-3" d="M557.4,579.8a1.49,1.49,0,0,1,.59.13,1.51,1.51,0,0,1,.49.33,1.7,1.7,0,0,1,.34.5,1.45,1.45,0,0,1,.12.59,1.48,1.48,0,0,1-.12.59,1.58,1.58,0,0,1-.34.5,1.39,1.39,0,0,1-.49.34,1.34,1.34,0,0,1-.59.13,1.38,1.38,0,0,1-.6-.13,1.39,1.39,0,0,1-.49-.34,1.58,1.58,0,0,1-.34-.5,1.34,1.34,0,0,1-.13-.59,1.31,1.31,0,0,1,.13-.59,1.7,1.7,0,0,1,.34-.5,1.51,1.51,0,0,1,.49-.33A1.54,1.54,0,0,1,557.4,579.8Z" transform="translate(-0.34 -176.98)"/><path class="cls-3" d="M564.34,573.24a5.94,5.94,0,0,1,.56-.64,4,4,0,0,1,.8-.63,4.21,4.21,0,0,1,1.07-.47,4.54,4.54,0,0,1,1.39-.19,4.59,4.59,0,0,1,1.58.26,3.63,3.63,0,0,1,1.2.74,3.25,3.25,0,0,1,.76,1.15,4,4,0,0,1,.26,1.46,3.66,3.66,0,0,1-.12,1,4.47,4.47,0,0,1-.34.84,5.39,5.39,0,0,1-.52.76c-.19.24-.41.48-.64.72L568,580.68h4.28v2h-7.4V581l4-4.06a3.75,3.75,0,0,0,.69-.92,2.26,2.26,0,0,0,.23-1,1.85,1.85,0,0,0-.12-.67,1.75,1.75,0,0,0-.35-.53,1.66,1.66,0,0,0-.54-.34,1.75,1.75,0,0,0-.7-.13,2.61,2.61,0,0,0-.72.1,2.74,2.74,0,0,0-.6.27,2.69,2.69,0,0,0-.5.39c-.16.15-.31.31-.45.47Z" transform="translate(-0.34 -176.98)"/><path class="cls-3" d="M578,571.31a4.09,4.09,0,0,1,1.67.34,3.72,3.72,0,0,1,1.39,1.06,5.32,5.32,0,0,1,.93,1.81,8.65,8.65,0,0,1,.34,2.59,9,9,0,0,1-.34,2.66,5.12,5.12,0,0,1-.93,1.79,3.51,3.51,0,0,1-1.39,1,4.25,4.25,0,0,1-1.67.33,4.49,4.49,0,0,1-1.71-.33,3.44,3.44,0,0,1-1.39-1,5.15,5.15,0,0,1-1-1.79,10.28,10.28,0,0,1,0-5.32,5.2,5.2,0,0,1,1-1.8,3.44,3.44,0,0,1,1.39-1A4.68,4.68,0,0,1,578,571.31Zm0,2.07a1.87,1.87,0,0,0-.83.19,1.68,1.68,0,0,0-.69.62,3.52,3.52,0,0,0-.48,1.15,7.3,7.3,0,0,0-.18,1.77,7.42,7.42,0,0,0,.18,1.77,3.52,3.52,0,0,0,.48,1.15,1.76,1.76,0,0,0,.69.62,2,2,0,0,0,.83.19,1.88,1.88,0,0,0,.8-.19,1.8,1.8,0,0,0,.68-.62,3.77,3.77,0,0,0,.46-1.15,8,8,0,0,0,.17-1.77,7.56,7.56,0,0,0-.17-1.7,4.06,4.06,0,0,0-.46-1.16,1.94,1.94,0,0,0-.68-.66A1.65,1.65,0,0,0,578,573.38Z" transform="translate(-0.34 -176.98)"/><path class="cls-3" d="M587,580.66v-6.42l-2.79,1v-2.15l4.94-1.75v9.33h2.54v2.05h-7.35v-2.05Z" transform="translate(-0.34 -176.98)"/><path class="cls-3" d="M597.37,578.81l-.24,0h-.27a4.21,4.21,0,0,1-1.57-.28,4,4,0,0,1-1.22-.79,3.68,3.68,0,0,1-.8-1.18,3.78,3.78,0,0,1-.29-1.47,3.7,3.7,0,0,1,.32-1.52,3.76,3.76,0,0,1,.89-1.2,3.87,3.87,0,0,1,1.33-.8,4.55,4.55,0,0,1,1.67-.29,4.8,4.8,0,0,1,1.67.28,4.17,4.17,0,0,1,1.34.79,3.73,3.73,0,0,1,.88,1.2,3.57,3.57,0,0,1,.32,1.5,4,4,0,0,1-.28,1.5,7.16,7.16,0,0,1-.79,1.48l-3.1,4.65h-2.61Zm-.18-1.86a2.21,2.21,0,0,0,.78-.14,1.85,1.85,0,0,0,.62-.38,1.61,1.61,0,0,0,.41-.58,1.78,1.78,0,0,0,.15-.74,1.86,1.86,0,0,0-.15-.75,1.61,1.61,0,0,0-.41-.58,2,2,0,0,0-.62-.38,2.41,2.41,0,0,0-1.56,0,2,2,0,0,0-.62.38,1.61,1.61,0,0,0-.41.58,1.86,1.86,0,0,0-.15.75,1.78,1.78,0,0,0,.15.74,1.61,1.61,0,0,0,.41.58,1.85,1.85,0,0,0,.62.38A2.21,2.21,0,0,0,597.19,577Z" transform="translate(-0.34 -176.98)"/><path class="cls-3" d="M687.27,578.63a5.24,5.24,0,0,1-.3,1.85,3.76,3.76,0,0,1-.83,1.34,3.43,3.43,0,0,1-1.28.82,4.65,4.65,0,0,1-1.61.27,5.31,5.31,0,0,1-1.25-.14,4.34,4.34,0,0,1-1-.36,3.65,3.65,0,0,1-.77-.5,4.07,4.07,0,0,1-.55-.55l1.29-1.63a2.92,2.92,0,0,0,.39.4,2.89,2.89,0,0,0,.48.33,2.67,2.67,0,0,0,.6.23,3.15,3.15,0,0,0,.71.08,1.77,1.77,0,0,0,1.39-.57,2.65,2.65,0,0,0,.5-1.78v-6.91h2.23Z" transform="translate(-0.34 -176.98)"/><path class="cls-3" d="M697.2,582.71h-2v-.86a2.88,2.88,0,0,1-.95.77,3,3,0,0,1-1.37.29,3.63,3.63,0,0,1-1.48-.31,3.82,3.82,0,0,1-1.2-.86,4,4,0,0,1-.78-1.29,4.67,4.67,0,0,1,0-3.24,4,4,0,0,1,.78-1.29,3.67,3.67,0,0,1,1.2-.86,3.47,3.47,0,0,1,1.48-.31,3,3,0,0,1,1.37.29,2.88,2.88,0,0,1,.95.77V575h2Zm-4-6a2,2,0,0,0-.83.17,1.71,1.71,0,0,0-.63.46,1.86,1.86,0,0,0-.4.68,2.3,2.3,0,0,0-.14.83,2.23,2.23,0,0,0,.14.83,1.86,1.86,0,0,0,.4.68,2,2,0,0,0,.63.46,2,2,0,0,0,.83.16,1.92,1.92,0,0,0,.81-.16,1.79,1.79,0,0,0,.64-.44,2.11,2.11,0,0,0,.4-.68,2.37,2.37,0,0,0,.15-.85,2.34,2.34,0,0,0-.15-.85,2,2,0,0,0-.4-.68,2,2,0,0,0-.64-.45A2.09,2.09,0,0,0,693.23,576.69Z" transform="translate(-0.34 -176.98)"/><path class="cls-3" d="M703.71,574.75a3.21,3.21,0,0,1,1.21.22,2.66,2.66,0,0,1,1.58,1.57,3.24,3.24,0,0,1,.22,1.23v4.94h-2.08v-4.27a1.91,1.91,0,0,0-.4-1.29,1.44,1.44,0,0,0-1.12-.44,1.67,1.67,0,0,0-.63.11,1.38,1.38,0,0,0-.52.32,1.48,1.48,0,0,0-.35.55,2,2,0,0,0-.14.77v4.25H699.4V575h2v.91a2.32,2.32,0,0,1,1-.87A3.2,3.2,0,0,1,703.71,574.75Z" transform="translate(-0.34 -176.98)"/><path class="cls-3" d="M713.17,582.71h-2.41L707.7,575H710l2,5.55,2-5.55h2.2Z" transform="translate(-0.34 -176.98)"/><path class="cls-3" d="M717.9,579.8a1.49,1.49,0,0,1,.59.13,1.51,1.51,0,0,1,.49.33,1.7,1.7,0,0,1,.34.5,1.45,1.45,0,0,1,.12.59,1.48,1.48,0,0,1-.12.59,1.58,1.58,0,0,1-.34.5,1.39,1.39,0,0,1-.49.34,1.34,1.34,0,0,1-.59.13,1.38,1.38,0,0,1-.6-.13,1.39,1.39,0,0,1-.49-.34,1.58,1.58,0,0,1-.34-.5,1.34,1.34,0,0,1-.13-.59,1.31,1.31,0,0,1,.13-.59,1.7,1.7,0,0,1,.34-.5,1.51,1.51,0,0,1,.49-.33A1.54,1.54,0,0,1,717.9,579.8Z" transform="translate(-0.34 -176.98)"/><path class="cls-3" d="M724.84,573.24a5.94,5.94,0,0,1,.56-.64,4,4,0,0,1,.8-.63,4.21,4.21,0,0,1,1.07-.47,4.54,4.54,0,0,1,1.39-.19,4.59,4.59,0,0,1,1.58.26,3.63,3.63,0,0,1,1.2.74,3.25,3.25,0,0,1,.76,1.15,4,4,0,0,1,.26,1.46,3.66,3.66,0,0,1-.12,1,4.47,4.47,0,0,1-.34.84,5.39,5.39,0,0,1-.52.76c-.19.24-.41.48-.64.72l-2.39,2.48h4.28v2h-7.4V581l4-4.06A3.75,3.75,0,0,0,730,576a2.26,2.26,0,0,0,.23-1,1.85,1.85,0,0,0-.12-.67,1.75,1.75,0,0,0-.35-.53,1.66,1.66,0,0,0-.54-.34,1.75,1.75,0,0,0-.7-.13,2.61,2.61,0,0,0-.72.1,2.74,2.74,0,0,0-.6.27,2.69,2.69,0,0,0-.5.39c-.16.15-.31.31-.45.47Z" transform="translate(-0.34 -176.98)"/><path class="cls-3" d="M738.5,571.31a4.09,4.09,0,0,1,1.67.34,3.72,3.72,0,0,1,1.39,1.06,5.32,5.32,0,0,1,.93,1.81,8.65,8.65,0,0,1,.34,2.59,9,9,0,0,1-.34,2.66,5.12,5.12,0,0,1-.93,1.79,3.51,3.51,0,0,1-1.39,1,4.25,4.25,0,0,1-1.67.33,4.49,4.49,0,0,1-1.71-.33,3.44,3.44,0,0,1-1.39-1,5.15,5.15,0,0,1-1-1.79,10.28,10.28,0,0,1,0-5.32,5.2,5.2,0,0,1,1-1.8,3.44,3.44,0,0,1,1.39-1A4.68,4.68,0,0,1,738.5,571.31Zm0,2.07a1.87,1.87,0,0,0-.83.19,1.68,1.68,0,0,0-.69.62,3.52,3.52,0,0,0-.48,1.15,7.3,7.3,0,0,0-.18,1.77,7.42,7.42,0,0,0,.18,1.77A3.52,3.52,0,0,0,737,580a1.76,1.76,0,0,0,.69.62,2,2,0,0,0,.83.19,1.88,1.88,0,0,0,.8-.19A1.8,1.8,0,0,0,740,580a3.77,3.77,0,0,0,.46-1.15,8,8,0,0,0,.17-1.77,7.56,7.56,0,0,0-.17-1.7,4.06,4.06,0,0,0-.46-1.16,1.94,1.94,0,0,0-.68-.66A1.65,1.65,0,0,0,738.5,573.38Z" transform="translate(-0.34 -176.98)"/><path class="cls-3" d="M744,573.24a5.75,5.75,0,0,1,.55-.64,4.64,4.64,0,0,1,.8-.63,4.45,4.45,0,0,1,1.08-.47,4.54,4.54,0,0,1,1.39-.19,4.59,4.59,0,0,1,1.58.26,3.63,3.63,0,0,1,1.2.74,3.1,3.1,0,0,1,.75,1.15,3.83,3.83,0,0,1,.27,1.46,3.66,3.66,0,0,1-.12,1,4.47,4.47,0,0,1-.34.84,5.39,5.39,0,0,1-.52.76c-.19.24-.41.48-.64.72l-2.39,2.48h4.28v2h-7.4V581l4-4.06a3.46,3.46,0,0,0,.68-.92,2.14,2.14,0,0,0,.24-1,1.85,1.85,0,0,0-.12-.67,1.75,1.75,0,0,0-.35-.53,1.66,1.66,0,0,0-.54-.34,1.75,1.75,0,0,0-.7-.13,2.74,2.74,0,0,0-.73.1,2.88,2.88,0,0,0-.59.27,2.69,2.69,0,0,0-.5.39c-.16.15-.31.31-.45.47Z" transform="translate(-0.34 -176.98)"/><path class="cls-3" d="M757.7,571.31a4.17,4.17,0,0,1,1.68.34,3.66,3.66,0,0,1,1.37,1.06,5.16,5.16,0,0,1,.94,1.81,8.63,8.63,0,0,1,.35,2.59,8.93,8.93,0,0,1-.35,2.66,5,5,0,0,1-.94,1.79,3.45,3.45,0,0,1-1.37,1,4.34,4.34,0,0,1-1.68.33,4.4,4.4,0,0,1-1.7-.33,3.57,3.57,0,0,1-1.41-1,5.31,5.31,0,0,1-1-1.79,10.28,10.28,0,0,1,0-5.32,5.37,5.37,0,0,1,1-1.8,3.57,3.57,0,0,1,1.41-1A4.59,4.59,0,0,1,757.7,571.31Zm0,2.07a1.81,1.81,0,0,0-1.53.81,3.53,3.53,0,0,0-.47,1.15,7.3,7.3,0,0,0-.18,1.77,7.42,7.42,0,0,0,.18,1.77,3.53,3.53,0,0,0,.47,1.15,1.93,1.93,0,0,0,.7.62,2,2,0,0,0,.83.19,1.88,1.88,0,0,0,.8-.19,1.78,1.78,0,0,0,.67-.62,3.53,3.53,0,0,0,.47-1.15,8,8,0,0,0,.17-1.77,7.56,7.56,0,0,0-.17-1.7,3.79,3.79,0,0,0-.47-1.16,1.91,1.91,0,0,0-.67-.66A1.65,1.65,0,0,0,757.7,573.38Z" transform="translate(-0.34 -176.98)"/><path class="cls-3" d="M847.77,578.63a5.24,5.24,0,0,1-.3,1.85,3.65,3.65,0,0,1-.84,1.34,3.32,3.32,0,0,1-1.27.82,4.65,4.65,0,0,1-1.61.27,5.46,5.46,0,0,1-1.26-.14,4.71,4.71,0,0,1-1-.36,3.85,3.85,0,0,1-.76-.5,4.19,4.19,0,0,1-.56-.55l1.3-1.63a3.55,3.55,0,0,0,.38.4,3.49,3.49,0,0,0,.49.33,2.67,2.67,0,0,0,.6.23,3.08,3.08,0,0,0,.71.08,1.73,1.73,0,0,0,1.38-.57,2.59,2.59,0,0,0,.5-1.78v-6.91h2.24Z" transform="translate(-0.34 -176.98)"/><path class="cls-3" d="M857.7,582.71h-2v-.86a2.88,2.88,0,0,1-.95.77,3,3,0,0,1-1.37.29,3.71,3.71,0,0,1-1.49-.31,3.9,3.9,0,0,1-1.19-.86,3.81,3.81,0,0,1-.78-1.29,4.67,4.67,0,0,1,0-3.24,3.81,3.81,0,0,1,.78-1.29,3.74,3.74,0,0,1,1.19-.86,3.55,3.55,0,0,1,1.49-.31,3,3,0,0,1,1.37.29,2.88,2.88,0,0,1,.95.77V575h2Zm-4-6a2,2,0,0,0-.83.17,1.71,1.71,0,0,0-.63.46,1.86,1.86,0,0,0-.4.68,2.3,2.3,0,0,0-.14.83,2.23,2.23,0,0,0,.14.83,1.86,1.86,0,0,0,.4.68,2,2,0,0,0,.63.46,2,2,0,0,0,.83.16,1.92,1.92,0,0,0,.81-.16,1.67,1.67,0,0,0,.63-.44,2,2,0,0,0,.41-.68,2.37,2.37,0,0,0,.15-.85,2.34,2.34,0,0,0-.15-.85,1.88,1.88,0,0,0-.41-.68,1.81,1.81,0,0,0-.63-.45A2.09,2.09,0,0,0,853.73,576.69Z" transform="translate(-0.34 -176.98)"/><path class="cls-3" d="M864.21,574.75a3.21,3.21,0,0,1,1.21.22,2.66,2.66,0,0,1,1.58,1.57,3.24,3.24,0,0,1,.22,1.23v4.94h-2.09v-4.27a1.91,1.91,0,0,0-.39-1.29,1.45,1.45,0,0,0-1.12-.44,1.67,1.67,0,0,0-.63.11,1.38,1.38,0,0,0-.52.32,1.64,1.64,0,0,0-.36.55,2.26,2.26,0,0,0-.13.77v4.25h-2.09V575h2v.91a2.27,2.27,0,0,1,1-.87A3.2,3.2,0,0,1,864.21,574.75Z" transform="translate(-0.34 -176.98)"/><path class="cls-3" d="M873.67,582.71h-2.41L868.2,575h2.27l2,5.55,2-5.55h2.2Z" transform="translate(-0.34 -176.98)"/><path class="cls-3" d="M878.4,579.8a1.49,1.49,0,0,1,.59.13,1.51,1.51,0,0,1,.49.33,1.7,1.7,0,0,1,.34.5,1.45,1.45,0,0,1,.12.59,1.48,1.48,0,0,1-.12.59,1.58,1.58,0,0,1-.34.5,1.39,1.39,0,0,1-.49.34,1.34,1.34,0,0,1-.59.13,1.38,1.38,0,0,1-.6-.13,1.39,1.39,0,0,1-.49-.34,1.58,1.58,0,0,1-.34-.5,1.34,1.34,0,0,1-.13-.59,1.31,1.31,0,0,1,.13-.59,1.7,1.7,0,0,1,.34-.5,1.51,1.51,0,0,1,.49-.33A1.54,1.54,0,0,1,878.4,579.8Z" transform="translate(-0.34 -176.98)"/><path class="cls-3" d="M885.33,573.24a7.3,7.3,0,0,1,.56-.64,4.64,4.64,0,0,1,.8-.63,4.45,4.45,0,0,1,1.08-.47,4.54,4.54,0,0,1,1.39-.19,4.59,4.59,0,0,1,1.58.26,3.63,3.63,0,0,1,1.2.74,3.1,3.1,0,0,1,.75,1.15,3.83,3.83,0,0,1,.27,1.46,3.28,3.28,0,0,1-.13,1,3.87,3.87,0,0,1-.33.84,5.39,5.39,0,0,1-.52.76c-.19.24-.41.48-.64.72L889,580.68h4.28v2h-7.4V581l4-4.06a3.46,3.46,0,0,0,.68-.92,2.14,2.14,0,0,0,.24-1,1.85,1.85,0,0,0-.12-.67,1.75,1.75,0,0,0-.35-.53,1.66,1.66,0,0,0-.54-.34,1.78,1.78,0,0,0-.7-.13,2.74,2.74,0,0,0-.73.1,2.88,2.88,0,0,0-.59.27,3.14,3.14,0,0,0-.51.39c-.15.15-.3.31-.44.47Z" transform="translate(-0.34 -176.98)"/><path class="cls-3" d="M899,571.31a4.09,4.09,0,0,1,1.67.34,3.61,3.61,0,0,1,1.38,1.06,5.16,5.16,0,0,1,.94,1.81,8.65,8.65,0,0,1,.34,2.59,9,9,0,0,1-.34,2.66,5,5,0,0,1-.94,1.79,3.41,3.41,0,0,1-1.38,1,4.25,4.25,0,0,1-1.67.33,4.49,4.49,0,0,1-1.71-.33,3.54,3.54,0,0,1-1.4-1,5.14,5.14,0,0,1-.95-1.79,10.28,10.28,0,0,1,0-5.32,5.19,5.19,0,0,1,.95-1.8,3.54,3.54,0,0,1,1.4-1A4.68,4.68,0,0,1,899,571.31Zm0,2.07a1.84,1.84,0,0,0-.83.19,1.77,1.77,0,0,0-.7.62,3.53,3.53,0,0,0-.47,1.15,7.3,7.3,0,0,0-.18,1.77,7.42,7.42,0,0,0,.18,1.77,3.53,3.53,0,0,0,.47,1.15,1.85,1.85,0,0,0,.7.62,2,2,0,0,0,.83.19,1.88,1.88,0,0,0,.8-.19,1.78,1.78,0,0,0,.67-.62,3.53,3.53,0,0,0,.47-1.15,8,8,0,0,0,.17-1.77,7.56,7.56,0,0,0-.17-1.7,3.79,3.79,0,0,0-.47-1.16,1.91,1.91,0,0,0-.67-.66A1.65,1.65,0,0,0,899,573.38Z" transform="translate(-0.34 -176.98)"/><path class="cls-3" d="M904.53,573.24a7.3,7.3,0,0,1,.56-.64,4.28,4.28,0,0,1,.8-.63,4.71,4.71,0,0,1,2.47-.66,4.63,4.63,0,0,1,1.58.26,3.63,3.63,0,0,1,1.2.74,3.1,3.1,0,0,1,.75,1.15,3.83,3.83,0,0,1,.27,1.46,3.28,3.28,0,0,1-.13,1,3.44,3.44,0,0,1-.34.84,4.59,4.59,0,0,1-.51.76c-.2.24-.41.48-.64.72l-2.39,2.48h4.28v2H905V581l4-4.06a3.46,3.46,0,0,0,.68-.92,2.14,2.14,0,0,0,.24-1,1.85,1.85,0,0,0-.12-.67,1.75,1.75,0,0,0-.35-.53,1.66,1.66,0,0,0-.54-.34,1.78,1.78,0,0,0-.7-.13,2.74,2.74,0,0,0-.73.1,2.88,2.88,0,0,0-.59.27,3.14,3.14,0,0,0-.51.39c-.15.15-.3.31-.44.47Z" transform="translate(-0.34 -176.98)"/><path class="cls-3" d="M917.6,580.66v-6.42l-2.79,1v-2.15l4.94-1.75v9.33h2.54v2.05h-7.35v-2.05Z" transform="translate(-0.34 -176.98)"/><path class="cls-3" d="M1008.27,578.63a5.24,5.24,0,0,1-.3,1.85,3.65,3.65,0,0,1-.84,1.34,3.32,3.32,0,0,1-1.27.82,4.65,4.65,0,0,1-1.61.27,5.31,5.31,0,0,1-1.25-.14,4.34,4.34,0,0,1-1-.36,3.65,3.65,0,0,1-.77-.5,4.19,4.19,0,0,1-.56-.55l1.3-1.63a2.92,2.92,0,0,0,.39.4,2.89,2.89,0,0,0,.48.33,2.67,2.67,0,0,0,.6.23,3.15,3.15,0,0,0,.71.08,1.77,1.77,0,0,0,1.39-.57,2.65,2.65,0,0,0,.5-1.78v-6.91h2.23Z" transform="translate(-0.34 -176.98)"/><path class="cls-3" d="M1018.2,582.71h-2v-.86a2.88,2.88,0,0,1-.95.77,3,3,0,0,1-1.37.29,3.63,3.63,0,0,1-1.48-.31,3.71,3.71,0,0,1-2-2.15,4.67,4.67,0,0,1,0-3.24,3.81,3.81,0,0,1,.78-1.29,3.67,3.67,0,0,1,1.2-.86,3.47,3.47,0,0,1,1.48-.31,3,3,0,0,1,1.37.29,2.88,2.88,0,0,1,.95.77V575h2Zm-4-6a2,2,0,0,0-.83.17,1.71,1.71,0,0,0-.63.46,1.86,1.86,0,0,0-.4.68,2.3,2.3,0,0,0-.14.83,2.23,2.23,0,0,0,.14.83,1.86,1.86,0,0,0,.4.68,2,2,0,0,0,.63.46,2,2,0,0,0,.83.16,1.92,1.92,0,0,0,.81-.16,1.79,1.79,0,0,0,.64-.44,2.11,2.11,0,0,0,.4-.68,2.37,2.37,0,0,0,.15-.85,2.34,2.34,0,0,0-.15-.85,2,2,0,0,0-.4-.68,2,2,0,0,0-.64-.45A2.09,2.09,0,0,0,1014.23,576.69Z" transform="translate(-0.34 -176.98)"/><path class="cls-3" d="M1024.71,574.75a3.21,3.21,0,0,1,1.21.22,2.66,2.66,0,0,1,1.58,1.57,3.24,3.24,0,0,1,.22,1.23v4.94h-2.09v-4.27a1.91,1.91,0,0,0-.39-1.29,1.45,1.45,0,0,0-1.12-.44,1.67,1.67,0,0,0-.63.11,1.38,1.38,0,0,0-.52.32,1.48,1.48,0,0,0-.35.55,2,2,0,0,0-.14.77v4.25h-2.08V575h2v.91a2.27,2.27,0,0,1,1-.87A3.2,3.2,0,0,1,1024.71,574.75Z" transform="translate(-0.34 -176.98)"/><path class="cls-3" d="M1034.17,582.71h-2.41L1028.7,575H1031l2,5.55,2-5.55h2.2Z" transform="translate(-0.34 -176.98)"/><path class="cls-3" d="M1038.9,579.8a1.49,1.49,0,0,1,.59.13,1.51,1.51,0,0,1,.49.33,1.7,1.7,0,0,1,.34.5,1.45,1.45,0,0,1,.12.59,1.48,1.48,0,0,1-.12.59,1.58,1.58,0,0,1-.34.5,1.39,1.39,0,0,1-.49.34,1.34,1.34,0,0,1-.59.13,1.38,1.38,0,0,1-.6-.13,1.39,1.39,0,0,1-.49-.34,1.58,1.58,0,0,1-.34-.5,1.34,1.34,0,0,1-.13-.59,1.31,1.31,0,0,1,.13-.59,1.7,1.7,0,0,1,.34-.5,1.51,1.51,0,0,1,.49-.33A1.54,1.54,0,0,1,1038.9,579.8Z" transform="translate(-0.34 -176.98)"/><path class="cls-3" d="M1045.83,573.24a6.13,6.13,0,0,1,.57-.64,4,4,0,0,1,.8-.63,4.21,4.21,0,0,1,1.07-.47,4.54,4.54,0,0,1,1.39-.19,4.59,4.59,0,0,1,1.58.26,3.63,3.63,0,0,1,1.2.74,3.25,3.25,0,0,1,.76,1.15,4,4,0,0,1,.26,1.46,3.28,3.28,0,0,1-.13,1,3.87,3.87,0,0,1-.33.84,5.39,5.39,0,0,1-.52.76c-.19.24-.41.48-.64.72l-2.39,2.48h4.28v2h-7.4V581l4-4.06a3.75,3.75,0,0,0,.69-.92,2.26,2.26,0,0,0,.23-1,1.85,1.85,0,0,0-.12-.67,1.75,1.75,0,0,0-.35-.53,1.66,1.66,0,0,0-.54-.34,1.78,1.78,0,0,0-.7-.13,2.61,2.61,0,0,0-.72.1,2.74,2.74,0,0,0-.6.27,3.14,3.14,0,0,0-.51.39c-.15.15-.3.31-.44.47Z" transform="translate(-0.34 -176.98)"/><path class="cls-3" d="M1059.5,571.31a4.09,4.09,0,0,1,1.67.34,3.61,3.61,0,0,1,1.38,1.06,5.16,5.16,0,0,1,.94,1.81,8.65,8.65,0,0,1,.34,2.59,9,9,0,0,1-.34,2.66,5,5,0,0,1-.94,1.79,3.41,3.41,0,0,1-1.38,1,4.25,4.25,0,0,1-1.67.33,4.49,4.49,0,0,1-1.71-.33,3.54,3.54,0,0,1-1.4-1,5.31,5.31,0,0,1-1-1.79,10.28,10.28,0,0,1,0-5.32,5.37,5.37,0,0,1,1-1.8,3.54,3.54,0,0,1,1.4-1A4.68,4.68,0,0,1,1059.5,571.31Zm0,2.07a1.84,1.84,0,0,0-.83.19,1.77,1.77,0,0,0-.7.62,3.53,3.53,0,0,0-.47,1.15,7.3,7.3,0,0,0-.18,1.77,7.42,7.42,0,0,0,.18,1.77A3.53,3.53,0,0,0,1058,580a1.85,1.85,0,0,0,.7.62,2,2,0,0,0,.83.19,1.88,1.88,0,0,0,.8-.19,1.78,1.78,0,0,0,.67-.62,3.53,3.53,0,0,0,.47-1.15,8,8,0,0,0,.17-1.77,7.56,7.56,0,0,0-.17-1.7,3.79,3.79,0,0,0-.47-1.16,1.91,1.91,0,0,0-.67-.66A1.65,1.65,0,0,0,1059.5,573.38Z" transform="translate(-0.34 -176.98)"/><path class="cls-3" d="M1065,573.24a7.3,7.3,0,0,1,.56-.64,4.28,4.28,0,0,1,.8-.63,4.45,4.45,0,0,1,1.08-.47,4.54,4.54,0,0,1,1.39-.19,4.59,4.59,0,0,1,1.58.26,3.63,3.63,0,0,1,1.2.74,3.1,3.1,0,0,1,.75,1.15,3.83,3.83,0,0,1,.27,1.46,3.28,3.28,0,0,1-.13,1,3.44,3.44,0,0,1-.34.84,4.59,4.59,0,0,1-.51.76c-.19.24-.41.48-.64.72l-2.39,2.48h4.28v2h-7.4V581l4-4.06a3.46,3.46,0,0,0,.68-.92,2.14,2.14,0,0,0,.24-1,1.85,1.85,0,0,0-.12-.67,1.75,1.75,0,0,0-.35-.53,1.66,1.66,0,0,0-.54-.34,1.78,1.78,0,0,0-.7-.13,2.74,2.74,0,0,0-.73.1,2.88,2.88,0,0,0-.59.27,3.14,3.14,0,0,0-.51.39c-.15.15-.3.31-.44.47Z" transform="translate(-0.34 -176.98)"/><path class="cls-3" d="M1074.63,573.24a7.3,7.3,0,0,1,.56-.64,4.64,4.64,0,0,1,.8-.63,4.45,4.45,0,0,1,1.08-.47,4.54,4.54,0,0,1,1.39-.19,4.63,4.63,0,0,1,1.58.26,3.63,3.63,0,0,1,1.2.74,3.1,3.1,0,0,1,.75,1.15,3.83,3.83,0,0,1,.27,1.46,3.28,3.28,0,0,1-.13,1,3.44,3.44,0,0,1-.34.84,4.59,4.59,0,0,1-.51.76c-.2.24-.41.48-.64.72l-2.39,2.48h4.28v2h-7.4V581l4-4.06a3.46,3.46,0,0,0,.68-.92,2.14,2.14,0,0,0,.24-1,1.85,1.85,0,0,0-.12-.67,1.75,1.75,0,0,0-.35-.53,1.66,1.66,0,0,0-.54-.34,1.78,1.78,0,0,0-.7-.13,2.74,2.74,0,0,0-.73.1,2.88,2.88,0,0,0-.59.27,3.14,3.14,0,0,0-.51.39c-.15.15-.3.31-.44.47Z" transform="translate(-0.34 -176.98)"/><path class="cls-3" d="M476.3,610.83a7.15,7.15,0,0,1,1.68.2,6.34,6.34,0,0,1,1.51.56,5.4,5.4,0,0,1,1.26.89,5.13,5.13,0,0,1,.95,1.18L479.54,615a3.79,3.79,0,0,0-3.26-1.73,4.12,4.12,0,0,0-1.58.3,3.67,3.67,0,0,0-1.26.84,3.72,3.72,0,0,0-.83,1.3,4.57,4.57,0,0,0-.31,1.68,4.45,4.45,0,0,0,.32,1.71,3.74,3.74,0,0,0,.84,1.3,3.66,3.66,0,0,0,1.26.82,4.24,4.24,0,0,0,1.56.29,3.94,3.94,0,0,0,1.89-.45,4.06,4.06,0,0,0,1.4-1.28l2.05,1.48a5.72,5.72,0,0,1-1,1.1,5.86,5.86,0,0,1-1.23.85,6.84,6.84,0,0,1-1.46.53,7.32,7.32,0,0,1-1.65.18,7.21,7.21,0,0,1-2.67-.48,6.25,6.25,0,0,1-2.09-1.36,6.14,6.14,0,0,1-1.37-2.07,7.39,7.39,0,0,1,0-5.24,6.12,6.12,0,0,1,3.46-3.43A7.21,7.21,0,0,1,476.3,610.83Z" transform="translate(-0.34 -176.98)"/><path class="cls-3" d="M492,623.67h-2.29v-1a3.22,3.22,0,0,1-2.61,1.18,4,4,0,0,1-1.68-.35,4.12,4.12,0,0,1-1.34-1,4.34,4.34,0,0,1-.88-1.45,5,5,0,0,1-.32-1.83,4.94,4.94,0,0,1,.32-1.82,4.23,4.23,0,0,1,2.22-2.42,4.11,4.11,0,0,1,1.68-.35,3.16,3.16,0,0,1,2.61,1.2v-1H492Zm-4.47-6.77a2.18,2.18,0,0,0-.93.19,2.05,2.05,0,0,0-.71.51,2.12,2.12,0,0,0-.45.77,2.81,2.81,0,0,0,0,1.87,2,2,0,0,0,.45.76,2.08,2.08,0,0,0,.71.52,2.41,2.41,0,0,0,1.85,0,2.11,2.11,0,0,0,.71-.51,2.24,2.24,0,0,0,.46-.76,3,3,0,0,0,.16-1,2.91,2.91,0,0,0-.16-.95,2.39,2.39,0,0,0-.46-.77,2.23,2.23,0,0,0-.71-.5A2.32,2.32,0,0,0,487.57,616.9Z" transform="translate(-0.34 -176.98)"/><path class="cls-3" d="M499.36,614.71a3.74,3.74,0,0,1,1.36.25,3.33,3.33,0,0,1,1.08.69,3.2,3.2,0,0,1,.7,1.08,3.66,3.66,0,0,1,.25,1.39v5.55H500.4v-4.8a2.15,2.15,0,0,0-.44-1.45,1.59,1.59,0,0,0-1.26-.5,2.08,2.08,0,0,0-.71.12,1.52,1.52,0,0,0-.59.37,1.69,1.69,0,0,0-.39.62,2.24,2.24,0,0,0-.15.86v4.78h-2.35V615h2.28v1a2.65,2.65,0,0,1,1.15-1A3.61,3.61,0,0,1,499.36,614.71Z" transform="translate(-0.34 -176.98)"/><path class="cls-3" d="M513.73,623.67h-2.29v-1a3.22,3.22,0,0,1-2.61,1.18,4,4,0,0,1-1.68-.35,4.12,4.12,0,0,1-1.34-1,4.34,4.34,0,0,1-.88-1.45,5,5,0,0,1-.32-1.83,4.94,4.94,0,0,1,.32-1.82,4.23,4.23,0,0,1,2.22-2.42,4.11,4.11,0,0,1,1.68-.35,3.16,3.16,0,0,1,2.61,1.2v-1h2.29Zm-4.47-6.77a2.18,2.18,0,0,0-.93.19,2.05,2.05,0,0,0-.71.51,2.12,2.12,0,0,0-.45.77,2.81,2.81,0,0,0,0,1.87,2,2,0,0,0,.45.76,2.08,2.08,0,0,0,.71.52,2.41,2.41,0,0,0,1.85,0,2.11,2.11,0,0,0,.71-.51,2.24,2.24,0,0,0,.46-.76,3,3,0,0,0,.16-1,2.91,2.91,0,0,0-.16-.95,2.39,2.39,0,0,0-.46-.77,2.23,2.23,0,0,0-.71-.5A2.32,2.32,0,0,0,509.26,616.9Z" transform="translate(-0.34 -176.98)"/><path class="cls-3" d="M519.88,614.71a3.33,3.33,0,0,1,1.51.32,3.17,3.17,0,0,1,1.05.83v-5.15h2.34v13h-2.29v-1a3.22,3.22,0,0,1-2.61,1.18,4,4,0,0,1-1.68-.35,4.12,4.12,0,0,1-1.34-1,4.51,4.51,0,0,1-.88-1.45,5,5,0,0,1-.32-1.83,4.94,4.94,0,0,1,.32-1.82,4.51,4.51,0,0,1,.88-1.45,4.3,4.3,0,0,1,1.34-1A4.11,4.11,0,0,1,519.88,614.71Zm.43,2.19a2.18,2.18,0,0,0-.93.19,2.05,2.05,0,0,0-.71.51,2.12,2.12,0,0,0-.45.77,2.81,2.81,0,0,0,0,1.87,2,2,0,0,0,.45.76,2.08,2.08,0,0,0,.71.52,2.34,2.34,0,0,0,.93.19,2.29,2.29,0,0,0,.92-.18,2.11,2.11,0,0,0,.71-.51,2.24,2.24,0,0,0,.46-.76,2.73,2.73,0,0,0,.16-1,2.67,2.67,0,0,0-.16-.95,2.39,2.39,0,0,0-.46-.77,2.23,2.23,0,0,0-.71-.5A2.29,2.29,0,0,0,520.31,616.9Z" transform="translate(-0.34 -176.98)"/><path class="cls-3" d="M535.84,623.67h-2.3v-1a3.2,3.2,0,0,1-1.07.85,3.33,3.33,0,0,1-1.54.33,3.88,3.88,0,0,1-1.67-.35,3.92,3.92,0,0,1-1.34-1,4.36,4.36,0,0,1-.89-1.45,5.21,5.21,0,0,1-.32-1.83,5.16,5.16,0,0,1,.32-1.82,4.36,4.36,0,0,1,.89-1.45,4.08,4.08,0,0,1,1.34-1,4,4,0,0,1,1.67-.35,3.33,3.33,0,0,1,1.54.33,3.26,3.26,0,0,1,1.07.87v-1h2.3Zm-4.48-6.77a2.18,2.18,0,0,0-.93.19,2.15,2.15,0,0,0-.71.51,2.27,2.27,0,0,0-.45.77,2.81,2.81,0,0,0,0,1.87,2.13,2.13,0,0,0,.45.76,2.18,2.18,0,0,0,.71.52,2.34,2.34,0,0,0,.93.19,2.29,2.29,0,0,0,.92-.18A2,2,0,0,0,533,621a2.24,2.24,0,0,0,.46-.76,2.73,2.73,0,0,0,.16-1,2.67,2.67,0,0,0-.16-.95,2.39,2.39,0,0,0-.46-.77,2.12,2.12,0,0,0-.71-.5A2.29,2.29,0,0,0,531.36,616.9Z" transform="translate(-0.34 -176.98)"/><line class="cls-6" x1="422.79" y1="441.78" x2="457.79" y2="441.78"/><path class="cls-3" d="M637.27,623.67h-9.41v-12.6h9.34v2.3h-6.83v2.79h6.51v2.31h-6.51v2.89h6.9ZM630.86,610l1.81-2.84h2.81L633.11,610Z" transform="translate(-0.34 -176.98)"/><path class="cls-3" d="M646,617h-3.15v3.18a2,2,0,0,0,.1.69,1.23,1.23,0,0,0,.28.46,1,1,0,0,0,.41.25,1.44,1.44,0,0,0,.51.09,2.16,2.16,0,0,0,.85-.18,6.46,6.46,0,0,0,.79-.39l.86,1.84a5.62,5.62,0,0,1-1.27.65,4.44,4.44,0,0,1-1.62.26,3.12,3.12,0,0,1-2.44-.89,3.68,3.68,0,0,1-.82-2.59V617h-1.69V615h1.69v-2.59h2.35V615H646Z" transform="translate(-0.34 -176.98)"/><path class="cls-3" d="M656.52,623.67h-2.29v-1a3.22,3.22,0,0,1-2.61,1.18,4,4,0,0,1-1.68-.35,4.12,4.12,0,0,1-1.34-1,4.34,4.34,0,0,1-.88-1.45,5,5,0,0,1-.32-1.83,4.94,4.94,0,0,1,.32-1.82,4.23,4.23,0,0,1,2.22-2.42,4.11,4.11,0,0,1,1.68-.35,3.16,3.16,0,0,1,2.61,1.2v-1h2.29Zm-4.47-6.77a2.18,2.18,0,0,0-.93.19,2.05,2.05,0,0,0-.71.51,2.12,2.12,0,0,0-.45.77,2.81,2.81,0,0,0,0,1.87,2,2,0,0,0,.45.76,2.08,2.08,0,0,0,.71.52,2.34,2.34,0,0,0,.93.19,2.29,2.29,0,0,0,.92-.18,2.11,2.11,0,0,0,.71-.51,2.24,2.24,0,0,0,.46-.76,2.73,2.73,0,0,0,.16-1,2.67,2.67,0,0,0-.16-.95,2.39,2.39,0,0,0-.46-.77,2.23,2.23,0,0,0-.71-.5A2.29,2.29,0,0,0,652.05,616.9Z" transform="translate(-0.34 -176.98)"/><path class="cls-3" d="M665.32,617h-3.16v3.18a2,2,0,0,0,.1.69,1.23,1.23,0,0,0,.28.46,1,1,0,0,0,.41.25,1.44,1.44,0,0,0,.51.09,2.16,2.16,0,0,0,.85-.18,6.46,6.46,0,0,0,.79-.39L666,623a5.62,5.62,0,0,1-1.27.65,4.44,4.44,0,0,1-1.62.26,3.12,3.12,0,0,1-2.44-.89,3.68,3.68,0,0,1-.82-2.59V617h-1.69V615h1.69v-2.59h2.35V615h3.16Z" transform="translate(-0.34 -176.98)"/><path class="cls-3" d="M673.64,617.38c-.17-.09-.37-.17-.59-.26a7,7,0,0,0-.69-.22,5.86,5.86,0,0,0-.75-.17,4.74,4.74,0,0,0-.75-.06,1.93,1.93,0,0,0-1,.21.67.67,0,0,0-.33.58.47.47,0,0,0,.11.31.81.81,0,0,0,.3.21,2.41,2.41,0,0,0,.45.13l.56.1.77.11a4.42,4.42,0,0,1,2.19.86,2.18,2.18,0,0,1,.76,1.75,2.77,2.77,0,0,1-.27,1.23,2.59,2.59,0,0,1-.79.93,3.87,3.87,0,0,1-1.26.59,6.2,6.2,0,0,1-1.69.21,8,8,0,0,1-.95,0,8.66,8.66,0,0,1-1-.16,7.39,7.39,0,0,1-1-.32,4.51,4.51,0,0,1-.92-.49l.93-1.79a4.36,4.36,0,0,0,.59.35,6,6,0,0,0,.68.27,6.1,6.1,0,0,0,.79.18,6.42,6.42,0,0,0,.91.06,2.58,2.58,0,0,0,1.22-.22.65.65,0,0,0,.39-.6.55.55,0,0,0-.34-.5,3.3,3.3,0,0,0-1.11-.3l-.71-.1c-2-.27-3-1.16-3-2.64a2.73,2.73,0,0,1,.25-1.21,2.41,2.41,0,0,1,.73-.89,3.17,3.17,0,0,1,1.15-.56,5.66,5.66,0,0,1,1.55-.2c.35,0,.68,0,1,0a8.83,8.83,0,0,1,.92.15,8,8,0,0,1,1.73.63Z" transform="translate(-0.34 -176.98)"/><path class="cls-3" d="M681.6,619.91h-5.32v-2.06h5.32Z" transform="translate(-0.34 -176.98)"/><path class="cls-3" d="M694.74,618.64a6.2,6.2,0,0,1-.4,2.29,4.44,4.44,0,0,1-1.12,1.64,4.65,4.65,0,0,1-1.72,1,7.47,7.47,0,0,1-4.39,0,4.73,4.73,0,0,1-1.72-1,4.41,4.41,0,0,1-1.11-1.64,6,6,0,0,1-.4-2.29v-7.57h2.52v7.44a3.85,3.85,0,0,0,.21,1.34,2.37,2.37,0,0,0,.6.92,2.21,2.21,0,0,0,.91.54,3.76,3.76,0,0,0,1.19.18,3.65,3.65,0,0,0,1.18-.18,2.18,2.18,0,0,0,.92-.54,2.36,2.36,0,0,0,.59-.92,3.62,3.62,0,0,0,.22-1.34v-7.44h2.52Z" transform="translate(-0.34 -176.98)"/><path class="cls-3" d="M702.11,614.71a3.78,3.78,0,0,1,1.36.25,3.33,3.33,0,0,1,1.08.69,3.2,3.2,0,0,1,.7,1.08,3.66,3.66,0,0,1,.25,1.39v5.55h-2.35v-4.8a2.15,2.15,0,0,0-.44-1.45,1.59,1.59,0,0,0-1.26-.5,2.18,2.18,0,0,0-.72.12,1.48,1.48,0,0,0-.58.37,1.7,1.7,0,0,0-.4.62,2.24,2.24,0,0,0-.15.86v4.78h-2.34V615h2.28v1a2.57,2.57,0,0,1,1.14-1A3.65,3.65,0,0,1,702.11,614.71Z" transform="translate(-0.34 -176.98)"/><path class="cls-3" d="M709.05,610.58a1.45,1.45,0,0,1,.59.12,1.47,1.47,0,0,1,.8.8,1.48,1.48,0,0,1,.12.59,1.45,1.45,0,0,1-.12.59,1.47,1.47,0,0,1-.8.8,1.63,1.63,0,0,1-.59.11,1.58,1.58,0,0,1-.58-.11,1.47,1.47,0,0,1-.8-.8,1.63,1.63,0,0,1-.11-.59,1.67,1.67,0,0,1,.11-.59,1.47,1.47,0,0,1,.8-.8A1.4,1.4,0,0,1,709.05,610.58Zm1.19,13.09h-2.35V615h2.35Z" transform="translate(-0.34 -176.98)"/><path class="cls-3" d="M719,617.38c-.17-.09-.37-.17-.59-.26a7,7,0,0,0-.69-.22,5.86,5.86,0,0,0-.75-.17,4.74,4.74,0,0,0-.75-.06,2,2,0,0,0-1,.21.67.67,0,0,0-.33.58.47.47,0,0,0,.11.31.81.81,0,0,0,.3.21,2.31,2.31,0,0,0,.46.13l.55.1.78.11a4.38,4.38,0,0,1,2.18.86,2.15,2.15,0,0,1,.76,1.75,2.77,2.77,0,0,1-.27,1.23,2.66,2.66,0,0,1-.78.93,4,4,0,0,1-1.26.59,6.25,6.25,0,0,1-1.69.21,7.76,7.76,0,0,1-1,0,8.83,8.83,0,0,1-1-.16,7.39,7.39,0,0,1-1-.32,4.19,4.19,0,0,1-.91-.49l.92-1.79a4.48,4.48,0,0,0,.6.35,5.35,5.35,0,0,0,.68.27,5.59,5.59,0,0,0,.78.18,6.42,6.42,0,0,0,.91.06,2.58,2.58,0,0,0,1.22-.22.65.65,0,0,0,.39-.6.55.55,0,0,0-.34-.5,3.23,3.23,0,0,0-1.1-.3l-.72-.1c-2-.27-3-1.16-3-2.64a2.73,2.73,0,0,1,.25-1.21,2.41,2.41,0,0,1,.73-.89,3.14,3.14,0,0,1,1.16-.56,5.53,5.53,0,0,1,1.54-.2c.35,0,.68,0,1,0a8.41,8.41,0,0,1,.92.15,8.89,8.89,0,0,1,.88.26,7.82,7.82,0,0,1,.85.37Z" transform="translate(-0.34 -176.98)"/><line class="cls-1" x1="580.36" y1="441.78" x2="615.36" y2="441.78"/></svg>