<svg id="Layer_1" data-name="Layer 1" xmlns="http://www.w3.org/2000/svg" viewBox="0 0 1069.93 433.96"><defs><style>.cls-1{fill:#ed5b35;}.cls-2{fill:#203232;}.cls-3,.cls-4,.cls-5{fill:none;stroke:#203232;stroke-miterlimit:10;}.cls-3{stroke-width:1.99px;}.cls-4{stroke-width:2px;}.cls-5{stroke-width:0.62px;}</style></defs><rect class="cls-1" x="100.1" y="24.48" width="36.6" height="181.57"/><path class="cls-2" d="M110.88,592.92V597h-2.23v-11.2h4.57a5.69,5.69,0,0,1,1.77.25,3.67,3.67,0,0,1,1.28.71,3.14,3.14,0,0,1,.78,1.12,3.87,3.87,0,0,1,.26,1.48,3.8,3.8,0,0,1-.26,1.46,3.06,3.06,0,0,1-.78,1.12,3.67,3.67,0,0,1-1.28.71,5.58,5.58,0,0,1-1.76.25Zm0-5v3h2.3a2.16,2.16,0,0,0,1.38-.37,1.59,1.59,0,0,0,0-2.26,2.16,2.16,0,0,0-1.38-.38Z" transform="translate(-9.7 -185.46)"/><path class="cls-2" d="M123.25,589.06a3.7,3.7,0,0,1,.6,0,3.19,3.19,0,0,1,.49.12L124,591.3a2.63,2.63,0,0,0-.6-.18,3.18,3.18,0,0,0-.67-.07,2,2,0,0,0-.66.11,1.44,1.44,0,0,0-.85.87,2.2,2.2,0,0,0-.12.76V597H119v-7.76h2v.85a2.17,2.17,0,0,1,.91-.8A3,3,0,0,1,123.25,589.06Z" transform="translate(-9.7 -185.46)"/><path class="cls-2" d="M128.94,589.06a4,4,0,0,1,1.53.29,3.59,3.59,0,0,1,1.19.83,3.79,3.79,0,0,1,.77,1.29,4.9,4.9,0,0,1,.28,1.66c0,.12,0,.25,0,.37a2.92,2.92,0,0,1,0,.33h-5.5a2.09,2.09,0,0,0,.26.73,2,2,0,0,0,.45.5,1.71,1.71,0,0,0,.59.29,2.56,2.56,0,0,0,.69.09,2.83,2.83,0,0,0,1-.19,3.06,3.06,0,0,0,.94-.55l1.23,1.34a4.18,4.18,0,0,1-1.5.89,5.5,5.5,0,0,1-1.81.29,4.34,4.34,0,0,1-1.63-.3,3.61,3.61,0,0,1-1.27-.82,3.78,3.78,0,0,1-.83-1.28,4.63,4.63,0,0,1-.29-1.66,4.51,4.51,0,0,1,.29-1.67,3.85,3.85,0,0,1,.8-1.29,3.58,3.58,0,0,1,1.24-.84A4.09,4.09,0,0,1,128.94,589.06Zm1-.83-1-1.22-1,1.22h-2l1.75-2.52h2.52l1.74,2.52Zm-1,2.63a1.59,1.59,0,0,0-1.17.41,2,2,0,0,0-.57,1.14h3.43a2,2,0,0,0-.58-1.15A1.54,1.54,0,0,0,128.92,590.86Z" transform="translate(-9.7 -185.46)"/><path class="cls-2" d="M140,591.12h-2.8V594a1.78,1.78,0,0,0,.09.61,1,1,0,0,0,.25.41.86.86,0,0,0,.36.23,1.39,1.39,0,0,0,.46.07,2,2,0,0,0,.75-.15,5.71,5.71,0,0,0,.7-.35l.77,1.63a5.23,5.23,0,0,1-1.13.58,4,4,0,0,1-1.44.24,2.79,2.79,0,0,1-2.17-.8,3.24,3.24,0,0,1-.73-2.3v-3h-1.5v-1.86h1.5V587h2.09v2.3H140Z" transform="translate(-9.7 -185.46)"/><path class="cls-2" d="M147.35,591.42l-.52-.22c-.2-.07-.4-.14-.62-.2a6.38,6.38,0,0,0-.66-.15,3.88,3.88,0,0,0-.67-.06,1.71,1.71,0,0,0-.89.19.59.59,0,0,0-.3.52.4.4,0,0,0,.1.28.91.91,0,0,0,.27.18,1.73,1.73,0,0,0,.4.12l.49.08.69.1a4,4,0,0,1,1.94.76,1.94,1.94,0,0,1,.68,1.56,2.42,2.42,0,0,1-.24,1.09,2.23,2.23,0,0,1-.7.83,3.43,3.43,0,0,1-1.12.53,5.69,5.69,0,0,1-1.5.19c-.27,0-.55,0-.85-.05A7.19,7.19,0,0,1,143,597a4.83,4.83,0,0,1-.89-.28,3.4,3.4,0,0,1-.82-.44l.82-1.58a4.54,4.54,0,0,0,.53.3,3,3,0,0,0,.61.24,3.49,3.49,0,0,0,.69.16,5.13,5.13,0,0,0,.81.06,2.29,2.29,0,0,0,1.08-.19.6.6,0,0,0,.36-.54.53.53,0,0,0-.31-.45,3,3,0,0,0-1-.26l-.63-.09c-1.79-.24-2.68-1-2.68-2.35a2.44,2.44,0,0,1,.22-1.07,2.14,2.14,0,0,1,.65-.79,2.83,2.83,0,0,1,1-.5,4.79,4.79,0,0,1,1.37-.18,8.18,8.18,0,0,1,.88.05,7.37,7.37,0,0,1,.82.13c.26.07.52.14.77.23a6.37,6.37,0,0,1,.77.33Z" transform="translate(-9.7 -185.46)"/><path class="cls-2" d="M96.18,608.26a3.55,3.55,0,0,1,1.49.31,3.87,3.87,0,0,1,1.19.85,4.16,4.16,0,0,1,.79,1.3,4.45,4.45,0,0,1,.29,1.62,4.52,4.52,0,0,1-.29,1.62,4,4,0,0,1-.78,1.29,3.64,3.64,0,0,1-1.2.85,3.51,3.51,0,0,1-1.48.32,2.93,2.93,0,0,1-1.38-.3,2.79,2.79,0,0,1-.94-.76v.86h-2V604.7h2.08v4.57a2.8,2.8,0,0,1,.93-.73A2.89,2.89,0,0,1,96.18,608.26Zm-.39,1.94a1.92,1.92,0,0,0-.81.16,1.88,1.88,0,0,0-1,1.13,2.46,2.46,0,0,0,0,1.69,1.91,1.91,0,0,0,.4.68,1.74,1.74,0,0,0,.63.45,2.15,2.15,0,0,0,1.65,0,1.9,1.9,0,0,0,1-1.13,2.26,2.26,0,0,0,.14-.83,2.35,2.35,0,0,0-.14-.84,1.94,1.94,0,0,0-.4-.68,1.87,1.87,0,0,0-.62-.45A2.07,2.07,0,0,0,95.79,610.2Z" transform="translate(-9.7 -185.46)"/><path class="cls-2" d="M109.27,616.22h-2v-.86a2.73,2.73,0,0,1-1,.76,2.89,2.89,0,0,1-1.37.3,3.48,3.48,0,0,1-1.48-.32,3.64,3.64,0,0,1-1.2-.85,3.81,3.81,0,0,1-.78-1.29,4.52,4.52,0,0,1-.29-1.62,4.45,4.45,0,0,1,.29-1.62,4,4,0,0,1,.78-1.3,3.79,3.79,0,0,1,1.2-.85,3.47,3.47,0,0,1,1.48-.31,2.89,2.89,0,0,1,1.37.29,2.76,2.76,0,0,1,1,.77v-.86h2Zm-4-6a2,2,0,0,0-.83.17,1.81,1.81,0,0,0-.63.45,1.94,1.94,0,0,0-.4.68,2.35,2.35,0,0,0-.14.84,2.26,2.26,0,0,0,.14.83,1.86,1.86,0,0,0,.4.68,1.81,1.81,0,0,0,.63.45,1.87,1.87,0,0,0,.83.17,1.92,1.92,0,0,0,.81-.16,1.69,1.69,0,0,0,.64-.45,1.91,1.91,0,0,0,.4-.68,2.46,2.46,0,0,0,0-1.69,2,2,0,0,0-.4-.68,2,2,0,0,0-.64-.45A1.92,1.92,0,0,0,105.3,610.2Z" transform="translate(-9.7 -185.46)"/><path class="cls-2" d="M115.78,608.26a3.21,3.21,0,0,1,1.21.22,2.81,2.81,0,0,1,1,.61,3,3,0,0,1,.62,1,3.24,3.24,0,0,1,.22,1.23v4.94h-2.08V612a1.91,1.91,0,0,0-.4-1.29,1.42,1.42,0,0,0-1.12-.44,1.89,1.89,0,0,0-.63.1,1.54,1.54,0,0,0-.52.33,1.48,1.48,0,0,0-.35.55,2,2,0,0,0-.14.77v4.25h-2.08v-7.76h2v.92a2.27,2.27,0,0,1,1-.87A3.2,3.2,0,0,1,115.78,608.26Z" transform="translate(-9.7 -185.46)"/><path class="cls-2" d="M124.57,608.26a4,4,0,0,1,1.77.38,3.5,3.5,0,0,1,1.33,1.08l-1.5,1.26a2.62,2.62,0,0,0-.75-.58,2,2,0,0,0-.91-.2,1.94,1.94,0,0,0-.76.15,1.88,1.88,0,0,0-.61.43,2,2,0,0,0-.42.68,2.66,2.66,0,0,0,0,1.76,2.15,2.15,0,0,0,.41.67,1.77,1.77,0,0,0,.62.43,1.87,1.87,0,0,0,.76.15,2,2,0,0,0,.92-.21,2.49,2.49,0,0,0,.76-.57l1.49,1.27a3.68,3.68,0,0,1-1.34,1.08,4.1,4.1,0,0,1-1.77.38,4.58,4.58,0,0,1-1.69-.31,3.91,3.91,0,0,1-1.3-.85,3.64,3.64,0,0,1-.84-1.3,4.28,4.28,0,0,1-.3-1.62,4.34,4.34,0,0,1,.3-1.63,3.52,3.52,0,0,1,.84-1.29,3.79,3.79,0,0,1,1.3-.86A4.58,4.58,0,0,1,124.57,608.26Z" transform="translate(-9.7 -185.46)"/><path class="cls-2" d="M136.66,616.22h-2v-.86a2.88,2.88,0,0,1-2.32,1.06,3.68,3.68,0,0,1-2.68-1.17,3.83,3.83,0,0,1-.79-1.29,4.52,4.52,0,0,1-.28-1.62,4.45,4.45,0,0,1,.28-1.62,4,4,0,0,1,.79-1.3,3.64,3.64,0,0,1,1.19-.85,3.52,3.52,0,0,1,1.49-.31,2.92,2.92,0,0,1,1.37.29,3,3,0,0,1,1,.77v-.86h2Zm-4-6a2.05,2.05,0,0,0-.83.17,1.81,1.81,0,0,0-.63.45,2.11,2.11,0,0,0-.4.68,2.6,2.6,0,0,0-.14.84,2.49,2.49,0,0,0,.14.83,2,2,0,0,0,.4.68,1.81,1.81,0,0,0,.63.45,1.9,1.9,0,0,0,.83.17,2,2,0,0,0,.82-.16,1.74,1.74,0,0,0,.63-.45,1.93,1.93,0,0,0,.41-.68,2.62,2.62,0,0,0,0-1.69,1.94,1.94,0,0,0-1-1.13A2,2,0,0,0,132.68,610.2Z" transform="translate(-9.7 -185.46)"/><path class="cls-2" d="M139.88,604.58a1.42,1.42,0,0,1,1,.39,1.39,1.39,0,0,1,.28.43,1.36,1.36,0,0,1,.11.53,1.3,1.3,0,0,1-.82,1.23,1.4,1.4,0,0,1-1,0,1.24,1.24,0,0,1-.71-.71,1.46,1.46,0,0,1-.1-.52,1.56,1.56,0,0,1,.1-.53,1.39,1.39,0,0,1,.28-.43,1.42,1.42,0,0,1,.95-.39Zm1.06,11.64h-2.09v-7.76h2.09Z" transform="translate(-9.7 -185.46)"/><path class="cls-2" d="M147.34,608.26a3.7,3.7,0,0,1,.6,0,3.19,3.19,0,0,1,.49.12l-.32,2.08a2.36,2.36,0,0,0-.6-.18,3.09,3.09,0,0,0-.66-.07,2,2,0,0,0-.66.11,1.49,1.49,0,0,0-.52.33,1.45,1.45,0,0,0-.33.54,2.2,2.2,0,0,0-.12.76v4.23h-2.09v-7.76h2v.85a2.2,2.2,0,0,1,.92-.8A3,3,0,0,1,147.34,608.26Z" transform="translate(-9.7 -185.46)"/><path class="cls-2" d="M153,608.26a4,4,0,0,1,1.53.29,3.7,3.7,0,0,1,1.19.83,4,4,0,0,1,.77,1.29,4.9,4.9,0,0,1,.27,1.66c0,.12,0,.25,0,.37s0,.24,0,.33h-5.49a2.09,2.09,0,0,0,.26.73,1.8,1.8,0,0,0,.45.5,1.67,1.67,0,0,0,.58.29,2.63,2.63,0,0,0,.7.09,2.83,2.83,0,0,0,1-.19,3.18,3.18,0,0,0,.94-.55l1.22,1.34a4.14,4.14,0,0,1-1.49.89,5.5,5.5,0,0,1-1.81.29,4.3,4.3,0,0,1-1.63-.3,3.52,3.52,0,0,1-1.27-.82,3.63,3.63,0,0,1-.83-1.28,4.42,4.42,0,0,1-.29-1.66,4.72,4.72,0,0,1,.28-1.67,3.87,3.87,0,0,1,.81-1.29,3.54,3.54,0,0,1,1.23-.84A4.11,4.11,0,0,1,153,608.26Zm0,1.8a1.62,1.62,0,0,0-1.18.41,2.05,2.05,0,0,0-.56,1.14h3.43a2,2,0,0,0-.58-1.15A1.56,1.56,0,0,0,153,610.06Z" transform="translate(-9.7 -185.46)"/><path class="cls-2" d="M164,610.62l-.52-.22c-.2-.07-.4-.14-.62-.2l-.66-.15a3.88,3.88,0,0,0-.67-.06,1.77,1.77,0,0,0-.9.19.6.6,0,0,0-.29.52.4.4,0,0,0,.1.28.75.75,0,0,0,.26.18,2.09,2.09,0,0,0,.4.12l.5.08.69.1a4,4,0,0,1,1.94.76,1.93,1.93,0,0,1,.67,1.56,2.42,2.42,0,0,1-.24,1.09,2.3,2.3,0,0,1-.69.83,3.53,3.53,0,0,1-1.12.53,5.77,5.77,0,0,1-1.51.19c-.26,0-.54,0-.84,0a7.34,7.34,0,0,1-.9-.15,5.08,5.08,0,0,1-.89-.28,3.53,3.53,0,0,1-.81-.44l.82-1.58a4.54,4.54,0,0,0,.53.3,3.13,3.13,0,0,0,.6.24,3.77,3.77,0,0,0,.7.16,5.13,5.13,0,0,0,.81.06,2.29,2.29,0,0,0,1.08-.19.59.59,0,0,0,.35-.54.52.52,0,0,0-.3-.45,3,3,0,0,0-1-.26l-.63-.09c-1.78-.24-2.68-1-2.68-2.35a2.44,2.44,0,0,1,.23-1.07,2.21,2.21,0,0,1,.64-.79,3,3,0,0,1,1-.5,4.84,4.84,0,0,1,1.37-.18,8.37,8.37,0,0,1,.89,0,6.85,6.85,0,0,1,.81.13c.27.07.53.14.78.23a6.24,6.24,0,0,1,.76.33Z" transform="translate(-9.7 -185.46)"/><path class="cls-2" d="M113.46,185.46a5.16,5.16,0,0,1,2.1.43,4.73,4.73,0,0,1,1.72,1.32,6.35,6.35,0,0,1,1.17,2.26,10.73,10.73,0,0,1,.43,3.24,11.06,11.06,0,0,1-.43,3.32,6.13,6.13,0,0,1-1.17,2.25,4.49,4.49,0,0,1-1.72,1.27,5.5,5.5,0,0,1-2.1.41,5.65,5.65,0,0,1-2.13-.41,4.58,4.58,0,0,1-1.75-1.27,6.47,6.47,0,0,1-1.19-2.25,11,11,0,0,1-.44-3.32,11.15,11.15,0,0,1,.44-3.33,6.66,6.66,0,0,1,1.19-2.25,4.58,4.58,0,0,1,1.75-1.27A5.64,5.64,0,0,1,113.46,185.46Zm0,2.59a2.46,2.46,0,0,0-1,.23,2.28,2.28,0,0,0-.87.78,4.43,4.43,0,0,0-.6,1.43,9.89,9.89,0,0,0-.22,2.22,9.73,9.73,0,0,0,.22,2.21,4.4,4.4,0,0,0,.6,1.44,2.17,2.17,0,0,0,.87.77,2.32,2.32,0,0,0,1,.24,2.2,2.2,0,0,0,1.85-1,4.63,4.63,0,0,0,.58-1.44,9.79,9.79,0,0,0,.21-2.21,9.35,9.35,0,0,0-.21-2.13,5,5,0,0,0-.58-1.45,2.44,2.44,0,0,0-.85-.82A2.1,2.1,0,0,0,113.46,188.05Z" transform="translate(-9.7 -185.46)"/><path class="cls-2" d="M123.86,196.55l-1.4,6h-2.2l.67-6Z" transform="translate(-9.7 -185.46)"/><path class="cls-2" d="M130.34,185.46a6.7,6.7,0,0,1,2,.29,4.76,4.76,0,0,1,1.57.81,3.77,3.77,0,0,1,1,1.27,3.7,3.7,0,0,1,.36,1.65,3.27,3.27,0,0,1-.55,1.92,3.79,3.79,0,0,1-1.54,1.26,4.12,4.12,0,0,1,1.76,1.25,3.08,3.08,0,0,1,.64,2,3.58,3.58,0,0,1-.43,1.8A4,4,0,0,1,134,199a5.2,5.2,0,0,1-1.65.76,7.69,7.69,0,0,1-4.75-.28,5.24,5.24,0,0,1-2.06-1.5l1.61-1.77a4.22,4.22,0,0,0,1.44,1,4.54,4.54,0,0,0,1.74.35,4.21,4.21,0,0,0,1-.11,2.5,2.5,0,0,0,.78-.34,1.59,1.59,0,0,0,.71-1.37,1.48,1.48,0,0,0-.21-.79,1.92,1.92,0,0,0-.59-.58,3.11,3.11,0,0,0-.87-.35,5.17,5.17,0,0,0-1.07-.11h-1.63v-2.4h1.64a4.21,4.21,0,0,0,1-.11,2.5,2.5,0,0,0,.78-.34,1.55,1.55,0,0,0,.52-.56,1.49,1.49,0,0,0,.19-.77,1.54,1.54,0,0,0-.18-.75,1.61,1.61,0,0,0-.49-.55,2.4,2.4,0,0,0-.74-.34,3.72,3.72,0,0,0-.91-.11,3.78,3.78,0,0,0-.91.11,3.54,3.54,0,0,0-.77.31,3.8,3.8,0,0,0-.65.46,3.6,3.6,0,0,0-.5.54l-1.7-1.71a5.87,5.87,0,0,1,.8-.86,5,5,0,0,1,1-.69,6.13,6.13,0,0,1,1.29-.46A6.74,6.74,0,0,1,130.34,185.46Z" transform="translate(-9.7 -185.46)"/><path class="cls-2" d="M142.8,185.46a5.16,5.16,0,0,1,2.1.43,4.73,4.73,0,0,1,1.72,1.32,6.35,6.35,0,0,1,1.17,2.26,10.73,10.73,0,0,1,.43,3.24,11.06,11.06,0,0,1-.43,3.32,6.13,6.13,0,0,1-1.17,2.25,4.49,4.49,0,0,1-1.72,1.27,5.5,5.5,0,0,1-2.1.41,5.65,5.65,0,0,1-2.13-.41,4.58,4.58,0,0,1-1.75-1.27,6.47,6.47,0,0,1-1.19-2.25,11,11,0,0,1-.44-3.32,11.15,11.15,0,0,1,.44-3.33,6.66,6.66,0,0,1,1.19-2.25,4.58,4.58,0,0,1,1.75-1.27A5.64,5.64,0,0,1,142.8,185.46Zm0,2.59a2.46,2.46,0,0,0-1,.23,2.28,2.28,0,0,0-.87.78,4.43,4.43,0,0,0-.6,1.43,9.89,9.89,0,0,0-.22,2.22,9.73,9.73,0,0,0,.22,2.21,4.4,4.4,0,0,0,.6,1.44,2.17,2.17,0,0,0,.87.77,2.32,2.32,0,0,0,1,.24,2.2,2.2,0,0,0,1.85-1,4.63,4.63,0,0,0,.58-1.44,9.79,9.79,0,0,0,.21-2.21,9.35,9.35,0,0,0-.21-2.13,5,5,0,0,0-.58-1.45,2.44,2.44,0,0,0-.85-.82A2.1,2.1,0,0,0,142.8,188.05Z" transform="translate(-9.7 -185.46)"/><rect class="cls-1" x="229.04" y="121.32" width="36.6" height="84.73"/><path class="cls-2" d="M210.37,585.61a6.34,6.34,0,0,1,2.38.43,5.52,5.52,0,0,1,1.86,1.22,5.41,5.41,0,0,1,1.21,1.84,6.34,6.34,0,0,1,0,4.64,5.51,5.51,0,0,1-1.21,1.84,5.65,5.65,0,0,1-1.86,1.21,6.8,6.8,0,0,1-4.76,0,5.65,5.65,0,0,1-1.86-1.21,5.51,5.51,0,0,1-1.21-1.84,6.47,6.47,0,0,1,0-4.64,5.41,5.41,0,0,1,1.21-1.84A5.52,5.52,0,0,1,208,586,6.34,6.34,0,0,1,210.37,585.61Zm0,2.14A3.67,3.67,0,0,0,209,588a3.38,3.38,0,0,0-1.13.75,3.35,3.35,0,0,0-.74,1.15,4.26,4.26,0,0,0-.26,1.5,4.2,4.2,0,0,0,.26,1.49,3.35,3.35,0,0,0,.74,1.15,3.38,3.38,0,0,0,1.13.75,3.67,3.67,0,0,0,1.42.27,3.72,3.72,0,0,0,1.43-.27,3.34,3.34,0,0,0,1.86-1.9,4.2,4.2,0,0,0,.26-1.49,4.26,4.26,0,0,0-.26-1.5,3.34,3.34,0,0,0-1.86-1.9A3.72,3.72,0,0,0,210.37,587.75Z" transform="translate(-9.7 -185.46)"/><path class="cls-2" d="M222.44,589.06a3.55,3.55,0,0,1,1.49.31,3.64,3.64,0,0,1,1.19.85,4,4,0,0,1,.79,1.3,4.45,4.45,0,0,1,.29,1.62,4.52,4.52,0,0,1-.28,1.62,3.93,3.93,0,0,1-.79,1.29,3.6,3.6,0,0,1-1.19.85,3.56,3.56,0,0,1-1.49.32,2.86,2.86,0,0,1-1.37-.3,2.83,2.83,0,0,1-1-.76V597h-2V585.5h2.08v4.57a3,3,0,0,1,.93-.73A2.91,2.91,0,0,1,222.44,589.06Zm-.38,1.94a1.92,1.92,0,0,0-.81.16,1.81,1.81,0,0,0-.63.45,2,2,0,0,0-.41.68,2.46,2.46,0,0,0,0,1.69,1.93,1.93,0,0,0,.41.68,1.59,1.59,0,0,0,.63.45,1.92,1.92,0,0,0,.81.16,1.87,1.87,0,0,0,.83-.17,2,2,0,0,0,.63-.45,2.18,2.18,0,0,0,.4-.68,2.49,2.49,0,0,0,.14-.83,2.6,2.6,0,0,0-.14-.84,2.3,2.3,0,0,0-.4-.68,2,2,0,0,0-1.46-.62Z" transform="translate(-9.7 -185.46)"/><path class="cls-2" d="M230,597h-2.08V585.5H230Z" transform="translate(-9.7 -185.46)"/><path class="cls-2" d="M233.22,585.38a1.31,1.31,0,0,1,.52.11,1.52,1.52,0,0,1,.43.28,1.6,1.6,0,0,1,.28.43,1.35,1.35,0,0,1,.1.53,1.27,1.27,0,0,1-.1.52,1.45,1.45,0,0,1-.28.43,1.35,1.35,0,0,1-.95.38,1.56,1.56,0,0,1-.53-.1,1.34,1.34,0,0,1-.42-.28,1.35,1.35,0,0,1-.38-.95,1.35,1.35,0,0,1,.1-.53,1.39,1.39,0,0,1,.28-.43,1.34,1.34,0,0,1,.42-.28A1.36,1.36,0,0,1,233.22,585.38ZM234.27,597h-2.08v-7.76h2.08Z" transform="translate(-9.7 -185.46)"/><path class="cls-2" d="M239.55,589.06a3.2,3.2,0,0,1,1.41.28,2.86,2.86,0,0,1,1,.79v-.87H244v7.12a4.6,4.6,0,0,1-.29,1.67,3.57,3.57,0,0,1-.84,1.26,3.81,3.81,0,0,1-1.32.79,5.23,5.23,0,0,1-1.73.27,7.38,7.38,0,0,1-.93-.06,6.52,6.52,0,0,1-.9-.18,6,6,0,0,1-.84-.29,3.86,3.86,0,0,1-.72-.41l.74-1.7a5.48,5.48,0,0,0,1.22.59,4.52,4.52,0,0,0,1.34.2,2.82,2.82,0,0,0,.89-.13,2.08,2.08,0,0,0,.7-.39,1.89,1.89,0,0,0,.45-.65,2.21,2.21,0,0,0,.17-.89v-.54a2.88,2.88,0,0,1-1,.77,3.18,3.18,0,0,1-1.4.28,3.49,3.49,0,0,1-2.49-1.09,3.74,3.74,0,0,1-.78-1.24,4.7,4.7,0,0,1,0-3.25,3.89,3.89,0,0,1,.78-1.25,3.62,3.62,0,0,1,1.14-.8A3.3,3.3,0,0,1,239.55,589.06Zm.53,1.92a1.92,1.92,0,0,0-.81.16,1.78,1.78,0,0,0-.61.43,1.94,1.94,0,0,0-.39.65,2.33,2.33,0,0,0,0,1.59,1.9,1.9,0,0,0,.39.64,1.8,1.8,0,0,0,.61.44,1.92,1.92,0,0,0,.81.16,1.86,1.86,0,0,0,.79-.16,1.69,1.69,0,0,0,.62-.43,2,2,0,0,0,.4-.64,2.56,2.56,0,0,0,0-1.61,2,2,0,0,0-.4-.65,2,2,0,0,0-.62-.43A2,2,0,0,0,240.08,591Z" transform="translate(-9.7 -185.46)"/><path class="cls-2" d="M247.32,594.11a1.31,1.31,0,0,1,.59.13,1.51,1.51,0,0,1,.49.33,1.49,1.49,0,0,1,.34.49,1.54,1.54,0,0,1,0,1.19,1.43,1.43,0,0,1-.34.5,1.39,1.39,0,0,1-.49.34,1.45,1.45,0,0,1-.59.13,1.54,1.54,0,0,1-.6-.13,1.49,1.49,0,0,1-.49-.34,1.58,1.58,0,0,1-.34-.5,1.43,1.43,0,0,1,0-1.19,1.66,1.66,0,0,1,.34-.49,1.63,1.63,0,0,1,.49-.33A1.38,1.38,0,0,1,247.32,594.11Z" transform="translate(-9.7 -185.46)"/><path class="cls-2" d="M262.22,597h-2v-.86a2.92,2.92,0,0,1-2.32,1.06,3.68,3.68,0,0,1-2.68-1.17,3.93,3.93,0,0,1-.79-1.29,4.52,4.52,0,0,1-.29-1.62,4.45,4.45,0,0,1,.29-1.62,4,4,0,0,1,.79-1.3,3.64,3.64,0,0,1,1.19-.85,3.52,3.52,0,0,1,1.49-.31,2.85,2.85,0,0,1,1.36.29,2.89,2.89,0,0,1,1,.77v-.86h2Zm-6.54-11.39h2.5l1.6,2.52h-2Zm2.56,5.37a2.05,2.05,0,0,0-.83.17,1.81,1.81,0,0,0-.63.45,2.11,2.11,0,0,0-.4.68,2.6,2.6,0,0,0-.14.84,2.49,2.49,0,0,0,.14.83,2,2,0,0,0,.4.68,1.81,1.81,0,0,0,.63.45,1.9,1.9,0,0,0,.83.17,2,2,0,0,0,.82-.16,1.74,1.74,0,0,0,.63-.45,2.09,2.09,0,0,0,.41-.68,2.62,2.62,0,0,0,0-1.69,2.2,2.2,0,0,0-.41-.68,1.9,1.9,0,0,0-1.45-.61Z" transform="translate(-9.7 -185.46)"/><path class="cls-2" d="M272.58,589.06a3.7,3.7,0,0,1,.6,0,2.8,2.8,0,0,1,.48.12l-.31,2.08a2.36,2.36,0,0,0-.6-.18,3.09,3.09,0,0,0-.66-.07,2,2,0,0,0-.66.11,1.49,1.49,0,0,0-.52.33,1.45,1.45,0,0,0-.33.54,2.2,2.2,0,0,0-.12.76V597h-2.09v-7.76h2v.85a2.2,2.2,0,0,1,.92-.8A3,3,0,0,1,272.58,589.06Z" transform="translate(-9.7 -185.46)"/><path class="cls-2" d="M278.26,589.06a4.06,4.06,0,0,1,1.54.29,3.55,3.55,0,0,1,1.18.83,4,4,0,0,1,.78,1.29,4.9,4.9,0,0,1,.27,1.66c0,.12,0,.25,0,.37s0,.24,0,.33H276.5a2.09,2.09,0,0,0,.26.73,1.93,1.93,0,0,0,.44.5,1.81,1.81,0,0,0,.59.29,2.63,2.63,0,0,0,.7.09,2.91,2.91,0,0,0,1-.19,3.18,3.18,0,0,0,.94-.55l1.22,1.34a4.14,4.14,0,0,1-1.49.89,5.54,5.54,0,0,1-1.81.29,4.3,4.3,0,0,1-1.63-.3,3.52,3.52,0,0,1-1.27-.82,3.63,3.63,0,0,1-.83-1.28,4.42,4.42,0,0,1-.3-1.66,4.72,4.72,0,0,1,.29-1.67,3.72,3.72,0,0,1,.81-1.29,3.54,3.54,0,0,1,1.23-.84A4.09,4.09,0,0,1,278.26,589.06Zm0,1.8a1.62,1.62,0,0,0-1.18.41,2.06,2.06,0,0,0-.57,1.14h3.44a2,2,0,0,0-.58-1.15A1.56,1.56,0,0,0,278.25,590.86Z" transform="translate(-9.7 -185.46)"/><path class="cls-2" d="M288.05,589.06a3.18,3.18,0,0,1,1.21.22,2.81,2.81,0,0,1,1,.61,3,3,0,0,1,.62,1,3.24,3.24,0,0,1,.22,1.23V597H289v-4.27a1.91,1.91,0,0,0-.4-1.29,1.41,1.41,0,0,0-1.12-.44,1.89,1.89,0,0,0-.63.1,1.65,1.65,0,0,0-.52.33,1.48,1.48,0,0,0-.35.55,2,2,0,0,0-.14.77V597h-2.08v-7.76h2v.92a2.32,2.32,0,0,1,1-.87A3.23,3.23,0,0,1,288.05,589.06Z" transform="translate(-9.7 -185.46)"/><path class="cls-2" d="M296.46,589.06a2.89,2.89,0,0,1,1.34.28,2.84,2.84,0,0,1,.94.73V585.5h2.08V597h-2v-.86a2.73,2.73,0,0,1-.95.76,2.89,2.89,0,0,1-1.37.3,3.51,3.51,0,0,1-1.48-.32,3.64,3.64,0,0,1-1.2-.85,4.08,4.08,0,0,1-.78-1.29,4.52,4.52,0,0,1-.29-1.62,4.45,4.45,0,0,1,.29-1.62,4.13,4.13,0,0,1,.78-1.3,3.79,3.79,0,0,1,1.2-.85A3.51,3.51,0,0,1,296.46,589.06Zm.39,1.94a2,2,0,0,0-.83.17,1.81,1.81,0,0,0-.63.45,1.94,1.94,0,0,0-.4.68,2.6,2.6,0,0,0-.14.84,2.49,2.49,0,0,0,.14.83,1.86,1.86,0,0,0,.4.68,1.81,1.81,0,0,0,.63.45,1.87,1.87,0,0,0,.83.17,1.92,1.92,0,0,0,.81-.16,1.69,1.69,0,0,0,.64-.45,1.91,1.91,0,0,0,.4-.68,2.46,2.46,0,0,0,0-1.69,2,2,0,0,0-.4-.68,2,2,0,0,0-.64-.45A1.92,1.92,0,0,0,296.85,591Z" transform="translate(-9.7 -185.46)"/><path class="cls-2" d="M304.14,594.11a1.38,1.38,0,0,1,.6.13,1.54,1.54,0,0,1,.82.82,1.43,1.43,0,0,1,0,1.19,1.56,1.56,0,0,1-.33.5,1.49,1.49,0,0,1-.49.34,1.43,1.43,0,0,1-1.19,0,1.43,1.43,0,0,1-.5-.34,1.77,1.77,0,0,1-.34-.5,1.43,1.43,0,0,1,0-1.19,1.87,1.87,0,0,1,.34-.49,1.56,1.56,0,0,1,.5-.33A1.37,1.37,0,0,1,304.14,594.11Z" transform="translate(-9.7 -185.46)"/><path class="cls-2" d="M241.89,608.26a4,4,0,0,1,1.53.29,3.59,3.59,0,0,1,1.19.83,3.79,3.79,0,0,1,.77,1.29,4.9,4.9,0,0,1,.28,1.66c0,.12,0,.25,0,.37s0,.24,0,.33h-5.5a2,2,0,0,0,.71,1.23,1.71,1.71,0,0,0,.59.29,2.61,2.61,0,0,0,.69.09,2.83,2.83,0,0,0,1-.19,3.06,3.06,0,0,0,.94-.55l1.23,1.34a4.23,4.23,0,0,1-1.49.89,5.6,5.6,0,0,1-1.82.29,4.25,4.25,0,0,1-1.62-.3,3.56,3.56,0,0,1-1.28-.82,3.61,3.61,0,0,1-.82-1.28,4.42,4.42,0,0,1-.3-1.66,4.51,4.51,0,0,1,.29-1.67,3.85,3.85,0,0,1,.8-1.29,3.58,3.58,0,0,1,1.24-.84A4.09,4.09,0,0,1,241.89,608.26Zm0,1.8a1.59,1.59,0,0,0-1.17.41,2,2,0,0,0-.57,1.14h3.43a2,2,0,0,0-.58-1.15A1.53,1.53,0,0,0,241.87,610.06Zm-1.4-2.71,1.61-2.52h2.5l-2.12,2.52Z" transform="translate(-9.7 -185.46)"/><path class="cls-2" d="M249.45,616.22h-2.09V604.7h2.09Z" transform="translate(-9.7 -185.46)"/><path class="cls-2" d="M255.08,608.26a4,4,0,0,1,1.53.29,3.59,3.59,0,0,1,1.19.83,3.79,3.79,0,0,1,.77,1.29,4.67,4.67,0,0,1,.28,1.66c0,.12,0,.25,0,.37s0,.24,0,.33h-5.5a2.1,2.1,0,0,0,.27.73,1.93,1.93,0,0,0,.44.5,1.71,1.71,0,0,0,.59.29,2.61,2.61,0,0,0,.69.09,2.83,2.83,0,0,0,1-.19,3.23,3.23,0,0,0,.95-.55l1.22,1.34a4.14,4.14,0,0,1-1.49.89,5.58,5.58,0,0,1-1.81.29,4.26,4.26,0,0,1-1.63-.3,3.44,3.44,0,0,1-1.27-.82,3.5,3.5,0,0,1-.83-1.28,4.42,4.42,0,0,1-.3-1.66,4.72,4.72,0,0,1,.29-1.67,3.85,3.85,0,0,1,.8-1.29,3.68,3.68,0,0,1,1.24-.84A4.09,4.09,0,0,1,255.08,608.26Zm0,1.8a1.61,1.61,0,0,0-1.17.41,2,2,0,0,0-.57,1.14h3.43a2,2,0,0,0-.57-1.15A1.57,1.57,0,0,0,255.06,610.06Z" transform="translate(-9.7 -185.46)"/><path class="cls-2" d="M264.85,616.22h-2.41l-3.06-7.76h2.27l2,5.56,2-5.56h2.2Z" transform="translate(-9.7 -185.46)"/><path class="cls-2" d="M272.34,608.26a4,4,0,0,1,1.53.29,3.59,3.59,0,0,1,1.19.83,3.79,3.79,0,0,1,.77,1.29,4.9,4.9,0,0,1,.27,1.66c0,.12,0,.25,0,.37a2.68,2.68,0,0,1,0,.33h-5.49a2.09,2.09,0,0,0,.26.73,2,2,0,0,0,.45.5,1.76,1.76,0,0,0,.58.29,2.69,2.69,0,0,0,.7.09,2.83,2.83,0,0,0,1-.19,3.18,3.18,0,0,0,.94-.55l1.22,1.34a4.14,4.14,0,0,1-1.49.89,5.5,5.5,0,0,1-1.81.29,4.34,4.34,0,0,1-1.63-.3,3.61,3.61,0,0,1-1.27-.82,3.78,3.78,0,0,1-.83-1.28,4.63,4.63,0,0,1-.29-1.66,4.72,4.72,0,0,1,.28-1.67,3.87,3.87,0,0,1,.81-1.29,3.54,3.54,0,0,1,1.23-.84A4.15,4.15,0,0,1,272.34,608.26Zm0,1.8a1.58,1.58,0,0,0-1.17.41,2,2,0,0,0-.57,1.14H274a2,2,0,0,0-.58-1.15A1.54,1.54,0,0,0,272.32,610.06Zm-1.4-2.71,1.61-2.52H275l-2.11,2.52Z" transform="translate(-9.7 -185.46)"/><path class="cls-2" d="M242.4,282.46a5.16,5.16,0,0,1,2.1.43,4.73,4.73,0,0,1,1.72,1.32,6.35,6.35,0,0,1,1.17,2.26,10.73,10.73,0,0,1,.43,3.24,11.17,11.17,0,0,1-.43,3.33,6.17,6.17,0,0,1-1.17,2.24,4.51,4.51,0,0,1-1.72,1.28,5.49,5.49,0,0,1-2.1.4,5.64,5.64,0,0,1-2.13-.4,4.61,4.61,0,0,1-1.75-1.28,6.51,6.51,0,0,1-1.19-2.24,11.15,11.15,0,0,1-.44-3.33,11,11,0,0,1,.44-3.32,6.47,6.47,0,0,1,1.19-2.25,4.51,4.51,0,0,1,1.75-1.28A5.64,5.64,0,0,1,242.4,282.46Zm0,2.59a2.32,2.32,0,0,0-1,.24,2.17,2.17,0,0,0-.87.77,4.4,4.4,0,0,0-.6,1.44,9.73,9.73,0,0,0-.22,2.21,9.89,9.89,0,0,0,.22,2.22,4.43,4.43,0,0,0,.6,1.43,2.28,2.28,0,0,0,.87.78,2.46,2.46,0,0,0,1,.23,2.13,2.13,0,0,0,1.85-1,4.67,4.67,0,0,0,.58-1.43,10,10,0,0,0,.21-2.22,9.26,9.26,0,0,0-.21-2.12,4.92,4.92,0,0,0-.58-1.45,2.39,2.39,0,0,0-.85-.83A2.1,2.1,0,0,0,242.4,285.05Z" transform="translate(-9.7 -185.46)"/><path class="cls-2" d="M252.8,293.55l-1.4,6h-2.2l.67-6Z" transform="translate(-9.7 -185.46)"/><path class="cls-2" d="M259,294.15v-8l-3.48,1.24v-2.69l6.17-2.18v11.66h3.17v2.56h-9.18v-2.56Z" transform="translate(-9.7 -185.46)"/><path class="cls-2" d="M275.18,291.63h1.95v2.52h-1.95v2.56h-2.7v-2.56h-6.21v-2l4.91-9.47h3l-4.68,8.91h3V287.9h2.7Z" transform="translate(-9.7 -185.46)"/><rect class="cls-1" x="357.98" y="151.58" width="36.6" height="54.47"/><path class="cls-2" d="M367.72,585.61a6.3,6.3,0,0,1,2.38.43,5.52,5.52,0,0,1,1.86,1.22,5.41,5.41,0,0,1,1.21,1.84,6.34,6.34,0,0,1,0,4.64,5.51,5.51,0,0,1-1.21,1.84,5.65,5.65,0,0,1-1.86,1.21,6.77,6.77,0,0,1-4.75,0,5.65,5.65,0,0,1-1.86-1.21,5.53,5.53,0,0,1-1.22-1.84,6.47,6.47,0,0,1,0-4.64,5.43,5.43,0,0,1,1.22-1.84,5.52,5.52,0,0,1,1.86-1.22A6.29,6.29,0,0,1,367.72,585.61Zm0,2.14a3.7,3.7,0,0,0-1.42.27,3.32,3.32,0,0,0-1.87,1.9,4.26,4.26,0,0,0-.26,1.5,4.2,4.2,0,0,0,.26,1.49,3.32,3.32,0,0,0,1.87,1.9,3.9,3.9,0,0,0,2.85,0,3.34,3.34,0,0,0,1.86-1.9,4,4,0,0,0,.26-1.49,4,4,0,0,0-.26-1.5,3.34,3.34,0,0,0-1.86-1.9A3.68,3.68,0,0,0,367.72,587.75Z" transform="translate(-9.7 -185.46)"/><path class="cls-2" d="M379.79,589.06a3.52,3.52,0,0,1,1.49.31,3.64,3.64,0,0,1,1.19.85,4.18,4.18,0,0,1,.8,1.3,4.45,4.45,0,0,1,.28,1.62,4.52,4.52,0,0,1-.28,1.62,3.93,3.93,0,0,1-.79,1.29,3.68,3.68,0,0,1-2.68,1.17,2.89,2.89,0,0,1-1.37-.3,2.83,2.83,0,0,1-.95-.76V597h-2V585.5h2.08v4.57a2.94,2.94,0,0,1,.94-.73A2.87,2.87,0,0,1,379.79,589.06Zm-.38,1.94a1.92,1.92,0,0,0-.81.16,1.94,1.94,0,0,0-1,1.13,2.62,2.62,0,0,0,0,1.69,1.93,1.93,0,0,0,.41.68,1.74,1.74,0,0,0,.63.45,1.92,1.92,0,0,0,.81.16,1.84,1.84,0,0,0,.83-.17,1.81,1.81,0,0,0,.63-.45,2,2,0,0,0,.4-.68,2.49,2.49,0,0,0,.14-.83,2.6,2.6,0,0,0-.14-.84,2.11,2.11,0,0,0-.4-.68,1.81,1.81,0,0,0-.63-.45A2,2,0,0,0,379.41,591Z" transform="translate(-9.7 -185.46)"/><path class="cls-2" d="M387.35,597h-2.09V585.5h2.09Z" transform="translate(-9.7 -185.46)"/><path class="cls-2" d="M390.57,585.38a1.42,1.42,0,0,1,.95.39,1.39,1.39,0,0,1,.28.43,1.36,1.36,0,0,1,.11.53,1.3,1.3,0,0,1-.82,1.23,1.4,1.4,0,0,1-1,0,1.31,1.31,0,0,1-.81-1.23,1.35,1.35,0,0,1,.1-.53,1.39,1.39,0,0,1,.28-.43,1.42,1.42,0,0,1,.95-.39ZM391.63,597h-2.09v-7.76h2.09Z" transform="translate(-9.7 -185.46)"/><path class="cls-2" d="M396.91,589.06a3.18,3.18,0,0,1,1.4.28,3,3,0,0,1,1,.79v-.87h2v7.12a4.4,4.4,0,0,1-.29,1.67,3.32,3.32,0,0,1-.84,1.26,3.63,3.63,0,0,1-1.32.79,5.19,5.19,0,0,1-1.73.27,7.22,7.22,0,0,1-.92-.06,6.37,6.37,0,0,1-.91-.18,5.41,5.41,0,0,1-.83-.29,4,4,0,0,1-.73-.41l.74-1.7a5.48,5.48,0,0,0,1.22.59,4.57,4.57,0,0,0,1.34.2,2.77,2.77,0,0,0,.89-.13,2.08,2.08,0,0,0,.7-.39,1.76,1.76,0,0,0,.45-.65,2.21,2.21,0,0,0,.17-.89v-.54a2.88,2.88,0,0,1-1,.77,3.16,3.16,0,0,1-1.39.28,3.49,3.49,0,0,1-2.5-1.09,3.74,3.74,0,0,1-.78-1.24,4.7,4.7,0,0,1,0-3.25,3.89,3.89,0,0,1,.78-1.25,3.62,3.62,0,0,1,1.14-.8A3.31,3.31,0,0,1,396.91,589.06Zm.52,1.92a2,2,0,0,0-.81.16,1.88,1.88,0,0,0-.61.43,1.94,1.94,0,0,0-.39.65,2.33,2.33,0,0,0,0,1.59,1.9,1.9,0,0,0,1,1.08,2,2,0,0,0,.81.16,1.91,1.91,0,0,0,.8-.16,1.65,1.65,0,0,0,.61-.43,2,2,0,0,0,.4-.64,2.38,2.38,0,0,0,0-1.61,2,2,0,0,0-.4-.65,1.92,1.92,0,0,0-.61-.43A2.07,2.07,0,0,0,397.43,591Z" transform="translate(-9.7 -185.46)"/><path class="cls-2" d="M404.67,594.11a1.38,1.38,0,0,1,.6.13,1.54,1.54,0,0,1,.82.82,1.43,1.43,0,0,1,0,1.19,1.56,1.56,0,0,1-.33.5,1.49,1.49,0,0,1-.49.34,1.43,1.43,0,0,1-1.19,0,1.43,1.43,0,0,1-.5-.34,1.77,1.77,0,0,1-.34-.5,1.43,1.43,0,0,1,0-1.19,1.87,1.87,0,0,1,.34-.49,1.56,1.56,0,0,1,.5-.33A1.37,1.37,0,0,1,404.67,594.11Z" transform="translate(-9.7 -185.46)"/><path class="cls-2" d="M343.57,608.26a4,4,0,0,1,1.77.38,3.57,3.57,0,0,1,1.33,1.08l-1.5,1.26a2.52,2.52,0,0,0-.76-.58,2,2,0,0,0-.9-.2,1.91,1.91,0,0,0-.76.15,2,2,0,0,0-.62.43,2.2,2.2,0,0,0-.41.68,2.66,2.66,0,0,0,0,1.76,2.15,2.15,0,0,0,.41.67,1.74,1.74,0,0,0,.61.43,1.94,1.94,0,0,0,.76.15,2.05,2.05,0,0,0,.93-.21,2.61,2.61,0,0,0,.76-.57l1.49,1.27a3.72,3.72,0,0,1-1.35,1.08,4,4,0,0,1-1.76.38,4.54,4.54,0,0,1-1.69-.31,4.06,4.06,0,0,1-1.31-.85,3.93,3.93,0,0,1-.84-1.3,4.49,4.49,0,0,1-.29-1.62,4.54,4.54,0,0,1,.29-1.63,3.79,3.79,0,0,1,.84-1.29,3.93,3.93,0,0,1,1.31-.86A4.54,4.54,0,0,1,343.57,608.26Z" transform="translate(-9.7 -185.46)"/><path class="cls-2" d="M351.73,608.26a4.55,4.55,0,0,1,1.67.3,4.07,4.07,0,0,1,1.33.86,3.88,3.88,0,0,1,.88,1.3,4.07,4.07,0,0,1,.32,1.62,4.14,4.14,0,0,1-.32,1.62,3.75,3.75,0,0,1-.88,1.29,3.91,3.91,0,0,1-1.33.86,4.55,4.55,0,0,1-1.67.31,4.6,4.6,0,0,1-1.68-.31,4,4,0,0,1-1.32-.86,3.86,3.86,0,0,1-.87-1.29,4.14,4.14,0,0,1-.32-1.62,4.07,4.07,0,0,1,.32-1.62,4,4,0,0,1,.87-1.3,4.13,4.13,0,0,1,1.32-.86A4.6,4.6,0,0,1,351.73,608.26Zm0,1.94a2,2,0,0,0-.82.16,1.83,1.83,0,0,0-.65.44,1.88,1.88,0,0,0-.43.67,2.42,2.42,0,0,0,0,1.73,1.92,1.92,0,0,0,.43.68,2,2,0,0,0,.65.44,2.18,2.18,0,0,0,.82.15,2.25,2.25,0,0,0,.82-.15,2,2,0,0,0,.65-.44,1.92,1.92,0,0,0,.43-.68,2.42,2.42,0,0,0,0-1.73,1.88,1.88,0,0,0-.43-.67,1.83,1.83,0,0,0-.65-.44A2.07,2.07,0,0,0,351.73,610.2Z" transform="translate(-9.7 -185.46)"/><path class="cls-2" d="M361.94,608.26a3.18,3.18,0,0,1,1.21.22,2.66,2.66,0,0,1,1.58,1.57,3.25,3.25,0,0,1,.23,1.23v4.94h-2.09V612a1.86,1.86,0,0,0-.4-1.29,1.38,1.38,0,0,0-1.11-.44,1.91,1.91,0,0,0-.64.1,1.65,1.65,0,0,0-.52.33,1.79,1.79,0,0,0-.35.55,2,2,0,0,0-.13.77v4.25h-2.09v-7.76h2v.92a2.35,2.35,0,0,1,1-.87A3.18,3.18,0,0,1,361.94,608.26Z" transform="translate(-9.7 -185.46)"/><path class="cls-2" d="M371.41,616.22H369l-3.07-7.76h2.28l2,5.56,2-5.56h2.2Z" transform="translate(-9.7 -185.46)"/><path class="cls-2" d="M378.89,608.26a4.06,4.06,0,0,1,1.54.29,3.55,3.55,0,0,1,1.18.83,4,4,0,0,1,.78,1.29,4.9,4.9,0,0,1,.27,1.66c0,.12,0,.25,0,.37s0,.24,0,.33h-5.49a2.09,2.09,0,0,0,.26.73,1.93,1.93,0,0,0,.44.5,1.81,1.81,0,0,0,.59.29,2.63,2.63,0,0,0,.7.09,2.91,2.91,0,0,0,1-.19,3.31,3.31,0,0,0,.94-.55l1.22,1.34a4.14,4.14,0,0,1-1.49.89,5.54,5.54,0,0,1-1.81.29,4.3,4.3,0,0,1-1.63-.3,3.52,3.52,0,0,1-1.27-.82,3.63,3.63,0,0,1-.83-1.28,4.42,4.42,0,0,1-.3-1.66,4.72,4.72,0,0,1,.29-1.67,3.72,3.72,0,0,1,.81-1.29,3.54,3.54,0,0,1,1.23-.84A4.09,4.09,0,0,1,378.89,608.26Zm0,1.8a1.62,1.62,0,0,0-1.18.41,2,2,0,0,0-.57,1.14h3.44a2,2,0,0,0-.58-1.15A1.56,1.56,0,0,0,378.88,610.06Z" transform="translate(-9.7 -185.46)"/><path class="cls-2" d="M388.57,608.26a3.74,3.74,0,0,1,.61,0,2.8,2.8,0,0,1,.48.12l-.31,2.08a2.36,2.36,0,0,0-.6-.18,3.09,3.09,0,0,0-.66-.07,2,2,0,0,0-.66.11,1.4,1.4,0,0,0-.52.33,1.47,1.47,0,0,0-.34.54,2.2,2.2,0,0,0-.12.76v4.23h-2.08v-7.76h2v.85a2.2,2.2,0,0,1,.92-.8A2.92,2.92,0,0,1,388.57,608.26Z" transform="translate(-9.7 -185.46)"/><path class="cls-2" d="M396.87,610.32h-2.81v2.83a1.78,1.78,0,0,0,.09.61,1.24,1.24,0,0,0,.25.41,1,1,0,0,0,.37.23,1.33,1.33,0,0,0,.45.07,2.1,2.1,0,0,0,.76-.15,6.53,6.53,0,0,0,.7-.35l.77,1.63a5.47,5.47,0,0,1-1.13.58,4,4,0,0,1-1.44.24,2.82,2.82,0,0,1-2.18-.8,3.29,3.29,0,0,1-.73-2.3v-3h-1.49v-1.86H392v-2.3h2.09v2.3h2.81Z" transform="translate(-9.7 -185.46)"/><path class="cls-2" d="M399.74,604.58a1.36,1.36,0,0,1,.53.11,1.34,1.34,0,0,1,.42.28,1.39,1.39,0,0,1,.28.43,1.36,1.36,0,0,1,.11.53,1.42,1.42,0,0,1-.39,1,1.34,1.34,0,0,1-.42.28,1.56,1.56,0,0,1-.53.1,1.5,1.5,0,0,1-.52-.1,1.39,1.39,0,0,1-.43-.28,1.28,1.28,0,0,1-.28-.43,1.46,1.46,0,0,1-.1-.52,1.56,1.56,0,0,1,.1-.53,1.24,1.24,0,0,1,.71-.71A1.31,1.31,0,0,1,399.74,604.58Zm1.06,11.64h-2.09v-7.76h2.09Z" transform="translate(-9.7 -185.46)"/><path class="cls-2" d="M407.51,608.26a3.55,3.55,0,0,1,1.49.31,3.75,3.75,0,0,1,1.19.85,4,4,0,0,1,.79,1.3,4.45,4.45,0,0,1,.29,1.62A4.75,4.75,0,0,1,411,614a4,4,0,0,1-.79,1.29,3.71,3.71,0,0,1-1.19.85,3.56,3.56,0,0,1-1.49.32,2.86,2.86,0,0,1-1.37-.3,2.73,2.73,0,0,1-.95-.76v.86h-2V604.7h2.08v4.57a2.8,2.8,0,0,1,2.27-1Zm-.38,1.94a2,2,0,0,0-.82.16,2,2,0,0,0-1,1.13,2.46,2.46,0,0,0,0,1.69,1.8,1.8,0,0,0,.41.68,1.63,1.63,0,0,0,.62.45,2,2,0,0,0,.82.16,1.9,1.9,0,0,0,.83-.17,2,2,0,0,0,.63-.45,2.18,2.18,0,0,0,.4-.68,2.49,2.49,0,0,0,.14-.83,2.6,2.6,0,0,0-.14-.84,2.3,2.3,0,0,0-.4-.68,2,2,0,0,0-.63-.45A2.05,2.05,0,0,0,407.13,610.2Z" transform="translate(-9.7 -185.46)"/><path class="cls-2" d="M415.06,616.22H413V604.7h2.09Z" transform="translate(-9.7 -185.46)"/><path class="cls-2" d="M420.69,608.26a4.06,4.06,0,0,1,1.54.29,3.55,3.55,0,0,1,1.18.83,4,4,0,0,1,.78,1.29,4.9,4.9,0,0,1,.27,1.66c0,.12,0,.25,0,.37s0,.24,0,.33h-5.49a2.09,2.09,0,0,0,.26.73,1.93,1.93,0,0,0,.44.5,1.81,1.81,0,0,0,.59.29,2.63,2.63,0,0,0,.7.09,2.91,2.91,0,0,0,1-.19,3.31,3.31,0,0,0,.94-.55l1.22,1.34a4.14,4.14,0,0,1-1.49.89,5.54,5.54,0,0,1-1.81.29,4.3,4.3,0,0,1-1.63-.3,3.52,3.52,0,0,1-1.27-.82,3.63,3.63,0,0,1-.83-1.28,4.42,4.42,0,0,1-.3-1.66,4.72,4.72,0,0,1,.29-1.67,3.72,3.72,0,0,1,.81-1.29,3.54,3.54,0,0,1,1.23-.84A4.09,4.09,0,0,1,420.69,608.26Zm0,1.8a1.62,1.62,0,0,0-1.18.41,2,2,0,0,0-.57,1.14h3.44a2,2,0,0,0-.58-1.15A1.56,1.56,0,0,0,420.68,610.06Z" transform="translate(-9.7 -185.46)"/><path class="cls-2" d="M431.67,610.62l-.52-.22c-.2-.07-.4-.14-.62-.2l-.66-.15a3.88,3.88,0,0,0-.67-.06,1.77,1.77,0,0,0-.9.19.58.58,0,0,0-.29.52.45.45,0,0,0,.09.28.91.91,0,0,0,.27.18,2.09,2.09,0,0,0,.4.12l.5.08.69.1a4,4,0,0,1,1.94.76,1.93,1.93,0,0,1,.67,1.56,2.42,2.42,0,0,1-.24,1.09,2.3,2.3,0,0,1-.69.83,3.53,3.53,0,0,1-1.12.53,5.83,5.83,0,0,1-1.51.19c-.26,0-.54,0-.84,0a7,7,0,0,1-.9-.15,4.83,4.83,0,0,1-.89-.28,3.82,3.82,0,0,1-.82-.44l.83-1.58a3.85,3.85,0,0,0,.53.3,2.89,2.89,0,0,0,.6.24,3.77,3.77,0,0,0,.7.16,5.13,5.13,0,0,0,.81.06,2.35,2.35,0,0,0,1.08-.19.6.6,0,0,0,.35-.54.52.52,0,0,0-.3-.45,3.06,3.06,0,0,0-1-.26l-.63-.09c-1.79-.24-2.68-1-2.68-2.35a2.59,2.59,0,0,1,.22-1.07,2.24,2.24,0,0,1,.65-.79,3,3,0,0,1,1-.5,4.79,4.79,0,0,1,1.37-.18,8.37,8.37,0,0,1,.89,0,6.85,6.85,0,0,1,.81.13c.27.07.53.14.78.23a6.24,6.24,0,0,1,.76.33Z" transform="translate(-9.7 -185.46)"/><path class="cls-2" d="M371.34,312.83a5.33,5.33,0,0,1,2.1.43,4.65,4.65,0,0,1,1.72,1.32,6.44,6.44,0,0,1,1.17,2.26,10.82,10.82,0,0,1,.43,3.24,11.17,11.17,0,0,1-.43,3.33,6.17,6.17,0,0,1-1.17,2.24,4.44,4.44,0,0,1-1.72,1.28,5.49,5.49,0,0,1-2.1.4,5.64,5.64,0,0,1-2.13-.4,4.61,4.61,0,0,1-1.75-1.28,6.51,6.51,0,0,1-1.19-2.24,11.15,11.15,0,0,1-.44-3.33,11,11,0,0,1,.44-3.32,6.47,6.47,0,0,1,1.19-2.25,4.51,4.51,0,0,1,1.75-1.28A5.84,5.84,0,0,1,371.34,312.83Zm0,2.59a2.32,2.32,0,0,0-1,.24,2.17,2.17,0,0,0-.87.77,4.4,4.4,0,0,0-.6,1.44,9.73,9.73,0,0,0-.22,2.21,9.89,9.89,0,0,0,.22,2.22,4.43,4.43,0,0,0,.6,1.43,2.28,2.28,0,0,0,.87.78,2.46,2.46,0,0,0,1,.23,2.32,2.32,0,0,0,1-.23,2.23,2.23,0,0,0,.85-.78,4.43,4.43,0,0,0,.58-1.43,10,10,0,0,0,.21-2.22,9.32,9.32,0,0,0-.21-2.12,4.66,4.66,0,0,0-.58-1.45,2.4,2.4,0,0,0-.85-.83A2.1,2.1,0,0,0,371.34,315.42Z" transform="translate(-9.7 -185.46)"/><path class="cls-2" d="M381.74,323.92l-1.4,6h-2.2l.67-6Z" transform="translate(-9.7 -185.46)"/><path class="cls-2" d="M388.68,312.83a5.33,5.33,0,0,1,2.1.43,4.65,4.65,0,0,1,1.72,1.32,6.44,6.44,0,0,1,1.17,2.26,10.82,10.82,0,0,1,.43,3.24,11.17,11.17,0,0,1-.43,3.33,6.17,6.17,0,0,1-1.17,2.24,4.44,4.44,0,0,1-1.72,1.28,5.49,5.49,0,0,1-2.1.4,5.64,5.64,0,0,1-2.13-.4,4.61,4.61,0,0,1-1.75-1.28,6.51,6.51,0,0,1-1.19-2.24,11.15,11.15,0,0,1-.44-3.33,11,11,0,0,1,.44-3.32,6.47,6.47,0,0,1,1.19-2.25,4.51,4.51,0,0,1,1.75-1.28A5.84,5.84,0,0,1,388.68,312.83Zm0,2.59a2.32,2.32,0,0,0-1,.24,2.17,2.17,0,0,0-.87.77,4.4,4.4,0,0,0-.6,1.44,9.73,9.73,0,0,0-.22,2.21,9.89,9.89,0,0,0,.22,2.22,4.43,4.43,0,0,0,.6,1.43,2.28,2.28,0,0,0,.87.78,2.46,2.46,0,0,0,1,.23,2.32,2.32,0,0,0,1-.23,2.23,2.23,0,0,0,.85-.78,4.43,4.43,0,0,0,.58-1.43,10,10,0,0,0,.21-2.22,9.32,9.32,0,0,0-.21-2.12,4.66,4.66,0,0,0-.58-1.45,2.4,2.4,0,0,0-.85-.83A2.1,2.1,0,0,0,388.68,315.42Z" transform="translate(-9.7 -185.46)"/><path class="cls-2" d="M400.89,322.21a1.36,1.36,0,0,1-.29,0h-.34a5.22,5.22,0,0,1-2-.36,4.84,4.84,0,0,1-1.53-1,4.71,4.71,0,0,1-1-5.21,4.73,4.73,0,0,1,1.11-1.51,5.22,5.22,0,0,1,1.66-1,6.25,6.25,0,0,1,4.18,0,5,5,0,0,1,1.67,1,4.42,4.42,0,0,1,1.1,1.5,4.34,4.34,0,0,1,.4,1.88,5.16,5.16,0,0,1-.34,1.87,9.61,9.61,0,0,1-1,1.85l-3.88,5.81h-3.26Zm-.22-2.33a2.57,2.57,0,0,0,1-.17,2.32,2.32,0,0,0,1.3-3.06,2.16,2.16,0,0,0-.52-.73,2.54,2.54,0,0,0-.78-.47,2.78,2.78,0,0,0-1-.17,2.84,2.84,0,0,0-1,.17,2.49,2.49,0,0,0-.77.47,2,2,0,0,0-.51.73,2.37,2.37,0,0,0,0,1.86,2.19,2.19,0,0,0,.51.73,2.31,2.31,0,0,0,.77.47A2.62,2.62,0,0,0,400.67,319.88Z" transform="translate(-9.7 -185.46)"/><rect class="cls-1" x="486.34" y="163.68" width="36.6" height="42.37"/><path class="cls-2" d="M505.84,587.9h-3.48V597h-2.23V587.9h-3.47v-2.08h9.18Z" transform="translate(-9.7 -185.46)"/><path class="cls-2" d="M509.6,597h-2.24v-11.2h2.24Z" transform="translate(-9.7 -185.46)"/><path class="cls-2" d="M514.37,592.92V597h-2.23v-11.2h4.57a5.65,5.65,0,0,1,1.77.25,3.67,3.67,0,0,1,1.28.71,3.14,3.14,0,0,1,.78,1.12,3.87,3.87,0,0,1,.26,1.48,3.8,3.8,0,0,1-.26,1.46,3.06,3.06,0,0,1-.78,1.12,3.67,3.67,0,0,1-1.28.71,5.54,5.54,0,0,1-1.76.25Zm0-5v3h2.3a2.16,2.16,0,0,0,1.38-.37,1.59,1.59,0,0,0,0-2.26,2.16,2.16,0,0,0-1.38-.38Z" transform="translate(-9.7 -185.46)"/><path class="cls-2" d="M530.31,588.64a7.25,7.25,0,0,0-1.46-.68,5.3,5.3,0,0,0-1.72-.27,3.85,3.85,0,0,0-.86.09,2.47,2.47,0,0,0-.68.26,1.48,1.48,0,0,0-.44.42,1,1,0,0,0-.16.57.81.81,0,0,0,.17.52,1.36,1.36,0,0,0,.48.35,3.88,3.88,0,0,0,.73.25c.29.06.59.13.93.18l.63.1a8.55,8.55,0,0,1,1.41.35,4.2,4.2,0,0,1,1.13.61,2.73,2.73,0,0,1,.75.91,2.67,2.67,0,0,1,.28,1.27,3.2,3.2,0,0,1-.38,1.61,3.35,3.35,0,0,1-1,1.14,4.55,4.55,0,0,1-1.46.67,6.57,6.57,0,0,1-1.73.23,8,8,0,0,1-1.29-.1,8.82,8.82,0,0,1-1.26-.27,7.49,7.49,0,0,1-1.17-.46,5.9,5.9,0,0,1-1-.64l1.16-1.8a4.6,4.6,0,0,0,.69.46,5.51,5.51,0,0,0,.85.39,6,6,0,0,0,1,.26,5.19,5.19,0,0,0,1,.1,4,4,0,0,0,.87-.09,2.32,2.32,0,0,0,.7-.26,1.5,1.5,0,0,0,.47-.43,1,1,0,0,0,.16-.57.84.84,0,0,0-.15-.5,1.09,1.09,0,0,0-.45-.35,3.52,3.52,0,0,0-.74-.26c-.3-.07-.64-.14-1-.2l-.71-.12a7.42,7.42,0,0,1-1.37-.34,3.55,3.55,0,0,1-1.08-.62,2.51,2.51,0,0,1-.71-.93,3.12,3.12,0,0,1-.26-1.31,3.16,3.16,0,0,1,.36-1.54,3.41,3.41,0,0,1,1-1.12,4.54,4.54,0,0,1,1.42-.67,6.34,6.34,0,0,1,1.7-.23,10.57,10.57,0,0,1,1.14.07,9,9,0,0,1,1.06.21,6.85,6.85,0,0,1,1,.38,9.41,9.41,0,0,1,1,.54Z" transform="translate(-9.7 -185.46)"/><path class="cls-2" d="M500.28,324.88a5.33,5.33,0,0,1,2.1.43,4.65,4.65,0,0,1,1.72,1.32,6.44,6.44,0,0,1,1.17,2.26,10.82,10.82,0,0,1,.43,3.24,11.17,11.17,0,0,1-.43,3.33,6.09,6.09,0,0,1-1.17,2.24,4.44,4.44,0,0,1-1.72,1.28,5.49,5.49,0,0,1-2.1.4,5.64,5.64,0,0,1-2.13-.4,4.61,4.61,0,0,1-1.75-1.28,6.42,6.42,0,0,1-1.19-2.24,12.78,12.78,0,0,1,0-6.65,6.47,6.47,0,0,1,1.19-2.25,4.61,4.61,0,0,1,1.75-1.28A5.84,5.84,0,0,1,500.28,324.88Zm0,2.59a2.32,2.32,0,0,0-1,.24,2.25,2.25,0,0,0-.87.77,4.4,4.4,0,0,0-.6,1.44,11.26,11.26,0,0,0,0,4.43,4.33,4.33,0,0,0,.6,1.43,2.28,2.28,0,0,0,.87.78,2.31,2.31,0,0,0,1,.23,2.19,2.19,0,0,0,1-.23,2.31,2.31,0,0,0,.85-.78,4.34,4.34,0,0,0,.58-1.43,10,10,0,0,0,.21-2.22,9.32,9.32,0,0,0-.21-2.12,4.76,4.76,0,0,0-.58-1.45,2.48,2.48,0,0,0-.85-.83A2.1,2.1,0,0,0,500.28,327.47Z" transform="translate(-9.7 -185.46)"/><path class="cls-2" d="M510.68,336l-1.4,6h-2.2l.67-6Z" transform="translate(-9.7 -185.46)"/><path class="cls-2" d="M517.62,324.88a5.33,5.33,0,0,1,2.1.43,4.65,4.65,0,0,1,1.72,1.32,6.44,6.44,0,0,1,1.17,2.26,10.82,10.82,0,0,1,.43,3.24,11.17,11.17,0,0,1-.43,3.33,6.09,6.09,0,0,1-1.17,2.24,4.44,4.44,0,0,1-1.72,1.28,5.49,5.49,0,0,1-2.1.4,5.64,5.64,0,0,1-2.13-.4,4.61,4.61,0,0,1-1.75-1.28,6.42,6.42,0,0,1-1.19-2.24,12.78,12.78,0,0,1,0-6.65,6.47,6.47,0,0,1,1.19-2.25,4.61,4.61,0,0,1,1.75-1.28A5.84,5.84,0,0,1,517.62,324.88Zm0,2.59a2.32,2.32,0,0,0-1,.24,2.25,2.25,0,0,0-.87.77,4.4,4.4,0,0,0-.6,1.44,11.26,11.26,0,0,0,0,4.43,4.33,4.33,0,0,0,.6,1.43,2.28,2.28,0,0,0,.87.78,2.31,2.31,0,0,0,1,.23,2.19,2.19,0,0,0,1-.23,2.31,2.31,0,0,0,.85-.78,4.34,4.34,0,0,0,.58-1.43,10,10,0,0,0,.21-2.22,9.32,9.32,0,0,0-.21-2.12,4.76,4.76,0,0,0-.58-1.45,2.48,2.48,0,0,0-.85-.83A2.1,2.1,0,0,0,517.62,327.47Z" transform="translate(-9.7 -185.46)"/><path class="cls-2" d="M534.55,327.24l-5.8,11.89h-3.18l5.76-11.48h-6.65v-2.52h9.87Z" transform="translate(-9.7 -185.46)"/><rect class="cls-1" x="615.86" y="206.05" width="36.6" height="78.68"/><path class="cls-2" d="M606.29,588.64a7.51,7.51,0,0,0-1.46-.68,5.39,5.39,0,0,0-1.72-.27,3.79,3.79,0,0,0-.86.09,2.35,2.35,0,0,0-.68.26,1.37,1.37,0,0,0-.44.42,1,1,0,0,0-.16.57.76.76,0,0,0,.17.52,1.2,1.2,0,0,0,.48.35,3.65,3.65,0,0,0,.73.25c.28.06.59.13.93.18l.63.1a8.19,8.19,0,0,1,1.4.35,4.12,4.12,0,0,1,1.14.61,2.73,2.73,0,0,1,.75.91,2.67,2.67,0,0,1,.28,1.27,3.3,3.3,0,0,1-.38,1.61,3.45,3.45,0,0,1-1,1.14,4.55,4.55,0,0,1-1.46.67,6.64,6.64,0,0,1-1.74.23,8,8,0,0,1-1.28-.1,8.27,8.27,0,0,1-1.26-.27,7.49,7.49,0,0,1-1.17-.46,6,6,0,0,1-1-.64l1.16-1.8a5.3,5.3,0,0,0,.7.46,5.51,5.51,0,0,0,.85.39,6,6,0,0,0,1,.26,5.19,5.19,0,0,0,1,.1,4,4,0,0,0,.87-.09,2.32,2.32,0,0,0,.7-.26,1.37,1.37,0,0,0,.46-.43.92.92,0,0,0,.17-.57.84.84,0,0,0-.15-.5,1.09,1.09,0,0,0-.45-.35,3.43,3.43,0,0,0-.75-.26c-.29-.07-.63-.14-1-.2l-.72-.12a7.51,7.51,0,0,1-1.36-.34,3.55,3.55,0,0,1-1.08-.62,2.54,2.54,0,0,1-.72-.93,3.13,3.13,0,0,1-.25-1.31,3.16,3.16,0,0,1,.36-1.54,3.3,3.3,0,0,1,1-1.12,4.54,4.54,0,0,1,1.42-.67,6.29,6.29,0,0,1,1.7-.23,10.23,10.23,0,0,1,1.13.07,8.81,8.81,0,0,1,1.07.21,7.26,7.26,0,0,1,1,.38,9.41,9.41,0,0,1,1,.54Z" transform="translate(-9.7 -185.46)"/><path class="cls-2" d="M613.12,589.06a4.55,4.55,0,0,1,1.67.3,4.22,4.22,0,0,1,1.34.86,4,4,0,0,1,.87,1.3,4.07,4.07,0,0,1,.32,1.62,4.14,4.14,0,0,1-.32,1.62,3.86,3.86,0,0,1-.87,1.29,4.06,4.06,0,0,1-1.34.86,4.65,4.65,0,0,1-3.34,0,3.91,3.91,0,0,1-1.33-.86,3.86,3.86,0,0,1-.87-1.29,4.14,4.14,0,0,1-.32-1.62,4.07,4.07,0,0,1,.32-1.62,4,4,0,0,1,.87-1.3,4.07,4.07,0,0,1,1.33-.86A4.51,4.51,0,0,1,613.12,589.06Zm0,1.94a2,2,0,0,0-.82.16,1.83,1.83,0,0,0-.65.44,2,2,0,0,0-.43.67,2.42,2.42,0,0,0,0,1.73,2.07,2.07,0,0,0,.43.68,2,2,0,0,0,.65.44,2.18,2.18,0,0,0,.82.15,2.25,2.25,0,0,0,.82-.15,2,2,0,0,0,.65-.44A2.1,2.1,0,0,0,615,594a2.57,2.57,0,0,0,0-1.73,2.05,2.05,0,0,0-.44-.67,1.83,1.83,0,0,0-.65-.44A2.07,2.07,0,0,0,613.12,591Z" transform="translate(-9.7 -185.46)"/><path class="cls-2" d="M622.67,589.06a4,4,0,0,1,1.77.38,3.5,3.5,0,0,1,1.33,1.08l-1.5,1.26a2.62,2.62,0,0,0-.75-.58,2,2,0,0,0-.91-.2,1.94,1.94,0,0,0-.76.15,1.88,1.88,0,0,0-.61.43,2,2,0,0,0-.42.68,2.46,2.46,0,0,0-.15.88,2.5,2.5,0,0,0,.15.88,2.15,2.15,0,0,0,.41.67,1.77,1.77,0,0,0,.62.43,1.87,1.87,0,0,0,.76.15,2,2,0,0,0,.92-.21,2.49,2.49,0,0,0,.76-.57l1.49,1.27a3.68,3.68,0,0,1-1.34,1.08,4.1,4.1,0,0,1-1.77.38,4.58,4.58,0,0,1-1.69-.31,3.91,3.91,0,0,1-1.3-.85,3.78,3.78,0,0,1-.84-1.3,4.28,4.28,0,0,1-.3-1.62,4.34,4.34,0,0,1,.3-1.63,3.65,3.65,0,0,1,.84-1.29,3.79,3.79,0,0,1,1.3-.86A4.58,4.58,0,0,1,622.67,589.06Z" transform="translate(-9.7 -185.46)"/><path class="cls-2" d="M628.32,585.38a1.31,1.31,0,0,1,.52.11,1.24,1.24,0,0,1,.71.71,1.35,1.35,0,0,1,.1.53,1.35,1.35,0,0,1-.38.95,1.39,1.39,0,0,1-.43.28,1.5,1.5,0,0,1-.52.1,1.56,1.56,0,0,1-.53-.1,1.34,1.34,0,0,1-.42-.28,1.35,1.35,0,0,1-.38-.95,1.35,1.35,0,0,1,.1-.53,1.39,1.39,0,0,1,.28-.43,1.34,1.34,0,0,1,.42-.28A1.36,1.36,0,0,1,628.32,585.38Zm1,11.64h-2.08v-7.76h2.08Z" transform="translate(-9.7 -185.46)"/><path class="cls-2" d="M635,589.06a4,4,0,0,1,1.54.29,3.55,3.55,0,0,1,1.18.83,3.81,3.81,0,0,1,.78,1.29,4.9,4.9,0,0,1,.27,1.66c0,.12,0,.25,0,.37s0,.24,0,.33h-5.49a2.09,2.09,0,0,0,.26.73,1.8,1.8,0,0,0,.45.5,1.67,1.67,0,0,0,.58.29,2.63,2.63,0,0,0,.7.09,2.83,2.83,0,0,0,1-.19,3.18,3.18,0,0,0,.94-.55l1.22,1.34a4.14,4.14,0,0,1-1.49.89,5.54,5.54,0,0,1-1.81.29,4.3,4.3,0,0,1-1.63-.3,3.52,3.52,0,0,1-1.27-.82,3.63,3.63,0,0,1-.83-1.28,4.42,4.42,0,0,1-.3-1.66,4.72,4.72,0,0,1,.29-1.67,3.87,3.87,0,0,1,.81-1.29,3.54,3.54,0,0,1,1.23-.84A4.09,4.09,0,0,1,635,589.06Zm0,1.8a1.62,1.62,0,0,0-1.18.41,2.05,2.05,0,0,0-.56,1.14h3.43a2,2,0,0,0-.58-1.15A1.56,1.56,0,0,0,635,590.86Zm-1.4-2.71,1.61-2.52h2.49l-2.11,2.52Z" transform="translate(-9.7 -185.46)"/><path class="cls-2" d="M646,591.12h-2.81V594a1.78,1.78,0,0,0,.09.61,1.24,1.24,0,0,0,.25.41,1,1,0,0,0,.37.23,1.33,1.33,0,0,0,.45.07,2.06,2.06,0,0,0,.76-.15,5.71,5.71,0,0,0,.7-.35l.77,1.63a5.23,5.23,0,0,1-1.13.58,4,4,0,0,1-1.44.24,2.82,2.82,0,0,1-2.18-.8,3.29,3.29,0,0,1-.73-2.3v-3h-1.49v-1.86h1.49V587h2.09v2.3H646Z" transform="translate(-9.7 -185.46)"/><path class="cls-2" d="M651.21,589.06a4,4,0,0,1,1.53.29,3.55,3.55,0,0,1,1.18.83,3.81,3.81,0,0,1,.78,1.29,4.9,4.9,0,0,1,.27,1.66c0,.12,0,.25,0,.37s0,.24,0,.33h-5.49a2.09,2.09,0,0,0,.26.73,1.8,1.8,0,0,0,.45.5,1.67,1.67,0,0,0,.58.29,2.63,2.63,0,0,0,.7.09,2.83,2.83,0,0,0,1-.19,3.18,3.18,0,0,0,.94-.55l1.22,1.34a4.14,4.14,0,0,1-1.49.89,5.54,5.54,0,0,1-1.81.29,4.3,4.3,0,0,1-1.63-.3,3.52,3.52,0,0,1-1.27-.82,3.63,3.63,0,0,1-.83-1.28,4.42,4.42,0,0,1-.29-1.66,4.72,4.72,0,0,1,.28-1.67,3.87,3.87,0,0,1,.81-1.29,3.54,3.54,0,0,1,1.23-.84A4.11,4.11,0,0,1,651.21,589.06Zm0,1.8a1.62,1.62,0,0,0-1.18.41,2.05,2.05,0,0,0-.56,1.14h3.43a2,2,0,0,0-.58-1.15A1.56,1.56,0,0,0,651.19,590.86Zm-1.4-2.71,1.61-2.52h2.49l-2.11,2.52Z" transform="translate(-9.7 -185.46)"/><path class="cls-2" d="M662.18,591.42l-.52-.22c-.2-.07-.4-.14-.62-.2s-.44-.11-.66-.15a3.88,3.88,0,0,0-.67-.06,1.77,1.77,0,0,0-.9.19.6.6,0,0,0-.29.52.4.4,0,0,0,.1.28.75.75,0,0,0,.26.18,2,2,0,0,0,.41.12l.49.08.69.1a4,4,0,0,1,1.94.76,1.93,1.93,0,0,1,.67,1.56,2.42,2.42,0,0,1-.24,1.09,2.2,2.2,0,0,1-.69.83A3.53,3.53,0,0,1,661,597a5.75,5.75,0,0,1-1.5.19c-.27,0-.55,0-.85-.05a6.89,6.89,0,0,1-.89-.15,4.93,4.93,0,0,1-.9-.28,3.53,3.53,0,0,1-.81-.44l.82-1.58a4.54,4.54,0,0,0,.53.3,3.13,3.13,0,0,0,.6.24,3.77,3.77,0,0,0,.7.16,5.13,5.13,0,0,0,.81.06,2.29,2.29,0,0,0,1.08-.19.59.59,0,0,0,.35-.54.52.52,0,0,0-.3-.45,3,3,0,0,0-1-.26l-.64-.09c-1.78-.24-2.68-1-2.68-2.35a2.44,2.44,0,0,1,.23-1.07,2.14,2.14,0,0,1,.65-.79,2.86,2.86,0,0,1,1-.5,4.86,4.86,0,0,1,1.38-.18,8.33,8.33,0,0,1,.88.05,6.85,6.85,0,0,1,.81.13c.27.07.53.14.78.23a6.24,6.24,0,0,1,.76.33Z" transform="translate(-9.7 -185.46)"/><path class="cls-2" d="M672,589.06a2.88,2.88,0,0,1,2.29,1V585.5h2.08V597h-2v-.86a2.92,2.92,0,0,1-2.33,1.06,3.68,3.68,0,0,1-2.67-1.17,3.93,3.93,0,0,1-.79-1.29,4.52,4.52,0,0,1-.29-1.62,4.45,4.45,0,0,1,.29-1.62,4,4,0,0,1,.79-1.3,3.64,3.64,0,0,1,1.19-.85A3.51,3.51,0,0,1,672,589.06Zm.39,1.94a2,2,0,0,0-.83.17,1.81,1.81,0,0,0-.63.45,2.11,2.11,0,0,0-.4.68,2.6,2.6,0,0,0-.14.84,2.49,2.49,0,0,0,.14.83,2,2,0,0,0,.4.68,1.81,1.81,0,0,0,.63.45,1.87,1.87,0,0,0,.83.17,2,2,0,0,0,.82-.16,1.74,1.74,0,0,0,.63-.45,2.09,2.09,0,0,0,.41-.68,2.62,2.62,0,0,0,0-1.69,2.2,2.2,0,0,0-.41-.68,1.9,1.9,0,0,0-1.45-.61Z" transform="translate(-9.7 -185.46)"/><path class="cls-2" d="M682,589.06a4,4,0,0,1,1.53.29,3.59,3.59,0,0,1,1.19.83,3.79,3.79,0,0,1,.77,1.29,4.9,4.9,0,0,1,.28,1.66c0,.12,0,.25,0,.37a2.92,2.92,0,0,1,0,.33h-5.5a2.09,2.09,0,0,0,.26.73,2,2,0,0,0,.45.5,1.71,1.71,0,0,0,.59.29,2.56,2.56,0,0,0,.69.09,2.83,2.83,0,0,0,1-.19,3.18,3.18,0,0,0,.94-.55l1.23,1.34a4.27,4.27,0,0,1-1.5.89,5.5,5.5,0,0,1-1.81.29,4.34,4.34,0,0,1-1.63-.3,3.61,3.61,0,0,1-1.27-.82,3.78,3.78,0,0,1-.83-1.28,4.63,4.63,0,0,1-.29-1.66,4.51,4.51,0,0,1,.29-1.67,3.85,3.85,0,0,1,.8-1.29,3.49,3.49,0,0,1,1.24-.84A4.06,4.06,0,0,1,682,589.06Zm0,1.8a1.59,1.59,0,0,0-1.17.41,2,2,0,0,0-.57,1.14h3.43a2,2,0,0,0-.58-1.15A1.54,1.54,0,0,0,681.94,590.86Z" transform="translate(-9.7 -185.46)"/><path class="cls-2" d="M621.28,608.26a2.92,2.92,0,0,1,1.37.29,3,3,0,0,1,1,.77v-.86h2v11h-2.08v-4a2.94,2.94,0,0,1-.94.73,3,3,0,0,1-1.34.28,3.68,3.68,0,0,1-2.68-1.17,3.83,3.83,0,0,1-.79-1.29,4.52,4.52,0,0,1-.28-1.62,4.45,4.45,0,0,1,.28-1.62,4,4,0,0,1,.79-1.3,3.64,3.64,0,0,1,1.19-.85A3.52,3.52,0,0,1,621.28,608.26Zm.38,1.94a2.05,2.05,0,0,0-.83.17,1.91,1.91,0,0,0-.63.45,2.11,2.11,0,0,0-.4.68,2.6,2.6,0,0,0-.14.84,2.49,2.49,0,0,0,.14.83,2,2,0,0,0,.4.68,2,2,0,0,0,1.46.62,2,2,0,0,0,.82-.16,1.74,1.74,0,0,0,.63-.45,1.93,1.93,0,0,0,.41-.68,2.62,2.62,0,0,0,0-1.69,1.94,1.94,0,0,0-1-1.13A2,2,0,0,0,621.66,610.2Z" transform="translate(-9.7 -185.46)"/><path class="cls-2" d="M635.1,612.91a3.77,3.77,0,0,1-.3,1.58,3,3,0,0,1-2,1.72,4.59,4.59,0,0,1-1.39.21,4.54,4.54,0,0,1-1.39-.21,3.13,3.13,0,0,1-1.18-.63,3.18,3.18,0,0,1-.8-1.09,3.77,3.77,0,0,1-.3-1.58v-4.45h2.08v4.27a2.3,2.3,0,0,0,.12.79,1.22,1.22,0,0,0,.34.54,1.24,1.24,0,0,0,.5.31,1.81,1.81,0,0,0,.63.1,1.79,1.79,0,0,0,.62-.1,1.35,1.35,0,0,0,.51-.31,1.31,1.31,0,0,0,.33-.54,2.3,2.3,0,0,0,.12-.79v-4.27h2.08Z" transform="translate(-9.7 -185.46)"/><path class="cls-2" d="M644.86,616.22h-2v-.86a2.73,2.73,0,0,1-1,.76,2.92,2.92,0,0,1-1.37.3,3.56,3.56,0,0,1-1.49-.32,3.6,3.6,0,0,1-1.19-.85A4,4,0,0,1,637,614a4.52,4.52,0,0,1-.28-1.62,4.45,4.45,0,0,1,.28-1.62,4.16,4.16,0,0,1,.79-1.3,3.75,3.75,0,0,1,1.19-.85,3.55,3.55,0,0,1,1.49-.31,2.92,2.92,0,0,1,1.37.29,2.76,2.76,0,0,1,1,.77v-.86h2Zm-4-6a2,2,0,0,0-.82.17,2,2,0,0,0-.64.45,2.08,2.08,0,0,0-.39.68,2.36,2.36,0,0,0-.15.84,2.27,2.27,0,0,0,.15.83,2,2,0,0,0,.39.68,2,2,0,0,0,.64.45,1.83,1.83,0,0,0,.82.17,2,2,0,0,0,.82-.16,1.59,1.59,0,0,0,.63-.45,1.8,1.8,0,0,0,.41-.68,2.62,2.62,0,0,0,0-1.69,1.88,1.88,0,0,0-.41-.68,1.81,1.81,0,0,0-.63-.45A2,2,0,0,0,640.88,610.2Z" transform="translate(-9.7 -185.46)"/><path class="cls-2" d="M649.14,616.22h-2.09V604.7h2.09Z" transform="translate(-9.7 -185.46)"/><path class="cls-2" d="M652.37,604.58a1.31,1.31,0,0,1,.52.11,1.34,1.34,0,0,1,.42.28,1.42,1.42,0,0,1,.29.43,1.35,1.35,0,0,1,.1.53,1.27,1.27,0,0,1-.1.52,1.3,1.3,0,0,1-.29.43,1.34,1.34,0,0,1-.42.28,1.43,1.43,0,0,1-1,0,1.34,1.34,0,0,1-.42-.28,1.15,1.15,0,0,1-.28-.43,1.27,1.27,0,0,1-.1-.52,1.35,1.35,0,0,1,.1-.53,1.23,1.23,0,0,1,.28-.43,1.34,1.34,0,0,1,.42-.28A1.32,1.32,0,0,1,652.37,604.58Zm1,11.64h-2.09v-7.76h2.09Z" transform="translate(-9.7 -185.46)"/><path class="cls-2" d="M661.24,610.32h-2.81v2.83a1.78,1.78,0,0,0,.09.61,1.1,1.1,0,0,0,.25.41.89.89,0,0,0,.37.23,1.33,1.33,0,0,0,.45.07,2,2,0,0,0,.75-.15,5.07,5.07,0,0,0,.7-.35l.77,1.63a5,5,0,0,1-1.13.58,3.93,3.93,0,0,1-1.43.24,2.8,2.8,0,0,1-2.18-.8,3.24,3.24,0,0,1-.73-2.3v-3h-1.5v-1.86h1.5v-2.3h2.09v2.3h2.81Z" transform="translate(-9.7 -185.46)"/><path class="cls-2" d="M666.42,608.26a4,4,0,0,1,1.53.29,3.59,3.59,0,0,1,1.19.83,3.79,3.79,0,0,1,.77,1.29,4.67,4.67,0,0,1,.28,1.66c0,.12,0,.25,0,.37s0,.24,0,.33h-5.5a2.1,2.1,0,0,0,.27.73,1.93,1.93,0,0,0,.44.5,1.71,1.71,0,0,0,.59.29,2.61,2.61,0,0,0,.69.09,2.92,2.92,0,0,0,1-.19,3.31,3.31,0,0,0,.94-.55l1.22,1.34a4.14,4.14,0,0,1-1.49.89,5.54,5.54,0,0,1-1.81.29,4.26,4.26,0,0,1-1.63-.3,3.56,3.56,0,0,1-1.28-.82,3.61,3.61,0,0,1-.82-1.28,4.42,4.42,0,0,1-.3-1.66,4.72,4.72,0,0,1,.29-1.67,3.85,3.85,0,0,1,.8-1.29,3.68,3.68,0,0,1,1.24-.84A4.09,4.09,0,0,1,666.42,608.26Zm0,1.8a1.62,1.62,0,0,0-1.18.41,2,2,0,0,0-.57,1.14h3.43a2,2,0,0,0-.57-1.15A1.56,1.56,0,0,0,666.41,610.06ZM665,607.35l1.61-2.52h2.5L667,607.35Z" transform="translate(-9.7 -185.46)"/><path class="cls-2" d="M622.05,490.63h-5.91v-2.28h5.91Z" transform="translate(-9.7 -185.46)"/><path class="cls-2" d="M629.2,480.56a5.08,5.08,0,0,1,2.09.43,4.77,4.77,0,0,1,1.73,1.32,6.69,6.69,0,0,1,1.17,2.26,11.06,11.06,0,0,1,.43,3.24,11.51,11.51,0,0,1-.43,3.33,6.49,6.49,0,0,1-1.17,2.24,4.55,4.55,0,0,1-1.73,1.28,5.4,5.4,0,0,1-2.09.4,5.57,5.57,0,0,1-2.13-.4,4.53,4.53,0,0,1-1.75-1.28,6.35,6.35,0,0,1-1.19-2.24,10.84,10.84,0,0,1-.44-3.33,10.72,10.72,0,0,1,.44-3.32,6.31,6.31,0,0,1,1.19-2.25,4.44,4.44,0,0,1,1.75-1.28A5.57,5.57,0,0,1,629.2,480.56Zm0,2.59a2.37,2.37,0,0,0-1,.24,2.17,2.17,0,0,0-.87.77,4.19,4.19,0,0,0-.59,1.44,9.19,9.19,0,0,0-.22,2.21,9.34,9.34,0,0,0,.22,2.22,4.22,4.22,0,0,0,.59,1.43,2.28,2.28,0,0,0,.87.78,2.5,2.5,0,0,0,1,.23,2.36,2.36,0,0,0,1-.23,2.21,2.21,0,0,0,.84-.78,4.22,4.22,0,0,0,.58-1.43,9.34,9.34,0,0,0,.22-2.22,8.68,8.68,0,0,0-.22-2.12,4.43,4.43,0,0,0-.58-1.45,2.29,2.29,0,0,0-.84-.83A2.13,2.13,0,0,0,629.2,483.15Z" transform="translate(-9.7 -185.46)"/><path class="cls-2" d="M639.6,491.65l-1.4,6H636l.67-6Z" transform="translate(-9.7 -185.46)"/><path class="cls-2" d="M645.79,492.25v-8l-3.48,1.24v-2.69l6.17-2.18v11.66h3.17v2.56h-9.18v-2.56Z" transform="translate(-9.7 -185.46)"/><path class="cls-2" d="M658.08,480.56a6.75,6.75,0,0,1,2,.29,4.73,4.73,0,0,1,1.56.82,3.64,3.64,0,0,1,1,1.26,3.7,3.7,0,0,1,.36,1.65,3.27,3.27,0,0,1-.56,1.92,3.83,3.83,0,0,1-1.53,1.26A4,4,0,0,1,662.7,489a3,3,0,0,1,.65,2,3.62,3.62,0,0,1-.44,1.81,3.89,3.89,0,0,1-1.15,1.27,5.2,5.2,0,0,1-1.65.76,7.22,7.22,0,0,1-1.92.25,7.3,7.3,0,0,1-2.84-.53,5.21,5.21,0,0,1-2.05-1.5l1.61-1.77a4,4,0,0,0,1.44,1,4.47,4.47,0,0,0,1.74.35,4.06,4.06,0,0,0,.95-.11,2.3,2.3,0,0,0,.78-.33,1.61,1.61,0,0,0,.53-.57,1.73,1.73,0,0,0,.19-.81,1.4,1.4,0,0,0-.22-.79,1.7,1.7,0,0,0-.59-.57,2.6,2.6,0,0,0-.87-.35,4.47,4.47,0,0,0-1.06-.12h-1.63v-2.4h1.64a4.06,4.06,0,0,0,1-.11,2.3,2.3,0,0,0,.78-.33,1.53,1.53,0,0,0,.72-1.34,1.54,1.54,0,0,0-.18-.75,1.64,1.64,0,0,0-.5-.55,2.12,2.12,0,0,0-.73-.33,3.34,3.34,0,0,0-.91-.12,3.28,3.28,0,0,0-.91.12,3.34,3.34,0,0,0-.78.31,3.67,3.67,0,0,0-.64.45,3.14,3.14,0,0,0-.5.54l-1.7-1.71a5,5,0,0,1,.8-.86,4.48,4.48,0,0,1,1-.69,5.84,5.84,0,0,1,1.28-.45A6.81,6.81,0,0,1,658.08,480.56Z" transform="translate(-9.7 -185.46)"/><rect class="cls-1" x="744.8" y="206.05" width="36.6" height="133.15"/><path class="cls-2" d="M732.42,587.9H729V597h-2.24V587.9h-3.47v-2.08h9.18Z" transform="translate(-9.7 -185.46)"/><path class="cls-2" d="M737.12,589.06a3.82,3.82,0,0,1,.61,0,3.06,3.06,0,0,1,.48.12l-.31,2.08a2.36,2.36,0,0,0-.6-.18,3.11,3.11,0,0,0-.67-.07,2,2,0,0,0-.66.11,1.44,1.44,0,0,0-.85.87,2.2,2.2,0,0,0-.12.76V597h-2.09v-7.76h2v.85a2.17,2.17,0,0,1,.91-.8A3,3,0,0,1,737.12,589.06Z" transform="translate(-9.7 -185.46)"/><path class="cls-2" d="M742.81,589.06a4,4,0,0,1,1.53.29,3.59,3.59,0,0,1,1.19.83,3.79,3.79,0,0,1,.77,1.29,4.67,4.67,0,0,1,.28,1.66c0,.12,0,.25,0,.37s0,.24,0,.33H741a2,2,0,0,0,.71,1.23,1.71,1.71,0,0,0,.59.29,2.61,2.61,0,0,0,.69.09,2.83,2.83,0,0,0,1-.19,3.06,3.06,0,0,0,.94-.55l1.23,1.34a4.23,4.23,0,0,1-1.49.89,5.6,5.6,0,0,1-1.82.29,4.25,4.25,0,0,1-1.62-.3,3.56,3.56,0,0,1-1.28-.82,3.61,3.61,0,0,1-.82-1.28,4.42,4.42,0,0,1-.3-1.66,4.72,4.72,0,0,1,.29-1.67,3.85,3.85,0,0,1,.8-1.29,3.68,3.68,0,0,1,1.24-.84A4.09,4.09,0,0,1,742.81,589.06Zm0,1.8a1.61,1.61,0,0,0-1.17.41,2,2,0,0,0-.57,1.14h3.43a2.09,2.09,0,0,0-.57-1.15A1.57,1.57,0,0,0,742.79,590.86Zm-1.4-2.71,1.61-2.52h2.5l-2.12,2.52Z" transform="translate(-9.7 -185.46)"/><path class="cls-2" d="M753.79,591.42l-.53-.22-.61-.2c-.22-.06-.44-.11-.67-.15a3.88,3.88,0,0,0-.67-.06,1.71,1.71,0,0,0-.89.19.59.59,0,0,0-.3.52.4.4,0,0,0,.1.28.91.91,0,0,0,.27.18,1.73,1.73,0,0,0,.4.12l.49.08.69.1A4,4,0,0,1,754,593a1.94,1.94,0,0,1,.68,1.56,2.42,2.42,0,0,1-.24,1.09,2.23,2.23,0,0,1-.7.83,3.33,3.33,0,0,1-1.12.53,5.69,5.69,0,0,1-1.5.19,8.21,8.21,0,0,1-.84-.05,7,7,0,0,1-.9-.15,4.83,4.83,0,0,1-.89-.28,3.4,3.4,0,0,1-.82-.44l.82-1.58a5.54,5.54,0,0,0,.53.3,3,3,0,0,0,.61.24,3.49,3.49,0,0,0,.69.16,5.17,5.17,0,0,0,.82.06,2.35,2.35,0,0,0,1.08-.19.6.6,0,0,0,.35-.54.52.52,0,0,0-.31-.45,3,3,0,0,0-1-.26l-.63-.09c-1.79-.24-2.68-1-2.68-2.35a2.44,2.44,0,0,1,.22-1.07,2.24,2.24,0,0,1,.65-.79,2.83,2.83,0,0,1,1-.5,4.79,4.79,0,0,1,1.37-.18,8.18,8.18,0,0,1,.88.05,7,7,0,0,1,.82.13c.26.07.52.14.78.23a7,7,0,0,1,.76.33Z" transform="translate(-9.7 -185.46)"/><path class="cls-2" d="M760,589.06a4.55,4.55,0,0,1,1.67.3,4.22,4.22,0,0,1,1.34.86,4,4,0,0,1,.87,1.3,4.07,4.07,0,0,1,.32,1.62,4.14,4.14,0,0,1-.32,1.62,3.86,3.86,0,0,1-.87,1.29,4.06,4.06,0,0,1-1.34.86,4.55,4.55,0,0,1-1.67.31,4.6,4.6,0,0,1-1.68-.31,4,4,0,0,1-1.32-.86,3.86,3.86,0,0,1-.87-1.29,4.14,4.14,0,0,1-.32-1.62,4.07,4.07,0,0,1,.32-1.62,4,4,0,0,1,.87-1.3,4.13,4.13,0,0,1,1.32-.86A4.6,4.6,0,0,1,760,589.06Zm0,1.94a2,2,0,0,0-.82.16,1.83,1.83,0,0,0-.65.44,2,2,0,0,0-.43.67,2.42,2.42,0,0,0,0,1.73,2.07,2.07,0,0,0,.43.68,2,2,0,0,0,.65.44,2.18,2.18,0,0,0,.82.15,2.25,2.25,0,0,0,.82-.15,2,2,0,0,0,.65-.44,1.92,1.92,0,0,0,.43-.68,2.42,2.42,0,0,0,0-1.73,1.88,1.88,0,0,0-.43-.67,1.83,1.83,0,0,0-.65-.44A2.07,2.07,0,0,0,760,591Z" transform="translate(-9.7 -185.46)"/><path class="cls-2" d="M770.13,589.06a3.7,3.7,0,0,1,.6,0,3.19,3.19,0,0,1,.49.12l-.31,2.08a2.57,2.57,0,0,0-.61-.18,3,3,0,0,0-.66-.07,2,2,0,0,0-.66.11,1.49,1.49,0,0,0-.52.33,1.45,1.45,0,0,0-.33.54,2.2,2.2,0,0,0-.12.76V597h-2.09v-7.76h2v.85a2.17,2.17,0,0,1,.91-.8A3,3,0,0,1,770.13,589.06Z" transform="translate(-9.7 -185.46)"/><path class="cls-2" d="M784.13,597h-2v-.86a2.83,2.83,0,0,1-1,.76,2.92,2.92,0,0,1-1.37.3,3.56,3.56,0,0,1-1.49-.32,3.5,3.5,0,0,1-1.19-.85,3.93,3.93,0,0,1-.79-1.29,4.52,4.52,0,0,1-.28-1.62,4.45,4.45,0,0,1,.28-1.62,4,4,0,0,1,.79-1.3,3.64,3.64,0,0,1,1.19-.85,3.55,3.55,0,0,1,1.49-.31,2.92,2.92,0,0,1,1.37.29,2.86,2.86,0,0,1,1,.77v-.86h2Zm-4-6a2,2,0,0,0-.82.17,2,2,0,0,0-.64.45,2.3,2.3,0,0,0-.4.68,2.6,2.6,0,0,0-.14.84,2.49,2.49,0,0,0,.14.83,2.18,2.18,0,0,0,.4.68,2,2,0,0,0,.64.45,1.83,1.83,0,0,0,.82.17,2,2,0,0,0,.82-.16,1.74,1.74,0,0,0,.63-.45A1.93,1.93,0,0,0,782,594a2.62,2.62,0,0,0,0-1.69,1.94,1.94,0,0,0-1-1.13A2,2,0,0,0,780.15,591Z" transform="translate(-9.7 -185.46)"/><path class="cls-2" d="M795.83,589.06a3.33,3.33,0,0,1,1.24.22,2.76,2.76,0,0,1,1,.61,2.84,2.84,0,0,1,.62,1,3.24,3.24,0,0,1,.22,1.23V597H796.8v-4.27a1.86,1.86,0,0,0-.4-1.29,1.41,1.41,0,0,0-1.11-.44,2,2,0,0,0-.64.1,1.65,1.65,0,0,0-.52.33,1.79,1.79,0,0,0-.35.55,2,2,0,0,0-.13.77V597h-2.09v-4.27a1.91,1.91,0,0,0-.39-1.29,1.42,1.42,0,0,0-1.12-.44,2,2,0,0,0-.64.1,1.65,1.65,0,0,0-.52.33,1.79,1.79,0,0,0-.35.55,2,2,0,0,0-.13.77V597h-2.09v-7.76h2v.92a2.35,2.35,0,0,1,1-.87,3.18,3.18,0,0,1,1.26-.25,3.09,3.09,0,0,1,1.51.35,2.73,2.73,0,0,1,1.05,1,2.9,2.9,0,0,1,.52-.62,2.58,2.58,0,0,1,.64-.41,3,3,0,0,1,.72-.23A4.77,4.77,0,0,1,795.83,589.06Z" transform="translate(-9.7 -185.46)"/><path class="cls-2" d="M804.45,589.06a4,4,0,0,1,1.53.29,3.59,3.59,0,0,1,1.19.83,3.79,3.79,0,0,1,.77,1.29,4.9,4.9,0,0,1,.28,1.66c0,.12,0,.25,0,.37s0,.24,0,.33h-5.5a2,2,0,0,0,.71,1.23,1.71,1.71,0,0,0,.59.29,2.61,2.61,0,0,0,.69.09,2.83,2.83,0,0,0,1-.19,3.06,3.06,0,0,0,.94-.55l1.23,1.34a4.23,4.23,0,0,1-1.49.89,5.6,5.6,0,0,1-1.82.29,4.34,4.34,0,0,1-1.63-.3,3.57,3.57,0,0,1-2.09-2.1,4.42,4.42,0,0,1-.3-1.66,4.51,4.51,0,0,1,.29-1.67,3.85,3.85,0,0,1,.8-1.29,3.58,3.58,0,0,1,1.24-.84A4.09,4.09,0,0,1,804.45,589.06Zm0,1.8a1.59,1.59,0,0,0-1.17.41,2,2,0,0,0-.57,1.14h3.43a2,2,0,0,0-.58-1.15A1.53,1.53,0,0,0,804.43,590.86Zm-1.4-2.71,1.61-2.52h2.5L805,588.15Z" transform="translate(-9.7 -185.46)"/><path class="cls-2" d="M814.13,589.06a3.7,3.7,0,0,1,.6,0,3.19,3.19,0,0,1,.49.12l-.31,2.08a2.57,2.57,0,0,0-.61-.18,3,3,0,0,0-.66-.07,2,2,0,0,0-.66.11,1.49,1.49,0,0,0-.52.33,1.45,1.45,0,0,0-.33.54,2.2,2.2,0,0,0-.12.76V597h-2.09v-7.76h2v.85a2.17,2.17,0,0,1,.91-.8A3,3,0,0,1,814.13,589.06Z" transform="translate(-9.7 -185.46)"/><path class="cls-2" d="M816.43,594.11a1.31,1.31,0,0,1,.59.13,1.56,1.56,0,0,1,.5.33,1.63,1.63,0,0,1,.33.49,1.43,1.43,0,0,1,0,1.19,1.56,1.56,0,0,1-.33.5,1.43,1.43,0,0,1-.5.34,1.45,1.45,0,0,1-.59.13,1.49,1.49,0,0,1-.59-.13,1.43,1.43,0,0,1-.5-.34,1.77,1.77,0,0,1-.34-.5,1.43,1.43,0,0,1,0-1.19,1.87,1.87,0,0,1,.34-.49,1.56,1.56,0,0,1,.5-.33A1.34,1.34,0,0,1,816.43,594.11Z" transform="translate(-9.7 -185.46)"/><path class="cls-2" d="M745,614.17v-6.43l-2.78,1v-2.16l4.93-1.74v9.33h2.54v2.05h-7.35v-2.05Z" transform="translate(-9.7 -185.46)"/><path class="cls-2" d="M755.17,604.82a4.17,4.17,0,0,1,1.68.34,3.77,3.77,0,0,1,1.38,1.06,5.26,5.26,0,0,1,.93,1.8,8.7,8.7,0,0,1,.35,2.6,9,9,0,0,1-.35,2.66,5.12,5.12,0,0,1-.93,1.79,3.55,3.55,0,0,1-1.38,1,4.34,4.34,0,0,1-1.68.33,4.4,4.4,0,0,1-1.7-.33,3.47,3.47,0,0,1-1.4-1,5.15,5.15,0,0,1-1-1.79,10.28,10.28,0,0,1,0-5.32,5.11,5.11,0,0,1,1-1.8,3.47,3.47,0,0,1,1.4-1A4.4,4.4,0,0,1,755.17,604.82Zm0,2.07a1.87,1.87,0,0,0-.83.19,1.75,1.75,0,0,0-.69.62,3.46,3.46,0,0,0-.48,1.14,8.84,8.84,0,0,0,0,3.55,3.52,3.52,0,0,0,.48,1.15,1.92,1.92,0,0,0,.69.62,2,2,0,0,0,.83.18,1.87,1.87,0,0,0,.8-.18,1.89,1.89,0,0,0,.68-.62,3.53,3.53,0,0,0,.46-1.15,8,8,0,0,0,.17-1.77,7.56,7.56,0,0,0-.17-1.7,3.69,3.69,0,0,0-.46-1.16,1.94,1.94,0,0,0-.68-.66A1.65,1.65,0,0,0,755.17,606.89Z" transform="translate(-9.7 -185.46)"/><path class="cls-2" d="M772.62,616.22h-2v-.86a2.73,2.73,0,0,1-1,.76,2.87,2.87,0,0,1-1.36.3,3.53,3.53,0,0,1-1.49-.32,3.64,3.64,0,0,1-1.2-.85,4,4,0,0,1-.78-1.29,4.52,4.52,0,0,1-.29-1.62,4.45,4.45,0,0,1,.29-1.62,4.13,4.13,0,0,1,.78-1.3,3.79,3.79,0,0,1,1.2-.85,3.52,3.52,0,0,1,1.49-.31,2.87,2.87,0,0,1,1.36.29,2.76,2.76,0,0,1,1,.77v-.86h2Zm-4-6a2.05,2.05,0,0,0-.83.17,1.81,1.81,0,0,0-.63.45,2.11,2.11,0,0,0-.4.68,2.6,2.6,0,0,0-.14.84,2.49,2.49,0,0,0,.14.83,2,2,0,0,0,.4.68,1.81,1.81,0,0,0,.63.45,1.9,1.9,0,0,0,.83.17,1.92,1.92,0,0,0,.81-.16,1.69,1.69,0,0,0,.64-.45,1.91,1.91,0,0,0,.4-.68,2.46,2.46,0,0,0,0-1.69,2,2,0,0,0-.4-.68,2,2,0,0,0-.64-.45A1.92,1.92,0,0,0,768.65,610.2Z" transform="translate(-9.7 -185.46)"/><path class="cls-2" d="M779.13,608.26a3.18,3.18,0,0,1,1.21.22,2.81,2.81,0,0,1,1,.61,3,3,0,0,1,.62,1,3.25,3.25,0,0,1,.23,1.23v4.94h-2.09V612a1.86,1.86,0,0,0-.4-1.29,1.38,1.38,0,0,0-1.11-.44,1.91,1.91,0,0,0-.64.1,1.65,1.65,0,0,0-.52.33,1.48,1.48,0,0,0-.35.55,2,2,0,0,0-.13.77v4.25h-2.09v-7.76h2v.92a2.35,2.35,0,0,1,1-.87A3.18,3.18,0,0,1,779.13,608.26Z" transform="translate(-9.7 -185.46)"/><path class="cls-2" d="M789.83,610.62l-.52-.22c-.2-.07-.4-.14-.62-.2a6.38,6.38,0,0,0-.66-.15,3.88,3.88,0,0,0-.67-.06,1.77,1.77,0,0,0-.9.19.6.6,0,0,0-.29.52.4.4,0,0,0,.1.28.8.8,0,0,0,.27.18,1.73,1.73,0,0,0,.4.12l.49.08.69.1a4,4,0,0,1,1.94.76,1.94,1.94,0,0,1,.68,1.56,2.42,2.42,0,0,1-.24,1.09,2.23,2.23,0,0,1-.7.83,3.43,3.43,0,0,1-1.12.53,5.69,5.69,0,0,1-1.5.19c-.27,0-.55,0-.85,0a7.19,7.19,0,0,1-.89-.15,5.18,5.18,0,0,1-.9-.28,3.53,3.53,0,0,1-.81-.44l.82-1.58a4.54,4.54,0,0,0,.53.3,3.13,3.13,0,0,0,.6.24,3.77,3.77,0,0,0,.7.16,5.13,5.13,0,0,0,.81.06,2.29,2.29,0,0,0,1.08-.19.59.59,0,0,0,.35-.54.52.52,0,0,0-.3-.45,3,3,0,0,0-1-.26l-.63-.09c-1.79-.24-2.68-1-2.68-2.35a2.44,2.44,0,0,1,.22-1.07,2.14,2.14,0,0,1,.65-.79,2.86,2.86,0,0,1,1-.5,4.91,4.91,0,0,1,1.38-.18,8.18,8.18,0,0,1,.88,0,7.37,7.37,0,0,1,.82.13c.26.07.52.14.77.23a6.37,6.37,0,0,1,.77.33Z" transform="translate(-9.7 -185.46)"/><path class="cls-2" d="M799.14,615.64v-2.79h-2.77v-1.79h2.77v-2.79H801v2.79h2.77v1.79H801v2.79Z" transform="translate(-9.7 -185.46)"/><path class="cls-2" d="M752.07,545.1h-5.91v-2.28h5.91Z" transform="translate(-9.7 -185.46)"/><path class="cls-2" d="M759.21,535a5.29,5.29,0,0,1,2.1.43,4.77,4.77,0,0,1,1.73,1.32,6.78,6.78,0,0,1,1.17,2.26,11.17,11.17,0,0,1,.42,3.24,11.54,11.54,0,0,1-.42,3.33,6.49,6.49,0,0,1-1.17,2.24,4.55,4.55,0,0,1-1.73,1.28,5.45,5.45,0,0,1-2.1.4,5.64,5.64,0,0,1-2.13-.4,4.61,4.61,0,0,1-1.75-1.28,6.33,6.33,0,0,1-1.18-2.24,12.78,12.78,0,0,1,0-6.65,6.3,6.3,0,0,1,1.18-2.25,4.51,4.51,0,0,1,1.75-1.28A5.84,5.84,0,0,1,759.21,535Zm0,2.59a2.35,2.35,0,0,0-1,.24,2.17,2.17,0,0,0-.87.77,4.4,4.4,0,0,0-.6,1.44,11.79,11.79,0,0,0,0,4.43,4.43,4.43,0,0,0,.6,1.43,2.28,2.28,0,0,0,.87.78,2.49,2.49,0,0,0,1,.23,2.29,2.29,0,0,0,1-.23,2.17,2.17,0,0,0,.85-.78,4.43,4.43,0,0,0,.58-1.43,9.89,9.89,0,0,0,.22-2.22,9.27,9.27,0,0,0-.22-2.12,4.66,4.66,0,0,0-.58-1.45,2.32,2.32,0,0,0-.85-.83A2.07,2.07,0,0,0,759.21,537.62Z" transform="translate(-9.7 -185.46)"/><path class="cls-2" d="M769.62,546.12l-1.41,6H766l.67-6Z" transform="translate(-9.7 -185.46)"/><path class="cls-2" d="M771.47,537.44a9.07,9.07,0,0,1,.7-.79,5.41,5.41,0,0,1,2.34-1.38,5.81,5.81,0,0,1,1.74-.24,5.65,5.65,0,0,1,2,.33,4.28,4.28,0,0,1,1.49.93,3.8,3.8,0,0,1,.94,1.43,4.92,4.92,0,0,1,.33,1.83,4.59,4.59,0,0,1-.15,1.2,4.83,4.83,0,0,1-.43,1,5.72,5.72,0,0,1-.63.94c-.25.3-.52.6-.8.9l-3,3.11h5.34v2.53h-9.25v-2.11L777,542.1a4.59,4.59,0,0,0,.86-1.15,2.71,2.71,0,0,0,.3-1.25,2.32,2.32,0,0,0-.16-.84,2,2,0,0,0-.44-.66,1.93,1.93,0,0,0-.67-.43,2.42,2.42,0,0,0-.88-.16,2.84,2.84,0,0,0-.9.13,2.92,2.92,0,0,0-.74.33,4.34,4.34,0,0,0-.64.49c-.19.19-.38.39-.56.59Z" transform="translate(-9.7 -185.46)"/><path class="cls-2" d="M783.47,537.44a9.07,9.07,0,0,1,.7-.79,5.36,5.36,0,0,1,1-.79,5.66,5.66,0,0,1,1.34-.59,5.81,5.81,0,0,1,1.74-.24,5.55,5.55,0,0,1,2,.33,4.23,4.23,0,0,1,1.5.93,3.92,3.92,0,0,1,.94,1.43,4.92,4.92,0,0,1,.33,1.83,4.59,4.59,0,0,1-.15,1.2,4.83,4.83,0,0,1-.43,1,5.78,5.78,0,0,1-.64.94c-.24.3-.51.6-.8.9l-3,3.11h5.35v2.53h-9.25v-2.11L789,542.1a4.59,4.59,0,0,0,.86-1.15,2.7,2.7,0,0,0,.29-1.25,2.32,2.32,0,0,0-.15-.84,2,2,0,0,0-.44-.66,1.93,1.93,0,0,0-.67-.43,2.46,2.46,0,0,0-.88-.16,2.84,2.84,0,0,0-.9.13,3.16,3.16,0,0,0-.75.33,4.85,4.85,0,0,0-.63.49c-.19.19-.38.39-.56.59Z" transform="translate(-9.7 -185.46)"/><rect class="cls-1" x="873.74" y="206.05" width="36.6" height="127.1"/><path class="cls-2" d="M861.36,587.9h-3.48V597h-2.23V587.9h-3.47v-2.08h9.18Z" transform="translate(-9.7 -185.46)"/><path class="cls-2" d="M866.06,589.06a3.74,3.74,0,0,1,.61,0,3.06,3.06,0,0,1,.48.12l-.31,2.08a2.36,2.36,0,0,0-.6-.18,3.11,3.11,0,0,0-.67-.07,2,2,0,0,0-.66.11,1.44,1.44,0,0,0-.85.87,2.2,2.2,0,0,0-.12.76V597h-2.09v-7.76h2v.85a2.17,2.17,0,0,1,.91-.8A3,3,0,0,1,866.06,589.06Z" transform="translate(-9.7 -185.46)"/><path class="cls-2" d="M871.75,589.06a4,4,0,0,1,1.53.29,3.59,3.59,0,0,1,1.19.83,3.79,3.79,0,0,1,.77,1.29,4.67,4.67,0,0,1,.28,1.66c0,.12,0,.25,0,.37s0,.24,0,.33H870a2.1,2.1,0,0,0,.27.73,1.93,1.93,0,0,0,.44.5,1.71,1.71,0,0,0,.59.29,2.61,2.61,0,0,0,.69.09,2.83,2.83,0,0,0,1-.19,3.06,3.06,0,0,0,.94-.55l1.23,1.34a4.23,4.23,0,0,1-1.49.89,5.6,5.6,0,0,1-1.82.29,4.25,4.25,0,0,1-1.62-.3,3.56,3.56,0,0,1-1.28-.82,3.78,3.78,0,0,1-.83-1.28,4.63,4.63,0,0,1-.29-1.66,4.72,4.72,0,0,1,.29-1.67,3.85,3.85,0,0,1,.8-1.29,3.68,3.68,0,0,1,1.24-.84A4.09,4.09,0,0,1,871.75,589.06Zm0,1.8a1.61,1.61,0,0,0-1.17.41,2,2,0,0,0-.57,1.14h3.43a2,2,0,0,0-.57-1.15A1.57,1.57,0,0,0,871.73,590.86Zm-1.4-2.71,1.61-2.52h2.5l-2.11,2.52Z" transform="translate(-9.7 -185.46)"/><path class="cls-2" d="M882.72,591.42l-.52-.22-.61-.2c-.22-.06-.44-.11-.67-.15a3.79,3.79,0,0,0-.67-.06,1.71,1.71,0,0,0-.89.19.59.59,0,0,0-.3.52.4.4,0,0,0,.1.28.91.91,0,0,0,.27.18,1.73,1.73,0,0,0,.4.12l.5.08.68.1A4,4,0,0,1,883,593a1.94,1.94,0,0,1,.68,1.56,2.42,2.42,0,0,1-.24,1.09,2.23,2.23,0,0,1-.7.83,3.33,3.33,0,0,1-1.12.53,5.69,5.69,0,0,1-1.5.19c-.27,0-.55,0-.85-.05a7.19,7.19,0,0,1-.89-.15,4.83,4.83,0,0,1-.89-.28,3.4,3.4,0,0,1-.82-.44l.83-1.58a4.4,4.4,0,0,0,.52.3,3,3,0,0,0,.61.24,3.66,3.66,0,0,0,.69.16,5.17,5.17,0,0,0,.82.06,2.35,2.35,0,0,0,1.08-.19.6.6,0,0,0,.35-.54.52.52,0,0,0-.31-.45,3,3,0,0,0-1-.26l-.63-.09c-1.79-.24-2.68-1-2.68-2.35a2.44,2.44,0,0,1,.22-1.07,2.24,2.24,0,0,1,.65-.79,2.83,2.83,0,0,1,1-.5,4.79,4.79,0,0,1,1.37-.18,8.18,8.18,0,0,1,.88.05,7.37,7.37,0,0,1,.82.13c.26.07.52.14.78.23a7,7,0,0,1,.76.33Z" transform="translate(-9.7 -185.46)"/><path class="cls-2" d="M889,589.06a4.55,4.55,0,0,1,1.67.3,4.07,4.07,0,0,1,1.33.86,3.88,3.88,0,0,1,.88,1.3,4.07,4.07,0,0,1,.32,1.62,4.14,4.14,0,0,1-.32,1.62,3.75,3.75,0,0,1-.88,1.29,3.91,3.91,0,0,1-1.33.86,4.65,4.65,0,0,1-3.34,0,3.91,3.91,0,0,1-1.33-.86,3.86,3.86,0,0,1-.87-1.29,4.14,4.14,0,0,1-.32-1.62,4.07,4.07,0,0,1,.32-1.62,4,4,0,0,1,.87-1.3,4.07,4.07,0,0,1,1.33-.86A4.51,4.51,0,0,1,889,589.06Zm0,1.94a2,2,0,0,0-.82.16,1.83,1.83,0,0,0-.65.44,1.88,1.88,0,0,0-.43.67,2.42,2.42,0,0,0,0,1.73,1.92,1.92,0,0,0,.43.68,2,2,0,0,0,.65.44,2.18,2.18,0,0,0,.82.15,2.25,2.25,0,0,0,.82-.15,2,2,0,0,0,.65-.44,2.1,2.1,0,0,0,.44-.68,2.57,2.57,0,0,0,0-1.73,2.05,2.05,0,0,0-.44-.67,1.83,1.83,0,0,0-.65-.44A2.07,2.07,0,0,0,889,591Z" transform="translate(-9.7 -185.46)"/><path class="cls-2" d="M899.07,589.06a3.7,3.7,0,0,1,.6,0,3.19,3.19,0,0,1,.49.12l-.31,2.08a2.63,2.63,0,0,0-.6-.18,3.18,3.18,0,0,0-.67-.07,2,2,0,0,0-.66.11,1.44,1.44,0,0,0-.85.87,2.2,2.2,0,0,0-.12.76V597h-2.09v-7.76h2v.85a2.26,2.26,0,0,1,.92-.8A3,3,0,0,1,899.07,589.06Z" transform="translate(-9.7 -185.46)"/><path class="cls-2" d="M913.07,597h-2v-.86a2.83,2.83,0,0,1-.95.76,2.92,2.92,0,0,1-1.37.3,3.56,3.56,0,0,1-1.49-.32,3.6,3.6,0,0,1-1.19-.85,3.93,3.93,0,0,1-.79-1.29,4.52,4.52,0,0,1-.28-1.62,4.45,4.45,0,0,1,.28-1.62,4,4,0,0,1,.79-1.3,3.75,3.75,0,0,1,1.19-.85,3.55,3.55,0,0,1,1.49-.31,2.92,2.92,0,0,1,1.37.29,2.86,2.86,0,0,1,.95.77v-.86h2Zm-4-6a2,2,0,0,0-.82.17,2,2,0,0,0-.64.45,2.3,2.3,0,0,0-.4.68,2.6,2.6,0,0,0-.14.84,2.49,2.49,0,0,0,.14.83,2.18,2.18,0,0,0,.4.68,2,2,0,0,0,.64.45,1.83,1.83,0,0,0,.82.17,2,2,0,0,0,.82-.16,1.66,1.66,0,0,0,.63-.45A1.93,1.93,0,0,0,911,594a2.62,2.62,0,0,0,0-1.69,2,2,0,0,0-.41-.68,1.91,1.91,0,0,0-.63-.45A2,2,0,0,0,909.09,591Z" transform="translate(-9.7 -185.46)"/><path class="cls-2" d="M924.77,589.06a3.33,3.33,0,0,1,1.24.22,2.76,2.76,0,0,1,1,.61,2.69,2.69,0,0,1,.62,1,3.24,3.24,0,0,1,.22,1.23V597h-2.08v-4.27a1.86,1.86,0,0,0-.4-1.29,1.41,1.41,0,0,0-1.11-.44,2,2,0,0,0-.64.1,1.65,1.65,0,0,0-.52.33,1.79,1.79,0,0,0-.35.55,2,2,0,0,0-.13.77V597H920.5v-4.27a1.91,1.91,0,0,0-.39-1.29A1.42,1.42,0,0,0,919,591a2,2,0,0,0-.64.1,1.65,1.65,0,0,0-.52.33,1.79,1.79,0,0,0-.35.55,2,2,0,0,0-.13.77V597h-2.09v-7.76h2v.92a2.35,2.35,0,0,1,1-.87,3.18,3.18,0,0,1,1.26-.25,3.09,3.09,0,0,1,1.51.35,2.73,2.73,0,0,1,1,1,2.9,2.9,0,0,1,.52-.62,2.58,2.58,0,0,1,.64-.41,3,3,0,0,1,.72-.23A4.77,4.77,0,0,1,924.77,589.06Z" transform="translate(-9.7 -185.46)"/><path class="cls-2" d="M933.39,589.06a4,4,0,0,1,1.53.29,3.59,3.59,0,0,1,1.19.83,3.79,3.79,0,0,1,.77,1.29,4.9,4.9,0,0,1,.28,1.66c0,.12,0,.25,0,.37a2.92,2.92,0,0,1,0,.33h-5.5a2.09,2.09,0,0,0,.26.73,2.17,2.17,0,0,0,.45.5,1.71,1.71,0,0,0,.59.29,2.61,2.61,0,0,0,.69.09,2.83,2.83,0,0,0,1-.19,3.06,3.06,0,0,0,.94-.55L936.8,596a4.18,4.18,0,0,1-1.5.89,5.5,5.5,0,0,1-1.81.29,4.25,4.25,0,0,1-1.62-.3,3.56,3.56,0,0,1-1.28-.82,3.61,3.61,0,0,1-.82-1.28,4.42,4.42,0,0,1-.3-1.66,4.51,4.51,0,0,1,.29-1.67,3.85,3.85,0,0,1,.8-1.29,3.58,3.58,0,0,1,1.24-.84A4.09,4.09,0,0,1,933.39,589.06Zm0,1.8a1.59,1.59,0,0,0-1.17.41,2,2,0,0,0-.57,1.14h3.43a2,2,0,0,0-.58-1.15A1.53,1.53,0,0,0,933.37,590.86Zm-1.4-2.71,1.61-2.52h2.5L934,588.15Z" transform="translate(-9.7 -185.46)"/><path class="cls-2" d="M943.07,589.06a3.7,3.7,0,0,1,.6,0,3.19,3.19,0,0,1,.49.12l-.31,2.08a2.63,2.63,0,0,0-.6-.18,3.18,3.18,0,0,0-.67-.07,2,2,0,0,0-.66.11,1.44,1.44,0,0,0-.85.87,2.2,2.2,0,0,0-.12.76V597h-2.09v-7.76h2v.85a2.26,2.26,0,0,1,.92-.8A3,3,0,0,1,943.07,589.06Z" transform="translate(-9.7 -185.46)"/><path class="cls-2" d="M945.37,594.11a1.31,1.31,0,0,1,.59.13,1.56,1.56,0,0,1,.5.33,1.63,1.63,0,0,1,.33.49,1.43,1.43,0,0,1,0,1.19,1.56,1.56,0,0,1-.33.5,1.43,1.43,0,0,1-.5.34,1.45,1.45,0,0,1-.59.13,1.53,1.53,0,0,1-.59-.13,1.43,1.43,0,0,1-.5-.34,1.77,1.77,0,0,1-.34-.5,1.43,1.43,0,0,1,0-1.19,1.87,1.87,0,0,1,.34-.49,1.56,1.56,0,0,1,.5-.33A1.37,1.37,0,0,1,945.37,594.11Z" transform="translate(-9.7 -185.46)"/><path class="cls-2" d="M862.22,614.17v-6.43l-2.79,1v-2.16l4.94-1.74v9.33h2.54v2.05h-7.35v-2.05Z" transform="translate(-9.7 -185.46)"/><path class="cls-2" d="M872.42,604.82a4.09,4.09,0,0,1,1.67.34,3.61,3.61,0,0,1,1.38,1.06,5.11,5.11,0,0,1,.94,1.8,8.72,8.72,0,0,1,.34,2.6,9,9,0,0,1-.34,2.66,5,5,0,0,1-.94,1.79,3.41,3.41,0,0,1-1.38,1,4.25,4.25,0,0,1-1.67.33,4.45,4.45,0,0,1-1.71-.33,3.54,3.54,0,0,1-1.4-1,5.14,5.14,0,0,1-.95-1.79,10.28,10.28,0,0,1,0-5.32,5.1,5.1,0,0,1,.95-1.8,3.54,3.54,0,0,1,1.4-1A4.45,4.45,0,0,1,872.42,604.82Zm0,2.07a1.84,1.84,0,0,0-.83.19,1.77,1.77,0,0,0-.7.62,3.46,3.46,0,0,0-.47,1.14,8.84,8.84,0,0,0,0,3.55,3.53,3.53,0,0,0,.47,1.15,1.94,1.94,0,0,0,.7.62,2,2,0,0,0,.83.18,1.67,1.67,0,0,0,1.47-.8,3.53,3.53,0,0,0,.47-1.15,8,8,0,0,0,.17-1.77,7.56,7.56,0,0,0-.17-1.7,3.69,3.69,0,0,0-.47-1.16,1.91,1.91,0,0,0-.67-.66A1.65,1.65,0,0,0,872.42,606.89Z" transform="translate(-9.7 -185.46)"/><path class="cls-2" d="M889.87,616.22h-2v-.86a2.73,2.73,0,0,1-1,.76,2.89,2.89,0,0,1-1.37.3,3.48,3.48,0,0,1-1.48-.32,3.64,3.64,0,0,1-1.2-.85A4,4,0,0,1,882,614a4.75,4.75,0,0,1-.28-1.62,4.67,4.67,0,0,1,.28-1.62,4.16,4.16,0,0,1,.79-1.3,3.79,3.79,0,0,1,1.2-.85,3.47,3.47,0,0,1,1.48-.31,2.89,2.89,0,0,1,1.37.29,2.76,2.76,0,0,1,1,.77v-.86h2Zm-6.53-11.39h2.49l1.61,2.52h-2Zm2.56,5.37a2,2,0,0,0-.83.17,1.81,1.81,0,0,0-.63.45,1.94,1.94,0,0,0-.4.68,2.35,2.35,0,0,0-.14.84,2.26,2.26,0,0,0,.14.83,1.86,1.86,0,0,0,.4.68,1.81,1.81,0,0,0,.63.45,1.87,1.87,0,0,0,.83.17,1.92,1.92,0,0,0,.81-.16,1.69,1.69,0,0,0,.64-.45,1.91,1.91,0,0,0,.4-.68,2.46,2.46,0,0,0,0-1.69,2,2,0,0,0-.4-.68,2,2,0,0,0-.64-.45A1.92,1.92,0,0,0,885.9,610.2Z" transform="translate(-9.7 -185.46)"/><path class="cls-2" d="M895.7,606.74a5.92,5.92,0,0,1,.56-.63,4,4,0,0,1,.8-.63,4.8,4.8,0,0,1,1.07-.48,4.93,4.93,0,0,1,1.39-.18,4.42,4.42,0,0,1,1.59.26,3.52,3.52,0,0,1,1.19.74,3.31,3.31,0,0,1,.76,1.14,4.13,4.13,0,0,1,.26,1.47,3.71,3.71,0,0,1-.12,1,5.09,5.09,0,0,1-.34.84,6.19,6.19,0,0,1-.51.75c-.2.24-.42.48-.64.72l-2.4,2.49h4.28v2h-7.4v-1.69l4-4.06a3.75,3.75,0,0,0,.69-.92,2.29,2.29,0,0,0,.23-1,1.81,1.81,0,0,0-.12-.67,1.58,1.58,0,0,0-.35-.53,1.68,1.68,0,0,0-.54-.35,1.94,1.94,0,0,0-.7-.12,2.28,2.28,0,0,0-.72.1,2.74,2.74,0,0,0-.6.27,2.69,2.69,0,0,0-.5.39c-.16.15-.31.31-.45.47Z" transform="translate(-9.7 -185.46)"/><path class="cls-2" d="M909.36,604.82a4.17,4.17,0,0,1,1.68.34,3.77,3.77,0,0,1,1.38,1.06,5.26,5.26,0,0,1,.93,1.8,8.7,8.7,0,0,1,.35,2.6,9,9,0,0,1-.35,2.66,5.12,5.12,0,0,1-.93,1.79,3.55,3.55,0,0,1-1.38,1,4.34,4.34,0,0,1-1.68.33,4.4,4.4,0,0,1-1.7-.33,3.47,3.47,0,0,1-1.4-1,5.15,5.15,0,0,1-1-1.79,10.28,10.28,0,0,1,0-5.32,5.11,5.11,0,0,1,1-1.8,3.47,3.47,0,0,1,1.4-1A4.4,4.4,0,0,1,909.36,604.82Zm0,2.07a1.87,1.87,0,0,0-.83.19,1.75,1.75,0,0,0-.69.62,3.46,3.46,0,0,0-.48,1.14,9.35,9.35,0,0,0,0,3.55,3.52,3.52,0,0,0,.48,1.15,1.92,1.92,0,0,0,.69.62,2,2,0,0,0,.83.18,1.84,1.84,0,0,0,.8-.18,1.89,1.89,0,0,0,.68-.62,3.53,3.53,0,0,0,.46-1.15,7.47,7.47,0,0,0,.17-1.77,7,7,0,0,0-.17-1.7,3.69,3.69,0,0,0-.46-1.16,1.94,1.94,0,0,0-.68-.66A1.62,1.62,0,0,0,909.36,606.89Z" transform="translate(-9.7 -185.46)"/><path class="cls-2" d="M926.82,616.22h-2v-.86a2.88,2.88,0,0,1-2.32,1.06,3.68,3.68,0,0,1-2.68-1.17A3.83,3.83,0,0,1,919,614a4.52,4.52,0,0,1-.28-1.62,4.45,4.45,0,0,1,.28-1.62,4,4,0,0,1,.79-1.3,3.64,3.64,0,0,1,1.19-.85,3.52,3.52,0,0,1,1.49-.31,2.92,2.92,0,0,1,1.37.29,3,3,0,0,1,.95.77v-.86h2Zm-4-6a2.05,2.05,0,0,0-.83.17,1.91,1.91,0,0,0-.63.45,2.11,2.11,0,0,0-.4.68,2.6,2.6,0,0,0-.14.84,2.49,2.49,0,0,0,.14.83,2,2,0,0,0,.4.68,2,2,0,0,0,1.46.62,2,2,0,0,0,.82-.16,1.74,1.74,0,0,0,.63-.45,2.09,2.09,0,0,0,.41-.68,2.62,2.62,0,0,0,0-1.69,2.2,2.2,0,0,0-.41-.68,1.9,1.9,0,0,0-1.45-.61Z" transform="translate(-9.7 -185.46)"/><path class="cls-2" d="M933.32,608.26a3.18,3.18,0,0,1,1.21.22,2.66,2.66,0,0,1,1.58,1.57,3.25,3.25,0,0,1,.23,1.23v4.94h-2.09V612a1.86,1.86,0,0,0-.4-1.29,1.38,1.38,0,0,0-1.11-.44,1.91,1.91,0,0,0-.64.1,1.65,1.65,0,0,0-.52.33,1.62,1.62,0,0,0-.35.55,2,2,0,0,0-.13.77v4.25H929v-7.76h2v.92a2.35,2.35,0,0,1,1-.87A3.18,3.18,0,0,1,933.32,608.26Z" transform="translate(-9.7 -185.46)"/><path class="cls-2" d="M944,610.62l-.52-.22c-.19-.07-.4-.14-.62-.2a6.38,6.38,0,0,0-.66-.15,3.88,3.88,0,0,0-.67-.06,1.71,1.71,0,0,0-.89.19.59.59,0,0,0-.3.52.4.4,0,0,0,.1.28.91.91,0,0,0,.27.18,1.73,1.73,0,0,0,.4.12l.49.08.69.1a4,4,0,0,1,1.94.76,1.94,1.94,0,0,1,.68,1.56,2.42,2.42,0,0,1-.24,1.09,2.23,2.23,0,0,1-.7.83,3.33,3.33,0,0,1-1.12.53,5.69,5.69,0,0,1-1.5.19c-.27,0-.55,0-.85,0a7.19,7.19,0,0,1-.89-.15,4.83,4.83,0,0,1-.89-.28,3.4,3.4,0,0,1-.82-.44l.82-1.58a5.54,5.54,0,0,0,.53.3,3,3,0,0,0,.61.24,3.49,3.49,0,0,0,.69.16,5.13,5.13,0,0,0,.81.06,2.29,2.29,0,0,0,1.08-.19.6.6,0,0,0,.36-.54.53.53,0,0,0-.31-.45,3,3,0,0,0-1-.26l-.63-.09c-1.79-.24-2.68-1-2.68-2.35a2.44,2.44,0,0,1,.22-1.07,2.24,2.24,0,0,1,.65-.79,2.83,2.83,0,0,1,1-.5,4.79,4.79,0,0,1,1.37-.18,8.18,8.18,0,0,1,.88,0,7.37,7.37,0,0,1,.82.13c.26.07.52.14.77.23a6.37,6.37,0,0,1,.77.33Z" transform="translate(-9.7 -185.46)"/><path class="cls-2" d="M881,539.12h-5.91v-2.28H881Z" transform="translate(-9.7 -185.46)"/><path class="cls-2" d="M888.12,529.05a5.08,5.08,0,0,1,2.09.43,4.48,4.48,0,0,1,1.73,1.32,6.59,6.59,0,0,1,1.17,2.26,10.73,10.73,0,0,1,.43,3.24,11.06,11.06,0,0,1-.43,3.32,6.45,6.45,0,0,1-1.17,2.25,4.44,4.44,0,0,1-1.73,1.27,5.41,5.41,0,0,1-2.09.41,5.65,5.65,0,0,1-2.13-.41,4.51,4.51,0,0,1-1.75-1.27,6.31,6.31,0,0,1-1.19-2.25,11,11,0,0,1-.44-3.32,11.15,11.15,0,0,1,.44-3.33,6.49,6.49,0,0,1,1.19-2.25,4.41,4.41,0,0,1,1.75-1.27A5.64,5.64,0,0,1,888.12,529.05Zm0,2.59a2.54,2.54,0,0,0-1,.23,2.28,2.28,0,0,0-.87.78,4.43,4.43,0,0,0-.59,1.43,9.34,9.34,0,0,0-.22,2.22,9.19,9.19,0,0,0,.22,2.21,4.4,4.4,0,0,0,.59,1.44,2.17,2.17,0,0,0,.87.77,2.4,2.4,0,0,0,1,.24,2.2,2.2,0,0,0,1-.24A2.11,2.11,0,0,0,890,540a4.19,4.19,0,0,0,.58-1.44,9.19,9.19,0,0,0,.22-2.21,8.77,8.77,0,0,0-.22-2.13,4.52,4.52,0,0,0-.58-1.45,2.34,2.34,0,0,0-.84-.82A2,2,0,0,0,888.12,531.64Z" transform="translate(-9.7 -185.46)"/><path class="cls-2" d="M898.52,540.14l-1.4,6h-2.2l.67-6Z" transform="translate(-9.7 -185.46)"/><path class="cls-2" d="M900.38,531.46a9.07,9.07,0,0,1,.7-.8,5.42,5.42,0,0,1,1-.78,5.9,5.9,0,0,1,1.34-.6,6.16,6.16,0,0,1,1.74-.23,5.63,5.63,0,0,1,2,.33,4.31,4.31,0,0,1,1.49.92,4.12,4.12,0,0,1,1,1.43,5,5,0,0,1,.33,1.84,4.17,4.17,0,0,1-.16,1.19,4.8,4.8,0,0,1-.42,1,5.86,5.86,0,0,1-.64,1c-.25.3-.51.6-.8.9l-3,3.11h5.35v2.53H901v-2.11l5-5.07a4.58,4.58,0,0,0,.85-1.16,2.67,2.67,0,0,0,.3-1.24,2.06,2.06,0,0,0-.16-.84,1.76,1.76,0,0,0-.43-.66,2,2,0,0,0-.68-.44,2.41,2.41,0,0,0-.87-.15,3.23,3.23,0,0,0-.91.12,3.82,3.82,0,0,0-.74.34,3.33,3.33,0,0,0-.63.49,7.91,7.91,0,0,0-.56.59Z" transform="translate(-9.7 -185.46)"/><path class="cls-2" d="M916.71,540.74v-8L913.23,534v-2.69l6.17-2.18v11.66h3.17v2.56h-9.18v-2.56Z" transform="translate(-9.7 -185.46)"/><rect class="cls-1" x="1002.68" y="206.05" width="36.6" height="145.25"/><path class="cls-2" d="M990.3,587.9h-3.47V597h-2.24V587.9h-3.47v-2.08h9.18Z" transform="translate(-9.7 -185.46)"/><path class="cls-2" d="M995,589.06a3.82,3.82,0,0,1,.61,0,3.06,3.06,0,0,1,.48.12l-.31,2.08a2.36,2.36,0,0,0-.6-.18,3.11,3.11,0,0,0-.67-.07,2,2,0,0,0-.66.11,1.44,1.44,0,0,0-.85.87,2.2,2.2,0,0,0-.12.76V597h-2.09v-7.76h2v.85a2.17,2.17,0,0,1,.91-.8A3,3,0,0,1,995,589.06Z" transform="translate(-9.7 -185.46)"/><path class="cls-2" d="M1000.69,589.06a4,4,0,0,1,1.53.29,3.59,3.59,0,0,1,1.19.83,3.79,3.79,0,0,1,.77,1.29,4.67,4.67,0,0,1,.28,1.66c0,.12,0,.25,0,.37s0,.24,0,.33h-5.5a2,2,0,0,0,.71,1.23,1.71,1.71,0,0,0,.59.29,2.61,2.61,0,0,0,.69.09,2.83,2.83,0,0,0,1-.19,3.06,3.06,0,0,0,.94-.55l1.23,1.34a4.23,4.23,0,0,1-1.49.89,5.6,5.6,0,0,1-1.82.29,4.25,4.25,0,0,1-1.62-.3,3.56,3.56,0,0,1-1.28-.82,3.61,3.61,0,0,1-.82-1.28,4.42,4.42,0,0,1-.3-1.66,4.72,4.72,0,0,1,.29-1.67,3.85,3.85,0,0,1,.8-1.29,3.68,3.68,0,0,1,1.24-.84A4.09,4.09,0,0,1,1000.69,589.06Zm0,1.8a1.61,1.61,0,0,0-1.17.41,2,2,0,0,0-.57,1.14h3.43a2.09,2.09,0,0,0-.57-1.15A1.57,1.57,0,0,0,1000.67,590.86Zm-1.4-2.71,1.61-2.52h2.5l-2.12,2.52Z" transform="translate(-9.7 -185.46)"/><path class="cls-2" d="M1011.67,591.42l-.53-.22-.61-.2c-.22-.06-.44-.11-.67-.15a3.88,3.88,0,0,0-.67-.06,1.71,1.71,0,0,0-.89.19.59.59,0,0,0-.3.52.4.4,0,0,0,.1.28.91.91,0,0,0,.27.18,1.73,1.73,0,0,0,.4.12l.49.08.69.1a4,4,0,0,1,1.94.76,1.94,1.94,0,0,1,.68,1.56,2.42,2.42,0,0,1-.24,1.09,2.23,2.23,0,0,1-.7.83,3.33,3.33,0,0,1-1.12.53,5.69,5.69,0,0,1-1.5.19,8.21,8.21,0,0,1-.84-.05,7,7,0,0,1-.9-.15,4.83,4.83,0,0,1-.89-.28,3.4,3.4,0,0,1-.82-.44l.82-1.58a5.54,5.54,0,0,0,.53.3,3,3,0,0,0,.61.24,3.49,3.49,0,0,0,.69.16,5.17,5.17,0,0,0,.82.06,2.35,2.35,0,0,0,1.08-.19.6.6,0,0,0,.35-.54.52.52,0,0,0-.31-.45,3,3,0,0,0-1-.26l-.63-.09c-1.79-.24-2.68-1-2.68-2.35a2.44,2.44,0,0,1,.22-1.07,2.24,2.24,0,0,1,.65-.79,2.83,2.83,0,0,1,1-.5,4.79,4.79,0,0,1,1.37-.18,8.18,8.18,0,0,1,.88.05,7,7,0,0,1,.82.13c.26.07.52.14.78.23a7,7,0,0,1,.76.33Z" transform="translate(-9.7 -185.46)"/><path class="cls-2" d="M1017.9,589.06a4.55,4.55,0,0,1,1.67.3,4.22,4.22,0,0,1,1.34.86,4,4,0,0,1,.87,1.3,4.07,4.07,0,0,1,.32,1.62,4.14,4.14,0,0,1-.32,1.62,3.86,3.86,0,0,1-.87,1.29,4.06,4.06,0,0,1-1.34.86,4.55,4.55,0,0,1-1.67.31,4.6,4.6,0,0,1-1.68-.31,4,4,0,0,1-1.32-.86,3.86,3.86,0,0,1-.87-1.29,4.14,4.14,0,0,1-.32-1.62,4.07,4.07,0,0,1,.32-1.62,4,4,0,0,1,.87-1.3,4.13,4.13,0,0,1,1.32-.86A4.6,4.6,0,0,1,1017.9,589.06Zm0,1.94a2,2,0,0,0-.82.16,1.83,1.83,0,0,0-.65.44,2,2,0,0,0-.43.67,2.42,2.42,0,0,0,0,1.73,2.07,2.07,0,0,0,.43.68,2,2,0,0,0,.65.44,2.18,2.18,0,0,0,.82.15,2.25,2.25,0,0,0,.82-.15,2,2,0,0,0,.65-.44,1.92,1.92,0,0,0,.43-.68,2.42,2.42,0,0,0,0-1.73,1.88,1.88,0,0,0-.43-.67,1.83,1.83,0,0,0-.65-.44A2.07,2.07,0,0,0,1017.9,591Z" transform="translate(-9.7 -185.46)"/><path class="cls-2" d="M1028,589.06a3.7,3.7,0,0,1,.6,0,3.19,3.19,0,0,1,.49.12l-.31,2.08a2.57,2.57,0,0,0-.61-.18,3,3,0,0,0-.66-.07,2,2,0,0,0-.66.11,1.49,1.49,0,0,0-.52.33,1.45,1.45,0,0,0-.33.54,2.2,2.2,0,0,0-.12.76V597h-2.09v-7.76h2v.85a2.17,2.17,0,0,1,.91-.8A3,3,0,0,1,1028,589.06Z" transform="translate(-9.7 -185.46)"/><path class="cls-2" d="M1042,597h-2v-.86a2.83,2.83,0,0,1-1,.76,2.92,2.92,0,0,1-1.37.3,3.56,3.56,0,0,1-1.49-.32,3.5,3.5,0,0,1-1.19-.85,3.93,3.93,0,0,1-.79-1.29,4.52,4.52,0,0,1-.28-1.62,4.45,4.45,0,0,1,.28-1.62,4,4,0,0,1,.79-1.3,3.64,3.64,0,0,1,1.19-.85,3.55,3.55,0,0,1,1.49-.31,2.92,2.92,0,0,1,1.37.29,2.86,2.86,0,0,1,1,.77v-.86h2Zm-4-6a2,2,0,0,0-.82.17,2,2,0,0,0-.64.45,2.3,2.3,0,0,0-.4.68,2.6,2.6,0,0,0-.14.84,2.49,2.49,0,0,0,.14.83,2.18,2.18,0,0,0,.4.68,2,2,0,0,0,.64.45,1.83,1.83,0,0,0,.82.17,2,2,0,0,0,.82-.16,1.74,1.74,0,0,0,.63-.45,1.93,1.93,0,0,0,.41-.68,2.62,2.62,0,0,0,0-1.69,1.94,1.94,0,0,0-1-1.13A2,2,0,0,0,1038,591Z" transform="translate(-9.7 -185.46)"/><path class="cls-2" d="M1053.71,589.06a3.33,3.33,0,0,1,1.24.22,2.76,2.76,0,0,1,1,.61,2.84,2.84,0,0,1,.62,1,3.24,3.24,0,0,1,.22,1.23V597h-2.08v-4.27a1.86,1.86,0,0,0-.4-1.29,1.41,1.41,0,0,0-1.11-.44,2,2,0,0,0-.64.1,1.65,1.65,0,0,0-.52.33,1.79,1.79,0,0,0-.35.55,2,2,0,0,0-.13.77V597h-2.09v-4.27a1.86,1.86,0,0,0-.4-1.29,1.38,1.38,0,0,0-1.11-.44,2,2,0,0,0-.64.1,1.65,1.65,0,0,0-.52.33,1.79,1.79,0,0,0-.35.55,2,2,0,0,0-.13.77V597h-2.09v-7.76h2v.92a2.35,2.35,0,0,1,1-.87,3.18,3.18,0,0,1,1.26-.25,3.09,3.09,0,0,1,1.51.35,2.73,2.73,0,0,1,1,1,2.9,2.9,0,0,1,.52-.62,2.58,2.58,0,0,1,.64-.41,3,3,0,0,1,.72-.23A4.77,4.77,0,0,1,1053.71,589.06Z" transform="translate(-9.7 -185.46)"/><path class="cls-2" d="M1062.33,589.06a4,4,0,0,1,1.53.29,3.59,3.59,0,0,1,1.19.83,3.79,3.79,0,0,1,.77,1.29,4.9,4.9,0,0,1,.28,1.66c0,.12,0,.25,0,.37a2.92,2.92,0,0,1,0,.33h-5.5a2,2,0,0,0,.71,1.23,1.71,1.71,0,0,0,.59.29,2.61,2.61,0,0,0,.69.09,2.83,2.83,0,0,0,1-.19,3.06,3.06,0,0,0,.94-.55l1.23,1.34a4.23,4.23,0,0,1-1.49.89,5.6,5.6,0,0,1-1.82.29,4.34,4.34,0,0,1-1.63-.3,3.57,3.57,0,0,1-2.09-2.1,4.42,4.42,0,0,1-.3-1.66,4.51,4.51,0,0,1,.29-1.67,3.85,3.85,0,0,1,.8-1.29,3.58,3.58,0,0,1,1.24-.84A4.09,4.09,0,0,1,1062.33,589.06Zm0,1.8a1.59,1.59,0,0,0-1.17.41,2,2,0,0,0-.57,1.14H1064a2,2,0,0,0-.58-1.15A1.53,1.53,0,0,0,1062.31,590.86Zm-1.4-2.71,1.61-2.52h2.5l-2.12,2.52Z" transform="translate(-9.7 -185.46)"/><path class="cls-2" d="M1072,589.06a3.7,3.7,0,0,1,.6,0,3.19,3.19,0,0,1,.49.12l-.31,2.08a2.57,2.57,0,0,0-.61-.18,3,3,0,0,0-.66-.07,2,2,0,0,0-.66.11,1.49,1.49,0,0,0-.52.33,1.45,1.45,0,0,0-.33.54,2.2,2.2,0,0,0-.12.76V597h-2.09v-7.76h2v.85a2.17,2.17,0,0,1,.91-.8A3,3,0,0,1,1072,589.06Z" transform="translate(-9.7 -185.46)"/><path class="cls-2" d="M1074.31,594.11a1.31,1.31,0,0,1,.59.13,1.67,1.67,0,0,1,.5.33,1.63,1.63,0,0,1,.33.49,1.43,1.43,0,0,1,0,1.19,1.56,1.56,0,0,1-.33.5,1.53,1.53,0,0,1-.5.34,1.45,1.45,0,0,1-.59.13,1.49,1.49,0,0,1-.59-.13,1.43,1.43,0,0,1-.5-.34,1.77,1.77,0,0,1-.34-.5,1.43,1.43,0,0,1,0-1.19,1.87,1.87,0,0,1,.34-.49,1.56,1.56,0,0,1,.5-.33A1.34,1.34,0,0,1,1074.31,594.11Z" transform="translate(-9.7 -185.46)"/><path class="cls-2" d="M999.39,606.74a5.92,5.92,0,0,1,.56-.63,4,4,0,0,1,.8-.63,4.6,4.6,0,0,1,1.07-.48,4.88,4.88,0,0,1,1.39-.18,4.37,4.37,0,0,1,1.58.26,3.47,3.47,0,0,1,1.2.74,3.31,3.31,0,0,1,.76,1.14,4.13,4.13,0,0,1,.26,1.47,3.71,3.71,0,0,1-.12,1,5.09,5.09,0,0,1-.34.84,5.3,5.3,0,0,1-.52.75c-.19.24-.41.48-.64.72l-2.39,2.49h4.28v2h-7.4v-1.69l4-4.06a3.75,3.75,0,0,0,.69-.92,2.29,2.29,0,0,0,.23-1,1.81,1.81,0,0,0-.12-.67,1.75,1.75,0,0,0-.35-.53,1.68,1.68,0,0,0-.54-.35,1.94,1.94,0,0,0-.7-.12,2.28,2.28,0,0,0-.72.1,2.74,2.74,0,0,0-.6.27,2.69,2.69,0,0,0-.5.39c-.16.15-.31.31-.45.47Z" transform="translate(-9.7 -185.46)"/><path class="cls-2" d="M1013.05,604.82a4.17,4.17,0,0,1,1.68.34,3.77,3.77,0,0,1,1.38,1.06,5.26,5.26,0,0,1,.93,1.8,8.7,8.7,0,0,1,.35,2.6,9,9,0,0,1-.35,2.66,5.12,5.12,0,0,1-.93,1.79,3.55,3.55,0,0,1-1.38,1,4.34,4.34,0,0,1-1.68.33,4.4,4.4,0,0,1-1.7-.33,3.47,3.47,0,0,1-1.4-1,5.15,5.15,0,0,1-1-1.79,10.28,10.28,0,0,1,0-5.32,5.11,5.11,0,0,1,1-1.8,3.47,3.47,0,0,1,1.4-1A4.4,4.4,0,0,1,1013.05,604.82Zm0,2.07a1.87,1.87,0,0,0-.83.19,1.75,1.75,0,0,0-.69.62,3.46,3.46,0,0,0-.48,1.14,8.84,8.84,0,0,0,0,3.55,3.52,3.52,0,0,0,.48,1.15,1.92,1.92,0,0,0,.69.62,2,2,0,0,0,.83.18,1.87,1.87,0,0,0,.8-.18,1.89,1.89,0,0,0,.68-.62,3.53,3.53,0,0,0,.46-1.15,8,8,0,0,0,.17-1.77,7.56,7.56,0,0,0-.17-1.7,3.69,3.69,0,0,0-.46-1.16,1.94,1.94,0,0,0-.68-.66A1.65,1.65,0,0,0,1013.05,606.89Z" transform="translate(-9.7 -185.46)"/><path class="cls-2" d="M1030.5,616.22h-2v-.86a2.73,2.73,0,0,1-1,.76,2.87,2.87,0,0,1-1.36.3,3.53,3.53,0,0,1-1.49-.32,3.64,3.64,0,0,1-1.2-.85,4,4,0,0,1-.78-1.29,4.52,4.52,0,0,1-.29-1.62,4.45,4.45,0,0,1,.29-1.62,4.13,4.13,0,0,1,.78-1.3,3.79,3.79,0,0,1,1.2-.85,3.52,3.52,0,0,1,1.49-.31,2.87,2.87,0,0,1,1.36.29,2.76,2.76,0,0,1,1,.77v-.86h2Zm-4-6a2.05,2.05,0,0,0-.83.17,1.81,1.81,0,0,0-.63.45,2.11,2.11,0,0,0-.4.68,2.6,2.6,0,0,0-.14.84,2.49,2.49,0,0,0,.14.83,2,2,0,0,0,.4.68,1.81,1.81,0,0,0,.63.45,1.9,1.9,0,0,0,.83.17,1.92,1.92,0,0,0,.81-.16,1.69,1.69,0,0,0,.64-.45,1.91,1.91,0,0,0,.4-.68,2.46,2.46,0,0,0,0-1.69,2,2,0,0,0-.4-.68,2,2,0,0,0-.64-.45A1.92,1.92,0,0,0,1026.53,610.2Z" transform="translate(-9.7 -185.46)"/><path class="cls-2" d="M1037,608.26a3.18,3.18,0,0,1,1.21.22,2.81,2.81,0,0,1,1,.61,3,3,0,0,1,.62,1,3.25,3.25,0,0,1,.23,1.23v4.94h-2.09V612a1.86,1.86,0,0,0-.4-1.29,1.38,1.38,0,0,0-1.11-.44,1.91,1.91,0,0,0-.64.1,1.65,1.65,0,0,0-.52.33,1.48,1.48,0,0,0-.35.55,2,2,0,0,0-.13.77v4.25h-2.09v-7.76h2v.92a2.35,2.35,0,0,1,1-.87A3.18,3.18,0,0,1,1037,608.26Z" transform="translate(-9.7 -185.46)"/><path class="cls-2" d="M1047.71,610.62l-.52-.22c-.2-.07-.4-.14-.62-.2a6.38,6.38,0,0,0-.66-.15,3.88,3.88,0,0,0-.67-.06,1.77,1.77,0,0,0-.9.19.6.6,0,0,0-.29.52.4.4,0,0,0,.1.28.8.8,0,0,0,.27.18,1.73,1.73,0,0,0,.4.12l.49.08.69.1a4,4,0,0,1,1.94.76,1.94,1.94,0,0,1,.68,1.56,2.42,2.42,0,0,1-.24,1.09,2.23,2.23,0,0,1-.7.83,3.43,3.43,0,0,1-1.12.53,5.69,5.69,0,0,1-1.5.19c-.27,0-.55,0-.85,0a7.19,7.19,0,0,1-.89-.15,5.18,5.18,0,0,1-.9-.28,3.53,3.53,0,0,1-.81-.44l.82-1.58a4.54,4.54,0,0,0,.53.3,3.13,3.13,0,0,0,.6.24,3.77,3.77,0,0,0,.7.16,5.13,5.13,0,0,0,.81.06,2.29,2.29,0,0,0,1.08-.19.59.59,0,0,0,.35-.54.52.52,0,0,0-.3-.45,3,3,0,0,0-1-.26l-.64-.09c-1.78-.24-2.67-1-2.67-2.35a2.44,2.44,0,0,1,.22-1.07,2.14,2.14,0,0,1,.65-.79,2.86,2.86,0,0,1,1-.5,4.91,4.91,0,0,1,1.38-.18,8.18,8.18,0,0,1,.88,0,7.37,7.37,0,0,1,.82.13c.26.07.52.14.77.23a6.37,6.37,0,0,1,.77.33Z" transform="translate(-9.7 -185.46)"/><path class="cls-2" d="M1057,615.64v-2.79h-2.77v-1.79H1057v-2.79h1.82v2.79h2.77v1.79h-2.77v2.79Z" transform="translate(-9.7 -185.46)"/><path class="cls-2" d="M1009.21,557.07h-5.91v-2.28h5.91Z" transform="translate(-9.7 -185.46)"/><path class="cls-2" d="M1016.36,547a5.24,5.24,0,0,1,2.09.43,4.68,4.68,0,0,1,1.73,1.32,6.78,6.78,0,0,1,1.17,2.26,11.15,11.15,0,0,1,.43,3.24,11.51,11.51,0,0,1-.43,3.33,6.31,6.31,0,0,1-1.17,2.24,4.47,4.47,0,0,1-1.73,1.28,5.4,5.4,0,0,1-2.09.4,5.64,5.64,0,0,1-2.13-.4,4.53,4.53,0,0,1-1.75-1.28,6.18,6.18,0,0,1-1.19-2.24,12.78,12.78,0,0,1,0-6.65,6.31,6.31,0,0,1,1.19-2.25,4.53,4.53,0,0,1,1.75-1.28A5.84,5.84,0,0,1,1016.36,547Zm0,2.59a2.37,2.37,0,0,0-1,.24,2.34,2.34,0,0,0-.87.77,4.19,4.19,0,0,0-.59,1.44,11.26,11.26,0,0,0,0,4.43,4.13,4.13,0,0,0,.59,1.43,2.28,2.28,0,0,0,.87.78,2.37,2.37,0,0,0,1,.24,2.14,2.14,0,0,0,1.84-1,4.14,4.14,0,0,0,.58-1.43,9.34,9.34,0,0,0,.22-2.22,8.74,8.74,0,0,0-.22-2.12,4.52,4.52,0,0,0-.58-1.45,2.37,2.37,0,0,0-.84-.83A2.1,2.1,0,0,0,1016.36,549.59Z" transform="translate(-9.7 -185.46)"/><path class="cls-2" d="M1026.76,558.09l-1.4,6h-2.2l.67-6Z" transform="translate(-9.7 -185.46)"/><path class="cls-2" d="M1028.62,549.42a6.77,6.77,0,0,1,.7-.8,5.45,5.45,0,0,1,1-.79,5.89,5.89,0,0,1,1.34-.59,5.81,5.81,0,0,1,1.74-.24,5.63,5.63,0,0,1,2,.33,4.28,4.28,0,0,1,1.49.93,4,4,0,0,1,1,1.43,5,5,0,0,1,.33,1.83,4.2,4.2,0,0,1-.16,1.2,4.8,4.8,0,0,1-.42,1,6,6,0,0,1-.64.94c-.25.3-.51.6-.8.9l-3,3.11h5.35v2.53h-9.25v-2.11l5-5.07a4.54,4.54,0,0,0,.85-1.15,2.71,2.71,0,0,0,.3-1.25,2.13,2.13,0,0,0-.16-.84,2.09,2.09,0,0,0-.43-.66,2,2,0,0,0-.68-.43,2.41,2.41,0,0,0-.87-.16,3.22,3.22,0,0,0-.91.13,3.09,3.09,0,0,0-.74.33,3.79,3.79,0,0,0-.63.49c-.2.19-.38.39-.56.59Z" transform="translate(-9.7 -185.46)"/><path class="cls-2" d="M1049.14,556.17h1.95v2.52h-1.95v2.56h-2.7v-2.56h-6.21v-2l4.91-9.47h3l-4.68,8.91h3v-3.73h2.7Z" transform="translate(-9.7 -185.46)"/><line class="cls-3" x1="48.11" y1="206.05" x2="1069.93" y2="206.05"/><path class="cls-2" d="M14.42,576.58H9.7v-1.83h4.72Z" transform="translate(-9.7 -185.46)"/><path class="cls-2" d="M20.14,568.52a4.14,4.14,0,0,1,1.68.34,3.88,3.88,0,0,1,1.38,1.06,5.33,5.33,0,0,1,.94,1.81,9,9,0,0,1,.34,2.59,9.3,9.3,0,0,1-.34,2.66,5.27,5.27,0,0,1-.94,1.8,3.76,3.76,0,0,1-1.38,1,4.48,4.48,0,0,1-1.68.32,4.59,4.59,0,0,1-1.7-.32,3.75,3.75,0,0,1-1.4-1,5.12,5.12,0,0,1-.95-1.8,10.28,10.28,0,0,1,0-5.32,5.12,5.12,0,0,1,.95-1.8,3.54,3.54,0,0,1,1.4-1A4.59,4.59,0,0,1,20.14,568.52Zm0,2.07a1.83,1.83,0,0,0-.82.19,1.78,1.78,0,0,0-.7.62,3.52,3.52,0,0,0-.48,1.15,9.3,9.3,0,0,0,0,3.54,3.52,3.52,0,0,0,.48,1.15,1.78,1.78,0,0,0,.7.62,1.83,1.83,0,0,0,.82.19,1.71,1.71,0,0,0,.8-.19,1.8,1.8,0,0,0,.68-.62,3.53,3.53,0,0,0,.46-1.15,7.42,7.42,0,0,0,.18-1.77,7,7,0,0,0-.18-1.7,3.79,3.79,0,0,0-.46-1.16,1.94,1.94,0,0,0-.68-.66A1.62,1.62,0,0,0,20.14,570.59Z" transform="translate(-9.7 -185.46)"/><path class="cls-2" d="M28.46,577.39l-1.12,4.77H25.58l.54-4.77Z" transform="translate(-9.7 -185.46)"/><path class="cls-2" d="M33.65,568.52a5.4,5.4,0,0,1,1.61.23,4,4,0,0,1,1.26.65,2.94,2.94,0,0,1,1.1,2.34,2.58,2.58,0,0,1-.45,1.53,2.88,2.88,0,0,1-1.23,1,3.29,3.29,0,0,1,1.41,1,2.49,2.49,0,0,1,.51,1.57,2.89,2.89,0,0,1-.34,1.44,3.13,3.13,0,0,1-.93,1,4,4,0,0,1-1.32.61,6.08,6.08,0,0,1-1.54.2,5.8,5.8,0,0,1-2.26-.42,4.41,4.41,0,0,1-1.65-1.2l1.29-1.42a3.38,3.38,0,0,0,1.15.79,3.54,3.54,0,0,0,1.4.28,3.1,3.1,0,0,0,.76-.09,1.93,1.93,0,0,0,.62-.26,1.31,1.31,0,0,0,.58-1.1,1.17,1.17,0,0,0-.18-.64,1.48,1.48,0,0,0-.47-.46,2.62,2.62,0,0,0-.7-.28,3.76,3.76,0,0,0-.85-.09h-1.3v-1.92h1.31a3.19,3.19,0,0,0,.77-.09,1.81,1.81,0,0,0,.62-.26,1.29,1.29,0,0,0,.42-.45,1.36,1.36,0,0,0,0-1.22,1.21,1.21,0,0,0-.4-.44,1.78,1.78,0,0,0-.59-.27,3,3,0,0,0-1.45,0,2.44,2.44,0,0,0-.62.25,2.68,2.68,0,0,0-.52.36,3.19,3.19,0,0,0-.4.43l-1.36-1.36a4.16,4.16,0,0,1,.64-.69,3.63,3.63,0,0,1,.83-.55,4.65,4.65,0,0,1,1-.37A5.36,5.36,0,0,1,33.65,568.52Z" transform="translate(-9.7 -185.46)"/><path class="cls-2" d="M14.42,514.73H9.7v-1.82h4.72Z" transform="translate(-9.7 -185.46)"/><path class="cls-2" d="M20.14,506.67a4.14,4.14,0,0,1,1.68.35,3.85,3.85,0,0,1,1.38,1.05,5.42,5.42,0,0,1,.94,1.81,9,9,0,0,1,.34,2.59,9.3,9.3,0,0,1-.34,2.66,5.09,5.09,0,0,1-.94,1.8,3.76,3.76,0,0,1-1.38,1,4.3,4.3,0,0,1-1.68.32,4.4,4.4,0,0,1-1.7-.32,3.75,3.75,0,0,1-1.4-1,5,5,0,0,1-.95-1.8,10.28,10.28,0,0,1,0-5.32A5.12,5.12,0,0,1,17,508a3.75,3.75,0,0,1,1.4-1A4.59,4.59,0,0,1,20.14,506.67Zm0,2.08a2,2,0,0,0-.82.18,1.86,1.86,0,0,0-.7.62,3.52,3.52,0,0,0-.48,1.15,9.35,9.35,0,0,0,0,3.55,3.46,3.46,0,0,0,.48,1.14,1.71,1.71,0,0,0,.7.62,1.83,1.83,0,0,0,.82.19,1.74,1.74,0,0,0,1.48-.81,3.47,3.47,0,0,0,.46-1.14,7.45,7.45,0,0,0,.18-1.78,7,7,0,0,0-.18-1.7,3.9,3.9,0,0,0-.46-1.16,1.94,1.94,0,0,0-.68-.66A1.72,1.72,0,0,0,20.14,508.75Z" transform="translate(-9.7 -185.46)"/><path class="cls-2" d="M28.46,515.55l-1.12,4.76H25.58l.54-4.76Z" transform="translate(-9.7 -185.46)"/><path class="cls-2" d="M30,508.6a6.06,6.06,0,0,1,.56-.63,4,4,0,0,1,.8-.63,5,5,0,0,1,1.07-.48,4.92,4.92,0,0,1,1.39-.19,4.42,4.42,0,0,1,1.59.27,3.33,3.33,0,0,1,1.2.74,3.28,3.28,0,0,1,.75,1.14,3.92,3.92,0,0,1,.27,1.47,3.71,3.71,0,0,1-.13,1,4.35,4.35,0,0,1-.34.84,4.52,4.52,0,0,1-.51.75c-.2.24-.41.48-.64.72l-2.39,2.49h4.28v2h-7.4v-1.68l4-4.06a3.69,3.69,0,0,0,.68-.92,2.2,2.2,0,0,0,.24-1,1.63,1.63,0,0,0-.13-.67,1.58,1.58,0,0,0-.35-.53,1.37,1.37,0,0,0-.54-.35,1.92,1.92,0,0,0-.69-.12,2.39,2.39,0,0,0-.73.1,2.3,2.3,0,0,0-.6.27,3.07,3.07,0,0,0-.5.39c-.15.15-.3.3-.45.47Z" transform="translate(-9.7 -185.46)"/><path class="cls-2" d="M14.42,454.21H9.7v-1.83h4.72Z" transform="translate(-9.7 -185.46)"/><path class="cls-2" d="M20.14,446.15a4.14,4.14,0,0,1,1.68.35,3.85,3.85,0,0,1,1.38,1.05,5.42,5.42,0,0,1,.94,1.81,9,9,0,0,1,.34,2.59,9.3,9.3,0,0,1-.34,2.66,5.18,5.18,0,0,1-.94,1.8,3.76,3.76,0,0,1-1.38,1,4.48,4.48,0,0,1-1.68.32,4.59,4.59,0,0,1-1.7-.32,3.75,3.75,0,0,1-1.4-1,5,5,0,0,1-.95-1.8,10.28,10.28,0,0,1,0-5.32,5.12,5.12,0,0,1,.95-1.8,3.75,3.75,0,0,1,1.4-1A4.59,4.59,0,0,1,20.14,446.15Zm0,2.07a2,2,0,0,0-.82.19,1.78,1.78,0,0,0-.7.62,3.52,3.52,0,0,0-.48,1.15A8,8,0,0,0,18,452a7.91,7.91,0,0,0,.17,1.77,3.52,3.52,0,0,0,.48,1.15,1.71,1.71,0,0,0,.7.62,1.83,1.83,0,0,0,.82.19,1.74,1.74,0,0,0,1.48-.81,3.53,3.53,0,0,0,.46-1.15,7.3,7.3,0,0,0,.18-1.77,7,7,0,0,0-.18-1.7,3.79,3.79,0,0,0-.46-1.16,1.94,1.94,0,0,0-.68-.66A1.62,1.62,0,0,0,20.14,448.22Z" transform="translate(-9.7 -185.46)"/><path class="cls-2" d="M28.46,455l-1.12,4.77H25.58l.54-4.77Z" transform="translate(-9.7 -185.46)"/><path class="cls-2" d="M33.42,455.5v-6.42l-2.79,1v-2.15l4.94-1.74v9.32H38.1v2.05H30.76V455.5Z" transform="translate(-9.7 -185.46)"/><path class="cls-2" d="M21,385.63a4.26,4.26,0,0,1,1.67.34A3.71,3.71,0,0,1,24,387a5.25,5.25,0,0,1,.94,1.81,8.65,8.65,0,0,1,.34,2.59,9,9,0,0,1-.34,2.66,5.11,5.11,0,0,1-.94,1.8,3.6,3.6,0,0,1-1.38,1,4.43,4.43,0,0,1-1.67.32,4.64,4.64,0,0,1-1.71-.32,3.75,3.75,0,0,1-1.4-1,5.29,5.29,0,0,1-1-1.8,10.28,10.28,0,0,1,0-5.32,5.29,5.29,0,0,1,1-1.8,3.54,3.54,0,0,1,1.4-1A4.64,4.64,0,0,1,21,385.63Zm0,2.07a2,2,0,0,0-.83.19,1.78,1.78,0,0,0-.7.62,3.32,3.32,0,0,0-.47,1.15,8.79,8.79,0,0,0,0,3.54,3.32,3.32,0,0,0,.47,1.15,1.71,1.71,0,0,0,.7.62,1.84,1.84,0,0,0,.83.19,1.77,1.77,0,0,0,.8-.19,1.7,1.7,0,0,0,.67-.62,3.53,3.53,0,0,0,.47-1.15,8,8,0,0,0,.17-1.77,7.56,7.56,0,0,0-.17-1.7,3.79,3.79,0,0,0-.47-1.16,1.91,1.91,0,0,0-.67-.66A1.68,1.68,0,0,0,21,387.7Z" transform="translate(-9.7 -185.46)"/><path class="cls-2" d="M29.28,394.5l-1.12,4.77H26.4l.53-4.77Z" transform="translate(-9.7 -185.46)"/><path class="cls-2" d="M34.83,385.63a4.26,4.26,0,0,1,1.67.34A3.71,3.71,0,0,1,37.88,387a5.25,5.25,0,0,1,.94,1.81,8.65,8.65,0,0,1,.34,2.59,9,9,0,0,1-.34,2.66,5.11,5.11,0,0,1-.94,1.8,3.6,3.6,0,0,1-1.38,1,4.43,4.43,0,0,1-1.67.32,4.68,4.68,0,0,1-1.71-.32,3.75,3.75,0,0,1-1.4-1,5.29,5.29,0,0,1-.95-1.8,10.28,10.28,0,0,1,0-5.32,5.29,5.29,0,0,1,.95-1.8,3.54,3.54,0,0,1,1.4-1A4.68,4.68,0,0,1,34.83,385.63Zm0,2.07a2,2,0,0,0-.83.19,1.85,1.85,0,0,0-.7.62,3.53,3.53,0,0,0-.47,1.15,8.79,8.79,0,0,0,0,3.54,3.53,3.53,0,0,0,.47,1.15,1.77,1.77,0,0,0,.7.62,1.84,1.84,0,0,0,.83.19,1.74,1.74,0,0,0,.8-.19,1.7,1.7,0,0,0,.67-.62,3.53,3.53,0,0,0,.47-1.15,8,8,0,0,0,.17-1.77,7.56,7.56,0,0,0-.17-1.7,3.79,3.79,0,0,0-.47-1.16,1.91,1.91,0,0,0-.67-.66A1.65,1.65,0,0,0,34.83,387.7Z" transform="translate(-9.7 -185.46)"/><path class="cls-2" d="M21,325.11a4.09,4.09,0,0,1,1.67.34A3.61,3.61,0,0,1,24,326.51a5.16,5.16,0,0,1,.94,1.81,8.65,8.65,0,0,1,.34,2.59,9,9,0,0,1-.34,2.66,5.11,5.11,0,0,1-.94,1.8,3.6,3.6,0,0,1-1.38,1,4.43,4.43,0,0,1-1.67.32,4.64,4.64,0,0,1-1.71-.32,3.75,3.75,0,0,1-1.4-1,5.29,5.29,0,0,1-1-1.8,10.28,10.28,0,0,1,0-5.32,5.29,5.29,0,0,1,1-1.8,3.54,3.54,0,0,1,1.4-1A4.64,4.64,0,0,1,21,325.11Zm0,2.07a1.84,1.84,0,0,0-.83.19,1.71,1.71,0,0,0-.7.62,3.32,3.32,0,0,0-.47,1.15,8.79,8.79,0,0,0,0,3.54,3.32,3.32,0,0,0,.47,1.15,1.78,1.78,0,0,0,.7.62,2,2,0,0,0,.83.19,1.91,1.91,0,0,0,.8-.19,1.78,1.78,0,0,0,.67-.62,3.53,3.53,0,0,0,.47-1.15,8,8,0,0,0,.17-1.77,7.56,7.56,0,0,0-.17-1.7,3.79,3.79,0,0,0-.47-1.16,1.91,1.91,0,0,0-.67-.66A1.68,1.68,0,0,0,21,327.18Z" transform="translate(-9.7 -185.46)"/><path class="cls-2" d="M29.28,334l-1.12,4.77H26.4l.53-4.77Z" transform="translate(-9.7 -185.46)"/><path class="cls-2" d="M34.23,334.46V328l-2.79,1v-2.15l4.94-1.75v9.33h2.54v2.05H31.57v-2.05Z" transform="translate(-9.7 -185.46)"/><path class="cls-2" d="M21,264.59a4.09,4.09,0,0,1,1.67.34A3.61,3.61,0,0,1,24,266,5.07,5.07,0,0,1,25,267.8a8.65,8.65,0,0,1,.34,2.59,9,9,0,0,1-.34,2.66,5,5,0,0,1-.94,1.79,3.41,3.41,0,0,1-1.38,1,4.25,4.25,0,0,1-1.67.33,4.45,4.45,0,0,1-1.71-.33,3.54,3.54,0,0,1-1.4-1,5.14,5.14,0,0,1-1-1.79,10.28,10.28,0,0,1,0-5.32,5.1,5.1,0,0,1,1-1.8,3.54,3.54,0,0,1,1.4-1A4.45,4.45,0,0,1,21,264.59Zm0,2.07a1.84,1.84,0,0,0-.83.19,1.71,1.71,0,0,0-.7.62,3.32,3.32,0,0,0-.47,1.15,7.3,7.3,0,0,0-.18,1.77,7.42,7.42,0,0,0,.18,1.77,3.32,3.32,0,0,0,.47,1.15,1.78,1.78,0,0,0,.7.62,2,2,0,0,0,.83.19,1.91,1.91,0,0,0,.8-.19,1.78,1.78,0,0,0,.67-.62,3.53,3.53,0,0,0,.47-1.15,8,8,0,0,0,.17-1.77,7.56,7.56,0,0,0-.17-1.7,3.79,3.79,0,0,0-.47-1.16,1.91,1.91,0,0,0-.67-.66A1.68,1.68,0,0,0,21,266.66Z" transform="translate(-9.7 -185.46)"/><path class="cls-2" d="M29.28,273.46l-1.12,4.77H26.4l.53-4.77Z" transform="translate(-9.7 -185.46)"/><path class="cls-2" d="M30.76,266.52a7.3,7.3,0,0,1,.56-.64,4.28,4.28,0,0,1,.8-.63,4.45,4.45,0,0,1,1.08-.47,4.54,4.54,0,0,1,1.39-.19,4.63,4.63,0,0,1,1.58.26,3.47,3.47,0,0,1,1.2.74,3.1,3.1,0,0,1,.75,1.15,3.83,3.83,0,0,1,.27,1.46,3.32,3.32,0,0,1-.13,1,3.44,3.44,0,0,1-.34.84,4.59,4.59,0,0,1-.51.76c-.2.24-.41.48-.64.72L34.38,274h4.28v2h-7.4V274.3l4-4.06a3.46,3.46,0,0,0,.68-.92,2.14,2.14,0,0,0,.24-1,1.81,1.81,0,0,0-.12-.67,1.75,1.75,0,0,0-.35-.53,1.5,1.5,0,0,0-.54-.34,1.78,1.78,0,0,0-.7-.13,2.39,2.39,0,0,0-.73.1,2.88,2.88,0,0,0-.59.27,3.14,3.14,0,0,0-.51.39c-.15.15-.3.31-.44.47Z" transform="translate(-9.7 -185.46)"/><path class="cls-2" d="M21,204.07a4.09,4.09,0,0,1,1.67.34A3.61,3.61,0,0,1,24,205.47a5.11,5.11,0,0,1,.94,1.8,8.72,8.72,0,0,1,.34,2.6,9,9,0,0,1-.34,2.66,5,5,0,0,1-.94,1.79,3.41,3.41,0,0,1-1.38,1,4.25,4.25,0,0,1-1.67.33,4.45,4.45,0,0,1-1.71-.33,3.54,3.54,0,0,1-1.4-1,5.14,5.14,0,0,1-1-1.79,10.28,10.28,0,0,1,0-5.32,5.1,5.1,0,0,1,1-1.8,3.54,3.54,0,0,1,1.4-1A4.45,4.45,0,0,1,21,204.07Zm0,2.07a1.84,1.84,0,0,0-.83.19,1.71,1.71,0,0,0-.7.62,3.26,3.26,0,0,0-.47,1.14,8.84,8.84,0,0,0,0,3.55,3.32,3.32,0,0,0,.47,1.15,1.86,1.86,0,0,0,.7.62,2,2,0,0,0,.83.18,1.9,1.9,0,0,0,.8-.18,1.87,1.87,0,0,0,.67-.62,3.53,3.53,0,0,0,.47-1.15,8,8,0,0,0,.17-1.77,7.5,7.5,0,0,0-.17-1.7,3.69,3.69,0,0,0-.47-1.16,1.76,1.76,0,0,0-.67-.66A1.68,1.68,0,0,0,21,206.14Z" transform="translate(-9.7 -185.46)"/><path class="cls-2" d="M29.28,212.94l-1.12,4.77H26.4l.53-4.77Z" transform="translate(-9.7 -185.46)"/><path class="cls-2" d="M34.46,204.07a5.2,5.2,0,0,1,1.62.23,3.8,3.8,0,0,1,1.25.65,2.92,2.92,0,0,1,.81,1,3,3,0,0,1,.29,1.32,2.62,2.62,0,0,1-.45,1.54,3.06,3.06,0,0,1-1.22,1,3.26,3.26,0,0,1,1.4,1,2.46,2.46,0,0,1,.52,1.56,2.91,2.91,0,0,1-.35,1.45,3,3,0,0,1-.93,1,4.22,4.22,0,0,1-1.32.61,5.94,5.94,0,0,1-1.53.2,5.85,5.85,0,0,1-2.27-.43,4.1,4.1,0,0,1-1.64-1.2l1.28-1.41a3.46,3.46,0,0,0,1.16.79,3.63,3.63,0,0,0,1.39.28,3.1,3.1,0,0,0,.76-.09,2,2,0,0,0,.63-.27,1.51,1.51,0,0,0,.42-.45,1.36,1.36,0,0,0,.15-.65,1.19,1.19,0,0,0-.17-.63,1.63,1.63,0,0,0-.48-.46,2.13,2.13,0,0,0-.69-.28,3.89,3.89,0,0,0-.85-.09H32.93v-1.92h1.31a3.13,3.13,0,0,0,.77-.09,1.94,1.94,0,0,0,.62-.27,1.29,1.29,0,0,0,.42-.45,1.36,1.36,0,0,0,0-1.22,1.4,1.4,0,0,0-.4-.44,1.93,1.93,0,0,0-.58-.26,2.48,2.48,0,0,0-.73-.1,2.43,2.43,0,0,0-.73.1,3.07,3.07,0,0,0-.62.24,3.25,3.25,0,0,0-.52.37,4,4,0,0,0-.4.43l-1.36-1.37a5.88,5.88,0,0,1,.64-.69,4.51,4.51,0,0,1,.84-.55,5.11,5.11,0,0,1,1-.36A5.36,5.36,0,0,1,34.46,204.07Z" transform="translate(-9.7 -185.46)"/><line class="cls-4" x1="48.11" y1="387.96" x2="48.11" y2="24.18"/><line class="cls-5" x1="47.11" y1="387.61" x2="57.11" y2="387.61"/><line class="cls-5" x1="47.11" y1="327.09" x2="57.11" y2="327.09"/><line class="cls-5" x1="47.11" y1="266.57" x2="57.11" y2="266.57"/><line class="cls-5" x1="47.11" y1="206.05" x2="57.11" y2="206.05"/><line class="cls-5" x1="47.11" y1="145.53" x2="57.11" y2="145.53"/><line class="cls-5" x1="47.11" y1="85.01" x2="57.11" y2="85.01"/><line class="cls-5" x1="47.11" y1="24.48" x2="57.11" y2="24.48"/></svg>