<svg id="Layer_1" data-name="Layer 1" xmlns="http://www.w3.org/2000/svg" viewBox="0 0 1069.93 433.96"><defs><style>.cls-1{fill:#ed5b35;}.cls-2{fill:#203232;}.cls-3,.cls-4,.cls-5{fill:none;stroke:#203232;stroke-miterlimit:10;}.cls-3{stroke-width:1.99px;}.cls-4{stroke-width:2px;}.cls-5{stroke-width:0.62px;}</style></defs><rect class="cls-1" x="100.1" y="24.48" width="36.6" height="181.57"/><path class="cls-2" d="M119.81,585.82a8,8,0,0,1,1.77.18,3.8,3.8,0,0,1,1.34.57,2.56,2.56,0,0,1,.85,1,3.12,3.12,0,0,1,.29,1.38,2.63,2.63,0,0,1-.12.8,2.55,2.55,0,0,1-.34.68,2.63,2.63,0,0,1-.51.54,2.76,2.76,0,0,1-.65.36,2.56,2.56,0,0,1,.72.36,2.46,2.46,0,0,1,.59.57,2.55,2.55,0,0,1,.55,1.58,3.26,3.26,0,0,1-.28,1.41,2.56,2.56,0,0,1-.82,1,4,4,0,0,1-1.32.6,7.42,7.42,0,0,1-1.79.2h-4.85v-11.2Zm-2.34,2v2.62h2.29a6.1,6.1,0,0,0,.77,0,1.94,1.94,0,0,0,.63-.2,1,1,0,0,0,.42-.41,1.29,1.29,0,0,0,.15-.66,1.21,1.21,0,0,0-.15-.64,1.18,1.18,0,0,0-.43-.4,1.81,1.81,0,0,0-.62-.2,4.75,4.75,0,0,0-.78-.06Zm0,4.58v2.69H120a5.35,5.35,0,0,0,.84-.06,1.8,1.8,0,0,0,.63-.22,1,1,0,0,0,.4-.42,1.63,1.63,0,0,0,0-1.32,1,1,0,0,0-.4-.41,1.8,1.8,0,0,0-.63-.21,5.35,5.35,0,0,0-.84-.06Z" transform="translate(-15.07 -185.46)"/><path class="cls-2" d="M133.79,597h-2v-.86a2.83,2.83,0,0,1-.95.76,2.92,2.92,0,0,1-1.37.3,3.56,3.56,0,0,1-1.49-.32,3.6,3.6,0,0,1-1.19-.85,3.93,3.93,0,0,1-.79-1.29,4.52,4.52,0,0,1-.28-1.62,4.45,4.45,0,0,1,.28-1.62,4,4,0,0,1,.79-1.3,3.75,3.75,0,0,1,1.19-.85,3.55,3.55,0,0,1,1.49-.31,2.92,2.92,0,0,1,1.37.29,2.86,2.86,0,0,1,.95.77v-.86h2Zm-4-6a2,2,0,0,0-.82.17,2,2,0,0,0-.64.45,2.3,2.3,0,0,0-.4.68,2.6,2.6,0,0,0-.14.84,2.49,2.49,0,0,0,.14.83,2.18,2.18,0,0,0,.4.68,2,2,0,0,0,.64.45,1.83,1.83,0,0,0,.82.17,2,2,0,0,0,.82-.16,1.59,1.59,0,0,0,.63-.45,1.93,1.93,0,0,0,.41-.68,2.62,2.62,0,0,0,0-1.69,2,2,0,0,0-.41-.68,1.81,1.81,0,0,0-.63-.45A2,2,0,0,0,129.81,591Z" transform="translate(-15.07 -185.46)"/><path class="cls-2" d="M140.29,589.06a3.23,3.23,0,0,1,1.22.22,2.68,2.68,0,0,1,1,.61,2.86,2.86,0,0,1,.63,1,3.24,3.24,0,0,1,.22,1.23V597h-2.09v-4.27a1.91,1.91,0,0,0-.39-1.29,1.42,1.42,0,0,0-1.12-.44,2,2,0,0,0-.64.1,1.65,1.65,0,0,0-.52.33,1.79,1.79,0,0,0-.35.55,2,2,0,0,0-.13.77V597H136v-7.76h2v.92a2.35,2.35,0,0,1,1-.87A3.18,3.18,0,0,1,140.29,589.06Z" transform="translate(-15.07 -185.46)"/><path class="cls-2" d="M147.53,592h.73l2.19-2.76H153L150,592.91,153,597h-2.57l-2.23-3.14h-.7V597h-2.09V585.5h2.09Z" transform="translate(-15.07 -185.46)"/><path class="cls-2" d="M119.54,616.22h-8.15V605h2.23v9.11h5.92Z" transform="translate(-15.07 -185.46)"/><path class="cls-2" d="M124.62,608.26a4.64,4.64,0,0,1,1.68.3,4,4,0,0,1,2.21,2.16,4.07,4.07,0,0,1,.31,1.62,4.14,4.14,0,0,1-.31,1.62,4,4,0,0,1-2.21,2.15,4.64,4.64,0,0,1-1.68.31,4.55,4.55,0,0,1-1.67-.31,4,4,0,0,1-1.32-.86,3.75,3.75,0,0,1-.88-1.29,4.14,4.14,0,0,1-.31-1.62,4.07,4.07,0,0,1,.31-1.62,3.88,3.88,0,0,1,.88-1.3,4.13,4.13,0,0,1,1.32-.86A4.55,4.55,0,0,1,124.62,608.26Zm0,1.94a2,2,0,0,0-.81.16,2,2,0,0,0-.66.44,2.2,2.2,0,0,0-.43.67,2.57,2.57,0,0,0,0,1.73,2.25,2.25,0,0,0,.43.68,2.12,2.12,0,0,0,.66.44,2.29,2.29,0,0,0,1.63,0,2.12,2.12,0,0,0,.66-.44,2.07,2.07,0,0,0,.43-.68,2.42,2.42,0,0,0,0-1.73,2,2,0,0,0-.43-.67,2,2,0,0,0-.66-.44A2,2,0,0,0,124.62,610.2Z" transform="translate(-15.07 -185.46)"/><path class="cls-2" d="M138.16,616.22h-2v-.86a2.88,2.88,0,0,1-2.32,1.06,3.68,3.68,0,0,1-2.68-1.17,3.83,3.83,0,0,1-.79-1.29,4.52,4.52,0,0,1-.28-1.62,4.45,4.45,0,0,1,.28-1.62,4,4,0,0,1,.79-1.3,3.64,3.64,0,0,1,1.19-.85,3.52,3.52,0,0,1,1.49-.31,2.92,2.92,0,0,1,1.37.29,3,3,0,0,1,1,.77v-.86h2Zm-4-6a2.05,2.05,0,0,0-.83.17,2,2,0,0,0-.63.45,2.3,2.3,0,0,0-.4.68,2.6,2.6,0,0,0-.14.84,2.49,2.49,0,0,0,.14.83,2.18,2.18,0,0,0,.4.68,2,2,0,0,0,.63.45,1.9,1.9,0,0,0,.83.17,2,2,0,0,0,.82-.16,1.74,1.74,0,0,0,.63-.45,1.93,1.93,0,0,0,.41-.68,2.62,2.62,0,0,0,0-1.69,1.94,1.94,0,0,0-1-1.13A2,2,0,0,0,134.18,610.2Z" transform="translate(-15.07 -185.46)"/><path class="cls-2" d="M144.66,608.26a3.18,3.18,0,0,1,1.21.22,2.66,2.66,0,0,1,1.58,1.57,3.25,3.25,0,0,1,.23,1.23v4.94h-2.09V612a1.86,1.86,0,0,0-.4-1.29,1.38,1.38,0,0,0-1.11-.44,1.91,1.91,0,0,0-.64.1,1.65,1.65,0,0,0-.52.33,1.79,1.79,0,0,0-.35.55,2,2,0,0,0-.13.77v4.25h-2.09v-7.76h2v.92a2.35,2.35,0,0,1,1-.87A3.18,3.18,0,0,1,144.66,608.26Z" transform="translate(-15.07 -185.46)"/><path class="cls-2" d="M155.37,610.62l-.53-.22-.61-.2c-.22-.06-.44-.11-.67-.15a3.88,3.88,0,0,0-.67-.06,1.71,1.71,0,0,0-.89.19.59.59,0,0,0-.3.52.4.4,0,0,0,.1.28.91.91,0,0,0,.27.18,1.73,1.73,0,0,0,.4.12l.5.08.68.1a4,4,0,0,1,1.94.76,1.94,1.94,0,0,1,.68,1.56,2.42,2.42,0,0,1-.24,1.09,2.23,2.23,0,0,1-.7.83,3.33,3.33,0,0,1-1.12.53,5.69,5.69,0,0,1-1.5.19,8.21,8.21,0,0,1-.84,0,7,7,0,0,1-.9-.15,4.83,4.83,0,0,1-.89-.28,3.4,3.4,0,0,1-.82-.44l.83-1.58a4.4,4.4,0,0,0,.52.3,3,3,0,0,0,.61.24,3.66,3.66,0,0,0,.69.16,5.17,5.17,0,0,0,.82.06,2.35,2.35,0,0,0,1.08-.19.6.6,0,0,0,.35-.54.52.52,0,0,0-.31-.45,3,3,0,0,0-1-.26l-.63-.09c-1.79-.24-2.68-1-2.68-2.35a2.44,2.44,0,0,1,.22-1.07,2.24,2.24,0,0,1,.65-.79,2.83,2.83,0,0,1,1-.5,4.79,4.79,0,0,1,1.37-.18,8.18,8.18,0,0,1,.88,0,7,7,0,0,1,.82.13c.26.07.52.14.78.23a7,7,0,0,1,.76.33Z" transform="translate(-15.07 -185.46)"/><path class="cls-2" d="M118.74,185.46a5.08,5.08,0,0,1,2.09.43,4.68,4.68,0,0,1,1.73,1.32,6.69,6.69,0,0,1,1.17,2.26,10.73,10.73,0,0,1,.43,3.24,11.06,11.06,0,0,1-.43,3.32,6.45,6.45,0,0,1-1.17,2.25,4.44,4.44,0,0,1-1.73,1.27,5.41,5.41,0,0,1-2.09.41,5.65,5.65,0,0,1-2.13-.41,4.51,4.51,0,0,1-1.75-1.27,6.31,6.31,0,0,1-1.19-2.25,11,11,0,0,1-.44-3.32,11.15,11.15,0,0,1,.44-3.33,6.49,6.49,0,0,1,1.19-2.25,4.51,4.51,0,0,1,1.75-1.27A5.64,5.64,0,0,1,118.74,185.46Zm0,2.59a2.46,2.46,0,0,0-1,.23,2.31,2.31,0,0,0-.88.78,4.43,4.43,0,0,0-.59,1.43,9.34,9.34,0,0,0-.22,2.22,9.19,9.19,0,0,0,.22,2.21,4.4,4.4,0,0,0,.59,1.44,2.2,2.2,0,0,0,.88.77,2.32,2.32,0,0,0,1,.24,2.2,2.2,0,0,0,1-.24,2.11,2.11,0,0,0,.84-.77,4.4,4.4,0,0,0,.59-1.44,9.79,9.79,0,0,0,.21-2.21,9.35,9.35,0,0,0-.21-2.13,4.76,4.76,0,0,0-.59-1.45,2.34,2.34,0,0,0-.84-.82A2.1,2.1,0,0,0,118.74,188.05Z" transform="translate(-15.07 -185.46)"/><path class="cls-2" d="M127.48,196.08a1.85,1.85,0,0,1,.74.15,2.08,2.08,0,0,1,1,1,1.9,1.9,0,0,1,0,1.48,2.13,2.13,0,0,1-.43.63,1.85,1.85,0,0,1-.61.42,1.79,1.79,0,0,1-1.48,0,1.79,1.79,0,0,1-.62-.42,2.13,2.13,0,0,1-.43-.63,1.79,1.79,0,0,1,0-1.48,2.22,2.22,0,0,1,.43-.62,2.12,2.12,0,0,1,.62-.42A1.85,1.85,0,0,1,127.48,196.08Z" transform="translate(-15.07 -185.46)"/><path class="cls-2" d="M135.82,185.46a6.75,6.75,0,0,1,2,.29,4.61,4.61,0,0,1,1.56.81,3.62,3.62,0,0,1,1.38,2.92,3.27,3.27,0,0,1-.56,1.92,3.83,3.83,0,0,1-1.53,1.26,4.09,4.09,0,0,1,1.75,1.25,3.08,3.08,0,0,1,.65,2,3.58,3.58,0,0,1-.44,1.8A3.92,3.92,0,0,1,139.5,199a5.2,5.2,0,0,1-1.65.76,7.22,7.22,0,0,1-1.92.25,7.33,7.33,0,0,1-2.84-.53,5.21,5.21,0,0,1-2.05-1.5l1.61-1.77a4.22,4.22,0,0,0,1.44,1,4.47,4.47,0,0,0,1.74.35,4.06,4.06,0,0,0,.95-.11,2.31,2.31,0,0,0,.78-.34,1.61,1.61,0,0,0,.53-.57,1.58,1.58,0,0,0,.19-.8,1.4,1.4,0,0,0-.22-.79,1.82,1.82,0,0,0-.59-.58,3.11,3.11,0,0,0-.87-.35,5.07,5.07,0,0,0-1.06-.11h-1.63v-2.4h1.64a4.06,4.06,0,0,0,.95-.11,2.31,2.31,0,0,0,.78-.34,1.58,1.58,0,0,0,.53-.56,1.49,1.49,0,0,0,.19-.77,1.54,1.54,0,0,0-.18-.75,1.64,1.64,0,0,0-.5-.55,2.34,2.34,0,0,0-.73-.34,3.82,3.82,0,0,0-1.82,0,3.85,3.85,0,0,0-.78.31,3.72,3.72,0,0,0-.64.46,3.6,3.6,0,0,0-.5.54l-1.7-1.71a5.37,5.37,0,0,1,.8-.86,4.7,4.7,0,0,1,1-.69,6,6,0,0,1,1.28-.46A6.83,6.83,0,0,1,135.82,185.46Z" transform="translate(-15.07 -185.46)"/><path class="cls-2" d="M148.28,185.46a5.08,5.08,0,0,1,2.09.43,4.68,4.68,0,0,1,1.73,1.32,6.69,6.69,0,0,1,1.17,2.26,10.73,10.73,0,0,1,.43,3.24,11.06,11.06,0,0,1-.43,3.32,6.45,6.45,0,0,1-1.17,2.25,4.44,4.44,0,0,1-1.73,1.27,5.41,5.41,0,0,1-2.09.41,5.65,5.65,0,0,1-2.13-.41,4.51,4.51,0,0,1-1.75-1.27,6.31,6.31,0,0,1-1.19-2.25,11,11,0,0,1-.44-3.32,11.15,11.15,0,0,1,.44-3.33,6.49,6.49,0,0,1,1.19-2.25,4.51,4.51,0,0,1,1.75-1.27A5.64,5.64,0,0,1,148.28,185.46Zm0,2.59a2.5,2.5,0,0,0-1,.23,2.28,2.28,0,0,0-.87.78,4.43,4.43,0,0,0-.59,1.43,9.34,9.34,0,0,0-.22,2.22,9.19,9.19,0,0,0,.22,2.21,4.4,4.4,0,0,0,.59,1.44,2.17,2.17,0,0,0,.87.77,2.37,2.37,0,0,0,1,.24,2.2,2.2,0,0,0,1-.24,2.11,2.11,0,0,0,.84-.77,4.19,4.19,0,0,0,.58-1.44,9.19,9.19,0,0,0,.22-2.21,8.77,8.77,0,0,0-.22-2.13,4.52,4.52,0,0,0-.58-1.45,2.34,2.34,0,0,0-.84-.82A2.1,2.1,0,0,0,148.28,188.05Z" transform="translate(-15.07 -185.46)"/><rect class="cls-1" x="229.04" y="121.32" width="36.6" height="84.73"/><path class="cls-2" d="M227.16,590.33h5.39v-4.51h2.23V597h-2.23v-4.61h-5.39V597h-2.23v-11.2h2.23Z" transform="translate(-15.07 -185.46)"/><path class="cls-2" d="M238.18,585.38a1.36,1.36,0,0,1,.53.11,1.34,1.34,0,0,1,.42.28,1.39,1.39,0,0,1,.28.43,1.36,1.36,0,0,1,.11.53,1.42,1.42,0,0,1-.39.95,1.34,1.34,0,0,1-.42.28,1.56,1.56,0,0,1-.53.1,1.5,1.5,0,0,1-.52-.1,1.39,1.39,0,0,1-.43-.28,1.28,1.28,0,0,1-.28-.43,1.46,1.46,0,0,1-.1-.52,1.56,1.56,0,0,1,.1-.53,1.24,1.24,0,0,1,.71-.71A1.31,1.31,0,0,1,238.18,585.38ZM239.24,597h-2.09v-7.76h2.09Z" transform="translate(-15.07 -185.46)"/><path class="cls-2" d="M244.52,589.06a3.26,3.26,0,0,1,1.41.28,3.06,3.06,0,0,1,1,.79v-.87H249v7.12a4.4,4.4,0,0,1-.3,1.67,3.32,3.32,0,0,1-.84,1.26,3.63,3.63,0,0,1-1.32.79,5.19,5.19,0,0,1-1.73.27,7.22,7.22,0,0,1-.92-.06,6.66,6.66,0,0,1-.91-.18,5.41,5.41,0,0,1-.83-.29,4,4,0,0,1-.73-.41l.74-1.7a5.48,5.48,0,0,0,1.22.59,4.57,4.57,0,0,0,1.34.2,2.84,2.84,0,0,0,.9-.13,1.94,1.94,0,0,0,.69-.39,1.79,1.79,0,0,0,.46-.65,2.21,2.21,0,0,0,.16-.89v-.54a2.71,2.71,0,0,1-1,.77,3.13,3.13,0,0,1-1.39.28,3.32,3.32,0,0,1-1.36-.29,3.2,3.2,0,0,1-1.13-.8,3.93,3.93,0,0,1-.79-1.24,4.7,4.7,0,0,1,0-3.25,4.1,4.1,0,0,1,.79-1.25,3.47,3.47,0,0,1,1.13-.8A3.31,3.31,0,0,1,244.52,589.06Zm.53,1.92a1.92,1.92,0,0,0-.81.16,1.82,1.82,0,0,0-.62.43,1.94,1.94,0,0,0-.39.65,2.33,2.33,0,0,0,0,1.59,1.9,1.9,0,0,0,.39.64,1.84,1.84,0,0,0,.62.44,1.92,1.92,0,0,0,.81.16,1.89,1.89,0,0,0,.79-.16,1.65,1.65,0,0,0,.61-.43,1.83,1.83,0,0,0,.4-.64,2.38,2.38,0,0,0,0-1.61,1.87,1.87,0,0,0-.4-.65,1.92,1.92,0,0,0-.61-.43A2.06,2.06,0,0,0,245.05,591Z" transform="translate(-15.07 -185.46)"/><path class="cls-2" d="M253.25,590.1a2.15,2.15,0,0,1,1-.81,3.12,3.12,0,0,1,1.22-.23,3.18,3.18,0,0,1,1.21.22,2.81,2.81,0,0,1,1,.61,3,3,0,0,1,.62,1,3.25,3.25,0,0,1,.23,1.23V597H256.4v-4.27a1.86,1.86,0,0,0-.4-1.29,1.38,1.38,0,0,0-1.11-.44,1.91,1.91,0,0,0-.64.1,1.65,1.65,0,0,0-.52.33,1.62,1.62,0,0,0-.35.55,2,2,0,0,0-.13.77V597h-2.09V585.49h2.09Z" transform="translate(-15.07 -185.46)"/><path class="cls-2" d="M269.73,592.6V597h-2.24v-4.43l-4.31-6.77h2.63l2.81,4.75,2.82-4.75H274Z" transform="translate(-15.07 -185.46)"/><path class="cls-2" d="M276,585.38a1.31,1.31,0,0,1,.52.11,1.24,1.24,0,0,1,.71.71,1.35,1.35,0,0,1,.1.53,1.35,1.35,0,0,1-.38.95,1.39,1.39,0,0,1-.43.28,1.5,1.5,0,0,1-.52.1,1.56,1.56,0,0,1-.53-.1,1.34,1.34,0,0,1-.42-.28,1.35,1.35,0,0,1-.38-.95,1.35,1.35,0,0,1,.1-.53,1.39,1.39,0,0,1,.28-.43,1.34,1.34,0,0,1,.42-.28A1.36,1.36,0,0,1,276,585.38ZM277.05,597H275v-7.76h2.08Z" transform="translate(-15.07 -185.46)"/><path class="cls-2" d="M282.69,589.06a4,4,0,0,1,1.53.29,3.7,3.7,0,0,1,1.19.83,4,4,0,0,1,.77,1.29,4.9,4.9,0,0,1,.27,1.66c0,.12,0,.25,0,.37s0,.24,0,.33h-5.49a2.09,2.09,0,0,0,.26.73,1.8,1.8,0,0,0,.45.5,1.67,1.67,0,0,0,.58.29,2.63,2.63,0,0,0,.7.09,2.83,2.83,0,0,0,1-.19,3.18,3.18,0,0,0,.94-.55l1.22,1.34a4.14,4.14,0,0,1-1.49.89,5.5,5.5,0,0,1-1.81.29,4.3,4.3,0,0,1-1.63-.3,3.52,3.52,0,0,1-1.27-.82,3.63,3.63,0,0,1-.83-1.28,4.42,4.42,0,0,1-.29-1.66,4.72,4.72,0,0,1,.28-1.67,3.87,3.87,0,0,1,.81-1.29,3.54,3.54,0,0,1,1.23-.84A4.11,4.11,0,0,1,282.69,589.06Zm0,1.8a1.62,1.62,0,0,0-1.18.41,2.05,2.05,0,0,0-.56,1.14h3.43a2,2,0,0,0-.58-1.15A1.56,1.56,0,0,0,282.67,590.86Z" transform="translate(-15.07 -185.46)"/><path class="cls-2" d="M290.25,597h-2.09V585.5h2.09Z" transform="translate(-15.07 -185.46)"/><path class="cls-2" d="M295.71,589.06a2.84,2.84,0,0,1,2.28,1V585.5h2.08V597h-2v-.86a2.83,2.83,0,0,1-.95.76,2.92,2.92,0,0,1-1.37.3,3.56,3.56,0,0,1-1.49-.32,3.5,3.5,0,0,1-1.19-.85,3.93,3.93,0,0,1-.79-1.29,4.52,4.52,0,0,1-.28-1.62,4.45,4.45,0,0,1,.28-1.62,4,4,0,0,1,.79-1.3,3.64,3.64,0,0,1,1.19-.85A3.55,3.55,0,0,1,295.71,589.06Zm.38,1.94a2.05,2.05,0,0,0-.83.17,2,2,0,0,0-.63.45,2.3,2.3,0,0,0-.4.68,2.6,2.6,0,0,0-.14.84,2.49,2.49,0,0,0,.14.83,2.18,2.18,0,0,0,.4.68,2,2,0,0,0,.63.45,1.9,1.9,0,0,0,.83.17,2,2,0,0,0,.82-.16,1.74,1.74,0,0,0,.63-.45A1.93,1.93,0,0,0,298,594a2.62,2.62,0,0,0,0-1.69,1.94,1.94,0,0,0-1-1.13A2,2,0,0,0,296.09,591Z" transform="translate(-15.07 -185.46)"/><path class="cls-2" d="M244.21,605a7.87,7.87,0,0,1,1.76.18,3.64,3.64,0,0,1,1.34.57,2.56,2.56,0,0,1,.85,1,3,3,0,0,1,.3,1.38,2.36,2.36,0,0,1-.13.8,2.28,2.28,0,0,1-.34.68,2.18,2.18,0,0,1-.51.54,2.41,2.41,0,0,1-.65.36,2.61,2.61,0,0,1,.73.36,2.79,2.79,0,0,1,1,1.29,2.43,2.43,0,0,1,.15.86,3.41,3.41,0,0,1-.28,1.41,2.65,2.65,0,0,1-.82,1,4,4,0,0,1-1.33.6,7.42,7.42,0,0,1-1.79.2h-4.85V605Zm-2.34,2v2.62h2.28a6.26,6.26,0,0,0,.78-.05,1.94,1.94,0,0,0,.63-.2,1,1,0,0,0,.42-.41,1.29,1.29,0,0,0,.15-.66,1.13,1.13,0,0,0-.16-.64,1.08,1.08,0,0,0-.42-.4,1.94,1.94,0,0,0-.63-.2,4.72,4.72,0,0,0-.77-.06Zm0,4.58v2.69h2.5a5.35,5.35,0,0,0,.84-.06,1.87,1.87,0,0,0,.63-.22,1,1,0,0,0,.4-.42,1.63,1.63,0,0,0,0-1.32,1.05,1.05,0,0,0-.4-.41,1.87,1.87,0,0,0-.63-.21,5.35,5.35,0,0,0-.84-.06Z" transform="translate(-15.07 -185.46)"/><path class="cls-2" d="M254.26,608.26a4.55,4.55,0,0,1,1.67.3,4.22,4.22,0,0,1,1.34.86,4,4,0,0,1,.87,1.3,4.07,4.07,0,0,1,.32,1.62,4.14,4.14,0,0,1-.32,1.62,3.86,3.86,0,0,1-.87,1.29,4.06,4.06,0,0,1-1.34.86,4.65,4.65,0,0,1-3.34,0,3.91,3.91,0,0,1-1.33-.86,3.86,3.86,0,0,1-.87-1.29,4.14,4.14,0,0,1-.32-1.62,4.07,4.07,0,0,1,.32-1.62,4,4,0,0,1,.87-1.3,4.07,4.07,0,0,1,1.33-.86A4.55,4.55,0,0,1,254.26,608.26Zm0,1.94a2,2,0,0,0-.82.16,1.83,1.83,0,0,0-.65.44,2,2,0,0,0-.43.67,2.42,2.42,0,0,0,0,1.73,2.07,2.07,0,0,0,.43.68,2,2,0,0,0,.65.44,2.18,2.18,0,0,0,.82.15,2.25,2.25,0,0,0,.82-.15,2,2,0,0,0,.65-.44,2.1,2.1,0,0,0,.44-.68,2.57,2.57,0,0,0,0-1.73,2.05,2.05,0,0,0-.44-.67,1.83,1.83,0,0,0-.65-.44A2.07,2.07,0,0,0,254.26,610.2Z" transform="translate(-15.07 -185.46)"/><path class="cls-2" d="M264.47,608.26a3.27,3.27,0,0,1,1.22.22,2.68,2.68,0,0,1,.95.61,2.86,2.86,0,0,1,.63,1,3.24,3.24,0,0,1,.22,1.23v4.94H265.4V612a1.91,1.91,0,0,0-.39-1.29,1.42,1.42,0,0,0-1.12-.44,2,2,0,0,0-.64.1,1.65,1.65,0,0,0-.52.33,1.79,1.79,0,0,0-.35.55,2,2,0,0,0-.13.77v4.25h-2.09v-7.76h2v.92a2.35,2.35,0,0,1,1-.87A3.18,3.18,0,0,1,264.47,608.26Z" transform="translate(-15.07 -185.46)"/><path class="cls-2" d="M272.89,608.26a2.84,2.84,0,0,1,2.28,1V604.7h2.08v11.52h-2v-.86a2.83,2.83,0,0,1-.95.76,2.92,2.92,0,0,1-1.37.3,3.56,3.56,0,0,1-1.49-.32,3.6,3.6,0,0,1-1.19-.85,3.83,3.83,0,0,1-.79-1.29,4.52,4.52,0,0,1-.28-1.62,4.45,4.45,0,0,1,.28-1.62,4,4,0,0,1,.79-1.3,3.75,3.75,0,0,1,1.19-.85A3.55,3.55,0,0,1,272.89,608.26Zm.38,1.94a2,2,0,0,0-.82.17,2,2,0,0,0-.64.45,2.3,2.3,0,0,0-.4.68,2.6,2.6,0,0,0-.14.84,2.49,2.49,0,0,0,.14.83,2.18,2.18,0,0,0,.4.68,2,2,0,0,0,.64.45,1.83,1.83,0,0,0,.82.17,2,2,0,0,0,.82-.16,1.66,1.66,0,0,0,.63-.45,1.93,1.93,0,0,0,.41-.68,2.62,2.62,0,0,0,0-1.69,2,2,0,0,0-.41-.68,1.91,1.91,0,0,0-.63-.45A2,2,0,0,0,273.27,610.2Z" transform="translate(-15.07 -185.46)"/><path class="cls-2" d="M285,610.62l-.52-.22c-.2-.07-.4-.14-.62-.2s-.44-.11-.66-.15a3.88,3.88,0,0,0-.67-.06,1.77,1.77,0,0,0-.9.19.6.6,0,0,0-.29.52.4.4,0,0,0,.1.28.71.71,0,0,0,.27.18,1.73,1.73,0,0,0,.4.12l.49.08.69.1a4,4,0,0,1,1.94.76,1.94,1.94,0,0,1,.68,1.56,2.42,2.42,0,0,1-.24,1.09,2.32,2.32,0,0,1-.7.83,3.43,3.43,0,0,1-1.12.53,5.69,5.69,0,0,1-1.5.19c-.27,0-.55,0-.85,0a7.19,7.19,0,0,1-.89-.15,4.93,4.93,0,0,1-.9-.28,3.53,3.53,0,0,1-.81-.44l.82-1.58a4.54,4.54,0,0,0,.53.3,3.13,3.13,0,0,0,.6.24,3.77,3.77,0,0,0,.7.16,5.13,5.13,0,0,0,.81.06,2.29,2.29,0,0,0,1.08-.19.59.59,0,0,0,.35-.54.52.52,0,0,0-.3-.45,3,3,0,0,0-1-.26l-.64-.09c-1.78-.24-2.68-1-2.68-2.35a2.44,2.44,0,0,1,.23-1.07,2.14,2.14,0,0,1,.65-.79,2.86,2.86,0,0,1,1-.5,4.86,4.86,0,0,1,1.38-.18,8.33,8.33,0,0,1,.88,0,7.37,7.37,0,0,1,.82.13c.26.07.52.14.77.23a7.13,7.13,0,0,1,.77.33Z" transform="translate(-15.07 -185.46)"/><path class="cls-2" d="M247.68,282.46a5.08,5.08,0,0,1,2.09.43,4.68,4.68,0,0,1,1.73,1.32,6.69,6.69,0,0,1,1.17,2.26,10.73,10.73,0,0,1,.43,3.24,11.17,11.17,0,0,1-.43,3.33,6.49,6.49,0,0,1-1.17,2.24,4.47,4.47,0,0,1-1.73,1.28,5.4,5.4,0,0,1-2.09.4,5.64,5.64,0,0,1-2.13-.4,4.53,4.53,0,0,1-1.75-1.28,6.35,6.35,0,0,1-1.19-2.24,11.15,11.15,0,0,1-.44-3.33,11,11,0,0,1,.44-3.32,6.31,6.31,0,0,1,1.19-2.25,4.44,4.44,0,0,1,1.75-1.28A5.64,5.64,0,0,1,247.68,282.46Zm0,2.59a2.37,2.37,0,0,0-1,.24,2.17,2.17,0,0,0-.87.77,4.4,4.4,0,0,0-.59,1.44,9.19,9.19,0,0,0-.22,2.21,9.34,9.34,0,0,0,.22,2.22,4.43,4.43,0,0,0,.59,1.43,2.28,2.28,0,0,0,.87.78,2.5,2.5,0,0,0,1,.23,2.32,2.32,0,0,0,1-.23,2.21,2.21,0,0,0,.84-.78,4.22,4.22,0,0,0,.58-1.43,9.34,9.34,0,0,0,.22-2.22,8.68,8.68,0,0,0-.22-2.12,4.43,4.43,0,0,0-.58-1.45,2.29,2.29,0,0,0-.84-.83A2.1,2.1,0,0,0,247.68,285.05Z" transform="translate(-15.07 -185.46)"/><path class="cls-2" d="M256.42,293.08a1.7,1.7,0,0,1,.74.16,2,2,0,0,1,1,1,1.7,1.7,0,0,1,.16.74,1.78,1.78,0,0,1-.16.75,2,2,0,0,1-.42.62,2,2,0,0,1-.61.43,1.85,1.85,0,0,1-.74.15,1.93,1.93,0,0,1-.75-.15,2.22,2.22,0,0,1-.62-.43,2.42,2.42,0,0,1-.42-.62,1.78,1.78,0,0,1-.16-.75,1.7,1.7,0,0,1,.16-.74,2.21,2.21,0,0,1,.42-.61,2,2,0,0,1,.62-.42A1.78,1.78,0,0,1,256.42,293.08Z" transform="translate(-15.07 -185.46)"/><path class="cls-2" d="M264.47,294.15v-8L261,287.36v-2.69l6.17-2.18v11.66h3.17v2.56h-9.18v-2.56Z" transform="translate(-15.07 -185.46)"/><path class="cls-2" d="M280.66,291.63h1.95v2.52h-1.95v2.56H278v-2.56h-6.21v-2l4.91-9.47h3L275,291.63h3V287.9h2.7Z" transform="translate(-15.07 -185.46)"/><rect class="cls-1" x="357.98" y="151.58" width="36.6" height="54.47"/><path class="cls-2" d="M353,585.61a6.67,6.67,0,0,1,1.49.17,6.15,6.15,0,0,1,1.34.5,4.92,4.92,0,0,1,1.12.79,4.46,4.46,0,0,1,.84,1l-1.92,1.18a3.38,3.38,0,0,0-1.21-1.14,3.43,3.43,0,0,0-1.68-.41,3.62,3.62,0,0,0-1.41.27,3.44,3.44,0,0,0-1.12.75,3.5,3.5,0,0,0-.74,1.15,4,4,0,0,0-.27,1.5,3.92,3.92,0,0,0,.28,1.52,3.28,3.28,0,0,0,.75,1.15,3.24,3.24,0,0,0,1.12.73,3.55,3.55,0,0,0,1.39.26,3.41,3.41,0,0,0,1.67-.4,3.49,3.49,0,0,0,1.25-1.14l1.82,1.32a5.41,5.41,0,0,1-.87,1,5.62,5.62,0,0,1-1.1.75,6,6,0,0,1-1.29.47,6.78,6.78,0,0,1-3.84-.27,5.49,5.49,0,0,1-1.86-1.21,5.27,5.27,0,0,1-1.21-1.84,6.36,6.36,0,0,1,0-4.65,5.36,5.36,0,0,1,1.21-1.84,5.49,5.49,0,0,1,1.86-1.21A6.3,6.3,0,0,1,353,585.61Z" transform="translate(-15.07 -185.46)"/><path class="cls-2" d="M363,589.06a4.55,4.55,0,0,1,1.67.3,4.22,4.22,0,0,1,1.34.86,4,4,0,0,1,.87,1.3,4.07,4.07,0,0,1,.32,1.62,4.14,4.14,0,0,1-.32,1.62,3.86,3.86,0,0,1-.87,1.29,4.06,4.06,0,0,1-1.34.86,4.65,4.65,0,0,1-3.34,0,3.91,3.91,0,0,1-1.33-.86,3.86,3.86,0,0,1-.87-1.29,4.14,4.14,0,0,1-.32-1.62,4.07,4.07,0,0,1,.32-1.62,4,4,0,0,1,.87-1.3,4.07,4.07,0,0,1,1.33-.86A4.55,4.55,0,0,1,363,589.06Zm0,1.94a2,2,0,0,0-.82.16,1.83,1.83,0,0,0-.65.44,2,2,0,0,0-.43.67,2.42,2.42,0,0,0,0,1.73,2.07,2.07,0,0,0,.43.68,2,2,0,0,0,.65.44,2.32,2.32,0,0,0,1.64,0,2,2,0,0,0,.65-.44,2.1,2.1,0,0,0,.44-.68,2.57,2.57,0,0,0,0-1.73,2.05,2.05,0,0,0-.44-.67,1.83,1.83,0,0,0-.65-.44A2,2,0,0,0,363,591Z" transform="translate(-15.07 -185.46)"/><path class="cls-2" d="M373.23,589.06a3.23,3.23,0,0,1,1.22.22,2.68,2.68,0,0,1,.95.61,2.86,2.86,0,0,1,.63,1,3.24,3.24,0,0,1,.22,1.23V597h-2.09v-4.27a1.91,1.91,0,0,0-.39-1.29,1.42,1.42,0,0,0-1.12-.44,2,2,0,0,0-.64.1,1.65,1.65,0,0,0-.52.33,1.79,1.79,0,0,0-.35.55,2,2,0,0,0-.13.77V597h-2.09v-7.76h2v.92a2.35,2.35,0,0,1,1-.87A3.18,3.18,0,0,1,373.23,589.06Z" transform="translate(-15.07 -185.46)"/><path class="cls-2" d="M382.7,597h-2.41l-3.06-7.76h2.27l2,5.56,2-5.56h2.2Z" transform="translate(-15.07 -185.46)"/><path class="cls-2" d="M390.19,589.06a4,4,0,0,1,1.53.29,3.59,3.59,0,0,1,1.19.83,4,4,0,0,1,.77,1.29,4.9,4.9,0,0,1,.27,1.66c0,.12,0,.25,0,.37s0,.24,0,.33h-5.49a2.09,2.09,0,0,0,.26.73,2,2,0,0,0,.45.5,1.76,1.76,0,0,0,.58.29,2.69,2.69,0,0,0,.7.09,2.83,2.83,0,0,0,1-.19,3.18,3.18,0,0,0,.94-.55l1.22,1.34a4.14,4.14,0,0,1-1.49.89,5.5,5.5,0,0,1-1.81.29,4.34,4.34,0,0,1-1.63-.3,3.61,3.61,0,0,1-1.27-.82,3.78,3.78,0,0,1-.83-1.28,4.63,4.63,0,0,1-.29-1.66,4.72,4.72,0,0,1,.28-1.67,3.87,3.87,0,0,1,.81-1.29,3.54,3.54,0,0,1,1.23-.84A4.11,4.11,0,0,1,390.19,589.06Zm0,1.8a1.62,1.62,0,0,0-1.18.41,2.05,2.05,0,0,0-.56,1.14h3.43a2,2,0,0,0-.58-1.15A1.56,1.56,0,0,0,390.17,590.86Z" transform="translate(-15.07 -185.46)"/><path class="cls-2" d="M399.87,589.06a3.7,3.7,0,0,1,.6,0,2.8,2.8,0,0,1,.48.12l-.31,2.08a2.36,2.36,0,0,0-.6-.18,3.09,3.09,0,0,0-.66-.07,2,2,0,0,0-.66.11,1.49,1.49,0,0,0-.52.33,1.45,1.45,0,0,0-.33.54,2.2,2.2,0,0,0-.12.76V597h-2.09v-7.76h2v.85a2.2,2.2,0,0,1,.92-.8A3,3,0,0,1,399.87,589.06Z" transform="translate(-15.07 -185.46)"/><path class="cls-2" d="M408.16,591.12h-2.81V594a1.56,1.56,0,0,0,.1.61,1.09,1.09,0,0,0,.24.41,1,1,0,0,0,.37.23,1.33,1.33,0,0,0,.45.07,2,2,0,0,0,.76-.15,5.71,5.71,0,0,0,.7-.35l.77,1.63a5.23,5.23,0,0,1-1.13.58,4,4,0,0,1-1.44.24,2.83,2.83,0,0,1-2.18-.8,3.29,3.29,0,0,1-.72-2.3v-3h-1.5v-1.86h1.5V587h2.08v2.3h2.81Z" transform="translate(-15.07 -185.46)"/><path class="cls-2" d="M411,585.38a1.32,1.32,0,0,1,.53.11,1.34,1.34,0,0,1,.42.28,1.42,1.42,0,0,1,.29.43,1.35,1.35,0,0,1,.1.53,1.27,1.27,0,0,1-.1.52,1.3,1.3,0,0,1-.29.43,1.34,1.34,0,0,1-.42.28,1.43,1.43,0,0,1-1.05,0,1.34,1.34,0,0,1-.42-.28,1.15,1.15,0,0,1-.28-.43,1.27,1.27,0,0,1-.1-.52,1.35,1.35,0,0,1,.1-.53,1.23,1.23,0,0,1,.28-.43,1.34,1.34,0,0,1,.42-.28A1.31,1.31,0,0,1,411,585.38ZM412.09,597H410v-7.76h2.09Z" transform="translate(-15.07 -185.46)"/><path class="cls-2" d="M418.8,589.06a3.52,3.52,0,0,1,1.49.31,3.64,3.64,0,0,1,1.19.85,4,4,0,0,1,.79,1.3,4.25,4.25,0,0,1,.29,1.62,4.52,4.52,0,0,1-.28,1.62,3.93,3.93,0,0,1-.79,1.29,3.6,3.6,0,0,1-1.19.85,3.56,3.56,0,0,1-1.49.32,2.86,2.86,0,0,1-1.37-.3,2.83,2.83,0,0,1-.95-.76V597h-2V585.5h2.08v4.57a2.94,2.94,0,0,1,.94-.73A2.84,2.84,0,0,1,418.8,589.06Zm-.38,1.94a1.92,1.92,0,0,0-.81.16,1.81,1.81,0,0,0-.63.45,2,2,0,0,0-.41.68,2.62,2.62,0,0,0,0,1.69,1.93,1.93,0,0,0,.41.68,1.59,1.59,0,0,0,.63.45,1.92,1.92,0,0,0,.81.16,1.87,1.87,0,0,0,.83-.17,1.91,1.91,0,0,0,.63-.45,2.18,2.18,0,0,0,.4-.68,2.49,2.49,0,0,0,.14-.83,2.6,2.6,0,0,0-.14-.84,2.3,2.3,0,0,0-.4-.68,1.91,1.91,0,0,0-.63-.45A2,2,0,0,0,418.42,591Z" transform="translate(-15.07 -185.46)"/><path class="cls-2" d="M426.35,597h-2.08V585.5h2.08Z" transform="translate(-15.07 -185.46)"/><path class="cls-2" d="M432,589.06a4,4,0,0,1,1.53.29,3.59,3.59,0,0,1,1.19.83,4,4,0,0,1,.77,1.29,4.9,4.9,0,0,1,.27,1.66c0,.12,0,.25,0,.37s0,.24,0,.33h-5.49a2.09,2.09,0,0,0,.26.73,1.8,1.8,0,0,0,.45.5,1.67,1.67,0,0,0,.58.29,2.63,2.63,0,0,0,.7.09,2.83,2.83,0,0,0,1-.19,3.18,3.18,0,0,0,.94-.55l1.22,1.34a4.14,4.14,0,0,1-1.49.89,5.5,5.5,0,0,1-1.81.29,4.34,4.34,0,0,1-1.63-.3,3.52,3.52,0,0,1-1.27-.82,3.63,3.63,0,0,1-.83-1.28,4.42,4.42,0,0,1-.29-1.66,4.72,4.72,0,0,1,.28-1.67,3.87,3.87,0,0,1,.81-1.29,3.54,3.54,0,0,1,1.23-.84A4.11,4.11,0,0,1,432,589.06Zm0,1.8a1.62,1.62,0,0,0-1.18.41,2.05,2.05,0,0,0-.56,1.14h3.43a2,2,0,0,0-.58-1.15A1.56,1.56,0,0,0,432,590.86Z" transform="translate(-15.07 -185.46)"/><path class="cls-2" d="M373.15,605a7.87,7.87,0,0,1,1.76.18,3.64,3.64,0,0,1,1.34.57,2.48,2.48,0,0,1,.85,1,3,3,0,0,1,.3,1.38,2.36,2.36,0,0,1-.13.8,2.28,2.28,0,0,1-.34.68,2.18,2.18,0,0,1-.51.54,2.41,2.41,0,0,1-.65.36,2.61,2.61,0,0,1,.73.36,2.79,2.79,0,0,1,1,1.29,2.43,2.43,0,0,1,.15.86,3.26,3.26,0,0,1-.28,1.41,2.65,2.65,0,0,1-.82,1,4,4,0,0,1-1.33.6,7.42,7.42,0,0,1-1.79.2h-4.85V605Zm-2.34,2v2.62h2.28a6.26,6.26,0,0,0,.78-.05,1.94,1.94,0,0,0,.63-.2,1,1,0,0,0,.42-.41,1.29,1.29,0,0,0,.15-.66,1.13,1.13,0,0,0-.16-.64,1.08,1.08,0,0,0-.42-.4,1.94,1.94,0,0,0-.63-.2,4.72,4.72,0,0,0-.77-.06Zm0,4.58v2.69h2.5a5.35,5.35,0,0,0,.84-.06,1.87,1.87,0,0,0,.63-.22,1,1,0,0,0,.4-.42,1.63,1.63,0,0,0,0-1.32,1.05,1.05,0,0,0-.4-.41,1.87,1.87,0,0,0-.63-.21,5.35,5.35,0,0,0-.84-.06Z" transform="translate(-15.07 -185.46)"/><path class="cls-2" d="M383.2,608.26a4.55,4.55,0,0,1,1.67.3,4.22,4.22,0,0,1,1.34.86,4,4,0,0,1,.87,1.3,4.07,4.07,0,0,1,.32,1.62,4.14,4.14,0,0,1-.32,1.62,3.86,3.86,0,0,1-.87,1.29,4.06,4.06,0,0,1-1.34.86,4.65,4.65,0,0,1-3.34,0,3.91,3.91,0,0,1-1.33-.86,3.86,3.86,0,0,1-.87-1.29,4.14,4.14,0,0,1-.32-1.62,4.07,4.07,0,0,1,.32-1.62,4,4,0,0,1,.87-1.3,4.07,4.07,0,0,1,1.33-.86A4.55,4.55,0,0,1,383.2,608.26Zm0,1.94a2,2,0,0,0-.82.16,1.83,1.83,0,0,0-.65.44,2,2,0,0,0-.43.67,2.42,2.42,0,0,0,0,1.73,2.07,2.07,0,0,0,.43.68,2,2,0,0,0,.65.44,2.32,2.32,0,0,0,1.64,0,2,2,0,0,0,.65-.44,2.1,2.1,0,0,0,.44-.68,2.57,2.57,0,0,0,0-1.73,2.05,2.05,0,0,0-.44-.67,1.83,1.83,0,0,0-.65-.44A2,2,0,0,0,383.2,610.2Z" transform="translate(-15.07 -185.46)"/><path class="cls-2" d="M393.41,608.26a3.23,3.23,0,0,1,1.22.22,2.68,2.68,0,0,1,.95.61,2.86,2.86,0,0,1,.63,1,3.24,3.24,0,0,1,.22,1.23v4.94h-2.09V612a1.91,1.91,0,0,0-.39-1.29,1.42,1.42,0,0,0-1.12-.44,2,2,0,0,0-.64.1,1.65,1.65,0,0,0-.52.33,1.79,1.79,0,0,0-.35.55,2,2,0,0,0-.13.77v4.25H389.1v-7.76h2v.92a2.35,2.35,0,0,1,1-.87A3.18,3.18,0,0,1,393.41,608.26Z" transform="translate(-15.07 -185.46)"/><path class="cls-2" d="M401.83,608.26a2.84,2.84,0,0,1,2.28,1V604.7h2.08v11.52h-2v-.86a2.83,2.83,0,0,1-.95.76,2.92,2.92,0,0,1-1.37.3,3.56,3.56,0,0,1-1.49-.32,3.6,3.6,0,0,1-1.19-.85,3.83,3.83,0,0,1-.79-1.29,4.52,4.52,0,0,1-.28-1.62,4.45,4.45,0,0,1,.28-1.62,4,4,0,0,1,.79-1.3,3.75,3.75,0,0,1,1.19-.85A3.55,3.55,0,0,1,401.83,608.26Zm.38,1.94a2,2,0,0,0-.82.17,2,2,0,0,0-.64.45,2.3,2.3,0,0,0-.4.68,2.6,2.6,0,0,0-.14.84,2.49,2.49,0,0,0,.14.83,2.18,2.18,0,0,0,.4.68,2,2,0,0,0,.64.45,1.83,1.83,0,0,0,.82.17,2,2,0,0,0,.82-.16,1.59,1.59,0,0,0,.63-.45,1.93,1.93,0,0,0,.41-.68,2.62,2.62,0,0,0,0-1.69,2,2,0,0,0-.41-.68,1.81,1.81,0,0,0-.63-.45A2,2,0,0,0,402.21,610.2Z" transform="translate(-15.07 -185.46)"/><path class="cls-2" d="M413.94,610.62l-.52-.22c-.2-.07-.4-.14-.62-.2s-.44-.11-.66-.15a3.88,3.88,0,0,0-.67-.06,1.77,1.77,0,0,0-.9.19.6.6,0,0,0-.29.52.4.4,0,0,0,.1.28.71.71,0,0,0,.27.18,1.73,1.73,0,0,0,.4.12l.49.08.69.1a4,4,0,0,1,1.94.76,1.94,1.94,0,0,1,.68,1.56,2.42,2.42,0,0,1-.24,1.09,2.32,2.32,0,0,1-.7.83,3.43,3.43,0,0,1-1.12.53,5.69,5.69,0,0,1-1.5.19c-.27,0-.55,0-.85,0a7.19,7.19,0,0,1-.89-.15,4.93,4.93,0,0,1-.9-.28,3.53,3.53,0,0,1-.81-.44l.82-1.58a4.54,4.54,0,0,0,.53.3,3.13,3.13,0,0,0,.6.24,3.77,3.77,0,0,0,.7.16,5.13,5.13,0,0,0,.81.06,2.29,2.29,0,0,0,1.08-.19.59.59,0,0,0,.35-.54.52.52,0,0,0-.3-.45,3,3,0,0,0-1-.26l-.64-.09c-1.78-.24-2.68-1-2.68-2.35a2.44,2.44,0,0,1,.23-1.07,2.14,2.14,0,0,1,.65-.79,2.86,2.86,0,0,1,1-.5,4.86,4.86,0,0,1,1.38-.18,8.18,8.18,0,0,1,.88,0,7.37,7.37,0,0,1,.82.13c.26.07.52.14.77.23a6.37,6.37,0,0,1,.77.33Z" transform="translate(-15.07 -185.46)"/><path class="cls-2" d="M376.62,312.83a5.33,5.33,0,0,1,2.1.43,4.73,4.73,0,0,1,1.72,1.32,6.78,6.78,0,0,1,1.17,2.26,10.82,10.82,0,0,1,.43,3.24,11.17,11.17,0,0,1-.43,3.33,6.49,6.49,0,0,1-1.17,2.24,4.51,4.51,0,0,1-1.72,1.28,5.49,5.49,0,0,1-2.1.4,5.64,5.64,0,0,1-2.13-.4,4.53,4.53,0,0,1-1.75-1.28,6.35,6.35,0,0,1-1.19-2.24,11.15,11.15,0,0,1-.44-3.33,11,11,0,0,1,.44-3.32,6.31,6.31,0,0,1,1.19-2.25,4.44,4.44,0,0,1,1.75-1.28A5.84,5.84,0,0,1,376.62,312.83Zm0,2.59a2.32,2.32,0,0,0-1,.24,2.17,2.17,0,0,0-.87.77,4.4,4.4,0,0,0-.6,1.44,9.19,9.19,0,0,0-.22,2.21,9.34,9.34,0,0,0,.22,2.22,4.43,4.43,0,0,0,.6,1.43,2.28,2.28,0,0,0,.87.78,2.46,2.46,0,0,0,1,.23,2.13,2.13,0,0,0,1.85-1,4.67,4.67,0,0,0,.58-1.43,10,10,0,0,0,.21-2.22,9.32,9.32,0,0,0-.21-2.12,4.92,4.92,0,0,0-.58-1.45,2.48,2.48,0,0,0-.85-.83A2.1,2.1,0,0,0,376.62,315.42Z" transform="translate(-15.07 -185.46)"/><path class="cls-2" d="M385.36,323.45a1.7,1.7,0,0,1,.74.16,2,2,0,0,1,.62.42,2.21,2.21,0,0,1,.42.61,1.88,1.88,0,0,1,.15.74,1.93,1.93,0,0,1-.15.75,2.42,2.42,0,0,1-.42.62,2.22,2.22,0,0,1-.62.43,1.9,1.9,0,0,1-1.48,0,2,2,0,0,1-.62-.43,2.22,2.22,0,0,1-.43-.62,1.78,1.78,0,0,1-.16-.75,1.73,1.73,0,0,1,.16-.74A2,2,0,0,1,384,324a1.79,1.79,0,0,1,.62-.42A1.7,1.7,0,0,1,385.36,323.45Z" transform="translate(-15.07 -185.46)"/><path class="cls-2" d="M394.16,312.83a5.24,5.24,0,0,1,2.09.43,4.68,4.68,0,0,1,1.73,1.32,6.78,6.78,0,0,1,1.17,2.26,10.82,10.82,0,0,1,.43,3.24,11.17,11.17,0,0,1-.43,3.33,6.49,6.49,0,0,1-1.17,2.24,4.47,4.47,0,0,1-1.73,1.28,5.4,5.4,0,0,1-2.09.4,5.64,5.64,0,0,1-2.13-.4,4.53,4.53,0,0,1-1.75-1.28,6.35,6.35,0,0,1-1.19-2.24,11.15,11.15,0,0,1-.44-3.33,11,11,0,0,1,.44-3.32,6.31,6.31,0,0,1,1.19-2.25,4.44,4.44,0,0,1,1.75-1.28A5.84,5.84,0,0,1,394.16,312.83Zm0,2.59a2.4,2.4,0,0,0-1,.24,2.17,2.17,0,0,0-.87.77,4.4,4.4,0,0,0-.59,1.44,9.19,9.19,0,0,0-.22,2.21,9.34,9.34,0,0,0,.22,2.22,4.43,4.43,0,0,0,.59,1.43,2.28,2.28,0,0,0,.87.78,2.54,2.54,0,0,0,1,.23,2.32,2.32,0,0,0,1-.23,2.21,2.21,0,0,0,.84-.78,4.22,4.22,0,0,0,.58-1.43,9.34,9.34,0,0,0,.22-2.22,8.74,8.74,0,0,0-.22-2.12,4.43,4.43,0,0,0-.58-1.45,2.37,2.37,0,0,0-.84-.83A2.1,2.1,0,0,0,394.16,315.42Z" transform="translate(-15.07 -185.46)"/><path class="cls-2" d="M406.37,322.21a1.36,1.36,0,0,1-.29,0h-.34a5.18,5.18,0,0,1-2-.36,4.84,4.84,0,0,1-1.53-1,4.45,4.45,0,0,1-1-1.48,4.6,4.6,0,0,1-.36-1.83,4.46,4.46,0,0,1,.4-1.9,4.73,4.73,0,0,1,1.11-1.51,5.22,5.22,0,0,1,1.66-1,6.25,6.25,0,0,1,4.18,0,5,5,0,0,1,1.67,1,4.55,4.55,0,0,1,1.1,1.5,4.34,4.34,0,0,1,.4,1.88,5.17,5.17,0,0,1-.35,1.87,9.53,9.53,0,0,1-1,1.85l-3.88,5.81h-3.26Zm-.22-2.33a2.57,2.57,0,0,0,1-.17,2.32,2.32,0,0,0,1.3-3.06,2.16,2.16,0,0,0-.52-.73,2.54,2.54,0,0,0-.78-.47,2.78,2.78,0,0,0-1-.17,2.84,2.84,0,0,0-1,.17,2.37,2.37,0,0,0-.77.47,2,2,0,0,0-.51.73,2.3,2.3,0,0,0,.51,2.59,2.21,2.21,0,0,0,.77.47A2.62,2.62,0,0,0,406.15,319.88Z" transform="translate(-15.07 -185.46)"/><rect class="cls-1" x="486.34" y="163.68" width="36.6" height="42.37"/><path class="cls-2" d="M511.21,587.9h-3.47V597h-2.23V587.9H502v-2.08h9.17Z" transform="translate(-15.07 -185.46)"/><path class="cls-2" d="M515,597h-2.23v-11.2H515Z" transform="translate(-15.07 -185.46)"/><path class="cls-2" d="M519.75,592.92V597h-2.23v-11.2h4.56a5.6,5.6,0,0,1,1.77.25,3.72,3.72,0,0,1,1.29.71,3.14,3.14,0,0,1,.78,1.12,4.07,4.07,0,0,1,.26,1.48,4,4,0,0,1-.26,1.46,3.06,3.06,0,0,1-.78,1.12,3.76,3.76,0,0,1-1.28.71,5.58,5.58,0,0,1-1.76.25Zm0-5v3H522a2.18,2.18,0,0,0,1.39-.37,1.62,1.62,0,0,0,0-2.26,2.17,2.17,0,0,0-1.39-.38Z" transform="translate(-15.07 -185.46)"/><path class="cls-2" d="M535.69,588.64a7.51,7.51,0,0,0-1.46-.68,5.39,5.39,0,0,0-1.72-.27,3.79,3.79,0,0,0-.86.09,2.35,2.35,0,0,0-.68.26,1.52,1.52,0,0,0-.45.42,1.11,1.11,0,0,0-.16.57.77.77,0,0,0,.18.52,1.2,1.2,0,0,0,.48.35,3.65,3.65,0,0,0,.73.25c.28.06.59.13.93.18l.63.1a8.19,8.19,0,0,1,1.4.35,4.27,4.27,0,0,1,1.14.61,2.73,2.73,0,0,1,.75.91,2.67,2.67,0,0,1,.28,1.27,3.3,3.3,0,0,1-.38,1.61,3.45,3.45,0,0,1-1,1.14A4.6,4.6,0,0,1,534,597a6.51,6.51,0,0,1-1.73.23,8.19,8.19,0,0,1-1.29-.1,8.4,8.4,0,0,1-1.25-.27,7.49,7.49,0,0,1-1.17-.46,6,6,0,0,1-1-.64l1.16-1.8a5.3,5.3,0,0,0,.7.46,5.1,5.1,0,0,0,.85.39,6,6,0,0,0,1,.26,5.19,5.19,0,0,0,1,.1,4,4,0,0,0,.87-.09,2.32,2.32,0,0,0,.7-.26,1.37,1.37,0,0,0,.46-.43,1,1,0,0,0,.17-.57.84.84,0,0,0-.15-.5,1.09,1.09,0,0,0-.45-.35,3.43,3.43,0,0,0-.75-.26c-.29-.07-.64-.14-1-.2l-.71-.12A7.84,7.84,0,0,1,530,592a3.81,3.81,0,0,1-1.08-.62,2.62,2.62,0,0,1-.71-.93,3.13,3.13,0,0,1-.25-1.31,3.16,3.16,0,0,1,.36-1.54,3.3,3.3,0,0,1,1-1.12,4.54,4.54,0,0,1,1.42-.67,6.29,6.29,0,0,1,1.7-.23,10.23,10.23,0,0,1,1.13.07,9.2,9.2,0,0,1,1.07.21,7.26,7.26,0,0,1,1,.38,9.41,9.41,0,0,1,1,.54Z" transform="translate(-15.07 -185.46)"/><path class="cls-2" d="M505.56,324.88a5.33,5.33,0,0,1,2.1.43,4.73,4.73,0,0,1,1.72,1.32,6.78,6.78,0,0,1,1.17,2.26,10.82,10.82,0,0,1,.43,3.24,11.17,11.17,0,0,1-.43,3.33,6.4,6.4,0,0,1-1.17,2.24,4.51,4.51,0,0,1-1.72,1.28,5.49,5.49,0,0,1-2.1.4,5.64,5.64,0,0,1-2.13-.4,4.53,4.53,0,0,1-1.75-1.28,6.26,6.26,0,0,1-1.19-2.24,12.78,12.78,0,0,1,0-6.65,6.31,6.31,0,0,1,1.19-2.25,4.53,4.53,0,0,1,1.75-1.28A5.84,5.84,0,0,1,505.56,324.88Zm0,2.59a2.32,2.32,0,0,0-1,.24,2.25,2.25,0,0,0-.87.77,4.4,4.4,0,0,0-.6,1.44,11.26,11.26,0,0,0,0,4.43,4.33,4.33,0,0,0,.6,1.43,2.28,2.28,0,0,0,.87.78,2.31,2.31,0,0,0,1,.23,2.19,2.19,0,0,0,1-.23,2.31,2.31,0,0,0,.85-.78,4.57,4.57,0,0,0,.58-1.43,10,10,0,0,0,.21-2.22A9.32,9.32,0,0,0,508,330a5,5,0,0,0-.58-1.45,2.48,2.48,0,0,0-.85-.83A2.1,2.1,0,0,0,505.56,327.47Z" transform="translate(-15.07 -185.46)"/><path class="cls-2" d="M514.3,335.5a1.86,1.86,0,0,1,.74.16,2,2,0,0,1,.62.42,2.37,2.37,0,0,1,.42.61,1.88,1.88,0,0,1,.15.74,1.93,1.93,0,0,1-.15.75,2.26,2.26,0,0,1-.42.62,2,2,0,0,1-.62.43,1.9,1.9,0,0,1-1.48,0,1.82,1.82,0,0,1-.62-.43,2.09,2.09,0,0,1-.43-.62,1.78,1.78,0,0,1-.16-.75,1.73,1.73,0,0,1,.16-.74,2.17,2.17,0,0,1,.43-.61,1.79,1.79,0,0,1,.62-.42A1.86,1.86,0,0,1,514.3,335.5Z" transform="translate(-15.07 -185.46)"/><path class="cls-2" d="M523.1,324.88a5.24,5.24,0,0,1,2.09.43,4.68,4.68,0,0,1,1.73,1.32,6.78,6.78,0,0,1,1.17,2.26,10.82,10.82,0,0,1,.43,3.24,11.17,11.17,0,0,1-.43,3.33,6.4,6.4,0,0,1-1.17,2.24,4.47,4.47,0,0,1-1.73,1.28,5.4,5.4,0,0,1-2.09.4A5.64,5.64,0,0,1,521,339a4.53,4.53,0,0,1-1.75-1.28,6.26,6.26,0,0,1-1.19-2.24,12.78,12.78,0,0,1,0-6.65,6.31,6.31,0,0,1,1.19-2.25,4.53,4.53,0,0,1,1.75-1.28A5.84,5.84,0,0,1,523.1,324.88Zm0,2.59a2.4,2.4,0,0,0-1,.24,2.25,2.25,0,0,0-.87.77,4.4,4.4,0,0,0-.59,1.44,11.26,11.26,0,0,0,0,4.43,4.34,4.34,0,0,0,.59,1.43,2.28,2.28,0,0,0,.87.78,2.39,2.39,0,0,0,1,.23,2.19,2.19,0,0,0,1-.23,2.21,2.21,0,0,0,.84-.78,4.14,4.14,0,0,0,.58-1.43,9.34,9.34,0,0,0,.22-2.22,8.74,8.74,0,0,0-.22-2.12,4.52,4.52,0,0,0-.58-1.45,2.37,2.37,0,0,0-.84-.83A2.1,2.1,0,0,0,523.1,327.47Z" transform="translate(-15.07 -185.46)"/><path class="cls-2" d="M540,327.24l-5.8,11.89h-3.18l5.76-11.48h-6.65v-2.52H540Z" transform="translate(-15.07 -185.46)"/><rect class="cls-1" x="615.86" y="206.05" width="36.6" height="78.68"/><path class="cls-2" d="M609,597h-2.24v-11.2H609Z" transform="translate(-15.07 -185.46)"/><path class="cls-2" d="M615.71,589.06a3.21,3.21,0,0,1,1.21.22,2.81,2.81,0,0,1,1,.61,3,3,0,0,1,.62,1,3.24,3.24,0,0,1,.22,1.23V597h-2.09v-4.27a1.91,1.91,0,0,0-.39-1.29,1.42,1.42,0,0,0-1.12-.44,1.89,1.89,0,0,0-.63.1,1.54,1.54,0,0,0-.52.33,1.64,1.64,0,0,0-.36.55,2.26,2.26,0,0,0-.13.77V597h-2.09v-7.76h2v.92a2.27,2.27,0,0,1,1-.87A3.2,3.2,0,0,1,615.71,589.06Z" transform="translate(-15.07 -185.46)"/><path class="cls-2" d="M625.17,597h-2.41l-3.06-7.76H622l2,5.56,2-5.56h2.2Z" transform="translate(-15.07 -185.46)"/><path class="cls-2" d="M632.66,589.06a4,4,0,0,1,1.53.29,3.59,3.59,0,0,1,1.19.83,3.79,3.79,0,0,1,.77,1.29,4.9,4.9,0,0,1,.28,1.66c0,.12,0,.25,0,.37a2.92,2.92,0,0,1,0,.33h-5.5a2.09,2.09,0,0,0,.26.73,2,2,0,0,0,.45.5,1.71,1.71,0,0,0,.59.29,2.61,2.61,0,0,0,.69.09,2.83,2.83,0,0,0,1-.19,3.06,3.06,0,0,0,.94-.55l1.23,1.34a4.18,4.18,0,0,1-1.5.89,5.5,5.5,0,0,1-1.81.29,4.34,4.34,0,0,1-1.63-.3,3.61,3.61,0,0,1-1.27-.82,3.78,3.78,0,0,1-.83-1.28,4.63,4.63,0,0,1-.29-1.66,4.51,4.51,0,0,1,.29-1.67,3.85,3.85,0,0,1,.8-1.29,3.58,3.58,0,0,1,1.24-.84A4.09,4.09,0,0,1,632.66,589.06Zm0,1.8a1.59,1.59,0,0,0-1.17.41,2,2,0,0,0-.57,1.14h3.43a2,2,0,0,0-.58-1.15A1.53,1.53,0,0,0,632.64,590.86Z" transform="translate(-15.07 -185.46)"/><path class="cls-2" d="M643.63,591.42l-.52-.22-.61-.2c-.22-.06-.44-.11-.67-.15a3.88,3.88,0,0,0-.67-.06,1.71,1.71,0,0,0-.89.19.59.59,0,0,0-.3.52.4.4,0,0,0,.1.28.91.91,0,0,0,.27.18,1.73,1.73,0,0,0,.4.12l.49.08.69.1a4,4,0,0,1,1.94.76,1.94,1.94,0,0,1,.68,1.56,2.42,2.42,0,0,1-.24,1.09,2.23,2.23,0,0,1-.7.83,3.33,3.33,0,0,1-1.12.53,5.69,5.69,0,0,1-1.5.19c-.27,0-.55,0-.85-.05a7.19,7.19,0,0,1-.89-.15,4.83,4.83,0,0,1-.89-.28,3.4,3.4,0,0,1-.82-.44l.82-1.58a5.54,5.54,0,0,0,.53.3,3,3,0,0,0,.61.24,3.49,3.49,0,0,0,.69.16,5.17,5.17,0,0,0,.82.06,2.35,2.35,0,0,0,1.08-.19.6.6,0,0,0,.35-.54.52.52,0,0,0-.31-.45,3,3,0,0,0-1-.26l-.63-.09c-1.79-.24-2.68-1-2.68-2.35a2.44,2.44,0,0,1,.22-1.07,2.24,2.24,0,0,1,.65-.79,2.83,2.83,0,0,1,1-.5,4.79,4.79,0,0,1,1.37-.18,8.18,8.18,0,0,1,.88.05,7,7,0,0,1,.82.13c.26.07.52.14.78.23a7,7,0,0,1,.76.33Z" transform="translate(-15.07 -185.46)"/><path class="cls-2" d="M651.75,591.12H649V594a1.78,1.78,0,0,0,.09.61,1,1,0,0,0,.25.41.86.86,0,0,0,.36.23,1.43,1.43,0,0,0,.46.07,2,2,0,0,0,.75-.15,5.07,5.07,0,0,0,.7-.35l.77,1.63a5.23,5.23,0,0,1-1.13.58,4,4,0,0,1-1.44.24,2.79,2.79,0,0,1-2.17-.8,3.24,3.24,0,0,1-.73-2.3v-3h-1.5v-1.86h1.5V587H649v2.3h2.8Z" transform="translate(-15.07 -185.46)"/><path class="cls-2" d="M663.1,589.06a3.3,3.3,0,0,1,1.24.22,2.76,2.76,0,0,1,1,.61,2.69,2.69,0,0,1,.62,1,3.24,3.24,0,0,1,.22,1.23V597h-2.08v-4.27a1.86,1.86,0,0,0-.4-1.29,1.38,1.38,0,0,0-1.11-.44,1.89,1.89,0,0,0-.63.1,1.54,1.54,0,0,0-.52.33,1.64,1.64,0,0,0-.36.55,2.26,2.26,0,0,0-.13.77V597h-2.09v-4.27a1.91,1.91,0,0,0-.39-1.29,1.42,1.42,0,0,0-1.12-.44,1.89,1.89,0,0,0-.63.1,1.54,1.54,0,0,0-.52.33,1.64,1.64,0,0,0-.36.55,2.26,2.26,0,0,0-.13.77V597h-2.09v-7.76h2v.92a2.27,2.27,0,0,1,1-.87,3.2,3.2,0,0,1,1.27-.25,3.08,3.08,0,0,1,1.5.35,2.75,2.75,0,0,1,1.06,1,2.64,2.64,0,0,1,.52-.62,2.41,2.41,0,0,1,.64-.41,3,3,0,0,1,.71-.23A4.77,4.77,0,0,1,663.1,589.06Z" transform="translate(-15.07 -185.46)"/><path class="cls-2" d="M671.72,589.06a4,4,0,0,1,1.53.29,3.49,3.49,0,0,1,1.19.83,3.79,3.79,0,0,1,.77,1.29,4.67,4.67,0,0,1,.28,1.66c0,.12,0,.25,0,.37s0,.24,0,.33H670a2.32,2.32,0,0,0,.27.73,1.93,1.93,0,0,0,.44.5,1.81,1.81,0,0,0,.59.29,2.63,2.63,0,0,0,.7.09,2.91,2.91,0,0,0,1-.19,3.31,3.31,0,0,0,.94-.55l1.22,1.34a4.14,4.14,0,0,1-1.49.89,5.54,5.54,0,0,1-1.81.29,4.26,4.26,0,0,1-1.63-.3,3.52,3.52,0,0,1-1.27-.82,3.63,3.63,0,0,1-.83-1.28,4.42,4.42,0,0,1-.3-1.66,4.72,4.72,0,0,1,.29-1.67,3.85,3.85,0,0,1,.8-1.29,3.68,3.68,0,0,1,1.24-.84A4.09,4.09,0,0,1,671.72,589.06Zm0,1.8a1.62,1.62,0,0,0-1.18.41,2,2,0,0,0-.57,1.14h3.43a2,2,0,0,0-.57-1.15A1.56,1.56,0,0,0,671.71,590.86Z" transform="translate(-15.07 -185.46)"/><path class="cls-2" d="M681.51,589.06a3.21,3.21,0,0,1,1.21.22,2.68,2.68,0,0,1,.95.61,2.86,2.86,0,0,1,.63,1,3.24,3.24,0,0,1,.22,1.23V597h-2.09v-4.27a1.91,1.91,0,0,0-.39-1.29,1.42,1.42,0,0,0-1.12-.44,1.89,1.89,0,0,0-.63.1,1.54,1.54,0,0,0-.52.33,1.64,1.64,0,0,0-.36.55,2.26,2.26,0,0,0-.13.77V597h-2.09v-7.76h2v.92a2.27,2.27,0,0,1,1-.87A3.2,3.2,0,0,1,681.51,589.06Z" transform="translate(-15.07 -185.46)"/><path class="cls-2" d="M692.19,591.12h-2.8V594a1.78,1.78,0,0,0,.09.61,1,1,0,0,0,.25.41.86.86,0,0,0,.36.23,1.43,1.43,0,0,0,.46.07,2,2,0,0,0,.75-.15,5.71,5.71,0,0,0,.7-.35l.77,1.63a5.23,5.23,0,0,1-1.13.58,4,4,0,0,1-1.44.24,2.79,2.79,0,0,1-2.17-.8,3.24,3.24,0,0,1-.73-2.3v-3h-1.5v-1.86h1.5V587h2.09v2.3h2.8Z" transform="translate(-15.07 -185.46)"/><path class="cls-2" d="M608.81,604.81a6.21,6.21,0,0,1,2.42.45,5.06,5.06,0,0,1,1.83,1.27l-1.61,1.57a3.55,3.55,0,0,0-1.16-.86,3.93,3.93,0,0,0-3,0,3.44,3.44,0,0,0-1.12.75,3.7,3.7,0,0,0-.74,1.17,4.49,4.49,0,0,0,0,3,3.38,3.38,0,0,0,1.86,1.92,3.67,3.67,0,0,0,1.37.26,3.37,3.37,0,0,0,2.16-.64,2.92,2.92,0,0,0,1-1.84H609V610h5.15c0,.11,0,.21,0,.32s0,.21,0,.31a6.53,6.53,0,0,1-.41,2.34,5.35,5.35,0,0,1-1.14,1.83A5.14,5.14,0,0,1,611,616a5.64,5.64,0,0,1-2.2.43,6.37,6.37,0,0,1-1.51-.18,6.62,6.62,0,0,1-1.39-.52,5.5,5.5,0,0,1-1.19-.85,5.21,5.21,0,0,1-.93-1.15,5.49,5.49,0,0,1-.61-1.42,6,6,0,0,1-.22-1.68,6,6,0,0,1,.44-2.34,5.53,5.53,0,0,1,1.22-1.84,5.67,5.67,0,0,1,1.87-1.2A6.37,6.37,0,0,1,608.81,604.81Z" transform="translate(-15.07 -185.46)"/><path class="cls-2" d="M620.27,608.26a3.7,3.7,0,0,1,.6,0,2.8,2.8,0,0,1,.48.12L621,610.5a2.36,2.36,0,0,0-.6-.18,3.09,3.09,0,0,0-.66-.07,2,2,0,0,0-.66.11,1.49,1.49,0,0,0-.52.33,1.45,1.45,0,0,0-.33.54,2.2,2.2,0,0,0-.12.76v4.23h-2.09v-7.76h2v.85a2.2,2.2,0,0,1,.92-.8A3,3,0,0,1,620.27,608.26Z" transform="translate(-15.07 -185.46)"/><path class="cls-2" d="M630.15,616.22h-2v-.86a2.92,2.92,0,0,1-2.32,1.06,3.68,3.68,0,0,1-2.68-1.17,3.83,3.83,0,0,1-.79-1.29,4.52,4.52,0,0,1-.29-1.62,4.45,4.45,0,0,1,.29-1.62,4,4,0,0,1,.79-1.3,3.64,3.64,0,0,1,1.19-.85,3.52,3.52,0,0,1,1.49-.31,2.85,2.85,0,0,1,1.36.29,2.89,2.89,0,0,1,1,.77v-.86h2Zm-4-6a2.05,2.05,0,0,0-.83.17,1.81,1.81,0,0,0-.63.45,2.11,2.11,0,0,0-.4.68,2.6,2.6,0,0,0-.14.84,2.49,2.49,0,0,0,.14.83,2,2,0,0,0,.4.68,1.81,1.81,0,0,0,.63.45,1.9,1.9,0,0,0,.83.17,2,2,0,0,0,.82-.16,1.74,1.74,0,0,0,.63-.45,2.09,2.09,0,0,0,.41-.68,2.62,2.62,0,0,0,0-1.69,2.2,2.2,0,0,0-.41-.68,1.9,1.9,0,0,0-1.45-.61Z" transform="translate(-15.07 -185.46)"/><path class="cls-2" d="M635.61,608.26a2.84,2.84,0,0,1,2.28,1V604.7H640v11.52h-2v-.86a2.83,2.83,0,0,1-.95.76,2.92,2.92,0,0,1-1.37.3,3.56,3.56,0,0,1-1.49-.32,3.6,3.6,0,0,1-1.19-.85,3.83,3.83,0,0,1-.79-1.29,4.52,4.52,0,0,1-.28-1.62,4.45,4.45,0,0,1,.28-1.62,4,4,0,0,1,.79-1.3,3.75,3.75,0,0,1,1.19-.85A3.55,3.55,0,0,1,635.61,608.26Zm.38,1.94a2,2,0,0,0-.82.17,2,2,0,0,0-.64.45,2.3,2.3,0,0,0-.4.68,2.6,2.6,0,0,0-.14.84,2.49,2.49,0,0,0,.14.83,2.18,2.18,0,0,0,.4.68,2,2,0,0,0,.64.45,1.83,1.83,0,0,0,.82.17,2,2,0,0,0,.82-.16,1.59,1.59,0,0,0,.63-.45,1.93,1.93,0,0,0,.41-.68,2.62,2.62,0,0,0,0-1.69,2,2,0,0,0-.41-.68,1.81,1.81,0,0,0-.63-.45A2,2,0,0,0,636,610.2Z" transform="translate(-15.07 -185.46)"/><path class="cls-2" d="M645.6,608.26a4,4,0,0,1,1.53.29,3.49,3.49,0,0,1,1.19.83,3.79,3.79,0,0,1,.77,1.29,4.67,4.67,0,0,1,.28,1.66c0,.12,0,.25,0,.37s0,.24,0,.33h-5.5a2.32,2.32,0,0,0,.27.73,1.93,1.93,0,0,0,.44.5,1.81,1.81,0,0,0,.59.29,2.63,2.63,0,0,0,.7.09,2.91,2.91,0,0,0,1-.19,3.31,3.31,0,0,0,.94-.55l1.22,1.34a4.14,4.14,0,0,1-1.49.89,5.54,5.54,0,0,1-1.81.29,4.26,4.26,0,0,1-1.63-.3,3.44,3.44,0,0,1-1.27-.82A3.63,3.63,0,0,1,642,614a4.42,4.42,0,0,1-.3-1.66,4.72,4.72,0,0,1,.29-1.67,3.85,3.85,0,0,1,.8-1.29,3.68,3.68,0,0,1,1.24-.84A4.09,4.09,0,0,1,645.6,608.26Zm0,1.8a1.62,1.62,0,0,0-1.18.41,2,2,0,0,0-.57,1.14h3.43a2,2,0,0,0-.57-1.15A1.56,1.56,0,0,0,645.59,610.06Z" transform="translate(-15.07 -185.46)"/><path class="cls-2" d="M660.55,604.81a6.69,6.69,0,0,1,1.5.17,6.15,6.15,0,0,1,1.34.5,4.92,4.92,0,0,1,1.12.79,4.73,4.73,0,0,1,.84,1.05l-1.92,1.18a3.38,3.38,0,0,0-1.21-1.14,3.43,3.43,0,0,0-1.68-.41,3.62,3.62,0,0,0-1.41.27A3.34,3.34,0,0,0,658,608a3.5,3.5,0,0,0-.74,1.15,4,4,0,0,0-.27,1.5,3.92,3.92,0,0,0,.28,1.52,3.28,3.28,0,0,0,.75,1.15,3.24,3.24,0,0,0,1.12.73,3.55,3.55,0,0,0,1.39.26,3.41,3.41,0,0,0,1.67-.4,3.49,3.49,0,0,0,1.25-1.14l1.82,1.32a5.41,5.41,0,0,1-.87,1,5.62,5.62,0,0,1-1.1.75,6,6,0,0,1-1.29.47,6.37,6.37,0,0,1-1.47.16,6.29,6.29,0,0,1-2.37-.43,5.49,5.49,0,0,1-1.86-1.21,5.27,5.27,0,0,1-1.21-1.84,6.36,6.36,0,0,1,0-4.65,5.36,5.36,0,0,1,1.21-1.84,5.49,5.49,0,0,1,1.86-1.21A6.29,6.29,0,0,1,660.55,604.81Z" transform="translate(-15.07 -185.46)"/><path class="cls-2" d="M670.62,608.26a4.55,4.55,0,0,1,1.67.3,4.22,4.22,0,0,1,1.34.86,4,4,0,0,1,.87,1.3,4.07,4.07,0,0,1,.32,1.62,4.14,4.14,0,0,1-.32,1.62,3.86,3.86,0,0,1-.87,1.29,4.06,4.06,0,0,1-1.34.86,4.65,4.65,0,0,1-3.34,0,3.91,3.91,0,0,1-1.33-.86,3.86,3.86,0,0,1-.87-1.29,4.14,4.14,0,0,1-.32-1.62,4.07,4.07,0,0,1,.32-1.62,4,4,0,0,1,.87-1.3,4.07,4.07,0,0,1,1.33-.86A4.51,4.51,0,0,1,670.62,608.26Zm0,1.94a2,2,0,0,0-.82.16,1.83,1.83,0,0,0-.65.44,2,2,0,0,0-.43.67,2.42,2.42,0,0,0,0,1.73,2.07,2.07,0,0,0,.43.68,2,2,0,0,0,.65.44,2.18,2.18,0,0,0,.82.15,2.25,2.25,0,0,0,.82-.15,2,2,0,0,0,.65-.44,2.1,2.1,0,0,0,.44-.68,2.57,2.57,0,0,0,0-1.73,2.05,2.05,0,0,0-.44-.67,1.83,1.83,0,0,0-.65-.44A2.07,2.07,0,0,0,670.62,610.2Z" transform="translate(-15.07 -185.46)"/><path class="cls-2" d="M680.73,608.26a3.62,3.62,0,0,1,.6,0,3.19,3.19,0,0,1,.49.12l-.31,2.08a2.49,2.49,0,0,0-.6-.18,3.11,3.11,0,0,0-.67-.07,2,2,0,0,0-.66.11,1.44,1.44,0,0,0-.85.87,2.2,2.2,0,0,0-.12.76v4.23h-2.09v-7.76h2v.85a2.17,2.17,0,0,1,.91-.8A3,3,0,0,1,680.73,608.26Z" transform="translate(-15.07 -185.46)"/><path class="cls-2" d="M687.59,608.26a3.52,3.52,0,0,1,1.49.31,3.64,3.64,0,0,1,1.19.85,4.18,4.18,0,0,1,.8,1.3,4.45,4.45,0,0,1,.28,1.62,4.52,4.52,0,0,1-.28,1.62,3.83,3.83,0,0,1-.79,1.29,3.5,3.5,0,0,1-1.19.85,3.56,3.56,0,0,1-1.49.32,3,3,0,0,1-1.34-.28,2.94,2.94,0,0,1-.94-.73v4h-2.08v-11h2v.86a2.8,2.8,0,0,1,2.31-1.06Zm-.38,1.94a1.92,1.92,0,0,0-.81.16,1.94,1.94,0,0,0-1,1.13,2.62,2.62,0,0,0,0,1.69,1.93,1.93,0,0,0,.41.68,1.74,1.74,0,0,0,.63.45,1.92,1.92,0,0,0,.81.16,1.84,1.84,0,0,0,.83-.17,1.81,1.81,0,0,0,.63-.45,2,2,0,0,0,.4-.68,2.49,2.49,0,0,0,.14-.83,2.6,2.6,0,0,0-.14-.84,2.11,2.11,0,0,0-.4-.68,1.81,1.81,0,0,0-.63-.45A2,2,0,0,0,687.21,610.2Z" transform="translate(-15.07 -185.46)"/><path class="cls-2" d="M694.09,613.31a1.31,1.31,0,0,1,.59.13,1.51,1.51,0,0,1,.49.33,1.66,1.66,0,0,1,.34.49,1.54,1.54,0,0,1,0,1.19,1.58,1.58,0,0,1-.34.5,1.39,1.39,0,0,1-.49.34,1.31,1.31,0,0,1-.59.13,1.38,1.38,0,0,1-.6-.13A1.39,1.39,0,0,1,693,616a1.58,1.58,0,0,1-.34-.5,1.43,1.43,0,0,1,0-1.19,1.66,1.66,0,0,1,.34-.49,1.51,1.51,0,0,1,.49-.33A1.38,1.38,0,0,1,694.09,613.31Z" transform="translate(-15.07 -185.46)"/><path class="cls-2" d="M627.33,490.63h-5.91v-2.28h5.91Z" transform="translate(-15.07 -185.46)"/><path class="cls-2" d="M634.48,480.56a5.15,5.15,0,0,1,2.09.43,4.65,4.65,0,0,1,1.72,1.32,6.35,6.35,0,0,1,1.17,2.26,10.71,10.71,0,0,1,.44,3.24,11.15,11.15,0,0,1-.44,3.33,6.17,6.17,0,0,1-1.17,2.24,4.44,4.44,0,0,1-1.72,1.28,5.47,5.47,0,0,1-2.09.4,5.57,5.57,0,0,1-2.13-.4,4.53,4.53,0,0,1-1.75-1.28,6.35,6.35,0,0,1-1.19-2.24,10.81,10.81,0,0,1-.45-3.33,10.7,10.7,0,0,1,.45-3.32,6.31,6.31,0,0,1,1.19-2.25,4.44,4.44,0,0,1,1.75-1.28A5.57,5.57,0,0,1,634.48,480.56Zm0,2.59a2.37,2.37,0,0,0-1,.24,2.17,2.17,0,0,0-.87.77,4.19,4.19,0,0,0-.59,1.44,9.14,9.14,0,0,0-.23,2.21A9.29,9.29,0,0,0,632,490a4.22,4.22,0,0,0,.59,1.43,2.28,2.28,0,0,0,.87.78,2.5,2.5,0,0,0,1,.23,2.36,2.36,0,0,0,1-.23,2.29,2.29,0,0,0,.84-.78,4.43,4.43,0,0,0,.58-1.43,9.89,9.89,0,0,0,.22-2.22,9.21,9.21,0,0,0-.22-2.12,4.66,4.66,0,0,0-.58-1.45,2.37,2.37,0,0,0-.84-.83A2.13,2.13,0,0,0,634.48,483.15Z" transform="translate(-15.07 -185.46)"/><path class="cls-2" d="M643.21,491.18a1.74,1.74,0,0,1,.75.16,2,2,0,0,1,.61.42,1.93,1.93,0,0,1,.58,1.35,1.94,1.94,0,0,1-.16.75,2,2,0,0,1-.42.62,2.17,2.17,0,0,1-.61.43,1.9,1.9,0,0,1-.75.15,1.92,1.92,0,0,1-.74-.15,2.09,2.09,0,0,1-.62-.43,2,2,0,0,1-.42-.62,1.78,1.78,0,0,1-.16-.75,1.7,1.7,0,0,1,.16-.74,1.85,1.85,0,0,1,.42-.61,1.89,1.89,0,0,1,.62-.42A1.76,1.76,0,0,1,643.21,491.18Z" transform="translate(-15.07 -185.46)"/><path class="cls-2" d="M651.26,492.25v-8l-3.47,1.24v-2.69l6.17-2.18v11.66h3.16v2.56H648v-2.56Z" transform="translate(-15.07 -185.46)"/><path class="cls-2" d="M663.55,480.56a6.82,6.82,0,0,1,2,.29,4.83,4.83,0,0,1,1.56.82,3.64,3.64,0,0,1,1,1.26,3.84,3.84,0,0,1,.35,1.65,3.27,3.27,0,0,1-.55,1.92,3.79,3.79,0,0,1-1.54,1.26,4,4,0,0,1,1.76,1.26,3,3,0,0,1,.65,2,3.62,3.62,0,0,1-.44,1.81,3.92,3.92,0,0,1-1.16,1.27,5.1,5.1,0,0,1-1.65.76,7.15,7.15,0,0,1-1.91.25,7.3,7.3,0,0,1-2.84-.53,5.24,5.24,0,0,1-2.06-1.5l1.61-1.77a4.16,4.16,0,0,0,1.45,1,4.46,4.46,0,0,0,1.73.35,4.15,4.15,0,0,0,1-.11,2.3,2.3,0,0,0,.78-.33,1.7,1.7,0,0,0,.53-.57,1.73,1.73,0,0,0,.18-.81,1.48,1.48,0,0,0-.21-.79,1.7,1.7,0,0,0-.59-.57,2.6,2.6,0,0,0-.87-.35,4.49,4.49,0,0,0-1.07-.12h-1.63v-2.4h1.65a4.19,4.19,0,0,0,1-.11,2.3,2.3,0,0,0,.78-.33,1.63,1.63,0,0,0,.52-.56,1.67,1.67,0,0,0,0-1.53,1.61,1.61,0,0,0-.49-.55,2.21,2.21,0,0,0-.73-.33,3.55,3.55,0,0,0-1.83,0,3.27,3.27,0,0,0-.77.31,3.75,3.75,0,0,0-.65.45,3.6,3.6,0,0,0-.5.54l-1.7-1.71a5.87,5.87,0,0,1,.8-.86,5,5,0,0,1,1-.69,6.12,6.12,0,0,1,1.29-.45A6.79,6.79,0,0,1,663.55,480.56Z" transform="translate(-15.07 -185.46)"/><rect class="cls-1" x="744.8" y="206.05" width="36.6" height="133.15"/><path class="cls-2" d="M748.82,595v-6.43l-2.78,1v-2.16l4.93-1.74V595h2.54v2h-7.34v-2Z" transform="translate(-15.07 -185.46)"/><path class="cls-2" d="M759,585.62a4.17,4.17,0,0,1,1.68.34,3.77,3.77,0,0,1,1.38,1.06,5.26,5.26,0,0,1,.93,1.8,8.7,8.7,0,0,1,.35,2.6,9,9,0,0,1-.35,2.66,5.12,5.12,0,0,1-.93,1.79,3.55,3.55,0,0,1-1.38,1,4.34,4.34,0,0,1-1.68.33,4.4,4.4,0,0,1-1.7-.33,3.47,3.47,0,0,1-1.4-1,5,5,0,0,1-.95-1.79,10,10,0,0,1,0-5.32,5,5,0,0,1,.95-1.8,3.47,3.47,0,0,1,1.4-1A4.4,4.4,0,0,1,759,585.62Zm0,2.07a1.87,1.87,0,0,0-.83.19,1.75,1.75,0,0,0-.69.62,3.46,3.46,0,0,0-.48,1.14,9.35,9.35,0,0,0,0,3.55,3.52,3.52,0,0,0,.48,1.15,1.92,1.92,0,0,0,.69.62,2,2,0,0,0,.83.18,1.84,1.84,0,0,0,.8-.18,1.89,1.89,0,0,0,.68-.62,3.53,3.53,0,0,0,.46-1.15,7.47,7.47,0,0,0,.17-1.77,7,7,0,0,0-.17-1.7,3.69,3.69,0,0,0-.46-1.16,1.85,1.85,0,0,0-.68-.66A1.62,1.62,0,0,0,759,587.69Z" transform="translate(-15.07 -185.46)"/><path class="cls-2" d="M767.68,596.44v-2.79h-2.77v-1.79h2.77v-2.79h1.82v2.79h2.77v1.79H769.5v2.79Z" transform="translate(-15.07 -185.46)"/><path class="cls-2" d="M783.6,592.6V597h-2.23v-4.43l-4.32-6.77h2.63l2.81,4.75,2.82-4.75h2.54Z" transform="translate(-15.07 -185.46)"/><path class="cls-2" d="M790.93,589.06a4.06,4.06,0,0,1,1.54.29,3.55,3.55,0,0,1,1.18.83,4,4,0,0,1,.78,1.29,4.9,4.9,0,0,1,.27,1.66c0,.12,0,.25,0,.37s0,.24,0,.33h-5.49a2.09,2.09,0,0,0,.26.73,1.93,1.93,0,0,0,.44.5,1.81,1.81,0,0,0,.59.29,2.63,2.63,0,0,0,.7.09,2.91,2.91,0,0,0,1-.19,3.31,3.31,0,0,0,.94-.55l1.22,1.34a4.14,4.14,0,0,1-1.49.89,5.54,5.54,0,0,1-1.81.29,4.3,4.3,0,0,1-1.63-.3,3.52,3.52,0,0,1-1.27-.82,3.63,3.63,0,0,1-.83-1.28,4.42,4.42,0,0,1-.3-1.66,4.72,4.72,0,0,1,.29-1.67,3.72,3.72,0,0,1,.81-1.29,3.54,3.54,0,0,1,1.23-.84A4.09,4.09,0,0,1,790.93,589.06Zm0,1.8a1.62,1.62,0,0,0-1.18.41,2,2,0,0,0-.57,1.14h3.44a2,2,0,0,0-.58-1.15A1.56,1.56,0,0,0,790.92,590.86Z" transform="translate(-15.07 -185.46)"/><path class="cls-2" d="M804,597h-2v-.86a2.88,2.88,0,0,1-2.32,1.06,3.68,3.68,0,0,1-2.68-1.17,3.93,3.93,0,0,1-.79-1.29,4.52,4.52,0,0,1-.28-1.62,4.45,4.45,0,0,1,.28-1.62,4,4,0,0,1,.79-1.3,3.64,3.64,0,0,1,1.19-.85,3.52,3.52,0,0,1,1.49-.31,2.92,2.92,0,0,1,1.37.29,3,3,0,0,1,1,.77v-.86h2Zm-4-6a2.05,2.05,0,0,0-.83.17,2,2,0,0,0-.63.45,2.11,2.11,0,0,0-.4.68,2.6,2.6,0,0,0-.14.84,2.49,2.49,0,0,0,.14.83,1.88,1.88,0,0,0,1,1.13,1.9,1.9,0,0,0,.83.17,2,2,0,0,0,.82-.16,1.74,1.74,0,0,0,.63-.45,1.93,1.93,0,0,0,.41-.68,2.62,2.62,0,0,0,0-1.69,1.94,1.94,0,0,0-1-1.13A2,2,0,0,0,800.06,591Z" transform="translate(-15.07 -185.46)"/><path class="cls-2" d="M810.44,589.06a3.7,3.7,0,0,1,.6,0,3.19,3.19,0,0,1,.49.12l-.32,2.08a2.36,2.36,0,0,0-.6-.18,3.09,3.09,0,0,0-.66-.07,2,2,0,0,0-.66.11,1.49,1.49,0,0,0-.52.33,1.45,1.45,0,0,0-.33.54,2.2,2.2,0,0,0-.12.76V597h-2.09v-7.76h2v.85a2.2,2.2,0,0,1,.92-.8A3,3,0,0,1,810.44,589.06Z" transform="translate(-15.07 -185.46)"/><path class="cls-2" d="M747.86,607.1h-3.47v9.12h-2.23V607.1h-3.47V605h9.17Z" transform="translate(-15.07 -185.46)"/><path class="cls-2" d="M752.57,608.26a3.7,3.7,0,0,1,.6,0,2.8,2.8,0,0,1,.48.12l-.31,2.08a2.36,2.36,0,0,0-.6-.18,3.09,3.09,0,0,0-.66-.07,2,2,0,0,0-.66.11,1.49,1.49,0,0,0-.52.33,1.45,1.45,0,0,0-.33.54,2.2,2.2,0,0,0-.12.76v4.23h-2.09v-7.76h2v.85a2.2,2.2,0,0,1,.92-.8A3,3,0,0,1,752.57,608.26Z" transform="translate(-15.07 -185.46)"/><path class="cls-2" d="M758.25,608.26a4.06,4.06,0,0,1,1.54.29,3.55,3.55,0,0,1,1.18.83,4,4,0,0,1,.78,1.29,4.9,4.9,0,0,1,.27,1.66c0,.12,0,.25,0,.37s0,.24,0,.33h-5.49a2.09,2.09,0,0,0,.26.73,1.93,1.93,0,0,0,.44.5,1.81,1.81,0,0,0,.59.29,2.63,2.63,0,0,0,.7.09,2.91,2.91,0,0,0,1-.19,3.18,3.18,0,0,0,.94-.55l1.22,1.34a4.14,4.14,0,0,1-1.49.89,5.54,5.54,0,0,1-1.81.29,4.3,4.3,0,0,1-1.63-.3,3.52,3.52,0,0,1-1.27-.82,3.63,3.63,0,0,1-.83-1.28,4.42,4.42,0,0,1-.3-1.66,4.72,4.72,0,0,1,.29-1.67,3.72,3.72,0,0,1,.81-1.29,3.54,3.54,0,0,1,1.23-.84A4.09,4.09,0,0,1,758.25,608.26Zm0,1.8a1.62,1.62,0,0,0-1.18.41,2,2,0,0,0-.57,1.14h3.44a2,2,0,0,0-.58-1.15A1.56,1.56,0,0,0,758.24,610.06Z" transform="translate(-15.07 -185.46)"/><path class="cls-2" d="M771.36,616.22h-2v-.86a2.83,2.83,0,0,1-1,.76,2.92,2.92,0,0,1-1.37.3,3.68,3.68,0,0,1-2.68-1.17,3.83,3.83,0,0,1-.79-1.29,4.52,4.52,0,0,1-.28-1.62,4.45,4.45,0,0,1,.28-1.62,4,4,0,0,1,.79-1.3,3.64,3.64,0,0,1,1.19-.85,3.52,3.52,0,0,1,1.49-.31,2.92,2.92,0,0,1,1.37.29,2.86,2.86,0,0,1,1,.77v-.86h2Zm-4-6a2.05,2.05,0,0,0-.83.17,2,2,0,0,0-.63.45,2.3,2.3,0,0,0-.4.68,2.6,2.6,0,0,0-.14.84,2.49,2.49,0,0,0,.14.83,2.18,2.18,0,0,0,.4.68,2,2,0,0,0,.63.45,1.9,1.9,0,0,0,.83.17,2,2,0,0,0,.82-.16,1.74,1.74,0,0,0,.63-.45,1.93,1.93,0,0,0,.41-.68,2.62,2.62,0,0,0,0-1.69,1.94,1.94,0,0,0-1-1.13A2,2,0,0,0,767.38,610.2Z" transform="translate(-15.07 -185.46)"/><path class="cls-2" d="M779.11,610.62l-.52-.22c-.2-.07-.4-.14-.62-.2l-.66-.15a3.88,3.88,0,0,0-.67-.06,1.77,1.77,0,0,0-.9.19.58.58,0,0,0-.29.52.4.4,0,0,0,.1.28.75.75,0,0,0,.26.18,2.09,2.09,0,0,0,.4.12l.5.08.69.1a4,4,0,0,1,1.94.76,1.93,1.93,0,0,1,.67,1.56,2.42,2.42,0,0,1-.24,1.09,2.3,2.3,0,0,1-.69.83,3.53,3.53,0,0,1-1.12.53,5.83,5.83,0,0,1-1.51.19c-.26,0-.54,0-.84,0a7,7,0,0,1-.9-.15,5.08,5.08,0,0,1-.89-.28,3.53,3.53,0,0,1-.81-.44l.82-1.58a4.54,4.54,0,0,0,.53.3,2.89,2.89,0,0,0,.6.24,3.77,3.77,0,0,0,.7.16,5.13,5.13,0,0,0,.81.06,2.29,2.29,0,0,0,1.08-.19.6.6,0,0,0,.35-.54.52.52,0,0,0-.3-.45,3,3,0,0,0-1-.26l-.63-.09c-1.78-.24-2.68-1-2.68-2.35a2.44,2.44,0,0,1,.23-1.07,2.11,2.11,0,0,1,.64-.79,3,3,0,0,1,1-.5,4.79,4.79,0,0,1,1.37-.18,8.37,8.37,0,0,1,.89,0,6.85,6.85,0,0,1,.81.13c.27.07.53.14.78.23a6.24,6.24,0,0,1,.76.33Z" transform="translate(-15.07 -185.46)"/><path class="cls-2" d="M788.91,612.91a3.77,3.77,0,0,1-.3,1.58,3,3,0,0,1-2,1.72,4.59,4.59,0,0,1-1.39.21,4.65,4.65,0,0,1-1.4-.21,3.16,3.16,0,0,1-1.17-.63,3.08,3.08,0,0,1-.81-1.09,3.77,3.77,0,0,1-.3-1.58v-4.45h2.09v4.27a2.3,2.3,0,0,0,.12.79,1.31,1.31,0,0,0,.33.54,1.21,1.21,0,0,0,.51.31,1.81,1.81,0,0,0,.63.1,1.79,1.79,0,0,0,.62-.1,1.24,1.24,0,0,0,.5-.31,1.22,1.22,0,0,0,.34-.54,2.3,2.3,0,0,0,.12-.79v-4.27h2.08Z" transform="translate(-15.07 -185.46)"/><path class="cls-2" d="M795.25,608.26a3.7,3.7,0,0,1,.6,0,2.8,2.8,0,0,1,.48.12L796,610.5a2.36,2.36,0,0,0-.6-.18,3.09,3.09,0,0,0-.66-.07,2,2,0,0,0-.66.11,1.49,1.49,0,0,0-.52.33,1.45,1.45,0,0,0-.33.54,2.2,2.2,0,0,0-.12.76v4.23H791v-7.76h2v.85a2.2,2.2,0,0,1,.92-.8A3,3,0,0,1,795.25,608.26Z" transform="translate(-15.07 -185.46)"/><path class="cls-2" d="M798.79,604.58a1.42,1.42,0,0,1,1,.39,1.39,1.39,0,0,1,.28.43,1.35,1.35,0,0,1,.1.53,1.28,1.28,0,0,1-.81,1.23,1.4,1.4,0,0,1-1,0,1.31,1.31,0,0,1-.81-1.23,1.35,1.35,0,0,1,.1-.53,1.39,1.39,0,0,1,.28-.43,1.42,1.42,0,0,1,.95-.39Zm1.06,11.64h-2.09v-7.76h2.09Z" transform="translate(-15.07 -185.46)"/><path class="cls-2" d="M805.48,608.26a4,4,0,0,1,1.53.29,3.59,3.59,0,0,1,1.19.83,3.79,3.79,0,0,1,.77,1.29,4.9,4.9,0,0,1,.28,1.66c0,.12,0,.25,0,.37a2.92,2.92,0,0,1,0,.33h-5.5a2.09,2.09,0,0,0,.26.73,2,2,0,0,0,.45.5,1.71,1.71,0,0,0,.59.29,2.56,2.56,0,0,0,.69.09,2.83,2.83,0,0,0,1-.19,3.06,3.06,0,0,0,.94-.55l1.23,1.34a4.18,4.18,0,0,1-1.5.89,5.5,5.5,0,0,1-1.81.29,4.34,4.34,0,0,1-1.63-.3,3.61,3.61,0,0,1-1.27-.82,3.78,3.78,0,0,1-.83-1.28,4.63,4.63,0,0,1-.29-1.66,4.51,4.51,0,0,1,.29-1.67,3.85,3.85,0,0,1,.8-1.29,3.58,3.58,0,0,1,1.24-.84A4.09,4.09,0,0,1,805.48,608.26Zm0,1.8a1.59,1.59,0,0,0-1.17.41,2,2,0,0,0-.57,1.14h3.43a2,2,0,0,0-.58-1.15A1.53,1.53,0,0,0,805.46,610.06Z" transform="translate(-15.07 -185.46)"/><path class="cls-2" d="M816.45,610.62l-.52-.22c-.2-.07-.4-.14-.62-.2a6.38,6.38,0,0,0-.66-.15A3.88,3.88,0,0,0,814,610a1.77,1.77,0,0,0-.9.19.6.6,0,0,0-.29.52.4.4,0,0,0,.1.28.8.8,0,0,0,.27.18,1.73,1.73,0,0,0,.4.12l.49.08.69.1a4,4,0,0,1,1.94.76,1.94,1.94,0,0,1,.68,1.56,2.42,2.42,0,0,1-.24,1.09,2.23,2.23,0,0,1-.7.83,3.43,3.43,0,0,1-1.12.53,5.69,5.69,0,0,1-1.5.19c-.27,0-.55,0-.85,0a7.19,7.19,0,0,1-.89-.15,4.83,4.83,0,0,1-.89-.28,3.4,3.4,0,0,1-.82-.44l.82-1.58a4.54,4.54,0,0,0,.53.3,3.13,3.13,0,0,0,.6.24,3.77,3.77,0,0,0,.7.16,5.13,5.13,0,0,0,.81.06,2.29,2.29,0,0,0,1.08-.19.6.6,0,0,0,.36-.54.53.53,0,0,0-.31-.45,3,3,0,0,0-1-.26l-.63-.09c-1.79-.24-2.68-1-2.68-2.35a2.44,2.44,0,0,1,.22-1.07,2.14,2.14,0,0,1,.65-.79,2.86,2.86,0,0,1,1-.5,4.91,4.91,0,0,1,1.38-.18,8.18,8.18,0,0,1,.88,0,7.37,7.37,0,0,1,.82.13c.26.07.52.14.77.23a6.37,6.37,0,0,1,.77.33Z" transform="translate(-15.07 -185.46)"/><path class="cls-2" d="M757.34,545.1h-5.91v-2.28h5.91Z" transform="translate(-15.07 -185.46)"/><path class="cls-2" d="M764.49,535a5.33,5.33,0,0,1,2.1.43,4.73,4.73,0,0,1,1.72,1.32,6.44,6.44,0,0,1,1.17,2.26,10.82,10.82,0,0,1,.43,3.24,11.17,11.17,0,0,1-.43,3.33,6.17,6.17,0,0,1-1.17,2.24,4.51,4.51,0,0,1-1.72,1.28,5.49,5.49,0,0,1-2.1.4,5.64,5.64,0,0,1-2.13-.4,4.61,4.61,0,0,1-1.75-1.28,6.51,6.51,0,0,1-1.19-2.24,12.78,12.78,0,0,1,0-6.65,6.47,6.47,0,0,1,1.19-2.25,4.51,4.51,0,0,1,1.75-1.28A5.84,5.84,0,0,1,764.49,535Zm0,2.59a2.32,2.32,0,0,0-1,.24,2.17,2.17,0,0,0-.87.77,4.4,4.4,0,0,0-.6,1.44,11.26,11.26,0,0,0,0,4.43,4.43,4.43,0,0,0,.6,1.43,2.28,2.28,0,0,0,.87.78,2.46,2.46,0,0,0,1,.23,2.13,2.13,0,0,0,1.85-1,4.67,4.67,0,0,0,.58-1.43,10,10,0,0,0,.21-2.22,9.32,9.32,0,0,0-.21-2.12,4.92,4.92,0,0,0-.58-1.45,2.48,2.48,0,0,0-.85-.83A2.1,2.1,0,0,0,764.49,537.62Z" transform="translate(-15.07 -185.46)"/><path class="cls-2" d="M773.23,545.65a1.86,1.86,0,0,1,.74.16,1.89,1.89,0,0,1,.62.42,2.21,2.21,0,0,1,.42.61,1.88,1.88,0,0,1,.15.74,1.93,1.93,0,0,1-.15.75,2.42,2.42,0,0,1-.42.62,2.09,2.09,0,0,1-.62.43,1.9,1.9,0,0,1-1.48,0,2,2,0,0,1-.62-.43,2.22,2.22,0,0,1-.43-.62,1.94,1.94,0,0,1-.16-.75,1.89,1.89,0,0,1,.16-.74,2,2,0,0,1,.43-.61,1.79,1.79,0,0,1,.62-.42A1.86,1.86,0,0,1,773.23,545.65Z" transform="translate(-15.07 -185.46)"/><path class="cls-2" d="M777,537.44a9.07,9.07,0,0,1,.7-.79,5.36,5.36,0,0,1,1-.79,5.66,5.66,0,0,1,1.34-.59,5.81,5.81,0,0,1,1.74-.24,5.63,5.63,0,0,1,2,.33,4.23,4.23,0,0,1,1.5.93,3.92,3.92,0,0,1,.94,1.43,4.92,4.92,0,0,1,.33,1.83,4.59,4.59,0,0,1-.15,1.2,5.38,5.38,0,0,1-.43,1,5.78,5.78,0,0,1-.64.94c-.24.3-.51.6-.8.9l-3,3.11h5.35v2.53h-9.25v-2.11l4.95-5.07a4.59,4.59,0,0,0,.86-1.15,2.83,2.83,0,0,0,.29-1.25,2.32,2.32,0,0,0-.15-.84,2.12,2.12,0,0,0-.44-.66,1.93,1.93,0,0,0-.67-.43,2.5,2.5,0,0,0-.88-.16,2.84,2.84,0,0,0-.9.13,3.16,3.16,0,0,0-.75.33,4.85,4.85,0,0,0-.63.49c-.19.19-.38.39-.56.59Z" transform="translate(-15.07 -185.46)"/><path class="cls-2" d="M789,537.44a9.07,9.07,0,0,1,.7-.79,5.36,5.36,0,0,1,1-.79,5.66,5.66,0,0,1,1.34-.59,5.81,5.81,0,0,1,1.74-.24,5.63,5.63,0,0,1,2,.33,4.23,4.23,0,0,1,1.5.93,3.92,3.92,0,0,1,.94,1.43,4.92,4.92,0,0,1,.33,1.83,4.59,4.59,0,0,1-.15,1.2,5.38,5.38,0,0,1-.43,1,5.78,5.78,0,0,1-.64.94c-.24.3-.51.6-.8.9l-3,3.11h5.35v2.53h-9.25v-2.11l4.95-5.07a4.59,4.59,0,0,0,.86-1.15,2.83,2.83,0,0,0,.29-1.25,2.32,2.32,0,0,0-.15-.84,2.12,2.12,0,0,0-.44-.66,1.93,1.93,0,0,0-.67-.43,2.5,2.5,0,0,0-.88-.16,2.84,2.84,0,0,0-.9.13,3.16,3.16,0,0,0-.75.33,4.85,4.85,0,0,0-.63.49c-.19.19-.38.39-.56.59Z" transform="translate(-15.07 -185.46)"/><rect class="cls-1" x="873.74" y="206.05" width="36.6" height="127.1"/><path class="cls-2" d="M869.71,595v-6.43l-2.78,1v-2.16l4.93-1.74V595h2.54v2h-7.35v-2Z" transform="translate(-15.07 -185.46)"/><path class="cls-2" d="M879.91,585.62a4.17,4.17,0,0,1,1.68.34A3.77,3.77,0,0,1,883,587a5.26,5.26,0,0,1,.93,1.8,8.7,8.7,0,0,1,.35,2.6,9,9,0,0,1-.35,2.66,5.12,5.12,0,0,1-.93,1.79,3.55,3.55,0,0,1-1.38,1,4.34,4.34,0,0,1-1.68.33,4.4,4.4,0,0,1-1.7-.33,3.47,3.47,0,0,1-1.4-1,5.15,5.15,0,0,1-1-1.79,10.28,10.28,0,0,1,0-5.32,5.11,5.11,0,0,1,1-1.8,3.47,3.47,0,0,1,1.4-1A4.4,4.4,0,0,1,879.91,585.62Zm0,2.07a1.87,1.87,0,0,0-.83.19,1.75,1.75,0,0,0-.69.62,3.46,3.46,0,0,0-.48,1.14,8.84,8.84,0,0,0,0,3.55,3.52,3.52,0,0,0,.48,1.15,1.92,1.92,0,0,0,.69.62,2,2,0,0,0,.83.18,1.87,1.87,0,0,0,.8-.18,1.89,1.89,0,0,0,.68-.62,3.53,3.53,0,0,0,.46-1.15,8,8,0,0,0,.17-1.77,7.5,7.5,0,0,0-.17-1.7,3.69,3.69,0,0,0-.46-1.16,1.85,1.85,0,0,0-.68-.66A1.65,1.65,0,0,0,879.91,587.69Z" transform="translate(-15.07 -185.46)"/><path class="cls-2" d="M890.29,593.67h-4.72v-1.82h4.72Z" transform="translate(-15.07 -185.46)"/><path class="cls-2" d="M892,587.54a7.29,7.29,0,0,1,.56-.63,4,4,0,0,1,.8-.63,5,5,0,0,1,1.07-.48,4.93,4.93,0,0,1,1.39-.18,4.42,4.42,0,0,1,1.59.26,3.34,3.34,0,0,1,1.19.74,3.31,3.31,0,0,1,.76,1.14,3.92,3.92,0,0,1,.26,1.47,3.71,3.71,0,0,1-.12,1,4.35,4.35,0,0,1-.34.84,5.22,5.22,0,0,1-.51.75c-.2.24-.41.48-.64.72L895.57,595h4.28v2h-7.4v-1.69l4-4.06a4,4,0,0,0,.68-.92,2.17,2.17,0,0,0,.24-1,1.82,1.82,0,0,0-.13-.67,1.58,1.58,0,0,0-.35-.53,1.68,1.68,0,0,0-.54-.35,1.94,1.94,0,0,0-.7-.12,2.37,2.37,0,0,0-.72.1,3,3,0,0,0-.6.27,2.69,2.69,0,0,0-.5.39c-.16.15-.3.31-.45.47Z" transform="translate(-15.07 -185.46)"/><path class="cls-2" d="M905.61,585.62a4.14,4.14,0,0,1,1.68.34,3.77,3.77,0,0,1,1.38,1.06,5.27,5.27,0,0,1,.94,1.8,9.06,9.06,0,0,1,.34,2.6,9.35,9.35,0,0,1-.34,2.66,5.13,5.13,0,0,1-.94,1.79,3.55,3.55,0,0,1-1.38,1,4.3,4.3,0,0,1-1.68.33,4.4,4.4,0,0,1-1.7-.33,3.54,3.54,0,0,1-1.4-1,5,5,0,0,1-1-1.79,10.28,10.28,0,0,1,0-5.32,5,5,0,0,1,1-1.8,3.54,3.54,0,0,1,1.4-1A4.4,4.4,0,0,1,905.61,585.62Zm0,2.07a1.83,1.83,0,0,0-.82.19,1.71,1.71,0,0,0-.7.62,3.46,3.46,0,0,0-.48,1.14,9.35,9.35,0,0,0,0,3.55,3.52,3.52,0,0,0,.48,1.15,1.86,1.86,0,0,0,.7.62,2,2,0,0,0,.82.18,1.84,1.84,0,0,0,.8-.18,1.89,1.89,0,0,0,.68-.62,3.53,3.53,0,0,0,.46-1.15,7.42,7.42,0,0,0,.18-1.77,6.92,6.92,0,0,0-.18-1.7,3.69,3.69,0,0,0-.46-1.16,1.85,1.85,0,0,0-.68-.66A1.62,1.62,0,0,0,905.61,587.69Z" transform="translate(-15.07 -185.46)"/><path class="cls-2" d="M920.59,592.6V597h-2.23v-4.43L914,585.82h2.63l2.82,4.75,2.81-4.75h2.55Z" transform="translate(-15.07 -185.46)"/><path class="cls-2" d="M927.93,589.06a4,4,0,0,1,1.53.29,3.59,3.59,0,0,1,1.19.83,4,4,0,0,1,.77,1.29,4.9,4.9,0,0,1,.27,1.66c0,.12,0,.25,0,.37s0,.24,0,.33h-5.49a2.09,2.09,0,0,0,.26.73,1.8,1.8,0,0,0,.45.5,1.76,1.76,0,0,0,.58.29,2.63,2.63,0,0,0,.7.09,2.83,2.83,0,0,0,1-.19,3.18,3.18,0,0,0,.94-.55l1.22,1.34a4.14,4.14,0,0,1-1.49.89,5.5,5.5,0,0,1-1.81.29,4.34,4.34,0,0,1-1.63-.3,3.52,3.52,0,0,1-1.27-.82,3.78,3.78,0,0,1-.83-1.28,4.42,4.42,0,0,1-.29-1.66,4.72,4.72,0,0,1,.28-1.67,3.87,3.87,0,0,1,.81-1.29,3.54,3.54,0,0,1,1.23-.84A4.11,4.11,0,0,1,927.93,589.06Zm0,1.8a1.62,1.62,0,0,0-1.18.41,2.05,2.05,0,0,0-.56,1.14h3.43a2,2,0,0,0-.58-1.15A1.56,1.56,0,0,0,927.91,590.86Z" transform="translate(-15.07 -185.46)"/><path class="cls-2" d="M941,597h-2v-.86a2.83,2.83,0,0,1-1,.76,2.92,2.92,0,0,1-1.37.3,3.56,3.56,0,0,1-1.49-.32,3.6,3.6,0,0,1-1.19-.85,3.93,3.93,0,0,1-.79-1.29,4.52,4.52,0,0,1-.28-1.62,4.45,4.45,0,0,1,.28-1.62,4,4,0,0,1,.79-1.3,3.75,3.75,0,0,1,1.19-.85,3.55,3.55,0,0,1,1.49-.31,2.92,2.92,0,0,1,1.37.29,2.86,2.86,0,0,1,1,.77v-.86h2Zm-4-6a2,2,0,0,0-.82.17,2,2,0,0,0-.64.45,2.3,2.3,0,0,0-.4.68,2.6,2.6,0,0,0-.14.84,2.49,2.49,0,0,0,.14.83,2.18,2.18,0,0,0,.4.68,2,2,0,0,0,.64.45,1.83,1.83,0,0,0,.82.17,2,2,0,0,0,.82-.16,1.59,1.59,0,0,0,.63-.45,1.93,1.93,0,0,0,.41-.68,2.62,2.62,0,0,0,0-1.69,2,2,0,0,0-.41-.68,1.81,1.81,0,0,0-.63-.45A2,2,0,0,0,937.05,591Z" transform="translate(-15.07 -185.46)"/><path class="cls-2" d="M947.43,589.06a3.7,3.7,0,0,1,.6,0,3.19,3.19,0,0,1,.49.12l-.31,2.08a2.63,2.63,0,0,0-.6-.18,3.18,3.18,0,0,0-.67-.07,2,2,0,0,0-.66.11,1.44,1.44,0,0,0-.85.87,2.2,2.2,0,0,0-.12.76V597h-2.09v-7.76h2v.85a2.17,2.17,0,0,1,.91-.8A3,3,0,0,1,947.43,589.06Z" transform="translate(-15.07 -185.46)"/><path class="cls-2" d="M876.8,607.1h-3.47v9.12H871.1V607.1h-3.47V605h9.17Z" transform="translate(-15.07 -185.46)"/><path class="cls-2" d="M881.51,608.26a3.7,3.7,0,0,1,.6,0,2.8,2.8,0,0,1,.48.12l-.31,2.08a2.36,2.36,0,0,0-.6-.18,3.09,3.09,0,0,0-.66-.07,2,2,0,0,0-.66.11,1.49,1.49,0,0,0-.52.33,1.45,1.45,0,0,0-.33.54,2.2,2.2,0,0,0-.12.76v4.23H877.3v-7.76h2v.85a2.2,2.2,0,0,1,.92-.8A3,3,0,0,1,881.51,608.26Z" transform="translate(-15.07 -185.46)"/><path class="cls-2" d="M887.19,608.26a4.06,4.06,0,0,1,1.54.29,3.55,3.55,0,0,1,1.18.83,3.81,3.81,0,0,1,.78,1.29,4.9,4.9,0,0,1,.27,1.66c0,.12,0,.25,0,.37s0,.24,0,.33h-5.49a2.09,2.09,0,0,0,.26.73,1.93,1.93,0,0,0,.44.5,1.81,1.81,0,0,0,.59.29,2.63,2.63,0,0,0,.7.09,2.91,2.91,0,0,0,1-.19,3.18,3.18,0,0,0,.94-.55l1.22,1.34a4.14,4.14,0,0,1-1.49.89,5.54,5.54,0,0,1-1.81.29,4.3,4.3,0,0,1-1.63-.3,3.52,3.52,0,0,1-1.27-.82,3.63,3.63,0,0,1-.83-1.28,4.42,4.42,0,0,1-.3-1.66,4.72,4.72,0,0,1,.29-1.67,3.72,3.72,0,0,1,.81-1.29,3.54,3.54,0,0,1,1.23-.84A4.09,4.09,0,0,1,887.19,608.26Zm0,1.8a1.62,1.62,0,0,0-1.18.41,2.06,2.06,0,0,0-.57,1.14h3.44a2,2,0,0,0-.58-1.15A1.56,1.56,0,0,0,887.18,610.06Z" transform="translate(-15.07 -185.46)"/><path class="cls-2" d="M900.3,616.22h-2v-.86a2.83,2.83,0,0,1-1,.76,2.92,2.92,0,0,1-1.37.3,3.56,3.56,0,0,1-1.49-.32,3.5,3.5,0,0,1-1.19-.85,3.83,3.83,0,0,1-.79-1.29,4.52,4.52,0,0,1-.28-1.62,4.45,4.45,0,0,1,.28-1.62,4,4,0,0,1,.79-1.3,3.64,3.64,0,0,1,1.19-.85,3.55,3.55,0,0,1,1.49-.31,2.92,2.92,0,0,1,1.37.29,2.86,2.86,0,0,1,1,.77v-.86h2Zm-4-6a2.05,2.05,0,0,0-.83.17,2,2,0,0,0-.63.45,2.3,2.3,0,0,0-.4.68,2.6,2.6,0,0,0-.14.84,2.49,2.49,0,0,0,.14.83,2.18,2.18,0,0,0,.4.68,2,2,0,0,0,.63.45,1.9,1.9,0,0,0,.83.17,2,2,0,0,0,.82-.16,1.74,1.74,0,0,0,.63-.45,1.93,1.93,0,0,0,.41-.68,2.62,2.62,0,0,0,0-1.69,1.94,1.94,0,0,0-1-1.13A2,2,0,0,0,896.32,610.2Z" transform="translate(-15.07 -185.46)"/><path class="cls-2" d="M908.05,610.62l-.52-.22c-.2-.07-.4-.14-.62-.2l-.66-.15a3.88,3.88,0,0,0-.67-.06,1.77,1.77,0,0,0-.9.19.6.6,0,0,0-.29.52.4.4,0,0,0,.1.28.75.75,0,0,0,.26.18,2.09,2.09,0,0,0,.4.12l.5.08.69.1a4,4,0,0,1,1.94.76,1.93,1.93,0,0,1,.67,1.56,2.42,2.42,0,0,1-.24,1.09,2.3,2.3,0,0,1-.69.83,3.53,3.53,0,0,1-1.12.53,5.77,5.77,0,0,1-1.51.19c-.26,0-.54,0-.84,0a7.34,7.34,0,0,1-.9-.15,5.08,5.08,0,0,1-.89-.28,3.53,3.53,0,0,1-.81-.44l.82-1.58a4.54,4.54,0,0,0,.53.3,3.13,3.13,0,0,0,.6.24,3.77,3.77,0,0,0,.7.16,5.13,5.13,0,0,0,.81.06,2.29,2.29,0,0,0,1.08-.19.6.6,0,0,0,.35-.54.52.52,0,0,0-.3-.45,3,3,0,0,0-1-.26l-.63-.09c-1.78-.24-2.68-1-2.68-2.35a2.44,2.44,0,0,1,.23-1.07,2.21,2.21,0,0,1,.64-.79,3,3,0,0,1,1-.5,4.79,4.79,0,0,1,1.37-.18,8.37,8.37,0,0,1,.89,0,6.85,6.85,0,0,1,.81.13c.27.07.53.14.78.23a6.24,6.24,0,0,1,.76.33Z" transform="translate(-15.07 -185.46)"/><path class="cls-2" d="M917.85,612.91a3.77,3.77,0,0,1-.3,1.58,3,3,0,0,1-2,1.72,4.59,4.59,0,0,1-1.39.21,4.65,4.65,0,0,1-1.4-.21,3.16,3.16,0,0,1-1.17-.63,3.08,3.08,0,0,1-.81-1.09,3.77,3.77,0,0,1-.3-1.58v-4.45h2.09v4.27a2.3,2.3,0,0,0,.12.79,1.31,1.31,0,0,0,.33.54,1.28,1.28,0,0,0,.51.31,1.81,1.81,0,0,0,.63.1,1.79,1.79,0,0,0,.62-.1,1.24,1.24,0,0,0,.5-.31,1.22,1.22,0,0,0,.34-.54,2.3,2.3,0,0,0,.12-.79v-4.27h2.08Z" transform="translate(-15.07 -185.46)"/><path class="cls-2" d="M924.19,608.26a3.7,3.7,0,0,1,.6,0,2.8,2.8,0,0,1,.48.12L925,610.5a2.36,2.36,0,0,0-.6-.18,3.09,3.09,0,0,0-.66-.07,2,2,0,0,0-.66.11,1.49,1.49,0,0,0-.52.33,1.45,1.45,0,0,0-.33.54,2.2,2.2,0,0,0-.12.76v4.23H920v-7.76h2v.85a2.2,2.2,0,0,1,.92-.8A3,3,0,0,1,924.19,608.26Z" transform="translate(-15.07 -185.46)"/><path class="cls-2" d="M927.73,604.58a1.42,1.42,0,0,1,.95.39,1.39,1.39,0,0,1,.28.43,1.36,1.36,0,0,1,.11.53,1.3,1.3,0,0,1-.82,1.23,1.4,1.4,0,0,1-1,0,1.31,1.31,0,0,1-.81-1.23,1.35,1.35,0,0,1,.1-.53,1.39,1.39,0,0,1,.28-.43,1.42,1.42,0,0,1,1-.39Zm1.06,11.64H926.7v-7.76h2.09Z" transform="translate(-15.07 -185.46)"/><path class="cls-2" d="M934.42,608.26a4,4,0,0,1,1.53.29,3.59,3.59,0,0,1,1.19.83,3.79,3.79,0,0,1,.77,1.29,4.9,4.9,0,0,1,.28,1.66c0,.12,0,.25,0,.37a2.92,2.92,0,0,1,0,.33h-5.5a2.09,2.09,0,0,0,.26.73,2,2,0,0,0,.45.5,1.71,1.71,0,0,0,.59.29,2.61,2.61,0,0,0,.69.09,2.83,2.83,0,0,0,1-.19,3.06,3.06,0,0,0,.94-.55l1.23,1.34a4.18,4.18,0,0,1-1.5.89,5.5,5.5,0,0,1-1.81.29,4.34,4.34,0,0,1-1.63-.3,3.61,3.61,0,0,1-1.27-.82,3.78,3.78,0,0,1-.83-1.28,4.63,4.63,0,0,1-.29-1.66,4.51,4.51,0,0,1,.29-1.67,3.85,3.85,0,0,1,.8-1.29,3.58,3.58,0,0,1,1.24-.84A4.09,4.09,0,0,1,934.42,608.26Zm0,1.8a1.59,1.59,0,0,0-1.17.41,2,2,0,0,0-.57,1.14h3.43a2,2,0,0,0-.58-1.15A1.53,1.53,0,0,0,934.4,610.06Z" transform="translate(-15.07 -185.46)"/><path class="cls-2" d="M945.39,610.62l-.52-.22c-.2-.07-.4-.14-.62-.2a6.38,6.38,0,0,0-.66-.15,3.88,3.88,0,0,0-.67-.06,1.71,1.71,0,0,0-.89.19.59.59,0,0,0-.3.52.4.4,0,0,0,.1.28.91.91,0,0,0,.27.18,1.73,1.73,0,0,0,.4.12l.49.08.69.1a4,4,0,0,1,1.94.76,1.94,1.94,0,0,1,.68,1.56,2.42,2.42,0,0,1-.24,1.09,2.23,2.23,0,0,1-.7.83,3.43,3.43,0,0,1-1.12.53,5.69,5.69,0,0,1-1.5.19c-.27,0-.55,0-.85,0a7.19,7.19,0,0,1-.89-.15,4.83,4.83,0,0,1-.89-.28,3.4,3.4,0,0,1-.82-.44l.82-1.58a5.54,5.54,0,0,0,.53.3,3,3,0,0,0,.61.24,3.49,3.49,0,0,0,.69.16,5.13,5.13,0,0,0,.81.06,2.29,2.29,0,0,0,1.08-.19.6.6,0,0,0,.36-.54.53.53,0,0,0-.31-.45,3,3,0,0,0-1-.26l-.63-.09c-1.79-.24-2.68-1-2.68-2.35a2.44,2.44,0,0,1,.22-1.07,2.14,2.14,0,0,1,.65-.79,2.83,2.83,0,0,1,1-.5,4.79,4.79,0,0,1,1.37-.18,8.18,8.18,0,0,1,.88,0,7.37,7.37,0,0,1,.82.13c.26.07.52.14.77.23a6.37,6.37,0,0,1,.77.33Z" transform="translate(-15.07 -185.46)"/><path class="cls-2" d="M886.25,539.12h-5.91v-2.28h5.91Z" transform="translate(-15.07 -185.46)"/><path class="cls-2" d="M893.4,529.05a5.08,5.08,0,0,1,2.09.43,4.55,4.55,0,0,1,1.73,1.32,6.59,6.59,0,0,1,1.17,2.26,11.06,11.06,0,0,1,.43,3.24,11.39,11.39,0,0,1-.43,3.32,6.45,6.45,0,0,1-1.17,2.25,4.52,4.52,0,0,1-1.73,1.27,5.41,5.41,0,0,1-2.09.41,5.57,5.57,0,0,1-2.13-.41,4.51,4.51,0,0,1-1.75-1.27,6.31,6.31,0,0,1-1.19-2.25,10.72,10.72,0,0,1-.44-3.32,10.84,10.84,0,0,1,.44-3.33,6.49,6.49,0,0,1,1.19-2.25,4.41,4.41,0,0,1,1.75-1.27A5.57,5.57,0,0,1,893.4,529.05Zm0,2.59a2.5,2.5,0,0,0-1,.23,2.28,2.28,0,0,0-.87.78,4.22,4.22,0,0,0-.59,1.43,9.34,9.34,0,0,0-.22,2.22,9.19,9.19,0,0,0,.22,2.21,4.19,4.19,0,0,0,.59,1.44,2.17,2.17,0,0,0,.87.77,2.37,2.37,0,0,0,1,.24,2.23,2.23,0,0,0,1-.24,2.11,2.11,0,0,0,.84-.77,4.19,4.19,0,0,0,.58-1.44,9.19,9.19,0,0,0,.22-2.21,8.77,8.77,0,0,0-.22-2.13,4.52,4.52,0,0,0-.58-1.45,2.34,2.34,0,0,0-.84-.82A2,2,0,0,0,893.4,531.64Z" transform="translate(-15.07 -185.46)"/><path class="cls-2" d="M902.14,539.67a1.88,1.88,0,0,1,.74.15,2.21,2.21,0,0,1,.61.42,1.89,1.89,0,0,1,.42.62,1.79,1.79,0,0,1,0,1.48,1.93,1.93,0,0,1-.42.63,1.85,1.85,0,0,1-.61.42,1.73,1.73,0,0,1-.74.16,1.78,1.78,0,0,1-.75-.16,2,2,0,0,1-.62-.42,2.1,2.1,0,0,1-.42-.63,1.79,1.79,0,0,1,0-1.48,2.06,2.06,0,0,1,.42-.62,2.42,2.42,0,0,1,.62-.42A1.93,1.93,0,0,1,902.14,539.67Z" transform="translate(-15.07 -185.46)"/><path class="cls-2" d="M905.86,531.46a7.67,7.67,0,0,1,.7-.8,5.42,5.42,0,0,1,1-.78,5.71,5.71,0,0,1,1.34-.6,6.06,6.06,0,0,1,1.74-.23,5.63,5.63,0,0,1,2,.33,4.41,4.41,0,0,1,1.49.92,4.12,4.12,0,0,1,.95,1.43,5,5,0,0,1,.33,1.84,4.56,4.56,0,0,1-.16,1.19,4.8,4.8,0,0,1-.42,1,6.59,6.59,0,0,1-.64,1c-.25.3-.52.6-.8.9l-3,3.11h5.35v2.53h-9.25v-2.11l4.95-5.07a4.84,4.84,0,0,0,.85-1.16,2.67,2.67,0,0,0,.3-1.24,2.06,2.06,0,0,0-.16-.84,1.89,1.89,0,0,0-.43-.66,2,2,0,0,0-.68-.44,2.41,2.41,0,0,0-.87-.15,3.18,3.18,0,0,0-.91.12,3.51,3.51,0,0,0-1.37.83,6.28,6.28,0,0,0-.56.59Z" transform="translate(-15.07 -185.46)"/><path class="cls-2" d="M922.19,540.74v-8L918.71,534v-2.69l6.17-2.18v11.66h3.17v2.56h-9.18v-2.56Z" transform="translate(-15.07 -185.46)"/><rect class="cls-1" x="1002.68" y="206.05" width="36.6" height="145.25"/><path class="cls-2" d="M1003.24,587.54a5.92,5.92,0,0,1,.56-.63,4,4,0,0,1,.8-.63,4.8,4.8,0,0,1,1.07-.48,4.93,4.93,0,0,1,1.39-.18,4.42,4.42,0,0,1,1.59.26,3.43,3.43,0,0,1,1.19.74,3.31,3.31,0,0,1,.76,1.14,4.13,4.13,0,0,1,.26,1.47,3.71,3.71,0,0,1-.12,1,4.35,4.35,0,0,1-.34.84,6.19,6.19,0,0,1-.51.75c-.2.24-.41.48-.64.72l-2.4,2.49h4.28v2h-7.4v-1.69l4-4.06a3.75,3.75,0,0,0,.69-.92,2.16,2.16,0,0,0,.23-1,1.81,1.81,0,0,0-.12-.67,1.58,1.58,0,0,0-.35-.53,1.68,1.68,0,0,0-.54-.35,1.94,1.94,0,0,0-.7-.12,2.28,2.28,0,0,0-.72.1,2.74,2.74,0,0,0-.6.27,2.69,2.69,0,0,0-.5.39c-.16.15-.31.31-.45.47Z" transform="translate(-15.07 -185.46)"/><path class="cls-2" d="M1016.9,585.62a4.17,4.17,0,0,1,1.68.34A3.77,3.77,0,0,1,1020,587a5.26,5.26,0,0,1,.93,1.8,8.7,8.7,0,0,1,.35,2.6,9,9,0,0,1-.35,2.66,5.12,5.12,0,0,1-.93,1.79,3.55,3.55,0,0,1-1.38,1,4.34,4.34,0,0,1-1.68.33,4.4,4.4,0,0,1-1.7-.33,3.47,3.47,0,0,1-1.4-1,5,5,0,0,1-.95-1.79,10,10,0,0,1,0-5.32,5,5,0,0,1,.95-1.8,3.47,3.47,0,0,1,1.4-1A4.4,4.4,0,0,1,1016.9,585.62Zm0,2.07a1.87,1.87,0,0,0-.83.19,1.75,1.75,0,0,0-.69.62,3.46,3.46,0,0,0-.48,1.14,9.35,9.35,0,0,0,0,3.55,3.52,3.52,0,0,0,.48,1.15,1.92,1.92,0,0,0,.69.62,2,2,0,0,0,.83.18,1.84,1.84,0,0,0,.8-.18,1.89,1.89,0,0,0,.68-.62,3.53,3.53,0,0,0,.46-1.15,7.47,7.47,0,0,0,.17-1.77,7,7,0,0,0-.17-1.7,3.69,3.69,0,0,0-.46-1.16,1.85,1.85,0,0,0-.68-.66A1.62,1.62,0,0,0,1016.9,587.69Z" transform="translate(-15.07 -185.46)"/><path class="cls-2" d="M1025.56,596.44v-2.79h-2.77v-1.79h2.77v-2.79h1.82v2.79h2.77v1.79h-2.77v2.79Z" transform="translate(-15.07 -185.46)"/><path class="cls-2" d="M1041.48,592.6V597h-2.23v-4.43l-4.32-6.77h2.63l2.81,4.75,2.82-4.75h2.54Z" transform="translate(-15.07 -185.46)"/><path class="cls-2" d="M1048.81,589.06a4.06,4.06,0,0,1,1.54.29,3.55,3.55,0,0,1,1.18.83,4,4,0,0,1,.78,1.29,4.9,4.9,0,0,1,.27,1.66c0,.12,0,.25,0,.37s0,.24,0,.33h-5.49a2.09,2.09,0,0,0,.26.73,1.93,1.93,0,0,0,.44.5,1.81,1.81,0,0,0,.59.29,2.63,2.63,0,0,0,.7.09,2.91,2.91,0,0,0,1-.19,3.31,3.31,0,0,0,.94-.55l1.22,1.34a4.14,4.14,0,0,1-1.49.89,5.54,5.54,0,0,1-1.81.29,4.3,4.3,0,0,1-1.63-.3,3.52,3.52,0,0,1-1.27-.82,3.63,3.63,0,0,1-.83-1.28,4.42,4.42,0,0,1-.3-1.66,4.72,4.72,0,0,1,.29-1.67,3.72,3.72,0,0,1,.81-1.29,3.54,3.54,0,0,1,1.23-.84A4.09,4.09,0,0,1,1048.81,589.06Zm0,1.8a1.62,1.62,0,0,0-1.18.41,2,2,0,0,0-.57,1.14h3.44a2,2,0,0,0-.58-1.15A1.56,1.56,0,0,0,1048.8,590.86Z" transform="translate(-15.07 -185.46)"/><path class="cls-2" d="M1061.92,597h-2v-.86a2.88,2.88,0,0,1-2.32,1.06,3.68,3.68,0,0,1-2.68-1.17,3.93,3.93,0,0,1-.79-1.29,4.52,4.52,0,0,1-.28-1.62,4.45,4.45,0,0,1,.28-1.62,4,4,0,0,1,.79-1.3,3.64,3.64,0,0,1,1.19-.85,3.52,3.52,0,0,1,1.49-.31,2.92,2.92,0,0,1,1.37.29,3,3,0,0,1,1,.77v-.86h2Zm-4-6a2.05,2.05,0,0,0-.83.17,2,2,0,0,0-.63.45,2.3,2.3,0,0,0-.4.68,2.6,2.6,0,0,0-.14.84,2.49,2.49,0,0,0,.14.83,2.18,2.18,0,0,0,.4.68,2,2,0,0,0,.63.45,1.9,1.9,0,0,0,.83.17,2,2,0,0,0,.82-.16,1.74,1.74,0,0,0,.63-.45,1.93,1.93,0,0,0,.41-.68,2.62,2.62,0,0,0,0-1.69,1.94,1.94,0,0,0-1-1.13A2,2,0,0,0,1057.94,591Z" transform="translate(-15.07 -185.46)"/><path class="cls-2" d="M1068.32,589.06a3.7,3.7,0,0,1,.6,0,3.19,3.19,0,0,1,.49.12l-.32,2.08a2.36,2.36,0,0,0-.6-.18,3.09,3.09,0,0,0-.66-.07,2,2,0,0,0-.66.11,1.49,1.49,0,0,0-.52.33,1.45,1.45,0,0,0-.33.54,2.2,2.2,0,0,0-.12.76V597h-2.09v-7.76h2v.85a2.2,2.2,0,0,1,.92-.8A3,3,0,0,1,1068.32,589.06Z" transform="translate(-15.07 -185.46)"/><path class="cls-2" d="M1005.74,607.1h-3.47v9.12H1000V607.1h-3.47V605h9.17Z" transform="translate(-15.07 -185.46)"/><path class="cls-2" d="M1010.45,608.26a3.7,3.7,0,0,1,.6,0,2.8,2.8,0,0,1,.48.12l-.31,2.08a2.36,2.36,0,0,0-.6-.18,3.09,3.09,0,0,0-.66-.07,2,2,0,0,0-.66.11,1.49,1.49,0,0,0-.52.33,1.45,1.45,0,0,0-.33.54,2.2,2.2,0,0,0-.12.76v4.23h-2.09v-7.76h2v.85a2.2,2.2,0,0,1,.92-.8A3,3,0,0,1,1010.45,608.26Z" transform="translate(-15.07 -185.46)"/><path class="cls-2" d="M1016.13,608.26a4,4,0,0,1,1.54.29,3.55,3.55,0,0,1,1.18.83,4,4,0,0,1,.78,1.29,4.9,4.9,0,0,1,.27,1.66c0,.12,0,.25,0,.37s0,.24,0,.33h-5.49a2.09,2.09,0,0,0,.26.73,1.93,1.93,0,0,0,.44.5,1.81,1.81,0,0,0,.59.29,2.63,2.63,0,0,0,.7.09,2.91,2.91,0,0,0,1-.19,3.18,3.18,0,0,0,.94-.55l1.22,1.34a4.14,4.14,0,0,1-1.49.89,5.54,5.54,0,0,1-1.81.29,4.3,4.3,0,0,1-1.63-.3,3.52,3.52,0,0,1-1.27-.82,3.63,3.63,0,0,1-.83-1.28,4.42,4.42,0,0,1-.3-1.66,4.72,4.72,0,0,1,.29-1.67,3.72,3.72,0,0,1,.81-1.29,3.54,3.54,0,0,1,1.23-.84A4.09,4.09,0,0,1,1016.13,608.26Zm0,1.8a1.62,1.62,0,0,0-1.18.41,2,2,0,0,0-.57,1.14h3.44a2,2,0,0,0-.58-1.15A1.56,1.56,0,0,0,1016.12,610.06Z" transform="translate(-15.07 -185.46)"/><path class="cls-2" d="M1029.24,616.22h-2v-.86a2.88,2.88,0,0,1-2.32,1.06,3.68,3.68,0,0,1-2.68-1.17,3.83,3.83,0,0,1-.79-1.29,4.52,4.52,0,0,1-.28-1.62,4.45,4.45,0,0,1,.28-1.62,4,4,0,0,1,.79-1.3,3.64,3.64,0,0,1,1.19-.85,3.52,3.52,0,0,1,1.49-.31,2.92,2.92,0,0,1,1.37.29,3,3,0,0,1,1,.77v-.86h2Zm-4-6a2.05,2.05,0,0,0-.83.17,2,2,0,0,0-.63.45,2.3,2.3,0,0,0-.4.68,2.6,2.6,0,0,0-.14.84,2.49,2.49,0,0,0,.14.83,2.18,2.18,0,0,0,.4.68,2,2,0,0,0,.63.45,1.9,1.9,0,0,0,.83.17,2,2,0,0,0,.82-.16,1.74,1.74,0,0,0,.63-.45,1.93,1.93,0,0,0,.41-.68,2.62,2.62,0,0,0,0-1.69,1.94,1.94,0,0,0-1-1.13A2,2,0,0,0,1025.26,610.2Z" transform="translate(-15.07 -185.46)"/><path class="cls-2" d="M1037,610.62l-.52-.22c-.2-.07-.4-.14-.62-.2s-.44-.11-.66-.15a3.88,3.88,0,0,0-.67-.06,1.77,1.77,0,0,0-.9.19.58.58,0,0,0-.29.52.4.4,0,0,0,.1.28.75.75,0,0,0,.26.18,2.09,2.09,0,0,0,.4.12l.5.08.69.1a4,4,0,0,1,1.94.76,1.93,1.93,0,0,1,.67,1.56,2.42,2.42,0,0,1-.24,1.09,2.3,2.3,0,0,1-.69.83,3.53,3.53,0,0,1-1.12.53,5.83,5.83,0,0,1-1.51.19c-.26,0-.54,0-.84,0a7,7,0,0,1-.9-.15,5.08,5.08,0,0,1-.89-.28,3.53,3.53,0,0,1-.81-.44l.82-1.58a4.54,4.54,0,0,0,.53.3,2.89,2.89,0,0,0,.6.24,3.77,3.77,0,0,0,.7.16,5.13,5.13,0,0,0,.81.06,2.29,2.29,0,0,0,1.08-.19.6.6,0,0,0,.35-.54.52.52,0,0,0-.3-.45,3,3,0,0,0-1-.26l-.63-.09c-1.78-.24-2.68-1-2.68-2.35a2.44,2.44,0,0,1,.23-1.07,2.11,2.11,0,0,1,.64-.79,3,3,0,0,1,1-.5,4.79,4.79,0,0,1,1.37-.18,8.37,8.37,0,0,1,.89,0,6.85,6.85,0,0,1,.81.13c.27.07.53.14.78.23a6.24,6.24,0,0,1,.76.33Z" transform="translate(-15.07 -185.46)"/><path class="cls-2" d="M1046.79,612.91a3.77,3.77,0,0,1-.3,1.58,3,3,0,0,1-2,1.72,4.59,4.59,0,0,1-1.39.21,4.65,4.65,0,0,1-1.4-.21,3.16,3.16,0,0,1-1.17-.63,3.08,3.08,0,0,1-.81-1.09,3.77,3.77,0,0,1-.3-1.58v-4.45h2.09v4.27a2.3,2.3,0,0,0,.12.79,1.31,1.31,0,0,0,.33.54,1.21,1.21,0,0,0,.51.31,1.81,1.81,0,0,0,.63.1,1.79,1.79,0,0,0,.62-.1,1.24,1.24,0,0,0,.5-.31,1.22,1.22,0,0,0,.34-.54,2.3,2.3,0,0,0,.12-.79v-4.27h2.08Z" transform="translate(-15.07 -185.46)"/><path class="cls-2" d="M1053.13,608.26a3.7,3.7,0,0,1,.6,0,2.8,2.8,0,0,1,.48.12l-.31,2.08a2.36,2.36,0,0,0-.6-.18,3.09,3.09,0,0,0-.66-.07,2,2,0,0,0-.66.11,1.49,1.49,0,0,0-.52.33,1.45,1.45,0,0,0-.33.54,2.2,2.2,0,0,0-.12.76v4.23h-2.09v-7.76h2v.85a2.2,2.2,0,0,1,.92-.8A3,3,0,0,1,1053.13,608.26Z" transform="translate(-15.07 -185.46)"/><path class="cls-2" d="M1056.67,604.58a1.42,1.42,0,0,1,.95.39,1.39,1.39,0,0,1,.28.43,1.36,1.36,0,0,1,.11.53,1.3,1.3,0,0,1-.82,1.23,1.4,1.4,0,0,1-1,0,1.24,1.24,0,0,1-.71-.71,1.46,1.46,0,0,1-.1-.52,1.56,1.56,0,0,1,.1-.53,1.39,1.39,0,0,1,.28-.43,1.42,1.42,0,0,1,1-.39Zm1.06,11.64h-2.09v-7.76h2.09Z" transform="translate(-15.07 -185.46)"/><path class="cls-2" d="M1063.36,608.26a4,4,0,0,1,1.53.29,3.59,3.59,0,0,1,1.19.83,3.79,3.79,0,0,1,.77,1.29,4.9,4.9,0,0,1,.28,1.66c0,.12,0,.25,0,.37a2.92,2.92,0,0,1,0,.33h-5.5a2.09,2.09,0,0,0,.26.73,2,2,0,0,0,.45.5,1.71,1.71,0,0,0,.59.29,2.56,2.56,0,0,0,.69.09,2.83,2.83,0,0,0,1-.19,3.06,3.06,0,0,0,.94-.55l1.23,1.34a4.18,4.18,0,0,1-1.5.89,5.5,5.5,0,0,1-1.81.29,4.34,4.34,0,0,1-1.63-.3,3.61,3.61,0,0,1-1.27-.82,3.78,3.78,0,0,1-.83-1.28,4.63,4.63,0,0,1-.29-1.66,4.51,4.51,0,0,1,.29-1.67,3.85,3.85,0,0,1,.8-1.29,3.58,3.58,0,0,1,1.24-.84A4.09,4.09,0,0,1,1063.36,608.26Zm0,1.8a1.59,1.59,0,0,0-1.17.41,2,2,0,0,0-.57,1.14H1065a2,2,0,0,0-.58-1.15A1.54,1.54,0,0,0,1063.34,610.06Z" transform="translate(-15.07 -185.46)"/><path class="cls-2" d="M1074.33,610.62l-.52-.22c-.2-.07-.4-.14-.62-.2a6.38,6.38,0,0,0-.66-.15,3.88,3.88,0,0,0-.67-.06,1.77,1.77,0,0,0-.9.19.6.6,0,0,0-.29.52.4.4,0,0,0,.1.28.91.91,0,0,0,.27.18,1.73,1.73,0,0,0,.4.12l.49.08.69.1a4,4,0,0,1,1.94.76,1.94,1.94,0,0,1,.68,1.56,2.42,2.42,0,0,1-.24,1.09,2.23,2.23,0,0,1-.7.83,3.43,3.43,0,0,1-1.12.53,5.69,5.69,0,0,1-1.5.19c-.27,0-.55,0-.85,0a7.19,7.19,0,0,1-.89-.15,5.18,5.18,0,0,1-.9-.28,3.53,3.53,0,0,1-.81-.44l.82-1.58a4.54,4.54,0,0,0,.53.3,3,3,0,0,0,.61.24,3.49,3.49,0,0,0,.69.16,5.13,5.13,0,0,0,.81.06,2.29,2.29,0,0,0,1.08-.19.59.59,0,0,0,.35-.54.52.52,0,0,0-.3-.45,3,3,0,0,0-1-.26l-.63-.09c-1.79-.24-2.68-1-2.68-2.35a2.44,2.44,0,0,1,.22-1.07,2.14,2.14,0,0,1,.65-.79,2.83,2.83,0,0,1,1-.5,4.79,4.79,0,0,1,1.37-.18,8.18,8.18,0,0,1,.88,0,7.37,7.37,0,0,1,.82.13c.26.07.52.14.77.23a6.37,6.37,0,0,1,.77.33Z" transform="translate(-15.07 -185.46)"/><path class="cls-2" d="M1014.49,557.07h-5.91v-2.28h5.91Z" transform="translate(-15.07 -185.46)"/><path class="cls-2" d="M1021.64,547a5.28,5.28,0,0,1,2.09.43,4.77,4.77,0,0,1,1.73,1.32,6.78,6.78,0,0,1,1.17,2.26,11.15,11.15,0,0,1,.43,3.24,11.51,11.51,0,0,1-.43,3.33,6.31,6.31,0,0,1-1.17,2.24,4.55,4.55,0,0,1-1.73,1.28,5.44,5.44,0,0,1-2.09.4,5.57,5.57,0,0,1-2.13-.4,4.53,4.53,0,0,1-1.75-1.28,6.18,6.18,0,0,1-1.19-2.24,12.78,12.78,0,0,1,0-6.65,6.31,6.31,0,0,1,1.19-2.25,4.53,4.53,0,0,1,1.75-1.28A5.76,5.76,0,0,1,1021.64,547Zm0,2.59a2.37,2.37,0,0,0-1,.24,2.34,2.34,0,0,0-.87.77,4.19,4.19,0,0,0-.59,1.44,11.26,11.26,0,0,0,0,4.43,4.13,4.13,0,0,0,.59,1.43,2.28,2.28,0,0,0,.87.78,2.37,2.37,0,0,0,1,.24,2.14,2.14,0,0,0,1.84-1,4.34,4.34,0,0,0,.58-1.43,9.89,9.89,0,0,0,.22-2.22,9.27,9.27,0,0,0-.22-2.12,4.76,4.76,0,0,0-.58-1.45,2.37,2.37,0,0,0-.84-.83A2.13,2.13,0,0,0,1021.64,549.59Z" transform="translate(-15.07 -185.46)"/><path class="cls-2" d="M1030.38,557.62a1.89,1.89,0,0,1,.74.16,2,2,0,0,1,1,1,1.89,1.89,0,0,1,.16.74,1.94,1.94,0,0,1-.16.75,1.79,1.79,0,0,1-.42.62,2,2,0,0,1-.61.43,1.88,1.88,0,0,1-.74.15,1.87,1.87,0,0,1-1.37-.58,2,2,0,0,1-.58-1.37,1.73,1.73,0,0,1,.16-.74,2,2,0,0,1,.42-.61,1.89,1.89,0,0,1,.62-.42A1.94,1.94,0,0,1,1030.38,557.62Z" transform="translate(-15.07 -185.46)"/><path class="cls-2" d="M1034.1,549.42a6.77,6.77,0,0,1,.7-.8,5.45,5.45,0,0,1,1-.79,5.82,5.82,0,0,1,3.08-.83,5.63,5.63,0,0,1,2,.33,4.28,4.28,0,0,1,1.49.93,4,4,0,0,1,1,1.43,5,5,0,0,1,.33,1.83,4.58,4.58,0,0,1-.16,1.2,4.8,4.8,0,0,1-.42,1,6,6,0,0,1-.64.94c-.25.3-.52.6-.8.9l-3,3.11H1044v2.53h-9.25v-2.11l5-5.07a4.79,4.79,0,0,0,.85-1.15,2.71,2.71,0,0,0,.3-1.25,2.32,2.32,0,0,0-.16-.84,1.87,1.87,0,0,0-1.11-1.09,2.41,2.41,0,0,0-.87-.16,3.17,3.17,0,0,0-.91.13,2.92,2.92,0,0,0-.74.33,3.79,3.79,0,0,0-.63.49c-.2.19-.38.39-.56.59Z" transform="translate(-15.07 -185.46)"/><path class="cls-2" d="M1054.62,556.17h2v2.52h-2v2.56h-2.7v-2.56h-6.21v-2l4.91-9.47h3l-4.68,8.91h3v-3.73h2.7Z" transform="translate(-15.07 -185.46)"/><line class="cls-3" x1="48.11" y1="206.05" x2="1069.93" y2="206.05"/><path class="cls-2" d="M19.8,576.58H15.07v-1.83H19.8Z" transform="translate(-15.07 -185.46)"/><path class="cls-2" d="M25.52,568.52a4.17,4.17,0,0,1,1.68.34,3.88,3.88,0,0,1,1.38,1.06,5.32,5.32,0,0,1,.93,1.81,8.63,8.63,0,0,1,.35,2.59,8.93,8.93,0,0,1-.35,2.66,5.26,5.26,0,0,1-.93,1.8,3.76,3.76,0,0,1-1.38,1,4.52,4.52,0,0,1-1.68.32,4.59,4.59,0,0,1-1.7-.32,3.67,3.67,0,0,1-1.4-1,5.3,5.3,0,0,1-1-1.8,10.28,10.28,0,0,1,0-5.32,5.3,5.3,0,0,1,1-1.8,3.47,3.47,0,0,1,1.4-1A4.59,4.59,0,0,1,25.52,568.52Zm0,2.07a1.87,1.87,0,0,0-.83.19,1.83,1.83,0,0,0-.69.62,3.52,3.52,0,0,0-.48,1.15,8.79,8.79,0,0,0,0,3.54,3.52,3.52,0,0,0,.48,1.15,1.83,1.83,0,0,0,.69.62,1.87,1.87,0,0,0,.83.19,1.74,1.74,0,0,0,.8-.19,1.8,1.8,0,0,0,.68-.62,3.53,3.53,0,0,0,.46-1.15,8,8,0,0,0,.17-1.77,7.56,7.56,0,0,0-.17-1.7,3.79,3.79,0,0,0-.46-1.16,1.94,1.94,0,0,0-.68-.66A1.65,1.65,0,0,0,25.52,570.59Z" transform="translate(-15.07 -185.46)"/><path class="cls-2" d="M32.51,577a1.45,1.45,0,0,1,.59.12,1.53,1.53,0,0,1,.5.34,1.51,1.51,0,0,1,.33.49,1.45,1.45,0,0,1,.13.59,1.54,1.54,0,0,1-.13.6,1.67,1.67,0,0,1-.33.5,1.92,1.92,0,0,1-.5.34,1.45,1.45,0,0,1-.59.12,1.48,1.48,0,0,1-.59-.12,1.77,1.77,0,0,1-.5-.34,1.92,1.92,0,0,1-.34-.5,1.38,1.38,0,0,1-.13-.6,1.31,1.31,0,0,1,.13-.59,1.72,1.72,0,0,1,.34-.49,1.43,1.43,0,0,1,.5-.34A1.48,1.48,0,0,1,32.51,577Z" transform="translate(-15.07 -185.46)"/><path class="cls-2" d="M39.18,568.52a5.46,5.46,0,0,1,1.62.23,3.9,3.9,0,0,1,1.25.65,2.94,2.94,0,0,1,1.1,2.34,2.65,2.65,0,0,1-.44,1.53,3,3,0,0,1-1.23,1,3.26,3.26,0,0,1,1.4,1,2.44,2.44,0,0,1,.52,1.57,2.9,2.9,0,0,1-.35,1.44,3.1,3.1,0,0,1-.92,1,4.2,4.2,0,0,1-1.32.61,6.08,6.08,0,0,1-1.54.2A5.85,5.85,0,0,1,37,579.7a4.37,4.37,0,0,1-1.64-1.2l1.29-1.42a3.28,3.28,0,0,0,1.15.79,3.49,3.49,0,0,0,1.39.28,3.19,3.19,0,0,0,.77-.09,2,2,0,0,0,.62-.26,1.27,1.27,0,0,0,.57-1.1,1.25,1.25,0,0,0-.17-.64,1.59,1.59,0,0,0-.47-.46,2.62,2.62,0,0,0-.7-.28,3.82,3.82,0,0,0-.85-.09h-1.3v-1.92H39a3.1,3.1,0,0,0,.76-.09,1.78,1.78,0,0,0,.63-.26,1.51,1.51,0,0,0,.42-.45,1.26,1.26,0,0,0,.15-.62,1.16,1.16,0,0,0-.15-.6,1.1,1.1,0,0,0-.39-.44,1.88,1.88,0,0,0-.59-.27,2.81,2.81,0,0,0-.73-.09,2.86,2.86,0,0,0-.73.09,2.6,2.6,0,0,0-.62.25,2.34,2.34,0,0,0-.51.36,2.65,2.65,0,0,0-.4.43l-1.36-1.36a3.77,3.77,0,0,1,.64-.69,3.42,3.42,0,0,1,.83-.55,4.47,4.47,0,0,1,1-.37A5.28,5.28,0,0,1,39.18,568.52Z" transform="translate(-15.07 -185.46)"/><path class="cls-2" d="M19.8,514.73H15.07v-1.82H19.8Z" transform="translate(-15.07 -185.46)"/><path class="cls-2" d="M25.52,506.67a4.18,4.18,0,0,1,1.68.35,3.85,3.85,0,0,1,1.38,1.05,5.41,5.41,0,0,1,.93,1.81,8.68,8.68,0,0,1,.35,2.59,8.93,8.93,0,0,1-.35,2.66,5.09,5.09,0,0,1-.93,1.8,3.76,3.76,0,0,1-1.38,1,4.33,4.33,0,0,1-1.68.32,4.4,4.4,0,0,1-1.7-.32,3.67,3.67,0,0,1-1.4-1,5.11,5.11,0,0,1-1-1.8,10.28,10.28,0,0,1,0-5.32,5.3,5.3,0,0,1,1-1.8,3.67,3.67,0,0,1,1.4-1A4.59,4.59,0,0,1,25.52,506.67Zm0,2.08a2,2,0,0,0-.83.18,1.92,1.92,0,0,0-.69.62,3.52,3.52,0,0,0-.48,1.15,8.84,8.84,0,0,0,0,3.55,3.46,3.46,0,0,0,.48,1.14,1.75,1.75,0,0,0,.69.62,1.87,1.87,0,0,0,.83.19,1.74,1.74,0,0,0,.8-.19,1.73,1.73,0,0,0,.68-.62,3.47,3.47,0,0,0,.46-1.14,8.07,8.07,0,0,0,.17-1.78,7.62,7.62,0,0,0-.17-1.7,3.9,3.9,0,0,0-.46-1.16,1.94,1.94,0,0,0-.68-.66A1.76,1.76,0,0,0,25.52,508.75Z" transform="translate(-15.07 -185.46)"/><path class="cls-2" d="M32.51,515.17a1.45,1.45,0,0,1,.59.12,1.92,1.92,0,0,1,.5.34,1.63,1.63,0,0,1,.33.49,1.43,1.43,0,0,1,0,1.19,1.56,1.56,0,0,1-.33.5,1.7,1.7,0,0,1-.5.34,1.45,1.45,0,0,1-.59.12,1.48,1.48,0,0,1-.59-.12,1.58,1.58,0,0,1-.5-.34,1.77,1.77,0,0,1-.34-.5,1.43,1.43,0,0,1,0-1.19,1.87,1.87,0,0,1,.34-.49,1.77,1.77,0,0,1,.5-.34A1.48,1.48,0,0,1,32.51,515.17Z" transform="translate(-15.07 -185.46)"/><path class="cls-2" d="M35.49,508.6a5.08,5.08,0,0,1,.56-.63,4,4,0,0,1,.8-.63,4.8,4.8,0,0,1,1.07-.48,4.92,4.92,0,0,1,1.39-.19,4.42,4.42,0,0,1,1.59.27,3.37,3.37,0,0,1,1.19.74,3.31,3.31,0,0,1,.76,1.14,4.13,4.13,0,0,1,.26,1.47,3.71,3.71,0,0,1-.12,1,5.09,5.09,0,0,1-.34.84,6.19,6.19,0,0,1-.51.75c-.2.24-.41.48-.64.72l-2.4,2.49h4.28v2H36v-1.68l4-4.06a3.75,3.75,0,0,0,.69-.92,2.19,2.19,0,0,0,.23-1,1.81,1.81,0,0,0-.12-.67,1.58,1.58,0,0,0-.35-.53,1.53,1.53,0,0,0-.54-.35,1.94,1.94,0,0,0-.7-.12,2.28,2.28,0,0,0-.72.1,2,2,0,0,0-.6.27,2.69,2.69,0,0,0-.5.39,5,5,0,0,0-.45.47Z" transform="translate(-15.07 -185.46)"/><path class="cls-2" d="M19.8,454.21H15.07v-1.83H19.8Z" transform="translate(-15.07 -185.46)"/><path class="cls-2" d="M25.52,446.15a4.18,4.18,0,0,1,1.68.35,3.85,3.85,0,0,1,1.38,1.05,5.41,5.41,0,0,1,.93,1.81,8.68,8.68,0,0,1,.35,2.59,8.93,8.93,0,0,1-.35,2.66,5.17,5.17,0,0,1-.93,1.8,3.76,3.76,0,0,1-1.38,1,4.52,4.52,0,0,1-1.68.32,4.59,4.59,0,0,1-1.7-.32,3.67,3.67,0,0,1-1.4-1,5.2,5.2,0,0,1-1-1.8,10.28,10.28,0,0,1,0-5.32,5.3,5.3,0,0,1,1-1.8,3.67,3.67,0,0,1,1.4-1A4.59,4.59,0,0,1,25.52,446.15Zm0,2.07a2,2,0,0,0-.83.19A1.83,1.83,0,0,0,24,449a3.52,3.52,0,0,0-.48,1.15,7.42,7.42,0,0,0-.18,1.77,7.3,7.3,0,0,0,.18,1.77,3.52,3.52,0,0,0,.48,1.15,1.75,1.75,0,0,0,.69.62,1.87,1.87,0,0,0,.83.19,1.74,1.74,0,0,0,.8-.19,1.73,1.73,0,0,0,.68-.62,3.53,3.53,0,0,0,.46-1.15,7.91,7.91,0,0,0,.17-1.77,7.56,7.56,0,0,0-.17-1.7,3.79,3.79,0,0,0-.46-1.16,1.94,1.94,0,0,0-.68-.66A1.65,1.65,0,0,0,25.52,448.22Z" transform="translate(-15.07 -185.46)"/><path class="cls-2" d="M32.51,454.65a1.45,1.45,0,0,1,.59.12,1.92,1.92,0,0,1,.5.34,1.51,1.51,0,0,1,.33.49,1.49,1.49,0,0,1,.13.59,1.54,1.54,0,0,1-.13.6,1.67,1.67,0,0,1-.33.5,1.7,1.7,0,0,1-.5.34,1.45,1.45,0,0,1-.59.12,1.48,1.48,0,0,1-.59-.12,1.58,1.58,0,0,1-.5-.34,1.92,1.92,0,0,1-.34-.5,1.38,1.38,0,0,1-.13-.6,1.34,1.34,0,0,1,.13-.59,1.72,1.72,0,0,1,.34-.49,1.77,1.77,0,0,1,.5-.34A1.48,1.48,0,0,1,32.51,454.65Z" transform="translate(-15.07 -185.46)"/><path class="cls-2" d="M39,455.5v-6.42l-2.78,1v-2.15l4.93-1.74v9.32h2.54v2.05H36.3V455.5Z" transform="translate(-15.07 -185.46)"/><path class="cls-2" d="M26.33,385.63A4.35,4.35,0,0,1,28,386,3.88,3.88,0,0,1,29.39,387a5.42,5.42,0,0,1,.94,1.81,9,9,0,0,1,.34,2.59,9.3,9.3,0,0,1-.34,2.66,5.27,5.27,0,0,1-.94,1.8,3.76,3.76,0,0,1-1.38,1,4.52,4.52,0,0,1-1.68.32,4.59,4.59,0,0,1-1.7-.32,3.75,3.75,0,0,1-1.4-1,5.12,5.12,0,0,1-.95-1.8,10,10,0,0,1,0-5.32,5.12,5.12,0,0,1,.95-1.8,3.54,3.54,0,0,1,1.4-1A4.59,4.59,0,0,1,26.33,385.63Zm0,2.07a2,2,0,0,0-.83.19,1.83,1.83,0,0,0-.69.62,3.52,3.52,0,0,0-.48,1.15,9.3,9.3,0,0,0,0,3.54,3.52,3.52,0,0,0,.48,1.15,1.75,1.75,0,0,0,.69.62,1.87,1.87,0,0,0,.83.19,1.74,1.74,0,0,0,1.48-.81,3.53,3.53,0,0,0,.46-1.15,7.42,7.42,0,0,0,.17-1.77,7,7,0,0,0-.17-1.7,3.79,3.79,0,0,0-.46-1.16,1.94,1.94,0,0,0-.68-.66A1.62,1.62,0,0,0,26.33,387.7Z" transform="translate(-15.07 -185.46)"/><path class="cls-2" d="M33.33,394.13a1.52,1.52,0,0,1,.59.12,1.66,1.66,0,0,1,.49.34,1.72,1.72,0,0,1,.34.49,1.48,1.48,0,0,1,.12.59,1.53,1.53,0,0,1-.12.6,1.92,1.92,0,0,1-.34.5,1.87,1.87,0,0,1-.49.34,1.54,1.54,0,0,1-1.19,0,1.77,1.77,0,0,1-.5-.34,1.92,1.92,0,0,1-.34-.5,1.53,1.53,0,0,1-.12-.6,1.48,1.48,0,0,1,.12-.59,1.72,1.72,0,0,1,.34-.49,1.58,1.58,0,0,1,.5-.34A1.53,1.53,0,0,1,33.33,394.13Z" transform="translate(-15.07 -185.46)"/><path class="cls-2" d="M40.36,385.63A4.27,4.27,0,0,1,42,386,3.71,3.71,0,0,1,43.42,387a5.25,5.25,0,0,1,.94,1.81,8.65,8.65,0,0,1,.34,2.59,9,9,0,0,1-.34,2.66,5.11,5.11,0,0,1-.94,1.8,3.6,3.6,0,0,1-1.38,1,4.45,4.45,0,0,1-1.68.32,4.59,4.59,0,0,1-1.7-.32,3.75,3.75,0,0,1-1.4-1,5.12,5.12,0,0,1-.95-1.8,10.28,10.28,0,0,1,0-5.32,5.12,5.12,0,0,1,.95-1.8,3.54,3.54,0,0,1,1.4-1A4.59,4.59,0,0,1,40.36,385.63Zm0,2.07a2,2,0,0,0-.82.19,1.78,1.78,0,0,0-.7.62,3.52,3.52,0,0,0-.48,1.15,9.3,9.3,0,0,0,0,3.54,3.52,3.52,0,0,0,.48,1.15,1.71,1.71,0,0,0,.7.62,1.83,1.83,0,0,0,.82.19,1.71,1.71,0,0,0,.8-.19,1.66,1.66,0,0,0,.68-.62,3.32,3.32,0,0,0,.46-1.15,7.36,7.36,0,0,0,.18-1.77,7,7,0,0,0-.18-1.7,3.56,3.56,0,0,0-.46-1.16,1.86,1.86,0,0,0-.68-.66A1.62,1.62,0,0,0,40.36,387.7Z" transform="translate(-15.07 -185.46)"/><path class="cls-2" d="M26.33,325.11a4.17,4.17,0,0,1,1.68.34,3.77,3.77,0,0,1,1.38,1.06,5.33,5.33,0,0,1,.94,1.81,9,9,0,0,1,.34,2.59,9.3,9.3,0,0,1-.34,2.66,5.27,5.27,0,0,1-.94,1.8,3.76,3.76,0,0,1-1.38,1,4.52,4.52,0,0,1-1.68.32,4.59,4.59,0,0,1-1.7-.32,3.75,3.75,0,0,1-1.4-1,5.12,5.12,0,0,1-.95-1.8,10,10,0,0,1,0-5.32,5.12,5.12,0,0,1,.95-1.8,3.54,3.54,0,0,1,1.4-1A4.59,4.59,0,0,1,26.33,325.11Zm0,2.07a1.87,1.87,0,0,0-.83.19,1.75,1.75,0,0,0-.69.62,3.52,3.52,0,0,0-.48,1.15,9.3,9.3,0,0,0,0,3.54,3.52,3.52,0,0,0,.48,1.15,1.83,1.83,0,0,0,.69.62,2,2,0,0,0,.83.19,1.85,1.85,0,0,0,.8-.19,1.8,1.8,0,0,0,.68-.62,3.53,3.53,0,0,0,.46-1.15,7.47,7.47,0,0,0,.17-1.77,7,7,0,0,0-.17-1.7,3.79,3.79,0,0,0-.46-1.16,1.94,1.94,0,0,0-.68-.66A1.62,1.62,0,0,0,26.33,327.18Z" transform="translate(-15.07 -185.46)"/><path class="cls-2" d="M33.33,333.61a1.52,1.52,0,0,1,.59.12,1.49,1.49,0,0,1,.49.34,1.72,1.72,0,0,1,.34.49,1.45,1.45,0,0,1,.12.59,1.53,1.53,0,0,1-.12.6,2.1,2.1,0,0,1-.34.5,1.87,1.87,0,0,1-.49.34,1.54,1.54,0,0,1-1.19,0,1.77,1.77,0,0,1-.5-.34,2.1,2.1,0,0,1-.34-.5,1.53,1.53,0,0,1-.12-.6,1.45,1.45,0,0,1,.12-.59,1.72,1.72,0,0,1,.34-.49,1.43,1.43,0,0,1,.5-.34A1.53,1.53,0,0,1,33.33,333.61Z" transform="translate(-15.07 -185.46)"/><path class="cls-2" d="M39.76,334.46V328L37,329v-2.15l4.94-1.75v9.33h2.53v2.05H37.11v-2.05Z" transform="translate(-15.07 -185.46)"/><path class="cls-2" d="M26.33,264.59a4.17,4.17,0,0,1,1.68.34A3.77,3.77,0,0,1,29.39,266a5.24,5.24,0,0,1,.94,1.81,9,9,0,0,1,.34,2.59,9.35,9.35,0,0,1-.34,2.66,5.13,5.13,0,0,1-.94,1.79,3.55,3.55,0,0,1-1.38,1,4.34,4.34,0,0,1-1.68.33,4.4,4.4,0,0,1-1.7-.33,3.54,3.54,0,0,1-1.4-1,5,5,0,0,1-.95-1.79,10,10,0,0,1,0-5.32,5,5,0,0,1,.95-1.8,3.54,3.54,0,0,1,1.4-1A4.4,4.4,0,0,1,26.33,264.59Zm0,2.07a1.87,1.87,0,0,0-.83.19,1.75,1.75,0,0,0-.69.62,3.52,3.52,0,0,0-.48,1.15,7.91,7.91,0,0,0-.17,1.77,8,8,0,0,0,.17,1.77,3.52,3.52,0,0,0,.48,1.15,1.83,1.83,0,0,0,.69.62,2,2,0,0,0,.83.19,1.85,1.85,0,0,0,.8-.19,1.8,1.8,0,0,0,.68-.62,3.53,3.53,0,0,0,.46-1.15,7.47,7.47,0,0,0,.17-1.77,7,7,0,0,0-.17-1.7,3.79,3.79,0,0,0-.46-1.16,1.94,1.94,0,0,0-.68-.66A1.62,1.62,0,0,0,26.33,266.66Z" transform="translate(-15.07 -185.46)"/><path class="cls-2" d="M33.33,273.08a1.37,1.37,0,0,1,.59.13,1.63,1.63,0,0,1,.49.33,1.77,1.77,0,0,1,.34.5,1.45,1.45,0,0,1,.12.59,1.48,1.48,0,0,1-.12.59,1.77,1.77,0,0,1-.34.5,1.49,1.49,0,0,1-.49.34,1.43,1.43,0,0,1-1.19,0,1.43,1.43,0,0,1-.5-.34,1.77,1.77,0,0,1-.34-.5,1.48,1.48,0,0,1-.12-.59,1.45,1.45,0,0,1,.12-.59,1.77,1.77,0,0,1,.34-.5,1.56,1.56,0,0,1,.5-.33A1.38,1.38,0,0,1,33.33,273.08Z" transform="translate(-15.07 -185.46)"/><path class="cls-2" d="M36.3,266.52a7.3,7.3,0,0,1,.56-.64,4,4,0,0,1,.8-.63,4.64,4.64,0,0,1,2.46-.66,4.65,4.65,0,0,1,1.59.26,3.34,3.34,0,0,1,1.19.74,3.25,3.25,0,0,1,.76,1.15,3.83,3.83,0,0,1,.26,1.46,3.71,3.71,0,0,1-.12,1,3.89,3.89,0,0,1-.34.84,4.59,4.59,0,0,1-.51.76c-.2.24-.41.48-.64.72L39.92,274H44.2v2H36.8V274.3l4-4.06a3.69,3.69,0,0,0,.68-.92,2.14,2.14,0,0,0,.24-1,1.63,1.63,0,0,0-.13-.67,1.58,1.58,0,0,0-.35-.53,1.35,1.35,0,0,0-.54-.34,1.75,1.75,0,0,0-.7-.13,2.37,2.37,0,0,0-.72.1,3,3,0,0,0-.6.27,3.07,3.07,0,0,0-.5.39l-.45.47Z" transform="translate(-15.07 -185.46)"/><path class="cls-2" d="M26.33,204.07a4.17,4.17,0,0,1,1.68.34,3.77,3.77,0,0,1,1.38,1.06,5.27,5.27,0,0,1,.94,1.8,9.06,9.06,0,0,1,.34,2.6,9.35,9.35,0,0,1-.34,2.66,5.13,5.13,0,0,1-.94,1.79,3.55,3.55,0,0,1-1.38,1,4.34,4.34,0,0,1-1.68.33,4.4,4.4,0,0,1-1.7-.33,3.54,3.54,0,0,1-1.4-1,5,5,0,0,1-.95-1.79,10,10,0,0,1,0-5.32,5,5,0,0,1,.95-1.8,3.54,3.54,0,0,1,1.4-1A4.4,4.4,0,0,1,26.33,204.07Zm0,2.07a1.87,1.87,0,0,0-.83.19,1.75,1.75,0,0,0-.69.62,3.46,3.46,0,0,0-.48,1.14,9.35,9.35,0,0,0,0,3.55,3.52,3.52,0,0,0,.48,1.15,1.92,1.92,0,0,0,.69.62,2,2,0,0,0,.83.18,1.84,1.84,0,0,0,.8-.18,1.89,1.89,0,0,0,.68-.62,3.53,3.53,0,0,0,.46-1.15,7.47,7.47,0,0,0,.17-1.77,7,7,0,0,0-.17-1.7,3.69,3.69,0,0,0-.46-1.16,1.78,1.78,0,0,0-.68-.66A1.62,1.62,0,0,0,26.33,206.14Z" transform="translate(-15.07 -185.46)"/><path class="cls-2" d="M33.33,212.56a1.37,1.37,0,0,1,.59.13,1.63,1.63,0,0,1,.49.33,1.87,1.87,0,0,1,.34.49,1.54,1.54,0,0,1,0,1.19,1.77,1.77,0,0,1-.34.5,1.49,1.49,0,0,1-.49.34,1.43,1.43,0,0,1-1.19,0,1.43,1.43,0,0,1-.5-.34,1.77,1.77,0,0,1-.34-.5,1.54,1.54,0,0,1,0-1.19,1.87,1.87,0,0,1,.34-.49,1.56,1.56,0,0,1,.5-.33A1.38,1.38,0,0,1,33.33,212.56Z" transform="translate(-15.07 -185.46)"/><path class="cls-2" d="M40,204.07a5.09,5.09,0,0,1,1.61.23,3.61,3.61,0,0,1,1.25.65,3.07,3.07,0,0,1,.82,1,3,3,0,0,1,.28,1.32,2.61,2.61,0,0,1-.44,1.54,3.09,3.09,0,0,1-1.23,1,3.35,3.35,0,0,1,1.41,1,2.46,2.46,0,0,1,.51,1.56,2.81,2.81,0,0,1-.35,1.45,3.1,3.1,0,0,1-.92,1,4.22,4.22,0,0,1-1.32.61,6.08,6.08,0,0,1-1.54.2,5.8,5.8,0,0,1-2.26-.43,4.2,4.2,0,0,1-1.65-1.2l1.29-1.41a3.52,3.52,0,0,0,1.15.79,3.71,3.71,0,0,0,1.39.28,3.13,3.13,0,0,0,.77-.09,1.94,1.94,0,0,0,.62-.27,1.29,1.29,0,0,0,.42-.45,1.36,1.36,0,0,0,.15-.65,1.1,1.1,0,0,0-.17-.63,1.48,1.48,0,0,0-.47-.46,2.1,2.1,0,0,0-.7-.28,3.76,3.76,0,0,0-.85-.09h-1.3v-1.92h1.31a3,3,0,0,0,.76-.09,2,2,0,0,0,.63-.27,1.29,1.29,0,0,0,.42-.45,1.21,1.21,0,0,0,.15-.62,1.33,1.33,0,0,0-.14-.6,1.4,1.4,0,0,0-.4-.44,2,2,0,0,0-.59-.26,2.68,2.68,0,0,0-1.45,0,2.86,2.86,0,0,0-.62.24,3.25,3.25,0,0,0-.52.37,3.19,3.19,0,0,0-.4.43l-1.36-1.37a5.13,5.13,0,0,1,.64-.69,4.43,4.43,0,0,1,.83-.55,5,5,0,0,1,1-.36A5.36,5.36,0,0,1,40,204.07Z" transform="translate(-15.07 -185.46)"/><line class="cls-4" x1="48.11" y1="387.96" x2="48.11" y2="24.18"/><line class="cls-5" x1="47.11" y1="387.61" x2="57.11" y2="387.61"/><line class="cls-5" x1="47.11" y1="327.09" x2="57.11" y2="327.09"/><line class="cls-5" x1="47.11" y1="266.57" x2="57.11" y2="266.57"/><line class="cls-5" x1="47.11" y1="206.05" x2="57.11" y2="206.05"/><line class="cls-5" x1="47.11" y1="145.53" x2="57.11" y2="145.53"/><line class="cls-5" x1="47.11" y1="85.01" x2="57.11" y2="85.01"/><line class="cls-5" x1="47.11" y1="24.48" x2="57.11" y2="24.48"/></svg>