<?xml version="1.0" encoding="utf-8"?>
<!-- Generator: Adobe Illustrator 24.1.2, SVG Export Plug-In . SVG Version: 6.00 Build 0)  -->
<svg version="1.1" id="Layer_1" xmlns="http://www.w3.org/2000/svg" xmlns:xlink="http://www.w3.org/1999/xlink" x="0px" y="0px"
	 viewBox="0 0 1080 545" style="enable-background:new 0 0 1080 545;" xml:space="preserve">
<style type="text/css">
	.st0{fill:#D94E7A;}
	.st1{fill:#D2D6D6;}
	.st2{fill:#F17B5D;}
	.st3{fill:#A6ADAD;}
	.st4{fill:#FFB819;}
	.st5{fill:#798484;}
	.st6{fill:#F47C20;}
	.st7{fill:#4D5B5B;}
	.st8{fill:#D02259;}
	.st9{fill:#203232;}
	.st10{fill:#ED5A35;}
	.st11{fill:none;}
	.st12{enable-background:new    ;}
	.st13{fill:#FFFFFF;}
	.st14{fill:#B3B3B3;}
</style>
<g>
	<g>
		<g>
			<path class="st0" d="M475.1,317.1l-22.9-129.6c7.9-1.3,14.9-2,22.9-2V317.1z"/>
		</g>
	</g>
</g>
<g>
	<g>
		<g>
			<path class="st1" d="M476,315.1L424.1,180c9.1-3.5,17.1-5.7,26.7-7.4L476,315.1z"/>
		</g>
	</g>
</g>
<g>
	<g>
		<g>
			<path class="st2" d="M475.1,312.7l-88.3-130.9c10.4-7,20-12,31.7-16.5L475.1,312.7z"/>
		</g>
	</g>
</g>
<g>
	<g>
		<g>
			<path class="st3" d="M475.1,312.2l-133-107.7c11-13.6,22.7-24.3,37.3-34.2L475.1,312.2z"/>
		</g>
	</g>
</g>
<g>
	<g>
		<g>
			<path class="st4" d="M475.2,311.8l-180.9-35.1c5.9-30.7,18-56.5,37.7-80.8L475.2,311.8z"/>
		</g>
	</g>
</g>
<g>
	<g>
		<g>
			<path class="st5" d="M474.7,311.6l-186.6,64.3c-11.9-34.5-14.1-66.1-7.1-102L474.7,311.6z"/>
		</g>
	</g>
</g>
<g>
	<g>
		<g>
			<path class="st6" d="M474.4,311.9L365.9,492.4c-43.8-26.4-74-63.6-90.7-111.9L474.4,311.9z"/>
		</g>
	</g>
</g>
<g>
	<g>
		<g>
			<path class="st7" d="M474.3,312.3l46.5,218.8c-58,12.4-110.9,3.5-161.8-27.1L474.3,312.3z"/>
		</g>
	</g>
</g>
<g>
	<g>
		<g>
			<path class="st8" d="M474.4,312.8l196.4,132.4c-35.5,52.6-85.1,86.1-147.1,99.3L474.4,312.8z"/>
		</g>
	</g>
</g>
<g>
	<g>
		<g>
			<path class="st9" d="M474.3,312.4L716.9,252c17.8,71.3,5.7,139.4-35.3,200.3L474.3,312.4z"/>
		</g>
	</g>
</g>
<g>
	<g>
		<g>
			<path class="st10" d="M475.2,312.5V49.3c124.3,0,225.3,78.9,255.4,199.5L475.2,312.5z"/>
		</g>
	</g>
</g>
<g>
	<rect x="99.7" y="269" class="st11" width="216.4" height="43.9"/>
</g>
<g class="st12">
	<path class="st9" d="M114.4,276.8c0,2.1-1.2,3.4-2.8,4.1c1.8,0.7,3.2,2,3.2,4.2c0,3.3-3.2,5.2-7,5.2c-3.9,0-7-1.9-7-5.2
		c0-2.2,1.4-3.5,3.2-4.2c-1.6-0.7-2.7-2-2.7-4.1c0-3.2,3-5.2,6.6-5.2C111.4,271.7,114.4,273.6,114.4,276.8z M104.5,284.8
		c0,1.6,1.5,2.4,3.3,2.4c1.8,0,3.3-0.8,3.3-2.4c0-1.6-1.5-2.5-3.3-2.5C106,282.3,104.5,283.2,104.5,284.8z M104.9,277.1
		c0,1.5,1.3,2.4,2.9,2.4s2.9-0.8,2.9-2.4c0-1.5-1.3-2.3-2.9-2.3S104.9,275.6,104.9,277.1z"/>
	<path class="st9" d="M122,287.8c0,1.4-1.2,2.5-2.5,2.5c-1.3,0-2.5-1.2-2.5-2.5c0-1.3,1.2-2.5,2.5-2.5
		C120.9,285.3,122,286.5,122,287.8z"/>
	<path class="st9" d="M135.3,283.4h2.5v3.2h-2.5v3.3h-3.5v-3.3h-8v-2.5l6.3-12.2h3.9l-6,11.5h3.8v-4.8h3.5V283.4z"/>
	<path class="st9" d="M149.4,276.6c0,2.8-2.1,4.9-5,4.9c-2.9,0-5-2.1-5-4.9c0-2.8,2.1-4.9,5-4.9
		C147.2,271.7,149.4,273.7,149.4,276.6z M142.2,276.6c0,1.3,0.9,2.2,2.2,2.2c1.3,0,2.2-0.9,2.2-2.2c0-1.3-0.9-2.2-2.2-2.2
		C143.1,274.3,142.2,275.3,142.2,276.6z M146.7,290h-3.4l12.1-18h3.4L146.7,290z M162.9,285.4c0,2.8-2.1,4.9-5,4.9
		c-2.9,0-5-2.1-5-4.9c0-2.8,2.1-4.9,5-4.9C160.7,280.5,162.9,282.6,162.9,285.4z M155.7,285.4c0,1.3,0.9,2.2,2.2,2.2
		c1.3,0,2.2-0.9,2.2-2.2c0-1.3-0.9-2.2-2.2-2.2C156.6,283.2,155.7,284.1,155.7,285.4z"/>
</g>
<g>
	<rect x="99.7" y="298.9" class="st11" width="128.9" height="42.3"/>
</g>
<g class="st12">
	<path class="st9" d="M109.6,299.6l-1.7,1c-0.6-0.8-1.4-1.4-2.5-1.4c-1.8,0-3.1,1.3-3.1,3.2c0,2,1.4,3.2,3.1,3.2
		c1.1,0,2-0.5,2.6-1.3l1.6,1.1c-0.9,1.3-2.3,2.1-4.1,2.1c-3,0-5.1-2.1-5.1-5.1c0-2.9,2.1-5.1,5.1-5.1
		C107.2,297.4,108.8,298.3,109.6,299.6z"/>
	<path class="st9" d="M117.9,304c0,2-1.6,3.6-3.7,3.6c-2.1,0-3.7-1.5-3.7-3.6c0-2,1.6-3.6,3.7-3.6C116.4,300.4,117.9,302,117.9,304z
		 M112.4,304c0,1.1,0.8,1.9,1.8,1.9c1,0,1.8-0.8,1.8-1.9s-0.8-1.9-1.8-1.9C113.2,302.1,112.4,302.9,112.4,304z"/>
	<path class="st9" d="M130.4,303.1v4.3h-1.8v-3.7c0-1-0.5-1.5-1.3-1.5c-0.8,0-1.4,0.5-1.4,1.5v3.7H124v-3.7c0-1-0.5-1.5-1.3-1.5
		c-0.8,0-1.4,0.5-1.4,1.5v3.7h-1.8v-6.8h1.8v0.8c0.5-0.7,1.2-1,2-1c1,0,1.8,0.4,2.2,1.2c0.5-0.9,1.4-1.2,2.3-1.2
		C129.3,300.4,130.4,301.5,130.4,303.1z"/>
	<path class="st9" d="M143.2,303.1v4.3h-1.8v-3.7c0-1-0.5-1.5-1.3-1.5c-0.8,0-1.4,0.5-1.4,1.5v3.7h-1.8v-3.7c0-1-0.5-1.5-1.3-1.5
		c-0.8,0-1.4,0.5-1.4,1.5v3.7h-1.8v-6.8h1.8v0.8c0.5-0.7,1.2-1,2-1c1,0,1.8,0.4,2.2,1.2c0.5-0.9,1.4-1.2,2.3-1.2
		C142.2,300.4,143.2,301.5,143.2,303.1z"/>
	<path class="st9" d="M151.5,304.5c0,2.1-1.5,3.1-3.2,3.1c-1.7,0-3.2-0.9-3.2-3.1v-3.9h1.8v3.7c0,1.1,0.6,1.5,1.4,1.5
		c0.8,0,1.4-0.4,1.4-1.5v-3.7h1.8V304.5z"/>
	<path class="st9" d="M159.7,303.1v4.3h-1.8v-3.7c0-1-0.5-1.5-1.3-1.5c-0.8,0-1.4,0.5-1.4,1.5v3.7h-1.8v-6.8h1.8v0.8
		c0.5-0.7,1.2-1,2-1C158.6,300.4,159.7,301.5,159.7,303.1z"/>
	<path class="st9" d="M163.7,298.4c0,0.7-0.5,1.2-1.2,1.2c-0.7,0-1.2-0.5-1.2-1.2s0.5-1.2,1.2-1.2
		C163.2,297.2,163.7,297.7,163.7,298.4z M163.4,307.4h-1.8v-6.8h1.8V307.4z"/>
	<path class="st9" d="M171.3,301.7l-1.3,1.1c-0.4-0.4-0.9-0.7-1.5-0.7c-0.9,0-1.7,0.7-1.7,1.9c0,1.1,0.7,1.9,1.7,1.9
		c0.6,0,1.1-0.3,1.5-0.7l1.3,1.1c-0.6,0.8-1.6,1.3-2.7,1.3c-2.2,0-3.6-1.5-3.6-3.6c0-2.1,1.5-3.6,3.6-3.6
		C169.7,300.4,170.6,300.9,171.3,301.7z"/>
	<path class="st9" d="M179.1,307.4h-1.8v-0.8c-0.4,0.5-1.1,0.9-2,0.9c-1.9,0-3.3-1.5-3.3-3.6s1.4-3.6,3.3-3.6c0.9,0,1.6,0.4,2,0.9
		v-0.8h1.8V307.4z M173.9,304c0,1,0.7,1.9,1.8,1.9c1,0,1.8-0.8,1.8-1.9c0-1.1-0.7-1.9-1.8-1.9C174.6,302.1,173.9,303,173.9,304z"/>
	<path class="st9" d="M186,302.2h-2.5v2.5c0,0.8,0.4,1.2,1,1.2c0.4,0,0.9-0.2,1.3-0.4l0.7,1.4c-0.6,0.4-1.3,0.7-2.2,0.7
		c-1.7,0-2.5-1-2.5-2.7v-2.6h-1.3v-1.6h1.3v-2h1.8v2h2.5V302.2z"/>
	<path class="st9" d="M189.6,298.4c0,0.7-0.5,1.2-1.2,1.2c-0.7,0-1.2-0.5-1.2-1.2s0.5-1.2,1.2-1.2
		C189.1,297.2,189.6,297.7,189.6,298.4z M189.4,307.4h-1.8v-6.8h1.8V307.4z"/>
	<path class="st9" d="M198.2,304c0,2-1.6,3.6-3.7,3.6c-2.1,0-3.7-1.5-3.7-3.6c0-2,1.6-3.6,3.7-3.6C196.7,300.4,198.2,302,198.2,304z
		 M192.8,304c0,1.1,0.8,1.9,1.8,1.9c1,0,1.8-0.8,1.8-1.9s-0.8-1.9-1.8-1.9C193.5,302.1,192.8,302.9,192.8,304z"/>
	<path class="st9" d="M206.1,303.1v4.3h-1.8v-3.7c0-1-0.5-1.5-1.3-1.5c-0.8,0-1.4,0.5-1.4,1.5v3.7h-1.8v-6.8h1.8v0.8
		c0.5-0.7,1.2-1,2-1C205,300.4,206.1,301.5,206.1,303.1z"/>
</g>
<g class="st12">
	<path class="st9" d="M107.4,313.9c-0.8-0.5-1.7-0.8-2.8-0.8c-1.1,0-1.9,0.4-1.9,1.2c0,0.7,0.8,0.9,2,1.1l0.6,0.1
		c1.8,0.3,3.1,1,3.1,2.7c0,2.2-1.9,3.2-4,3.2c-1.5,0-3.1-0.4-4.1-1.3l1-1.6c0.7,0.6,1.9,1.1,3.1,1.1c1.1,0,1.9-0.4,1.9-1.2
		c0-0.7-0.7-0.9-2.1-1.1l-0.6-0.1c-1.7-0.3-3-1-3-2.8c0-2,1.8-3.1,3.9-3.1c1.4,0,2.5,0.3,3.7,1L107.4,313.9z"/>
	<path class="st9" d="M116.5,317.8c0,0.2,0,0.5,0,0.6h-4.8c0.2,1,0.9,1.4,1.7,1.4c0.6,0,1.2-0.2,1.7-0.7l1.1,1.2
		c-0.8,0.7-1.8,1-2.9,1c-2.1,0-3.5-1.4-3.5-3.6c0-2.1,1.4-3.6,3.4-3.6C115.1,314.3,116.4,315.7,116.5,317.8z M111.6,317.2h3
		c-0.2-0.9-0.7-1.4-1.5-1.4C112.3,315.8,111.8,316.4,111.6,317.2z"/>
	<path class="st9" d="M122.6,314.4l-0.3,1.8c-0.3-0.1-0.7-0.2-1.1-0.2c-0.8,0-1.4,0.5-1.4,1.5v3.7h-1.8v-6.8h1.8v0.7
		c0.4-0.6,1.1-0.9,1.9-0.9C122,314.3,122.3,314.3,122.6,314.4z"/>
	<path class="st9" d="M128,321.2h-2.1l-2.7-6.8h2l1.8,4.9l1.8-4.9h1.9L128,321.2z"/>
	<path class="st9" d="M133.8,312.2c0,0.7-0.5,1.2-1.2,1.2c-0.7,0-1.2-0.5-1.2-1.2s0.5-1.2,1.2-1.2
		C133.3,311.1,133.8,311.6,133.8,312.2z M133.6,321.2h-1.8v-6.8h1.8V321.2z"/>
	<path class="st9" d="M141.4,315.6l-1.3,1.1c-0.4-0.4-0.9-0.7-1.5-0.7c-0.9,0-1.7,0.7-1.7,1.9c0,1.1,0.7,1.9,1.7,1.9
		c0.6,0,1.1-0.3,1.5-0.7l1.3,1.1c-0.6,0.8-1.6,1.3-2.7,1.3c-2.2,0-3.6-1.5-3.6-3.6c0-2.1,1.5-3.6,3.6-3.6
		C139.8,314.3,140.8,314.7,141.4,315.6z"/>
	<path class="st9" d="M148.9,317.8c0,0.2,0,0.5,0,0.6H144c0.2,1,0.9,1.4,1.7,1.4c0.6,0,1.2-0.2,1.7-0.7l1.1,1.2
		c-0.8,0.7-1.8,1-2.9,1c-2.1,0-3.5-1.4-3.5-3.6c0-2.1,1.4-3.6,3.4-3.6C147.5,314.3,148.9,315.7,148.9,317.8z M144,317.2h3
		c-0.2-0.9-0.7-1.4-1.5-1.4C144.7,315.8,144.2,316.4,144,317.2z"/>
	<path class="st9" d="M156.3,315.6l-1.3,1.1c-0.4-0.4-0.9-0.7-1.5-0.7c-0.9,0-1.7,0.7-1.7,1.9c0,1.1,0.7,1.9,1.7,1.9
		c0.6,0,1.1-0.3,1.5-0.7l1.3,1.1c-0.6,0.8-1.6,1.3-2.7,1.3c-2.2,0-3.6-1.5-3.6-3.6c0-2.1,1.5-3.6,3.6-3.6
		C154.7,314.3,155.7,314.7,156.3,315.6z"/>
	<path class="st9" d="M162.5,316.3c-0.5-0.3-1.4-0.5-2.2-0.6c-0.7,0-1,0.2-1,0.6c0,0.4,0.5,0.5,1.1,0.6l0.6,0.1
		c1.5,0.2,2.3,0.9,2.3,2c0,1.4-1.1,2.3-3.1,2.3c-0.9,0-2.1-0.2-3-0.8l0.7-1.4c0.6,0.4,1.3,0.7,2.3,0.7c0.8,0,1.3-0.2,1.3-0.6
		c0-0.3-0.3-0.5-1.1-0.6l-0.6-0.1c-1.6-0.2-2.3-0.9-2.3-2.1c0-1.4,1.1-2.2,2.9-2.2c1.1,0,1.9,0.2,2.8,0.6L162.5,316.3z"/>
</g>
<g>
	<rect x="106.6" y="159.5" class="st11" width="108.6" height="43.9"/>
</g>
<g class="st12">
	<path class="st9" d="M120,165.2l-7.5,15.3h-4.1l7.4-14.8h-8.6v-3.2H120V165.2z"/>
	<path class="st9" d="M124.7,178.3c0,1.4-1.2,2.5-2.5,2.5c-1.3,0-2.5-1.2-2.5-2.5c0-1.3,1.2-2.5,2.5-2.5
		C123.5,175.9,124.7,177,124.7,178.3z"/>
	<path class="st9" d="M138.9,165.2l-7.5,15.3h-4.1l7.4-14.8h-8.6v-3.2h12.7V165.2z"/>
	<path class="st9" d="M150.6,167.1c0,2.8-2.1,4.9-5,4.9c-2.9,0-5-2.1-5-4.9c0-2.8,2.1-4.9,5-4.9
		C148.4,162.2,150.6,164.3,150.6,167.1z M143.4,167.1c0,1.3,0.9,2.2,2.2,2.2c1.3,0,2.2-0.9,2.2-2.2c0-1.3-0.9-2.2-2.2-2.2
		C144.3,164.9,143.4,165.8,143.4,167.1z M148,180.5h-3.4l12.1-18h3.4L148,180.5z M164.1,175.9c0,2.8-2.1,4.9-5,4.9
		c-2.9,0-5-2.1-5-4.9c0-2.8,2.1-4.9,5-4.9C162,171,164.1,173.1,164.1,175.9z M156.9,175.9c0,1.3,0.9,2.2,2.2,2.2
		c1.3,0,2.2-0.9,2.2-2.2c0-1.3-0.9-2.2-2.2-2.2C157.8,173.7,156.9,174.6,156.9,175.9z"/>
</g>
<g>
	<rect x="105.7" y="188.7" class="st11" width="93.3" height="42.3"/>
</g>
<g class="st12">
	<path class="st9" d="M115.7,190.2l-1.7,1c-0.6-0.8-1.4-1.4-2.5-1.4c-1.8,0-3.1,1.3-3.1,3.2c0,2,1.4,3.2,3.1,3.2
		c1.1,0,2-0.5,2.6-1.3l1.6,1.1c-0.9,1.3-2.3,2.1-4.1,2.1c-3,0-5.1-2.1-5.1-5.1c0-2.9,2.1-5.1,5.1-5.1
		C113.3,188,114.9,188.8,115.7,190.2z"/>
	<path class="st9" d="M124,194.5c0,2-1.6,3.6-3.7,3.6c-2.1,0-3.7-1.5-3.7-3.6c0-2,1.6-3.6,3.7-3.6C122.4,191,124,192.5,124,194.5z
		 M118.5,194.5c0,1.1,0.8,1.9,1.8,1.9c1,0,1.8-0.8,1.8-1.9s-0.8-1.9-1.8-1.9C119.3,192.7,118.5,193.4,118.5,194.5z"/>
	<path class="st9" d="M131.9,193.6v4.3h-1.8v-3.7c0-1-0.5-1.5-1.3-1.5c-0.8,0-1.4,0.5-1.4,1.5v3.7h-1.8v-6.8h1.8v0.8
		c0.5-0.7,1.2-1,2-1C130.8,191,131.9,192,131.9,193.6z"/>
	<path class="st9" d="M138.6,193.1c-0.5-0.3-1.4-0.5-2.2-0.6c-0.7,0-1,0.2-1,0.6c0,0.4,0.5,0.5,1.1,0.6l0.6,0.1
		c1.5,0.2,2.3,0.9,2.3,2c0,1.4-1.1,2.3-3.1,2.3c-0.9,0-2.1-0.2-3-0.8l0.7-1.4c0.6,0.4,1.3,0.7,2.3,0.7c0.8,0,1.3-0.2,1.3-0.6
		c0-0.3-0.3-0.5-1.1-0.6l-0.6-0.1c-1.6-0.2-2.3-0.9-2.3-2.1c0-1.4,1.1-2.2,2.9-2.2c1.1,0,1.9,0.2,2.8,0.6L138.6,193.1z"/>
	<path class="st9" d="M147.2,195.1c0,2.1-1.5,3.1-3.2,3.1c-1.7,0-3.2-0.9-3.2-3.1v-3.9h1.8v3.7c0,1.1,0.6,1.5,1.4,1.5
		c0.8,0,1.4-0.4,1.4-1.5v-3.7h1.8V195.1z"/>
	<path class="st9" d="M160,193.6v4.3h-1.8v-3.7c0-1-0.5-1.5-1.3-1.5c-0.8,0-1.4,0.5-1.4,1.5v3.7h-1.8v-3.7c0-1-0.5-1.5-1.3-1.5
		c-0.8,0-1.4,0.5-1.4,1.5v3.7H149v-6.8h1.8v0.8c0.5-0.7,1.2-1,2-1c1,0,1.8,0.4,2.2,1.2c0.5-0.9,1.4-1.2,2.3-1.2
		C159,191,160,192,160,193.6z"/>
	<path class="st9" d="M168.2,194.5c0,0.2,0,0.5,0,0.6h-4.8c0.2,1,0.9,1.4,1.7,1.4c0.6,0,1.2-0.2,1.7-0.7l1.1,1.2
		c-0.8,0.7-1.8,1-2.9,1c-2.1,0-3.5-1.4-3.5-3.6s1.4-3.6,3.4-3.6C166.9,191,168.2,192.4,168.2,194.5z M163.4,193.9h3
		c-0.2-0.9-0.7-1.4-1.5-1.4C164,192.6,163.5,193.1,163.4,193.9z"/>
	<path class="st9" d="M174.3,191.1l-0.3,1.8c-0.3-0.1-0.7-0.2-1.1-0.2c-0.8,0-1.4,0.5-1.4,1.5v3.7h-1.8v-6.8h1.8v0.7
		c0.4-0.6,1.1-0.9,1.9-0.9C173.8,191,174.1,191,174.3,191.1z"/>
</g>
<g class="st12">
	<path class="st9" d="M113.5,204.4c-0.8-0.5-1.7-0.8-2.8-0.8c-1.1,0-1.9,0.4-1.9,1.2c0,0.7,0.8,0.9,2,1.1l0.6,0.1
		c1.8,0.3,3.1,1,3.1,2.7c0,2.2-1.9,3.2-4,3.2c-1.5,0-3.1-0.4-4.1-1.3l1-1.6c0.7,0.6,1.9,1.1,3.1,1.1c1.1,0,1.9-0.4,1.9-1.2
		c0-0.7-0.7-0.9-2.1-1.1l-0.6-0.1c-1.7-0.3-3-1-3-2.8c0-2,1.8-3.1,3.9-3.1c1.4,0,2.5,0.3,3.7,1L113.5,204.4z"/>
	<path class="st9" d="M120.9,206.6h-2.5v2.5c0,0.8,0.4,1.2,1,1.2c0.4,0,0.9-0.2,1.3-0.4l0.7,1.4c-0.6,0.4-1.3,0.7-2.2,0.7
		c-1.7,0-2.5-1-2.5-2.7v-2.6h-1.3V205h1.3v-2h1.8v2h2.5V206.6z"/>
	<path class="st9" d="M129.1,211.8h-1.8V211c-0.4,0.5-1.1,0.9-2,0.9c-1.9,0-3.3-1.5-3.3-3.6s1.4-3.6,3.3-3.6c0.9,0,1.6,0.4,2,0.9
		V205h1.8V211.8z M123.9,208.4c0,1,0.7,1.9,1.8,1.9c1,0,1.8-0.8,1.8-1.9c0-1.1-0.7-1.9-1.8-1.9C124.6,206.5,123.9,207.3,123.9,208.4
		z"/>
	<path class="st9" d="M138.1,208.4c0,2-1.4,3.6-3.3,3.6c-0.9,0-1.6-0.4-2-0.9v3.5H131V205h1.8v0.7c0.4-0.6,1.1-0.9,2-0.9
		C136.7,204.8,138.1,206.3,138.1,208.4z M132.8,208.4c0,1.1,0.7,1.9,1.7,1.9c1.1,0,1.8-0.8,1.8-1.9s-0.7-1.9-1.8-1.9
		C133.5,206.5,132.8,207.3,132.8,208.4z"/>
	<path class="st9" d="M141.5,211.8h-1.8v-10.1h1.8V211.8z"/>
	<path class="st9" d="M149.7,208.4c0,0.2,0,0.5,0,0.6h-4.8c0.2,1,0.9,1.4,1.7,1.4c0.6,0,1.2-0.2,1.7-0.7l1.1,1.2
		c-0.8,0.7-1.8,1-2.9,1c-2.1,0-3.5-1.4-3.5-3.6s1.4-3.6,3.4-3.6C148.3,204.8,149.7,206.3,149.7,208.4z M144.8,207.7h3
		c-0.2-0.9-0.7-1.4-1.5-1.4C145.5,206.4,145,206.9,144.8,207.7z"/>
	<path class="st9" d="M156,206.9c-0.5-0.3-1.4-0.5-2.2-0.6c-0.7,0-1,0.2-1,0.6c0,0.4,0.5,0.5,1.1,0.6l0.6,0.1c1.5,0.2,2.3,0.9,2.3,2
		c0,1.4-1.1,2.3-3.1,2.3c-0.9,0-2.1-0.2-3-0.8l0.7-1.4c0.6,0.4,1.3,0.7,2.3,0.7c0.8,0,1.3-0.2,1.3-0.6c0-0.3-0.3-0.5-1.1-0.6
		l-0.6-0.1c-1.6-0.2-2.3-0.9-2.3-2.1c0-1.4,1.1-2.2,2.9-2.2c1.1,0,1.9,0.2,2.8,0.6L156,206.9z"/>
</g>
<g>
	<rect x="163.3" y="79.1" class="st11" width="117" height="43.9"/>
</g>
<g class="st12">
	<path class="st9" d="M175.3,99h2.5v3.2h-2.5v3.3h-3.5v-3.3h-8v-2.5l6.3-12.2h3.9L168,99h3.8v-4.8h3.5V99z"/>
	<path class="st9" d="M184.8,103.3c0,1.4-1.2,2.5-2.5,2.5c-1.3,0-2.5-1.2-2.5-2.5c0-1.3,1.2-2.5,2.5-2.5
		C183.7,100.9,184.8,102,184.8,103.3z"/>
	<path class="st9" d="M199.1,90.2l-7.5,15.3h-4.1l7.4-14.8h-8.6v-3.2h12.7V90.2z"/>
	<path class="st9" d="M210.7,92.1c0,2.8-2.1,4.9-5,4.9c-2.9,0-5-2.1-5-4.9c0-2.8,2.1-4.9,5-4.9C208.6,87.2,210.7,89.3,210.7,92.1z
		 M203.6,92.1c0,1.3,0.9,2.2,2.2,2.2c1.3,0,2.2-0.9,2.2-2.2c0-1.3-0.9-2.2-2.2-2.2C204.5,89.9,203.6,90.8,203.6,92.1z M208.1,105.5
		h-3.4l12.1-18h3.4L208.1,105.5z M224.3,100.9c0,2.8-2.1,4.9-5,4.9c-2.9,0-5-2.1-5-4.9c0-2.8,2.1-4.9,5-4.9
		C222.1,96,224.3,98.1,224.3,100.9z M217.1,100.9c0,1.3,0.9,2.2,2.2,2.2c1.3,0,2.2-0.9,2.2-2.2c0-1.3-0.9-2.2-2.2-2.2
		C218,98.7,217.1,99.6,217.1,100.9z"/>
</g>
<g>
	<rect x="162.1" y="112.4" class="st11" width="82.9" height="21.3"/>
</g>
<g class="st12">
	<path class="st9" d="M174,122.4h-2V115l-2.4,6.5h-2.1l-2.4-6.4v7.3h-2v-9.8h2.9l2.5,6.6l2.5-6.6h2.9V122.4z"/>
	<path class="st9" d="M182.7,122.4h-1.8v-0.7c-0.4,0.5-1.1,0.9-2,0.9c-1.9,0-3.3-1.5-3.3-3.6s1.4-3.6,3.3-3.6c0.9,0,1.6,0.4,2,0.9
		v-0.7h1.8V122.4z M177.5,119c0,1,0.7,1.9,1.8,1.9c1,0,1.8-0.8,1.8-1.9c0-1.1-0.7-1.9-1.8-1.9C178.2,117.2,177.5,118,177.5,119z"/>
	<path class="st9" d="M189.5,117.3h-2.5v2.5c0,0.8,0.4,1.2,1,1.2c0.4,0,0.9-0.2,1.3-0.4l0.7,1.4c-0.6,0.4-1.3,0.7-2.2,0.7
		c-1.7,0-2.5-1-2.5-2.7v-2.6H184v-1.6h1.3v-2h1.8v2h2.5V117.3z"/>
	<path class="st9" d="M197.4,119c0,0.2,0,0.5,0,0.6h-4.8c0.2,1,0.9,1.4,1.7,1.4c0.6,0,1.2-0.2,1.7-0.7l1.1,1.2c-0.8,0.7-1.8,1-2.9,1
		c-2.1,0-3.5-1.4-3.5-3.6s1.4-3.6,3.4-3.6C196,115.5,197.4,116.9,197.4,119z M192.5,118.4h3c-0.2-0.9-0.7-1.4-1.5-1.4
		C193.2,117,192.7,117.6,192.5,118.4z"/>
	<path class="st9" d="M203.5,115.6l-0.3,1.8c-0.3-0.1-0.7-0.2-1.1-0.2c-0.8,0-1.4,0.5-1.4,1.5v3.7h-1.8v-6.8h1.8v0.7
		c0.4-0.6,1.1-0.9,1.9-0.9C202.9,115.5,203.3,115.5,203.5,115.6z"/>
	<path class="st9" d="M206.8,113.4c0,0.7-0.5,1.2-1.2,1.2c-0.7,0-1.2-0.5-1.2-1.2s0.5-1.2,1.2-1.2
		C206.3,112.2,206.8,112.8,206.8,113.4z M206.6,122.4h-1.8v-6.8h1.8V122.4z"/>
	<path class="st9" d="M215.2,122.4h-1.8v-0.7c-0.4,0.5-1.1,0.9-2,0.9c-1.9,0-3.3-1.5-3.3-3.6s1.4-3.6,3.3-3.6c0.9,0,1.6,0.4,2,0.9
		v-0.7h1.8V122.4z M209.9,119c0,1,0.7,1.9,1.8,1.9c1,0,1.8-0.8,1.8-1.9c0-1.1-0.7-1.9-1.8-1.9C210.6,117.2,209.9,118,209.9,119z"/>
	<path class="st9" d="M218.9,122.4h-1.8v-10.1h1.8V122.4z"/>
	<path class="st9" d="M225.7,117.5c-0.5-0.3-1.4-0.5-2.2-0.6c-0.7,0-1,0.2-1,0.6c0,0.4,0.5,0.5,1.1,0.6l0.6,0.1
		c1.5,0.2,2.3,0.9,2.3,2c0,1.4-1.1,2.3-3.1,2.3c-0.9,0-2.1-0.2-3-0.8l0.7-1.4c0.6,0.4,1.3,0.7,2.3,0.7c0.8,0,1.3-0.2,1.3-0.6
		c0-0.3-0.3-0.5-1.1-0.6l-0.6-0.1c-1.6-0.2-2.3-0.9-2.3-2.1c0-1.4,1.1-2.2,2.9-2.2c1.1,0,1.9,0.2,2.8,0.6L225.7,117.5z"/>
</g>
<g>
	<rect x="219.4" y="47.6" class="st11" width="97.1" height="43.9"/>
</g>
<g class="st12">
	<path class="st9" d="M257.7,57.2c0,1.9-1,3.3-2.7,4.1c1.9,0.7,3.1,2.2,3.1,4.1c0,3.6-3.2,5.3-6.6,5.3c-2.7,0-4.9-1-6.3-2.6l2.1-2.3
		c1,1.1,2.5,1.7,4.1,1.7c1.7,0,3.2-0.8,3.2-2.3c0-1.5-1.6-2.4-3.5-2.4h-2.1v-3.1h2.1c1.7,0,3.2-0.8,3.2-2.3c0-1.5-1.3-2.3-3-2.3
		c-1.7,0-2.9,0.9-3.6,1.8l-2.2-2.2c1.2-1.6,3.1-2.8,6-2.8C255.1,52,257.7,54.1,257.7,57.2z"/>
	<path class="st9" d="M265.3,68.1c0,1.4-1.2,2.5-2.5,2.5c-1.3,0-2.5-1.2-2.5-2.5c0-1.3,1.2-2.5,2.5-2.5
		C264.1,65.7,265.3,66.8,265.3,68.1z"/>
	<path class="st9" d="M273.6,58.6c0.2,0,0.5-0.1,0.8-0.1c3.7,0,6.2,2.6,6.2,6c0,3.5-2.9,6.1-6.8,6.1c-3.8,0-6.8-2.6-6.8-6.1
		c0-1.6,0.6-3.1,1.7-4.8l5-7.5h4.2L273.6,58.6z M270.8,64.5c0,1.7,1.4,3,3.1,3c1.8,0,3.2-1.2,3.2-3c0-1.7-1.4-3-3.2-3
		C272.1,61.6,270.8,62.8,270.8,64.5z"/>
	<path class="st9" d="M292.5,56.9c0,2.8-2.1,4.9-5,4.9c-2.9,0-5-2.1-5-4.9c0-2.8,2.1-4.9,5-4.9C290.4,52,292.5,54.1,292.5,56.9z
		 M285.3,56.9c0,1.3,0.9,2.2,2.2,2.2c1.3,0,2.2-0.9,2.2-2.2c0-1.3-0.9-2.2-2.2-2.2C286.3,54.7,285.3,55.6,285.3,56.9z M289.9,70.3
		h-3.4l12.1-18h3.4L289.9,70.3z M306,65.7c0,2.8-2.1,4.9-5,4.9c-2.9,0-5-2.1-5-4.9c0-2.8,2.1-4.9,5-4.9
		C303.9,60.8,306,62.9,306,65.7z M298.9,65.7c0,1.3,0.9,2.2,2.2,2.2c1.3,0,2.2-0.9,2.2-2.2c0-1.3-0.9-2.2-2.2-2.2
		C299.8,63.5,298.9,64.4,298.9,65.7z"/>
</g>
<g>
	<rect x="219.6" y="77.5" class="st11" width="138.4" height="21.4"/>
</g>
<g class="st12">
	<path class="st9" d="M250.6,76.2c2.3,0,3.6,1.1,3.6,3c0,1.6-1.1,2.7-3,2.9l3,3.9h-2.4l-2.9-3.9h-0.6V86h-2v-9.8H250.6z M248.4,78
		v2.4h2.2c1.1,0,1.6-0.4,1.6-1.2c0-0.8-0.6-1.2-1.6-1.2H248.4z"/>
	<path class="st9" d="M261.8,82.6c0,0.2,0,0.5,0,0.6h-4.8c0.2,1,0.9,1.4,1.7,1.4c0.6,0,1.2-0.2,1.7-0.7l1.1,1.2
		c-0.8,0.7-1.8,1-2.9,1c-2.1,0-3.5-1.4-3.5-3.6s1.4-3.6,3.4-3.6C260.5,79,261.8,80.4,261.8,82.6z M257,81.9h3
		c-0.2-0.9-0.7-1.4-1.5-1.4C257.6,80.6,257.1,81.1,257,81.9z"/>
	<path class="st9" d="M270,86h-1.8v-0.7c-0.4,0.5-1.1,0.9-2,0.9c-1.9,0-3.3-1.5-3.3-3.6s1.4-3.6,3.3-3.6c0.9,0,1.6,0.4,2,0.9v-0.7
		h1.8V86z M264.7,82.6c0,1,0.7,1.9,1.8,1.9c1,0,1.8-0.8,1.8-1.9c0-1.1-0.7-1.9-1.8-1.9C265.4,80.7,264.7,81.5,264.7,82.6z"/>
	<path class="st9" d="M273.7,86h-1.8V75.9h1.8V86z"/>
	<path class="st9" d="M286.6,86h-7.3v-9.8h7.3V78h-5.3v2.2h5.1v1.8h-5.1v2.3h5.4V86z"/>
	<path class="st9" d="M293.3,81.1c-0.5-0.3-1.4-0.5-2.2-0.6c-0.7,0-1,0.2-1,0.6c0,0.4,0.5,0.5,1.1,0.6l0.6,0.1
		c1.5,0.2,2.3,0.9,2.3,2c0,1.4-1.1,2.3-3.1,2.3c-0.9,0-2.1-0.2-3-0.8l0.7-1.4c0.6,0.4,1.3,0.7,2.3,0.7c0.8,0,1.3-0.2,1.3-0.6
		c0-0.3-0.3-0.5-1.1-0.6l-0.6-0.1c-1.6-0.2-2.3-0.9-2.3-2.1c0-1.4,1.1-2.2,2.9-2.2c1.1,0,1.9,0.2,2.8,0.6L293.3,81.1z"/>
	<path class="st9" d="M300.4,80.8h-2.5v2.5c0,0.8,0.4,1.2,1,1.2c0.4,0,0.9-0.2,1.3-0.4l0.7,1.4c-0.6,0.4-1.3,0.7-2.2,0.7
		c-1.7,0-2.5-1-2.5-2.7v-2.6h-1.3v-1.6h1.3v-2h1.8v2h2.5V80.8z"/>
	<path class="st9" d="M308.6,86h-1.8v-0.7c-0.4,0.5-1.1,0.9-2,0.9c-1.9,0-3.3-1.5-3.3-3.6s1.4-3.6,3.3-3.6c0.9,0,1.6,0.4,2,0.9v-0.7
		h1.8V86z M303.4,82.6c0,1,0.7,1.9,1.8,1.9c1,0,1.8-0.8,1.8-1.9c0-1.1-0.7-1.9-1.8-1.9C304,80.7,303.4,81.5,303.4,82.6z"/>
	<path class="st9" d="M315.4,80.8H313v2.5c0,0.8,0.4,1.2,1,1.2c0.4,0,0.9-0.2,1.3-0.4l0.7,1.4c-0.6,0.4-1.3,0.7-2.2,0.7
		c-1.7,0-2.5-1-2.5-2.7v-2.6h-1.3v-1.6h1.3v-2h1.8v2h2.5V80.8z"/>
	<path class="st9" d="M323.3,82.6c0,0.2,0,0.5,0,0.6h-4.8c0.2,1,0.9,1.4,1.7,1.4c0.6,0,1.2-0.2,1.7-0.7l1.1,1.2
		c-0.8,0.7-1.8,1-2.9,1c-2.1,0-3.5-1.4-3.5-3.6s1.4-3.6,3.4-3.6C321.9,79,323.3,80.4,323.3,82.6z M318.4,81.9h3
		c-0.2-0.9-0.7-1.4-1.5-1.4C319.1,80.6,318.6,81.1,318.4,81.9z"/>
</g>
<g>
	<rect x="305.6" y="24.7" class="st11" width="89.7" height="43.9"/>
</g>
<g class="st12">
	<path class="st9" d="M340.5,35.3c0,1.9-1,3.3-2.7,4.1c1.9,0.7,3.1,2.2,3.1,4.1c0,3.6-3.2,5.3-6.6,5.3c-2.7,0-4.9-1-6.3-2.6l2.1-2.3
		c1,1.1,2.5,1.7,4.1,1.7c1.7,0,3.2-0.8,3.2-2.3c0-1.5-1.6-2.4-3.5-2.4h-2.1v-3.1h2.1c1.7,0,3.2-0.8,3.2-2.3c0-1.5-1.3-2.3-3-2.3
		c-1.7,0-2.9,0.9-3.6,1.8l-2.2-2.2c1.2-1.6,3.1-2.8,6-2.8C337.9,30.1,340.5,32.1,340.5,35.3z"/>
	<path class="st9" d="M348.1,46.2c0,1.4-1.2,2.5-2.5,2.5c-1.3,0-2.5-1.2-2.5-2.5c0-1.3,1.2-2.5,2.5-2.5
		C346.9,43.7,348.1,44.9,348.1,46.2z"/>
	<path class="st9" d="M356.2,48.4h-3.5V35l-4.3,1.7v-3.5l7.8-3.1V48.4z"/>
	<path class="st9" d="M369.3,35c0,2.8-2.1,4.9-5,4.9c-2.9,0-5-2.1-5-4.9c0-2.8,2.1-4.9,5-4.9C367.2,30.1,369.3,32.2,369.3,35z
		 M362.1,35c0,1.3,0.9,2.2,2.2,2.2c1.3,0,2.2-0.9,2.2-2.2c0-1.3-0.9-2.2-2.2-2.2C363.1,32.8,362.1,33.7,362.1,35z M366.7,48.4h-3.4
		l12.1-18h3.4L366.7,48.4z M382.9,43.8c0,2.8-2.1,4.9-5,4.9c-2.9,0-5-2.1-5-4.9c0-2.8,2.1-4.9,5-4.9C380.7,38.9,382.9,41,382.9,43.8
		z M375.7,43.8c0,1.3,0.9,2.2,2.2,2.2c1.3,0,2.2-0.9,2.2-2.2c0-1.3-0.9-2.2-2.2-2.2C376.6,41.6,375.7,42.5,375.7,43.8z"/>
</g>
<g>
	<rect x="305.6" y="57.1" class="st11" width="103.5" height="21.4"/>
</g>
<g class="st12">
	<path class="st9" d="M336.7,61.7c0,2.7-1.7,4.1-4.2,4.1c-2.5,0-4.2-1.4-4.2-4.1v-5.9h2v5.8c0,1.6,0.9,2.3,2.3,2.3
		c1.4,0,2.3-0.7,2.3-2.3v-5.8h2V61.7z"/>
	<path class="st9" d="M343.6,60.4h-2.5v2.5c0,0.8,0.4,1.2,1,1.2c0.4,0,0.9-0.2,1.3-0.4l0.7,1.4c-0.6,0.4-1.3,0.7-2.2,0.7
		c-1.7,0-2.5-1-2.5-2.7v-2.6H338v-1.6h1.3v-2h1.8v2h2.5V60.4z"/>
	<path class="st9" d="M347.3,56.6c0,0.7-0.5,1.2-1.2,1.2c-0.7,0-1.2-0.5-1.2-1.2s0.5-1.2,1.2-1.2C346.8,55.4,347.3,55.9,347.3,56.6z
		 M347.1,65.6h-1.8v-6.8h1.8V65.6z"/>
	<path class="st9" d="M350.8,65.6H349V55.5h1.8V65.6z"/>
	<path class="st9" d="M354.8,56.6c0,0.7-0.5,1.2-1.2,1.2c-0.7,0-1.2-0.5-1.2-1.2s0.5-1.2,1.2-1.2C354.3,55.4,354.8,55.9,354.8,56.6z
		 M354.5,65.6h-1.8v-6.8h1.8V65.6z"/>
	<path class="st9" d="M361.4,60.4h-2.5v2.5c0,0.8,0.4,1.2,1,1.2c0.4,0,0.9-0.2,1.3-0.4l0.7,1.4c-0.6,0.4-1.3,0.7-2.2,0.7
		c-1.7,0-2.5-1-2.5-2.7v-2.6h-1.3v-1.6h1.3v-2h1.8v2h2.5V60.4z"/>
	<path class="st9" d="M365.1,56.6c0,0.7-0.5,1.2-1.2,1.2c-0.7,0-1.2-0.5-1.2-1.2s0.5-1.2,1.2-1.2C364.6,55.4,365.1,55.9,365.1,56.6z
		 M364.8,65.6H363v-6.8h1.8V65.6z"/>
	<path class="st9" d="M373,62.2c0,0.2,0,0.5,0,0.6h-4.8c0.2,1,0.9,1.4,1.7,1.4c0.6,0,1.2-0.2,1.7-0.7l1.1,1.2c-0.8,0.7-1.8,1-2.9,1
		c-2.1,0-3.5-1.4-3.5-3.6s1.4-3.6,3.4-3.6C371.7,58.6,373,60.1,373,62.2z M368.2,61.6h3c-0.2-0.9-0.7-1.4-1.5-1.4
		C368.9,60.2,368.4,60.7,368.2,61.6z"/>
	<path class="st9" d="M379.3,60.7c-0.5-0.3-1.4-0.5-2.2-0.6c-0.7,0-1,0.2-1,0.6c0,0.4,0.5,0.5,1.1,0.6l0.6,0.1
		c1.5,0.2,2.3,0.9,2.3,2c0,1.4-1.1,2.3-3.1,2.3c-0.9,0-2.1-0.2-3-0.8l0.7-1.4c0.6,0.4,1.3,0.7,2.3,0.7c0.8,0,1.3-0.2,1.3-0.6
		c0-0.3-0.3-0.5-1.1-0.6l-0.6-0.1c-1.6-0.2-2.3-0.9-2.3-2.1c0-1.4,1.1-2.2,2.9-2.2c1.1,0,1.9,0.2,2.8,0.6L379.3,60.7z"/>
</g>
<g>
	<rect x="411.2" y="18" class="st11" width="216.4" height="43.9"/>
</g>
<g class="st12">
	<path class="st9" d="M412,26.4c1-1.3,2.8-3.1,6.1-3.1c3.8,0,6.1,2.4,6.1,5.8c0,2.2-1.1,3.7-2.6,5.3l-3.8,4h6.9v3.3h-11.9v-2.7
		l6.4-6.5c1-1,1.5-2,1.5-3.1c0-1.6-1.1-2.7-2.8-2.7c-1.7,0-2.7,0.9-3.7,2L412,26.4z"/>
	<path class="st9" d="M432.1,39.4c0,1.4-1.2,2.5-2.5,2.5c-1.3,0-2.5-1.2-2.5-2.5c0-1.3,1.2-2.5,2.5-2.5
		C431,36.9,432.1,38.1,432.1,39.4z"/>
	<path class="st9" d="M447.9,28.5c0,2.1-1.2,3.4-2.8,4.1c1.8,0.7,3.2,2,3.2,4.2c0,3.3-3.2,5.2-7,5.2c-3.9,0-7-1.9-7-5.2
		c0-2.2,1.4-3.5,3.2-4.2c-1.6-0.7-2.7-2-2.7-4.1c0-3.2,3-5.2,6.6-5.2C445,23.3,447.9,25.2,447.9,28.5z M438.1,36.4
		c0,1.6,1.5,2.4,3.3,2.4c1.8,0,3.3-0.8,3.3-2.4c0-1.6-1.5-2.5-3.3-2.5C439.5,33.9,438.1,34.8,438.1,36.4z M438.4,28.7
		c0,1.5,1.3,2.4,2.9,2.4s2.9-0.8,2.9-2.4c0-1.5-1.3-2.3-2.9-2.3S438.4,27.2,438.4,28.7z"/>
	<path class="st9" d="M460.5,28.2c0,2.8-2.1,4.9-5,4.9c-2.9,0-5-2.1-5-4.9c0-2.8,2.1-4.9,5-4.9C458.4,23.3,460.5,25.4,460.5,28.2z
		 M453.3,28.2c0,1.3,0.9,2.2,2.2,2.2c1.3,0,2.2-0.9,2.2-2.2c0-1.3-0.9-2.2-2.2-2.2C454.2,26,453.3,26.9,453.3,28.2z M457.9,41.6
		h-3.4l12.1-18h3.4L457.9,41.6z M474,37c0,2.8-2.1,4.9-5,4.9c-2.9,0-5-2.1-5-4.9c0-2.8,2.1-4.9,5-4.9C471.9,32.1,474,34.2,474,37z
		 M466.8,37c0,1.3,0.9,2.2,2.2,2.2c1.3,0,2.2-0.9,2.2-2.2c0-1.3-0.9-2.2-2.2-2.2C467.7,34.8,466.8,35.7,466.8,37z"/>
</g>
<g>
	<rect x="411.2" y="47.9" class="st11" width="153.2" height="21.4"/>
</g>
<g class="st12">
	<path class="st9" d="M419.6,58h-7.3v-9.8h7.3V50h-5.3v2.2h5.1v1.8h-5.1v2.3h5.4V58z"/>
	<path class="st9" d="M427.9,53.6V58h-1.8v-3.7c0-1-0.5-1.5-1.3-1.5c-0.8,0-1.4,0.5-1.4,1.5V58h-1.8v-6.8h1.8V52c0.5-0.7,1.2-1,2-1
		C426.8,51,427.9,52.1,427.9,53.6z"/>
	<path class="st9" d="M436,54.6c0,0.2,0,0.5,0,0.6h-4.8c0.2,1,0.9,1.4,1.7,1.4c0.6,0,1.2-0.2,1.7-0.7l1.1,1.2c-0.8,0.7-1.8,1-2.9,1
		c-2.1,0-3.5-1.4-3.5-3.6s1.4-3.6,3.4-3.6C434.7,51,436,52.4,436,54.6z M431.2,53.9h3c-0.2-0.9-0.7-1.4-1.5-1.4
		C431.9,52.6,431.4,53.1,431.2,53.9z"/>
	<path class="st9" d="M442.2,51.1l-0.3,1.8c-0.3-0.1-0.7-0.2-1.1-0.2c-0.8,0-1.4,0.5-1.4,1.5V58h-1.8v-6.8h1.8v0.7
		c0.4-0.6,1.1-0.9,1.9-0.9C441.6,51,441.9,51.1,442.2,51.1z"/>
	<path class="st9" d="M448,51.9v-0.8h1.8v6.2c0,2.2-1.4,3.5-3.7,3.5c-1.1,0-2.2-0.3-3-0.8l0.7-1.5c0.7,0.4,1.4,0.7,2.2,0.7
		c1.1,0,1.9-0.6,1.9-1.8V57c-0.5,0.6-1.1,0.9-2.1,0.9c-1.7,0-3.1-1.4-3.1-3.5c0-2.1,1.5-3.5,3.1-3.5C446.8,51,447.5,51.4,448,51.9z
		 M444.6,54.5c0,1,0.7,1.8,1.7,1.8c1,0,1.7-0.8,1.7-1.8c0-1-0.7-1.8-1.7-1.8C445.3,52.7,444.6,53.5,444.6,54.5z"/>
	<path class="st9" d="M453.4,60.8h-2l2.4-4.3l-2.9-5.3h2.1l1.9,3.5l1.8-3.5h2L453.4,60.8z"/>
</g>
<g>
	<rect x="520.7" y="154.5" class="st11" width="216.4" height="43.9"/>
</g>
<g class="st12">
	<path class="st13" d="M496.6,151.5c2.4-3.2,7-7.8,15.4-7.8c9.4,0,15.3,5.9,15.3,14.5c0,5.5-2.8,9.3-6.5,13.2l-9.6,10h17.2v8.1
		h-29.8v-6.8l15.9-16.3c2.4-2.4,3.7-4.9,3.7-7.7c0-3.9-2.7-6.7-6.9-6.7c-4.3,0-6.8,2.3-9.1,5L496.6,151.5z"/>
	<path class="st13" d="M551.8,189.6h-8.7v-33.5l-10.8,4.4v-8.7l19.5-7.8V189.6z"/>
	<path class="st13" d="M572.3,184.1c0,3.4-2.9,6.3-6.2,6.3c-3.3,0-6.3-2.9-6.3-6.3c0-3.3,2.9-6.2,6.3-6.2
		C569.4,177.9,572.3,180.8,572.3,184.1z"/>
	<path class="st13" d="M605.6,173.3h6.3v8.1h-6.3v8.2h-8.7v-8.2h-20v-6.3l15.8-30.5h9.6l-15.1,28.7h9.6v-12h8.7V173.3z"/>
	<path class="st13" d="M640.7,156c0,7.1-5.4,12.3-12.6,12.3c-7.2,0-12.5-5.2-12.5-12.3c0-7,5.4-12.3,12.5-12.3
		C635.3,143.8,640.7,149,640.7,156z M622.7,156c0,3.3,2.3,5.6,5.4,5.6c3.2,0,5.4-2.3,5.4-5.6c0-3.2-2.3-5.5-5.4-5.5
		C625,150.5,622.7,152.8,622.7,156z M634.1,189.6h-8.4l30.2-45h8.4L634.1,189.6z M674.5,178.1c0,7-5.4,12.3-12.6,12.3
		c-7.2,0-12.5-5.2-12.5-12.3c0-6.9,5.4-12.3,12.5-12.3C669.1,165.8,674.5,171.1,674.5,178.1z M656.5,178.1c0,3.2,2.3,5.6,5.4,5.6
		c3.2,0,5.4-2.3,5.4-5.6c0-3.2-2.3-5.6-5.4-5.6C658.8,172.6,656.5,174.9,656.5,178.1z"/>
</g>
<g>
	<rect x="519.1" y="190.1" class="st11" width="126.4" height="41.5"/>
</g>
<g class="st12">
	<path class="st13" d="M501.7,217.5h-3.1v-15.8h3.1V217.5z"/>
	<path class="st13" d="M515.4,210.6v6.9h-2.9v-6c0-1.6-0.8-2.4-2.1-2.4c-1.3,0-2.3,0.8-2.3,2.5v6H505v-10.9h2.9v1.3
		c0.8-1.2,2-1.6,3.2-1.6C513.6,206.3,515.4,208,515.4,210.6z"/>
	<path class="st13" d="M525.4,209.2H522v8.3h-2.9v-8.3h-2v-2.6h2v-1.4c0-2.6,1.4-4.2,3.9-4.2c1.5,0,2.5,0.4,3.4,1l-1.2,2.3
		c-0.5-0.3-1.2-0.5-1.9-0.5c-0.8,0-1.3,0.5-1.3,1.5v1.3h3.4V209.2z"/>
	<path class="st13" d="M538.4,212.1c0,3.3-2.5,5.7-5.9,5.7c-3.4,0-5.9-2.5-5.9-5.7c0-3.3,2.5-5.7,5.9-5.7
		C535.9,206.3,538.4,208.8,538.4,212.1z M529.6,212.1c0,1.8,1.2,3,2.9,3s2.9-1.2,2.9-3s-1.3-3-2.9-3S529.6,210.3,529.6,212.1z"/>
	<path class="st13" d="M548.2,206.6l-0.4,2.9c-0.5-0.2-1.2-0.3-1.8-0.3c-1.4,0-2.3,0.8-2.3,2.5v5.9h-2.9v-10.9h2.8v1.2
		c0.7-1,1.7-1.5,3.1-1.5C547.3,206.3,547.8,206.4,548.2,206.6z"/>
	<path class="st13" d="M567.9,210.6v6.9H565v-6c0-1.6-0.8-2.4-2.1-2.4c-1.3,0-2.3,0.8-2.3,2.5v6h-2.9v-6c0-1.6-0.8-2.4-2.1-2.4
		c-1.3,0-2.3,0.8-2.3,2.5v6h-2.9v-10.9h2.9v1.3c0.8-1.2,2-1.6,3.2-1.6c1.6,0,2.9,0.7,3.6,1.9c0.8-1.4,2.3-1.9,3.7-1.9
		C566.2,206.3,567.9,208,567.9,210.6z"/>
	<path class="st13" d="M581.7,217.5h-2.9v-1.2c-0.7,0.9-1.8,1.5-3.3,1.5c-3,0-5.3-2.5-5.3-5.7s2.3-5.7,5.3-5.7
		c1.5,0,2.5,0.6,3.3,1.5v-1.2h2.9V217.5z M573.2,212.1c0,1.7,1.1,3,2.8,3c1.7,0,2.8-1.3,2.8-3c0-1.7-1.1-3-2.8-3
		C574.3,209.1,573.2,210.4,573.2,212.1z"/>
	<path class="st13" d="M592.7,209.2h-4v4c0,1.4,0.7,1.9,1.6,1.9c0.7,0,1.5-0.3,2-0.7l1.1,2.3c-1,0.7-2.1,1.1-3.6,1.1
		c-2.7,0-4.1-1.5-4.1-4.4v-4.2h-2.1v-2.6h2.1v-3.2h2.9v3.2h4V209.2z"/>
	<path class="st13" d="M598.6,203c0,1.1-0.8,1.9-1.9,1.9s-1.9-0.8-1.9-1.9s0.8-1.9,1.9-1.9S598.6,202,598.6,203z M598.2,217.5h-2.9
		v-10.9h2.9V217.5z"/>
	<path class="st13" d="M612.4,212.1c0,3.3-2.5,5.7-5.9,5.7c-3.4,0-5.9-2.5-5.9-5.7c0-3.3,2.5-5.7,5.9-5.7
		C609.9,206.3,612.4,208.8,612.4,212.1z M603.6,212.1c0,1.8,1.2,3,2.9,3s2.9-1.2,2.9-3s-1.3-3-2.9-3S603.6,210.3,603.6,212.1z"/>
	<path class="st13" d="M625.1,210.6v6.9h-2.9v-6c0-1.6-0.8-2.4-2.1-2.4c-1.3,0-2.3,0.8-2.3,2.5v6h-2.9v-10.9h2.9v1.3
		c0.8-1.2,2-1.6,3.2-1.6C623.3,206.3,625.1,208,625.1,210.6z"/>
	<path class="st13" d="M510.1,231.7h-4.9v12.8H502v-12.8h-4.9v-2.9h12.9V231.7z"/>
	<path class="st13" d="M520.2,239.1c0,0.3,0,0.7-0.1,1h-7.7c0.3,1.6,1.4,2.3,2.8,2.3c0.9,0,2-0.4,2.8-1l1.7,1.9
		c-1.2,1.1-2.8,1.7-4.7,1.7c-3.3,0-5.7-2.3-5.7-5.7s2.3-5.8,5.5-5.8C518.1,233.3,520.2,235.7,520.2,239.1z M512.5,238.1h4.8
		c-0.3-1.4-1.1-2.2-2.4-2.2C513.5,235.9,512.7,236.7,512.5,238.1z"/>
	<path class="st13" d="M532.1,235.4l-2.1,1.8c-0.7-0.7-1.4-1.1-2.3-1.1c-1.5,0-2.7,1.2-2.7,3c0,1.8,1.2,3,2.7,3
		c0.9,0,1.8-0.4,2.4-1.1l2.1,1.8c-1,1.3-2.6,2-4.4,2c-3.5,0-5.8-2.4-5.8-5.7c0-3.3,2.3-5.7,5.8-5.7
		C529.6,233.3,531.1,234.1,532.1,235.4z"/>
	<path class="st13" d="M537.2,234.8c0.8-1.1,1.9-1.5,3.1-1.5c2.5,0,4.2,1.7,4.2,4.3v6.9h-2.9v-6c0-1.6-0.8-2.4-2.1-2.4
		c-1.3,0-2.3,0.8-2.3,2.5v6h-2.9v-16.2h2.9V234.8z"/>
	<path class="st13" d="M557.9,237.6v6.9H555v-6c0-1.6-0.8-2.4-2.1-2.4c-1.3,0-2.3,0.8-2.3,2.5v6h-2.9v-10.9h2.9v1.3
		c0.8-1.2,2-1.6,3.2-1.6C556.1,233.3,557.9,235.1,557.9,237.6z"/>
	<path class="st13" d="M572,239.1c0,3.3-2.5,5.7-5.9,5.7c-3.4,0-5.9-2.5-5.9-5.7c0-3.3,2.5-5.7,5.9-5.7
		C569.5,233.3,572,235.8,572,239.1z M563.2,239.1c0,1.8,1.2,3,2.9,3s2.9-1.2,2.9-3s-1.3-3-2.9-3S563.2,237.3,563.2,239.1z"/>
	<path class="st13" d="M577.3,244.5h-2.9v-16.2h2.9V244.5z"/>
	<path class="st13" d="M591.6,239.1c0,3.3-2.5,5.7-5.9,5.7c-3.4,0-5.9-2.5-5.9-5.7c0-3.3,2.5-5.7,5.9-5.7
		C589,233.3,591.6,235.8,591.6,239.1z M582.8,239.1c0,1.8,1.2,3,2.9,3s2.9-1.2,2.9-3s-1.3-3-2.9-3S582.8,237.3,582.8,239.1z"/>
	<path class="st13" d="M601.7,234.9v-1.2h2.9v10c0,3.5-2.3,5.6-5.9,5.6c-1.7,0-3.5-0.5-4.8-1.3l1-2.4c1.1,0.7,2.3,1.1,3.6,1.1
		c1.8,0,3.1-1,3.1-2.9V243c-0.7,0.9-1.8,1.5-3.4,1.5c-2.7,0-5-2.2-5-5.6c0-3.4,2.4-5.6,5-5.6C599.8,233.3,600.9,233.9,601.7,234.9z
		 M596.3,238.9c0,1.6,1.1,2.9,2.7,2.9c1.6,0,2.7-1.2,2.7-2.9c0-1.6-1.1-2.9-2.7-2.9C597.4,236,596.3,237.3,596.3,238.9z"/>
	<path class="st13" d="M610.4,249.1h-3.2l3.8-6.9l-4.7-8.6h3.3l3,5.6l2.9-5.6h3.2L610.4,249.1z"/>
</g>
<g class="st12">
</g>
<g>
	<rect x="572.5" y="309.3" class="st11" width="216.4" height="43.9"/>
</g>
<g class="st12">
	<path class="st13" d="M588.8,337.8h-5.6V316l-7,2.8v-5.7l12.6-5.1V337.8z"/>
	<path class="st13" d="M613.7,316.4c0,3.1-1.7,5.4-4.4,6.6c3.1,1.2,5,3.6,5,6.7c0,5.8-5.2,8.5-10.8,8.5c-4.4,0-8-1.6-10.2-4.2
		l3.4-3.7c1.7,1.8,4.1,2.8,6.6,2.8c2.8,0,5.1-1.2,5.1-3.8c0-2.5-2.6-3.8-5.7-3.8h-3.4v-5h3.4c2.8,0,5.1-1.3,5.1-3.7
		c0-2.4-2.1-3.7-4.8-3.7c-2.7,0-4.7,1.4-5.9,3l-3.6-3.6c1.9-2.6,5.1-4.5,9.8-4.5C609.5,308,613.7,311.4,613.7,316.4z"/>
	<path class="st13" d="M626,334.2c0,2.2-1.9,4.1-4,4.1c-2.2,0-4.1-1.9-4.1-4.1c0-2.2,1.9-4,4.1-4C624.1,330.2,626,332.1,626,334.2z"
		/>
	<path class="st13" d="M649.2,316.4c0,3.1-1.7,5.4-4.4,6.6c3.1,1.2,5,3.6,5,6.7c0,5.8-5.2,8.5-10.8,8.5c-4.4,0-8-1.6-10.2-4.2
		l3.4-3.7c1.7,1.8,4.1,2.8,6.6,2.8c2.8,0,5.1-1.2,5.1-3.8c0-2.5-2.6-3.8-5.7-3.8h-3.4v-5h3.4c2.8,0,5.1-1.3,5.1-3.7
		c0-2.4-2.1-3.7-4.8-3.7c-2.7,0-4.7,1.4-5.9,3l-3.6-3.6c1.9-2.6,5.1-4.5,9.8-4.5C645,308,649.2,311.4,649.2,316.4z"/>
	<path class="st13" d="M669.5,316c0,4.6-3.5,8-8.2,8c-4.7,0-8.2-3.4-8.2-8c0-4.6,3.5-8,8.2-8C666,308,669.5,311.4,669.5,316z
		 M657.8,316c0,2.1,1.5,3.6,3.5,3.6c2,0,3.5-1.5,3.5-3.6c0-2.1-1.5-3.6-3.5-3.6C659.3,312.4,657.8,313.9,657.8,316z M665.2,337.8
		h-5.5l19.6-29.3h5.5L665.2,337.8z M691.5,330.3c0,4.6-3.5,8-8.2,8c-4.7,0-8.2-3.4-8.2-8c0-4.5,3.5-8,8.2-8
		C688,322.4,691.5,325.8,691.5,330.3z M679.8,330.3c0,2.1,1.5,3.6,3.5,3.6c2,0,3.5-1.5,3.5-3.6s-1.5-3.6-3.5-3.6
		C681.3,326.7,679.8,328.2,679.8,330.3z"/>
</g>
<g>
	<rect x="562.6" y="341.7" class="st11" width="252.9" height="26.9"/>
</g>
<g class="st12">
	<path class="st13" d="M583.3,353.6h6.5v-5.4h2.7v13.5h-2.7v-5.6h-6.5v5.6h-2.7v-13.5h2.7V353.6z"/>
	<path class="st13" d="M604,357c0,0.3,0,0.6,0,0.8h-6.6c0.3,1.3,1.2,1.9,2.4,1.9c0.8,0,1.7-0.3,2.4-0.9l1.5,1.6
		c-1.1,1-2.4,1.4-4,1.4c-2.9,0-4.9-1.9-4.9-4.9s1.9-4.9,4.7-4.9C602.2,352.1,604,354.1,604,357z M597.4,356.1h4.1
		c-0.2-1.2-1-1.9-2-1.9C598.3,354.2,597.6,355,597.4,356.1z"/>
	<path class="st13" d="M615.3,361.7h-2.5v-1c-0.6,0.8-1.5,1.3-2.8,1.3c-2.6,0-4.5-2.1-4.5-4.9c0-2.8,1.9-4.9,4.5-4.9
		c1.3,0,2.2,0.5,2.8,1.3v-1h2.5V361.7z M608.1,357c0,1.4,0.9,2.6,2.4,2.6c1.4,0,2.4-1.1,2.4-2.6s-1-2.6-2.4-2.6
		C609,354.4,608.1,355.6,608.1,357z"/>
	<path class="st13" d="M620.5,361.7h-2.5v-13.9h2.5V361.7z"/>
	<path class="st13" d="M629.9,354.6h-3.4v3.4c0,1.2,0.6,1.6,1.4,1.6c0.6,0,1.2-0.3,1.8-0.6l0.9,2c-0.8,0.6-1.8,1-3.1,1
		c-2.3,0-3.5-1.3-3.5-3.7v-3.6h-1.8v-2.2h1.8v-2.8h2.5v2.8h3.4V354.6z"/>
	<path class="st13" d="M634.6,353.3c0.7-0.9,1.7-1.3,2.7-1.3c2.1,0,3.6,1.5,3.6,3.6v6h-2.5v-5.1c0-1.4-0.7-2.1-1.8-2.1
		c-1.1,0-2,0.7-2,2.1v5.1h-2.5v-13.9h2.5V353.3z"/>
	<path class="st13" d="M660.7,351l-2.3,1.4c-0.8-1.2-2-1.9-3.5-1.9c-2.4,0-4.3,1.8-4.3,4.4c0,2.7,1.9,4.4,4.3,4.4
		c1.5,0,2.7-0.7,3.5-1.9l2.2,1.6c-1.2,1.8-3.2,2.9-5.7,2.9c-4.2,0-7.1-2.9-7.1-7c0-4.1,2.9-7,7.1-7
		C657.4,347.9,659.6,349.1,660.7,351z"/>
	<path class="st13" d="M671.8,361.7h-2.5v-1c-0.6,0.8-1.5,1.3-2.8,1.3c-2.6,0-4.5-2.1-4.5-4.9c0-2.8,1.9-4.9,4.5-4.9
		c1.3,0,2.2,0.5,2.8,1.3v-1h2.5V361.7z M664.6,357c0,1.4,0.9,2.6,2.4,2.6c1.4,0,2.4-1.1,2.4-2.6s-1-2.6-2.4-2.6
		C665.5,354.4,664.6,355.6,664.6,357z"/>
	<path class="st13" d="M680.9,352.3l-0.4,2.5c-0.4-0.2-1-0.3-1.5-0.3c-1.2,0-2,0.7-2,2.1v5.1h-2.5v-9.3h2.4v1
		c0.6-0.9,1.5-1.3,2.6-1.3C680.1,352.1,680.5,352.2,680.9,352.3z"/>
	<path class="st13" d="M690.9,357c0,0.3,0,0.6,0,0.8h-6.6c0.3,1.3,1.2,1.9,2.4,1.9c0.8,0,1.7-0.3,2.4-0.9l1.5,1.6
		c-1.1,1-2.4,1.4-4,1.4c-2.9,0-4.9-1.9-4.9-4.9s1.9-4.9,4.7-4.9C689.1,352.1,690.9,354.1,690.9,357z M684.3,356.1h4.1
		c-0.2-1.2-1-1.9-2-1.9C685.2,354.2,684.5,355,684.3,356.1z"/>
</g>
<g>
	<rect x="522.3" y="408.1" class="st11" width="216.4" height="43.9"/>
</g>
<g class="st12">
	<path class="st13" d="M536.6,451.4h-5.2v-20.1l-6.5,2.6v-5.3l11.7-4.7V451.4z"/>
	<path class="st13" d="M541.1,428.5c1.5-1.9,4.2-4.7,9.2-4.7c5.7,0,9.2,3.6,9.2,8.7c0,3.3-1.7,5.6-3.9,7.9l-5.8,6h10.3v4.9h-17.9
		v-4.1l9.6-9.8c1.4-1.4,2.2-2.9,2.2-4.6c0-2.4-1.6-4-4.1-4c-2.6,0-4.1,1.4-5.5,3L541.1,428.5z"/>
	<path class="st13" d="M571.2,448.1c0,2-1.7,3.8-3.7,3.8c-2,0-3.8-1.7-3.8-3.8c0-2,1.8-3.7,3.8-3.7
		C569.4,444.4,571.2,446.1,571.2,448.1z"/>
	<path class="st13" d="M583.4,451.4h-5.2v-20.1l-6.5,2.6v-5.3l11.7-4.7V451.4z"/>
	<path class="st13" d="M603.1,431.2c0,4.2-3.2,7.4-7.5,7.4c-4.3,0-7.5-3.1-7.5-7.4c0-4.2,3.2-7.4,7.5-7.4
		C599.9,423.9,603.1,427,603.1,431.2z M592.3,431.2c0,2,1.4,3.4,3.2,3.4c1.9,0,3.3-1.4,3.3-3.4c0-1.9-1.4-3.3-3.3-3.3
		C593.7,427.9,592.3,429.3,592.3,431.2z M599.1,451.4h-5.1l18.1-27h5L599.1,451.4z M623.4,444.5c0,4.2-3.2,7.4-7.5,7.4
		c-4.3,0-7.5-3.1-7.5-7.4c0-4.2,3.2-7.4,7.5-7.4C620.1,437.1,623.4,440.3,623.4,444.5z M612.6,444.5c0,1.9,1.4,3.3,3.2,3.3
		c1.9,0,3.3-1.4,3.3-3.3c0-2-1.4-3.3-3.3-3.3C613.9,441.2,612.6,442.6,612.6,444.5z"/>
</g>
<g class="st12">
	<path class="st13" d="M535.5,469.1h-5.6v4.6h-2.2v-11.3h8.3v2.1h-6v2.6h5.6V469.1z"/>
	<path class="st13" d="M540.1,463.3c0,0.8-0.6,1.3-1.3,1.3s-1.3-0.6-1.3-1.3s0.6-1.4,1.3-1.4S540.1,462.6,540.1,463.3z M539.8,473.7
		h-2.1v-7.8h2.1V473.7z"/>
	<path class="st13" d="M549.3,468.7v5h-2.1v-4.3c0-1.1-0.6-1.7-1.5-1.7c-0.9,0-1.6,0.6-1.6,1.8v4.3H542v-7.8h2v0.9
		c0.6-0.8,1.4-1.1,2.3-1.1C548.1,465.7,549.3,466.9,549.3,468.7z"/>
	<path class="st13" d="M559.2,473.7h-2.1v-0.9c-0.5,0.6-1.3,1.1-2.3,1.1c-2.1,0-3.8-1.8-3.8-4.1c0-2.3,1.6-4.1,3.8-4.1
		c1.1,0,1.8,0.4,2.3,1.1v-0.9h2.1V473.7z M553.1,469.8c0,1.2,0.8,2.1,2,2.1c1.2,0,2-0.9,2-2.1s-0.8-2.1-2-2.1
		C553.9,467.6,553.1,468.6,553.1,469.8z"/>
	<path class="st13" d="M568.7,468.7v5h-2.1v-4.3c0-1.1-0.6-1.7-1.5-1.7c-0.9,0-1.6,0.6-1.6,1.8v4.3h-2.1v-7.8h2v0.9
		c0.6-0.8,1.4-1.1,2.3-1.1C567.5,465.7,568.7,466.9,568.7,468.7z"/>
	<path class="st13" d="M577.7,467.1l-1.5,1.3c-0.5-0.5-1-0.8-1.7-0.8c-1.1,0-2,0.9-2,2.1c0,1.3,0.9,2.1,1.9,2.1
		c0.7,0,1.3-0.3,1.7-0.8l1.5,1.3c-0.7,0.9-1.8,1.5-3.1,1.5c-2.5,0-4.1-1.7-4.1-4.1c0-2.4,1.7-4.1,4.1-4.1
		C575.8,465.7,576.9,466.2,577.7,467.1z"/>
	<path class="st13" d="M581.6,463.3c0,0.8-0.6,1.3-1.3,1.3s-1.3-0.6-1.3-1.3s0.6-1.4,1.3-1.4S581.6,462.6,581.6,463.3z M581.3,473.7
		h-2.1v-7.8h2.1V473.7z"/>
	<path class="st13" d="M591.1,473.7h-2.1v-0.9c-0.5,0.6-1.3,1.1-2.3,1.1c-2.1,0-3.8-1.8-3.8-4.1c0-2.3,1.6-4.1,3.8-4.1
		c1.1,0,1.8,0.4,2.3,1.1v-0.9h2.1V473.7z M585.1,469.8c0,1.2,0.8,2.1,2,2.1c1.2,0,2-0.9,2-2.1s-0.8-2.1-2-2.1
		C585.9,467.6,585.1,468.6,585.1,469.8z"/>
	<path class="st13" d="M595.4,473.7h-2.1v-11.6h2.1V473.7z"/>
	<path class="st13" d="M603.2,468.1c-0.6-0.3-1.6-0.6-2.5-0.6c-0.8,0-1.2,0.3-1.2,0.7c0,0.5,0.6,0.6,1.3,0.7l0.7,0.1
		c1.7,0.3,2.6,1,2.6,2.3c0,1.6-1.3,2.6-3.6,2.6c-1.1,0-2.5-0.2-3.5-0.9l0.8-1.6c0.7,0.4,1.5,0.8,2.7,0.8c1,0,1.4-0.3,1.4-0.7
		c0-0.4-0.4-0.6-1.3-0.7l-0.6-0.1c-1.8-0.2-2.7-1-2.7-2.4c0-1.6,1.2-2.5,3.3-2.5c1.2,0,2.2,0.2,3.3,0.7L603.2,468.1z"/>
</g>
<g>
	<rect x="404" y="441.4" class="st11" width="142.4" height="43.9"/>
</g>
<g class="st12">
	<path class="st13" d="M410.3,472.1h-4.6v-17.6l-5.7,2.3v-4.6l10.2-4.1V472.1z"/>
	<path class="st13" d="M414.2,452.1c1.3-1.7,3.7-4.1,8.1-4.1c4.9,0,8,3.1,8,7.6c0,2.9-1.5,4.9-3.4,6.9l-5.1,5.3h9v4.3h-15.6v-3.6
		l8.4-8.6c1.2-1.3,1.9-2.6,1.9-4.1c0-2.1-1.4-3.5-3.6-3.5c-2.2,0-3.6,1.2-4.8,2.6L414.2,452.1z"/>
	<path class="st13" d="M440.5,469.2c0,1.8-1.5,3.3-3.3,3.3c-1.8,0-3.3-1.5-3.3-3.3c0-1.8,1.5-3.3,3.3-3.3
		C439,466,440.5,467.5,440.5,469.2z"/>
	<path class="st13" d="M463.7,460.3c0,7.7-4.6,12.2-10.2,12.2c-5.7,0-10.2-4.6-10.2-12.2c0-7.7,4.5-12.2,10.2-12.2
		C459.1,448,463.7,452.6,463.7,460.3z M448,460.3c0,5.2,2.4,7.9,5.4,7.9c3,0,5.4-2.7,5.4-7.9s-2.4-7.9-5.4-7.9
		C450.5,452.4,448,455.1,448,460.3z"/>
	<path class="st13" d="M479.8,454.5c0,3.7-2.8,6.5-6.6,6.5c-3.8,0-6.6-2.8-6.6-6.5c0-3.7,2.8-6.4,6.6-6.4
		C477,448,479.8,450.8,479.8,454.5z M470.4,454.5c0,1.7,1.2,2.9,2.8,2.9c1.7,0,2.9-1.2,2.9-2.9c0-1.7-1.2-2.9-2.9-2.9
		C471.6,451.5,470.4,452.8,470.4,454.5z M476.4,472.1H472l15.9-23.6h4.4L476.4,472.1z M497.6,466.1c0,3.7-2.8,6.5-6.6,6.5
		c-3.8,0-6.6-2.8-6.6-6.5c0-3.6,2.8-6.5,6.6-6.5C494.8,459.6,497.6,462.4,497.6,466.1z M488.2,466.1c0,1.7,1.2,2.9,2.8,2.9
		c1.7,0,2.9-1.2,2.9-2.9s-1.2-2.9-2.9-2.9C489.4,463.1,488.2,464.4,488.2,466.1z"/>
</g>
<g>
	<rect x="402.1" y="474.5" class="st11" width="117" height="48.8"/>
</g>
<g class="st12">
	<path class="st13" d="M409.2,484.6l-1.7,1.1c-0.6-0.9-1.5-1.4-2.6-1.4c-1.8,0-3.2,1.3-3.2,3.3c0,2,1.4,3.3,3.2,3.3
		c1.1,0,2-0.5,2.6-1.4l1.6,1.2c-0.9,1.3-2.4,2.1-4.3,2.1c-3.1,0-5.3-2.2-5.3-5.3s2.2-5.3,5.3-5.3
		C406.7,482.4,408.4,483.2,409.2,484.6z"/>
	<path class="st13" d="M417.8,489.2c0,2.1-1.6,3.7-3.8,3.7c-2.2,0-3.8-1.6-3.8-3.7s1.6-3.7,3.8-3.7
		C416.1,485.5,417.8,487,417.8,489.2z M412.1,489.2c0,1.1,0.8,1.9,1.9,1.9c1.1,0,1.9-0.8,1.9-1.9s-0.8-1.9-1.9-1.9
		C412.9,487.2,412.1,488,412.1,489.2z"/>
	<path class="st13" d="M425.9,488.2v4.5H424v-3.9c0-1-0.5-1.6-1.4-1.6c-0.8,0-1.5,0.5-1.5,1.6v3.8h-1.9v-7h1.8v0.8
		c0.5-0.7,1.3-1,2.1-1C424.8,485.5,425.9,486.6,425.9,488.2z"/>
	<path class="st13" d="M432.9,487.6c-0.6-0.3-1.4-0.6-2.2-0.6c-0.7,0-1.1,0.3-1.1,0.6c0,0.4,0.5,0.5,1.1,0.6l0.6,0.1
		c1.5,0.2,2.4,0.9,2.4,2.1c0,1.4-1.2,2.4-3.2,2.4c-1,0-2.2-0.2-3.1-0.8l0.7-1.4c0.6,0.4,1.3,0.7,2.4,0.7c0.9,0,1.3-0.2,1.3-0.7
		c0-0.3-0.4-0.5-1.2-0.6l-0.6-0.1c-1.6-0.2-2.4-0.9-2.4-2.1c0-1.4,1.1-2.3,3-2.3c1.1,0,2,0.2,2.9,0.7L432.9,487.6z"/>
	<path class="st13" d="M441.7,489.7c0,2.2-1.6,3.2-3.3,3.2c-1.8,0-3.3-1-3.3-3.2v-4h1.9v3.9c0,1.1,0.6,1.6,1.4,1.6
		c0.8,0,1.4-0.5,1.4-1.6v-3.9h1.9V489.7z"/>
	<path class="st13" d="M455,488.2v4.5h-1.9v-3.9c0-1-0.5-1.6-1.4-1.6c-0.8,0-1.5,0.5-1.5,1.6v3.8h-1.9v-3.9c0-1-0.5-1.6-1.4-1.6
		c-0.8,0-1.5,0.5-1.5,1.6v3.8h-1.9v-7h1.8v0.8c0.5-0.7,1.3-1,2.1-1c1,0,1.8,0.5,2.3,1.2c0.5-0.9,1.5-1.2,2.4-1.2
		C453.9,485.5,455,486.6,455,488.2z"/>
	<path class="st13" d="M463.5,489.2c0,0.2,0,0.5,0,0.6h-5c0.2,1,0.9,1.5,1.8,1.5c0.6,0,1.3-0.2,1.8-0.7l1.1,1.2
		c-0.8,0.7-1.8,1.1-3,1.1c-2.1,0-3.6-1.5-3.6-3.7s1.4-3.7,3.5-3.7C462.1,485.5,463.5,487,463.5,489.2z M458.5,488.5h3.1
		c-0.2-0.9-0.7-1.4-1.5-1.4C459.2,487.1,458.6,487.6,458.5,488.5z"/>
	<path class="st13" d="M469.8,485.6l-0.3,1.9c-0.3-0.1-0.8-0.2-1.1-0.2c-0.9,0-1.5,0.5-1.5,1.6v3.8H465v-7h1.8v0.8
		c0.4-0.7,1.1-1,2-1C469.2,485.5,469.6,485.5,469.8,485.6z"/>
</g>
<g class="st12">
	<path class="st13" d="M404.2,502c3.2,0,5.3,2,5.3,5.1c0,3.1-2.1,5.1-5.3,5.1H400V502H404.2z M402,503.9v6.4h2.1
		c2.1,0,3.2-1.3,3.2-3.2c0-1.9-1-3.2-3.2-3.2H402z"/>
	<path class="st13" d="M413.3,502.8c0,0.7-0.5,1.2-1.2,1.2c-0.7,0-1.2-0.5-1.2-1.2c0-0.7,0.5-1.2,1.2-1.2
		C412.7,501.6,413.3,502.1,413.3,502.8z M413,512.1h-1.9v-7h1.9V512.1z"/>
	<path class="st13" d="M420,507.1c-0.6-0.3-1.4-0.6-2.2-0.6c-0.7,0-1.1,0.3-1.1,0.6c0,0.4,0.5,0.5,1.1,0.6l0.6,0.1
		c1.5,0.2,2.4,0.9,2.4,2.1c0,1.4-1.2,2.4-3.2,2.4c-1,0-2.2-0.2-3.1-0.8l0.7-1.4c0.6,0.4,1.3,0.7,2.4,0.7c0.9,0,1.3-0.2,1.3-0.7
		c0-0.3-0.4-0.5-1.2-0.6l-0.6-0.1c-1.6-0.2-2.4-0.9-2.4-2.1c0-1.4,1.1-2.3,3-2.3c1.1,0,2,0.2,2.9,0.7L420,507.1z"/>
	<path class="st13" d="M428.4,506.3l-1.4,1.1c-0.4-0.5-0.9-0.7-1.5-0.7c-1,0-1.8,0.8-1.8,1.9c0,1.2,0.8,1.9,1.8,1.9
		c0.6,0,1.1-0.3,1.5-0.7l1.3,1.1c-0.7,0.8-1.6,1.3-2.8,1.3c-2.2,0-3.7-1.6-3.7-3.7c0-2.1,1.5-3.7,3.7-3.7
		C426.8,504.9,427.8,505.4,428.4,506.3z"/>
	<path class="st13" d="M434.6,505.1l-0.3,1.9c-0.3-0.1-0.8-0.2-1.1-0.2c-0.9,0-1.5,0.5-1.5,1.6v3.8h-1.9v-7h1.8v0.8
		c0.4-0.7,1.1-1,2-1C434,504.9,434.3,505,434.6,505.1z"/>
	<path class="st13" d="M442.1,508.6c0,0.2,0,0.5,0,0.6h-5c0.2,1,0.9,1.5,1.8,1.5c0.6,0,1.3-0.2,1.8-0.7l1.1,1.2
		c-0.8,0.7-1.8,1.1-3,1.1c-2.1,0-3.6-1.5-3.6-3.7s1.4-3.7,3.5-3.7C440.7,504.9,442.1,506.4,442.1,508.6z M437.1,508h3.1
		c-0.2-0.9-0.7-1.4-1.5-1.4C437.8,506.6,437.3,507.1,437.1,508z"/>
	<path class="st13" d="M448.7,506.8h-2.5v2.6c0,0.9,0.5,1.2,1,1.2c0.4,0,0.9-0.2,1.3-0.5l0.7,1.5c-0.6,0.4-1.3,0.7-2.3,0.7
		c-1.7,0-2.6-1-2.6-2.8v-2.7h-1.4v-1.7h1.4V503h1.9v2.1h2.5V506.8z"/>
	<path class="st13" d="M452.5,502.8c0,0.7-0.5,1.2-1.2,1.2c-0.7,0-1.2-0.5-1.2-1.2c0-0.7,0.5-1.2,1.2-1.2
		C452,501.6,452.5,502.1,452.5,502.8z M452.2,512.1h-1.9v-7h1.9V512.1z"/>
	<path class="st13" d="M461.4,508.6c0,2.1-1.6,3.7-3.8,3.7c-2.2,0-3.8-1.6-3.8-3.7s1.6-3.7,3.8-3.7
		C459.8,504.9,461.4,506.5,461.4,508.6z M455.7,508.6c0,1.1,0.8,1.9,1.9,1.9c1.1,0,1.9-0.8,1.9-1.9s-0.8-1.9-1.9-1.9
		C456.5,506.7,455.7,507.5,455.7,508.6z"/>
	<path class="st13" d="M469.6,507.7v4.5h-1.9v-3.9c0-1-0.5-1.6-1.4-1.6c-0.8,0-1.5,0.5-1.5,1.6v3.8h-1.9v-7h1.8v0.8
		c0.5-0.7,1.3-1,2.1-1C468.4,504.9,469.6,506,469.6,507.7z"/>
	<path class="st13" d="M478.4,512.1h-1.8v-0.8c-0.5,0.6-1.1,1-2.1,1c-1.9,0-3.4-1.6-3.4-3.7s1.5-3.7,3.4-3.7c1,0,1.6,0.4,2.1,1v-0.8
		h1.8V512.1z M473,508.6c0,1.1,0.7,1.9,1.8,1.9c1.1,0,1.8-0.8,1.8-1.9s-0.7-1.9-1.8-1.9C473.7,506.7,473,507.5,473,508.6z"/>
	<path class="st13" d="M485.2,505.1l-0.3,1.9c-0.3-0.1-0.8-0.2-1.1-0.2c-0.9,0-1.5,0.5-1.5,1.6v3.8h-1.9v-7h1.8v0.8
		c0.4-0.7,1.1-1,2-1C484.6,504.9,484.9,505,485.2,505.1z"/>
	<path class="st13" d="M488.5,515h-2.1l2.5-4.4l-3-5.5h2.1l1.9,3.6l1.9-3.6h2.1L488.5,515z"/>
</g>
<g>
	<rect x="314.8" y="379.8" class="st11" width="216.4" height="43.9"/>
</g>
<g class="st12">
	<path class="st13" d="M320.6,405.9h-4.3v-16.8l-5.4,2.2v-4.4l9.7-3.9V405.9z"/>
	<path class="st13" d="M333.8,405.9h-4.3v-16.8l-5.4,2.2v-4.4l9.7-3.9V405.9z"/>
	<path class="st13" d="M344,403.1c0,1.7-1.4,3.1-3.1,3.1c-1.7,0-3.1-1.4-3.1-3.1c0-1.7,1.5-3.1,3.1-3.1
		C342.6,400,344,401.5,344,403.1z"/>
	<path class="st13" d="M366.1,394.6c0,7.3-4.3,11.7-9.7,11.7c-5.4,0-9.7-4.4-9.7-11.7s4.3-11.7,9.7-11.7
		C361.7,382.9,366.1,387.3,366.1,394.6z M351.2,394.6c0,4.9,2.3,7.5,5.2,7.5c2.9,0,5.2-2.6,5.2-7.5c0-4.9-2.3-7.5-5.2-7.5
		C353.5,387.1,351.2,389.7,351.2,394.6z"/>
	<path class="st13" d="M381.5,389.1c0,3.5-2.7,6.2-6.3,6.2c-3.6,0-6.3-2.6-6.3-6.2c0-3.5,2.7-6.1,6.3-6.1
		C378.8,382.9,381.5,385.6,381.5,389.1z M372.5,389.1c0,1.6,1.2,2.8,2.7,2.8c1.6,0,2.7-1.2,2.7-2.8c0-1.6-1.1-2.8-2.7-2.8
		C373.6,386.3,372.5,387.5,372.5,389.1z M378.2,405.9H374l15.1-22.5h4.2L378.2,405.9z M398.4,400.1c0,3.5-2.7,6.1-6.3,6.1
		c-3.6,0-6.3-2.6-6.3-6.1c0-3.5,2.7-6.1,6.3-6.1C395.7,394,398.4,396.6,398.4,400.1z M389.4,400.1c0,1.6,1.1,2.8,2.7,2.8
		c1.6,0,2.7-1.2,2.7-2.8c0-1.6-1.1-2.8-2.7-2.8C390.5,397.3,389.4,398.5,389.4,400.1z"/>
</g>
<g>
	<rect x="314.8" y="409.7" class="st11" width="94.1" height="28.5"/>
</g>
<g class="st12">
	<path class="st13" d="M314.8,423.3h-2v-10.1h2V423.3z"/>
	<path class="st13" d="M323.6,418.8v4.5h-1.9v-3.9c0-1-0.5-1.6-1.4-1.6c-0.8,0-1.5,0.5-1.5,1.6v3.8h-1.9v-7h1.8v0.8
		c0.5-0.7,1.3-1,2.1-1C322.4,416.1,323.6,417.2,323.6,418.8z"/>
	<path class="st13" d="M330.5,417v-4.1h1.9v10.4h-1.8v-0.8c-0.5,0.6-1.1,1-2.1,1c-1.9,0-3.4-1.6-3.4-3.7s1.5-3.7,3.4-3.7
		C329.4,416.1,330.1,416.5,330.5,417z M327,419.8c0,1.1,0.7,1.9,1.8,1.9c1.1,0,1.8-0.8,1.8-1.9s-0.7-1.9-1.8-1.9
		C327.7,417.9,327,418.7,327,419.8z"/>
	<path class="st13" d="M341,420.3c0,2.2-1.6,3.2-3.3,3.2c-1.8,0-3.3-1-3.3-3.2v-4h1.9v3.9c0,1.1,0.6,1.6,1.4,1.6
		c0.8,0,1.4-0.5,1.4-1.6v-3.9h1.9V420.3z"/>
	<path class="st13" d="M347.9,418.2c-0.6-0.3-1.4-0.6-2.2-0.6c-0.7,0-1.1,0.3-1.1,0.6c0,0.4,0.5,0.5,1.1,0.6l0.6,0.1
		c1.5,0.2,2.4,0.9,2.4,2.1c0,1.4-1.2,2.4-3.2,2.4c-1,0-2.2-0.2-3.1-0.8l0.7-1.4c0.6,0.4,1.3,0.7,2.4,0.7c0.9,0,1.3-0.2,1.3-0.7
		c0-0.3-0.4-0.5-1.2-0.6l-0.6-0.1c-1.6-0.2-2.4-0.9-2.4-2.1c0-1.4,1.1-2.3,3-2.3c1.1,0,2,0.2,2.9,0.7L347.9,418.2z"/>
	<path class="st13" d="M355.2,418h-2.5v2.6c0,0.9,0.5,1.2,1,1.2c0.4,0,0.9-0.2,1.3-0.5l0.7,1.5c-0.6,0.4-1.3,0.7-2.3,0.7
		c-1.7,0-2.6-1-2.6-2.8V418h-1.4v-1.7h1.4v-2.1h1.9v2.1h2.5V418z"/>
	<path class="st13" d="M361.7,416.2l-0.3,1.9c-0.3-0.1-0.8-0.2-1.1-0.2c-0.9,0-1.5,0.5-1.5,1.6v3.8h-1.9v-7h1.8v0.8
		c0.4-0.7,1.1-1,2-1C361.1,416.1,361.4,416.2,361.7,416.2z"/>
	<path class="st13" d="M365.1,414c0,0.7-0.5,1.2-1.2,1.2s-1.2-0.5-1.2-1.2c0-0.7,0.5-1.2,1.2-1.2S365.1,413.3,365.1,414z
		 M364.9,423.3H363v-7h1.9V423.3z"/>
	<path class="st13" d="M373.8,423.3h-1.8v-0.8c-0.5,0.6-1.1,1-2.1,1c-1.9,0-3.4-1.6-3.4-3.7s1.5-3.7,3.4-3.7c1,0,1.6,0.4,2.1,1v-0.8
		h1.8V423.3z M368.4,419.8c0,1.1,0.7,1.9,1.8,1.9c1.1,0,1.8-0.8,1.8-1.9s-0.7-1.9-1.8-1.9C369.1,417.9,368.4,418.7,368.4,419.8z"/>
	<path class="st13" d="M377.6,423.3h-1.9v-10.4h1.9V423.3z"/>
	<path class="st13" d="M384.6,418.2c-0.6-0.3-1.4-0.6-2.2-0.6c-0.7,0-1.1,0.3-1.1,0.6c0,0.4,0.5,0.5,1.1,0.6l0.6,0.1
		c1.5,0.2,2.4,0.9,2.4,2.1c0,1.4-1.2,2.4-3.2,2.4c-1,0-2.2-0.2-3.1-0.8l0.7-1.4c0.6,0.4,1.3,0.7,2.4,0.7c0.9,0,1.3-0.2,1.3-0.7
		c0-0.3-0.4-0.5-1.2-0.6l-0.6-0.1c-1.6-0.2-2.4-0.9-2.4-2.1c0-1.4,1.1-2.3,3-2.3c1.1,0,2,0.2,2.9,0.7L384.6,418.2z"/>
</g>
<g>
	
		<rect x="451.5" y="70.7" transform="matrix(0.9802 -0.1981 0.1981 0.9802 -17.1154 92.1441)" class="st14" width="1" height="121.8"/>
</g>
<g>
	
		<rect x="254.6" y="272.3" transform="matrix(9.053871e-02 -0.9959 0.9959 9.053871e-02 -83.5073 542.1999)" class="st14" width="1" height="89.1"/>
</g>
<g>
	
		<rect x="242.2" y="152.7" transform="matrix(0.2303 -0.9731 0.9731 0.2303 -33.7691 410.7203)" class="st14" width="1" height="148"/>
</g>
<g>
	<rect x="286" y="80.8" transform="matrix(0.3493 -0.937 0.937 0.3493 34.9095 373.6642)" class="st14" width="1" height="161.7"/>
</g>
<g>
	
		<rect x="350.6" y="71.4" transform="matrix(0.5685 -0.8227 0.8227 0.5685 37.6298 348.5132)" class="st14" width="1" height="134.1"/>
</g>
<g>
	<rect x="400.8" y="63.2" transform="matrix(0.8022 -0.597 0.597 0.8022 2.6065 264.9983)" class="st14" width="1" height="130.7"/>
</g>
<g id="Layer_2_1_">
</g>
<g id="Layer_2_2_">
</g>
</svg>
