<?xml version="1.0" encoding="utf-8"?>
<!-- Generator: Adobe Illustrator 24.1.2, SVG Export Plug-In . SVG Version: 6.00 Build 0)  -->
<svg version="1.1" id="Layer_1" xmlns="http://www.w3.org/2000/svg" xmlns:xlink="http://www.w3.org/1999/xlink" x="0px" y="0px"
	 viewBox="0 0 1080 530" style="enable-background:new 0 0 1080 530;" xml:space="preserve">
<style type="text/css">
	.st0{fill:#D94E7A;}
	.st1{fill:#D2D6D6;}
	.st2{fill:#F17B5D;}
	.st3{fill:#A6ADAD;}
	.st4{fill:#FFB819;}
	.st5{fill:#798484;}
	.st6{fill:#F47C20;}
	.st7{fill:#4D5B5B;}
	.st8{fill:#D02259;}
	.st9{fill:#203232;}
	.st10{fill:#ED5A35;}
	.st11{fill:none;}
	.st12{enable-background:new    ;}
	.st13{fill:#FFFFFF;}
	.st14{fill:#B3B3B3;}
</style>
<g>
	<g>
		<g>
			<path class="st0" d="M515.2,301.9l-22.9-129.6c7.9-1.3,14.9-2,22.9-2V301.9z"/>
		</g>
	</g>
</g>
<g>
	<g>
		<g>
			<path class="st1" d="M516.1,299.9l-51.8-135.1c9.1-3.5,17.1-5.7,26.7-7.4L516.1,299.9z"/>
		</g>
	</g>
</g>
<g>
	<g>
		<g>
			<path class="st2" d="M515.2,297.5l-88.3-130.9c10.4-7,20-12,31.7-16.5L515.2,297.5z"/>
		</g>
	</g>
</g>
<g>
	<g>
		<g>
			<path class="st3" d="M515.2,296.9l-133-107.7c11-13.6,22.7-24.3,37.3-34.2L515.2,296.9z"/>
		</g>
	</g>
</g>
<g>
	<g>
		<g>
			<path class="st4" d="M515.4,296.6l-180.9-35.1c5.9-30.7,18-56.5,37.7-80.8L515.4,296.6z"/>
		</g>
	</g>
</g>
<g>
	<g>
		<g>
			<path class="st5" d="M514.9,296.4l-186.6,64.3c-11.9-34.5-14.1-66.1-7.1-102L514.9,296.4z"/>
		</g>
	</g>
</g>
<g>
	<g>
		<g>
			<path class="st6" d="M514.6,296.7L406.1,477.2c-43.8-26.4-74-63.6-90.7-111.9L514.6,296.7z"/>
		</g>
	</g>
</g>
<g>
	<g>
		<g>
			<path class="st7" d="M514.4,297.1L561,515.9c-58,12.4-110.9,3.5-161.8-27.1L514.4,297.1z"/>
		</g>
	</g>
</g>
<g>
	<g>
		<g>
			<path class="st8" d="M514.6,297.6L711,430c-35.5,52.6-85.1,86.1-147.1,99.3L514.6,297.6z"/>
		</g>
	</g>
</g>
<g>
	<g>
		<g>
			<path class="st9" d="M514.5,297.2l242.5-60.4c17.8,71.3,5.7,139.4-35.3,200.3L514.5,297.2z"/>
		</g>
	</g>
</g>
<g>
	<g>
		<g>
			<path class="st10" d="M515.3,297.3V34.1c124.3,0,225.3,78.9,255.4,199.5L515.3,297.3z"/>
		</g>
	</g>
</g>
<g>
	<rect x="139.9" y="253.8" class="st11" width="216.4" height="43.9"/>
</g>
<g class="st12">
	<path class="st9" d="M153.6,264.6c0,2.1-1.2,3.4-2.8,4.1c1.8,0.7,3.2,2,3.2,4.2c0,3.3-3.2,5.2-7,5.2c-3.9,0-7-1.9-7-5.2
		c0-2.2,1.4-3.5,3.2-4.2c-1.6-0.7-2.7-2-2.7-4.1c0-3.2,3-5.2,6.6-5.2C150.6,259.4,153.6,261.4,153.6,264.6z M143.7,272.6
		c0,1.6,1.5,2.4,3.3,2.4c1.8,0,3.3-0.8,3.3-2.4c0-1.6-1.5-2.5-3.3-2.5C145.2,270.1,143.7,271,143.7,272.6z M144.1,264.9
		c0,1.5,1.3,2.4,2.9,2.4s2.9-0.8,2.9-2.4c0-1.5-1.3-2.3-2.9-2.3S144.1,263.4,144.1,264.9z"/>
	<path class="st9" d="M160.9,273.7l-1.8,7.7h-2.8l0.9-7.7H160.9z"/>
	<path class="st9" d="M174.3,271.2h2.5v3.2h-2.5v3.3h-3.5v-3.3h-8V272l6.3-12.2h3.9l-6,11.5h3.8v-4.8h3.5V271.2z"/>
	<path class="st9" d="M194.7,264.3c0,2.8-2.1,4.9-5,4.9c-2.9,0-5-2.1-5-4.9c0-2.8,2.1-4.9,5-4.9
		C192.5,259.4,194.7,261.5,194.7,264.3z M187.5,264.3c0,1.3,0.9,2.2,2.2,2.2c1.3,0,2.2-0.9,2.2-2.2c0-1.3-0.9-2.2-2.2-2.2
		C188.4,262.1,187.5,263.1,187.5,264.3z M192,277.8h-3.4l12.1-18h3.4L192,277.8z M208.2,273.2c0,2.8-2.1,4.9-5,4.9
		c-2.9,0-5-2.1-5-4.9c0-2.8,2.1-4.9,5-4.9C206,268.3,208.2,270.4,208.2,273.2z M201,273.2c0,1.3,0.9,2.2,2.2,2.2
		c1.3,0,2.2-0.9,2.2-2.2c0-1.3-0.9-2.2-2.2-2.2C201.9,271,201,271.9,201,273.2z"/>
</g>
<g>
	<rect x="139.9" y="283.7" class="st11" width="128.9" height="42.3"/>
</g>
<g class="st12">
	<path class="st9" d="M147.6,290.9c-0.8-0.5-1.7-0.8-2.8-0.8c-1.1,0-1.9,0.4-1.9,1.2c0,0.7,0.8,0.9,2,1.1l0.6,0.1
		c1.8,0.3,3.1,1,3.1,2.7c0,2.2-1.9,3.2-4,3.2c-1.5,0-3.1-0.4-4.1-1.3l1-1.6c0.7,0.6,1.9,1.1,3.1,1.1c1.1,0,1.9-0.4,1.9-1.2
		c0-0.7-0.7-0.9-2.1-1.1l-0.6-0.1c-1.7-0.3-3-1-3-2.8c0-2,1.8-3.1,3.9-3.1c1.4,0,2.5,0.3,3.7,1L147.6,290.9z"/>
	<path class="st9" d="M156.6,294.8c0,0.2,0,0.5,0,0.6h-4.8c0.2,1,0.9,1.4,1.7,1.4c0.6,0,1.2-0.2,1.7-0.7l1.1,1.2
		c-0.8,0.7-1.8,1-2.9,1c-2.1,0-3.5-1.4-3.5-3.6s1.4-3.6,3.4-3.6C155.3,291.2,156.6,292.7,156.6,294.8z M151.8,294.2h3
		c-0.2-0.9-0.7-1.4-1.5-1.4C152.4,292.8,151.9,293.3,151.8,294.2z"/>
	<path class="st9" d="M162.7,291.4l-0.3,1.8c-0.3-0.1-0.7-0.2-1.1-0.2c-0.8,0-1.4,0.5-1.4,1.5v3.7h-1.8v-6.8h1.8v0.7
		c0.4-0.6,1.1-0.9,1.9-0.9C162.2,291.2,162.5,291.3,162.7,291.4z"/>
	<path class="st9" d="M168.2,298.2h-2.1l-2.7-6.8h2l1.8,4.9l1.8-4.9h1.9L168.2,298.2z"/>
	<path class="st9" d="M174,289.2c0,0.7-0.5,1.2-1.2,1.2c-0.7,0-1.2-0.5-1.2-1.2s0.5-1.2,1.2-1.2C173.5,288,174,288.5,174,289.2z
		 M173.7,298.2h-1.8v-6.8h1.8V298.2z"/>
	<path class="st9" d="M181.6,292.5l-1.3,1.1c-0.4-0.4-0.9-0.7-1.5-0.7c-0.9,0-1.7,0.7-1.7,1.9c0,1.1,0.7,1.9,1.7,1.9
		c0.6,0,1.1-0.3,1.5-0.7l1.3,1.1c-0.6,0.8-1.6,1.3-2.7,1.3c-2.2,0-3.6-1.5-3.6-3.6c0-2.1,1.5-3.6,3.6-3.6
		C180,291.2,180.9,291.7,181.6,292.5z"/>
	<path class="st9" d="M189.1,294.8c0,0.2,0,0.5,0,0.6h-4.8c0.2,1,0.9,1.4,1.7,1.4c0.6,0,1.2-0.2,1.7-0.7l1.1,1.2
		c-0.8,0.7-1.8,1-2.9,1c-2.1,0-3.5-1.4-3.5-3.6s1.4-3.6,3.4-3.6C187.7,291.2,189.1,292.7,189.1,294.8z M184.2,294.2h3
		c-0.2-0.9-0.7-1.4-1.5-1.4C184.9,292.8,184.4,293.3,184.2,294.2z"/>
	<path class="st9" d="M195.4,293.3c-0.5-0.3-1.4-0.5-2.2-0.6c-0.7,0-1,0.2-1,0.6c0,0.4,0.5,0.5,1.1,0.6l0.6,0.1
		c1.5,0.2,2.3,0.9,2.3,2c0,1.4-1.1,2.3-3.1,2.3c-0.9,0-2.1-0.2-3-0.8l0.7-1.4c0.6,0.4,1.3,0.7,2.3,0.7c0.8,0,1.3-0.2,1.3-0.6
		c0-0.3-0.3-0.5-1.1-0.6l-0.6-0.1c-1.6-0.2-2.3-0.9-2.3-2.1c0-1.4,1.1-2.2,2.9-2.2c1.1,0,1.9,0.2,2.8,0.6L195.4,293.3z"/>
	<path class="st9" d="M145.6,307.1v-4h1.8v10.1h-1.8v-0.7c-0.4,0.5-1.1,0.9-2,0.9c-1.9,0-3.3-1.5-3.3-3.6s1.4-3.6,3.3-3.6
		C144.5,306.2,145.2,306.6,145.6,307.1z M142.2,309.8c0,1,0.7,1.9,1.8,1.9c1,0,1.8-0.8,1.8-1.9c0-1.1-0.7-1.9-1.8-1.9
		C142.9,307.9,142.2,308.8,142.2,309.8z"/>
	<path class="st9" d="M155.7,309.8c0,0.2,0,0.5,0,0.6h-4.8c0.2,1,0.9,1.4,1.7,1.4c0.6,0,1.2-0.2,1.7-0.7l1.1,1.2
		c-0.8,0.7-1.8,1-2.9,1c-2.1,0-3.5-1.4-3.5-3.6c0-2.1,1.4-3.6,3.4-3.6C154.3,306.2,155.7,307.7,155.7,309.8z M150.8,309.2h3
		c-0.2-0.9-0.7-1.4-1.5-1.4C151.5,307.8,151,308.3,150.8,309.2z"/>
	<path class="st9" d="M166.5,307.5l-1.3,1.1c-0.4-0.4-0.9-0.7-1.5-0.7c-0.9,0-1.7,0.7-1.7,1.9c0,1.1,0.7,1.9,1.7,1.9
		c0.6,0,1.1-0.3,1.5-0.7l1.3,1.1c-0.6,0.8-1.6,1.3-2.7,1.3c-2.2,0-3.6-1.5-3.6-3.6c0-2.1,1.5-3.6,3.6-3.6
		C165,306.2,165.9,306.7,166.5,307.5z"/>
	<path class="st9" d="M174.6,309.8c0,2-1.6,3.6-3.7,3.6c-2.1,0-3.7-1.5-3.7-3.6c0-2,1.6-3.6,3.7-3.6
		C173.1,306.2,174.6,307.8,174.6,309.8z M169.2,309.8c0,1.1,0.8,1.9,1.8,1.9c1,0,1.8-0.8,1.8-1.9s-0.8-1.9-1.8-1.9
		C169.9,307.9,169.2,308.7,169.2,309.8z"/>
	<path class="st9" d="M187.1,308.9v4.3h-1.8v-3.7c0-1-0.5-1.5-1.3-1.5c-0.8,0-1.4,0.5-1.4,1.5v3.7h-1.8v-3.7c0-1-0.5-1.5-1.3-1.5
		c-0.8,0-1.4,0.5-1.4,1.5v3.7h-1.8v-6.8h1.8v0.8c0.5-0.7,1.2-1,2-1c1,0,1.8,0.4,2.2,1.2c0.5-0.9,1.4-1.2,2.3-1.2
		C186,306.2,187.1,307.3,187.1,308.9z"/>
	<path class="st9" d="M200,308.9v4.3h-1.8v-3.7c0-1-0.5-1.5-1.3-1.5c-0.8,0-1.4,0.5-1.4,1.5v3.7h-1.8v-3.7c0-1-0.5-1.5-1.3-1.5
		c-0.8,0-1.4,0.5-1.4,1.5v3.7H189v-6.8h1.8v0.8c0.5-0.7,1.2-1,2-1c1,0,1.8,0.4,2.2,1.2c0.5-0.9,1.4-1.2,2.3-1.2
		C198.9,306.2,200,307.3,200,308.9z"/>
	<path class="st9" d="M208.2,310.3c0,2.1-1.5,3.1-3.2,3.1c-1.7,0-3.2-0.9-3.2-3.1v-3.9h1.8v3.7c0,1.1,0.6,1.5,1.4,1.5
		c0.8,0,1.4-0.4,1.4-1.5v-3.7h1.8V310.3z"/>
	<path class="st9" d="M216.5,308.9v4.3h-1.8v-3.7c0-1-0.5-1.5-1.3-1.5c-0.8,0-1.4,0.5-1.4,1.5v3.7h-1.8v-6.8h1.8v0.8
		c0.5-0.7,1.2-1,2-1C215.4,306.2,216.5,307.3,216.5,308.9z"/>
	<path class="st9" d="M220.4,304.2c0,0.7-0.5,1.2-1.2,1.2c-0.7,0-1.2-0.5-1.2-1.2s0.5-1.2,1.2-1.2
		C219.9,303,220.4,303.5,220.4,304.2z M220.2,313.2h-1.8v-6.8h1.8V313.2z"/>
	<path class="st9" d="M228,307.5l-1.3,1.1c-0.4-0.4-0.9-0.7-1.5-0.7c-0.9,0-1.7,0.7-1.7,1.9c0,1.1,0.7,1.9,1.7,1.9
		c0.6,0,1.1-0.3,1.5-0.7l1.3,1.1c-0.6,0.8-1.6,1.3-2.7,1.3c-2.2,0-3.6-1.5-3.6-3.6c0-2.1,1.5-3.6,3.6-3.6
		C226.4,306.2,227.4,306.7,228,307.5z"/>
	<path class="st9" d="M235.8,313.2h-1.8v-0.7c-0.4,0.5-1.1,0.9-2,0.9c-1.9,0-3.3-1.5-3.3-3.6s1.4-3.6,3.3-3.6c0.9,0,1.6,0.4,2,0.9
		v-0.8h1.8V313.2z M230.6,309.8c0,1,0.7,1.9,1.8,1.9c1,0,1.8-0.8,1.8-1.9c0-1.1-0.7-1.9-1.8-1.9
		C231.3,307.9,230.6,308.8,230.6,309.8z"/>
	<path class="st9" d="M242.7,308h-2.5v2.5c0,0.8,0.4,1.2,1,1.2c0.4,0,0.9-0.2,1.3-0.4l0.7,1.4c-0.6,0.4-1.3,0.7-2.2,0.7
		c-1.7,0-2.5-1-2.5-2.7V308h-1.3v-1.6h1.3v-2h1.8v2h2.5V308z"/>
	<path class="st9" d="M246.4,304.2c0,0.7-0.5,1.2-1.2,1.2c-0.7,0-1.2-0.5-1.2-1.2s0.5-1.2,1.2-1.2
		C245.9,303,246.4,303.5,246.4,304.2z M246.1,313.2h-1.8v-6.8h1.8V313.2z"/>
	<path class="st9" d="M255,309.8c0,2-1.6,3.6-3.7,3.6c-2.1,0-3.7-1.5-3.7-3.6c0-2,1.6-3.6,3.7-3.6C253.4,306.2,255,307.8,255,309.8z
		 M249.5,309.8c0,1.1,0.8,1.9,1.8,1.9c1,0,1.8-0.8,1.8-1.9s-0.8-1.9-1.8-1.9C250.3,307.9,249.5,308.7,249.5,309.8z"/>
	<path class="st9" d="M262.9,308.9v4.3H261v-3.7c0-1-0.5-1.5-1.3-1.5c-0.8,0-1.4,0.5-1.4,1.5v3.7h-1.8v-6.8h1.8v0.8
		c0.5-0.7,1.2-1,2-1C261.8,306.2,262.9,307.3,262.9,308.9z"/>
</g>
<g>
	<rect x="140.7" y="139.3" class="st11" width="108.6" height="43.9"/>
</g>
<g class="st12">
	<path class="st9" d="M154.2,145l-7.5,15.3h-4.1l7.4-14.8h-8.6v-3.2h12.7V145z"/>
	<path class="st9" d="M158.5,156.2l-1.8,7.7h-2.8l0.9-7.7H158.5z"/>
	<path class="st9" d="M172.8,145l-7.5,15.3h-4.1l7.4-14.8h-8.6v-3.2h12.7V145z"/>
	<path class="st9" d="M190.9,146.9c0,2.8-2.1,4.9-5,4.9c-2.9,0-5-2.1-5-4.9c0-2.8,2.1-4.9,5-4.9C188.7,142,190.9,144.1,190.9,146.9z
		 M183.7,146.9c0,1.3,0.9,2.2,2.2,2.2c1.3,0,2.2-0.9,2.2-2.2c0-1.3-0.9-2.2-2.2-2.2C184.6,144.7,183.7,145.6,183.7,146.9z
		 M188.2,160.3h-3.4l12.1-18h3.4L188.2,160.3z M204.4,155.7c0,2.8-2.1,4.9-5,4.9c-2.9,0-5-2.1-5-4.9c0-2.8,2.1-4.9,5-4.9
		C202.2,150.8,204.4,152.9,204.4,155.7z M197.2,155.7c0,1.3,0.9,2.2,2.2,2.2c1.3,0,2.2-0.9,2.2-2.2c0-1.3-0.9-2.2-2.2-2.2
		C198.1,153.5,197.2,154.4,197.2,155.7z"/>
</g>
<g>
	<rect x="139.9" y="168.4" class="st11" width="93.3" height="42.3"/>
</g>
<g class="st12">
	<path class="st9" d="M149.9,169.9l-1.7,1c-0.6-0.8-1.4-1.4-2.5-1.4c-1.8,0-3.1,1.3-3.1,3.2c0,2,1.4,3.2,3.1,3.2
		c1.1,0,2-0.5,2.6-1.3l1.6,1.1c-0.9,1.3-2.3,2.1-4.1,2.1c-3,0-5.1-2.1-5.1-5.1c0-2.9,2.1-5.1,5.1-5.1
		C147.5,167.7,149.1,168.6,149.9,169.9z"/>
	<path class="st9" d="M158.1,174.3c0,2-1.6,3.6-3.7,3.6c-2.1,0-3.7-1.5-3.7-3.6c0-2,1.6-3.6,3.7-3.6
		C156.6,170.8,158.1,172.3,158.1,174.3z M152.7,174.3c0,1.1,0.8,1.9,1.8,1.9c1,0,1.8-0.8,1.8-1.9s-0.8-1.9-1.8-1.9
		C153.4,172.5,152.7,173.2,152.7,174.3z"/>
	<path class="st9" d="M166.1,173.4v4.3h-1.8V174c0-1-0.5-1.5-1.3-1.5c-0.8,0-1.4,0.5-1.4,1.5v3.7h-1.8v-6.8h1.8v0.8
		c0.5-0.7,1.2-1,2-1C165,170.8,166.1,171.8,166.1,173.4z"/>
	<path class="st9" d="M172.8,172.8c-0.5-0.3-1.4-0.5-2.2-0.6c-0.7,0-1,0.2-1,0.6c0,0.4,0.5,0.5,1.1,0.6l0.6,0.1
		c1.5,0.2,2.3,0.9,2.3,2c0,1.4-1.1,2.3-3.1,2.3c-0.9,0-2.1-0.2-3-0.8l0.7-1.4c0.6,0.4,1.3,0.7,2.3,0.7c0.8,0,1.3-0.2,1.3-0.6
		c0-0.3-0.3-0.5-1.1-0.6l-0.6-0.1c-1.6-0.2-2.3-0.9-2.3-2.1c0-1.4,1.1-2.2,2.9-2.2c1.1,0,1.9,0.2,2.8,0.6L172.8,172.8z"/>
	<path class="st9" d="M181.9,174.3c0,2-1.6,3.6-3.7,3.6c-2.1,0-3.7-1.5-3.7-3.6c0-2,1.6-3.6,3.7-3.6
		C180.3,170.8,181.9,172.3,181.9,174.3z M176.4,174.3c0,1.1,0.8,1.9,1.8,1.9c1,0,1.8-0.8,1.8-1.9s-0.8-1.9-1.8-1.9
		C177.2,172.5,176.4,173.2,176.4,174.3z"/>
	<path class="st9" d="M194.4,173.4v4.3h-1.8V174c0-1-0.5-1.5-1.3-1.5c-0.8,0-1.4,0.5-1.4,1.5v3.7H188V174c0-1-0.5-1.5-1.3-1.5
		c-0.8,0-1.4,0.5-1.4,1.5v3.7h-1.8v-6.8h1.8v0.8c0.5-0.7,1.2-1,2-1c1,0,1.8,0.4,2.2,1.2c0.5-0.9,1.4-1.2,2.3-1.2
		C193.3,170.8,194.4,171.8,194.4,173.4z"/>
	<path class="st9" d="M207.2,173.4v4.3h-1.8V174c0-1-0.5-1.5-1.3-1.5c-0.8,0-1.4,0.5-1.4,1.5v3.7h-1.8V174c0-1-0.5-1.5-1.3-1.5
		c-0.8,0-1.4,0.5-1.4,1.5v3.7h-1.8v-6.8h1.8v0.8c0.5-0.7,1.2-1,2-1c1,0,1.8,0.4,2.2,1.2c0.5-0.9,1.4-1.2,2.3-1.2
		C206.2,170.8,207.2,171.8,207.2,173.4z"/>
	<path class="st9" d="M215.8,177.7H214V177c-0.4,0.5-1.1,0.9-2,0.9c-1.9,0-3.3-1.5-3.3-3.6s1.4-3.6,3.3-3.6c0.9,0,1.6,0.4,2,0.9
		v-0.7h1.8V177.7z M210.5,174.3c0,1,0.7,1.9,1.8,1.9c1,0,1.8-0.8,1.8-1.9c0-1.1-0.7-1.9-1.8-1.9
		C211.2,172.5,210.5,173.3,210.5,174.3z"/>
	<path class="st9" d="M222.6,172.6h-2.5v2.5c0,0.8,0.4,1.2,1,1.2c0.4,0,0.9-0.2,1.3-0.4l0.7,1.4c-0.6,0.4-1.3,0.7-2.2,0.7
		c-1.7,0-2.5-1-2.5-2.7v-2.6H217v-1.6h1.3v-2h1.8v2h2.5V172.6z"/>
	<path class="st9" d="M226.3,168.7c0,0.7-0.5,1.2-1.2,1.2c-0.7,0-1.2-0.5-1.2-1.2s0.5-1.2,1.2-1.2
		C225.8,167.6,226.3,168.1,226.3,168.7z M226.1,177.7h-1.8v-6.8h1.8V177.7z"/>
	<path class="st9" d="M234.9,174.3c0,2-1.6,3.6-3.7,3.6c-2.1,0-3.7-1.5-3.7-3.6c0-2,1.6-3.6,3.7-3.6
		C233.3,170.8,234.9,172.3,234.9,174.3z M229.4,174.3c0,1.1,0.8,1.9,1.8,1.9c1,0,1.8-0.8,1.8-1.9s-0.8-1.9-1.8-1.9
		C230.2,172.5,229.4,173.2,229.4,174.3z"/>
	<path class="st9" d="M242.8,173.4v4.3H241V174c0-1-0.5-1.5-1.3-1.5c-0.8,0-1.4,0.5-1.4,1.5v3.7h-1.8v-6.8h1.8v0.8
		c0.5-0.7,1.2-1,2-1C241.7,170.8,242.8,171.8,242.8,173.4z"/>
	<path class="st9" d="M145.7,186.7v-4h1.8v10.1h-1.8V192c-0.4,0.5-1.1,0.9-2,0.9c-1.9,0-3.3-1.5-3.3-3.6s1.4-3.6,3.3-3.6
		C144.6,185.8,145.3,186.1,145.7,186.7z M142.3,189.3c0,1,0.7,1.9,1.8,1.9c1,0,1.8-0.8,1.8-1.9c0-1.1-0.7-1.9-1.8-1.9
		C143,187.5,142.3,188.3,142.3,189.3z"/>
	<path class="st9" d="M155.7,189.3c0,0.2,0,0.5,0,0.6h-4.8c0.2,1,0.9,1.4,1.7,1.4c0.6,0,1.2-0.2,1.7-0.7l1.1,1.2
		c-0.8,0.7-1.8,1-2.9,1c-2.1,0-3.5-1.4-3.5-3.6s1.4-3.6,3.4-3.6C154.4,185.8,155.7,187.2,155.7,189.3z M150.9,188.7h3
		c-0.2-0.9-0.7-1.4-1.5-1.4C151.6,187.3,151.1,187.9,150.9,188.7z"/>
	<path class="st9" d="M167.8,189.3c0,2-1.4,3.6-3.3,3.6c-0.9,0-1.6-0.4-2-0.9v0.7h-1.8v-10.1h1.8v4c0.4-0.5,1.1-0.9,2-0.9
		C166.4,185.8,167.8,187.3,167.8,189.3z M162.4,189.3c0,1.1,0.7,1.9,1.7,1.9c1.1,0,1.8-0.8,1.8-1.9s-0.7-1.9-1.8-1.9
		C163.1,187.5,162.4,188.3,162.4,189.3z"/>
	<path class="st9" d="M176,192.7h-1.8V192c-0.4,0.5-1.1,0.9-2,0.9c-1.9,0-3.3-1.5-3.3-3.6s1.4-3.6,3.3-3.6c0.9,0,1.6,0.4,2,0.9v-0.7
		h1.8V192.7z M170.7,189.3c0,1,0.7,1.9,1.8,1.9c1,0,1.8-0.8,1.8-1.9c0-1.1-0.7-1.9-1.8-1.9C171.4,187.5,170.7,188.3,170.7,189.3z"/>
	<path class="st9" d="M182.7,187.8c-0.5-0.3-1.4-0.5-2.2-0.6c-0.7,0-1,0.2-1,0.6c0,0.4,0.5,0.5,1.1,0.6l0.6,0.1
		c1.5,0.2,2.3,0.9,2.3,2c0,1.4-1.1,2.3-3.1,2.3c-0.9,0-2.1-0.2-3-0.8l0.7-1.4c0.6,0.4,1.3,0.7,2.3,0.7c0.8,0,1.3-0.2,1.3-0.6
		c0-0.3-0.3-0.5-1.1-0.6l-0.6-0.1c-1.6-0.2-2.3-0.9-2.3-2.1c0-1.4,1.1-2.2,2.9-2.2c1.1,0,1.9,0.2,2.8,0.6L182.7,187.8z"/>
	<path class="st9" d="M191.3,189.3c0,0.2,0,0.5,0,0.6h-4.8c0.2,1,0.9,1.4,1.7,1.4c0.6,0,1.2-0.2,1.7-0.7l1.1,1.2
		c-0.8,0.7-1.8,1-2.9,1c-2.1,0-3.5-1.4-3.5-3.6s1.4-3.6,3.4-3.6C189.9,185.8,191.3,187.2,191.3,189.3z M186.4,188.7h3
		c-0.2-0.9-0.7-1.4-1.5-1.4C187.1,187.3,186.6,187.9,186.4,188.7z"/>
</g>
<g>
	<rect x="196.5" y="64.9" class="st11" width="117" height="43.9"/>
</g>
<g class="st12">
	<path class="st9" d="M208.5,84.8h2.5V88h-2.5v3.3H205V88h-8v-2.5l6.3-12.2h3.9l-6,11.5h3.8V80h3.5V84.8z"/>
	<path class="st9" d="M217.6,87.3l-1.8,7.7H213l0.9-7.7H217.6z"/>
	<path class="st9" d="M232,76l-7.5,15.3h-4.1l7.4-14.8h-8.6v-3.2H232V76z"/>
	<path class="st9" d="M250,77.9c0,2.8-2.1,4.9-5,4.9c-2.9,0-5-2.1-5-4.9c0-2.8,2.1-4.9,5-4.9C247.9,73,250,75.1,250,77.9z
		 M242.8,77.9c0,1.3,0.9,2.2,2.2,2.2c1.3,0,2.2-0.9,2.2-2.2c0-1.3-0.9-2.2-2.2-2.2C243.8,75.7,242.8,76.6,242.8,77.9z M247.4,91.3
		H244l12.1-18h3.4L247.4,91.3z M263.5,86.7c0,2.8-2.1,4.9-5,4.9c-2.9,0-5-2.1-5-4.9c0-2.8,2.1-4.9,5-4.9
		C261.4,81.8,263.5,83.9,263.5,86.7z M256.4,86.7c0,1.3,0.9,2.2,2.2,2.2c1.3,0,2.2-0.9,2.2-2.2c0-1.3-0.9-2.2-2.2-2.2
		C257.3,84.5,256.4,85.4,256.4,86.7z"/>
</g>
<g>
	<rect x="195.2" y="98.2" class="st11" width="82.9" height="21.3"/>
</g>
<g class="st12">
	<path class="st9" d="M207.1,108.2h-2v-7.4l-2.4,6.5h-2.1l-2.4-6.4v7.3h-2v-9.8h2.9l2.5,6.6l2.5-6.6h2.9V108.2z"/>
	<path class="st9" d="M215.9,108.2h-1.8v-0.7c-0.4,0.5-1.1,0.9-2,0.9c-1.9,0-3.3-1.5-3.3-3.6s1.4-3.6,3.3-3.6c0.9,0,1.6,0.4,2,0.9
		v-0.7h1.8V108.2z M210.7,104.8c0,1,0.7,1.9,1.8,1.9c1,0,1.8-0.8,1.8-1.9c0-1.1-0.7-1.9-1.8-1.9C211.3,103,210.7,103.8,210.7,104.8z
		"/>
	<path class="st9" d="M222.7,103.1h-2.5v2.5c0,0.8,0.4,1.2,1,1.2c0.4,0,0.9-0.2,1.3-0.4l0.7,1.4c-0.6,0.4-1.3,0.7-2.2,0.7
		c-1.7,0-2.5-1-2.5-2.7v-2.6h-1.3v-1.6h1.3v-2h1.8v2h2.5V103.1z"/>
	<path class="st9" d="M230.6,104.8c0,0.2,0,0.5,0,0.6h-4.8c0.2,1,0.9,1.4,1.7,1.4c0.6,0,1.2-0.2,1.7-0.7l1.1,1.2
		c-0.8,0.7-1.8,1-2.9,1c-2.1,0-3.5-1.4-3.5-3.6s1.4-3.6,3.4-3.6C229.2,101.3,230.5,102.7,230.6,104.8z M225.7,104.2h3
		c-0.2-0.9-0.7-1.4-1.5-1.4C226.4,102.8,225.9,103.3,225.7,104.2z M226,100.5l1.4-2.2h2.2l-1.8,2.2H226z"/>
	<path class="st9" d="M236.7,101.4l-0.3,1.8c-0.3-0.1-0.7-0.2-1.1-0.2c-0.8,0-1.4,0.5-1.4,1.5v3.7H232v-6.8h1.8v0.7
		c0.4-0.6,1.1-0.9,1.9-0.9C236.1,101.3,236.4,101.3,236.7,101.4z"/>
	<path class="st9" d="M240,99.2c0,0.7-0.5,1.2-1.2,1.2c-0.7,0-1.2-0.5-1.2-1.2s0.5-1.2,1.2-1.2C239.5,98,240,98.6,240,99.2z
		 M239.7,108.2h-1.8v-6.8h1.8V108.2z"/>
	<path class="st9" d="M248,104.8c0,0.2,0,0.5,0,0.6h-4.8c0.2,1,0.9,1.4,1.7,1.4c0.6,0,1.2-0.2,1.7-0.7l1.1,1.2c-0.8,0.7-1.8,1-2.9,1
		c-2.1,0-3.5-1.4-3.5-3.6s1.4-3.6,3.4-3.6C246.6,101.3,248,102.7,248,104.8z M243.1,104.2h3c-0.2-0.9-0.7-1.4-1.5-1.4
		C243.8,102.8,243.3,103.3,243.1,104.2z"/>
	<path class="st9" d="M251.3,108.2h-1.8V98.1h1.8V108.2z"/>
	<path class="st9" d="M258.1,103.3c-0.5-0.3-1.4-0.5-2.2-0.6c-0.7,0-1,0.2-1,0.6c0,0.4,0.5,0.5,1.1,0.6l0.6,0.1
		c1.5,0.2,2.3,0.9,2.3,2c0,1.4-1.1,2.3-3.1,2.3c-0.9,0-2.1-0.2-3-0.8l0.7-1.4c0.6,0.4,1.3,0.7,2.3,0.7c0.8,0,1.3-0.2,1.3-0.6
		c0-0.3-0.3-0.5-1.1-0.6l-0.6-0.1c-1.6-0.2-2.3-0.9-2.3-2.1c0-1.4,1.1-2.2,2.9-2.2c1.1,0,1.9,0.2,2.8,0.6L258.1,103.3z"/>
</g>
<g>
	<rect x="259.5" y="32.3" class="st11" width="97.1" height="43.9"/>
</g>
<g class="st12">
	<path class="st9" d="M296.9,48c0,1.9-1,3.3-2.7,4.1c1.9,0.7,3.1,2.2,3.1,4.1c0,3.6-3.2,5.3-6.6,5.3c-2.7,0-4.9-1-6.3-2.6l2.1-2.3
		c1,1.1,2.5,1.7,4.1,1.7c1.7,0,3.2-0.8,3.2-2.3c0-1.5-1.6-2.4-3.5-2.4H288v-3.1h2.1c1.7,0,3.2-0.8,3.2-2.3c0-1.5-1.3-2.3-3-2.3
		c-1.7,0-2.9,0.9-3.6,1.8l-2.2-2.2c1.2-1.6,3.1-2.8,6-2.8C294.3,42.8,296.9,44.8,296.9,48z"/>
	<path class="st9" d="M304.1,57.1l-1.8,7.7h-2.8l0.9-7.7H304.1z"/>
	<path class="st9" d="M312.5,49.4c0.2,0,0.5-0.1,0.8-0.1c3.7,0,6.2,2.6,6.2,6c0,3.5-2.9,6.1-6.8,6.1c-3.8,0-6.8-2.6-6.8-6.1
		c0-1.6,0.6-3.1,1.7-4.8l5-7.5h4.2L312.5,49.4z M309.7,55.3c0,1.7,1.4,3,3.1,3c1.8,0,3.2-1.2,3.2-3c0-1.7-1.4-3-3.2-3
		C311,52.4,309.7,53.6,309.7,55.3z"/>
	<path class="st9" d="M337.8,47.7c0,2.8-2.1,4.9-5,4.9c-2.9,0-5-2.1-5-4.9c0-2.8,2.1-4.9,5-4.9C335.7,42.8,337.8,44.9,337.8,47.7z
		 M330.6,47.7c0,1.3,0.9,2.2,2.2,2.2c1.3,0,2.2-0.9,2.2-2.2c0-1.3-0.9-2.2-2.2-2.2C331.5,45.5,330.6,46.4,330.6,47.7z M335.2,61.1
		h-3.4l12.1-18h3.4L335.2,61.1z M351.3,56.5c0,2.8-2.1,4.9-5,4.9c-2.9,0-5-2.1-5-4.9c0-2.8,2.1-4.9,5-4.9
		C349.2,51.6,351.3,53.7,351.3,56.5z M344.1,56.5c0,1.3,0.9,2.2,2.2,2.2c1.3,0,2.2-0.9,2.2-2.2c0-1.3-0.9-2.2-2.2-2.2
		C345,54.3,344.1,55.2,344.1,56.5z"/>
</g>
<g>
	<rect x="259.8" y="62.3" class="st11" width="138.4" height="21.4"/>
</g>
<g class="st12">
	<path class="st9" d="M287.5,76.8h-2V67h2V76.8z"/>
	<path class="st9" d="M300.6,72.4v4.3h-1.8V73c0-1-0.5-1.5-1.3-1.5c-0.8,0-1.4,0.5-1.4,1.5v3.7h-1.8V73c0-1-0.5-1.5-1.3-1.5
		c-0.8,0-1.4,0.5-1.4,1.5v3.7h-1.8V70h1.8v0.8c0.5-0.7,1.2-1,2-1c1,0,1.8,0.4,2.2,1.2c0.5-0.9,1.4-1.2,2.3-1.2
		C299.5,69.8,300.6,70.9,300.6,72.4z"/>
	<path class="st9" d="M313.5,72.4v4.3h-1.8V73c0-1-0.5-1.5-1.3-1.5c-0.8,0-1.4,0.5-1.4,1.5v3.7H307V73c0-1-0.5-1.5-1.3-1.5
		c-0.8,0-1.4,0.5-1.4,1.5v3.7h-1.8V70h1.8v0.8c0.5-0.7,1.2-1,2-1c1,0,1.8,0.4,2.2,1.2c0.5-0.9,1.4-1.2,2.3-1.2
		C312.4,69.8,313.5,70.9,313.5,72.4z"/>
	<path class="st9" d="M322.2,73.4c0,2-1.6,3.6-3.7,3.6c-2.1,0-3.7-1.5-3.7-3.6c0-2,1.6-3.6,3.7-3.6
		C320.7,69.8,322.2,71.3,322.2,73.4z M316.8,73.4c0,1.1,0.8,1.9,1.8,1.9c1,0,1.8-0.8,1.8-1.9s-0.8-1.9-1.8-1.9
		C317.5,71.5,316.8,72.3,316.8,73.4z"/>
	<path class="st9" d="M330.8,73.4c0,2-1.4,3.6-3.3,3.6c-0.9,0-1.6-0.4-2-0.9v0.7h-1.8V66.7h1.8v4c0.4-0.5,1.1-0.9,2-0.9
		C329.4,69.8,330.8,71.3,330.8,73.4z M325.5,73.4c0,1.1,0.7,1.9,1.7,1.9c1.1,0,1.8-0.8,1.8-1.9s-0.7-1.9-1.8-1.9
		C326.2,71.5,325.5,72.3,325.5,73.4z"/>
	<path class="st9" d="M334.4,67.7c0,0.7-0.5,1.2-1.2,1.2c-0.7,0-1.2-0.5-1.2-1.2s0.5-1.2,1.2-1.2C333.9,66.6,334.4,67.1,334.4,67.7z
		 M334.1,76.8h-1.8V70h1.8V76.8z"/>
	<path class="st9" d="M337.9,76.8h-1.8V66.7h1.8V76.8z"/>
	<path class="st9" d="M341.9,67.7c0,0.7-0.5,1.2-1.2,1.2c-0.7,0-1.2-0.5-1.2-1.2s0.5-1.2,1.2-1.2C341.4,66.6,341.9,67.1,341.9,67.7z
		 M341.6,76.8h-1.8V70h1.8V76.8z"/>
	<path class="st9" d="M349.9,73.4c0,0.2,0,0.5,0,0.6H345c0.2,1,0.9,1.4,1.7,1.4c0.6,0,1.2-0.2,1.7-0.7l1.1,1.2c-0.8,0.7-1.8,1-2.9,1
		c-2.1,0-3.5-1.4-3.5-3.6s1.4-3.6,3.4-3.6C348.5,69.8,349.8,71.2,349.9,73.4z M345,72.7h3c-0.2-0.9-0.7-1.4-1.5-1.4
		C345.7,71.4,345.2,71.9,345,72.7z"/>
	<path class="st9" d="M356,69.9l-0.3,1.8c-0.3-0.1-0.7-0.2-1.1-0.2c-0.8,0-1.4,0.5-1.4,1.5v3.7h-1.8V70h1.8v0.7
		c0.4-0.6,1.1-0.9,1.9-0.9C355.4,69.8,355.7,69.8,356,69.9z"/>
</g>
<g>
	<rect x="340.8" y="0.5" class="st11" width="89.7" height="43.9"/>
</g>
<g class="st12">
	<path class="st9" d="M375.7,11c0,1.9-1,3.3-2.7,4.1c1.9,0.7,3.1,2.2,3.1,4.1c0,3.6-3.2,5.3-6.6,5.3c-2.7,0-4.9-1-6.3-2.6l2.1-2.3
		c1,1.1,2.5,1.7,4.1,1.7c1.7,0,3.2-0.8,3.2-2.3c0-1.5-1.6-2.4-3.5-2.4h-2.1v-3.1h2.1c1.7,0,3.2-0.8,3.2-2.3c0-1.5-1.3-2.3-3-2.3
		c-1.7,0-2.9,0.9-3.6,1.8l-2.2-2.2c1.2-1.6,3.1-2.8,6-2.8C373.1,5.9,375.7,7.9,375.7,11z"/>
	<path class="st9" d="M382.9,20.1l-1.8,7.7h-2.8l0.9-7.7H382.9z"/>
	<path class="st9" d="M391.1,24.2h-3.5V10.8l-4.3,1.7V9l7.8-3.1V24.2z"/>
	<path class="st9" d="M410.6,10.8c0,2.8-2.1,4.9-5,4.9c-2.9,0-5-2.1-5-4.9c0-2.8,2.1-4.9,5-4.9C408.5,5.9,410.6,8,410.6,10.8z
		 M403.4,10.8c0,1.3,0.9,2.2,2.2,2.2c1.3,0,2.2-0.9,2.2-2.2c0-1.3-0.9-2.2-2.2-2.2C404.4,8.6,403.4,9.5,403.4,10.8z M408,24.2h-3.4
		l12.1-18h3.4L408,24.2z M424.1,19.6c0,2.8-2.1,4.9-5,4.9c-2.9,0-5-2.1-5-4.9c0-2.8,2.1-4.9,5-4.9C422,14.7,424.1,16.8,424.1,19.6z
		 M416.9,19.6c0,1.3,0.9,2.2,2.2,2.2c1.3,0,2.2-0.9,2.2-2.2c0-1.3-0.9-2.2-2.2-2.2C417.9,17.4,416.9,18.3,416.9,19.6z"/>
</g>
<g>
	<rect x="337.8" y="34.9" class="st11" width="103.5" height="21.4"/>
</g>
<g class="st12">
	<path class="st9" d="M371.2,32c-0.8-0.5-1.7-0.8-2.8-0.8c-1.1,0-1.9,0.4-1.9,1.2c0,0.7,0.8,0.9,2,1.1l0.6,0.1
		c1.8,0.3,3.1,1,3.1,2.7c0,2.2-1.9,3.2-4,3.2c-1.5,0-3.1-0.4-4.1-1.3l1-1.6c0.7,0.6,1.9,1.1,3.1,1.1c1.1,0,1.9-0.4,1.9-1.2
		c0-0.7-0.7-0.9-2.1-1.1l-0.6-0.1c-1.7-0.3-3-1-3-2.8c0-2,1.8-3.1,3.9-3.1c1.4,0,2.5,0.3,3.7,1L371.2,32z"/>
	<path class="st9" d="M380.3,36c0,0.2,0,0.5,0,0.6h-4.8c0.2,1,0.9,1.4,1.7,1.4c0.6,0,1.2-0.2,1.7-0.7l1.1,1.2c-0.8,0.7-1.8,1-2.9,1
		c-2.1,0-3.5-1.4-3.5-3.6s1.4-3.6,3.4-3.6C378.9,32.4,380.3,33.9,380.3,36z M375.4,35.3h3c-0.2-0.9-0.7-1.4-1.5-1.4
		C376.1,34,375.6,34.5,375.4,35.3z"/>
	<path class="st9" d="M386.4,32.6l-0.3,1.8c-0.3-0.1-0.7-0.2-1.1-0.2c-0.8,0-1.4,0.5-1.4,1.5v3.7h-1.8v-6.8h1.8v0.7
		c0.4-0.6,1.1-0.9,1.9-0.9C385.8,32.4,386.1,32.5,386.4,32.6z"/>
	<path class="st9" d="M391.8,39.4h-2.1l-2.7-6.8h2l1.8,4.9l1.8-4.9h1.9L391.8,39.4z"/>
	<path class="st9" d="M397.3,38.2c0,0.7-0.6,1.4-1.4,1.4c-0.7,0-1.4-0.6-1.4-1.4c0-0.7,0.6-1.4,1.4-1.4
		C396.7,36.8,397.3,37.5,397.3,38.2z"/>
	<path class="st9" d="M409,39.4h-1.8v-0.7c-0.4,0.5-1.1,0.9-2,0.9c-1.9,0-3.3-1.5-3.3-3.6s1.4-3.6,3.3-3.6c0.9,0,1.6,0.4,2,0.9v-0.7
		h1.8V39.4z M403.8,36c0,1,0.7,1.9,1.8,1.9c1,0,1.8-0.8,1.8-1.9c0-1.1-0.7-1.9-1.8-1.9C404.4,34.1,403.8,34.9,403.8,36z"/>
	<path class="st9" d="M417.3,36.5c0,2.1-1.5,3.1-3.2,3.1c-1.7,0-3.2-0.9-3.2-3.1v-3.9h1.8v3.7c0,1.1,0.6,1.5,1.4,1.5
		c0.8,0,1.4-0.4,1.4-1.5v-3.7h1.8V36.5z"/>
	<path class="st9" d="M423.2,35.9l2.5,3.5h-2.2l-1.5-2.2l-1.5,2.2h-2.1l2.5-3.4l-2.4-3.3h2.2l1.5,2.1l1.5-2.1h2.1L423.2,35.9z"/>
	<path class="st9" d="M370.3,48.7l-1.3,1.1c-0.4-0.4-0.9-0.7-1.5-0.7c-0.9,0-1.7,0.7-1.7,1.9c0,1.1,0.7,1.9,1.7,1.9
		c0.6,0,1.1-0.3,1.5-0.7l1.3,1.1c-0.6,0.8-1.6,1.3-2.7,1.3c-2.2,0-3.6-1.5-3.6-3.6c0-2.1,1.5-3.6,3.6-3.6
		C368.7,47.4,369.7,47.9,370.3,48.7z"/>
	<path class="st9" d="M378.4,51c0,2-1.6,3.6-3.7,3.6c-2.1,0-3.7-1.5-3.7-3.6c0-2,1.6-3.6,3.7-3.6C376.9,47.4,378.4,48.9,378.4,51z
		 M373,51c0,1.1,0.8,1.9,1.8,1.9c1,0,1.8-0.8,1.8-1.9s-0.8-1.9-1.8-1.9C373.7,49.1,373,49.9,373,51z"/>
	<path class="st9" d="M381.7,54.4h-1.8V44.3h1.8V54.4z"/>
	<path class="st9" d="M385.5,54.4h-1.8V44.3h1.8V54.4z"/>
	<path class="st9" d="M393.7,51c0,0.2,0,0.5,0,0.6h-4.8c0.2,1,0.9,1.4,1.7,1.4c0.6,0,1.2-0.2,1.7-0.7l1.1,1.2c-0.8,0.7-1.8,1-2.9,1
		c-2.1,0-3.5-1.4-3.5-3.6s1.4-3.6,3.4-3.6C392.4,47.4,393.7,48.9,393.7,51z M388.9,50.3h3c-0.2-0.9-0.7-1.4-1.5-1.4
		C389.5,49,389,49.5,388.9,50.3z"/>
	<path class="st9" d="M401.1,48.7l-1.3,1.1c-0.4-0.4-0.9-0.7-1.5-0.7c-0.9,0-1.7,0.7-1.7,1.9c0,1.1,0.7,1.9,1.7,1.9
		c0.6,0,1.1-0.3,1.5-0.7l1.3,1.1c-0.6,0.8-1.6,1.3-2.7,1.3c-2.2,0-3.6-1.5-3.6-3.6c0-2.1,1.5-3.6,3.6-3.6
		C399.5,47.4,400.5,47.9,401.1,48.7z"/>
	<path class="st9" d="M407.4,49.2H405v2.5c0,0.8,0.4,1.2,1,1.2c0.4,0,0.9-0.2,1.3-0.4l0.7,1.4c-0.6,0.4-1.3,0.7-2.2,0.7
		c-1.7,0-2.5-1-2.5-2.7v-2.6h-1.3v-1.6h1.3v-2h1.8v2h2.5V49.2z"/>
	<path class="st9" d="M411.7,53.2c0,0.7-0.6,1.4-1.4,1.4c-0.7,0-1.4-0.6-1.4-1.4c0-0.7,0.6-1.4,1.4-1.4
		C411.1,51.8,411.7,52.5,411.7,53.2z"/>
</g>
<g>
	<rect x="451.4" y="2.8" class="st11" width="216.4" height="43.9"/>
</g>
<g class="st12">
	<path class="st9" d="M452.2,11.2c1-1.3,2.8-3.1,6.1-3.1c3.8,0,6.1,2.4,6.1,5.8c0,2.2-1.1,3.7-2.6,5.3l-3.8,4h6.9v3.3H453v-2.7
		l6.4-6.5c1-1,1.5-2,1.5-3.1c0-1.6-1.1-2.7-2.8-2.7c-1.7,0-2.7,0.9-3.7,2L452.2,11.2z"/>
	<path class="st9" d="M471.9,22.3l-1.8,7.7h-2.8l0.9-7.7H471.9z"/>
	<path class="st9" d="M487.9,13.2c0,2.1-1.2,3.4-2.8,4.1c1.8,0.7,3.2,2,3.2,4.2c0,3.3-3.2,5.2-7,5.2c-3.9,0-7-1.9-7-5.2
		c0-2.2,1.4-3.5,3.2-4.2c-1.6-0.7-2.7-2-2.7-4.1c0-3.2,3-5.2,6.6-5.2C484.9,8.1,487.9,10,487.9,13.2z M478,21.2
		c0,1.6,1.5,2.4,3.3,2.4c1.8,0,3.3-0.8,3.3-2.4c0-1.6-1.5-2.5-3.3-2.5C479.5,18.7,478,19.6,478,21.2z M478.4,13.5
		c0,1.5,1.3,2.4,2.9,2.4s2.9-0.8,2.9-2.4c0-1.5-1.3-2.3-2.9-2.3S478.4,12,478.4,13.5z"/>
	<path class="st9" d="M506.8,13c0,2.8-2.1,4.9-5,4.9c-2.9,0-5-2.1-5-4.9c0-2.8,2.1-4.9,5-4.9C504.6,8.1,506.8,10.2,506.8,13z
		 M499.6,13c0,1.3,0.9,2.2,2.2,2.2c1.3,0,2.2-0.9,2.2-2.2c0-1.3-0.9-2.2-2.2-2.2C500.5,10.8,499.6,11.7,499.6,13z M504.2,26.4h-3.4
		l12.1-18h3.4L504.2,26.4z M520.3,21.8c0,2.8-2.1,4.9-5,4.9c-2.9,0-5-2.1-5-4.9c0-2.8,2.1-4.9,5-4.9C518.2,16.9,520.3,19,520.3,21.8
		z M513.1,21.8c0,1.3,0.9,2.2,2.2,2.2c1.3,0,2.2-0.9,2.2-2.2c0-1.3-0.9-2.2-2.2-2.2C514,19.6,513.1,20.5,513.1,21.8z"/>
</g>
<g>
	<rect x="451.4" y="32.7" class="st11" width="153.2" height="21.4"/>
</g>
<g class="st12">
	<path class="st9" d="M459.8,42.8h-7.3v-9.8h7.3v1.8h-5.3v2.2h5.1v1.8h-5.1V41h5.4V42.8z M454.8,32.1l1.4-2.2h2.2l-1.8,2.2H454.8z"
		/>
	<path class="st9" d="M468,38.4v4.3h-1.8V39c0-1-0.5-1.5-1.3-1.5c-0.8,0-1.4,0.5-1.4,1.5v3.7h-1.8V36h1.8v0.8c0.5-0.7,1.2-1,2-1
		C466.9,35.8,468,36.9,468,38.4z"/>
	<path class="st9" d="M476.2,39.4c0,0.2,0,0.5,0,0.6h-4.8c0.2,1,0.9,1.4,1.7,1.4c0.6,0,1.2-0.2,1.7-0.7l1.1,1.2
		c-0.8,0.7-1.8,1-2.9,1c-2.1,0-3.5-1.4-3.5-3.6s1.4-3.6,3.4-3.6C474.9,35.8,476.2,37.2,476.2,39.4z M471.4,38.7h3
		c-0.2-0.9-0.7-1.4-1.5-1.4C472,37.4,471.5,37.9,471.4,38.7z"/>
	<path class="st9" d="M482.3,35.9l-0.3,1.8c-0.3-0.1-0.7-0.2-1.1-0.2c-0.8,0-1.4,0.5-1.4,1.5v3.7h-1.8V36h1.8v0.7
		c0.4-0.6,1.1-0.9,1.9-0.9C481.8,35.8,482.1,35.8,482.3,35.9z"/>
	<path class="st9" d="M488.2,36.7V36h1.8v6.2c0,2.2-1.4,3.5-3.7,3.5c-1.1,0-2.2-0.3-3-0.8l0.7-1.5c0.7,0.4,1.4,0.7,2.2,0.7
		c1.1,0,1.9-0.6,1.9-1.8v-0.5c-0.5,0.6-1.1,0.9-2.1,0.9c-1.7,0-3.1-1.4-3.1-3.5c0-2.1,1.5-3.5,3.1-3.5
		C487,35.8,487.7,36.1,488.2,36.7z M484.8,39.3c0,1,0.7,1.8,1.7,1.8c1,0,1.7-0.8,1.7-1.8c0-1-0.7-1.8-1.7-1.8
		C485.5,37.5,484.8,38.3,484.8,39.3z"/>
	<path class="st9" d="M493.9,33.7c0,0.7-0.5,1.2-1.2,1.2c-0.7,0-1.2-0.5-1.2-1.2s0.5-1.2,1.2-1.2C493.4,32.6,493.9,33.1,493.9,33.7z
		 M493.7,42.8h-1.8V36h1.8V42.8z"/>
	<path class="st9" d="M501.9,39.4c0,0.2,0,0.5,0,0.6h-4.8c0.2,1,0.9,1.4,1.7,1.4c0.6,0,1.2-0.2,1.7-0.7l1.1,1.2
		c-0.8,0.7-1.8,1-2.9,1c-2.1,0-3.5-1.4-3.5-3.6s1.4-3.6,3.4-3.6C500.6,35.8,501.9,37.2,501.9,39.4z M497.1,38.7h3
		c-0.2-0.9-0.7-1.4-1.5-1.4C497.7,37.4,497.2,37.9,497.1,38.7z"/>
</g>
<g>
	<rect x="560.9" y="139.3" class="st11" width="216.4" height="43.9"/>
</g>
<g class="st12">
	<path class="st13" d="M531.7,150.3c2.4-3.2,7-7.8,15.4-7.8c9.4,0,15.3,5.9,15.3,14.5c0,5.5-2.8,9.3-6.5,13.2l-9.6,10h17.2v8.1
		h-29.8v-6.8l15.9-16.3c2.4-2.4,3.7-4.9,3.7-7.7c0-3.9-2.7-6.7-6.9-6.7c-4.3,0-6.8,2.3-9.1,5L531.7,150.3z"/>
	<path class="st13" d="M587,188.4h-8.7v-33.5l-10.8,4.4v-8.7l19.5-7.8V188.4z"/>
	<path class="st13" d="M606.6,178.2l-4.5,19.2H595l2.2-19.2H606.6z"/>
	<path class="st13" d="M640.1,172h6.3v8.1h-6.3v8.2h-8.7v-8.2h-20v-6.3l15.8-30.5h9.6L621.8,172h9.6v-12h8.7V172z"/>
	<path class="st13" d="M691.1,154.8c0,7.1-5.4,12.3-12.6,12.3c-7.2,0-12.5-5.2-12.5-12.3c0-7,5.4-12.3,12.5-12.3
		C685.7,142.6,691.1,147.8,691.1,154.8z M673.1,154.8c0,3.3,2.3,5.6,5.4,5.6c3.2,0,5.4-2.3,5.4-5.6c0-3.2-2.3-5.5-5.4-5.5
		C675.4,149.3,673.1,151.6,673.1,154.8z M684.5,188.4h-8.4l30.2-45h8.4L684.5,188.4z M724.9,176.9c0,7-5.4,12.3-12.6,12.3
		c-7.2,0-12.5-5.2-12.5-12.3c0-6.9,5.4-12.3,12.5-12.3C719.5,164.6,724.9,169.9,724.9,176.9z M706.9,176.9c0,3.2,2.3,5.6,5.4,5.6
		c3.2,0,5.4-2.3,5.4-5.6c0-3.2-2.3-5.6-5.4-5.6C709.2,171.3,706.9,173.7,706.9,176.9z"/>
</g>
<g>
	<rect x="559.3" y="174.9" class="st11" width="126.4" height="41.5"/>
</g>
<g class="st12">
	<path class="st13" d="M545.2,207.5h-4.9v12.8h-3.1v-12.8h-4.9v-2.9h12.9V207.5z"/>
	<path class="st13" d="M555.4,214.8c0,0.3,0,0.7-0.1,1h-7.7c0.3,1.6,1.4,2.3,2.8,2.3c0.9,0,2-0.4,2.8-1l1.7,1.9
		c-1.2,1.1-2.8,1.7-4.7,1.7c-3.3,0-5.7-2.3-5.7-5.7s2.3-5.8,5.5-5.8C553.3,209.1,555.4,211.4,555.4,214.8z M547.6,213.8h4.8
		c-0.3-1.4-1.1-2.2-2.4-2.2C548.7,211.6,547.9,212.5,547.6,213.8z"/>
	<path class="st13" d="M567.3,211.2l-2.1,1.8c-0.7-0.7-1.4-1.1-2.3-1.1c-1.5,0-2.7,1.2-2.7,3c0,1.8,1.2,3,2.7,3
		c0.9,0,1.8-0.4,2.4-1.1l2.1,1.8c-1,1.3-2.6,2-4.4,2c-3.5,0-5.8-2.4-5.8-5.7c0-3.3,2.3-5.7,5.8-5.7
		C564.8,209.1,566.3,209.9,567.3,211.2z"/>
	<path class="st13" d="M572.4,210.6c0.8-1.1,1.9-1.5,3.1-1.5c2.5,0,4.2,1.7,4.2,4.3v6.9h-2.9v-6c0-1.6-0.8-2.4-2.1-2.4
		c-1.3,0-2.3,0.8-2.3,2.5v6h-2.9v-16.2h2.9V210.6z"/>
	<path class="st13" d="M593.1,213.4v6.9h-2.9v-6c0-1.6-0.8-2.4-2.1-2.4c-1.3,0-2.3,0.8-2.3,2.5v6h-2.9v-10.9h2.9v1.3
		c0.8-1.2,2-1.6,3.2-1.6C591.3,209.1,593.1,210.8,593.1,213.4z"/>
	<path class="st13" d="M599.8,218.4c0,1.2-1,2.2-2.2,2.2c-1.2,0-2.2-1-2.2-2.2c0-1.2,1-2.2,2.2-2.2
		C598.8,216.2,599.8,217.2,599.8,218.4z"/>
	<path class="st13" d="M615.7,210.5v-6.4h2.9v16.2h-2.9v-1.2c-0.7,0.9-1.8,1.5-3.3,1.5c-3,0-5.3-2.5-5.3-5.7s2.3-5.7,5.3-5.7
		C613.9,209.1,615,209.7,615.7,210.5z M610.2,214.9c0,1.7,1.1,3,2.8,3c1.7,0,2.8-1.3,2.8-3c0-1.7-1.1-3-2.8-3
		C611.3,211.8,610.2,213.2,610.2,214.9z"/>
	<path class="st13" d="M631.8,214.8c0,0.3,0,0.7-0.1,1H624c0.3,1.6,1.4,2.3,2.8,2.3c0.9,0,2-0.4,2.8-1l1.7,1.9
		c-1.2,1.1-2.8,1.7-4.7,1.7c-3.3,0-5.7-2.3-5.7-5.7s2.3-5.8,5.5-5.8C629.7,209.1,631.8,211.4,631.8,214.8z M624.1,213.8h4.8
		c-0.3-1.4-1.1-2.2-2.4-2.2C625.1,211.6,624.3,212.5,624.1,213.8z"/>
	<path class="st13" d="M642.7,220.3h-2.9v-16.2h2.9V220.3z"/>
	<path class="st13" d="M649.3,204.1l-1.6,6.7h-2.5l0.8-6.7H649.3z"/>
	<path class="st13" d="M655.2,205.8c0,1.1-0.8,1.9-1.9,1.9s-1.9-0.8-1.9-1.9s0.8-1.9,1.9-1.9S655.2,204.8,655.2,205.8z M654.8,220.3
		h-2.9v-10.9h2.9V220.3z"/>
	<path class="st13" d="M668.2,213.4v6.9h-2.9v-6c0-1.6-0.8-2.4-2.1-2.4c-1.3,0-2.3,0.8-2.3,2.5v6h-2.9v-10.9h2.9v1.3
		c0.8-1.2,2-1.6,3.2-1.6C666.4,209.1,668.2,210.8,668.2,213.4z"/>
	<path class="st13" d="M678.2,212h-3.4v8.3h-2.9V212h-2v-2.6h2v-1.4c0-2.6,1.4-4.2,3.9-4.2c1.5,0,2.5,0.4,3.4,1l-1.2,2.3
		c-0.5-0.3-1.2-0.5-1.9-0.5c-0.8,0-1.3,0.5-1.3,1.5v1.3h3.4V212z"/>
	<path class="st13" d="M691.2,214.9c0,3.3-2.5,5.7-5.9,5.7c-3.4,0-5.9-2.5-5.9-5.7c0-3.3,2.5-5.7,5.9-5.7
		C688.7,209.1,691.2,211.6,691.2,214.9z M682.4,214.9c0,1.8,1.2,3,2.9,3s2.9-1.2,2.9-3s-1.3-3-2.9-3S682.4,213.1,682.4,214.9z"/>
	<path class="st13" d="M697.2,218.4c0,1.2-1,2.2-2.2,2.2c-1.2,0-2.2-1-2.2-2.2c0-1.2,1-2.2,2.2-2.2
		C696.2,216.2,697.2,217.2,697.2,218.4z"/>
</g>
<g class="st12">
</g>
<g>
	<rect x="612.7" y="294.1" class="st11" width="216.4" height="43.9"/>
</g>
<g class="st12">
	<path class="st13" d="M628.9,322.6h-5.6v-21.8l-7,2.8V298l12.6-5.1V322.6z"/>
	<path class="st13" d="M653.8,301.2c0,3.1-1.7,5.4-4.4,6.6c3.1,1.2,5,3.6,5,6.7c0,5.8-5.2,8.5-10.8,8.5c-4.4,0-8-1.6-10.2-4.2
		l3.4-3.7c1.7,1.8,4.1,2.8,6.6,2.8c2.8,0,5.1-1.2,5.1-3.8c0-2.5-2.6-3.8-5.7-3.8h-3.4v-5h3.4c2.8,0,5.1-1.3,5.1-3.7
		c0-2.4-2.1-3.7-4.8-3.7c-2.7,0-4.7,1.4-5.9,3l-3.6-3.6c1.9-2.6,5.1-4.5,9.8-4.5C649.6,292.8,653.8,296.1,653.8,301.2z"/>
	<path class="st13" d="M665.6,316l-2.9,12.5h-4.6l1.4-12.5H665.6z"/>
	<path class="st13" d="M688.9,301.2c0,3.1-1.7,5.4-4.4,6.6c3.1,1.2,5,3.6,5,6.7c0,5.8-5.2,8.5-10.8,8.5c-4.4,0-8-1.6-10.2-4.2
		l3.4-3.7c1.7,1.8,4.1,2.8,6.6,2.8c2.8,0,5.1-1.2,5.1-3.8c0-2.5-2.6-3.8-5.7-3.8h-3.4v-5h3.4c2.8,0,5.1-1.3,5.1-3.7
		c0-2.4-2.1-3.7-4.8-3.7c-2.7,0-4.7,1.4-5.9,3l-3.6-3.6c1.9-2.6,5.1-4.5,9.8-4.5C684.7,292.8,688.9,296.1,688.9,301.2z"/>
	<path class="st13" d="M719.6,300.8c0,4.6-3.5,8-8.2,8c-4.7,0-8.2-3.4-8.2-8c0-4.6,3.5-8,8.2-8C716.1,292.8,719.6,296.2,719.6,300.8
		z M707.9,300.8c0,2.1,1.5,3.6,3.5,3.6c2,0,3.5-1.5,3.5-3.6c0-2.1-1.5-3.6-3.5-3.6C709.4,297.2,707.9,298.7,707.9,300.8z
		 M715.3,322.6h-5.5l19.6-29.3h5.5L715.3,322.6z M741.6,315.1c0,4.6-3.5,8-8.2,8c-4.7,0-8.2-3.4-8.2-8c0-4.5,3.5-8,8.2-8
		C738.1,307.1,741.6,310.6,741.6,315.1z M729.9,315.1c0,2.1,1.5,3.6,3.5,3.6c2,0,3.5-1.5,3.5-3.6s-1.5-3.6-3.5-3.6
		C731.4,311.5,729.9,313,729.9,315.1z"/>
</g>
<g>
	<rect x="602.7" y="326.4" class="st11" width="252.9" height="26.9"/>
</g>
<g class="st12">
	<path class="st13" d="M629.9,336.4c-1.1-0.7-2.4-1.1-3.8-1.1c-1.5,0-2.6,0.6-2.6,1.6c0,1,1.2,1.3,2.8,1.6l0.8,0.1
		c2.4,0.4,4.3,1.4,4.3,3.8c0,3-2.6,4.4-5.5,4.4c-2,0-4.2-0.6-5.7-1.8l1.4-2.2c1,0.8,2.6,1.5,4.3,1.5c1.5,0,2.7-0.6,2.7-1.6
		c0-0.9-1-1.3-2.9-1.6l-0.9-0.1c-2.4-0.4-4.1-1.4-4.1-3.9c0-2.8,2.5-4.3,5.4-4.3c1.9,0,3.5,0.4,5.2,1.4L629.9,336.4z"/>
	<path class="st13" d="M643.2,341.8c0,2.8-2.2,4.9-5.1,4.9c-2.9,0-5-2.1-5-4.9c0-2.8,2.1-4.9,5-4.9
		C641.1,336.9,643.2,339,643.2,341.8z M635.7,341.8c0,1.5,1.1,2.6,2.5,2.6s2.5-1.1,2.5-2.6c0-1.5-1.1-2.6-2.5-2.6
		S635.7,340.3,635.7,341.8z"/>
	<path class="st13" d="M648.2,334.1c0,0.9-0.7,1.6-1.6,1.6c-0.9,0-1.6-0.7-1.6-1.6c0-0.9,0.7-1.6,1.6-1.6
		C647.4,332.4,648.2,333.2,648.2,334.1z M647.8,346.5h-2.5v-9.3h2.5V346.5z"/>
	<path class="st13" d="M659.3,340.5v6h-2.5v-5.1c0-1.4-0.7-2.1-1.8-2.1c-1.1,0-2,0.7-2,2.1v5.1h-2.5v-9.3h2.4v1.1
		c0.7-1,1.7-1.4,2.7-1.4C657.8,336.9,659.3,338.3,659.3,340.5z"/>
	<path class="st13" d="M668.6,339.7c-0.7-0.4-1.9-0.8-3-0.8c-1,0-1.4,0.3-1.4,0.8c0,0.5,0.7,0.7,1.5,0.8l0.8,0.1
		c2,0.3,3.2,1.2,3.2,2.8c0,1.9-1.6,3.2-4.3,3.2c-1.3,0-2.9-0.2-4.2-1.1l1-1.9c0.8,0.5,1.8,0.9,3.2,0.9c1.2,0,1.7-0.3,1.7-0.9
		c0-0.5-0.5-0.7-1.6-0.9l-0.8-0.1c-2.2-0.3-3.2-1.2-3.2-2.8c0-1.9,1.5-3.1,3.9-3.1c1.5,0,2.7,0.3,3.9,0.9L668.6,339.7z"/>
	<path class="st13" d="M683.1,338.1v-5.5h2.5v13.9h-2.5v-1c-0.6,0.8-1.5,1.3-2.8,1.3c-2.6,0-4.5-2.1-4.5-4.9c0-2.8,1.9-4.9,4.5-4.9
		C681.6,336.9,682.5,337.4,683.1,338.1z M678.4,341.8c0,1.4,0.9,2.6,2.4,2.6c1.4,0,2.4-1.1,2.4-2.6s-1-2.6-2.4-2.6
		C679.4,339.2,678.4,340.4,678.4,341.8z"/>
	<path class="st13" d="M697,341.8c0,0.3,0,0.6,0,0.8h-6.6c0.3,1.3,1.2,1.9,2.4,1.9c0.8,0,1.7-0.3,2.4-0.9l1.5,1.6
		c-1.1,1-2.4,1.4-4,1.4c-2.9,0-4.9-1.9-4.9-4.9s1.9-4.9,4.7-4.9C695.1,336.9,697,338.9,697,341.8z M690.3,340.9h4.1
		c-0.2-1.2-1-1.9-2-1.9C691.2,339,690.5,339.8,690.3,340.9z"/>
	<path class="st13" d="M710.5,339.7c-0.7-0.4-1.9-0.8-3-0.8c-1,0-1.4,0.3-1.4,0.8c0,0.5,0.7,0.7,1.5,0.8l0.8,0.1
		c2,0.3,3.2,1.2,3.2,2.8c0,1.9-1.6,3.2-4.3,3.2c-1.3,0-2.9-0.2-4.2-1.1l1-1.9c0.8,0.5,1.8,0.9,3.2,0.9c1.2,0,1.7-0.3,1.7-0.9
		c0-0.5-0.5-0.7-1.6-0.9l-0.8-0.1c-2.2-0.3-3.2-1.2-3.2-2.8c0-1.9,1.5-3.1,3.9-3.1c1.5,0,2.7,0.3,3.9,0.9L710.5,339.7z"/>
	<path class="st13" d="M722.8,346.5h-2.5v-1c-0.6,0.8-1.5,1.3-2.8,1.3c-2.6,0-4.5-2.1-4.5-4.9c0-2.8,1.9-4.9,4.5-4.9
		c1.3,0,2.2,0.5,2.8,1.3v-1h2.5V346.5z M715.6,341.8c0,1.4,0.9,2.6,2.4,2.6c1.4,0,2.4-1.1,2.4-2.6s-1-2.6-2.4-2.6
		C716.5,339.2,715.6,340.4,715.6,341.8z"/>
	<path class="st13" d="M734.2,340.5v6h-2.5v-5.1c0-1.4-0.7-2.1-1.8-2.1c-1.1,0-2,0.7-2,2.1v5.1h-2.5v-9.3h2.4v1.1
		c0.7-1,1.7-1.4,2.7-1.4C732.7,336.9,734.2,338.3,734.2,340.5z"/>
	<path class="st13" d="M743.5,339.4h-3.4v3.4c0,1.2,0.6,1.6,1.4,1.6c0.6,0,1.2-0.3,1.8-0.6l0.9,2c-0.8,0.6-1.8,1-3.1,1
		c-2.3,0-3.5-1.3-3.5-3.7v-3.6h-1.8v-2.2h1.8v-2.8h2.5v2.8h3.4V339.4z"/>
	<path class="st13" d="M754.3,341.8c0,0.3,0,0.6,0,0.8h-6.6c0.3,1.3,1.2,1.9,2.4,1.9c0.8,0,1.7-0.3,2.4-0.9l1.5,1.6
		c-1.1,1-2.4,1.4-4,1.4c-2.9,0-4.9-1.9-4.9-4.9s1.9-4.9,4.7-4.9C752.4,336.9,754.3,338.9,754.3,341.8z M747.6,340.9h4.1
		c-0.2-1.2-1-1.9-2-1.9C748.5,339,747.9,339.8,747.6,340.9z M748,335.8l1.9-3h3l-2.5,3H748z"/>
</g>
<g>
	<rect x="562.5" y="392.9" class="st11" width="216.4" height="43.9"/>
</g>
<g class="st12">
	<path class="st13" d="M576.8,436.2h-5.2v-20.1l-6.5,2.6v-5.3l11.7-4.7V436.2z"/>
	<path class="st13" d="M581.2,413.3c1.5-1.9,4.2-4.7,9.2-4.7c5.7,0,9.2,3.6,9.2,8.7c0,3.3-1.7,5.6-3.9,7.9l-5.8,6h10.3v4.9h-17.9
		v-4.1l9.6-9.8c1.4-1.4,2.2-2.9,2.2-4.6c0-2.4-1.6-4-4.1-4c-2.6,0-4.1,1.4-5.5,3L581.2,413.3z"/>
	<path class="st13" d="M610.8,430.1l-2.7,11.5h-4.2l1.3-11.5H610.8z"/>
	<path class="st13" d="M623.2,436.2H618v-20.1l-6.5,2.6v-5.3l11.7-4.7V436.2z"/>
	<path class="st13" d="M652.4,416c0,4.2-3.2,7.4-7.5,7.4c-4.3,0-7.5-3.1-7.5-7.4c0-4.2,3.2-7.4,7.5-7.4
		C649.2,408.7,652.4,411.8,652.4,416z M641.6,416c0,2,1.4,3.4,3.2,3.4c1.9,0,3.3-1.4,3.3-3.4c0-1.9-1.4-3.3-3.3-3.3
		C643,412.7,641.6,414.1,641.6,416z M648.5,436.2h-5.1l18.1-27h5L648.5,436.2z M672.7,429.3c0,4.2-3.2,7.4-7.5,7.4
		c-4.3,0-7.5-3.1-7.5-7.4c0-4.2,3.2-7.4,7.5-7.4C669.5,421.9,672.7,425.1,672.7,429.3z M661.9,429.3c0,1.9,1.4,3.3,3.2,3.3
		c1.9,0,3.3-1.4,3.3-3.3c0-2-1.4-3.3-3.3-3.3C663.3,426,661.9,427.3,661.9,429.3z"/>
</g>
<g class="st12">
	<path class="st13" d="M575.7,453.9h-5.6v4.6h-2.2v-11.3h8.3v2.1h-6v2.6h5.6V453.9z"/>
	<path class="st13" d="M580.2,448.1c0,0.8-0.6,1.3-1.3,1.3s-1.3-0.6-1.3-1.3s0.6-1.4,1.3-1.4S580.2,447.4,580.2,448.1z M579.9,458.5
		h-2.1v-7.8h2.1V458.5z"/>
	<path class="st13" d="M589.5,453.5v5h-2.1v-4.3c0-1.1-0.6-1.7-1.5-1.7c-0.9,0-1.6,0.6-1.6,1.8v4.3h-2.1v-7.8h2v0.9
		c0.6-0.8,1.4-1.1,2.3-1.1C588.3,450.5,589.5,451.7,589.5,453.5z"/>
	<path class="st13" d="M599.3,458.5h-2.1v-0.9c-0.5,0.6-1.3,1.1-2.3,1.1c-2.1,0-3.8-1.8-3.8-4.1c0-2.3,1.6-4.1,3.8-4.1
		c1.1,0,1.8,0.4,2.3,1.1v-0.9h2.1V458.5z M593.3,454.6c0,1.2,0.8,2.1,2,2.1c1.2,0,2-0.9,2-2.1s-0.8-2.1-2-2.1
		C594.1,452.4,593.3,453.4,593.3,454.6z"/>
	<path class="st13" d="M608.9,453.5v5h-2.1v-4.3c0-1.1-0.6-1.7-1.5-1.7c-0.9,0-1.6,0.6-1.6,1.8v4.3h-2.1v-7.8h2v0.9
		c0.6-0.8,1.4-1.1,2.3-1.1C607.6,450.5,608.9,451.7,608.9,453.5z"/>
	<path class="st13" d="M617.8,451.9l-1.5,1.3c-0.5-0.5-1-0.8-1.7-0.8c-1.1,0-2,0.9-2,2.1c0,1.3,0.9,2.1,1.9,2.1
		c0.7,0,1.3-0.3,1.7-0.8l1.5,1.3c-0.7,0.9-1.8,1.5-3.1,1.5c-2.5,0-4.1-1.7-4.1-4.1c0-2.4,1.7-4.1,4.1-4.1
		C616,450.5,617.1,451,617.8,451.9z"/>
	<path class="st13" d="M626.4,454.6c0,0.2,0,0.5,0,0.7h-5.5c0.2,1.1,1,1.6,2,1.6c0.7,0,1.4-0.3,2-0.7l1.2,1.4
		c-0.9,0.8-2,1.2-3.3,1.2c-2.4,0-4-1.6-4-4.1c0-2.5,1.6-4.1,3.9-4.1C624.9,450.5,626.4,452.1,626.4,454.6z M620.9,453.8h3.5
		c-0.2-1-0.8-1.6-1.7-1.6C621.6,452.3,621.1,452.9,620.9,453.8z"/>
</g>
<g>
	<rect x="444.1" y="426.2" class="st11" width="142.4" height="43.9"/>
</g>
<g class="st12">
	<path class="st13" d="M446.4,459.9h-4.6v-17.6l-5.7,2.3V440l10.2-4.1V459.9z"/>
	<path class="st13" d="M450.3,439.9c1.3-1.7,3.7-4.1,8.1-4.1c4.9,0,8,3.1,8,7.6c0,2.9-1.5,4.9-3.4,6.9l-5.1,5.3h9v4.3h-15.6v-3.6
		l8.4-8.6c1.2-1.3,1.9-2.6,1.9-4.1c0-2.1-1.4-3.5-3.6-3.5c-2.2,0-3.6,1.2-4.8,2.6L450.3,439.9z"/>
	<path class="st13" d="M476.2,454.5l-2.4,10.1h-3.7l1.1-10.1H476.2z"/>
	<path class="st13" d="M499.5,448.1c0,7.7-4.6,12.2-10.2,12.2c-5.7,0-10.2-4.6-10.2-12.2c0-7.7,4.5-12.2,10.2-12.2
		C495,435.8,499.5,440.4,499.5,448.1z M483.9,448.1c0,5.2,2.4,7.9,5.4,7.9c3,0,5.4-2.7,5.4-7.9s-2.4-7.9-5.4-7.9
		C486.3,440.2,483.9,442.9,483.9,448.1z"/>
	<path class="st13" d="M524,442.2c0,3.7-2.8,6.5-6.6,6.5c-3.8,0-6.6-2.8-6.6-6.5c0-3.7,2.8-6.4,6.6-6.4
		C521.2,435.8,524,438.6,524,442.2z M514.6,442.2c0,1.7,1.2,2.9,2.8,2.9c1.7,0,2.9-1.2,2.9-2.9c0-1.7-1.2-2.9-2.9-2.9
		C515.8,439.3,514.6,440.6,514.6,442.2z M520.6,459.9h-4.4l15.9-23.6h4.4L520.6,459.9z M541.8,453.8c0,3.7-2.8,6.5-6.6,6.5
		c-3.8,0-6.6-2.8-6.6-6.5c0-3.6,2.8-6.5,6.6-6.5C539,447.4,541.8,450.2,541.8,453.8z M532.4,453.8c0,1.7,1.2,2.9,2.8,2.9
		c1.7,0,2.9-1.2,2.9-2.9s-1.2-2.9-2.9-2.9C533.5,450.9,532.4,452.1,532.4,453.8z"/>
</g>
<g>
	<rect x="442.2" y="459.3" class="st11" width="117" height="48.8"/>
</g>
<g class="st12">
	<path class="st13" d="M447.4,472.9l-1.7,1.1c-0.6-0.9-1.5-1.4-2.6-1.4c-1.8,0-3.2,1.3-3.2,3.3c0,2,1.4,3.3,3.2,3.3
		c1.1,0,2-0.5,2.6-1.4l1.6,1.2c-0.9,1.3-2.4,2.1-4.3,2.1c-3.1,0-5.3-2.2-5.3-5.3s2.2-5.3,5.3-5.3
		C444.9,470.6,446.5,471.5,447.4,472.9z"/>
	<path class="st13" d="M455.9,477.4c0,2.1-1.6,3.7-3.8,3.7c-2.2,0-3.8-1.6-3.8-3.7s1.6-3.7,3.8-3.7
		C454.3,473.7,455.9,475.3,455.9,477.4z M450.3,477.4c0,1.1,0.8,1.9,1.9,1.9c1.1,0,1.9-0.8,1.9-1.9s-0.8-1.9-1.9-1.9
		C451.1,475.5,450.3,476.3,450.3,477.4z"/>
	<path class="st13" d="M464.1,476.5v4.5h-1.9v-3.9c0-1-0.5-1.6-1.4-1.6c-0.8,0-1.5,0.5-1.5,1.6v3.8h-1.9v-7h1.8v0.8
		c0.5-0.7,1.3-1,2.1-1C463,473.7,464.1,474.8,464.1,476.5z"/>
	<path class="st13" d="M471.1,475.9c-0.6-0.3-1.4-0.6-2.2-0.6c-0.7,0-1.1,0.3-1.1,0.6c0,0.4,0.5,0.5,1.1,0.6l0.6,0.1
		c1.5,0.2,2.4,0.9,2.4,2.1c0,1.4-1.2,2.4-3.2,2.4c-1,0-2.2-0.2-3.1-0.8l0.7-1.4c0.6,0.4,1.3,0.7,2.4,0.7c0.9,0,1.3-0.2,1.3-0.7
		c0-0.3-0.4-0.5-1.2-0.6l-0.6-0.1c-1.6-0.2-2.4-0.9-2.4-2.1c0-1.4,1.1-2.3,3-2.3c1.1,0,2,0.2,2.9,0.7L471.1,475.9z"/>
	<path class="st13" d="M480.5,477.4c0,2.1-1.6,3.7-3.8,3.7c-2.2,0-3.8-1.6-3.8-3.7s1.6-3.7,3.8-3.7
		C478.9,473.7,480.5,475.3,480.5,477.4z M474.8,477.4c0,1.1,0.8,1.9,1.9,1.9c1.1,0,1.9-0.8,1.9-1.9s-0.8-1.9-1.9-1.9
		C475.6,475.5,474.8,476.3,474.8,477.4z"/>
	<path class="st13" d="M493.4,476.5v4.5h-1.9v-3.9c0-1-0.5-1.6-1.4-1.6c-0.8,0-1.5,0.5-1.5,1.6v3.8h-1.9v-3.9c0-1-0.5-1.6-1.4-1.6
		c-0.8,0-1.5,0.5-1.5,1.6v3.8H482v-7h1.8v0.8c0.5-0.7,1.3-1,2.1-1c1,0,1.8,0.5,2.3,1.2c0.5-0.9,1.5-1.2,2.4-1.2
		C492.3,473.7,493.4,474.8,493.4,476.5z"/>
	<path class="st13" d="M506.7,476.5v4.5h-1.9v-3.9c0-1-0.5-1.6-1.4-1.6c-0.8,0-1.5,0.5-1.5,1.6v3.8h-1.9v-3.9c0-1-0.5-1.6-1.4-1.6
		c-0.8,0-1.5,0.5-1.5,1.6v3.8h-1.9v-7h1.8v0.8c0.5-0.7,1.3-1,2.1-1c1,0,1.8,0.5,2.3,1.2c0.5-0.9,1.5-1.2,2.4-1.2
		C505.6,473.7,506.7,474.8,506.7,476.5z"/>
	<path class="st13" d="M515.5,480.9h-1.8v-0.8c-0.5,0.6-1.1,1-2.1,1c-1.9,0-3.4-1.6-3.4-3.7s1.5-3.7,3.4-3.7c1,0,1.6,0.4,2.1,1v-0.8
		h1.8V480.9z M510.1,477.4c0,1.1,0.7,1.9,1.8,1.9c1.1,0,1.8-0.8,1.8-1.9s-0.7-1.9-1.8-1.9C510.8,475.5,510.1,476.3,510.1,477.4z"/>
	<path class="st13" d="M522.6,475.6H520v2.6c0,0.9,0.5,1.2,1,1.2c0.4,0,0.9-0.2,1.3-0.5l0.7,1.5c-0.6,0.4-1.3,0.7-2.3,0.7
		c-1.7,0-2.6-1-2.6-2.8v-2.7h-1.4v-1.7h1.4v-2.1h1.9v2.1h2.5V475.6z"/>
	<path class="st13" d="M526.4,471.6c0,0.7-0.5,1.2-1.2,1.2s-1.2-0.5-1.2-1.2c0-0.7,0.5-1.2,1.2-1.2S526.4,470.9,526.4,471.6z
		 M526.1,480.9h-1.9v-7h1.9V480.9z"/>
	<path class="st13" d="M535.3,477.4c0,2.1-1.6,3.7-3.8,3.7c-2.2,0-3.8-1.6-3.8-3.7s1.6-3.7,3.8-3.7
		C533.7,473.7,535.3,475.3,535.3,477.4z M529.6,477.4c0,1.1,0.8,1.9,1.9,1.9c1.1,0,1.9-0.8,1.9-1.9s-0.8-1.9-1.9-1.9
		C530.4,475.5,529.6,476.3,529.6,477.4z"/>
	<path class="st13" d="M543.4,476.5v4.5h-1.9v-3.9c0-1-0.5-1.6-1.4-1.6c-0.8,0-1.5,0.5-1.5,1.6v3.8h-1.9v-7h1.8v0.8
		c0.5-0.7,1.3-1,2.1-1C542.3,473.7,543.4,474.8,543.4,476.5z"/>
	<path class="st13" d="M443,492v-4.1h1.9v10.4h-1.8v-0.8c-0.5,0.6-1.1,1-2.1,1c-1.9,0-3.4-1.6-3.4-3.7s1.5-3.7,3.4-3.7
		C441.9,491.1,442.6,491.5,443,492z M439.5,494.8c0,1.1,0.7,1.9,1.8,1.9c1.1,0,1.8-0.8,1.8-1.9s-0.7-1.9-1.8-1.9
		C440.2,492.8,439.5,493.7,439.5,494.8z"/>
	<path class="st13" d="M449.1,489c0,0.7-0.5,1.2-1.2,1.2c-0.7,0-1.2-0.5-1.2-1.2c0-0.7,0.5-1.2,1.2-1.2
		C448.5,487.8,449.1,488.3,449.1,489z M448.8,498.3h-1.9v-7h1.9V498.3z"/>
	<path class="st13" d="M455.8,493.2c-0.6-0.3-1.4-0.6-2.2-0.6c-0.7,0-1.1,0.3-1.1,0.6c0,0.4,0.5,0.5,1.1,0.6l0.6,0.1
		c1.5,0.2,2.4,0.9,2.4,2.1c0,1.4-1.2,2.4-3.2,2.4c-1,0-2.2-0.2-3.1-0.8l0.7-1.4c0.6,0.4,1.3,0.7,2.4,0.7c0.9,0,1.3-0.2,1.3-0.7
		c0-0.3-0.4-0.5-1.2-0.6l-0.6-0.1c-1.6-0.2-2.4-0.9-2.4-2.1c0-1.4,1.1-2.3,3-2.3c1.1,0,2,0.2,2.9,0.7L455.8,493.2z"/>
	<path class="st13" d="M464.2,492.4l-1.4,1.1c-0.4-0.5-0.9-0.7-1.5-0.7c-1,0-1.8,0.8-1.8,1.9c0,1.2,0.8,1.9,1.8,1.9
		c0.6,0,1.1-0.3,1.5-0.7l1.3,1.1c-0.7,0.8-1.6,1.3-2.8,1.3c-2.2,0-3.7-1.6-3.7-3.7c0-2.1,1.5-3.7,3.7-3.7
		C462.6,491.1,463.6,491.6,464.2,492.4z"/>
	<path class="st13" d="M470.4,491.2l-0.3,1.9c-0.3-0.1-0.8-0.2-1.1-0.2c-0.9,0-1.5,0.5-1.5,1.6v3.8h-1.9v-7h1.8v0.8
		c0.4-0.7,1.1-1,2-1C469.8,491.1,470.1,491.1,470.4,491.2z"/>
	<path class="st13" d="M477.9,494.8c0,0.2,0,0.5,0,0.6h-5c0.2,1,0.9,1.5,1.8,1.5c0.6,0,1.3-0.2,1.8-0.7l1.1,1.2
		c-0.8,0.7-1.8,1.1-3,1.1c-2.1,0-3.6-1.5-3.6-3.7s1.4-3.7,3.5-3.7C476.6,491.1,477.9,492.6,477.9,494.8z M472.9,494.1h3.1
		c-0.2-0.9-0.7-1.4-1.5-1.4C473.6,492.7,473.1,493.3,472.9,494.1z M473.3,490.3l1.5-2.3h2.3l-1.9,2.3H473.3z"/>
	<path class="st13" d="M484.5,493H482v2.6c0,0.9,0.5,1.2,1,1.2c0.4,0,0.9-0.2,1.3-0.5l0.7,1.5c-0.6,0.4-1.3,0.7-2.3,0.7
		c-1.7,0-2.6-1-2.6-2.8V493h-1.4v-1.7h1.4v-2.1h1.9v2.1h2.5V493z"/>
	<path class="st13" d="M488.3,489c0,0.7-0.5,1.2-1.2,1.2s-1.2-0.5-1.2-1.2c0-0.7,0.5-1.2,1.2-1.2S488.3,488.3,488.3,489z
		 M488.1,498.3h-1.9v-7h1.9V498.3z"/>
	<path class="st13" d="M497.2,494.8c0,2.1-1.6,3.7-3.8,3.7c-2.2,0-3.8-1.6-3.8-3.7s1.6-3.7,3.8-3.7
		C495.6,491.1,497.2,492.7,497.2,494.8z M491.5,494.8c0,1.1,0.8,1.9,1.9,1.9c1.1,0,1.9-0.8,1.9-1.9s-0.8-1.9-1.9-1.9
		C492.3,492.8,491.5,493.6,491.5,494.8z"/>
	<path class="st13" d="M505.4,493.8v4.5h-1.9v-3.9c0-1-0.5-1.6-1.4-1.6c-0.8,0-1.5,0.5-1.5,1.6v3.8h-1.9v-7h1.8v0.8
		c0.5-0.7,1.3-1,2.1-1C504.2,491.1,505.4,492.2,505.4,493.8z"/>
	<path class="st13" d="M513.9,493.8v4.5H512v-3.9c0-1-0.5-1.6-1.4-1.6c-0.8,0-1.5,0.5-1.5,1.6v3.8h-1.9v-7h1.8v0.8
		c0.5-0.7,1.3-1,2.1-1C512.8,491.1,513.9,492.2,513.9,493.8z"/>
	<path class="st13" d="M522.7,498.3h-1.8v-0.8c-0.5,0.6-1.1,1-2.1,1c-1.9,0-3.4-1.6-3.4-3.7s1.5-3.7,3.4-3.7c1,0,1.6,0.4,2.1,1v-0.8
		h1.8V498.3z M517.3,494.8c0,1.1,0.7,1.9,1.8,1.9c1.1,0,1.8-0.8,1.8-1.9s-0.7-1.9-1.8-1.9C518,492.8,517.3,493.7,517.3,494.8z"/>
	<path class="st13" d="M526.9,489c0,0.7-0.5,1.2-1.2,1.2c-0.7,0-1.2-0.5-1.2-1.2c0-0.7,0.5-1.2,1.2-1.2
		C526.3,487.8,526.9,488.3,526.9,489z M526.6,498.3h-1.9v-7h1.9V498.3z"/>
	<path class="st13" d="M533.4,491.2l-0.3,1.9c-0.3-0.1-0.8-0.2-1.1-0.2c-0.9,0-1.5,0.5-1.5,1.6v3.8h-1.9v-7h1.8v0.8
		c0.4-0.7,1.1-1,2-1C532.8,491.1,533.1,491.1,533.4,491.2z"/>
	<path class="st13" d="M541,494.8c0,0.2,0,0.5,0,0.6h-5c0.2,1,0.9,1.5,1.8,1.5c0.6,0,1.3-0.2,1.8-0.7l1.1,1.2
		c-0.8,0.7-1.8,1.1-3,1.1c-2.1,0-3.6-1.5-3.6-3.7s1.4-3.7,3.5-3.7C539.6,491.1,540.9,492.6,541,494.8z M536,494.1h3.1
		c-0.2-0.9-0.7-1.4-1.5-1.4C536.6,492.7,536.1,493.3,536,494.1z"/>
</g>
<g>
	<rect x="355" y="364.6" class="st11" width="216.4" height="43.9"/>
</g>
<g class="st12">
	<path class="st13" d="M365.8,384.6h-4.3v-16.8l-5.4,2.2v-4.4l9.7-3.9V384.6z"/>
	<path class="st13" d="M379,384.6h-4.3v-16.8l-5.4,2.2v-4.4l9.7-3.9V384.6z"/>
	<path class="st13" d="M388.7,379.6l-2.3,9.6H383l1.1-9.6H388.7z"/>
	<path class="st13" d="M410.9,373.4c0,7.3-4.3,11.7-9.7,11.7c-5.4,0-9.7-4.4-9.7-11.7s4.3-11.7,9.7-11.7
		C406.6,361.7,410.9,366.1,410.9,373.4z M396,373.4c0,4.9,2.3,7.5,5.2,7.5c2.9,0,5.2-2.6,5.2-7.5c0-4.9-2.3-7.5-5.2-7.5
		C398.3,365.9,396,368.5,396,373.4z"/>
	<path class="st13" d="M434.3,367.9c0,3.5-2.7,6.2-6.3,6.2c-3.6,0-6.3-2.6-6.3-6.2c0-3.5,2.7-6.1,6.3-6.1
		C431.6,361.7,434.3,364.4,434.3,367.9z M425.3,367.9c0,1.6,1.2,2.8,2.7,2.8c1.6,0,2.7-1.2,2.7-2.8c0-1.6-1.1-2.8-2.7-2.8
		C426.5,365.1,425.3,366.3,425.3,367.9z M431,384.6h-4.2l15.1-22.5h4.2L431,384.6z M451.2,378.9c0,3.5-2.7,6.1-6.3,6.1
		c-3.6,0-6.3-2.6-6.3-6.1c0-3.5,2.7-6.1,6.3-6.1C448.5,372.8,451.2,375.4,451.2,378.9z M442.2,378.9c0,1.6,1.1,2.8,2.7,2.8
		c1.6,0,2.7-1.2,2.7-2.8c0-1.6-1.1-2.8-2.7-2.8C443.3,376.1,442.2,377.3,442.2,378.9z"/>
</g>
<g>
	<rect x="355" y="394.5" class="st11" width="94.1" height="28.5"/>
</g>
<g class="st12">
	<path class="st13" d="M363.1,391c2.4,0,3.8,0.9,3.8,2.8c0,1-0.6,1.8-1.5,2.1c0.9,0.3,1.7,1.2,1.7,2.3c0,1.9-1.4,2.9-3.8,2.9h-4.4
		V391H363.1z M361,392.7v2.4h2.1c1,0,1.8-0.2,1.8-1.2c0-1-0.8-1.2-1.8-1.2H361z M361,396.9v2.4l2.3,0c1.1,0,1.8-0.3,1.8-1.2
		c0-0.9-0.7-1.2-1.8-1.2H361z"/>
	<path class="st13" d="M370.9,391.8c0,0.7-0.5,1.2-1.2,1.2c-0.7,0-1.2-0.5-1.2-1.2c0-0.7,0.5-1.2,1.2-1.2
		C370.4,390.6,370.9,391.1,370.9,391.8z M370.7,401.1h-1.9v-7h1.9V401.1z"/>
	<path class="st13" d="M379.2,397.6c0,0.2,0,0.5,0,0.6h-5c0.2,1,0.9,1.5,1.8,1.5c0.6,0,1.3-0.2,1.8-0.7l1.1,1.2
		c-0.8,0.7-1.8,1.1-3,1.1c-2.1,0-3.6-1.5-3.6-3.7s1.4-3.7,3.5-3.7C377.8,393.9,379.2,395.4,379.2,397.6z M374.2,396.9h3.1
		c-0.2-0.9-0.7-1.4-1.5-1.4C374.9,395.5,374.4,396,374.2,396.9z"/>
	<path class="st13" d="M387.4,396.6v4.5h-1.9v-3.9c0-1-0.5-1.6-1.4-1.6c-0.8,0-1.5,0.5-1.5,1.6v3.8h-1.9v-7h1.8v0.8
		c0.5-0.7,1.3-1,2.1-1C386.2,393.9,387.4,395,387.4,396.6z"/>
	<path class="st13" d="M394.3,396c-0.6-0.3-1.4-0.6-2.2-0.6c-0.7,0-1.1,0.3-1.1,0.6c0,0.4,0.5,0.5,1.1,0.6l0.6,0.1
		c1.5,0.2,2.4,0.9,2.4,2.1c0,1.4-1.2,2.4-3.2,2.4c-1,0-2.2-0.2-3.1-0.8l0.7-1.4c0.6,0.4,1.3,0.7,2.4,0.7c0.9,0,1.3-0.2,1.3-0.7
		c0-0.3-0.4-0.5-1.2-0.6l-0.6-0.1c-1.6-0.2-2.4-0.9-2.4-2.1c0-1.4,1.1-2.3,3-2.3c1.1,0,2,0.2,2.9,0.7L394.3,396z"/>
	<path class="st13" d="M360.9,409.2c0,0.7-0.5,1.2-1.2,1.2s-1.2-0.5-1.2-1.2c0-0.7,0.5-1.2,1.2-1.2S360.9,408.5,360.9,409.2z
		 M360.7,418.5h-1.9v-7h1.9V418.5z"/>
	<path class="st13" d="M369.3,414v4.5h-1.9v-3.9c0-1-0.5-1.6-1.4-1.6c-0.8,0-1.5,0.5-1.5,1.6v3.8h-1.9v-7h1.8v0.8
		c0.5-0.7,1.3-1,2.1-1C368.2,411.3,369.3,412.4,369.3,414z"/>
	<path class="st13" d="M376.2,412.2V408h1.9v10.4h-1.8v-0.8c-0.5,0.6-1.1,1-2.1,1c-1.9,0-3.4-1.6-3.4-3.7s1.5-3.7,3.4-3.7
		C375.1,411.3,375.8,411.6,376.2,412.2z M372.7,414.9c0,1.1,0.7,1.9,1.8,1.9c1.1,0,1.8-0.8,1.8-1.9s-0.7-1.9-1.8-1.9
		C373.4,413,372.7,413.9,372.7,414.9z"/>
	<path class="st13" d="M386.7,415.5c0,2.2-1.6,3.2-3.3,3.2c-1.8,0-3.3-1-3.3-3.2v-4h1.9v3.9c0,1.1,0.6,1.6,1.4,1.6
		c0.8,0,1.4-0.5,1.4-1.6v-3.9h1.9V415.5z"/>
	<path class="st13" d="M393.6,413.4c-0.6-0.3-1.4-0.6-2.2-0.6c-0.7,0-1.1,0.3-1.1,0.6c0,0.4,0.5,0.5,1.1,0.6l0.6,0.1
		c1.5,0.2,2.4,0.9,2.4,2.1c0,1.4-1.2,2.4-3.2,2.4c-1,0-2.2-0.2-3.1-0.8l0.7-1.4c0.6,0.4,1.3,0.7,2.4,0.7c0.9,0,1.3-0.2,1.3-0.7
		c0-0.3-0.4-0.5-1.2-0.6l-0.6-0.1c-1.6-0.2-2.4-0.9-2.4-2.1c0-1.4,1.1-2.3,3-2.3c1.1,0,2,0.2,2.9,0.7L393.6,413.4z"/>
	<path class="st13" d="M401,413.1h-2.5v2.6c0,0.9,0.5,1.2,1,1.2c0.4,0,0.9-0.2,1.3-0.5l0.7,1.5c-0.6,0.4-1.3,0.7-2.3,0.7
		c-1.7,0-2.6-1-2.6-2.8v-2.7h-1.4v-1.7h1.4v-2.1h1.9v2.1h2.5V413.1z"/>
	<path class="st13" d="M407.4,411.4l-0.3,1.9c-0.3-0.1-0.8-0.2-1.1-0.2c-0.9,0-1.5,0.5-1.5,1.6v3.8h-1.9v-7h1.8v0.8
		c0.4-0.7,1.1-1,2-1C406.8,411.3,407.2,411.3,407.4,411.4z"/>
	<path class="st13" d="M410.8,409.2c0,0.7-0.5,1.2-1.2,1.2c-0.7,0-1.2-0.5-1.2-1.2c0-0.7,0.5-1.2,1.2-1.2
		C410.3,407.9,410.8,408.5,410.8,409.2z M410.6,418.5h-1.9v-7h1.9V418.5z"/>
	<path class="st13" d="M419.1,414.9c0,0.2,0,0.5,0,0.6h-5c0.2,1,0.9,1.5,1.8,1.5c0.6,0,1.3-0.2,1.8-0.7l1.1,1.2
		c-0.8,0.7-1.8,1.1-3,1.1c-2.1,0-3.6-1.5-3.6-3.7s1.4-3.7,3.5-3.7C417.7,411.3,419.1,412.8,419.1,414.9z M414.1,414.3h3.1
		c-0.2-0.9-0.7-1.4-1.5-1.4C414.8,412.9,414.3,413.4,414.1,414.3z"/>
	<path class="st13" d="M422.5,418.5h-1.9V408h1.9V418.5z"/>
	<path class="st13" d="M429.5,413.4c-0.6-0.3-1.4-0.6-2.2-0.6c-0.7,0-1.1,0.3-1.1,0.6c0,0.4,0.5,0.5,1.1,0.6l0.6,0.1
		c1.5,0.2,2.4,0.9,2.4,2.1c0,1.4-1.2,2.4-3.2,2.4c-1,0-2.2-0.2-3.1-0.8l0.7-1.4c0.6,0.4,1.3,0.7,2.4,0.7c0.9,0,1.3-0.2,1.3-0.7
		c0-0.3-0.4-0.5-1.2-0.6l-0.6-0.1c-1.6-0.2-2.4-0.9-2.4-2.1c0-1.4,1.1-2.3,3-2.3c1.1,0,2,0.2,2.9,0.7L429.5,413.4z"/>
</g>
<g>
	
		<rect x="491.6" y="55.5" transform="matrix(0.9802 -0.1981 0.1981 0.9802 -13.3058 99.8006)" class="st14" width="1" height="121.8"/>
</g>
<g>
	
		<rect x="294.8" y="257" transform="matrix(9.053328e-02 -0.9959 0.9959 9.053328e-02 -31.8227 568.3726)" class="st14" width="1" height="89.1"/>
</g>
<g>
	
		<rect x="282.4" y="137.5" transform="matrix(0.2303 -0.9731 0.9731 0.2303 11.9556 438.1029)" class="st14" width="1" height="148"/>
</g>
<g>
	
		<rect x="326.2" y="65.6" transform="matrix(0.3493 -0.937 0.937 0.3493 75.3025 401.4067)" class="st14" width="1" height="161.7"/>
</g>
<g>
	
		<rect x="390.7" y="56.1" transform="matrix(0.5685 -0.8227 0.8227 0.5685 67.4773 374.9973)" class="st14" width="1" height="134.1"/>
</g>
<g>
	<rect x="440.9" y="48" transform="matrix(0.8022 -0.597 0.597 0.8022 19.6325 285.9709)" class="st14" width="1" height="130.7"/>
</g>
<g id="Layer_2_1_">
</g>
<g id="Layer_2_2_">
</g>
</svg>
