<?xml version="1.0" encoding="utf-8"?>
<!-- Generator: Adobe Illustrator 24.1.2, SVG Export Plug-In . SVG Version: 6.00 Build 0)  -->
<svg version="1.1" id="Layer_1" xmlns="http://www.w3.org/2000/svg" xmlns:xlink="http://www.w3.org/1999/xlink" x="0px" y="0px"
	 viewBox="0 0 1080 367" style="enable-background:new 0 0 1080 367;" xml:space="preserve">
<style type="text/css">
	.st0{fill:#ED5A35;}
	.st1{fill:none;stroke:#000000;stroke-miterlimit:10;}
	.st2{fill:#808080;stroke:#000000;stroke-width:0.5;stroke-miterlimit:10;}
	.st3{fill:#DFDFDF;stroke:#000000;stroke-width:0.5;stroke-miterlimit:10;}
	.st4{stroke:#000000;stroke-width:0.5;stroke-miterlimit:10;}
	.st5{fill:#606060;stroke:#000000;stroke-width:0.5;stroke-miterlimit:10;}
	.st6{fill:#BFBFBF;stroke:#000000;stroke-width:0.5;stroke-miterlimit:10;}
	.st7{fill:#202020;stroke:#000000;stroke-width:0.5;stroke-miterlimit:10;}
	.st8{fill:#9F9F9F;stroke:#000000;stroke-width:0.5;stroke-miterlimit:10;}
	.st9{fill:#404040;stroke:#000000;stroke-width:0.5;stroke-miterlimit:10;}
	.st10{fill:#CCCCCC;}
</style>
<g>
	<g>
		<g>
			<g>
				<rect x="1022.05" y="24.52" class="st0" width="22.95" height="188.46"/>
			</g>
		</g>
	</g>
	<g>
		<g>
			<g>
				<rect x="971.24" y="24.52" class="st0" width="22.95" height="36.92"/>
			</g>
		</g>
	</g>
	<g>
		<g>
			<g>
				<rect x="920.43" y="24.52" class="st0" width="22.95" height="107.98"/>
			</g>
		</g>
	</g>
	<g>
		<g>
			<g>
				<rect x="869.62" y="24.52" class="st0" width="22.95" height="14.39"/>
			</g>
		</g>
	</g>
	<g>
		<g>
			<g>
				<rect x="818.82" y="24.52" class="st0" width="22.95" height="57.28"/>
			</g>
		</g>
	</g>
	<g>
		<g>
			<g>
				<rect x="768.01" y="24.52" class="st0" width="22.95" height="67.15"/>
			</g>
		</g>
	</g>
	<g>
		<g>
			<g>
				<rect x="717.2" y="24.52" class="st0" width="22.95" height="40.6"/>
			</g>
		</g>
	</g>
	<g>
		<g>
			<g>
				<rect x="666.39" y="24.52" class="st0" width="22.95" height="31.12"/>
			</g>
		</g>
	</g>
	<g>
		<g>
			<g>
				<rect x="615.59" y="24.52" class="st0" width="22.95" height="53.43"/>
			</g>
		</g>
	</g>
	<g>
		<g>
			<g>
				<rect x="564.78" y="24.52" class="st0" width="22.95" height="103.96"/>
			</g>
		</g>
	</g>
	<g>
		<g>
			<g>
				<rect x="513.97" y="24.52" class="st0" width="22.95" height="87.18"/>
			</g>
		</g>
	</g>
	<g>
		<g>
			<g>
				<rect x="463.16" y="24.52" class="st0" width="22.95" height="151.65"/>
			</g>
		</g>
	</g>
	<g>
		<g>
			<g>
				<rect x="412.36" y="24.52" class="st0" width="22.95" height="266.1"/>
			</g>
		</g>
	</g>
	<g>
		<g>
			<g>
				<rect x="361.55" y="24.52" class="st0" width="22.95" height="55.05"/>
			</g>
		</g>
	</g>
	<g>
		<g>
			<g>
				<rect x="310.74" y="24.52" class="st0" width="22.95" height="41.61"/>
			</g>
		</g>
	</g>
	<g>
		<g>
			<g>
				<rect x="259.94" y="24.52" class="st0" width="22.95" height="39.1"/>
			</g>
		</g>
	</g>
	<g>
		<g>
			<g>
				<rect x="209.13" y="24.52" class="st0" width="22.95" height="41.44"/>
			</g>
		</g>
	</g>
	<g>
		<g>
			<g>
				<rect x="158.32" y="24.52" class="st0" width="22.95" height="76.86"/>
			</g>
		</g>
	</g>
	<g>
		<g>
			<g>
				<rect x="107.51" y="24.52" class="st0" width="22.95" height="184.11"/>
			</g>
		</g>
	</g>
	<g>
	</g>
</g>
<g>
	<path d="M49.72,25.73c0,3.4-2.03,5.44-4.53,5.44c-2.52,0-4.53-2.04-4.53-5.44c0-3.4,2.01-5.44,4.53-5.44
		C47.7,20.29,49.72,22.33,49.72,25.73z M42.77,25.73c0,2.3,1.07,3.5,2.42,3.5c1.35,0,2.42-1.2,2.42-3.5c0-2.3-1.07-3.5-2.42-3.5
		C43.84,22.23,42.77,23.44,42.77,25.73z"/>
</g>
<g>
	<g>
		<line class="st1" x1="1470.64" y1="530.25" x2="1782.69" y2="530.25"/>
		<g>
			<g>
				<line class="st1" x1="1470.64" y1="530.25" x2="1470.64" y2="533.84"/>
				<line class="st1" x1="1782.69" y1="530.25" x2="1782.69" y2="533.84"/>
			</g>
			<g>
			</g>
		</g>
	</g>
	<g>
		<g>
			<text transform="matrix(1 0 0 1 1442.9769 678.9619)"><tspan x="0" y="0" style="font-family:'MarkOT-Bold'; font-size:13.4683px;">-</tspan><tspan x="5.43" y="0" style="font-family:'MarkOT-Bold'; font-size:13.4683px;">50</tspan></text>
			<text transform="matrix(1 0 0 1 1442.7142 650.2295)"><tspan x="0" y="0" style="font-family:'MarkOT-Bold'; font-size:13.4683px;">-</tspan><tspan x="5.68" y="0" style="font-family:'MarkOT-Bold'; font-size:13.4683px;">40</tspan></text>
			<text transform="matrix(1 0 0 1 1443.4418 621.4971)"><tspan x="0" y="0" style="font-family:'MarkOT-Bold'; font-size:13.4683px;">-</tspan><tspan x="5.11" y="0" style="font-family:'MarkOT-Bold'; font-size:13.4683px;">30</tspan></text>
			<text transform="matrix(1 0 0 1 1443.6703 592.7646)"><tspan x="0" y="0" style="font-family:'MarkOT-Bold'; font-size:13.4683px;">-</tspan><tspan x="5" y="0" style="font-family:'MarkOT-Bold'; font-size:13.4683px;">20</tspan></text>
			<text transform="matrix(1 0 0 1 1445.6571 564.0327)"><tspan x="0" y="0" style="font-family:'MarkOT-Bold'; font-size:13.4683px;">-</tspan><tspan x="5.07" y="0" style="font-family:'MarkOT-Bold'; font-size:13.4683px;">10</tspan></text>
			<text transform="matrix(1 0 0 1 1456.2567 535.3003)" style="font-family:'MarkOT-Bold'; font-size:13.4683px;">0</text>
		</g>
		<line class="st1" x1="1470.64" y1="673.91" x2="1470.64" y2="530.25"/>
		<g>
			<g>
				<line class="st1" x1="1470.64" y1="673.91" x2="1478.44" y2="673.91"/>
				<line class="st1" x1="1470.64" y1="645.18" x2="1478.44" y2="645.18"/>
				<line class="st1" x1="1470.64" y1="616.45" x2="1478.44" y2="616.45"/>
				<line class="st1" x1="1470.64" y1="587.71" x2="1478.44" y2="587.71"/>
				<line class="st1" x1="1470.64" y1="558.98" x2="1478.44" y2="558.98"/>
				<line class="st1" x1="1470.64" y1="530.25" x2="1478.44" y2="530.25"/>
			</g>
			<g>
			</g>
		</g>
	</g>
	<g>
		<g>
			<g>
				<rect x="1739" y="530.25" class="st2" width="11.82" height="97.09"/>
			</g>
		</g>
		<g>
			<g>
				<rect x="1725.86" y="530.25" class="st3" width="11.82" height="19.02"/>
			</g>
		</g>
		<g>
			<g>
				<rect x="1712.72" y="530.25" class="st4" width="11.82" height="55.63"/>
			</g>
		</g>
		<g>
			<g>
				<rect x="1699.59" y="530.25" class="st5" width="11.82" height="7.41"/>
			</g>
		</g>
		<g>
			<g>
				<rect x="1686.45" y="530.25" class="st6" width="11.82" height="29.51"/>
			</g>
		</g>
		<g>
			<g>
				<rect x="1673.31" y="530.25" class="st7" width="11.82" height="34.59"/>
			</g>
		</g>
		<g>
			<g>
				<rect x="1660.17" y="530.25" class="st8" width="11.82" height="20.92"/>
			</g>
		</g>
		<g>
			<g>
				<rect x="1647.03" y="530.25" class="st9" width="11.82" height="16.03"/>
			</g>
		</g>
		<g>
			<g>
				<rect x="1633.89" y="530.25" class="st2" width="11.82" height="27.53"/>
			</g>
		</g>
		<g>
			<g>
				<rect x="1620.75" y="530.25" class="st3" width="11.82" height="53.56"/>
			</g>
		</g>
		<g>
			<g>
				<rect x="1607.61" y="530.25" class="st4" width="11.82" height="44.91"/>
			</g>
		</g>
		<g>
			<g>
				<rect x="1594.47" y="530.25" class="st5" width="11.82" height="78.12"/>
			</g>
		</g>
		<g>
			<g>
				<rect x="1581.34" y="530.25" class="st6" width="11.82" height="137.08"/>
			</g>
		</g>
		<g>
			<g>
				<rect x="1568.2" y="530.25" class="st7" width="11.82" height="28.36"/>
			</g>
		</g>
		<g>
			<g>
				<rect x="1555.06" y="530.25" class="st8" width="11.82" height="21.43"/>
			</g>
		</g>
		<g>
			<g>
				<rect x="1541.92" y="530.25" class="st9" width="11.82" height="20.14"/>
			</g>
		</g>
		<g>
			<g>
				<rect x="1528.78" y="530.25" class="st2" width="11.82" height="21.35"/>
			</g>
		</g>
		<g>
			<g>
				<rect x="1515.64" y="530.25" class="st3" width="11.82" height="39.59"/>
			</g>
		</g>
		<g>
			<g>
				<rect x="1502.5" y="530.25" class="st4" width="11.82" height="94.85"/>
			</g>
		</g>
	</g>
	<g>
		<g>
		</g>
		<g>
		</g>
		<g>
		</g>
		<g>
		</g>
		<g>
		</g>
		<g>
		</g>
		<g>
		</g>
		<g>
		</g>
		<g>
		</g>
		<g>
		</g>
		<g>
		</g>
		<g>
		</g>
		<g>
		</g>
		<g>
		</g>
		<g>
		</g>
		<g>
		</g>
		<g>
		</g>
		<g>
		</g>
		<g>
		</g>
	</g>
</g>
<g>
	<path d="M33.35,82.66h-4.44v-1.71h4.44V82.66z"/>
	<path d="M38.66,85.79h-2.03v-7.82l-2.51,1.02v-2.04l4.54-1.83V85.79z"/>
	<path d="M49.72,80.54c0,3.4-2.03,5.44-4.53,5.44c-2.52,0-4.53-2.04-4.53-5.44c0-3.4,2.01-5.44,4.53-5.44
		C47.7,75.1,49.72,77.14,49.72,80.54z M42.77,80.54c0,2.3,1.07,3.5,2.42,3.5c1.35,0,2.42-1.2,2.42-3.5c0-2.3-1.07-3.5-2.42-3.5
		C43.84,77.04,42.77,78.24,42.77,80.54z"/>
</g>
<g>
	<path d="M31.14,137.46H26.7v-1.71h4.44V137.46z"/>
	<path d="M31.95,131.71c0.57-0.74,1.64-1.81,3.59-1.81c2.2,0,3.57,1.38,3.57,3.39c0,1.28-0.65,2.18-1.52,3.07l-2.24,2.33h4.02v1.9
		h-6.94v-1.58l3.72-3.81c0.56-0.56,0.86-1.14,0.86-1.8c0-0.92-0.64-1.57-1.61-1.57c-1,0-1.59,0.54-2.13,1.16L31.95,131.71z"/>
	<path d="M49.72,135.35c0,3.4-2.03,5.44-4.53,5.44c-2.52,0-4.53-2.04-4.53-5.44c0-3.4,2.01-5.44,4.53-5.44
		C47.7,129.9,49.72,131.95,49.72,135.35z M42.77,135.35c0,2.3,1.07,3.5,2.42,3.5c1.35,0,2.42-1.2,2.42-3.5c0-2.3-1.07-3.5-2.42-3.5
		C43.84,131.85,42.77,133.05,42.77,135.35z"/>
</g>
<g>
	<path d="M30.89,193.17h-4.44v-1.71h4.44V193.17z"/>
	<path d="M39.01,188.63c0,1.11-0.59,1.93-1.57,2.39c1.1,0.44,1.8,1.28,1.8,2.41c0,2.07-1.88,3.07-3.87,3.07
		c-1.58,0-2.88-0.56-3.67-1.52l1.21-1.33c0.61,0.64,1.49,1.01,2.39,1.01c1.02,0,1.84-0.44,1.84-1.37c0-0.9-0.92-1.37-2.06-1.37
		h-1.22v-1.8h1.23c1.02,0,1.84-0.45,1.84-1.34c0-0.85-0.77-1.31-1.74-1.31c-0.98,0-1.7,0.5-2.12,1.07l-1.28-1.28
		c0.69-0.93,1.83-1.63,3.51-1.63C37.5,185.61,39.01,186.81,39.01,188.63z"/>
	<path d="M49.72,191.05c0,3.4-2.03,5.44-4.53,5.44c-2.52,0-4.53-2.04-4.53-5.44c0-3.4,2.01-5.44,4.53-5.44
		C47.7,185.61,49.72,187.65,49.72,191.05z M42.77,191.05c0,2.3,1.07,3.5,2.42,3.5c1.35,0,2.42-1.2,2.42-3.5c0-2.3-1.07-3.5-2.42-3.5
		C43.84,187.55,42.77,188.76,42.77,191.05z"/>
</g>
<g>
	<path d="M30.08,248.88h-4.44v-1.71h4.44V248.88z"/>
	<path d="M38.12,248.2h1.46v1.89h-1.46v1.92H36.1v-1.92h-4.66v-1.47l3.69-7.11h2.25l-3.51,6.69h2.24v-2.8h2.03V248.2z"/>
	<path d="M49.72,246.76c0,3.4-2.03,5.44-4.53,5.44c-2.52,0-4.53-2.04-4.53-5.44c0-3.4,2.01-5.44,4.53-5.44
		C47.69,241.31,49.72,243.36,49.72,246.76z M42.77,246.76c0,2.3,1.07,3.5,2.42,3.5c1.35,0,2.42-1.2,2.42-3.5
		c0-2.3-1.07-3.5-2.42-3.5C43.84,243.26,42.77,244.46,42.77,246.76z"/>
</g>
<g>
	<path d="M30.37,305.48h-4.44v-1.71h4.44V305.48z"/>
	<path d="M38.62,299.99h-4.26l-0.04,2.1h1.21c2.45,0,3.68,1.4,3.68,3.16c0,2.26-1.71,3.55-3.84,3.55c-1.57,0-2.85-0.58-3.72-1.57
		l1.14-1.42c0.57,0.62,1.6,1.11,2.57,1.11c1.17,0,1.75-0.69,1.75-1.52c0-0.79-0.5-1.48-2.14-1.48h-2.5l0.11-5.82h6.04V299.99z"/>
	<path d="M49.72,303.36c0,3.4-2.03,5.44-4.53,5.44c-2.52,0-4.53-2.04-4.53-5.44c0-3.4,2.01-5.44,4.53-5.44
		C47.7,297.92,49.72,299.96,49.72,303.36z M42.77,303.36c0,2.3,1.07,3.5,2.42,3.5c1.35,0,2.42-1.2,2.42-3.5c0-2.3-1.07-3.5-2.42-3.5
		C43.84,299.86,42.77,301.06,42.77,303.36z"/>
</g>
<g>
	<path d="M99.32,227.7h-4.14v-1.6h4.14V227.7z"/>
	<path d="M106.9,223.46c0,1.04-0.55,1.8-1.46,2.23c1.03,0.41,1.68,1.19,1.68,2.25c0,1.93-1.76,2.86-3.61,2.86
		c-1.47,0-2.68-0.53-3.42-1.42l1.13-1.24c0.57,0.6,1.39,0.94,2.23,0.94c0.95,0,1.72-0.41,1.72-1.27c0-0.84-0.86-1.28-1.92-1.28
		h-1.14v-1.68h1.15c0.95,0,1.72-0.42,1.72-1.25c0-0.79-0.71-1.23-1.63-1.23c-0.91,0-1.58,0.47-1.98,1l-1.19-1.2
		c0.64-0.87,1.71-1.52,3.27-1.52C105.49,220.65,106.9,221.77,106.9,223.46z"/>
	<path d="M114.91,223.46c0,1.04-0.55,1.8-1.46,2.23c1.03,0.41,1.68,1.19,1.68,2.25c0,1.93-1.76,2.86-3.61,2.86
		c-1.47,0-2.68-0.53-3.42-1.42l1.13-1.24c0.57,0.6,1.39,0.94,2.23,0.94c0.95,0,1.72-0.41,1.72-1.27c0-0.84-0.86-1.28-1.92-1.28
		h-1.14v-1.68h1.15c0.95,0,1.72-0.42,1.72-1.25c0-0.79-0.71-1.23-1.63-1.23c-0.91,0-1.58,0.47-1.98,1l-1.19-1.2
		c0.64-0.87,1.71-1.52,3.27-1.52C113.5,220.65,114.91,221.77,114.91,223.46z"/>
	<path d="M119.03,229.44c0,0.74-0.63,1.37-1.35,1.37c-0.73,0-1.37-0.63-1.37-1.37c0-0.73,0.64-1.35,1.37-1.35
		C118.4,228.09,119.03,228.71,119.03,229.44z"/>
	<path d="M128.64,225.73c0,3.17-1.89,5.08-4.23,5.08c-2.35,0-4.22-1.9-4.22-5.08s1.88-5.08,4.22-5.08
		C126.75,220.65,128.64,222.55,128.64,225.73z M122.16,225.73c0,2.14,1,3.26,2.26,3.26c1.26,0,2.25-1.12,2.25-3.26
		c0-2.14-0.99-3.26-2.25-3.26C123.16,222.46,122.16,223.58,122.16,225.73z"/>
	<path d="M133.98,230.63h-1.89v-7.3l-2.35,0.95v-1.9l4.24-1.71V230.63z"/>
	<path d="M141.11,223.32c0,1.54-1.17,2.68-2.74,2.68c-1.56,0-2.73-1.14-2.73-2.68c0-1.53,1.17-2.67,2.73-2.67
		C139.94,220.65,141.11,221.79,141.11,223.32z M137.19,223.32c0,0.71,0.5,1.22,1.18,1.22c0.69,0,1.18-0.5,1.18-1.22
		c0-0.7-0.5-1.21-1.18-1.21C137.7,222.11,137.19,222.62,137.19,223.32z M139.67,230.63h-1.83l6.58-9.81h1.83L139.67,230.63z
		 M148.47,228.13c0,1.53-1.17,2.67-2.74,2.67c-1.56,0-2.73-1.14-2.73-2.67c0-1.51,1.17-2.68,2.73-2.68
		C147.3,225.45,148.47,226.6,148.47,228.13z M144.55,228.13c0,0.71,0.5,1.21,1.18,1.21c0.69,0,1.18-0.5,1.18-1.21
		c0-0.71-0.5-1.21-1.18-1.21C145.05,226.92,144.55,227.42,144.55,228.13z"/>
</g>
<g>
	<path d="M151.02,115.7h-4.14v-1.6h4.14V115.7z"/>
	<path d="M155.97,118.63h-1.89v-7.3l-2.35,0.95v-1.9l4.24-1.71V118.63z"/>
	<path d="M164.3,111.46c0,1.04-0.55,1.8-1.46,2.23c1.03,0.41,1.68,1.19,1.68,2.25c0,1.93-1.76,2.86-3.61,2.86
		c-1.47,0-2.68-0.53-3.42-1.42l1.13-1.24c0.57,0.6,1.39,0.94,2.23,0.94c0.95,0,1.72-0.41,1.72-1.27c0-0.84-0.86-1.28-1.92-1.28
		h-1.14v-1.68h1.15c0.95,0,1.72-0.42,1.72-1.25c0-0.79-0.71-1.23-1.63-1.23c-0.91,0-1.58,0.47-1.98,1l-1.19-1.2
		c0.64-0.87,1.71-1.52,3.27-1.52C162.9,108.65,164.3,109.77,164.3,111.46z"/>
	<path d="M168.42,117.44c0,0.74-0.63,1.37-1.35,1.37c-0.73,0-1.37-0.63-1.37-1.37c0-0.73,0.64-1.35,1.37-1.35
		C167.79,116.09,168.42,116.71,168.42,117.44z"/>
	<path d="M176.19,110.3l-4.06,8.33h-2.23l4.03-8.04h-4.66v-1.77h6.91V110.3z"/>
	<path d="M184.58,111.46c0,1.13-0.65,1.83-1.5,2.22c0.97,0.38,1.74,1.08,1.74,2.28c0,1.79-1.72,2.84-3.83,2.84
		c-2.11,0-3.83-1.06-3.83-2.84c0-1.2,0.76-1.9,1.73-2.28c-0.85-0.39-1.49-1.09-1.49-2.22c0-1.76,1.61-2.82,3.59-2.82
		C182.97,108.65,184.58,109.7,184.58,111.46z M179.2,115.8c0,0.86,0.81,1.32,1.79,1.32c0.97,0,1.79-0.46,1.79-1.32
		c0-0.88-0.82-1.34-1.79-1.34C180.01,114.45,179.2,114.92,179.2,115.8z M179.41,111.61c0,0.84,0.71,1.29,1.58,1.29
		s1.58-0.45,1.58-1.29c0-0.81-0.71-1.25-1.58-1.25S179.41,110.8,179.41,111.61z"/>
	<path d="M191.41,111.32c0,1.54-1.17,2.68-2.74,2.68c-1.56,0-2.73-1.14-2.73-2.68c0-1.53,1.17-2.67,2.73-2.67
		C190.24,108.65,191.41,109.79,191.41,111.32z M187.5,111.32c0,0.71,0.5,1.22,1.18,1.22c0.69,0,1.18-0.5,1.18-1.22
		c0-0.7-0.5-1.21-1.18-1.21C188,110.11,187.5,110.62,187.5,111.32z M189.98,118.63h-1.83l6.58-9.81h1.83L189.98,118.63z
		 M198.77,116.13c0,1.53-1.17,2.67-2.74,2.67c-1.56,0-2.73-1.14-2.73-2.67c0-1.51,1.17-2.68,2.73-2.68
		C197.6,113.45,198.77,114.6,198.77,116.13z M194.86,116.13c0,0.71,0.5,1.21,1.18,1.21c0.69,0,1.18-0.5,1.18-1.21
		c0-0.71-0.5-1.21-1.18-1.21C195.35,114.92,194.86,115.42,194.86,116.13z"/>
</g>
<g>
	<path d="M205.26,83.7h-4.14v-1.6h4.14V83.7z"/>
	<path d="M212.4,78.3l-4.06,8.33h-2.23l4.03-8.04h-4.66v-1.77h6.91V78.3z"/>
	<path d="M214.93,85.44c0,0.74-0.63,1.37-1.35,1.37c-0.73,0-1.37-0.63-1.37-1.37c0-0.73,0.64-1.35,1.37-1.35
		C214.3,84.09,214.93,84.71,214.93,85.44z"/>
	<path d="M222.18,83.07h1.37v1.76h-1.37v1.79h-1.89v-1.79h-4.35v-1.37l3.44-6.63h2.1l-3.28,6.24h2.09v-2.61h1.89V83.07z"/>
	<path d="M231.01,79.46c0,1.04-0.55,1.8-1.46,2.23c1.03,0.41,1.68,1.19,1.68,2.25c0,1.93-1.76,2.86-3.61,2.86
		c-1.47,0-2.68-0.53-3.42-1.42l1.13-1.24c0.57,0.6,1.39,0.94,2.23,0.94c0.95,0,1.72-0.41,1.72-1.27c0-0.84-0.86-1.28-1.92-1.28
		h-1.14v-1.68h1.15c0.95,0,1.72-0.42,1.72-1.25c0-0.79-0.71-1.23-1.63-1.23c-0.91,0-1.58,0.47-1.98,1l-1.19-1.2
		c0.64-0.87,1.71-1.52,3.27-1.52C229.6,76.65,231.01,77.77,231.01,79.46z"/>
	<path d="M237.82,79.32c0,1.54-1.17,2.68-2.74,2.68c-1.56,0-2.73-1.14-2.73-2.68c0-1.53,1.17-2.67,2.73-2.67
		C236.65,76.65,237.82,77.79,237.82,79.32z M233.91,79.32c0,0.71,0.5,1.22,1.18,1.22c0.69,0,1.18-0.5,1.18-1.22
		c0-0.7-0.5-1.21-1.18-1.21C234.41,78.11,233.91,78.62,233.91,79.32z M236.38,86.63h-1.83l6.58-9.81h1.83L236.38,86.63z
		 M245.18,84.13c0,1.53-1.17,2.67-2.74,2.67c-1.56,0-2.73-1.14-2.73-2.67c0-1.51,1.17-2.68,2.73-2.68
		C244.01,81.45,245.18,82.6,245.18,84.13z M241.27,84.13c0,0.71,0.5,1.21,1.18,1.21c0.69,0,1.18-0.5,1.18-1.21
		c0-0.71-0.5-1.21-1.18-1.21C241.76,82.92,241.27,83.42,241.27,84.13z"/>
</g>
<g>
	<path d="M305.11,86.7h-4.14v-1.6h4.14V86.7z"/>
	<path d="M312.25,81.3l-4.06,8.33h-2.23l4.03-8.04h-4.66v-1.77h6.91V81.3z"/>
	<path d="M314.78,88.44c0,0.74-0.63,1.37-1.35,1.37c-0.73,0-1.37-0.63-1.37-1.37c0-0.73,0.64-1.35,1.37-1.35
		C314.15,87.09,314.78,87.71,314.78,88.44z"/>
	<path d="M322.02,86.07h1.37v1.76h-1.37v1.79h-1.89v-1.79h-4.35v-1.37l3.44-6.63h2.1l-3.28,6.24h2.09v-2.61h1.89V86.07z"/>
	<path d="M327.67,83.23c0.13-0.01,0.29-0.03,0.46-0.03c1.99,0,3.4,1.42,3.4,3.26c0,1.92-1.58,3.34-3.69,3.34
		c-2.09,0-3.68-1.41-3.68-3.31c0-0.9,0.34-1.71,0.93-2.61l2.72-4.07h2.28L327.67,83.23z M326.13,86.48c0,0.95,0.74,1.61,1.71,1.61
		c0.99,0,1.72-0.66,1.72-1.61c0-0.95-0.74-1.61-1.72-1.61C326.86,84.87,326.13,85.53,326.13,86.48z"/>
	<path d="M337.97,82.32c0,1.54-1.17,2.68-2.74,2.68c-1.56,0-2.73-1.14-2.73-2.68c0-1.53,1.17-2.67,2.73-2.67
		C336.8,79.65,337.97,80.79,337.97,82.32z M334.06,82.32c0,0.71,0.5,1.22,1.18,1.22c0.69,0,1.18-0.5,1.18-1.22
		c0-0.7-0.5-1.21-1.18-1.21C334.56,81.11,334.06,81.62,334.06,82.32z M336.53,89.63h-1.83l6.58-9.81h1.83L336.53,89.63z
		 M345.33,87.13c0,1.53-1.17,2.67-2.74,2.67c-1.56,0-2.73-1.14-2.73-2.67c0-1.51,1.17-2.68,2.73-2.68
		C344.16,84.45,345.33,85.6,345.33,87.13z M341.42,87.13c0,0.71,0.5,1.21,1.18,1.21c0.69,0,1.18-0.5,1.18-1.21
		c0-0.71-0.5-1.21-1.18-1.21C341.91,85.92,341.42,86.42,341.42,87.13z"/>
</g>
<g>
	<path d="M357.19,93.7h-4.14v-1.6h4.14V93.7z"/>
	<path d="M362.13,93.22c-0.13,0.02-0.27,0.03-0.44,0.03c-1.99,0-3.4-1.42-3.4-3.26c0-1.92,1.58-3.34,3.68-3.34
		c2.09,0,3.68,1.41,3.68,3.31c0,0.9-0.34,1.72-0.93,2.61l-2.72,4.07h-2.28L362.13,93.22z M363.69,89.98c0-0.95-0.74-1.61-1.72-1.61
		c-0.99,0-1.72,0.66-1.72,1.61c0,0.95,0.73,1.61,1.72,1.61C362.95,91.59,363.69,90.92,363.69,89.98z"/>
	<path d="M368.73,95.44c0,0.74-0.63,1.37-1.35,1.37c-0.73,0-1.37-0.63-1.37-1.37c0-0.73,0.64-1.35,1.37-1.35
		C368.1,94.09,368.73,94.71,368.73,95.44z"/>
	<path d="M377.35,89.46c0,1.13-0.65,1.83-1.5,2.22c0.97,0.38,1.74,1.08,1.74,2.28c0,1.79-1.72,2.84-3.83,2.84
		c-2.11,0-3.83-1.06-3.83-2.84c0-1.2,0.76-1.9,1.73-2.28c-0.85-0.39-1.49-1.09-1.49-2.22c0-1.76,1.61-2.82,3.59-2.82
		C375.74,86.65,377.35,87.7,377.35,89.46z M371.97,93.8c0,0.86,0.81,1.32,1.79,1.32c0.97,0,1.79-0.46,1.79-1.32
		c0-0.88-0.82-1.34-1.79-1.34C372.78,92.46,371.97,92.92,371.97,93.8z M372.18,89.61c0,0.84,0.71,1.29,1.58,1.29
		s1.58-0.45,1.58-1.29c0-0.81-0.71-1.25-1.58-1.25S372.18,88.8,372.18,89.61z"/>
	<path d="M385.54,88.3l-4.06,8.33h-2.23l4.03-8.04h-4.66v-1.77h6.91V88.3z"/>
	<path d="M391.88,89.32c0,1.54-1.17,2.68-2.74,2.68c-1.56,0-2.73-1.14-2.73-2.68c0-1.53,1.17-2.67,2.73-2.67
		C390.71,86.65,391.88,87.79,391.88,89.32z M387.97,89.32c0,0.71,0.5,1.22,1.18,1.22c0.69,0,1.18-0.5,1.18-1.22
		c0-0.7-0.5-1.21-1.18-1.21C388.47,88.11,387.97,88.62,387.97,89.32z M390.45,96.63h-1.83l6.58-9.81h1.83L390.45,96.63z
		 M399.25,94.13c0,1.53-1.17,2.67-2.74,2.67c-1.56,0-2.73-1.14-2.73-2.67c0-1.51,1.17-2.68,2.73-2.68
		C398.08,91.45,399.25,92.6,399.25,94.13z M395.33,94.13c0,0.71,0.5,1.21,1.18,1.21c0.69,0,1.18-0.5,1.18-1.21
		c0-0.71-0.5-1.21-1.18-1.21C395.83,92.92,395.33,93.42,395.33,94.13z"/>
</g>
<g>
	<path d="M610.96,93.7h-4.14v-1.6h4.14V93.7z"/>
	<path d="M615.9,93.22c-0.13,0.02-0.27,0.03-0.44,0.03c-1.99,0-3.4-1.42-3.4-3.26c0-1.92,1.58-3.34,3.68-3.34
		c2.09,0,3.68,1.41,3.68,3.31c0,0.9-0.34,1.72-0.93,2.61l-2.72,4.07h-2.28L615.9,93.22z M617.46,89.98c0-0.95-0.74-1.61-1.72-1.61
		c-0.99,0-1.72,0.66-1.72,1.61c0,0.95,0.73,1.61,1.72,1.61C616.72,91.59,617.46,90.92,617.46,89.98z"/>
	<path d="M622.5,95.44c0,0.74-0.63,1.37-1.35,1.37c-0.73,0-1.37-0.63-1.37-1.37c0-0.73,0.64-1.35,1.37-1.35
		C621.87,94.09,622.5,94.71,622.5,95.44z"/>
	<path d="M630.06,88.58h-3.97l-0.04,1.96h1.13c2.28,0,3.43,1.31,3.43,2.95c0,2.11-1.6,3.31-3.58,3.31c-1.46,0-2.66-0.55-3.47-1.46
		l1.06-1.32c0.53,0.58,1.49,1.04,2.4,1.04c1.09,0,1.63-0.64,1.63-1.42c0-0.74-0.46-1.38-2-1.38h-2.33l0.1-5.43h5.64V88.58z"/>
	<path d="M639.29,89.46c0,1.13-0.65,1.83-1.5,2.22c0.97,0.38,1.74,1.08,1.74,2.28c0,1.79-1.72,2.84-3.83,2.84
		c-2.11,0-3.83-1.06-3.83-2.84c0-1.2,0.76-1.9,1.73-2.28c-0.85-0.39-1.49-1.09-1.49-2.22c0-1.76,1.61-2.82,3.59-2.82
		C637.67,86.65,639.29,87.7,639.29,89.46z M633.9,93.8c0,0.86,0.81,1.32,1.79,1.32c0.97,0,1.79-0.46,1.79-1.32
		c0-0.88-0.82-1.34-1.79-1.34C634.71,92.46,633.9,92.92,633.9,93.8z M634.11,89.61c0,0.84,0.71,1.29,1.58,1.29
		c0.88,0,1.58-0.45,1.58-1.29c0-0.81-0.71-1.25-1.58-1.25C634.82,88.36,634.11,88.8,634.11,89.61z"/>
	<path d="M646.12,89.32c0,1.54-1.17,2.68-2.74,2.68c-1.56,0-2.73-1.14-2.73-2.68c0-1.53,1.17-2.67,2.73-2.67
		C644.95,86.65,646.12,87.79,646.12,89.32z M642.2,89.32c0,0.71,0.5,1.22,1.18,1.22c0.69,0,1.18-0.5,1.18-1.22
		c0-0.7-0.5-1.21-1.18-1.21C642.71,88.11,642.2,88.62,642.2,89.32z M644.68,96.63h-1.83l6.58-9.81h1.83L644.68,96.63z M653.48,94.13
		c0,1.53-1.17,2.67-2.74,2.67c-1.56,0-2.73-1.14-2.73-2.67c0-1.51,1.17-2.68,2.73-2.68C652.31,91.45,653.48,92.6,653.48,94.13z
		 M649.56,94.13c0,0.71,0.5,1.21,1.18,1.21c0.69,0,1.18-0.5,1.18-1.21c0-0.71-0.5-1.21-1.18-1.21
		C650.06,92.92,649.56,93.42,649.56,94.13z"/>
</g>
<g>
	<path d="M757.51,112.7h-4.14v-1.6h4.14V112.7z"/>
	<path d="M762.47,115.63h-1.89v-7.3l-2.35,0.95v-1.9l4.24-1.71V115.63z"/>
	<path d="M764.08,107.34c0.53-0.69,1.53-1.69,3.35-1.69c2.05,0,3.33,1.29,3.33,3.17c0,1.2-0.61,2.03-1.42,2.86l-2.09,2.18H771v1.77
		h-6.48v-1.48l3.47-3.55c0.52-0.53,0.81-1.07,0.81-1.68c0-0.85-0.6-1.46-1.5-1.46c-0.93,0-1.48,0.5-1.99,1.08L764.08,107.34z"/>
	<path d="M775.01,114.44c0,0.74-0.63,1.37-1.35,1.37c-0.73,0-1.37-0.63-1.37-1.37c0-0.73,0.64-1.35,1.37-1.35
		C774.38,113.09,775.01,113.71,775.01,114.44z"/>
	<path d="M784.62,110.73c0,3.17-1.89,5.08-4.23,5.08c-2.35,0-4.22-1.9-4.22-5.08s1.88-5.08,4.22-5.08
		C782.73,105.65,784.62,107.55,784.62,110.73z M778.13,110.73c0,2.14,1,3.26,2.25,3.26c1.26,0,2.25-1.12,2.25-3.26
		c0-2.14-0.99-3.26-2.25-3.26C779.14,107.46,778.13,108.58,778.13,110.73z"/>
	<path d="M791.93,112.07h1.37v1.76h-1.37v1.79h-1.89v-1.79h-4.35v-1.37l3.44-6.63h2.1l-3.28,6.24h2.09v-2.61h1.89V112.07z"/>
	<path d="M799.56,108.32c0,1.54-1.17,2.68-2.74,2.68c-1.56,0-2.73-1.14-2.73-2.68c0-1.53,1.17-2.67,2.73-2.67
		C798.39,105.65,799.56,106.79,799.56,108.32z M795.65,108.32c0,0.71,0.5,1.22,1.18,1.22c0.69,0,1.18-0.5,1.18-1.22
		c0-0.7-0.5-1.21-1.18-1.21C796.15,107.11,795.65,107.62,795.65,108.32z M798.13,115.63h-1.84l6.58-9.81h1.83L798.13,115.63z
		 M806.92,113.13c0,1.53-1.17,2.67-2.74,2.67c-1.56,0-2.73-1.14-2.73-2.67c0-1.51,1.17-2.68,2.73-2.68
		C805.75,110.45,806.92,111.6,806.92,113.13z M803.01,113.13c0,0.71,0.5,1.21,1.18,1.21c0.69,0,1.18-0.5,1.18-1.21
		c0-0.71-0.5-1.21-1.18-1.21C803.51,111.92,803.01,112.42,803.01,113.13z"/>
</g>
<g>
	<path d="M810.89,94.7h-4.14v-1.6h4.14V94.7z"/>
	<path d="M815.85,97.63h-1.89v-7.3l-2.35,0.95v-1.9l4.24-1.71V97.63z"/>
	<path d="M826.17,92.73c0,3.17-1.89,5.08-4.23,5.08c-2.35,0-4.22-1.9-4.22-5.08s1.88-5.08,4.22-5.08
		C824.28,87.65,826.17,89.55,826.17,92.73z M819.68,92.73c0,2.14,1,3.26,2.25,3.26c1.26,0,2.25-1.12,2.25-3.26
		c0-2.14-0.99-3.26-2.25-3.26C820.68,89.46,819.68,90.58,819.68,92.73z"/>
	<path d="M830.04,96.44c0,0.74-0.63,1.37-1.35,1.37c-0.73,0-1.37-0.63-1.37-1.37c0-0.73,0.64-1.35,1.37-1.35
		C829.41,95.09,830.04,95.71,830.04,96.44z"/>
	<path d="M831.08,89.34c0.53-0.69,1.53-1.69,3.35-1.69c2.05,0,3.33,1.29,3.33,3.17c0,1.2-0.61,2.03-1.42,2.86l-2.09,2.18H838v1.77
		h-6.48v-1.48l3.47-3.55c0.52-0.53,0.81-1.07,0.81-1.68c0-0.85-0.6-1.46-1.5-1.46c-0.93,0-1.48,0.5-1.99,1.08L831.08,89.34z"/>
	<path d="M845.84,89.3l-4.06,8.33h-2.23l4.03-8.04h-4.66v-1.77h6.91V89.3z"/>
	<path d="M852.19,90.32c0,1.54-1.17,2.68-2.74,2.68c-1.56,0-2.73-1.14-2.73-2.68c0-1.53,1.17-2.67,2.73-2.67
		C851.02,87.65,852.19,88.79,852.19,90.32z M848.27,90.32c0,0.71,0.5,1.22,1.18,1.22c0.69,0,1.18-0.5,1.18-1.22
		c0-0.7-0.5-1.21-1.18-1.21C848.77,89.11,848.27,89.62,848.27,90.32z M850.75,97.63h-1.83l6.58-9.81h1.83L850.75,97.63z
		 M859.55,95.13c0,1.53-1.17,2.67-2.74,2.67c-1.56,0-2.73-1.14-2.73-2.67c0-1.51,1.17-2.68,2.73-2.68
		C858.38,92.45,859.55,93.6,859.55,95.13z M855.63,95.13c0,0.71,0.5,1.21,1.18,1.21c0.69,0,1.18-0.5,1.18-1.21
		c0-0.71-0.5-1.21-1.18-1.21C856.13,93.92,855.63,94.42,855.63,95.13z"/>
</g>
<g>
	<path d="M964.97,76.7h-4.14v-1.6h4.14V76.7z"/>
	<path d="M969.84,73.23c0.13-0.01,0.29-0.03,0.46-0.03c1.99,0,3.4,1.42,3.4,3.26c0,1.92-1.58,3.34-3.69,3.34
		c-2.09,0-3.68-1.41-3.68-3.31c0-0.9,0.34-1.71,0.93-2.61l2.72-4.07h2.28L969.84,73.23z M968.29,76.48c0,0.95,0.73,1.61,1.71,1.61
		c0.99,0,1.72-0.66,1.72-1.61c0-0.95-0.74-1.61-1.72-1.61C969.02,74.87,968.29,75.53,968.29,76.48z"/>
	<path d="M977.45,78.44c0,0.74-0.63,1.37-1.35,1.37c-0.73,0-1.37-0.63-1.37-1.37c0-0.73,0.64-1.35,1.37-1.35
		C976.81,77.09,977.45,77.71,977.45,78.44z"/>
	<path d="M981.97,73.23c0.13-0.01,0.29-0.03,0.46-0.03c1.99,0,3.4,1.42,3.4,3.26c0,1.92-1.58,3.34-3.69,3.34
		c-2.09,0-3.68-1.41-3.68-3.31c0-0.9,0.34-1.71,0.93-2.61l2.72-4.07h2.28L981.97,73.23z M980.43,76.48c0,0.95,0.74,1.61,1.71,1.61
		c0.99,0,1.72-0.66,1.72-1.61c0-0.95-0.73-1.61-1.72-1.61C981.16,74.87,980.43,75.53,980.43,76.48z"/>
	<path d="M986.7,71.34c0.53-0.69,1.53-1.69,3.35-1.69c2.05,0,3.33,1.29,3.33,3.17c0,1.2-0.61,2.03-1.42,2.86l-2.09,2.18h3.75v1.77
		h-6.48v-1.48l3.47-3.55c0.52-0.53,0.81-1.07,0.81-1.68c0-0.85-0.6-1.46-1.5-1.46c-0.93,0-1.48,0.5-1.99,1.08L986.7,71.34z"/>
	<path d="M1000.1,72.32c0,1.54-1.17,2.68-2.74,2.68c-1.56,0-2.73-1.14-2.73-2.68c0-1.53,1.17-2.67,2.73-2.67
		C998.93,69.65,1000.1,70.79,1000.1,72.32z M996.19,72.32c0,0.71,0.5,1.22,1.18,1.22c0.69,0,1.18-0.5,1.18-1.22
		c0-0.7-0.5-1.21-1.18-1.21C996.69,71.11,996.19,71.62,996.19,72.32z M998.67,79.63h-1.83l6.58-9.81h1.83L998.67,79.63z
		 M1007.46,77.13c0,1.53-1.17,2.67-2.74,2.67c-1.56,0-2.73-1.14-2.73-2.67c0-1.51,1.17-2.68,2.73-2.68
		C1006.3,74.45,1007.46,75.6,1007.46,77.13z M1003.55,77.13c0,0.71,0.5,1.21,1.18,1.21c0.69,0,1.18-0.5,1.18-1.21
		c0-0.71-0.5-1.21-1.18-1.21C1004.05,75.92,1003.55,76.42,1003.55,77.13z"/>
</g>
<g>
	<path d="M1012.5,226.7h-4.14v-1.6h4.14V226.7z"/>
	<path d="M1020.08,222.46c0,1.04-0.55,1.8-1.46,2.23c1.03,0.41,1.68,1.19,1.68,2.25c0,1.93-1.76,2.86-3.61,2.86
		c-1.47,0-2.68-0.53-3.43-1.42l1.13-1.24c0.57,0.6,1.39,0.94,2.23,0.94c0.95,0,1.72-0.41,1.72-1.27c0-0.84-0.86-1.28-1.92-1.28
		h-1.14v-1.68h1.15c0.95,0,1.72-0.42,1.72-1.25c0-0.79-0.71-1.23-1.63-1.23s-1.58,0.47-1.98,1l-1.19-1.2
		c0.64-0.87,1.71-1.52,3.27-1.52C1018.67,219.65,1020.08,220.77,1020.08,222.46z"/>
	<path d="M1028.09,222.46c0,1.04-0.55,1.8-1.46,2.23c1.03,0.41,1.68,1.19,1.68,2.25c0,1.93-1.76,2.86-3.61,2.86
		c-1.47,0-2.68-0.53-3.43-1.42l1.13-1.24c0.57,0.6,1.39,0.94,2.23,0.94c0.95,0,1.72-0.41,1.72-1.27c0-0.84-0.86-1.28-1.92-1.28
		h-1.14v-1.68h1.15c0.95,0,1.72-0.42,1.72-1.25c0-0.79-0.71-1.23-1.63-1.23s-1.58,0.47-1.98,1l-1.19-1.2
		c0.64-0.87,1.71-1.52,3.27-1.52C1026.68,219.65,1028.09,220.77,1028.09,222.46z"/>
	<path d="M1032.21,228.44c0,0.74-0.63,1.37-1.35,1.37c-0.73,0-1.37-0.63-1.37-1.37c0-0.73,0.64-1.35,1.37-1.35
		C1031.58,227.09,1032.21,227.71,1032.21,228.44z"/>
	<path d="M1039.98,221.3l-4.06,8.33h-2.23l4.03-8.04h-4.66v-1.77h6.91V221.3z"/>
	<path d="M1044.63,226.22c-0.13,0.02-0.27,0.03-0.44,0.03c-1.99,0-3.4-1.42-3.4-3.26c0-1.92,1.58-3.34,3.68-3.34
		c2.09,0,3.68,1.41,3.68,3.31c0,0.9-0.34,1.72-0.93,2.61l-2.72,4.07h-2.28L1044.63,226.22z M1046.19,222.98
		c0-0.95-0.74-1.61-1.72-1.61c-0.99,0-1.72,0.66-1.72,1.61c0,0.95,0.73,1.61,1.72,1.61
		C1045.46,224.59,1046.19,223.92,1046.19,222.98z"/>
	<path d="M1054.58,222.32c0,1.54-1.17,2.68-2.74,2.68c-1.56,0-2.73-1.14-2.73-2.68c0-1.53,1.17-2.67,2.73-2.67
		C1053.41,219.65,1054.58,220.79,1054.58,222.32z M1050.66,222.32c0,0.71,0.5,1.22,1.18,1.22c0.69,0,1.18-0.5,1.18-1.22
		c0-0.7-0.5-1.21-1.18-1.21C1051.17,221.11,1050.66,221.62,1050.66,222.32z M1053.14,229.63h-1.83l6.58-9.81h1.83L1053.14,229.63z
		 M1061.94,227.13c0,1.53-1.17,2.67-2.74,2.67c-1.56,0-2.73-1.14-2.73-2.67c0-1.51,1.17-2.68,2.73-2.68
		C1060.77,224.45,1061.94,225.6,1061.94,227.13z M1058.02,227.13c0,0.71,0.5,1.21,1.18,1.21c0.69,0,1.18-0.5,1.18-1.21
		c0-0.71-0.5-1.21-1.18-1.21C1058.52,225.92,1058.02,226.42,1058.02,227.13z"/>
</g>
<g>
	<path d="M913.62,145.7h-4.14v-1.6h4.14V145.7z"/>
	<path d="M918.57,148.63h-1.89v-7.3l-2.35,0.95v-1.9l4.24-1.71V148.63z"/>
	<path d="M924.02,145.22c-0.13,0.02-0.27,0.03-0.44,0.03c-1.99,0-3.4-1.42-3.4-3.26c0-1.92,1.58-3.34,3.68-3.34
		c2.09,0,3.68,1.41,3.68,3.31c0,0.9-0.34,1.72-0.93,2.61l-2.72,4.07h-2.28L924.02,145.22z M925.58,141.98
		c0-0.95-0.74-1.61-1.72-1.61c-0.99,0-1.72,0.66-1.72,1.61c0,0.95,0.73,1.61,1.72,1.61C924.84,143.59,925.58,142.92,925.58,141.98z"
		/>
	<path d="M930.63,147.44c0,0.74-0.63,1.37-1.35,1.37c-0.73,0-1.37-0.63-1.37-1.37c0-0.73,0.64-1.35,1.37-1.35
		C930,146.09,930.63,146.71,930.63,147.44z"/>
	<path d="M938.39,141.46c0,1.04-0.55,1.8-1.46,2.23c1.03,0.41,1.68,1.19,1.68,2.25c0,1.93-1.76,2.86-3.61,2.86
		c-1.47,0-2.68-0.53-3.43-1.42l1.13-1.24c0.57,0.6,1.39,0.94,2.23,0.94c0.95,0,1.72-0.41,1.72-1.27c0-0.84-0.86-1.28-1.92-1.28
		h-1.14v-1.68h1.15c0.95,0,1.72-0.42,1.72-1.25c0-0.79-0.71-1.23-1.63-1.23s-1.58,0.47-1.98,1l-1.19-1.2
		c0.64-0.87,1.71-1.52,3.27-1.52C936.98,138.65,938.39,139.77,938.39,141.46z"/>
	<path d="M943.16,142.23c0.13-0.01,0.29-0.03,0.46-0.03c1.99,0,3.4,1.42,3.4,3.26c0,1.92-1.58,3.34-3.69,3.34
		c-2.09,0-3.68-1.41-3.68-3.31c0-0.9,0.34-1.71,0.93-2.61l2.72-4.07h2.28L943.16,142.23z M941.62,145.48c0,0.95,0.73,1.61,1.71,1.61
		c0.99,0,1.72-0.66,1.72-1.61c0-0.95-0.74-1.61-1.72-1.61C942.35,143.87,941.62,144.53,941.62,145.48z"/>
	<path d="M953.46,141.32c0,1.54-1.17,2.68-2.74,2.68c-1.56,0-2.73-1.14-2.73-2.68c0-1.53,1.17-2.67,2.73-2.67
		C952.29,138.65,953.46,139.79,953.46,141.32z M949.54,141.32c0,0.71,0.5,1.22,1.18,1.22c0.69,0,1.18-0.5,1.18-1.22
		c0-0.7-0.5-1.21-1.18-1.21C950.05,140.11,949.54,140.62,949.54,141.32z M952.02,148.63h-1.83l6.58-9.81h1.83L952.02,148.63z
		 M960.82,146.13c0,1.53-1.17,2.67-2.74,2.67c-1.56,0-2.73-1.14-2.73-2.67c0-1.51,1.17-2.68,2.73-2.68
		C959.65,143.45,960.82,144.6,960.82,146.13z M956.91,146.13c0,0.71,0.5,1.21,1.18,1.21c0.69,0,1.18-0.5,1.18-1.21
		c0-0.71-0.5-1.21-1.18-1.21C957.4,144.92,956.91,145.42,956.91,146.13z"/>
</g>
<g>
	<path d="M863.89,51.7h-4.14v-1.6h4.14V51.7z"/>
	<path d="M864.65,46.34c0.53-0.69,1.53-1.69,3.35-1.69c2.05,0,3.33,1.29,3.33,3.17c0,1.2-0.61,2.03-1.42,2.86l-2.09,2.18h3.75v1.77
		h-6.48v-1.48l3.47-3.55c0.52-0.53,0.81-1.07,0.81-1.68c0-0.85-0.6-1.46-1.5-1.46c-0.93,0-1.48,0.5-1.99,1.08L864.65,46.34z"/>
	<path d="M875.57,53.44c0,0.74-0.63,1.37-1.35,1.37c-0.73,0-1.37-0.63-1.37-1.37c0-0.73,0.64-1.35,1.37-1.35
		C874.94,52.09,875.57,52.71,875.57,53.44z"/>
	<path d="M883.13,46.58h-3.97l-0.04,1.96h1.13c2.28,0,3.43,1.31,3.43,2.95c0,2.11-1.6,3.31-3.58,3.31c-1.46,0-2.66-0.55-3.47-1.46
		l1.06-1.32c0.53,0.58,1.49,1.04,2.4,1.04c1.09,0,1.63-0.64,1.63-1.42c0-0.74-0.46-1.38-2-1.38h-2.33l0.1-5.43h5.64V46.58z"/>
	<path d="M892.35,47.46c0,1.13-0.65,1.83-1.5,2.22c0.97,0.38,1.74,1.08,1.74,2.28c0,1.79-1.72,2.84-3.83,2.84
		c-2.11,0-3.83-1.06-3.83-2.84c0-1.2,0.76-1.9,1.73-2.28c-0.85-0.39-1.49-1.09-1.49-2.22c0-1.76,1.61-2.82,3.59-2.82
		C890.74,44.65,892.35,45.7,892.35,47.46z M886.96,51.8c0,0.86,0.81,1.32,1.79,1.32c0.97,0,1.79-0.46,1.79-1.32
		c0-0.88-0.82-1.34-1.79-1.34C887.78,50.46,886.96,50.92,886.96,51.8z M887.18,47.61c0,0.84,0.71,1.29,1.58,1.29
		c0.88,0,1.58-0.45,1.58-1.29c0-0.81-0.71-1.25-1.58-1.25C887.88,46.36,887.18,46.8,887.18,47.61z"/>
	<path d="M899.18,47.32c0,1.54-1.17,2.68-2.74,2.68c-1.56,0-2.73-1.14-2.73-2.68c0-1.53,1.17-2.67,2.73-2.67
		C898.01,44.65,899.18,45.79,899.18,47.32z M895.27,47.32c0,0.71,0.5,1.22,1.18,1.22c0.69,0,1.18-0.5,1.18-1.22
		c0-0.7-0.5-1.21-1.18-1.21C895.77,46.11,895.27,46.62,895.27,47.32z M897.75,54.63h-1.83l6.58-9.81h1.83L897.75,54.63z
		 M906.54,52.13c0,1.53-1.17,2.67-2.74,2.67c-1.56,0-2.73-1.14-2.73-2.67c0-1.51,1.17-2.68,2.73-2.68
		C905.37,49.45,906.54,50.6,906.54,52.13z M902.63,52.13c0,0.71,0.5,1.21,1.18,1.21c0.69,0,1.18-0.5,1.18-1.21
		c0-0.71-0.5-1.21-1.18-1.21C903.13,50.92,902.63,51.42,902.63,52.13z"/>
</g>
<g>
	<path d="M711.04,79.7h-4.14v-1.6h4.14V79.7z"/>
	<path d="M718.18,74.3l-4.06,8.33h-2.23l4.03-8.04h-4.66v-1.77h6.91V74.3z"/>
	<path d="M720.71,81.44c0,0.74-0.63,1.37-1.35,1.37c-0.73,0-1.37-0.63-1.37-1.37c0-0.73,0.64-1.35,1.37-1.35
		C720.08,80.09,720.71,80.71,720.71,81.44z"/>
	<path d="M721.76,74.34c0.53-0.69,1.53-1.69,3.35-1.69c2.05,0,3.33,1.29,3.33,3.17c0,1.2-0.61,2.03-1.41,2.86l-2.09,2.18h3.75v1.77
		h-6.48v-1.48l3.47-3.55c0.52-0.53,0.81-1.07,0.81-1.68c0-0.85-0.59-1.46-1.5-1.46c-0.93,0-1.48,0.5-1.99,1.08L721.76,74.34z"/>
	<path d="M737.21,75.46c0,1.13-0.65,1.83-1.5,2.22c0.97,0.38,1.74,1.08,1.74,2.28c0,1.79-1.72,2.84-3.83,2.84
		c-2.11,0-3.83-1.06-3.83-2.84c0-1.2,0.76-1.9,1.73-2.28c-0.85-0.39-1.49-1.09-1.49-2.22c0-1.76,1.61-2.82,3.59-2.82
		S737.21,73.7,737.21,75.46z M731.82,79.8c0,0.86,0.81,1.32,1.79,1.32c0.97,0,1.79-0.46,1.79-1.32c0-0.88-0.82-1.34-1.79-1.34
		C732.64,78.46,731.82,78.92,731.82,79.8z M732.04,75.61c0,0.84,0.71,1.29,1.58,1.29s1.58-0.45,1.58-1.29
		c0-0.81-0.71-1.25-1.58-1.25S732.04,74.8,732.04,75.61z"/>
	<path d="M744.04,75.32c0,1.54-1.17,2.68-2.74,2.68c-1.56,0-2.73-1.14-2.73-2.68c0-1.53,1.17-2.67,2.73-2.67
		C742.87,72.65,744.04,73.79,744.04,75.32z M740.13,75.32c0,0.71,0.5,1.22,1.18,1.22c0.69,0,1.18-0.5,1.18-1.22
		c0-0.7-0.5-1.21-1.18-1.21C740.63,74.11,740.13,74.62,740.13,75.32z M742.61,82.63h-1.84l6.58-9.81h1.83L742.61,82.63z
		 M751.4,80.13c0,1.53-1.17,2.67-2.74,2.67c-1.56,0-2.73-1.14-2.73-2.67c0-1.51,1.17-2.68,2.73-2.68
		C750.23,77.45,751.4,78.6,751.4,80.13z M747.49,80.13c0,0.71,0.5,1.21,1.18,1.21c0.69,0,1.18-0.5,1.18-1.21
		c0-0.71-0.5-1.21-1.18-1.21C747.98,78.92,747.49,79.42,747.49,80.13z"/>
</g>
<g>
	<path d="M660.64,69.7h-4.14v-1.6h4.14V69.7z"/>
	<path d="M668.34,64.58h-3.97l-0.04,1.96h1.13c2.28,0,3.43,1.31,3.43,2.95c0,2.11-1.6,3.31-3.58,3.31c-1.46,0-2.66-0.55-3.47-1.46
		l1.06-1.32c0.53,0.58,1.49,1.04,2.4,1.04c1.09,0,1.63-0.64,1.63-1.42c0-0.74-0.46-1.38-2-1.38h-2.33l0.11-5.43h5.64V64.58z"/>
	<path d="M672.83,71.44c0,0.74-0.63,1.37-1.35,1.37c-0.73,0-1.37-0.63-1.37-1.37c0-0.73,0.64-1.35,1.37-1.35
		C672.2,70.09,672.83,70.71,672.83,71.44z"/>
	<path d="M680.38,64.58h-3.97l-0.04,1.96h1.13c2.28,0,3.43,1.31,3.43,2.95c0,2.11-1.6,3.31-3.58,3.31c-1.46,0-2.66-0.55-3.47-1.46
		l1.06-1.32c0.53,0.58,1.49,1.04,2.4,1.04c1.09,0,1.63-0.64,1.63-1.42c0-0.74-0.46-1.38-2-1.38h-2.33l0.1-5.43h5.64V64.58z"/>
	<path d="M689.61,65.46c0,1.13-0.65,1.83-1.5,2.22c0.97,0.38,1.74,1.08,1.74,2.28c0,1.79-1.72,2.84-3.83,2.84
		c-2.11,0-3.83-1.06-3.83-2.84c0-1.2,0.76-1.9,1.73-2.28c-0.85-0.39-1.49-1.09-1.49-2.22c0-1.76,1.61-2.82,3.59-2.82
		C688,62.65,689.61,63.7,689.61,65.46z M684.22,69.8c0,0.86,0.81,1.32,1.79,1.32c0.97,0,1.79-0.46,1.79-1.32
		c0-0.88-0.82-1.34-1.79-1.34C685.03,68.46,684.22,68.92,684.22,69.8z M684.43,65.61c0,0.84,0.71,1.29,1.58,1.29
		c0.88,0,1.58-0.45,1.58-1.29c0-0.81-0.71-1.25-1.58-1.25C685.14,64.36,684.43,64.8,684.43,65.61z"/>
	<path d="M696.44,65.32c0,1.54-1.17,2.68-2.74,2.68c-1.56,0-2.73-1.14-2.73-2.68c0-1.53,1.17-2.67,2.73-2.67
		C695.27,62.65,696.44,63.79,696.44,65.32z M692.52,65.32c0,0.71,0.5,1.22,1.18,1.22c0.69,0,1.18-0.5,1.18-1.22
		c0-0.7-0.5-1.21-1.18-1.21C693.03,64.11,692.52,64.62,692.52,65.32z M695,72.63h-1.83l6.58-9.81h1.83L695,72.63z M703.8,70.13
		c0,1.53-1.17,2.67-2.74,2.67c-1.56,0-2.73-1.14-2.73-2.67c0-1.51,1.17-2.68,2.73-2.68C702.63,67.45,703.8,68.6,703.8,70.13z
		 M699.88,70.13c0,0.71,0.5,1.21,1.18,1.21c0.69,0,1.18-0.5,1.18-1.21c0-0.71-0.5-1.21-1.18-1.21
		C700.38,68.92,699.88,69.42,699.88,70.13z"/>
</g>
<g>
	<path d="M456.6,191.7h-4.14v-1.6h4.14V191.7z"/>
	<path d="M457.35,186.34c0.53-0.69,1.53-1.69,3.35-1.69c2.05,0,3.33,1.29,3.33,3.17c0,1.2-0.61,2.03-1.42,2.86l-2.09,2.18h3.75v1.77
		h-6.48v-1.48l3.47-3.55c0.52-0.53,0.81-1.07,0.81-1.68c0-0.85-0.6-1.46-1.5-1.46c-0.93,0-1.48,0.5-1.99,1.08L457.35,186.34z"/>
	<path d="M472.11,186.3l-4.06,8.33h-2.23l4.03-8.04h-4.66v-1.77h6.91V186.3z"/>
	<path d="M474.64,193.44c0,0.74-0.63,1.37-1.35,1.37c-0.73,0-1.37-0.63-1.37-1.37c0-0.73,0.64-1.35,1.37-1.35
		C474.01,192.09,474.64,192.71,474.64,193.44z"/>
	<path d="M479.08,194.63h-1.89v-7.3l-2.35,0.95v-1.9l4.24-1.71V194.63z"/>
	<path d="M484.53,191.22c-0.13,0.02-0.27,0.03-0.44,0.03c-1.99,0-3.4-1.42-3.4-3.26c0-1.92,1.58-3.34,3.68-3.34
		c2.09,0,3.68,1.41,3.68,3.31c0,0.9-0.34,1.72-0.93,2.61l-2.72,4.07h-2.28L484.53,191.22z M486.09,187.98
		c0-0.95-0.74-1.61-1.72-1.61c-0.99,0-1.72,0.66-1.72,1.61c0,0.95,0.73,1.61,1.72,1.61C485.36,189.59,486.09,188.92,486.09,187.98z"
		/>
	<path d="M494.48,187.32c0,1.54-1.17,2.68-2.74,2.68c-1.56,0-2.73-1.14-2.73-2.68c0-1.53,1.17-2.67,2.73-2.67
		C493.31,184.65,494.48,185.79,494.48,187.32z M490.56,187.32c0,0.71,0.5,1.22,1.18,1.22c0.69,0,1.18-0.5,1.18-1.22
		c0-0.7-0.5-1.21-1.18-1.21C491.07,186.11,490.56,186.62,490.56,187.32z M493.04,194.63h-1.83l6.58-9.81h1.83L493.04,194.63z
		 M501.84,192.13c0,1.53-1.17,2.67-2.74,2.67c-1.56,0-2.73-1.14-2.73-2.67c0-1.51,1.17-2.68,2.73-2.68
		C500.67,189.45,501.84,190.6,501.84,192.13z M497.92,192.13c0,0.71,0.5,1.21,1.18,1.21c0.69,0,1.18-0.5,1.18-1.21
		c0-0.71-0.5-1.21-1.18-1.21C498.42,190.92,497.92,191.42,497.92,192.13z"/>
</g>
<g>
	<path d="M506.34,126.7h-4.14v-1.6h4.14V126.7z"/>
	<path d="M511.3,129.63h-1.89v-7.3l-2.35,0.95v-1.9l4.24-1.71V129.63z"/>
	<path d="M519.42,121.58h-3.97l-0.04,1.96h1.13c2.28,0,3.43,1.31,3.43,2.95c0,2.11-1.6,3.31-3.58,3.31c-1.46,0-2.66-0.55-3.47-1.46
		l1.06-1.32c0.53,0.58,1.49,1.04,2.4,1.04c1.09,0,1.63-0.64,1.63-1.42c0-0.74-0.46-1.38-2-1.38h-2.33l0.11-5.43h5.64V121.58z"/>
	<path d="M523.9,128.44c0,0.74-0.63,1.37-1.35,1.37c-0.73,0-1.37-0.63-1.37-1.37c0-0.73,0.64-1.35,1.37-1.35
		C523.27,127.09,523.9,127.71,523.9,128.44z"/>
	<path d="M528.43,123.23c0.13-0.01,0.29-0.03,0.46-0.03c1.99,0,3.4,1.42,3.4,3.26c0,1.92-1.58,3.34-3.69,3.34
		c-2.09,0-3.68-1.41-3.68-3.31c0-0.9,0.34-1.71,0.93-2.61l2.72-4.07h2.28L528.43,123.23z M526.88,126.48c0,0.95,0.74,1.61,1.71,1.61
		c0.99,0,1.72-0.66,1.72-1.61c0-0.95-0.74-1.61-1.72-1.61C527.62,124.87,526.88,125.53,526.88,126.48z"/>
	<path d="M539.93,122.46c0,1.04-0.55,1.8-1.46,2.23c1.03,0.41,1.68,1.19,1.68,2.25c0,1.93-1.76,2.86-3.61,2.86
		c-1.47,0-2.68-0.53-3.42-1.42l1.13-1.24c0.57,0.6,1.39,0.94,2.23,0.94c0.95,0,1.72-0.41,1.72-1.27c0-0.84-0.86-1.28-1.92-1.28
		h-1.14v-1.68h1.15c0.95,0,1.72-0.42,1.72-1.25c0-0.79-0.71-1.23-1.63-1.23c-0.91,0-1.58,0.47-1.98,1l-1.19-1.2
		c0.64-0.87,1.71-1.52,3.27-1.52C538.52,119.65,539.93,120.77,539.93,122.46z"/>
	<path d="M546.74,122.32c0,1.54-1.17,2.68-2.74,2.68c-1.56,0-2.73-1.14-2.73-2.68c0-1.53,1.17-2.67,2.73-2.67
		C545.57,119.65,546.74,120.79,546.74,122.32z M542.82,122.32c0,0.71,0.5,1.22,1.18,1.22c0.69,0,1.18-0.5,1.18-1.22
		c0-0.7-0.5-1.21-1.18-1.21C543.33,121.11,542.82,121.62,542.82,122.32z M545.3,129.63h-1.83l6.58-9.81h1.83L545.3,129.63z
		 M554.1,127.13c0,1.53-1.17,2.67-2.74,2.67c-1.56,0-2.73-1.14-2.73-2.67c0-1.51,1.17-2.68,2.73-2.68
		C552.93,124.45,554.1,125.6,554.1,127.13z M550.18,127.13c0,0.71,0.5,1.21,1.18,1.21c0.69,0,1.18-0.5,1.18-1.21
		c0-0.71-0.5-1.21-1.18-1.21C550.68,125.92,550.18,126.42,550.18,127.13z"/>
</g>
<g>
	<path d="M555.76,145.7h-4.14v-1.6h4.14V145.7z"/>
	<path d="M560.71,148.63h-1.89v-7.3l-2.35,0.95v-1.9l4.24-1.71V148.63z"/>
	<path d="M569.9,141.46c0,1.13-0.65,1.83-1.5,2.22c0.97,0.38,1.74,1.08,1.74,2.28c0,1.79-1.72,2.84-3.83,2.84
		c-2.11,0-3.83-1.06-3.83-2.84c0-1.2,0.76-1.9,1.73-2.28c-0.85-0.39-1.49-1.09-1.49-2.22c0-1.76,1.61-2.82,3.59-2.82
		S569.9,139.7,569.9,141.46z M564.51,145.8c0,0.86,0.81,1.32,1.79,1.32c0.97,0,1.79-0.46,1.79-1.32c0-0.88-0.82-1.34-1.79-1.34
		C565.32,144.46,564.51,144.92,564.51,145.8z M564.72,141.61c0,0.84,0.71,1.29,1.58,1.29c0.88,0,1.58-0.45,1.58-1.29
		c0-0.81-0.71-1.25-1.58-1.25C565.43,140.36,564.72,140.8,564.72,141.61z"/>
	<path d="M574.04,147.44c0,0.74-0.63,1.37-1.35,1.37c-0.73,0-1.37-0.63-1.37-1.37c0-0.73,0.64-1.35,1.37-1.35
		C573.41,146.09,574.04,146.71,574.04,147.44z"/>
	<path d="M578.57,142.23c0.13-0.01,0.29-0.03,0.46-0.03c1.99,0,3.4,1.42,3.4,3.26c0,1.92-1.58,3.34-3.69,3.34
		c-2.09,0-3.68-1.41-3.68-3.31c0-0.9,0.34-1.71,0.93-2.61l2.72-4.07h2.28L578.57,142.23z M577.02,145.48c0,0.95,0.74,1.61,1.71,1.61
		c0.99,0,1.72-0.66,1.72-1.61c0-0.95-0.73-1.61-1.72-1.61C577.76,143.87,577.02,144.53,577.02,145.48z"/>
	<path d="M589.68,145.07h1.37v1.76h-1.37v1.79h-1.89v-1.79h-4.35v-1.37l3.44-6.63h2.1l-3.28,6.24h2.09v-2.61h1.89V145.07z"/>
	<path d="M597.32,141.32c0,1.54-1.17,2.68-2.74,2.68c-1.56,0-2.73-1.14-2.73-2.68c0-1.53,1.17-2.67,2.73-2.67
		C596.15,138.65,597.32,139.79,597.32,141.32z M593.41,141.32c0,0.71,0.5,1.22,1.18,1.22c0.69,0,1.18-0.5,1.18-1.22
		c0-0.7-0.5-1.21-1.18-1.21C593.91,140.11,593.41,140.62,593.41,141.32z M595.88,148.63h-1.83l6.58-9.81h1.83L595.88,148.63z
		 M604.68,146.13c0,1.53-1.17,2.67-2.74,2.67c-1.56,0-2.73-1.14-2.73-2.67c0-1.51,1.17-2.68,2.73-2.68
		C603.51,143.45,604.68,144.6,604.68,146.13z M600.77,146.13c0,0.71,0.5,1.21,1.18,1.21c0.69,0,1.18-0.5,1.18-1.21
		c0-0.71-0.5-1.21-1.18-1.21C601.26,144.92,600.77,145.42,600.77,146.13z"/>
</g>
<g>
	<path d="M406.05,305.7h-4.14v-1.6h4.14V305.7z"/>
	<path d="M413.57,305.07h1.37v1.76h-1.37v1.79h-1.89v-1.79h-4.35v-1.37l3.44-6.63h2.1l-3.28,6.24h2.09v-2.61h1.89V305.07z"/>
	<path d="M422.43,300.3l-4.06,8.33h-2.23l4.03-8.04h-4.66v-1.77h6.91V300.3z"/>
	<path d="M424.96,307.44c0,0.74-0.63,1.37-1.35,1.37c-0.73,0-1.37-0.63-1.37-1.37c0-0.73,0.64-1.35,1.37-1.35
		C424.33,306.09,424.96,306.71,424.96,307.44z"/>
	<path d="M432.73,300.3l-4.06,8.33h-2.23l4.03-8.04h-4.66v-1.77h6.91V300.3z"/>
	<path d="M437.89,308.63H436v-7.3l-2.35,0.95v-1.9l4.24-1.71V308.63z"/>
	<path d="M445.02,301.32c0,1.54-1.17,2.68-2.74,2.68c-1.56,0-2.73-1.14-2.73-2.68c0-1.53,1.17-2.67,2.73-2.67
		C443.85,298.65,445.02,299.79,445.02,301.32z M441.11,301.32c0,0.71,0.5,1.22,1.18,1.22c0.69,0,1.18-0.5,1.18-1.22
		c0-0.7-0.5-1.21-1.18-1.21C441.61,300.11,441.11,300.62,441.11,301.32z M443.59,308.63h-1.83l6.58-9.81h1.83L443.59,308.63z
		 M452.38,306.13c0,1.53-1.17,2.67-2.74,2.67c-1.56,0-2.73-1.14-2.73-2.67c0-1.51,1.17-2.68,2.73-2.68
		C451.21,303.45,452.38,304.6,452.38,306.13z M448.47,306.13c0,0.71,0.5,1.21,1.18,1.21c0.69,0,1.18-0.5,1.18-1.21
		c0-0.71-0.5-1.21-1.18-1.21C448.97,304.92,448.47,305.42,448.47,306.13z"/>
</g>
<g>
	<path d="M256.66,77.7h-4.14v-1.6h4.14V77.7z"/>
	<path d="M263.8,72.3l-4.06,8.33h-2.23l4.03-8.04h-4.66v-1.77h6.91V72.3z"/>
	<path d="M266.34,79.44c0,0.74-0.63,1.37-1.35,1.37c-0.73,0-1.37-0.63-1.37-1.37c0-0.73,0.64-1.35,1.37-1.35
		C265.71,78.09,266.34,78.71,266.34,79.44z"/>
	<path d="M275.95,75.73c0,3.17-1.89,5.08-4.23,5.08c-2.35,0-4.22-1.9-4.22-5.08s1.88-5.08,4.22-5.08
		C274.06,70.65,275.95,72.55,275.95,75.73z M269.46,75.73c0,2.14,1,3.26,2.26,3.26c1.26,0,2.25-1.12,2.25-3.26
		c0-2.14-0.99-3.26-2.25-3.26C270.47,72.46,269.46,73.58,269.46,75.73z"/>
	<path d="M281.28,80.63h-1.89v-7.3l-2.35,0.95v-1.9l4.24-1.71V80.63z"/>
	<path d="M288.41,73.32c0,1.54-1.17,2.68-2.74,2.68c-1.56,0-2.73-1.14-2.73-2.68c0-1.53,1.17-2.67,2.73-2.67
		C287.25,70.65,288.41,71.79,288.41,73.32z M284.5,73.32c0,0.71,0.5,1.22,1.18,1.22c0.69,0,1.18-0.5,1.18-1.22
		c0-0.7-0.5-1.21-1.18-1.21C285,72.11,284.5,72.62,284.5,73.32z M286.98,80.63h-1.83l6.58-9.81h1.83L286.98,80.63z M295.78,78.13
		c0,1.53-1.17,2.67-2.74,2.67c-1.56,0-2.73-1.14-2.73-2.67c0-1.51,1.17-2.68,2.73-2.68C294.61,75.45,295.78,76.6,295.78,78.13z
		 M291.86,78.13c0,0.71,0.5,1.21,1.18,1.21c0.69,0,1.18-0.5,1.18-1.21c0-0.71-0.5-1.21-1.18-1.21
		C292.36,76.92,291.86,77.42,291.86,78.13z"/>
</g>
<g>
	<path d="M101.4,341.83c0.53-0.69,1.53-1.69,3.35-1.69c2.05,0,3.33,1.29,3.33,3.17c0,1.2-0.61,2.03-1.42,2.86l-2.09,2.18h3.75v1.77
		h-6.48v-1.48l3.47-3.55c0.52-0.53,0.81-1.07,0.81-1.68c0-0.85-0.6-1.46-1.5-1.46c-0.93,0-1.48,0.5-1.99,1.08L101.4,341.83z"/>
	<path d="M117.99,345.22c0,3.17-1.89,5.08-4.23,5.08c-2.35,0-4.22-1.9-4.22-5.08s1.88-5.08,4.22-5.08
		C116.1,340.14,117.99,342.05,117.99,345.22z M111.5,345.22c0,2.14,1,3.26,2.26,3.26c1.26,0,2.25-1.12,2.25-3.26
		c0-2.14-0.99-3.26-2.25-3.26C112.51,341.96,111.5,343.08,111.5,345.22z"/>
	<path d="M127.87,345.22c0,3.17-1.89,5.08-4.23,5.08c-2.35,0-4.22-1.9-4.22-5.08s1.88-5.08,4.22-5.08
		C125.98,340.14,127.87,342.05,127.87,345.22z M121.39,345.22c0,2.14,1,3.26,2.26,3.26c1.26,0,2.25-1.12,2.25-3.26
		c0-2.14-0.99-3.26-2.25-3.26C122.39,341.96,121.39,343.08,121.39,345.22z"/>
	<path d="M128.86,341.83c0.53-0.69,1.53-1.69,3.35-1.69c2.05,0,3.33,1.29,3.33,3.17c0,1.2-0.61,2.03-1.42,2.86l-2.09,2.18h3.75v1.77
		h-6.48v-1.48l3.47-3.55c0.52-0.53,0.81-1.07,0.81-1.68c0-0.85-0.6-1.46-1.5-1.46c-0.93,0-1.48,0.5-1.99,1.08L128.86,341.83z"/>
</g>
<g>
	<path d="M152.56,341.83c0.53-0.69,1.53-1.69,3.35-1.69c2.05,0,3.33,1.29,3.33,3.17c0,1.2-0.61,2.03-1.42,2.86l-2.09,2.18h3.75v1.77
		h-6.48v-1.48l3.47-3.55c0.52-0.53,0.81-1.07,0.81-1.68c0-0.85-0.6-1.46-1.5-1.46c-0.93,0-1.48,0.5-1.99,1.08L152.56,341.83z"/>
	<path d="M169.15,345.22c0,3.17-1.89,5.08-4.23,5.08c-2.35,0-4.22-1.9-4.22-5.08s1.88-5.08,4.22-5.08
		C167.26,340.14,169.15,342.05,169.15,345.22z M162.66,345.22c0,2.14,1,3.26,2.26,3.26c1.26,0,2.25-1.12,2.25-3.26
		c0-2.14-0.99-3.26-2.25-3.26C163.66,341.96,162.66,343.08,162.66,345.22z"/>
	<path d="M179.03,345.22c0,3.17-1.89,5.08-4.23,5.08c-2.35,0-4.22-1.9-4.22-5.08s1.88-5.08,4.22-5.08
		C177.14,340.14,179.03,342.05,179.03,345.22z M172.55,345.22c0,2.14,1,3.26,2.26,3.26c1.26,0,2.25-1.12,2.25-3.26
		c0-2.14-0.99-3.26-2.25-3.26C173.55,341.96,172.55,343.08,172.55,345.22z"/>
	<path d="M186.72,342.96c0,1.04-0.55,1.8-1.46,2.23c1.03,0.41,1.68,1.19,1.68,2.25c0,1.93-1.76,2.86-3.61,2.86
		c-1.47,0-2.68-0.53-3.42-1.42l1.13-1.24c0.57,0.6,1.39,0.94,2.23,0.94c0.95,0,1.72-0.41,1.72-1.27c0-0.84-0.86-1.28-1.92-1.28
		h-1.14v-1.68h1.15c0.95,0,1.72-0.42,1.72-1.25c0-0.79-0.71-1.23-1.63-1.23c-0.91,0-1.58,0.47-1.98,1l-1.19-1.2
		c0.64-0.87,1.71-1.52,3.27-1.52C185.31,340.14,186.72,341.27,186.72,342.96z"/>
</g>
<g>
	<path d="M203.34,341.83c0.53-0.69,1.53-1.69,3.35-1.69c2.05,0,3.33,1.29,3.33,3.17c0,1.2-0.61,2.03-1.42,2.86l-2.09,2.18h3.75v1.77
		h-6.48v-1.48l3.47-3.55c0.52-0.53,0.81-1.07,0.81-1.68c0-0.85-0.6-1.46-1.5-1.46c-0.93,0-1.48,0.5-1.99,1.08L203.34,341.83z"/>
	<path d="M219.92,345.22c0,3.17-1.89,5.08-4.23,5.08c-2.35,0-4.22-1.9-4.22-5.08s1.88-5.08,4.22-5.08
		C218.03,340.14,219.92,342.05,219.92,345.22z M213.44,345.22c0,2.14,1,3.26,2.26,3.26c1.26,0,2.25-1.12,2.25-3.26
		c0-2.14-0.99-3.26-2.25-3.26C214.44,341.96,213.44,343.08,213.44,345.22z"/>
	<path d="M229.81,345.22c0,3.17-1.89,5.08-4.23,5.08c-2.35,0-4.22-1.9-4.22-5.08s1.88-5.08,4.22-5.08
		C227.92,340.14,229.81,342.05,229.81,345.22z M223.32,345.22c0,2.14,1,3.26,2.26,3.26c1.26,0,2.25-1.12,2.25-3.26
		c0-2.14-0.99-3.26-2.25-3.26C224.32,341.96,223.32,343.08,223.32,345.22z"/>
	<path d="M237.11,346.57h1.37v1.76h-1.37v1.79h-1.89v-1.79h-4.35v-1.37l3.44-6.63h2.1l-3.28,6.24h2.09v-2.61h1.89V346.57z"/>
</g>
<g>
	<path d="M253.38,341.83c0.53-0.69,1.53-1.69,3.35-1.69c2.05,0,3.33,1.29,3.33,3.17c0,1.2-0.61,2.03-1.42,2.86l-2.09,2.18h3.75v1.77
		h-6.48v-1.48l3.47-3.55c0.52-0.53,0.81-1.07,0.81-1.68c0-0.85-0.6-1.46-1.5-1.46c-0.93,0-1.48,0.5-1.99,1.08L253.38,341.83z"/>
	<path d="M269.97,345.22c0,3.17-1.89,5.08-4.23,5.08c-2.35,0-4.22-1.9-4.22-5.08s1.88-5.08,4.22-5.08
		C268.07,340.14,269.97,342.05,269.97,345.22z M263.48,345.22c0,2.14,1,3.26,2.26,3.26c1.26,0,2.25-1.12,2.25-3.26
		c0-2.14-0.99-3.26-2.25-3.26C264.48,341.96,263.48,343.08,263.48,345.22z"/>
	<path d="M279.85,345.22c0,3.17-1.89,5.08-4.23,5.08c-2.35,0-4.22-1.9-4.22-5.08s1.88-5.08,4.22-5.08
		C277.96,340.14,279.85,342.05,279.85,345.22z M273.36,345.22c0,2.14,1,3.26,2.26,3.26c1.26,0,2.25-1.12,2.25-3.26
		c0-2.14-0.99-3.26-2.25-3.26C274.37,341.96,273.36,343.08,273.36,345.22z"/>
	<path d="M287.53,342.08h-3.97l-0.04,1.96h1.13c2.28,0,3.43,1.31,3.43,2.95c0,2.11-1.6,3.31-3.58,3.31c-1.46,0-2.66-0.55-3.47-1.46
		l1.06-1.32c0.53,0.58,1.49,1.04,2.4,1.04c1.09,0,1.63-0.64,1.63-1.42c0-0.74-0.46-1.38-2-1.38h-2.33l0.1-5.43h5.64V342.08z"/>
</g>
<g>
	<path d="M305.33,341.83c0.53-0.69,1.53-1.69,3.35-1.69c2.05,0,3.33,1.29,3.33,3.17c0,1.2-0.61,2.03-1.42,2.86l-2.09,2.18h3.75v1.77
		h-6.48v-1.48l3.47-3.55c0.52-0.53,0.81-1.07,0.81-1.68c0-0.85-0.6-1.46-1.5-1.46c-0.93,0-1.48,0.5-1.99,1.08L305.33,341.83z"/>
	<path d="M321.92,345.22c0,3.17-1.89,5.08-4.23,5.08c-2.35,0-4.22-1.9-4.22-5.08s1.88-5.08,4.22-5.08
		C320.03,340.14,321.92,342.05,321.92,345.22z M315.43,345.22c0,2.14,1,3.26,2.26,3.26c1.26,0,2.25-1.12,2.25-3.26
		c0-2.14-0.99-3.26-2.25-3.26C316.43,341.96,315.43,343.08,315.43,345.22z"/>
	<path d="M331.8,345.22c0,3.17-1.89,5.08-4.23,5.08c-2.35,0-4.22-1.9-4.22-5.08s1.88-5.08,4.22-5.08
		C329.91,340.14,331.8,342.05,331.8,345.22z M325.31,345.22c0,2.14,1,3.26,2.26,3.26c1.26,0,2.25-1.12,2.25-3.26
		c0-2.14-0.99-3.26-2.25-3.26C326.32,341.96,325.31,343.08,325.31,345.22z"/>
	<path d="M336.46,343.73c0.13-0.01,0.29-0.03,0.46-0.03c1.99,0,3.4,1.42,3.4,3.26c0,1.92-1.58,3.34-3.69,3.34
		c-2.09,0-3.68-1.41-3.68-3.31c0-0.9,0.34-1.71,0.93-2.61l2.72-4.07h2.28L336.46,343.73z M334.91,346.97c0,0.95,0.74,1.61,1.71,1.61
		c0.99,0,1.72-0.66,1.72-1.61c0-0.95-0.74-1.61-1.72-1.61C335.65,345.36,334.91,346.03,334.91,346.97z"/>
</g>
<g>
	<path d="M356.47,341.83c0.53-0.69,1.53-1.69,3.35-1.69c2.05,0,3.33,1.29,3.33,3.17c0,1.2-0.61,2.03-1.42,2.86l-2.09,2.18h3.75v1.77
		h-6.48v-1.48l3.47-3.55c0.52-0.53,0.81-1.07,0.81-1.68c0-0.85-0.6-1.46-1.5-1.46c-0.93,0-1.48,0.5-1.99,1.08L356.47,341.83z"/>
	<path d="M373.05,345.22c0,3.17-1.89,5.08-4.23,5.08c-2.35,0-4.22-1.9-4.22-5.08s1.88-5.08,4.22-5.08
		C371.16,340.14,373.05,342.05,373.05,345.22z M366.57,345.22c0,2.14,1,3.26,2.26,3.26c1.26,0,2.25-1.12,2.25-3.26
		c0-2.14-0.99-3.26-2.25-3.26C367.57,341.96,366.57,343.08,366.57,345.22z"/>
	<path d="M382.94,345.22c0,3.17-1.89,5.08-4.23,5.08c-2.35,0-4.22-1.9-4.22-5.08s1.88-5.08,4.22-5.08
		C381.05,340.14,382.94,342.05,382.94,345.22z M376.45,345.22c0,2.14,1,3.26,2.26,3.26c1.26,0,2.25-1.12,2.25-3.26
		c0-2.14-0.99-3.26-2.25-3.26C377.45,341.96,376.45,343.08,376.45,345.22z"/>
	<path d="M390.85,341.8l-4.06,8.33h-2.23l4.03-8.04h-4.66v-1.77h6.91V341.8z"/>
</g>
<g>
	<path d="M406.02,341.83c0.53-0.69,1.53-1.69,3.35-1.69c2.05,0,3.33,1.29,3.33,3.17c0,1.2-0.61,2.03-1.42,2.86l-2.09,2.18h3.75v1.77
		h-6.48v-1.48l3.47-3.55c0.52-0.53,0.81-1.07,0.81-1.68c0-0.85-0.6-1.46-1.5-1.46c-0.93,0-1.48,0.5-1.99,1.08L406.02,341.83z"/>
	<path d="M422.6,345.22c0,3.17-1.89,5.08-4.23,5.08c-2.35,0-4.22-1.9-4.22-5.08s1.88-5.08,4.22-5.08
		C420.71,340.14,422.6,342.05,422.6,345.22z M416.12,345.22c0,2.14,1,3.26,2.26,3.26c1.26,0,2.25-1.12,2.25-3.26
		c0-2.14-0.99-3.26-2.25-3.26C417.12,341.96,416.12,343.08,416.12,345.22z"/>
	<path d="M432.49,345.22c0,3.17-1.89,5.08-4.23,5.08c-2.35,0-4.22-1.9-4.22-5.08s1.88-5.08,4.22-5.08
		C430.6,340.14,432.49,342.05,432.49,345.22z M426,345.22c0,2.14,1,3.26,2.26,3.26c1.26,0,2.25-1.12,2.25-3.26
		c0-2.14-0.99-3.26-2.25-3.26C427,341.96,426,343.08,426,345.22z"/>
	<path d="M441.24,342.96c0,1.13-0.65,1.83-1.5,2.22c0.97,0.38,1.74,1.08,1.74,2.28c0,1.79-1.72,2.84-3.83,2.84
		c-2.11,0-3.83-1.06-3.83-2.84c0-1.2,0.76-1.9,1.73-2.28c-0.85-0.39-1.49-1.09-1.49-2.22c0-1.76,1.61-2.82,3.59-2.82
		C439.63,340.14,441.24,341.2,441.24,342.96z M435.85,347.3c0,0.86,0.81,1.32,1.79,1.32c0.97,0,1.79-0.46,1.79-1.32
		c0-0.88-0.82-1.34-1.79-1.34C436.66,345.95,435.85,346.42,435.85,347.3z M436.06,343.11c0,0.84,0.71,1.29,1.58,1.29
		s1.58-0.45,1.58-1.29c0-0.81-0.71-1.25-1.58-1.25S436.06,342.29,436.06,343.11z"/>
</g>
<g>
	<path d="M458.33,341.83c0.53-0.69,1.53-1.69,3.35-1.69c2.05,0,3.33,1.29,3.33,3.17c0,1.2-0.61,2.03-1.42,2.86l-2.09,2.18h3.75v1.77
		h-6.48v-1.48l3.47-3.55c0.52-0.53,0.81-1.07,0.81-1.68c0-0.85-0.6-1.46-1.5-1.46c-0.93,0-1.48,0.5-1.99,1.08L458.33,341.83z"/>
	<path d="M474.92,345.22c0,3.17-1.89,5.08-4.23,5.08c-2.35,0-4.22-1.9-4.22-5.08s1.88-5.08,4.22-5.08
		C473.03,340.14,474.92,342.05,474.92,345.22z M468.43,345.22c0,2.14,1,3.26,2.26,3.26c1.26,0,2.25-1.12,2.25-3.26
		c0-2.14-0.99-3.26-2.25-3.26C469.43,341.96,468.43,343.08,468.43,345.22z"/>
	<path d="M484.8,345.22c0,3.17-1.89,5.08-4.23,5.08c-2.35,0-4.22-1.9-4.22-5.08s1.88-5.08,4.22-5.08
		C482.91,340.14,484.8,342.05,484.8,345.22z M478.31,345.22c0,2.14,1,3.26,2.26,3.26c1.26,0,2.25-1.12,2.25-3.26
		c0-2.14-0.99-3.26-2.25-3.26C479.32,341.96,478.31,343.08,478.31,345.22z"/>
	<path d="M489.81,346.71c-0.13,0.02-0.27,0.03-0.44,0.03c-1.99,0-3.4-1.42-3.4-3.26c0-1.92,1.58-3.34,3.68-3.34
		c2.09,0,3.68,1.41,3.68,3.31c0,0.9-0.34,1.72-0.93,2.61l-2.72,4.07h-2.28L489.81,346.71z M491.37,343.47
		c0-0.95-0.74-1.61-1.72-1.61c-0.99,0-1.72,0.66-1.72,1.61c0,0.95,0.73,1.61,1.72,1.61C490.64,345.08,491.37,344.42,491.37,343.47z"
		/>
</g>
<g>
	<path d="M508.58,341.83c0.53-0.69,1.53-1.69,3.35-1.69c2.05,0,3.33,1.29,3.33,3.17c0,1.2-0.61,2.03-1.42,2.86l-2.09,2.18h3.75v1.77
		h-6.48v-1.48l3.47-3.55c0.52-0.53,0.81-1.07,0.81-1.68c0-0.85-0.6-1.46-1.5-1.46c-0.93,0-1.48,0.5-1.99,1.08L508.58,341.83z"/>
	<path d="M525.16,345.22c0,3.17-1.89,5.08-4.23,5.08c-2.35,0-4.22-1.9-4.22-5.08s1.88-5.08,4.22-5.08
		C523.27,340.14,525.16,342.05,525.16,345.22z M518.68,345.22c0,2.14,1,3.26,2.26,3.26c1.26,0,2.25-1.12,2.25-3.26
		c0-2.14-0.99-3.26-2.25-3.26C519.68,341.96,518.68,343.08,518.68,345.22z"/>
	<path d="M530.49,350.13h-1.89v-7.3l-2.35,0.95v-1.9l4.24-1.71V350.13z"/>
	<path d="M540.81,345.22c0,3.17-1.89,5.08-4.23,5.08c-2.35,0-4.22-1.9-4.22-5.08s1.88-5.08,4.22-5.08
		C538.92,340.14,540.81,342.05,540.81,345.22z M534.33,345.22c0,2.14,1,3.26,2.26,3.26c1.26,0,2.25-1.12,2.25-3.26
		c0-2.14-0.99-3.26-2.25-3.26C535.33,341.96,534.33,343.08,534.33,345.22z"/>
</g>
<g>
	<path d="M561.64,341.83c0.53-0.69,1.53-1.69,3.35-1.69c2.05,0,3.33,1.29,3.33,3.17c0,1.2-0.61,2.03-1.42,2.86l-2.09,2.18h3.75v1.77
		h-6.48v-1.48l3.47-3.55c0.52-0.53,0.8-1.07,0.8-1.68c0-0.85-0.59-1.46-1.5-1.46c-0.93,0-1.48,0.5-1.99,1.08L561.64,341.83z"/>
	<path d="M578.23,345.22c0,3.17-1.89,5.08-4.23,5.08c-2.35,0-4.22-1.9-4.22-5.08s1.88-5.08,4.22-5.08
		C576.34,340.14,578.23,342.05,578.23,345.22z M571.75,345.22c0,2.14,1,3.26,2.25,3.26c1.26,0,2.25-1.12,2.25-3.26
		c0-2.14-0.99-3.26-2.25-3.26C572.75,341.96,571.75,343.08,571.75,345.22z"/>
	<path d="M583.56,350.13h-1.89v-7.3l-2.35,0.95v-1.9l4.24-1.71V350.13z"/>
	<path d="M589.31,350.13h-1.89v-7.3l-2.35,0.95v-1.9l4.24-1.71V350.13z"/>
</g>
<g>
	<path d="M611.36,341.83c0.53-0.69,1.53-1.69,3.35-1.69c2.05,0,3.33,1.29,3.33,3.17c0,1.2-0.61,2.03-1.42,2.86l-2.09,2.18h3.75v1.77
		h-6.48v-1.48l3.47-3.55c0.52-0.53,0.81-1.07,0.81-1.68c0-0.85-0.6-1.46-1.5-1.46c-0.93,0-1.48,0.5-1.99,1.08L611.36,341.83z"/>
	<path d="M627.95,345.22c0,3.17-1.89,5.08-4.23,5.08c-2.35,0-4.22-1.9-4.22-5.08s1.88-5.08,4.22-5.08
		C626.06,340.14,627.95,342.05,627.95,345.22z M621.46,345.22c0,2.14,1,3.26,2.26,3.26c1.26,0,2.25-1.12,2.25-3.26
		c0-2.14-0.99-3.26-2.25-3.26C622.47,341.96,621.46,343.08,621.46,345.22z"/>
	<path d="M633.28,350.13h-1.89v-7.3l-2.35,0.95v-1.9l4.24-1.71V350.13z"/>
	<path d="M634.9,341.83c0.53-0.69,1.53-1.69,3.35-1.69c2.05,0,3.33,1.29,3.33,3.17c0,1.2-0.61,2.03-1.42,2.86l-2.09,2.18h3.75v1.77
		h-6.48v-1.48l3.47-3.55c0.52-0.53,0.81-1.07,0.81-1.68c0-0.85-0.6-1.46-1.5-1.46c-0.93,0-1.48,0.5-1.99,1.08L634.9,341.83z"/>
</g>
<g>
	<path d="M664.51,341.83c0.53-0.69,1.53-1.69,3.35-1.69c2.05,0,3.33,1.29,3.33,3.17c0,1.2-0.61,2.03-1.41,2.86l-2.09,2.18h3.75v1.77
		h-6.48v-1.48l3.47-3.55c0.52-0.53,0.81-1.07,0.81-1.68c0-0.85-0.59-1.46-1.5-1.46c-0.93,0-1.48,0.5-1.99,1.08L664.51,341.83z"/>
	<path d="M681.1,345.22c0,3.17-1.89,5.08-4.23,5.08c-2.35,0-4.22-1.9-4.22-5.08s1.88-5.08,4.22-5.08
		C679.21,340.14,681.1,342.05,681.1,345.22z M674.62,345.22c0,2.14,1,3.26,2.26,3.26c1.26,0,2.25-1.12,2.25-3.26
		c0-2.14-0.99-3.26-2.25-3.26C675.62,341.96,674.62,343.08,674.62,345.22z"/>
	<path d="M686.43,350.13h-1.89v-7.3l-2.35,0.95v-1.9l4.24-1.71V350.13z"/>
	<path d="M694.76,342.96c0,1.04-0.55,1.8-1.46,2.23c1.03,0.41,1.68,1.19,1.68,2.25c0,1.93-1.76,2.86-3.61,2.86
		c-1.47,0-2.68-0.53-3.43-1.42l1.13-1.24c0.57,0.6,1.39,0.94,2.23,0.94c0.95,0,1.72-0.41,1.72-1.27c0-0.84-0.86-1.28-1.92-1.28
		h-1.14v-1.68h1.15c0.95,0,1.72-0.42,1.72-1.25c0-0.79-0.71-1.23-1.63-1.23s-1.58,0.47-1.98,1l-1.19-1.2
		c0.64-0.87,1.71-1.52,3.27-1.52C693.36,340.14,694.76,341.27,694.76,342.96z"/>
</g>
<g>
	<path d="M714.43,341.83c0.53-0.69,1.53-1.69,3.35-1.69c2.05,0,3.33,1.29,3.33,3.17c0,1.2-0.61,2.03-1.41,2.86l-2.09,2.18h3.75v1.77
		h-6.48v-1.48l3.47-3.55c0.52-0.53,0.81-1.07,0.81-1.68c0-0.85-0.59-1.46-1.5-1.46c-0.93,0-1.48,0.5-1.99,1.08L714.43,341.83z"/>
	<path d="M731.02,345.22c0,3.17-1.89,5.08-4.23,5.08c-2.35,0-4.22-1.9-4.22-5.08s1.88-5.08,4.22-5.08
		C729.13,340.14,731.02,342.05,731.02,345.22z M724.53,345.22c0,2.14,1,3.26,2.26,3.26c1.26,0,2.25-1.12,2.25-3.26
		c0-2.14-0.99-3.26-2.25-3.26C725.53,341.96,724.53,343.08,724.53,345.22z"/>
	<path d="M736.35,350.13h-1.89v-7.3l-2.35,0.95v-1.9l4.24-1.71V350.13z"/>
	<path d="M744.02,346.57h1.37v1.76h-1.37v1.79h-1.89v-1.79h-4.35v-1.37l3.44-6.63h2.1l-3.28,6.24h2.09v-2.61h1.89V346.57z"/>
</g>
<g>
	<path d="M767.44,341.83c0.53-0.69,1.53-1.69,3.35-1.69c2.05,0,3.33,1.29,3.33,3.17c0,1.2-0.61,2.03-1.42,2.86l-2.09,2.18h3.75v1.77
		h-6.48v-1.48l3.47-3.55c0.52-0.53,0.81-1.07,0.81-1.68c0-0.85-0.6-1.46-1.5-1.46c-0.93,0-1.48,0.5-1.99,1.08L767.44,341.83z"/>
	<path d="M784.02,345.22c0,3.17-1.89,5.08-4.23,5.08c-2.35,0-4.22-1.9-4.22-5.08s1.88-5.08,4.22-5.08
		C782.13,340.14,784.02,342.05,784.02,345.22z M777.54,345.22c0,2.14,1,3.26,2.25,3.26c1.26,0,2.26-1.12,2.26-3.26
		c0-2.14-0.99-3.26-2.26-3.26C778.54,341.96,777.54,343.08,777.54,345.22z"/>
	<path d="M789.36,350.13h-1.89v-7.3l-2.35,0.95v-1.9l4.24-1.71V350.13z"/>
	<path d="M797.48,342.08h-3.97l-0.04,1.96h1.13c2.28,0,3.43,1.31,3.43,2.95c0,2.11-1.6,3.31-3.58,3.31c-1.46,0-2.66-0.55-3.47-1.46
		l1.06-1.32c0.53,0.58,1.49,1.04,2.4,1.04c1.09,0,1.63-0.64,1.63-1.42c0-0.74-0.46-1.38-2-1.38h-2.33l0.1-5.43h5.64V342.08z"/>
</g>
<g>
	<path d="M818.39,341.83c0.53-0.69,1.53-1.69,3.35-1.69c2.05,0,3.33,1.29,3.33,3.17c0,1.2-0.61,2.03-1.42,2.86l-2.09,2.18h3.75v1.77
		h-6.48v-1.48l3.47-3.55c0.52-0.53,0.81-1.07,0.81-1.68c0-0.85-0.6-1.46-1.5-1.46c-0.93,0-1.48,0.5-1.99,1.08L818.39,341.83z"/>
	<path d="M834.97,345.22c0,3.17-1.89,5.08-4.23,5.08c-2.35,0-4.22-1.9-4.22-5.08s1.88-5.08,4.22-5.08
		C833.08,340.14,834.97,342.05,834.97,345.22z M828.49,345.22c0,2.14,1,3.26,2.25,3.26c1.26,0,2.26-1.12,2.26-3.26
		c0-2.14-0.99-3.26-2.26-3.26C829.49,341.96,828.49,343.08,828.49,345.22z"/>
	<path d="M840.31,350.13h-1.89v-7.3l-2.35,0.95v-1.9l4.24-1.71V350.13z"/>
	<path d="M845.4,343.73c0.13-0.01,0.29-0.03,0.46-0.03c1.99,0,3.4,1.42,3.4,3.26c0,1.92-1.58,3.34-3.69,3.34
		c-2.09,0-3.68-1.41-3.68-3.31c0-0.9,0.34-1.71,0.93-2.61l2.72-4.07h2.28L845.4,343.73z M843.85,346.97c0,0.95,0.74,1.61,1.71,1.61
		c0.99,0,1.72-0.66,1.72-1.61c0-0.95-0.73-1.61-1.72-1.61C844.59,345.36,843.85,346.03,843.85,346.97z"/>
</g>
<g>
	<path d="M870.45,341.83c0.53-0.69,1.53-1.69,3.35-1.69c2.05,0,3.33,1.29,3.33,3.17c0,1.2-0.61,2.03-1.42,2.86l-2.09,2.18h3.75v1.77
		h-6.48v-1.48l3.47-3.55c0.52-0.53,0.8-1.07,0.8-1.68c0-0.85-0.59-1.46-1.5-1.46c-0.93,0-1.48,0.5-1.99,1.08L870.45,341.83z"/>
	<path d="M887.04,345.22c0,3.17-1.89,5.08-4.23,5.08c-2.35,0-4.22-1.9-4.22-5.08s1.88-5.08,4.22-5.08
		C885.15,340.14,887.04,342.05,887.04,345.22z M880.56,345.22c0,2.14,1,3.26,2.25,3.26c1.26,0,2.25-1.12,2.25-3.26
		c0-2.14-0.99-3.26-2.25-3.26C881.56,341.96,880.56,343.08,880.56,345.22z"/>
	<path d="M892.37,350.13h-1.89v-7.3l-2.35,0.95v-1.9l4.24-1.71V350.13z"/>
	<path d="M900.87,341.8l-4.06,8.33h-2.23l4.03-8.04h-4.66v-1.77h6.91V341.8z"/>
</g>
<g>
	<path d="M919.08,341.83c0.53-0.69,1.53-1.69,3.35-1.69c2.05,0,3.33,1.29,3.33,3.17c0,1.2-0.61,2.03-1.41,2.86l-2.09,2.18h3.75v1.77
		h-6.48v-1.48l3.47-3.55c0.52-0.53,0.81-1.07,0.81-1.68c0-0.85-0.59-1.46-1.5-1.46c-0.93,0-1.48,0.5-1.99,1.08L919.08,341.83z"/>
	<path d="M935.66,345.22c0,3.17-1.89,5.08-4.23,5.08c-2.35,0-4.22-1.9-4.22-5.08s1.88-5.08,4.22-5.08
		C933.77,340.14,935.66,342.05,935.66,345.22z M929.18,345.22c0,2.14,1,3.26,2.26,3.26c1.26,0,2.25-1.12,2.25-3.26
		c0-2.14-0.99-3.26-2.25-3.26C930.18,341.96,929.18,343.08,929.18,345.22z"/>
	<path d="M940.99,350.13h-1.89v-7.3l-2.35,0.95v-1.9l4.24-1.71V350.13z"/>
	<path d="M950.18,342.96c0,1.13-0.65,1.83-1.5,2.22c0.97,0.38,1.74,1.08,1.74,2.28c0,1.79-1.72,2.84-3.83,2.84
		c-2.11,0-3.83-1.06-3.83-2.84c0-1.2,0.76-1.9,1.73-2.28c-0.85-0.39-1.49-1.09-1.49-2.22c0-1.76,1.61-2.82,3.59-2.82
		S950.18,341.2,950.18,342.96z M944.79,347.3c0,0.86,0.81,1.32,1.79,1.32c0.97,0,1.79-0.46,1.79-1.32c0-0.88-0.82-1.34-1.79-1.34
		C945.61,345.95,944.79,346.42,944.79,347.3z M945,343.11c0,0.84,0.71,1.29,1.58,1.29c0.88,0,1.58-0.45,1.58-1.29
		c0-0.81-0.71-1.25-1.58-1.25C945.71,341.85,945,342.29,945,343.11z"/>
</g>
<g>
	<path d="M970.39,341.83c0.53-0.69,1.53-1.69,3.35-1.69c2.05,0,3.33,1.29,3.33,3.17c0,1.2-0.61,2.03-1.42,2.86l-2.09,2.18h3.75v1.77
		h-6.48v-1.48l3.47-3.55c0.52-0.53,0.81-1.07,0.81-1.68c0-0.85-0.6-1.46-1.5-1.46c-0.93,0-1.48,0.5-1.99,1.08L970.39,341.83z"/>
	<path d="M986.97,345.22c0,3.17-1.89,5.08-4.23,5.08c-2.35,0-4.22-1.9-4.22-5.08s1.88-5.08,4.22-5.08
		C985.08,340.14,986.97,342.05,986.97,345.22z M980.49,345.22c0,2.14,1,3.26,2.25,3.26c1.26,0,2.26-1.12,2.26-3.26
		c0-2.14-0.99-3.26-2.26-3.26C981.49,341.96,980.49,343.08,980.49,345.22z"/>
	<path d="M992.31,350.13h-1.89v-7.3l-2.35,0.95v-1.9l4.24-1.71V350.13z"/>
	<path d="M997.75,346.71c-0.13,0.02-0.27,0.03-0.44,0.03c-1.99,0-3.4-1.42-3.4-3.26c0-1.92,1.58-3.34,3.68-3.34
		c2.09,0,3.68,1.41,3.68,3.31c0,0.9-0.34,1.72-0.93,2.61l-2.72,4.07h-2.28L997.75,346.71z M999.31,343.47
		c0-0.95-0.74-1.61-1.72-1.61c-0.99,0-1.72,0.66-1.72,1.61c0,0.95,0.73,1.61,1.72,1.61C998.58,345.08,999.31,344.42,999.31,343.47z"
		/>
</g>
<g>
	<path d="M1019.62,341.83c0.53-0.69,1.53-1.69,3.35-1.69c2.05,0,3.33,1.29,3.33,3.17c0,1.2-0.61,2.03-1.42,2.86l-2.09,2.18h3.75
		v1.77h-6.48v-1.48l3.47-3.55c0.52-0.53,0.8-1.07,0.8-1.68c0-0.85-0.59-1.46-1.5-1.46c-0.93,0-1.48,0.5-1.99,1.08L1019.62,341.83z"
		/>
	<path d="M1036.2,345.22c0,3.17-1.89,5.08-4.23,5.08c-2.35,0-4.22-1.9-4.22-5.08s1.88-5.08,4.22-5.08
		C1034.31,340.14,1036.2,342.05,1036.2,345.22z M1029.72,345.22c0,2.14,1,3.26,2.25,3.26c1.26,0,2.25-1.12,2.25-3.26
		c0-2.14-0.99-3.26-2.25-3.26C1030.72,341.96,1029.72,343.08,1029.72,345.22z"/>
	<path d="M1037.19,341.83c0.53-0.69,1.53-1.69,3.35-1.69c2.05,0,3.33,1.29,3.33,3.17c0,1.2-0.61,2.03-1.42,2.86l-2.09,2.18h3.75
		v1.77h-6.48v-1.48l3.47-3.55c0.52-0.53,0.81-1.07,0.81-1.68c0-0.85-0.6-1.46-1.5-1.46c-0.93,0-1.48,0.5-1.99,1.08L1037.19,341.83z"
		/>
	<path d="M1053.77,345.22c0,3.17-1.89,5.08-4.23,5.08c-2.35,0-4.22-1.9-4.22-5.08s1.88-5.08,4.22-5.08
		C1051.88,340.14,1053.77,342.05,1053.77,345.22z M1047.29,345.22c0,2.14,1,3.26,2.25,3.26c1.26,0,2.26-1.12,2.26-3.26
		c0-2.14-0.99-3.26-2.26-3.26C1048.29,341.96,1047.29,343.08,1047.29,345.22z"/>
</g>
<g>
	<rect x="58" y="22.83" class="st10" width="995.5" height="1"/>
</g>
</svg>
