<?xml version="1.0" encoding="utf-8"?>
<!-- Generator: Adobe Illustrator 24.1.2, SVG Export Plug-In . SVG Version: 6.00 Build 0)  -->
<svg version="1.1" id="Layer_1" xmlns="http://www.w3.org/2000/svg" xmlns:xlink="http://www.w3.org/1999/xlink" x="0px" y="0px"
	 viewBox="0 0 1080 367" style="enable-background:new 0 0 1080 367;" xml:space="preserve">
<style type="text/css">
	.st0{fill:#ED5A35;}
	.st1{fill:#CCCCCC;}
</style>
<g>
	<g>
		<g>
			<g>
				<g>
					<rect x="1022" y="24.5" class="st0" width="23" height="188.5"/>
				</g>
			</g>
		</g>
	</g>
	<g>
		<g>
			<g>
				<g>
					<rect x="971.2" y="24.5" class="st0" width="23" height="36.9"/>
				</g>
			</g>
		</g>
	</g>
	<g>
		<g>
			<g>
				<g>
					<rect x="920.4" y="24.5" class="st0" width="23" height="108"/>
				</g>
			</g>
		</g>
	</g>
	<g>
		<g>
			<g>
				<g>
					<rect x="869.6" y="24.5" class="st0" width="23" height="14.4"/>
				</g>
			</g>
		</g>
	</g>
	<g>
		<g>
			<g>
				<g>
					<rect x="818.8" y="24.5" class="st0" width="23" height="57.3"/>
				</g>
			</g>
		</g>
	</g>
	<g>
		<g>
			<g>
				<g>
					<rect x="768" y="24.5" class="st0" width="23" height="67.1"/>
				</g>
			</g>
		</g>
	</g>
	<g>
		<g>
			<g>
				<g>
					<rect x="717.2" y="24.5" class="st0" width="23" height="40.6"/>
				</g>
			</g>
		</g>
	</g>
	<g>
		<g>
			<g>
				<g>
					<rect x="666.4" y="24.5" class="st0" width="23" height="31.1"/>
				</g>
			</g>
		</g>
	</g>
	<g>
		<g>
			<g>
				<g>
					<rect x="615.6" y="24.5" class="st0" width="23" height="53.4"/>
				</g>
			</g>
		</g>
	</g>
	<g>
		<g>
			<g>
				<g>
					<rect x="564.8" y="24.5" class="st0" width="23" height="104"/>
				</g>
			</g>
		</g>
	</g>
	<g>
		<g>
			<g>
				<g>
					<rect x="514" y="24.5" class="st0" width="23" height="87.2"/>
				</g>
			</g>
		</g>
	</g>
	<g>
		<g>
			<g>
				<g>
					<rect x="463.2" y="24.5" class="st0" width="23" height="151.6"/>
				</g>
			</g>
		</g>
	</g>
	<g>
		<g>
			<g>
				<g>
					<rect x="412.4" y="24.5" class="st0" width="23" height="266.1"/>
				</g>
			</g>
		</g>
	</g>
	<g>
		<g>
			<g>
				<g>
					<rect x="361.5" y="24.5" class="st0" width="23" height="55"/>
				</g>
			</g>
		</g>
	</g>
	<g>
		<g>
			<g>
				<g>
					<rect x="310.7" y="24.5" class="st0" width="23" height="41.6"/>
				</g>
			</g>
		</g>
	</g>
	<g>
		<g>
			<g>
				<g>
					<rect x="259.9" y="24.5" class="st0" width="23" height="39.1"/>
				</g>
			</g>
		</g>
	</g>
	<g>
		<g>
			<g>
				<g>
					<rect x="209.1" y="24.5" class="st0" width="22.9" height="41.4"/>
				</g>
			</g>
		</g>
	</g>
	<g>
		<g>
			<g>
				<g>
					<rect x="158.3" y="24.5" class="st0" width="22.9" height="76.9"/>
				</g>
			</g>
		</g>
	</g>
	<g>
		<g>
			<g>
				<g>
					<rect x="107.5" y="24.5" class="st0" width="23" height="184.1"/>
				</g>
			</g>
		</g>
	</g>
</g>
<g>
	<g>
		<path d="M49.7,25.7c0,3.4-2,5.4-4.5,5.4s-4.5-2-4.5-5.4s2-5.4,4.5-5.4C47.7,20.3,49.7,22.3,49.7,25.7z M42.8,25.7
			c0,2.3,1.1,3.5,2.4,3.5c1.3,0,2.4-1.2,2.4-3.5s-1.1-3.5-2.4-3.5C43.8,22.2,42.8,23.4,42.8,25.7z"/>
	</g>
</g>
<g>
	<g>
		<path d="M33.3,82.7h-4.4V81h4.4V82.7z"/>
	</g>
	<g>
		<path d="M38.7,85.8h-2V78l-2.5,1v-2l4.5-1.8C38.7,75.1,38.7,85.8,38.7,85.8z"/>
	</g>
	<g>
		<path d="M49.7,80.5c0,3.4-2,5.4-4.5,5.4s-4.5-2-4.5-5.4s2-5.4,4.5-5.4S49.7,77.1,49.7,80.5z M42.8,80.5c0,2.3,1.1,3.5,2.4,3.5
			c1.3,0,2.4-1.2,2.4-3.5S46.5,77,45.2,77C43.8,77,42.8,78.2,42.8,80.5z"/>
	</g>
</g>
<g>
	<g>
		<path d="M31.1,137.5h-4.4v-1.7h4.4V137.5z"/>
	</g>
	<g>
		<path d="M32,131.7c0.6-0.7,1.6-1.8,3.6-1.8c2.2,0,3.6,1.4,3.6,3.4c0,1.3-0.7,2.2-1.5,3.1l-2.2,2.3h4v1.9h-6.9V139l3.7-3.8
			c0.6-0.6,0.9-1.1,0.9-1.8c0-0.9-0.6-1.6-1.6-1.6s-1.6,0.5-2.1,1.2L32,131.7z"/>
	</g>
	<g>
		<path d="M49.7,135.4c0,3.4-2,5.4-4.5,5.4s-4.5-2-4.5-5.4s2-5.4,4.5-5.4C47.7,129.9,49.7,131.9,49.7,135.4z M42.8,135.4
			c0,2.3,1.1,3.5,2.4,3.5c1.3,0,2.4-1.2,2.4-3.5s-1.1-3.5-2.4-3.5C43.8,131.9,42.8,133.1,42.8,135.4z"/>
	</g>
</g>
<g>
	<g>
		<path d="M30.9,193.2h-4.4v-1.7h4.4V193.2z"/>
	</g>
	<g>
		<path d="M39,188.6c0,1.1-0.6,1.9-1.6,2.4c1.1,0.4,1.8,1.3,1.8,2.4c0,2.1-1.9,3.1-3.9,3.1c-1.6,0-2.9-0.6-3.7-1.5l1.2-1.3
			c0.6,0.6,1.5,1,2.4,1c1,0,1.8-0.4,1.8-1.4c0-0.9-0.9-1.4-2.1-1.4h-1.2v-1.8h1.2c1,0,1.8-0.4,1.8-1.3c0-0.9-0.8-1.3-1.7-1.3
			c-1,0-1.7,0.5-2.1,1.1l-1.3-1.3c0.7-0.9,1.8-1.6,3.5-1.6C37.5,185.6,39,186.8,39,188.6z"/>
	</g>
	<g>
		<path d="M49.7,191.1c0,3.4-2,5.4-4.5,5.4s-4.5-2-4.5-5.4s2-5.4,4.5-5.4C47.7,185.6,49.7,187.6,49.7,191.1z M42.8,191.1
			c0,2.3,1.1,3.5,2.4,3.5c1.3,0,2.4-1.2,2.4-3.5s-1.1-3.5-2.4-3.5C43.8,187.6,42.8,188.8,42.8,191.1z"/>
	</g>
</g>
<g>
	<g>
		<path d="M30.1,248.9h-4.4v-1.7h4.4V248.9z"/>
	</g>
	<g>
		<path d="M38.1,248.2h1.5v1.9h-1.5v1.9h-2v-1.9h-4.7v-1.5l3.7-7.1h2.3l-3.5,6.7h2.2v-2.8h2V248.2L38.1,248.2z"/>
	</g>
	<g>
		<path d="M49.7,246.8c0,3.4-2,5.4-4.5,5.4s-4.5-2-4.5-5.4s2-5.4,4.5-5.4C47.7,241.3,49.7,243.4,49.7,246.8z M42.8,246.8
			c0,2.3,1.1,3.5,2.4,3.5c1.3,0,2.4-1.2,2.4-3.5s-1.1-3.5-2.4-3.5C43.8,243.3,42.8,244.5,42.8,246.8z"/>
	</g>
</g>
<g>
	<g>
		<path d="M30.4,305.5H26v-1.7h4.4V305.5z"/>
	</g>
	<g>
		<path d="M38.6,300h-4.3v2.1h1.2c2.5,0,3.7,1.4,3.7,3.2c0,2.3-1.7,3.5-3.8,3.5c-1.6,0-2.8-0.6-3.7-1.6l1.1-1.4
			c0.6,0.6,1.6,1.1,2.6,1.1c1.2,0,1.8-0.7,1.8-1.5s-0.5-1.5-2.1-1.5h-2.5l0.1-5.8h6C38.6,298.1,38.6,300,38.6,300z"/>
	</g>
	<g>
		<path d="M49.7,303.4c0,3.4-2,5.4-4.5,5.4s-4.5-2-4.5-5.4s2-5.4,4.5-5.4C47.7,297.9,49.7,300,49.7,303.4z M42.8,303.4
			c0,2.3,1.1,3.5,2.4,3.5c1.3,0,2.4-1.2,2.4-3.5s-1.1-3.5-2.4-3.5C43.8,299.9,42.8,301.1,42.8,303.4z"/>
	</g>
</g>
<g>
	<g>
		<path d="M101.4,341.8c0.5-0.7,1.5-1.7,3.3-1.7c2.1,0,3.3,1.3,3.3,3.2c0,1.2-0.6,2-1.4,2.9l-2.1,2.2h3.8v1.8h-6.5v-1.5l3.5-3.5
			c0.5-0.5,0.8-1.1,0.8-1.7c0-0.9-0.6-1.5-1.5-1.5s-1.5,0.5-2,1.1L101.4,341.8z"/>
	</g>
	<g>
		<path d="M118,345.2c0,3.2-1.9,5.1-4.2,5.1c-2.3,0-4.2-1.9-4.2-5.1s1.9-5.1,4.2-5.1S118,342,118,345.2z M111.5,345.2
			c0,2.1,1,3.3,2.3,3.3s2.3-1.1,2.3-3.3s-1-3.3-2.3-3.3C112.5,342,111.5,343.1,111.5,345.2z"/>
	</g>
	<g>
		<path d="M127.9,345.2c0,3.2-1.9,5.1-4.2,5.1c-2.3,0-4.2-1.9-4.2-5.1s1.9-5.1,4.2-5.1S127.9,342,127.9,345.2z M121.4,345.2
			c0,2.1,1,3.3,2.3,3.3s2.3-1.1,2.3-3.3s-1-3.3-2.3-3.3S121.4,343.1,121.4,345.2z"/>
	</g>
	<g>
		<path d="M128.9,341.8c0.5-0.7,1.5-1.7,3.4-1.7c2.1,0,3.3,1.3,3.3,3.2c0,1.2-0.6,2-1.4,2.9l-2.1,2.2h3.8v1.8h-6.5v-1.5l3.5-3.5
			c0.5-0.5,0.8-1.1,0.8-1.7c0-0.9-0.6-1.5-1.5-1.5s-1.5,0.5-2,1.1L128.9,341.8z"/>
	</g>
</g>
<g>
	<g>
		<path d="M152.6,341.8c0.5-0.7,1.5-1.7,3.4-1.7c2.1,0,3.3,1.3,3.3,3.2c0,1.2-0.6,2-1.4,2.9l-2.1,2.2h3.8v1.8H153v-1.5l3.5-3.5
			c0.5-0.5,0.8-1.1,0.8-1.7c0-0.9-0.6-1.5-1.5-1.5s-1.5,0.5-2,1.1L152.6,341.8z"/>
	</g>
	<g>
		<path d="M169.1,345.2c0,3.2-1.9,5.1-4.2,5.1c-2.4,0-4.2-1.9-4.2-5.1s1.9-5.1,4.2-5.1S169.1,342,169.1,345.2z M162.7,345.2
			c0,2.1,1,3.3,2.3,3.3s2.3-1.1,2.3-3.3s-1-3.3-2.3-3.3S162.7,343.1,162.7,345.2z"/>
	</g>
	<g>
		<path d="M179,345.2c0,3.2-1.9,5.1-4.2,5.1c-2.4,0-4.2-1.9-4.2-5.1s1.9-5.1,4.2-5.1S179,342,179,345.2z M172.6,345.2
			c0,2.1,1,3.3,2.3,3.3s2.3-1.1,2.3-3.3s-1-3.3-2.3-3.3S172.6,343.1,172.6,345.2z"/>
	</g>
	<g>
		<path d="M186.7,343c0,1-0.6,1.8-1.5,2.2c1,0.4,1.7,1.2,1.7,2.3c0,1.9-1.8,2.9-3.6,2.9c-1.5,0-2.7-0.5-3.4-1.4l1.1-1.2
			c0.6,0.6,1.4,0.9,2.2,0.9c0.9,0,1.7-0.4,1.7-1.3c0-0.8-0.9-1.3-1.9-1.3h-1.1v-1.7h1.1c0.9,0,1.7-0.4,1.7-1.3
			c0-0.8-0.7-1.2-1.6-1.2c-0.9,0-1.6,0.5-2,1l-1.2-1.2c0.6-0.9,1.7-1.5,3.3-1.5C185.3,340.1,186.7,341.3,186.7,343z"/>
	</g>
</g>
<g>
	<g>
		<path d="M203.3,341.8c0.5-0.7,1.5-1.7,3.4-1.7c2.1,0,3.3,1.3,3.3,3.2c0,1.2-0.6,2-1.4,2.9l-2.1,2.2h3.8v1.8h-6.5v-1.5l3.5-3.5
			c0.5-0.5,0.8-1.1,0.8-1.7c0-0.9-0.6-1.5-1.5-1.5s-1.5,0.5-2,1.1L203.3,341.8z"/>
	</g>
	<g>
		<path d="M219.9,345.2c0,3.2-1.9,5.1-4.2,5.1c-2.4,0-4.2-1.9-4.2-5.1s1.9-5.1,4.2-5.1S219.9,342,219.9,345.2z M213.4,345.2
			c0,2.1,1,3.3,2.3,3.3s2.3-1.1,2.3-3.3s-1-3.3-2.3-3.3S213.4,343.1,213.4,345.2z"/>
	</g>
	<g>
		<path d="M229.8,345.2c0,3.2-1.9,5.1-4.2,5.1c-2.4,0-4.2-1.9-4.2-5.1s1.9-5.1,4.2-5.1S229.8,342,229.8,345.2z M223.3,345.2
			c0,2.1,1,3.3,2.3,3.3s2.3-1.1,2.3-3.3s-1-3.3-2.3-3.3S223.3,343.1,223.3,345.2z"/>
	</g>
	<g>
		<path d="M237.1,346.6h1.4v1.8h-1.4v1.8h-1.9v-1.8h-4.4V347l3.4-6.6h2.1l-3.3,6.2h2.1V344h1.9L237.1,346.6L237.1,346.6z"/>
	</g>
</g>
<g>
	<g>
		<path d="M253.4,341.8c0.5-0.7,1.5-1.7,3.4-1.7c2,0,3.3,1.3,3.3,3.2c0,1.2-0.6,2-1.4,2.9l-2.1,2.2h3.8v1.8h-6.5v-1.5l3.5-3.5
			c0.5-0.5,0.8-1.1,0.8-1.7c0-0.9-0.6-1.5-1.5-1.5s-1.5,0.5-2,1.1L253.4,341.8z"/>
	</g>
	<g>
		<path d="M270,345.2c0,3.2-1.9,5.1-4.2,5.1c-2.4,0-4.2-1.9-4.2-5.1s1.9-5.1,4.2-5.1S270,342,270,345.2z M263.5,345.2
			c0,2.1,1,3.3,2.3,3.3s2.3-1.1,2.3-3.3s-1-3.3-2.3-3.3S263.5,343.1,263.5,345.2z"/>
	</g>
	<g>
		<path d="M279.9,345.2c0,3.2-1.9,5.1-4.2,5.1c-2.4,0-4.2-1.9-4.2-5.1s1.9-5.1,4.2-5.1S279.9,342,279.9,345.2z M273.4,345.2
			c0,2.1,1,3.3,2.3,3.3s2.3-1.1,2.3-3.3s-1-3.3-2.3-3.3C274.4,342,273.4,343.1,273.4,345.2z"/>
	</g>
	<g>
		<path d="M287.5,342.1h-4v2h1.1c2.3,0,3.4,1.3,3.4,3c0,2.1-1.6,3.3-3.6,3.3c-1.5,0-2.7-0.5-3.5-1.5l1.1-1.3c0.5,0.6,1.5,1,2.4,1
			c1.1,0,1.6-0.6,1.6-1.4c0-0.7-0.5-1.4-2-1.4h-2.3l0.1-5.4h5.6L287.5,342.1L287.5,342.1z"/>
	</g>
</g>
<g>
	<g>
		<path d="M305.3,341.8c0.5-0.7,1.5-1.7,3.4-1.7c2,0,3.3,1.3,3.3,3.2c0,1.2-0.6,2-1.4,2.9l-2.1,2.2h3.8v1.8h-6.5v-1.5l3.5-3.5
			c0.5-0.5,0.8-1.1,0.8-1.7c0-0.9-0.6-1.5-1.5-1.5s-1.5,0.5-2,1.1L305.3,341.8z"/>
	</g>
	<g>
		<path d="M321.9,345.2c0,3.2-1.9,5.1-4.2,5.1c-2.4,0-4.2-1.9-4.2-5.1s1.9-5.1,4.2-5.1S321.9,342,321.9,345.2z M315.4,345.2
			c0,2.1,1,3.3,2.3,3.3s2.3-1.1,2.3-3.3s-1-3.3-2.3-3.3S315.4,343.1,315.4,345.2z"/>
	</g>
	<g>
		<path d="M331.8,345.2c0,3.2-1.9,5.1-4.2,5.1c-2.4,0-4.2-1.9-4.2-5.1s1.9-5.1,4.2-5.1S331.8,342,331.8,345.2z M325.3,345.2
			c0,2.1,1,3.3,2.3,3.3s2.3-1.1,2.3-3.3s-1-3.3-2.3-3.3C326.3,342,325.3,343.1,325.3,345.2z"/>
	</g>
	<g>
		<path d="M336.5,343.7c0.1,0,0.3,0,0.5,0c2,0,3.4,1.4,3.4,3.3s-1.6,3.3-3.7,3.3s-3.7-1.4-3.7-3.3c0-0.9,0.3-1.7,0.9-2.6l2.7-4.1
			h2.3L336.5,343.7z M334.9,347c0,1,0.7,1.6,1.7,1.6s1.7-0.7,1.7-1.6c0-1-0.7-1.6-1.7-1.6S334.9,346,334.9,347z"/>
	</g>
</g>
<g>
	<g>
		<path d="M356.5,341.8c0.5-0.7,1.5-1.7,3.4-1.7c2,0,3.3,1.3,3.3,3.2c0,1.2-0.6,2-1.4,2.9l-2.1,2.2h3.8v1.8H357v-1.5l3.5-3.5
			c0.5-0.5,0.8-1.1,0.8-1.7c0-0.9-0.6-1.5-1.5-1.5s-1.5,0.5-2,1.1L356.5,341.8z"/>
	</g>
	<g>
		<path d="M373,345.2c0,3.2-1.9,5.1-4.2,5.1c-2.4,0-4.2-1.9-4.2-5.1s1.9-5.1,4.2-5.1C371.2,340.1,373,342,373,345.2z M366.6,345.2
			c0,2.1,1,3.3,2.3,3.3s2.3-1.1,2.3-3.3s-1-3.3-2.3-3.3S366.6,343.1,366.6,345.2z"/>
	</g>
	<g>
		<path d="M382.9,345.2c0,3.2-1.9,5.1-4.2,5.1c-2.4,0-4.2-1.9-4.2-5.1s1.9-5.1,4.2-5.1S382.9,342,382.9,345.2z M376.5,345.2
			c0,2.1,1,3.3,2.3,3.3s2.3-1.1,2.3-3.3s-1-3.3-2.3-3.3S376.5,343.1,376.5,345.2z"/>
	</g>
	<g>
		<path d="M390.9,341.8l-4.1,8.3h-2.2l4-8h-4.7v-1.8h6.9L390.9,341.8L390.9,341.8z"/>
	</g>
</g>
<g>
	<g>
		<path d="M406,341.8c0.5-0.7,1.5-1.7,3.4-1.7c2,0,3.3,1.3,3.3,3.2c0,1.2-0.6,2-1.4,2.9l-2.1,2.2h3.8v1.8h-6.5v-1.5l3.5-3.5
			c0.5-0.5,0.8-1.1,0.8-1.7c0-0.9-0.6-1.5-1.5-1.5s-1.5,0.5-2,1.1L406,341.8z"/>
	</g>
	<g>
		<path d="M422.6,345.2c0,3.2-1.9,5.1-4.2,5.1c-2.4,0-4.2-1.9-4.2-5.1s1.9-5.1,4.2-5.1S422.6,342,422.6,345.2z M416.1,345.2
			c0,2.1,1,3.3,2.3,3.3s2.3-1.1,2.3-3.3s-1-3.3-2.3-3.3S416.1,343.1,416.1,345.2z"/>
	</g>
	<g>
		<path d="M432.5,345.2c0,3.2-1.9,5.1-4.2,5.1c-2.4,0-4.2-1.9-4.2-5.1s1.9-5.1,4.2-5.1S432.5,342,432.5,345.2z M426,345.2
			c0,2.1,1,3.3,2.3,3.3s2.3-1.1,2.3-3.3s-1-3.3-2.3-3.3S426,343.1,426,345.2z"/>
	</g>
	<g>
		<path d="M441.2,343c0,1.1-0.6,1.8-1.5,2.2c1,0.4,1.7,1.1,1.7,2.3c0,1.8-1.7,2.8-3.8,2.8s-3.8-1.1-3.8-2.8c0-1.2,0.8-1.9,1.7-2.3
			c-0.9-0.4-1.5-1.1-1.5-2.2c0-1.8,1.6-2.8,3.6-2.8C439.6,340.1,441.2,341.2,441.2,343z M435.9,347.3c0,0.9,0.8,1.3,1.8,1.3
			s1.8-0.5,1.8-1.3c0-0.9-0.8-1.3-1.8-1.3C436.7,346,435.9,346.4,435.9,347.3z M436.1,343.1c0,0.8,0.7,1.3,1.6,1.3s1.6-0.5,1.6-1.3
			s-0.7-1.3-1.6-1.3S436.1,342.3,436.1,343.1z"/>
	</g>
</g>
<g>
	<g>
		<path d="M458.3,341.8c0.5-0.7,1.5-1.7,3.4-1.7c2,0,3.3,1.3,3.3,3.2c0,1.2-0.6,2-1.4,2.9l-2.1,2.2h3.8v1.8h-6.5v-1.5l3.5-3.5
			c0.5-0.5,0.8-1.1,0.8-1.7c0-0.9-0.6-1.5-1.5-1.5s-1.5,0.5-2,1.1L458.3,341.8z"/>
	</g>
	<g>
		<path d="M474.9,345.2c0,3.2-1.9,5.1-4.2,5.1c-2.4,0-4.2-1.9-4.2-5.1s1.9-5.1,4.2-5.1S474.9,342,474.9,345.2z M468.4,345.2
			c0,2.1,1,3.3,2.3,3.3s2.3-1.1,2.3-3.3s-1-3.3-2.3-3.3S468.4,343.1,468.4,345.2z"/>
	</g>
	<g>
		<path d="M484.8,345.2c0,3.2-1.9,5.1-4.2,5.1c-2.4,0-4.2-1.9-4.2-5.1s1.9-5.1,4.2-5.1S484.8,342,484.8,345.2z M478.3,345.2
			c0,2.1,1,3.3,2.3,3.3s2.3-1.1,2.3-3.3s-1-3.3-2.3-3.3C479.3,342,478.3,343.1,478.3,345.2z"/>
	</g>
	<g>
		<path d="M489.8,346.7c-0.1,0-0.3,0-0.4,0c-2,0-3.4-1.4-3.4-3.3s1.6-3.3,3.7-3.3s3.7,1.4,3.7,3.3c0,0.9-0.3,1.7-0.9,2.6l-2.7,4.1
			h-2.3L489.8,346.7z M491.4,343.5c0-1-0.7-1.6-1.7-1.6s-1.7,0.7-1.7,1.6c0,1,0.7,1.6,1.7,1.6C490.6,345.1,491.4,344.4,491.4,343.5z
			"/>
	</g>
</g>
<g>
	<g>
		<path d="M508.6,341.8c0.5-0.7,1.5-1.7,3.4-1.7c2,0,3.3,1.3,3.3,3.2c0,1.2-0.6,2-1.4,2.9l-2.1,2.2h3.7v1.8H509v-1.5l3.5-3.5
			c0.5-0.5,0.8-1.1,0.8-1.7c0-0.9-0.6-1.5-1.5-1.5c-0.9,0-1.5,0.5-2,1.1L508.6,341.8z"/>
	</g>
	<g>
		<path d="M525.2,345.2c0,3.2-1.9,5.1-4.2,5.1s-4.2-1.9-4.2-5.1s1.9-5.1,4.2-5.1S525.2,342,525.2,345.2z M518.7,345.2
			c0,2.1,1,3.3,2.3,3.3s2.3-1.1,2.3-3.3s-1-3.3-2.3-3.3S518.7,343.1,518.7,345.2z"/>
	</g>
	<g>
		<path d="M530.5,350.1h-1.9v-7.3l-2.3,1v-1.9l4.2-1.7V350.1z"/>
	</g>
	<g>
		<path d="M540.8,345.2c0,3.2-1.9,5.1-4.2,5.1s-4.2-1.9-4.2-5.1s1.9-5.1,4.2-5.1S540.8,342,540.8,345.2z M534.3,345.2
			c0,2.1,1,3.3,2.3,3.3s2.3-1.1,2.3-3.3s-1-3.3-2.3-3.3S534.3,343.1,534.3,345.2z"/>
	</g>
</g>
<g>
	<g>
		<path d="M561.6,341.8c0.5-0.7,1.5-1.7,3.3-1.7c2,0,3.3,1.3,3.3,3.2c0,1.2-0.6,2-1.4,2.9l-2.1,2.2h3.8v1.8H562v-1.5l3.5-3.5
			c0.5-0.5,0.8-1.1,0.8-1.7c0-0.9-0.6-1.5-1.5-1.5s-1.5,0.5-2,1.1L561.6,341.8z"/>
	</g>
	<g>
		<path d="M578.2,345.2c0,3.2-1.9,5.1-4.2,5.1s-4.2-1.9-4.2-5.1s1.9-5.1,4.2-5.1S578.2,342,578.2,345.2z M571.8,345.2
			c0,2.1,1,3.3,2.3,3.3s2.3-1.1,2.3-3.3s-1-3.3-2.3-3.3C572.8,342,571.8,343.1,571.8,345.2z"/>
	</g>
	<g>
		<path d="M583.6,350.1h-1.9v-7.3l-2.3,1v-1.9l4.2-1.7V350.1z"/>
	</g>
	<g>
		<path d="M589.3,350.1h-1.9v-7.3l-2.3,1v-1.9l4.2-1.7V350.1z"/>
	</g>
</g>
<g>
	<g>
		<path d="M611.4,341.8c0.5-0.7,1.5-1.7,3.3-1.7c2,0,3.3,1.3,3.3,3.2c0,1.2-0.6,2-1.4,2.9l-2.1,2.2h3.8v1.8h-6.5v-1.5l3.5-3.5
			c0.5-0.5,0.8-1.1,0.8-1.7c0-0.9-0.6-1.5-1.5-1.5s-1.5,0.5-2,1.1L611.4,341.8z"/>
	</g>
	<g>
		<path d="M628,345.2c0,3.2-1.9,5.1-4.2,5.1s-4.2-1.9-4.2-5.1s1.9-5.1,4.2-5.1S628,342,628,345.2z M621.5,345.2c0,2.1,1,3.3,2.3,3.3
			s2.3-1.1,2.3-3.3s-1-3.3-2.3-3.3C622.5,342,621.5,343.1,621.5,345.2z"/>
	</g>
	<g>
		<path d="M633.3,350.1h-1.9v-7.3l-2.3,1v-1.9l4.2-1.7V350.1z"/>
	</g>
	<g>
		<path d="M634.9,341.8c0.5-0.7,1.5-1.7,3.3-1.7c2,0,3.3,1.3,3.3,3.2c0,1.2-0.6,2-1.4,2.9l-2.1,2.2h3.8v1.8h-6.5v-1.5l3.5-3.5
			c0.5-0.5,0.8-1.1,0.8-1.7c0-0.9-0.6-1.5-1.5-1.5s-1.5,0.5-2,1.1L634.9,341.8z"/>
	</g>
</g>
<g>
	<g>
		<path d="M664.5,341.8c0.5-0.7,1.5-1.7,3.3-1.7c2,0,3.3,1.3,3.3,3.2c0,1.2-0.6,2-1.4,2.9l-2.1,2.2h3.8v1.8H665v-1.5l3.5-3.5
			c0.5-0.5,0.8-1.1,0.8-1.7c0-0.9-0.6-1.5-1.5-1.5s-1.5,0.5-2,1.1L664.5,341.8z"/>
	</g>
	<g>
		<path d="M681.1,345.2c0,3.2-1.9,5.1-4.2,5.1s-4.2-1.9-4.2-5.1s1.9-5.1,4.2-5.1C679.2,340.1,681.1,342,681.1,345.2z M674.6,345.2
			c0,2.1,1,3.3,2.3,3.3s2.3-1.1,2.3-3.3s-1-3.3-2.3-3.3S674.6,343.1,674.6,345.2z"/>
	</g>
	<g>
		<path d="M686.4,350.1h-1.9v-7.3l-2.3,1v-1.9l4.2-1.7V350.1z"/>
	</g>
	<g>
		<path d="M694.8,343c0,1-0.5,1.8-1.5,2.2c1,0.4,1.7,1.2,1.7,2.3c0,1.9-1.8,2.9-3.6,2.9c-1.5,0-2.7-0.5-3.4-1.4l1.1-1.2
			c0.6,0.6,1.4,0.9,2.2,0.9c1,0,1.7-0.4,1.7-1.3c0-0.8-0.9-1.3-1.9-1.3H690v-1.7h1.2c1,0,1.7-0.4,1.7-1.3c0-0.8-0.7-1.2-1.6-1.2
			s-1.6,0.5-2,1l-1.2-1.2c0.6-0.9,1.7-1.5,3.3-1.5C693.4,340.1,694.8,341.3,694.8,343z"/>
	</g>
</g>
<g>
	<g>
		<path d="M714.4,341.8c0.5-0.7,1.5-1.7,3.3-1.7c2,0,3.3,1.3,3.3,3.2c0,1.2-0.6,2-1.4,2.9l-2.1,2.2h3.8v1.8h-6.5v-1.5l3.5-3.5
			c0.5-0.5,0.8-1.1,0.8-1.7c0-0.9-0.6-1.5-1.5-1.5s-1.5,0.5-2,1.1L714.4,341.8z"/>
	</g>
	<g>
		<path d="M731,345.2c0,3.2-1.9,5.1-4.2,5.1s-4.2-1.9-4.2-5.1s1.9-5.1,4.2-5.1S731,342,731,345.2z M724.5,345.2c0,2.1,1,3.3,2.3,3.3
			s2.3-1.1,2.3-3.3s-1-3.3-2.3-3.3S724.5,343.1,724.5,345.2z"/>
	</g>
	<g>
		<path d="M736.3,350.1h-1.9v-7.3l-2.3,1v-1.9l4.2-1.7V350.1z"/>
	</g>
	<g>
		<path d="M744,346.6h1.4v1.8H744v1.8h-1.9v-1.8h-4.3V347l3.4-6.6h2.1l-3.3,6.2h2.1V344h1.9V346.6z"/>
	</g>
</g>
<g>
	<g>
		<path d="M767.4,341.8c0.5-0.7,1.5-1.7,3.3-1.7c2,0,3.3,1.3,3.3,3.2c0,1.2-0.6,2-1.4,2.9l-2.1,2.2h3.8v1.8h-6.5v-1.5l3.5-3.5
			c0.5-0.5,0.8-1.1,0.8-1.7c0-0.9-0.6-1.5-1.5-1.5s-1.5,0.5-2,1.1L767.4,341.8z"/>
	</g>
	<g>
		<path d="M784,345.2c0,3.2-1.9,5.1-4.2,5.1s-4.2-1.9-4.2-5.1s1.9-5.1,4.2-5.1S784,342,784,345.2z M777.5,345.2c0,2.1,1,3.3,2.3,3.3
			s2.3-1.1,2.3-3.3s-1-3.3-2.3-3.3C778.5,342,777.5,343.1,777.5,345.2z"/>
	</g>
	<g>
		<path d="M789.4,350.1h-1.9v-7.3l-2.3,1v-1.9l4.2-1.7V350.1z"/>
	</g>
	<g>
		<path d="M797.5,342.1h-4v2h1.1c2.3,0,3.4,1.3,3.4,3c0,2.1-1.6,3.3-3.6,3.3c-1.5,0-2.7-0.5-3.5-1.5l1.1-1.3c0.5,0.6,1.5,1,2.4,1
			c1.1,0,1.6-0.6,1.6-1.4c0-0.7-0.5-1.4-2-1.4h-2.3l0.1-5.4h5.6L797.5,342.1L797.5,342.1z"/>
	</g>
</g>
<g>
	<g>
		<path d="M818.4,341.8c0.5-0.7,1.5-1.7,3.3-1.7c2,0,3.3,1.3,3.3,3.2c0,1.2-0.6,2-1.4,2.9l-2.1,2.2h3.8v1.8h-6.5v-1.5l3.5-3.5
			c0.5-0.5,0.8-1.1,0.8-1.7c0-0.9-0.6-1.5-1.5-1.5s-1.5,0.5-2,1.1L818.4,341.8z"/>
	</g>
	<g>
		<path d="M835,345.2c0,3.2-1.9,5.1-4.2,5.1s-4.2-1.9-4.2-5.1s1.9-5.1,4.2-5.1S835,342,835,345.2z M828.5,345.2c0,2.1,1,3.3,2.3,3.3
			s2.3-1.1,2.3-3.3s-1-3.3-2.3-3.3C829.5,342,828.5,343.1,828.5,345.2z"/>
	</g>
	<g>
		<path d="M840.3,350.1h-1.9v-7.3l-2.3,1v-1.9l4.2-1.7V350.1z"/>
	</g>
	<g>
		<path d="M845.4,343.7c0.1,0,0.3,0,0.5,0c2,0,3.4,1.4,3.4,3.3s-1.6,3.3-3.7,3.3c-2.1,0-3.7-1.4-3.7-3.3c0-0.9,0.3-1.7,0.9-2.6
			l2.7-4.1h2.3L845.4,343.7z M843.8,347c0,1,0.7,1.6,1.7,1.6s1.7-0.7,1.7-1.6c0-1-0.7-1.6-1.7-1.6C844.6,345.4,843.8,346,843.8,347z
			"/>
	</g>
</g>
<g>
	<g>
		<path d="M870.5,341.8c0.5-0.7,1.5-1.7,3.3-1.7c2,0,3.3,1.3,3.3,3.2c0,1.2-0.6,2-1.4,2.9l-2.1,2.2h3.8v1.8h-6.5v-1.5l3.5-3.5
			c0.5-0.5,0.8-1.1,0.8-1.7c0-0.9-0.6-1.5-1.5-1.5s-1.5,0.5-2,1.1L870.5,341.8z"/>
	</g>
	<g>
		<path d="M887,345.2c0,3.2-1.9,5.1-4.2,5.1s-4.2-1.9-4.2-5.1s1.9-5.1,4.2-5.1C885.2,340.1,887,342,887,345.2z M880.6,345.2
			c0,2.1,1,3.3,2.3,3.3s2.3-1.1,2.3-3.3s-1-3.3-2.3-3.3C881.6,342,880.6,343.1,880.6,345.2z"/>
	</g>
	<g>
		<path d="M892.4,350.1h-1.9v-7.3l-2.3,1v-1.9l4.2-1.7V350.1z"/>
	</g>
	<g>
		<path d="M900.9,341.8l-4.1,8.3h-2.2l4-8H894v-1.8h6.9V341.8L900.9,341.8z"/>
	</g>
</g>
<g>
	<g>
		<path d="M919.1,341.8c0.5-0.7,1.5-1.7,3.3-1.7c2,0,3.3,1.3,3.3,3.2c0,1.2-0.6,2-1.4,2.9l-2.1,2.2h3.8v1.8h-6.5v-1.5l3.5-3.5
			c0.5-0.5,0.8-1.1,0.8-1.7c0-0.9-0.6-1.5-1.5-1.5s-1.5,0.5-2,1.1L919.1,341.8z"/>
	</g>
	<g>
		<path d="M935.7,345.2c0,3.2-1.9,5.1-4.2,5.1s-4.2-1.9-4.2-5.1s1.9-5.1,4.2-5.1S935.7,342,935.7,345.2z M929.2,345.2
			c0,2.1,1,3.3,2.3,3.3s2.3-1.1,2.3-3.3s-1-3.3-2.3-3.3S929.2,343.1,929.2,345.2z"/>
	</g>
	<g>
		<path d="M941,350.1h-1.9v-7.3l-2.3,1v-1.9l4.2-1.7V350.1z"/>
	</g>
	<g>
		<path d="M950.2,343c0,1.1-0.7,1.8-1.5,2.2c1,0.4,1.7,1.1,1.7,2.3c0,1.8-1.7,2.8-3.8,2.8s-3.8-1.1-3.8-2.8c0-1.2,0.8-1.9,1.7-2.3
			c-0.8-0.4-1.5-1.1-1.5-2.2c0-1.8,1.6-2.8,3.6-2.8S950.2,341.2,950.2,343z M944.8,347.3c0,0.9,0.8,1.3,1.8,1.3s1.8-0.5,1.8-1.3
			c0-0.9-0.8-1.3-1.8-1.3S944.8,346.4,944.8,347.3z M945,343.1c0,0.8,0.7,1.3,1.6,1.3c0.9,0,1.6-0.5,1.6-1.3s-0.7-1.3-1.6-1.3
			C945.7,341.9,945,342.3,945,343.1z"/>
	</g>
</g>
<g>
	<g>
		<path d="M970.4,341.8c0.5-0.7,1.5-1.7,3.3-1.7c2,0,3.3,1.3,3.3,3.2c0,1.2-0.6,2-1.4,2.9l-2.1,2.2h3.8v1.8h-6.5v-1.5l3.5-3.5
			c0.5-0.5,0.8-1.1,0.8-1.7c0-0.9-0.6-1.5-1.5-1.5s-1.5,0.5-2,1.1L970.4,341.8z"/>
	</g>
	<g>
		<path d="M987,345.2c0,3.2-1.9,5.1-4.2,5.1s-4.2-1.9-4.2-5.1s1.9-5.1,4.2-5.1S987,342,987,345.2z M980.5,345.2c0,2.1,1,3.3,2.3,3.3
			s2.3-1.1,2.3-3.3s-1-3.3-2.3-3.3C981.5,342,980.5,343.1,980.5,345.2z"/>
	</g>
	<g>
		<path d="M992.3,350.1h-1.9v-7.3l-2.3,1v-1.9l4.2-1.7V350.1z"/>
	</g>
	<g>
		<path d="M997.8,346.7c-0.1,0-0.3,0-0.4,0c-2,0-3.4-1.4-3.4-3.3s1.6-3.3,3.7-3.3c2.1,0,3.7,1.4,3.7,3.3c0,0.9-0.3,1.7-0.9,2.6
			l-2.7,4.1h-2.3L997.8,346.7z M999.3,343.5c0-1-0.7-1.6-1.7-1.6s-1.7,0.7-1.7,1.6c0,1,0.7,1.6,1.7,1.6S999.3,344.4,999.3,343.5z"/>
	</g>
</g>
<g>
	<g>
		<path d="M1019.6,341.8c0.5-0.7,1.5-1.7,3.3-1.7c2.1,0,3.3,1.3,3.3,3.2c0,1.2-0.6,2-1.4,2.9l-2.1,2.2h3.7v1.8h-6.5v-1.5l3.5-3.5
			c0.5-0.5,0.8-1.1,0.8-1.7c0-0.9-0.6-1.5-1.5-1.5s-1.5,0.5-2,1.1L1019.6,341.8z"/>
	</g>
	<g>
		<path d="M1036.2,345.2c0,3.2-1.9,5.1-4.2,5.1c-2.3,0-4.2-1.9-4.2-5.1s1.9-5.1,4.2-5.1C1034.3,340.1,1036.2,342,1036.2,345.2z
			 M1029.7,345.2c0,2.1,1,3.3,2.3,3.3s2.3-1.1,2.3-3.3s-1-3.3-2.3-3.3C1030.7,342,1029.7,343.1,1029.7,345.2z"/>
	</g>
	<g>
		<path d="M1037.2,341.8c0.5-0.7,1.5-1.7,3.3-1.7c2.1,0,3.3,1.3,3.3,3.2c0,1.2-0.6,2-1.4,2.9l-2.1,2.2h3.8v1.8h-6.5v-1.5l3.5-3.5
			c0.5-0.5,0.8-1.1,0.8-1.7c0-0.9-0.6-1.5-1.5-1.5s-1.5,0.5-2,1.1L1037.2,341.8z"/>
	</g>
	<g>
		<path d="M1053.8,345.2c0,3.2-1.9,5.1-4.2,5.1c-2.3,0-4.2-1.9-4.2-5.1s1.9-5.1,4.2-5.1S1053.8,342,1053.8,345.2z M1047.3,345.2
			c0,2.1,1,3.3,2.3,3.3s2.3-1.1,2.3-3.3s-1-3.3-2.3-3.3C1048.3,342,1047.3,343.1,1047.3,345.2z"/>
	</g>
</g>
<g>
	<g>
		<rect x="58" y="22.8" class="st1" width="995.5" height="1"/>
	</g>
</g>
<g>
	<g>
		<g>
			<path d="M98.2,227.1H94v-1.6h4.1L98.2,227.1L98.2,227.1z"/>
		</g>
		<g>
			<path d="M105.8,222.8c0,1-0.6,1.8-1.5,2.2c1,0.4,1.7,1.2,1.7,2.2c0,1.9-1.8,2.9-3.6,2.9c-1.5,0-2.7-0.5-3.4-1.4l1.1-1.2
				c0.6,0.6,1.4,0.9,2.2,0.9c1,0,1.7-0.4,1.7-1.3c0-0.8-0.9-1.3-1.9-1.3H101v-1.7h1.1c1,0,1.7-0.4,1.7-1.2s-0.7-1.2-1.6-1.2
				s-1.6,0.5-2,1l-1.2-1.2c0.6-0.9,1.7-1.5,3.3-1.5C104.3,220,105.8,221.2,105.8,222.8z"/>
		</g>
		<g>
			<path d="M113.8,222.8c0,1-0.6,1.8-1.5,2.2c1,0.4,1.7,1.2,1.7,2.2c0,1.9-1.8,2.9-3.6,2.9c-1.5,0-2.7-0.5-3.4-1.4l1.1-1.2
				c0.6,0.6,1.4,0.9,2.2,0.9c1,0,1.7-0.4,1.7-1.3c0-0.8-0.9-1.3-1.9-1.3H109v-1.7h1.1c1,0,1.7-0.4,1.7-1.2s-0.7-1.2-1.6-1.2
				s-1.6,0.5-2,1l-1.2-1.2c0.6-0.9,1.7-1.5,3.3-1.5C112.4,220,113.8,221.2,113.8,222.8z"/>
		</g>
		<g>
			<path d="M117.7,227.8l-1,4.2h-1.5l0.5-4.2H117.7z"/>
		</g>
		<g>
			<path d="M127.4,225.1c0,3.2-1.9,5.1-4.2,5.1c-2.3,0-4.2-1.9-4.2-5.1s1.9-5.1,4.2-5.1S127.4,221.9,127.4,225.1z M120.9,225.1
				c0,2.1,1,3.3,2.3,3.3s2.3-1.1,2.3-3.3c0-2.1-1-3.3-2.3-3.3S120.9,223,120.9,225.1z"/>
		</g>
		<g>
			<path d="M132.7,230h-1.9v-7.3l-2.3,1v-1.9l4.2-1.7V230z"/>
		</g>
		<g>
			<path d="M143.3,222.7c0,1.5-1.2,2.7-2.7,2.7c-1.6,0-2.7-1.1-2.7-2.7c0-1.5,1.2-2.7,2.7-2.7S143.3,221.2,143.3,222.7z
				 M139.4,222.7c0,0.7,0.5,1.2,1.2,1.2s1.2-0.5,1.2-1.2s-0.5-1.2-1.2-1.2S139.4,222,139.4,222.7z M141.8,230H140l6.6-9.8h1.8
				L141.8,230z M150.6,227.5c0,1.5-1.2,2.7-2.7,2.7c-1.6,0-2.7-1.1-2.7-2.7c0-1.5,1.2-2.7,2.7-2.7
				C149.5,224.8,150.6,226,150.6,227.5z M146.7,227.5c0,0.7,0.5,1.2,1.2,1.2s1.2-0.5,1.2-1.2s-0.5-1.2-1.2-1.2
				S146.7,226.8,146.7,227.5z"/>
		</g>
	</g>
	<g>
		<g>
			<path d="M149.9,115.1h-4.1v-1.6h4.1V115.1z"/>
		</g>
		<g>
			<path d="M154.8,118h-1.9v-7.3l-2.3,1v-1.9l4.2-1.7V118z"/>
		</g>
		<g>
			<path d="M163.2,110.8c0,1-0.6,1.8-1.5,2.2c1,0.4,1.7,1.2,1.7,2.2c0,1.9-1.8,2.9-3.6,2.9c-1.5,0-2.7-0.5-3.4-1.4l1.1-1.2
				c0.6,0.6,1.4,0.9,2.2,0.9c1,0,1.7-0.4,1.7-1.3c0-0.8-0.9-1.3-1.9-1.3h-1.1v-1.7h1.1c1,0,1.7-0.4,1.7-1.2c0-0.8-0.7-1.2-1.6-1.2
				c-0.9,0-1.6,0.5-2,1l-1.2-1.2c0.6-0.9,1.7-1.5,3.3-1.5C161.7,108,163.2,109.2,163.2,110.8z"/>
		</g>
		<g>
			<path d="M167.1,115.8l-1,4.2h-1.5l0.5-4.2H167.1z"/>
		</g>
		<g>
			<path d="M174.9,109.7l-4.1,8.3h-2.2l4-8H168v-1.8h6.9V109.7z"/>
		</g>
		<g>
			<path d="M183.3,110.8c0,1.1-0.7,1.8-1.5,2.2c1,0.4,1.7,1.1,1.7,2.3c0,1.8-1.7,2.8-3.8,2.8s-3.8-1.1-3.8-2.8
				c0-1.2,0.8-1.9,1.7-2.3c-0.8-0.4-1.5-1.1-1.5-2.2c0-1.8,1.6-2.8,3.6-2.8S183.3,109.1,183.3,110.8z M177.9,115.2
				c0,0.9,0.8,1.3,1.8,1.3s1.8-0.5,1.8-1.3c0-0.9-0.8-1.3-1.8-1.3C178.7,113.8,177.9,114.3,177.9,115.2z M178.1,111
				c0,0.8,0.7,1.3,1.6,1.3s1.6-0.4,1.6-1.3c0-0.8-0.7-1.3-1.6-1.3S178.1,110.2,178.1,111z"/>
		</g>
		<g>
			<path d="M193.6,110.7c0,1.5-1.2,2.7-2.7,2.7c-1.6,0-2.7-1.1-2.7-2.7c0-1.5,1.2-2.7,2.7-2.7C192.4,108,193.6,109.2,193.6,110.7z
				 M189.7,110.7c0,0.7,0.5,1.2,1.2,1.2s1.2-0.5,1.2-1.2s-0.5-1.2-1.2-1.2S189.7,110,189.7,110.7z M192.2,118h-1.8l6.6-9.8h1.8
				L192.2,118z M200.9,115.5c0,1.5-1.2,2.7-2.7,2.7c-1.6,0-2.7-1.1-2.7-2.7c0-1.5,1.2-2.7,2.7-2.7
				C199.8,112.8,200.9,114,200.9,115.5z M197,115.5c0,0.7,0.5,1.2,1.2,1.2s1.2-0.5,1.2-1.2s-0.5-1.2-1.2-1.2S197,114.8,197,115.5z"
				/>
		</g>
	</g>
	<g>
		<g>
			<path d="M204.1,83.1H200v-1.6h4.1V83.1z"/>
		</g>
		<g>
			<path d="M211.2,77.7l-4.1,8.3H205l4-8h-4.7v-1.8h6.9V77.7z"/>
		</g>
		<g>
			<path d="M213.6,83.8l-1,4.2h-1.5l0.5-4.2H213.6z"/>
		</g>
		<g>
			<path d="M220.9,82.5h1.4v1.8h-1.4V86H219v-1.8h-4.3v-1.4l3.4-6.6h2.1l-3.3,6.2h2.1v-2.6h1.9V82.5z"/>
		</g>
		<g>
			<path d="M229.7,78.8c0,1-0.6,1.8-1.5,2.2c1,0.4,1.7,1.2,1.7,2.2c0,1.9-1.8,2.9-3.6,2.9c-1.5,0-2.7-0.5-3.4-1.4l1.1-1.2
				c0.6,0.6,1.4,0.9,2.2,0.9c1,0,1.7-0.4,1.7-1.3c0-0.8-0.9-1.3-1.9-1.3h-1.1v-1.7h1.1c1,0,1.7-0.4,1.7-1.2c0-0.8-0.7-1.2-1.6-1.2
				c-0.9,0-1.6,0.5-2,1l-1.2-1.2c0.6-0.9,1.7-1.5,3.3-1.5C228.3,76,229.7,77.2,229.7,78.8z"/>
		</g>
		<g>
			<path d="M240,78.7c0,1.5-1.2,2.7-2.7,2.7c-1.6,0-2.7-1.1-2.7-2.7c0-1.5,1.2-2.7,2.7-2.7S240,77.2,240,78.7z M236.1,78.7
				c0,0.7,0.5,1.2,1.2,1.2s1.2-0.5,1.2-1.2s-0.5-1.2-1.2-1.2S236.1,78,236.1,78.7z M238.6,86h-1.8l6.6-9.8h1.8L238.6,86z
				 M247.4,83.5c0,1.5-1.2,2.7-2.7,2.7c-1.6,0-2.7-1.1-2.7-2.7c0-1.5,1.2-2.7,2.7-2.7S247.4,82,247.4,83.5z M243.4,83.5
				c0,0.7,0.5,1.2,1.2,1.2s1.2-0.5,1.2-1.2s-0.5-1.2-1.2-1.2S243.4,82.8,243.4,83.5z"/>
		</g>
	</g>
	<g>
		<g>
			<path d="M304,86.1h-4.1v-1.6h4.1V86.1z"/>
		</g>
		<g>
			<path d="M311.1,80.7L307,89h-2.2l4-8h-4.7v-1.8h6.9v1.5H311.1z"/>
		</g>
		<g>
			<path d="M313.4,86.8l-1,4.2h-1.5l0.5-4.2H313.4z"/>
		</g>
		<g>
			<path d="M320.7,85.5h1.4v1.8h-1.4V89h-1.9v-1.8h-4.3v-1.4l3.4-6.6h2.1l-3.3,6.2h2.1v-2.6h1.9L320.7,85.5L320.7,85.5z"/>
		</g>
		<g>
			<path d="M326.4,82.6c0.1,0,0.3,0,0.5,0c2,0,3.4,1.4,3.4,3.3s-1.6,3.3-3.7,3.3s-3.7-1.4-3.7-3.3c0-0.9,0.3-1.7,0.9-2.6l2.7-4.1
				h2.3L326.4,82.6z M324.8,85.9c0,1,0.7,1.6,1.7,1.6s1.7-0.7,1.7-1.6s-0.7-1.6-1.7-1.6C325.6,84.3,324.8,84.9,324.8,85.9z"/>
		</g>
		<g>
			<path d="M340.1,81.7c0,1.5-1.2,2.7-2.7,2.7c-1.6,0-2.7-1.1-2.7-2.7c0-1.5,1.2-2.7,2.7-2.7C339,79,340.1,80.2,340.1,81.7z
				 M336.2,81.7c0,0.7,0.5,1.2,1.2,1.2s1.2-0.5,1.2-1.2s-0.5-1.2-1.2-1.2S336.2,81,336.2,81.7z M338.7,89h-1.8l6.6-9.8h1.8L338.7,89
				z M347.5,86.5c0,1.5-1.2,2.7-2.7,2.7c-1.6,0-2.7-1.1-2.7-2.7c0-1.5,1.2-2.7,2.7-2.7S347.5,85,347.5,86.5z M343.6,86.5
				c0,0.7,0.5,1.2,1.2,1.2s1.2-0.5,1.2-1.2s-0.5-1.2-1.2-1.2S343.6,85.8,343.6,86.5z"/>
		</g>
	</g>
	<g>
		<g>
			<path d="M356,93.1h-4.1v-1.6h4.1V93.1z"/>
		</g>
		<g>
			<path d="M361,92.6c-0.1,0-0.3,0-0.4,0c-2,0-3.4-1.4-3.4-3.3s1.6-3.3,3.7-3.3s3.7,1.4,3.7,3.3c0,0.9-0.3,1.7-0.9,2.6L361,96h-2.3
				L361,92.6z M362.5,89.4c0-1-0.7-1.6-1.7-1.6s-1.7,0.7-1.7,1.6s0.7,1.6,1.7,1.6S362.5,90.3,362.5,89.4z"/>
		</g>
		<g>
			<path d="M367.4,93.8l-1,4.2h-1.5l0.5-4.2H367.4z"/>
		</g>
		<g>
			<path d="M376.1,88.8c0,1.1-0.7,1.8-1.5,2.2c1,0.4,1.7,1.1,1.7,2.3c0,1.8-1.7,2.8-3.8,2.8c-2.1,0-3.8-1.1-3.8-2.8
				c0-1.2,0.8-1.9,1.7-2.3c-0.8-0.4-1.5-1.1-1.5-2.2c0-1.8,1.6-2.8,3.6-2.8C374.5,86,376.1,87.1,376.1,88.8z M370.7,93.2
				c0,0.9,0.8,1.3,1.8,1.3s1.8-0.5,1.8-1.3c0-0.9-0.8-1.3-1.8-1.3C371.5,91.8,370.7,92.3,370.7,93.2z M370.9,89
				c0,0.8,0.7,1.3,1.6,1.3s1.6-0.4,1.6-1.3c0-0.8-0.7-1.3-1.6-1.3S370.9,88.2,370.9,89z"/>
		</g>
		<g>
			<path d="M384.3,87.7l-4.1,8.3H378l4-8h-4.7v-1.8h6.9v1.5H384.3z"/>
		</g>
		<g>
			<path d="M394.1,88.7c0,1.5-1.2,2.7-2.7,2.7c-1.6,0-2.7-1.1-2.7-2.7c0-1.5,1.2-2.7,2.7-2.7S394.1,87.2,394.1,88.7z M390.1,88.7
				c0,0.7,0.5,1.2,1.2,1.2s1.2-0.5,1.2-1.2s-0.5-1.2-1.2-1.2S390.1,88,390.1,88.7z M392.6,96h-1.8l6.6-9.8h1.8L392.6,96z
				 M401.4,93.5c0,1.5-1.2,2.7-2.7,2.7c-1.6,0-2.7-1.1-2.7-2.7c0-1.5,1.2-2.7,2.7-2.7C400.3,90.8,401.4,92,401.4,93.5z M397.5,93.5
				c0,0.7,0.5,1.2,1.2,1.2s1.2-0.5,1.2-1.2s-0.5-1.2-1.2-1.2S397.5,92.8,397.5,93.5z"/>
		</g>
	</g>
	<g>
		<g>
			<path d="M609.8,93.1h-4.1v-1.6h4.1V93.1z"/>
		</g>
		<g>
			<path d="M614.7,92.6c-0.1,0-0.3,0-0.4,0c-2,0-3.4-1.4-3.4-3.3s1.6-3.3,3.7-3.3c2.1,0,3.7,1.4,3.7,3.3c0,0.9-0.3,1.7-0.9,2.6
				l-2.7,4.1h-2.3L614.7,92.6z M616.3,89.4c0-1-0.7-1.6-1.7-1.6s-1.7,0.7-1.7,1.6s0.7,1.6,1.7,1.6S616.3,90.3,616.3,89.4z"/>
		</g>
		<g>
			<path d="M621.2,93.8l-1,4.2h-1.5l0.5-4.2H621.2z"/>
		</g>
		<g>
			<path d="M628.8,88h-4v2h1.1c2.3,0,3.4,1.3,3.4,2.9c0,2.1-1.6,3.3-3.6,3.3c-1.5,0-2.7-0.5-3.5-1.5l1.1-1.3c0.5,0.6,1.5,1,2.4,1
				c1.1,0,1.6-0.6,1.6-1.4c0-0.7-0.5-1.4-2-1.4H623l0.1-5.4h5.6V88H628.8z"/>
		</g>
		<g>
			<path d="M638,88.8c0,1.1-0.7,1.8-1.5,2.2c1,0.4,1.7,1.1,1.7,2.3c0,1.8-1.7,2.8-3.8,2.8s-3.8-1.1-3.8-2.8c0-1.2,0.8-1.9,1.7-2.3
				c-0.8-0.4-1.5-1.1-1.5-2.2c0-1.8,1.6-2.8,3.6-2.8S638,87.1,638,88.8z M632.6,93.2c0,0.9,0.8,1.3,1.8,1.3s1.8-0.5,1.8-1.3
				c0-0.9-0.8-1.3-1.8-1.3C633.4,91.8,632.6,92.3,632.6,93.2z M632.8,89c0,0.8,0.7,1.3,1.6,1.3c0.9,0,1.6-0.4,1.6-1.3
				c0-0.8-0.7-1.3-1.6-1.3S632.8,88.2,632.8,89z"/>
		</g>
		<g>
			<path d="M648.3,88.7c0,1.5-1.2,2.7-2.7,2.7c-1.6,0-2.7-1.1-2.7-2.7c0-1.5,1.2-2.7,2.7-2.7S648.3,87.2,648.3,88.7z M644.4,88.7
				c0,0.7,0.5,1.2,1.2,1.2s1.2-0.5,1.2-1.2s-0.5-1.2-1.2-1.2S644.4,88,644.4,88.7z M646.9,96H645l6.6-9.8h1.8L646.9,96z M655.7,93.5
				c0,1.5-1.2,2.7-2.7,2.7c-1.6,0-2.7-1.1-2.7-2.7c0-1.5,1.2-2.7,2.7-2.7S655.7,92,655.7,93.5z M651.7,93.5c0,0.7,0.5,1.2,1.2,1.2
				s1.2-0.5,1.2-1.2s-0.5-1.2-1.2-1.2S651.7,92.8,651.7,93.5z"/>
		</g>
	</g>
	<g>
		<g>
			<path d="M756.4,108.1h-4.1v-1.6h4.1V108.1z"/>
		</g>
		<g>
			<path d="M761.3,111h-1.9v-7.3l-2.3,1v-1.9l4.2-1.7V111z"/>
		</g>
		<g>
			<path d="M762.9,102.7c0.5-0.7,1.5-1.7,3.3-1.7c2.1,0,3.3,1.3,3.3,3.2c0,1.2-0.6,2-1.4,2.9l-2.1,2.2h3.7v1.8h-6.5v-1.5l3.5-3.6
				c0.5-0.5,0.8-1.1,0.8-1.7c0-0.9-0.6-1.5-1.5-1.5s-1.5,0.5-2,1.1L762.9,102.7z"/>
		</g>
		<g>
			<path d="M773.7,108.8l-1,4.2h-1.5l0.5-4.2H773.7z"/>
		</g>
		<g>
			<path d="M783.3,106.1c0,3.2-1.9,5.1-4.2,5.1s-4.2-1.9-4.2-5.1s1.9-5.1,4.2-5.1C781.4,101,783.3,102.9,783.3,106.1z M776.8,106.1
				c0,2.1,1,3.3,2.3,3.3s2.3-1.1,2.3-3.3c0-2.1-1-3.3-2.3-3.3C777.8,102.8,776.8,104,776.8,106.1z"/>
		</g>
		<g>
			<path d="M790.6,107.5h1.4v1.8h-1.4v1.8h-1.9v-1.8h-4.3v-1.4l3.4-6.6h2.1l-3.3,6.2h2.1v-2.6h1.9V107.5z"/>
		</g>
		<g>
			<path d="M801.7,103.7c0,1.5-1.2,2.7-2.7,2.7c-1.6,0-2.7-1.1-2.7-2.7c0-1.5,1.2-2.7,2.7-2.7C800.6,101,801.7,102.2,801.7,103.7z
				 M797.8,103.7c0,0.7,0.5,1.2,1.2,1.2s1.2-0.5,1.2-1.2s-0.5-1.2-1.2-1.2S797.8,103,797.8,103.7z M800.3,111h-1.8l6.6-9.8h1.8
				L800.3,111z M809.1,108.5c0,1.5-1.2,2.7-2.7,2.7c-1.6,0-2.7-1.1-2.7-2.7c0-1.5,1.2-2.7,2.7-2.7
				C807.9,105.8,809.1,107,809.1,108.5z M805.2,108.5c0,0.7,0.5,1.2,1.2,1.2s1.2-0.5,1.2-1.2s-0.5-1.2-1.2-1.2
				S805.2,107.8,805.2,108.5z"/>
		</g>
	</g>
	<g>
		<g>
			<path d="M809.7,94.1h-4.1v-1.6h4.1V94.1z"/>
		</g>
		<g>
			<path d="M814.7,97h-1.9v-7.3l-2.3,1v-1.9l4.2-1.7V97z"/>
		</g>
		<g>
			<path d="M825,92.1c0,3.2-1.9,5.1-4.2,5.1s-4.2-1.9-4.2-5.1s1.9-5.1,4.2-5.1S825,88.9,825,92.1z M818.5,92.1c0,2.1,1,3.3,2.3,3.3
				s2.3-1.1,2.3-3.3c0-2.1-1-3.3-2.3-3.3C819.5,88.8,818.5,90,818.5,92.1z"/>
		</g>
		<g>
			<path d="M828.7,94.8l-1,4.2h-1.5l0.5-4.2H828.7z"/>
		</g>
		<g>
			<path d="M829.8,88.7c0.5-0.7,1.5-1.7,3.3-1.7c2.1,0,3.3,1.3,3.3,3.2c0,1.2-0.6,2-1.4,2.9l-2.1,2.2h3.7V97h-6.5v-1.5l3.5-3.6
				c0.5-0.5,0.8-1.1,0.8-1.7c0-0.9-0.6-1.5-1.5-1.5s-1.5,0.5-2,1.1L829.8,88.7z"/>
		</g>
		<g>
			<path d="M844.6,88.7l-4.1,8.3h-2.2l4-8h-4.7v-1.8h6.9L844.6,88.7L844.6,88.7z"/>
		</g>
		<g>
			<path d="M854.4,89.7c0,1.5-1.2,2.7-2.7,2.7c-1.6,0-2.7-1.1-2.7-2.7c0-1.5,1.2-2.7,2.7-2.7S854.4,88.2,854.4,89.7z M850.4,89.7
				c0,0.7,0.5,1.2,1.2,1.2s1.2-0.5,1.2-1.2s-0.5-1.2-1.2-1.2S850.4,89,850.4,89.7z M852.9,97h-1.8l6.6-9.8h1.8L852.9,97z
				 M861.7,94.5c0,1.5-1.2,2.7-2.7,2.7c-1.6,0-2.7-1.1-2.7-2.7c0-1.5,1.2-2.7,2.7-2.7C860.6,91.8,861.7,93,861.7,94.5z M857.8,94.5
				c0,0.7,0.5,1.2,1.2,1.2s1.2-0.5,1.2-1.2s-0.5-1.2-1.2-1.2S857.8,93.8,857.8,94.5z"/>
		</g>
	</g>
	<g>
		<g>
			<path d="M963.8,76.1h-4.1v-1.6h4.1V76.1z"/>
		</g>
		<g>
			<path d="M968.7,72.6c0.1,0,0.3,0,0.5,0c2,0,3.4,1.4,3.4,3.3s-1.6,3.3-3.7,3.3c-2.1,0-3.7-1.4-3.7-3.3c0-0.9,0.3-1.7,0.9-2.6
				l2.7-4.1h2.3L968.7,72.6z M967.1,75.9c0,1,0.7,1.6,1.7,1.6s1.7-0.7,1.7-1.6s-0.7-1.6-1.7-1.6C967.9,74.3,967.1,74.9,967.1,75.9z"
				/>
		</g>
		<g>
			<path d="M976.1,76.8l-1,4.2h-1.5l0.5-4.2H976.1z"/>
		</g>
		<g>
			<path d="M980.7,72.6c0.1,0,0.3,0,0.5,0c2,0,3.4,1.4,3.4,3.3s-1.6,3.3-3.7,3.3c-2.1,0-3.7-1.4-3.7-3.3c0-0.9,0.3-1.7,0.9-2.6
				l2.7-4.1h2.3L980.7,72.6z M979.1,75.9c0,1,0.7,1.6,1.7,1.6s1.7-0.7,1.7-1.6s-0.7-1.6-1.7-1.6C979.9,74.3,979.1,74.9,979.1,75.9z"
				/>
		</g>
		<g>
			<path d="M985.4,70.7c0.5-0.7,1.5-1.7,3.3-1.7c2.1,0,3.3,1.3,3.3,3.2c0,1.2-0.6,2-1.4,2.9l-2.1,2.2h3.7V79h-6.5v-1.5l3.5-3.6
				c0.5-0.5,0.8-1.1,0.8-1.7c0-0.9-0.6-1.5-1.5-1.5s-1.5,0.5-2,1.1L985.4,70.7z"/>
		</g>
		<g>
			<path d="M1002.3,71.7c0,1.5-1.2,2.7-2.7,2.7c-1.6,0-2.7-1.1-2.7-2.7c0-1.5,1.2-2.7,2.7-2.7S1002.3,70.2,1002.3,71.7z M998.4,71.7
				c0,0.7,0.5,1.2,1.2,1.2s1.2-0.5,1.2-1.2s-0.5-1.2-1.2-1.2S998.4,71,998.4,71.7z M1000.8,79H999l6.6-9.8h1.8L1000.8,79z
				 M1009.6,76.5c0,1.5-1.2,2.7-2.7,2.7c-1.6,0-2.7-1.1-2.7-2.7c0-1.5,1.2-2.7,2.7-2.7C1008.5,73.8,1009.6,75,1009.6,76.5z
				 M1005.7,76.5c0,0.7,0.5,1.2,1.2,1.2s1.2-0.5,1.2-1.2s-0.5-1.2-1.2-1.2S1005.7,75.8,1005.7,76.5z"/>
		</g>
	</g>
	<g>
		<g>
			<path d="M1012.4,226.1h-4.1v-1.6h4.1V226.1z"/>
		</g>
		<g>
			<path d="M1020,221.8c0,1-0.6,1.8-1.5,2.2c1,0.4,1.7,1.2,1.7,2.2c0,1.9-1.8,2.9-3.6,2.9c-1.5,0-2.7-0.5-3.4-1.4l1.1-1.2
				c0.6,0.6,1.4,0.9,2.2,0.9c1,0,1.7-0.4,1.7-1.3c0-0.8-0.9-1.3-1.9-1.3h-1.1v-1.7h1.1c1,0,1.7-0.4,1.7-1.2s-0.7-1.2-1.6-1.2
				s-1.6,0.5-2,1l-1.2-1.2c0.6-0.9,1.7-1.5,3.3-1.5C1018.6,219,1020,220.2,1020,221.8z"/>
		</g>
		<g>
			<path d="M1028,221.8c0,1-0.6,1.8-1.5,2.2c1,0.4,1.7,1.2,1.7,2.2c0,1.9-1.8,2.9-3.6,2.9c-1.5,0-2.7-0.5-3.4-1.4l1.1-1.2
				c0.6,0.6,1.4,0.9,2.2,0.9c1,0,1.7-0.4,1.7-1.3c0-0.8-0.9-1.3-1.9-1.3h-1.1v-1.7h1.1c1,0,1.7-0.4,1.7-1.2s-0.7-1.2-1.6-1.2
				c-0.9,0-1.6,0.5-2,1l-1.2-1.2c0.6-0.9,1.7-1.5,3.3-1.5C1026.6,219,1028,220.2,1028,221.8z"/>
		</g>
		<g>
			<path d="M1032.8,226.8l-1,4.2h-1.5l0.5-4.2H1032.8z"/>
		</g>
		<g>
			<path d="M1040.6,220.7l-4.1,8.3h-2.2l4-8h-4.7v-1.8h6.9L1040.6,220.7L1040.6,220.7z"/>
		</g>
		<g>
			<path d="M1045.3,225.6c-0.1,0-0.3,0-0.4,0c-2,0-3.4-1.4-3.4-3.3c0-1.9,1.6-3.3,3.7-3.3s3.7,1.4,3.7,3.3c0,0.9-0.3,1.7-0.9,2.6
				l-2.7,4.1h-2.3L1045.3,225.6z M1046.8,222.4c0-1-0.7-1.6-1.7-1.6s-1.7,0.7-1.7,1.6c0,0.9,0.7,1.6,1.7,1.6
				C1046.1,224,1046.8,223.3,1046.8,222.4z"/>
		</g>
		<g>
			<path d="M1058.7,221.7c0,1.5-1.2,2.7-2.7,2.7c-1.6,0-2.7-1.1-2.7-2.7c0-1.5,1.2-2.7,2.7-2.7S1058.7,220.2,1058.7,221.7z
				 M1054.8,221.7c0,0.7,0.5,1.2,1.2,1.2s1.2-0.5,1.2-1.2s-0.5-1.2-1.2-1.2S1054.8,221,1054.8,221.7z M1057.3,229h-1.8l6.6-9.8h1.8
				L1057.3,229z M1066.1,226.5c0,1.5-1.2,2.7-2.7,2.7c-1.6,0-2.7-1.1-2.7-2.7c0-1.5,1.2-2.7,2.7-2.7S1066.1,225,1066.1,226.5z
				 M1062.1,226.5c0,0.7,0.5,1.2,1.2,1.2s1.2-0.5,1.2-1.2s-0.5-1.2-1.2-1.2S1062.1,225.8,1062.1,226.5z"/>
		</g>
	</g>
	<g>
		<g>
			<path d="M912.5,145.1h-4.1v-1.6h4.1V145.1z"/>
		</g>
		<g>
			<path d="M917.4,148h-1.9v-7.3l-2.3,1v-1.9l4.2-1.7V148z"/>
		</g>
		<g>
			<path d="M922.9,144.6c-0.1,0-0.3,0-0.4,0c-2,0-3.4-1.4-3.4-3.3c0-1.9,1.6-3.3,3.7-3.3c2.1,0,3.7,1.4,3.7,3.3
				c0,0.9-0.3,1.7-0.9,2.6l-2.7,4.1h-2.3L922.9,144.6z M924.4,141.4c0-1-0.7-1.6-1.7-1.6s-1.7,0.7-1.7,1.6c0,0.9,0.7,1.6,1.7,1.6
				S924.4,142.3,924.4,141.4z"/>
		</g>
		<g>
			<path d="M929.3,145.8l-1,4.2h-1.5l0.5-4.2H929.3z"/>
		</g>
		<g>
			<path d="M937.1,140.8c0,1-0.6,1.8-1.5,2.2c1,0.4,1.7,1.2,1.7,2.2c0,1.9-1.8,2.9-3.6,2.9c-1.5,0-2.7-0.5-3.4-1.4l1.1-1.2
				c0.6,0.6,1.4,0.9,2.2,0.9c1,0,1.7-0.4,1.7-1.3c0-0.8-0.9-1.3-1.9-1.3h-1.1v-1.7h1.1c1,0,1.7-0.4,1.7-1.2s-0.7-1.2-1.6-1.2
				c-0.9,0-1.6,0.5-2,1l-1.2-1.2c0.6-0.9,1.7-1.5,3.3-1.5C935.7,138,937.1,139.2,937.1,140.8z"/>
		</g>
		<g>
			<path d="M941.9,141.6c0.1,0,0.3,0,0.5,0c2,0,3.4,1.4,3.4,3.3c0,1.9-1.6,3.3-3.7,3.3c-2.1,0-3.7-1.4-3.7-3.3
				c0-0.9,0.3-1.7,0.9-2.6l2.7-4.1h2.3L941.9,141.6z M940.3,144.9c0,1,0.7,1.6,1.7,1.6s1.7-0.7,1.7-1.6c0-0.9-0.7-1.6-1.7-1.6
				C941.1,143.3,940.3,143.9,940.3,144.9z"/>
		</g>
		<g>
			<path d="M955.6,140.7c0,1.5-1.2,2.7-2.7,2.7c-1.6,0-2.7-1.1-2.7-2.7c0-1.5,1.2-2.7,2.7-2.7C954.5,138,955.6,139.2,955.6,140.7z
				 M951.7,140.7c0,0.7,0.5,1.2,1.2,1.2s1.2-0.5,1.2-1.2s-0.5-1.2-1.2-1.2S951.7,140,951.7,140.7z M954.2,148h-1.8l6.6-9.8h1.8
				L954.2,148z M963,145.5c0,1.5-1.2,2.7-2.7,2.7c-1.6,0-2.7-1.1-2.7-2.7c0-1.5,1.2-2.7,2.7-2.7S963,144,963,145.5z M959.1,145.5
				c0,0.7,0.5,1.2,1.2,1.2s1.2-0.5,1.2-1.2s-0.5-1.2-1.2-1.2S959.1,144.8,959.1,145.5z"/>
		</g>
	</g>
	<g>
		<g>
			<path d="M709.9,79.1h-4.1v-1.6h4.1V79.1z"/>
		</g>
		<g>
			<path d="M717,73.7l-4,8.3h-2.2l4-8h-4.7v-1.8h6.9V73.7z"/>
		</g>
		<g>
			<path d="M719.4,79.8l-1,4.2h-1.5l0.5-4.2H719.4z"/>
		</g>
		<g>
			<path d="M720.5,73.7C721,73,722,72,723.8,72c2.1,0,3.3,1.3,3.3,3.2c0,1.2-0.6,2-1.4,2.9l-2.1,2.2h3.7V82h-6.5v-1.5l3.5-3.6
				c0.5-0.5,0.8-1.1,0.8-1.7c0-0.9-0.6-1.5-1.5-1.5s-1.5,0.5-2,1.1L720.5,73.7z"/>
		</g>
		<g>
			<path d="M735.9,74.8c0,1.1-0.7,1.8-1.5,2.2c1,0.4,1.7,1.1,1.7,2.3c0,1.8-1.7,2.8-3.8,2.8s-3.8-1.1-3.8-2.8c0-1.2,0.8-1.9,1.7-2.3
				c-0.8-0.4-1.5-1.1-1.5-2.2c0-1.8,1.6-2.8,3.6-2.8C734.3,72,735.9,73.1,735.9,74.8z M730.5,79.2c0,0.9,0.8,1.3,1.8,1.3
				s1.8-0.5,1.8-1.3c0-0.9-0.8-1.3-1.8-1.3C731.3,77.8,730.5,78.3,730.5,79.2z M730.7,75c0,0.8,0.7,1.3,1.6,1.3
				c0.9,0,1.6-0.4,1.6-1.3c0-0.8-0.7-1.3-1.6-1.3C731.5,73.7,730.7,74.2,730.7,75z"/>
		</g>
		<g>
			<path d="M746.2,74.7c0,1.5-1.2,2.7-2.7,2.7c-1.6,0-2.7-1.1-2.7-2.7c0-1.5,1.2-2.7,2.7-2.7S746.2,73.2,746.2,74.7z M742.3,74.7
				c0,0.7,0.5,1.2,1.2,1.2s1.2-0.5,1.2-1.2s-0.5-1.2-1.2-1.2S742.3,74,742.3,74.7z M744.8,82H743l6.6-9.8h1.8L744.8,82z M753.6,79.5
				c0,1.5-1.2,2.7-2.7,2.7c-1.6,0-2.7-1.1-2.7-2.7c0-1.5,1.2-2.7,2.7-2.7C752.4,76.8,753.6,78,753.6,79.5z M749.7,79.5
				c0,0.7,0.5,1.2,1.2,1.2s1.2-0.5,1.2-1.2s-0.5-1.2-1.2-1.2S749.7,78.8,749.7,79.5z"/>
		</g>
	</g>
	<g>
		<g>
			<path d="M659.5,69.1h-4.1v-1.6h4.1V69.1z"/>
		</g>
		<g>
			<path d="M667.2,64h-4v2h1.1c2.3,0,3.4,1.3,3.4,2.9c0,2.1-1.6,3.3-3.6,3.3c-1.5,0-2.7-0.5-3.5-1.5l1.1-1.3c0.5,0.6,1.5,1,2.4,1
				c1.1,0,1.6-0.6,1.6-1.4c0-0.7-0.5-1.4-2-1.4h-2.3l0.1-5.4h5.6V64H667.2z"/>
		</g>
		<g>
			<path d="M671.5,69.8l-1,4.2H669l0.5-4.2H671.5z"/>
		</g>
		<g>
			<path d="M679.1,64h-4v2h1.1c2.3,0,3.4,1.3,3.4,2.9c0,2.1-1.6,3.3-3.6,3.3c-1.5,0-2.7-0.5-3.5-1.5l1.1-1.3c0.5,0.6,1.5,1,2.4,1
				c1.1,0,1.6-0.6,1.6-1.4c0-0.7-0.5-1.4-2-1.4h-2.3l0.1-5.4h5.6V64H679.1z"/>
		</g>
		<g>
			<path d="M688.3,64.8c0,1.1-0.7,1.8-1.5,2.2c1,0.4,1.7,1.1,1.7,2.3c0,1.8-1.7,2.8-3.8,2.8s-3.8-1.1-3.8-2.8c0-1.2,0.8-1.9,1.7-2.3
				c-0.8-0.4-1.5-1.1-1.5-2.2c0-1.8,1.6-2.8,3.6-2.8S688.3,63.1,688.3,64.8z M682.9,69.2c0,0.9,0.8,1.3,1.8,1.3s1.8-0.5,1.8-1.3
				c0-0.9-0.8-1.3-1.8-1.3C683.7,67.8,682.9,68.3,682.9,69.2z M683.1,65c0,0.8,0.7,1.3,1.6,1.3c0.9,0,1.6-0.4,1.6-1.3
				c0-0.8-0.7-1.3-1.6-1.3S683.1,64.2,683.1,65z"/>
		</g>
		<g>
			<path d="M698.6,64.7c0,1.5-1.2,2.7-2.7,2.7c-1.6,0-2.7-1.1-2.7-2.7c0-1.5,1.2-2.7,2.7-2.7C697.4,62,698.6,63.2,698.6,64.7z
				 M694.7,64.7c0,0.7,0.5,1.2,1.2,1.2s1.2-0.5,1.2-1.2c0-0.7-0.5-1.2-1.2-1.2C695.2,63.5,694.7,64,694.7,64.7z M697.2,72h-1.8
				l6.6-9.8h1.8L697.2,72z M706,69.5c0,1.5-1.2,2.7-2.7,2.7c-1.6,0-2.7-1.1-2.7-2.7c0-1.5,1.2-2.7,2.7-2.7S706,68,706,69.5z
				 M702.1,69.5c0,0.7,0.5,1.2,1.2,1.2s1.2-0.5,1.2-1.2s-0.5-1.2-1.2-1.2S702.1,68.8,702.1,69.5z"/>
		</g>
	</g>
	<g>
		<g>
			<path d="M455.4,191.1h-4.1v-1.6h4.1V191.1z"/>
		</g>
		<g>
			<path d="M456.2,185.7c0.5-0.7,1.5-1.7,3.3-1.7c2.1,0,3.3,1.3,3.3,3.2c0,1.2-0.6,2-1.4,2.9l-2.1,2.2h3.7v1.8h-6.5v-1.5l3.5-3.6
				c0.5-0.5,0.8-1.1,0.8-1.7c0-0.9-0.6-1.5-1.5-1.5s-1.5,0.5-2,1.1L456.2,185.7z"/>
		</g>
		<g>
			<path d="M471,185.7l-4.1,8.3h-2.2l4-8H464v-1.8h6.9v1.5H471z"/>
		</g>
		<g>
			<path d="M473.3,191.8l-1,4.2h-1.5l0.5-4.2H473.3z"/>
		</g>
		<g>
			<path d="M477.8,194h-1.9v-7.3l-2.3,1v-1.9l4.2-1.7L477.8,194L477.8,194z"/>
		</g>
		<g>
			<path d="M483.2,190.6c-0.1,0-0.3,0-0.4,0c-2,0-3.4-1.4-3.4-3.3c0-1.9,1.6-3.3,3.7-3.3s3.7,1.4,3.7,3.3c0,0.9-0.3,1.7-0.9,2.6
				l-2.7,4.1h-2.3L483.2,190.6z M484.8,187.4c0-1-0.7-1.6-1.7-1.6s-1.7,0.7-1.7,1.6c0,0.9,0.7,1.6,1.7,1.6
				C484.1,189,484.8,188.3,484.8,187.4z"/>
		</g>
		<g>
			<path d="M496.7,186.7c0,1.5-1.2,2.7-2.7,2.7c-1.6,0-2.7-1.1-2.7-2.7c0-1.5,1.2-2.7,2.7-2.7S496.7,185.2,496.7,186.7z
				 M492.7,186.7c0,0.7,0.5,1.2,1.2,1.2s1.2-0.5,1.2-1.2s-0.5-1.2-1.2-1.2S492.7,186,492.7,186.7z M495.2,194h-1.8l6.6-9.8h1.8
				L495.2,194z M504,191.5c0,1.5-1.2,2.7-2.7,2.7c-1.6,0-2.7-1.1-2.7-2.7c0-1.5,1.2-2.7,2.7-2.7S504,190,504,191.5z M500.1,191.5
				c0,0.7,0.5,1.2,1.2,1.2s1.2-0.5,1.2-1.2s-0.5-1.2-1.2-1.2S500.1,190.8,500.1,191.5z"/>
		</g>
	</g>
	<g>
		<g>
			<path d="M505.2,126.1h-4.1v-1.6h4.1V126.1z"/>
		</g>
		<g>
			<path d="M510.1,129h-1.9v-7.3l-2.3,1v-1.9l4.2-1.7L510.1,129L510.1,129z"/>
		</g>
		<g>
			<path d="M518.3,121h-4v2h1.1c2.3,0,3.4,1.3,3.4,2.9c0,2.1-1.6,3.3-3.6,3.3c-1.5,0-2.7-0.5-3.5-1.5l1.1-1.3c0.5,0.6,1.5,1,2.4,1
				c1.1,0,1.6-0.6,1.6-1.4c0-0.7-0.5-1.4-2-1.4h-2.3l0.1-5.4h5.6v1.8H518.3z"/>
		</g>
		<g>
			<path d="M522.6,126.8l-1,4.2H520l0.5-4.2H522.6z"/>
		</g>
		<g>
			<path d="M527.1,122.6c0.1,0,0.3,0,0.5,0c2,0,3.4,1.4,3.4,3.3s-1.6,3.3-3.7,3.3c-2.1,0-3.7-1.4-3.7-3.3c0-0.9,0.3-1.7,0.9-2.6
				l2.7-4.1h2.3L527.1,122.6z M525.6,125.9c0,1,0.7,1.6,1.7,1.6s1.7-0.7,1.7-1.6s-0.7-1.6-1.7-1.6S525.6,124.9,525.6,125.9z"/>
		</g>
		<g>
			<path d="M538.6,121.8c0,1-0.6,1.8-1.5,2.2c1,0.4,1.7,1.2,1.7,2.2c0,1.9-1.8,2.9-3.6,2.9c-1.5,0-2.7-0.5-3.4-1.4l1.1-1.2
				c0.6,0.6,1.4,0.9,2.2,0.9c1,0,1.7-0.4,1.7-1.3c0-0.8-0.9-1.3-1.9-1.3h-1.1v-1.7h1.1c1,0,1.7-0.4,1.7-1.2c0-0.8-0.7-1.2-1.6-1.2
				c-0.9,0-1.6,0.5-2,1l-1.2-1.2c0.6-0.9,1.7-1.5,3.3-1.5C537.2,119,538.6,120.2,538.6,121.8z"/>
		</g>
		<g>
			<path d="M548.9,121.7c0,1.5-1.2,2.7-2.7,2.7c-1.6,0-2.7-1.1-2.7-2.7c0-1.5,1.2-2.7,2.7-2.7S548.9,120.2,548.9,121.7z M545,121.7
				c0,0.7,0.5,1.2,1.2,1.2s1.2-0.5,1.2-1.2s-0.5-1.2-1.2-1.2S545,121,545,121.7z M547.5,129h-1.8l6.6-9.8h1.8L547.5,129z
				 M556.3,126.5c0,1.5-1.2,2.7-2.7,2.7c-1.6,0-2.7-1.1-2.7-2.7c0-1.5,1.2-2.7,2.7-2.7S556.3,125,556.3,126.5z M552.4,126.5
				c0,0.7,0.5,1.2,1.2,1.2s1.2-0.5,1.2-1.2s-0.5-1.2-1.2-1.2S552.4,125.8,552.4,126.5z"/>
		</g>
	</g>
	<g>
		<g>
			<path d="M554.6,145.1h-4.1v-1.6h4.1V145.1z"/>
		</g>
		<g>
			<path d="M559.6,148h-1.9v-7.3l-2.3,1v-1.9l4.2-1.7V148z"/>
		</g>
		<g>
			<path d="M568.7,140.8c0,1.1-0.7,1.8-1.5,2.2c1,0.4,1.7,1.1,1.7,2.3c0,1.8-1.7,2.8-3.8,2.8s-3.8-1.1-3.8-2.8
				c0-1.2,0.8-1.9,1.7-2.3c-0.8-0.4-1.5-1.1-1.5-2.2c0-1.8,1.6-2.8,3.6-2.8C567.1,138,568.7,139.1,568.7,140.8z M563.4,145.2
				c0,0.9,0.8,1.3,1.8,1.3s1.8-0.5,1.8-1.3c0-0.9-0.8-1.3-1.8-1.3C564.2,143.8,563.4,144.3,563.4,145.2z M563.6,141
				c0,0.8,0.7,1.3,1.6,1.3s1.6-0.4,1.6-1.3c0-0.8-0.7-1.3-1.6-1.3S563.6,140.2,563.6,141z"/>
		</g>
		<g>
			<path d="M572.7,145.8l-1,4.2h-1.5l0.5-4.2H572.7z"/>
		</g>
		<g>
			<path d="M577.3,141.6c0.1,0,0.3,0,0.5,0c2,0,3.4,1.4,3.4,3.3c0,1.9-1.6,3.3-3.7,3.3c-2.1,0-3.7-1.4-3.7-3.3
				c0-0.9,0.3-1.7,0.9-2.6l2.7-4.1h2.3L577.3,141.6z M575.7,144.9c0,1,0.7,1.6,1.7,1.6s1.7-0.7,1.7-1.6c0-0.9-0.7-1.6-1.7-1.6
				C576.5,143.3,575.7,143.9,575.7,144.9z"/>
		</g>
		<g>
			<path d="M588.4,144.5h1.4v1.8h-1.4v1.8h-1.9v-1.8h-4.3v-1.4l3.4-6.6h2.1l-3.3,6.2h2.1v-2.6h1.9V144.5z"/>
		</g>
		<g>
			<path d="M599.5,140.7c0,1.5-1.2,2.7-2.7,2.7c-1.6,0-2.7-1.1-2.7-2.7c0-1.5,1.2-2.7,2.7-2.7S599.5,139.2,599.5,140.7z
				 M595.6,140.7c0,0.7,0.5,1.2,1.2,1.2s1.2-0.5,1.2-1.2s-0.5-1.2-1.2-1.2S595.6,140,595.6,140.7z M598.1,148h-1.8l6.6-9.8h1.8
				L598.1,148z M606.9,145.5c0,1.5-1.2,2.7-2.7,2.7c-1.6,0-2.7-1.1-2.7-2.7c0-1.5,1.2-2.7,2.7-2.7S606.9,144,606.9,145.5z
				 M602.9,145.5c0,0.7,0.5,1.2,1.2,1.2s1.2-0.5,1.2-1.2s-0.5-1.2-1.2-1.2S602.9,144.8,602.9,145.5z"/>
		</g>
	</g>
	<g>
		<g>
			<path d="M404.9,305.1h-4.1v-1.6h4.1V305.1z"/>
		</g>
		<g>
			<path d="M412.4,304.5h1.4v1.8h-1.4v1.8h-1.9v-1.8h-4.3v-1.4l3.4-6.6h2.1l-3.3,6.2h2.1v-2.6h1.9L412.4,304.5L412.4,304.5z"/>
		</g>
		<g>
			<path d="M421.3,299.7l-4.1,8.3H415l4-8h-4.7v-1.8h6.9v1.5H421.3z"/>
		</g>
		<g>
			<path d="M423.6,305.8l-1,4.2h-1.5l0.5-4.2H423.6z"/>
		</g>
		<g>
			<path d="M431.4,299.7l-4.1,8.3h-2.2l4-8h-4.7v-1.8h6.9v1.5H431.4z"/>
		</g>
		<g>
			<path d="M436.6,308h-1.9v-7.3l-2.3,1v-1.9l4.2-1.7L436.6,308L436.6,308z"/>
		</g>
		<g>
			<path d="M447.2,300.7c0,1.5-1.2,2.7-2.7,2.7c-1.6,0-2.7-1.1-2.7-2.7c0-1.5,1.2-2.7,2.7-2.7S447.2,299.2,447.2,300.7z
				 M443.3,300.7c0,0.7,0.5,1.2,1.2,1.2s1.2-0.5,1.2-1.2s-0.5-1.2-1.2-1.2S443.3,300,443.3,300.7z M445.8,308H444l6.6-9.8h1.8
				L445.8,308z M454.6,305.5c0,1.5-1.2,2.7-2.7,2.7c-1.6,0-2.7-1.1-2.7-2.7c0-1.5,1.2-2.7,2.7-2.7S454.6,304,454.6,305.5z
				 M450.6,305.5c0,0.7,0.5,1.2,1.2,1.2s1.2-0.5,1.2-1.2s-0.5-1.2-1.2-1.2S450.6,304.8,450.6,305.5z"/>
		</g>
	</g>
	<g>
		<g>
			<path d="M255.5,77.1h-4.1v-1.6h4.1V77.1z"/>
		</g>
		<g>
			<path d="M262.7,71.7l-4.1,8.3h-2.2l4-8h-4.7v-1.8h6.9v1.5H262.7z"/>
		</g>
		<g>
			<path d="M265,77.8l-1,4.2h-1.5l0.5-4.2H265z"/>
		</g>
		<g>
			<path d="M274.7,75.1c0,3.2-1.9,5.1-4.2,5.1c-2.3,0-4.2-1.9-4.2-5.1s1.9-5.1,4.2-5.1C272.8,70,274.7,71.9,274.7,75.1z M268.2,75.1
				c0,2.1,1,3.3,2.3,3.3s2.3-1.1,2.3-3.3c0-2.1-1-3.3-2.3-3.3C269.2,71.8,268.2,73,268.2,75.1z"/>
		</g>
		<g>
			<path d="M280,80h-1.9v-7.3l-2.3,1v-1.9l4.2-1.7L280,80L280,80z"/>
		</g>
		<g>
			<path d="M290.6,72.7c0,1.5-1.2,2.7-2.7,2.7c-1.6,0-2.7-1.1-2.7-2.7c0-1.5,1.2-2.7,2.7-2.7S290.6,71.2,290.6,72.7z M286.7,72.7
				c0,0.7,0.5,1.2,1.2,1.2s1.2-0.5,1.2-1.2s-0.5-1.2-1.2-1.2S286.7,72,286.7,72.7z M289.2,80h-1.8l6.6-9.8h1.8L289.2,80z M298,77.5
				c0,1.5-1.2,2.7-2.7,2.7c-1.6,0-2.7-1.1-2.7-2.7c0-1.5,1.2-2.7,2.7-2.7S298,76,298,77.5z M294,77.5c0,0.7,0.5,1.2,1.2,1.2
				s1.2-0.5,1.2-1.2s-0.5-1.2-1.2-1.2S294,76.8,294,77.5z"/>
		</g>
	</g>
</g>
<g>
	<path d="M862,49.3h-4.1v-1.6h4.1V49.3z"/>
	<path d="M862.7,43.9c0.5-0.7,1.5-1.7,3.3-1.7c2.1,0,3.3,1.3,3.3,3.2c0,1.2-0.6,2-1.4,2.9l-2.1,2.2h3.7v1.8h-6.5v-1.5l3.5-3.6
		c0.5-0.5,0.8-1.1,0.8-1.7c0-0.9-0.6-1.5-1.5-1.5c-0.9,0-1.5,0.5-2,1.1L862.7,43.9z"/>
	<path d="M873.5,50l-1,4.2h-1.5l0.5-4.2H873.5z"/>
	<path d="M881.1,44.2h-4l0,2h1.1c2.3,0,3.4,1.3,3.4,2.9c0,2.1-1.6,3.3-3.6,3.3c-1.5,0-2.7-0.5-3.5-1.5l1.1-1.3c0.5,0.6,1.5,1,2.4,1
		c1.1,0,1.6-0.6,1.6-1.4c0-0.7-0.5-1.4-2-1.4h-2.3l0.1-5.4h5.6V44.2z"/>
	<path d="M890.3,45c0,1.1-0.7,1.8-1.5,2.2c1,0.4,1.7,1.1,1.7,2.3c0,1.8-1.7,2.8-3.8,2.8s-3.8-1.1-3.8-2.8c0-1.2,0.8-1.9,1.7-2.3
		c-0.8-0.4-1.5-1.1-1.5-2.2c0-1.8,1.6-2.8,3.6-2.8S890.3,43.3,890.3,45z M884.9,49.4c0,0.9,0.8,1.3,1.8,1.3c1,0,1.8-0.5,1.8-1.3
		c0-0.9-0.8-1.3-1.8-1.3C885.7,48,884.9,48.5,884.9,49.4z M885.1,45.2c0,0.8,0.7,1.3,1.6,1.3c0.9,0,1.6-0.4,1.6-1.3
		c0-0.8-0.7-1.3-1.6-1.3C885.8,43.9,885.1,44.4,885.1,45.2z"/>
	<path d="M900.6,44.9c0,1.5-1.2,2.7-2.7,2.7c-1.6,0-2.7-1.1-2.7-2.7c0-1.5,1.2-2.7,2.7-2.7C899.4,42.2,900.6,43.4,900.6,44.9z
		 M896.7,44.9c0,0.7,0.5,1.2,1.2,1.2c0.7,0,1.2-0.5,1.2-1.2c0-0.7-0.5-1.2-1.2-1.2C897.2,43.7,896.7,44.2,896.7,44.9z M899.2,52.2
		h-1.8l6.6-9.8h1.8L899.2,52.2z M908,49.7c0,1.5-1.2,2.7-2.7,2.7c-1.6,0-2.7-1.1-2.7-2.7c0-1.5,1.2-2.7,2.7-2.7
		C906.8,47,908,48.2,908,49.7z M904,49.7c0,0.7,0.5,1.2,1.2,1.2c0.7,0,1.2-0.5,1.2-1.2c0-0.7-0.5-1.2-1.2-1.2
		C904.5,48.5,904,49,904,49.7z"/>
</g>
</svg>
