<?xml version="1.0" encoding="utf-8"?>
<!-- Generator: Adobe Illustrator 24.1.2, SVG Export Plug-In . SVG Version: 6.00 Build 0)  -->
<svg version="1.1" id="Layer_1" xmlns="http://www.w3.org/2000/svg" xmlns:xlink="http://www.w3.org/1999/xlink" x="0px" y="0px"
	 viewBox="0 0 1080 160" style="enable-background:new 0 0 1080 160;" xml:space="preserve">
<style type="text/css">
	.st0{fill:#203232;}
	.st1{fill:#EF4B24;}
	.st2{fill:#EB5A36;}
	.st3{fill:#FFFFFF;}
</style>
<g>
	<path class="st0" d="M354.6,31.7L318,106.8h-20.1l36.3-72.6h-42.1V18.4h62.4L354.6,31.7L354.6,31.7z"/>
	<path class="st0" d="M362.1,32c4.8-6.2,13.8-15.2,30.2-15.2c18.6,0,30,11.7,30,28.6c0,10.8-5.5,18.3-12.8,25.9l-18.9,19.7h33.8v16
		H366V93.5l31.3-32.1c4.7-4.7,7.3-9.6,7.3-15.2c0-7.7-5.4-13.2-13.5-13.2c-8.4,0-13.4,4.5-17.9,9.7L362.1,32z"/>
	<path class="st0" d="M483,40.8c0,13.9-10.5,24.2-24.7,24.2c-14.1,0-24.6-10.3-24.6-24.2c0-13.8,10.5-24.1,24.6-24.1
		C472.5,16.7,483,27,483,40.8z M447.7,40.8c0,6.5,4.5,11,10.6,11c6.2,0,10.7-4.5,10.7-11c0-6.3-4.5-10.9-10.7-10.9
		C452.3,30,447.7,34.5,447.7,40.8z M470.1,106.9h-16.5l59.3-88.5h16.5L470.1,106.9z M549.5,84.3c0,13.9-10.5,24.2-24.7,24.2
		c-14.1,0-24.6-10.3-24.6-24.2c0-13.6,10.5-24.2,24.6-24.2C539,60.1,549.5,70.5,549.5,84.3z M514.2,84.3c0,6.4,4.5,10.9,10.6,10.9
		s10.7-4.5,10.7-10.9c0-6.4-4.5-10.9-10.7-10.9C518.7,73.3,514.2,77.9,514.2,84.3z"/>
</g>
<g>
	<path class="st0" d="M809,67.9h-19.5l-0.2,9.6h5.5c11.2,0,16.9,6.5,16.9,14.5c0,10.4-7.9,16.3-17.6,16.3c-7.2,0-13.1-2.7-17.1-7.2
		l5.3-6.5c2.6,2.8,7.3,5.1,11.8,5.1c5.4,0,8-3.2,8-7c0-3.6-2.3-6.8-9.8-6.8h-11.5l0.5-26.7h27.7L809,67.9L809,67.9z"/>
	<path class="st0" d="M844.3,71.5c0,7.5-5.8,13.2-13.5,13.2c-7.7,0-13.5-5.6-13.5-13.2c0-7.5,5.8-13.1,13.5-13.1
		C838.5,58.4,844.3,64,844.3,71.5z M825.1,71.5c0,3.5,2.5,6,5.8,6c3.4,0,5.8-2.5,5.8-6c0-3.5-2.4-5.9-5.8-5.9
		C827.5,65.5,825.1,68.1,825.1,71.5z M837.2,107.5h-9l32.3-48.2h9L837.2,107.5z M880.5,95.1c0,7.5-5.8,13.1-13.5,13.1
		s-13.5-5.6-13.5-13.1c0-7.5,5.8-13.1,13.5-13.1C874.8,82,880.5,87.7,880.5,95.1z M861.2,95.1c0,3.5,2.4,6,5.8,6
		c3.4,0,5.8-2.5,5.8-6c0-3.5-2.4-6-5.8-6C863.7,89.2,861.2,91.7,861.2,95.1z"/>
</g>
<g>
	<path class="st0" d="M303.1,146.4h-2.8l-7.5-9.9v9.9H290v-14.8h2.8l7.5,9.9v-9.9h2.9V146.4L303.1,146.4z"/>
	<path class="st0" d="M313.5,140.5v5.8h-2.9v-5.8l-5.7-8.9h3.5l3.7,6.2l3.7-6.2h3.3L313.5,140.5z"/>
	<path class="st0" d="M330.9,135.4c-1.1-0.7-2.6-1.3-4.2-1.3s-2.8,0.6-2.8,1.8c0,1.1,1.3,1.4,3.1,1.7l0.8,0.2
		c2.7,0.4,4.7,1.5,4.7,4.1c0,3.2-2.8,4.8-6.1,4.8c-2.3,0-4.6-0.6-6.2-1.9l1.5-2.4c1.1,0.9,2.8,1.6,4.7,1.6c1.6,0,2.9-0.6,2.9-1.8
		c0-1.1-1.1-1.4-3.2-1.7l-1-0.2c-2.6-0.4-4.5-1.5-4.5-4.2c0-3.1,2.8-4.7,5.9-4.7c2,0,3.8,0.5,5.7,1.5L330.9,135.4z"/>
	<path class="st0" d="M346.1,146.4h-11v-14.8H346v2.7h-8v3.2h7.6v2.7H338v3.4h8.1V146.4L346.1,146.4z"/>
	<path class="st0" d="M364.7,140.4h-7.4v6h-2.9v-14.8h10.9v2.7h-7.9v3.3h7.4L364.7,140.4L364.7,140.4z"/>
	<path class="st0" d="M381.4,146.4h-3.2L377,143h-6.3l-1.3,3.4h-3.1l5.8-14.8h3.6L381.4,146.4z M371.8,140.2h4.3l-2.1-5.7
		L371.8,140.2z"/>
	<path class="st0" d="M396.5,146.4h-2.8l-7.5-9.9v9.9h-2.9v-14.8h2.8l7.5,9.9v-9.9h2.9V146.4L396.5,146.4z"/>
	<path class="st0" d="M412.6,133.6l-2.1,2.1c-0.8-1-2-1.5-3.6-1.5c-2.7,0-4.7,1.9-4.7,4.9c0,3,2,4.9,4.6,4.9c2.4,0,3.8-1.1,4.2-3.2
		h-3.7v-2.4h6.8c0,0.3,0,0.6,0,0.8c0,4.5-3,7.6-7.2,7.6c-4.1,0-7.7-2.9-7.7-7.6c0-4.5,3.2-7.6,7.8-7.6
		C409.3,131.4,411.3,132.2,412.6,133.6z"/>
	<path class="st0" d="M424.9,146.4H422v-14.8h2.9V146.4z"/>
	<path class="st0" d="M437.7,139.9v6.5H435v-5.6c0-1.5-0.7-2.3-2-2.3c-1.2,0-2.2,0.7-2.2,2.4v5.6H428v-10.2h2.7v1.2
		c0.7-1.1,1.9-1.5,3-1.5C436,135.9,437.7,137.5,437.7,139.9z"/>
	<path class="st0" d="M447.8,137.2v-6h2.8v15.2h-2.7v-1.1c-0.6,0.8-1.6,1.4-3.1,1.4c-2.8,0-4.9-2.4-4.9-5.4s2.1-5.4,4.9-5.4
		C446.1,135.9,447.2,136.4,447.8,137.2z M442.7,141.3c0,1.5,1.1,2.8,2.7,2.8c1.5,0,2.7-1.2,2.7-2.8c0-1.6-1.1-2.8-2.7-2.8
		S442.7,139.7,442.7,141.3z"/>
	<path class="st0" d="M462.9,141.3c0,0.3,0,0.7-0.1,0.9h-7.2c0.3,1.5,1.3,2.1,2.6,2.1c0.9,0,1.9-0.3,2.6-1l1.6,1.8
		c-1.1,1.1-2.7,1.5-4.4,1.5c-3.2,0-5.3-2.1-5.3-5.4c0-3.2,2.1-5.4,5.2-5.4C460.9,135.9,462.9,138.1,462.9,141.3z M455.6,140.3h4.5
		c-0.2-1.3-1.1-2-2.2-2C456.7,138.3,455.9,139.1,455.6,140.3z"/>
	<path class="st0" d="M471.3,141.2l3.7,5.2h-3.2l-2.3-3.2l-2.3,3.2h-3.2l3.7-5.2l-3.6-5h3.2l2.2,3.2l2.2-3.2h3.2L471.3,141.2z"/>
</g>
<g>
	<path class="st0" d="M786.4,135.4c-1.1-0.7-2.6-1.3-4.2-1.3s-2.8,0.6-2.8,1.8c0,1.1,1.3,1.4,3.1,1.7l0.8,0.2
		c2.7,0.4,4.7,1.5,4.7,4.1c0,3.2-2.8,4.8-6.1,4.8c-2.3,0-4.6-0.6-6.2-1.9l1.5-2.4c1.1,0.9,2.8,1.6,4.7,1.6c1.6,0,2.9-0.6,2.9-1.8
		c0-1.1-1.1-1.4-3.2-1.7l-1-0.2c-2.6-0.4-4.5-1.5-4.5-4.2c0-3.1,2.8-4.7,5.9-4.7c2,0,3.8,0.5,5.7,1.5L786.4,135.4z"/>
	<path class="st0" d="M800.4,146.4l-1.6-1.5c-1.1,1.1-2.4,1.8-4.4,1.8c-2.9,0-4.6-1.5-4.6-3.9c0-1.7,1.2-3,2.6-4.1
		c-1.2-1.3-1.9-2.2-1.9-3.6c0-2.1,1.7-3.7,4.3-3.7c2.6,0,4.3,1.5,4.3,3.6c0,1.6-1.3,2.8-2.8,3.8l2.3,2.3l2.1-3l2.1,1.5l-2.4,3.3
		l3.6,3.6H800.4L800.4,146.4z M797.1,143.1l-2.8-2.8c-0.8,0.6-1.4,1.3-1.4,2.1c0,1,0.7,1.6,1.9,1.6
		C795.6,144.2,796.4,143.8,797.1,143.1z M794.7,137.1c1-0.7,1.8-1.3,1.8-2s-0.6-1.3-1.5-1.3c-1,0-1.5,0.5-1.5,1.4
		C793.4,135.8,793.7,136.2,794.7,137.1z"/>
	<path class="st0" d="M809.1,140.9v5.4h-2.9v-14.8h6c3.5,0,5.4,1.9,5.4,4.7s-1.9,4.7-5.4,4.7L809.1,140.9L809.1,140.9z M809.1,134.3
		v4h3c1.6,0,2.4-0.6,2.4-1.9s-0.8-1.9-2.4-1.9L809.1,134.3L809.1,134.3z"/>
	<path class="st0" d="M834.1,134.3h-6l-0.1,2.9h1.7c3.4,0,5.2,1.9,5.2,4.5c0,3.2-2.4,4.9-5.4,4.9c-2.2,0-4-0.8-5.3-2.2l1.6-2
		c0.8,0.9,2.3,1.5,3.6,1.5c1.6,0,2.4-1,2.4-2.1c0-1.1-0.7-2.1-3-2.1h-3.5l0.2-8.2h8.5L834.1,134.3L834.1,134.3z"/>
	<path class="st0" d="M849.7,139c0,4.8-2.8,7.6-6.3,7.6c-3.6,0-6.3-2.8-6.3-7.6c0-4.8,2.8-7.6,6.3-7.6
		C846.9,131.4,849.7,134.2,849.7,139z M839.9,139c0,3.2,1.5,4.9,3.4,4.9s3.4-1.7,3.4-4.9c0-3.2-1.5-4.9-3.4-4.9
		C841.5,134.1,839.9,135.8,839.9,139z"/>
	<path class="st0" d="M864.6,139c0,4.8-2.8,7.6-6.3,7.6s-6.3-2.8-6.3-7.6c0-4.8,2.8-7.6,6.3-7.6S864.6,134.2,864.6,139z M854.8,139
		c0,3.2,1.5,4.9,3.4,4.9s3.4-1.7,3.4-4.9c0-3.2-1.5-4.9-3.4-4.9S854.8,135.8,854.8,139z"/>
	<path class="st0" d="M875.5,146.4h-3v-14.8h2.9L875.5,146.4L875.5,146.4z"/>
	<path class="st0" d="M888.2,139.9v6.5h-2.8v-5.6c0-1.5-0.7-2.3-2-2.3c-1.2,0-2.2,0.7-2.2,2.4v5.6h-2.8v-10.2h2.7v1.2
		c0.7-1.1,1.9-1.5,3-1.5C886.6,135.9,888.2,137.5,888.2,139.9z"/>
	<path class="st0" d="M898.4,137.2v-6h2.8v15.2h-2.7v-1.1c-0.6,0.8-1.6,1.4-3.1,1.4c-2.8,0-4.9-2.4-4.9-5.4s2.1-5.4,4.9-5.4
		C896.7,135.9,897.7,136.4,898.4,137.2z M893.3,141.3c0,1.5,1.1,2.8,2.7,2.8c1.5,0,2.7-1.2,2.7-2.8c0-1.6-1.1-2.8-2.7-2.8
		C894.2,138.4,893.3,139.7,893.3,141.3z"/>
	<path class="st0" d="M913.5,141.3c0,0.3,0,0.7-0.1,0.9h-7.2c0.3,1.5,1.3,2.1,2.6,2.1c0.9,0,1.9-0.3,2.6-1l1.6,1.8
		c-1.1,1.1-2.7,1.5-4.4,1.5c-3.2,0-5.3-2.1-5.3-5.4c0-3.2,2.1-5.4,5.2-5.4C911.5,135.9,913.5,138.1,913.5,141.3z M906.2,140.3h4.5
		c-0.2-1.3-1.1-2-2.2-2C907.2,138.3,906.5,139.1,906.2,140.3z"/>
	<path class="st0" d="M921.9,141.2l3.7,5.2h-3.2l-2.3-3.2l-2.3,3.2h-3.2l3.7-5.2l-3.6-5h3.2l2.2,3.2l2.2-3.2h3.2L921.9,141.2z"/>
</g>
<g>
	<g>
		<polygon class="st1" points="156.1,75.8 238.5,66.3 238.5,110.8 156.1,110.8 		"/>
	</g>
	<g>
		<g>
			<g>
				<g>
					<path class="st0" d="M217.4,96.1l-37.3-0.2c-2.9,0-6-1.6-6-4.5V36c0-2.9,2.4-5.3,5.3-5.3l35.8,0.6c2.9,0,4.9,1.5,4.9,4.5
						l2.4,55.7C222.5,94.2,220.4,96.1,217.4,96.1z M179.4,32.6c-1.9,0-3.3,1.5-3.3,3.3l1.3,54.5c0,1.9,1.2,3,3.1,3l36.5-0.2
						c1.9,0,1.9-1.5,1.9-3.4l-0.4-54.3c0-1.9-1.4-2.4-3.2-2.4L179.4,32.6z"/>
				</g>
			</g>
		</g>
		<g>
			<g>
				<g>
					<path class="st0" d="M192.4,35.6h10.7l0.6-0.6l10.1,0.3c1.4,0,2.3,1.5,2.3,2.8l0.8,45.2c0,1.4-0.2,3.1-1.8,3.6l-33.3,0.5
						c-1.2,0-2.8-1.7-2.8-2.8l-0.5-47.3c0-1.3,1.1-2.4,2.6-2.4h10.9 M181,36.1c-0.7,0-1.3,0.6-1.3,1.2l1.7,46.2
						c0,0.6,1.4,2.4,2.1,2.4l26.8-0.8c0.2,0,0.5-0.1,0.7-0.1c1.7,0,2.9-0.8,2.9-2.4l0.4-44.6c0-0.6-0.3-1.5-1.1-1.5L181,36.1z"/>
				</g>
			</g>
		</g>
		<g>
			<polygon class="st0" points="192.9,91.3 197.7,89.9 203.2,91.3 			"/>
		</g>
	</g>
	<g>
		<g>
			<path class="st0" d="M132.1,116.2h128.2c1,0,1.8,0,1.8,0s-1.7,5.8-5.8,15.7H137.2 M136,119.7c2.9,5.4,3.9,8.8,3.9,8.8h113.7
				c3.8-7.5,1.2-2.9,4.6-8.8H136z"/>
		</g>
		<g>
			<path class="st0" d="M223.4,54.8h15.7c4.9,0,8.8,3.9,8.8,8.8v54.3c0,1-0.8,1.8-1.8,1.8H148c-1,0-1.8-0.8-1.8-1.8V63.6
				c0-4.9,3.9-8.8,8.8-8.8h15.7c1,0,0,0,0,0s1,0,0,0l-15.8,3.5c-2.9,0-5.3,2.4-5.3,5.3l2.3,52.5h92.3V63.6c0-2.9-2.4-5.3-5.3-5.3
				L223.4,54.8"/>
		</g>
		<g>
			<path class="st0" d="M156.1,110.1c-0.3-5-0.6-10.1-0.6-15.2c-0.2-5-0.2-10.1-0.2-15.2l0.1-7.5l0.1-3.8v-1.9v-0.2
				c0-0.1,0-0.2,0-0.3c0-0.2,0.1-0.4,0.2-0.6c0.2-0.4,0.5-0.7,0.8-1c0.3-0.2,0.7-0.4,1.2-0.4c0.2,0,0.4,0,0.6,0h0.5l1.9,0.1l3.8,0.2
				c2.5,0.2,5,0.2,7.5,0.4c-2.5,0.2-5,0.2-7.5,0.4l-3.8,0.2l-1.9,0.1h-0.5c-0.2,0-0.3,0-0.4,0c-0.2,0-0.4,0.1-0.6,0.2
				c-0.2,0.2-0.2,0.3-0.3,0.5c0,0.1-0.1,0.2-0.1,0.2v0.2v0.2v1.9l0.1,3.8l0.1,7.5c0,5-0.1,10.1-0.2,15.2
				C156.6,99.9,156.4,105,156.1,110.1z"/>
		</g>
		<g>
			<path class="st0" d="M238.5,110.1c-0.3-5-0.5-10.1-0.6-15.2c-0.2-5-0.2-10.1-0.2-15.2l0.1-7.5l0.1-3.8v-1.9v-0.2v-0.2
				c0-0.1,0-0.2-0.1-0.2c-0.1-0.2-0.2-0.3-0.3-0.5c-0.2-0.2-0.3-0.2-0.6-0.2c-0.1,0-0.2,0-0.4,0H236l-1.9-0.1l-3.8-0.2
				c-2.5-0.2-5-0.2-7.5-0.4c2.5-0.2,5-0.2,7.5-0.4l3.8-0.2l1.9-0.1h0.5c0.2,0,0.3,0,0.6,0c0.4,0.1,0.8,0.2,1.2,0.4
				c0.3,0.2,0.6,0.6,0.8,1c0.1,0.2,0.2,0.4,0.2,0.6c0,0.1,0,0.2,0,0.3v0.2v1.9l0.1,3.8l0.1,7.5c0,5-0.1,10.1-0.2,15.2
				C239.1,99.9,238.8,105,238.5,110.1z"/>
		</g>
	</g>
</g>
<g>
	<path class="st1" d="M585.3,94.7"/>
</g>
<g>
	<g>
		<g>
			<g>
				<path class="st2" d="M714.7,100.7l-68.3,2.7c-2.8,0.1-5.1-2.1-5-4.9l0.6-49.9h76.5v48.2C718.6,98.9,716.8,100.7,714.7,100.7z"/>
			</g>
			<g>
				<g>
					<path class="st0" d="M720.1,92.8l-1.7-41.9h-74.9l-2,49l0,0l-2.6-53.8h84.2l-1.4,46.5C721.6,93.8,720.2,93.8,720.1,92.8z"/>
				</g>
				<g>
					<g>
						<g>
							<rect x="656.5" y="57.4" class="st0" width="10.5" height="4.7"/>
						</g>
						<g>
							<rect x="680.6" y="57.4" class="st0" width="21.4" height="4.7"/>
						</g>
						<g>
							<rect x="671.1" y="57.4" class="st0" width="4.9" height="4.7"/>
						</g>
						<g>
							<rect x="660" y="76.3" class="st0" width="8.5" height="4.7"/>
						</g>
						<g>
							<rect x="706.4" y="57.4" class="st0" width="4.9" height="4.7"/>
						</g>
						<g>
							<rect x="656.5" y="66.9" class="st0" width="42.2" height="4.7"/>
						</g>
						<g>
							<rect x="647.7" y="57.4" class="st0" width="4.3" height="4.7"/>
						</g>
						<g>
							<rect x="647.7" y="66.9" class="st0" width="4.3" height="4.7"/>
						</g>
						<g>
							<rect x="647.7" y="76.3" class="st0" width="4.3" height="4.7"/>
						</g>
					</g>
				</g>
			</g>
		</g>
	</g>
	<g>
		<path class="st0" d="M728.5,105.5V41.8h-95.1v62.9h-5.8V40c0-2.2,1.8-4,4-4h98.7c2.2,0,4,1.8,4,4v65.5L728.5,105.5L728.5,105.5z"
			/>
	</g>
	<g>
		<path class="st0" d="M728.5,47.1V110l-14.8,1.9c-0.4,0.1-0.7,0.4-0.7,0.8v0.7c0,0.4,0.3,0.7,0.7,0.8l16.5,1.5c2.2,0,4-1.8,4-4
			V47.1H728.5z"/>
	</g>
	<g>
		<path class="st0" d="M676.1,113.5l-42.7-3.5V46.3h-5.8v65.5c0,2.2,1.8,4,4,4H676c0.6,0,1.1-0.5,1.1-1.1l0,0
			C677.2,114,676.7,113.5,676.1,113.5z"/>
	</g>
	<g>
		<g>
			<g>
				<path class="st2" d="M698.4,94.8c-6.3,1-12.2-3.3-13.3-9.6c-1-6.3,3.3-12.2,9.6-13.3c6.3-1,12.2,3.3,13.3,9.6
					C709,87.8,704.7,93.8,698.4,94.8"/>
			</g>
			<g>
				<path class="st3" d="M697.8,91.1c-4.2,0.6-8.2-2.2-8.8-6.4c-0.6-4.2,2.2-8.2,6.4-8.8c4.2-0.6,8.2,2.2,8.8,6.4
					C704.9,86.5,702,90.4,697.8,91.1"/>
			</g>
			<g>
				<path class="st0" d="M689.2,85.2c-0.1-0.7-0.1-1.5,0-2.2c0.1-0.7,0.3-1.5,0.6-2.1c0.3-0.6,0.6-1.3,1.1-1.9l0.4-0.4
					c0.2-0.2,0.2-0.2,0.4-0.4c0.2-0.2,0.6-0.5,0.8-0.6c0.6-0.4,1.3-0.7,1.9-1c1.4-0.5,2.9-0.6,4.3-0.2s2.7,1,3.6,1.9
					c0.2,0.2,0.5,0.5,0.6,0.7c0.1,0.2,0.2,0.2,0.3,0.4c0.1,0.2,0.2,0.2,0.2,0.4c0.3,0.6,0.6,1.1,0.8,1.7c0,0.1,0.1,0.2,0.1,0.2
					c0-0.3-0.1-0.6-0.2-0.9c-0.3-1.1-0.9-2.3-1.8-3.4c-0.9-1-2.2-1.9-3.6-2.4c-0.7-0.2-1.5-0.3-2.4-0.4c-0.8,0-1.6,0.1-2.4,0.3
					c-0.8,0.2-1.5,0.6-2.3,1.1c-0.3,0.2-0.6,0.5-1,0.8c-0.2,0.2-0.3,0.3-0.4,0.4l-0.4,0.5c-0.5,0.6-1,1.4-1.3,2.2s-0.5,1.6-0.6,2.4
					c-0.1,0.8,0,1.6,0.2,2.4c0.2,0.8,0.5,1.5,0.8,2.2c0.4,0.6,0.8,1.2,1.3,1.7c-0.3-0.4-0.6-0.9-0.8-1.4
					C689.5,86.6,689.3,85.9,689.2,85.2"/>
			</g>
		</g>
		<g>
			<circle class="st2" cx="697.4" cy="88.2" r="7.1"/>
		</g>
		<g>
			<path class="st3" d="M682.6,114.5c0,0,0-7.5,3.3-5.7c3.3,1.8,6.7,4.4,6.7,4.4l0.8,2.4l0.9-8.8l-1-16.7c0,0,5.5-9.2,7.9-0.7
				c2.4,8.5,0.2,18.2,0.2,18.2s5.8-5.7,7.4-0.1c0,0,5.2-7.2,8.3-0.2c0,0,7.1-2.6,8.1,3.2s-1.1,21.5-2.3,23.5c-1.2,2-7.9,6.2-15,5.6
				c-7.1-0.6-12.8-1.3-14.2-4.3c-1.3-3-9.7-17.4-9.7-17.4L682.6,114.5z"/>
		</g>
		<g>
			<g>
				<path class="st0" d="M726.7,110.1c0-3.1-2.5-5.6-5.6-5.6c-1,0-1.9,0.2-2.8,0.7c-0.9-1.8-2.8-3.1-4.9-3.1c-1.6,0-3.1,0.7-4.1,1.8
					c-1-0.8-2.2-1.3-3.6-1.3c-0.7,0-1.5,0.2-2.1,0.4v-9.7l0,0v-3.4l0,0v-0.1c0-3.1-2.5-5.6-5.6-5.6c-3.1,0-5.6,2.5-5.6,5.6v0.1l0,0
					v3.4l0,0v18.1l-1-1.3c-1.4-1.9-3.2-2.9-5-2.9c-1.4,0-2.7,0.6-3.7,1.6c-1.5,1.5-2.8,4.2-0.6,8.1l8.7,16.7
					c0.1,0.1,0.1,0.2,0.2,0.2l1.1,1.5c2.5,3.6,6.7,5.8,11.2,5.8h9.2l0,0c4.4,0,7.9-1.4,10.4-4.1c4.2-4.5,3.9-11.3,3.9-12.1
					L726.7,110.1L726.7,110.1z M720.3,134.9c-1.8,1.9-4.5,2.9-7.8,2.9h-9.2c-3.3,0-6.5-1.6-8.4-4.4l-1.1-1.5l-8.7-16.6
					c0,0,0-0.1-0.1-0.1c-0.7-1.2-1.4-2.6,0-4c0.4-0.4,0.8-0.6,1.3-0.6c0.7,0,1.5,0.6,2.3,1.5l4.1,5.6c0.3,0.5,0.9,0.7,1.5,0.7
					c0.6-0.1,1.1-0.4,1.4-0.9v-0.1c0.2-0.2,0.2-0.5,0.2-0.8V89.9c0-1.2,1-2.1,2.1-2.1c1.1,0,2.1,1,2.1,2.1v18.3c0,1,0.7,1.7,1.7,1.7
					c1,0,1.7-0.7,1.7-1.7c0-1.2,1-2.1,2.1-2.1c1.1,0,2.1,1,2.1,2.1c0,1,0.7,1.7,1.7,1.7c1,0,1.7-0.7,1.7-1.7v-0.5
					c0-1.2,1-2.1,2.1-2.1c1.1,0,2.1,1,2.1,2.1v2.4c0,1,0.7,1.7,1.7,1.7c1,0,1.7-0.7,1.7-1.7c0-1.2,1-2.1,2.1-2.1
					c1.1,0,2.1,1,2.1,2.1v15.1c0,0.1,0,0.1,0,0.2C723.3,125.4,723.7,131.3,720.3,134.9z"/>
			</g>
		</g>
	</g>
</g>
</svg>
