<?xml version="1.0" encoding="utf-8"?>
<!-- Generator: Adobe Illustrator 24.1.2, SVG Export Plug-In . SVG Version: 6.00 Build 0)  -->
<svg version="1.1" id="Layer_1" xmlns="http://www.w3.org/2000/svg" xmlns:xlink="http://www.w3.org/1999/xlink" x="0px" y="0px"
	 viewBox="0 0 1080 160" style="enable-background:new 0 0 1080 160;" xml:space="preserve">
<style type="text/css">
	.st0{fill:#203232;}
	.st1{fill:#EF4B24;}
	.st2{fill:#EB5A36;}
	.st3{fill:#FFFFFF;}
</style>
<g>
	<path class="st0" d="M350,35.4l-35,71.6h-19.2l34.7-69.2h-40.1V22.7H350V35.4z"/>
	<path class="st0" d="M357.1,35.7c4.6-6,13.1-14.5,28.8-14.5c17.7,0,28.6,11.1,28.6,27.2c0,10.3-5.2,17.5-12.2,24.6l-18,18.7h32.2
		V107h-55.7V94.3l29.8-30.6c4.5-4.5,6.9-9.2,6.9-14.5c0-7.4-5.1-12.6-12.9-12.6c-8,0-12.8,4.3-17.1,9.3L357.1,35.7z"/>
	<path class="st0" d="M502.3,44.1c0,13.3-10.1,23.1-23.6,23.1c-13.4,0-23.5-9.8-23.5-23.1c0-13.1,10.1-23,23.5-23
		C492.2,21.2,502.3,31,502.3,44.1z M468.6,44.1c0,6.1,4.3,10.5,10.1,10.5c5.9,0,10.2-4.3,10.2-10.5c0-6-4.3-10.4-10.2-10.4
		C472.9,33.8,468.6,38.1,468.6,44.1z M489.9,107h-15.8l56.6-84.4h15.7L489.9,107z M565.6,85.5c0,13.2-10.1,23-23.6,23
		c-13.4,0-23.5-9.8-23.5-23c0-13,10.1-23,23.5-23C555.5,62.5,565.6,72.4,565.6,85.5z M531.9,85.5c0,6.1,4.3,10.4,10.1,10.4
		c5.9,0,10.2-4.3,10.2-10.4c0-6.1-4.3-10.4-10.2-10.4C536.2,75.1,531.9,79.4,531.9,85.5z"/>
</g>
<g>
	<path class="st0" d="M817.9,69.9h-18.6l-0.2,9.2h5.3c10.7,0,16.1,6.1,16.1,13.8c0,9.9-7.5,15.5-16.8,15.5c-6.9,0-12.5-2.6-16.3-6.9
		l5-6.2c2.5,2.7,7,4.9,11.2,4.9c5.1,0,7.6-3,7.6-6.7c0-3.4-2.2-6.5-9.4-6.5H791l0.5-25.4h26.4V69.9z"/>
	<path class="st0" d="M867.8,73.3c0,7.2-5.5,12.6-12.8,12.6c-7.3,0-12.8-5.4-12.8-12.6c0-7.2,5.5-12.5,12.8-12.5
		C862.3,60.8,867.8,66.2,867.8,73.3z M849.5,73.3c0,3.3,2.4,5.7,5.5,5.7c3.2,0,5.5-2.4,5.5-5.7c0-3.3-2.3-5.6-5.5-5.6
		C851.8,67.7,849.5,70.1,849.5,73.3z M861.1,107.6h-8.6l30.8-46h8.6L861.1,107.6z M902.3,95.9c0,7.2-5.5,12.5-12.8,12.5
		c-7.3,0-12.8-5.4-12.8-12.5c0-7.1,5.5-12.5,12.8-12.5C896.9,83.4,902.3,88.7,902.3,95.9z M884,95.9c0,3.3,2.3,5.7,5.5,5.7
		c3.2,0,5.5-2.4,5.5-5.7c0-3.3-2.3-5.7-5.5-5.7C886.3,90.2,884,92.6,884,95.9z"/>
</g>
<g>
	<path class="st0" d="M291.2,144.7h-2.8v-14.1h2.8V144.7z"/>
	<path class="st0" d="M303.4,138.5v6.2h-2.6v-5.4c0-1.4-0.7-2.2-1.9-2.2c-1.1,0-2.1,0.7-2.1,2.2v5.3h-2.6V135h2.6v1.1
		c0.7-1,1.8-1.4,2.9-1.4C301.8,134.7,303.4,136.2,303.4,138.5z"/>
	<path class="st0" d="M313,136v-5.7h2.6v14.5h-2.6v-1.1c-0.6,0.8-1.6,1.3-2.9,1.3c-2.7,0-4.7-2.2-4.7-5.1c0-2.9,2-5.1,4.7-5.1
		C311.5,134.7,312.4,135.2,313,136z M308.1,139.8c0,1.5,1,2.7,2.5,2.7c1.5,0,2.5-1.1,2.5-2.7c0-1.5-1-2.7-2.5-2.7
		C309.1,137.1,308.1,138.3,308.1,139.8z"/>
	<path class="st0" d="M321.3,131.8c0,0.9-0.7,1.7-1.7,1.7c-0.9,0-1.7-0.7-1.7-1.7c0-0.9,0.7-1.7,1.7-1.7
		C320.6,130.1,321.3,130.8,321.3,131.8z M321,144.7h-2.6V135h2.6V144.7z"/>
	<path class="st0" d="M332.2,136.5l-1.9,1.6c-0.6-0.6-1.2-1-2.1-1c-1.4,0-2.4,1.1-2.4,2.7c0,1.6,1.1,2.7,2.4,2.7
		c0.8,0,1.6-0.4,2.1-1l1.9,1.6c-0.9,1.2-2.3,1.8-3.9,1.8c-3.1,0-5.2-2.2-5.2-5.1c0-2.9,2.1-5.1,5.2-5.1
		C330,134.7,331.3,135.4,332.2,136.5z"/>
	<path class="st0" d="M343.2,139.8c0,0.3,0,0.7-0.1,0.9h-6.9c0.3,1.4,1.3,2,2.5,2c0.8,0,1.8-0.3,2.5-0.9l1.5,1.7
		c-1.1,1-2.5,1.5-4.1,1.5c-3,0-5.1-2-5.1-5.1c0-3.1,2-5.2,4.9-5.2C341.2,134.7,343.2,136.8,343.2,139.8z M336.2,138.9h4.3
		c-0.2-1.2-1-1.9-2.1-1.9C337.2,137,336.5,137.7,336.2,138.9z"/>
	<path class="st0" d="M363.1,144.7h-2.6l-7.1-9.4l0,9.4h-2.8v-14.1h2.6l7.1,9.4v-9.4h2.8V144.7z"/>
	<path class="st0" d="M372.9,139.2v5.5h-2.8v-5.6l-5.4-8.5h3.3l3.5,6l3.5-6h3.2L372.9,139.2z"/>
	<path class="st0" d="M389.5,134.2c-1.1-0.7-2.5-1.2-4-1.2c-1.6,0-2.7,0.6-2.7,1.7c0,1,1.2,1.3,2.9,1.6l0.8,0.1
		c2.5,0.4,4.5,1.5,4.5,3.9c0,3.1-2.7,4.6-5.8,4.6c-2.1,0-4.4-0.6-5.9-1.8l1.5-2.3c1,0.8,2.7,1.5,4.5,1.5c1.6,0,2.8-0.6,2.8-1.7
		c0-1-1-1.3-3-1.6l-0.9-0.1c-2.5-0.4-4.3-1.5-4.3-4c0-2.9,2.6-4.5,5.6-4.5c2,0,3.6,0.4,5.4,1.5L389.5,134.2z"/>
	<path class="st0" d="M404,144.7h-10.5v-14.1H404v2.6h-7.6v3.1h7.3v2.6h-7.3v3.2h7.7V144.7z"/>
	<path class="st0" d="M421.7,139h-7.1v5.7h-2.8v-14.1h10.3v2.6h-7.5v3.2h7.1V139z"/>
	<path class="st0" d="M437.7,144.7h-3l-1.2-3.3h-6l-1.2,3.3h-2.9l5.5-14.1h3.4L437.7,144.7z M428.5,138.8h4.1l-2-5.4L428.5,138.8z"
		/>
	<path class="st0" d="M452.1,144.7h-2.6l-7.1-9.4l0,9.4h-2.8v-14.1h2.6l7.1,9.4v-9.4h2.8V144.7z"/>
	<path class="st0" d="M467.4,132.5l-2,2c-0.8-0.9-2-1.5-3.4-1.5c-2.6,0-4.4,1.9-4.4,4.6c0,2.9,2,4.7,4.4,4.7c2.3,0,3.6-1.1,4-3.1
		h-3.6v-2.3h6.5c0,0.3,0,0.5,0,0.8c0,4.3-2.9,7.3-6.9,7.3c-3.9,0-7.4-2.7-7.4-7.3c0-4.2,3.1-7.3,7.4-7.3
		C464.3,130.4,466.1,131.2,467.4,132.5z"/>
</g>
<g>
	<path class="st0" d="M789.6,144.7h-2.8v-14.1h2.8V144.7z"/>
	<path class="st0" d="M801.8,138.5v6.2h-2.6v-5.4c0-1.4-0.7-2.2-1.9-2.2c-1.1,0-2.1,0.7-2.1,2.2v5.3h-2.6V135h2.6v1.1
		c0.7-1,1.8-1.4,2.9-1.4C800.2,134.7,801.8,136.2,801.8,138.5z"/>
	<path class="st0" d="M811.4,136v-5.7h2.6v14.5h-2.6v-1.1c-0.6,0.8-1.6,1.3-2.9,1.3c-2.7,0-4.7-2.2-4.7-5.1c0-2.9,2-5.1,4.7-5.1
		C809.9,134.7,810.8,135.2,811.4,136z M806.5,139.8c0,1.5,1,2.7,2.5,2.7c1.5,0,2.5-1.1,2.5-2.7c0-1.5-1-2.7-2.5-2.7
		C807.5,137.1,806.5,138.3,806.5,139.8z"/>
	<path class="st0" d="M819.8,131.8c0,0.9-0.7,1.7-1.7,1.7c-0.9,0-1.7-0.7-1.7-1.7c0-0.9,0.7-1.7,1.7-1.7
		C819,130.1,819.8,130.8,819.8,131.8z M819.4,144.7h-2.6V135h2.6V144.7z"/>
	<path class="st0" d="M830.7,136.5l-1.9,1.6c-0.6-0.6-1.2-1-2.1-1c-1.4,0-2.4,1.1-2.4,2.7c0,1.6,1.1,2.7,2.4,2.7
		c0.8,0,1.6-0.4,2.1-1l1.9,1.6c-0.9,1.2-2.3,1.8-3.9,1.8c-3.1,0-5.2-2.2-5.2-5.1c0-2.9,2.1-5.1,5.2-5.1
		C828.4,134.7,829.8,135.4,830.7,136.5z"/>
	<path class="st0" d="M841.6,139.8c0,0.3,0,0.7,0,0.9h-6.9c0.3,1.4,1.3,2,2.5,2c0.8,0,1.8-0.3,2.5-0.9l1.5,1.7
		c-1.1,1-2.5,1.5-4.1,1.5c-3,0-5.1-2-5.1-5.1c0-3.1,2-5.2,4.9-5.2C839.7,134.7,841.6,136.8,841.6,139.8z M834.7,138.9h4.3
		c-0.2-1.2-1-1.9-2.1-1.9C835.6,137,834.9,137.7,834.7,138.9z"/>
	<path class="st0" d="M858.5,134.2c-1.1-0.7-2.5-1.2-4-1.2c-1.6,0-2.7,0.6-2.7,1.7c0,1,1.2,1.3,2.9,1.6l0.8,0.1
		c2.5,0.4,4.5,1.5,4.5,3.9c0,3.1-2.7,4.6-5.8,4.6c-2.1,0-4.4-0.6-5.9-1.8l1.5-2.3c1,0.8,2.7,1.5,4.5,1.5c1.6,0,2.8-0.6,2.8-1.7
		c0-1-1-1.3-3-1.6l-0.9-0.1c-2.5-0.4-4.3-1.5-4.3-4c0-2.9,2.6-4.5,5.6-4.5c2,0,3.6,0.4,5.4,1.5L858.5,134.2z"/>
	<path class="st0" d="M871.9,144.7l-1.5-1.4c-1,1-2.4,1.7-4.2,1.7c-2.8,0-4.4-1.4-4.4-3.7c0-1.6,1.1-2.9,2.4-3.9
		c-1.2-1.2-1.7-2.1-1.7-3.4c0-2,1.6-3.5,4.1-3.5c2.4,0,4.1,1.4,4.1,3.5c0,1.5-1.3,2.6-2.6,3.6l2.2,2.1l2-2.8l2,1.4l-2.2,3.2l3.5,3.4
		H871.9z M868.7,141.6L866,139c-0.8,0.6-1.3,1.3-1.3,2c0,0.9,0.7,1.5,1.8,1.5C867.3,142.6,868,142.2,868.7,141.6z M866.4,135.9
		c0.9-0.7,1.7-1.3,1.7-1.9c0-0.7-0.5-1.2-1.4-1.2c-0.9,0-1.4,0.5-1.4,1.3C865.2,134.6,865.4,134.9,866.4,135.9z"/>
	<path class="st0" d="M880.1,139.6v5.1h-2.8v-14.1h5.7c3.4,0,5.1,1.7,5.1,4.5c0,2.7-1.8,4.4-5.1,4.4H880.1z M880.1,133.2v3.8h2.9
		c1.5,0,2.3-0.6,2.3-1.9c0-1.3-0.8-1.9-2.3-1.9H880.1z"/>
	<path class="st0" d="M904,133.2h-5.7l-0.1,2.8h1.6c3.3,0,4.9,1.9,4.9,4.2c0,3-2.3,4.8-5.1,4.8c-2.1,0-3.8-0.8-5-2.1l1.5-1.9
		c0.8,0.8,2.1,1.5,3.4,1.5c1.6,0,2.3-0.9,2.3-2c0-1.1-0.7-2-2.9-2h-3.3l0.2-7.8h8.1V133.2z"/>
	<path class="st0" d="M918.8,137.7c0,4.5-2.7,7.3-6.1,7.3c-3.4,0-6.1-2.7-6.1-7.3c0-4.5,2.7-7.3,6.1-7.3
		C916.1,130.4,918.8,133.1,918.8,137.7z M909.5,137.7c0,3.1,1.4,4.7,3.2,4.7c1.8,0,3.2-1.6,3.2-4.7c0-3.1-1.4-4.7-3.2-4.7
		C911,133,909.5,134.6,909.5,137.7z"/>
	<path class="st0" d="M933,137.7c0,4.5-2.7,7.3-6.1,7.3c-3.4,0-6.1-2.7-6.1-7.3c0-4.5,2.7-7.3,6.1-7.3
		C930.3,130.4,933,133.1,933,137.7z M923.7,137.7c0,3.1,1.4,4.7,3.2,4.7c1.8,0,3.2-1.6,3.2-4.7c0-3.1-1.4-4.7-3.2-4.7
		C925.1,133,923.7,134.6,923.7,137.7z"/>
</g>
<g>
	<g>
		<polygon class="st1" points="160.9,77.5 239.4,68.3 239.4,110.8 160.9,110.8 		"/>
	</g>
	<g>
		<g>
			<g>
				<g>
					<path class="st0" d="M219.4,96.8l-35.6-0.2c-2.8,0-5.7-1.6-5.7-4.4V39.5c0-2.8,2.3-5,5-5l34.1,0.5c2.8,0,4.7,1.5,4.7,4.3
						l2.2,53C224.2,95,222.1,96.8,219.4,96.8z M183.1,36.3c-1.8,0-3.2,1.4-3.2,3.2l1.3,51.9c0,1.8,1.2,2.9,2.9,2.9l34.8-0.2
						c1.8,0,1.8-1.5,1.8-3.2l-0.4-51.7c0-1.8-1.3-2.3-3.1-2.3L183.1,36.3z"/>
				</g>
			</g>
		</g>
		<g>
			<g>
				<g>
					<path class="st0" d="M195.4,39.1l10.2,0l0.6-0.5l9.6,0.3c1.3,0,2.2,1.4,2.2,2.7l0.8,43.1c0,1.3-0.3,3-1.7,3.4l-31.8,0.4
						c-1.1,0-2.6-1.7-2.6-2.7l-0.5-45c0-1.3,1.1-2.3,2.4-2.3l10.3,0 M184.5,39.7c-0.7,0-1.3,0.5-1.3,1.2l1.6,44c0,0.6,1.3,2.2,2,2.2
						l25.5-0.8c0.2,0,0.5-0.1,0.7-0.1c1.6,0,2.8-0.7,2.8-2.2l0.4-42.5c0-0.6-0.3-1.4-1-1.4L184.5,39.7z"/>
				</g>
			</g>
		</g>
		<g>
			<polygon class="st0" points="195.9,92.3 200.5,90.8 205.7,92.3 			"/>
		</g>
	</g>
	<g>
		<g>
			<path class="st0" d="M138,115.9h122.2c0.9,0,1.7,0,1.7,0s-1.6,5.5-5.5,15H142.9 M141.7,119.3c2.8,5.1,3.7,8.3,3.7,8.3h108.4
				c3.6-7.1,1.1-2.7,4.4-8.3H141.7z"/>
		</g>
		<g>
			<path class="st0" d="M225.1,57.5h15c4.6,0,8.3,3.7,8.3,8.3v51.8c0,0.9-0.7,1.7-1.7,1.7h-93.5c-0.9,0-1.7-0.7-1.7-1.7V65.8
				c0-4.6,3.7-8.3,8.3-8.3h15c0.9,0,0,0,0,0s0.9,0,0,0l-15,3.3c-2.8,0-5,2.2-5,5l2.2,50.1h88V65.8c0-2.8-2.2-5-5-5L225.1,57.5"/>
		</g>
		<g>
			<path class="st0" d="M160.9,110.1c-0.3-4.8-0.5-9.6-0.6-14.4c-0.1-4.8-0.2-9.6-0.2-14.4l0-7.2l0.1-3.6l0-1.8l0-0.2
				c0-0.1,0-0.2,0-0.3c0-0.2,0.1-0.4,0.2-0.6c0.2-0.4,0.4-0.7,0.8-0.9c0.3-0.2,0.7-0.4,1.1-0.4c0.2,0,0.4,0,0.5,0l0.5,0l1.8,0.1
				l3.6,0.1c2.4,0.1,4.8,0.2,7.2,0.4c-2.4,0.2-4.8,0.3-7.2,0.4l-3.6,0.1l-1.8,0.1l-0.5,0c-0.2,0-0.3,0-0.4,0c-0.2,0-0.4,0.1-0.5,0.2
				c-0.2,0.1-0.3,0.3-0.3,0.5c0,0.1-0.1,0.2-0.1,0.3l0,0.2l0,0.2l0,1.8l0.1,3.6l0,7.2c0,4.8,0,9.6-0.2,14.4
				C161.4,100.5,161.2,105.3,160.9,110.1z"/>
		</g>
		<g>
			<path class="st0" d="M239.4,110.1c-0.3-4.8-0.5-9.6-0.6-14.4c-0.1-4.8-0.2-9.6-0.2-14.4l0-7.2l0.1-3.6l0-1.8l0-0.2l0-0.2
				c0-0.1,0-0.2-0.1-0.3c-0.1-0.2-0.2-0.3-0.3-0.5c-0.1-0.1-0.3-0.2-0.5-0.2c-0.1,0-0.2,0-0.4,0l-0.5,0l-1.8-0.1l-3.6-0.1
				c-2.4-0.1-4.8-0.2-7.2-0.4c2.4-0.2,4.8-0.3,7.2-0.4l3.6-0.1l1.8-0.1l0.5,0c0.1,0,0.3,0,0.5,0c0.4,0,0.8,0.2,1.1,0.4
				c0.3,0.2,0.6,0.6,0.8,0.9c0.1,0.2,0.1,0.4,0.2,0.6c0,0.1,0,0.2,0,0.3l0,0.2l0,1.8l0.1,3.6l0,7.2c0,4.8,0,9.6-0.2,14.4
				C239.9,100.5,239.7,105.3,239.4,110.1z"/>
		</g>
	</g>
</g>
<g>
	<path class="st1" d="M569.8,95.4"/>
</g>
<g>
	<g>
		<g>
			<g>
				<path class="st2" d="M728.1,101.2l-65,2.5c-2.7,0.1-4.8-2-4.8-4.7l0.6-47.6h73v45.9C731.8,99.4,730.1,101.1,728.1,101.2z"/>
			</g>
			<g>
				<g>
					<path class="st0" d="M733.2,93.6l-1.6-39.9h-71.3l-2,46.7l0,0l-2.5-51.2h80.3l-1.3,44.4C734.7,94.6,733.3,94.6,733.2,93.6z"/>
				</g>
				<g>
					<g>
						<g>
							<rect x="672.6" y="60" class="st0" width="10" height="4.5"/>
						</g>
						<g>
							<rect x="695.6" y="60" class="st0" width="20.4" height="4.5"/>
						</g>
						<g>
							<rect x="686.6" y="60" class="st0" width="4.7" height="4.5"/>
						</g>
						<g>
							<rect x="675.9" y="78" class="st0" width="8.1" height="4.5"/>
						</g>
						<g>
							<rect x="720.2" y="60" class="st0" width="4.7" height="4.5"/>
						</g>
						<g>
							<rect x="672.6" y="69" class="st0" width="40.2" height="4.5"/>
						</g>
						<g>
							<rect x="664.2" y="60" class="st0" width="4.1" height="4.5"/>
						</g>
						<g>
							<rect x="664.2" y="69" class="st0" width="4.1" height="4.5"/>
						</g>
						<g>
							<rect x="664.2" y="78" class="st0" width="4.1" height="4.5"/>
						</g>
					</g>
				</g>
			</g>
		</g>
	</g>
	<g>
		<path class="st0" d="M741.2,105.7V45.1h-90.6v60h-5.5V43.3c0-2.1,1.7-3.8,3.8-3.8H743c2.1,0,3.8,1.7,3.8,3.8v62.4H741.2z"/>
	</g>
	<g>
		<path class="st0" d="M741.2,50.1v60l-14.1,1.9c-0.4,0.1-0.7,0.4-0.7,0.8v0.7c0,0.4,0.3,0.7,0.7,0.8l15.8,1.4
			c2.1,0,3.8-1.7,3.8-3.8V50.1H741.2z"/>
	</g>
	<g>
		<path class="st0" d="M691.3,113.3l-40.7-3.3V49.3h-5.5v62.4c0,2.1,1.7,3.8,3.8,3.8h42.3c0.6,0,1.1-0.5,1.1-1.1v0
			C692.3,113.9,691.9,113.4,691.3,113.3z"/>
	</g>
	<g>
		<g>
			<g>
				<path class="st2" d="M712.5,95.5c-6,0.9-11.7-3.2-12.6-9.2c-0.9-6,3.2-11.7,9.2-12.6s11.7,3.2,12.6,9.2
					C722.6,88.9,718.5,94.6,712.5,95.5"/>
			</g>
			<g>
				<path class="st3" d="M712,92c-4,0.6-7.8-2.1-8.4-6.1c-0.6-4,2.1-7.8,6.1-8.4s7.8,2.1,8.4,6.1C718.7,87.6,716,91.4,712,92"/>
			</g>
			<g>
				<path class="st0" d="M703.8,86.4c-0.1-0.7-0.1-1.4,0-2.1c0.1-0.7,0.3-1.4,0.5-2c0.3-0.6,0.7-1.2,1.1-1.8l0.4-0.4
					c0.1-0.2,0.3-0.3,0.4-0.4c0.2-0.2,0.5-0.4,0.8-0.7c0.6-0.4,1.2-0.7,1.9-0.9c1.3-0.4,2.8-0.5,4.1-0.2c1.3,0.3,2.5,0.9,3.5,1.8
					c0.2,0.2,0.5,0.4,0.6,0.7c0.1,0.1,0.2,0.2,0.3,0.4c0.1,0.1,0.2,0.3,0.3,0.4c0.3,0.5,0.6,1.1,0.8,1.6c0,0.1,0,0.2,0.1,0.2
					c0-0.3-0.1-0.6-0.2-0.8c-0.3-1.1-0.8-2.2-1.7-3.2c-0.9-1-2.1-1.8-3.5-2.3c-0.7-0.2-1.5-0.3-2.2-0.4c-0.8,0-1.5,0.1-2.3,0.3
					c-0.8,0.2-1.5,0.6-2.2,1c-0.3,0.2-0.7,0.5-1,0.8c-0.2,0.1-0.3,0.3-0.4,0.4l-0.4,0.4c-0.5,0.6-0.9,1.3-1.2,2.1
					c-0.3,0.7-0.5,1.5-0.5,2.3c0,0.8,0,1.6,0.2,2.3c0.2,0.7,0.4,1.5,0.8,2.1c0.4,0.6,0.8,1.2,1.3,1.7c-0.3-0.4-0.5-0.8-0.8-1.3
					C704.1,87.7,703.9,87.1,703.8,86.4"/>
			</g>
		</g>
		<g>
			<circle class="st2" cx="711.6" cy="89.3" r="6.8"/>
		</g>
		<g>
			<path class="st3" d="M697.6,114.4c0,0,0-7.1,3.2-5.4c3.2,1.7,6.4,4.2,6.4,4.2l0.7,2.2l0.8-8.4L707.8,91c0,0,5.2-8.7,7.6-0.7
				s0.2,17.3,0.2,17.3s5.5-5.4,7-0.1c0,0,4.9-6.9,7.9-0.2c0,0,6.7-2.5,7.7,3.1c1,5.6-1,20.5-2.2,22.4c-1.2,1.9-7.6,5.9-14.3,5.3
				c-6.7-0.6-12.2-1.2-13.5-4.1c-1.2-2.8-9.2-16.6-9.2-16.6L697.6,114.4z"/>
		</g>
		<g>
			<g>
				<path class="st0" d="M739.5,110.2c0-2.9-2.4-5.3-5.3-5.3c-0.9,0-1.8,0.3-2.6,0.7c-0.9-1.7-2.7-2.9-4.7-2.9
					c-1.5,0-2.9,0.7-3.9,1.7c-0.9-0.8-2.1-1.3-3.4-1.3c-0.7,0-1.4,0.1-2,0.4v-9.3h0V91h0v0c0-2.9-2.4-5.3-5.3-5.3s-5.3,2.4-5.3,5.3
					v0h0v3.3h0v17.3l-0.9-1.3c-1.3-1.8-3-2.8-4.8-2.8c-1.3,0-2.6,0.5-3.5,1.5c-1.5,1.5-2.7,4-0.5,7.7l8.3,15.9
					c0,0.1,0.1,0.2,0.2,0.3l1,1.4c2.4,3.5,6.4,5.6,10.6,5.6h8.8c0,0,0,0,0,0c4.2,0,7.5-1.3,9.9-3.9c4-4.3,3.7-10.8,3.7-11.5V110.2z
					 M733.4,133.8c-1.7,1.9-4.2,2.8-7.4,2.8h-8.8c-3.2,0-6.1-1.6-7.9-4.2l-1-1.5l-8.2-15.8c0,0,0-0.1-0.1-0.1
					c-0.7-1.1-1.3-2.5,0-3.8c0.4-0.4,0.8-0.6,1.2-0.6c0.7,0,1.5,0.5,2.1,1.4l3.8,5.3c0.3,0.5,0.9,0.7,1.4,0.7c0.6,0,1.1-0.4,1.3-0.9
					l0-0.1c0.1-0.2,0.2-0.5,0.2-0.8V90.9c0-1.1,0.9-2,2-2c1.1,0,2,0.9,2,2v17.5c0,0.9,0.7,1.6,1.6,1.6c0.9,0,1.6-0.7,1.6-1.6
					c0-1.1,0.9-2,2-2c1.1,0,2,0.9,2,2c0,0.9,0.7,1.6,1.6,1.6s1.6-0.7,1.6-1.6v-0.5c0-1.1,0.9-2,2-2c1.1,0,2,0.9,2,2v2.2
					c0,0.9,0.7,1.6,1.6,1.6s1.6-0.7,1.6-1.6c0-1.1,0.9-2,2-2c1.1,0,2,0.9,2,2v14.4c0,0,0,0.1,0,0.1
					C736.2,124.7,736.6,130.4,733.4,133.8z"/>
			</g>
		</g>
	</g>
</g>
</svg>
