<?xml version="1.0" encoding="utf-8"?>
<!-- Generator: Adobe Illustrator 24.1.2, SVG Export Plug-In . SVG Version: 6.00 Build 0)  -->
<svg version="1.1" id="Layer_1" xmlns="http://www.w3.org/2000/svg" xmlns:xlink="http://www.w3.org/1999/xlink" x="0px" y="0px"
	 viewBox="0 0 1080 246" style="enable-background:new 0 0 1080 246;" xml:space="preserve">
<style type="text/css">
	.st0{enable-background:new    ;}
	.st1{fill:#203232;}
	.st2{fill:#CCCCCC;}
	.st3{fill:#ED5A35;}
	.st4{fill:#F47C20;}
	.st5{fill:#FFB819;}
</style>
<g class="st0">
	<path class="st1" d="M15.8,39.2h-3.3V22.4h3.3V39.2z"/>
	<path class="st1" d="M30.3,31.8v7.4h-3.1v-6.4c0-1.7-0.8-2.6-2.3-2.6c-1.3,0-2.5,0.9-2.5,2.6v6.4h-3.1V27.6h3v1.4
		c0.8-1.2,2.1-1.7,3.4-1.7C28.4,27.2,30.3,29.1,30.3,31.8z"/>
	<path class="st1" d="M41,30.3h-3.6v8.8h-3.1v-8.8h-2.2v-2.8h2.2v-1.4c0-2.7,1.5-4.5,4.2-4.5c1.6,0,2.7,0.5,3.6,1l-1.2,2.4
		c-0.6-0.3-1.3-0.6-2-0.6c-0.9,0-1.4,0.6-1.4,1.6v1.4H41V30.3z"/>
	<path class="st1" d="M51.1,27.5l-0.5,3.1c-0.5-0.2-1.3-0.4-1.9-0.4c-1.5,0-2.4,0.9-2.4,2.6v6.3h-3.1V27.6h3v1.3
		c0.7-1.1,1.8-1.6,3.3-1.6C50.2,27.2,50.7,27.3,51.1,27.5z"/>
	<path class="st1" d="M64.3,39.2h-3.1v-1.3c-0.8,0.9-1.9,1.6-3.5,1.6c-3.2,0-5.6-2.6-5.6-6.1c0-3.5,2.4-6.1,5.6-6.1
		c1.6,0,2.7,0.6,3.5,1.6v-1.3h3.1V39.2z M55.4,33.4c0,1.8,1.2,3.2,3,3.2c1.8,0,3-1.4,3-3.2s-1.2-3.2-3-3.2
		C56.5,30.2,55.4,31.6,55.4,33.4z"/>
	<path class="st1" d="M76,30.8c-0.9-0.5-2.4-0.9-3.7-0.9c-1.2,0-1.8,0.4-1.8,1.1c0,0.7,0.8,0.8,1.9,1l1,0.2c2.5,0.4,3.9,1.5,3.9,3.5
		c0,2.4-2,3.9-5.3,3.9c-1.6,0-3.7-0.3-5.2-1.4l1.2-2.4c1,0.7,2.2,1.1,4,1.1c1.5,0,2.1-0.4,2.1-1.1c0-0.6-0.6-0.9-1.9-1.1l-0.9-0.1
		c-2.7-0.4-4-1.5-4-3.5c0-2.4,1.8-3.8,4.9-3.8c1.9,0,3.3,0.3,4.9,1.1L76,30.8z"/>
	<path class="st1" d="M88.1,30.3h-4.2v4.2c0,1.5,0.8,2,1.7,2c0.7,0,1.5-0.4,2.2-0.8l1.2,2.4c-1,0.7-2.2,1.2-3.9,1.2
		c-2.9,0-4.4-1.6-4.4-4.6v-4.5h-2.2v-2.8h2.2v-3.5h3.1v3.5h4.2V30.3z"/>
	<path class="st1" d="M98.8,27.5l-0.5,3.1c-0.5-0.2-1.3-0.4-1.9-0.4c-1.5,0-2.4,0.9-2.4,2.6v6.3h-3.1V27.6h3v1.3
		c0.7-1.1,1.8-1.6,3.3-1.6C97.9,27.2,98.4,27.3,98.8,27.5z"/>
	<path class="st1" d="M111.8,34.2c0,3.7-2.6,5.3-5.5,5.3c-2.9,0-5.5-1.6-5.5-5.3v-6.7h3.1V34c0,1.9,1,2.6,2.4,2.6
		c1.3,0,2.4-0.8,2.4-2.6v-6.4h3.1V34.2z"/>
	<path class="st1" d="M125.1,29.4l-2.3,1.9c-0.7-0.8-1.5-1.2-2.5-1.2c-1.6,0-2.9,1.3-2.9,3.2c0,1.9,1.3,3.2,2.9,3.2
		c1,0,1.9-0.5,2.5-1.2l2.2,1.9c-1.1,1.4-2.7,2.2-4.7,2.2c-3.7,0-6.2-2.6-6.2-6.1c0-3.5,2.5-6.1,6.2-6.1
		C122.4,27.2,124.1,28,125.1,29.4z"/>
	<path class="st1" d="M135.9,30.3h-4.2v4.2c0,1.5,0.8,2,1.7,2c0.7,0,1.5-0.4,2.2-0.8l1.2,2.4c-1,0.7-2.2,1.2-3.9,1.2
		c-2.9,0-4.4-1.6-4.4-4.6v-4.5h-2.2v-2.8h2.2v-3.5h3.1v3.5h4.2V30.3z"/>
	<path class="st1" d="M149.5,34.2c0,3.7-2.6,5.3-5.5,5.3c-2.9,0-5.5-1.6-5.5-5.3v-6.7h3.1V34c0,1.9,1,2.6,2.4,2.6
		c1.3,0,2.4-0.8,2.4-2.6v-6.4h3.1V34.2z"/>
	<path class="st1" d="M160.6,27.5l-0.5,3.1c-0.5-0.2-1.3-0.4-1.9-0.4c-1.5,0-2.4,0.9-2.4,2.6v6.3h-3.1V27.6h3v1.3
		c0.7-1.1,1.8-1.6,3.3-1.6C159.7,27.2,160.2,27.3,160.6,27.5z"/>
	<path class="st1" d="M173.2,33.4c0,0.4,0,0.8-0.1,1.1h-8.2c0.3,1.7,1.5,2.4,3,2.4c1,0,2.1-0.4,2.9-1.1l1.8,2c-1.3,1.2-3,1.8-5,1.8
		c-3.6,0-6-2.4-6-6.1c0-3.7,2.4-6.2,5.9-6.2C170.9,27.2,173.2,29.7,173.2,33.4z M164.9,32.3h5.1c-0.3-1.5-1.2-2.3-2.5-2.3
		C166,29.9,165.2,30.8,164.9,32.3z"/>
	<path class="st1" d="M184,30.8c-0.9-0.5-2.4-0.9-3.7-0.9c-1.2,0-1.8,0.4-1.8,1.1c0,0.7,0.8,0.8,1.9,1l1,0.2
		c2.5,0.4,3.9,1.5,3.9,3.5c0,2.4-2,3.9-5.3,3.9c-1.6,0-3.7-0.3-5.2-1.4l1.2-2.4c1,0.7,2.2,1.1,4,1.1c1.5,0,2.1-0.4,2.1-1.1
		c0-0.6-0.6-0.9-1.9-1.1l-0.9-0.1c-2.7-0.4-4-1.5-4-3.5c0-2.4,1.8-3.8,4.9-3.8c1.9,0,3.3,0.3,4.9,1.1L184,30.8z"/>
	<path class="st1" d="M212.6,31.8v7.4h-3.1v-6.4c0-1.7-0.9-2.6-2.3-2.6c-1.3,0-2.5,0.9-2.5,2.6v6.4h-3.1v-6.4c0-1.7-0.8-2.6-2.3-2.6
		c-1.3,0-2.5,0.9-2.5,2.6v6.4h-3.1V27.6h3v1.4c0.8-1.2,2.1-1.7,3.4-1.7c1.7,0,3.1,0.8,3.8,2c0.9-1.5,2.4-2,3.9-2
		C210.8,27.2,212.6,29.1,212.6,31.8z"/>
	<path class="st1" d="M227.7,33.4c0,3.5-2.7,6.1-6.3,6.1c-3.6,0-6.3-2.6-6.3-6.1s2.7-6.1,6.3-6.1C225,27.2,227.7,29.9,227.7,33.4z
		 M218.3,33.4c0,1.9,1.3,3.2,3.1,3.2c1.8,0,3.1-1.3,3.1-3.2c0-1.9-1.3-3.2-3.1-3.2C219.6,30.2,218.3,31.5,218.3,33.4z"/>
	<path class="st1" d="M241.2,31.8v7.4h-3.1v-6.4c0-1.7-0.8-2.6-2.3-2.6c-1.3,0-2.5,0.9-2.5,2.6v6.4h-3.1V27.6h3v1.4
		c0.8-1.2,2.1-1.7,3.4-1.7C239.3,27.2,241.2,29.1,241.2,31.8z"/>
	<path class="st1" d="M252.7,28.8v-6.9h3.1v17.3h-3.1v-1.3c-0.8,0.9-1.9,1.6-3.5,1.6c-3.2,0-5.6-2.6-5.6-6.1c0-3.5,2.4-6.1,5.6-6.1
		C250.9,27.2,252,27.9,252.7,28.8z M246.9,33.4c0,1.8,1.2,3.2,3,3.2c1.8,0,3-1.4,3-3.2s-1.2-3.2-3-3.2
		C248,30.2,246.9,31.6,246.9,33.4z"/>
	<path class="st1" d="M262.7,23.8c0,1.1-0.9,2-2,2c-1.1,0-2-0.9-2-2s0.9-2,2-2C261.8,21.7,262.7,22.6,262.7,23.8z M262.3,39.2h-3.1
		V27.6h3.1V39.2z"/>
	<path class="st1" d="M277,39.2h-3.1v-1.3c-0.8,0.9-1.9,1.6-3.5,1.6c-3.2,0-5.6-2.6-5.6-6.1c0-3.5,2.4-6.1,5.6-6.1
		c1.6,0,2.7,0.6,3.5,1.6v-1.3h3.1V39.2z M268,33.4c0,1.8,1.2,3.2,3,3.2c1.8,0,3-1.4,3-3.2s-1.2-3.2-3-3.2
		C269.2,30.2,268,31.6,268,33.4z"/>
	<path class="st1" d="M283.4,39.2h-3.1V21.9h3.1V39.2z"/>
	<path class="st1" d="M297.5,33.4c0,0.4,0,0.8-0.1,1.1h-8.2c0.3,1.7,1.5,2.4,3,2.4c1,0,2.1-0.4,2.9-1.1l1.8,2c-1.3,1.2-3,1.8-5,1.8
		c-3.6,0-6-2.4-6-6.1c0-3.7,2.4-6.2,5.9-6.2C295.2,27.2,297.5,29.7,297.5,33.4z M289.2,32.3h5.1c-0.3-1.5-1.2-2.3-2.5-2.3
		C290.4,29.9,289.5,30.8,289.2,32.3z"/>
	<path class="st1" d="M308.3,30.8c-0.9-0.5-2.4-0.9-3.7-0.9c-1.2,0-1.8,0.4-1.8,1.1c0,0.7,0.8,0.8,1.9,1l1,0.2
		c2.5,0.4,3.9,1.5,3.9,3.5c0,2.4-2,3.9-5.3,3.9c-1.6,0-3.7-0.3-5.2-1.4l1.2-2.4c1,0.7,2.2,1.1,4,1.1c1.5,0,2.1-0.4,2.1-1.1
		c0-0.6-0.6-0.9-1.9-1.1l-0.9-0.1c-2.7-0.4-4-1.5-4-3.5c0-2.4,1.8-3.8,4.9-3.8c1.9,0,3.3,0.3,4.9,1.1L308.3,30.8z"/>
</g>
<g class="st0">
	<path class="st1" d="M887.5,33.1h2.3v3h-2.3v3.1h-3.2v-3.1h-7.4v-2.4l5.9-11.4h3.6l-5.6,10.7h3.6v-4.5h3.2V33.1z"/>
	<path class="st1" d="M896,35.4l-1.7,7.1h-2.6l0.8-7.1H896z"/>
	<path class="st1" d="M909.4,24.9l-7,14.3h-3.8l6.9-13.8h-8v-3h11.8V24.9z"/>
	<path class="st1" d="M926.2,26.7c0,2.6-2,4.6-4.7,4.6c-2.7,0-4.7-2-4.7-4.6c0-2.6,2-4.6,4.7-4.6C924.2,22.1,926.2,24,926.2,26.7z
		 M919.5,26.7c0,1.2,0.9,2.1,2,2.1c1.2,0,2-0.9,2-2.1c0-1.2-0.9-2.1-2-2.1C920.4,24.6,919.5,25.5,919.5,26.7z M923.7,39.2h-3.1
		l11.3-16.8h3.1L923.7,39.2z M938.8,34.9c0,2.6-2,4.6-4.7,4.6c-2.7,0-4.7-2-4.7-4.6c0-2.6,2-4.6,4.7-4.6
		C936.8,30.3,938.8,32.3,938.8,34.9z M932.1,34.9c0,1.2,0.9,2.1,2,2.1c1.2,0,2-0.9,2-2.1s-0.9-2.1-2-2.1
		C933,32.8,932.1,33.7,932.1,34.9z"/>
</g>
<g class="st0">
	<path class="st1" d="M613.1,107c0.9-1.2,2.6-2.9,5.7-2.9c3.5,0,5.7,2.2,5.7,5.4c0,2.1-1,3.5-2.4,4.9l-3.6,3.7h6.4v3h-11.1v-2.5
		l5.9-6.1c0.9-0.9,1.4-1.8,1.4-2.9c0-1.5-1-2.5-2.6-2.5c-1.6,0-2.5,0.9-3.4,1.8L613.1,107z"/>
	<path class="st1" d="M631.5,117.4l-1.7,7.1h-2.6l0.8-7.1H631.5z"/>
	<path class="st1" d="M644.5,107.4h-6.8l-0.1,3.4h1.9c3.9,0,5.9,2.2,5.9,5c0,3.6-2.7,5.7-6.1,5.7c-2.5,0-4.6-0.9-5.9-2.5l1.8-2.3
		c0.9,1,2.6,1.8,4.1,1.8c1.9,0,2.8-1.1,2.8-2.4c0-1.3-0.8-2.4-3.4-2.4h-4l0.2-9.3h9.7V107.4z"/>
	<path class="st1" d="M662.8,108.7c0,2.6-2,4.6-4.7,4.6c-2.7,0-4.7-2-4.7-4.6c0-2.6,2-4.6,4.7-4.6
		C660.8,104.1,662.8,106,662.8,108.7z M656.1,108.7c0,1.2,0.9,2.1,2,2.1c1.2,0,2-0.9,2-2.1c0-1.2-0.9-2.1-2-2.1
		C656.9,106.6,656.1,107.5,656.1,108.7z M660.3,121.2h-3.1l11.3-16.8h3.1L660.3,121.2z M675.4,116.9c0,2.6-2,4.6-4.7,4.6
		c-2.7,0-4.7-2-4.7-4.6c0-2.6,2-4.6,4.7-4.6C673.4,112.3,675.4,114.3,675.4,116.9z M668.7,116.9c0,1.2,0.9,2.1,2,2.1
		c1.2,0,2-0.9,2-2.1s-0.9-2.1-2-2.1C669.5,114.8,668.7,115.7,668.7,116.9z"/>
</g>
<g class="st0">
	<path class="st1" d="M456,196.8c0,5.4-3.2,8.7-7.2,8.7c-4,0-7.2-3.3-7.2-8.7s3.2-8.7,7.2-8.7C452.8,188.1,456,191.4,456,196.8z
		 M444.9,196.8c0,3.7,1.7,5.6,3.9,5.6c2.2,0,3.9-1.9,3.9-5.6s-1.7-5.6-3.9-5.6C446.6,191.2,444.9,193.1,444.9,196.8z"/>
	<path class="st1" d="M462.3,201.4l-1.7,7.1H458l0.8-7.1H462.3z"/>
	<path class="st1" d="M469.7,199.3c-0.2,0-0.5,0-0.8,0c-3.4,0-5.8-2.4-5.8-5.6c0-3.3,2.7-5.7,6.3-5.7c3.6,0,6.3,2.4,6.3,5.7
		c0,1.5-0.6,2.9-1.6,4.5l-4.7,7h-3.9L469.7,199.3z M472.3,193.8c0-1.6-1.3-2.8-2.9-2.8c-1.7,0-2.9,1.1-2.9,2.8
		c0,1.6,1.2,2.8,2.9,2.8C471.1,196.5,472.3,195.4,472.3,193.8z"/>
	<path class="st1" d="M492.7,192.7c0,2.6-2,4.6-4.7,4.6c-2.7,0-4.7-2-4.7-4.6c0-2.6,2-4.6,4.7-4.6
		C490.7,188.1,492.7,190,492.7,192.7z M486,192.7c0,1.2,0.9,2.1,2,2.1c1.2,0,2-0.9,2-2.1c0-1.2-0.9-2.1-2-2.1
		C486.8,190.6,486,191.5,486,192.7z M490.2,205.2h-3.1l11.3-16.8h3.1L490.2,205.2z M505.3,200.9c0,2.6-2,4.6-4.7,4.6
		c-2.7,0-4.7-2-4.7-4.6c0-2.6,2-4.6,4.7-4.6C503.3,196.3,505.3,198.3,505.3,200.9z M498.6,200.9c0,1.2,0.9,2.1,2,2.1
		c1.2,0,2-0.9,2-2.1s-0.9-2.1-2-2.1C499.4,198.8,498.6,199.7,498.6,200.9z"/>
</g>
<g class="st0">
	<path class="st1" d="M115.3,121.2h-3.6l-1.5-3.9h-7.2l-1.5,3.9h-3.5l6.5-16.8h4.1L115.3,121.2z M104.3,114.2h4.9l-2.4-6.5
		L104.3,114.2z"/>
	<path class="st1" d="M127.1,111.4l-2.3,1.9c-0.7-0.8-1.5-1.2-2.5-1.2c-1.6,0-2.9,1.3-2.9,3.2c0,1.9,1.3,3.2,2.9,3.2
		c1,0,1.9-0.5,2.5-1.2l2.2,1.9c-1.1,1.4-2.7,2.2-4.7,2.2c-3.7,0-6.2-2.6-6.2-6.1c0-3.5,2.5-6.1,6.2-6.1
		C124.4,109.2,126,110,127.1,111.4z"/>
	<path class="st1" d="M137.9,112.3h-4.2v4.2c0,1.5,0.8,2,1.7,2c0.7,0,1.5-0.4,2.2-0.8l1.2,2.4c-1,0.7-2.2,1.2-3.9,1.2
		c-2.9,0-4.4-1.6-4.4-4.6v-4.5h-2.2v-2.8h2.2v-3.5h3.1v3.5h4.2V112.3z"/>
	<path class="st1" d="M144.2,105.8c0,1.1-0.9,2-2,2c-1.1,0-2-0.9-2-2s0.9-2,2-2C143.3,103.7,144.2,104.6,144.2,105.8z M143.8,121.2
		h-3.1v-11.6h3.1V121.2z"/>
	<path class="st1" d="M158.9,115.4c0,3.5-2.7,6.1-6.3,6.1c-3.6,0-6.3-2.6-6.3-6.1s2.7-6.1,6.3-6.1
		C156.2,109.2,158.9,111.9,158.9,115.4z M149.5,115.4c0,1.9,1.3,3.2,3.1,3.2c1.8,0,3.1-1.3,3.1-3.2c0-1.9-1.3-3.2-3.1-3.2
		C150.9,112.2,149.5,113.5,149.5,115.4z"/>
	<path class="st1" d="M172.5,113.8v7.4h-3.1v-6.4c0-1.7-0.8-2.6-2.3-2.6c-1.3,0-2.5,0.9-2.5,2.6v6.4h-3.1v-11.6h3v1.4
		c0.8-1.2,2.1-1.7,3.4-1.7C170.6,109.2,172.5,111.1,172.5,113.8z"/>
	<path class="st1" d="M184,112.8c-0.9-0.5-2.4-0.9-3.7-0.9c-1.2,0-1.8,0.4-1.8,1.1c0,0.7,0.8,0.8,1.9,1l1,0.2
		c2.5,0.4,3.9,1.5,3.9,3.5c0,2.4-2,3.9-5.3,3.9c-1.6,0-3.7-0.3-5.2-1.4l1.2-2.4c1,0.7,2.2,1.1,4,1.1c1.5,0,2.1-0.4,2.1-1.1
		c0-0.6-0.6-0.9-1.9-1.1l-0.9-0.1c-2.7-0.4-4-1.5-4-3.5c0-2.4,1.8-3.8,4.9-3.8c1.9,0,3.3,0.3,4.9,1.1L184,112.8z"/>
	<path class="st1" d="M212.6,113.8v7.4h-3.1v-6.4c0-1.7-0.9-2.6-2.3-2.6c-1.3,0-2.5,0.9-2.5,2.6v6.4h-3.1v-6.4
		c0-1.7-0.8-2.6-2.3-2.6c-1.3,0-2.5,0.9-2.5,2.6v6.4h-3.1v-11.6h3v1.4c0.8-1.2,2.1-1.7,3.4-1.7c1.7,0,3.1,0.8,3.8,2
		c0.9-1.5,2.4-2,3.9-2C210.8,109.2,212.6,111.1,212.6,113.8z"/>
	<path class="st1" d="M227.7,115.4c0,3.5-2.7,6.1-6.3,6.1c-3.6,0-6.3-2.6-6.3-6.1s2.7-6.1,6.3-6.1
		C225,109.2,227.7,111.9,227.7,115.4z M218.3,115.4c0,1.9,1.3,3.2,3.1,3.2c1.8,0,3.1-1.3,3.1-3.2c0-1.9-1.3-3.2-3.1-3.2
		C219.6,112.2,218.3,113.5,218.3,115.4z"/>
	<path class="st1" d="M241.2,113.8v7.4h-3.1v-6.4c0-1.7-0.8-2.6-2.3-2.6c-1.3,0-2.5,0.9-2.5,2.6v6.4h-3.1v-11.6h3v1.4
		c0.8-1.2,2.1-1.7,3.4-1.7C239.3,109.2,241.2,111.1,241.2,113.8z"/>
	<path class="st1" d="M252.7,110.8v-6.9h3.1v17.3h-3.1v-1.3c-0.8,0.9-1.9,1.6-3.5,1.6c-3.2,0-5.6-2.6-5.6-6.1c0-3.5,2.4-6.1,5.6-6.1
		C250.9,109.2,252,109.9,252.7,110.8z M246.9,115.4c0,1.8,1.2,3.2,3,3.2c1.8,0,3-1.4,3-3.2s-1.2-3.2-3-3.2
		C248.1,112.2,246.9,113.6,246.9,115.4z"/>
	<path class="st1" d="M262.7,105.8c0,1.1-0.9,2-2,2c-1.1,0-2-0.9-2-2s0.9-2,2-2C261.8,103.7,262.7,104.6,262.7,105.8z M262.3,121.2
		h-3.1v-11.6h3.1V121.2z"/>
	<path class="st1" d="M277,121.2h-3.1v-1.3c-0.8,0.9-1.9,1.6-3.5,1.6c-3.2,0-5.6-2.6-5.6-6.1c0-3.5,2.4-6.1,5.6-6.1
		c1.6,0,2.7,0.6,3.5,1.6v-1.3h3.1V121.2z M268,115.4c0,1.8,1.2,3.2,3,3.2c1.8,0,3-1.4,3-3.2s-1.2-3.2-3-3.2
		C269.2,112.2,268,113.6,268,115.4z"/>
	<path class="st1" d="M283.4,121.2h-3.1v-17.3h3.1V121.2z"/>
	<path class="st1" d="M297.5,115.4c0,0.4,0,0.8-0.1,1.1h-8.2c0.3,1.7,1.5,2.4,3,2.4c1,0,2.1-0.4,2.9-1.1l1.8,2c-1.3,1.2-3,1.8-5,1.8
		c-3.6,0-6-2.4-6-6.1c0-3.7,2.4-6.2,5.9-6.2C295.2,109.2,297.5,111.7,297.5,115.4z M289.2,114.3h5.1c-0.3-1.5-1.2-2.3-2.5-2.3
		C290.4,111.9,289.5,112.8,289.2,114.3z"/>
	<path class="st1" d="M308.3,112.8c-0.9-0.5-2.4-0.9-3.7-0.9c-1.2,0-1.8,0.4-1.8,1.1c0,0.7,0.8,0.8,1.9,1l1,0.2
		c2.5,0.4,3.9,1.5,3.9,3.5c0,2.4-2,3.9-5.3,3.9c-1.6,0-3.7-0.3-5.2-1.4l1.2-2.4c1,0.7,2.2,1.1,4,1.1c1.5,0,2.1-0.4,2.1-1.1
		c0-0.6-0.6-0.9-1.9-1.1l-0.9-0.1c-2.7-0.4-4-1.5-4-3.5c0-2.4,1.8-3.8,4.9-3.8c1.9,0,3.3,0.3,4.9,1.1L308.3,112.8z"/>
</g>
<g class="st0">
	<path class="st1" d="M105.2,191.5H100v13.7h-3.3v-13.7h-5.2v-3.1h13.8V191.5z"/>
	<path class="st1" d="M110.8,189.8c0,1.1-0.9,2-2,2c-1.1,0-2-0.9-2-2s0.9-2,2-2C110,187.7,110.8,188.6,110.8,189.8z M110.4,205.2
		h-3.1v-11.6h3.1V205.2z"/>
	<path class="st1" d="M122.1,196.3h-4.2v4.2c0,1.5,0.8,2,1.7,2c0.7,0,1.5-0.4,2.2-0.8l1.2,2.4c-1,0.7-2.2,1.2-3.9,1.2
		c-2.9,0-4.4-1.6-4.4-4.6v-4.5h-2.2v-2.8h2.2v-3.5h3.1v3.5h4.2V196.3z"/>
	<path class="st1" d="M132.8,193.5l-0.5,3.1c-0.5-0.2-1.3-0.4-1.9-0.4c-1.5,0-2.4,0.9-2.4,2.6v6.3h-3.1v-11.6h3v1.3
		c0.7-1.1,1.8-1.6,3.3-1.6C131.9,193.2,132.4,193.3,132.8,193.5z"/>
	<path class="st1" d="M145.4,199.4c0,0.4,0,0.8-0.1,1.1h-8.2c0.3,1.7,1.5,2.4,3,2.4c1,0,2.1-0.4,2.9-1.1l1.8,2c-1.3,1.2-3,1.8-5,1.8
		c-3.6,0-6-2.4-6-6.1c0-3.7,2.4-6.2,5.9-6.2C143.1,193.2,145.4,195.7,145.4,199.4z M137.1,198.3h5.1c-0.3-1.5-1.2-2.3-2.5-2.3
		C138.2,195.9,137.4,196.8,137.1,198.3z"/>
	<path class="st1" d="M156.2,196.8c-0.9-0.5-2.4-0.9-3.7-0.9c-1.2,0-1.8,0.4-1.8,1.1c0,0.7,0.8,0.8,1.9,1l1,0.2
		c2.5,0.4,3.9,1.5,3.9,3.5c0,2.4-2,3.9-5.3,3.9c-1.6,0-3.7-0.3-5.2-1.4l1.2-2.4c1,0.7,2.2,1.1,4,1.1c1.5,0,2.1-0.4,2.1-1.1
		c0-0.6-0.6-0.9-1.9-1.1l-0.9-0.1c-2.7-0.4-4-1.5-4-3.5c0-2.4,1.8-3.8,4.9-3.8c1.9,0,3.3,0.3,4.9,1.1L156.2,196.8z"/>
	<path class="st1" d="M177.4,205.2h-3.1v-1.3c-0.8,0.9-1.9,1.6-3.5,1.6c-3.2,0-5.6-2.6-5.6-6.1c0-3.5,2.4-6.1,5.6-6.1
		c1.6,0,2.7,0.6,3.5,1.6v-1.3h3.1V205.2z M167.6,188.1h3.7l2.4,3.8h-3L167.6,188.1z M168.5,199.4c0,1.8,1.2,3.2,3,3.2
		c1.8,0,3-1.4,3-3.2s-1.2-3.2-3-3.2C169.6,196.2,168.5,197.6,168.5,199.4z"/>
	<path class="st1" d="M194.6,193.5l-0.5,3.1c-0.5-0.2-1.3-0.4-1.9-0.4c-1.5,0-2.4,0.9-2.4,2.6v6.3h-3.1v-11.6h3v1.3
		c0.7-1.1,1.8-1.6,3.3-1.6C193.6,193.2,194.2,193.3,194.6,193.5z"/>
	<path class="st1" d="M207.1,199.4c0,0.4,0,0.8-0.1,1.1h-8.2c0.3,1.7,1.5,2.4,3,2.4c1,0,2.1-0.4,2.9-1.1l1.8,2c-1.3,1.2-3,1.8-5,1.8
		c-3.6,0-6-2.4-6-6.1c0-3.7,2.4-6.2,5.9-6.2C204.8,193.2,207.1,195.7,207.1,199.4z M198.9,198.3h5.1c-0.3-1.5-1.2-2.3-2.5-2.3
		C200,195.9,199.1,196.8,198.9,198.3z"/>
	<path class="st1" d="M216.1,205.2h-3.6l-4.6-11.6h3.4l3,8.3l3-8.3h3.3L216.1,205.2z"/>
	<path class="st1" d="M233,199.4c0,0.4,0,0.8-0.1,1.1h-8.2c0.3,1.7,1.5,2.4,3,2.4c1,0,2.1-0.4,2.9-1.1l1.8,2c-1.3,1.2-3,1.8-5,1.8
		c-3.6,0-6-2.4-6-6.1c0-3.7,2.4-6.2,5.9-6.2C230.7,193.2,233,195.7,233,199.4z M224.7,198.3h5.1c-0.3-1.5-1.2-2.3-2.5-2.3
		C225.9,195.9,225,196.8,224.7,198.3z"/>
	<path class="st1" d="M246.6,197.8v7.4h-3.1v-6.4c0-1.7-0.8-2.6-2.3-2.6c-1.3,0-2.5,0.9-2.5,2.6v6.4h-3.1v-11.6h3v1.4
		c0.8-1.2,2.1-1.7,3.4-1.7C244.7,193.2,246.6,195.1,246.6,197.8z"/>
	<path class="st1" d="M260.7,200.2c0,3.7-2.6,5.3-5.5,5.3c-2.9,0-5.5-1.6-5.5-5.3v-6.7h3.1v6.4c0,1.9,1,2.6,2.4,2.6
		c1.3,0,2.4-0.8,2.4-2.6v-6.4h3.1V200.2z"/>
	<path class="st1" d="M277.5,196.3h-3.6v8.8h-3.1v-8.8h-2.2v-2.8h2.2v-1.4c0-2.7,1.5-4.5,4.2-4.5c1.6,0,2.7,0.5,3.6,1l-1.2,2.4
		c-0.6-0.3-1.3-0.6-2-0.6c-0.9,0-1.4,0.6-1.4,1.6v1.4h3.6V196.3z"/>
	<path class="st1" d="M283.5,189.8c0,1.1-0.9,2-2,2s-2-0.9-2-2s0.9-2,2-2S283.5,188.6,283.5,189.8z M283,205.2h-3.1v-11.6h3.1V205.2
		z"/>
	<path class="st1" d="M293.3,199.3l4.2,5.9h-3.7l-2.6-3.7l-2.6,3.7H285l4.3-5.9l-4.2-5.7h3.7l2.5,3.6l2.5-3.6h3.6L293.3,199.3z"/>
	<path class="st1" d="M309.6,199.4c0,0.4,0,0.8-0.1,1.1h-8.2c0.3,1.7,1.5,2.4,3,2.4c1,0,2.1-0.4,2.9-1.1l1.8,2c-1.3,1.2-3,1.8-5,1.8
		c-3.6,0-6-2.4-6-6.1c0-3.7,2.4-6.2,5.9-6.2C307.3,193.2,309.6,195.7,309.6,199.4z M301.3,198.3h5.1c-0.3-1.5-1.2-2.3-2.5-2.3
		C302.5,195.9,301.6,196.8,301.3,198.3z"/>
</g>
<g>
	<rect x="318" y="0.5" class="st2" width="1" height="242"/>
</g>
<g>
	<rect x="318.5" y="0.5" class="st3" width="537" height="57"/>
</g>
<g>
	<rect x="319" y="81" class="st4" width="281" height="57"/>
</g>
<g>
	<rect x="319" y="161" class="st5" width="106" height="57"/>
</g>
</svg>
