<?xml version="1.0" encoding="utf-8"?>
<!-- Generator: Adobe Illustrator 24.1.2, SVG Export Plug-In . SVG Version: 6.00 Build 0)  -->
<svg version="1.1" id="Layer_1" xmlns="http://www.w3.org/2000/svg" xmlns:xlink="http://www.w3.org/1999/xlink" x="0px" y="0px"
	 viewBox="0 0 1080 194.2" style="enable-background:new 0 0 1080 194.2;" xml:space="preserve">
<style type="text/css">
	.st0{enable-background:new    ;}
	.st1{fill:#203232;}
	.st2{fill:#CCCCCC;}
	.st3{fill:#ED5A35;}
	.st4{fill:#F47C20;}
	.st5{fill:#FFB819;}
</style>
<g class="st0">
	<path class="st1" d="M38.9,23.2L37,25.1c-0.8-0.9-1.9-1.4-3.2-1.4c-2.4,0-4.2,1.8-4.2,4.4c0,2.7,1.9,4.4,4.2,4.4
		c2.2,0,3.4-1,3.8-2.9h-3.4v-2.2h6.1c0,0.3,0,0.5,0,0.8c0,4-2.7,6.9-6.5,6.9c-3.7,0-7-2.6-7-6.9c0-4,2.9-6.9,7-6.9
		C35.9,21.2,37.7,22,38.9,23.2z"/>
	<path class="st1" d="M44.9,34.8h-2.5V21.1h2.5V34.8z"/>
	<path class="st1" d="M56.9,30.2c0,2.8-2.1,4.9-5,4.9c-2.9,0-5-2.1-5-4.9s2.1-4.9,5-4.9C54.8,25.3,56.9,27.4,56.9,30.2z M49.5,30.2
		c0,1.5,1,2.5,2.4,2.5c1.4,0,2.5-1,2.5-2.5c0-1.5-1.1-2.5-2.5-2.5C50.5,27.6,49.5,28.7,49.5,30.2z"/>
	<path class="st1" d="M68.6,30.2c0,2.8-1.9,4.9-4.5,4.9c-1.3,0-2.2-0.5-2.8-1.3v1H59V21.1h2.5v5.4c0.6-0.7,1.5-1.2,2.7-1.2
		C66.7,25.3,68.6,27.4,68.6,30.2z M61.3,30.2c0,1.5,1,2.5,2.4,2.5c1.5,0,2.4-1.1,2.4-2.5s-0.9-2.5-2.4-2.5
		C62.3,27.6,61.3,28.7,61.3,30.2z"/>
	<path class="st1" d="M79.7,34.8h-2.4v-1c-0.6,0.7-1.5,1.3-2.8,1.3c-2.5,0-4.5-2.1-4.5-4.9c0-2.8,1.9-4.9,4.5-4.9
		c1.3,0,2.2,0.5,2.8,1.3v-1h2.4V34.8z M72.6,30.2c0,1.4,0.9,2.5,2.4,2.5c1.4,0,2.4-1.1,2.4-2.5s-1-2.5-2.4-2.5
		C73.6,27.6,72.6,28.8,72.6,30.2z"/>
	<path class="st1" d="M84.8,34.8h-2.5V21.1h2.5V34.8z"/>
	<path class="st1" d="M95,34.8h-2.7V21.4H95V34.8z"/>
	<path class="st1" d="M106.6,28.9v5.9h-2.5v-5.1c0-1.3-0.7-2.1-1.8-2.1c-1.1,0-2,0.7-2,2.1v5.1h-2.5v-9.2h2.4v1.1
		c0.7-1,1.7-1.3,2.7-1.3C105.1,25.3,106.6,26.8,106.6,28.9z"/>
	<path class="st1" d="M115.1,27.8h-2.9v7h-2.5v-7H108v-2.2h1.7v-1.1c0-2.2,1.2-3.6,3.3-3.6c1.3,0,2.1,0.4,2.8,0.8l-1,1.9
		c-0.5-0.2-1-0.4-1.6-0.4c-0.7,0-1.1,0.4-1.1,1.3v1.1h2.9V27.8z"/>
	<path class="st1" d="M123.1,25.5l-0.4,2.5c-0.4-0.2-1-0.3-1.5-0.3c-1.2,0-1.9,0.7-1.9,2.1v5h-2.5v-9.2h2.4v1
		c0.6-0.9,1.5-1.3,2.6-1.3C122.3,25.3,122.7,25.4,123.1,25.5z"/>
	<path class="st1" d="M133.5,34.8h-2.4v-1c-0.6,0.7-1.5,1.3-2.8,1.3c-2.5,0-4.5-2.1-4.5-4.9c0-2.8,1.9-4.9,4.5-4.9
		c1.3,0,2.2,0.5,2.8,1.3v-1h2.4V34.8z M126.4,30.2c0,1.4,0.9,2.5,2.4,2.5c1.4,0,2.4-1.1,2.4-2.5s-1-2.5-2.4-2.5
		C127.4,27.6,126.4,28.8,126.4,30.2z"/>
	<path class="st1" d="M142.8,28.1c-0.7-0.4-1.9-0.7-2.9-0.8c-0.9,0-1.4,0.3-1.4,0.8c0,0.5,0.7,0.7,1.5,0.8l0.8,0.1
		c2,0.3,3.1,1.2,3.1,2.8c0,1.9-1.6,3.1-4.2,3.1c-1.3,0-2.9-0.2-4.1-1.1l1-1.9c0.8,0.5,1.8,0.9,3.1,0.9c1.2,0,1.7-0.3,1.7-0.9
		c0-0.4-0.5-0.7-1.5-0.8l-0.8-0.1c-2.1-0.3-3.2-1.2-3.2-2.8c0-1.9,1.5-3,3.9-3c1.5,0,2.6,0.3,3.9,0.9L142.8,28.1z"/>
	<path class="st1" d="M152.4,27.8h-3.3v3.4c0,1.2,0.6,1.6,1.4,1.6c0.6,0,1.2-0.3,1.7-0.6l0.9,1.9c-0.8,0.6-1.7,1-3.1,1
		c-2.3,0-3.5-1.3-3.5-3.7v-3.6h-1.8v-2.2h1.8v-2.7h2.5v2.7h3.3V27.8z"/>
	<path class="st1" d="M160.9,25.5l-0.4,2.5c-0.4-0.2-1-0.3-1.5-0.3c-1.2,0-1.9,0.7-1.9,2.1v5h-2.5v-9.2h2.4v1
		c0.6-0.9,1.5-1.3,2.6-1.3C160.2,25.3,160.6,25.4,160.9,25.5z"/>
	<path class="st1" d="M171.2,30.8c0,2.9-2.1,4.2-4.4,4.2c-2.3,0-4.4-1.3-4.4-4.2v-5.3h2.5v5.1c0,1.5,0.8,2.1,1.9,2.1
		c1.1,0,1.9-0.6,1.9-2.1v-5.1h2.5V30.8z"/>
	<path class="st1" d="M181.8,27l-1.8,1.5c-0.6-0.6-1.2-0.9-2-0.9c-1.3,0-2.3,1-2.3,2.5c0,1.5,1,2.5,2.3,2.5c0.8,0,1.5-0.4,2-0.9
		l1.8,1.5c-0.9,1.1-2.2,1.7-3.7,1.7c-2.9,0-4.9-2.1-4.9-4.9c0-2.8,2-4.9,4.9-4.9C179.6,25.3,180.9,25.9,181.8,27z"/>
	<path class="st1" d="M190.4,27.8H187v3.4c0,1.2,0.6,1.6,1.4,1.6c0.6,0,1.2-0.3,1.7-0.6l0.9,1.9c-0.8,0.6-1.7,1-3.1,1
		c-2.3,0-3.5-1.3-3.5-3.7v-3.6h-1.8v-2.2h1.8v-2.7h2.5v2.7h3.3V27.8z"/>
	<path class="st1" d="M201.1,30.8c0,2.9-2.1,4.2-4.4,4.2c-2.3,0-4.4-1.3-4.4-4.2v-5.3h2.5v5.1c0,1.5,0.8,2.1,1.9,2.1
		c1.1,0,1.9-0.6,1.9-2.1v-5.1h2.5V30.8z"/>
	<path class="st1" d="M210,25.5l-0.4,2.5c-0.4-0.2-1-0.3-1.5-0.3c-1.2,0-1.9,0.7-1.9,2.1v5h-2.5v-9.2h2.4v1c0.6-0.9,1.5-1.3,2.6-1.3
		C209.2,25.3,209.6,25.4,210,25.5z"/>
	<path class="st1" d="M219.9,30.1c0,0.3,0,0.6,0,0.8h-6.5c0.3,1.3,1.2,1.9,2.4,1.9c0.8,0,1.7-0.3,2.3-0.9l1.5,1.6
		c-1,1-2.4,1.4-3.9,1.4c-2.8,0-4.8-1.9-4.8-4.8c0-2.9,1.9-4.9,4.7-4.9C218.1,25.3,219.9,27.3,219.9,30.1z M213.4,29.3h4.1
		c-0.2-1.2-0.9-1.8-2-1.8C214.3,27.4,213.6,28.2,213.4,29.3z"/>
</g>
<g class="st0">
	<path class="st1" d="M695.2,29.9h1.9v2.4h-1.9v2.4h-2.6v-2.4h-5.9v-1.9l4.7-9h2.9l-4.5,8.5h2.8v-3.6h2.6V29.9z"/>
	<path class="st1" d="M702.2,33.2c0,1-0.9,1.9-1.8,1.9c-1,0-1.9-0.9-1.9-1.9c0-1,0.9-1.8,1.9-1.8C701.4,31.3,702.2,32.2,702.2,33.2z
		"/>
	<path class="st1" d="M712.8,23.5l-5.5,11.3h-3l5.5-10.9h-6.3v-2.4h9.4V23.5z"/>
	<path class="st1" d="M721.4,24.8c0,2.1-1.6,3.6-3.7,3.6c-2.1,0-3.7-1.6-3.7-3.6c0-2.1,1.6-3.6,3.7-3.6
		C719.8,21.2,721.4,22.8,721.4,24.8z M716.1,24.8c0,1,0.7,1.7,1.6,1.7c0.9,0,1.6-0.7,1.6-1.7c0-1-0.7-1.6-1.6-1.6
		C716.8,23.2,716.1,23.9,716.1,24.8z M719.5,34.8H717l8.9-13.3h2.5L719.5,34.8z M731.4,31.4c0,2.1-1.6,3.6-3.7,3.6
		c-2.1,0-3.7-1.6-3.7-3.6c0-2.1,1.6-3.6,3.7-3.6C729.8,27.7,731.4,29.3,731.4,31.4z M726.1,31.4c0,1,0.7,1.6,1.6,1.6
		c0.9,0,1.6-0.7,1.6-1.6s-0.7-1.6-1.6-1.6C726.8,29.7,726.1,30.4,726.1,31.4z"/>
</g>
<g class="st0">
	<path class="st1" d="M477.5,88.6c0.7-0.9,2.1-2.3,4.5-2.3c2.8,0,4.5,1.8,4.5,4.3c0,1.6-0.8,2.8-1.9,3.9l-2.8,3h5.1v2.4h-8.8v-2
		l4.7-4.8c0.7-0.7,1.1-1.4,1.1-2.3c0-1.2-0.8-2-2-2c-1.3,0-2,0.7-2.7,1.5L477.5,88.6z"/>
	<path class="st1" d="M492.3,98.2c0,1-0.9,1.9-1.8,1.9c-1,0-1.9-0.9-1.9-1.9c0-1,0.9-1.8,1.9-1.8C491.5,96.4,492.3,97.2,492.3,98.2z
		"/>
	<path class="st1" d="M502.6,88.9h-5.4l-0.1,2.7h1.5c3.1,0,4.7,1.8,4.7,4c0,2.9-2.2,4.5-4.9,4.5c-2,0-3.6-0.7-4.7-2l1.4-1.8
		c0.7,0.8,2,1.4,3.3,1.4c1.5,0,2.2-0.9,2.2-1.9c0-1-0.6-1.9-2.7-1.9h-3.2l0.1-7.4h7.7V88.9z"/>
	<path class="st1" d="M512.4,89.9c0,2.1-1.6,3.6-3.7,3.6c-2.1,0-3.7-1.6-3.7-3.6c0-2.1,1.6-3.6,3.7-3.6
		C510.8,86.3,512.4,87.8,512.4,89.9z M507,89.9c0,1,0.7,1.7,1.6,1.7c0.9,0,1.6-0.7,1.6-1.7c0-1-0.7-1.6-1.6-1.6
		C507.7,88.3,507,89,507,89.9z M510.4,99.8h-2.5l8.9-13.3h2.5L510.4,99.8z M522.4,96.4c0,2.1-1.6,3.6-3.7,3.6
		c-2.1,0-3.7-1.6-3.7-3.6c0-2.1,1.6-3.6,3.7-3.6C520.8,92.8,522.4,94.4,522.4,96.4z M517,96.4c0,1,0.7,1.6,1.6,1.6
		c0.9,0,1.6-0.7,1.6-1.6s-0.7-1.6-1.6-1.6C517.7,94.8,517,95.5,517,96.4z"/>
</g>
<g class="st0">
	<path class="st1" d="M352.8,159.8c0,4.3-2.6,6.9-5.7,6.9c-3.2,0-5.7-2.6-5.7-6.9c0-4.3,2.6-6.9,5.7-6.9
		C350.2,152.9,352.8,155.5,352.8,159.8z M344,159.8c0,2.9,1.4,4.4,3.1,4.4c1.7,0,3.1-1.5,3.1-4.4s-1.4-4.4-3.1-4.4
		C345.3,155.4,344,156.9,344,159.8z"/>
	<path class="st1" d="M358.1,164.9c0,1-0.9,1.9-1.8,1.9c-1,0-1.9-0.9-1.9-1.9c0-1,0.9-1.8,1.9-1.8
		C357.2,163.1,358.1,163.9,358.1,164.9z"/>
	<path class="st1" d="M363.8,161.9c-0.2,0-0.4,0-0.6,0c-2.7,0-4.6-1.9-4.6-4.4c0-2.6,2.1-4.5,5-4.5c2.8,0,5,1.9,5,4.5
		c0,1.2-0.5,2.3-1.3,3.5l-3.7,5.5h-3.1L363.8,161.9z M365.9,157.5c0-1.3-1-2.2-2.3-2.2c-1.3,0-2.3,0.9-2.3,2.2c0,1.3,1,2.2,2.3,2.2
		C364.9,159.7,365.9,158.8,365.9,157.5z"/>
	<path class="st1" d="M377.4,156.6c0,2.1-1.6,3.6-3.7,3.6c-2.1,0-3.7-1.6-3.7-3.6c0-2.1,1.6-3.6,3.7-3.6
		C375.8,152.9,377.4,154.5,377.4,156.6z M372,156.6c0,1,0.7,1.7,1.6,1.7c0.9,0,1.6-0.7,1.6-1.7c0-1-0.7-1.6-1.6-1.6
		C372.7,154.9,372,155.6,372,156.6z M375.4,166.5h-2.5l8.9-13.3h2.5L375.4,166.5z M387.4,163.1c0,2.1-1.6,3.6-3.7,3.6
		c-2.1,0-3.7-1.6-3.7-3.6c0-2.1,1.6-3.6,3.7-3.6C385.8,159.5,387.4,161,387.4,163.1z M382,163.1c0,1,0.7,1.6,1.6,1.6
		c0.9,0,1.6-0.7,1.6-1.6c0-1-0.7-1.6-1.6-1.6C382.7,161.5,382,162.1,382,163.1z"/>
</g>
<g class="st0">
	<path class="st1" d="M94,88.3l-1.9,1.9c-0.8-0.9-1.9-1.4-3.2-1.4c-2.4,0-4.2,1.8-4.2,4.4c0,2.7,1.9,4.4,4.2,4.4
		c2.2,0,3.4-1,3.8-2.9h-3.4v-2.2h6.1c0,0.3,0,0.5,0,0.8c0,4-2.7,6.9-6.5,6.9c-3.7,0-7-2.6-7-6.9c0-4,2.9-6.9,7-6.9
		C91,86.3,92.8,87,94,88.3z"/>
	<path class="st1" d="M100,99.8h-2.5V86.1h2.5V99.8z"/>
	<path class="st1" d="M112,95.2c0,2.8-2.1,4.9-5,4.9c-2.9,0-5-2.1-5-4.9s2.1-4.9,5-4.9C109.9,90.4,112,92.5,112,95.2z M104.6,95.2
		c0,1.5,1,2.5,2.4,2.5c1.4,0,2.5-1,2.5-2.5c0-1.5-1.1-2.5-2.5-2.5C105.6,92.7,104.6,93.7,104.6,95.2z"/>
	<path class="st1" d="M123.7,95.2c0,2.8-1.9,4.9-4.5,4.9c-1.3,0-2.2-0.5-2.8-1.3v1h-2.4V86.1h2.5v5.4c0.6-0.7,1.5-1.2,2.7-1.2
		C121.8,90.4,123.7,92.5,123.7,95.2z M116.4,95.2c0,1.5,1,2.5,2.4,2.5c1.5,0,2.4-1.1,2.4-2.5s-0.9-2.5-2.4-2.5
		C117.4,92.7,116.4,93.8,116.4,95.2z"/>
	<path class="st1" d="M134.8,99.8h-2.4v-1c-0.6,0.7-1.5,1.3-2.8,1.3c-2.5,0-4.5-2.1-4.5-4.9c0-2.8,1.9-4.9,4.5-4.9
		c1.3,0,2.2,0.5,2.8,1.3v-1h2.4V99.8z M127.7,95.2c0,1.4,0.9,2.5,2.4,2.5c1.4,0,2.4-1.1,2.4-2.5s-1-2.5-2.4-2.5
		C128.7,92.7,127.7,93.8,127.7,95.2z"/>
	<path class="st1" d="M139.9,99.8h-2.5V86.1h2.5V99.8z"/>
	<path class="st1" d="M157.4,99.8h-10V86.5h9.9V89h-7.2v3h6.9v2.4h-6.9v3.1h7.3V99.8z"/>
	<path class="st1" d="M166.5,91.6v-1h2.4v13h-2.5v-4.8c-0.6,0.7-1.5,1.2-2.7,1.2c-2.5,0-4.5-2.1-4.5-4.9c0-2.8,1.9-4.9,4.5-4.9
		C165,90.4,165.9,90.9,166.5,91.6z M161.8,95.2c0,1.4,0.9,2.5,2.4,2.5c1.4,0,2.4-1.1,2.4-2.5s-1-2.5-2.4-2.5
		C162.7,92.7,161.8,93.8,161.8,95.2z"/>
	<path class="st1" d="M180.2,95.9c0,2.9-2.1,4.2-4.4,4.2c-2.3,0-4.4-1.3-4.4-4.2v-5.3h2.5v5.1c0,1.5,0.8,2.1,1.9,2.1
		c1.1,0,1.9-0.6,1.9-2.1v-5.1h2.5V95.9z"/>
	<path class="st1" d="M185.5,87.6c0,0.9-0.7,1.6-1.6,1.6c-0.9,0-1.6-0.7-1.6-1.6c0-0.9,0.7-1.6,1.6-1.6
		C184.8,86,185.5,86.7,185.5,87.6z M185.2,99.8h-2.5v-9.2h2.5V99.8z"/>
	<path class="st1" d="M194.5,92.8h-3.3v3.4c0,1.2,0.6,1.6,1.4,1.6c0.6,0,1.2-0.3,1.7-0.6l0.9,1.9c-0.8,0.6-1.7,1-3.1,1
		c-2.3,0-3.5-1.3-3.5-3.7v-3.6h-1.8v-2.2h1.8v-2.7h2.5v2.7h3.3V92.8z"/>
	<path class="st1" d="M199.5,87.6c0,0.9-0.7,1.6-1.6,1.6c-0.9,0-1.6-0.7-1.6-1.6c0-0.9,0.7-1.6,1.6-1.6
		C198.8,86,199.5,86.7,199.5,87.6z M199.2,99.8h-2.5v-9.2h2.5V99.8z"/>
	<path class="st1" d="M210.3,95.2c0,0.3,0,0.6,0,0.8h-6.5c0.3,1.3,1.2,1.9,2.4,1.9c0.8,0,1.7-0.3,2.3-0.9l1.5,1.6
		c-1,1-2.4,1.4-3.9,1.4c-2.8,0-4.8-1.9-4.8-4.8c0-2.9,1.9-4.9,4.7-4.9C208.5,90.4,210.3,92.3,210.3,95.2z M203.8,94.4h4.1
		c-0.2-1.2-0.9-1.8-2-1.8C204.7,92.5,204,93.2,203.8,94.4z"/>
	<path class="st1" d="M218.9,93.2c-0.7-0.4-1.9-0.7-2.9-0.8c-0.9,0-1.4,0.3-1.4,0.8c0,0.5,0.7,0.7,1.5,0.8l0.8,0.1
		c2,0.3,3.1,1.2,3.1,2.8c0,1.9-1.6,3.1-4.2,3.1c-1.3,0-2.9-0.2-4.1-1.1l1-1.9c0.8,0.5,1.8,0.9,3.1,0.9c1.2,0,1.7-0.3,1.7-0.9
		c0-0.4-0.5-0.7-1.5-0.8l-0.8-0.1c-2.1-0.3-3.2-1.2-3.2-2.8c0-1.9,1.5-3,3.9-3c1.5,0,2.6,0.3,3.9,0.9L218.9,93.2z"/>
</g>
<g class="st0">
	<path class="st1" d="M48.5,155l-1.9,1.9c-0.8-0.9-1.9-1.4-3.2-1.4c-2.4,0-4.2,1.8-4.2,4.4c0,2.7,1.9,4.4,4.2,4.4
		c2.2,0,3.4-1,3.8-2.9h-3.4v-2.2h6.1c0,0.3,0,0.5,0,0.8c0,4-2.7,6.9-6.5,6.9c-3.7,0-7-2.6-7-6.9c0-4,2.9-6.9,7-6.9
		C45.5,152.9,47.3,153.7,48.5,155z"/>
	<path class="st1" d="M54.5,166.5H52v-13.7h2.5V166.5z"/>
	<path class="st1" d="M66.5,161.9c0,2.8-2.1,4.9-5,4.9c-2.9,0-5-2.1-5-4.9c0-2.8,2.1-4.9,5-4.9C64.4,157,66.5,159.1,66.5,161.9z
		 M59.1,161.9c0,1.5,1,2.5,2.4,2.5c1.4,0,2.5-1,2.5-2.5s-1.1-2.5-2.5-2.5C60.1,159.4,59.1,160.4,59.1,161.9z"/>
	<path class="st1" d="M78.2,161.9c0,2.8-1.9,4.9-4.5,4.9c-1.3,0-2.2-0.5-2.8-1.3v1h-2.4v-13.7h2.5v5.4c0.6-0.7,1.5-1.2,2.7-1.2
		C76.3,157,78.2,159.1,78.2,161.9z M70.9,161.9c0,1.5,1,2.5,2.4,2.5c1.5,0,2.4-1.1,2.4-2.5c0-1.4-0.9-2.5-2.4-2.5
		C71.9,159.4,70.9,160.4,70.9,161.9z"/>
	<path class="st1" d="M89.3,166.5h-2.4v-1c-0.6,0.7-1.5,1.3-2.8,1.3c-2.5,0-4.5-2.1-4.5-4.9s1.9-4.9,4.5-4.9c1.3,0,2.2,0.5,2.8,1.3
		v-1h2.4V166.5z M82.2,161.9c0,1.4,0.9,2.5,2.4,2.5c1.4,0,2.4-1.1,2.4-2.5s-1-2.5-2.4-2.5C83.2,159.4,82.2,160.5,82.2,161.9z"/>
	<path class="st1" d="M94.4,166.5H92v-13.7h2.5V166.5z"/>
	<path class="st1" d="M111.3,161.1h-6.7v5.4H102v-13.3h9.8v2.4h-7.1v3h6.7V161.1z"/>
	<path class="st1" d="M116.7,154.3c0,0.9-0.7,1.6-1.6,1.6c-0.9,0-1.6-0.7-1.6-1.6c0-0.9,0.7-1.6,1.6-1.6
		C116,152.7,116.7,153.4,116.7,154.3z M116.3,166.5h-2.5v-9.2h2.5V166.5z"/>
	<path class="st1" d="M124.5,161.8l3.4,4.7h-3l-2.1-2.9l-2,2.9h-2.9l3.4-4.7l-3.3-4.5h3l2,2.9l2-2.9h2.9L124.5,161.8z"/>
	<path class="st1" d="M137.4,161.9c0,0.3,0,0.6,0,0.8h-6.5c0.3,1.3,1.2,1.9,2.4,1.9c0.8,0,1.7-0.3,2.3-0.9l1.5,1.6
		c-1,1-2.4,1.4-3.9,1.4c-2.8,0-4.8-1.9-4.8-4.8c0-2.9,1.9-4.9,4.7-4.9C135.6,157,137.4,159,137.4,161.9z M130.8,161h4.1
		c-0.2-1.2-0.9-1.8-2-1.8C131.7,159.2,131.1,159.9,130.8,161z"/>
	<path class="st1" d="M146.1,158.2v-5.4h2.5v13.7h-2.4v-1c-0.6,0.7-1.5,1.3-2.8,1.3c-2.5,0-4.5-2.1-4.5-4.9s1.9-4.9,4.5-4.9
		C144.6,157,145.5,157.5,146.1,158.2z M141.4,161.9c0,1.4,0.9,2.5,2.4,2.5c1.4,0,2.4-1.1,2.4-2.5s-1-2.5-2.4-2.5
		C142.3,159.4,141.4,160.5,141.4,161.9z"/>
	<path class="st1" d="M158.7,166.5h-2.7v-13.3h2.7V166.5z"/>
	<path class="st1" d="M170.3,160.6v5.9h-2.5v-5.1c0-1.3-0.7-2.1-1.8-2.1c-1.1,0-2,0.7-2,2.1v5.1h-2.5v-9.2h2.4v1.1
		c0.7-1,1.7-1.3,2.7-1.3C168.8,157,170.3,158.5,170.3,160.6z"/>
	<path class="st1" d="M180.8,158.8l-1.8,1.5c-0.6-0.6-1.2-0.9-2-0.9c-1.3,0-2.3,1-2.3,2.5c0,1.5,1,2.5,2.3,2.5c0.8,0,1.5-0.4,2-0.9
		l1.8,1.5c-0.9,1.1-2.2,1.7-3.7,1.7c-2.9,0-4.9-2.1-4.9-4.9c0-2.8,2-4.9,4.9-4.9C178.7,157,180,157.7,180.8,158.8z"/>
	<path class="st1" d="M191.8,161.9c0,2.8-2.1,4.9-5,4.9c-2.9,0-5-2.1-5-4.9c0-2.8,2.1-4.9,5-4.9C189.7,157,191.8,159.1,191.8,161.9z
		 M184.4,161.9c0,1.5,1,2.5,2.4,2.5c1.4,0,2.5-1,2.5-2.5s-1.1-2.5-2.5-2.5C185.4,159.4,184.4,160.4,184.4,161.9z"/>
	<path class="st1" d="M208.8,160.6v5.9h-2.5v-5.1c0-1.3-0.7-2.1-1.8-2.1c-1.1,0-2,0.7-2,2.1v5.1h-2.5v-5.1c0-1.3-0.7-2.1-1.8-2.1
		c-1.1,0-2,0.7-2,2.1v5.1h-2.5v-9.2h2.4v1.1c0.7-1,1.7-1.3,2.7-1.3c1.3,0,2.4,0.6,3,1.6c0.7-1.2,1.9-1.6,3.1-1.6
		C207.4,157,208.8,158.5,208.8,160.6z"/>
	<path class="st1" d="M219.9,161.9c0,0.3,0,0.6,0,0.8h-6.5c0.3,1.3,1.2,1.9,2.4,1.9c0.8,0,1.7-0.3,2.3-0.9l1.5,1.6
		c-1,1-2.4,1.4-3.9,1.4c-2.8,0-4.8-1.9-4.8-4.8c0-2.9,1.9-4.9,4.7-4.9C218.1,157,219.9,159,219.9,161.9z M213.4,161h4.1
		c-0.2-1.2-0.9-1.8-2-1.8C214.3,159.2,213.6,159.9,213.4,161z"/>
</g>
<g>
	<rect x="243.3" y="1.1" class="st2" width="0.8" height="192"/>
</g>
<g>
	<rect x="243.7" y="4.1" class="st3" width="426.1" height="45.2"/>
</g>
<g>
	<rect x="244.1" y="68" class="st4" width="223" height="45.2"/>
</g>
<g>
	<rect x="244.1" y="131.4" class="st5" width="84.1" height="45.2"/>
</g>
</svg>
