<svg id="Layer_1" data-name="Layer 1" xmlns="http://www.w3.org/2000/svg" viewBox="0 0 145 128.55"><defs><style>.cls-1{fill:#fff;}.cls-2{fill:#ed5b36;}.cls-3{fill:#203232;}.cls-4{fill:#213332;}.cls-5{fill:#ed5c36;}.cls-6{fill:none;}</style></defs><circle class="cls-1" cx="112.99" cy="62.48" r="22.45"/><path class="cls-2" d="M133.81,115a36.34,36.34,0,0,1,29.55-35.69V67.18H68.93l-.81,61.61a6,6,0,0,0,6.23,6.08l66.37,1.44A36.17,36.17,0,0,1,133.81,115Z" transform="translate(-51.13 -51.78)"/><rect class="cls-3" x="73.67" y="29.96" width="5.35" height="5.77"/><rect class="cls-3" x="73.67" y="41.58" width="5.35" height="5.77"/><rect class="cls-3" x="73.67" y="64.71" width="5.35" height="5.77"/><rect class="cls-3" x="73.67" y="53.21" width="5.35" height="5.77"/><path class="cls-3" d="M175.6,79.09a36.36,36.36,0,0,1,7.16,1.85V56.7a4.93,4.93,0,0,0-4.92-4.92H56.06a4.93,4.93,0,0,0-4.93,4.92v79.85h7.16V58.94H175.6Z" transform="translate(-51.13 -51.78)"/><path class="cls-3" d="M111,147.31,58.29,143V64.48H51.13v80.79a4.92,4.92,0,0,0,4.92,4.92h54.78a1.44,1.44,0,0,0,1.44-1.44h0A1.45,1.45,0,0,0,111,147.31Z" transform="translate(-51.13 -51.78)"/><rect class="cls-3" x="57.37" y="42.91" width="5.4" height="27.04"/><rect class="cls-3" x="46.56" y="65.01" width="5.4" height="4.94"/><rect class="cls-3" x="35.76" y="50.67" width="5.4" height="19.28"/><rect class="cls-3" x="24.95" y="61.84" width="5.4" height="8.11"/><polygon class="cls-3" points="62.74 23.96 62.74 29.37 59.57 29.37 52.51 50.96 45.22 50.96 39.43 43.98 32.56 43.98 28.26 54.47 22.57 54.47 28.64 38.57 35.73 38.57 35.73 38.58 41.96 38.58 47.75 45.55 48.6 45.55 55.66 23.96 62.74 23.96"/><path class="cls-3" d="M182.76,80.94V65.42H175.6V79.09A36.36,36.36,0,0,1,182.76,80.94Z" transform="translate(-51.13 -51.78)"/><rect class="cls-4" x="111.86" y="90.75" width="5.1" height="7.7"/><polygon class="cls-5" points="110.86 100.84 118.46 100.64 118.06 126.94 112.16 126.64 110.86 100.84"/><path class="cls-5" d="M165.5,86a28.65,28.65,0,1,0,28.6,28.7A28.59,28.59,0,0,0,165.5,86Zm.4,47.5a19,19,0,1,1,19-19A19,19,0,0,1,165.9,133.53Z" transform="translate(-51.13 -51.78)"/><path class="cls-4" d="M166.1,144.43a30,30,0,0,1-18.6-53.6h0A30,30,0,0,1,184.7,138,30.18,30.18,0,0,1,166.1,144.43Zm-16.6-51.1a26.78,26.78,0,1,0,33.1,42.1,26.78,26.78,0,0,0-33.1-42.1Z" transform="translate(-51.13 -51.78)"/><path class="cls-4" d="M159.5,180.23,160,150h10.2l.6,30.3Zm2.9-26.7-1.2,23.7,7.3.2v-23.9Z" transform="translate(-51.13 -51.78)"/><path class="cls-4" d="M167.2,133.23a18.9,18.9,0,0,1-5.3-.8,24.55,24.55,0,0,1-5-2.2,27.86,27.86,0,0,1-4.2-3.5l-.9-1.1a5.94,5.94,0,0,1-.8-1.1,17.1,17.1,0,0,1-1.3-2.3A22.64,22.64,0,0,1,148,117a20.07,20.07,0,0,1,1.1-10.6,19.27,19.27,0,0,1,6.1-8.2,24.26,24.26,0,0,1,2-1.4,8.79,8.79,0,0,0,1-.6c.4-.2.7-.3,1.1-.5a17.35,17.35,0,0,1,4.4-1.4,1.27,1.27,0,0,0,.6-.1,17,17,0,0,0-2.2.1,21.14,21.14,0,0,0-8.9,3.1,20.57,20.57,0,0,0-7.1,8,20.87,20.87,0,0,0-1.8,5.5,20.12,20.12,0,0,0-.1,6,18.07,18.07,0,0,0,1.7,5.9,20,20,0,0,0,1.6,2.8,14.63,14.63,0,0,0,.9,1.3l1,1.2a20,20,0,0,0,4.8,3.9,23.49,23.49,0,0,0,5.7,2.3,24.34,24.34,0,0,0,6,.5,26.22,26.22,0,0,0,5.7-1.2,19.51,19.51,0,0,0,4.7-2.6,15.81,15.81,0,0,1-3.6,1.4A17.87,17.87,0,0,1,167.2,133.23Z" transform="translate(-51.13 -51.78)"/><path class="cls-6" d="M177.3,129.63a9,9,0,0,0,1-.9l.9-.9a20.5,20.5,0,0,0,4.6-8.2,19.41,19.41,0,0,0,.6-7.8,20.14,20.14,0,0,0-1.6-5.8c-.2-.4-.3-.7-.5-1.1a4.05,4.05,0,0,1-.5-.9,8.51,8.51,0,0,0-.9-1.4c-.5-.7-.8-1.1-.8-1.1a10.52,10.52,0,0,0-.9-1c-.3-.4-.7-.7-1.1-1.2a5.72,5.72,0,0,0-.8-.7c-.3-.2-.6-.5-.9-.7a20,20,0,0,0-5.3-2.9,22.08,22.08,0,0,0-5.6-1.2h-.6a18.48,18.48,0,0,0-4.5,1.1c-.4.1-.7.3-1.1.4a5.36,5.36,0,0,1-1.1.5,14.32,14.32,0,0,0-2.1,1.2,19.34,19.34,0,0,0-6.6,7.8,20.89,20.89,0,0,0-1.8,10.5,24.15,24.15,0,0,0,1.3,5.3,17.91,17.91,0,0,0,1.2,2.4c.2.4.4.7.7,1.2l.8,1.2a28,28,0,0,0,3.9,3.8,21.92,21.92,0,0,0,4.8,2.5,19.25,19.25,0,0,0,5.3,1.1,23.27,23.27,0,0,0,5.3-.3,22.85,22.85,0,0,0,3.7-1.2c.1,0,.1-.1.2-.1A12.45,12.45,0,0,0,177.3,129.63Z" transform="translate(-51.13 -51.78)"/><path class="cls-3" d="M163.49,79.3a37,37,0,0,1,5-.58l.43-14.39H65l3.23,66.26L70.77,70.1h92.36Z" transform="translate(-51.13 -51.78)"/><path class="cls-3" d="M141,93.37h-5.3v5.77h1.79A36,36,0,0,1,141,93.37Z" transform="translate(-51.13 -51.78)"/><path class="cls-3" d="M148.56,85.79V81.74h-12.9v5.77h10.75C147.1,86.91,147.82,86.33,148.56,85.79Z" transform="translate(-51.13 -51.78)"/></svg>