<svg id="Layer_1" data-name="Layer 1" xmlns="http://www.w3.org/2000/svg" viewBox="0 0 190.17 168.01"><defs><style>.cls-1{fill:#ed5b36;}.cls-2{fill:#213332;}.cls-3{fill:#203232;}.cls-4{fill:#fff;}</style></defs><path class="cls-1" d="M127.44,102.65,165.8,56.7a44.18,44.18,0,0,1,16.7,23.11Z" transform="translate(-37.64 -47.54)"/><path class="cls-1" d="M93.52,123.05l-1,58.92C66.53,180,44,153.24,42.24,122.05,41.16,103.36,47,87.9,59,77.85Z" transform="translate(-37.64 -47.54)"/><path class="cls-2" d="M118.42,106.24l42.82-58.7,2.42,1.77a60.54,60.54,0,0,1,23,31.74l.92,2.86ZM162.51,56l-41.06,48,58.47-23.92A54,54,0,0,0,162.51,56Z" transform="translate(-37.64 -47.54)"/><path class="cls-2" d="M101,124.89,61.45,70.24l2.43-1.76c22.67-16.39,51.92-16.32,74.51.17l2.42,1.77Z" transform="translate(-37.64 -47.54)"/><path class="cls-2" d="M103.87,183.17h-3a63.46,63.46,0,0,1-63.23-63.53A61.94,61.94,0,0,1,63.88,68.43l2.43-1.76L104,118.82ZM65,75.1c-14,11.14-21.33,26.44-21.37,44.56a57.44,57.44,0,0,0,54.25,57.42L98,120.76Z" transform="translate(-37.64 -47.54)"/><path class="cls-2" d="M158.19,138.28a58.14,58.14,0,0,1-13.78,20.84v3.17a21.52,21.52,0,0,0,.29,3.42,63.7,63.7,0,0,0,17.14-28.18A18.33,18.33,0,0,0,158.19,138.28Z" transform="translate(-37.64 -47.54)"/><path class="cls-2" d="M160.46,97.49l0,0,.1.31Z" transform="translate(-37.64 -47.54)"/><path class="cls-2" d="M119.13,174.24l-.47.16a53.58,53.58,0,0,1-14.73,2.71l.12-55.13,56.37-24.47h0L98,117.61l-.15,65.56h3.18a61,61,0,0,0,19.42-3l.66-.23A43.48,43.48,0,0,1,119.13,174.24Z" transform="translate(-37.64 -47.54)"/><path class="cls-3" d="M160.14,116.06h32.2a35.47,35.47,0,0,1,35.47,35.47v5.66a35.46,35.46,0,0,1-32.11,35.29l-9,23.07-2.14-9.37,6.85-17.74a31.2,31.2,0,0,0,28-31.22v-5a31.15,31.15,0,0,0-30.91-31.38H160.38a31.14,31.14,0,0,0-30.9,31.38v5c0,17.32,13,30.52,30,32.32,8.94,1,20.5,3.57,20.5,3.57-5.21-.11-19.79-.46-19.79-.46a35.46,35.46,0,0,1-35.46-35.46v-5.66A35.46,35.46,0,0,1,160.14,116.06Z" transform="translate(-37.64 -47.54)"/><path class="cls-1" d="M165.64,125.93h25.53a28,28,0,0,1,28.12,27.94v4.46c0,14.53-11.18,28.16-25.46,29.49l-9.4,18-1.83-17.51c-1.84,0-17-2.08-17-2.08a28,28,0,0,1-28.12-27.93v-4.46A28,28,0,0,1,165.64,125.93Z" transform="translate(-37.64 -47.54)"/><path class="cls-4" d="M155.92,145.06h44.49a2.44,2.44,0,0,0,0-4.76H155.92a2.44,2.44,0,0,0,0,4.76Z" transform="translate(-37.64 -47.54)"/><path class="cls-4" d="M155.92,158h44.49a2.44,2.44,0,0,0,0-4.76H155.92a2.44,2.44,0,0,0,0,4.76Z" transform="translate(-37.64 -47.54)"/><path class="cls-4" d="M155.92,171h44.49a2.44,2.44,0,0,0,0-4.75H155.92a2.44,2.44,0,0,0,0,4.75Z" transform="translate(-37.64 -47.54)"/></svg>