<svg id="Layer_1" data-name="Layer 1" xmlns="http://www.w3.org/2000/svg" viewBox="0 0 115.55 99.81"><defs><style>.cls-1,.cls-7{fill:#ed5b36;}.cls-2{fill:#bbbdbf;}.cls-3{fill:#213332;}.cls-4{fill:#ec5a35;}.cls-5{fill:#fff;}.cls-6{fill:#203231;}.cls-7{stroke:#213332;stroke-width:3.01px;}</style></defs><path class="cls-1" d="M76.35,57.23V43.05a95.38,95.38,0,0,0-10.83,3.88V66.72A30.8,30.8,0,0,1,76.35,57.23Z" transform="translate(-7.45 -12.68)"/><path class="cls-1" d="M93.8,53.87c.86.09,1.69.22,2.52.37V40a60.62,60.62,0,0,0-10.83,1V54.14A31.07,31.07,0,0,1,93.8,53.87Z" transform="translate(-7.45 -12.68)"/><path class="cls-2" d="M26.84,73.16v6.53H37.68V63.79A58.73,58.73,0,0,0,26.84,73.16Z" transform="translate(-7.45 -12.68)"/><path class="cls-1" d="M46.34,57.41v23H57.18V50.91A104.29,104.29,0,0,0,46.34,57.41Z" transform="translate(-7.45 -12.68)"/><path class="cls-3" d="M55.87,53.18V78.11H47.25V53.18h8.62m2.56-3H44.7V81.18H58.43Z" transform="translate(-7.45 -12.68)"/><rect class="cls-1" x="19.44" y="50.9" width="11.19" height="16.05"/><path class="cls-3" d="M36.79,65.1v13H28.18v-13h8.61m2.57-3H25.61V81.16H39.36Z" transform="translate(-7.45 -12.68)"/><path class="cls-3" d="M86.39,54V34.38H95V54c.87.13,1.73.29,2.57.48V31.33H83.81V54.47C84.66,54.28,85.52,54.12,86.39,54Z" transform="translate(-7.45 -12.68)"/><ellipse class="cls-4" cx="93.05" cy="84.58" rx="22.43" ry="23" transform="translate(-32.41 28.46) rotate(-22.06)"/><circle class="cls-5" cx="86.12" cy="72.38" r="7.27"/><path class="cls-6" d="M94,93.64a8,8,0,0,1-7.15-1.86,9.44,9.44,0,0,1,.3-14.37,8,8,0,0,1,7.22-1.56,10.44,10.44,0,0,0-5.46,3.39A8.63,8.63,0,0,0,88.64,90,10.35,10.35,0,0,0,94,93.64Z" transform="translate(-7.45 -12.68)"/><path class="cls-6" d="M71.36,68.24a27,27,0,0,0-3,4.8,1.07,1.07,0,0,0,0,.91,3,3,0,0,1,.15,2.17A2.91,2.91,0,0,1,67,77.87a1.07,1.07,0,0,0-.57.71,26.81,26.81,0,0,0-.64,4.36,1,1,0,0,0,.42.91A2.92,2.92,0,0,1,67.43,86a3,3,0,0,1-.94,2.4,1,1,0,0,0-.33,1,27,27,0,0,0,1.07,4.23,1,1,0,0,0,.84.7,3,3,0,0,1,2.18,1.57,3,3,0,0,1-.06,2.81,1,1,0,0,0,0,1.1l.42.62a23.81,23.81,0,0,0,1.82,2.37,1.05,1.05,0,0,0,1.13.32,2.95,2.95,0,0,1,3.81,3.42,1,1,0,0,0,.42,1.09,7.56,7.56,0,0,0,.66.44l.3.19.63.4.95.53h0l.78.41a1.05,1.05,0,0,0,1.22-.21,2.95,2.95,0,0,1,5,1.74,1.06,1.06,0,0,0,.83.93l.48.09c.93.17,1.9.3,2.87.38a1,1,0,0,0,1.08-.72,2.95,2.95,0,0,1,5.5-.3,1,1,0,0,0,1.15.61l.56-.11,1.09-.26.52-.14.6-.17.74-.23a1.05,1.05,0,0,0,.71-1.17,2.91,2.91,0,0,1,1.56-3.08,3,3,0,0,1,3.52.62,1,1,0,0,0,1.35.16l.3-.2.91-.65.9-.7c.16-.12.3-.24.46-.38a1.05,1.05,0,0,0,.18-1.41,2.94,2.94,0,0,1,3.84-4.27,1,1,0,0,0,1.38-.33,28.28,28.28,0,0,0,1.81-3.06,1.06,1.06,0,0,0-.45-1.41,2.92,2.92,0,0,1-1.45-3.5h0a2.93,2.93,0,0,1,3.36-2,1,1,0,0,0,1.23-.82,30.35,30.35,0,0,0,.56-4.74,1.13,1.13,0,0,0-.12-.51,1.14,1.14,0,0,0-.18-.25,1,1,0,0,0-.76-.32h-7.49a1.05,1.05,0,0,0-.75.32,1,1,0,0,0-.3.76,20.62,20.62,0,0,1-3.47,11.93l-.19.27q-.13.21-.27.39l-.5.67-.16.18c-.3.37-.59.72-.9,1l-.29.32-.17.17-.12.11-.3.31-.27.24-.63.57-.64.52a20.84,20.84,0,0,1-5.78,3.22l-.46.17-.3.1-.83.25-.24.07c-.47.12-.92.23-1.38.32l-.42.08-1,.16-1.05.11-.83,0a22.28,22.28,0,0,1-3.38-.13,23,23,0,0,1-3.34-.68,22.64,22.64,0,0,1-3.21-1.18l-.78-.38-.47-.25-.31-.17c-.19-.1-.37-.21-.57-.34l-.27-.16-.58-.37,0,0a20,20,0,0,1-2.7-2.15,19.69,19.69,0,0,1-2.36-2.56A22.45,22.45,0,0,1,70.38,84a23,23,0,0,1,3.9-13.67,23.49,23.49,0,0,1,11.44-9,22.42,22.42,0,0,1,3.59-1A21.53,21.53,0,0,1,93,60a25.84,25.84,0,0,1,3.77.15,27.42,27.42,0,0,1,3.73.76l.47-1.53a30.26,30.26,0,0,0-3.92-1,27.45,27.45,0,0,0-4-.43,25.73,25.73,0,0,0-4.11.22,25,25,0,0,0-4,.86A26.57,26.57,0,0,0,71.36,68.24Z" transform="translate(-7.45 -12.68)"/><path class="cls-3" d="M29.74,51.88S58.42,17.25,95.89,17.25l.16,2.94C58.92,20.18,29.74,51.88,29.74,51.88Z" transform="translate(-7.45 -12.68)"/><circle class="cls-7" cx="63.36" cy="10.5" r="5.59"/><circle class="cls-7" cx="84.1" cy="7.1" r="5.59"/><circle class="cls-7" cx="42.88" cy="20.88" r="5.59"/><circle class="cls-7" cx="22.79" cy="37.7" r="5.59"/><path class="cls-3" d="M66.38,65.56v-22H75V58c.84-.5,1.71-1,2.6-1.38V40.55H63.81V69.42A29.75,29.75,0,0,1,66.38,65.56Z" transform="translate(-7.45 -12.68)"/><path class="cls-3" d="M59.91,83.05H7.45s28,1.4,52.53,4A29.92,29.92,0,0,1,59.91,83.05Z" transform="translate(-7.45 -12.68)"/></svg>