<?xml version="1.0" encoding="utf-8"?>
<!-- Generator: Adobe Illustrator 25.0.1, SVG Export Plug-In . SVG Version: 6.00 Build 0)  -->
<svg version="1.1" id="Layer_1" xmlns="http://www.w3.org/2000/svg" xmlns:xlink="http://www.w3.org/1999/xlink" x="0px" y="0px"
	 viewBox="0 0 960 297.3" style="enable-background:new 0 0 960 297.3;" xml:space="preserve">
<style type="text/css">
	.st0{fill:#ED5A36;}
	.st1{fill:none;stroke:#203232;stroke-width:0.75;stroke-miterlimit:10;}
</style>
<rect x="86.5" y="56.4" class="st0" width="35" height="205.9"/>
<rect x="168.5" y="102.6" class="st0" width="35" height="159.6"/>
<rect x="250.5" y="136.8" class="st0" width="35" height="125.5"/>
<rect x="332.5" y="146.9" class="st0" width="35" height="115.4"/>
<rect x="414.5" y="159.9" class="st0" width="35" height="102.3"/>
<rect x="496.5" y="195.9" class="st0" width="35" height="66.3"/>
<rect x="578.5" y="211.2" class="st0" width="35" height="51"/>
<rect x="660.5" y="224.1" class="st0" width="35" height="38.1"/>
<rect x="742.5" y="230.9" class="st0" width="35" height="31.3"/>
<rect x="824.5" y="235.1" class="st0" width="35" height="27.1"/>
<rect x="906.5" y="241.3" class="st0" width="35" height="20.9"/>
<line class="st1" x1="63" y1="262.2" x2="965" y2="262.2"/>
<g>
	<g>
		<path d="M38.6,262.7c0,3.2-1.9,5.1-4.2,5.1c-2.3,0-4.2-1.9-4.2-5.1s1.9-5.1,4.2-5.1C36.7,257.6,38.6,259.5,38.6,262.7z
			 M32.1,262.7c0,2.1,1,3.3,2.3,3.3c1.3,0,2.3-1.1,2.3-3.3c0-2.1-1-3.3-2.3-3.3C33.1,259.4,32.1,260.5,32.1,262.7z"/>
		<path d="M48.6,256.6v1.3c1.2,0.1,2.1,0.5,2.9,1l-0.9,1.5c-0.6-0.4-1.3-0.6-2-0.8v2.2c1.7,0.3,3,1,3,2.6c0,1.7-1.4,2.7-3,2.9v1.4
			h-1.6v-1.4c-1.2-0.1-2.5-0.5-3.3-1.2l1-1.5c0.6,0.4,1.4,0.8,2.4,1v-2.3l-0.1,0c-1.7-0.3-3-1-2.9-2.7c0-1.6,1.3-2.6,3-2.8v-1.3
			H48.6z M47.1,261.6v-1.9c-0.7,0.2-1.1,0.5-1.1,1C46,261.2,46.4,261.4,47.1,261.6z M48.6,263.7v1.9c0.6-0.2,1.1-0.5,1.1-1
			C49.7,264.2,49.3,263.9,48.6,263.7z"/>
	</g>
</g>
<g>
	<g>
		<path d="M12.1,223.5c0.5-0.7,1.5-1.7,3.3-1.7c2.1,0,3.3,1.3,3.3,3.2c0,1.2-0.6,2-1.4,2.9l-2.1,2.2h3.7v1.8h-6.5v-1.5l3.5-3.6
			c0.5-0.5,0.8-1.1,0.8-1.7c0-0.9-0.6-1.5-1.5-1.5c-0.9,0-1.5,0.5-2,1.1L12.1,223.5z"/>
		<path d="M28.7,226.9c0,3.2-1.9,5.1-4.2,5.1c-2.3,0-4.2-1.9-4.2-5.1s1.9-5.1,4.2-5.1C26.8,221.8,28.7,223.7,28.7,226.9z
			 M22.3,226.9c0,2.1,1,3.3,2.3,3.3c1.3,0,2.3-1.1,2.3-3.3c0-2.1-1-3.3-2.3-3.3C23.3,223.6,22.3,224.7,22.3,226.9z"/>
		<path d="M38.6,226.9c0,3.2-1.9,5.1-4.2,5.1c-2.3,0-4.2-1.9-4.2-5.1s1.9-5.1,4.2-5.1C36.7,221.8,38.6,223.7,38.6,226.9z
			 M32.1,226.9c0,2.1,1,3.3,2.3,3.3c1.3,0,2.3-1.1,2.3-3.3c0-2.1-1-3.3-2.3-3.3C33.1,223.6,32.1,224.7,32.1,226.9z"/>
		<path d="M48.6,220.8v1.3c1.2,0.1,2.1,0.5,2.9,1l-0.9,1.5c-0.6-0.4-1.3-0.6-2-0.8v2.2c1.7,0.3,3,1,3,2.6c0,1.7-1.4,2.7-3,2.9v1.4
			h-1.6v-1.4c-1.2-0.1-2.5-0.5-3.3-1.2l1-1.5c0.6,0.4,1.4,0.8,2.4,1v-2.3l-0.1,0c-1.7-0.3-3-1-2.9-2.7c0-1.6,1.3-2.6,3-2.8v-1.3
			H48.6z M47.1,225.8v-1.9c-0.7,0.2-1.1,0.5-1.1,1C46,225.4,46.4,225.6,47.1,225.8z M48.6,227.9v1.9c0.6-0.2,1.1-0.5,1.1-1
			C49.7,228.4,49.3,228.1,48.6,227.9z"/>
	</g>
</g>
<g>
	<g>
		<path d="M17.9,193.4h1.4v1.8h-1.4v1.8H16v-1.8h-4.3v-1.4l3.4-6.6h2.1l-3.3,6.2H16v-2.6h1.9V193.4z"/>
		<path d="M28.7,192.1c0,3.2-1.9,5.1-4.2,5.1c-2.3,0-4.2-1.9-4.2-5.1s1.9-5.1,4.2-5.1C26.8,187,28.7,188.9,28.7,192.1z M22.3,192.1
			c0,2.1,1,3.3,2.3,3.3c1.3,0,2.3-1.1,2.3-3.3c0-2.1-1-3.3-2.3-3.3C23.3,188.8,22.3,189.9,22.3,192.1z"/>
		<path d="M38.6,192.1c0,3.2-1.9,5.1-4.2,5.1c-2.3,0-4.2-1.9-4.2-5.1s1.9-5.1,4.2-5.1C36.7,187,38.6,188.9,38.6,192.1z M32.1,192.1
			c0,2.1,1,3.3,2.3,3.3c1.3,0,2.3-1.1,2.3-3.3c0-2.1-1-3.3-2.3-3.3C33.1,188.8,32.1,189.9,32.1,192.1z"/>
		<path d="M48.6,186v1.3c1.2,0.1,2.1,0.5,2.9,1l-0.9,1.5c-0.6-0.4-1.3-0.6-2-0.8v2.2c1.7,0.3,3,1,3,2.6c0,1.7-1.4,2.7-3,2.9v1.4
			h-1.6v-1.4c-1.2-0.1-2.5-0.5-3.3-1.2l1-1.5c0.6,0.4,1.4,0.8,2.4,1v-2.3l-0.1,0c-1.7-0.3-3-1-2.9-2.7c0-1.6,1.3-2.6,3-2.8V186H48.6
			z M47.1,191v-1.9c-0.7,0.2-1.1,0.5-1.1,1C46,190.6,46.4,190.8,47.1,191z M48.6,193.1v1.9c0.6-0.2,1.1-0.5,1.1-1
			C49.7,193.6,49.3,193.3,48.6,193.1z"/>
	</g>
</g>
<g>
	<g>
		<path d="M15.3,156.5c0.1,0,0.3,0,0.5,0c2,0,3.4,1.4,3.4,3.3c0,1.9-1.6,3.3-3.7,3.3c-2.1,0-3.7-1.4-3.7-3.3c0-0.9,0.3-1.7,0.9-2.6
			l2.7-4.1h2.3L15.3,156.5z M13.7,159.8c0,1,0.7,1.6,1.7,1.6c1,0,1.7-0.7,1.7-1.6c0-0.9-0.7-1.6-1.7-1.6
			C14.4,158.1,13.7,158.8,13.7,159.8z"/>
		<path d="M28.7,158c0,3.2-1.9,5.1-4.2,5.1c-2.3,0-4.2-1.9-4.2-5.1s1.9-5.1,4.2-5.1C26.8,152.9,28.7,154.8,28.7,158z M22.3,158
			c0,2.1,1,3.3,2.3,3.3c1.3,0,2.3-1.1,2.3-3.3c0-2.1-1-3.3-2.3-3.3C23.3,154.7,22.3,155.9,22.3,158z"/>
		<path d="M38.6,158c0,3.2-1.9,5.1-4.2,5.1c-2.3,0-4.2-1.9-4.2-5.1s1.9-5.1,4.2-5.1C36.7,152.9,38.6,154.8,38.6,158z M32.1,158
			c0,2.1,1,3.3,2.3,3.3c1.3,0,2.3-1.1,2.3-3.3c0-2.1-1-3.3-2.3-3.3C33.1,154.7,32.1,155.9,32.1,158z"/>
		<path d="M48.6,151.9v1.3c1.2,0.1,2.1,0.5,2.9,1l-0.9,1.5c-0.6-0.4-1.3-0.6-2-0.8v2.2c1.7,0.3,3,1,3,2.6c0,1.7-1.4,2.7-3,2.9v1.4
			h-1.6v-1.4c-1.2-0.1-2.5-0.5-3.3-1.2l1-1.5c0.6,0.4,1.4,0.8,2.4,1v-2.3l-0.1,0c-1.7-0.3-3-1-2.9-2.7c0-1.6,1.3-2.6,3-2.8v-1.3
			H48.6z M47.1,156.9V155c-0.7,0.2-1.1,0.5-1.1,1C46,156.5,46.4,156.8,47.1,156.9z M48.6,159.1v1.9c0.6-0.2,1.1-0.5,1.1-1
			C49.7,159.5,49.3,159.2,48.6,159.1z"/>
	</g>
</g>
<g>
	<g>
		<path d="M18.7,120.2c0,1.1-0.7,1.8-1.5,2.2c1,0.4,1.7,1.1,1.7,2.3c0,1.8-1.7,2.8-3.8,2.8c-2.1,0-3.8-1.1-3.8-2.8
			c0-1.2,0.8-1.9,1.7-2.3c-0.8-0.4-1.5-1.1-1.5-2.2c0-1.8,1.6-2.8,3.6-2.8C17.1,117.4,18.7,118.4,18.7,120.2z M13.3,124.5
			c0,0.9,0.8,1.3,1.8,1.3c1,0,1.8-0.5,1.8-1.3c0-0.9-0.8-1.3-1.8-1.3C14.1,123.2,13.3,123.6,13.3,124.5z M13.5,120.3
			c0,0.8,0.7,1.3,1.6,1.3s1.6-0.4,1.6-1.3c0-0.8-0.7-1.3-1.6-1.3S13.5,119.5,13.5,120.3z"/>
		<path d="M28.7,122.4c0,3.2-1.9,5.1-4.2,5.1c-2.3,0-4.2-1.9-4.2-5.1s1.9-5.1,4.2-5.1C26.8,117.4,28.7,119.3,28.7,122.4z
			 M22.3,122.4c0,2.1,1,3.3,2.3,3.3c1.3,0,2.3-1.1,2.3-3.3c0-2.1-1-3.3-2.3-3.3C23.3,119.2,22.3,120.3,22.3,122.4z"/>
		<path d="M38.6,122.4c0,3.2-1.9,5.1-4.2,5.1c-2.3,0-4.2-1.9-4.2-5.1s1.9-5.1,4.2-5.1C36.7,117.4,38.6,119.3,38.6,122.4z
			 M32.1,122.4c0,2.1,1,3.3,2.3,3.3c1.3,0,2.3-1.1,2.3-3.3c0-2.1-1-3.3-2.3-3.3C33.1,119.2,32.1,120.3,32.1,122.4z"/>
		<path d="M48.6,116.4v1.3c1.2,0.1,2.1,0.5,2.9,1l-0.9,1.5c-0.6-0.4-1.3-0.6-2-0.8v2.2c1.7,0.3,3,1,3,2.6c0,1.7-1.4,2.7-3,2.9v1.4
			h-1.6v-1.4c-1.2-0.1-2.5-0.5-3.3-1.2l1-1.5c0.6,0.4,1.4,0.8,2.4,1v-2.3l-0.1,0c-1.7-0.3-3-1-2.9-2.7c0-1.6,1.3-2.6,3-2.8v-1.3
			H48.6z M47.1,121.4v-1.9c-0.7,0.2-1.1,0.5-1.1,1C46,121,46.4,121.2,47.1,121.4z M48.6,123.5v1.9c0.6-0.2,1.1-0.5,1.1-1
			C49.7,124,49.3,123.7,48.6,123.5z"/>
	</g>
</g>
<g>
	<g>
		<path d="M5.1,92.9H3.2v-7.3l-2.3,1v-1.9l4.2-1.7V92.9z"/>
		<path d="M18.9,88c0,3.2-1.9,5.1-4.2,5.1c-2.3,0-4.2-1.9-4.2-5.1s1.9-5.1,4.2-5.1C17,82.9,18.9,84.8,18.9,88z M12.4,88
			c0,2.1,1,3.3,2.3,3.3c1.3,0,2.3-1.1,2.3-3.3c0-2.1-1-3.3-2.3-3.3C13.4,84.7,12.4,85.8,12.4,88z"/>
		<path d="M28.7,88c0,3.2-1.9,5.1-4.2,5.1c-2.3,0-4.2-1.9-4.2-5.1s1.9-5.1,4.2-5.1C26.8,82.9,28.7,84.8,28.7,88z M22.3,88
			c0,2.1,1,3.3,2.3,3.3c1.3,0,2.3-1.1,2.3-3.3c0-2.1-1-3.3-2.3-3.3C23.3,84.7,22.3,85.8,22.3,88z"/>
		<path d="M38.6,88c0,3.2-1.9,5.1-4.2,5.1c-2.3,0-4.2-1.9-4.2-5.1s1.9-5.1,4.2-5.1C36.7,82.9,38.6,84.8,38.6,88z M32.1,88
			c0,2.1,1,3.3,2.3,3.3c1.3,0,2.3-1.1,2.3-3.3c0-2.1-1-3.3-2.3-3.3C33.1,84.7,32.1,85.8,32.1,88z"/>
		<path d="M48.6,81.9v1.3c1.2,0.1,2.1,0.5,2.9,1l-0.9,1.5c-0.6-0.4-1.3-0.6-2-0.8v2.2c1.7,0.3,3,1,3,2.6c0,1.7-1.4,2.7-3,2.9v1.4
			h-1.6v-1.4c-1.2-0.1-2.5-0.5-3.3-1.2l1-1.5c0.6,0.4,1.4,0.8,2.4,1v-2.3l-0.1,0c-1.7-0.3-3-1-2.9-2.7c0-1.6,1.3-2.6,3-2.8v-1.3
			H48.6z M47.1,86.9V85c-0.7,0.2-1.1,0.5-1.1,1C46,86.5,46.4,86.7,47.1,86.9z M48.6,89.1V91c0.6-0.2,1.1-0.5,1.1-1
			C49.7,89.5,49.3,89.2,48.6,89.1z"/>
	</g>
</g>
<g>
	<path d="M7.1,57.7H5.2v-7.3l-2.3,1v-1.9l4.2-1.7V57.7z"/>
	<path d="M12.1,49.5c0.5-0.7,1.5-1.7,3.3-1.7c2.1,0,3.3,1.3,3.3,3.2c0,1.2-0.6,2-1.4,2.9L15.3,56h3.7v1.8h-6.5v-1.5l3.5-3.6
		c0.5-0.5,0.8-1.1,0.8-1.7c0-0.9-0.6-1.5-1.5-1.5c-0.9,0-1.5,0.5-2,1.1L12.1,49.5z"/>
	<path d="M28.7,52.8c0,3.2-1.9,5.1-4.2,5.1c-2.3,0-4.2-1.9-4.2-5.1s1.9-5.1,4.2-5.1C26.8,47.8,28.7,49.7,28.7,52.8z M22.3,52.8
		c0,2.1,1,3.3,2.3,3.3c1.3,0,2.3-1.1,2.3-3.3c0-2.1-1-3.3-2.3-3.3C23.3,49.6,22.3,50.7,22.3,52.8z"/>
	<path d="M38.6,52.8c0,3.2-1.9,5.1-4.2,5.1c-2.3,0-4.2-1.9-4.2-5.1s1.9-5.1,4.2-5.1C36.7,47.8,38.6,49.7,38.6,52.8z M32.1,52.8
		c0,2.1,1,3.3,2.3,3.3c1.3,0,2.3-1.1,2.3-3.3c0-2.1-1-3.3-2.3-3.3C33.1,49.6,32.1,50.7,32.1,52.8z"/>
	<path d="M48.6,46.8v1.3c1.2,0.1,2.1,0.5,2.9,1l-0.9,1.5c-0.6-0.4-1.3-0.6-2-0.8V52c1.7,0.3,3,1,3,2.6c0,1.7-1.4,2.7-3,2.9V59h-1.6
		v-1.4c-1.2-0.1-2.5-0.5-3.3-1.2l1-1.5c0.6,0.4,1.4,0.8,2.4,1v-2.3l-0.1,0c-1.7-0.3-3-1-2.9-2.7c0-1.6,1.3-2.6,3-2.8v-1.3H48.6z
		 M47.1,51.8v-1.9c-0.7,0.2-1.1,0.5-1.1,1C46,51.3,46.4,51.6,47.1,51.8z M48.6,53.9v1.9c0.6-0.2,1.1-0.5,1.1-1
		C49.7,54.4,49.3,54.1,48.6,53.9z"/>
</g>
<g>
	<path d="M80.9,43.4h-2.4V34l-3,1.2v-2.4l5.4-2.2V43.4z"/>
	<path d="M92.7,43.4h-2.4V34l-3,1.2v-2.4l5.4-2.2V43.4z"/>
	<path d="M104.5,34.1c0,1.4-0.8,2.3-1.9,2.9c1.2,0.5,2.2,1.4,2.2,2.9c0,2.3-2.2,3.7-4.9,3.7S95,42.2,95,39.9c0-1.5,1-2.4,2.2-2.9
		c-1.1-0.5-1.9-1.4-1.9-2.9c0-2.3,2.1-3.6,4.6-3.6S104.5,31.9,104.5,34.1z M97.6,39.7c0,1.1,1,1.7,2.3,1.7c1.3,0,2.3-0.6,2.3-1.7
		c0-1.1-1.1-1.7-2.3-1.7C98.6,38,97.6,38.6,97.6,39.7z M97.9,34.3c0,1.1,0.9,1.7,2,1.7c1.1,0,2-0.6,2-1.7c0-1-0.9-1.6-2-1.6
		C98.8,32.7,97.9,33.3,97.9,34.3z"/>
	<path d="M114.8,34.1c0,1.3-0.7,2.3-1.9,2.9c1.3,0.5,2.2,1.5,2.2,2.9c0,2.5-2.3,3.7-4.6,3.7c-1.9,0-3.4-0.7-4.4-1.8l1.4-1.6
		c0.7,0.8,1.8,1.2,2.9,1.2c1.2,0,2.2-0.5,2.2-1.6c0-1.1-1.1-1.6-2.5-1.6h-1.5v-2.2h1.5c1.2,0,2.2-0.5,2.2-1.6c0-1-0.9-1.6-2.1-1.6
		s-2,0.6-2.5,1.3l-1.5-1.5c0.8-1.1,2.2-2,4.2-2C113,30.5,114.8,32,114.8,34.1z"/>
	<path d="M127.8,29.3v1.7c1.5,0.1,2.7,0.6,3.8,1.3l-1.1,1.9c-0.7-0.5-1.6-0.8-2.6-1V36c2.2,0.3,3.9,1.3,3.9,3.4
		c-0.1,2.2-1.8,3.4-3.9,3.7v1.8h-2v-1.7c-1.6-0.1-3.2-0.6-4.3-1.5l1.2-1.9c0.7,0.5,1.8,1.1,3.1,1.2v-2.9l-0.1,0
		c-2.2-0.4-3.8-1.3-3.8-3.4c0-2,1.6-3.3,3.9-3.7v-1.7H127.8z M125.8,35.7v-2.5c-0.8,0.2-1.4,0.6-1.4,1.3
		C124.4,35.1,124.9,35.5,125.8,35.7z M127.8,38.4v2.5c0.8-0.2,1.4-0.6,1.4-1.3C129.2,39,128.7,38.7,127.8,38.4z"/>
</g>
<g>
	<g>
		<path d="M171.1,85.3c-0.2,0-0.4,0-0.6,0c-2.6,0-4.4-1.8-4.4-4.2c0-2.5,2-4.3,4.7-4.3c2.7,0,4.7,1.8,4.7,4.2c0,1.2-0.4,2.2-1.2,3.3
			l-3.5,5.2H168L171.1,85.3z M173.1,81.1c0-1.2-0.9-2.1-2.2-2.1c-1.3,0-2.2,0.8-2.2,2.1c0,1.2,0.9,2.1,2.2,2.1
			C172.2,83.2,173.1,82.3,173.1,81.1z"/>
		<path d="M182.4,89.6h-2.4v-9.4l-3,1.2V79l5.4-2.2V89.6z"/>
		<path d="M193.3,78.9l-5.2,10.7h-2.9l5.2-10.3h-6V77h8.9V78.9z"/>
		<path d="M205.7,75.6v1.7c1.5,0.1,2.7,0.6,3.8,1.3l-1.1,1.9c-0.7-0.5-1.6-0.8-2.6-1v2.9c2.2,0.3,3.9,1.3,3.9,3.4
			c-0.1,2.2-1.8,3.4-3.9,3.7v1.8h-2v-1.7c-1.6-0.1-3.2-0.6-4.3-1.5l1.2-1.9c0.7,0.5,1.8,1.1,3.1,1.2v-2.9l-0.1,0
			c-2.2-0.4-3.8-1.3-3.8-3.4c0-2,1.6-3.3,3.9-3.7v-1.7H205.7z M203.7,82v-2.5c-0.8,0.2-1.4,0.6-1.4,1.3
			C202.3,81.4,202.8,81.8,203.7,82z M205.7,84.7v2.5c0.8-0.2,1.4-0.6,1.4-1.3C207.1,85.3,206.6,85,205.7,84.7z"/>
	</g>
</g>
<g>
	<g>
		<path d="M255.2,113.1l-5.2,10.7h-2.9l5.2-10.3h-6v-2.3h8.9V113.1z"/>
		<path d="M256.2,113.1c0.7-0.9,2-2.2,4.3-2.2c2.6,0,4.3,1.7,4.3,4.1c0,1.5-0.8,2.6-1.8,3.7l-2.7,2.8h4.8v2.3h-8.3v-1.9l4.5-4.6
			c0.7-0.7,1-1.4,1-2.2c0-1.1-0.8-1.9-1.9-1.9c-1.2,0-1.9,0.6-2.6,1.4L256.2,113.1z"/>
		<path d="M271.7,123.8h-2.4v-9.4l-3,1.2v-2.4l5.4-2.2V123.8z"/>
		<path d="M285.1,109.7v1.7c1.5,0.1,2.7,0.6,3.8,1.3l-1.1,1.9c-0.7-0.5-1.6-0.8-2.6-1v2.9c2.2,0.3,3.9,1.3,3.9,3.4
			c-0.1,2.2-1.8,3.4-3.9,3.7v1.8h-2v-1.7c-1.6-0.1-3.2-0.6-4.3-1.5l1.2-1.9c0.7,0.5,1.8,1.1,3.1,1.2v-2.9l-0.1,0
			c-2.2-0.4-3.8-1.3-3.8-3.4c0-2,1.6-3.3,3.9-3.7v-1.7H285.1z M283.1,116.1v-2.5c-0.8,0.2-1.4,0.6-1.4,1.3
			C281.7,115.5,282.2,115.9,283.1,116.1z M285.1,118.8v2.5c0.8-0.2,1.4-0.6,1.4-1.3C286.5,119.4,286,119.1,285.1,118.8z"/>
	</g>
</g>
<g>
	<g>
		<path d="M330.8,125.6c0.2,0,0.4,0,0.6,0c2.6,0,4.4,1.8,4.4,4.2c0,2.5-2,4.3-4.7,4.3c-2.7,0-4.7-1.8-4.7-4.2c0-1.2,0.4-2.2,1.2-3.3
			l3.5-5.2h2.9L330.8,125.6z M328.8,129.8c0,1.2,0.9,2.1,2.2,2.1c1.3,0,2.2-0.8,2.2-2.1c0-1.2-0.9-2.1-2.2-2.1
			C329.7,127.7,328.8,128.6,328.8,129.8z"/>
		<path d="M341.4,125.6c0.2,0,0.4,0,0.6,0c2.6,0,4.4,1.8,4.4,4.2c0,2.5-2,4.3-4.7,4.3c-2.7,0-4.7-1.8-4.7-4.2c0-1.2,0.4-2.2,1.2-3.3
			l3.5-5.2h2.9L341.4,125.6z M339.4,129.8c0,1.2,0.9,2.1,2.2,2.1c1.3,0,2.2-0.8,2.2-2.1c0-1.2-0.9-2.1-2.2-2.1
			C340.3,127.7,339.4,128.6,339.4,129.8z"/>
		<path d="M356.1,124.6c0,1.3-0.7,2.3-1.9,2.9c1.3,0.5,2.2,1.5,2.2,2.9c0,2.5-2.3,3.7-4.6,3.7c-1.9,0-3.4-0.7-4.4-1.8l1.4-1.6
			c0.7,0.8,1.8,1.2,2.9,1.2c1.2,0,2.2-0.5,2.2-1.6c0-1.1-1.1-1.6-2.5-1.6H350v-2.2h1.5c1.2,0,2.2-0.5,2.2-1.6c0-1-0.9-1.6-2.1-1.6
			s-2,0.6-2.5,1.3l-1.5-1.5c0.8-1.1,2.2-2,4.2-2C354.3,121,356.1,122.5,356.1,124.6z"/>
		<path d="M369.1,119.8v1.7c1.5,0.1,2.7,0.6,3.8,1.3l-1.1,1.9c-0.7-0.5-1.6-0.8-2.6-1v2.9c2.2,0.3,3.9,1.3,3.9,3.4
			c-0.1,2.2-1.8,3.4-3.9,3.7v1.8h-2v-1.7c-1.6-0.1-3.2-0.6-4.3-1.5l1.2-1.9c0.7,0.5,1.8,1.1,3.1,1.2v-2.9l-0.1,0
			c-2.2-0.4-3.8-1.3-3.8-3.4c0-2,1.6-3.3,3.9-3.7v-1.7H369.1z M367.1,126.2v-2.5c-0.8,0.2-1.4,0.6-1.4,1.3
			C365.8,125.6,366.3,126,367.1,126.2z M369.1,128.9v2.5c0.8-0.2,1.4-0.6,1.4-1.3C370.5,129.5,370,129.2,369.1,128.9z"/>
	</g>
</g>
<g>
	<g>
		<path d="M415.7,136h-5.1l-0.1,2.5h1.4c2.9,0,4.4,1.7,4.4,3.8c0,2.7-2.1,4.3-4.6,4.3c-1.9,0-3.4-0.7-4.5-1.9l1.4-1.7
			c0.7,0.7,1.9,1.3,3.1,1.3c1.4,0,2.1-0.8,2.1-1.8c0-0.9-0.6-1.8-2.6-1.8h-3l0.1-7h7.2V136z"/>
		<path d="M427.6,137.1c0,1.4-0.8,2.3-1.9,2.9c1.2,0.5,2.2,1.4,2.2,2.9c0,2.3-2.2,3.7-4.9,3.7c-2.7,0-4.9-1.4-4.9-3.7
			c0-1.5,1-2.4,2.2-2.9c-1.1-0.5-1.9-1.4-1.9-2.9c0-2.3,2.1-3.6,4.6-3.6S427.6,134.8,427.6,137.1z M420.7,142.7c0,1.1,1,1.7,2.3,1.7
			c1.3,0,2.3-0.6,2.3-1.7c0-1.1-1.1-1.7-2.3-1.7C421.7,140.9,420.7,141.5,420.7,142.7z M421,137.3c0,1.1,0.9,1.7,2,1.7s2-0.6,2-1.7
			c0-1-0.9-1.6-2-1.6S421,136.2,421,137.3z"/>
		<path d="M439,137.1c0,1.4-0.8,2.3-1.9,2.9c1.2,0.5,2.2,1.4,2.2,2.9c0,2.3-2.2,3.7-4.9,3.7c-2.7,0-4.9-1.4-4.9-3.7
			c0-1.5,1-2.4,2.2-2.9c-1.1-0.5-1.9-1.4-1.9-2.9c0-2.3,2.1-3.6,4.6-3.6S439,134.8,439,137.1z M432.1,142.7c0,1.1,1,1.7,2.3,1.7
			c1.3,0,2.3-0.6,2.3-1.7c0-1.1-1.1-1.7-2.3-1.7C433.1,140.9,432.1,141.5,432.1,142.7z M432.4,137.3c0,1.1,0.9,1.7,2,1.7
			s2-0.6,2-1.7c0-1-0.9-1.6-2-1.6S432.4,136.2,432.4,137.3z"/>
		<path d="M452,132.2v1.7c1.5,0.1,2.7,0.6,3.8,1.3l-1.1,1.9c-0.7-0.5-1.6-0.8-2.6-1v2.9c2.2,0.3,3.9,1.3,3.9,3.4
			c-0.1,2.2-1.8,3.4-3.9,3.7v1.8h-2v-1.7c-1.6-0.1-3.2-0.6-4.3-1.5l1.2-1.9c0.7,0.5,1.8,1.1,3.1,1.2V141l-0.1,0
			c-2.2-0.4-3.8-1.3-3.8-3.4c0-2,1.6-3.3,3.9-3.7v-1.7H452z M450,138.6v-2.5c-0.8,0.2-1.4,0.6-1.4,1.3
			C448.7,138.1,449.2,138.4,450,138.6z M452,141.4v2.5c0.8-0.2,1.4-0.6,1.4-1.3C453.4,141.9,452.9,141.6,452,141.4z"/>
	</g>
</g>
<g>
	<g>
		<path d="M500.1,173.7c0,1.3-0.7,2.3-1.9,2.9c1.3,0.5,2.2,1.5,2.2,2.9c0,2.5-2.3,3.7-4.6,3.7c-1.9,0-3.4-0.7-4.4-1.8l1.4-1.6
			c0.7,0.8,1.8,1.2,2.9,1.2c1.2,0,2.2-0.5,2.2-1.6c0-1.1-1.1-1.6-2.5-1.6h-1.5v-2.2h1.5c1.2,0,2.2-0.5,2.2-1.6c0-1-0.9-1.6-2.1-1.6
			c-1.2,0-2,0.6-2.5,1.3l-1.5-1.5c0.8-1.1,2.2-2,4.2-2C498.3,170.1,500.1,171.5,500.1,173.7z"/>
		<path d="M511.5,173.7c0,1.4-0.8,2.3-1.9,2.9c1.2,0.5,2.2,1.4,2.2,2.9c0,2.3-2.2,3.7-4.9,3.7c-2.7,0-4.9-1.4-4.9-3.7
			c0-1.5,1-2.4,2.2-2.9c-1.1-0.5-1.9-1.4-1.9-2.9c0-2.3,2.1-3.6,4.6-3.6S511.5,171.4,511.5,173.7z M504.6,179.3c0,1.1,1,1.7,2.3,1.7
			c1.3,0,2.3-0.6,2.3-1.7c0-1.1-1.1-1.7-2.3-1.7C505.6,177.6,504.6,178.2,504.6,179.3z M504.9,173.9c0,1.1,0.9,1.7,2,1.7
			c1.1,0,2-0.6,2-1.7c0-1-0.9-1.6-2-1.6C505.8,172.3,504.9,172.9,504.9,173.9z"/>
		<path d="M518.5,182.9h-2.4v-9.4l-3,1.2v-2.4l5.4-2.2V182.9z"/>
		<path d="M531.9,168.8v1.7c1.5,0.1,2.7,0.6,3.8,1.3l-1.1,1.9c-0.7-0.5-1.6-0.8-2.6-1v2.9c2.2,0.3,3.9,1.3,3.9,3.4
			c-0.1,2.2-1.8,3.4-3.9,3.7v1.8h-2v-1.7c-1.6-0.1-3.2-0.6-4.3-1.5l1.2-1.9c0.7,0.5,1.8,1.1,3.1,1.2v-2.9l-0.1,0
			c-2.2-0.4-3.8-1.3-3.8-3.4c0-2,1.6-3.3,3.9-3.7v-1.7H531.9z M529.9,175.3v-2.5c-0.8,0.2-1.4,0.6-1.4,1.3
			C528.5,174.7,529,175,529.9,175.3z M531.9,178v2.5c0.8-0.2,1.4-0.6,1.4-1.3C533.3,178.6,532.8,178.2,531.9,178z"/>
	</g>
</g>
<g>
	<g>
		<path d="M572.5,187.4c0.7-0.9,2-2.2,4.3-2.2c2.6,0,4.3,1.7,4.3,4.1c0,1.5-0.8,2.6-1.8,3.7l-2.7,2.8h4.8v2.3h-8.3v-1.9l4.5-4.6
			c0.7-0.7,1-1.4,1-2.2c0-1.1-0.8-1.9-1.9-1.9c-1.2,0-1.9,0.6-2.6,1.4L572.5,187.4z"/>
		<path d="M587.6,193.7c-0.2,0-0.4,0-0.6,0c-2.6,0-4.4-1.8-4.4-4.2c0-2.5,2-4.3,4.7-4.3c2.7,0,4.7,1.8,4.7,4.2
			c0,1.2-0.4,2.2-1.2,3.3l-3.5,5.2h-2.9L587.6,193.7z M589.6,189.5c0-1.2-0.9-2.1-2.2-2.1c-1.3,0-2.2,0.8-2.2,2.1
			c0,1.2,0.9,2.1,2.2,2.1C588.7,191.6,589.6,190.7,589.6,189.5z"/>
		<path d="M601.9,188.9c0,1.3-0.7,2.3-1.9,2.9c1.3,0.5,2.2,1.5,2.2,2.9c0,2.5-2.3,3.7-4.6,3.7c-1.9,0-3.4-0.7-4.4-1.8l1.4-1.6
			c0.7,0.8,1.8,1.2,2.9,1.2c1.2,0,2.2-0.5,2.2-1.6c0-1.1-1.1-1.6-2.5-1.6h-1.5v-2.2h1.5c1.2,0,2.2-0.5,2.2-1.6c0-1-0.9-1.6-2.1-1.6
			c-1.2,0-2,0.6-2.5,1.3l-1.5-1.5c0.8-1.1,2.2-2,4.2-2C600.1,185.2,601.9,186.7,601.9,188.9z"/>
		<path d="M614.9,184v1.7c1.5,0.1,2.7,0.6,3.8,1.3l-1.1,1.9c-0.7-0.5-1.6-0.8-2.6-1v2.9c2.2,0.3,3.9,1.3,3.9,3.4
			c-0.1,2.2-1.8,3.4-3.9,3.7v1.8h-2v-1.7c-1.6-0.1-3.2-0.6-4.3-1.5l1.2-1.9c0.7,0.5,1.8,1.1,3.1,1.2v-2.9l-0.1,0
			c-2.2-0.4-3.8-1.3-3.8-3.4c0-2,1.6-3.3,3.9-3.7V184H614.9z M612.9,190.4v-2.5c-0.8,0.2-1.4,0.6-1.4,1.3
			C611.5,189.8,612,190.2,612.9,190.4z M614.9,193.1v2.5c0.8-0.2,1.4-0.6,1.4-1.3C616.3,193.7,615.8,193.4,614.9,193.1z"/>
	</g>
</g>
<g>
	<g>
		<path d="M656,200.5c0.7-0.9,2-2.2,4.3-2.2c2.6,0,4.3,1.7,4.3,4.1c0,1.5-0.8,2.6-1.8,3.7l-2.7,2.8h4.8v2.3h-8.3v-1.9l4.5-4.6
			c0.7-0.7,1-1.4,1-2.2c0-1.1-0.8-1.9-1.9-1.9c-1.2,0-1.9,0.6-2.6,1.4L656,200.5z"/>
		<path d="M671.4,211.1H669v-9.4l-3,1.2v-2.4l5.4-2.2V211.1z"/>
		<path d="M678.5,206.7c-0.2,0-0.4,0-0.6,0c-2.6,0-4.4-1.8-4.4-4.2c0-2.5,2-4.3,4.7-4.3c2.7,0,4.7,1.8,4.7,4.2
			c0,1.2-0.4,2.2-1.2,3.3l-3.5,5.2h-2.9L678.5,206.7z M680.5,202.6c0-1.2-0.9-2.1-2.2-2.1c-1.3,0-2.2,0.8-2.2,2.1
			c0,1.2,0.9,2.1,2.2,2.1C679.5,204.6,680.5,203.8,680.5,202.6z"/>
		<path d="M695.5,197v1.7c1.5,0.1,2.7,0.6,3.8,1.3l-1.1,1.9c-0.7-0.5-1.6-0.8-2.6-1v2.9c2.2,0.3,3.9,1.3,3.9,3.4
			c-0.1,2.2-1.8,3.4-3.9,3.7v1.8h-2v-1.7c-1.6-0.1-3.2-0.6-4.3-1.5l1.2-1.9c0.7,0.5,1.8,1.1,3.1,1.2v-2.9l-0.1,0
			c-2.2-0.4-3.8-1.3-3.8-3.4c0-2,1.6-3.3,3.9-3.7V197H695.5z M693.5,203.4V201c-0.8,0.2-1.4,0.6-1.4,1.3
			C692.1,202.9,692.6,203.2,693.5,203.4z M695.5,206.2v2.5c0.8-0.2,1.4-0.6,1.4-1.3C696.9,206.8,696.4,206.4,695.5,206.2z"/>
	</g>
</g>
<g>
	<g>
		<path d="M743.8,217.9h-2.4v-9.4l-3,1.2v-2.4l5.4-2.2V217.9z"/>
		<path d="M755.7,208.7c0,1.4-0.8,2.3-1.9,2.9c1.2,0.5,2.2,1.4,2.2,2.9c0,2.3-2.2,3.7-4.9,3.7s-4.9-1.4-4.9-3.7c0-1.5,1-2.4,2.2-2.9
			c-1.1-0.5-1.9-1.4-1.9-2.9c0-2.3,2.1-3.6,4.6-3.6S755.7,206.4,755.7,208.7z M748.7,214.3c0,1.1,1,1.7,2.3,1.7
			c1.3,0,2.3-0.6,2.3-1.7c0-1.1-1.1-1.7-2.3-1.7C749.8,212.5,748.7,213.1,748.7,214.3z M749,208.9c0,1.1,0.9,1.7,2,1.7s2-0.6,2-1.7
			c0-1-0.9-1.6-2-1.6S749,207.8,749,208.9z"/>
		<path d="M768.5,211.6c0,4.1-2.4,6.5-5.4,6.5c-3,0-5.4-2.4-5.4-6.5s2.4-6.5,5.4-6.5C766.1,205.1,768.5,207.5,768.5,211.6z
			 M760.2,211.6c0,2.8,1.3,4.2,2.9,4.2c1.6,0,2.9-1.4,2.9-4.2s-1.3-4.2-2.9-4.2C761.5,207.4,760.2,208.8,760.2,211.6z"/>
		<path d="M781.4,203.8v1.7c1.5,0.1,2.7,0.6,3.8,1.3l-1.1,1.9c-0.7-0.5-1.6-0.8-2.6-1v2.9c2.2,0.3,3.9,1.3,3.9,3.4
			c-0.1,2.2-1.8,3.4-3.9,3.7v1.8h-2v-1.7c-1.6-0.1-3.2-0.6-4.3-1.5l1.2-1.9c0.7,0.5,1.8,1.1,3.1,1.2v-2.9l-0.1,0
			c-2.2-0.4-3.8-1.3-3.8-3.4c0-2,1.6-3.3,3.9-3.7v-1.7H781.4z M779.4,210.2v-2.5c-0.8,0.2-1.4,0.6-1.4,1.3
			C778,209.7,778.5,210,779.4,210.2z M781.4,213v2.5c0.8-0.2,1.4-0.6,1.4-1.3C782.8,213.6,782.3,213.2,781.4,213z"/>
	</g>
</g>
<g>
	<g>
		<path d="M825.1,222.1h-2.4v-9.4l-3,1.2v-2.4l5.4-2.2V222.1z"/>
		<path d="M835.6,211.7h-5.1l-0.1,2.5h1.5c2.9,0,4.4,1.7,4.4,3.8c0,2.7-2.1,4.3-4.6,4.3c-1.9,0-3.4-0.7-4.5-1.9l1.4-1.7
			c0.7,0.7,1.9,1.3,3.1,1.3c1.4,0,2.1-0.8,2.1-1.8c0-0.9-0.6-1.8-2.6-1.8h-3l0.1-7h7.2V211.7z"/>
		<path d="M842.2,213.9c0.2,0,0.4,0,0.6,0c2.6,0,4.4,1.8,4.4,4.2c0,2.5-2,4.3-4.7,4.3c-2.7,0-4.7-1.8-4.7-4.2c0-1.2,0.4-2.2,1.2-3.3
			l3.5-5.2h2.9L842.2,213.9z M840.2,218c0,1.2,0.9,2.1,2.2,2.1c1.3,0,2.2-0.8,2.2-2.1c0-1.2-0.9-2.1-2.2-2.1
			C841.1,216,840.2,216.8,840.2,218z"/>
		<path d="M859.6,208v1.7c1.5,0.1,2.7,0.6,3.8,1.3l-1.1,1.9c-0.7-0.5-1.6-0.8-2.6-1v2.9c2.2,0.3,3.9,1.3,3.9,3.4
			c-0.1,2.2-1.8,3.4-3.9,3.7v1.8h-2v-1.7c-1.6-0.1-3.2-0.6-4.3-1.5l1.2-1.9c0.7,0.5,1.8,1.1,3.1,1.2v-2.9l-0.1,0
			c-2.2-0.4-3.8-1.3-3.8-3.4c0-2,1.6-3.3,3.9-3.7V208H859.6z M857.6,214.4v-2.5c-0.8,0.2-1.4,0.6-1.4,1.3
			C856.3,213.9,856.8,214.2,857.6,214.4z M859.6,217.1v2.5c0.8-0.2,1.4-0.6,1.4-1.3C861,217.7,860.6,217.4,859.6,217.1z"/>
	</g>
</g>
<g>
	<g>
		<path d="M906.3,229.3h-2.4v-9.4l-3,1.2v-2.4l5.4-2.2V229.3z"/>
		<path d="M908.3,218.6c0.7-0.9,2-2.2,4.3-2.2c2.6,0,4.3,1.7,4.3,4.1c0,1.5-0.8,2.6-1.8,3.7l-2.7,2.8h4.8v2.3h-8.3v-1.9l4.5-4.6
			c0.7-0.7,1-1.4,1-2.2c0-1.1-0.8-1.9-1.9-1.9c-1.2,0-1.9,0.6-2.6,1.4L908.3,218.6z"/>
		<path d="M929.7,223c0,4.1-2.4,6.5-5.4,6.5c-3,0-5.4-2.4-5.4-6.5s2.4-6.5,5.4-6.5C927.2,216.5,929.7,218.9,929.7,223z M921.3,223
			c0,2.8,1.3,4.2,2.9,4.2c1.6,0,2.9-1.4,2.9-4.2s-1.3-4.2-2.9-4.2C922.6,218.8,921.3,220.2,921.3,223z"/>
		<path d="M942.5,215.2v1.7c1.5,0.1,2.7,0.6,3.8,1.3l-1.1,1.9c-0.7-0.5-1.6-0.8-2.6-1v2.9c2.2,0.3,3.9,1.3,3.9,3.4
			c-0.1,2.2-1.8,3.4-3.9,3.7v1.8h-2v-1.7c-1.6-0.1-3.2-0.6-4.3-1.5l1.2-1.9c0.7,0.5,1.8,1.1,3.1,1.2V224l-0.1,0
			c-2.2-0.4-3.8-1.3-3.8-3.4c0-2,1.6-3.3,3.9-3.7v-1.7H942.5z M940.5,221.6v-2.5c-0.8,0.2-1.4,0.6-1.4,1.3
			C939.1,221.1,939.6,221.4,940.5,221.6z M942.5,224.4v2.5c0.8-0.2,1.4-0.6,1.4-1.3C943.9,224.9,943.4,224.6,942.5,224.4z"/>
	</g>
</g>
<line class="st1" x1="63" y1="262.2" x2="63" y2="53.4"/>
<g>
	<g>
		<line class="st1" x1="57.3" y1="262.2" x2="63" y2="262.2"/>
		<line class="st1" x1="57.3" y1="227.4" x2="63" y2="227.4"/>
		<line class="st1" x1="57.3" y1="192.6" x2="63" y2="192.6"/>
		<line class="st1" x1="57.3" y1="157.8" x2="63" y2="157.8"/>
		<line class="st1" x1="57.3" y1="123" x2="63" y2="123"/>
		<line class="st1" x1="57.3" y1="88.2" x2="63" y2="88.2"/>
		<line class="st1" x1="57.3" y1="53.4" x2="63" y2="53.4"/>
	</g>
</g>
<g>
	<g>
		<path d="M87.7,274.3c0.5-0.7,1.5-1.7,3.3-1.7c2.1,0,3.3,1.3,3.3,3.2c0,1.2-0.6,2-1.4,2.9l-2.1,2.2h3.7v1.8h-6.5v-1.5l3.5-3.6
			c0.5-0.5,0.8-1.1,0.8-1.7c0-0.9-0.6-1.5-1.5-1.5c-0.9,0-1.5,0.5-2,1.1L87.7,274.3z"/>
		<path d="M104.3,277.7c0,3.2-1.9,5.1-4.2,5.1c-2.3,0-4.2-1.9-4.2-5.1c0-3.2,1.9-5.1,4.2-5.1C102.4,272.6,104.3,274.6,104.3,277.7z
			 M97.8,277.7c0,2.1,1,3.3,2.3,3.3c1.3,0,2.3-1.1,2.3-3.3c0-2.1-1-3.3-2.3-3.3C98.8,274.5,97.8,275.6,97.8,277.7z"/>
		<path d="M109.6,282.6h-1.9v-7.3l-2.3,1v-1.9l4.2-1.7V282.6z"/>
		<path d="M120,277.7c0,3.2-1.9,5.1-4.2,5.1c-2.3,0-4.2-1.9-4.2-5.1c0-3.2,1.9-5.1,4.2-5.1C118.1,272.6,120,274.6,120,277.7z
			 M113.5,277.7c0,2.1,1,3.3,2.3,3.3c1.3,0,2.3-1.1,2.3-3.3c0-2.1-1-3.3-2.3-3.3C114.5,274.5,113.5,275.6,113.5,277.7z"/>
	</g>
</g>
<g>
	<g>
		<path d="M171.8,274.3c0.5-0.7,1.5-1.7,3.3-1.7c2.1,0,3.3,1.3,3.3,3.2c0,1.2-0.6,2-1.4,2.9l-2.1,2.2h3.7v1.8h-6.5v-1.5l3.5-3.6
			c0.5-0.5,0.8-1.1,0.8-1.7c0-0.9-0.6-1.5-1.5-1.5c-0.9,0-1.5,0.5-2,1.1L171.8,274.3z"/>
		<path d="M188.4,277.7c0,3.2-1.9,5.1-4.2,5.1c-2.3,0-4.2-1.9-4.2-5.1c0-3.2,1.9-5.1,4.2-5.1C186.5,272.6,188.4,274.6,188.4,277.7z
			 M181.9,277.7c0,2.1,1,3.3,2.3,3.3c1.3,0,2.3-1.1,2.3-3.3c0-2.1-1-3.3-2.3-3.3C182.9,274.5,181.9,275.6,181.9,277.7z"/>
		<path d="M193.7,282.6h-1.9v-7.3l-2.3,1v-1.9l4.2-1.7V282.6z"/>
		<path d="M199.5,282.6h-1.9v-7.3l-2.3,1v-1.9l4.2-1.7V282.6z"/>
	</g>
</g>
<g>
	<g>
		<path d="M252.7,274.3c0.5-0.7,1.5-1.7,3.3-1.7c2.1,0,3.3,1.3,3.3,3.2c0,1.2-0.6,2-1.4,2.9l-2.1,2.2h3.7v1.8h-6.5v-1.5l3.5-3.6
			c0.5-0.5,0.8-1.1,0.8-1.7c0-0.9-0.6-1.5-1.5-1.5c-0.9,0-1.5,0.5-2,1.1L252.7,274.3z"/>
		<path d="M269.3,277.7c0,3.2-1.9,5.1-4.2,5.1c-2.3,0-4.2-1.9-4.2-5.1c0-3.2,1.9-5.1,4.2-5.1C267.4,272.6,269.3,274.6,269.3,277.7z
			 M262.8,277.7c0,2.1,1,3.3,2.3,3.3c1.3,0,2.3-1.1,2.3-3.3c0-2.1-1-3.3-2.3-3.3C263.8,274.5,262.8,275.6,262.8,277.7z"/>
		<path d="M274.6,282.6h-1.9v-7.3l-2.3,1v-1.9l4.2-1.7V282.6z"/>
		<path d="M276.3,274.3c0.5-0.7,1.5-1.7,3.3-1.7c2.1,0,3.3,1.3,3.3,3.2c0,1.2-0.6,2-1.4,2.9l-2.1,2.2h3.7v1.8h-6.5v-1.5l3.5-3.6
			c0.5-0.5,0.8-1.1,0.8-1.7c0-0.9-0.6-1.5-1.5-1.5c-0.9,0-1.5,0.5-2,1.1L276.3,274.3z"/>
	</g>
</g>
<g>
	<g>
		<path d="M334.7,274.3c0.5-0.7,1.5-1.7,3.3-1.7c2.1,0,3.3,1.3,3.3,3.2c0,1.2-0.6,2-1.4,2.9l-2.1,2.2h3.7v1.8h-6.5v-1.5l3.5-3.6
			c0.5-0.5,0.8-1.1,0.8-1.7c0-0.9-0.6-1.5-1.5-1.5c-0.9,0-1.5,0.5-2,1.1L334.7,274.3z"/>
		<path d="M351.3,277.7c0,3.2-1.9,5.1-4.2,5.1c-2.3,0-4.2-1.9-4.2-5.1c0-3.2,1.9-5.1,4.2-5.1C349.4,272.6,351.3,274.6,351.3,277.7z
			 M344.8,277.7c0,2.1,1,3.3,2.3,3.3c1.3,0,2.3-1.1,2.3-3.3c0-2.1-1-3.3-2.3-3.3C345.8,274.5,344.8,275.6,344.8,277.7z"/>
		<path d="M356.6,282.6h-1.9v-7.3l-2.3,1v-1.9l4.2-1.7V282.6z"/>
		<path d="M364.9,275.5c0,1-0.6,1.8-1.5,2.2c1,0.4,1.7,1.2,1.7,2.2c0,1.9-1.8,2.9-3.6,2.9c-1.5,0-2.7-0.5-3.4-1.4l1.1-1.2
			c0.6,0.6,1.4,0.9,2.2,0.9c1,0,1.7-0.4,1.7-1.3c0-0.8-0.9-1.3-1.9-1.3h-1.1v-1.7h1.1c1,0,1.7-0.4,1.7-1.2c0-0.8-0.7-1.2-1.6-1.2
			c-0.9,0-1.6,0.5-2,1l-1.2-1.2c0.6-0.9,1.7-1.5,3.3-1.5C363.5,272.6,364.9,273.8,364.9,275.5z"/>
	</g>
</g>
<g>
	<g>
		<path d="M416.6,274.3c0.5-0.7,1.5-1.7,3.3-1.7c2.1,0,3.3,1.3,3.3,3.2c0,1.2-0.6,2-1.4,2.9l-2.1,2.2h3.7v1.8H417v-1.5l3.5-3.6
			c0.5-0.5,0.8-1.1,0.8-1.7c0-0.9-0.6-1.5-1.5-1.5c-0.9,0-1.5,0.5-2,1.1L416.6,274.3z"/>
		<path d="M433.2,277.7c0,3.2-1.9,5.1-4.2,5.1c-2.3,0-4.2-1.9-4.2-5.1c0-3.2,1.9-5.1,4.2-5.1C431.3,272.6,433.2,274.6,433.2,277.7z
			 M426.7,277.7c0,2.1,1,3.3,2.3,3.3c1.3,0,2.3-1.1,2.3-3.3c0-2.1-1-3.3-2.3-3.3C427.7,274.5,426.7,275.6,426.7,277.7z"/>
		<path d="M438.5,282.6h-1.9v-7.3l-2.3,1v-1.9l4.2-1.7V282.6z"/>
		<path d="M446.2,279.1h1.4v1.8h-1.4v1.8h-1.9v-1.8h-4.3v-1.4l3.4-6.6h2.1l-3.3,6.2h2.1v-2.6h1.9V279.1z"/>
	</g>
</g>
<g>
	<g>
		<path d="M498.6,274.3c0.5-0.7,1.5-1.7,3.3-1.7c2.1,0,3.3,1.3,3.3,3.2c0,1.2-0.6,2-1.4,2.9l-2.1,2.2h3.7v1.8H499v-1.5l3.5-3.6
			c0.5-0.5,0.8-1.1,0.8-1.7c0-0.9-0.6-1.5-1.5-1.5c-0.9,0-1.5,0.5-2,1.1L498.6,274.3z"/>
		<path d="M515.2,277.7c0,3.2-1.9,5.1-4.2,5.1c-2.3,0-4.2-1.9-4.2-5.1c0-3.2,1.9-5.1,4.2-5.1C513.3,272.6,515.2,274.6,515.2,277.7z
			 M508.7,277.7c0,2.1,1,3.3,2.3,3.3c1.3,0,2.3-1.1,2.3-3.3c0-2.1-1-3.3-2.3-3.3C509.7,274.5,508.7,275.6,508.7,277.7z"/>
		<path d="M520.5,282.6h-1.9v-7.3l-2.3,1v-1.9l4.2-1.7V282.6z"/>
		<path d="M528.6,274.6h-4l0,2h1.1c2.3,0,3.4,1.3,3.4,2.9c0,2.1-1.6,3.3-3.6,3.3c-1.5,0-2.7-0.5-3.5-1.5l1.1-1.3
			c0.5,0.6,1.5,1,2.4,1c1.1,0,1.6-0.6,1.6-1.4c0-0.7-0.5-1.4-2-1.4h-2.3l0.1-5.4h5.6V274.6z"/>
	</g>
</g>
<g>
	<g>
		<path d="M580.6,274.3c0.5-0.7,1.5-1.7,3.3-1.7c2.1,0,3.3,1.3,3.3,3.2c0,1.2-0.6,2-1.4,2.9l-2.1,2.2h3.7v1.8H581v-1.5l3.5-3.6
			c0.5-0.5,0.8-1.1,0.8-1.7c0-0.9-0.6-1.5-1.5-1.5c-0.9,0-1.5,0.5-2,1.1L580.6,274.3z"/>
		<path d="M597.1,277.7c0,3.2-1.9,5.1-4.2,5.1c-2.3,0-4.2-1.9-4.2-5.1c0-3.2,1.9-5.1,4.2-5.1C595.2,272.6,597.1,274.6,597.1,277.7z
			 M590.7,277.7c0,2.1,1,3.3,2.3,3.3c1.3,0,2.3-1.1,2.3-3.3c0-2.1-1-3.3-2.3-3.3C591.7,274.5,590.7,275.6,590.7,277.7z"/>
		<path d="M602.5,282.6h-1.9v-7.3l-2.3,1v-1.9l4.2-1.7V282.6z"/>
		<path d="M607.6,276.2c0.1,0,0.3,0,0.5,0c2,0,3.4,1.4,3.4,3.3c0,1.9-1.6,3.3-3.7,3.3c-2.1,0-3.7-1.4-3.7-3.3c0-0.9,0.3-1.7,0.9-2.6
			l2.7-4.1h2.3L607.6,276.2z M606,279.5c0,1,0.7,1.6,1.7,1.6c1,0,1.7-0.7,1.7-1.6c0-0.9-0.7-1.6-1.7-1.6
			C606.8,277.9,606,278.5,606,279.5z"/>
	</g>
</g>
<g>
	<g>
		<path d="M662.8,274.3c0.5-0.7,1.5-1.7,3.3-1.7c2.1,0,3.3,1.3,3.3,3.2c0,1.2-0.6,2-1.4,2.9l-2.1,2.2h3.7v1.8h-6.5v-1.5l3.5-3.6
			c0.5-0.5,0.8-1.1,0.8-1.7c0-0.9-0.6-1.5-1.5-1.5c-0.9,0-1.5,0.5-2,1.1L662.8,274.3z"/>
		<path d="M679.4,277.7c0,3.2-1.9,5.1-4.2,5.1c-2.3,0-4.2-1.9-4.2-5.1c0-3.2,1.9-5.1,4.2-5.1C677.5,272.6,679.4,274.6,679.4,277.7z
			 M672.9,277.7c0,2.1,1,3.3,2.3,3.3c1.3,0,2.3-1.1,2.3-3.3c0-2.1-1-3.3-2.3-3.3C673.9,274.5,672.9,275.6,672.9,277.7z"/>
		<path d="M684.8,282.6h-1.9v-7.3l-2.3,1v-1.9l4.2-1.7V282.6z"/>
		<path d="M693.2,274.3l-4.1,8.3H687l4-8h-4.7v-1.8h6.9V274.3z"/>
	</g>
</g>
<g>
	<g>
		<path d="M744.2,274.3c0.5-0.7,1.5-1.7,3.3-1.7c2.1,0,3.3,1.3,3.3,3.2c0,1.2-0.6,2-1.4,2.9l-2.1,2.2h3.7v1.8h-6.5v-1.5l3.5-3.6
			c0.5-0.5,0.8-1.1,0.8-1.7c0-0.9-0.6-1.5-1.5-1.5c-0.9,0-1.5,0.5-2,1.1L744.2,274.3z"/>
		<path d="M760.8,277.7c0,3.2-1.9,5.1-4.2,5.1c-2.3,0-4.2-1.9-4.2-5.1c0-3.2,1.9-5.1,4.2-5.1C758.9,272.6,760.8,274.6,760.8,277.7z
			 M754.4,277.7c0,2.1,1,3.3,2.3,3.3c1.3,0,2.3-1.1,2.3-3.3c0-2.1-1-3.3-2.3-3.3C755.4,274.5,754.4,275.6,754.4,277.7z"/>
		<path d="M766.2,282.6h-1.9v-7.3l-2.3,1v-1.9l4.2-1.7V282.6z"/>
		<path d="M775.4,275.5c0,1.1-0.7,1.8-1.5,2.2c1,0.4,1.7,1.1,1.7,2.3c0,1.8-1.7,2.8-3.8,2.8c-2.1,0-3.8-1.1-3.8-2.8
			c0-1.2,0.8-1.9,1.7-2.3c-0.8-0.4-1.5-1.1-1.5-2.2c0-1.8,1.6-2.8,3.6-2.8C773.7,272.6,775.4,273.7,775.4,275.5z M770,279.8
			c0,0.9,0.8,1.3,1.8,1.3c1,0,1.8-0.5,1.8-1.3c0-0.9-0.8-1.3-1.8-1.3C770.8,278.5,770,278.9,770,279.8z M770.2,275.6
			c0,0.8,0.7,1.3,1.6,1.3c0.9,0,1.6-0.4,1.6-1.3c0-0.8-0.7-1.3-1.6-1.3C770.9,274.4,770.2,274.8,770.2,275.6z"/>
	</g>
</g>
<g>
	<g>
		<path d="M826.6,274.3c0.5-0.7,1.5-1.7,3.3-1.7c2.1,0,3.3,1.3,3.3,3.2c0,1.2-0.6,2-1.4,2.9l-2.1,2.2h3.7v1.8H827v-1.5l3.5-3.6
			c0.5-0.5,0.8-1.1,0.8-1.7c0-0.9-0.6-1.5-1.5-1.5c-0.9,0-1.5,0.5-2,1.1L826.6,274.3z"/>
		<path d="M843.2,277.7c0,3.2-1.9,5.1-4.2,5.1c-2.3,0-4.2-1.9-4.2-5.1c0-3.2,1.9-5.1,4.2-5.1C841.3,272.6,843.2,274.6,843.2,277.7z
			 M836.7,277.7c0,2.1,1,3.3,2.3,3.3c1.3,0,2.3-1.1,2.3-3.3c0-2.1-1-3.3-2.3-3.3C837.7,274.5,836.7,275.6,836.7,277.7z"/>
		<path d="M848.5,282.6h-1.9v-7.3l-2.3,1v-1.9l4.2-1.7V282.6z"/>
		<path d="M853.9,279.2c-0.1,0-0.3,0-0.4,0c-2,0-3.4-1.4-3.4-3.3c0-1.9,1.6-3.3,3.7-3.3c2.1,0,3.7,1.4,3.7,3.3
			c0,0.9-0.3,1.7-0.9,2.6l-2.7,4.1h-2.3L853.9,279.2z M855.5,276c0-1-0.7-1.6-1.7-1.6c-1,0-1.7,0.7-1.7,1.6c0,0.9,0.7,1.6,1.7,1.6
			C854.8,277.6,855.5,276.9,855.5,276z"/>
	</g>
</g>
<g>
	<g>
		<path d="M902.9,274.3c0.5-0.7,1.5-1.7,3.3-1.7c2.1,0,3.3,1.3,3.3,3.2c0,1.2-0.6,2-1.4,2.9l-2.1,2.2h3.7v1.8h-6.5v-1.5l3.5-3.6
			c0.5-0.5,0.8-1.1,0.8-1.7c0-0.9-0.6-1.5-1.5-1.5c-0.9,0-1.5,0.5-2,1.1L902.9,274.3z"/>
		<path d="M919.5,277.7c0,3.2-1.9,5.1-4.2,5.1c-2.3,0-4.2-1.9-4.2-5.1c0-3.2,1.9-5.1,4.2-5.1C917.6,272.6,919.5,274.6,919.5,277.7z
			 M913,277.7c0,2.1,1,3.3,2.3,3.3c1.3,0,2.3-1.1,2.3-3.3c0-2.1-1-3.3-2.3-3.3C914,274.5,913,275.6,913,277.7z"/>
		<path d="M920.5,274.3c0.5-0.7,1.5-1.7,3.3-1.7c2.1,0,3.3,1.3,3.3,3.2c0,1.2-0.6,2-1.4,2.9l-2.1,2.2h3.7v1.8h-6.5v-1.5l3.5-3.6
			c0.5-0.5,0.8-1.1,0.8-1.7c0-0.9-0.6-1.5-1.5-1.5c-0.9,0-1.5,0.5-2,1.1L920.5,274.3z"/>
		<path d="M937.1,277.7c0,3.2-1.9,5.1-4.2,5.1c-2.3,0-4.2-1.9-4.2-5.1c0-3.2,1.9-5.1,4.2-5.1C935.2,272.6,937.1,274.6,937.1,277.7z
			 M930.6,277.7c0,2.1,1,3.3,2.3,3.3c1.3,0,2.3-1.1,2.3-3.3c0-2.1-1-3.3-2.3-3.3C931.6,274.5,930.6,275.6,930.6,277.7z"/>
		<path d="M945,279.2c0,0.2,0,0.5,0,0.6h-4.8c0.2,1,0.9,1.4,1.7,1.4c0.6,0,1.2-0.2,1.7-0.7l1.1,1.2c-0.8,0.7-1.8,1-2.9,1
			c-2.1,0-3.5-1.4-3.5-3.6c0-2.1,1.4-3.6,3.4-3.6C943.7,275.7,945,277.1,945,279.2z M940.2,278.6h3c-0.2-0.9-0.7-1.4-1.5-1.4
			C940.9,277.2,940.4,277.8,940.2,278.6z"/>
	</g>
</g>
</svg>
