<?xml version="1.0" encoding="utf-8"?>
<!-- Generator: Adobe Illustrator 25.0.1, SVG Export Plug-In . SVG Version: 6.00 Build 0)  -->
<svg version="1.1" id="Layer_1" xmlns="http://www.w3.org/2000/svg" xmlns:xlink="http://www.w3.org/1999/xlink" x="0px" y="0px"
	 viewBox="0 0 960 297.28" style="enable-background:new 0 0 960 297.28;" xml:space="preserve">
<style type="text/css">
	.st0{fill:#ED5A36;}
	.st1{fill:none;stroke:#203232;stroke-width:0.75;stroke-miterlimit:10;}
</style>
<rect x="81.6" y="55.83" class="st0" width="35" height="205.87"/>
<rect x="163.6" y="102.12" class="st0" width="35" height="159.58"/>
<rect x="245.6" y="136.23" class="st0" width="35" height="125.47"/>
<rect x="327.61" y="146.33" class="st0" width="35" height="115.38"/>
<rect x="409.61" y="159.38" class="st0" width="35" height="102.33"/>
<rect x="491.62" y="195.4" class="st0" width="35" height="66.3"/>
<rect x="573.62" y="210.72" class="st0" width="35" height="50.99"/>
<rect x="655.62" y="223.59" class="st0" width="35" height="38.11"/>
<rect x="737.63" y="230.38" class="st0" width="35" height="31.32"/>
<rect x="819.63" y="234.56" class="st0" width="35" height="27.15"/>
<rect x="901.64" y="240.82" class="st0" width="35" height="20.88"/>
<line class="st1" x1="58.09" y1="261.7" x2="960.14" y2="261.7"/>
<g>
	<g>
		<path d="M33.86,256.09v1.3c1.18,0.11,2.07,0.47,2.92,0.99l-0.88,1.5c-0.57-0.35-1.27-0.64-2.05-0.76v2.23
			c1.72,0.27,3.05,1.02,3.01,2.62c-0.04,1.73-1.37,2.67-3,2.91v1.39h-1.56v-1.35c-1.24-0.11-2.49-0.5-3.34-1.18l0.96-1.49
			c0.56,0.43,1.42,0.82,2.37,0.95v-2.26l-0.08-0.01c-1.72-0.27-2.96-1.02-2.92-2.68c0.03-1.58,1.27-2.61,3-2.84v-1.31H33.86z
			 M32.31,261.08v-1.93c-0.65,0.15-1.06,0.5-1.07,1.01C31.23,260.65,31.62,260.9,32.31,261.08z M33.86,263.21v1.94
			c0.64-0.15,1.07-0.5,1.09-1.02C34.95,263.66,34.57,263.39,33.86,263.21z"/>
		<path d="M47.02,262.14c0,3.17-1.89,5.08-4.23,5.08c-2.35,0-4.22-1.9-4.22-5.08s1.88-5.08,4.22-5.08
			C45.13,257.07,47.02,258.97,47.02,262.14z M40.54,262.14c0,2.14,1,3.26,2.26,3.26c1.26,0,2.25-1.12,2.25-3.26
			c0-2.14-0.99-3.26-2.25-3.26C41.54,258.88,40.54,260,40.54,262.14z"/>
	</g>
</g>
<g>
	<g>
		<path d="M16.1,220.29v1.3c1.18,0.11,2.07,0.47,2.92,0.99l-0.88,1.5c-0.57-0.35-1.27-0.64-2.05-0.76v2.23
			c1.72,0.27,3.05,1.02,3.01,2.62c-0.04,1.73-1.37,2.67-3,2.91v1.39h-1.56v-1.35c-1.24-0.11-2.49-0.5-3.34-1.18l0.96-1.49
			c0.56,0.43,1.42,0.82,2.37,0.95v-2.26l-0.08-0.01c-1.72-0.27-2.96-1.02-2.92-2.68c0.03-1.58,1.27-2.61,3-2.84v-1.31H16.1z
			 M14.54,225.27v-1.93c-0.65,0.15-1.06,0.5-1.07,1.01C13.46,224.84,13.86,225.1,14.54,225.27z M16.1,227.4v1.94
			c0.64-0.15,1.07-0.5,1.09-1.02C17.19,227.86,16.8,227.59,16.1,227.4z"/>
		<path d="M20.55,222.95c0.53-0.69,1.53-1.69,3.35-1.69c2.05,0,3.33,1.29,3.33,3.17c0,1.2-0.61,2.03-1.42,2.86l-2.09,2.18h3.75v1.77
			h-6.48v-1.48l3.47-3.55c0.52-0.53,0.81-1.07,0.81-1.68c0-0.85-0.6-1.46-1.5-1.46c-0.93,0-1.48,0.5-1.99,1.08L20.55,222.95z"/>
		<path d="M37.14,226.34c0,3.17-1.89,5.08-4.23,5.08c-2.35,0-4.22-1.9-4.22-5.08s1.88-5.08,4.22-5.08
			C35.25,221.26,37.14,223.17,37.14,226.34z M30.65,226.34c0,2.14,1,3.26,2.26,3.26c1.26,0,2.25-1.12,2.25-3.26
			c0-2.14-0.99-3.26-2.25-3.26C31.66,223.08,30.65,224.2,30.65,226.34z"/>
		<path d="M47.02,226.34c0,3.17-1.89,5.08-4.23,5.08c-2.35,0-4.22-1.9-4.22-5.08s1.88-5.08,4.22-5.08
			C45.13,221.26,47.02,223.17,47.02,226.34z M40.54,226.34c0,2.14,1,3.26,2.26,3.26c1.26,0,2.25-1.12,2.25-3.26
			c0-2.14-0.99-3.26-2.25-3.26C41.54,223.08,40.54,224.2,40.54,226.34z"/>
	</g>
</g>
<g>
	<g>
		<path d="M15.8,185.48v1.3c1.18,0.11,2.07,0.47,2.92,0.99l-0.88,1.5c-0.57-0.35-1.27-0.64-2.05-0.76v2.23
			c1.72,0.27,3.05,1.02,3.01,2.62c-0.04,1.73-1.37,2.67-3,2.91v1.39h-1.56v-1.35c-1.24-0.11-2.49-0.5-3.34-1.18l0.96-1.49
			c0.56,0.43,1.42,0.82,2.37,0.95v-2.26l-0.08-0.01c-1.72-0.27-2.96-1.02-2.92-2.68c0.03-1.58,1.27-2.61,3-2.84v-1.31H15.8z
			 M14.25,190.47v-1.93c-0.65,0.15-1.06,0.5-1.07,1.01C13.17,190.04,13.56,190.29,14.25,190.47z M15.8,192.6v1.94
			c0.64-0.15,1.07-0.5,1.09-1.02C16.9,193.05,16.51,192.78,15.8,192.6z"/>
		<path d="M26.32,192.88h1.37v1.76h-1.37v1.79h-1.89v-1.79h-4.35v-1.37l3.44-6.63h2.1l-3.28,6.24h2.09v-2.61h1.89V192.88z"/>
		<path d="M37.14,191.53c0,3.17-1.89,5.08-4.23,5.08c-2.35,0-4.22-1.9-4.22-5.08s1.88-5.08,4.22-5.08
			C35.25,186.46,37.14,188.36,37.14,191.53z M30.65,191.53c0,2.14,1,3.26,2.26,3.26c1.26,0,2.25-1.12,2.25-3.26
			c0-2.14-0.99-3.26-2.25-3.26C31.66,188.27,30.65,189.39,30.65,191.53z"/>
		<path d="M47.02,191.53c0,3.17-1.89,5.08-4.23,5.08c-2.35,0-4.22-1.9-4.22-5.08s1.88-5.08,4.22-5.08
			C45.13,186.46,47.02,188.36,47.02,191.53z M40.54,191.53c0,2.14,1,3.26,2.26,3.26c1.26,0,2.25-1.12,2.25-3.26
			c0-2.14-0.99-3.26-2.25-3.26C41.54,188.27,40.54,189.39,40.54,191.53z"/>
	</g>
</g>
<g>
	<g>
		<path d="M15.72,151.42v1.3c1.18,0.11,2.07,0.47,2.92,0.99l-0.88,1.5c-0.57-0.35-1.27-0.64-2.05-0.76v2.23
			c1.72,0.27,3.05,1.02,3.01,2.62c-0.04,1.73-1.37,2.67-3,2.91v1.39h-1.56v-1.35c-1.24-0.11-2.49-0.5-3.34-1.18l0.96-1.49
			c0.56,0.43,1.42,0.82,2.37,0.95v-2.26l-0.08-0.01c-1.72-0.27-2.96-1.02-2.92-2.68c0.03-1.58,1.27-2.61,3-2.84v-1.31H15.72z
			 M14.16,156.41v-1.93c-0.65,0.15-1.06,0.5-1.07,1.01C13.09,155.98,13.48,156.24,14.16,156.41z M15.72,158.54v1.94
			c0.64-0.15,1.07-0.5,1.09-1.02C16.81,159,16.43,158.72,15.72,158.54z"/>
		<path d="M23.66,155.98c0.13-0.01,0.29-0.03,0.46-0.03c1.99,0,3.4,1.42,3.4,3.26c0,1.92-1.58,3.34-3.69,3.34
			c-2.09,0-3.68-1.41-3.68-3.31c0-0.9,0.34-1.71,0.93-2.61l2.72-4.07h2.28L23.66,155.98z M22.11,159.23c0,0.95,0.74,1.61,1.71,1.61
			c0.99,0,1.72-0.66,1.72-1.61c0-0.95-0.74-1.61-1.72-1.61C22.84,157.62,22.11,158.28,22.11,159.23z"/>
		<path d="M37.14,157.48c0,3.17-1.89,5.08-4.23,5.08c-2.35,0-4.22-1.9-4.22-5.08s1.88-5.08,4.22-5.08
			C35.25,152.4,37.14,154.3,37.14,157.48z M30.65,157.48c0,2.14,1,3.26,2.26,3.26c1.26,0,2.25-1.12,2.25-3.26
			c0-2.14-0.99-3.26-2.25-3.26C31.66,154.21,30.65,155.33,30.65,157.48z"/>
		<path d="M47.02,157.48c0,3.17-1.89,5.08-4.23,5.08c-2.35,0-4.22-1.9-4.22-5.08s1.88-5.08,4.22-5.08
			C45.13,152.4,47.02,154.3,47.02,157.48z M40.54,157.48c0,2.14,1,3.26,2.26,3.26c1.26,0,2.25-1.12,2.25-3.26
			c0-2.14-0.99-3.26-2.25-3.26C41.54,154.21,40.54,155.33,40.54,157.48z"/>
	</g>
</g>
<g>
	<g>
		<path d="M15.1,115.87v1.3c1.18,0.11,2.07,0.47,2.92,0.99l-0.88,1.5c-0.57-0.35-1.27-0.64-2.05-0.76v2.23
			c1.72,0.27,3.05,1.02,3.01,2.62c-0.04,1.73-1.37,2.67-3,2.91v1.39h-1.56v-1.35c-1.24-0.11-2.49-0.5-3.34-1.18l0.96-1.49
			c0.56,0.43,1.42,0.82,2.37,0.95v-2.26l-0.08-0.01c-1.72-0.27-2.96-1.02-2.92-2.68c0.03-1.58,1.27-2.61,3-2.84v-1.31H15.1z
			 M13.54,120.86v-1.93c-0.65,0.15-1.06,0.5-1.07,1.01C12.46,120.43,12.85,120.69,13.54,120.86z M15.1,122.99v1.94
			c0.64-0.15,1.07-0.5,1.09-1.02C16.19,123.44,15.8,123.17,15.1,122.99z"/>
		<path d="M27.12,119.66c0,1.13-0.65,1.83-1.5,2.22c0.97,0.38,1.74,1.08,1.74,2.28c0,1.79-1.72,2.84-3.83,2.84
			c-2.11,0-3.83-1.06-3.83-2.84c0-1.2,0.76-1.9,1.73-2.28c-0.85-0.39-1.49-1.09-1.49-2.22c0-1.76,1.61-2.82,3.59-2.82
			C25.51,116.85,27.12,117.9,27.12,119.66z M21.74,124c0,0.86,0.81,1.32,1.79,1.32c0.97,0,1.79-0.46,1.79-1.32
			c0-0.88-0.82-1.34-1.79-1.34C22.55,122.65,21.74,123.12,21.74,124z M21.95,119.81c0,0.84,0.71,1.29,1.58,1.29s1.58-0.45,1.58-1.29
			c0-0.81-0.71-1.25-1.58-1.25S21.95,119,21.95,119.81z"/>
		<path d="M37.14,121.93c0,3.17-1.89,5.08-4.23,5.08c-2.35,0-4.22-1.9-4.22-5.08s1.88-5.08,4.22-5.08
			C35.25,116.85,37.14,118.75,37.14,121.93z M30.65,121.93c0,2.14,1,3.26,2.26,3.26c1.26,0,2.25-1.12,2.25-3.26
			c0-2.14-0.99-3.26-2.25-3.26C31.66,118.66,30.65,119.78,30.65,121.93z"/>
		<path d="M47.02,121.93c0,3.17-1.89,5.08-4.23,5.08c-2.35,0-4.22-1.9-4.22-5.08s1.88-5.08,4.22-5.08
			C45.13,116.85,47.02,118.75,47.02,121.93z M40.54,121.93c0,2.14,1,3.26,2.26,3.26c1.26,0,2.25-1.12,2.25-3.26
			c0-2.14-0.99-3.26-2.25-3.26C41.54,118.66,40.54,119.78,40.54,121.93z"/>
	</g>
</g>
<g>
	<g>
		<path d="M4.75,81.41v1.3c1.18,0.11,2.07,0.47,2.92,0.99l-0.88,1.5c-0.57-0.35-1.27-0.64-2.05-0.76v2.23
			c1.72,0.27,3.05,1.02,3.01,2.62c-0.04,1.73-1.37,2.67-3,2.91v1.39H3.2v-1.35c-1.24-0.11-2.49-0.5-3.34-1.18l0.96-1.49
			c0.56,0.43,1.42,0.82,2.37,0.95v-2.26l-0.08-0.01c-1.72-0.27-2.96-1.02-2.92-2.68c0.03-1.58,1.27-2.61,3-2.84v-1.31H4.75z
			 M3.19,86.4v-1.93c-0.65,0.15-1.06,0.5-1.07,1.01C2.12,85.96,2.51,86.22,3.19,86.4z M4.75,88.53v1.94
			c0.64-0.15,1.07-0.5,1.09-1.02C5.84,88.98,5.46,88.71,4.75,88.53z"/>
		<path d="M13.34,92.36h-1.89v-7.3L9.1,86.02v-1.9l4.24-1.71V92.36z"/>
		<path d="M17.59,90.15l-0.98,4.17h-1.54l0.47-4.17H17.59z"/>
		<path d="M27.26,87.46c0,3.17-1.89,5.08-4.23,5.08c-2.35,0-4.22-1.9-4.22-5.08s1.88-5.08,4.22-5.08
			C25.36,82.38,27.26,84.29,27.26,87.46z M20.77,87.46c0,2.14,1,3.26,2.26,3.26c1.26,0,2.25-1.12,2.25-3.26
			c0-2.14-0.99-3.26-2.25-3.26C21.77,84.2,20.77,85.32,20.77,87.46z"/>
		<path d="M37.14,87.46c0,3.17-1.89,5.08-4.23,5.08c-2.35,0-4.22-1.9-4.22-5.08s1.88-5.08,4.22-5.08
			C35.25,82.38,37.14,84.29,37.14,87.46z M30.65,87.46c0,2.14,1,3.26,2.26,3.26c1.26,0,2.25-1.12,2.25-3.26
			c0-2.14-0.99-3.26-2.25-3.26C31.66,84.2,30.65,85.32,30.65,87.46z"/>
		<path d="M47.02,87.46c0,3.17-1.89,5.08-4.23,5.08c-2.35,0-4.22-1.9-4.22-5.08s1.88-5.08,4.22-5.08
			C45.13,82.38,47.02,84.29,47.02,87.46z M40.54,87.46c0,2.14,1,3.26,2.26,3.26c1.26,0,2.25-1.12,2.25-3.26
			c0-2.14-0.99-3.26-2.25-3.26C41.54,84.2,40.54,85.32,40.54,87.46z"/>
	</g>
</g>
<g>
	<path d="M6.61,46.26v1.3c1.18,0.11,2.07,0.47,2.92,0.99l-0.88,1.5c-0.57-0.35-1.27-0.64-2.05-0.76v2.23
		c1.72,0.27,3.05,1.02,3.01,2.62c-0.04,1.73-1.37,2.67-3,2.91v1.39H5.06v-1.35c-1.24-0.11-2.49-0.5-3.34-1.18l0.96-1.49
		c0.56,0.43,1.42,0.82,2.37,0.95v-2.26L4.98,53.1c-1.72-0.27-2.96-1.02-2.92-2.68c0.03-1.58,1.27-2.61,3-2.84v-1.31H6.61z
		 M5.06,51.25v-1.93c-0.65,0.15-1.06,0.5-1.07,1.01C3.98,50.82,4.37,51.08,5.06,51.25z M6.61,53.38v1.94
		c0.64-0.15,1.07-0.5,1.09-1.02C7.7,53.84,7.32,53.56,6.61,53.38z"/>
	<path d="M15.2,57.22h-1.89v-7.3l-2.35,0.95v-1.9l4.24-1.71V57.22z"/>
	<path d="M19.46,55.01l-0.98,4.17h-1.54l0.47-4.17H19.46z"/>
	<path d="M20.55,48.93c0.53-0.69,1.53-1.69,3.35-1.69c2.05,0,3.33,1.29,3.33,3.17c0,1.2-0.61,2.03-1.42,2.86l-2.09,2.18h3.75v1.77
		h-6.48v-1.48l3.47-3.55c0.52-0.53,0.81-1.07,0.81-1.68c0-0.85-0.6-1.46-1.5-1.46c-0.93,0-1.48,0.5-1.99,1.08L20.55,48.93z"/>
	<path d="M37.14,52.32c0,3.17-1.89,5.08-4.23,5.08c-2.35,0-4.22-1.9-4.22-5.08s1.88-5.08,4.22-5.08
		C35.25,47.24,37.14,49.14,37.14,52.32z M30.65,52.32c0,2.14,1,3.26,2.26,3.26c1.26,0,2.25-1.12,2.25-3.26
		c0-2.14-0.99-3.26-2.25-3.26C31.66,49.05,30.65,50.17,30.65,52.32z"/>
	<path d="M47.02,52.32c0,3.17-1.89,5.08-4.23,5.08c-2.35,0-4.22-1.9-4.22-5.08s1.88-5.08,4.22-5.08
		C45.13,47.24,47.02,49.14,47.02,52.32z M40.54,52.32c0,2.14,1,3.26,2.26,3.26c1.26,0,2.25-1.12,2.25-3.26
		c0-2.14-0.99-3.26-2.25-3.26C41.54,49.05,40.54,50.17,40.54,52.32z"/>
</g>
<g>
	<path d="M80.09,28.75v1.67c1.51,0.14,2.66,0.6,3.75,1.27l-1.13,1.93c-0.74-0.45-1.63-0.83-2.63-0.98v2.87
		c2.21,0.34,3.92,1.31,3.87,3.37c-0.05,2.22-1.76,3.43-3.86,3.74v1.78h-2v-1.74c-1.59-0.14-3.2-0.65-4.29-1.51l1.23-1.91
		c0.72,0.55,1.82,1.05,3.05,1.22v-2.9L78,37.54c-2.21-0.35-3.8-1.3-3.75-3.45c0.04-2.04,1.64-3.35,3.85-3.66v-1.68H80.09z
		 M78.1,35.16v-2.49c-0.84,0.2-1.36,0.65-1.38,1.3C76.71,34.61,77.21,34.94,78.1,35.16z M80.09,37.9v2.49
		c0.83-0.2,1.38-0.64,1.4-1.31C81.5,38.49,81,38.14,80.09,37.9z"/>
	<path d="M91.14,42.83h-2.43v-9.38l-3.02,1.22v-2.45l5.45-2.2V42.83z"/>
	<path d="M96.61,39.99l-1.26,5.37h-1.98l0.6-5.37H96.61z"/>
	<path d="M102.38,42.83h-2.43v-9.38l-3.02,1.22v-2.45l5.45-2.2V42.83z"/>
	<path d="M114.19,33.62c0,1.45-0.84,2.35-1.93,2.85c1.24,0.49,2.23,1.39,2.23,2.93c0,2.29-2.21,3.65-4.92,3.65s-4.92-1.36-4.92-3.65
		c0-1.54,0.98-2.44,2.22-2.93c-1.09-0.5-1.92-1.41-1.92-2.85c0-2.27,2.07-3.62,4.62-3.62S114.19,31.36,114.19,33.62z M107.26,39.2
		c0,1.11,1.04,1.69,2.3,1.69c1.25,0,2.3-0.58,2.3-1.69c0-1.13-1.05-1.73-2.3-1.73C108.31,37.47,107.26,38.07,107.26,39.2z
		 M107.53,33.81c0,1.08,0.91,1.66,2.03,1.66c1.12,0,2.03-0.58,2.03-1.66c0-1.04-0.91-1.61-2.03-1.61
		C108.44,32.2,107.53,32.77,107.53,33.81z"/>
	<path d="M124.51,33.62c0,1.33-0.71,2.31-1.88,2.86c1.32,0.52,2.16,1.53,2.16,2.89c0,2.48-2.26,3.68-4.65,3.68
		c-1.89,0-3.45-0.67-4.4-1.83l1.45-1.59c0.73,0.77,1.78,1.21,2.86,1.21c1.22,0,2.21-0.53,2.21-1.64c0-1.08-1.11-1.65-2.47-1.65
		h-1.47V35.4h1.48c1.22,0,2.21-0.54,2.21-1.6c0-1.02-0.92-1.58-2.09-1.58s-2.03,0.6-2.55,1.28l-1.53-1.54
		c0.83-1.12,2.2-1.95,4.2-1.95C122.7,30.01,124.51,31.45,124.51,33.62z"/>
</g>
<g>
	<g>
		<path d="M168.2,75.04v1.67c1.51,0.14,2.66,0.6,3.75,1.27l-1.13,1.93c-0.74-0.45-1.63-0.83-2.63-0.98v2.87
			c2.21,0.34,3.92,1.31,3.87,3.37c-0.05,2.22-1.76,3.43-3.86,3.74v1.78h-2v-1.74c-1.59-0.14-3.2-0.65-4.29-1.51l1.23-1.91
			c0.72,0.55,1.82,1.05,3.05,1.22v-2.9l-0.1-0.02c-2.21-0.35-3.8-1.3-3.75-3.45c0.04-2.04,1.64-3.35,3.85-3.66v-1.68H168.2z
			 M166.2,81.46v-2.49c-0.84,0.2-1.36,0.65-1.38,1.3C164.81,80.9,165.32,81.23,166.2,81.46z M168.2,84.19v2.49
			c0.83-0.2,1.38-0.64,1.4-1.31C169.6,84.78,169.11,84.43,168.2,84.19z"/>
		<path d="M178.85,84.74c-0.17,0.03-0.35,0.04-0.57,0.04c-2.56,0-4.37-1.83-4.37-4.19c0-2.47,2.03-4.29,4.74-4.29
			c2.69,0,4.74,1.81,4.74,4.25c0,1.15-0.43,2.21-1.2,3.35l-3.49,5.23h-2.93L178.85,84.74z M180.86,80.57c0-1.22-0.95-2.07-2.21-2.07
			c-1.27,0-2.21,0.85-2.21,2.07c0,1.22,0.94,2.07,2.21,2.07C179.91,82.64,180.86,81.79,180.86,80.57z"/>
		<path d="M190.1,89.12h-2.43v-9.38l-3.02,1.22v-2.45l5.45-2.2V89.12z"/>
		<path d="M201.02,78.42l-5.22,10.7h-2.86l5.19-10.33h-5.99v-2.27h8.89V78.42z"/>
	</g>
</g>
<g>
	<g>
		<path d="M250.55,109.15v1.67c1.51,0.14,2.66,0.6,3.75,1.27l-1.13,1.93c-0.74-0.45-1.63-0.83-2.63-0.98v2.87
			c2.21,0.34,3.92,1.31,3.87,3.37c-0.05,2.22-1.76,3.43-3.86,3.74v1.78h-2v-1.74c-1.59-0.14-3.2-0.65-4.29-1.51l1.23-1.91
			c0.72,0.55,1.82,1.05,3.05,1.22v-2.9l-0.1-0.02c-2.21-0.35-3.8-1.3-3.75-3.45c0.04-2.04,1.64-3.35,3.85-3.66v-1.68H250.55z
			 M248.55,115.56v-2.49c-0.84,0.2-1.36,0.65-1.38,1.3C247.17,115,247.67,115.34,248.55,115.56z M250.55,118.3v2.49
			c0.83-0.2,1.38-0.64,1.4-1.31C251.96,118.88,251.46,118.53,250.55,118.3z"/>
		<path d="M265.12,112.53l-5.22,10.7h-2.86l5.19-10.33h-5.99v-2.27h8.89V112.53z"/>
		<path d="M266.18,112.57c0.68-0.89,1.96-2.17,4.3-2.17c2.64,0,4.28,1.66,4.28,4.07c0,1.54-0.78,2.61-1.82,3.68l-2.69,2.8h4.82v2.28
			h-8.33v-1.9l4.46-4.56c0.67-0.67,1.04-1.37,1.04-2.16c0-1.1-0.77-1.88-1.93-1.88c-1.2,0-1.91,0.65-2.56,1.39L266.18,112.57z"/>
		<path d="M281.65,123.23h-2.43v-9.38l-3.02,1.22v-2.45l5.45-2.2V123.23z"/>
	</g>
</g>
<g>
	<g>
		<path d="M330.51,119.25v1.67c1.51,0.14,2.66,0.6,3.75,1.27l-1.13,1.93c-0.74-0.45-1.63-0.83-2.63-0.98V126
			c2.21,0.34,3.92,1.31,3.87,3.37c-0.05,2.22-1.76,3.43-3.86,3.74v1.78h-2v-1.74c-1.59-0.14-3.2-0.65-4.29-1.51l1.23-1.91
			c0.72,0.55,1.82,1.05,3.05,1.22v-2.9l-0.1-0.02c-2.21-0.35-3.8-1.3-3.75-3.45c0.04-2.04,1.64-3.35,3.85-3.66v-1.68H330.51z
			 M328.51,125.66v-2.49c-0.84,0.2-1.36,0.65-1.38,1.3C327.13,125.1,327.63,125.43,328.51,125.66z M330.51,128.39v2.49
			c0.83-0.2,1.38-0.64,1.4-1.31C331.92,128.98,331.42,128.63,330.51,128.39z"/>
		<path d="M340.72,125.11c0.17-0.02,0.37-0.04,0.58-0.04c2.56,0,4.37,1.83,4.37,4.19c0,2.47-2.03,4.29-4.74,4.29
			c-2.69,0-4.73-1.81-4.73-4.25c0-1.15,0.43-2.2,1.2-3.35l3.49-5.23h2.94L340.72,125.11z M338.73,129.28c0,1.22,0.95,2.07,2.2,2.07
			c1.27,0,2.21-0.85,2.21-2.07c0-1.22-0.94-2.07-2.21-2.07C339.67,127.21,338.73,128.06,338.73,129.28z"/>
		<path d="M351.34,125.11c0.17-0.02,0.37-0.04,0.58-0.04c2.56,0,4.37,1.83,4.37,4.19c0,2.47-2.03,4.29-4.74,4.29
			c-2.69,0-4.73-1.81-4.73-4.25c0-1.15,0.43-2.2,1.2-3.35l3.49-5.23h2.94L351.34,125.11z M349.35,129.28c0,1.22,0.95,2.07,2.2,2.07
			c1.27,0,2.21-0.85,2.21-2.07c0-1.22-0.95-2.07-2.21-2.07C350.29,127.21,349.35,128.06,349.35,129.28z"/>
		<path d="M366.12,124.12c0,1.33-0.71,2.31-1.88,2.86c1.32,0.52,2.16,1.53,2.16,2.89c0,2.48-2.26,3.68-4.65,3.68
			c-1.89,0-3.45-0.67-4.4-1.83l1.45-1.59c0.73,0.77,1.78,1.21,2.86,1.21c1.22,0,2.21-0.53,2.21-1.64c0-1.08-1.11-1.65-2.47-1.65
			h-1.47v-2.16h1.48c1.22,0,2.21-0.54,2.21-1.6c0-1.02-0.92-1.58-2.09-1.58s-2.03,0.6-2.55,1.28l-1.53-1.54
			c0.83-1.12,2.2-1.95,4.2-1.95C364.31,120.5,366.12,121.94,366.12,124.12z"/>
	</g>
</g>
<g>
	<g>
		<path d="M411.62,131.69v1.67c1.51,0.14,2.66,0.6,3.75,1.27l-1.13,1.93c-0.74-0.45-1.63-0.83-2.63-0.98v2.87
			c2.21,0.34,3.92,1.31,3.87,3.37c-0.05,2.22-1.76,3.43-3.86,3.74v1.78h-2v-1.74c-1.59-0.14-3.2-0.65-4.29-1.51l1.23-1.91
			c0.72,0.55,1.82,1.05,3.05,1.22v-2.9l-0.1-0.02c-2.21-0.35-3.8-1.3-3.75-3.45c0.04-2.04,1.64-3.35,3.85-3.66v-1.68H411.62z
			 M409.62,138.1v-2.49c-0.84,0.2-1.36,0.65-1.38,1.3C408.23,137.54,408.74,137.87,409.62,138.1z M411.62,140.84v2.49
			c0.83-0.2,1.38-0.64,1.4-1.31C413.02,141.42,412.53,141.07,411.62,140.84z"/>
		<path d="M425.71,135.43h-5.1l-0.05,2.52H422c2.94,0,4.41,1.68,4.41,3.79c0,2.71-2.05,4.26-4.6,4.26c-1.88,0-3.42-0.7-4.47-1.88
			l1.37-1.7c0.68,0.75,1.92,1.33,3.08,1.33c1.4,0,2.1-0.83,2.1-1.83c0-0.95-0.59-1.77-2.57-1.77h-3l0.14-6.98h7.25V135.43z"/>
		<path d="M437.57,136.56c0,1.45-0.84,2.35-1.93,2.85c1.24,0.49,2.23,1.39,2.23,2.93c0,2.29-2.21,3.65-4.92,3.65
			s-4.92-1.36-4.92-3.65c0-1.54,0.98-2.44,2.22-2.93c-1.09-0.5-1.92-1.41-1.92-2.85c0-2.27,2.07-3.62,4.62-3.62
			S437.57,134.29,437.57,136.56z M430.65,142.13c0,1.11,1.04,1.69,2.3,1.69c1.25,0,2.3-0.58,2.3-1.69c0-1.13-1.05-1.73-2.3-1.73
			C431.7,140.4,430.65,141.01,430.65,142.13z M430.92,136.75c0,1.08,0.91,1.66,2.03,1.66c1.12,0,2.03-0.58,2.03-1.66
			c0-1.04-0.91-1.61-2.03-1.61C431.83,135.14,430.92,135.7,430.92,136.75z"/>
		<path d="M448.99,136.56c0,1.45-0.84,2.35-1.93,2.85c1.24,0.49,2.23,1.39,2.23,2.93c0,2.29-2.21,3.65-4.92,3.65
			s-4.92-1.36-4.92-3.65c0-1.54,0.98-2.44,2.22-2.93c-1.09-0.5-1.92-1.41-1.92-2.85c0-2.27,2.07-3.62,4.62-3.62
			S448.99,134.29,448.99,136.56z M442.07,142.13c0,1.11,1.04,1.69,2.3,1.69c1.25,0,2.3-0.58,2.3-1.69c0-1.13-1.05-1.73-2.3-1.73
			C443.12,140.4,442.07,141.01,442.07,142.13z M442.34,136.75c0,1.08,0.91,1.66,2.03,1.66c1.12,0,2.03-0.58,2.03-1.66
			c0-1.04-0.91-1.61-2.03-1.61C443.25,135.14,442.34,135.7,442.34,136.75z"/>
	</g>
</g>
<g>
	<g>
		<path d="M495.74,168.32v1.67c1.51,0.14,2.66,0.6,3.75,1.27l-1.13,1.93c-0.74-0.45-1.63-0.83-2.63-0.98v2.87
			c2.21,0.34,3.92,1.31,3.87,3.37c-0.05,2.22-1.76,3.43-3.86,3.74v1.78h-2v-1.74c-1.59-0.14-3.2-0.65-4.29-1.51l1.23-1.91
			c0.72,0.55,1.82,1.05,3.05,1.22v-2.9l-0.1-0.02c-2.21-0.35-3.8-1.3-3.75-3.45c0.04-2.04,1.64-3.35,3.85-3.66v-1.68H495.74z
			 M493.74,174.73v-2.49c-0.84,0.2-1.36,0.65-1.38,1.3C492.35,174.17,492.86,174.51,493.74,174.73z M495.74,177.47v2.49
			c0.83-0.2,1.38-0.64,1.4-1.31C497.14,178.05,496.65,177.7,495.74,177.47z"/>
		<path d="M510.1,173.19c0,1.33-0.71,2.31-1.88,2.86c1.32,0.52,2.16,1.53,2.16,2.89c0,2.48-2.26,3.68-4.64,3.68
			c-1.89,0-3.45-0.67-4.4-1.83l1.45-1.59c0.73,0.77,1.78,1.21,2.86,1.21c1.22,0,2.21-0.53,2.21-1.64c0-1.08-1.11-1.65-2.47-1.65
			h-1.47v-2.16h1.48c1.22,0,2.21-0.54,2.21-1.6c0-1.02-0.92-1.58-2.09-1.58c-1.17,0-2.03,0.6-2.55,1.28l-1.53-1.54
			c0.83-1.12,2.2-1.95,4.2-1.95C508.29,169.57,510.1,171.01,510.1,173.19z"/>
		<path d="M521.49,173.19c0,1.45-0.84,2.35-1.93,2.85c1.24,0.49,2.23,1.39,2.23,2.93c0,2.29-2.21,3.65-4.92,3.65
			s-4.92-1.36-4.92-3.65c0-1.54,0.98-2.44,2.22-2.93c-1.09-0.5-1.92-1.41-1.92-2.85c0-2.27,2.07-3.62,4.62-3.62
			S521.49,170.92,521.49,173.19z M514.57,178.77c0,1.11,1.04,1.69,2.3,1.69c1.25,0,2.3-0.58,2.3-1.69c0-1.13-1.05-1.73-2.3-1.73
			C515.62,177.04,514.57,177.64,514.57,178.77z M514.84,173.38c0,1.08,0.91,1.66,2.03,1.66s2.04-0.58,2.04-1.66
			c0-1.04-0.91-1.61-2.04-1.61S514.84,172.34,514.84,173.38z"/>
		<path d="M528.49,182.4h-2.43v-9.38l-3.02,1.22v-2.45l5.45-2.2V182.4z"/>
	</g>
</g>
<g>
	<g>
		<path d="M579.19,183.46v1.67c1.51,0.14,2.66,0.6,3.75,1.27l-1.12,1.93c-0.74-0.45-1.63-0.83-2.63-0.98v2.87
			c2.21,0.34,3.92,1.31,3.87,3.37c-0.05,2.22-1.76,3.43-3.86,3.74v1.78h-2v-1.74c-1.59-0.14-3.2-0.65-4.29-1.51l1.23-1.91
			c0.72,0.55,1.82,1.05,3.05,1.22v-2.9l-0.1-0.02c-2.21-0.35-3.8-1.3-3.75-3.45c0.04-2.04,1.64-3.35,3.85-3.66v-1.68H579.19z
			 M577.19,189.87v-2.49c-0.84,0.2-1.36,0.65-1.38,1.3C575.81,189.31,576.31,189.65,577.19,189.87z M579.19,192.61v2.49
			c0.83-0.2,1.38-0.64,1.4-1.31C580.6,193.19,580.1,192.84,579.19,192.61z"/>
		<path d="M584.92,186.88c0.68-0.89,1.96-2.17,4.3-2.17c2.64,0,4.28,1.66,4.28,4.07c0,1.54-0.78,2.61-1.82,3.68l-2.69,2.8h4.82v2.28
			h-8.33v-1.9l4.46-4.56c0.67-0.67,1.04-1.37,1.04-2.16c0-1.1-0.76-1.88-1.93-1.88c-1.2,0-1.91,0.65-2.56,1.39L584.92,186.88z"/>
		<path d="M599.98,193.16c-0.17,0.03-0.35,0.04-0.57,0.04c-2.56,0-4.37-1.83-4.37-4.19c0-2.47,2.03-4.29,4.74-4.29
			c2.69,0,4.74,1.81,4.74,4.25c0,1.15-0.43,2.21-1.2,3.35l-3.49,5.23h-2.93L599.98,193.16z M601.99,188.99
			c0-1.22-0.95-2.07-2.21-2.07c-1.27,0-2.21,0.85-2.21,2.07c0,1.22,0.94,2.07,2.21,2.07C601.05,191.06,601.99,190.2,601.99,188.99z"
			/>
		<path d="M614.31,188.33c0,1.33-0.71,2.31-1.88,2.86c1.32,0.52,2.16,1.53,2.16,2.89c0,2.48-2.26,3.68-4.64,3.68
			c-1.89,0-3.45-0.67-4.4-1.83l1.45-1.59c0.73,0.77,1.78,1.21,2.86,1.21c1.22,0,2.21-0.53,2.21-1.64c0-1.08-1.11-1.65-2.47-1.65
			h-1.47v-2.16h1.48c1.22,0,2.21-0.54,2.21-1.6c0-1.02-0.92-1.58-2.09-1.58c-1.17,0-2.03,0.6-2.55,1.28l-1.53-1.54
			c0.83-1.12,2.2-1.95,4.2-1.95C612.5,184.71,614.31,186.15,614.31,188.33z"/>
	</g>
</g>
<g>
	<g>
		<path d="M660.21,196.51v1.67c1.51,0.14,2.66,0.6,3.75,1.27l-1.12,1.93c-0.74-0.45-1.63-0.83-2.63-0.98v2.87
			c2.21,0.34,3.92,1.31,3.87,3.37c-0.05,2.22-1.76,3.43-3.86,3.74v1.78h-2v-1.74c-1.59-0.14-3.2-0.65-4.29-1.51l1.23-1.91
			c0.72,0.55,1.82,1.05,3.05,1.22v-2.9l-0.1-0.02c-2.21-0.35-3.8-1.3-3.75-3.45c0.04-2.04,1.64-3.35,3.85-3.66v-1.68H660.21z
			 M658.21,202.92v-2.49c-0.84,0.2-1.36,0.65-1.38,1.3C656.83,202.36,657.33,202.7,658.21,202.92z M660.21,205.66v2.49
			c0.83-0.2,1.38-0.64,1.4-1.31C661.62,206.24,661.12,205.89,660.21,205.66z"/>
		<path d="M665.94,199.93c0.68-0.89,1.96-2.17,4.3-2.17c2.64,0,4.28,1.66,4.28,4.07c0,1.54-0.78,2.61-1.82,3.68l-2.69,2.8h4.82v2.28
			h-8.33v-1.9l4.46-4.56c0.67-0.67,1.04-1.37,1.04-2.16c0-1.1-0.76-1.88-1.93-1.88c-1.2,0-1.91,0.65-2.56,1.39L665.94,199.93z"/>
		<path d="M681.42,210.59h-2.43v-9.38l-3.02,1.22v-2.45l5.45-2.2V210.59z"/>
		<path d="M688.42,206.21c-0.17,0.03-0.35,0.04-0.57,0.04c-2.56,0-4.37-1.83-4.37-4.19c0-2.47,2.03-4.29,4.74-4.29
			c2.69,0,4.74,1.81,4.74,4.25c0,1.15-0.43,2.21-1.2,3.35l-3.49,5.23h-2.93L688.42,206.21z M690.42,202.04
			c0-1.22-0.95-2.07-2.21-2.07c-1.27,0-2.21,0.85-2.21,2.07c0,1.22,0.94,2.07,2.21,2.07C689.48,204.11,690.42,203.26,690.42,202.04z
			"/>
	</g>
</g>
<g>
	<g>
		<path d="M740.54,203.3v1.67c1.51,0.14,2.66,0.6,3.75,1.27l-1.13,1.93c-0.74-0.45-1.63-0.83-2.63-0.98v2.87
			c2.21,0.34,3.92,1.31,3.87,3.37c-0.05,2.22-1.75,3.43-3.86,3.74v1.78h-2v-1.74c-1.59-0.14-3.2-0.65-4.29-1.51l1.23-1.91
			c0.72,0.55,1.82,1.05,3.05,1.22v-2.9l-0.1-0.02c-2.21-0.35-3.8-1.3-3.75-3.45c0.04-2.04,1.64-3.35,3.85-3.66v-1.68H740.54z
			 M738.54,209.71v-2.49c-0.84,0.2-1.36,0.65-1.38,1.3C737.16,209.15,737.66,209.48,738.54,209.71z M740.54,212.45v2.49
			c0.83-0.2,1.38-0.64,1.4-1.31C741.95,213.03,741.45,212.68,740.54,212.45z"/>
		<path d="M751.59,217.38h-2.43V208l-3.02,1.22v-2.45l5.45-2.2V217.38z"/>
		<path d="M763.39,208.17c0,1.45-0.84,2.35-1.93,2.85c1.24,0.49,2.23,1.39,2.23,2.93c0,2.29-2.21,3.65-4.92,3.65
			s-4.92-1.36-4.92-3.65c0-1.54,0.98-2.44,2.22-2.93c-1.09-0.5-1.92-1.41-1.92-2.85c0-2.27,2.07-3.62,4.62-3.62
			S763.39,205.9,763.39,208.17z M756.47,213.74c0,1.11,1.04,1.69,2.3,1.69c1.25,0,2.3-0.58,2.3-1.69c0-1.13-1.05-1.73-2.3-1.73
			C757.52,212.02,756.47,212.62,756.47,213.74z M756.74,208.36c0,1.08,0.91,1.66,2.03,1.66s2.04-0.58,2.04-1.66
			c0-1.04-0.91-1.61-2.04-1.61S756.74,207.31,756.74,208.36z"/>
		<path d="M776.27,211.08c0,4.08-2.43,6.53-5.44,6.53c-3.02,0-5.43-2.45-5.43-6.53s2.41-6.53,5.43-6.53
			C773.84,204.55,776.27,207,776.27,211.08z M767.94,211.08c0,2.75,1.29,4.2,2.9,4.2c1.62,0,2.9-1.44,2.9-4.2s-1.28-4.2-2.9-4.2
			C769.22,206.88,767.94,208.32,767.94,211.08z"/>
	</g>
</g>
<g>
	<g>
		<path d="M824.05,207.48v1.67c1.51,0.14,2.66,0.6,3.75,1.27l-1.13,1.93c-0.74-0.45-1.63-0.83-2.63-0.98v2.87
			c2.21,0.34,3.92,1.31,3.87,3.37c-0.05,2.22-1.75,3.43-3.86,3.74v1.78h-2v-1.74c-1.59-0.14-3.2-0.65-4.29-1.51l1.23-1.91
			c0.72,0.55,1.82,1.05,3.05,1.22v-2.9l-0.1-0.02c-2.21-0.35-3.8-1.3-3.75-3.45c0.04-2.04,1.64-3.35,3.85-3.66v-1.68H824.05z
			 M822.06,213.89v-2.49c-0.84,0.2-1.36,0.65-1.38,1.3C820.67,213.33,821.17,213.66,822.06,213.89z M824.05,216.62v2.49
			c0.83-0.2,1.38-0.64,1.4-1.31C825.46,217.21,824.96,216.86,824.05,216.62z"/>
		<path d="M835.1,221.56h-2.43v-9.38l-3.02,1.22v-2.45l5.45-2.2V221.56z"/>
		<path d="M845.54,211.21h-5.1l-0.05,2.52h1.45c2.93,0,4.41,1.68,4.41,3.79c0,2.71-2.05,4.26-4.6,4.26c-1.88,0-3.42-0.7-4.46-1.88
			l1.37-1.7c0.68,0.75,1.92,1.33,3.08,1.33c1.4,0,2.1-0.83,2.1-1.83c0-0.95-0.59-1.77-2.57-1.77h-3l0.13-6.98h7.25V211.21z"/>
		<path d="M852.14,213.34c0.17-0.02,0.37-0.04,0.58-0.04c2.56,0,4.37,1.83,4.37,4.19c0,2.47-2.03,4.29-4.74,4.29
			c-2.69,0-4.73-1.81-4.73-4.25c0-1.15,0.43-2.2,1.2-3.35l3.49-5.23h2.94L852.14,213.34z M850.15,217.51c0,1.22,0.95,2.07,2.2,2.07
			c1.27,0,2.21-0.85,2.21-2.07c0-1.22-0.95-2.07-2.21-2.07C851.1,215.44,850.15,216.29,850.15,217.51z"/>
	</g>
</g>
<g>
	<g>
		<path d="M905.19,214.69v1.67c1.51,0.14,2.66,0.6,3.75,1.27l-1.12,1.93c-0.74-0.45-1.63-0.83-2.63-0.98v2.87
			c2.21,0.34,3.92,1.31,3.87,3.37c-0.05,2.22-1.76,3.43-3.86,3.74v1.78h-2v-1.74c-1.59-0.14-3.2-0.65-4.29-1.51l1.23-1.91
			c0.72,0.55,1.82,1.05,3.05,1.22v-2.9l-0.1-0.02c-2.21-0.35-3.8-1.3-3.75-3.45c0.04-2.04,1.64-3.35,3.85-3.66v-1.68H905.19z
			 M903.2,221.1v-2.49c-0.84,0.2-1.36,0.65-1.38,1.3C901.81,220.54,902.31,220.88,903.2,221.1z M905.19,223.84v2.49
			c0.83-0.2,1.38-0.64,1.4-1.31C906.6,224.42,906.1,224.07,905.19,223.84z"/>
		<path d="M916.24,228.77h-2.43v-9.38l-3.02,1.22v-2.45l5.45-2.2V228.77z"/>
		<path d="M918.31,218.11c0.69-0.89,1.96-2.17,4.3-2.17c2.64,0,4.28,1.66,4.28,4.07c0,1.54-0.78,2.61-1.82,3.68l-2.69,2.8h4.82v2.28
			h-8.33v-1.9l4.46-4.56c0.67-0.67,1.04-1.37,1.04-2.16c0-1.1-0.77-1.88-1.93-1.88c-1.2,0-1.91,0.65-2.56,1.39L918.31,218.11z"/>
		<path d="M939.64,222.47c0,4.08-2.43,6.53-5.44,6.53c-3.02,0-5.43-2.45-5.43-6.53s2.41-6.53,5.43-6.53
			C937.21,215.94,939.64,218.39,939.64,222.47z M931.3,222.47c0,2.75,1.29,4.2,2.9,4.2c1.62,0,2.9-1.44,2.9-4.2s-1.28-4.2-2.9-4.2
			C932.59,218.27,931.3,219.71,931.3,222.47z"/>
	</g>
</g>
<line class="st1" x1="58.09" y1="261.7" x2="58.09" y2="52.88"/>
<g>
	<g>
		<line class="st1" x1="52.46" y1="261.7" x2="58.09" y2="261.7"/>
		<line class="st1" x1="52.46" y1="226.9" x2="58.09" y2="226.9"/>
		<line class="st1" x1="52.46" y1="192.1" x2="58.09" y2="192.1"/>
		<line class="st1" x1="52.46" y1="157.29" x2="58.09" y2="157.29"/>
		<line class="st1" x1="52.46" y1="122.49" x2="58.09" y2="122.49"/>
		<line class="st1" x1="52.46" y1="87.68" x2="58.09" y2="87.68"/>
		<line class="st1" x1="52.46" y1="52.88" x2="58.09" y2="52.88"/>
	</g>
</g>
<g>
	<g>
		<path d="M82.86,273.81c0.53-0.69,1.53-1.69,3.35-1.69c2.05,0,3.33,1.29,3.33,3.17c0,1.2-0.61,2.03-1.42,2.86l-2.09,2.18h3.75v1.77
			h-6.48v-1.48l3.47-3.55c0.52-0.53,0.81-1.06,0.81-1.68c0-0.85-0.6-1.46-1.5-1.46c-0.93,0-1.48,0.5-1.99,1.08L82.86,273.81z"/>
		<path d="M99.44,277.2c0,3.17-1.89,5.08-4.23,5.08c-2.35,0-4.22-1.91-4.22-5.08s1.88-5.08,4.22-5.08
			C97.55,272.12,99.44,274.03,99.44,277.2z M92.96,277.2c0,2.14,1,3.26,2.26,3.26c1.26,0,2.25-1.12,2.25-3.26s-0.99-3.26-2.25-3.26
			C93.96,273.94,92.96,275.06,92.96,277.2z"/>
		<path d="M104.78,282.1h-1.89v-7.3l-2.35,0.95v-1.91l4.24-1.71V282.1z"/>
		<path d="M115.1,277.2c0,3.17-1.89,5.08-4.23,5.08c-2.35,0-4.22-1.91-4.22-5.08s1.88-5.08,4.22-5.08
			C113.2,272.12,115.1,274.03,115.1,277.2z M108.61,277.2c0,2.14,1,3.26,2.26,3.26c1.26,0,2.25-1.12,2.25-3.26s-0.99-3.26-2.25-3.26
			C109.61,273.94,108.61,275.06,108.61,277.2z"/>
	</g>
</g>
<g>
	<g>
		<path d="M166.93,273.81c0.53-0.69,1.53-1.69,3.35-1.69c2.05,0,3.33,1.29,3.33,3.17c0,1.2-0.61,2.03-1.42,2.86l-2.09,2.18h3.75
			v1.77h-6.48v-1.48l3.47-3.55c0.52-0.53,0.81-1.06,0.81-1.68c0-0.85-0.6-1.46-1.5-1.46c-0.93,0-1.48,0.5-1.99,1.08L166.93,273.81z"
			/>
		<path d="M183.52,277.2c0,3.17-1.89,5.08-4.23,5.08c-2.35,0-4.22-1.91-4.22-5.08s1.88-5.08,4.22-5.08
			C181.63,272.12,183.52,274.03,183.52,277.2z M177.03,277.2c0,2.14,1,3.26,2.26,3.26c1.26,0,2.25-1.12,2.25-3.26
			s-0.99-3.26-2.25-3.26C178.03,273.94,177.03,275.06,177.03,277.2z"/>
		<path d="M188.85,282.1h-1.89v-7.3l-2.35,0.95v-1.91l4.24-1.71V282.1z"/>
		<path d="M194.59,282.1h-1.89v-7.3l-2.35,0.95v-1.91l4.24-1.71V282.1z"/>
	</g>
</g>
<g>
	<g>
		<path d="M247.86,273.81c0.53-0.69,1.53-1.69,3.35-1.69c2.05,0,3.33,1.29,3.33,3.17c0,1.2-0.61,2.03-1.42,2.86l-2.09,2.18h3.75
			v1.77h-6.48v-1.48l3.47-3.55c0.52-0.53,0.81-1.06,0.81-1.68c0-0.85-0.6-1.46-1.5-1.46c-0.93,0-1.48,0.5-1.99,1.08L247.86,273.81z"
			/>
		<path d="M264.45,277.2c0,3.17-1.89,5.08-4.23,5.08c-2.35,0-4.22-1.91-4.22-5.08s1.88-5.08,4.22-5.08
			C262.56,272.12,264.45,274.03,264.45,277.2z M257.97,277.2c0,2.14,1,3.26,2.26,3.26c1.26,0,2.25-1.12,2.25-3.26
			s-0.99-3.26-2.25-3.26C258.97,273.94,257.97,275.06,257.97,277.2z"/>
		<path d="M269.78,282.1h-1.89v-7.3l-2.35,0.95v-1.91l4.24-1.71V282.1z"/>
		<path d="M271.4,273.81c0.53-0.69,1.53-1.69,3.35-1.69c2.05,0,3.33,1.29,3.33,3.17c0,1.2-0.61,2.03-1.42,2.86l-2.09,2.18h3.75v1.77
			h-6.48v-1.48l3.47-3.55c0.52-0.53,0.81-1.06,0.81-1.68c0-0.85-0.6-1.46-1.5-1.46c-0.93,0-1.48,0.5-1.99,1.08L271.4,273.81z"/>
	</g>
</g>
<g>
	<g>
		<path d="M329.81,273.81c0.53-0.69,1.53-1.69,3.35-1.69c2.05,0,3.33,1.29,3.33,3.17c0,1.2-0.61,2.03-1.42,2.86l-2.09,2.18h3.75
			v1.77h-6.48v-1.48l3.47-3.55c0.52-0.53,0.81-1.06,0.81-1.68c0-0.85-0.6-1.46-1.5-1.46c-0.93,0-1.48,0.5-1.99,1.08L329.81,273.81z"
			/>
		<path d="M346.39,277.2c0,3.17-1.89,5.08-4.23,5.08c-2.35,0-4.22-1.91-4.22-5.08s1.88-5.08,4.22-5.08
			C344.5,272.12,346.39,274.03,346.39,277.2z M339.91,277.2c0,2.14,1,3.26,2.26,3.26c1.26,0,2.25-1.12,2.25-3.26
			s-0.99-3.26-2.25-3.26C340.91,273.94,339.91,275.06,339.91,277.2z"/>
		<path d="M351.73,282.1h-1.89v-7.3l-2.35,0.95v-1.91l4.24-1.71V282.1z"/>
		<path d="M360.06,274.94c0,1.04-0.55,1.8-1.46,2.23c1.03,0.41,1.68,1.19,1.68,2.25c0,1.93-1.76,2.87-3.61,2.87
			c-1.47,0-2.68-0.53-3.42-1.42l1.13-1.24c0.57,0.6,1.39,0.94,2.23,0.94c0.95,0,1.72-0.41,1.72-1.27c0-0.84-0.86-1.28-1.92-1.28
			h-1.14v-1.68h1.15c0.95,0,1.72-0.42,1.72-1.25c0-0.79-0.71-1.23-1.62-1.23c-0.91,0-1.58,0.47-1.98,0.99l-1.19-1.2
			c0.64-0.87,1.71-1.52,3.27-1.52C358.65,272.12,360.06,273.25,360.06,274.94z"/>
	</g>
</g>
<g>
	<g>
		<path d="M411.73,273.81c0.53-0.69,1.53-1.69,3.35-1.69c2.05,0,3.33,1.29,3.33,3.17c0,1.2-0.61,2.03-1.42,2.86l-2.09,2.18h3.75
			v1.77h-6.48v-1.48l3.47-3.55c0.52-0.53,0.81-1.06,0.81-1.68c0-0.85-0.6-1.46-1.5-1.46c-0.93,0-1.48,0.5-1.99,1.08L411.73,273.81z"
			/>
		<path d="M428.31,277.2c0,3.17-1.89,5.08-4.23,5.08c-2.35,0-4.22-1.91-4.22-5.08s1.88-5.08,4.22-5.08
			C426.42,272.12,428.31,274.03,428.31,277.2z M421.83,277.2c0,2.14,1,3.26,2.26,3.26c1.26,0,2.25-1.12,2.25-3.26
			s-0.99-3.26-2.25-3.26C422.83,273.94,421.83,275.06,421.83,277.2z"/>
		<path d="M433.65,282.1h-1.89v-7.3l-2.35,0.95v-1.91l4.24-1.71V282.1z"/>
		<path d="M441.32,278.55h1.37v1.76h-1.37v1.79h-1.89v-1.79h-4.35v-1.37l3.44-6.63h2.1l-3.28,6.24h2.09v-2.61h1.89V278.55z"/>
	</g>
</g>
<g>
	<g>
		<path d="M493.74,273.81c0.53-0.69,1.53-1.69,3.35-1.69c2.05,0,3.33,1.29,3.33,3.17c0,1.2-0.61,2.03-1.42,2.86l-2.09,2.18h3.75
			v1.77h-6.48v-1.48l3.47-3.55c0.52-0.53,0.81-1.06,0.81-1.68c0-0.85-0.6-1.46-1.5-1.46c-0.93,0-1.48,0.5-1.99,1.08L493.74,273.81z"
			/>
		<path d="M510.33,277.2c0,3.17-1.89,5.08-4.23,5.08c-2.35,0-4.22-1.91-4.22-5.08s1.88-5.08,4.22-5.08
			C508.43,272.12,510.33,274.03,510.33,277.2z M503.84,277.2c0,2.14,1,3.26,2.26,3.26c1.26,0,2.25-1.12,2.25-3.26
			s-0.99-3.26-2.25-3.26C504.84,273.94,503.84,275.06,503.84,277.2z"/>
		<path d="M515.66,282.1h-1.89v-7.3l-2.35,0.95v-1.91l4.24-1.71V282.1z"/>
		<path d="M523.78,274.06h-3.97l-0.04,1.96h1.13c2.28,0,3.43,1.31,3.43,2.95c0,2.11-1.6,3.31-3.58,3.31c-1.46,0-2.66-0.55-3.47-1.46
			l1.06-1.32c0.53,0.58,1.49,1.04,2.4,1.04c1.09,0,1.63-0.64,1.63-1.42c0-0.74-0.46-1.38-2-1.38h-2.33l0.11-5.43h5.64V274.06z"/>
	</g>
</g>
<g>
	<g>
		<path d="M575.69,273.81c0.53-0.69,1.53-1.69,3.35-1.69c2.05,0,3.33,1.29,3.33,3.17c0,1.2-0.61,2.03-1.42,2.86l-2.09,2.18h3.75
			v1.77h-6.48v-1.48l3.47-3.55c0.52-0.53,0.8-1.06,0.8-1.68c0-0.85-0.59-1.46-1.5-1.46c-0.93,0-1.48,0.5-1.99,1.08L575.69,273.81z"
			/>
		<path d="M592.28,277.2c0,3.17-1.89,5.08-4.23,5.08c-2.35,0-4.22-1.91-4.22-5.08s1.88-5.08,4.22-5.08
			C590.39,272.12,592.28,274.03,592.28,277.2z M585.8,277.2c0,2.14,1,3.26,2.26,3.26c1.26,0,2.25-1.12,2.25-3.26
			s-0.99-3.26-2.25-3.26C586.8,273.94,585.8,275.06,585.8,277.2z"/>
		<path d="M597.61,282.1h-1.89v-7.3l-2.35,0.95v-1.91l4.24-1.71V282.1z"/>
		<path d="M602.71,275.71c0.13-0.01,0.29-0.03,0.46-0.03c1.99,0,3.4,1.42,3.4,3.26c0,1.92-1.58,3.34-3.69,3.34
			c-2.09,0-3.68-1.41-3.68-3.31c0-0.9,0.34-1.71,0.93-2.61l2.72-4.07h2.28L602.71,275.71z M601.16,278.95
			c0,0.95,0.74,1.61,1.71,1.61c0.99,0,1.72-0.66,1.72-1.61c0-0.95-0.74-1.61-1.72-1.61C601.9,277.34,601.16,278.01,601.16,278.95z"
			/>
	</g>
</g>
<g>
	<g>
		<path d="M657.98,273.81c0.53-0.69,1.53-1.69,3.35-1.69c2.05,0,3.33,1.29,3.33,3.17c0,1.2-0.61,2.03-1.42,2.86l-2.09,2.18h3.75
			v1.77h-6.48v-1.48l3.47-3.55c0.52-0.53,0.81-1.06,0.81-1.68c0-0.85-0.59-1.46-1.5-1.46c-0.93,0-1.48,0.5-1.99,1.08L657.98,273.81z
			"/>
		<path d="M674.56,277.2c0,3.17-1.89,5.08-4.23,5.08c-2.35,0-4.22-1.91-4.22-5.08s1.88-5.08,4.22-5.08
			C672.67,272.12,674.56,274.03,674.56,277.2z M668.08,277.2c0,2.14,1,3.26,2.26,3.26c1.26,0,2.25-1.12,2.25-3.26
			s-0.99-3.26-2.25-3.26C669.08,273.94,668.08,275.06,668.08,277.2z"/>
		<path d="M679.9,282.1h-1.89v-7.3l-2.35,0.95v-1.91l4.24-1.71V282.1z"/>
		<path d="M688.39,273.78l-4.06,8.33h-2.23l4.03-8.04h-4.66v-1.76h6.91V273.78z"/>
	</g>
</g>
<g>
	<g>
		<path d="M739.39,273.81c0.53-0.69,1.53-1.69,3.35-1.69c2.05,0,3.33,1.29,3.33,3.17c0,1.2-0.61,2.03-1.42,2.86l-2.09,2.18h3.75
			v1.77h-6.48v-1.48l3.47-3.55c0.52-0.53,0.81-1.06,0.81-1.68c0-0.85-0.6-1.46-1.5-1.46c-0.93,0-1.48,0.5-1.99,1.08L739.39,273.81z"
			/>
		<path d="M755.98,277.2c0,3.17-1.89,5.08-4.23,5.08c-2.35,0-4.22-1.91-4.22-5.08s1.88-5.08,4.22-5.08
			C754.09,272.12,755.98,274.03,755.98,277.2z M749.49,277.2c0,2.14,1,3.26,2.25,3.26c1.26,0,2.25-1.12,2.25-3.26
			s-0.99-3.26-2.25-3.26C750.49,273.94,749.49,275.06,749.49,277.2z"/>
		<path d="M761.31,282.1h-1.89v-7.3l-2.35,0.95v-1.91l4.24-1.71V282.1z"/>
		<path d="M770.5,274.94c0,1.13-0.65,1.83-1.5,2.22c0.97,0.38,1.74,1.08,1.74,2.28c0,1.79-1.72,2.84-3.83,2.84
			c-2.11,0-3.83-1.06-3.83-2.84c0-1.2,0.76-1.9,1.73-2.28c-0.85-0.39-1.49-1.09-1.49-2.22c0-1.76,1.61-2.82,3.59-2.82
			C768.88,272.12,770.5,273.18,770.5,274.94z M765.11,279.28c0,0.86,0.81,1.32,1.79,1.32c0.97,0,1.79-0.46,1.79-1.32
			c0-0.88-0.82-1.34-1.79-1.34C765.92,277.93,765.11,278.4,765.11,279.28z M765.32,275.09c0,0.84,0.71,1.29,1.58,1.29
			c0.88,0,1.58-0.45,1.58-1.29c0-0.81-0.71-1.25-1.58-1.25C766.03,273.83,765.32,274.27,765.32,275.09z"/>
	</g>
</g>
<g>
	<g>
		<path d="M821.71,273.81c0.53-0.69,1.53-1.69,3.35-1.69c2.05,0,3.33,1.29,3.33,3.17c0,1.2-0.61,2.03-1.42,2.86l-2.09,2.18h3.75
			v1.77h-6.48v-1.48l3.47-3.55c0.52-0.53,0.8-1.06,0.8-1.68c0-0.85-0.59-1.46-1.5-1.46c-0.93,0-1.48,0.5-1.99,1.08L821.71,273.81z"
			/>
		<path d="M838.29,277.2c0,3.17-1.89,5.08-4.23,5.08c-2.35,0-4.22-1.91-4.22-5.08s1.88-5.08,4.22-5.08
			C836.4,272.12,838.29,274.03,838.29,277.2z M831.81,277.2c0,2.14,1,3.26,2.26,3.26c1.26,0,2.25-1.12,2.25-3.26
			s-0.99-3.26-2.25-3.26C832.81,273.94,831.81,275.06,831.81,277.2z"/>
		<path d="M843.63,282.1h-1.89v-7.3l-2.35,0.95v-1.91l4.24-1.71V282.1z"/>
		<path d="M849.07,278.69c-0.13,0.02-0.27,0.03-0.44,0.03c-1.99,0-3.4-1.42-3.4-3.26c0-1.92,1.58-3.34,3.68-3.34
			c2.09,0,3.68,1.41,3.68,3.31c0,0.9-0.34,1.72-0.93,2.61l-2.72,4.07h-2.28L849.07,278.69z M850.63,275.45
			c0-0.95-0.74-1.61-1.72-1.61c-0.99,0-1.72,0.66-1.72,1.61c0,0.95,0.73,1.61,1.72,1.61C849.9,277.06,850.63,276.4,850.63,275.45z"
			/>
	</g>
</g>
<g>
	<g>
		<path d="M898.04,273.81c0.53-0.69,1.53-1.69,3.35-1.69c2.05,0,3.33,1.29,3.33,3.17c0,1.2-0.61,2.03-1.42,2.86l-2.09,2.18h3.75
			v1.77h-6.48v-1.48l3.47-3.55c0.52-0.53,0.8-1.06,0.8-1.68c0-0.85-0.59-1.46-1.5-1.46c-0.93,0-1.48,0.5-1.99,1.08L898.04,273.81z"
			/>
		<path d="M914.63,277.2c0,3.17-1.89,5.08-4.23,5.08c-2.35,0-4.22-1.91-4.22-5.08s1.88-5.08,4.22-5.08
			C912.74,272.12,914.63,274.03,914.63,277.2z M908.14,277.2c0,2.14,1,3.26,2.26,3.26c1.26,0,2.25-1.12,2.25-3.26
			s-0.99-3.26-2.25-3.26C909.14,273.94,908.14,275.06,908.14,277.2z"/>
		<path d="M915.61,273.81c0.53-0.69,1.53-1.69,3.35-1.69c2.05,0,3.33,1.29,3.33,3.17c0,1.2-0.61,2.03-1.42,2.86l-2.09,2.18h3.75
			v1.77h-6.48v-1.48l3.47-3.55c0.52-0.53,0.81-1.06,0.81-1.68c0-0.85-0.6-1.46-1.5-1.46c-0.93,0-1.48,0.5-1.99,1.08L915.61,273.81z"
			/>
		<path d="M932.2,277.2c0,3.17-1.89,5.08-4.23,5.08c-2.35,0-4.22-1.91-4.22-5.08s1.88-5.08,4.22-5.08
			C930.31,272.12,932.2,274.03,932.2,277.2z M925.71,277.2c0,2.14,1,3.26,2.25,3.26c1.26,0,2.25-1.12,2.25-3.26
			s-0.99-3.26-2.25-3.26C926.71,273.94,925.71,275.06,925.71,277.2z"/>
		<path d="M940.18,278.7c0,0.21-0.01,0.46-0.04,0.62h-4.81c0.2,0.98,0.88,1.41,1.74,1.41c0.59,0,1.23-0.24,1.72-0.65l1.07,1.18
			c-0.77,0.71-1.75,1.03-2.89,1.03c-2.08,0-3.52-1.42-3.52-3.55c0-2.14,1.4-3.59,3.43-3.59
			C938.83,275.14,940.17,276.59,940.18,278.7z M935.34,278.07h3c-0.17-0.87-0.69-1.36-1.48-1.36
			C936,276.71,935.5,277.23,935.34,278.07z"/>
	</g>
</g>
</svg>
