<?xml version="1.0" encoding="utf-8"?>
<!-- Generator: Adobe Illustrator 25.0.1, SVG Export Plug-In . SVG Version: 6.00 Build 0)  -->
<svg version="1.1" id="Layer_1" xmlns="http://www.w3.org/2000/svg" xmlns:xlink="http://www.w3.org/1999/xlink" x="0px" y="0px"
	 viewBox="0 0 1000 367" style="enable-background:new 0 0 1000 367;" xml:space="preserve">
<style type="text/css">
	.st0{fill:none;stroke:#000000;stroke-miterlimit:10;}
	.st1{fill:none;stroke:#203232;stroke-width:0.75;stroke-miterlimit:10;}
	.st2{fill:#ED5A36;}
	.st3{fill:#203232;}
</style>
<g>
	<g>
		<path d="M14.8,201.3v2.2H6.4l7.4,2.8v2.4l-7.3,2.8h8.4v2.2H3.7v-3.3l7.6-2.9l-7.6-2.9v-3.3L14.8,201.3L14.8,201.3z"/>
		<path d="M4.6,196.6c0.8,0,1.3,0.6,1.3,1.3s-0.6,1.3-1.3,1.3s-1.3-0.6-1.3-1.3C3.2,197.1,3.8,196.6,4.6,196.6z M14.8,196.9v2.1H7.1
			v-2.1H14.8z"/>
		<path d="M14.8,192.6v2.1H3.3v-2.1H14.8z"/>
		<path d="M14.8,188.3v2.1H3.3v-2.1H14.8z"/>
		<path d="M4.6,183.7c0.8,0,1.3,0.6,1.3,1.3s-0.6,1.3-1.3,1.3s-1.3-0.6-1.3-1.3C3.2,184.3,3.8,183.7,4.6,183.7z M14.8,184v2.1H7.1
			V184H14.8z"/>
		<path d="M11,173.9c2.3,0,4.1,1.8,4.1,4.2c0,2.4-1.7,4.2-4.1,4.2c-2.3,0-4.1-1.8-4.1-4.2C6.9,175.7,8.6,173.9,11,173.9z M11,180.2
			c1.3,0,2.1-0.9,2.1-2.1s-0.9-2.1-2.1-2.1s-2.1,0.9-2.1,2.1S9.7,180.2,11,180.2z"/>
		<path d="M9.9,164.9h4.9v2.1h-4.3c-1.1,0-1.7,0.6-1.7,1.5c0,0.9,0.6,1.6,1.8,1.6h4.2v2.1H7.1v-2H8c-0.8-0.6-1.1-1.4-1.1-2.3
			C6.9,166.1,8.1,164.9,9.9,164.9z"/>
		<path d="M9.2,157.2c-0.3,0.6-0.6,1.6-0.6,2.5c0,0.8,0.3,1.2,0.7,1.2c0.4,0,0.6-0.6,0.7-1.3l0.1-0.7c0.3-1.7,1-2.6,2.3-2.6
			c1.6,0,2.6,1.3,2.6,3.6c0,1.1-0.2,2.4-0.9,3.4l-1.6-0.8c0.4-0.7,0.8-1.5,0.8-2.6c0-1-0.3-1.4-0.7-1.4c-0.4,0-0.6,0.4-0.7,1.3
			l-0.1,0.6c-0.2,1.8-1,2.7-2.3,2.7c-1.6,0-2.5-1.2-2.5-3.3c0-1.2,0.2-2.2,0.7-3.2L9.2,157.2z"/>
		<path d="M5.1,145.5c1,2.1,2.9,3.2,5.2,3.2s4.2-1.1,5.2-3.2l1.9,0.7c-1.1,2.8-3.8,4.7-7,4.7s-6-1.9-7-4.7L5.1,145.5z"/>
		<path d="M2.3,138.4h1.5c0.1-1.3,0.5-2.4,1.1-3.3l1.7,1c-0.4,0.7-0.7,1.4-0.9,2.3h2.6c0.3-2,1.2-3.5,3-3.4c2,0.1,3.1,1.6,3.3,3.4
			h1.6v1.8h-1.5c-0.1,1.4-0.6,2.8-1.3,3.8l-1.7-1.1c0.5-0.6,0.9-1.6,1.1-2.7h-2.6l0,0.1c-0.3,2-1.2,3.4-3.1,3.3
			c-1.8,0-3-1.5-3.2-3.4H2.3C2.3,140.2,2.3,138.4,2.3,138.4z M8,140.2H5.8c0.2,0.7,0.6,1.2,1.2,1.2S7.8,140.9,8,140.2z M10.5,138.4
			h2.2c-0.2-0.7-0.6-1.2-1.2-1.2C11,137.1,10.7,137.6,10.5,138.4z"/>
		<path d="M10.4,123c3.1,0,4.7,2,4.7,4.8c0,2.9-1.6,4.8-4.7,4.8H3.7v-2.2h6.6c1.8,0,2.6-1,2.6-2.6c0-1.5-0.8-2.6-2.6-2.6H3.7V123
			H10.4z"/>
		<path d="M13.5,118.3c0.8,0,1.6,0.7,1.6,1.5c0,0.8-0.7,1.6-1.6,1.6c-0.8,0-1.5-0.7-1.5-1.6C11.9,119,12.6,118.3,13.5,118.3z"/>
		<path d="M6.5,108.8c-0.5,0.9-0.9,1.9-0.9,3.2c0,1.3,0.5,2.1,1.3,2.1c0.8,0,1.1-1,1.3-2.3l0.1-0.6c0.3-2,1.2-3.6,3.1-3.6
			c2.5,0,3.7,2.2,3.7,4.6c0,1.7-0.5,3.5-1.5,4.7l-1.8-1.2c0.6-0.8,1.2-2.1,1.2-3.6c0-1.2-0.5-2.2-1.4-2.2c-0.8,0-1.1,0.8-1.3,2.4
			l-0.1,0.7c-0.3,2-1.2,3.4-3.2,3.4c-2.3,0-3.5-2.1-3.5-4.5c0-1.6,0.3-2.9,1.2-4.3L6.5,108.8z"/>
		<path d="M13.5,103.1c0.8,0,1.6,0.7,1.6,1.5c0,0.8-0.7,1.6-1.6,1.6c-0.8,0-1.5-0.7-1.5-1.6C11.9,103.8,12.6,103.1,13.5,103.1z"/>
		<path d="M15.5,101.9c-1-2.1-2.9-3.2-5.2-3.2s-4.2,1.1-5.2,3.2l-1.9-0.7c1.1-2.8,3.8-4.7,7-4.7s6,1.9,7,4.7L15.5,101.9z"/>
	</g>
</g>
<g>
	<g>
		<path d="M71.5,323.6c-0.7-0.5-1.7-1.5-1.7-3.4c0-2,1.3-3.3,3.2-3.3c1.2,0,2,0.6,2.9,1.4l2.2,2.1v-3.8h1.8v6.5h-1.5l-3.6-3.5
			c-0.5-0.5-1.1-0.8-1.7-0.8c-0.8,0-1.5,0.6-1.5,1.5c0,0.9,0.5,1.5,1.1,2L71.5,323.6z"/>
		<path d="M74.9,307c3.2,0,5.1,1.9,5.1,4.2c0,2.4-1.9,4.2-5.1,4.2s-5.1-1.9-5.1-4.2C69.8,308.9,71.7,307,74.9,307z M74.9,313.5
			c2.1,0,3.3-1,3.3-2.3s-1.1-2.2-3.3-2.2s-3.3,1-3.3,2.2C71.6,312.5,72.8,313.5,74.9,313.5z"/>
		<path d="M79.8,301.7v1.9h-7.3l0.9,2.4h-1.9l-1.7-4.2L79.8,301.7L79.8,301.7z"/>
		<path d="M71.8,293.6v4l2,0v-1.1c0-2.3,1.3-3.4,2.9-3.4c2.1,0,3.3,1.6,3.3,3.6c0,1.5-0.6,2.7-1.5,3.5l-1.3-1.1c0.6-0.5,1-1.5,1-2.4
			c0-1.1-0.6-1.6-1.4-1.6c-0.7,0-1.4,0.5-1.4,2v2.3l-5.4-0.1v-5.6H71.8z"/>
	</g>
</g>
<g>
	<g>
		<path d="M107,323.6c-0.7-0.5-1.7-1.5-1.7-3.4c0-2,1.3-3.3,3.2-3.3c1.2,0,2,0.6,2.9,1.4l2.2,2.1v-3.8h1.8v6.5h-1.5l-3.6-3.5
			c-0.5-0.5-1.1-0.8-1.7-0.8c-0.8,0-1.5,0.6-1.5,1.5c0,0.9,0.5,1.5,1.1,2L107,323.6z"/>
		<path d="M110.4,307c3.2,0,5.1,1.9,5.1,4.2c0,2.4-1.9,4.2-5.1,4.2s-5.1-1.9-5.1-4.2C105.3,308.9,107.2,307,110.4,307z M110.4,313.5
			c2.1,0,3.3-1,3.3-2.2c0-1.3-1.1-2.2-3.3-2.2s-3.3,1-3.3,2.2C107.1,312.5,108.2,313.5,110.4,313.5z"/>
		<path d="M115.3,301.7v1.9H108l0.9,2.4H107l-1.7-4.2L115.3,301.7L115.3,301.7z"/>
		<path d="M108.9,296.6c0-0.1,0-0.3,0-0.5c0-2,1.4-3.4,3.3-3.4c1.9,0,3.3,1.6,3.3,3.7c0,2.1-1.4,3.7-3.3,3.7c-0.9,0-1.7-0.3-2.6-0.9
			l-4.1-2.7v-2.3L108.9,296.6z M112.1,298.1c0.9,0,1.6-0.7,1.6-1.7c0-1-0.7-1.7-1.6-1.7s-1.6,0.7-1.6,1.7
			C110.5,297.4,111.2,298.1,112.1,298.1z"/>
	</g>
</g>
<g>
	<g>
		<path d="M142.5,323.7c-0.7-0.5-1.7-1.5-1.7-3.4c0-2,1.3-3.3,3.2-3.3c1.2,0,2,0.6,2.9,1.4l2.2,2.1v-3.8h1.8v6.5h-1.5l-3.6-3.5
			c-0.5-0.5-1.1-0.8-1.7-0.8c-0.9,0-1.5,0.6-1.5,1.5c0,0.9,0.5,1.5,1.1,2L142.5,323.7z"/>
		<path d="M145.9,307.1c3.2,0,5.1,1.9,5.1,4.2c0,2.4-1.9,4.2-5.1,4.2s-5.1-1.9-5.1-4.2C140.8,309,142.7,307.1,145.9,307.1z
			 M145.9,313.6c2.1,0,3.3-1,3.3-2.3s-1.1-2.2-3.3-2.2s-3.3,1-3.3,2.2C142.6,312.6,143.7,313.6,145.9,313.6z"/>
		<path d="M150.8,301.8v1.9h-7.3l0.9,2.4h-1.9l-1.7-4.2L150.8,301.8L150.8,301.8z"/>
		<path d="M142.5,293.3l8.3,4.1v2.2l-8-4v4.7H141v-6.9H142.5z"/>
	</g>
</g>
<g>
	<g>
		<path d="M178,323.5c-0.7-0.5-1.7-1.5-1.7-3.4c0-2,1.3-3.3,3.2-3.3c1.2,0,2,0.6,2.9,1.4l2.2,2.1v-3.8h1.8v6.5h-1.5l-3.6-3.5
			c-0.5-0.5-1.1-0.8-1.7-0.8c-0.9,0-1.5,0.6-1.5,1.5c0,0.9,0.5,1.5,1.1,2L178,323.5z"/>
		<path d="M181.4,306.9c3.2,0,5.1,1.9,5.1,4.2c0,2.4-1.9,4.2-5.1,4.2s-5.1-1.9-5.1-4.2S178.2,306.9,181.4,306.9z M181.4,313.4
			c2.1,0,3.3-1,3.3-2.2c0-1.3-1.1-2.2-3.3-2.2s-3.3,1-3.3,2.2C178.1,312.4,179.2,313.4,181.4,313.4z"/>
		<path d="M186.3,301.6v1.9H179l0.9,2.4H178l-1.7-4.2L186.3,301.6L186.3,301.6z"/>
		<path d="M179.1,292.4c1.1,0,1.8,0.6,2.2,1.5c0.4-1,1.1-1.7,2.3-1.7c1.8,0,2.8,1.7,2.8,3.8s-1.1,3.8-2.8,3.8
			c-1.2,0-1.9-0.8-2.3-1.7c-0.4,0.9-1.1,1.5-2.2,1.5c-1.8,0-2.8-1.6-2.8-3.6C176.3,294,177.3,292.4,179.1,292.4z M179.2,297.6
			c0.8,0,1.3-0.7,1.3-1.6s-0.4-1.6-1.3-1.6c-0.8,0-1.2,0.7-1.2,1.6S178.4,297.6,179.2,297.6z M183.4,297.8c0.9,0,1.3-0.8,1.3-1.8
			c0-1-0.5-1.8-1.3-1.8c-0.9,0-1.3,0.8-1.3,1.8C182.1,297,182.6,297.8,183.4,297.8z"/>
	</g>
</g>
<g>
	<g>
		<path d="M213.5,323.6c-0.7-0.5-1.7-1.5-1.7-3.4c0-2,1.3-3.3,3.2-3.3c1.2,0,2,0.6,2.9,1.4l2.2,2.1v-3.8h1.8v6.5h-1.5l-3.6-3.5
			c-0.5-0.5-1.1-0.8-1.7-0.8c-0.9,0-1.5,0.6-1.5,1.5c0,0.9,0.5,1.5,1.1,2L213.5,323.6z"/>
		<path d="M216.9,307c3.2,0,5.1,1.9,5.1,4.2c0,2.4-1.9,4.2-5.1,4.2s-5.1-1.9-5.1-4.2S213.7,307,216.9,307z M216.9,313.5
			c2.1,0,3.3-1,3.3-2.2c0-1.3-1.1-2.2-3.3-2.2s-3.3,1-3.3,2.2C213.6,312.5,214.7,313.5,216.9,313.5z"/>
		<path d="M221.8,301.7v1.9h-7.3l0.9,2.4h-1.9l-1.7-4.2L221.8,301.7L221.8,301.7z"/>
		<path d="M218.4,296.2c0,0.1,0,0.3,0,0.4c0,2-1.4,3.4-3.3,3.4c-1.9,0-3.3-1.6-3.3-3.7c0-2.1,1.4-3.7,3.3-3.7c0.9,0,1.7,0.3,2.6,0.9
			l4.1,2.7v2.3L218.4,296.2z M215.1,294.7c-0.9,0-1.6,0.7-1.6,1.7c0,1,0.7,1.7,1.6,1.7s1.6-0.7,1.6-1.7
			C216.7,295.4,216.1,294.7,215.1,294.7z"/>
	</g>
</g>
<g>
	<g>
		<path d="M248.9,323.1c-0.7-0.5-1.7-1.5-1.7-3.4c0-2,1.3-3.3,3.2-3.3c1.2,0,2,0.6,2.9,1.4l2.2,2.1v-3.8h1.8v6.5h-1.5l-3.6-3.5
			c-0.5-0.5-1.1-0.8-1.7-0.8c-0.9,0-1.5,0.6-1.5,1.5c0,0.9,0.5,1.5,1.1,2L248.9,323.1z"/>
		<path d="M252.3,306.5c3.2,0,5.1,1.9,5.1,4.2c0,2.4-1.9,4.2-5.1,4.2s-5.1-1.9-5.1-4.2C247.3,308.4,249.2,306.5,252.3,306.5z
			 M252.3,313c2.1,0,3.3-1,3.3-2.3s-1.1-2.2-3.3-2.2s-3.3,1-3.3,2.2S250.2,313,252.3,313z"/>
		<path d="M248.9,305.5c-0.7-0.5-1.7-1.5-1.7-3.4c0-2,1.3-3.3,3.2-3.3c1.2,0,2,0.6,2.9,1.4l2.2,2.1v-3.8h1.8v6.5h-1.5l-3.6-3.5
			c-0.5-0.5-1.1-0.8-1.7-0.8c-0.9,0-1.5,0.6-1.5,1.5c0,0.9,0.5,1.5,1.1,2L248.9,305.5z"/>
		<path d="M252.3,289c3.2,0,5.1,1.9,5.1,4.2c0,2.4-1.9,4.2-5.1,4.2s-5.1-1.9-5.1-4.2C247.3,290.8,249.2,289,252.3,289z M252.3,295.4
			c2.1,0,3.3-1,3.3-2.3s-1.1-2.2-3.3-2.2s-3.3,1-3.3,2.2S250.2,295.4,252.3,295.4z"/>
	</g>
</g>
<g>
	<g>
		<path d="M284.4,323.7c-0.7-0.5-1.7-1.5-1.7-3.4c0-2,1.3-3.3,3.2-3.3c1.2,0,2,0.6,2.9,1.4l2.2,2.1v-3.8h1.8v6.5h-1.5l-3.5-3.5
			c-0.5-0.5-1.1-0.8-1.7-0.8c-0.9,0-1.5,0.6-1.5,1.5c0,0.9,0.5,1.5,1.1,2L284.4,323.7z"/>
		<path d="M287.8,307.1c3.2,0,5.1,1.9,5.1,4.2c0,2.4-1.9,4.2-5.1,4.2c-3.2,0-5.1-1.9-5.1-4.2C282.8,309,284.7,307.1,287.8,307.1z
			 M287.8,313.6c2.1,0,3.3-1,3.3-2.3s-1.1-2.2-3.3-2.2s-3.3,1-3.3,2.2C284.6,312.6,285.7,313.6,287.8,313.6z"/>
		<path d="M284.4,306.1c-0.7-0.5-1.7-1.5-1.7-3.4c0-2,1.3-3.3,3.2-3.3c1.2,0,2,0.6,2.9,1.4l2.2,2.1v-3.8h1.8v6.5h-1.5l-3.5-3.5
			c-0.5-0.5-1.1-0.8-1.7-0.8c-0.9,0-1.5,0.6-1.5,1.5c0,0.9,0.5,1.5,1.1,2L284.4,306.1z"/>
		<path d="M292.7,294.1v1.9h-7.3l1,2.4h-1.9l-1.7-4.2L292.7,294.1L292.7,294.1z"/>
	</g>
</g>
<g>
	<g>
		<path d="M319.9,323.4c-0.7-0.5-1.7-1.5-1.7-3.4c0-2,1.3-3.3,3.2-3.3c1.2,0,2,0.6,2.9,1.4l2.2,2.1v-3.8h1.8v6.5h-1.5l-3.5-3.5
			c-0.5-0.5-1.1-0.8-1.7-0.8c-0.9,0-1.5,0.6-1.5,1.5c0,0.9,0.5,1.5,1.1,2L319.9,323.4z"/>
		<path d="M323.3,306.8c3.2,0,5.1,1.9,5.1,4.2c0,2.4-1.9,4.2-5.1,4.2c-3.2,0-5.1-1.9-5.1-4.2C318.2,308.7,320.1,306.8,323.3,306.8z
			 M323.3,313.3c2.1,0,3.3-1,3.3-2.2c0-1.3-1.1-2.2-3.3-2.2s-3.3,1-3.3,2.2C320,312.3,321.2,313.3,323.3,313.3z"/>
		<path d="M319.9,305.8c-0.7-0.5-1.7-1.5-1.7-3.4c0-2,1.3-3.3,3.2-3.3c1.2,0,2,0.6,2.9,1.4l2.2,2.1v-3.8h1.8v6.5h-1.5l-3.5-3.5
			c-0.5-0.5-1.1-0.8-1.7-0.8c-0.9,0-1.5,0.6-1.5,1.5c0,0.9,0.5,1.5,1.1,2L319.9,305.8z"/>
		<path d="M319.9,297.9c-0.7-0.5-1.7-1.5-1.7-3.4c0-2,1.3-3.3,3.2-3.3c1.2,0,2,0.6,2.9,1.4l2.2,2.1V291h1.8v6.5h-1.5l-3.5-3.5
			c-0.5-0.5-1.1-0.8-1.7-0.8c-0.9,0-1.5,0.6-1.5,1.5c0,0.9,0.5,1.5,1.1,2L319.9,297.9z"/>
	</g>
</g>
<g>
	<g>
		<path d="M355.4,323.4c-0.7-0.5-1.7-1.5-1.7-3.4c0-2,1.3-3.3,3.2-3.3c1.2,0,2,0.6,2.9,1.4l2.2,2.1v-3.8h1.8v6.5h-1.5l-3.5-3.5
			c-0.5-0.5-1.1-0.8-1.7-0.8c-0.9,0-1.5,0.6-1.5,1.5c0,0.9,0.5,1.5,1.1,2L355.4,323.4z"/>
		<path d="M358.8,306.8c3.2,0,5.1,1.9,5.1,4.2c0,2.4-1.9,4.2-5.1,4.2c-3.2,0-5.1-1.9-5.1-4.2C353.7,308.7,355.6,306.8,358.8,306.8z
			 M358.8,313.3c2.1,0,3.3-1,3.3-2.2c0-1.3-1.1-2.2-3.3-2.2s-3.3,1-3.3,2.2C355.5,312.3,356.7,313.3,358.8,313.3z"/>
		<path d="M355.4,305.8c-0.7-0.5-1.7-1.5-1.7-3.4c0-2,1.3-3.3,3.2-3.3c1.2,0,2,0.6,2.9,1.4l2.2,2.1v-3.8h1.8v6.5h-1.5l-3.5-3.5
			c-0.5-0.5-1.1-0.8-1.7-0.8c-0.9,0-1.5,0.6-1.5,1.5c0,0.9,0.5,1.5,1.1,2L355.4,305.8z"/>
		<path d="M356.5,291.2c1,0,1.8,0.5,2.2,1.5c0.4-1,1.2-1.7,2.2-1.7c1.9,0,2.9,1.8,2.9,3.6c0,1.5-0.5,2.7-1.4,3.4l-1.2-1.1
			c0.6-0.6,0.9-1.4,0.9-2.2c0-1-0.4-1.7-1.3-1.7c-0.8,0-1.3,0.9-1.3,1.9v1.1h-1.7v-1.1c0-1-0.4-1.7-1.2-1.7c-0.8,0-1.2,0.7-1.2,1.6
			s0.5,1.6,1,2l-1.2,1.2c-0.9-0.6-1.5-1.7-1.5-3.3C353.7,292.6,354.9,291.2,356.5,291.2z"/>
	</g>
</g>
<g>
	<g>
		<path d="M390.9,323.3c-0.7-0.5-1.7-1.5-1.7-3.4c0-2,1.3-3.3,3.2-3.3c1.2,0,2,0.6,2.9,1.4l2.2,2.1v-3.8h1.8v6.5h-1.5l-3.5-3.5
			c-0.5-0.5-1.1-0.8-1.7-0.8c-0.9,0-1.5,0.6-1.5,1.5c0,0.9,0.5,1.5,1.1,2L390.9,323.3z"/>
		<path d="M394.3,306.8c3.2,0,5.1,1.9,5.1,4.2c0,2.4-1.9,4.2-5.1,4.2c-3.2,0-5.1-1.9-5.1-4.2C389.2,308.6,391.1,306.8,394.3,306.8z
			 M394.3,313.2c2.1,0,3.3-1,3.3-2.2c0-1.3-1.1-2.3-3.3-2.3s-3.3,1-3.3,2.3C391,312.2,392.1,313.2,394.3,313.2z"/>
		<path d="M390.9,305.8c-0.7-0.5-1.7-1.5-1.7-3.4c0-2,1.3-3.3,3.2-3.3c1.2,0,2,0.6,2.9,1.4l2.2,2.1v-3.8h1.8v6.5h-1.5l-3.5-3.5
			c-0.5-0.5-1.1-0.8-1.7-0.8c-0.9,0-1.5,0.6-1.5,1.5c0,0.9,0.5,1.5,1.1,2L390.9,305.8z"/>
		<path d="M395.6,291.8v-1.4h1.8v1.4h1.8v1.9h-1.8v4.4H396l-6.6-3.4v-2.1l6.2,3.3v-2.1H393v-1.9H395.6z"/>
	</g>
</g>
<g>
	<g>
		<path d="M426.4,323.4c-0.7-0.5-1.7-1.5-1.7-3.4c0-2,1.3-3.3,3.2-3.3c1.2,0,2,0.6,2.9,1.4l2.2,2.1v-3.8h1.8v6.5h-1.5l-3.5-3.5
			c-0.5-0.5-1.1-0.8-1.7-0.8c-0.9,0-1.5,0.6-1.5,1.5c0,0.9,0.5,1.5,1.1,2L426.4,323.4z"/>
		<path d="M429.8,306.8c3.2,0,5.1,1.9,5.1,4.2c0,2.4-1.9,4.2-5.1,4.2c-3.2,0-5.1-1.9-5.1-4.2C424.7,308.6,426.6,306.8,429.8,306.8z
			 M429.8,313.2c2.1,0,3.3-1,3.3-2.2c0-1.3-1.1-2.2-3.3-2.2s-3.3,1-3.3,2.2C426.5,312.2,427.6,313.2,429.8,313.2z"/>
		<path d="M426.4,305.8c-0.7-0.5-1.7-1.5-1.7-3.4c0-2,1.3-3.3,3.2-3.3c1.2,0,2,0.6,2.9,1.4l2.2,2.1v-3.8h1.8v6.5h-1.5l-3.5-3.5
			c-0.5-0.5-1.1-0.8-1.7-0.8c-0.9,0-1.5,0.6-1.5,1.5c0,0.9,0.5,1.5,1.1,2L426.4,305.8z"/>
		<path d="M426.6,291.4v4l2,0v-1.1c0-2.3,1.3-3.4,3-3.4c2.1,0,3.3,1.6,3.3,3.6c0,1.5-0.5,2.7-1.5,3.5l-1.3-1.1c0.6-0.5,1-1.5,1-2.4
			c0-1.1-0.6-1.6-1.4-1.6c-0.7,0-1.4,0.5-1.4,2v2.3l-5.4-0.1v-5.6L426.6,291.4L426.6,291.4z"/>
	</g>
</g>
<g>
	<g>
		<path d="M461.9,323.3c-0.7-0.5-1.7-1.5-1.7-3.4c0-2,1.3-3.3,3.2-3.3c1.2,0,2,0.6,2.9,1.4l2.2,2.1v-3.8h1.8v6.5h-1.5l-3.5-3.5
			c-0.5-0.5-1.1-0.8-1.7-0.8c-0.9,0-1.5,0.6-1.5,1.5c0,0.9,0.5,1.5,1.1,2L461.9,323.3z"/>
		<path d="M465.3,306.8c3.2,0,5.1,1.9,5.1,4.2c0,2.4-1.9,4.2-5.1,4.2c-3.2,0-5.1-1.9-5.1-4.2S462.1,306.8,465.3,306.8z M465.3,313.2
			c2.1,0,3.3-1,3.3-2.3s-1.1-2.2-3.3-2.2s-3.3,1-3.3,2.2C462,312.2,463.1,313.2,465.3,313.2z"/>
		<path d="M461.9,305.8c-0.7-0.5-1.7-1.5-1.7-3.4c0-2,1.3-3.3,3.2-3.3c1.2,0,2,0.6,2.9,1.4l2.2,2.1v-3.8h1.8v6.5h-1.5l-3.5-3.5
			c-0.5-0.5-1.1-0.8-1.7-0.8c-0.9,0-1.5,0.6-1.5,1.5c0,0.9,0.5,1.5,1.1,2L461.9,305.8z"/>
		<path d="M463.8,294.4c0-0.1,0-0.3,0-0.5c0-2,1.4-3.4,3.3-3.4c1.9,0,3.3,1.6,3.3,3.7c0,2.1-1.4,3.7-3.3,3.7c-0.9,0-1.7-0.3-2.6-0.9
			l-4.1-2.7V292L463.8,294.4z M467,296c1,0,1.6-0.7,1.6-1.7c0-1-0.7-1.7-1.6-1.7c-1,0-1.6,0.7-1.6,1.7
			C465.4,295.2,466.1,296,467,296z"/>
	</g>
</g>
<g>
	<g>
		<path d="M497.4,323.4c-0.7-0.5-1.7-1.5-1.7-3.4c0-2,1.3-3.3,3.2-3.3c1.2,0,2,0.6,2.9,1.4l2.2,2.1v-3.8h1.8v6.5h-1.5l-3.5-3.5
			c-0.5-0.5-1.1-0.8-1.7-0.8c-0.9,0-1.5,0.6-1.5,1.5c0,0.9,0.5,1.5,1.1,2L497.4,323.4z"/>
		<path d="M500.8,306.8c3.2,0,5.1,1.9,5.1,4.2c0,2.4-1.9,4.2-5.1,4.2c-3.2,0-5.1-1.9-5.1-4.2C495.7,308.7,497.6,306.8,500.8,306.8z
			 M500.8,313.3c2.1,0,3.3-1,3.3-2.2c0-1.3-1.1-2.3-3.3-2.3s-3.3,1-3.3,2.3C497.5,312.3,498.6,313.3,500.8,313.3z"/>
		<path d="M497.4,305.9c-0.7-0.5-1.7-1.5-1.7-3.4c0-2,1.3-3.3,3.2-3.3c1.2,0,2,0.6,2.9,1.4l2.2,2.1v-3.8h1.8v6.5h-1.5l-3.5-3.5
			c-0.5-0.5-1.1-0.8-1.7-0.8c-0.9,0-1.5,0.6-1.5,1.5c0,0.9,0.5,1.5,1.1,2L497.4,305.9z"/>
		<path d="M497.3,291.1l8.3,4.1v2.2l-8-4v4.6h-1.8v-6.9H497.3z"/>
	</g>
</g>
<g>
	<g>
		<path d="M532.8,323.2c-0.7-0.5-1.7-1.5-1.7-3.4c0-2,1.3-3.3,3.2-3.3c1.2,0,2,0.6,2.9,1.4l2.2,2.1v-3.8h1.8v6.5h-1.5l-3.5-3.5
			c-0.5-0.5-1.1-0.8-1.7-0.8c-0.8,0-1.5,0.6-1.5,1.5c0,0.9,0.5,1.5,1.1,2L532.8,323.2z"/>
		<path d="M536.2,306.7c3.2,0,5.1,1.9,5.1,4.2c0,2.4-1.9,4.2-5.1,4.2s-5.1-1.9-5.1-4.2C531.2,308.5,533.1,306.7,536.2,306.7z
			 M536.2,313.1c2.1,0,3.3-1,3.3-2.2c0-1.3-1.1-2.2-3.3-2.2s-3.3,1-3.3,2.2C533,312.1,534.1,313.1,536.2,313.1z"/>
		<path d="M532.8,305.7c-0.7-0.5-1.7-1.5-1.7-3.4c0-2,1.3-3.3,3.2-3.3c1.2,0,2,0.6,2.9,1.4l2.2,2.1v-3.8h1.8v6.5h-1.5l-3.5-3.5
			c-0.5-0.5-1.1-0.8-1.7-0.8c-0.8,0-1.5,0.6-1.5,1.5c0,0.9,0.5,1.5,1.1,2L532.8,305.7z"/>
		<path d="M534,290.2c1.1,0,1.8,0.6,2.2,1.5c0.4-1,1.1-1.7,2.3-1.7c1.8,0,2.8,1.7,2.8,3.8s-1.1,3.8-2.8,3.8c-1.2,0-1.9-0.8-2.3-1.7
			c-0.4,0.9-1.1,1.5-2.2,1.5c-1.8,0-2.8-1.6-2.8-3.6C531.2,291.8,532.2,290.2,534,290.2z M534.1,295.4c0.8,0,1.3-0.7,1.3-1.6
			s-0.5-1.6-1.3-1.6c-0.8,0-1.2,0.7-1.2,1.6S533.3,295.4,534.1,295.4z M538.3,295.6c0.9,0,1.3-0.8,1.3-1.8c0-1-0.5-1.8-1.3-1.8
			c-0.9,0-1.3,0.8-1.3,1.8C537,294.8,537.4,295.6,538.3,295.6z"/>
	</g>
</g>
<g>
	<g>
		<path d="M568.3,323.3c-0.7-0.5-1.7-1.5-1.7-3.4c0-2,1.3-3.3,3.2-3.3c1.2,0,2,0.6,2.9,1.4l2.2,2.1v-3.8h1.8v6.5h-1.5l-3.5-3.5
			c-0.5-0.5-1.1-0.8-1.7-0.8c-0.8,0-1.5,0.6-1.5,1.5c0,0.9,0.5,1.5,1.1,2L568.3,323.3z"/>
		<path d="M571.7,306.8c3.2,0,5.1,1.9,5.1,4.2c0,2.4-1.9,4.2-5.1,4.2c-3.2,0-5.1-1.9-5.1-4.2C566.7,308.6,568.6,306.8,571.7,306.8z
			 M571.7,313.2c2.1,0,3.3-1,3.3-2.3s-1.1-2.2-3.3-2.2s-3.3,1-3.3,2.2S569.6,313.2,571.7,313.2z"/>
		<path d="M568.3,305.8c-0.7-0.5-1.7-1.5-1.7-3.4c0-2,1.3-3.3,3.2-3.3c1.2,0,2,0.6,2.9,1.4l2.2,2.1v-3.8h1.8v6.5h-1.5l-3.5-3.5
			c-0.5-0.5-1.1-0.8-1.7-0.8c-0.8,0-1.5,0.6-1.5,1.5c0,0.9,0.5,1.5,1.1,2L568.3,305.8z"/>
		<path d="M573.2,294c0,0.1,0,0.3,0,0.4c0,2-1.4,3.4-3.3,3.4c-1.9,0-3.3-1.6-3.3-3.7c0-2.1,1.4-3.7,3.3-3.7c0.9,0,1.7,0.3,2.6,0.9
			l4.1,2.7v2.3L573.2,294z M570,292.5c-1,0-1.6,0.7-1.6,1.7c0,1,0.7,1.7,1.6,1.7s1.6-0.7,1.6-1.7C571.6,293.2,570.9,292.5,570,292.5
			z"/>
	</g>
</g>
<g>
	<g>
		<path d="M603.8,323.1c-0.7-0.5-1.7-1.5-1.7-3.4c0-2,1.3-3.3,3.2-3.3c1.2,0,2,0.6,2.9,1.4l2.2,2.1v-3.8h1.8v6.5h-1.5l-3.5-3.5
			c-0.5-0.5-1.1-0.8-1.7-0.8c-0.8,0-1.5,0.6-1.5,1.5c0,0.9,0.5,1.5,1.1,2L603.8,323.1z"/>
		<path d="M607.2,306.5c3.2,0,5.1,1.9,5.1,4.2c0,2.4-1.9,4.2-5.1,4.2s-5.1-1.9-5.1-4.2C602.1,308.4,604,306.5,607.2,306.5z
			 M607.2,313c2.1,0,3.3-1,3.3-2.3s-1.1-2.2-3.3-2.2s-3.3,1-3.3,2.2C604,312,605.1,313,607.2,313z"/>
		<path d="M605,298.8c1,0,1.8,0.5,2.2,1.5c0.4-1,1.2-1.7,2.2-1.7c1.9,0,2.9,1.8,2.9,3.6c0,1.5-0.5,2.7-1.4,3.4l-1.2-1.1
			c0.6-0.6,0.9-1.4,0.9-2.2c0-1-0.4-1.7-1.3-1.7c-0.8,0-1.3,0.9-1.3,1.9v1.1h-1.7v-1.1c0-1-0.4-1.7-1.2-1.7c-0.8,0-1.2,0.7-1.2,1.6
			s0.5,1.6,1,2l-1.2,1.2c-0.9-0.6-1.5-1.7-1.5-3.3C602.1,300.2,603.3,298.8,605,298.8z"/>
		<path d="M607.2,288.8c3.2,0,5.1,1.9,5.1,4.2c0,2.4-1.9,4.2-5.1,4.2s-5.1-1.9-5.1-4.2C602.1,290.7,604,288.8,607.2,288.8z
			 M607.2,295.3c2.1,0,3.3-1,3.3-2.3s-1.1-2.2-3.3-2.2s-3.3,1-3.3,2.2C604,294.3,605.1,295.3,607.2,295.3z"/>
	</g>
</g>
<g>
	<g>
		<path d="M639.3,323.7c-0.7-0.5-1.7-1.5-1.7-3.4c0-2,1.3-3.3,3.2-3.3c1.2,0,2,0.6,2.9,1.4l2.2,2.1v-3.8h1.8v6.5h-1.5l-3.5-3.5
			c-0.5-0.5-1.1-0.8-1.7-0.8c-0.8,0-1.5,0.6-1.5,1.5c0,0.9,0.5,1.5,1.1,2L639.3,323.7z"/>
		<path d="M642.7,307.1c3.2,0,5.1,1.9,5.1,4.2c0,2.4-1.9,4.2-5.1,4.2c-3.2,0-5.1-1.9-5.1-4.2S639.5,307.1,642.7,307.1z M642.7,313.6
			c2.1,0,3.3-1,3.3-2.3s-1.1-2.2-3.3-2.2s-3.3,1-3.3,2.2C639.4,312.6,640.6,313.6,642.7,313.6z"/>
		<path d="M640.4,299.4c1,0,1.8,0.5,2.2,1.5c0.4-1,1.2-1.7,2.2-1.7c1.9,0,2.9,1.8,2.9,3.6c0,1.5-0.5,2.7-1.4,3.4l-1.2-1.1
			c0.6-0.6,0.9-1.4,0.9-2.2c0-1-0.4-1.7-1.3-1.7c-0.8,0-1.3,0.9-1.3,1.9v1.1h-1.7V303c0-1-0.4-1.7-1.2-1.7c-0.8,0-1.2,0.7-1.2,1.6
			s0.5,1.6,1,2l-1.2,1.2c-0.9-0.6-1.5-1.7-1.5-3.3C637.6,300.8,638.8,299.4,640.4,299.4z"/>
		<path d="M647.6,294v1.9h-7.3l1,2.4h-1.9l-1.7-4.2L647.6,294L647.6,294z"/>
	</g>
</g>
<g>
	<g>
		<path d="M674.8,323.4c-0.7-0.5-1.7-1.5-1.7-3.4c0-2,1.3-3.3,3.2-3.3c1.2,0,2,0.6,2.9,1.4l2.2,2.1v-3.8h1.8v6.5h-1.5l-3.5-3.5
			c-0.5-0.5-1.1-0.8-1.7-0.8c-0.8,0-1.5,0.6-1.5,1.5c0,0.9,0.5,1.5,1.1,2L674.8,323.4z"/>
		<path d="M678.2,306.8c3.2,0,5.1,1.9,5.1,4.2c0,2.4-1.9,4.2-5.1,4.2s-5.1-1.9-5.1-4.2C673.1,308.7,675,306.8,678.2,306.8z
			 M678.2,313.3c2.1,0,3.3-1,3.3-2.3s-1.1-2.2-3.3-2.2s-3.3,1-3.3,2.2S676,313.3,678.2,313.3z"/>
		<path d="M675.9,299.1c1,0,1.8,0.5,2.2,1.5c0.4-1,1.2-1.7,2.2-1.7c1.9,0,2.9,1.8,2.9,3.6c0,1.5-0.5,2.7-1.4,3.4l-1.2-1.1
			c0.6-0.6,0.9-1.4,0.9-2.2c0-1-0.4-1.7-1.3-1.7c-0.8,0-1.3,0.9-1.3,1.9v1.1h-1.7v-1.1c0-1-0.4-1.7-1.2-1.7c-0.8,0-1.2,0.7-1.2,1.6
			s0.5,1.6,1,2l-1.2,1.2c-0.9-0.6-1.5-1.7-1.5-3.3C673.1,300.5,674.2,299.1,675.9,299.1z"/>
		<path d="M674.8,297.8c-0.7-0.5-1.7-1.5-1.7-3.4c0-2,1.3-3.3,3.2-3.3c1.2,0,2,0.6,2.9,1.4l2.2,2.1v-3.8h1.8v6.5h-1.5l-3.5-3.5
			c-0.5-0.5-1.1-0.8-1.7-0.8c-0.8,0-1.5,0.6-1.5,1.5c0,0.9,0.5,1.5,1.1,2L674.8,297.8z"/>
	</g>
</g>
<g>
	<g>
		<path d="M710.3,323.4c-0.7-0.5-1.7-1.5-1.7-3.4c0-2,1.3-3.3,3.2-3.3c1.2,0,2,0.6,2.9,1.4l2.2,2.1v-3.8h1.8v6.5h-1.5l-3.5-3.5
			c-0.5-0.5-1.1-0.8-1.7-0.8c-0.8,0-1.5,0.6-1.5,1.5c0,0.9,0.5,1.5,1.1,2L710.3,323.4z"/>
		<path d="M713.7,306.8c3.2,0,5.1,1.9,5.1,4.2c0,2.4-1.9,4.2-5.1,4.2s-5.1-1.9-5.1-4.2S710.5,306.8,713.7,306.8z M713.7,313.2
			c2.1,0,3.3-1,3.3-2.3s-1.1-2.2-3.3-2.2s-3.3,1-3.3,2.2S711.5,313.2,713.7,313.2z"/>
		<path d="M711.4,299.1c1,0,1.8,0.5,2.2,1.5c0.4-1,1.2-1.7,2.2-1.7c1.9,0,2.9,1.8,2.9,3.6c0,1.5-0.5,2.7-1.4,3.4l-1.2-1.1
			c0.6-0.6,0.9-1.4,0.9-2.2c0-1-0.4-1.7-1.3-1.7c-0.8,0-1.3,0.9-1.3,1.9v1.1h-1.7v-1.1c0-1-0.4-1.7-1.2-1.7c-0.8,0-1.2,0.7-1.2,1.6
			s0.5,1.6,1,2l-1.2,1.2c-0.9-0.6-1.5-1.7-1.5-3.3C708.6,300.5,709.7,299.1,711.4,299.1z"/>
		<path d="M711.4,291.1c1,0,1.8,0.5,2.2,1.5c0.4-1,1.2-1.7,2.2-1.7c1.9,0,2.9,1.8,2.9,3.6c0,1.5-0.5,2.7-1.4,3.4l-1.2-1.1
			c0.6-0.6,0.9-1.4,0.9-2.2c0-1-0.4-1.7-1.3-1.7c-0.8,0-1.3,0.9-1.3,1.9v1.1h-1.7v-1.1c0-1-0.4-1.7-1.2-1.7c-0.8,0-1.2,0.7-1.2,1.6
			s0.5,1.6,1,2l-1.2,1.2c-0.9-0.6-1.5-1.7-1.5-3.3C708.6,292.5,709.7,291.1,711.4,291.1z"/>
	</g>
</g>
<g>
	<g>
		<path d="M745.8,323.3c-0.7-0.5-1.7-1.5-1.7-3.4c0-2,1.3-3.3,3.2-3.3c1.2,0,2,0.6,2.9,1.4l2.2,2.1v-3.8h1.8v6.5h-1.5l-3.5-3.5
			c-0.5-0.5-1.1-0.8-1.7-0.8c-0.8,0-1.5,0.6-1.5,1.5c0,0.9,0.5,1.5,1.1,2L745.8,323.3z"/>
		<path d="M749.2,306.7c3.2,0,5.1,1.9,5.1,4.2c0,2.4-1.9,4.2-5.1,4.2c-3.2,0-5.1-1.9-5.1-4.2C744.1,308.6,746,306.7,749.2,306.7z
			 M749.2,313.2c2.1,0,3.3-1,3.3-2.2c0-1.3-1.1-2.2-3.3-2.2s-3.3,1-3.3,2.2C745.9,312.2,747,313.2,749.2,313.2z"/>
		<path d="M746.9,299c1,0,1.8,0.5,2.2,1.5c0.4-1,1.2-1.7,2.2-1.7c1.9,0,2.9,1.8,2.9,3.6c0,1.5-0.5,2.7-1.4,3.4l-1.2-1.1
			c0.6-0.6,0.9-1.4,0.9-2.2c0-1-0.4-1.7-1.3-1.7c-0.8,0-1.3,0.9-1.3,1.9v1.1h-1.7v-1.1c0-1-0.4-1.7-1.2-1.7c-0.8,0-1.2,0.7-1.2,1.6
			s0.5,1.6,1,2l-1.2,1.2c-0.9-0.6-1.5-1.7-1.5-3.3C744.1,300.5,745.2,299,746.9,299z"/>
		<path d="M750.5,291.5v-1.4h1.8v1.4h1.8v1.9h-1.8v4.4h-1.4l-6.6-3.4v-2.1l6.2,3.3v-2.1h-2.6v-1.9H750.5z"/>
	</g>
</g>
<g>
	<g>
		<path d="M781.3,323.3c-0.7-0.5-1.7-1.5-1.7-3.4c0-2,1.3-3.3,3.2-3.3c1.2,0,2,0.6,2.9,1.4l2.2,2.1v-3.8h1.8v6.5h-1.5l-3.5-3.5
			c-0.5-0.5-1.1-0.8-1.7-0.8c-0.8,0-1.5,0.6-1.5,1.5c0,0.9,0.5,1.5,1.1,2L781.3,323.3z"/>
		<path d="M784.7,306.8c3.2,0,5.1,1.9,5.1,4.2c0,2.4-1.9,4.2-5.1,4.2s-5.1-1.9-5.1-4.2C779.6,308.6,781.5,306.8,784.7,306.8z
			 M784.7,313.2c2.1,0,3.3-1,3.3-2.2c0-1.3-1.1-2.3-3.3-2.3s-3.3,1-3.3,2.3C781.4,312.2,782.5,313.2,784.7,313.2z"/>
		<path d="M782.4,299.1c1,0,1.8,0.5,2.2,1.5c0.4-1,1.2-1.7,2.2-1.7c1.9,0,2.9,1.8,2.9,3.6c0,1.5-0.5,2.7-1.4,3.4l-1.2-1.1
			c0.6-0.6,0.9-1.4,0.9-2.2c0-1-0.4-1.7-1.3-1.7c-0.8,0-1.3,0.9-1.3,1.9v1.1h-1.7v-1.1c0-1-0.4-1.7-1.2-1.7c-0.8,0-1.2,0.7-1.2,1.6
			s0.5,1.6,1,2l-1.2,1.2c-0.9-0.6-1.5-1.7-1.5-3.3C779.6,300.5,780.7,299.1,782.4,299.1z"/>
		<path d="M781.5,291.3v4l2,0v-1.1c0-2.3,1.3-3.4,3-3.4c2.1,0,3.3,1.6,3.3,3.6c0,1.5-0.5,2.7-1.5,3.5l-1.3-1.1c0.6-0.5,1-1.5,1-2.4
			c0-1.1-0.6-1.6-1.4-1.6c-0.7,0-1.4,0.5-1.4,2v2.3l-5.4-0.1v-5.6L781.5,291.3L781.5,291.3z"/>
	</g>
</g>
<g>
	<g>
		<path d="M816.8,323.3c-0.7-0.5-1.7-1.5-1.7-3.4c0-2,1.3-3.3,3.2-3.3c1.2,0,2,0.6,2.9,1.4l2.2,2.1v-3.8h1.8v6.5h-1.5l-3.5-3.5
			c-0.5-0.5-1.1-0.8-1.7-0.8c-0.8,0-1.5,0.6-1.5,1.5c0,0.9,0.5,1.5,1.1,2L816.8,323.3z"/>
		<path d="M820.1,306.7c3.2,0,5.1,1.9,5.1,4.2c0,2.4-1.9,4.2-5.1,4.2c-3.2,0-5.1-1.9-5.1-4.2C815.1,308.6,817,306.7,820.1,306.7z
			 M820.1,313.2c2.1,0,3.3-1,3.3-2.3s-1.1-2.2-3.3-2.2s-3.3,1-3.3,2.2S818,313.2,820.1,313.2z"/>
		<path d="M817.9,299c1,0,1.8,0.5,2.2,1.5c0.4-1,1.2-1.7,2.2-1.7c1.9,0,2.9,1.8,2.9,3.6c0,1.5-0.5,2.7-1.4,3.4l-1.2-1.1
			c0.6-0.6,0.9-1.4,0.9-2.2c0-1-0.4-1.7-1.3-1.7c-0.8,0-1.3,0.9-1.3,1.9v1.1h-1.7v-1.1c0-1-0.4-1.7-1.2-1.7c-0.8,0-1.2,0.7-1.2,1.6
			s0.5,1.6,1,2l-1.2,1.2c-0.9-0.6-1.5-1.7-1.5-3.3C815.1,300.5,816.2,299,817.9,299z"/>
		<path d="M818.7,294.3c0-0.1,0-0.3,0-0.5c0-2,1.4-3.4,3.3-3.4c1.9,0,3.3,1.6,3.3,3.7c0,2.1-1.4,3.7-3.3,3.7c-0.9,0-1.7-0.3-2.6-0.9
			l-4.1-2.7v-2.3L818.7,294.3z M821.9,295.8c1,0,1.6-0.7,1.6-1.7c0-1-0.7-1.7-1.6-1.7s-1.6,0.7-1.6,1.7
			C820.3,295.1,821,295.8,821.9,295.8z"/>
	</g>
</g>
<g>
	<g>
		<path d="M852.2,323.4c-0.7-0.5-1.7-1.5-1.7-3.4c0-2,1.3-3.3,3.2-3.3c1.2,0,2,0.6,2.9,1.4l2.2,2.1v-3.8h1.8v6.5H859l-3.5-3.5
			c-0.5-0.5-1.1-0.8-1.7-0.8c-0.8,0-1.5,0.6-1.5,1.5c0,0.9,0.5,1.5,1.1,2L852.2,323.4z"/>
		<path d="M855.6,306.8c3.2,0,5.1,1.9,5.1,4.2c0,2.4-1.9,4.2-5.1,4.2s-5.1-1.9-5.1-4.2S852.5,306.8,855.6,306.8z M855.6,313.3
			c2.1,0,3.3-1,3.3-2.2c0-1.3-1.1-2.3-3.3-2.3s-3.3,1-3.3,2.3C852.4,312.3,853.5,313.3,855.6,313.3z"/>
		<path d="M853.4,299.1c1,0,1.8,0.5,2.2,1.5c0.4-1,1.2-1.7,2.2-1.7c1.9,0,2.9,1.8,2.9,3.6c0,1.5-0.5,2.7-1.4,3.4l-1.2-1.1
			c0.6-0.6,0.9-1.4,0.9-2.2c0-1-0.4-1.7-1.3-1.7c-0.8,0-1.3,0.9-1.3,1.9v1.1h-1.7v-1.1c0-1-0.4-1.7-1.2-1.7c-0.8,0-1.2,0.7-1.2,1.6
			s0.5,1.6,1,2l-1.2,1.2c-0.9-0.6-1.5-1.7-1.5-3.3C850.5,300.5,851.7,299.1,853.4,299.1z"/>
		<path d="M852.2,291l8.3,4.1v2.2l-8-4v4.7h-1.8V291L852.2,291L852.2,291z"/>
	</g>
</g>
<g>
	<g>
		<path d="M887.7,323.2c-0.7-0.5-1.7-1.5-1.7-3.4c0-2,1.3-3.3,3.2-3.3c1.2,0,2,0.6,2.9,1.4l2.2,2.1v-3.8h1.8v6.5h-1.5l-3.5-3.5
			c-0.5-0.5-1.1-0.8-1.7-0.8c-0.8,0-1.5,0.6-1.5,1.5c0,0.9,0.5,1.5,1.1,2L887.7,323.2z"/>
		<path d="M891.1,306.6c3.2,0,5.1,1.9,5.1,4.2c0,2.4-1.9,4.2-5.1,4.2c-3.2,0-5.1-1.9-5.1-4.2C886,308.5,888,306.6,891.1,306.6z
			 M891.1,313.1c2.1,0,3.3-1,3.3-2.3s-1.1-2.2-3.3-2.2s-3.3,1-3.3,2.2C887.8,312.1,889,313.1,891.1,313.1z"/>
		<path d="M888.9,299c1,0,1.8,0.5,2.2,1.5c0.4-1,1.2-1.7,2.2-1.7c1.9,0,2.9,1.8,2.9,3.6c0,1.5-0.5,2.7-1.4,3.4l-1.2-1.1
			c0.6-0.6,0.9-1.4,0.9-2.2c0-1-0.4-1.7-1.3-1.7c-0.8,0-1.3,0.9-1.3,1.9v1.1h-1.7v-1.1c0-1-0.4-1.7-1.2-1.7c-0.8,0-1.2,0.7-1.2,1.6
			s0.5,1.6,1,2l-1.2,1.2c-0.9-0.6-1.5-1.7-1.5-3.3C886,300.4,887.2,299,888.9,299z"/>
		<path d="M888.9,290.1c1.1,0,1.8,0.6,2.2,1.5c0.4-1,1.1-1.7,2.3-1.7c1.8,0,2.8,1.7,2.8,3.8s-1.1,3.8-2.8,3.8
			c-1.2,0-1.9-0.8-2.3-1.7c-0.4,0.9-1.1,1.5-2.2,1.5c-1.8,0-2.8-1.6-2.8-3.6S887.1,290.1,888.9,290.1z M889,295.3
			c0.8,0,1.3-0.7,1.3-1.6s-0.5-1.6-1.3-1.6c-0.8,0-1.2,0.7-1.2,1.6S888.2,295.3,889,295.3z M893.2,295.5c0.9,0,1.3-0.8,1.3-1.8
			c0-1-0.5-1.8-1.3-1.8c-0.9,0-1.3,0.8-1.3,1.8C891.8,294.7,892.3,295.5,893.2,295.5z"/>
	</g>
</g>
<g>
	<g>
		<path d="M923.2,323.3c-0.7-0.5-1.7-1.5-1.7-3.4c0-2,1.3-3.3,3.2-3.3c1.2,0,2,0.6,2.9,1.4l2.2,2.1v-3.8h1.8v6.5H930l-3.5-3.5
			c-0.5-0.5-1.1-0.8-1.7-0.8c-0.8,0-1.5,0.6-1.5,1.5c0,0.9,0.5,1.5,1.1,2L923.2,323.3z"/>
		<path d="M926.6,306.7c3.2,0,5.1,1.9,5.1,4.2c0,2.4-1.9,4.2-5.1,4.2c-3.2,0-5.1-1.9-5.1-4.2C921.5,308.6,923.4,306.7,926.6,306.7z
			 M926.6,313.2c2.1,0,3.3-1,3.3-2.3s-1.1-2.2-3.3-2.2s-3.3,1-3.3,2.2C923.3,312.2,924.5,313.2,926.6,313.2z"/>
		<path d="M924.3,299c1,0,1.8,0.5,2.2,1.5c0.4-1,1.2-1.7,2.2-1.7c1.9,0,2.9,1.8,2.9,3.6c0,1.5-0.5,2.7-1.4,3.4l-1.2-1.1
			c0.6-0.6,0.9-1.4,0.9-2.2c0-1-0.4-1.7-1.3-1.7c-0.8,0-1.3,0.9-1.3,1.9v1.1h-1.7v-1.1c0-1-0.4-1.7-1.2-1.7c-0.8,0-1.2,0.7-1.2,1.6
			s0.5,1.6,1,2l-1.2,1.2c-0.9-0.6-1.5-1.7-1.5-3.3C921.5,300.5,922.7,299,924.3,299z"/>
		<path d="M928.1,293.9c0,0.1,0,0.3,0,0.4c0,2-1.4,3.4-3.3,3.4c-1.9,0-3.3-1.6-3.3-3.7c0-2.1,1.4-3.7,3.3-3.7c0.9,0,1.7,0.3,2.6,0.9
			l4.1,2.7v2.3L928.1,293.9z M924.8,292.4c-1,0-1.6,0.7-1.6,1.7c0,1,0.7,1.7,1.6,1.7s1.6-0.7,1.6-1.7
			C926.5,293.1,925.8,292.4,924.8,292.4z"/>
	</g>
</g>
<g>
	<g>
		<path d="M958.7,323c-0.7-0.5-1.7-1.5-1.7-3.4c0-2,1.3-3.3,3.2-3.3c1.2,0,2,0.6,2.9,1.4l2.2,2.1v-3.8h1.8v6.5h-1.5l-3.5-3.5
			c-0.5-0.5-1.1-0.8-1.7-0.8c-0.9,0-1.5,0.6-1.5,1.5c0,0.9,0.5,1.5,1.1,2L958.7,323z"/>
		<path d="M962.1,306.4c3.2,0,5.1,1.9,5.1,4.2c0,2.4-1.9,4.2-5.1,4.2c-3.2,0-5.1-1.9-5.1-4.2C957,308.3,958.9,306.4,962.1,306.4z
			 M962.1,312.9c2.1,0,3.3-1,3.3-2.3s-1.1-2.2-3.3-2.2s-3.3,1-3.3,2.2S960,312.9,962.1,312.9z"/>
		<path d="M963.4,299.1v-1.4h1.8v1.4h1.8v1.9h-1.8v4.4h-1.4l-6.6-3.4v-2.1l6.2,3.3V301h-2.6v-1.9H963.4z"/>
		<path d="M962.1,288.3c3.2,0,5.1,1.9,5.1,4.2c0,2.4-1.9,4.2-5.1,4.2c-3.2,0-5.1-1.9-5.1-4.2C957,290.2,958.9,288.3,962.1,288.3z
			 M962.1,294.8c2.1,0,3.3-1,3.3-2.2c0-1.3-1.1-2.3-3.3-2.3s-3.3,1-3.3,2.3C958.8,293.8,960,294.8,962.1,294.8z"/>
	</g>
</g>
<line class="st0" x1="57.2" y1="280.6" x2="979.8" y2="280.6"/>
<g>
	<g>
		<g>
			<path d="M44,279.5c0,3.2-1.9,5.1-4.2,5.1c-2.3,0-4.2-1.9-4.2-5.1s1.9-5.1,4.2-5.1S44,276.3,44,279.5z M37.5,279.5
				c0,2.1,1,3.3,2.3,3.3s2.2-1.1,2.2-3.3s-1-3.3-2.2-3.3S37.5,277.3,37.5,279.5z"/>
		</g>
		<g>
			<path d="M27.4,226c0.5-0.7,1.5-1.7,3.4-1.7c2,0,3.3,1.3,3.3,3.2c0,1.2-0.6,2-1.4,2.9l-2.1,2.2h3.8v1.8h-6.5v-1.5l3.5-3.6
				c0.5-0.5,0.8-1.1,0.8-1.7c0-0.9-0.6-1.5-1.5-1.5c-0.9,0-1.5,0.5-2,1.1L27.4,226z"/>
			<path d="M44,229.4c0,3.2-1.9,5.1-4.2,5.1c-2.3,0-4.2-1.9-4.2-5.1s1.9-5.1,4.2-5.1S44,226.2,44,229.4z M37.5,229.4
				c0,2.1,1,3.3,2.3,3.3s2.2-1.1,2.2-3.3s-1-3.3-2.2-3.3C38.5,226.1,37.5,227.2,37.5,229.4z"/>
		</g>
		<g>
			<path d="M33.2,180.6h1.4v1.8h-1.4v1.8h-1.9v-1.8H27V181l3.4-6.6h2.1l-3.3,6.2h2.1V178h1.9V180.6z"/>
			<path d="M44,179.2c0,3.2-1.9,5.1-4.2,5.1c-2.3,0-4.2-1.9-4.2-5.1s1.9-5.1,4.2-5.1S44,176.1,44,179.2z M37.5,179.2
				c0,2.1,1,3.3,2.3,3.3s2.2-1.1,2.2-3.3s-1-3.3-2.2-3.3C38.5,176,37.5,177.1,37.5,179.2z"/>
		</g>
		<g>
			<path d="M30.5,127.6c0.1,0,0.3,0,0.5,0c2,0,3.4,1.4,3.4,3.3c0,1.9-1.6,3.3-3.7,3.3c-2.1,0-3.7-1.4-3.7-3.3c0-0.9,0.3-1.7,0.9-2.6
				l2.7-4.1H33L30.5,127.6z M29,130.9c0,0.9,0.7,1.6,1.7,1.6c1,0,1.7-0.7,1.7-1.6s-0.7-1.6-1.7-1.6C29.7,129.3,29,129.9,29,130.9z"
				/>
			<path d="M44,129.1c0,3.2-1.9,5.1-4.2,5.1c-2.3,0-4.2-1.9-4.2-5.1c0-3.2,1.9-5.1,4.2-5.1S44,126,44,129.1z M37.5,129.1
				c0,2.1,1,3.3,2.3,3.3s2.2-1.1,2.2-3.3s-1-3.3-2.2-3.3C38.5,125.9,37.5,127,37.5,129.1z"/>
		</g>
		<g>
			<path d="M34,76.8c0,1.1-0.7,1.8-1.5,2.2c1,0.4,1.7,1.1,1.7,2.3c0,1.8-1.7,2.8-3.8,2.8s-3.8-1.1-3.8-2.8c0-1.2,0.8-1.9,1.7-2.3
				c-0.9-0.4-1.5-1.1-1.5-2.2c0-1.8,1.6-2.8,3.6-2.8S34,75,34,76.8z M28.6,81.1c0,0.9,0.8,1.3,1.8,1.3c1,0,1.8-0.5,1.8-1.3
				c0-0.9-0.8-1.3-1.8-1.3C29.4,79.8,28.6,80.2,28.6,81.1z M28.8,76.9c0,0.8,0.7,1.3,1.6,1.3s1.6-0.5,1.6-1.3c0-0.8-0.7-1.2-1.6-1.2
				S28.8,76.1,28.8,76.9z"/>
			<path d="M44,79c0,3.2-1.9,5.1-4.2,5.1c-2.3,0-4.2-1.9-4.2-5.1s1.9-5.1,4.2-5.1C42.1,73.9,44,75.8,44,79z M37.5,79
				c0,2.1,1,3.3,2.3,3.3s2.2-1.1,2.2-3.3s-1-3.3-2.2-3.3C38.5,75.8,37.5,76.9,37.5,79z"/>
		</g>
		<g>
			<path d="M23.8,33.8h-1.9v-7.3l-2.4,1v-1.9l4.2-1.7V33.8z"/>
			<path d="M34.2,28.9c0,3.2-1.9,5.1-4.2,5.1c-2.4,0-4.2-1.9-4.2-5.1s1.9-5.1,4.2-5.1C32.3,23.8,34.2,25.7,34.2,28.9z M27.7,28.9
				c0,2.1,1,3.3,2.3,3.3s2.2-1.1,2.2-3.3s-1-3.3-2.2-3.3C28.7,25.6,27.7,26.8,27.7,28.9z"/>
			<path d="M44,28.9c0,3.2-1.9,5.1-4.2,5.1c-2.3,0-4.2-1.9-4.2-5.1s1.9-5.1,4.2-5.1C42.1,23.8,44,25.7,44,28.9z M37.5,28.9
				c0,2.1,1,3.3,2.3,3.3s2.2-1.1,2.2-3.3s-1-3.3-2.2-3.3C38.5,25.6,37.5,26.8,37.5,28.9z"/>
		</g>
	</g>
</g>
<line class="st1" x1="57.2" y1="280.6" x2="57.2" y2="30"/>
<g>
	<line class="st1" x1="57.2" y1="280.6" x2="50.1" y2="280.6"/>
	<line class="st1" x1="57.2" y1="230.4" x2="50.1" y2="230.4"/>
	<line class="st1" x1="57.2" y1="180.3" x2="50.1" y2="180.3"/>
	<line class="st1" x1="57.2" y1="130.2" x2="50.1" y2="130.2"/>
	<line class="st1" x1="57.2" y1="80.1" x2="50.1" y2="80.1"/>
	<line class="st1" x1="57.2" y1="30" x2="50.1" y2="30"/>
</g>
<rect x="64.7" y="80.4" class="st2" width="20.4" height="199.1"/>
<rect x="100.2" y="68.2" class="st2" width="20.4" height="210.5"/>
<rect x="135.7" y="62.6" class="st2" width="20.4" height="215.2"/>
<rect x="171.1" y="63.4" class="st2" width="20.4" height="212.3"/>
<rect x="206.6" y="71.1" class="st2" width="20.4" height="204.2"/>
<rect x="242.1" y="118.9" class="st2" width="20.4" height="157.3"/>
<rect x="277.6" y="104.7" class="st2" width="20.4" height="169.2"/>
<rect x="313.1" y="94.2" class="st2" width="20.4" height="176.2"/>
<rect x="348.6" y="84.5" class="st2" width="20.4" height="182.4"/>
<rect x="384.1" y="76.3" class="st2" width="20.4" height="186.7"/>
<rect x="419.6" y="69.2" class="st2" width="20.4" height="190"/>
<rect x="455" y="63.1" class="st2" width="20.4" height="189.8"/>
<rect x="490.5" y="58.7" class="st2" width="20.4" height="186.3"/>
<rect x="526" y="55.8" class="st2" width="20.4" height="181.1"/>
<rect x="561.5" y="50.5" class="st2" width="20.4" height="176.2"/>
<rect x="597" y="46.9" class="st2" width="20.4" height="168.9"/>
<rect x="632.5" y="43.8" class="st2" width="20.4" height="162"/>
<rect x="668" y="42.3" class="st2" width="20.4" height="153"/>
<rect x="703.5" y="40.9" class="st2" width="20.4" height="146.1"/>
<rect x="738.9" y="40" class="st2" width="20.4" height="138.7"/>
<rect x="774.4" y="39.1" class="st2" width="20.4" height="130.3"/>
<rect x="809.9" y="39.1" class="st2" width="20.4" height="123"/>
<rect x="845.4" y="40.4" class="st2" width="20.4" height="113.8"/>
<rect x="880.9" y="42.5" class="st2" width="20.4" height="104.8"/>
<rect x="916.4" y="43.3" class="st2" width="20.4" height="97.9"/>
<rect x="951.9" y="45.3" class="st2" width="20.4" height="89.2"/>
<rect x="64.7" y="279.4" class="st3" width="20.4" height="1.1"/>
<rect x="100.2" y="278.8" class="st3" width="20.4" height="1.8"/>
<rect x="135.7" y="277.8" class="st3" width="20.4" height="2.7"/>
<rect x="171.1" y="275.7" class="st3" width="20.4" height="4.9"/>
<rect x="206.6" y="275.2" class="st3" width="20.4" height="5.3"/>
<rect x="242.1" y="276.2" class="st3" width="20.4" height="4.4"/>
<rect x="277.6" y="273.9" class="st3" width="20.4" height="6.6"/>
<rect x="313.1" y="270.4" class="st3" width="20.4" height="10.1"/>
<rect x="348.6" y="266.9" class="st3" width="20.4" height="13.7"/>
<rect x="384.1" y="263.1" class="st3" width="20.4" height="17.5"/>
<rect x="419.6" y="259.2" class="st3" width="20.4" height="21.4"/>
<rect x="455" y="252.9" class="st3" width="20.4" height="27.7"/>
<rect x="490.5" y="245" class="st3" width="20.4" height="35.5"/>
<rect x="526" y="236.9" class="st3" width="20.4" height="43.6"/>
<rect x="561.5" y="226.8" class="st3" width="20.4" height="53.8"/>
<rect x="597" y="215.7" class="st3" width="20.4" height="64.8"/>
<rect x="632.5" y="205.8" class="st3" width="20.4" height="74.7"/>
<rect x="668" y="195.4" class="st3" width="20.4" height="85.2"/>
<rect x="703.5" y="187" class="st3" width="20.4" height="93.6"/>
<rect x="738.9" y="178.6" class="st3" width="20.4" height="101.9"/>
<rect x="774.4" y="169.4" class="st3" width="20.4" height="111.1"/>
<rect x="809.9" y="162.1" class="st3" width="20.4" height="118.5"/>
<rect x="845.4" y="154.2" class="st3" width="20.4" height="126.4"/>
<rect x="880.9" y="147.3" class="st3" width="20.4" height="133.2"/>
<rect x="916.4" y="141.2" class="st3" width="20.4" height="139.3"/>
<rect x="951.9" y="134.6" class="st3" width="20.4" height="146"/>
<rect x="63.8" y="658.2" class="st3" width="15" height="15"/>
<text transform="matrix(1 0 0 1 86.6263 671.1154)" style="font-family:'MarkOT-Medium'; font-size:12px;">xEV Powertrain</text>
<rect x="208.6" y="658.2" class="st2" width="15" height="15"/>
<text transform="matrix(1 0 0 1 231.3721 671.1154)" style="font-family:'MarkOT-Medium'; font-size:12px;">ICE Powertrain</text>
<g>
	<rect x="68.7" y="339.1" class="st3" width="15" height="15"/>
	<g>
		<path d="M95.4,349.1l2.2,2.9H96l-1.5-2l-1.4,2h-1.5l2.2-2.9l-2.1-2.8h1.5l1.4,1.9l1.4-1.9h1.5L95.4,349.1z"/>
		<path d="M105,352h-6.1v-8.4h6v1.3h-4.7v2.3h4.5v1.3h-4.5v2.3h4.8V352z"/>
		<path d="M111,352h-1.7l-3.2-8.4h1.4l2.6,7l2.6-7h1.4L111,352z"/>
		<path d="M120,348.7v3.3h-1.4v-8.4h3.3c1.9,0,3,1,3,2.5s-1,2.5-3,2.5H120z M120,344.9v2.5h1.9c1.1,0,1.6-0.4,1.6-1.3
			s-0.5-1.3-1.6-1.3H120z"/>
		<path d="M132,349.2c0,1.7-1.3,3-3.1,3c-1.8,0-3.1-1.3-3.1-3c0-1.7,1.3-3,3.1-3C130.7,346.1,132,347.4,132,349.2z M127.1,349.2
			c0,1.1,0.8,1.8,1.8,1.8c1,0,1.8-0.8,1.8-1.8c0-1.1-0.8-1.8-1.8-1.8C127.9,347.3,127.1,348.1,127.1,349.2z"/>
		<path d="M139.8,350.7l1.4-4.4h1.3l-1.9,5.7H139l-1.4-4.3l-1.4,4.3h-1.5l-1.9-5.7h1.3l1.3,4.4l1.4-4.4h1.4L139.8,350.7z"/>
		<path d="M148.8,349.1c0,0.2,0,0.3,0,0.5h-4.2c0.2,1,0.9,1.5,1.7,1.5c0.6,0,1.2-0.2,1.7-0.6l0.6,0.9c-0.7,0.6-1.5,0.8-2.4,0.8
			c-1.7,0-2.9-1.2-2.9-3c0-1.8,1.2-3,2.9-3C147.7,346.1,148.8,347.4,148.8,349.1z M144.5,348.7h3c-0.1-0.9-0.7-1.4-1.5-1.4
			C145.2,347.2,144.7,347.8,144.5,348.7z"/>
		<path d="M154.2,346.3l-0.3,1.2c-0.3-0.1-0.6-0.2-1-0.2c-0.8,0-1.4,0.6-1.4,1.5v3.2h-1.3v-5.7h1.2v0.6c0.4-0.5,1-0.8,1.7-0.8
			C153.6,346.1,153.9,346.2,154.2,346.3z"/>
		<path d="M159.5,347.4h-2.2v2.5c0,0.8,0.4,1.1,0.9,1.1c0.4,0,0.8-0.2,1.2-0.4l0.5,1c-0.5,0.3-1,0.6-1.8,0.6c-1.3,0-2.1-0.7-2.1-2.2
			v-2.5h-1.1v-1.1h1.1v-1.7h1.3v1.7h2.2V347.4z"/>
		<path d="M164.9,346.3l-0.3,1.2c-0.3-0.1-0.6-0.2-1-0.2c-0.8,0-1.4,0.6-1.4,1.5v3.2h-1.3v-5.7h1.2v0.6c0.4-0.5,1-0.8,1.7-0.8
			C164.4,346.1,164.7,346.2,164.9,346.3z"/>
		<path d="M171.5,352h-1.3v-0.7c-0.4,0.5-1,0.8-1.8,0.8c-1.6,0-2.9-1.3-2.9-3c0-1.8,1.3-3,2.9-3c0.8,0,1.4,0.3,1.8,0.8v-0.7h1.3V352
			z M166.9,349.2c0,1,0.7,1.8,1.7,1.8c1,0,1.7-0.8,1.7-1.8c0-1-0.7-1.8-1.7-1.8C167.5,347.3,166.9,348.1,166.9,349.2z"/>
		<path d="M175,344.3c0,0.5-0.4,0.9-0.9,0.9c-0.5,0-0.9-0.4-0.9-0.9c0-0.5,0.4-0.9,0.9-0.9C174.6,343.4,175,343.8,175,344.3z
			 M174.7,352h-1.3v-5.7h1.3V352z"/>
		<path d="M182,348.4v3.6h-1.3v-3.2c0-1-0.5-1.5-1.3-1.5c-0.8,0-1.5,0.5-1.5,1.5v3.2h-1.3v-5.7h1.2v0.7c0.5-0.7,1.2-0.9,1.8-0.9
			C181.1,346.1,182,347.1,182,348.4z"/>
	</g>
	<rect x="213.4" y="339.1" class="st2" width="15" height="15"/>
	<g>
		<path d="M238.7,352h-1.4v-8.4h1.4V352z"/>
		<path d="M248.4,345.2l-1.1,0.8c-0.5-0.7-1.3-1.2-2.3-1.2c-1.7,0-3,1.2-3,3.1c0,1.8,1.3,3.1,3,3.1c1,0,1.8-0.4,2.3-1.2l1.1,0.8
			c-0.7,1-2,1.7-3.4,1.7c-2.6,0-4.4-1.8-4.4-4.4c0-2.5,1.8-4.4,4.4-4.4C246.4,343.5,247.8,344.1,248.4,345.2z"/>
		<path d="M256.3,352h-6.1v-8.4h6v1.3h-4.7v2.3h4.5v1.3h-4.5v2.3h4.8V352z"/>
		<path d="M263,348.7v3.3h-1.4v-8.4h3.3c1.9,0,3,1,3,2.5s-1,2.5-3,2.5H263z M263,344.9v2.5h1.9c1.1,0,1.6-0.4,1.6-1.3
			s-0.5-1.3-1.6-1.3H263z"/>
		<path d="M275,349.2c0,1.7-1.3,3-3.1,3c-1.8,0-3.1-1.3-3.1-3c0-1.7,1.3-3,3.1-3C273.7,346.1,275,347.4,275,349.2z M270.1,349.2
			c0,1.1,0.8,1.8,1.8,1.8c1,0,1.8-0.8,1.8-1.8c0-1.1-0.8-1.8-1.8-1.8C270.9,347.3,270.1,348.1,270.1,349.2z"/>
		<path d="M282.7,350.7l1.4-4.4h1.3l-1.9,5.7H282l-1.4-4.3l-1.4,4.3h-1.5l-1.9-5.7h1.3l1.3,4.4l1.4-4.4h1.4L282.7,350.7z"/>
		<path d="M291.8,349.1c0,0.2,0,0.3,0,0.5h-4.2c0.2,1,0.9,1.5,1.7,1.5c0.6,0,1.2-0.2,1.7-0.6l0.6,0.9c-0.7,0.6-1.5,0.8-2.4,0.8
			c-1.7,0-2.9-1.2-2.9-3c0-1.8,1.2-3,2.9-3C290.6,346.1,291.7,347.4,291.8,349.1z M287.5,348.7h3c-0.1-0.9-0.7-1.4-1.5-1.4
			C288.1,347.2,287.6,347.8,287.5,348.7z"/>
		<path d="M297.2,346.3l-0.3,1.2c-0.3-0.1-0.6-0.2-1-0.2c-0.8,0-1.4,0.6-1.4,1.5v3.2h-1.3v-5.7h1.2v0.6c0.4-0.5,1-0.8,1.7-0.8
			C296.6,346.1,296.9,346.2,297.2,346.3z"/>
		<path d="M302.5,347.4h-2.2v2.5c0,0.8,0.4,1.1,0.9,1.1c0.4,0,0.8-0.2,1.2-0.4l0.5,1c-0.5,0.3-1,0.6-1.8,0.6c-1.3,0-2.1-0.7-2.1-2.2
			v-2.5h-1.1v-1.1h1.1v-1.7h1.3v1.7h2.2V347.4z"/>
		<path d="M307.9,346.3l-0.3,1.2c-0.3-0.1-0.6-0.2-1-0.2c-0.8,0-1.4,0.6-1.4,1.5v3.2H304v-5.7h1.2v0.6c0.4-0.5,1-0.8,1.7-0.8
			C307.3,346.1,307.6,346.2,307.9,346.3z"/>
		<path d="M314.5,352h-1.3v-0.7c-0.4,0.5-1,0.8-1.8,0.8c-1.6,0-2.9-1.3-2.9-3c0-1.8,1.3-3,2.9-3c0.8,0,1.4,0.3,1.8,0.8v-0.7h1.3V352
			z M309.8,349.2c0,1,0.7,1.8,1.7,1.8c1,0,1.7-0.8,1.7-1.8c0-1-0.7-1.8-1.7-1.8C310.5,347.3,309.8,348.1,309.8,349.2z"/>
		<path d="M317.9,344.3c0,0.5-0.4,0.9-0.9,0.9c-0.5,0-0.9-0.4-0.9-0.9c0-0.5,0.4-0.9,0.9-0.9C317.6,343.4,317.9,343.8,317.9,344.3z
			 M317.7,352h-1.3v-5.7h1.3V352z"/>
		<path d="M325,348.4v3.6h-1.3v-3.2c0-1-0.5-1.5-1.3-1.5c-0.8,0-1.5,0.5-1.5,1.5v3.2h-1.3v-5.7h1.2v0.7c0.5-0.7,1.2-0.9,1.8-0.9
			C324,346.1,325,347.1,325,348.4z"/>
	</g>
</g>
</svg>
