<?xml version="1.0" encoding="utf-8"?>
<!-- Generator: Adobe Illustrator 25.0.1, SVG Export Plug-In . SVG Version: 6.00 Build 0)  -->
<svg version="1.1" id="Layer_1" xmlns="http://www.w3.org/2000/svg" xmlns:xlink="http://www.w3.org/1999/xlink" x="0px" y="0px"
	 viewBox="0 0 1000 250.9" style="enable-background:new 0 0 1000 250.9;" xml:space="preserve">
<style type="text/css">
	.st0{opacity:0.75;}
	.st1{fill:#203232;}
	.st2{fill:#ED5A36;}
	.st3{fill:#15BEF0;}
	.st4{fill:#FFB819;}
	.st5{fill:#C7CCCC;}
	.st6{fill:#F47E20;}
	.st7{fill:#D02259;}
	.st8{fill:#FFFFFF;}
	.st9{fill:#EB5A36;}
	.st10{fill:#203231;}
	.st11{fill:none;stroke:#E8EAEA;stroke-width:3.492;stroke-miterlimit:10;}
	.st12{fill:none;stroke:#203232;stroke-width:1.6126;stroke-linecap:square;stroke-miterlimit:10;stroke-dasharray:1.6126,4.0316;}
</style>
<g class="st0">
	<g>
		<rect x="417.1" y="92.5" class="st1" width="569.9" height="34.9"/>
	</g>
</g>
<g>
	<g>
		<g>
			<rect x="246.8" y="92.5" class="st2" width="180.7" height="34.9"/>
		</g>
	</g>
</g>
<g>
	<g>
		<g>
			<rect x="950.4" y="184.3" class="st3" width="36.6" height="34.9"/>
		</g>
	</g>
</g>
<g>
	<g>
		<g>
			<rect x="869.8" y="184.3" class="st4" width="80.6" height="34.9"/>
		</g>
	</g>
</g>
<g>
	<g>
		<g>
			<rect x="789.1" y="184.3" class="st5" width="80.6" height="34.9"/>
		</g>
	</g>
</g>
<g>
	<g>
		<g>
			<rect x="540" y="184.3" class="st6" width="249.2" height="34.9"/>
		</g>
	</g>
</g>
<g>
	<g>
		<g>
			<rect x="246.8" y="184.3" class="st7" width="293.1" height="34.9"/>
		</g>
	</g>
</g>
<g>
	<path class="st1" d="M266.9,231.3l-1.9,1.1c-0.6-0.9-1.6-1.5-2.8-1.5c-2,0-3.4,1.4-3.4,3.6c0,2.2,1.5,3.6,3.4,3.6
		c1.2,0,2.2-0.5,2.8-1.5l1.8,1.3c-1,1.4-2.6,2.3-4.6,2.3c-3.3,0-5.7-2.4-5.7-5.6s2.4-5.6,5.7-5.6C264.2,228.9,266,229.8,266.9,231.3
		z"/>
	<path class="st1" d="M275.8,239.9h-2v-0.8c-0.5,0.6-1.2,1-2.2,1c-2.1,0-3.6-1.7-3.6-4c0-2.3,1.6-4,3.6-4c1,0,1.8,0.4,2.2,1v-0.8h2
		V239.9z M270,236.1c0,1.1,0.8,2.1,1.9,2.1c1.2,0,1.9-0.9,1.9-2.1c0-1.2-0.8-2.1-1.9-2.1C270.7,234.1,270,235,270,236.1z"/>
	<path class="st1" d="M283.1,232.4l-0.3,2c-0.3-0.1-0.8-0.2-1.2-0.2c-0.9,0-1.6,0.6-1.6,1.7v4.1h-2v-7.5h2v0.8c0.5-0.7,1.2-1,2.1-1
		C282.4,232.2,282.8,232.3,283.1,232.4z"/>
	<path class="st1" d="M289.7,234.5c-0.6-0.3-1.6-0.6-2.4-0.6c-0.8,0-1.2,0.3-1.2,0.7c0,0.4,0.5,0.5,1.2,0.6l0.7,0.1
		c1.6,0.2,2.5,1,2.5,2.2c0,1.6-1.3,2.6-3.5,2.6c-1,0-2.4-0.2-3.3-0.9l0.8-1.5c0.6,0.4,1.4,0.7,2.6,0.7c0.9,0,1.4-0.3,1.4-0.7
		c0-0.4-0.4-0.6-1.2-0.7l-0.6-0.1c-1.7-0.2-2.6-1-2.6-2.3c0-1.5,1.2-2.5,3.2-2.5c1.2,0,2.1,0.2,3.1,0.7L289.7,234.5z"/>
</g>
<g>
	<path class="st1" d="M556.7,231.1h-3.4v8.8h-2.2v-8.8h-3.4v-2h8.9V231.1z"/>
	<path class="st1" d="M562.3,232.4l-0.3,2c-0.3-0.1-0.8-0.2-1.2-0.2c-0.9,0-1.6,0.6-1.6,1.7v4.1h-2v-7.5h2v0.8c0.5-0.7,1.2-1,2.1-1
		C561.7,232.2,562,232.3,562.3,232.4z"/>
	<path class="st1" d="M570.7,236.7c0,2.4-1.7,3.4-3.6,3.4c-1.9,0-3.6-1-3.6-3.4v-4.3h2v4.1c0,1.2,0.7,1.7,1.5,1.7
		c0.9,0,1.5-0.5,1.5-1.7v-4.1h2V236.7z"/>
	<path class="st1" d="M579.3,233.6l-1.5,1.2c-0.5-0.5-0.9-0.8-1.6-0.8c-1,0-1.9,0.8-1.9,2.1c0,1.3,0.8,2.1,1.9,2.1
		c0.7,0,1.2-0.3,1.6-0.8l1.4,1.2c-0.7,0.9-1.8,1.4-3,1.4c-2.4,0-4-1.7-4-4c0-2.3,1.6-4,4-4C577.6,232.2,578.6,232.7,579.3,233.6z"/>
	<path class="st1" d="M582.8,235.1h0.7l2.1-2.7h2.5l-3,3.5l3,4h-2.5l-2.2-3h-0.7v3h-2v-11.2h2V235.1z"/>
	<path class="st1" d="M594.6,234.5c-0.6-0.3-1.6-0.6-2.4-0.6c-0.8,0-1.2,0.3-1.2,0.7c0,0.4,0.5,0.5,1.2,0.6l0.7,0.1
		c1.6,0.2,2.5,1,2.5,2.2c0,1.6-1.3,2.6-3.5,2.6c-1,0-2.4-0.2-3.3-0.9l0.8-1.5c0.6,0.4,1.4,0.7,2.6,0.7c0.9,0,1.4-0.3,1.4-0.7
		c0-0.4-0.4-0.6-1.2-0.7l-0.6-0.1c-1.7-0.2-2.6-1-2.6-2.3c0-1.5,1.2-2.5,3.2-2.5c1.2,0,2.1,0.2,3.1,0.7L594.6,234.5z"/>
</g>
<g>
	<path class="st1" d="M806.7,231.8c-0.9-0.5-1.9-0.9-3.1-0.9c-1.2,0-2.1,0.5-2.1,1.3c0,0.8,0.9,1,2.2,1.3l0.6,0.1
		c1.9,0.3,3.5,1.1,3.5,3c0,2.4-2.1,3.5-4.4,3.5c-1.6,0-3.4-0.5-4.6-1.4l1.1-1.7c0.8,0.6,2.1,1.2,3.5,1.2c1.2,0,2.1-0.5,2.1-1.3
		c0-0.8-0.8-1-2.3-1.3l-0.7-0.1c-1.9-0.3-3.3-1.1-3.3-3.1c0-2.3,2-3.4,4.3-3.4c1.5,0,2.8,0.3,4.1,1.2L806.7,231.8z"/>
	<path class="st1" d="M811.7,233.2c0.5-0.7,1.3-1,2.2-1c1.7,0,2.9,1.2,2.9,2.9v4.8h-2v-4.1c0-1.1-0.5-1.7-1.5-1.7
		c-0.9,0-1.6,0.6-1.6,1.7v4.1h-2v-11.2h2V233.2z"/>
	<path class="st1" d="M821.1,229.9c0,0.7-0.6,1.3-1.3,1.3c-0.7,0-1.3-0.6-1.3-1.3s0.6-1.3,1.3-1.3
		C820.5,228.6,821.1,229.2,821.1,229.9z M820.8,239.9h-2v-7.5h2V239.9z"/>
	<path class="st1" d="M830.8,236.1c0,2.3-1.6,4-3.6,4c-1,0-1.7-0.4-2.2-1v3.9h-2v-10.6h2v0.8c0.5-0.6,1.2-1,2.2-1
		C829.3,232.2,830.8,233.9,830.8,236.1z M824.9,236.1c0,1.2,0.8,2.1,1.9,2.1c1.2,0,1.9-0.9,1.9-2.1s-0.7-2.1-1.9-2.1
		C825.7,234.1,824.9,235,824.9,236.1z"/>
	<path class="st1" d="M837.8,234.5c-0.6-0.3-1.6-0.6-2.4-0.6c-0.8,0-1.2,0.3-1.2,0.7c0,0.4,0.5,0.5,1.2,0.6l0.7,0.1
		c1.6,0.2,2.5,1,2.5,2.2c0,1.6-1.3,2.6-3.5,2.6c-1,0-2.4-0.2-3.3-0.9l0.8-1.5c0.6,0.4,1.4,0.7,2.6,0.7c0.9,0,1.4-0.3,1.4-0.7
		c0-0.4-0.4-0.6-1.2-0.7l-0.6-0.1c-1.7-0.2-2.6-1-2.6-2.3c0-1.5,1.2-2.5,3.2-2.5c1.2,0,2.1,0.2,3.1,0.7L837.8,234.5z"/>
</g>
<g>
	<path class="st1" d="M882.2,235.9v4H880v-10.9h4.4c2.6,0,4,1.3,4,3.5c0,2.1-1.4,3.4-4,3.4H882.2z M882.2,231v2.9h2.2
		c1.2,0,1.8-0.5,1.8-1.5c0-1-0.6-1.5-1.8-1.5H882.2z"/>
	<path class="st1" d="M892.1,239.9h-2v-11.2h2V239.9z"/>
	<path class="st1" d="M901.6,239.9h-2v-0.8c-0.5,0.6-1.2,1-2.2,1c-2.1,0-3.6-1.7-3.6-4c0-2.3,1.6-4,3.6-4c1,0,1.8,0.4,2.2,1v-0.8h2
		V239.9z M895.8,236.1c0,1.1,0.8,2.1,1.9,2.1c1.2,0,1.9-0.9,1.9-2.1c0-1.2-0.8-2.1-1.9-2.1C896.6,234.1,895.8,235,895.8,236.1z"/>
	<path class="st1" d="M910.9,235.1v4.8h-2v-4.1c0-1.1-0.5-1.7-1.5-1.7c-0.9,0-1.6,0.6-1.6,1.7v4.1h-2v-7.5h2v0.9
		c0.5-0.8,1.4-1.1,2.2-1.1C909.7,232.2,910.9,233.4,910.9,235.1z"/>
	<path class="st1" d="M919.9,236.1c0,0.2,0,0.5,0,0.7h-5.3c0.2,1.1,1,1.6,1.9,1.6c0.7,0,1.4-0.3,1.9-0.7l1.2,1.3
		c-0.9,0.8-1.9,1.1-3.2,1.1c-2.3,0-3.9-1.6-3.9-3.9c0-2.4,1.6-4,3.8-4C918.4,232.2,919.9,233.8,919.9,236.1z M914.6,235.4h3.3
		c-0.2-1-0.8-1.5-1.6-1.5C915.3,233.9,914.7,234.5,914.6,235.4z"/>
	<path class="st1" d="M926.9,234.5c-0.6-0.3-1.6-0.6-2.4-0.6c-0.8,0-1.2,0.3-1.2,0.7c0,0.4,0.5,0.5,1.2,0.6l0.7,0.1
		c1.6,0.2,2.5,1,2.5,2.2c0,1.6-1.3,2.6-3.5,2.6c-1,0-2.4-0.2-3.3-0.9l0.8-1.5c0.6,0.4,1.4,0.7,2.6,0.7c0.9,0,1.4-0.3,1.4-0.7
		c0-0.4-0.4-0.6-1.2-0.7l-0.6-0.1c-1.7-0.2-2.6-1-2.6-2.3c0-1.5,1.2-2.5,3.2-2.5c1.2,0,2.1,0.2,3.1,0.7L926.9,234.5z"/>
</g>
<g>
	<path class="st8" d="M256.6,108c0.9-1.1,2.5-2.7,5.4-2.7c3.3,0,5.4,2.1,5.4,5.1c0,1.9-1,3.3-2.3,4.6l-3.4,3.5h6.1v2.9h-10.5v-2.4
		l5.6-5.8c0.8-0.9,1.3-1.7,1.3-2.7c0-1.4-1-2.4-2.4-2.4c-1.5,0-2.4,0.8-3.2,1.7L256.6,108z"/>
	<path class="st8" d="M280.2,109.9c0,1.7-0.9,2.9-2.4,3.6c1.7,0.7,2.7,1.9,2.7,3.6c0,3.1-2.8,4.6-5.9,4.6c-2.4,0-4.3-0.9-5.6-2.3
		l1.8-2c0.9,1,2.2,1.5,3.6,1.5c1.5,0,2.8-0.7,2.8-2.1c0-1.4-1.4-2.1-3.1-2.1h-1.9v-2.7h1.9c1.5,0,2.8-0.7,2.8-2c0-1.3-1.2-2-2.6-2
		c-1.5,0-2.6,0.8-3.2,1.6l-1.9-1.9c1-1.4,2.8-2.5,5.3-2.5C278,105.3,280.2,107.1,280.2,109.9z"/>
	<path class="st8" d="M289.4,112.4c0,1.9-1.5,3.3-3.5,3.3c-2,0-3.5-1.4-3.5-3.3c0-1.9,1.5-3.3,3.5-3.3
		C287.9,109.1,289.4,110.5,289.4,112.4z M284.5,112.4c0,0.8,0.6,1.3,1.4,1.3s1.4-0.6,1.4-1.3c0-0.8-0.6-1.3-1.4-1.3
		S284.5,111.7,284.5,112.4z M287.6,121.5h-2.6l8.8-12.2h2.6L287.6,121.5z M299.1,118.4c0,1.9-1.5,3.3-3.6,3.3c-2,0-3.5-1.4-3.5-3.3
		c0-1.9,1.5-3.3,3.5-3.3C297.5,115,299.1,116.4,299.1,118.4z M294.2,118.4c0,0.8,0.6,1.3,1.4,1.3c0.8,0,1.4-0.6,1.4-1.3
		c0-0.8-0.6-1.3-1.4-1.3C294.7,117,294.2,117.6,294.2,118.4z"/>
</g>
<g>
	<path class="st8" d="M266.4,204.2h2.2v2.9h-2.2v2.9h-3.1v-2.9h-7v-2.2l5.6-10.8h3.4l-5.3,10.1h3.4V200h3.1V204.2z"/>
	<path class="st8" d="M283.9,202.1c0,5.1-3.1,8.2-6.9,8.2c-3.8,0-6.8-3.1-6.8-8.2c0-5.1,3-8.2,6.8-8.2
		C280.9,193.8,283.9,196.9,283.9,202.1z M273.4,202.1c0,3.5,1.6,5.3,3.7,5.3c2,0,3.7-1.8,3.7-5.3c0-3.5-1.6-5.3-3.7-5.3
		C275,196.8,273.4,198.6,273.4,202.1z"/>
	<path class="st8" d="M292.9,201c0,1.9-1.5,3.3-3.5,3.3c-2,0-3.5-1.4-3.5-3.3c0-1.9,1.5-3.3,3.5-3.3
		C291.4,197.6,292.9,199,292.9,201z M288,201c0,0.8,0.6,1.3,1.4,1.3s1.4-0.6,1.4-1.3s-0.6-1.3-1.4-1.3S288,200.2,288,201z
		 M291.1,210h-2.6l8.8-12.2h2.6L291.1,210z M302.6,206.9c0,1.9-1.5,3.3-3.6,3.3c-2,0-3.5-1.4-3.5-3.3c0-1.9,1.5-3.3,3.5-3.3
		C301.1,203.5,302.6,205,302.6,206.9z M297.7,206.9c0,0.8,0.6,1.3,1.4,1.3c0.8,0,1.4-0.6,1.4-1.3s-0.6-1.3-1.4-1.3
		C298.2,205.5,297.7,206.1,297.7,206.9z"/>
</g>
<g>
	<path class="st8" d="M559.2,198.4c0,1.7-0.9,2.9-2.4,3.6c1.7,0.7,2.7,1.9,2.7,3.6c0,3.1-2.8,4.6-5.9,4.6c-2.4,0-4.3-0.9-5.6-2.3
		l1.8-2c0.9,1,2.2,1.5,3.6,1.5c1.5,0,2.8-0.7,2.8-2.1c0-1.4-1.4-2.1-3.1-2.1h-1.8v-2.7h1.9c1.5,0,2.8-0.7,2.8-2c0-1.3-1.2-2-2.6-2
		s-2.6,0.8-3.2,1.6l-1.9-1.9c1-1.4,2.8-2.5,5.3-2.5C556.9,193.8,559.2,195.6,559.2,198.4z"/>
	<path class="st8" d="M571.3,204.2h2.2v2.9h-2.2v2.9h-3.1v-2.9h-7.1v-2.2l5.6-10.8h3.4l-5.3,10.1h3.4V200h3.1V204.2z"/>
	<path class="st8" d="M581.9,201c0,1.9-1.5,3.3-3.5,3.3c-2,0-3.5-1.4-3.5-3.3c0-1.9,1.5-3.3,3.5-3.3
		C580.4,197.6,581.9,199,581.9,201z M577,201c0,0.8,0.6,1.3,1.4,1.3c0.8,0,1.4-0.6,1.4-1.3s-0.6-1.3-1.4-1.3
		C577.5,199.6,577,200.2,577,201z M580,210h-2.6l8.8-12.2h2.6L580,210z M591.5,206.9c0,1.9-1.5,3.3-3.6,3.3c-2,0-3.5-1.4-3.5-3.3
		c0-1.9,1.5-3.3,3.5-3.3C590,203.5,591.5,205,591.5,206.9z M586.6,206.9c0,0.8,0.6,1.3,1.4,1.3c0.8,0,1.4-0.6,1.4-1.3
		s-0.6-1.3-1.4-1.3C587.2,205.5,586.6,206.1,586.6,206.9z"/>
</g>
<g>
	<path class="st8" d="M805.5,210h-3.1v-11.8l-3.8,1.5v-3.1l6.9-2.8V210z"/>
	<path class="st8" d="M814.8,210h-3.1v-11.8l-3.8,1.5v-3.1l6.9-2.8V210z"/>
	<path class="st8" d="M824.6,201c0,1.9-1.5,3.3-3.5,3.3s-3.5-1.4-3.5-3.3c0-1.9,1.5-3.3,3.5-3.3S824.6,199,824.6,201z M819.7,201
		c0,0.8,0.6,1.3,1.4,1.3s1.4-0.6,1.4-1.3s-0.6-1.3-1.4-1.3S819.7,200.2,819.7,201z M822.7,210h-2.6l8.8-12.2h2.6L822.7,210z
		 M834.2,206.9c0,1.9-1.5,3.3-3.6,3.3c-2,0-3.5-1.4-3.5-3.3c0-1.9,1.5-3.3,3.5-3.3C832.7,203.5,834.2,205,834.2,206.9z M829.3,206.9
		c0,0.8,0.6,1.3,1.4,1.3c0.8,0,1.4-0.6,1.4-1.3s-0.6-1.3-1.4-1.3C829.9,205.5,829.3,206.1,829.3,206.9z"/>
</g>
<g>
	<path class="st8" d="M886.2,210h-3.1v-11.8l-3.8,1.5v-3.1l6.9-2.8V210z"/>
	<path class="st8" d="M895.5,210h-3.1v-11.8l-3.8,1.5v-3.1l6.9-2.8V210z"/>
	<path class="st8" d="M905.3,201c0,1.9-1.5,3.3-3.5,3.3c-2,0-3.5-1.4-3.5-3.3c0-1.9,1.5-3.3,3.5-3.3
		C903.8,197.6,905.3,199,905.3,201z M900.4,201c0,0.8,0.6,1.3,1.4,1.3s1.4-0.6,1.4-1.3s-0.6-1.3-1.4-1.3S900.4,200.2,900.4,201z
		 M903.4,210h-2.6l8.8-12.2h2.6L903.4,210z M914.9,206.9c0,1.9-1.5,3.3-3.6,3.3c-2,0-3.5-1.4-3.5-3.3c0-1.9,1.5-3.3,3.5-3.3
		C913.4,203.5,914.9,205,914.9,206.9z M910,206.9c0,0.8,0.6,1.3,1.4,1.3c0.8,0,1.4-0.6,1.4-1.3s-0.6-1.3-1.4-1.3
		C910.6,205.5,910,206.1,910,206.9z"/>
</g>
<g>
	<path class="st8" d="M963.6,197h-6.4l-0.1,3.2h1.8c3.7,0,5.6,2.1,5.6,4.8c0,3.4-2.6,5.4-5.8,5.4c-2.4,0-4.3-0.9-5.6-2.4l1.7-2.1
		c0.9,0.9,2.4,1.7,3.9,1.7c1.8,0,2.6-1,2.6-2.3c0-1.2-0.7-2.2-3.2-2.2h-3.8l0.2-8.8h9.1V197z"/>
	<path class="st8" d="M973.4,201c0,1.9-1.5,3.3-3.5,3.3c-2,0-3.5-1.4-3.5-3.3c0-1.9,1.5-3.3,3.5-3.3
		C971.9,197.6,973.4,199,973.4,201z M968.5,201c0,0.8,0.6,1.3,1.4,1.3s1.4-0.6,1.4-1.3s-0.6-1.3-1.4-1.3S968.5,200.2,968.5,201z
		 M971.5,210h-2.6l8.8-12.2h2.6L971.5,210z M983,206.9c0,1.9-1.5,3.3-3.6,3.3c-2,0-3.5-1.4-3.5-3.3c0-1.9,1.5-3.3,3.5-3.3
		C981.5,203.5,983,205,983,206.9z M978.1,206.9c0,0.8,0.6,1.3,1.4,1.3c0.8,0,1.4-0.6,1.4-1.3s-0.6-1.3-1.4-1.3
		C978.7,205.5,978.1,206.1,978.1,206.9z"/>
</g>
<g>
	<g>
		<path class="st8" d="M454.3,108l-6.6,13.5h-3.6l6.5-13h-7.5v-2.9h11.2V108z"/>
		<path class="st8" d="M466.9,108l-6.6,13.5h-3.6l6.5-13h-7.5v-2.9h11.2V108z"/>
		<path class="st8" d="M475.3,112.4c0,1.9-1.5,3.3-3.5,3.3c-2,0-3.5-1.4-3.5-3.3c0-1.9,1.5-3.3,3.5-3.3
			C473.8,109.1,475.3,110.5,475.3,112.4z M470.4,112.4c0,0.8,0.6,1.3,1.4,1.3s1.4-0.6,1.4-1.3c0-0.8-0.6-1.3-1.4-1.3
			S470.4,111.7,470.4,112.4z M473.5,121.5h-2.6l8.8-12.2h2.6L473.5,121.5z M485,118.4c0,1.9-1.5,3.3-3.6,3.3c-2,0-3.5-1.4-3.5-3.3
			c0-1.9,1.5-3.3,3.5-3.3C483.5,115,485,116.4,485,118.4z M480.1,118.4c0,0.8,0.6,1.3,1.4,1.3c0.8,0,1.4-0.6,1.4-1.3
			c0-0.8-0.6-1.3-1.4-1.3C480.6,117,480.1,117.6,480.1,118.4z"/>
	</g>
</g>
<g>
	<path class="st1" d="M454.5,71.9c0,3.2-2.4,5.6-5.7,5.6c-3.3,0-5.7-2.4-5.7-5.6c0-3.2,2.4-5.6,5.7-5.6
		C452.2,66.3,454.5,68.7,454.5,71.9z M445.4,71.9c0,2.1,1.5,3.6,3.4,3.6c2,0,3.4-1.4,3.4-3.6s-1.4-3.6-3.4-3.6
		C446.8,68.3,445.4,69.8,445.4,71.9z"/>
	<path class="st1" d="M461.8,71.6h-2.7v2.7c0,0.9,0.5,1.3,1.1,1.3c0.5,0,1-0.2,1.4-0.5l0.7,1.6c-0.7,0.4-1.4,0.8-2.5,0.8
		c-1.9,0-2.8-1.1-2.8-3v-2.9h-1.5v-1.8h1.5v-2.2h2v2.2h2.7V71.6z"/>
	<path class="st1" d="M465.6,70.6c0.5-0.7,1.3-1,2.2-1c1.7,0,2.9,1.2,2.9,2.9v4.8h-2v-4.1c0-1.1-0.5-1.7-1.5-1.7
		c-0.9,0-1.6,0.6-1.6,1.7v4.1h-2V66.2h2V70.6z"/>
	<path class="st1" d="M479.7,73.6c0,0.2,0,0.5,0,0.7h-5.3c0.2,1.1,1,1.6,1.9,1.6c0.7,0,1.4-0.3,1.9-0.7l1.2,1.3
		c-0.9,0.8-1.9,1.1-3.2,1.1c-2.3,0-3.9-1.6-3.9-3.9c0-2.4,1.6-4,3.8-4C478.2,69.6,479.7,71.2,479.7,73.6z M474.4,72.9h3.3
		c-0.2-1-0.8-1.5-1.6-1.5C475.1,71.4,474.5,71.9,474.4,72.9z"/>
	<path class="st1" d="M486.5,69.8l-0.3,2c-0.3-0.1-0.8-0.2-1.2-0.2c-0.9,0-1.6,0.6-1.6,1.7v4.1h-2v-7.5h2v0.8c0.5-0.7,1.2-1,2.1-1
		C485.9,69.6,486.2,69.7,486.5,69.8z"/>
	<path class="st1" d="M499.2,69.2c-0.9-0.5-1.9-0.9-3.1-0.9c-1.2,0-2.1,0.5-2.1,1.3c0,0.8,0.9,1,2.2,1.3l0.6,0.1
		c1.9,0.3,3.5,1.1,3.5,3c0,2.4-2.1,3.5-4.4,3.5c-1.6,0-3.4-0.5-4.6-1.4l1.1-1.7c0.8,0.6,2.1,1.2,3.5,1.2c1.2,0,2.1-0.5,2.1-1.3
		c0-0.8-0.8-1-2.3-1.3l-0.7-0.1c-1.9-0.3-3.3-1.1-3.3-3.1c0-2.3,2-3.4,4.3-3.4c1.5,0,2.8,0.3,4.1,1.2L499.2,69.2z"/>
	<path class="st1" d="M509.2,73.6c0,0.2,0,0.5,0,0.7h-5.3c0.2,1.1,1,1.6,1.9,1.6c0.7,0,1.4-0.3,1.9-0.7l1.2,1.3
		c-0.9,0.8-1.9,1.1-3.2,1.1c-2.3,0-3.9-1.6-3.9-3.9c0-2.4,1.6-4,3.8-4C507.7,69.6,509.2,71.2,509.2,73.6z M503.8,72.9h3.3
		c-0.2-1-0.8-1.5-1.6-1.5C504.6,71.4,504,71.9,503.8,72.9z"/>
	<path class="st1" d="M517.4,71l-1.5,1.2c-0.5-0.5-0.9-0.8-1.6-0.8c-1,0-1.9,0.8-1.9,2.1c0,1.3,0.8,2.1,1.9,2.1
		c0.7,0,1.2-0.3,1.6-0.8l1.4,1.2c-0.7,0.9-1.8,1.4-3,1.4c-2.4,0-4-1.7-4-4c0-2.3,1.6-4,4-4C515.7,69.6,516.7,70.1,517.4,71z"/>
	<path class="st1" d="M524.4,71.6h-2.7v2.7c0,0.9,0.5,1.3,1.1,1.3c0.5,0,1-0.2,1.4-0.5l0.7,1.6c-0.7,0.4-1.4,0.8-2.5,0.8
		c-1.9,0-2.8-1.1-2.8-3v-2.9h-1.5v-1.8h1.5v-2.2h2v2.2h2.7V71.6z"/>
	<path class="st1" d="M533.8,73.6c0,2.3-1.7,4-4.1,4c-2.3,0-4.1-1.7-4.1-4c0-2.3,1.7-4,4.1-4C532,69.6,533.8,71.3,533.8,73.6z
		 M527.7,73.6c0,1.2,0.9,2.1,2,2.1c1.1,0,2-0.9,2-2.1s-0.9-2.1-2-2.1C528.5,71.5,527.7,72.3,527.7,73.6z"/>
	<path class="st1" d="M540.6,69.8l-0.3,2c-0.3-0.1-0.8-0.2-1.2-0.2c-0.9,0-1.6,0.6-1.6,1.7v4.1h-2v-7.5h2v0.8c0.5-0.7,1.2-1,2.1-1
		C539.9,69.6,540.3,69.7,540.6,69.8z"/>
	<path class="st1" d="M547.2,71.9c-0.6-0.3-1.6-0.6-2.4-0.6c-0.8,0-1.2,0.3-1.2,0.7c0,0.4,0.5,0.5,1.2,0.6l0.7,0.1
		c1.6,0.2,2.5,1,2.5,2.2c0,1.6-1.3,2.6-3.5,2.6c-1,0-2.4-0.2-3.3-0.9l0.8-1.5c0.6,0.4,1.4,0.7,2.6,0.7c0.9,0,1.4-0.3,1.4-0.7
		c0-0.4-0.4-0.6-1.2-0.7l-0.6-0.1c-1.7-0.2-2.6-1-2.6-2.3c0-1.5,1.2-2.5,3.2-2.5c1.2,0,2.1,0.2,3.1,0.7L547.2,71.9z"/>
</g>
<g>
	<path class="st1" d="M264.9,68.5h-3.4v8.8h-2.2v-8.8h-3.4v-2h8.9V68.5z"/>
	<path class="st1" d="M270.6,69.8l-0.3,2c-0.3-0.1-0.8-0.2-1.2-0.2c-0.9,0-1.6,0.6-1.6,1.7v4.1h-2v-7.5h2v0.8c0.5-0.7,1.2-1,2.1-1
		C269.9,69.6,270.3,69.7,270.6,69.8z"/>
	<path class="st1" d="M279.1,77.3h-2v-0.8c-0.5,0.6-1.2,1-2.2,1c-2.1,0-3.6-1.7-3.6-4s1.6-4,3.6-4c1,0,1.8,0.4,2.2,1v-0.8h2V77.3z
		 M273.3,73.6c0,1.1,0.8,2.1,1.9,2.1c1.2,0,1.9-0.9,1.9-2.1c0-1.2-0.8-2.1-1.9-2.1C274.1,71.5,273.3,72.4,273.3,73.6z"/>
	<path class="st1" d="M288.3,72.5v4.8h-2v-4.1c0-1.1-0.5-1.7-1.5-1.7c-0.9,0-1.6,0.6-1.6,1.7v4.1h-2v-7.5h2v0.9
		c0.5-0.8,1.4-1.1,2.2-1.1C287.1,69.6,288.3,70.8,288.3,72.5z"/>
	<path class="st1" d="M295.8,71.9c-0.6-0.3-1.6-0.6-2.4-0.6c-0.8,0-1.2,0.3-1.2,0.7c0,0.4,0.5,0.5,1.2,0.6l0.7,0.1
		c1.6,0.2,2.5,1,2.5,2.2c0,1.6-1.3,2.6-3.5,2.6c-1,0-2.4-0.2-3.3-0.9l0.8-1.5c0.6,0.4,1.4,0.7,2.6,0.7c0.9,0,1.4-0.3,1.4-0.7
		c0-0.4-0.4-0.6-1.2-0.7l-0.6-0.1c-1.7-0.2-2.6-1-2.6-2.3c0-1.5,1.2-2.5,3.2-2.5c1.2,0,2.1,0.2,3.1,0.7L295.8,71.9z"/>
	<path class="st1" d="M306.1,73.6c0,2.3-1.6,4-3.6,4c-1,0-1.7-0.4-2.2-1v3.9h-2V69.8h2v0.8c0.5-0.6,1.2-1,2.2-1
		C304.6,69.6,306.1,71.3,306.1,73.6z M300.2,73.6c0,1.2,0.8,2.1,1.9,2.1c1.2,0,1.9-0.9,1.9-2.1c0-1.1-0.7-2.1-1.9-2.1
		C301,71.5,300.2,72.4,300.2,73.6z"/>
	<path class="st1" d="M315.5,73.6c0,2.3-1.7,4-4.1,4c-2.3,0-4.1-1.7-4.1-4c0-2.3,1.7-4,4.1-4C313.7,69.6,315.5,71.3,315.5,73.6z
		 M309.4,73.6c0,1.2,0.9,2.1,2,2.1s2-0.9,2-2.1s-0.9-2.1-2-2.1S309.4,72.3,309.4,73.6z"/>
	<path class="st1" d="M322.2,69.8l-0.3,2c-0.3-0.1-0.8-0.2-1.2-0.2c-0.9,0-1.6,0.6-1.6,1.7v4.1h-2v-7.5h2v0.8c0.5-0.7,1.2-1,2.1-1
		C321.6,69.6,322,69.7,322.2,69.8z"/>
	<path class="st1" d="M329.2,71.6h-2.7v2.7c0,0.9,0.5,1.3,1.1,1.3c0.5,0,1-0.2,1.4-0.5l0.7,1.6c-0.7,0.4-1.4,0.8-2.5,0.8
		c-1.9,0-2.8-1.1-2.8-3v-2.9H323v-1.8h1.5v-2.2h2v2.2h2.7V71.6z"/>
	<path class="st1" d="M338.3,77.3h-2v-0.8c-0.5,0.6-1.2,1-2.2,1c-2.1,0-3.6-1.7-3.6-4s1.6-4,3.6-4c1,0,1.8,0.4,2.2,1v-0.8h2V77.3z
		 M332.5,73.6c0,1.1,0.8,2.1,1.9,2.1c1.2,0,1.9-0.9,1.9-2.1c0-1.2-0.8-2.1-1.9-2.1C333.3,71.5,332.5,72.4,332.5,73.6z"/>
	<path class="st1" d="M345.9,71.6h-2.7v2.7c0,0.9,0.5,1.3,1.1,1.3c0.5,0,1-0.2,1.4-0.5l0.7,1.6c-0.7,0.4-1.4,0.8-2.5,0.8
		c-1.9,0-2.8-1.1-2.8-3v-2.9h-1.5v-1.8h1.5v-2.2h2v2.2h2.7V71.6z"/>
	<path class="st1" d="M350,67.4c0,0.7-0.6,1.3-1.3,1.3c-0.7,0-1.3-0.6-1.3-1.3c0-0.7,0.6-1.3,1.3-1.3C349.4,66.1,350,66.6,350,67.4z
		 M349.7,77.3h-2v-7.5h2V77.3z"/>
	<path class="st1" d="M359.5,73.6c0,2.3-1.7,4-4.1,4c-2.3,0-4.1-1.7-4.1-4c0-2.3,1.7-4,4.1-4C357.8,69.6,359.5,71.3,359.5,73.6z
		 M353.4,73.6c0,1.2,0.9,2.1,2,2.1s2-0.9,2-2.1s-0.9-2.1-2-2.1S353.4,72.3,353.4,73.6z"/>
	<path class="st1" d="M368.3,72.5v4.8h-2v-4.1c0-1.1-0.5-1.7-1.5-1.7c-0.9,0-1.6,0.6-1.6,1.7v4.1h-2v-7.5h2v0.9
		c0.5-0.8,1.4-1.1,2.2-1.1C367.1,69.6,368.3,70.8,368.3,72.5z"/>
</g>
<g>
	<path class="st9" d="M309.5,20.5H265l-6.8,5.6c0,0,6.9,6,28.8,6c25.1,0,27.9-6,27.9-6L309.5,20.5z"/>
	<rect x="271.5" y="35.6" class="st8" width="32.6" height="5.1"/>
	<polygon class="st8" points="310.1,18.7 264.7,18.7 268.3,7.8 305.6,7.8 	"/>
	<path class="st9" d="M298.9,15.7h-32.7l3.3-8.4H300l1.5,4.9C302,13.9,300.7,15.7,298.9,15.7z"/>
	<g>
		<polygon class="st10" points="266.6,37.5 261.9,37.5 261.9,33 266.6,34.5 		"/>
		<polygon class="st10" points="312.4,37.5 308.3,37.5 308.3,34.5 312.4,33 		"/>
		<path class="st10" d="M298.9,29.1"/>
		<path class="st10" d="M299,27.8l-9.2,2.4c-1.7,0.4-3.5,0.4-5.2,0l-9.2-2.4l0,0H299L299,27.8z"/>
		<path class="st10" d="M270.9,32.8l-9.1-3l0,0h9.1c0,0,0,0,0,0c-0.6-0.8-1.4-1.4-1.7-1.4l-11.1,0v-3h11.2c1.6,0,3.3,1.5,4.3,2.9
			c0.7,1,0.8,2.1,0.4,3.1C273.4,32.2,272.3,32.8,270.9,32.8z"/>
		<path class="st10" d="M312.5,29.8l-9.1,3c-1.4,0-2.5-0.6-3-1.5c-0.5-0.9-0.3-2,0.4-3.1c1-1.4,2.7-2.9,4.3-2.9h10.6v3H305
			c-0.2,0-1,0.6-1.7,1.4c0,0,0,0,0,0H312.5L312.5,29.8z"/>
		<path class="st10" d="M308,51.1c-3.4,0-6.1-2.7-6.1-6.1v-3.6h3.3V45c0,1.5,1.2,2.8,2.8,2.8h2.6c1.5,0,2.8-1.2,2.8-2.8v-3.6h3.3V45
			c0,3.4-2.7,6.1-6.1,6.1H308z"/>
		<path class="st10" d="M263.9,51.1c-3.4,0-6.1-2.7-6.1-6.1v-3.6h3.3V45c0,1.5,1.2,2.8,2.8,2.8h2.6c1.5,0,2.8-1.2,2.8-2.8v-3.6h3.3
			V45c0,3.4-2.7,6.1-6.1,6.1H263.9z"/>
		<path class="st10" d="M269.1,42.9v-5.1c0-2.4,1.9-4.3,4.3-4.3h28.4c2.4,0,4.3,1.9,4.3,4.3v5.1H269.1z M273.4,36.8
			c-0.5,0-1,0.4-1,1v1.8h30.4v-1.8c0-0.6-0.4-1-1-1H273.4z"/>
		<path class="st10" d="M259.4,42.9c-1.9,0-3.4-1.5-3.4-3.4V27.6c0-1.5,0.8-3.2,1.9-4.2l4.7-4.2c1-0.9,2.8-1.6,4.2-1.6h40.8
			c1.4,0,3.2,0.7,4.2,1.6l4.7,4.2c1.1,1,1.9,2.7,1.9,4.2v11.9c0,1.9-1.5,3.4-3.4,3.4H259.4z M266.8,21c-0.6,0-1.6,0.4-2,0.8
			l-4.7,4.2c-0.4,0.3-0.8,1.2-0.8,1.7v12H315v-12c0-0.5-0.4-1.4-0.8-1.7l-4.7-4.2c-0.4-0.4-1.4-0.8-2-0.8H266.8z"/>
	</g>
	<path class="st10" d="M304.4,9.2h-34.5l-4.1,11.6l-3.1-1.1l4.1-11.5c0.5-1.3,1.8-2.3,3.2-2.3h34.3c1.4,0,2.8,0.9,3.2,2.3l4.3,11.8
		l-3.1,1.2L304.4,9.2z"/>
	<path class="st10" d="M259.7,22.3c-2.2,0-3.9-1.8-3.9-4c0-2.2,1.8-4,3.9-4h5.6v3.3h-5.6c-0.3,0-0.6,0.3-0.6,0.7
		c0,0.4,0.3,0.7,0.6,0.7h3.1v3.3H259.7z"/>
	<path class="st10" d="M310.9,22.3V19h3.7c0.3,0,0.6-0.3,0.6-0.7c0-0.4-0.3-0.7-0.6-0.7H309v-3.3h5.6c2.2,0,3.9,1.8,3.9,4
		c0,2.2-1.8,4-3.9,4H310.9z"/>
</g>
<path class="st11" d="M486.2,103.9"/>
<g>
	<path class="st1" d="M961.4,231.1h-3.4v8.8h-2.2v-8.8h-3.4v-2h8.9V231.1z"/>
	<path class="st1" d="M967.1,232.4l-0.3,2c-0.3-0.1-0.8-0.2-1.2-0.2c-0.9,0-1.6,0.6-1.6,1.7v4.1h-2v-7.5h2v0.8c0.5-0.7,1.2-1,2.1-1
		C966.4,232.2,966.8,232.3,967.1,232.4z"/>
	<path class="st1" d="M975.6,239.9h-2v-0.8c-0.5,0.6-1.2,1-2.2,1c-2.1,0-3.6-1.7-3.6-4c0-2.3,1.6-4,3.6-4c1,0,1.8,0.4,2.2,1v-0.8h2
		V239.9z M969.8,236.1c0,1.1,0.8,2.1,1.9,2.1c1.2,0,1.9-0.9,1.9-2.1c0-1.2-0.8-2.1-1.9-2.1C970.6,234.1,969.8,235,969.8,236.1z"/>
	<path class="st1" d="M980,229.9c0,0.7-0.6,1.3-1.3,1.3c-0.7,0-1.3-0.6-1.3-1.3s0.6-1.3,1.3-1.3C979.5,228.6,980,229.2,980,229.9z
		 M979.8,239.9h-2v-7.5h2V239.9z"/>
	<path class="st1" d="M989,235.1v4.8h-2v-4.1c0-1.1-0.5-1.7-1.5-1.7c-0.9,0-1.6,0.6-1.6,1.7v4.1h-2v-7.5h2v0.9
		c0.5-0.8,1.4-1.1,2.2-1.1C987.8,232.2,989,233.4,989,235.1z"/>
	<path class="st1" d="M996.4,234.5c-0.6-0.3-1.6-0.6-2.4-0.6c-0.8,0-1.2,0.3-1.2,0.7c0,0.4,0.5,0.5,1.2,0.6l0.7,0.1
		c1.6,0.2,2.5,1,2.5,2.2c0,1.6-1.3,2.6-3.5,2.6c-1,0-2.4-0.2-3.3-0.9l0.8-1.5c0.6,0.4,1.4,0.7,2.6,0.7c0.9,0,1.4-0.3,1.4-0.7
		c0-0.4-0.4-0.6-1.2-0.7l-0.6-0.1c-1.7-0.2-2.6-1-2.6-2.3c0-1.5,1.2-2.5,3.2-2.5c1.2,0,2.1,0.2,3.1,0.7L996.4,234.5z"/>
</g>
<polygon class="st12" points="246.8,92.5 246.8,219 987,219.2 987,184.3 427.5,127.4 427.5,92.5 "/>
<g>
	<g>
		<path class="st1" d="M64.1,95.7h-3.5v9.1h-2.2v-9.1h-3.5v-2.1h9.2V95.7z"/>
		<path class="st1" d="M72.1,101c0,2.3-1.8,4.1-4.2,4.1c-2.4,0-4.2-1.7-4.2-4.1c0-2.3,1.8-4.1,4.2-4.1C70.3,96.9,72.1,98.6,72.1,101
			z M65.8,101c0,1.3,0.9,2.1,2.1,2.1c1.2,0,2.1-0.9,2.1-2.1s-0.9-2.1-2.1-2.1C66.7,98.8,65.8,99.7,65.8,101z"/>
		<path class="st1" d="M79.3,98.9h-2.8v2.8c0,1,0.5,1.3,1.2,1.3c0.5,0,1-0.2,1.5-0.5l0.8,1.6c-0.7,0.5-1.5,0.8-2.6,0.8
			c-1.9,0-2.9-1.1-2.9-3.1v-3h-1.5v-1.9h1.5v-2.3h2.1v2.3h2.8V98.9z"/>
		<path class="st1" d="M88.7,104.8h-2V104c-0.5,0.6-1.3,1.1-2.3,1.1c-2.1,0-3.8-1.8-3.8-4.1s1.6-4.1,3.8-4.1c1.1,0,1.8,0.4,2.3,1.1
			v-0.9h2V104.8z M82.7,101c0,1.2,0.8,2.1,2,2.1c1.2,0,2-0.9,2-2.1c0-1.2-0.8-2.1-2-2.1C83.5,98.8,82.7,99.8,82.7,101z"/>
		<path class="st1" d="M93,104.8h-2.1V93.3H93V104.8z"/>
		<path class="st1" d="M108.9,95.1l-1.6,1.6c-0.6-0.7-1.6-1.2-2.7-1.2c-2,0-3.5,1.5-3.5,3.7c0,2.3,1.6,3.7,3.5,3.7
			c1.8,0,2.9-0.9,3.2-2.5h-2.8v-1.9h5.1c0,0.2,0,0.4,0,0.6c0,3.4-2.3,5.8-5.5,5.8c-3.1,0-5.9-2.2-5.9-5.8c0-3.4,2.5-5.8,5.9-5.8
			C106.4,93.4,107.9,94.1,108.9,95.1z"/>
		<path class="st1" d="M117.2,97l-0.3,2.1c-0.3-0.2-0.8-0.2-1.3-0.2c-1,0-1.6,0.6-1.6,1.7v4.2h-2.1v-7.7h2v0.8
			c0.5-0.7,1.2-1.1,2.2-1.1C116.6,96.9,116.9,96.9,117.2,97z"/>
		<path class="st1" d="M125.6,100.9c0,0.2,0,0.5,0,0.7H120c0.2,1.1,1,1.6,2,1.6c0.7,0,1.4-0.3,2-0.7l1.2,1.3c-0.9,0.8-2,1.2-3.3,1.2
			c-2.4,0-4-1.6-4-4.1c0-2.4,1.6-4.1,3.9-4.1C124,96.9,125.6,98.5,125.6,100.9z M120.1,100.2h3.4c-0.2-1-0.8-1.6-1.7-1.6
			C120.8,98.7,120.2,99.3,120.1,100.2z"/>
		<path class="st1" d="M134.5,100.9c0,0.2,0,0.5,0,0.7H129c0.2,1.1,1,1.6,2,1.6c0.7,0,1.4-0.3,2-0.7l1.2,1.3c-0.9,0.8-2,1.2-3.3,1.2
			c-2.4,0-4-1.6-4-4.1c0-2.4,1.6-4.1,3.9-4.1C133,96.9,134.5,98.5,134.5,100.9z M129,100.2h3.4c-0.2-1-0.8-1.6-1.7-1.6
			C129.7,98.7,129.1,99.3,129,100.2z"/>
		<path class="st1" d="M143.5,99.9v4.9h-2.1v-4.3c0-1.1-0.6-1.7-1.5-1.7c-0.9,0-1.6,0.6-1.6,1.8v4.2h-2.1v-7.7h2V98
			c0.6-0.8,1.4-1.1,2.3-1.1C142.3,96.9,143.5,98.1,143.5,99.9z"/>
		<path class="st1" d="M147.7,97.9c0.6-0.8,1.4-1,2.2-1c1.8,0,3,1.2,3,3v4.9h-2.1v-4.3c0-1.1-0.6-1.7-1.5-1.7
			c-0.9,0-1.6,0.6-1.6,1.8v4.2h-2.1V93.3h2.1V97.9z"/>
		<path class="st1" d="M163,101c0,2.3-1.8,4.1-4.2,4.1c-2.4,0-4.2-1.7-4.2-4.1c0-2.3,1.8-4.1,4.2-4.1C161.2,96.9,163,98.6,163,101z
			 M156.8,101c0,1.3,0.9,2.1,2.1,2.1c1.2,0,2.1-0.9,2.1-2.1s-0.9-2.1-2.1-2.1C157.6,98.8,156.8,99.7,156.8,101z"/>
		<path class="st1" d="M172,101.5c0,2.4-1.7,3.5-3.7,3.5c-1.9,0-3.7-1.1-3.7-3.5v-4.4h2.1v4.3c0,1.2,0.7,1.7,1.6,1.7
			c0.9,0,1.6-0.5,1.6-1.7v-4.3h2.1V101.5z"/>
		<path class="st1" d="M179.7,99.2c-0.6-0.3-1.6-0.6-2.5-0.6c-0.8,0-1.2,0.3-1.2,0.7c0,0.4,0.6,0.6,1.3,0.7l0.7,0.1
			c1.7,0.3,2.6,1,2.6,2.3c0,1.6-1.3,2.6-3.6,2.6c-1.1,0-2.4-0.2-3.4-0.9l0.8-1.6c0.7,0.4,1.5,0.8,2.6,0.8c1,0,1.4-0.3,1.4-0.7
			c0-0.4-0.4-0.6-1.3-0.7l-0.6-0.1c-1.8-0.2-2.7-1-2.7-2.4c0-1.6,1.2-2.5,3.3-2.5c1.2,0,2.2,0.2,3.2,0.7L179.7,99.2z"/>
		<path class="st1" d="M189.4,100.9c0,0.2,0,0.5,0,0.7h-5.5c0.2,1.1,1,1.6,2,1.6c0.7,0,1.4-0.3,2-0.7l1.2,1.3
			c-0.9,0.8-2,1.2-3.3,1.2c-2.4,0-4-1.6-4-4.1c0-2.4,1.6-4.1,3.9-4.1C187.9,96.9,189.4,98.5,189.4,100.9z M183.9,100.2h3.4
			c-0.2-1-0.8-1.6-1.7-1.6C184.6,98.7,184,99.3,183.9,100.2z"/>
		<path class="st1" d="M204.8,95.1l-1.6,1.6c-0.6-0.7-1.6-1.2-2.7-1.2c-2,0-3.5,1.5-3.5,3.7c0,2.3,1.6,3.7,3.5,3.7
			c1.8,0,2.9-0.9,3.2-2.5h-2.8v-1.9h5.1c0,0.2,0,0.4,0,0.6c0,3.4-2.3,5.8-5.5,5.8c-3.1,0-5.9-2.2-5.9-5.8c0-3.4,2.5-5.8,5.9-5.8
			C202.4,93.4,203.9,94.1,204.8,95.1z"/>
		<path class="st1" d="M215.5,104.8h-2V104c-0.5,0.6-1.3,1.1-2.3,1.1c-2.1,0-3.8-1.8-3.8-4.1s1.6-4.1,3.8-4.1c1.1,0,1.8,0.4,2.3,1.1
			v-0.9h2V104.8z M209.5,101c0,1.2,0.8,2.1,2,2.1c1.2,0,2-0.9,2-2.1c0-1.2-0.8-2.1-2-2.1C210.3,98.8,209.5,99.8,209.5,101z"/>
		<path class="st1" d="M223.3,99.2c-0.6-0.3-1.6-0.6-2.5-0.6c-0.8,0-1.2,0.3-1.2,0.7c0,0.4,0.6,0.6,1.3,0.7l0.7,0.1
			c1.7,0.3,2.6,1,2.6,2.3c0,1.6-1.3,2.6-3.6,2.6c-1.1,0-2.4-0.2-3.4-0.9l0.8-1.6c0.7,0.4,1.5,0.8,2.6,0.8c1,0,1.4-0.3,1.4-0.7
			c0-0.4-0.4-0.6-1.3-0.7l-0.6-0.1c-1.8-0.2-2.7-1-2.7-2.4c0-1.6,1.2-2.5,3.3-2.5c1.2,0,2.2,0.2,3.2,0.7L223.3,99.2z"/>
		<path class="st1" d="M64.3,124H56v-11.2h8.3v2h-6.1v2.5H64v2h-5.8v2.6h6.1V124z"/>
		<path class="st1" d="M79,119.1v4.9h-2.1v-4.3c0-1.1-0.6-1.7-1.5-1.7c-0.9,0-1.6,0.6-1.6,1.8v4.2h-2.1v-4.3c0-1.1-0.6-1.7-1.5-1.7
			c-0.9,0-1.6,0.6-1.6,1.8v4.2h-2.1v-7.7h2v0.9c0.6-0.8,1.4-1.1,2.3-1.1c1.1,0,2,0.5,2.6,1.3c0.6-1,1.6-1.3,2.6-1.3
			C77.8,116.1,79,117.3,79,119.1z"/>
		<path class="st1" d="M83.5,113.7c0,0.8-0.6,1.3-1.3,1.3s-1.3-0.6-1.3-1.3s0.6-1.3,1.3-1.3S83.5,113,83.5,113.7z M83.2,124h-2.1
			v-7.7h2.1V124z"/>
		<path class="st1" d="M91,118.4c-0.6-0.3-1.6-0.6-2.5-0.6c-0.8,0-1.2,0.3-1.2,0.7c0,0.4,0.6,0.6,1.3,0.7l0.7,0.1
			c1.7,0.3,2.6,1,2.6,2.3c0,1.6-1.3,2.6-3.6,2.6c-1.1,0-2.4-0.2-3.4-0.9l0.8-1.6c0.7,0.4,1.5,0.8,2.6,0.8c1,0,1.4-0.3,1.4-0.7
			c0-0.4-0.4-0.6-1.3-0.7l-0.6-0.1c-1.8-0.2-2.7-1-2.7-2.4c0-1.6,1.2-2.5,3.3-2.5c1.2,0,2.2,0.2,3.2,0.7L91,118.4z"/>
		<path class="st1" d="M99,118.4c-0.6-0.3-1.6-0.6-2.5-0.6c-0.8,0-1.2,0.3-1.2,0.7c0,0.4,0.6,0.6,1.3,0.7l0.7,0.1
			c1.7,0.3,2.6,1,2.6,2.3c0,1.6-1.3,2.6-3.6,2.6c-1.1,0-2.4-0.2-3.4-0.9l0.8-1.6c0.7,0.4,1.5,0.8,2.6,0.8c1,0,1.4-0.3,1.4-0.7
			c0-0.4-0.4-0.6-1.3-0.7l-0.6-0.1c-1.8-0.2-2.7-1-2.7-2.4c0-1.6,1.2-2.5,3.3-2.5c1.2,0,2.2,0.2,3.2,0.7L99,118.4z"/>
		<path class="st1" d="M103.9,113.7c0,0.8-0.6,1.3-1.3,1.3s-1.3-0.6-1.3-1.3s0.6-1.3,1.3-1.3S103.9,113,103.9,113.7z M103.7,124
			h-2.1v-7.7h2.1V124z"/>
		<path class="st1" d="M113.8,120.2c0,2.3-1.8,4.1-4.2,4.1c-2.4,0-4.2-1.7-4.2-4.1s1.8-4.1,4.2-4.1
			C112,116.1,113.8,117.8,113.8,120.2z M107.5,120.2c0,1.3,0.9,2.1,2.1,2.1c1.2,0,2.1-0.9,2.1-2.1c0-1.3-0.9-2.1-2.1-2.1
			C108.4,118,107.5,118.9,107.5,120.2z"/>
		<path class="st1" d="M122.8,119.1v4.9h-2.1v-4.3c0-1.1-0.6-1.7-1.5-1.7c-0.9,0-1.6,0.6-1.6,1.8v4.2h-2.1v-7.7h2v0.9
			c0.6-0.8,1.4-1.1,2.3-1.1C121.5,116.1,122.8,117.3,122.8,119.1z"/>
		<path class="st1" d="M137,120.2c0,2.3-1.6,4.1-3.8,4.1c-1.1,0-1.8-0.4-2.3-1.1v0.9h-2v-11.5h2.1v4.6c0.5-0.6,1.2-1,2.3-1
			C135.4,116.1,137,117.8,137,120.2z M130.9,120.2c0,1.2,0.8,2.1,2,2.1c1.2,0,2-1,2-2.1s-0.8-2.1-2-2.1
			C131.7,118,130.9,118.9,130.9,120.2z"/>
		<path class="st1" d="M140.2,127.3h-2.3l2.7-4.9l-3.3-6.1h2.4l2.1,4l2.1-4h2.3L140.2,127.3z"/>
		<path class="st1" d="M158.8,115.7c-0.9-0.5-2-1-3.2-1c-1.3,0-2.1,0.5-2.1,1.3c0,0.8,1,1.1,2.3,1.3l0.6,0.1c2,0.3,3.6,1.2,3.6,3.1
			c0,2.5-2.2,3.6-4.6,3.6c-1.7,0-3.5-0.5-4.7-1.5l1.2-1.8c0.8,0.6,2.1,1.2,3.6,1.2c1.2,0,2.2-0.5,2.2-1.4c0-0.8-0.8-1.1-2.4-1.3
			l-0.7-0.1c-2-0.3-3.4-1.2-3.4-3.2c0-2.3,2.1-3.5,4.5-3.5c1.6,0,2.9,0.4,4.3,1.2L158.8,115.7z"/>
		<path class="st1" d="M169.1,120.1c0,0.2,0,0.5,0,0.7h-5.5c0.2,1.1,1,1.6,2,1.6c0.7,0,1.4-0.3,2-0.7l1.2,1.3
			c-0.9,0.8-2,1.2-3.3,1.2c-2.4,0-4-1.6-4-4.1c0-2.4,1.6-4.1,3.9-4.1C167.6,116.1,169.1,117.7,169.1,120.1z M163.6,119.4h3.4
			c-0.2-1-0.8-1.6-1.7-1.6C164.3,117.9,163.7,118.5,163.6,119.4z"/>
		<path class="st1" d="M177.5,117.5l-1.5,1.3c-0.5-0.5-1-0.8-1.7-0.8c-1.1,0-1.9,0.8-1.9,2.1c0,1.3,0.9,2.1,1.9,2.1
			c0.7,0,1.2-0.3,1.7-0.8l1.5,1.3c-0.7,0.9-1.8,1.5-3.1,1.5c-2.5,0-4.1-1.7-4.1-4.1c0-2.3,1.7-4.1,4.1-4.1
			C175.7,116.1,176.8,116.6,177.5,117.5z"/>
		<path class="st1" d="M184.8,118.1H182v2.8c0,1,0.5,1.3,1.2,1.3c0.5,0,1-0.2,1.5-0.5l0.8,1.6c-0.7,0.5-1.5,0.8-2.6,0.8
			c-1.9,0-2.9-1.1-2.9-3.1v-3h-1.5v-1.9h1.5V114h2.1v2.3h2.8V118.1z"/>
		<path class="st1" d="M194.4,120.2c0,2.3-1.8,4.1-4.2,4.1c-2.4,0-4.2-1.7-4.2-4.1s1.8-4.1,4.2-4.1
			C192.6,116.1,194.4,117.8,194.4,120.2z M188.2,120.2c0,1.3,0.9,2.1,2.1,2.1c1.2,0,2.1-0.9,2.1-2.1c0-1.3-0.9-2.1-2.1-2.1
			C189,118,188.2,118.9,188.2,120.2z"/>
		<path class="st1" d="M201.4,116.2l-0.3,2.1c-0.3-0.2-0.8-0.2-1.3-0.2c-1,0-1.6,0.6-1.6,1.7v4.2h-2.1v-7.7h2v0.8
			c0.5-0.7,1.2-1.1,2.2-1.1C200.8,116.1,201.1,116.1,201.4,116.2z"/>
	</g>
</g>
<g>
	<g>
		<path class="st1" d="M64.1,190.3h-3.5v9.1h-2.2v-9.1h-3.5v-2.1h9.2V190.3z"/>
		<path class="st1" d="M72.1,195.6c0,2.3-1.8,4.1-4.2,4.1c-2.4,0-4.2-1.7-4.2-4.1c0-2.3,1.8-4.1,4.2-4.1
			C70.3,191.5,72.1,193.2,72.1,195.6z M65.8,195.6c0,1.3,0.9,2.1,2.1,2.1c1.2,0,2.1-0.9,2.1-2.1c0-1.3-0.9-2.1-2.1-2.1
			C66.7,193.4,65.8,194.3,65.8,195.6z"/>
		<path class="st1" d="M79.3,193.6h-2.8v2.8c0,1,0.5,1.3,1.2,1.3c0.5,0,1-0.2,1.5-0.5l0.8,1.6c-0.7,0.5-1.5,0.8-2.6,0.8
			c-1.9,0-2.9-1.1-2.9-3.1v-3h-1.5v-1.9h1.5v-2.3h2.1v2.3h2.8V193.6z"/>
		<path class="st1" d="M88.7,199.5h-2v-0.9c-0.5,0.6-1.3,1.1-2.3,1.1c-2.1,0-3.8-1.8-3.8-4.1c0-2.3,1.6-4.1,3.8-4.1
			c1.1,0,1.8,0.4,2.3,1.1v-0.9h2V199.5z M82.7,195.6c0,1.2,0.8,2.1,2,2.1c1.2,0,2-0.9,2-2.1c0-1.2-0.8-2.1-2-2.1
			C83.5,193.4,82.7,194.4,82.7,195.6z"/>
		<path class="st1" d="M93,199.5h-2.1v-11.5H93V199.5z"/>
		<path class="st1" d="M108.9,189.8l-1.6,1.6c-0.6-0.7-1.6-1.2-2.7-1.2c-2,0-3.5,1.5-3.5,3.7c0,2.3,1.6,3.7,3.5,3.7
			c1.8,0,2.9-0.9,3.2-2.5h-2.8v-1.9h5.1c0,0.2,0,0.4,0,0.6c0,3.4-2.3,5.8-5.5,5.8c-3.1,0-5.9-2.2-5.9-5.8c0-3.4,2.5-5.8,5.9-5.8
			C106.4,188.1,107.9,188.7,108.9,189.8z"/>
		<path class="st1" d="M117.2,191.7l-0.3,2.1c-0.3-0.2-0.8-0.2-1.3-0.2c-1,0-1.6,0.6-1.6,1.7v4.2h-2.1v-7.7h2v0.8
			c0.5-0.7,1.2-1.1,2.2-1.1C116.6,191.5,116.9,191.6,117.2,191.7z"/>
		<path class="st1" d="M125.6,195.6c0,0.2,0,0.5,0,0.7H120c0.2,1.1,1,1.6,2,1.6c0.7,0,1.4-0.3,2-0.7l1.2,1.3c-0.9,0.8-2,1.2-3.3,1.2
			c-2.4,0-4-1.6-4-4.1s1.6-4.1,3.9-4.1C124,191.5,125.6,193.2,125.6,195.6z M120.1,194.8h3.4c-0.2-1-0.8-1.6-1.7-1.6
			C120.8,193.3,120.2,193.9,120.1,194.8z"/>
		<path class="st1" d="M134.5,195.6c0,0.2,0,0.5,0,0.7H129c0.2,1.1,1,1.6,2,1.6c0.7,0,1.4-0.3,2-0.7l1.2,1.3c-0.9,0.8-2,1.2-3.3,1.2
			c-2.4,0-4-1.6-4-4.1s1.6-4.1,3.9-4.1C133,191.5,134.5,193.2,134.5,195.6z M129,194.8h3.4c-0.2-1-0.8-1.6-1.7-1.6
			C129.7,193.3,129.1,193.9,129,194.8z"/>
		<path class="st1" d="M143.5,194.5v4.9h-2.1v-4.3c0-1.1-0.6-1.7-1.5-1.7c-0.9,0-1.6,0.6-1.6,1.8v4.2h-2.1v-7.7h2v0.9
			c0.6-0.8,1.4-1.1,2.3-1.1C142.3,191.5,143.5,192.7,143.5,194.5z"/>
		<path class="st1" d="M147.7,192.5c0.6-0.8,1.4-1,2.2-1c1.8,0,3,1.2,3,3v4.9h-2.1v-4.3c0-1.1-0.6-1.7-1.5-1.7
			c-0.9,0-1.6,0.6-1.6,1.8v4.2h-2.1v-11.5h2.1V192.5z"/>
		<path class="st1" d="M163,195.6c0,2.3-1.8,4.1-4.2,4.1c-2.4,0-4.2-1.7-4.2-4.1c0-2.3,1.8-4.1,4.2-4.1
			C161.2,191.5,163,193.2,163,195.6z M156.8,195.6c0,1.3,0.9,2.1,2.1,2.1c1.2,0,2.1-0.9,2.1-2.1c0-1.3-0.9-2.1-2.1-2.1
			C157.6,193.4,156.8,194.3,156.8,195.6z"/>
		<path class="st1" d="M172,196.2c0,2.4-1.7,3.5-3.7,3.5c-1.9,0-3.7-1.1-3.7-3.5v-4.4h2.1v4.3c0,1.2,0.7,1.7,1.6,1.7
			c0.9,0,1.6-0.5,1.6-1.7v-4.3h2.1V196.2z"/>
		<path class="st1" d="M179.7,193.9c-0.6-0.3-1.6-0.6-2.5-0.6c-0.8,0-1.2,0.3-1.2,0.7c0,0.4,0.6,0.6,1.3,0.7l0.7,0.1
			c1.7,0.3,2.6,1,2.6,2.3c0,1.6-1.3,2.6-3.6,2.6c-1.1,0-2.4-0.2-3.4-0.9l0.8-1.6c0.7,0.4,1.5,0.8,2.6,0.8c1,0,1.4-0.3,1.4-0.7
			c0-0.4-0.4-0.6-1.3-0.7l-0.6-0.1c-1.8-0.2-2.7-1-2.7-2.4c0-1.6,1.2-2.5,3.3-2.5c1.2,0,2.2,0.2,3.2,0.7L179.7,193.9z"/>
		<path class="st1" d="M189.4,195.6c0,0.2,0,0.5,0,0.7h-5.5c0.2,1.1,1,1.6,2,1.6c0.7,0,1.4-0.3,2-0.7l1.2,1.3
			c-0.9,0.8-2,1.2-3.3,1.2c-2.4,0-4-1.6-4-4.1s1.6-4.1,3.9-4.1C187.9,191.5,189.4,193.2,189.4,195.6z M183.9,194.8h3.4
			c-0.2-1-0.8-1.6-1.7-1.6C184.6,193.3,184,193.9,183.9,194.8z"/>
		<path class="st1" d="M204.8,189.8l-1.6,1.6c-0.6-0.7-1.6-1.2-2.7-1.2c-2,0-3.5,1.5-3.5,3.7c0,2.3,1.6,3.7,3.5,3.7
			c1.8,0,2.9-0.9,3.2-2.5h-2.8v-1.9h5.1c0,0.2,0,0.4,0,0.6c0,3.4-2.3,5.8-5.5,5.8c-3.1,0-5.9-2.2-5.9-5.8c0-3.4,2.5-5.8,5.9-5.8
			C202.4,188.1,203.9,188.7,204.8,189.8z"/>
		<path class="st1" d="M215.5,199.5h-2v-0.9c-0.5,0.6-1.3,1.1-2.3,1.1c-2.1,0-3.8-1.8-3.8-4.1c0-2.3,1.6-4.1,3.8-4.1
			c1.1,0,1.8,0.4,2.3,1.1v-0.9h2V199.5z M209.5,195.6c0,1.2,0.8,2.1,2,2.1c1.2,0,2-0.9,2-2.1c0-1.2-0.8-2.1-2-2.1
			C210.3,193.4,209.5,194.4,209.5,195.6z"/>
		<path class="st1" d="M223.3,193.9c-0.6-0.3-1.6-0.6-2.5-0.6c-0.8,0-1.2,0.3-1.2,0.7c0,0.4,0.6,0.6,1.3,0.7l0.7,0.1
			c1.7,0.3,2.6,1,2.6,2.3c0,1.6-1.3,2.6-3.6,2.6c-1.1,0-2.4-0.2-3.4-0.9l0.8-1.6c0.7,0.4,1.5,0.8,2.6,0.8c1,0,1.4-0.3,1.4-0.7
			c0-0.4-0.4-0.6-1.3-0.7l-0.6-0.1c-1.8-0.2-2.7-1-2.7-2.4c0-1.6,1.2-2.5,3.3-2.5c1.2,0,2.2,0.2,3.2,0.7L223.3,193.9z"/>
		<path class="st1" d="M64.3,218.7H56v-11.2h8.3v2h-6.1v2.5H64v2h-5.8v2.6h6.1V218.7z"/>
		<path class="st1" d="M79,213.7v4.9h-2.1v-4.3c0-1.1-0.6-1.7-1.5-1.7c-0.9,0-1.6,0.6-1.6,1.8v4.2h-2.1v-4.3c0-1.1-0.6-1.7-1.5-1.7
			c-0.9,0-1.6,0.6-1.6,1.8v4.2h-2.1v-7.7h2v0.9c0.6-0.8,1.4-1.1,2.3-1.1c1.1,0,2,0.5,2.6,1.3c0.6-1,1.6-1.3,2.6-1.3
			C77.8,210.7,79,211.9,79,213.7z"/>
		<path class="st1" d="M83.5,208.4c0,0.8-0.6,1.3-1.3,1.3s-1.3-0.6-1.3-1.3s0.6-1.3,1.3-1.3S83.5,207.6,83.5,208.4z M83.2,218.7
			h-2.1v-7.7h2.1V218.7z"/>
		<path class="st1" d="M91,213.1c-0.6-0.3-1.6-0.6-2.5-0.6c-0.8,0-1.2,0.3-1.2,0.7c0,0.4,0.6,0.6,1.3,0.7l0.7,0.1
			c1.7,0.3,2.6,1,2.6,2.3c0,1.6-1.3,2.6-3.6,2.6c-1.1,0-2.4-0.2-3.4-0.9l0.8-1.6c0.7,0.4,1.5,0.8,2.6,0.8c1,0,1.4-0.3,1.4-0.7
			c0-0.4-0.4-0.6-1.3-0.7l-0.6-0.1c-1.8-0.2-2.7-1-2.7-2.4c0-1.6,1.2-2.5,3.3-2.5c1.2,0,2.2,0.2,3.2,0.7L91,213.1z"/>
		<path class="st1" d="M99,213.1c-0.6-0.3-1.6-0.6-2.5-0.6c-0.8,0-1.2,0.3-1.2,0.7c0,0.4,0.6,0.6,1.3,0.7l0.7,0.1
			c1.7,0.3,2.6,1,2.6,2.3c0,1.6-1.3,2.6-3.6,2.6c-1.1,0-2.4-0.2-3.4-0.9l0.8-1.6c0.7,0.4,1.5,0.8,2.6,0.8c1,0,1.4-0.3,1.4-0.7
			c0-0.4-0.4-0.6-1.3-0.7l-0.6-0.1c-1.8-0.2-2.7-1-2.7-2.4c0-1.6,1.2-2.5,3.3-2.5c1.2,0,2.2,0.2,3.2,0.7L99,213.1z"/>
		<path class="st1" d="M103.9,208.4c0,0.8-0.6,1.3-1.3,1.3s-1.3-0.6-1.3-1.3s0.6-1.3,1.3-1.3S103.9,207.6,103.9,208.4z M103.7,218.7
			h-2.1v-7.7h2.1V218.7z"/>
		<path class="st1" d="M113.8,214.8c0,2.3-1.8,4.1-4.2,4.1c-2.4,0-4.2-1.7-4.2-4.1s1.8-4.1,4.2-4.1
			C112,210.7,113.8,212.4,113.8,214.8z M107.5,214.8c0,1.3,0.9,2.1,2.1,2.1c1.2,0,2.1-0.9,2.1-2.1c0-1.3-0.9-2.1-2.1-2.1
			C108.4,212.6,107.5,213.5,107.5,214.8z"/>
		<path class="st1" d="M122.8,213.7v4.9h-2.1v-4.3c0-1.1-0.6-1.7-1.5-1.7c-0.9,0-1.6,0.6-1.6,1.8v4.2h-2.1v-7.7h2v0.9
			c0.6-0.8,1.4-1.1,2.3-1.1C121.5,210.7,122.8,211.9,122.8,213.7z"/>
		<path class="st1" d="M137,214.8c0,2.3-1.6,4.1-3.8,4.1c-1.1,0-1.8-0.4-2.3-1.1v0.9h-2v-11.5h2.1v4.6c0.5-0.6,1.2-1,2.3-1
			C135.4,210.7,137,212.4,137,214.8z M130.9,214.8c0,1.2,0.8,2.1,2,2.1c1.2,0,2-1,2-2.1s-0.8-2.1-2-2.1
			C131.7,212.6,130.9,213.6,130.9,214.8z"/>
		<path class="st1" d="M140.2,221.9h-2.3l2.7-4.9l-3.3-6.1h2.4l2.1,4l2.1-4h2.3L140.2,221.9z"/>
		<path class="st1" d="M163.5,218.7h-2.2v-8.5l-2.8,7.4h-2.4l-2.8-7.3v8.4h-2.2v-11.2h3.3l2.9,7.6l2.9-7.6h3.3V218.7z"/>
		<path class="st1" d="M173.8,214.8c0,2.3-1.8,4.1-4.2,4.1c-2.4,0-4.2-1.7-4.2-4.1s1.8-4.1,4.2-4.1
			C172,210.7,173.8,212.4,173.8,214.8z M167.5,214.8c0,1.3,0.9,2.1,2.1,2.1c1.2,0,2.1-0.9,2.1-2.1c0-1.3-0.9-2.1-2.1-2.1
			C168.4,212.6,167.5,213.5,167.5,214.8z"/>
		<path class="st1" d="M181,211.7v-4.6h2.1v11.5h-2v-0.9c-0.5,0.6-1.3,1.1-2.3,1.1c-2.1,0-3.8-1.8-3.8-4.1c0-2.3,1.6-4.1,3.8-4.1
			C179.8,210.7,180.5,211.1,181,211.7z M177.1,214.8c0,1.2,0.8,2.1,2,2.1c1.2,0,2-0.9,2-2.1s-0.8-2.1-2-2.1
			C177.9,212.6,177.1,213.6,177.1,214.8z"/>
		<path class="st1" d="M192.5,214.8c0,0.2,0,0.5,0,0.7H187c0.2,1.1,1,1.6,2,1.6c0.7,0,1.4-0.3,2-0.7l1.2,1.3c-0.9,0.8-2,1.2-3.3,1.2
			c-2.4,0-4-1.6-4-4.1c0-2.4,1.6-4.1,3.9-4.1C191,210.7,192.5,212.4,192.5,214.8z M187,214h3.4c-0.2-1-0.8-1.6-1.7-1.6
			C187.8,212.5,187.2,213.1,187,214z"/>
	</g>
</g>
</svg>
