<?xml version="1.0" encoding="utf-8"?>
<!-- Generator: Adobe Illustrator 25.0.1, SVG Export Plug-In . SVG Version: 6.00 Build 0)  -->
<svg version="1.1" id="Layer_1" xmlns="http://www.w3.org/2000/svg" xmlns:xlink="http://www.w3.org/1999/xlink" x="0px" y="0px"
	 viewBox="0 0 1000 250.9" style="enable-background:new 0 0 1000 250.9;" xml:space="preserve">
<style type="text/css">
	.st0{opacity:0.75;}
	.st1{fill:#203232;}
	.st2{fill:#ED5A36;}
	.st3{fill:#15BEF0;}
	.st4{fill:#FFB819;}
	.st5{fill:#C7CCCC;}
	.st6{fill:#F47E20;}
	.st7{fill:#D02259;}
	.st8{fill:#FFFFFF;}
	.st9{fill:#EB5A36;}
	.st10{fill:#203231;}
	.st11{fill:none;stroke:#E8EAEA;stroke-width:3.5168;stroke-miterlimit:10;}
	.st12{fill:none;stroke:#203232;stroke-width:1.6241;stroke-linecap:square;stroke-miterlimit:10;stroke-dasharray:1.6241,4.0602;}
</style>
<g class="st0">
	<g>
		<rect x="418.3" y="92.6" class="st1" width="574" height="35.2"/>
	</g>
</g>
<g>
	<g>
		<g>
			<rect x="246.8" y="92.6" class="st2" width="182" height="35.2"/>
		</g>
	</g>
</g>
<g>
	<g>
		<g>
			<rect x="955.4" y="185.1" class="st3" width="36.9" height="35.2"/>
		</g>
	</g>
</g>
<g>
	<g>
		<g>
			<rect x="874.2" y="185.1" class="st4" width="81.2" height="35.2"/>
		</g>
	</g>
</g>
<g>
	<g>
		<g>
			<rect x="793" y="185.1" class="st5" width="81.2" height="35.2"/>
		</g>
	</g>
</g>
<g>
	<g>
		<g>
			<rect x="542.1" y="185.1" class="st6" width="250.9" height="35.2"/>
		</g>
	</g>
</g>
<g>
	<g>
		<g>
			<rect x="246.8" y="185.1" class="st7" width="295.2" height="35.2"/>
		</g>
	</g>
</g>
<g>
	<path class="st1" d="M267.4,241.1H265l-1-2.6h-4.7l-1,2.6H256l4.3-11.1h2.7L267.4,241.1z M260.1,236.5h3.2l-1.6-4.3L260.1,236.5z"
		/>
	<path class="st1" d="M275.6,237.8c0,2.4-1.7,3.5-3.6,3.5c-1.9,0-3.6-1-3.6-3.5v-4.4h2.1v4.2c0,1.2,0.7,1.7,1.6,1.7
		c0.9,0,1.6-0.5,1.6-1.7v-4.2h2.1V237.8z"/>
	<path class="st1" d="M283.3,235.2h-2.8v2.8c0,1,0.5,1.3,1.1,1.3c0.5,0,1-0.2,1.4-0.5l0.8,1.6c-0.7,0.5-1.4,0.8-2.5,0.8
		c-1.9,0-2.9-1.1-2.9-3.1v-3H277v-1.8h1.5v-2.3h2.1v2.3h2.8V235.2z"/>
	<path class="st1" d="M292.9,237.2c0,2.3-1.8,4-4.2,4c-2.4,0-4.1-1.7-4.1-4s1.8-4,4.1-4C291.1,233.2,292.9,234.9,292.9,237.2z
		 M286.7,237.2c0,1.2,0.9,2.1,2,2.1s2-0.9,2-2.1s-0.9-2.1-2-2.1S286.7,236,286.7,237.2z"/>
	<path class="st1" d="M307,236.2v4.9h-2.1v-4.2c0-1.1-0.6-1.7-1.5-1.7c-0.9,0-1.6,0.6-1.6,1.7v4.2h-2.1v-4.2c0-1.1-0.6-1.7-1.5-1.7
		c-0.9,0-1.6,0.6-1.6,1.7v4.2h-2.1v-7.7h2v0.9c0.5-0.8,1.4-1.1,2.3-1.1c1.1,0,2,0.5,2.5,1.3c0.6-1,1.6-1.3,2.6-1.3
		C305.7,233.2,307,234.4,307,236.2z"/>
	<path class="st1" d="M316.9,237.2c0,2.3-1.8,4-4.2,4c-2.4,0-4.1-1.7-4.1-4s1.8-4,4.1-4C315.1,233.2,316.9,234.9,316.9,237.2z
		 M310.7,237.2c0,1.2,0.9,2.1,2,2.1s2-0.9,2-2.1s-0.9-2.1-2-2.1S310.7,236,310.7,237.2z"/>
	<path class="st1" d="M326.6,237.2c0,2.3-1.6,4-3.7,4c-1.1,0-1.8-0.4-2.3-1v0.8h-2v-11.4h2.1v4.5c0.5-0.6,1.2-1,2.2-1
		C325,233.2,326.6,234.9,326.6,237.2z M320.5,237.2c0,1.2,0.8,2.1,2,2.1c1.2,0,2-0.9,2-2.1s-0.8-2.1-2-2.1
		C321.3,235.1,320.5,236,320.5,237.2z"/>
	<path class="st1" d="M330.6,230.9c0,0.7-0.6,1.3-1.3,1.3c-0.7,0-1.3-0.6-1.3-1.3c0-0.7,0.6-1.3,1.3-1.3
		C330,229.6,330.6,230.1,330.6,230.9z M330.3,241.1h-2.1v-7.7h2.1V241.1z"/>
	<path class="st1" d="M334.6,241.1h-2.1v-11.4h2.1V241.1z"/>
	<path class="st1" d="M343.9,237.2c0,0.2,0,0.5,0,0.7h-5.4c0.2,1.1,1,1.6,2,1.6c0.7,0,1.4-0.3,1.9-0.7l1.2,1.3
		c-0.9,0.8-2,1.2-3.3,1.2c-2.4,0-4-1.6-4-4c0-2.4,1.6-4.1,3.9-4.1C342.4,233.2,343.9,234.8,343.9,237.2z M338.4,236.5h3.4
		c-0.2-1-0.8-1.5-1.7-1.5C339.2,235,338.6,235.6,338.4,236.5z"/>
	<path class="st1" d="M351,235.5c-0.6-0.3-1.6-0.6-2.4-0.6c-0.8,0-1.2,0.3-1.2,0.7c0,0.4,0.6,0.6,1.3,0.7l0.7,0.1
		c1.7,0.3,2.6,1,2.6,2.3c0,1.6-1.3,2.6-3.5,2.6c-1,0-2.4-0.2-3.4-0.9l0.8-1.6c0.7,0.4,1.5,0.8,2.6,0.8c1,0,1.4-0.3,1.4-0.7
		c0-0.4-0.4-0.6-1.3-0.7l-0.6-0.1c-1.8-0.2-2.7-1-2.7-2.3c0-1.6,1.2-2.5,3.2-2.5c1.2,0,2.2,0.2,3.2,0.7L351,235.5z"/>
</g>
<g>
	<path class="st1" d="M561,232.3l-1.9,1.2c-0.6-1-1.6-1.5-2.9-1.5c-2,0-3.5,1.5-3.5,3.6c0,2.2,1.5,3.6,3.5,3.6
		c1.2,0,2.2-0.6,2.9-1.5l1.8,1.3c-1,1.4-2.7,2.3-4.7,2.3c-3.4,0-5.8-2.4-5.8-5.8s2.4-5.7,5.8-5.7C558.3,229.8,560.1,230.7,561,232.3
		z"/>
	<path class="st1" d="M570.1,241.1h-2v-0.8c-0.5,0.6-1.2,1-2.3,1c-2.1,0-3.7-1.7-3.7-4s1.6-4,3.7-4c1.1,0,1.8,0.4,2.3,1.1v-0.8h2
		V241.1z M564.2,237.2c0,1.2,0.8,2.1,2,2.1c1.2,0,2-0.9,2-2.1s-0.8-2.1-2-2.1C564.9,235.1,564.2,236.1,564.2,237.2z"/>
	<path class="st1" d="M584.7,236.2v4.9h-2.1v-4.2c0-1.1-0.6-1.7-1.5-1.7c-0.9,0-1.6,0.6-1.6,1.7v4.2h-2.1v-4.2
		c0-1.1-0.6-1.7-1.5-1.7c-0.9,0-1.6,0.6-1.6,1.7v4.2h-2.1v-7.7h2v0.9c0.5-0.8,1.4-1.1,2.3-1.1c1.1,0,2,0.5,2.5,1.3
		c0.6-1,1.6-1.3,2.6-1.3C583.5,233.2,584.7,234.4,584.7,236.2z"/>
	<path class="st1" d="M589.1,230.9c0,0.7-0.6,1.3-1.3,1.3s-1.3-0.6-1.3-1.3c0-0.7,0.6-1.3,1.3-1.3S589.1,230.2,589.1,230.9z
		 M588.8,241.1h-2.1v-7.7h2.1V241.1z"/>
	<path class="st1" d="M598.8,237.2c0,2.3-1.8,4-4.2,4c-2.4,0-4.1-1.7-4.1-4s1.8-4,4.1-4C597.1,233.2,598.8,234.9,598.8,237.2z
		 M592.6,237.2c0,1.2,0.9,2.1,2,2.1s2-0.9,2-2.1s-0.9-2.1-2-2.1S592.6,236,592.6,237.2z"/>
	<path class="st1" d="M607.8,236.2v4.9h-2.1v-4.2c0-1.1-0.6-1.7-1.5-1.7c-0.9,0-1.6,0.6-1.6,1.7v4.2h-2.1v-7.7h2v0.9
		c0.5-0.8,1.4-1.1,2.3-1.1C606.5,233.2,607.8,234.4,607.8,236.2z"/>
	<path class="st1" d="M615.4,235.5c-0.6-0.3-1.6-0.6-2.4-0.6c-0.8,0-1.2,0.3-1.2,0.7c0,0.4,0.6,0.6,1.3,0.7l0.7,0.1
		c1.7,0.3,2.6,1,2.6,2.3c0,1.6-1.3,2.6-3.5,2.6c-1,0-2.4-0.2-3.4-0.9l0.8-1.6c0.7,0.4,1.5,0.8,2.6,0.8c1,0,1.4-0.3,1.4-0.7
		c0-0.4-0.4-0.6-1.3-0.7l-0.6-0.1c-1.8-0.2-2.7-1-2.7-2.3c0-1.6,1.2-2.5,3.2-2.5c1.2,0,2.2,0.2,3.2,0.7L615.4,235.5z"/>
</g>
<g>
	<path class="st1" d="M813.2,241.1h-2.1l-5.6-7.4l0,7.4h-2.2V230h2.1l5.6,7.4V230h2.2V241.1z"/>
	<path class="st1" d="M823,241.1h-2v-0.8c-0.5,0.6-1.2,1-2.3,1c-2.1,0-3.7-1.7-3.7-4s1.6-4,3.7-4c1.1,0,1.8,0.4,2.3,1.1v-0.8h2
		V241.1z M817.1,237.2c0,1.2,0.8,2.1,2,2.1c1.2,0,2-0.9,2-2.1s-0.8-2.1-2-2.1C817.9,235.1,817.1,236.1,817.1,237.2z"/>
	<path class="st1" d="M829.7,241.1h-2.4l-3-7.7h2.2l2,5.5l2-5.5h2.2L829.7,241.1z"/>
	<path class="st1" d="M836.3,230.9c0,0.7-0.6,1.3-1.3,1.3s-1.3-0.6-1.3-1.3c0-0.7,0.6-1.3,1.3-1.3S836.3,230.1,836.3,230.9z
		 M836,241.1h-2.1v-7.7h2.1V241.1z"/>
	<path class="st1" d="M843.4,233.4l-0.3,2.1c-0.3-0.2-0.8-0.2-1.3-0.2c-1,0-1.6,0.6-1.6,1.7v4.2h-2.1v-7.7h2v0.8
		c0.5-0.7,1.2-1,2.2-1C842.7,233.2,843.1,233.3,843.4,233.4z"/>
	<path class="st1" d="M851.7,237.2c0,0.2,0,0.5,0,0.7h-5.4c0.2,1.1,1,1.6,2,1.6c0.7,0,1.4-0.3,1.9-0.7l1.2,1.3
		c-0.9,0.8-2,1.2-3.3,1.2c-2.4,0-4-1.6-4-4c0-2.4,1.6-4.1,3.9-4.1C850.1,233.2,851.7,234.8,851.7,237.2z M846.2,236.5h3.4
		c-0.2-1-0.8-1.5-1.7-1.5C846.9,235,846.4,235.6,846.2,236.5z"/>
	<path class="st1" d="M858.8,235.5c-0.6-0.3-1.6-0.6-2.4-0.6c-0.8,0-1.2,0.3-1.2,0.7c0,0.4,0.6,0.6,1.3,0.7l0.7,0.1
		c1.7,0.3,2.6,1,2.6,2.3c0,1.6-1.3,2.6-3.5,2.6c-1,0-2.4-0.2-3.4-0.9l0.8-1.6c0.7,0.4,1.5,0.8,2.6,0.8c1,0,1.4-0.3,1.4-0.7
		c0-0.4-0.4-0.6-1.3-0.7l-0.6-0.1c-1.8-0.2-2.7-1-2.7-2.3c0-1.6,1.2-2.5,3.2-2.5c1.2,0,2.2,0.2,3.2,0.7L858.8,235.5z"/>
</g>
<g>
	<path class="st1" d="M894.8,241.1h-2.4l-1-2.6h-4.7l-1,2.6h-2.3l4.3-11.1h2.7L894.8,241.1z M887.5,236.5h3.2l-1.6-4.3L887.5,236.5z
		"/>
	<path class="st1" d="M900.1,241.1h-2.4l-3-7.7h2.2l2,5.5l2-5.5h2.2L900.1,241.1z"/>
	<path class="st1" d="M906.6,230.9c0,0.7-0.6,1.3-1.3,1.3s-1.3-0.6-1.3-1.3c0-0.7,0.6-1.3,1.3-1.3S906.6,230.1,906.6,230.9z
		 M906.4,241.1h-2.1v-7.7h2.1V241.1z"/>
	<path class="st1" d="M916.3,237.2c0,2.3-1.8,4-4.2,4c-2.4,0-4.1-1.7-4.1-4s1.8-4,4.1-4C914.6,233.2,916.3,234.9,916.3,237.2z
		 M910.2,237.2c0,1.2,0.9,2.1,2,2.1s2-0.9,2-2.1s-0.9-2.1-2-2.1S910.2,236,910.2,237.2z"/>
	<path class="st1" d="M925.3,236.2v4.9h-2.1v-4.2c0-1.1-0.6-1.7-1.5-1.7c-0.9,0-1.6,0.6-1.6,1.7v4.2H918v-7.7h2v0.9
		c0.5-0.8,1.4-1.1,2.3-1.1C924,233.2,925.3,234.4,925.3,236.2z"/>
	<path class="st1" d="M932.9,235.5c-0.6-0.3-1.6-0.6-2.4-0.6c-0.8,0-1.2,0.3-1.2,0.7c0,0.4,0.6,0.6,1.3,0.7l0.7,0.1
		c1.7,0.3,2.6,1,2.6,2.3c0,1.6-1.3,2.6-3.5,2.6c-1,0-2.4-0.2-3.4-0.9l0.8-1.6c0.7,0.4,1.5,0.8,2.6,0.8c1,0,1.4-0.3,1.4-0.7
		c0-0.4-0.4-0.6-1.3-0.7l-0.6-0.1c-1.8-0.2-2.7-1-2.7-2.3c0-1.6,1.2-2.5,3.2-2.5c1.2,0,2.2,0.2,3.2,0.7L932.9,235.5z"/>
</g>
<g>
	<path class="st8" d="M256.6,108.3c0.9-1.1,2.5-2.8,5.5-2.8c3.3,0,5.4,2.1,5.4,5.2c0,2-1,3.3-2.3,4.7l-3.4,3.6h6.1v2.9h-10.6v-2.4
		l5.7-5.8c0.8-0.9,1.3-1.7,1.3-2.7c0-1.4-1-2.4-2.4-2.4c-1.5,0-2.4,0.8-3.2,1.8L256.6,108.3z"/>
	<path class="st8" d="M280.5,110.1c0,1.7-0.9,2.9-2.4,3.6c1.7,0.7,2.7,1.9,2.7,3.7c0,3.2-2.9,4.7-5.9,4.7c-2.4,0-4.4-0.9-5.6-2.3
		l1.8-2c0.9,1,2.3,1.5,3.6,1.5c1.6,0,2.8-0.7,2.8-2.1c0-1.4-1.4-2.1-3.1-2.1h-1.9v-2.7h1.9c1.6,0,2.8-0.7,2.8-2c0-1.3-1.2-2-2.7-2
		c-1.5,0-2.6,0.8-3.2,1.6l-1.9-2c1.1-1.4,2.8-2.5,5.3-2.5C278.2,105.5,280.5,107.4,280.5,110.1z"/>
	<path class="st8" d="M295.4,112.7c0,1.9-1.5,3.4-3.6,3.4c-2,0-3.6-1.4-3.6-3.4c0-1.9,1.5-3.4,3.6-3.4
		C293.9,109.3,295.4,110.8,295.4,112.7z M290.5,112.7c0,0.8,0.6,1.3,1.4,1.3s1.4-0.6,1.4-1.3s-0.6-1.3-1.4-1.3
		S290.5,111.9,290.5,112.7z M293.5,121.8h-2.7l8.9-12.2h2.7L293.5,121.8z M305.1,118.7c0,1.9-1.5,3.4-3.6,3.4c-2,0-3.6-1.4-3.6-3.4
		c0-1.9,1.5-3.4,3.6-3.4C303.6,115.3,305.1,116.7,305.1,118.7z M300.2,118.7c0,0.8,0.6,1.3,1.4,1.3c0.8,0,1.4-0.6,1.4-1.3
		c0-0.8-0.6-1.3-1.4-1.3C300.7,117.3,300.2,117.9,300.2,118.7z"/>
</g>
<g>
	<path class="st8" d="M266.5,205.2h2.2v2.9h-2.2v2.9h-3.1V208h-7.1v-2.2L262,195h3.4l-5.3,10.2h3.4v-4.3h3.1V205.2z"/>
	<path class="st8" d="M284.2,203c0,5.2-3.1,8.3-6.9,8.3c-3.8,0-6.9-3.1-6.9-8.3c0-5.2,3.1-8.3,6.9-8.3
		C281.1,194.7,284.2,197.8,284.2,203z M273.6,203c0,3.5,1.6,5.3,3.7,5.3c2.1,0,3.7-1.8,3.7-5.3s-1.6-5.3-3.7-5.3
		C275.3,197.6,273.6,199.5,273.6,203z"/>
	<path class="st8" d="M298.9,201.9c0,1.9-1.5,3.4-3.6,3.4c-2,0-3.6-1.4-3.6-3.4c0-1.9,1.5-3.4,3.6-3.4
		C297.4,198.5,298.9,199.9,298.9,201.9z M294,201.9c0,0.8,0.6,1.3,1.4,1.3s1.4-0.6,1.4-1.3s-0.6-1.3-1.4-1.3S294,201.1,294,201.9z
		 M297.1,211h-2.7l8.9-12.2h2.7L297.1,211z M308.6,207.8c0,1.9-1.5,3.4-3.6,3.4c-2,0-3.6-1.4-3.6-3.4c0-1.9,1.5-3.4,3.6-3.4
		C307.1,204.4,308.6,205.9,308.6,207.8z M303.7,207.8c0,0.8,0.6,1.3,1.4,1.3c0.8,0,1.4-0.6,1.4-1.3s-0.6-1.3-1.4-1.3
		C304.3,206.5,303.7,207.1,303.7,207.8z"/>
</g>
<g>
	<path class="st8" d="M561.4,199.3c0,1.7-0.9,2.9-2.4,3.6c1.7,0.7,2.7,1.9,2.7,3.7c0,3.2-2.9,4.7-5.9,4.7c-2.4,0-4.4-0.9-5.6-2.3
		l1.8-2c0.9,1,2.3,1.5,3.6,1.5c1.6,0,2.8-0.7,2.8-2.1c0-1.4-1.4-2.1-3.1-2.1h-1.9v-2.7h1.9c1.6,0,2.8-0.7,2.8-2c0-1.3-1.2-2-2.7-2
		c-1.5,0-2.6,0.8-3.2,1.6l-1.9-2c1.1-1.4,2.8-2.5,5.3-2.5C559.1,194.7,561.4,196.5,561.4,199.3z"/>
	<path class="st8" d="M573.6,205.2h2.2v2.9h-2.2v2.9h-3.1V208h-7.1v-2.2l5.6-10.8h3.4l-5.3,10.2h3.4v-4.3h3.1V205.2z"/>
	<path class="st8" d="M589.9,201.9c0,1.9-1.5,3.4-3.6,3.4s-3.6-1.4-3.6-3.4c0-1.9,1.5-3.4,3.6-3.4S589.9,199.9,589.9,201.9z
		 M585,201.9c0,0.8,0.6,1.3,1.4,1.3c0.8,0,1.4-0.6,1.4-1.3s-0.6-1.3-1.4-1.3C585.6,200.5,585,201.1,585,201.9z M588,211h-2.7
		l8.9-12.2h2.7L588,211z M599.6,207.8c0,1.9-1.5,3.4-3.6,3.4c-2,0-3.6-1.4-3.6-3.4c0-1.9,1.5-3.4,3.6-3.4
		C598.1,204.4,599.6,205.9,599.6,207.8z M594.7,207.8c0,0.8,0.6,1.3,1.4,1.3c0.8,0,1.4-0.6,1.4-1.3s-0.6-1.3-1.4-1.3
		C595.2,206.5,594.7,207.1,594.7,207.8z"/>
</g>
<g>
	<path class="st8" d="M809.5,211h-3.1v-11.9l-3.8,1.6v-3.1l6.9-2.8V211z"/>
	<path class="st8" d="M818.9,211h-3.1v-11.9l-3.8,1.6v-3.1l6.9-2.8V211z"/>
	<path class="st8" d="M834.3,201.9c0,1.9-1.5,3.4-3.6,3.4s-3.6-1.4-3.6-3.4c0-1.9,1.5-3.4,3.6-3.4S834.3,199.9,834.3,201.9z
		 M829.4,201.9c0,0.8,0.6,1.3,1.4,1.3c0.8,0,1.4-0.6,1.4-1.3s-0.6-1.3-1.4-1.3C830,200.5,829.4,201.1,829.4,201.9z M832.5,211h-2.7
		l8.9-12.2h2.7L832.5,211z M844,207.8c0,1.9-1.5,3.4-3.6,3.4c-2,0-3.6-1.4-3.6-3.4c0-1.9,1.5-3.4,3.6-3.4
		C842.5,204.4,844,205.9,844,207.8z M839.1,207.8c0,0.8,0.6,1.3,1.4,1.3c0.8,0,1.4-0.6,1.4-1.3s-0.6-1.3-1.4-1.3
		C839.7,206.5,839.1,207.1,839.1,207.8z"/>
</g>
<g>
	<path class="st8" d="M890.8,211h-3.1v-11.9l-3.8,1.6v-3.1l6.9-2.8V211z"/>
	<path class="st8" d="M900.2,211h-3.1v-11.9l-3.8,1.6v-3.1l6.9-2.8V211z"/>
	<path class="st8" d="M915.6,201.9c0,1.9-1.5,3.4-3.6,3.4s-3.6-1.4-3.6-3.4c0-1.9,1.5-3.4,3.6-3.4S915.6,199.9,915.6,201.9z
		 M910.7,201.9c0,0.8,0.6,1.3,1.4,1.3c0.8,0,1.4-0.6,1.4-1.3s-0.6-1.3-1.4-1.3C911.2,200.5,910.7,201.1,910.7,201.9z M913.7,211
		h-2.7l8.9-12.2h2.7L913.7,211z M925.3,207.8c0,1.9-1.5,3.4-3.6,3.4c-2,0-3.6-1.4-3.6-3.4c0-1.9,1.5-3.4,3.6-3.4
		C923.8,204.4,925.3,205.9,925.3,207.8z M920.4,207.8c0,0.8,0.6,1.3,1.4,1.3c0.8,0,1.4-0.6,1.4-1.3s-0.6-1.3-1.4-1.3
		C920.9,206.5,920.4,207.1,920.4,207.8z"/>
</g>
<g>
	<path class="st8" d="M966.8,198.3h-6.2l-0.1,3.1h1.8c3.6,0,5.4,2.1,5.4,4.6c0,3.3-2.5,5.2-5.6,5.2c-2.3,0-4.2-0.9-5.4-2.3l1.7-2.1
		c0.8,0.9,2.3,1.6,3.8,1.6c1.7,0,2.6-1,2.6-2.2c0-1.2-0.7-2.2-3.1-2.2h-3.7l0.2-8.5h8.8V198.3z"/>
	<path class="st8" d="M980.4,202.2c0,1.9-1.5,3.2-3.4,3.2s-3.4-1.4-3.4-3.2c0-1.9,1.5-3.2,3.4-3.2S980.4,200.3,980.4,202.2z
		 M975.7,202.2c0,0.7,0.6,1.3,1.3,1.3s1.3-0.5,1.3-1.3s-0.6-1.3-1.3-1.3S975.7,201.5,975.7,202.2z M978.6,211h-2.6l8.6-11.8h2.6
		L978.6,211z M989.7,207.9c0,1.9-1.5,3.2-3.4,3.2c-1.9,0-3.4-1.4-3.4-3.2c0-1.8,1.5-3.2,3.4-3.2
		C988.3,204.7,989.7,206.1,989.7,207.9z M985,207.9c0,0.7,0.5,1.3,1.3,1.3c0.8,0,1.3-0.5,1.3-1.3s-0.5-1.3-1.3-1.3
		C985.6,206.6,985,207.2,985,207.9z"/>
</g>
<g>
	<g>
		<path class="st8" d="M455.8,108.2l-6.6,13.6h-3.6l6.6-13.1h-7.6v-2.9h11.3V108.2z"/>
		<path class="st8" d="M468.5,108.2l-6.6,13.6h-3.6l6.6-13.1h-7.6v-2.9h11.3V108.2z"/>
		<path class="st8" d="M482.6,112.7c0,1.9-1.5,3.4-3.6,3.4s-3.6-1.4-3.6-3.4c0-1.9,1.5-3.4,3.6-3.4S482.6,110.8,482.6,112.7z
			 M477.7,112.7c0,0.8,0.6,1.3,1.4,1.3c0.8,0,1.4-0.6,1.4-1.3s-0.6-1.3-1.4-1.3C478.3,111.4,477.7,111.9,477.7,112.7z M480.8,121.8
			h-2.7l8.9-12.2h2.7L480.8,121.8z M492.3,118.7c0,1.9-1.5,3.4-3.6,3.4c-2,0-3.6-1.4-3.6-3.4c0-1.9,1.5-3.4,3.6-3.4
			C490.8,115.3,492.3,116.7,492.3,118.7z M487.4,118.7c0,0.8,0.6,1.3,1.4,1.3c0.8,0,1.4-0.6,1.4-1.3c0-0.8-0.6-1.3-1.4-1.3
			C488,117.3,487.4,117.9,487.4,118.7z"/>
	</g>
</g>
<g>
	<path class="st1" d="M455.3,77.3h-2.4l-1-2.6h-4.7l-1,2.6H444l4.3-11.1h2.7L455.3,77.3z M448,72.7h3.2l-1.6-4.3L448,72.7z"/>
	<path class="st1" d="M463.6,74.1c0,2.4-1.7,3.5-3.6,3.5c-1.9,0-3.6-1-3.6-3.5v-4.4h2.1v4.2c0,1.2,0.7,1.7,1.6,1.7
		c0.9,0,1.6-0.5,1.6-1.7v-4.2h2.1V74.1z"/>
	<path class="st1" d="M471.2,71.5h-2.8v2.8c0,1,0.5,1.3,1.1,1.3c0.5,0,1-0.2,1.4-0.5l0.8,1.6c-0.7,0.5-1.4,0.8-2.5,0.8
		c-1.9,0-2.9-1.1-2.9-3.1v-3h-1.5v-1.8h1.5v-2.3h2.1v2.3h2.8V71.5z"/>
	<path class="st1" d="M478.3,69.6l-0.3,2.1c-0.3-0.2-0.8-0.2-1.3-0.2c-1,0-1.6,0.6-1.6,1.7v4.2H473v-7.7h2v0.8c0.5-0.7,1.2-1,2.2-1
		C477.7,69.5,478,69.5,478.3,69.6z"/>
	<path class="st1" d="M486.6,73.5c0,0.2,0,0.5,0,0.7h-5.4c0.2,1.1,1,1.6,2,1.6c0.7,0,1.4-0.3,1.9-0.7l1.2,1.3
		c-0.9,0.8-2,1.2-3.3,1.2c-2.4,0-4-1.6-4-4c0-2.4,1.6-4.1,3.9-4.1C485,69.5,486.6,71.1,486.6,73.5z M481.1,72.8h3.4
		c-0.2-1-0.8-1.5-1.7-1.5C481.8,71.2,481.3,71.8,481.1,72.8z"/>
	<path class="st1" d="M493.7,71.8c-0.6-0.3-1.6-0.6-2.4-0.6c-0.8,0-1.2,0.3-1.2,0.7c0,0.4,0.6,0.6,1.3,0.7l0.7,0.1
		c1.7,0.3,2.6,1,2.6,2.3c0,1.6-1.3,2.6-3.5,2.6c-1,0-2.4-0.2-3.4-0.9l0.8-1.6c0.7,0.4,1.5,0.8,2.6,0.8c1,0,1.4-0.3,1.4-0.7
		c0-0.4-0.4-0.6-1.3-0.7l-0.6-0.1c-1.8-0.2-2.7-1-2.7-2.3c0-1.6,1.2-2.5,3.2-2.5c1.2,0,2.2,0.2,3.2,0.7L493.7,71.8z"/>
	<path class="st1" d="M505.6,71.8c-0.6-0.3-1.6-0.6-2.4-0.6c-0.8,0-1.2,0.3-1.2,0.7c0,0.4,0.6,0.6,1.3,0.7l0.7,0.1
		c1.7,0.3,2.6,1,2.6,2.3c0,1.6-1.3,2.6-3.5,2.6c-1,0-2.4-0.2-3.4-0.9l0.8-1.6c0.7,0.4,1.5,0.8,2.6,0.8c1,0,1.4-0.3,1.4-0.7
		c0-0.4-0.4-0.6-1.3-0.7l-0.6-0.1c-1.8-0.2-2.7-1-2.7-2.3c0-1.6,1.2-2.5,3.2-2.5c1.2,0,2.2,0.2,3.2,0.7L505.6,71.8z"/>
	<path class="st1" d="M515.3,73.5c0,0.2,0,0.5,0,0.7h-5.4c0.2,1.1,1,1.6,2,1.6c0.7,0,1.4-0.3,1.9-0.7l1.2,1.3
		c-0.9,0.8-2,1.2-3.3,1.2c-2.4,0-4-1.6-4-4c0-2.4,1.6-4.1,3.9-4.1C513.7,69.5,515.3,71.1,515.3,73.5z M509.8,72.8h3.4
		c-0.2-1-0.8-1.5-1.7-1.5C510.5,71.2,510,71.8,509.8,72.8z"/>
	<path class="st1" d="M523.6,70.9l-1.5,1.2c-0.5-0.5-1-0.8-1.6-0.8c-1.1,0-1.9,0.8-1.9,2.1c0,1.3,0.8,2.1,1.9,2.1
		c0.7,0,1.2-0.3,1.7-0.8l1.5,1.3c-0.7,0.9-1.8,1.4-3.1,1.4c-2.4,0-4.1-1.7-4.1-4c0-2.3,1.6-4,4.1-4C521.8,69.5,522.9,70,523.6,70.9z
		"/>
	<path class="st1" d="M530.8,71.5H528v2.8c0,1,0.5,1.3,1.1,1.3c0.5,0,1-0.2,1.4-0.5l0.8,1.6c-0.7,0.5-1.4,0.8-2.5,0.8
		c-1.9,0-2.9-1.1-2.9-3.1v-3h-1.5v-1.8h1.5v-2.3h2.1v2.3h2.8V71.5z"/>
	<path class="st1" d="M539.6,73.5c0,0.2,0,0.5,0,0.7h-5.4c0.2,1.1,1,1.6,2,1.6c0.7,0,1.4-0.3,1.9-0.7l1.2,1.3
		c-0.9,0.8-2,1.2-3.3,1.2c-2.4,0-4-1.6-4-4c0-2.4,1.6-4.1,3.9-4.1C538.1,69.5,539.6,71.1,539.6,73.5z M534.1,72.8h3.4
		c-0.2-1-0.8-1.5-1.7-1.5C534.9,71.2,534.3,71.8,534.1,72.8z"/>
	<path class="st1" d="M548.5,74.1c0,2.4-1.7,3.5-3.6,3.5c-1.9,0-3.6-1-3.6-3.5v-4.4h2.1v4.2c0,1.2,0.7,1.7,1.6,1.7
		c0.9,0,1.6-0.5,1.6-1.7v-4.2h2.1V74.1z"/>
	<path class="st1" d="M555.8,69.6l-0.3,2.1c-0.3-0.2-0.8-0.2-1.3-0.2c-1,0-1.6,0.6-1.6,1.7v4.2h-2.1v-7.7h2v0.8c0.5-0.7,1.2-1,2.2-1
		C555.2,69.5,555.6,69.5,555.8,69.6z"/>
	<path class="st1" d="M562.6,71.8c-0.6-0.3-1.6-0.6-2.4-0.6c-0.8,0-1.2,0.3-1.2,0.7c0,0.4,0.6,0.6,1.3,0.7l0.7,0.1
		c1.7,0.3,2.6,1,2.6,2.3c0,1.6-1.3,2.6-3.5,2.6c-1,0-2.4-0.2-3.4-0.9l0.8-1.6c0.7,0.4,1.5,0.8,2.6,0.8c1,0,1.4-0.3,1.4-0.7
		c0-0.4-0.4-0.6-1.3-0.7l-0.6-0.1c-1.8-0.2-2.7-1-2.7-2.3c0-1.6,1.2-2.5,3.2-2.5c1.2,0,2.2,0.2,3.2,0.7L562.6,71.8z"/>
</g>
<g>
	<path class="st1" d="M265.2,68.3h-3.4v9h-2.2v-9h-3.4v-2.1h9.1V68.3z"/>
	<path class="st1" d="M270.9,69.6l-0.3,2.1c-0.3-0.2-0.8-0.2-1.3-0.2c-1,0-1.6,0.6-1.6,1.7v4.2h-2.1v-7.7h2v0.8c0.5-0.7,1.2-1,2.2-1
		C270.3,69.5,270.7,69.5,270.9,69.6z"/>
	<path class="st1" d="M279.6,77.3h-2v-0.8c-0.5,0.6-1.2,1-2.3,1c-2.1,0-3.7-1.7-3.7-4s1.6-4,3.7-4c1.1,0,1.8,0.4,2.3,1.1v-0.8h2
		V77.3z M273.7,73.5c0,1.2,0.8,2.1,2,2.1c1.2,0,2-0.9,2-2.1c0-1.2-0.8-2.1-2-2.1C274.5,71.4,273.7,72.3,273.7,73.5z"/>
	<path class="st1" d="M289.1,72.5v4.9H287v-4.2c0-1.1-0.6-1.7-1.5-1.7c-0.9,0-1.6,0.6-1.6,1.7v4.2h-2.1v-7.7h2v0.9
		c0.5-0.8,1.4-1.1,2.3-1.1C287.8,69.5,289.1,70.7,289.1,72.5z"/>
	<path class="st1" d="M296.7,71.8c-0.6-0.3-1.6-0.6-2.4-0.6c-0.8,0-1.2,0.3-1.2,0.7c0,0.4,0.6,0.6,1.3,0.7l0.7,0.1
		c1.7,0.3,2.6,1,2.6,2.3c0,1.6-1.3,2.6-3.5,2.6c-1,0-2.4-0.2-3.4-0.9l0.8-1.6c0.7,0.4,1.5,0.8,2.6,0.8c1,0,1.4-0.3,1.4-0.7
		c0-0.4-0.4-0.6-1.3-0.7l-0.6-0.1c-1.8-0.2-2.7-1-2.7-2.3c0-1.6,1.2-2.5,3.2-2.5c1.2,0,2.2,0.2,3.2,0.7L296.7,71.8z"/>
	<path class="st1" d="M307.2,73.5c0,2.3-1.6,4-3.7,4c-1,0-1.8-0.4-2.3-1v4h-2.1V69.7h2v0.8c0.5-0.6,1.2-1.1,2.3-1.1
		C305.6,69.5,307.2,71.2,307.2,73.5z M301.1,73.5c0,1.2,0.8,2.1,2,2.1c1.2,0,2-0.9,2-2.1s-0.8-2.1-2-2.1
		C301.9,71.4,301.1,72.3,301.1,73.5z"/>
	<path class="st1" d="M316.7,73.5c0,2.3-1.8,4-4.2,4c-2.4,0-4.1-1.7-4.1-4s1.8-4,4.1-4C314.9,69.5,316.7,71.2,316.7,73.5z
		 M310.5,73.5c0,1.2,0.9,2.1,2,2.1s2-0.9,2-2.1s-0.9-2.1-2-2.1S310.5,72.3,310.5,73.5z"/>
	<path class="st1" d="M323.6,69.6l-0.3,2.1c-0.3-0.2-0.8-0.2-1.3-0.2c-1,0-1.6,0.6-1.6,1.7v4.2h-2.1v-7.7h2v0.8c0.5-0.7,1.2-1,2.2-1
		C323,69.5,323.3,69.5,323.6,69.6z"/>
	<path class="st1" d="M330.8,71.5H328v2.8c0,1,0.5,1.3,1.1,1.3c0.5,0,1-0.2,1.4-0.5l0.8,1.6c-0.7,0.5-1.4,0.8-2.5,0.8
		c-1.9,0-2.9-1.1-2.9-3.1v-3h-1.5v-1.8h1.5v-2.3h2.1v2.3h2.8V71.5z"/>
</g>
<g>
	<path class="st9" d="M310,20.1h-44.8l-6.9,5.7c0,0,6.9,6,29,6c25.3,0,28.1-6,28.1-6L310,20.1z"/>
	<rect x="271.7" y="35.3" class="st8" width="32.9" height="5.2"/>
	<polygon class="st8" points="310.6,18.3 264.8,18.3 268.4,7.3 306.1,7.3 	"/>
	<path class="st9" d="M299.2,15.3h-32.9l3.3-8.4h30.8l1.5,4.9C302.4,13.5,301.1,15.3,299.2,15.3z"/>
	<g>
		<polygon class="st10" points="266.8,37.3 262,37.3 262,32.7 266.8,34.2 		"/>
		<polygon class="st10" points="312.9,37.3 308.8,37.3 308.8,34.2 312.9,32.7 		"/>
		<path class="st10" d="M299.2,28.7"/>
		<path class="st10" d="M299.3,27.5l-9.2,2.4c-1.7,0.4-3.5,0.4-5.3,0l-9.2-2.4l0,0H299.3L299.3,27.5z"/>
		<path class="st10" d="M271.1,32.5l-9.1-3.1l0,0h9.1c0,0,0,0,0,0c-0.6-0.8-1.4-1.4-1.7-1.4l-11.2,0V25h11.3c1.6,0,3.3,1.5,4.3,2.9
			c0.7,1,0.9,2.2,0.4,3.1C273.6,31.9,272.5,32.5,271.1,32.5z"/>
		<path class="st10" d="M313,29.5l-9.1,3.1c-1.4,0-2.5-0.6-3-1.5c-0.5-0.9-0.3-2.1,0.4-3.1c1-1.4,2.7-2.9,4.3-2.9h10.6V28h-10.6
			c-0.2,0-1,0.6-1.7,1.4c0,0,0,0,0,0H313L313,29.5z"/>
		<path class="st10" d="M308.4,51c-3.4,0-6.1-2.7-6.1-6.1v-3.6h3.3v3.6c0,1.5,1.2,2.8,2.8,2.8h2.6c1.5,0,2.8-1.2,2.8-2.8v-3.6h3.3
			v3.6c0,3.4-2.7,6.1-6.1,6.1H308.4z"/>
		<path class="st10" d="M264,51c-3.4,0-6.1-2.7-6.1-6.1v-3.6h3.3v3.6c0,1.5,1.2,2.8,2.8,2.8h2.6c1.5,0,2.8-1.2,2.8-2.8v-3.6h3.3v3.6
			c0,3.4-2.7,6.1-6.1,6.1H264z"/>
		<path class="st10" d="M269.3,42.7v-5.2c0-2.4,2-4.4,4.4-4.4h28.6c2.4,0,4.4,2,4.4,4.4v5.2H269.3z M273.6,36.5c-0.6,0-1,0.5-1,1
			v1.8h30.6v-1.8c0-0.6-0.5-1-1-1H273.6z"/>
		<path class="st10" d="M259.5,42.7c-1.9,0-3.5-1.6-3.5-3.5V27.3c0-1.5,0.8-3.2,1.9-4.2l4.7-4.2c1.1-0.9,2.8-1.6,4.2-1.6H308
			c1.4,0,3.2,0.7,4.2,1.6l4.7,4.2c1.1,1,1.9,2.8,1.9,4.2v11.9c0,1.9-1.6,3.5-3.5,3.5H259.5z M266.9,20.6c-0.6,0-1.6,0.4-2,0.8
			l-4.7,4.2c-0.4,0.3-0.8,1.2-0.8,1.7v12h56.1v-12c0-0.5-0.4-1.4-0.8-1.7l-4.7-4.2c-0.4-0.4-1.4-0.8-2-0.8H266.9z"/>
	</g>
	<path class="st10" d="M304.8,8.8h-34.7L266,20.4l-3.2-1.1l4.1-11.6c0.5-1.3,1.8-2.3,3.2-2.3h34.6c1.4,0,2.8,1,3.3,2.3l4.4,11.9
		l-3.1,1.2L304.8,8.8z"/>
	<path class="st10" d="M259.8,21.9c-2.2,0-4-1.8-4-4c0-2.2,1.8-4,4-4h5.6v3.3h-5.6c-0.3,0-0.6,0.3-0.6,0.7c0,0.4,0.3,0.7,0.6,0.7
		h3.1v3.3H259.8z"/>
	<path class="st10" d="M311.3,21.9v-3.3h3.8c0.3,0,0.6-0.3,0.6-0.7c0-0.4-0.3-0.7-0.6-0.7h-5.6v-3.3h5.6c2.2,0,4,1.8,4,4
		c0,2.2-1.8,4-4,4H311.3z"/>
</g>
<path class="st11" d="M487.9,104.1"/>
<g>
	<path class="st1" d="M962.9,232.1h-3.4v9h-2.2v-9h-3.4V230h9.1V232.1z"/>
	<path class="st1" d="M968.6,233.4l-0.3,2.1c-0.3-0.2-0.8-0.2-1.3-0.2c-1,0-1.6,0.6-1.6,1.7v4.2h-2.1v-7.7h2v0.8
		c0.5-0.7,1.2-1,2.2-1C968,233.2,968.3,233.3,968.6,233.4z"/>
	<path class="st1" d="M977.3,241.1h-2v-0.8c-0.5,0.6-1.2,1-2.3,1c-2.1,0-3.7-1.7-3.7-4s1.6-4,3.7-4c1.1,0,1.8,0.4,2.3,1.1v-0.8h2
		V241.1z M971.4,237.2c0,1.2,0.8,2.1,2,2.1c1.2,0,2-0.9,2-2.1s-0.8-2.1-2-2.1C972.2,235.1,971.4,236.1,971.4,237.2z"/>
	<path class="st1" d="M981.8,230.9c0,0.7-0.6,1.3-1.3,1.3s-1.3-0.6-1.3-1.3c0-0.7,0.6-1.3,1.3-1.3S981.8,230.1,981.8,230.9z
		 M981.5,241.1h-2.1v-7.7h2.1V241.1z"/>
	<path class="st1" d="M991,236.2v4.9h-2.1v-4.2c0-1.1-0.6-1.7-1.5-1.7c-0.9,0-1.6,0.6-1.6,1.7v4.2h-2.1v-7.7h2v0.9
		c0.5-0.8,1.4-1.1,2.3-1.1C989.7,233.2,991,234.4,991,236.2z"/>
	<path class="st1" d="M998.6,235.5c-0.6-0.3-1.6-0.6-2.4-0.6c-0.8,0-1.2,0.3-1.2,0.7c0,0.4,0.6,0.6,1.3,0.7l0.7,0.1
		c1.7,0.3,2.6,1,2.6,2.3c0,1.6-1.3,2.6-3.5,2.6c-1,0-2.4-0.2-3.4-0.9l0.8-1.6c0.7,0.4,1.5,0.8,2.6,0.8c1,0,1.4-0.3,1.4-0.7
		c0-0.4-0.4-0.6-1.3-0.7l-0.6-0.1c-1.8-0.2-2.7-1-2.7-2.3c0-1.6,1.2-2.5,3.2-2.5c1.2,0,2.2,0.2,3.2,0.7L998.6,235.5z"/>
</g>
<polygon class="st12" points="246.8,92.3 246.8,219.7 992.3,219.9 992.3,184.7 428.8,127.5 428.8,92.3 "/>
<g>
	<path class="st1" d="M62.2,103.7h-8.3V92.6h8.2v2h-6v2.5h5.7v2h-5.7v2.5h6.1V103.7z M56.6,91.7l1.6-2.5h2.5l-2.1,2.5H56.6z"/>
	<path class="st1" d="M76.7,98.8v4.9h-2.1v-4.2c0-1.1-0.6-1.7-1.5-1.7c-0.9,0-1.6,0.6-1.6,1.7v4.2h-2.1v-4.2c0-1.1-0.6-1.7-1.5-1.7
		c-0.9,0-1.6,0.6-1.6,1.7v4.2h-2.1V96h2v0.9c0.5-0.8,1.4-1.1,2.3-1.1c1.1,0,2,0.5,2.5,1.3c0.6-1,1.6-1.3,2.6-1.3
		C75.5,95.8,76.7,97,76.7,98.8z"/>
	<path class="st1" d="M81.1,93.5c0,0.7-0.6,1.3-1.3,1.3c-0.7,0-1.3-0.6-1.3-1.3c0-0.7,0.6-1.3,1.3-1.3
		C80.6,92.2,81.1,92.8,81.1,93.5z M80.9,103.7h-2.1V96h2.1V103.7z"/>
	<path class="st1" d="M88.5,98.2c-0.6-0.3-1.6-0.6-2.4-0.6c-0.8,0-1.2,0.3-1.2,0.7c0,0.4,0.6,0.6,1.3,0.7l0.7,0.1
		c1.7,0.3,2.6,1,2.6,2.3c0,1.6-1.3,2.6-3.5,2.6c-1,0-2.4-0.2-3.4-0.9l0.8-1.6c0.7,0.4,1.5,0.8,2.6,0.8c1,0,1.4-0.3,1.4-0.7
		c0-0.4-0.4-0.6-1.3-0.7l-0.6-0.1c-1.8-0.2-2.7-1-2.7-2.3c0-1.6,1.2-2.5,3.2-2.5c1.2,0,2.2,0.2,3.2,0.7L88.5,98.2z"/>
	<path class="st1" d="M96.5,98.2c-0.6-0.3-1.6-0.6-2.4-0.6c-0.8,0-1.2,0.3-1.2,0.7c0,0.4,0.6,0.6,1.3,0.7l0.7,0.1
		c1.7,0.3,2.6,1,2.6,2.3c0,1.6-1.3,2.6-3.5,2.6c-1,0-2.4-0.2-3.4-0.9l0.8-1.6c0.7,0.4,1.5,0.8,2.6,0.8c1,0,1.4-0.3,1.4-0.7
		c0-0.4-0.4-0.6-1.3-0.7l-0.6-0.1c-1.8-0.2-2.7-1-2.7-2.3c0-1.6,1.2-2.5,3.2-2.5c1.2,0,2.2,0.2,3.2,0.7L96.5,98.2z"/>
	<path class="st1" d="M101.4,93.5c0,0.7-0.6,1.3-1.3,1.3c-0.7,0-1.3-0.6-1.3-1.3c0-0.7,0.6-1.3,1.3-1.3
		C100.8,92.2,101.4,92.8,101.4,93.5z M101.1,103.7H99V96h2.1V103.7z"/>
	<path class="st1" d="M111.1,99.9c0,2.3-1.8,4-4.2,4c-2.4,0-4.1-1.7-4.1-4s1.8-4,4.1-4C109.3,95.8,111.1,97.6,111.1,99.9z
		 M104.9,99.9c0,1.2,0.9,2.1,2,2.1s2-0.9,2-2.1s-0.9-2.1-2-2.1S104.9,98.6,104.9,99.9z"/>
	<path class="st1" d="M120,98.8v4.9H118v-4.2c0-1.1-0.6-1.7-1.5-1.7c-0.9,0-1.6,0.6-1.6,1.7v4.2h-2.1V96h2v0.9
		c0.5-0.8,1.4-1.1,2.3-1.1C118.8,95.8,120,97,120,98.8z"/>
	<path class="st1" d="M127.6,98.2c-0.6-0.3-1.6-0.6-2.4-0.6c-0.8,0-1.2,0.3-1.2,0.7c0,0.4,0.6,0.6,1.3,0.7l0.7,0.1
		c1.7,0.3,2.6,1,2.6,2.3c0,1.6-1.3,2.6-3.5,2.6c-1,0-2.4-0.2-3.4-0.9l0.8-1.6c0.7,0.4,1.5,0.8,2.6,0.8c1,0,1.4-0.3,1.4-0.7
		c0-0.4-0.4-0.6-1.3-0.7l-0.6-0.1c-1.8-0.2-2.7-1-2.7-2.3c0-1.6,1.2-2.5,3.2-2.5c1.2,0,2.2,0.2,3.2,0.7L127.6,98.2z"/>
	<path class="st1" d="M139.6,97.9h-2.8v2.8c0,1,0.5,1.3,1.1,1.3c0.5,0,1-0.2,1.4-0.5l0.8,1.6c-0.7,0.5-1.4,0.8-2.5,0.8
		c-1.9,0-2.9-1.1-2.9-3.1v-3h-1.5V96h1.5v-2.3h2.1V96h2.8V97.9z"/>
	<path class="st1" d="M149.1,99.9c0,2.3-1.8,4-4.2,4c-2.4,0-4.1-1.7-4.1-4s1.8-4,4.1-4C147.3,95.8,149.1,97.6,149.1,99.9z
		 M142.9,99.9c0,1.2,0.9,2.1,2,2.1s2-0.9,2-2.1s-0.9-2.1-2-2.1S142.9,98.6,142.9,99.9z"/>
	<path class="st1" d="M156.3,97.9h-2.8v2.8c0,1,0.5,1.3,1.1,1.3c0.5,0,1-0.2,1.4-0.5l0.8,1.6c-0.7,0.5-1.4,0.8-2.5,0.8
		c-1.9,0-2.9-1.1-2.9-3.1v-3H150V96h1.5v-2.3h2.1V96h2.8V97.9z"/>
	<path class="st1" d="M165.6,103.7h-2v-0.8c-0.5,0.6-1.2,1-2.3,1c-2.1,0-3.7-1.7-3.7-4s1.6-4,3.7-4c1.1,0,1.8,0.4,2.3,1.1V96h2
		V103.7z M159.6,99.9c0,1.2,0.8,2.1,2,2.1c1.2,0,2-0.9,2-2.1c0-1.2-0.8-2.1-2-2.1C160.4,97.8,159.6,98.7,159.6,99.9z"/>
	<path class="st1" d="M169.8,103.7h-2.1V92.3h2.1V103.7z"/>
	<path class="st1" d="M179.1,99.9c0,0.2,0,0.5,0,0.7h-5.4c0.2,1.1,1,1.6,2,1.6c0.7,0,1.4-0.3,1.9-0.7l1.2,1.3
		c-0.9,0.8-2,1.2-3.3,1.2c-2.4,0-4-1.6-4-4c0-2.4,1.6-4.1,3.9-4.1C177.6,95.8,179.1,97.5,179.1,99.9z M173.6,99.1h3.4
		c-0.2-1-0.8-1.5-1.7-1.5C174.4,97.6,173.8,98.2,173.6,99.1z"/>
	<path class="st1" d="M186.2,98.2c-0.6-0.3-1.6-0.6-2.4-0.6c-0.8,0-1.2,0.3-1.2,0.7c0,0.4,0.6,0.6,1.3,0.7l0.7,0.1
		c1.7,0.3,2.6,1,2.6,2.3c0,1.6-1.3,2.6-3.5,2.6c-1,0-2.4-0.2-3.4-0.9l0.8-1.6c0.7,0.4,1.5,0.8,2.6,0.8c1,0,1.4-0.3,1.4-0.7
		c0-0.4-0.4-0.6-1.3-0.7l-0.6-0.1c-1.8-0.2-2.7-1-2.7-2.3c0-1.6,1.2-2.5,3.2-2.5c1.2,0,2.2,0.2,3.2,0.7L186.2,98.2z"/>
	<path class="st1" d="M198.1,96.8v-4.5h2.1v11.4h-2v-0.8c-0.5,0.6-1.2,1-2.3,1c-2.1,0-3.7-1.7-3.7-4s1.6-4,3.7-4
		C196.9,95.8,197.6,96.2,198.1,96.8z M194.3,99.9c0,1.2,0.8,2.1,2,2.1c1.2,0,2-0.9,2-2.1c0-1.2-0.8-2.1-2-2.1
		C195.1,97.8,194.3,98.7,194.3,99.9z"/>
	<path class="st1" d="M209.5,99.9c0,0.2,0,0.5,0,0.7H204c0.2,1.1,1,1.6,2,1.6c0.7,0,1.4-0.3,1.9-0.7l1.2,1.3c-0.9,0.8-2,1.2-3.3,1.2
		c-2.4,0-4-1.6-4-4c0-2.4,1.6-4.1,3.9-4.1C208,95.8,209.5,97.5,209.5,99.9z M204,99.1h3.4c-0.2-1-0.8-1.5-1.7-1.5
		C204.8,97.6,204.2,98.2,204,99.1z"/>
	<path class="st1" d="M59.2,115.9V115h2v7c0,2.5-1.6,4-4.1,4c-1.2,0-2.5-0.3-3.4-0.9l0.7-1.7c0.8,0.5,1.6,0.8,2.5,0.8
		c1.3,0,2.2-0.7,2.2-2v-0.5c-0.5,0.6-1.3,1-2.4,1c-1.9,0-3.5-1.6-3.5-3.9c0-2.4,1.7-3.9,3.5-3.9C57.9,114.8,58.6,115.2,59.2,115.9z
		 M55.4,118.7c0,1.1,0.8,2,1.9,2c1.1,0,1.9-0.9,1.9-2c0-1.1-0.8-2-1.9-2C56.1,116.7,55.4,117.6,55.4,118.7z"/>
	<path class="st1" d="M70.9,122.7h-2v-0.8c-0.5,0.6-1.2,1-2.3,1c-2.1,0-3.7-1.7-3.7-4s1.6-4,3.7-4c1.1,0,1.8,0.4,2.3,1.1V115h2
		V122.7z M65,118.9c0,1.2,0.8,2.1,2,2.1c1.2,0,2-0.9,2-2.1c0-1.2-0.8-2.1-2-2.1C65.8,116.7,65,117.7,65,118.9z"/>
	<path class="st1" d="M79.4,116.5l-3.8,4.3h3.9v1.8h-6.7v-1.5l3.9-4.3h-3.7V115h6.5V116.5z"/>
	<path class="st1" d="M92.8,122.7h-2v-0.8c-0.5,0.6-1.2,1-2.3,1c-2.1,0-3.7-1.7-3.7-4s1.6-4,3.7-4c1.1,0,1.8,0.4,2.3,1.1V115h2
		V122.7z M86.3,111.4h2.5l1.6,2.5h-2L86.3,111.4z M86.9,118.9c0,1.2,0.8,2.1,2,2.1c1.2,0,2-0.9,2-2.1c0-1.2-0.8-2.1-2-2.1
		C87.6,116.7,86.9,117.7,86.9,118.9z"/>
	<path class="st1" d="M106,118.8c0,0.2,0,0.5,0,0.7h-5.4c0.2,1.1,1,1.6,2,1.6c0.7,0,1.4-0.3,1.9-0.7l1.2,1.3c-0.9,0.8-2,1.2-3.3,1.2
		c-2.4,0-4-1.6-4-4c0-2.4,1.6-4.1,3.9-4.1C104.5,114.8,106,116.5,106,118.8z M100.5,118.1h3.4c-0.2-1-0.8-1.5-1.7-1.5
		C101.3,116.6,100.7,117.2,100.5,118.1z"/>
	<path class="st1" d="M112.7,116.9h-2.4v5.8h-2.1v-5.8h-1.4V115h1.4v-1c0-1.8,1-3,2.7-3c1,0,1.8,0.3,2.4,0.7l-0.8,1.6
		c-0.4-0.2-0.8-0.4-1.3-0.4c-0.6,0-0.9,0.4-0.9,1.1v0.9h2.4V116.9z"/>
	<path class="st1" d="M119.2,116.9h-2.4v5.8h-2.1v-5.8h-1.4V115h1.4v-1c0-1.8,1-3,2.7-3c1,0,1.8,0.3,2.4,0.7l-0.8,1.6
		c-0.4-0.2-0.8-0.4-1.3-0.4c-0.6,0-0.9,0.4-0.9,1.1v0.9h2.4V116.9z"/>
	<path class="st1" d="M127.7,118.8c0,0.2,0,0.5,0,0.7h-5.4c0.2,1.1,1,1.6,2,1.6c0.7,0,1.4-0.3,1.9-0.7l1.2,1.3
		c-0.9,0.8-2,1.2-3.3,1.2c-2.4,0-4-1.6-4-4c0-2.4,1.6-4.1,3.9-4.1C126.2,114.8,127.7,116.5,127.7,118.8z M122.2,118.1h3.4
		c-0.2-1-0.8-1.5-1.7-1.5C123,116.6,122.4,117.2,122.2,118.1z"/>
	<path class="st1" d="M134.9,116.9h-2.8v2.8c0,1,0.5,1.3,1.1,1.3c0.5,0,1-0.2,1.4-0.5l0.8,1.6c-0.7,0.5-1.4,0.8-2.5,0.8
		c-1.9,0-2.9-1.1-2.9-3.1v-3h-1.5V115h1.5v-2.3h2.1v2.3h2.8V116.9z"/>
	<path class="st1" d="M146.1,115.8v-4.5h2.1v11.4h-2v-0.8c-0.5,0.6-1.2,1-2.3,1c-2.1,0-3.7-1.7-3.7-4s1.6-4,3.7-4
		C144.9,114.8,145.6,115.2,146.1,115.8z M142.2,118.9c0,1.2,0.8,2.1,2,2.1c1.2,0,2-0.9,2-2.1c0-1.2-0.8-2.1-2-2.1
		C143,116.7,142.2,117.7,142.2,118.9z"/>
	<path class="st1" d="M157.4,118.8c0,0.2,0,0.5,0,0.7H152c0.2,1.1,1,1.6,2,1.6c0.7,0,1.4-0.3,1.9-0.7l1.2,1.3
		c-0.9,0.8-2,1.2-3.3,1.2c-2.4,0-4-1.6-4-4c0-2.4,1.6-4.1,3.9-4.1C155.9,114.8,157.4,116.5,157.4,118.8z M152,118.1h3.4
		c-0.2-1-0.8-1.5-1.7-1.5C152.7,116.6,152.1,117.2,152,118.1z"/>
	<path class="st1" d="M168.5,117.2c-0.6-0.3-1.6-0.6-2.4-0.6c-0.8,0-1.2,0.3-1.2,0.7c0,0.4,0.6,0.6,1.3,0.7l0.7,0.1
		c1.7,0.3,2.6,1,2.6,2.3c0,1.6-1.3,2.6-3.5,2.6c-1,0-2.4-0.2-3.4-0.9l0.8-1.6c0.7,0.4,1.5,0.8,2.6,0.8c1,0,1.4-0.3,1.4-0.7
		c0-0.4-0.4-0.6-1.3-0.7l-0.6-0.1c-1.8-0.2-2.7-1-2.7-2.3c0-1.6,1.2-2.5,3.2-2.5c1.2,0,2.2,0.2,3.2,0.7L168.5,117.2z"/>
	<path class="st1" d="M178.2,118.8c0,0.2,0,0.5,0,0.7h-5.4c0.2,1.1,1,1.6,2,1.6c0.7,0,1.4-0.3,1.9-0.7l1.2,1.3
		c-0.9,0.8-2,1.2-3.3,1.2c-2.4,0-4-1.6-4-4c0-2.4,1.6-4.1,3.9-4.1C176.6,114.8,178.2,116.5,178.2,118.8z M172.7,118.1h3.4
		c-0.2-1-0.8-1.5-1.7-1.5C173.4,116.6,172.9,117.2,172.7,118.1z"/>
	<path class="st1" d="M185.1,115l-0.3,2.1c-0.3-0.2-0.8-0.2-1.3-0.2c-1,0-1.6,0.6-1.6,1.7v4.2h-2.1V115h2v0.8c0.5-0.7,1.2-1,2.2-1
		C184.5,114.8,184.8,114.9,185.1,115z"/>
	<path class="st1" d="M191.7,115l-0.3,2.1c-0.3-0.2-0.8-0.2-1.3-0.2c-1,0-1.6,0.6-1.6,1.7v4.2h-2.1V115h2v0.8c0.5-0.7,1.2-1,2.2-1
		C191.1,114.8,191.5,114.9,191.7,115z"/>
	<path class="st1" d="M200,118.8c0,0.2,0,0.5,0,0.7h-5.4c0.2,1.1,1,1.6,2,1.6c0.7,0,1.4-0.3,1.9-0.7l1.2,1.3c-0.9,0.8-2,1.2-3.3,1.2
		c-2.4,0-4-1.6-4-4c0-2.4,1.6-4.1,3.9-4.1C198.5,114.8,200,116.5,200,118.8z M194.5,118.1h3.4c-0.2-1-0.8-1.5-1.7-1.5
		C195.3,116.6,194.7,117.2,194.5,118.1z"/>
	<path class="st1" d="M61.8,137.8c0,2.3-1.6,4-3.7,4c-1,0-1.8-0.4-2.3-1v4h-2.1V134h2v0.8c0.5-0.6,1.2-1.1,2.3-1.1
		C60.2,133.8,61.8,135.5,61.8,137.8z M55.7,137.8c0,1.2,0.8,2.1,2,2.1c1.2,0,2-0.9,2-2.1s-0.8-2.1-2-2.1
		C56.5,135.7,55.7,136.6,55.7,137.8z"/>
	<path class="st1" d="M71,141.7h-2v-0.8c-0.5,0.6-1.2,1-2.3,1c-2.1,0-3.7-1.7-3.7-4s1.6-4,3.7-4c1.1,0,1.8,0.4,2.3,1.1V134h2V141.7z
		 M65.1,137.8c0,1.2,0.8,2.1,2,2.1c1.2,0,2-0.9,2-2.1s-0.8-2.1-2-2.1C65.9,135.7,65.1,136.7,65.1,137.8z"/>
	<path class="st1" d="M78.4,134l-0.3,2.1c-0.3-0.2-0.8-0.2-1.3-0.2c-1,0-1.6,0.6-1.6,1.7v4.2h-2.1V134h2v0.8c0.5-0.7,1.2-1,2.2-1
		C77.8,133.8,78.1,133.9,78.4,134z"/>
	<path class="st1" d="M89.1,136.2c-0.6-0.3-1.6-0.6-2.4-0.6c-0.8,0-1.2,0.3-1.2,0.7c0,0.4,0.6,0.6,1.3,0.7l0.7,0.1
		c1.7,0.3,2.6,1,2.6,2.3c0,1.6-1.3,2.6-3.5,2.6c-1,0-2.4-0.2-3.4-0.9l0.8-1.6c0.7,0.4,1.5,0.8,2.6,0.8c1,0,1.4-0.3,1.4-0.7
		c0-0.4-0.4-0.6-1.3-0.7l-0.6-0.1c-1.8-0.2-2.7-1-2.7-2.3c0-1.6,1.2-2.5,3.2-2.5c1.2,0,2.2,0.2,3.2,0.7L89.1,136.2z"/>
	<path class="st1" d="M98.8,137.8c0,0.2,0,0.5,0,0.7h-5.4c0.2,1.1,1,1.6,2,1.6c0.7,0,1.4-0.3,1.9-0.7l1.2,1.3
		c-0.9,0.8-2,1.2-3.3,1.2c-2.4,0-4-1.6-4-4c0-2.4,1.6-4.1,3.9-4.1C97.2,133.8,98.7,135.4,98.8,137.8z M93.3,137.1h3.4
		c-0.2-1-0.8-1.5-1.7-1.5C94,135.6,93.5,136.2,93.3,137.1z"/>
	<path class="st1" d="M107.1,135.3l-1.5,1.2c-0.5-0.5-1-0.8-1.6-0.8c-1.1,0-1.9,0.8-1.9,2.1c0,1.3,0.8,2.1,1.9,2.1
		c0.7,0,1.2-0.3,1.7-0.8l1.5,1.3c-0.7,0.9-1.8,1.4-3.1,1.4c-2.4,0-4.1-1.7-4.1-4c0-2.3,1.6-4,4.1-4
		C105.3,133.8,106.4,134.3,107.1,135.3z"/>
	<path class="st1" d="M114.3,135.8h-2.8v2.8c0,1,0.5,1.3,1.1,1.3c0.5,0,1-0.2,1.4-0.5l0.8,1.6c-0.7,0.5-1.4,0.8-2.5,0.8
		c-1.9,0-2.9-1.1-2.9-3.1v-3h-1.5V134h1.5v-2.3h2.1v2.3h2.8V135.8z"/>
	<path class="st1" d="M123.1,137.8c0,0.2,0,0.5,0,0.7h-5.4c0.2,1.1,1,1.6,2,1.6c0.7,0,1.4-0.3,1.9-0.7l1.2,1.3
		c-0.9,0.8-2,1.2-3.3,1.2c-2.4,0-4-1.6-4-4c0-2.4,1.6-4.1,3.9-4.1C121.6,133.8,123.1,135.4,123.1,137.8z M117.6,137.1h3.4
		c-0.2-1-0.8-1.5-1.7-1.5C118.4,135.6,117.8,136.2,117.6,137.1z"/>
	<path class="st1" d="M132,138.4c0,2.4-1.7,3.5-3.6,3.5c-1.9,0-3.6-1-3.6-3.5V134h2.1v4.2c0,1.2,0.7,1.7,1.6,1.7
		c0.9,0,1.6-0.5,1.6-1.7V134h2.1V138.4z"/>
	<path class="st1" d="M139.3,134L139,136c-0.3-0.2-0.8-0.2-1.3-0.2c-1,0-1.6,0.6-1.6,1.7v4.2h-2.1V134h2v0.8c0.5-0.7,1.2-1,2.2-1
		C138.7,133.8,139,133.9,139.3,134z"/>
</g>
<g>
	<path class="st1" d="M62.2,181.3h-8.3v-11.1h8.2v2h-6v2.5h5.7v2h-5.7v2.5h6.1V181.3z M56.6,169.3l1.6-2.5h2.5l-2.1,2.5H56.6z"/>
	<path class="st1" d="M76.7,176.5v4.9h-2.1v-4.2c0-1.1-0.6-1.7-1.5-1.7c-0.9,0-1.6,0.6-1.6,1.7v4.2h-2.1v-4.2c0-1.1-0.6-1.7-1.5-1.7
		c-0.9,0-1.6,0.6-1.6,1.7v4.2h-2.1v-7.7h2v0.9c0.5-0.8,1.4-1.1,2.3-1.1c1.1,0,2,0.5,2.5,1.3c0.6-1,1.6-1.3,2.6-1.3
		C75.5,173.5,76.7,174.7,76.7,176.5z"/>
	<path class="st1" d="M81.1,171.2c0,0.7-0.6,1.3-1.3,1.3c-0.7,0-1.3-0.6-1.3-1.3c0-0.7,0.6-1.3,1.3-1.3
		C80.6,169.8,81.1,170.4,81.1,171.2z M80.9,181.3h-2.1v-7.7h2.1V181.3z"/>
	<path class="st1" d="M88.5,175.8c-0.6-0.3-1.6-0.6-2.4-0.6c-0.8,0-1.2,0.3-1.2,0.7c0,0.4,0.6,0.6,1.3,0.7l0.7,0.1
		c1.7,0.3,2.6,1,2.6,2.3c0,1.6-1.3,2.6-3.5,2.6c-1,0-2.4-0.2-3.4-0.9l0.8-1.6c0.7,0.4,1.5,0.8,2.6,0.8c1,0,1.4-0.3,1.4-0.7
		c0-0.4-0.4-0.6-1.3-0.7l-0.6-0.1c-1.8-0.2-2.7-1-2.7-2.3c0-1.6,1.2-2.5,3.2-2.5c1.2,0,2.2,0.2,3.2,0.7L88.5,175.8z"/>
	<path class="st1" d="M96.5,175.8c-0.6-0.3-1.6-0.6-2.4-0.6c-0.8,0-1.2,0.3-1.2,0.7c0,0.4,0.6,0.6,1.3,0.7l0.7,0.1
		c1.7,0.3,2.6,1,2.6,2.3c0,1.6-1.3,2.6-3.5,2.6c-1,0-2.4-0.2-3.4-0.9l0.8-1.6c0.7,0.4,1.5,0.8,2.6,0.8c1,0,1.4-0.3,1.4-0.7
		c0-0.4-0.4-0.6-1.3-0.7l-0.6-0.1c-1.8-0.2-2.7-1-2.7-2.3c0-1.6,1.2-2.5,3.2-2.5c1.2,0,2.2,0.2,3.2,0.7L96.5,175.8z"/>
	<path class="st1" d="M101.4,171.2c0,0.7-0.6,1.3-1.3,1.3c-0.7,0-1.3-0.6-1.3-1.3c0-0.7,0.6-1.3,1.3-1.3
		C100.8,169.8,101.4,170.4,101.4,171.2z M101.1,181.3H99v-7.7h2.1V181.3z"/>
	<path class="st1" d="M111.1,177.5c0,2.3-1.8,4-4.2,4c-2.4,0-4.1-1.7-4.1-4s1.8-4,4.1-4C109.3,173.5,111.1,175.2,111.1,177.5z
		 M104.9,177.5c0,1.2,0.9,2.1,2,2.1s2-0.9,2-2.1s-0.9-2.1-2-2.1S104.9,176.3,104.9,177.5z"/>
	<path class="st1" d="M120,176.5v4.9H118v-4.2c0-1.1-0.6-1.7-1.5-1.7c-0.9,0-1.6,0.6-1.6,1.7v4.2h-2.1v-7.7h2v0.9
		c0.5-0.8,1.4-1.1,2.3-1.1C118.8,173.5,120,174.7,120,176.5z"/>
	<path class="st1" d="M127.6,175.8c-0.6-0.3-1.6-0.6-2.4-0.6c-0.8,0-1.2,0.3-1.2,0.7c0,0.4,0.6,0.6,1.3,0.7l0.7,0.1
		c1.7,0.3,2.6,1,2.6,2.3c0,1.6-1.3,2.6-3.5,2.6c-1,0-2.4-0.2-3.4-0.9l0.8-1.6c0.7,0.4,1.5,0.8,2.6,0.8c1,0,1.4-0.3,1.4-0.7
		c0-0.4-0.4-0.6-1.3-0.7l-0.6-0.1c-1.8-0.2-2.7-1-2.7-2.3c0-1.6,1.2-2.5,3.2-2.5c1.2,0,2.2,0.2,3.2,0.7L127.6,175.8z"/>
	<path class="st1" d="M139.6,175.5h-2.8v2.8c0,1,0.5,1.3,1.1,1.3c0.5,0,1-0.2,1.4-0.5l0.8,1.6c-0.7,0.5-1.4,0.8-2.5,0.8
		c-1.9,0-2.9-1.1-2.9-3.1v-3h-1.5v-1.8h1.5v-2.3h2.1v2.3h2.8V175.5z"/>
	<path class="st1" d="M149.1,177.5c0,2.3-1.8,4-4.2,4c-2.4,0-4.1-1.7-4.1-4s1.8-4,4.1-4C147.3,173.5,149.1,175.2,149.1,177.5z
		 M142.9,177.5c0,1.2,0.9,2.1,2,2.1s2-0.9,2-2.1s-0.9-2.1-2-2.1S142.9,176.3,142.9,177.5z"/>
	<path class="st1" d="M156.3,175.5h-2.8v2.8c0,1,0.5,1.3,1.1,1.3c0.5,0,1-0.2,1.4-0.5l0.8,1.6c-0.7,0.5-1.4,0.8-2.5,0.8
		c-1.9,0-2.9-1.1-2.9-3.1v-3H150v-1.8h1.5v-2.3h2.1v2.3h2.8V175.5z"/>
	<path class="st1" d="M165.6,181.3h-2v-0.8c-0.5,0.6-1.2,1-2.3,1c-2.1,0-3.7-1.7-3.7-4s1.6-4,3.7-4c1.1,0,1.8,0.4,2.3,1.1v-0.8h2
		V181.3z M159.6,177.5c0,1.2,0.8,2.1,2,2.1c1.2,0,2-0.9,2-2.1s-0.8-2.1-2-2.1C160.4,175.4,159.6,176.3,159.6,177.5z"/>
	<path class="st1" d="M169.8,181.3h-2.1v-11.4h2.1V181.3z"/>
	<path class="st1" d="M179.1,177.5c0,0.2,0,0.5,0,0.7h-5.4c0.2,1.1,1,1.6,2,1.6c0.7,0,1.4-0.3,1.9-0.7l1.2,1.3
		c-0.9,0.8-2,1.2-3.3,1.2c-2.4,0-4-1.6-4-4c0-2.4,1.6-4.1,3.9-4.1C177.6,173.5,179.1,175.1,179.1,177.5z M173.6,176.8h3.4
		c-0.2-1-0.8-1.5-1.7-1.5C174.4,175.2,173.8,175.8,173.6,176.8z"/>
	<path class="st1" d="M186.2,175.8c-0.6-0.3-1.6-0.6-2.4-0.6c-0.8,0-1.2,0.3-1.2,0.7c0,0.4,0.6,0.6,1.3,0.7l0.7,0.1
		c1.7,0.3,2.6,1,2.6,2.3c0,1.6-1.3,2.6-3.5,2.6c-1,0-2.4-0.2-3.4-0.9l0.8-1.6c0.7,0.4,1.5,0.8,2.6,0.8c1,0,1.4-0.3,1.4-0.7
		c0-0.4-0.4-0.6-1.3-0.7l-0.6-0.1c-1.8-0.2-2.7-1-2.7-2.3c0-1.6,1.2-2.5,3.2-2.5c1.2,0,2.2,0.2,3.2,0.7L186.2,175.8z"/>
	<path class="st1" d="M198.1,174.5v-4.5h2.1v11.4h-2v-0.8c-0.5,0.6-1.2,1-2.3,1c-2.1,0-3.7-1.7-3.7-4s1.6-4,3.7-4
		C196.9,173.5,197.6,173.9,198.1,174.5z M194.3,177.5c0,1.2,0.8,2.1,2,2.1c1.2,0,2-0.9,2-2.1s-0.8-2.1-2-2.1
		C195.1,175.4,194.3,176.3,194.3,177.5z"/>
	<path class="st1" d="M209.5,177.5c0,0.2,0,0.5,0,0.7H204c0.2,1.1,1,1.6,2,1.6c0.7,0,1.4-0.3,1.9-0.7l1.2,1.3
		c-0.9,0.8-2,1.2-3.3,1.2c-2.4,0-4-1.6-4-4c0-2.4,1.6-4.1,3.9-4.1C208,173.5,209.5,175.1,209.5,177.5z M204,176.8h3.4
		c-0.2-1-0.8-1.5-1.7-1.5C204.8,175.2,204.2,175.8,204,176.8z"/>
	<path class="st1" d="M59.2,193.5v-0.9h2v7c0,2.5-1.6,4-4.1,4c-1.2,0-2.5-0.3-3.4-0.9l0.7-1.7c0.8,0.5,1.6,0.8,2.5,0.8
		c1.3,0,2.2-0.7,2.2-2v-0.5c-0.5,0.6-1.3,1-2.4,1c-1.9,0-3.5-1.6-3.5-3.9c0-2.4,1.7-3.9,3.5-3.9C57.9,192.5,58.6,192.9,59.2,193.5z
		 M55.4,196.4c0,1.1,0.8,2,1.9,2c1.1,0,1.9-0.9,1.9-2c0-1.1-0.8-2-1.9-2C56.1,194.4,55.4,195.3,55.4,196.4z"/>
	<path class="st1" d="M70.9,200.3h-2v-0.8c-0.5,0.6-1.2,1-2.3,1c-2.1,0-3.7-1.7-3.7-4s1.6-4,3.7-4c1.1,0,1.8,0.4,2.3,1.1v-0.8h2
		V200.3z M65,196.5c0,1.2,0.8,2.1,2,2.1c1.2,0,2-0.9,2-2.1c0-1.2-0.8-2.1-2-2.1C65.8,194.4,65,195.3,65,196.5z"/>
	<path class="st1" d="M79.4,194.2l-3.8,4.3h3.9v1.8h-6.7v-1.5l3.9-4.3h-3.7v-1.8h6.5V194.2z"/>
	<path class="st1" d="M92.8,200.3h-2v-0.8c-0.5,0.6-1.2,1-2.3,1c-2.1,0-3.7-1.7-3.7-4s1.6-4,3.7-4c1.1,0,1.8,0.4,2.3,1.1v-0.8h2
		V200.3z M86.3,189.1h2.5l1.6,2.5h-2L86.3,189.1z M86.9,196.5c0,1.2,0.8,2.1,2,2.1c1.2,0,2-0.9,2-2.1c0-1.2-0.8-2.1-2-2.1
		C87.6,194.4,86.9,195.3,86.9,196.5z"/>
	<path class="st1" d="M106,196.5c0,0.2,0,0.5,0,0.7h-5.4c0.2,1.1,1,1.6,2,1.6c0.7,0,1.4-0.3,1.9-0.7l1.2,1.3c-0.9,0.8-2,1.2-3.3,1.2
		c-2.4,0-4-1.6-4-4s1.6-4.1,3.9-4.1C104.5,192.5,106,194.1,106,196.5z M100.5,195.8h3.4c-0.2-1-0.8-1.5-1.7-1.5
		C101.3,194.2,100.7,194.8,100.5,195.8z"/>
	<path class="st1" d="M112.7,194.5h-2.4v5.8h-2.1v-5.8h-1.4v-1.8h1.4v-1c0-1.8,1-3,2.7-3c1,0,1.8,0.3,2.4,0.7l-0.8,1.6
		c-0.4-0.2-0.8-0.4-1.3-0.4c-0.6,0-0.9,0.4-0.9,1.1v0.9h2.4V194.5z"/>
	<path class="st1" d="M119.2,194.5h-2.4v5.8h-2.1v-5.8h-1.4v-1.8h1.4v-1c0-1.8,1-3,2.7-3c1,0,1.8,0.3,2.4,0.7l-0.8,1.6
		c-0.4-0.2-0.8-0.4-1.3-0.4c-0.6,0-0.9,0.4-0.9,1.1v0.9h2.4V194.5z"/>
	<path class="st1" d="M127.7,196.5c0,0.2,0,0.5,0,0.7h-5.4c0.2,1.1,1,1.6,2,1.6c0.7,0,1.4-0.3,1.9-0.7l1.2,1.3
		c-0.9,0.8-2,1.2-3.3,1.2c-2.4,0-4-1.6-4-4s1.6-4.1,3.9-4.1C126.2,192.5,127.7,194.1,127.7,196.5z M122.2,195.8h3.4
		c-0.2-1-0.8-1.5-1.7-1.5C123,194.2,122.4,194.8,122.2,195.8z"/>
	<path class="st1" d="M134.9,194.5h-2.8v2.8c0,1,0.5,1.3,1.1,1.3c0.5,0,1-0.2,1.4-0.5l0.8,1.6c-0.7,0.5-1.4,0.8-2.5,0.8
		c-1.9,0-2.9-1.1-2.9-3.1v-3h-1.5v-1.8h1.5v-2.3h2.1v2.3h2.8V194.5z"/>
	<path class="st1" d="M146.1,193.5v-4.5h2.1v11.4h-2v-0.8c-0.5,0.6-1.2,1-2.3,1c-2.1,0-3.7-1.7-3.7-4s1.6-4,3.7-4
		C144.9,192.5,145.6,192.9,146.1,193.5z M142.2,196.5c0,1.2,0.8,2.1,2,2.1c1.2,0,2-0.9,2-2.1c0-1.2-0.8-2.1-2-2.1
		C143,194.4,142.2,195.3,142.2,196.5z"/>
	<path class="st1" d="M157.4,196.5c0,0.2,0,0.5,0,0.7H152c0.2,1.1,1,1.6,2,1.6c0.7,0,1.4-0.3,1.9-0.7l1.2,1.3
		c-0.9,0.8-2,1.2-3.3,1.2c-2.4,0-4-1.6-4-4s1.6-4.1,3.9-4.1C155.9,192.5,157.4,194.1,157.4,196.5z M152,195.8h3.4
		c-0.2-1-0.8-1.5-1.7-1.5C152.7,194.2,152.1,194.8,152,195.8z"/>
	<path class="st1" d="M168.5,194.8c-0.6-0.3-1.6-0.6-2.4-0.6c-0.8,0-1.2,0.3-1.2,0.7c0,0.4,0.6,0.6,1.3,0.7l0.7,0.1
		c1.7,0.3,2.6,1,2.6,2.3c0,1.6-1.3,2.6-3.5,2.6c-1,0-2.4-0.2-3.4-0.9l0.8-1.6c0.7,0.4,1.5,0.8,2.6,0.8c1,0,1.4-0.3,1.4-0.7
		c0-0.4-0.4-0.6-1.3-0.7l-0.6-0.1c-1.8-0.2-2.7-1-2.7-2.3c0-1.6,1.2-2.5,3.2-2.5c1.2,0,2.2,0.2,3.2,0.7L168.5,194.8z"/>
	<path class="st1" d="M178.2,196.5c0,0.2,0,0.5,0,0.7h-5.4c0.2,1.1,1,1.6,2,1.6c0.7,0,1.4-0.3,1.9-0.7l1.2,1.3
		c-0.9,0.8-2,1.2-3.3,1.2c-2.4,0-4-1.6-4-4s1.6-4.1,3.9-4.1C176.6,192.5,178.2,194.1,178.2,196.5z M172.7,195.8h3.4
		c-0.2-1-0.8-1.5-1.7-1.5C173.4,194.2,172.9,194.8,172.7,195.8z"/>
	<path class="st1" d="M185.1,192.6l-0.3,2.1c-0.3-0.2-0.8-0.2-1.3-0.2c-1,0-1.6,0.6-1.6,1.7v4.2h-2.1v-7.7h2v0.8
		c0.5-0.7,1.2-1,2.2-1C184.5,192.5,184.8,192.5,185.1,192.6z"/>
	<path class="st1" d="M191.7,192.6l-0.3,2.1c-0.3-0.2-0.8-0.2-1.3-0.2c-1,0-1.6,0.6-1.6,1.7v4.2h-2.1v-7.7h2v0.8
		c0.5-0.7,1.2-1,2.2-1C191.1,192.5,191.5,192.5,191.7,192.6z"/>
	<path class="st1" d="M200,196.5c0,0.2,0,0.5,0,0.7h-5.4c0.2,1.1,1,1.6,2,1.6c0.7,0,1.4-0.3,1.9-0.7l1.2,1.3c-0.9,0.8-2,1.2-3.3,1.2
		c-2.4,0-4-1.6-4-4s1.6-4.1,3.9-4.1C198.5,192.5,200,194.1,200,196.5z M194.5,195.8h3.4c-0.2-1-0.8-1.5-1.7-1.5
		C195.3,194.2,194.7,194.8,194.5,195.8z"/>
	<path class="st1" d="M61.8,215.5c0,2.3-1.6,4-3.7,4c-1,0-1.8-0.4-2.3-1v4h-2.1v-10.8h2v0.8c0.5-0.6,1.2-1.1,2.3-1.1
		C60.2,211.4,61.8,213.2,61.8,215.5z M55.7,215.5c0,1.2,0.8,2.1,2,2.1c1.2,0,2-0.9,2-2.1s-0.8-2.1-2-2.1
		C56.5,213.4,55.7,214.3,55.7,215.5z"/>
	<path class="st1" d="M71,219.3h-2v-0.8c-0.5,0.6-1.2,1-2.3,1c-2.1,0-3.7-1.7-3.7-4s1.6-4,3.7-4c1.1,0,1.8,0.4,2.3,1.1v-0.8h2V219.3
		z M65.1,215.5c0,1.2,0.8,2.1,2,2.1c1.2,0,2-0.9,2-2.1c0-1.2-0.8-2.1-2-2.1C65.9,213.4,65.1,214.3,65.1,215.5z"/>
	<path class="st1" d="M78.4,211.6l-0.3,2.1c-0.3-0.2-0.8-0.2-1.3-0.2c-1,0-1.6,0.6-1.6,1.7v4.2h-2.1v-7.7h2v0.8c0.5-0.7,1.2-1,2.2-1
		C77.8,211.4,78.1,211.5,78.4,211.6z"/>
	<path class="st1" d="M96.1,214.4v4.9H94v-4.2c0-1.1-0.6-1.7-1.5-1.7c-0.9,0-1.6,0.6-1.6,1.7v4.2h-2.1v-4.2c0-1.1-0.6-1.7-1.5-1.7
		c-0.9,0-1.6,0.6-1.6,1.7v4.2h-2.1v-7.7h2v0.9c0.5-0.8,1.4-1.1,2.3-1.1c1.1,0,2,0.5,2.5,1.3c0.6-1,1.6-1.3,2.6-1.3
		C94.8,211.4,96.1,212.7,96.1,214.4z"/>
	<path class="st1" d="M106,215.5c0,2.3-1.8,4-4.2,4c-2.4,0-4.1-1.7-4.1-4s1.8-4,4.1-4C104.2,211.4,106,213.2,106,215.5z M99.8,215.5
		c0,1.2,0.9,2.1,2,2.1s2-0.9,2-2.1s-0.9-2.1-2-2.1S99.8,214.2,99.8,215.5z"/>
	<path class="st1" d="M113.1,212.5v-4.5h2.1v11.4h-2v-0.8c-0.5,0.6-1.2,1-2.3,1c-2.1,0-3.7-1.7-3.7-4s1.6-4,3.7-4
		C111.9,211.4,112.6,211.9,113.1,212.5z M109.3,215.5c0,1.2,0.8,2.1,2,2.1c1.2,0,2-0.9,2-2.1c0-1.2-0.8-2.1-2-2.1
		C110.1,213.4,109.3,214.3,109.3,215.5z"/>
	<path class="st1" d="M124.5,215.5c0,0.2,0,0.5,0,0.7H119c0.2,1.1,1,1.6,2,1.6c0.7,0,1.4-0.3,1.9-0.7l1.2,1.3
		c-0.9,0.8-2,1.2-3.3,1.2c-2.4,0-4-1.6-4-4s1.6-4.1,3.9-4.1C123,211.4,124.5,213.1,124.5,215.5z M119,214.8h3.4
		c-0.2-1-0.8-1.5-1.7-1.5C119.8,213.2,119.2,213.8,119,214.8z"/>
	<path class="st1" d="M135.6,212.5v-4.5h2.1v11.4h-2v-0.8c-0.5,0.6-1.2,1-2.3,1c-2.1,0-3.7-1.7-3.7-4s1.6-4,3.7-4
		C134.4,211.4,135.1,211.9,135.6,212.5z M131.7,215.5c0,1.2,0.8,2.1,2,2.1c1.2,0,2-0.9,2-2.1c0-1.2-0.8-2.1-2-2.1
		C132.5,213.4,131.7,214.3,131.7,215.5z"/>
	<path class="st1" d="M147,215.5c0,0.2,0,0.5,0,0.7h-5.4c0.2,1.1,1,1.6,2,1.6c0.7,0,1.4-0.3,1.9-0.7l1.2,1.3c-0.9,0.8-2,1.2-3.3,1.2
		c-2.4,0-4-1.6-4-4s1.6-4.1,3.9-4.1C145.4,211.4,146.9,213.1,147,215.5z M141.5,214.8h3.4c-0.2-1-0.8-1.5-1.7-1.5
		C142.2,213.2,141.7,213.8,141.5,214.8z"/>
	<path class="st1" d="M158.1,213.5h-2.8v2.8c0,1,0.5,1.3,1.1,1.3c0.5,0,1-0.2,1.4-0.5l0.8,1.6c-0.7,0.5-1.4,0.8-2.5,0.8
		c-1.9,0-2.9-1.1-2.9-3.1v-3h-1.5v-1.8h1.5v-2.3h2.1v2.3h2.8V213.5z"/>
	<path class="st1" d="M165.1,211.6l-0.3,2.1c-0.3-0.2-0.8-0.2-1.3-0.2c-1,0-1.6,0.6-1.6,1.7v4.2h-2.1v-7.7h2v0.8
		c0.5-0.7,1.2-1,2.2-1C164.5,211.4,164.8,211.5,165.1,211.6z"/>
	<path class="st1" d="M173.8,219.3h-2v-0.8c-0.5,0.6-1.2,1-2.3,1c-2.1,0-3.7-1.7-3.7-4s1.6-4,3.7-4c1.1,0,1.8,0.4,2.3,1.1v-0.8h2
		V219.3z M167.9,215.5c0,1.2,0.8,2.1,2,2.1c1.2,0,2-0.9,2-2.1c0-1.2-0.8-2.1-2-2.1C168.7,213.4,167.9,214.3,167.9,215.5z"/>
	<path class="st1" d="M183.2,214.4v4.9h-2.1v-4.2c0-1.1-0.6-1.7-1.5-1.7c-0.9,0-1.6,0.6-1.6,1.7v4.2H176v-7.7h2v0.9
		c0.5-0.8,1.4-1.1,2.3-1.1C182,211.4,183.2,212.7,183.2,214.4z"/>
	<path class="st1" d="M190.8,213.8c-0.6-0.3-1.6-0.6-2.4-0.6c-0.8,0-1.2,0.3-1.2,0.7c0,0.4,0.6,0.6,1.3,0.7l0.7,0.1
		c1.7,0.3,2.6,1,2.6,2.3c0,1.6-1.3,2.6-3.5,2.6c-1,0-2.4-0.2-3.4-0.9l0.8-1.6c0.7,0.4,1.5,0.8,2.6,0.8c1,0,1.4-0.3,1.4-0.7
		c0-0.4-0.4-0.6-1.3-0.7l-0.6-0.1c-1.8-0.2-2.7-1-2.7-2.3c0-1.6,1.2-2.5,3.2-2.5c1.2,0,2.2,0.2,3.2,0.7L190.8,213.8z"/>
	<path class="st1" d="M201.4,215.5c0,2.3-1.6,4-3.7,4c-1,0-1.8-0.4-2.3-1v4h-2.1v-10.8h2v0.8c0.5-0.6,1.2-1.1,2.3-1.1
		C199.8,211.4,201.4,213.2,201.4,215.5z M195.3,215.5c0,1.2,0.8,2.1,2,2.1c1.2,0,2-0.9,2-2.1s-0.8-2.1-2-2.1
		C196.1,213.4,195.3,214.3,195.3,215.5z"/>
	<path class="st1" d="M210.9,215.5c0,2.3-1.8,4-4.2,4c-2.4,0-4.1-1.7-4.1-4s1.8-4,4.1-4C209.1,211.4,210.9,213.2,210.9,215.5z
		 M204.7,215.5c0,1.2,0.9,2.1,2,2.1s2-0.9,2-2.1s-0.9-2.1-2-2.1S204.7,214.2,204.7,215.5z"/>
	<path class="st1" d="M217.8,211.6l-0.3,2.1c-0.3-0.2-0.8-0.2-1.3-0.2c-1,0-1.6,0.6-1.6,1.7v4.2h-2.1v-7.7h2v0.8
		c0.5-0.7,1.2-1,2.2-1C217.2,211.4,217.5,211.5,217.8,211.6z"/>
	<path class="st1" d="M224.9,213.5h-2.8v2.8c0,1,0.5,1.3,1.1,1.3c0.5,0,1-0.2,1.4-0.5l0.8,1.6c-0.7,0.5-1.4,0.8-2.5,0.8
		c-1.9,0-2.9-1.1-2.9-3.1v-3h-1.5v-1.8h1.5v-2.3h2.1v2.3h2.8V213.5z"/>
</g>
</svg>
