<?xml version="1.0" encoding="utf-8"?>
<!-- Generator: Adobe Illustrator 25.2.1, SVG Export Plug-In . SVG Version: 6.00 Build 0)  -->
<svg version="1.1" id="Layer_1" xmlns="http://www.w3.org/2000/svg" xmlns:xlink="http://www.w3.org/1999/xlink" x="0px" y="0px"
	 viewBox="0 0 250 250" style="enable-background:new 0 0 250 250;" xml:space="preserve">
<style type="text/css">
	.st0{fill:#EE5A36;}
	.st1{fill:#203232;}
	.st2{fill:#FFFFFF;}
</style>
<path class="st0" d="M67.7,114.9c-0.6,3.3,2.4,0.5,8.4-2.4c6-2.9,24.7-13.8,29.6-14.8c4.9-1.1,19.8-8.1,26-8.6
	c6.2-0.5,13.2-1.9,20.6,1.5s14.8,13.3,20.4,16.8c5.2,3.3,16.1,6,17,11.4c0.7,4.1,0.8,12.1-2.9,12.1c7.6-2.9,9.8-4.5,12.7-3.7
	s3.7,1,3.7,2s-3.5,8.7-7.7,11.8c-4.1,3-11.5,10.9-20.6,12.6c-9.1,1.7-19.1,4-26.4,3.9c-7.3-0.1-20.2-1.2-26.8-3.5
	c-6.6-2.3-27.7-11.3-27.7-11.3l-14.4-6.1l-6.3-3.7c0,0-0.6-2.1-2.7-1.6"/>
<path class="st0" d="M67.9,128.5c-1.1,0.7-2,1.7-4.5,2.9c-4.1,2.1-9,2.8-12.9,3.2c-3.9,0.4-5.6,0.4-5.6,0.4s1.5-5.2,2.1-9.8
	s0.6-6.4,0.6-6.4s-0.9-6.3-1.7-8.2c-0.8-1.9,22.3,1.1,21.7,4.3"/>
<path class="st1" d="M76.4,112.2c5.6-4,11.3-7.7,17.2-11.2c5.9-3.5,11.9-6.7,18.2-9.5c6.4-2.8,13.3-4.7,20.4-5.1
	c7-0.4,14.3,0.6,20.4,3.8c-6.8-0.8-13.5-0.5-19.9,0.7c-6.4,1.2-12.6,3.3-18.7,5.9c-6.1,2.6-12.2,5.5-18.5,8.2
	C89.4,107.8,83,110.4,76.4,112.2z"/>
<g>
	<path class="st1" d="M73.5,132.4c5.7,3.1,11.9,5.1,18,7.2c3.1,1,6.2,2.1,9.3,3.3c3.1,1.1,6.1,2.4,9.1,3.6c6,2.3,12,4.5,18.1,5.8
		c3.1,0.6,6.2,1.1,9.3,1.4c3.1,0.3,6.3,0.5,9.4,0.5c12.6,0,25.2-2.6,36.6-7.9c5.6-2.7,10.9-6.3,15.2-10.9c1.1-1.1,2.2-2.3,3.1-3.5
		c0.2-0.3,0.4-0.7,0.6-0.9c0.1-0.3,0.2-0.6,0.3-0.9c0.1-0.6,0.1-1.2-0.2-1.6c-0.3-0.4-1-0.7-1.7-0.9c-0.7-0.1-1.5-0.2-2.3-0.1
		c-0.8,0-1.6,0.1-2.4,0.2l-2.4,0.4c0.8-0.3,1.5-0.6,2.3-0.8c0.8-0.2,1.6-0.5,2.4-0.6c0.8-0.2,1.7-0.2,2.6-0.2c0.9,0.1,1.9,0.3,2.7,1
		c0.8,0.8,1.1,2,1,2.9c0,0.5-0.1,1-0.3,1.4c-0.2,0.5-0.4,0.9-0.6,1.3c-0.8,1.6-1.8,2.9-2.8,4.2c-2.1,2.6-4.4,5.1-7,7.3
		c-2.6,2.2-5.4,4.1-8.3,5.7c-11.8,6.6-25.3,9.7-38.7,9.7c-6.7,0-13.4-0.8-20-2.3c-6.6-1.6-12.8-4.2-18.7-7
		c-5.9-2.8-11.6-5.7-17.6-8.4c-2.9-1.4-5.9-2.8-8.8-4.4C78.8,136.2,76,134.5,73.5,132.4z"/>
	<path class="st1" d="M76.4,104.7c12.1-7.1,24-14.6,36.9-20.6c6.6-3,13.6-5.1,20.9-5.8c7.3-0.7,14.9,0,22,2.7l2.6,1.1
		c0.8,0.4,1.7,0.8,2.5,1.3c1.7,0.9,3.3,1.9,4.8,3c3,2.3,5.6,4.8,8.1,7.2c1.3,1.2,2.5,2.4,3.8,3.5c1.2,1.1,2.4,2,3.8,2.9
		c2.8,1.7,5.9,3.1,9.1,4.6c3.2,1.5,6.5,3.1,9.5,5.5c1.5,1.2,2.9,2.6,3.9,4.6c0.5,1,0.7,2.1,0.7,3.3c0,1.1-0.3,2.2-0.8,3.1
		c-1,1.9-2.4,3.2-3.9,4.3c-1.6,1.1-3.1,1.9-4.8,2.6c-3.3,1.4-6.8,2.3-10.3,2.7c3.4-1,6.6-2.3,9.6-4.1c1.4-0.9,2.9-1.9,4.1-3
		c1.2-1.1,2.2-2.4,2.7-3.7c0.5-1.3,0.4-2.6-0.3-3.8c-0.7-1.2-1.8-2.2-3.2-3.1c-2.7-1.8-5.8-3.1-9-4.4c-3.2-1.2-6.6-2.5-9.9-4.3
		c-1.6-0.9-3.3-2-4.7-3.2c-1.4-1.2-2.7-2.4-4-3.5c-2.6-2.4-5.1-4.7-7.8-6.6c-1.3-1-2.6-1.8-4.1-2.6c-0.7-0.4-1.5-0.7-2.2-1.1
		l-2.3-0.9c-6.1-2.3-12.8-3.1-19.4-2.6c-6.7,0.5-13.3,2.1-19.7,4.5C102.1,93.2,89.6,99.7,76.4,104.7z"/>
	<path class="st1" d="M73.5,132.4c-2.9-0.8-5.4-3-7-5.7c-1.6-2.7-2.3-6.1-1.9-9.3c0.3-3.2,1.7-6.3,3.8-8.7c2.1-2.3,5-4,8-4.1
		c-1.9,2.3-3.3,4.4-4.3,6.7c-1,2.2-1.6,4.4-1.8,6.7c-0.2,2.3-0.1,4.6,0.4,7C71.2,127.4,72.1,129.7,73.5,132.4z"/>
	<path class="st1" d="M67.3,106c-2.3-0.4-4.4-0.9-6.6-1.2c-2.1-0.3-4.2-0.6-6.3-0.7c-1-0.1-2.1-0.1-3.1-0.1c-1,0.1-2,0-3,0.1
		c-2,0-4,0.4-6,0.7l1.5-4.5c0.6,0.8,1,1.5,1.5,2.2c0.4,0.7,0.8,1.5,1.2,2.3c0.7,1.5,1.2,3.1,1.6,4.8c0.4,1.6,0.6,3.3,0.6,5
		c0,1.7-0.3,3.3-0.7,4.9c-0.6-1.6-1-3-1.7-4.4c-0.6-1.4-1.2-2.8-2-4c-0.7-1.3-1.5-2.5-2.3-3.8c-0.4-0.6-0.8-1.2-1.2-1.8
		c-0.4-0.5-0.9-1.2-1.3-1.6c-1-1.1-0.9-2.9,0.2-3.9c0.4-0.3,0.8-0.5,1.2-0.6l0.1,0c2.3-0.5,4.7-0.9,7.1-0.9c2.4,0,4.8,0.3,7.1,0.9
		C59.9,100.5,64.1,102.7,67.3,106z"/>
	<path class="st1" d="M67.3,132.8c-3.2,3.3-7.5,5.6-12,6.7c-2.3,0.6-4.7,0.9-7.1,0.9c-2.4,0-4.8-0.3-7.1-0.9l-0.1,0
		c-1.5-0.3-2.4-1.8-2.1-3.3c0.1-0.5,0.3-0.9,0.6-1.2c0.4-0.4,0.8-1,1.3-1.6c0.4-0.6,0.8-1.2,1.2-1.8c0.8-1.2,1.6-2.5,2.3-3.8
		c0.7-1.3,1.4-2.6,2-4c0.6-1.4,1.1-2.9,1.7-4.4c0.5,1.6,0.8,3.2,0.7,4.9c0,1.7-0.2,3.4-0.6,5c-0.4,1.6-0.9,3.3-1.6,4.8
		c-0.3,0.8-0.7,1.5-1.2,2.3c-0.4,0.8-0.9,1.4-1.5,2.2l-1.5-4.5c2,0.3,4,0.6,6,0.7c1,0.1,2,0,3,0.1c1-0.1,2,0,3.1-0.1
		c2.1-0.1,4.2-0.4,6.3-0.7C62.9,133.7,65,133.2,67.3,132.8z"/>
	<path class="st1" d="M173,96.3c-0.8-0.3-1.6-0.4-2.3-0.5c-0.7,0-1.4-0.1-2,0.1c-1.2,0.3-1.8,0.9-2.4,1.9c-0.1,0.2-0.3,0.5-0.4,0.8
		c-0.1,0.2-0.3,0.5-0.4,0.9c-0.1,0.3-0.2,0.6-0.3,0.9l-0.3,1c-0.1,0.3-0.2,0.6-0.3,1l-0.2,1l-0.6,2.3c-0.5,1.8-1.4,3.5-2.5,5
		c-1.1,1.5-2.3,2.6-3.3,3.6c-1,1-1.9,2-2.6,3.2c-0.8,1.2-1.3,2.7-2,4.3c-0.6-1.6-0.9-3.3-0.7-5.1c0.1-1.8,0.9-3.6,1.7-5.1
		c0.9-1.5,1.8-2.7,2.4-3.9c0.7-1.2,1.1-2.3,1.5-3.5l0.6-2.2c0.2-0.8,0.5-1.6,0.9-2.5l0.6-1.2c0.2-0.4,0.5-0.8,0.7-1.2
		c0.4-0.8,1.2-1.6,1.9-2.2c0.4-0.3,0.8-0.6,1.3-0.9c0.5-0.3,1-0.5,1.5-0.7c0.6-0.1,1.1-0.3,1.6-0.3c0.5,0,1.1,0,1.6,0.2
		C170.8,93.5,172.2,94.8,173,96.3z"/>
	<path class="st1" d="M176.2,151.8c-1.3,1.3-3.3,2.1-5.4,2.2c-2.1,0.1-4.4-0.8-6-2.2c-0.9-0.7-1.5-1.5-2.2-2.3
		c-0.5-0.9-1.1-1.7-1.5-2.6c-0.2-0.4-0.4-0.9-0.6-1.4c-0.2-0.5-0.4-0.9-0.5-1.4l-0.8-2.7c-0.3-1.5-0.9-2.8-1.6-4.1
		c-0.7-1.3-1.7-2.6-2.7-4.3c-1-1.6-1.9-3.6-2.1-5.6c-0.2-2,0-3.9,0.6-5.7c0.7,1.8,1.3,3.4,2.1,4.8c0.8,1.4,1.8,2.5,3,3.7
		c1.2,1.2,2.6,2.5,3.8,4.2c1.2,1.7,2.1,3.7,2.5,5.7c0.5,1.7,0.8,3.2,1.3,4.7c0.2,0.8,0.6,1.4,0.8,2.1c0.4,0.6,0.7,1.3,1.1,1.8
		c0.8,1.1,1.8,2.1,3.2,2.6c0.7,0.3,1.5,0.4,2.3,0.6C174.3,151.9,175.2,151.9,176.2,151.8z"/>
	<path class="st2" d="M179.8,116.1c0,0.2-0.2,0.5-0.6,0.7c-0.4,0.2-1.1,0.5-2.3,0.7c-1.2-0.2-1.8-0.5-2.3-0.7
		c-0.4-0.2-0.6-0.5-0.6-0.7c0-0.2,0.2-0.5,0.6-0.7c0.4-0.2,1.1-0.5,2.3-0.7"/>
	<path class="st1" d="M158.8,85.2c-3.7-5-7.8-9.6-12.4-13.2c-2.3-1.8-4.8-3.3-7.3-4.4c-0.6-0.3-1.3-0.5-1.9-0.7
		c-0.7-0.2-1.4-0.4-2-0.5c-1.4-0.3-2.7-0.5-4.1-0.6c-1.4-0.1-2.7-0.1-4,0.1c-1.3,0.2-2.6,0.5-3.3,0.9c-0.7,0.4-1,0.8-1.2,1.7
		c-0.2,1.7-0.6,3.5-1.4,5.2c-0.4,0.8-0.8,1.6-1.4,2.4c-0.6,0.8-1.3,1.5-2,2c-1.4,1.1-2.9,1.8-4.2,2.5c-1.3,0.6-2.3,1.4-3.1,2.6
		c-0.8,1.2-1.2,2.7-1.5,4.2c-0.3-1.5-0.4-3.2,0.1-4.9c0.4-1.7,1.6-3.2,2.9-4.3c1.2-1.1,2.4-2,3.3-2.9c0.4-0.5,0.8-1,1-1.5
		c0.3-0.6,0.5-1.1,0.7-1.7c0.4-1.2,0.5-2.5,0.5-3.9c0-1.1,0.3-2.3,0.9-3.4c0.6-1.1,1.5-2,2.4-2.6c1.9-1.2,3.7-1.6,5.4-1.9
		c1.7-0.3,3.5-0.3,5.2-0.2c1.7,0.1,3.4,0.4,5.1,0.8c0.8,0.2,1.6,0.5,2.4,0.8c0.8,0.3,1.6,0.6,2.4,1c3.1,1.5,5.8,3.6,8.1,6
		C153.9,73.4,157.2,79.1,158.8,85.2z"/>
	<path class="st1" d="M147.4,123.7c-1.1,0.8-2.4,1.3-3.8,1.7c-1.3,0.4-2.7,0.6-4.1,0.7c-1.4,0.1-2.8,0.1-4.2-0.1l-2-0.2
		c-0.6-0.1-1.3-0.1-1.9-0.2c-2.5-0.2-5-0.2-7,0.4c-2.1,0.6-3.6,1.7-4.7,3.3l0.4-2.5c0.2,0.5,0.5,1.2,0.9,1.8
		c0.3,0.6,0.7,1.2,1.1,1.8c0.8,1.2,1.7,2.3,2.8,3.2c2.1,1.9,4.5,3.3,7.3,4.2l2.1,0.5c0.7,0.2,1.5,0.2,2.2,0.3l1.1,0.1
		c0.4,0,0.8,0,1.2,0l2.3,0c1.6-0.1,3.2-0.3,4.8-0.5c1.6-0.3,3.2-0.6,4.9-0.9c-1.4,0.9-2.9,1.7-4.4,2.5c-0.8,0.3-1.6,0.6-2.4,1
		c-0.8,0.3-1.6,0.7-2.4,0.9l-2.5,0.6c-0.4,0.1-0.9,0.2-1.3,0.3l-1.3,0.1c-0.9,0-1.8,0.2-2.7,0.1l-2.7-0.3c-3.6-0.6-7.2-2.2-10-4.6
		c-1.5-1.2-2.7-2.6-3.8-4.1c-0.5-0.8-1-1.5-1.5-2.4c-0.5-0.8-0.8-1.6-1.2-2.7c-0.3-0.9-0.2-1.8,0.3-2.5l0,0c1-1.3,2.2-2.6,3.7-3.5
		c1.5-0.9,3.1-1.5,4.6-1.7c3.2-0.5,6.1-0.1,8.8,0.5c0.7,0.2,1.4,0.3,2,0.6l1.9,0.6c1.2,0.4,2.4,0.7,3.7,0.9
		C142.2,123.9,144.8,124.1,147.4,123.7z"/>
	<path class="st1" d="M78.2,103.1c-0.8-0.4-1.5-1.1-1.8-2.1c-0.3-0.9-0.4-1.9-0.3-2.9c0.1-0.9,0.3-1.9,0.5-2.7
		c0.3-0.8,0.5-1.6,0.8-2.4c0.6-1.6,1.4-3.2,2.5-4.7c1-1.5,2.4-2.9,4.1-4.1c0.9-0.5,1.8-1,2.9-1.3c1-0.3,2.1-0.4,3.1-0.4
		c2.1,0,4,0.6,5.7,1.5c3.3,1.7,5.7,4.3,7.5,7.2c-3.3-1.1-6.2-2.4-9.1-3c-1.4-0.3-2.7-0.4-3.9-0.2c-0.6,0.1-1.2,0.2-1.7,0.4
		c-0.5,0.2-1,0.4-1.5,0.7c-2,1.3-3.9,3.6-5.7,6.1L80,97c-0.4,0.6-0.9,1.2-1.2,1.8C78.1,100.1,77.5,101.4,78.2,103.1z"/>
	<path class="st1" d="M142.1,169c-0.6,0.4-1.2,0.9-1.8,1.3l-0.9,0.6l-0.5,0.3l-0.6,0.3c-1.6,0.9-3.3,1.3-5,1.5
		c-1.7,0.2-3.4,0.1-5-0.2c-3.2-0.6-6.1-1.7-8.7-3.2c-2.7-1.5-5.1-3.2-7.3-5.2c-1.1-1-2.1-2.1-3.1-3.4c-0.5-0.6-0.9-1.3-1.3-2.1
		c-0.2-0.4-0.4-0.9-0.5-1.3l-0.1-0.7c0-0.3,0-0.5,0-0.8c0-1,0.4-2,1-2.7c0.6-0.7,1.3-1.2,2-1.5c1.4-0.7,2.9-1,4.3-1.1
		c-0.6,0.3-1.2,0.7-1.8,1.1c-0.6,0.4-1.1,0.8-1.6,1.3c-0.9,0.9-1.4,2-1.1,2.8c0,0.1,0.1,0.2,0.1,0.3l0.2,0.3
		c0.1,0.2,0.2,0.4,0.4,0.6c0.3,0.4,0.8,0.9,1.3,1.3c1,0.8,2,1.6,3.1,2.4c2.2,1.5,4.5,2.8,6.9,3.9c2.4,1.1,4.8,2,7.3,2.3
		c2.4,0.4,4.7,0.3,6.6-0.5l0.4-0.2l0.4-0.2l0.9-0.5l1.8-1c1.2-0.7,2.3-1.4,3.5-2.1c2.4-1.4,4.7-3.1,7.5-4.3c2.7-1.3,5.6-2,8.5-2.1
		c-2.6,1.4-5,2.8-7,4.5"/>
	<path class="st1" d="M100.8,145c-1.3,1.9-2.9,3.6-4.7,5c-1.8,1.5-3.8,2.7-5.9,3.7c-2.1,1-4.5,1.7-6.9,2.1c-2.4,0.3-5,0.3-7.5-0.3
		l-0.1,0c-1.5-0.3-2.4-1.8-2.1-3.3c0.1-0.4,0.3-0.8,0.6-1.2c0.4-0.4,0.8-1,1.2-1.6l1.2-1.7c0.8-1.2,1.5-2.3,2.1-3.6
		c0.6-1.2,1.1-2.5,1.4-3.8c0.2-1.3,0.2-2.7-0.4-4.3c1.3,0.9,2.4,2.4,2.8,4.1c0.5,1.7,0.3,3.5,0,5.2c-0.3,1.7-0.8,3.3-1.5,4.8
		c-0.3,0.8-0.7,1.5-1.1,2.2c-0.4,0.7-0.8,1.4-1.4,2.1L77,150c1.8,0.2,3.7,0.3,5.6,0.1c1.9-0.2,3.9-0.6,5.9-1.1
		C92.5,148,96.5,146.5,100.8,145z"/>
</g>
<path class="st0" d="M281.4,183.5"/>
</svg>
