<?xml version="1.0" encoding="utf-8"?>
<!-- Generator: Adobe Illustrator 25.2.1, SVG Export Plug-In . SVG Version: 6.00 Build 0)  -->
<svg version="1.1" id="Layer_1" xmlns="http://www.w3.org/2000/svg" xmlns:xlink="http://www.w3.org/1999/xlink" x="0px" y="0px"
	 viewBox="0 0 450 450" style="enable-background:new 0 0 450 450;" xml:space="preserve">
<style type="text/css">
	.st0{fill:#ED5A35;}
	.st1{fill:#203232;}
</style>
<path class="st0" d="M338.6,149.8l-0.9-0.9c-13-12.5-30.2-19.4-48.5-19.4s-35.5,6.9-48.5,19.4l-1.6,1.5l-1.6-1.5
	c-13-12.5-30.2-19.4-48.5-19.4c-18.3,0-35.5,6.9-48.5,19.4l-0.9,0.9c-13,12.5-20.1,29.1-20.1,46.7c-0.5,3.6-0.4,7,0.1,10.3l31.6,7.3
	l23.5-56.3l22.6,87l9.2-29.1l119.8-14.5l-103.7,27.6l-32.2,40.4l-16-88l-13.1,48.5l-39-12.4c4.5,12.2,12.6,20.6,12.6,20.6
	c1.2,1.4,2.5,2.8,3.8,4.1L252.8,323l85.8-79.8c13-12.5,20.1-29.1,20.1-46.7C358.7,178.8,351.5,162.2,338.6,149.8z"/>
<g>
	<path class="st1" d="M239.2,353.1L124.1,237.9c-1.9-1.9-3.8-4-5.6-6.2l0,0c1.4,1.7,2.9,3.3,4.4,4.9l116.3,93.3l103.6-103.6
		c11.9-11.9,18.5-27.7,18.5-44.5s-6.6-32.6-18.5-44.5l-1.1-1.1c-11.9-11.9-27.7-18.4-44.5-18.4c-16.8,0-32.7,6.6-44.6,18.5
		l-13.4,13.4l-13.4-13.5c-11.9-11.9-27.7-18.5-44.5-18.5c-16.8,0-32.7,6.6-44.6,18.5l-1.1,1.1c-11.9,11.9-18.4,27.7-18.4,44.5h-16.4
		c0-21.2,8.3-41.1,23.2-56.1l1.1-1.1c15-15,34.9-23.3,56.1-23.3c21.2,0,41.1,8.3,56.1,23.3l1.8,1.8l1.8-1.8
		c15-15,34.9-23.3,56.1-23.3s41.1,8.3,56.1,23.3l1.1,1.1c15,15,23.2,34.9,23.2,56.1c0,21.2-8.3,41.1-23.3,56.1L239.2,353.1z"/>
	<polygon class="st1" points="192.9,261.3 174.9,157.7 160.4,220.1 71.4,202.3 71.4,202.3 148.7,202.3 174.7,140.8 197.3,227.8 
		206.5,198.7 349.4,198.7 349.4,198.7 217.1,216.5 	"/>
</g>
</svg>
