<?xml version="1.0" encoding="utf-8"?>
<!-- Generator: Adobe Illustrator 25.2.1, SVG Export Plug-In . SVG Version: 6.00 Build 0)  -->
<svg version="1.1" id="Layer_3" xmlns="http://www.w3.org/2000/svg" xmlns:xlink="http://www.w3.org/1999/xlink" x="0px" y="0px"
	 viewBox="0 0 216 216" style="enable-background:new 0 0 216 216;" xml:space="preserve">
<style type="text/css">
	.st0{fill:#F04C24;}
	.st1{fill:#203232;}
</style>
<polyline class="st0" points="154.5,79.8 156.2,134.7 59,134.3 61,89.6 "/>
<g>
	<path class="st1" d="M166.7,140.1h-5.5V68.8c0-0.6-0.5-1.1-1.1-1.1H55.3c-0.6,0-1.1,0.5-1.1,1.1v71.3h-5.5V68.8
		c0-3.6,2.9-6.6,6.6-6.6h104.8c3.6,0,6.6,2.9,6.6,6.6V140.1z"/>
	<path class="st1" d="M172,153.2H43.4c-4.5,0-9.8-3.9-10.4-4.3l-1.1-0.8v-11h151.5v11l-1.1,0.8C181.8,149.3,176.5,153.2,172,153.2z
		 M37.4,145.3c1.8,1.2,4.4,2.5,6,2.5H172c1.7,0,4.3-1.4,6-2.5v-2.7H37.4V145.3z"/>
	<g>
		<g>
			<rect x="79.2" y="82" class="st1" width="12.2" height="5.5"/>
			<rect x="107.3" y="82" class="st1" width="24.9" height="5.5"/>
			<rect x="96.3" y="82" class="st1" width="5.7" height="5.5"/>
			<rect x="83.3" y="104" class="st1" width="9.9" height="5.5"/>
			<rect x="111.8" y="104" class="st1" width="20.4" height="5.5"/>
			<rect x="98" y="104" class="st1" width="8.6" height="5.5"/>
			<rect x="134.3" y="126" class="st1" width="10.7" height="5.5"/>
			<rect x="98" y="126" class="st1" width="30.4" height="5.5"/>
			<rect x="137.6" y="104" class="st1" width="7.4" height="5.5"/>
			<rect x="88.5" y="115" class="st1" width="4.7" height="5.5"/>
			<rect x="98" y="115" class="st1" width="30.9" height="5.5"/>
			<rect x="137.4" y="82" class="st1" width="5.7" height="5.5"/>
			<rect x="79.2" y="93" class="st1" width="49.1" height="5.5"/>
			<rect x="68.9" y="82" class="st1" width="5.1" height="5.5"/>
			<rect x="68.9" y="93" class="st1" width="5.1" height="5.5"/>
			<rect x="68.9" y="104" class="st1" width="5.1" height="5.5"/>
			<rect x="68.9" y="115" class="st1" width="5.1" height="5.5"/>
			<rect x="68.9" y="126" class="st1" width="5.1" height="5.5"/>
		</g>
	</g>
	<polygon class="st1" points="156.2,134.7 156.2,134.7 151.3,77.2 64.1,77.2 59,134.3 59,134.3 59.9,73.2 155.5,73.3 	"/>
</g>
</svg>
