<?xml version="1.0" encoding="utf-8"?>
<!-- Generator: Adobe Illustrator 25.2.1, SVG Export Plug-In . SVG Version: 6.00 Build 0)  -->
<svg version="1.1" id="Layer_1" xmlns="http://www.w3.org/2000/svg" xmlns:xlink="http://www.w3.org/1999/xlink" x="0px" y="0px"
	 viewBox="0 0 450 450" style="enable-background:new 0 0 450 450;" xml:space="preserve">
<style type="text/css">
	.st0{clip-path:url(#SVGID_2_);}
	.st1{fill:#7D4495;}
	.st2{clip-path:url(#SVGID_4_);}
	.st3{clip-path:url(#SVGID_6_);}
	.st4{fill:#203231;stroke:#203231;stroke-miterlimit:10;}
	.st5{clip-path:url(#SVGID_8_);}
</style>
<g>
	<g>
		<defs>
			<path id="SVGID_1_" d="M192.3,245.1c2.7,6.6,6.4,14.6,11.8,20c21.5,21.5,49.6,15.3,71.1-6.2l56.3-56.4
				c27.1-32.4,20.2-51.4,3.9-66.6c-14.8-13.8-37.4-26.1-64.9-8.9l-66.1,58.2c-5.6,5.6-9.6,12-12.3,18.9c12.9-5,27.4-5,40.3,0
				l50.2-50.2c8.5-8.5,32.6-13.1,41.1-4.6c8.5,8.5,1.6,29.3-6.9,37.7l-53.3,57.2c-8.5,8.5-27.1,4.1-35.5-4.4c0,0,0,0,0,0
				c-8.5-8.5-22.8-8.5-31.3,0l-4.5,4.5L192.3,245.1z"/>
		</defs>
		<use xlink:href="#SVGID_1_"  style="overflow:visible;fill:#ED5A36;"/>
		<clipPath id="SVGID_2_">
			<use xlink:href="#SVGID_1_"  style="overflow:visible;"/>
		</clipPath>
		<g class="st0">
			<path class="st1" d="M227.8,239.8c-8.5-8.5-8.5-22.8,0-31.3l54.7-54.7c8.5-8.5,22.8-8.5,31.3,0s8.5,22.8,0,31.3L259,239.8
				C250.6,248.3,236.2,248.3,227.8,239.8z"/>
		</g>
	</g>
	<g>
		<defs>
			<path id="SVGID_3_" d="M251,281.8c-32.3,6.2-13.1,1.3-26-3.8l-49.3,54.3c-8.5,8.5-29.8,5.2-38.3-3.3c-8.5-8.5-4.2-26.1,4.3-34.6
				l54.7-54.7c8.5-8.5,22.8-8.5,31.3,0l0,0c8.5,8.5,23.7,14.8,32.2,6.3l3.2-3.9c-2.7-6.9-10.3-17.8-16.2-23
				c-23.3-20.9-51.1-25.2-73.9-2.8L124,267c-21.5,21.5-22,55.9-0.5,77.4c21.5,21.5,49.7,16.2,65.3-0.3"/>
		</defs>
		<use xlink:href="#SVGID_3_"  style="overflow:visible;fill:#ED5A36;"/>
		<clipPath id="SVGID_4_">
			<use xlink:href="#SVGID_3_"  style="overflow:visible;"/>
		</clipPath>
		<g class="st2">
			<path class="st1" d="M141.8,325.8c-8.5-8.5-8.5-22.8,0-31.3l54.7-54.7c8.5-8.5,22.8-8.5,31.3,0c8.5,8.5,8.5,22.8,0,31.3
				L173,325.8C164.6,334.3,150.2,334.3,141.8,325.8z"/>
		</g>
		<g class="st2">
			<path class="st1" d="M422,45.6L422,45.6c21.5,21.5,21.5,56.7,0,78.2l-54.7,54.7c-21.5,21.5-56.7,21.5-78.2,0l0,0
				c-21.5-21.5-21.5-56.7,0-78.2l54.7-54.7C365.3,24.1,400.5,24.1,422,45.6z"/>
			<path class="st1" d="M398.5,69.1c8.5,8.5,8.5,22.8,0,31.3l-54.7,54.7c-8.5,8.5-22.8,8.5-31.3,0c-8.5-8.5-8.5-22.8,0-31.3
				l54.7-54.7C375.7,60.6,390,60.6,398.5,69.1z"/>
		</g>
	</g>
</g>
<g>
	<g>
		<defs>
			<path id="SVGID_5_" d="M247.8,286.6c-16.6,0-32.2-6.4-43.9-18.1c-5.9-5.9-10.4-12.8-13.5-20.4l-0.3-0.9l-0.7-2l6.3-6.3
				c10.3-10.3,27.6-10.3,37.9,0l0.2,0.2c7.8,7.6,24,11.2,31.7,3.5l54.9-61.9c7.7-7.7,7.7-20.8,0-28.6c-7.8-7.7-20.8-7.7-28.6,0
				l-59.1,50.3l2.5,0.7c-13-5.1-27.6-4.1-40.7,0.9l-7.1,4.9l2.7-7c3.1-8.1,7.8-15.2,13.9-21.3l58.2-58.2
				c11.7-11.7,27.3-18.1,43.9-18.1c16.6,0,31.2,8.8,42.9,20.5c11.7,11.7,19.2,24.9,19.2,41.5s-7.6,30-19.3,41.7l-57,60.5
				C280,280.2,264.4,286.6,247.8,286.6z M194.8,246.7c-0.3,6,7.5,15.7,14,20.9c11.6,9.2,24.3,13.4,39.1,13.4
				c14.9,0,25.4-4.7,37.4-14.2l60.9-65.4c9.8-12,13.7-20.6,13.7-35.5s-8.6-26.3-19-36.8c-10.4-10.4-19.4-15-34.3-15
				c-14.9,0-28.9,6.1-39.3,16.5l-59.7,52.8c-8,7-11.4,11.1-13.9,15.7c11.8-3,29.6-4,41.2,0l51.9-51.9c10.3-10.3,27.7-10.3,37.9,0
				c10.3,10.3,10.3,27.7,0,37.9l-58.2,58.2c-10.3,10.3-27.7,10.3-37.9,0l-0.2-0.2c-7.8-7.6-17.4-8.3-28.9-1.9L194.8,246.7z"/>
		</defs>
		<use xlink:href="#SVGID_5_"  style="overflow:visible;fill:#203231;"/>
		<clipPath id="SVGID_6_">
			<use xlink:href="#SVGID_5_"  style="overflow:visible;"/>
		</clipPath>
		<g class="st3">
			<g>
				<path class="st4" d="M206,266.4c-7.9-7.9-13.4-18.1-15.8-29.1c-2.5-10.9-1.9-22.5,1.8-33.2c1.8-5.3,4.4-10.4,7.7-15
					c1.7-2.3,3.4-4.5,5.4-6.5c1.9-2,3.9-4,5.8-6l23.3-23.9l23.4-23.8l5.9-5.9c2-2,4.2-3.9,6.5-5.6c4.6-3.4,9.7-6.2,15.1-8.2
					c10.8-4,22.8-4.9,34.1-2.5c11.3,2.4,22,8.1,30.2,16.2c8.3,8.1,14.2,18.7,16.8,30.1c2.6,11.4,2,23.5-1.9,34.6
					c-2,5.5-4.7,10.8-8.2,15.5c-1.8,2.4-3.6,4.6-5.7,6.7c-2,2-3.9,4-5.9,6c-7.9,7.9-15.8,15.7-23.7,23.5l-12,11.6l-12,11.6
					c-2,1.9-4,3.8-6.1,5.7c-2.1,2-4.4,3.8-6.8,5.4c-4.8,3.3-10,5.9-15.4,7.7c-10.9,3.6-22.7,4-33.6,1.3
					C224,280.1,213.8,274.4,206,266.4z M206.4,265.9c4,3.8,8.4,7.2,13.3,9.7c2.4,1.3,5,2.4,7.6,3.3c1.3,0.5,2.6,0.8,3.9,1.2
					c1.3,0.3,2.7,0.7,4,0.9c10.8,2.1,22,1,32.1-3c5-2,9.7-4.7,13.9-8c2.1-1.7,4.1-3.4,5.9-5.4l5.7-6l11.6-12l11.6-12
					c7.8-7.9,15.6-15.8,23.5-23.7l5.9-5.9c1.9-1.9,3.5-3.9,5.1-5.9c3.1-4.2,5.6-8.9,7.5-13.8c3.7-9.8,4.5-20.8,2.4-31.1
					c-2.1-10.4-7.3-20.1-14.8-27.6c-7.5-7.6-17.1-13-27.5-15.3c-10.4-2.4-21.5-1.7-31.6,1.8c-5.1,1.8-9.8,4.3-14.2,7.4
					c-2.2,1.6-4.2,3.3-6.2,5.2l-5.9,5.8L236.5,155l-23.9,23.3l-6,5.8c-2,1.9-3.7,4-5.4,6.1c-3.3,4.4-6,9.2-7.9,14.3
					c-3.9,10.3-4.8,21.7-2.5,32.5c0.3,1.4,0.7,2.7,1,4c0.4,1.3,0.8,2.6,1.3,3.9c0.9,2.6,2.1,5.1,3.4,7.5
					C199.1,257.5,202.5,262,206.4,265.9z"/>
			</g>
			<g>
				<path class="st4" d="M230.9,241.4c-4.7-4.7-7-11.4-6.8-18c0.1-3.3,0.9-6.6,2.3-9.6c0.2-0.4,0.3-0.8,0.6-1.1l0.6-1.1
					c0.4-0.7,0.9-1.4,1.4-2.1c0.5-0.7,1.1-1.3,1.6-1.9c0.6-0.6,1.1-1.2,1.7-1.8c8.9-9.4,17.8-18.9,26.9-28.3l27.2-27.9
					c0.6-0.6,1.1-1.2,1.7-1.8c0.7-0.6,1.3-1.2,2-1.8c1.4-1.1,2.9-2.1,4.5-2.9c3.2-1.6,6.7-2.5,10.3-2.7c7.1-0.4,14.5,2.1,19.7,7.2
					c5.2,5.1,8,12.5,7.8,19.7c-0.1,3.6-0.9,7.3-2.5,10.6c-0.8,1.7-1.7,3.3-2.9,4.7c-0.5,0.7-1.2,1.4-1.8,2.1
					c-0.6,0.7-1.1,1.2-1.7,1.8c-9,9.3-18.2,18.5-27.6,27.6c-9.3,9.1-19,17.8-28.7,26.5c-0.6,0.5-1.2,1.1-1.8,1.6
					c-0.7,0.5-1.3,1.1-2,1.6c-0.7,0.5-1.4,1-2.2,1.4l-1.1,0.6c-0.4,0.2-0.8,0.4-1.2,0.5c-3.1,1.4-6.5,2-9.9,2
					C242.2,248.8,235.5,246.2,230.9,241.4z M231.4,241c2.3,2.2,5.1,3.9,8.1,5c3,1,6.2,1.4,9.3,1.2c3.1-0.3,6.2-1.2,8.9-2.7
					c1.4-0.7,2.6-1.6,3.7-2.6c0.6-0.5,1.1-1.1,1.6-1.6c0.5-0.6,1.1-1.2,1.6-1.8c8.7-9.7,17.4-19.3,26.5-28.7
					c9.1-9.3,18.3-18.5,27.6-27.6c0.6-0.6,1.2-1.1,1.7-1.7c0.5-0.5,1-1,1.4-1.5c0.9-1.1,1.7-2.3,2.3-3.5c1.3-2.5,2-5.3,2.2-8.2
					c0.4-5.7-1.6-11.6-5.7-15.7c-4-4.1-9.9-6.4-15.7-6.2c-2.9,0.1-5.8,0.8-8.5,2c-1.3,0.6-2.6,1.4-3.8,2.3c-0.6,0.4-1.1,1-1.7,1.4
					c-0.6,0.5-1.2,1.1-1.7,1.7L261.4,180c-9.3,9.1-18.8,18-28.3,26.9c-0.6,0.6-1.2,1.1-1.7,1.7c-0.5,0.6-1.1,1.1-1.6,1.7
					c-1,1.2-1.9,2.6-2.6,4c-1.4,2.8-2.3,6-2.5,9.2c-0.2,3.2,0.3,6.4,1.4,9.4C227.3,235.9,229.1,238.7,231.4,241z"/>
			</g>
		</g>
		<use xlink:href="#SVGID_5_"  style="overflow:visible;fill:none;stroke:#203231;stroke-miterlimit:10;"/>
	</g>
	<g>
		<defs>
			<path id="SVGID_7_" d="M156.3,378.1c-16.6,0-32.2-6.4-43.9-18.1c-11.7-11.7-18.1-27.3-18.1-43.9c0-16.6,6.4-32.2,18.1-43.9
				l58.2-58.2c11.7-11.7,27.3-18.1,43.9-18.1s32.2,6.4,43.9,18.1c6.1,6.1,10.7,13.2,13.9,21.3l0.8,2l-6.3,6.3
				c-10.3,10.3-25.6,8.2-35.8-2.1l-2.1,0.8c-3.7-3.7-8.3-5.7-13.7-5.7c0,0,1.2-2.6,1.2-2.6c-5.5,0-12.2,1.3-15.9,5L142,301.7
				c-3.7,3.7-5.8,8.8-5.8,14.3c0,5.5,3.7,11.2,7.5,14.9c7.7,7.7,21.8,6.7,29.5-1l51.9-49.9l1-1.5c13,5.1,26.8,5.8,39.9,0.7l9.1-3.9
				l-2.7,5.2c-3.1,8.1-7.8,15.2-13.9,21.3l-58.2,58.2C188.5,371.6,172.9,378.1,156.3,378.1z M212.5,201.4
				c-14.9,0-26.7,6.8-37.2,17.2L120,277c-10.4,10.4-16.8,23.2-16.8,38c0,14.9,5.2,28.2,15.6,38.7c10.4,10.4,24.1,17,39,17
				s27.9-6.3,38.3-16.7l61.5-58.6c3.7-3.7,7.5-7.4,10-11.9c-11.8,3-28.8,1.6-40.4-2.4l-51.8,54c-10.3,10.3-27.7,10.3-37.9,0
				c-5-5-7.7-11.7-7.7-19c0-7.2,2.7-14,7.7-19l58.2-58.2c5-5,11.7-7.7,19-7.7c0,0,0,0,0,0c7.2,0,14,2.7,19,7.7l0.1,0.1
				c7.8,7.7,20.1,10.4,29.6,3.3l8-6.8c-2.9-7.3-9.5-14.1-14.9-19.9C246.2,204.8,227.3,201.4,212.5,201.4z"/>
		</defs>
		<use xlink:href="#SVGID_7_"  style="overflow:visible;fill:#203231;"/>
		<clipPath id="SVGID_8_">
			<use xlink:href="#SVGID_7_"  style="overflow:visible;"/>
		</clipPath>
		<g class="st5">
			<g>
				<path class="st4" d="M114.5,357.8c-7.9-7.9-13.4-18.1-15.8-29.1c-2.5-10.9-1.9-22.5,1.8-33.2c1.8-5.3,4.4-10.4,7.7-15
					c1.7-2.3,3.4-4.5,5.4-6.5c1.9-2,3.9-4,5.8-6l23.3-23.9l23.4-23.8l5.9-5.9c2-2,4.2-3.9,6.5-5.6c4.6-3.4,9.7-6.2,15.1-8.2
					c10.8-4,22.8-4.9,34.1-2.5c11.3,2.4,22,8.1,30.2,16.2c8.3,8.1,14.2,18.7,16.8,30.1c2.6,11.4,2,23.5-1.9,34.6
					c-2,5.5-4.7,10.8-8.2,15.5c-1.8,2.4-3.6,4.6-5.7,6.7c-2,2-3.9,4-5.9,6c-7.9,7.9-15.8,15.7-23.7,23.5l-12,11.6l-12,11.6
					c-2,1.9-4,3.8-6.1,5.7c-2.1,2-4.4,3.8-6.8,5.4c-4.8,3.3-10,5.9-15.4,7.7c-10.9,3.6-22.7,4-33.6,1.3
					C132.5,371.5,122.3,365.8,114.5,357.8z M115,357.4c4,3.8,8.4,7.2,13.3,9.7c2.4,1.3,5,2.4,7.6,3.3c1.3,0.5,2.6,0.8,3.9,1.2
					c1.3,0.3,2.7,0.7,4,0.9c10.8,2.1,22,1,32.1-3c5-2,9.7-4.7,13.9-8c2.1-1.7,4.1-3.4,5.9-5.4l5.7-6l11.6-12l11.6-12
					c7.8-7.9,15.6-15.8,23.5-23.7l5.9-5.9c1.9-1.9,3.5-3.9,5.1-5.9c3.1-4.2,5.6-8.9,7.5-13.8c3.7-9.8,4.5-20.8,2.4-31.1
					c-2.1-10.4-7.3-20.1-14.8-27.6c-7.5-7.6-17.1-13-27.5-15.3c-10.4-2.4-21.5-1.7-31.6,1.8c-5.1,1.8-9.8,4.3-14.2,7.4
					c-2.2,1.6-4.2,3.3-6.2,5.2l-5.9,5.8L145,246.5l-23.9,23.3l-6,5.8c-2,1.9-3.7,4-5.4,6.1c-3.3,4.4-6,9.2-7.9,14.3
					c-3.9,10.3-4.8,21.7-2.5,32.5c0.3,1.4,0.7,2.7,1,4c0.4,1.3,0.8,2.6,1.3,3.9c0.9,2.6,2.1,5.1,3.4,7.5
					C107.7,349,111.1,353.4,115,357.4z"/>
			</g>
			<g>
				<path class="st4" d="M139.4,332.9c-4.7-4.7-7.1-11.4-6.8-18c0.1-3.3,0.9-6.6,2.3-9.6c0.2-0.4,0.3-0.8,0.6-1.1l0.6-1.1
					c0.4-0.7,0.9-1.4,1.4-2.1c0.5-0.7,1.1-1.3,1.6-1.9c0.6-0.6,1.1-1.2,1.7-1.8c8.9-9.4,17.8-18.9,26.9-28.3l27.2-27.9
					c0.6-0.6,1.1-1.2,1.7-1.8c0.7-0.6,1.3-1.2,2-1.8c1.4-1.1,2.9-2.1,4.5-2.9c3.2-1.6,6.7-2.5,10.3-2.7c7.1-0.4,14.5,2.1,19.7,7.2
					c5.2,5.1,8,12.5,7.8,19.7c-0.1,3.6-0.9,7.3-2.5,10.6c-0.8,1.7-1.7,3.3-2.9,4.7c-0.5,0.7-1.2,1.4-1.8,2.1
					c-0.6,0.7-1.1,1.2-1.7,1.8c-9,9.3-18.2,18.5-27.6,27.6c-9.3,9.1-19,17.8-28.7,26.5c-0.6,0.5-1.2,1.1-1.8,1.6
					c-0.7,0.5-1.3,1.1-2,1.6c-0.7,0.5-1.4,1-2.2,1.4l-1.1,0.6c-0.4,0.2-0.8,0.4-1.2,0.5c-3.1,1.4-6.5,2-9.9,2
					C150.7,340.3,144.1,337.6,139.4,332.9z M139.9,332.4c2.3,2.2,5.1,3.9,8.1,5c3,1,6.2,1.4,9.3,1.2c3.1-0.3,6.2-1.2,8.9-2.7
					c1.4-0.7,2.6-1.6,3.7-2.6c0.6-0.5,1.1-1.1,1.6-1.6c0.5-0.6,1.1-1.2,1.6-1.8c8.7-9.7,17.4-19.3,26.5-28.7
					c9.1-9.3,18.3-18.5,27.6-27.6c0.6-0.6,1.2-1.1,1.7-1.7c0.5-0.5,1-1,1.4-1.5c0.9-1.1,1.7-2.3,2.3-3.5c1.3-2.5,2-5.3,2.2-8.2
					c0.4-5.7-1.6-11.6-5.7-15.7c-4-4.1-9.9-6.4-15.7-6.2c-2.9,0.1-5.8,0.8-8.5,2c-1.3,0.6-2.6,1.4-3.8,2.3c-0.6,0.4-1.1,1-1.7,1.4
					c-0.6,0.5-1.2,1.1-1.7,1.7L170,271.5c-9.3,9.1-18.8,18-28.3,26.9c-0.6,0.6-1.2,1.1-1.7,1.7c-0.5,0.6-1.1,1.1-1.6,1.7
					c-1,1.2-1.9,2.6-2.6,4c-1.4,2.8-2.3,6-2.5,9.2c-0.2,3.2,0.3,6.4,1.4,9.4C135.9,327.4,137.6,330.2,139.9,332.4z"/>
			</g>
		</g>
		<use xlink:href="#SVGID_7_"  style="overflow:visible;fill:none;stroke:#203231;stroke-miterlimit:10;"/>
	</g>
</g>
<g>
	<polygon class="st4" points="102.4,187.9 102.4,208 165.4,198 	"/>
	<polygon class="st4" points="137.7,125.2 123.5,139.4 175.1,176.8 	"/>
	<polygon class="st4" points="206.1,104.3 186,104.3 196.1,167.3 	"/>
</g>
<g>
	<polygon class="st4" points="368.8,287.1 368.8,267 305.8,277 	"/>
	<polygon class="st4" points="333.5,349.8 347.7,335.6 296.1,298.2 	"/>
	<polygon class="st4" points="265.1,370.7 285.2,370.7 275.2,307.7 	"/>
</g>
</svg>
