<?xml version="1.0" encoding="utf-8"?>
<!-- Generator: Adobe Illustrator 25.2.1, SVG Export Plug-In . SVG Version: 6.00 Build 0)  -->
<svg version="1.1" id="Layer_1" xmlns="http://www.w3.org/2000/svg" xmlns:xlink="http://www.w3.org/1999/xlink" x="0px" y="0px"
	 viewBox="0 0 216 216" style="enable-background:new 0 0 216 216;" xml:space="preserve">
<style type="text/css">
	.st0{fill:#F04C24;}
	.st1{fill:#203232;}
</style>
<g>
	<path class="st0" d="M100.5,88.5c0,0,1.9-9.5,4.3-11.5c3.4-2.9,8.5-3.1,13-3.3c4.7-0.2,11.8,0.2,15.3,0c7.6-0.4,10.6-8.5,10.6-8.5
		s2,2.4,4.3,2.3c6.7-0.2,10.8,5.1,8.4,8.9c-2.8,4.3-0.5,3.5-2.3,3.9c-7.5,1.3-9.8,0.9-19.3,1.2c-9.5,0.2-11.4,0.1-14.8,0.6
		c-3.3,0.5-8,1.5-8.7,1.6c-0.7,0.1-6.6,3-6.6,3L100.5,88.5z"/>
	<path class="st0" d="M79.6,75.8c0,0,2.4-18.1,10.4-20.6c8.7-2.7,9.7-0.3,9.7-0.3s0.2-0.7,3.7-0.7c3.1-0.1,4,2.7,7.2,2.7
		c3.2,0,3.6-3.5,7.7-3.5c4.5,0,3.6,2.6,6.1,3c2.5,0.3,5.2-1,7.9-0.6c3,0.4,4.4,3,4.8,4.7c0.5,2.3,0,3.8-1.2,5.1
		c-1.2,1.3-1.3,3.6-4.3,4.2c-2.9,0.6-23.2,0-24.9,0c-1.8,0-4.2,0.6-7.4,0.8c-3.2,0.1-2.5-0.4-5.8,0.2c-3.3,0.7-8.3,3-8.3,3l-5.5,3.4
		V75.8z"/>
	<polyline class="st1" points="131.6,126.6 131.6,119.6 124.4,119.6 	"/>
	<polyline class="st1" points="144.3,126.6 144.3,119.6 137.1,119.6 	"/>
	<path class="st1" d="M111.1,84.5c1.6-0.6,3.7-1,5.4-1.1c0.9,0,1.8-0.1,2.6-0.1h2.6l5.3,0l21.2,0c1.8,0,3.5,0.1,5.4-0.2
		c1.8-0.3,3.5-1.1,5-2.2c2.9-2.2,4.6-5.9,4.7-9.5c0.1-3.7-1.5-7.3-4.3-9.7c-2.7-2.3-6.6-3.2-10.1-2.3c-1-1-2.2-1.7-3.5-2.3l-0.7-0.3
		l0.1,0.8c0.2,1.6,0.2,3.2,0,4.7l0,0.2l0.2,0.2c0.3,0.2,0.6,0.5,0.9,0.8c0.3,0.3,0.5,0.7,1,0.9c0.8,0.6,2,0.5,2.8,0.1
		c1.4-0.6,3.1-0.6,4.5,0c2.9,1.2,4.6,4.6,4.1,7.7c-0.4,3.1-2.9,6.3-6.1,6.3l-10.2,0.5c-6.7,0.1-12.2,1.1-19.3,1.3
		c-6.4,0.2-16,3.5-21.4,7.2c0.3-1.4,1.7-5.9,2.4-7.3c0.7-1.5,0.6-1.4,2.3-3.8l0.9-0.8l0,0l-4.3-0.1l-0.1,0l0,0.1
		c-1.1,2.3-1.6,4.5-2.2,7.3c-0.5,2.5-0.6,5.1-0.9,7.6l7.2-4"/>
	<path class="st1" d="M68.2,81.1l-2.7,54.4l-3.4,1.6l-7,2.6h74l-10.7-3.5l-2.1-0.7l-2.4-38c-0.1-2.8-1.8-4.1-3.5-4.1l-13-1.3
		l12.2,5.5l0,0l0.6,10.1l-11.8-0.6l12.5,4.8h-0.5l1.5,23.5H97.7l-3-56.1 M72,84.8l18.6-1.2l0.5,13.1l-19.7,3L72,84.8z M70,135.7
		l1.8-33.3l19.4-2.9l2.2,35L70,135.7z"/>
	<polyline class="st1" points="119,111.9 133.1,116.1 149.1,116.1 149.1,135.5 126.5,135.4 126.5,132 122.3,137.5 120.5,161.1 
		61.7,162.7 53.1,165.3 168.1,164.8 160.4,162.6 124.4,161 125.3,139.7 157.4,139.7 154.8,137.1 153.3,135.5 153.3,111.9 	"/>
	<path class="st1" d="M137.1,50.3c-2.7-2.3-6.6-3.2-10-2.2c-2.4-2.2-5.6-3.5-8.8-3.4c-3.2,0-6.4,1.5-8.7,3.7
		c-2.1-0.8-4.3-0.9-6.5-0.4c-2.2,0.5-4.2,1.7-5.7,3.3c-3,0.3-6.1,1.1-8.8,2.6c-2.7,1.6-5,3.9-6.5,6.6c-1.5,2.7-2.3,5.8-2.8,8.8
		l-1.6,9.1l0,0.1l0.1,0c2.5-1.4,5.1-2.9,7.6-4.3c-0.9,0.5-1.8,1-2.7,1.4c1.1-0.6,2.2-1.2,2.7-1.4c1.6-0.7,3.2-1.4,4.9-1.9
		c1.7-0.5,3.4-0.7,5.2-0.7c3.5,0,7,0.2,10.5,0.2l21,0c1.7,0,3.5,0.1,5.3-0.2c1.8-0.4,3.4-1.2,4.8-2.4c2.8-2.3,4.4-5.9,4.4-9.5
		C141.6,56.2,139.9,52.6,137.1,50.3z M121.5,69.7 M95.3,69.7c-4.2,0-11.3,3.2-14.9,5.6c0.3-1.8,0.8-6.9,2.6-10.6
		c1.8-3.6,2.6-4.7,4.2-6.1c3.9-3.5,6.8-3,11-3.5c-0.4,0.1-0.2,0-0.6,0.1c0.7-0.1,0.6-0.1,0.7-0.1c0.1,0,0.2,0,0.3,0
		c-0.1,0-0.2,0-0.3,0c0.6,0,1.1,0.2,1.7,0c0.3-0.1,0.5-0.3,0.6-0.5c0.2-0.2,0.4-0.4,0.6-0.6c0.8-0.8,1.9-1.3,2.9-1.5
		c1.1-0.2,2.2-0.2,3.2,0.2c0.5,0.2,1,0.4,1.5,0.7c0.5,0.3,1.2,0.4,1.8,0.3c0.6-0.1,1.2-0.5,1.6-1c0.3-0.4,0.7-0.8,1.1-1.1
		c0.8-0.7,1.7-1.3,2.7-1.6c2-0.7,4.3-0.4,6.1,0.7c0.5,0.3,0.9,0.6,1.3,1c0.4,0.3,0.7,0.8,1.2,1.2c0.5,0.4,1.2,0.6,1.9,0.5
		c0.3,0,0.7-0.2,0.9-0.3c0.2-0.1,0.5-0.2,0.7-0.3c2-0.6,4.3,0.1,6,1.4c1.7,1.3,2.8,3.4,2.7,5.5c0,2.1-1.1,4.2-2.7,5.6
		c-0.8,0.7-1.6,3-3.5,3.5"/>
	<polygon class="st1" points="96.5,150.7 104.4,149.3 111.3,150.8 	"/>
	<polygon class="st1" points="134,154.9 141.8,152.9 148.8,155.6 	"/>
	<polygon class="st1" points="64.6,148.8 72,144.9 79.6,148.6 	"/>
	<polygon class="st1" points="83.2,158 88.4,155.2 93.7,157.8 	"/>
	<polygon class="st1" points="149.9,148.2 155.1,145.4 160.4,148 	"/>
</g>
</svg>
