<svg id="Layer_1" data-name="Layer 1" xmlns="http://www.w3.org/2000/svg" viewBox="0 0 250 250"><defs><style>.cls-1{fill:#f04c24;}.cls-2{fill:#231f20;}</style></defs><title>multi-hands-2c</title><path class="cls-1" d="M165.65,178.89V179a4.5,4.5,0,0,0,9-.53v-22a.92.92,0,0,1,1.81-.21s.43,2.21.69,3A5.47,5.47,0,0,0,183,162.7a4.57,4.57,0,0,0,3-1.92,4.63,4.63,0,0,0,.8-2.59,4.58,4.58,0,0,0-.09-.9l-2.47-12.5A22.77,22.77,0,0,0,177.92,133l-5.1-5.07a.24.24,0,0,1-.07-.16V110.15H147.47V127.8a.24.24,0,0,1-.07.16l-3.29,3.28a22.67,22.67,0,0,0-6.73,16.18v26.16a4.49,4.49,0,0,0,9,.54l0-.14v.07a.22.22,0,0,1,.22-.22.22.22,0,0,1,.23.22v4.45a4.49,4.49,0,0,0,8.95.54l0-.15.44,4.06a4.5,4.5,0,0,0,9,0Z"/><path class="cls-1" d="M78.84,75.17a.22.22,0,0,1-.22.22.22.22,0,0,1-.22-.22V64l0-.14a4.43,4.43,0,0,0-8.84.54V88.6a.91.91,0,0,1-1.79.22l-1.26-5.2a4.53,4.53,0,0,0-8.16-1.5,4.59,4.59,0,0,0-.79,2.59,5.47,5.47,0,0,0,.08.9l2.44,12.5a22.89,22.89,0,0,0,6.22,11.75l5,5.08a.23.23,0,0,1,.06.16v17.64h25V115.1a.24.24,0,0,1,.07-.16l3.25-3.28a22.82,22.82,0,0,0,6.65-16.18V69.32a4.44,4.44,0,0,0-8.85-.54v7.88a.22.22,0,0,1-.22.22.22.22,0,0,1-.22-.22V64.4a4.44,4.44,0,0,0-8.85-.54l0,.14V77a.22.22,0,1,1-.43,0V60a4.44,4.44,0,1,0-8.88,0Z"/><path class="cls-2" d="M177.09,111.09c-3.62,0-10.32-.09-16.81-.17-6-.08-11.72-.16-14.56-.16-6.2,0-16.21-4.9-20.13-9.62l-16.12-.59.22-5.75L127,96.19a2.49,2.49,0,0,1,2,1.18c2,3.32,11.35,8.39,16.7,8.39,2.87,0,8.58.08,14.63.16,6.47.08,13.16.17,16.74.17a2.6,2.6,0,0,0,2-.75,2.72,2.72,0,0,0,.63-1.8,2.29,2.29,0,0,0-2.25-2.46c-5.7,0-12.84-.19-12.91-.19a2.51,2.51,0,0,1-2.44-2.56,2.47,2.47,0,0,1,2.55-2.44c.11,0,10.63.21,17.46.21a2.85,2.85,0,0,0,3-2.93,2.43,2.43,0,0,0-.62-1.7,3,3,0,0,0-2.28-.77H165a2.5,2.5,0,0,1,0-5h23a2.31,2.31,0,0,0,2.56-2.39,2.65,2.65,0,0,0-.73-1.85,3.48,3.48,0,0,0-2.57-.9H164.76a2.5,2.5,0,0,1,0-5h17.11c.93,0,1.57-1.28,1.57-2.43a2.42,2.42,0,0,0-.55-1.62,2.86,2.86,0,0,0-2.16-.71L153.66,71h0a2.5,2.5,0,0,1-1.11-4.74c.05,0,4.38-2.18,9.1-5a2.82,2.82,0,0,0,1.61-2.42c0-.7-.84-2.62-3.32-1.91-4.63,1.32-19.55,6.9-23.21,9-3.3,1.86-7.42,9.24-9.12,11.54a2.51,2.51,0,0,1-1.85,1H109.37l-.33-6,14.23-.93c1.9-2.46,6.92-8.69,11-11,4.64-2.62,21.1-6.81,24.86-7.54,4-.78,7.59.89,8.8,4.05.9,2.35.47,6-3.72,8.5l-.64.38,17.16-.1a7.63,7.63,0,0,1,5.83,2.3,7.29,7.29,0,0,1,1.9,5,8.58,8.58,0,0,1-.37,2.46A8.13,8.13,0,0,1,193.4,78a7.6,7.6,0,0,1,2.14,5.34,7.3,7.3,0,0,1-5.83,7.22,7.71,7.71,0,0,1,.45,2.64,7.82,7.82,0,0,1-5.88,7.69,8,8,0,0,1,.47,2.68,7.69,7.69,0,0,1-1.91,5.15A7.47,7.47,0,0,1,177.09,111.09Z"/><path class="cls-2" d="M134.12,177.44c0-3.62.09-10.32.18-16.81.08-6,.15-11.72.15-14.56,0-6.2,4.91-16.21,9.63-20.13l.59-16.12,5.74.22L149,127.33a2.5,2.5,0,0,1-1.19,2c-3.31,2-8.39,11.35-8.39,16.7,0,2.87-.07,8.58-.15,14.63-.09,6.47-.18,13.16-.18,16.74a2.57,2.57,0,0,0,.76,2,2.67,2.67,0,0,0,1.79.63,2.29,2.29,0,0,0,2.46-2.25c0-5.71.19-12.85.2-12.92a2.5,2.5,0,0,1,2.56-2.43,2.47,2.47,0,0,1,2.44,2.55c0,.11-.22,10.63-.22,17.46a2.86,2.86,0,0,0,2.94,3,2.45,2.45,0,0,0,1.7-.62,3,3,0,0,0,.77-2.28V165.32a2.5,2.5,0,0,1,5,0v23a2.31,2.31,0,0,0,2.39,2.56,2.67,2.67,0,0,0,1.85-.73,3.48,3.48,0,0,0,.9-2.57V165.11a2.5,2.5,0,0,1,5,0v17.11c0,.93,1.28,1.57,2.42,1.57a2.36,2.36,0,0,0,1.62-.56,2.81,2.81,0,0,0,.71-2.16L174.25,154v0a2.5,2.5,0,0,1,4.74-1.11s2.18,4.38,5,9.1a2.85,2.85,0,0,0,2.42,1.61c.69,0,2.62-.84,1.91-3.32-1.33-4.63-6.9-19.55-9-23.22-1.86-3.29-9.23-7.41-11.53-9.11a2.45,2.45,0,0,1-1-1.85V109.71l6-.32.93,14.23c2.47,1.89,8.7,6.92,11,11,2.61,4.64,6.8,21.1,7.54,24.86.78,4-.89,7.59-4.05,8.8-2.36.9-6,.47-8.5-3.72l-.39-.65.1,17.17a7.63,7.63,0,0,1-2.3,5.83,7.34,7.34,0,0,1-5,1.9,8.63,8.63,0,0,1-2.46-.37,8.05,8.05,0,0,1-2.37,5.32,7.58,7.58,0,0,1-5.34,2.15,7.28,7.28,0,0,1-7.22-5.83,8,8,0,0,1-10.33-5.43,8,8,0,0,1-2.69.47,7.67,7.67,0,0,1-5.14-1.91A7.44,7.44,0,0,1,134.12,177.44Z"/><path class="cls-2" d="M67.46,131c3.62,0,10.33.09,16.81.17,6,.08,11.73.16,14.57.16,6.19,0,16.2,4.91,20.12,9.62l16.12.6-.21,5.74L117.57,146a2.54,2.54,0,0,1-2-1.19c-2-3.31-11.34-8.39-16.69-8.39-2.88,0-8.59-.08-14.63-.16-6.47-.08-13.16-.17-16.75-.17a2.6,2.6,0,0,0-2,.75,2.72,2.72,0,0,0-.63,1.8,2.29,2.29,0,0,0,2.25,2.46c5.71,0,12.85.19,12.92.19a2.51,2.51,0,0,1,2.43,2.56,2.46,2.46,0,0,1-2.55,2.44c-.11,0-10.62-.21-17.45-.21a2.86,2.86,0,0,0-3,2.93,2.43,2.43,0,0,0,.62,1.7,3,3,0,0,0,2.28.77H79.58a2.5,2.5,0,0,1,0,5h-23A2.31,2.31,0,0,0,54,158.82a2.69,2.69,0,0,0,.73,1.86,3.51,3.51,0,0,0,2.57.89H79.79a2.5,2.5,0,1,1,0,5H62.68c-.92,0-1.57,1.28-1.57,2.43a2.44,2.44,0,0,0,.56,1.62,2.86,2.86,0,0,0,2.16.71l27.06-.16h0A2.5,2.5,0,0,1,92,175.91s-4.38,2.17-9.09,5a2.86,2.86,0,0,0-1.62,2.43c0,.69.84,2.61,3.32,1.91,4.63-1.33,19.55-6.9,23.22-9,3.3-1.86,7.42-9.24,9.11-11.54a2.53,2.53,0,0,1,1.85-1h16.38l.32,6-14.23.93c-1.89,2.46-6.91,8.7-11,11-4.63,2.62-21.09,6.81-24.86,7.55-4,.78-7.59-.89-8.8-4.06-.9-2.35-.47-6,3.72-8.5l.65-.38-17.17.1A7.63,7.63,0,0,1,58,174a7.34,7.34,0,0,1-1.9-5,8.58,8.58,0,0,1,.37-2.46,8.06,8.06,0,0,1-5.32-2.38A7.61,7.61,0,0,1,49,158.82a7.31,7.31,0,0,1,5.84-7.22,7.67,7.67,0,0,1-.46-2.64,7.82,7.82,0,0,1,5.88-7.68,8.06,8.06,0,0,1-.47-2.69,7.61,7.61,0,0,1,1.92-5.14A7.42,7.42,0,0,1,67.46,131Z"/><path class="cls-2" d="M110.43,64.69c0,3.62-.09,10.33-.17,16.81-.08,6-.16,11.73-.16,14.57,0,6.19-4.9,16.2-9.62,20.12l-.6,16.12-5.74-.22,1.39-17.29a2.51,2.51,0,0,1,1.18-2c3.32-2,8.39-11.34,8.39-16.69,0-2.88.08-8.59.16-14.63.08-6.47.17-13.16.17-16.75a2.6,2.6,0,0,0-.75-2,2.72,2.72,0,0,0-1.8-.63,2.29,2.29,0,0,0-2.46,2.25c0,5.71-.19,12.85-.19,12.92a2.5,2.5,0,0,1-2.56,2.43,2.46,2.46,0,0,1-2.44-2.55c0-.11.21-10.62.21-17.45a2.86,2.86,0,0,0-2.93-3,2.43,2.43,0,0,0-1.7.62A3,3,0,0,0,90,59.52V76.81a2.5,2.5,0,0,1-5,0v-23a2.31,2.31,0,0,0-2.39-2.56,2.69,2.69,0,0,0-1.86.73,3.51,3.51,0,0,0-.89,2.57V77a2.5,2.5,0,1,1-5,0V59.91c0-.92-1.28-1.57-2.43-1.57a2.44,2.44,0,0,0-1.62.56,2.86,2.86,0,0,0-.71,2.16l.16,27.06v0a2.49,2.49,0,0,1-4.73,1.11s-2.18-4.38-5-9.09a2.84,2.84,0,0,0-2.42-1.62c-.7,0-2.62.84-1.91,3.32,1.32,4.63,6.9,19.55,9,23.22,1.86,3.3,9.24,7.42,11.54,9.11a2.53,2.53,0,0,1,1,1.85v16.38l-6,.32-.93-14.23c-2.46-1.89-8.69-6.91-11-11C57.23,102.9,53,86.44,52.31,82.67c-.78-4,.89-7.59,4-8.8,2.35-.9,6-.47,8.5,3.72.13.22.26.43.38.65l-.1-17.17a7.63,7.63,0,0,1,2.3-5.83,7.34,7.34,0,0,1,5-1.9,8.58,8.58,0,0,1,2.46.37,8.1,8.1,0,0,1,2.38-5.32,7.61,7.61,0,0,1,5.34-2.15,7.31,7.31,0,0,1,7.22,5.83,8,8,0,0,1,2.64-.45,7.82,7.82,0,0,1,7.68,5.88,8.06,8.06,0,0,1,2.69-.47A7.61,7.61,0,0,1,108,59,7.42,7.42,0,0,1,110.43,64.69Z"/></svg>