<?xml version="1.0" encoding="utf-8"?>
<!-- Generator: Adobe Illustrator 24.3.0, SVG Export Plug-In . SVG Version: 6.00 Build 0)  -->
<svg version="1.1" id="Layer_1" xmlns="http://www.w3.org/2000/svg" xmlns:xlink="http://www.w3.org/1999/xlink" x="0px" y="0px"
	 viewBox="0 0 1229.1 440.7" style="enable-background:new 0 0 1229.1 440.7;" xml:space="preserve">
<style type="text/css">
	.st0{fill:#E6E6E6;}
	.st1{fill:#203232;}
	.st2{fill:none;stroke:#000000;stroke-miterlimit:10;}
	.st3{fill:none;stroke:#203232;stroke-linejoin:round;stroke-miterlimit:10;}
	.st4{fill:#ED5A36;}
	.st5{fill:#D02259;}
</style>
<rect x="843.5" y="18.7" class="st0" width="362.5" height="397.7"/>
<g>
	<g>
		<path class="st1" d="M19.9,320.8v2.4l-2.6,1v4.8l2.6,1v2.3l-11.2-4.4v-2.7L19.9,320.8z M15.2,328.1v-3.2l-4.3,1.6L15.2,328.1z"/>
		<path class="st1" d="M14.3,313.9c-0.3,0.6-0.6,1.6-0.6,2.5c0,0.8,0.3,1.2,0.7,1.2c0.4,0,0.6-0.6,0.7-1.3l0.1-0.7
			c0.3-1.7,1-2.6,2.3-2.6c1.6,0,2.6,1.3,2.6,3.6c0,1.1-0.2,2.4-0.9,3.4l-1.6-0.8c0.4-0.7,0.8-1.5,0.8-2.6c0-1-0.3-1.4-0.7-1.4
			c-0.4,0-0.6,0.4-0.7,1.3l-0.1,0.6c-0.2,1.8-1,2.7-2.4,2.7c-1.6,0-2.5-1.2-2.5-3.3c0-1.2,0.2-2.2,0.7-3.2L14.3,313.9z"/>
		<path class="st1" d="M14.3,305.8c-0.3,0.6-0.6,1.6-0.6,2.5c0,0.8,0.3,1.2,0.7,1.2c0.4,0,0.6-0.6,0.7-1.3l0.1-0.7
			c0.3-1.7,1-2.6,2.3-2.6c1.6,0,2.6,1.3,2.6,3.6c0,1.1-0.2,2.4-0.9,3.4l-1.6-0.8c0.4-0.7,0.8-1.5,0.8-2.6c0-1-0.3-1.4-0.7-1.4
			c-0.4,0-0.6,0.4-0.7,1.3l-0.1,0.6c-0.2,1.8-1,2.7-2.4,2.7c-1.6,0-2.5-1.2-2.5-3.3c0-1.2,0.2-2.2,0.7-3.2L14.3,305.8z"/>
		<path class="st1" d="M16,296.1c0.2,0,0.5,0,0.7,0v5.5c1.1-0.2,1.6-1,1.6-2c0-0.7-0.3-1.4-0.7-2l1.3-1.2c0.8,0.9,1.2,2,1.2,3.3
			c0,2.4-1.6,4-4.1,4c-2.4,0-4.1-1.6-4.1-3.9C11.9,297.6,13.6,296.1,16,296.1z M15.3,301.6v-3.4c-1,0.2-1.6,0.8-1.6,1.7
			C13.7,300.8,14.3,301.4,15.3,301.6z"/>
		<path class="st1" d="M14,288.7v2.8h2.8c1,0,1.3-0.5,1.3-1.2c0-0.5-0.2-1-0.5-1.5l1.6-0.8c0.5,0.7,0.8,1.5,0.8,2.6
			c0,1.9-1.1,2.9-3.1,2.9h-3v1.5h-1.9v-1.5H9.8v-2.1h2.3v-2.8H14z"/>
		<path class="st1" d="M15.4,273.2c3.1,0,4.7,2,4.7,4.8c0,2.8-1.6,4.8-4.7,4.8H8.7v-2.2h6.6c1.8,0,2.6-1,2.6-2.6
			c0-1.5-0.8-2.6-2.6-2.6H8.7v-2.2H15.4z"/>
		<path class="st1" d="M15,263.7h4.9v2.1h-4.3c-1.1,0-1.7,0.6-1.7,1.5c0,0.9,0.6,1.6,1.8,1.6h4.2v2.1h-7.7v-2h0.9
			c-0.8-0.6-1.1-1.4-1.1-2.3C11.9,264.9,13.2,263.7,15,263.7z"/>
		<path class="st1" d="M13,256H8.4v-2.1h11.5v2H19c0.6,0.5,1.1,1.3,1.1,2.3c0,2.1-1.8,3.8-4.1,3.8s-4.1-1.6-4.1-3.8
			C11.9,257.2,12.3,256.5,13,256z M16,259.9c1.2,0,2.1-0.8,2.1-2c0-1.2-0.9-2-2.1-2s-2.1,0.8-2.1,2C13.9,259.1,14.8,259.9,16,259.9z
			"/>
		<path class="st1" d="M16,244.5c0.2,0,0.5,0,0.7,0v5.5c1.1-0.2,1.6-1,1.6-2c0-0.7-0.3-1.4-0.7-2l1.3-1.2c0.8,0.9,1.2,2,1.2,3.3
			c0,2.4-1.6,4-4.1,4c-2.4,0-4.1-1.6-4.1-3.9C11.9,246,13.6,244.5,16,244.5z M15.3,250v-3.4c-1,0.2-1.6,0.8-1.6,1.7
			C13.7,249.3,14.3,249.9,15.3,250z"/>
		<path class="st1" d="M12.1,237.5l2.1,0.3c-0.2,0.3-0.2,0.8-0.2,1.3c0,1,0.6,1.6,1.7,1.6h4.2v2.1h-7.7v-2H13
			c-0.7-0.5-1.1-1.2-1.1-2.2C11.9,238.2,12,237.8,12.1,237.5z"/>
		<path class="st1" d="M19.9,219.6v2.2h-8.5l7.4,2.8v2.4l-7.3,2.8h8.4v2.2H8.7v-3.3l7.6-2.9l-7.6-2.9v-3.3H19.9z"/>
		<path class="st1" d="M19.9,209.6v2H19c0.6,0.5,1.1,1.3,1.1,2.3c0,2.1-1.8,3.8-4.1,3.8s-4.1-1.6-4.1-3.8c0-1.1,0.4-1.8,1.1-2.3
			h-0.9v-2H19.9z M16,215.6c1.2,0,2.1-0.8,2.1-2c0-1.2-0.9-2-2.1-2s-2.1,0.8-2.1,2C13.9,214.8,14.8,215.6,16,215.6z"/>
		<path class="st1" d="M15,200.1h4.9v2.1h-4.3c-1.1,0-1.7,0.6-1.7,1.5c0,0.9,0.6,1.6,1.8,1.6h4.2v2.1h-7.7v-2h0.9
			c-0.8-0.6-1.1-1.4-1.1-2.3C11.9,201.3,13.2,200.1,15,200.1z"/>
		<path class="st1" d="M19.9,190.3v2H19c0.6,0.5,1.1,1.3,1.1,2.3c0,2.1-1.8,3.8-4.1,3.8s-4.1-1.6-4.1-3.8c0-1.1,0.4-1.8,1.1-2.3
			h-0.9v-2H19.9z M16,196.3c1.2,0,2.1-0.8,2.1-2c0-1.2-0.9-2-2.1-2s-2.1,0.8-2.1,2C13.9,195.5,14.8,196.3,16,196.3z"/>
		<path class="st1" d="M13,182.6h-0.9v-2h7.1c2.5,0,4,1.6,4,4.2c0,1.2-0.3,2.5-0.9,3.4l-1.7-0.7c0.5-0.8,0.8-1.6,0.8-2.6
			c0-1.3-0.7-2.2-2.1-2.2h-0.5c0.6,0.5,1,1.3,1,2.4c0,1.9-1.6,3.6-4,3.6c-2.4,0-4-1.7-4-3.6C11.9,184,12.4,183.2,13,182.6z
			 M15.9,186.5c1.1,0,2-0.8,2-2c0-1.2-0.9-1.9-2-1.9c-1.2,0-2,0.8-2,1.9C13.9,185.7,14.8,186.5,15.9,186.5z"/>
		<path class="st1" d="M16,171.2c0.2,0,0.5,0,0.7,0v5.5c1.1-0.2,1.6-1,1.6-2c0-0.7-0.3-1.4-0.7-2l1.3-1.2c0.8,0.9,1.2,2,1.2,3.3
			c0,2.4-1.6,4-4.1,4c-2.4,0-4.1-1.6-4.1-3.9C11.9,172.7,13.6,171.2,16,171.2z M15.3,176.7v-3.4c-1,0.2-1.6,0.8-1.6,1.7
			C13.7,176,14.3,176.5,15.3,176.7z"/>
		<path class="st1" d="M15,156.9h4.9v2.1h-4.3c-1.1,0-1.7,0.6-1.7,1.5c0,0.9,0.6,1.6,1.8,1.6h4.2v2.1h-4.3c-1.1,0-1.7,0.6-1.7,1.5
			c0,0.9,0.6,1.6,1.8,1.6h4.2v2.1h-7.7v-2h0.9c-0.8-0.6-1.1-1.4-1.1-2.3c0-1.1,0.5-2,1.3-2.6c-1-0.6-1.3-1.6-1.3-2.6
			C11.9,158.2,13.2,156.9,15,156.9z"/>
		<path class="st1" d="M16,147.6c0.2,0,0.5,0,0.7,0v5.5c1.1-0.2,1.6-1,1.6-2c0-0.7-0.3-1.4-0.7-2l1.3-1.2c0.8,0.9,1.2,2,1.2,3.3
			c0,2.4-1.6,4-4.1,4c-2.4,0-4.1-1.6-4.1-3.9C11.9,149.1,13.6,147.6,16,147.6z M15.3,153.1v-3.4c-1,0.2-1.6,0.8-1.6,1.7
			C13.7,152.4,14.3,152.9,15.3,153.1z"/>
		<path class="st1" d="M15,138.6h4.9v2.1h-4.3c-1.1,0-1.7,0.6-1.7,1.5c0,0.9,0.6,1.6,1.8,1.6h4.2v2.1h-7.7v-2h0.9
			c-0.8-0.6-1.1-1.4-1.1-2.3C11.9,139.8,13.2,138.6,15,138.6z"/>
		<path class="st1" d="M14,130.8v2.8h2.8c1,0,1.3-0.5,1.3-1.2c0-0.5-0.2-1-0.5-1.5l1.6-0.8c0.5,0.7,0.8,1.5,0.8,2.6
			c0,1.9-1.1,2.9-3.1,2.9h-3v1.5h-1.9v-1.5H9.8v-2.1h2.3v-2.8H14z"/>
		<path class="st1" d="M10.2,119.9c1,2.1,2.9,3.2,5.2,3.2c2.2,0,4.2-1.1,5.2-3.2l1.9,0.7c-1.1,2.8-3.8,4.7-7,4.7c-3.3,0-6-1.9-7-4.7
			L10.2,119.9z"/>
		<path class="st1" d="M7.4,112.7h1.5c0.1-1.3,0.5-2.4,1.1-3.3l1.7,1c-0.4,0.7-0.7,1.4-0.9,2.3h2.5c0.3-2,1.2-3.5,3-3.4
			c2,0,3,1.6,3.3,3.4h1.6v1.8h-1.5c-0.1,1.4-0.6,2.8-1.3,3.8l-1.7-1.1c0.5-0.6,0.9-1.6,1.1-2.7h-2.6l0,0.1c-0.3,2-1.2,3.4-3.1,3.3
			c-1.8,0-3-1.5-3.2-3.4H7.4V112.7z M13.1,114.5h-2.2c0.2,0.7,0.6,1.2,1.2,1.2C12.6,115.7,12.9,115.3,13.1,114.5z M15.5,112.7h2.2
			c-0.2-0.7-0.6-1.2-1.2-1.2C16,111.5,15.7,111.9,15.5,112.7z"/>
		<path class="st1" d="M15.4,97.4c3.1,0,4.7,2,4.7,4.8c0,2.8-1.6,4.8-4.7,4.8H8.7v-2.2h6.6c1.8,0,2.6-1,2.6-2.6
			c0-1.5-0.8-2.6-2.6-2.6H8.7v-2.2H15.4z"/>
		<path class="st1" d="M11.5,87.3c-0.5,0.9-1,2-1,3.2c0,1.3,0.5,2.1,1.3,2.1c0.8,0,1.1-1,1.3-2.3l0.1-0.6c0.3-2,1.2-3.6,3.1-3.6
			c2.5,0,3.6,2.2,3.6,4.6c0,1.7-0.5,3.5-1.5,4.7l-1.8-1.2c0.6-0.8,1.2-2.1,1.2-3.6c0-1.2-0.5-2.2-1.4-2.2c-0.8,0-1.1,0.8-1.3,2.4
			l-0.1,0.7c-0.3,2-1.2,3.4-3.2,3.4c-2.3,0-3.5-2.1-3.5-4.5c0-1.6,0.4-2.9,1.2-4.3L11.5,87.3z"/>
		<path class="st1" d="M8.7,79.5c0-3.5,2.2-5.8,5.6-5.8s5.6,2.3,5.6,5.8v4.6H8.7V79.5z M10.8,81.9h7v-2.4c0-2.4-1.5-3.5-3.5-3.5
			c-2.1,0-3.5,1.1-3.5,3.5V81.9z"/>
		<path class="st1" d="M16,59.8c2.3,0,4.1,1.6,4.1,3.8c0,1.1-0.4,1.8-1.1,2.3h0.9v2H8.4v-2.1H13c-0.6-0.5-1-1.2-1-2.3
			C11.9,61.4,13.7,59.8,16,59.8z M16,65.9c1.2,0,2.1-0.8,2.1-2c0-1.2-1-2-2.1-2s-2.1,0.8-2.1,2C13.9,65.1,14.8,65.9,16,65.9z"/>
		<path class="st1" d="M15,50.7h4.9v2.1h-4.3c-1.1,0-1.7,0.6-1.7,1.5c0,0.9,0.6,1.6,1.8,1.6h4.2v2.1h-7.7v-2h0.9
			c-0.8-0.6-1.1-1.4-1.1-2.3C11.9,52,13.2,50.7,15,50.7z"/>
		<path class="st1" d="M20.5,49.2c-1-2.1-2.9-3.2-5.2-3.2c-2.2,0-4.2,1.1-5.2,3.2l-1.9-0.7c1.1-2.8,3.8-4.7,7-4.7c3.3,0,6,1.9,7,4.7
			L20.5,49.2z"/>
	</g>
</g>
<g>
	<g>
		<path class="st1" d="M66,376.7c0,3.2-1.9,5.1-4.2,5.1c-2.3,0-4.2-1.9-4.2-5.1s1.9-5.1,4.2-5.1C64.1,371.7,66,373.6,66,376.7z
			 M59.5,376.7c0,2.1,1,3.3,2.3,3.3c1.3,0,2.3-1.1,2.3-3.3c0-2.1-1-3.3-2.3-3.3C60.5,373.5,59.5,374.6,59.5,376.7z"/>
	</g>
	<g>
		<path class="st1" d="M39.5,331c0.5-0.7,1.5-1.7,3.3-1.7c2.1,0,3.3,1.3,3.3,3.2c0,1.2-0.6,2-1.4,2.9l-2.1,2.2h3.7v1.8h-6.5v-1.5
			l3.5-3.6c0.5-0.5,0.8-1.1,0.8-1.7c0-0.9-0.6-1.5-1.5-1.5c-0.9,0-1.5,0.5-2,1.1L39.5,331z"/>
		<path class="st1" d="M56.1,334.4c0,3.2-1.9,5.1-4.2,5.1c-2.3,0-4.2-1.9-4.2-5.1c0-3.2,1.9-5.1,4.2-5.1
			C54.2,329.3,56.1,331.2,56.1,334.4z M49.6,334.4c0,2.1,1,3.3,2.3,3.3c1.3,0,2.3-1.1,2.3-3.3c0-2.1-1-3.3-2.3-3.3
			C50.6,331.1,49.6,332.2,49.6,334.4z"/>
		<path class="st1" d="M66,334.4c0,3.2-1.9,5.1-4.2,5.1c-2.3,0-4.2-1.9-4.2-5.1c0-3.2,1.9-5.1,4.2-5.1C64.1,329.3,66,331.2,66,334.4
			z M59.5,334.4c0,2.1,1,3.3,2.3,3.3c1.3,0,2.3-1.1,2.3-3.3c0-2.1-1-3.3-2.3-3.3C60.5,331.1,59.5,332.2,59.5,334.4z"/>
	</g>
	<g>
		<path class="st1" d="M45.3,293.3h1.4v1.8h-1.4v1.8h-1.9v-1.8H39v-1.4l3.4-6.6h2.1l-3.3,6.2h2.1v-2.6h1.9V293.3z"/>
		<path class="st1" d="M56.1,292c0,3.2-1.9,5.1-4.2,5.1c-2.3,0-4.2-1.9-4.2-5.1c0-3.2,1.9-5.1,4.2-5.1
			C54.2,286.9,56.1,288.8,56.1,292z M49.6,292c0,2.1,1,3.3,2.3,3.3c1.3,0,2.3-1.1,2.3-3.3c0-2.1-1-3.3-2.3-3.3
			C50.6,288.7,49.6,289.8,49.6,292z"/>
		<path class="st1" d="M66,292c0,3.2-1.9,5.1-4.2,5.1c-2.3,0-4.2-1.9-4.2-5.1c0-3.2,1.9-5.1,4.2-5.1C64.1,286.9,66,288.8,66,292z
			 M59.5,292c0,2.1,1,3.3,2.3,3.3c1.3,0,2.3-1.1,2.3-3.3c0-2.1-1-3.3-2.3-3.3C60.5,288.7,59.5,289.8,59.5,292z"/>
	</g>
	<g>
		<path class="st1" d="M42.6,248.1c0.1,0,0.3,0,0.5,0c2,0,3.4,1.4,3.4,3.3c0,1.9-1.6,3.3-3.7,3.3c-2.1,0-3.7-1.4-3.7-3.3
			c0-0.9,0.3-1.7,0.9-2.6l2.7-4.1H45L42.6,248.1z M41.1,251.4c0,1,0.7,1.6,1.7,1.6c1,0,1.7-0.7,1.7-1.6c0-0.9-0.7-1.6-1.7-1.6
			C41.8,249.8,41.1,250.4,41.1,251.4z"/>
		<path class="st1" d="M56.1,249.6c0,3.2-1.9,5.1-4.2,5.1c-2.3,0-4.2-1.9-4.2-5.1c0-3.2,1.9-5.1,4.2-5.1
			C54.2,244.5,56.1,246.5,56.1,249.6z M49.6,249.6c0,2.1,1,3.3,2.3,3.3c1.3,0,2.3-1.1,2.3-3.3c0-2.1-1-3.3-2.3-3.3
			C50.6,246.4,49.6,247.5,49.6,249.6z"/>
		<path class="st1" d="M66,249.6c0,3.2-1.9,5.1-4.2,5.1c-2.3,0-4.2-1.9-4.2-5.1c0-3.2,1.9-5.1,4.2-5.1C64.1,244.5,66,246.5,66,249.6
			z M59.5,249.6c0,2.1,1,3.3,2.3,3.3c1.3,0,2.3-1.1,2.3-3.3c0-2.1-1-3.3-2.3-3.3C60.5,246.4,59.5,247.5,59.5,249.6z"/>
	</g>
	<g>
		<path class="st1" d="M46.1,205c0,1.1-0.7,1.8-1.5,2.2c1,0.4,1.7,1.1,1.7,2.3c0,1.8-1.7,2.8-3.8,2.8c-2.1,0-3.8-1.1-3.8-2.8
			c0-1.2,0.8-1.9,1.7-2.3c-0.8-0.4-1.5-1.1-1.5-2.2c0-1.8,1.6-2.8,3.6-2.8C44.5,202.2,46.1,203.2,46.1,205z M40.7,209.3
			c0,0.9,0.8,1.3,1.8,1.3c1,0,1.8-0.5,1.8-1.3c0-0.9-0.8-1.3-1.8-1.3C41.5,208,40.7,208.5,40.7,209.3z M40.9,205.1
			c0,0.8,0.7,1.3,1.6,1.3s1.6-0.4,1.6-1.3c0-0.8-0.7-1.3-1.6-1.3S40.9,204.3,40.9,205.1z"/>
		<path class="st1" d="M56.1,207.3c0,3.2-1.9,5.1-4.2,5.1c-2.3,0-4.2-1.9-4.2-5.1c0-3.2,1.9-5.1,4.2-5.1
			C54.2,202.2,56.1,204.1,56.1,207.3z M49.6,207.3c0,2.1,1,3.3,2.3,3.3c1.3,0,2.3-1.1,2.3-3.3c0-2.1-1-3.3-2.3-3.3
			C50.6,204,49.6,205.1,49.6,207.3z"/>
		<path class="st1" d="M66,207.3c0,3.2-1.9,5.1-4.2,5.1c-2.3,0-4.2-1.9-4.2-5.1c0-3.2,1.9-5.1,4.2-5.1C64.1,202.2,66,204.1,66,207.3
			z M59.5,207.3c0,2.1,1,3.3,2.3,3.3c1.3,0,2.3-1.1,2.3-3.3c0-2.1-1-3.3-2.3-3.3C60.5,204,59.5,205.1,59.5,207.3z"/>
	</g>
	<g>
		<path class="st1" d="M32.2,169.8h-1.9v-7.3l-2.3,1v-1.9l4.2-1.7V169.8z"/>
		<path class="st1" d="M36.4,167.6l-1,4.2h-1.5l0.5-4.2H36.4z"/>
		<path class="st1" d="M46.2,164.9c0,3.2-1.9,5.1-4.2,5.1c-2.3,0-4.2-1.9-4.2-5.1c0-3.2,1.9-5.1,4.2-5.1
			C44.3,159.8,46.2,161.7,46.2,164.9z M39.7,164.9c0,2.1,1,3.3,2.3,3.3c1.3,0,2.3-1.1,2.3-3.3c0-2.1-1-3.3-2.3-3.3
			C40.7,161.6,39.7,162.7,39.7,164.9z"/>
		<path class="st1" d="M56.1,164.9c0,3.2-1.9,5.1-4.2,5.1c-2.3,0-4.2-1.9-4.2-5.1c0-3.2,1.9-5.1,4.2-5.1
			C54.2,159.8,56.1,161.7,56.1,164.9z M49.6,164.9c0,2.1,1,3.3,2.3,3.3c1.3,0,2.3-1.1,2.3-3.3c0-2.1-1-3.3-2.3-3.3
			C50.6,161.6,49.6,162.7,49.6,164.9z"/>
		<path class="st1" d="M66,164.9c0,3.2-1.9,5.1-4.2,5.1c-2.3,0-4.2-1.9-4.2-5.1c0-3.2,1.9-5.1,4.2-5.1C64.1,159.8,66,161.7,66,164.9
			z M59.5,164.9c0,2.1,1,3.3,2.3,3.3c1.3,0,2.3-1.1,2.3-3.3c0-2.1-1-3.3-2.3-3.3C60.5,161.6,59.5,162.7,59.5,164.9z"/>
	</g>
	<g>
		<path class="st1" d="M34.2,127.4h-1.9v-7.3l-2.3,1v-1.9l4.2-1.7V127.4z"/>
		<path class="st1" d="M38.4,125.2l-1,4.2h-1.5l0.5-4.2H38.4z"/>
		<path class="st1" d="M39.5,119.1c0.5-0.7,1.5-1.7,3.3-1.7c2.1,0,3.3,1.3,3.3,3.2c0,1.2-0.6,2-1.4,2.9l-2.1,2.2h3.7v1.8h-6.5v-1.5
			l3.5-3.6c0.5-0.5,0.8-1.1,0.8-1.7c0-0.9-0.6-1.5-1.5-1.5c-0.9,0-1.5,0.5-2,1.1L39.5,119.1z"/>
		<path class="st1" d="M56.1,122.5c0,3.2-1.9,5.1-4.2,5.1c-2.3,0-4.2-1.9-4.2-5.1c0-3.2,1.9-5.1,4.2-5.1
			C54.2,117.4,56.1,119.3,56.1,122.5z M49.6,122.5c0,2.1,1,3.3,2.3,3.3c1.3,0,2.3-1.1,2.3-3.3c0-2.1-1-3.3-2.3-3.3
			C50.6,119.3,49.6,120.4,49.6,122.5z"/>
		<path class="st1" d="M66,122.5c0,3.2-1.9,5.1-4.2,5.1c-2.3,0-4.2-1.9-4.2-5.1c0-3.2,1.9-5.1,4.2-5.1C64.1,117.4,66,119.3,66,122.5
			z M59.5,122.5c0,2.1,1,3.3,2.3,3.3c1.3,0,2.3-1.1,2.3-3.3c0-2.1-1-3.3-2.3-3.3C60.5,119.3,59.5,120.4,59.5,122.5z"/>
	</g>
	<g>
		<path class="st1" d="M33.9,85H32v-7.3l-2.3,1v-1.9l4.2-1.7V85z"/>
		<path class="st1" d="M38.1,82.8l-1,4.2h-1.5l0.5-4.2H38.1z"/>
		<path class="st1" d="M45.3,81.5h1.4v1.8h-1.4V85h-1.9v-1.8H39v-1.4l3.4-6.6h2.1l-3.3,6.2h2.1v-2.6h1.9V81.5z"/>
		<path class="st1" d="M56.1,80.1c0,3.2-1.9,5.1-4.2,5.1c-2.3,0-4.2-1.9-4.2-5.1c0-3.2,1.9-5.1,4.2-5.1C54.2,75.1,56.1,77,56.1,80.1
			z M49.6,80.1c0,2.1,1,3.3,2.3,3.3c1.3,0,2.3-1.1,2.3-3.3c0-2.1-1-3.3-2.3-3.3C50.6,76.9,49.6,78,49.6,80.1z"/>
		<path class="st1" d="M66,80.1c0,3.2-1.9,5.1-4.2,5.1c-2.3,0-4.2-1.9-4.2-5.1c0-3.2,1.9-5.1,4.2-5.1C64.1,75.1,66,77,66,80.1z
			 M59.5,80.1c0,2.1,1,3.3,2.3,3.3c1.3,0,2.3-1.1,2.3-3.3c0-2.1-1-3.3-2.3-3.3C60.5,76.9,59.5,78,59.5,80.1z"/>
	</g>
	<g>
		<path class="st1" d="M33.8,42.7h-1.9v-7.3l-2.3,1v-1.9l4.2-1.7V42.7z"/>
		<path class="st1" d="M38,40.5l-1,4.2h-1.5l0.5-4.2H38z"/>
		<path class="st1" d="M42.6,36.3c0.1,0,0.3,0,0.5,0c2,0,3.4,1.4,3.4,3.3c0,1.9-1.6,3.3-3.7,3.3c-2.1,0-3.7-1.4-3.7-3.3
			c0-0.9,0.3-1.7,0.9-2.6l2.7-4.1H45L42.6,36.3z M41.1,39.5c0,1,0.7,1.6,1.7,1.6c1,0,1.7-0.7,1.7-1.6c0-0.9-0.7-1.6-1.7-1.6
			C41.8,37.9,41.1,38.6,41.1,39.5z"/>
		<path class="st1" d="M56.1,37.8c0,3.2-1.9,5.1-4.2,5.1c-2.3,0-4.2-1.9-4.2-5.1c0-3.2,1.9-5.1,4.2-5.1
			C54.2,32.7,56.1,34.6,56.1,37.8z M49.6,37.8c0,2.1,1,3.3,2.3,3.3c1.3,0,2.3-1.1,2.3-3.3c0-2.1-1-3.3-2.3-3.3
			C50.6,34.5,49.6,35.6,49.6,37.8z"/>
		<path class="st1" d="M66,37.8c0,3.2-1.9,5.1-4.2,5.1c-2.3,0-4.2-1.9-4.2-5.1c0-3.2,1.9-5.1,4.2-5.1C64.1,32.7,66,34.6,66,37.8z
			 M59.5,37.8c0,2.1,1,3.3,2.3,3.3c1.3,0,2.3-1.1,2.3-3.3c0-2.1-1-3.3-2.3-3.3C60.5,34.5,59.5,35.6,59.5,37.8z"/>
	</g>
</g>
<line class="st2" x1="70.7" y1="376.7" x2="70.7" y2="37.8"/>
<g>
	<g>
		<line class="st3" x1="70.7" y1="334.3" x2="77.3" y2="334.3"/>
		<line class="st3" x1="70.7" y1="292" x2="77.3" y2="292"/>
		<line class="st3" x1="70.7" y1="249.6" x2="77.3" y2="249.6"/>
		<line class="st3" x1="70.7" y1="207.2" x2="77.3" y2="207.2"/>
		<line class="st3" x1="70.7" y1="164.9" x2="77.3" y2="164.9"/>
		<line class="st3" x1="70.7" y1="122.5" x2="77.3" y2="122.5"/>
		<line class="st3" x1="70.7" y1="80.1" x2="77.3" y2="80.1"/>
		<line class="st3" x1="70.7" y1="37.8" x2="77.3" y2="37.8"/>
	</g>
</g>
<rect x="93.2" y="310" class="st4" width="25.3" height="66.7"/>
<rect x="163.5" y="303.4" class="st4" width="25.3" height="73.3"/>
<rect x="233.9" y="296.6" class="st4" width="25.3" height="80.1"/>
<rect x="304.2" y="282.9" class="st4" width="25.3" height="93.8"/>
<rect x="374.5" y="281.2" class="st4" width="25.3" height="95.5"/>
<rect x="444.9" y="267.2" class="st4" width="25.3" height="109.5"/>
<rect x="515.2" y="254.3" class="st4" width="25.3" height="122.4"/>
<rect x="585.5" y="241.3" class="st4" width="25.3" height="135.4"/>
<rect x="655.9" y="219.5" class="st4" width="25.3" height="157.2"/>
<rect x="726.2" y="197.7" class="st4" width="25.3" height="179"/>
<rect x="796.5" y="197.1" class="st4" width="25.3" height="179.6"/>
<rect x="866.9" y="176.5" class="st5" width="25.3" height="200.2"/>
<rect x="937.2" y="153.6" class="st5" width="25.3" height="223.1"/>
<rect x="1007.5" y="128.2" class="st5" width="25.3" height="248.5"/>
<rect x="1077.9" y="99.8" class="st5" width="25.3" height="276.9"/>
<rect x="1148.2" y="68.3" class="st5" width="25.3" height="308.4"/>
<line class="st3" x1="70.7" y1="376.7" x2="1187" y2="376.7"/>
<g>
	<path class="st1" d="M89.1,389.4c0.5-0.7,1.5-1.7,3.3-1.7c2.1,0,3.3,1.3,3.3,3.2c0,1.2-0.6,2-1.4,2.9l-2.1,2.2H96v1.8h-6.5v-1.5
		l3.5-3.6c0.5-0.5,0.8-1.1,0.8-1.7c0-0.9-0.6-1.5-1.5-1.5c-0.9,0-1.5,0.5-2,1.1L89.1,389.4z"/>
	<path class="st1" d="M105.7,392.8c0,3.2-1.9,5.1-4.2,5.1c-2.3,0-4.2-1.9-4.2-5.1c0-3.2,1.9-5.1,4.2-5.1
		C103.8,387.7,105.7,389.6,105.7,392.8z M99.2,392.8c0,2.1,1,3.3,2.3,3.3c1.3,0,2.3-1.1,2.3-3.3c0-2.1-1-3.3-2.3-3.3
		C100.2,389.5,99.2,390.6,99.2,392.8z"/>
	<path class="st1" d="M111,397.7h-1.9v-7.3l-2.3,1v-1.9l4.2-1.7V397.7z"/>
	<path class="st1" d="M121.4,392.8c0,3.2-1.9,5.1-4.2,5.1c-2.3,0-4.2-1.9-4.2-5.1c0-3.2,1.9-5.1,4.2-5.1
		C119.5,387.7,121.4,389.6,121.4,392.8z M114.9,392.8c0,2.1,1,3.3,2.3,3.3c1.3,0,2.3-1.1,2.3-3.3c0-2.1-1-3.3-2.3-3.3
		C115.9,389.5,114.9,390.6,114.9,392.8z"/>
</g>
<g>
	<path class="st1" d="M161.6,389.4c0.5-0.7,1.5-1.7,3.3-1.7c2.1,0,3.3,1.3,3.3,3.2c0,1.2-0.6,2-1.4,2.9l-2.1,2.2h3.7v1.8H162v-1.5
		l3.5-3.6c0.5-0.5,0.8-1.1,0.8-1.7c0-0.9-0.6-1.5-1.5-1.5c-0.9,0-1.5,0.5-2,1.1L161.6,389.4z"/>
	<path class="st1" d="M178.2,392.8c0,3.2-1.9,5.1-4.2,5.1c-2.3,0-4.2-1.9-4.2-5.1c0-3.2,1.9-5.1,4.2-5.1
		C176.3,387.7,178.2,389.6,178.2,392.8z M171.7,392.8c0,2.1,1,3.3,2.3,3.3c1.3,0,2.3-1.1,2.3-3.3c0-2.1-1-3.3-2.3-3.3
		C172.7,389.5,171.7,390.6,171.7,392.8z"/>
	<path class="st1" d="M183.5,397.7h-1.9v-7.3l-2.3,1v-1.9l4.2-1.7V397.7z"/>
	<path class="st1" d="M189.2,397.7h-1.9v-7.3l-2.3,1v-1.9l4.2-1.7V397.7z"/>
</g>
<g>
	<path class="st1" d="M230.8,389.4c0.5-0.7,1.5-1.7,3.3-1.7c2.1,0,3.3,1.3,3.3,3.2c0,1.2-0.6,2-1.4,2.9l-2.1,2.2h3.7v1.8h-6.5v-1.5
		l3.5-3.6c0.5-0.5,0.8-1.1,0.8-1.7c0-0.9-0.6-1.5-1.5-1.5c-0.9,0-1.5,0.5-2,1.1L230.8,389.4z"/>
	<path class="st1" d="M247.4,392.8c0,3.2-1.9,5.1-4.2,5.1c-2.3,0-4.2-1.9-4.2-5.1c0-3.2,1.9-5.1,4.2-5.1
		C245.5,387.7,247.4,389.6,247.4,392.8z M240.9,392.8c0,2.1,1,3.3,2.3,3.3c1.3,0,2.3-1.1,2.3-3.3c0-2.1-1-3.3-2.3-3.3
		C241.9,389.5,240.9,390.6,240.9,392.8z"/>
	<path class="st1" d="M252.7,397.7h-1.9v-7.3l-2.3,1v-1.9l4.2-1.7V397.7z"/>
	<path class="st1" d="M254.3,389.4c0.5-0.7,1.5-1.7,3.3-1.7c2.1,0,3.3,1.3,3.3,3.2c0,1.2-0.6,2-1.4,2.9l-2.1,2.2h3.7v1.8h-6.5v-1.5
		l3.5-3.6c0.5-0.5,0.8-1.1,0.8-1.7c0-0.9-0.6-1.5-1.5-1.5c-0.9,0-1.5,0.5-2,1.1L254.3,389.4z"/>
</g>
<g>
	<path class="st1" d="M301.1,389.4c0.5-0.7,1.5-1.7,3.3-1.7c2.1,0,3.3,1.3,3.3,3.2c0,1.2-0.6,2-1.4,2.9l-2.1,2.2h3.7v1.8h-6.5v-1.5
		l3.5-3.6c0.5-0.5,0.8-1.1,0.8-1.7c0-0.9-0.6-1.5-1.5-1.5c-0.9,0-1.5,0.5-2,1.1L301.1,389.4z"/>
	<path class="st1" d="M317.7,392.8c0,3.2-1.9,5.1-4.2,5.1c-2.3,0-4.2-1.9-4.2-5.1c0-3.2,1.9-5.1,4.2-5.1
		C315.8,387.7,317.7,389.6,317.7,392.8z M311.2,392.8c0,2.1,1,3.3,2.3,3.3c1.3,0,2.3-1.1,2.3-3.3c0-2.1-1-3.3-2.3-3.3
		C312.2,389.5,311.2,390.6,311.2,392.8z"/>
	<path class="st1" d="M323,397.7h-1.9v-7.3l-2.3,1v-1.9l4.2-1.7V397.7z"/>
	<path class="st1" d="M331.3,390.5c0,1-0.6,1.8-1.5,2.2c1,0.4,1.7,1.2,1.7,2.2c0,1.9-1.8,2.9-3.6,2.9c-1.5,0-2.7-0.5-3.4-1.4
		l1.1-1.2c0.6,0.6,1.4,0.9,2.2,0.9c1,0,1.7-0.4,1.7-1.3c0-0.8-0.9-1.3-1.9-1.3h-1.1v-1.7h1.1c1,0,1.7-0.4,1.7-1.2
		c0-0.8-0.7-1.2-1.6-1.2c-0.9,0-1.6,0.5-2,1l-1.2-1.2c0.6-0.9,1.7-1.5,3.3-1.5C329.9,387.7,331.3,388.8,331.3,390.5z"/>
</g>
<g>
	<path class="st1" d="M371.4,389.4c0.5-0.7,1.5-1.7,3.3-1.7c2.1,0,3.3,1.3,3.3,3.2c0,1.2-0.6,2-1.4,2.9l-2.1,2.2h3.7v1.8h-6.5v-1.5
		l3.5-3.6c0.5-0.5,0.8-1.1,0.8-1.7c0-0.9-0.6-1.5-1.5-1.5c-0.9,0-1.5,0.5-2,1.1L371.4,389.4z"/>
	<path class="st1" d="M387.9,392.8c0,3.2-1.9,5.1-4.2,5.1c-2.3,0-4.2-1.9-4.2-5.1c0-3.2,1.9-5.1,4.2-5.1
		C386,387.7,387.9,389.6,387.9,392.8z M381.5,392.8c0,2.1,1,3.3,2.3,3.3c1.3,0,2.3-1.1,2.3-3.3c0-2.1-1-3.3-2.3-3.3
		C382.5,389.5,381.5,390.6,381.5,392.8z"/>
	<path class="st1" d="M393.2,397.7h-1.9v-7.3l-2.3,1v-1.9l4.2-1.7V397.7z"/>
	<path class="st1" d="M400.9,394.1h1.4v1.8h-1.4v1.8H399v-1.8h-4.3v-1.4l3.4-6.6h2.1l-3.3,6.2h2.1v-2.6h1.9V394.1z"/>
</g>
<g>
	<path class="st1" d="M441.7,389.4c0.5-0.7,1.5-1.7,3.3-1.7c2.1,0,3.3,1.3,3.3,3.2c0,1.2-0.6,2-1.4,2.9l-2.1,2.2h3.7v1.8h-6.5v-1.5
		l3.5-3.6c0.5-0.5,0.8-1.1,0.8-1.7c0-0.9-0.6-1.5-1.5-1.5c-0.9,0-1.5,0.5-2,1.1L441.7,389.4z"/>
	<path class="st1" d="M458.3,392.8c0,3.2-1.9,5.1-4.2,5.1c-2.3,0-4.2-1.9-4.2-5.1c0-3.2,1.9-5.1,4.2-5.1
		C456.4,387.7,458.3,389.6,458.3,392.8z M451.8,392.8c0,2.1,1,3.3,2.3,3.3c1.3,0,2.3-1.1,2.3-3.3c0-2.1-1-3.3-2.3-3.3
		C452.8,389.5,451.8,390.6,451.8,392.8z"/>
	<path class="st1" d="M463.6,397.7h-1.9v-7.3l-2.3,1v-1.9l4.2-1.7V397.7z"/>
	<path class="st1" d="M471.7,389.6h-4l0,2h1.1c2.3,0,3.4,1.3,3.4,2.9c0,2.1-1.6,3.3-3.6,3.3c-1.5,0-2.7-0.5-3.5-1.5l1.1-1.3
		c0.5,0.6,1.5,1,2.4,1c1.1,0,1.6-0.6,1.6-1.4c0-0.7-0.5-1.4-2-1.4H466l0.1-5.4h5.6V389.6z"/>
</g>
<g>
	<path class="st1" d="M512,389.4c0.5-0.7,1.5-1.7,3.3-1.7c2.1,0,3.3,1.3,3.3,3.2c0,1.2-0.6,2-1.4,2.9l-2.1,2.2h3.7v1.8h-6.5v-1.5
		l3.5-3.6c0.5-0.5,0.8-1.1,0.8-1.7c0-0.9-0.6-1.5-1.5-1.5c-0.9,0-1.5,0.5-2,1.1L512,389.4z"/>
	<path class="st1" d="M528.6,392.8c0,3.2-1.9,5.1-4.2,5.1c-2.3,0-4.2-1.9-4.2-5.1c0-3.2,1.9-5.1,4.2-5.1
		C526.7,387.7,528.6,389.6,528.6,392.8z M522.1,392.8c0,2.1,1,3.3,2.3,3.3c1.3,0,2.3-1.1,2.3-3.3c0-2.1-1-3.3-2.3-3.3
		C523.1,389.5,522.1,390.6,522.1,392.8z"/>
	<path class="st1" d="M533.9,397.7H532v-7.3l-2.3,1v-1.9l4.2-1.7V397.7z"/>
	<path class="st1" d="M539,391.3c0.1,0,0.3,0,0.5,0c2,0,3.4,1.4,3.4,3.3c0,1.9-1.6,3.3-3.7,3.3c-2.1,0-3.7-1.4-3.7-3.3
		c0-0.9,0.3-1.7,0.9-2.6l2.7-4.1h2.3L539,391.3z M537.4,394.5c0,1,0.7,1.6,1.7,1.6c1,0,1.7-0.7,1.7-1.6c0-0.9-0.7-1.6-1.7-1.6
		C538.2,392.9,537.4,393.6,537.4,394.5z"/>
</g>
<g>
	<path class="st1" d="M582.6,389.4c0.5-0.7,1.5-1.7,3.3-1.7c2.1,0,3.3,1.3,3.3,3.2c0,1.2-0.6,2-1.4,2.9l-2.1,2.2h3.7v1.8H583v-1.5
		l3.5-3.6c0.5-0.5,0.8-1.1,0.8-1.7c0-0.9-0.6-1.5-1.5-1.5c-0.9,0-1.5,0.5-2,1.1L582.6,389.4z"/>
	<path class="st1" d="M599.2,392.8c0,3.2-1.9,5.1-4.2,5.1c-2.3,0-4.2-1.9-4.2-5.1c0-3.2,1.9-5.1,4.2-5.1
		C597.3,387.7,599.2,389.6,599.2,392.8z M592.7,392.8c0,2.1,1,3.3,2.3,3.3c1.3,0,2.3-1.1,2.3-3.3c0-2.1-1-3.3-2.3-3.3
		C593.7,389.5,592.7,390.6,592.7,392.8z"/>
	<path class="st1" d="M604.5,397.7h-1.9v-7.3l-2.3,1v-1.9l4.2-1.7V397.7z"/>
	<path class="st1" d="M613,389.4l-4.1,8.3h-2.2l4-8h-4.7v-1.8h6.9V389.4z"/>
</g>
<g>
	<path class="st1" d="M652.3,389.4c0.5-0.7,1.5-1.7,3.3-1.7c2.1,0,3.3,1.3,3.3,3.2c0,1.2-0.6,2-1.4,2.9l-2.1,2.2h3.7v1.8h-6.5v-1.5
		l3.5-3.6c0.5-0.5,0.8-1.1,0.8-1.7c0-0.9-0.6-1.5-1.5-1.5c-0.9,0-1.5,0.5-2,1.1L652.3,389.4z"/>
	<path class="st1" d="M668.9,392.8c0,3.2-1.9,5.1-4.2,5.1c-2.3,0-4.2-1.9-4.2-5.1c0-3.2,1.9-5.1,4.2-5.1
		C667,387.7,668.9,389.6,668.9,392.8z M662.4,392.8c0,2.1,1,3.3,2.3,3.3c1.3,0,2.3-1.1,2.3-3.3c0-2.1-1-3.3-2.3-3.3
		C663.4,389.5,662.4,390.6,662.4,392.8z"/>
	<path class="st1" d="M674.2,397.7h-1.9v-7.3l-2.3,1v-1.9l4.2-1.7V397.7z"/>
	<path class="st1" d="M683.4,390.5c0,1.1-0.7,1.8-1.5,2.2c1,0.4,1.7,1.1,1.7,2.3c0,1.8-1.7,2.8-3.8,2.8s-3.8-1.1-3.8-2.8
		c0-1.2,0.8-1.9,1.7-2.3c-0.8-0.4-1.5-1.1-1.5-2.2c0-1.8,1.6-2.8,3.6-2.8S683.4,388.8,683.4,390.5z M678,394.9
		c0,0.9,0.8,1.3,1.8,1.3c1,0,1.8-0.5,1.8-1.3c0-0.9-0.8-1.3-1.8-1.3C678.8,393.5,678,394,678,394.9z M678.2,390.7
		c0,0.8,0.7,1.3,1.6,1.3c0.9,0,1.6-0.4,1.6-1.3c0-0.8-0.7-1.3-1.6-1.3C678.9,389.4,678.2,389.9,678.2,390.7z"/>
</g>
<g>
	<path class="st1" d="M723,389.4c0.5-0.7,1.5-1.7,3.3-1.7c2.1,0,3.3,1.3,3.3,3.2c0,1.2-0.6,2-1.4,2.9l-2.1,2.2h3.7v1.8h-6.5v-1.5
		l3.5-3.6c0.5-0.5,0.8-1.1,0.8-1.7c0-0.9-0.6-1.5-1.5-1.5c-0.9,0-1.5,0.5-2,1.1L723,389.4z"/>
	<path class="st1" d="M739.6,392.8c0,3.2-1.9,5.1-4.2,5.1c-2.3,0-4.2-1.9-4.2-5.1c0-3.2,1.9-5.1,4.2-5.1
		C737.7,387.7,739.6,389.6,739.6,392.8z M733.1,392.8c0,2.1,1,3.3,2.3,3.3c1.3,0,2.3-1.1,2.3-3.3c0-2.1-1-3.3-2.3-3.3
		C734.1,389.5,733.1,390.6,733.1,392.8z"/>
	<path class="st1" d="M744.9,397.7H743v-7.3l-2.3,1v-1.9l4.2-1.7V397.7z"/>
	<path class="st1" d="M750.3,394.3c-0.1,0-0.3,0-0.4,0c-2,0-3.4-1.4-3.4-3.3c0-1.9,1.6-3.3,3.7-3.3c2.1,0,3.7,1.4,3.7,3.3
		c0,0.9-0.3,1.7-0.9,2.6l-2.7,4.1h-2.3L750.3,394.3z M751.9,391c0-1-0.7-1.6-1.7-1.6c-1,0-1.7,0.7-1.7,1.6c0,0.9,0.7,1.6,1.7,1.6
		C751.2,392.7,751.9,392,751.9,391z"/>
</g>
<g>
	<path class="st1" d="M791.4,389.4c0.5-0.7,1.5-1.7,3.3-1.7c2.1,0,3.3,1.3,3.3,3.2c0,1.2-0.6,2-1.4,2.9l-2.1,2.2h3.7v1.8h-6.5v-1.5
		l3.5-3.6c0.5-0.5,0.8-1.1,0.8-1.7c0-0.9-0.6-1.5-1.5-1.5c-0.9,0-1.5,0.5-2,1.1L791.4,389.4z"/>
	<path class="st1" d="M808,392.8c0,3.2-1.9,5.1-4.2,5.1c-2.3,0-4.2-1.9-4.2-5.1c0-3.2,1.9-5.1,4.2-5.1
		C806.1,387.7,808,389.6,808,392.8z M801.5,392.8c0,2.1,1,3.3,2.3,3.3c1.3,0,2.3-1.1,2.3-3.3c0-2.1-1-3.3-2.3-3.3
		C802.5,389.5,801.5,390.6,801.5,392.8z"/>
	<path class="st1" d="M809.1,389.4c0.5-0.7,1.5-1.7,3.3-1.7c2.1,0,3.3,1.3,3.3,3.2c0,1.2-0.6,2-1.4,2.9l-2.1,2.2h3.7v1.8h-6.5v-1.5
		l3.5-3.6c0.5-0.5,0.8-1.1,0.8-1.7c0-0.9-0.6-1.5-1.5-1.5c-0.9,0-1.5,0.5-2,1.1L809.1,389.4z"/>
	<path class="st1" d="M825.7,392.8c0,3.2-1.9,5.1-4.2,5.1c-2.3,0-4.2-1.9-4.2-5.1c0-3.2,1.9-5.1,4.2-5.1
		C823.8,387.7,825.7,389.6,825.7,392.8z M819.2,392.8c0,2.1,1,3.3,2.3,3.3c1.3,0,2.3-1.1,2.3-3.3c0-2.1-1-3.3-2.3-3.3
		C820.3,389.5,819.2,390.6,819.2,392.8z"/>
</g>
<g>
	<path class="st1" d="M863.8,389.4c0.5-0.7,1.5-1.7,3.3-1.7c2.1,0,3.3,1.3,3.3,3.2c0,1.2-0.6,2-1.4,2.9l-2.1,2.2h3.7v1.8h-6.5v-1.5
		l3.5-3.6c0.5-0.5,0.8-1.1,0.8-1.7c0-0.9-0.6-1.5-1.5-1.5c-0.9,0-1.5,0.5-2,1.1L863.8,389.4z"/>
	<path class="st1" d="M880.4,392.8c0,3.2-1.9,5.1-4.2,5.1c-2.3,0-4.2-1.9-4.2-5.1c0-3.2,1.9-5.1,4.2-5.1
		C878.5,387.7,880.4,389.6,880.4,392.8z M873.9,392.8c0,2.1,1,3.3,2.3,3.3c1.3,0,2.3-1.1,2.3-3.3c0-2.1-1-3.3-2.3-3.3
		C874.9,389.5,873.9,390.6,873.9,392.8z"/>
	<path class="st1" d="M881.6,389.4c0.5-0.7,1.5-1.7,3.3-1.7c2.1,0,3.3,1.3,3.3,3.2c0,1.2-0.6,2-1.4,2.9l-2.1,2.2h3.7v1.8H882v-1.5
		l3.5-3.6c0.5-0.5,0.8-1.1,0.8-1.7c0-0.9-0.6-1.5-1.5-1.5c-0.9,0-1.5,0.5-2,1.1L881.6,389.4z"/>
	<path class="st1" d="M893.6,397.7h-1.9v-7.3l-2.3,1v-1.9l4.2-1.7V397.7z"/>
</g>
<g>
	<path class="st1" d="M933.1,389.4c0.5-0.7,1.5-1.7,3.3-1.7c2.1,0,3.3,1.3,3.3,3.2c0,1.2-0.6,2-1.4,2.9l-2.1,2.2h3.7v1.8h-6.5v-1.5
		l3.5-3.6c0.5-0.5,0.8-1.1,0.8-1.7c0-0.9-0.6-1.5-1.5-1.5c-0.9,0-1.5,0.5-2,1.1L933.1,389.4z"/>
	<path class="st1" d="M949.7,392.8c0,3.2-1.9,5.1-4.2,5.1c-2.3,0-4.2-1.9-4.2-5.1c0-3.2,1.9-5.1,4.2-5.1
		C947.8,387.7,949.7,389.6,949.7,392.8z M943.2,392.8c0,2.1,1,3.3,2.3,3.3c1.3,0,2.3-1.1,2.3-3.3c0-2.1-1-3.3-2.3-3.3
		C944.2,389.5,943.2,390.6,943.2,392.8z"/>
	<path class="st1" d="M950.8,389.4c0.5-0.7,1.5-1.7,3.3-1.7c2.1,0,3.3,1.3,3.3,3.2c0,1.2-0.6,2-1.4,2.9l-2.1,2.2h3.7v1.8h-6.5v-1.5
		l3.5-3.6c0.5-0.5,0.8-1.1,0.8-1.7c0-0.9-0.6-1.5-1.5-1.5c-0.9,0-1.5,0.5-2,1.1L950.8,389.4z"/>
	<path class="st1" d="M958.7,389.4c0.5-0.7,1.5-1.7,3.3-1.7c2.1,0,3.3,1.3,3.3,3.2c0,1.2-0.6,2-1.4,2.9l-2.1,2.2h3.7v1.8h-6.5v-1.5
		l3.5-3.6c0.5-0.5,0.8-1.1,0.8-1.7c0-0.9-0.6-1.5-1.5-1.5c-0.9,0-1.5,0.5-2,1.1L958.7,389.4z"/>
</g>
<g>
	<path class="st1" d="M1003.3,389.4c0.5-0.7,1.5-1.7,3.3-1.7c2.1,0,3.3,1.3,3.3,3.2c0,1.2-0.6,2-1.4,2.9l-2.1,2.2h3.7v1.8h-6.5v-1.5
		l3.5-3.6c0.5-0.5,0.8-1.1,0.8-1.7c0-0.9-0.6-1.5-1.5-1.5c-0.9,0-1.5,0.5-2,1.1L1003.3,389.4z"/>
	<path class="st1" d="M1019.9,392.8c0,3.2-1.9,5.1-4.2,5.1c-2.3,0-4.2-1.9-4.2-5.1c0-3.2,1.9-5.1,4.2-5.1
		C1018,387.7,1019.9,389.6,1019.9,392.8z M1013.5,392.8c0,2.1,1,3.3,2.3,3.3c1.3,0,2.3-1.1,2.3-3.3c0-2.1-1-3.3-2.3-3.3
		C1014.5,389.5,1013.5,390.6,1013.5,392.8z"/>
	<path class="st1" d="M1021.1,389.4c0.5-0.7,1.5-1.7,3.3-1.7c2.1,0,3.3,1.3,3.3,3.2c0,1.2-0.6,2-1.4,2.9l-2.1,2.2h3.7v1.8h-6.5v-1.5
		l3.5-3.6c0.5-0.5,0.8-1.1,0.8-1.7c0-0.9-0.6-1.5-1.5-1.5c-0.9,0-1.5,0.5-2,1.1L1021.1,389.4z"/>
	<path class="st1" d="M1035.7,390.5c0,1-0.6,1.8-1.5,2.2c1,0.4,1.7,1.2,1.7,2.2c0,1.9-1.8,2.9-3.6,2.9c-1.5,0-2.7-0.5-3.4-1.4
		l1.1-1.2c0.6,0.6,1.4,0.9,2.2,0.9c1,0,1.7-0.4,1.7-1.3c0-0.8-0.9-1.3-1.9-1.3h-1.1v-1.7h1.1c1,0,1.7-0.4,1.7-1.2
		c0-0.8-0.7-1.2-1.6-1.2c-0.9,0-1.6,0.5-2,1l-1.2-1.2c0.6-0.9,1.7-1.5,3.3-1.5C1034.3,387.7,1035.7,388.8,1035.7,390.5z"/>
</g>
<g>
	<path class="st1" d="M1073.6,389.4c0.5-0.7,1.5-1.7,3.3-1.7c2.1,0,3.3,1.3,3.3,3.2c0,1.2-0.6,2-1.4,2.9l-2.1,2.2h3.7v1.8h-6.5v-1.5
		l3.5-3.6c0.5-0.5,0.8-1.1,0.8-1.7c0-0.9-0.6-1.5-1.5-1.5c-0.9,0-1.5,0.5-2,1.1L1073.6,389.4z"/>
	<path class="st1" d="M1090.2,392.8c0,3.2-1.9,5.1-4.2,5.1c-2.3,0-4.2-1.9-4.2-5.1c0-3.2,1.9-5.1,4.2-5.1
		C1088.3,387.7,1090.2,389.6,1090.2,392.8z M1083.7,392.8c0,2.1,1,3.3,2.3,3.3c1.3,0,2.3-1.1,2.3-3.3c0-2.1-1-3.3-2.3-3.3
		C1084.7,389.5,1083.7,390.6,1083.7,392.8z"/>
	<path class="st1" d="M1091.4,389.4c0.5-0.7,1.5-1.7,3.3-1.7c2.1,0,3.3,1.3,3.3,3.2c0,1.2-0.6,2-1.4,2.9l-2.1,2.2h3.7v1.8h-6.5v-1.5
		l3.5-3.6c0.5-0.5,0.8-1.1,0.8-1.7c0-0.9-0.6-1.5-1.5-1.5c-0.9,0-1.5,0.5-2,1.1L1091.4,389.4z"/>
	<path class="st1" d="M1105.3,394.1h1.4v1.8h-1.4v1.8h-1.9v-1.8h-4.3v-1.4l3.4-6.6h2.1l-3.3,6.2h2.1v-2.6h1.9V394.1z"/>
</g>
<g>
	<path class="st1" d="M1143.9,389.4c0.5-0.7,1.5-1.7,3.3-1.7c2.1,0,3.3,1.3,3.3,3.2c0,1.2-0.6,2-1.4,2.9l-2.1,2.2h3.7v1.8h-6.5v-1.5
		l3.5-3.6c0.5-0.5,0.8-1.1,0.8-1.7c0-0.9-0.6-1.5-1.5-1.5c-0.9,0-1.5,0.5-2,1.1L1143.9,389.4z"/>
	<path class="st1" d="M1160.5,392.8c0,3.2-1.9,5.1-4.2,5.1c-2.3,0-4.2-1.9-4.2-5.1c0-3.2,1.9-5.1,4.2-5.1
		C1158.6,387.7,1160.5,389.6,1160.5,392.8z M1154,392.8c0,2.1,1,3.3,2.3,3.3c1.3,0,2.3-1.1,2.3-3.3c0-2.1-1-3.3-2.3-3.3
		C1155,389.5,1154,390.6,1154,392.8z"/>
	<path class="st1" d="M1161.7,389.4c0.5-0.7,1.5-1.7,3.3-1.7c2.1,0,3.3,1.3,3.3,3.2c0,1.2-0.6,2-1.4,2.9l-2.1,2.2h3.7v1.8h-6.5v-1.5
		l3.5-3.6c0.5-0.5,0.8-1.1,0.8-1.7c0-0.9-0.6-1.5-1.5-1.5c-0.9,0-1.5,0.5-2,1.1L1161.7,389.4z"/>
	<path class="st1" d="M1176.1,389.6h-4l0,2h1.1c2.3,0,3.4,1.3,3.4,2.9c0,2.1-1.6,3.3-3.6,3.3c-1.5,0-2.7-0.5-3.5-1.5l1.1-1.3
		c0.5,0.6,1.5,1,2.4,1c1.1,0,1.6-0.6,1.6-1.4c0-0.7-0.5-1.4-2-1.4h-2.3l0.1-5.4h5.6V389.6z"/>
</g>
<g>
	<path class="st1" d="M99.4,287.2c0,1.8-0.9,3.1-2.5,3.8c1.8,0.7,2.9,2,2.9,3.9c0,3.3-3,4.9-6.2,4.9c-2.5,0-4.6-0.9-5.9-2.4l1.9-2.1
		c1,1,2.4,1.6,3.8,1.6c1.6,0,2.9-0.7,2.9-2.2c0-1.4-1.5-2.2-3.3-2.2h-2v-2.9h2c1.6,0,2.9-0.7,2.9-2.1c0-1.4-1.2-2.1-2.8-2.1
		c-1.6,0-2.7,0.8-3.4,1.7l-2-2.1c1.1-1.5,2.9-2.6,5.6-2.6C97,282.4,99.4,284.3,99.4,287.2z"/>
	<path class="st1" d="M108.7,299.5h-3.2V287l-4,1.6v-3.3l7.3-2.9V299.5z"/>
	<path class="st1" d="M122.6,285.7h-6.8l-0.1,3.4h1.9c3.9,0,5.9,2.2,5.9,5c0,3.6-2.7,5.7-6.1,5.7c-2.5,0-4.6-0.9-5.9-2.5l1.8-2.3
		c0.9,1,2.6,1.8,4.1,1.8c1.9,0,2.8-1.1,2.8-2.4c0-1.3-0.8-2.4-3.4-2.4h-4l0.2-9.3h9.7V285.7z"/>
</g>
<g>
	<path class="st1" d="M167.5,280.5c0,1.8-0.9,3.1-2.5,3.8c1.8,0.7,2.9,2,2.9,3.9c0,3.3-3,4.9-6.2,4.9c-2.5,0-4.6-0.9-5.9-2.4
		l1.9-2.1c1,1,2.4,1.6,3.8,1.6c1.6,0,2.9-0.7,2.9-2.2c0-1.4-1.5-2.2-3.3-2.2h-2v-2.9h2c1.6,0,2.9-0.7,2.9-2.1c0-1.4-1.2-2.1-2.8-2.1
		c-1.6,0-2.7,0.8-3.4,1.7l-2-2.1c1.1-1.5,2.9-2.6,5.6-2.6C165.1,275.7,167.5,277.6,167.5,280.5z"/>
	<path class="st1" d="M180.1,286.7h2.3v3h-2.3v3.1h-3.2v-3.1h-7.4v-2.4l5.9-11.4h3.6l-5.6,10.7h3.6v-4.5h3.2V286.7z"/>
	<path class="st1" d="M189.7,281.8c0.2,0,0.5,0,0.8,0c3.4,0,5.8,2.4,5.8,5.6c0,3.3-2.7,5.7-6.3,5.7c-3.6,0-6.3-2.4-6.3-5.7
		c0-1.5,0.6-2.9,1.6-4.5l4.7-7h3.9L189.7,281.8z M187.1,287.4c0,1.6,1.3,2.8,2.9,2.8c1.7,0,3-1.1,3-2.8c0-1.6-1.3-2.8-3-2.8
		C188.3,284.6,187.1,285.7,187.1,287.4z"/>
</g>
<g>
	<path class="st1" d="M237.7,273.8c0,1.8-0.9,3.1-2.5,3.8c1.8,0.7,2.9,2,2.9,3.9c0,3.3-3,4.9-6.2,4.9c-2.5,0-4.6-0.9-5.9-2.4
		l1.9-2.1c1,1,2.4,1.6,3.8,1.6c1.6,0,2.9-0.7,2.9-2.2c0-1.4-1.5-2.2-3.3-2.2h-2v-2.9h2c1.6,0,2.9-0.7,2.9-2.1c0-1.4-1.2-2.1-2.8-2.1
		c-1.6,0-2.7,0.8-3.4,1.7l-2-2.1c1.1-1.5,2.9-2.6,5.6-2.6C235.3,269,237.7,270.9,237.7,273.8z"/>
	<path class="st1" d="M251.7,271.8l-7,14.3H241l6.9-13.8h-8v-3h11.8V271.8z"/>
	<path class="st1" d="M266.1,273.8c0,1.9-1.1,3.1-2.6,3.8c1.7,0.6,3,1.8,3,3.9c0,3.1-3,4.9-6.6,4.9c-3.6,0-6.6-1.8-6.6-4.9
		c0-2.1,1.3-3.3,3-3.9c-1.5-0.7-2.6-1.9-2.6-3.8c0-3,2.8-4.8,6.2-4.8C263.4,269,266.1,270.8,266.1,273.8z M256.9,281.2
		c0,1.5,1.4,2.3,3.1,2.3c1.7,0,3.1-0.8,3.1-2.3c0-1.5-1.4-2.3-3.1-2.3C258.3,278.9,256.9,279.7,256.9,281.2z M257.3,274.1
		c0,1.4,1.2,2.2,2.7,2.2c1.5,0,2.7-0.8,2.7-2.2c0-1.4-1.2-2.1-2.7-2.1C258.5,271.9,257.3,272.7,257.3,274.1z"/>
</g>
<g>
	<path class="st1" d="M307.1,266.9h2.3v3h-2.3v3.1h-3.2v-3.1h-7.4v-2.4l5.9-11.4h3.6l-5.6,10.7h3.6v-4.5h3.2V266.9z"/>
	<path class="st1" d="M321.2,266.9h2.3v3h-2.3v3.1h-3.2v-3.1h-7.4v-2.4l5.9-11.4h3.6l-5.6,10.7h3.6v-4.5h3.2V266.9z"/>
	<path class="st1" d="M336.3,260.7c0,1.8-0.9,3.1-2.5,3.8c1.8,0.7,2.9,2,2.9,3.9c0,3.3-3,4.9-6.2,4.9c-2.5,0-4.6-0.9-5.9-2.4
		l1.9-2.1c1,1,2.4,1.6,3.8,1.6c1.6,0,2.9-0.7,2.9-2.2c0-1.4-1.5-2.2-3.3-2.2h-2V263h2c1.6,0,2.9-0.7,2.9-2.1c0-1.4-1.2-2.1-2.8-2.1
		c-1.6,0-2.7,0.8-3.4,1.7l-2-2.1c1.1-1.5,2.9-2.6,5.6-2.6C333.9,255.9,336.3,257.8,336.3,260.7z"/>
</g>
<g>
	<path class="st1" d="M379.4,264.7h2.3v3h-2.3v3.1h-3.2v-3.1h-7.4v-2.4l5.9-11.4h3.6l-5.6,10.7h3.6v-4.5h3.2V264.7z"/>
	<path class="st1" d="M394.2,257h-6.8l-0.1,3.4h1.9c3.9,0,5.9,2.2,5.9,5c0,3.6-2.7,5.7-6.1,5.7c-2.5,0-4.6-0.9-5.9-2.5l1.8-2.3
		c0.9,1,2.6,1.8,4.1,1.8c1.9,0,2.8-1.1,2.8-2.4c0-1.3-0.8-2.4-3.4-2.4h-4l0.2-9.3h9.7V257z"/>
	<path class="st1" d="M404.1,270.8h-3.2v-12.5l-4,1.6v-3.3l7.3-2.9V270.8z"/>
</g>
<g>
	<path class="st1" d="M450.9,243.3h-6.8l-0.1,3.4h1.9c3.9,0,5.9,2.2,5.9,5c0,3.6-2.7,5.7-6.1,5.7c-2.5,0-4.6-0.9-5.9-2.5l1.8-2.3
		c0.9,1,2.6,1.8,4.1,1.8c1.9,0,2.8-1.1,2.8-2.4c0-1.3-0.8-2.4-3.4-2.4h-4l0.2-9.3h9.7V243.3z"/>
	<path class="st1" d="M460.9,257.1h-3.2v-12.5l-4,1.6V243l7.3-2.9V257.1z"/>
	<path class="st1" d="M475.4,242.9l-7,14.3h-3.8l6.9-13.8h-8v-3h11.8V242.9z"/>
</g>
<g>
	<path class="st1" d="M584.1,220.7c0.2,0,0.5,0,0.8,0c3.4,0,5.8,2.4,5.8,5.6c0,3.3-2.7,5.7-6.3,5.7c-3.6,0-6.3-2.4-6.3-5.7
		c0-1.5,0.6-2.9,1.6-4.5l4.7-7h3.9L584.1,220.7z M581.5,226.3c0,1.6,1.3,2.8,2.9,2.8c1.7,0,3-1.1,3-2.8c0-1.6-1.3-2.8-3-2.8
		C582.7,223.5,581.5,224.6,581.5,226.3z"/>
	<path class="st1" d="M603.8,219.4c0,1.8-0.9,3.1-2.5,3.8c1.8,0.7,2.9,2,2.9,3.9c0,3.3-3,4.9-6.2,4.9c-2.5,0-4.6-0.9-5.9-2.4
		l1.9-2.1c1,1,2.4,1.6,3.8,1.6c1.6,0,2.9-0.7,2.9-2.2c0-1.4-1.5-2.2-3.3-2.2h-2v-2.9h2c1.6,0,2.9-0.7,2.9-2.1c0-1.4-1.2-2.1-2.8-2.1
		c-1.6,0-2.7,0.8-3.4,1.7l-2-2.1c1.1-1.5,2.9-2.6,5.6-2.6C601.4,214.6,603.8,216.5,603.8,219.4z"/>
	<path class="st1" d="M612.6,225.8c-0.2,0-0.5,0-0.8,0c-3.4,0-5.8-2.4-5.8-5.6c0-3.3,2.7-5.7,6.3-5.7c3.6,0,6.3,2.4,6.3,5.7
		c0,1.5-0.6,2.9-1.6,4.5l-4.7,7h-3.9L612.6,225.8z M615.3,220.3c0-1.6-1.3-2.8-2.9-2.8c-1.7,0-2.9,1.1-2.9,2.8
		c0,1.6,1.2,2.8,2.9,2.8C614,223,615.3,221.9,615.3,220.3z"/>
</g>
<g>
	<path class="st1" d="M661,195.3l-7,14.3h-3.8l6.9-13.8h-8v-3H661V195.3z"/>
	<path class="st1" d="M672.8,203.5h2.3v3h-2.3v3.1h-3.2v-3.1h-7.4v-2.4l5.9-11.4h3.6l-5.6,10.7h3.6V199h3.2V203.5z"/>
	<path class="st1" d="M676.5,195.4c0.9-1.2,2.6-2.9,5.7-2.9c3.5,0,5.7,2.2,5.7,5.4c0,2.1-1,3.5-2.4,4.9l-3.6,3.7h6.4v3h-11.1V207
		l5.9-6.1c0.9-0.9,1.4-1.8,1.4-2.9c0-1.5-1-2.5-2.6-2.5c-1.6,0-2.5,0.9-3.4,1.8L676.5,195.4z"/>
</g>
<g>
	<path class="st1" d="M728.6,175.6c0,1.9-1.1,3.1-2.6,3.8c1.7,0.6,3,1.8,3,3.9c0,3.1-3,4.9-6.6,4.9c-3.6,0-6.6-1.8-6.6-4.9
		c0-2.1,1.3-3.3,3-3.9c-1.5-0.7-2.6-1.9-2.6-3.8c0-3,2.8-4.8,6.2-4.8C725.8,170.8,728.6,172.6,728.6,175.6z M719.4,183.1
		c0,1.5,1.4,2.3,3.1,2.3c1.7,0,3.1-0.8,3.1-2.3c0-1.5-1.4-2.3-3.1-2.3C720.8,180.8,719.4,181.6,719.4,183.1z M719.7,175.9
		c0,1.4,1.2,2.2,2.7,2.2c1.5,0,2.7-0.8,2.7-2.2c0-1.4-1.2-2.1-2.7-2.1C721,173.8,719.7,174.5,719.7,175.9z"/>
	<path class="st1" d="M741.2,181.8h2.3v3h-2.3v3.1H738v-3.1h-7.4v-2.4l5.9-11.4h3.6l-5.6,10.7h3.6v-4.5h3.2V181.8z"/>
	<path class="st1" d="M756,174.1h-6.8l-0.1,3.4h1.9c3.9,0,5.9,2.2,5.9,5c0,3.6-2.7,5.7-6.1,5.7c-2.5,0-4.6-0.9-5.9-2.5l1.8-2.3
		c0.9,1,2.6,1.8,4.1,1.8c1.9,0,2.8-1.1,2.8-2.4c0-1.3-0.8-2.4-3.4-2.4h-4l0.2-9.3h9.7V174.1z"/>
</g>
<g>
	<path class="st1" d="M800.1,175c0,1.9-1.1,3.1-2.6,3.8c1.7,0.6,3,1.8,3,3.9c0,3.1-3,4.9-6.6,4.9c-3.6,0-6.6-1.8-6.6-4.9
		c0-2.1,1.3-3.3,3-3.9c-1.5-0.7-2.6-1.9-2.6-3.8c0-3,2.8-4.8,6.2-4.8C797.3,170.1,800.1,171.9,800.1,175z M790.9,182.4
		c0,1.5,1.4,2.3,3.1,2.3c1.7,0,3.1-0.8,3.1-2.3c0-1.5-1.4-2.3-3.1-2.3C792.3,180.1,790.9,180.9,790.9,182.4z M791.2,175.2
		c0,1.4,1.2,2.2,2.7,2.2c1.5,0,2.7-0.8,2.7-2.2c0-1.4-1.2-2.1-2.7-2.1C792.4,173.1,791.2,173.8,791.2,175.2z"/>
	<path class="st1" d="M812.7,181.1h2.3v3h-2.3v3.1h-3.2v-3.1H802v-2.4l5.9-11.4h3.6l-5.6,10.7h3.6v-4.5h3.2V181.1z"/>
	<path class="st1" d="M829.3,175c0,1.9-1.1,3.1-2.6,3.8c1.7,0.6,3,1.8,3,3.9c0,3.1-3,4.9-6.6,4.9c-3.6,0-6.6-1.8-6.6-4.9
		c0-2.1,1.3-3.3,3-3.9c-1.5-0.7-2.6-1.9-2.6-3.8c0-3,2.8-4.8,6.2-4.8C826.6,170.1,829.3,171.9,829.3,175z M820.1,182.4
		c0,1.5,1.4,2.3,3.1,2.3c1.7,0,3.1-0.8,3.1-2.3c0-1.5-1.4-2.3-3.1-2.3C821.5,180.1,820.1,180.9,820.1,182.4z M820.5,175.2
		c0,1.4,1.2,2.2,2.7,2.2c1.5,0,2.7-0.8,2.7-2.2c0-1.4-1.2-2.1-2.7-2.1C821.7,173.1,820.5,173.8,820.5,175.2z"/>
</g>
<g>
	<path class="st1" d="M865.8,160.4c-0.2,0-0.5,0-0.8,0c-3.4,0-5.8-2.4-5.8-5.6c0-3.3,2.7-5.7,6.3-5.7c3.6,0,6.3,2.4,6.3,5.7
		c0,1.5-0.6,2.9-1.6,4.5l-4.7,7h-3.9L865.8,160.4z M868.5,154.9c0-1.6-1.3-2.8-2.9-2.8c-1.7,0-2.9,1.1-2.9,2.8
		c0,1.6,1.2,2.8,2.9,2.8C867.2,157.6,868.5,156.5,868.5,154.9z"/>
	<path class="st1" d="M883.8,160.2h2.3v3h-2.3v3.1h-3.2v-3.1h-7.4v-2.4l5.9-11.4h3.6l-5.6,10.7h3.6v-4.5h3.2V160.2z"/>
	<path class="st1" d="M898.6,152.5h-6.8l-0.1,3.4h1.9c3.9,0,5.9,2.2,5.9,5c0,3.6-2.7,5.7-6.1,5.7c-2.5,0-4.6-0.9-5.9-2.5l1.8-2.3
		c0.9,1,2.6,1.8,4.1,1.8c1.9,0,2.8-1.1,2.8-2.4c0-1.3-0.8-2.4-3.4-2.4h-4l0.2-9.3h9.7V152.5z"/>
</g>
<g>
	<path class="st1" d="M927.3,143.6H924v-12.5l-4,1.6v-3.3l7.3-2.9V143.6z"/>
	<path class="st1" d="M934.6,139.9l-1.7,7.1h-2.6l0.8-7.1H934.6z"/>
	<path class="st1" d="M951.4,135.3c0,5.4-3.2,8.7-7.2,8.7c-4,0-7.2-3.3-7.2-8.7s3.2-8.7,7.2-8.7
		C948.1,126.6,951.4,129.8,951.4,135.3z M940.3,135.3c0,3.7,1.7,5.6,3.9,5.6c2.2,0,3.9-1.9,3.9-5.6s-1.7-5.6-3.9-5.6
		C942,129.7,940.3,131.6,940.3,135.3z"/>
	<path class="st1" d="M964.5,129.9h-6.8l-0.1,3.4h1.9c3.9,0,5.9,2.2,5.9,5c0,3.6-2.7,5.7-6.1,5.7c-2.5,0-4.6-0.9-5.9-2.5l1.8-2.3
		c0.9,1,2.6,1.8,4.1,1.8c1.9,0,2.8-1.1,2.8-2.4c0-1.3-0.8-2.4-3.4-2.4h-4l0.2-9.3h9.7V129.9z"/>
	<path class="st1" d="M978.9,131.4c0,1.8-0.9,3.1-2.5,3.8c1.8,0.7,2.9,2,2.9,3.9c0,3.3-3,4.9-6.2,4.9c-2.5,0-4.6-0.9-5.9-2.4
		l1.9-2.1c1,1,2.4,1.6,3.8,1.6c1.6,0,2.9-0.7,2.9-2.2c0-1.4-1.5-2.2-3.3-2.2h-2v-2.9h2c1.6,0,2.9-0.7,2.9-2.1c0-1.4-1.2-2.1-2.8-2.1
		c-1.6,0-2.7,0.8-3.4,1.7l-2-2.1c1.1-1.5,2.9-2.6,5.6-2.6C976.5,126.6,978.9,128.5,978.9,131.4z"/>
</g>
<g>
	<path class="st1" d="M1001.5,117.8h-3.2v-12.5l-4,1.6v-3.3l7.3-2.9V117.8z"/>
	<path class="st1" d="M1008.8,114l-1.7,7.1h-2.6l0.8-7.1H1008.8z"/>
	<path class="st1" d="M1017.8,117.8h-3.2v-12.5l-4,1.6v-3.3l7.3-2.9V117.8z"/>
	<path class="st1" d="M1032.4,103.5l-7,14.3h-3.8l6.9-13.8h-8v-3h11.8V103.5z"/>
	<path class="st1" d="M1045.3,105.5c0,1.8-0.9,3.1-2.5,3.8c1.8,0.7,2.9,2,2.9,3.9c0,3.3-3,4.9-6.2,4.9c-2.5,0-4.6-0.9-5.9-2.4
		l1.9-2.1c1,1,2.4,1.6,3.8,1.6c1.6,0,2.9-0.7,2.9-2.2c0-1.4-1.5-2.2-3.3-2.2h-2v-2.9h2c1.6,0,2.9-0.7,2.9-2.1c0-1.4-1.2-2.1-2.8-2.1
		c-1.6,0-2.7,0.8-3.4,1.7l-2-2.1c1.1-1.5,2.9-2.6,5.6-2.6C1042.9,100.7,1045.3,102.6,1045.3,105.5z"/>
</g>
<g>
	<path class="st1" d="M1068.3,89.2h-3.2V76.7l-4,1.6V75l7.3-2.9V89.2z"/>
	<path class="st1" d="M1075.6,85.4l-1.7,7.1h-2.6l0.8-7.1H1075.6z"/>
	<path class="st1" d="M1089,76.9c0,1.8-0.9,3.1-2.5,3.8c1.8,0.7,2.9,2,2.9,3.9c0,3.3-3,4.9-6.2,4.9c-2.5,0-4.6-0.9-5.9-2.4l1.9-2.1
		c1,1,2.4,1.6,3.8,1.6c1.6,0,2.9-0.7,2.9-2.2c0-1.4-1.5-2.2-3.3-2.2h-2v-2.9h2c1.6,0,2.9-0.7,2.9-2.1c0-1.4-1.2-2.1-2.8-2.1
		c-1.6,0-2.7,0.8-3.4,1.7l-2-2.1c1.1-1.5,2.9-2.6,5.6-2.6C1086.6,72.1,1089,74,1089,76.9z"/>
	<path class="st1" d="M1106.2,80.8c0,5.4-3.2,8.7-7.2,8.7c-4,0-7.2-3.3-7.2-8.7s3.2-8.7,7.2-8.7
		C1102.9,72.1,1106.2,75.3,1106.2,80.8z M1095,80.8c0,3.7,1.7,5.6,3.9,5.6c2.2,0,3.9-1.9,3.9-5.6s-1.7-5.6-3.9-5.6
		C1096.8,75.2,1095,77.1,1095,80.8z"/>
	<path class="st1" d="M1120,74.9l-7,14.3h-3.8l6.9-13.8h-8v-3h11.8V74.9z"/>
</g>
<g>
	<path class="st1" d="M1139.5,58.1h-3.2V45.6l-4,1.6v-3.3l7.3-2.9V58.1z"/>
	<path class="st1" d="M1146.8,54.3l-1.7,7.1h-2.6l0.8-7.1H1146.8z"/>
	<path class="st1" d="M1159.1,52h2.3v3h-2.3v3.1h-3.2V55h-7.4v-2.4l5.9-11.4h3.6l-5.6,10.7h3.6v-4.5h3.2V52z"/>
	<path class="st1" d="M1173.9,44.3h-6.8l-0.1,3.4h1.9c3.9,0,5.9,2.2,5.9,5c0,3.6-2.7,5.7-6.1,5.7c-2.5,0-4.6-0.9-5.9-2.5l1.8-2.3
		c0.9,1,2.6,1.8,4.1,1.8c1.9,0,2.8-1.1,2.8-2.4c0-1.3-0.8-2.4-3.4-2.4h-4l0.2-9.3h9.7V44.3z"/>
	<path class="st1" d="M1182.7,47.1c0.2,0,0.5,0,0.8,0c3.4,0,5.8,2.4,5.8,5.6c0,3.3-2.7,5.7-6.3,5.7c-3.6,0-6.3-2.4-6.3-5.7
		c0-1.5,0.6-2.9,1.6-4.5l4.7-7h3.9L1182.7,47.1z M1180,52.7c0,1.6,1.3,2.8,2.9,2.8c1.7,0,3-1.1,3-2.8c0-1.6-1.3-2.8-3-2.8
		C1181.3,49.9,1180,51,1180,52.7z"/>
</g>
<g>
	<path class="st1" d="M518.6,230.5h-6.8l-0.1,3.4h1.9c3.9,0,5.9,2.2,5.9,5c0,3.6-2.7,5.7-6.1,5.7c-2.5,0-4.6-0.9-5.9-2.5l1.8-2.3
		c0.9,1,2.6,1.8,4.1,1.8c1.9,0,2.8-1.1,2.8-2.4c0-1.3-0.8-2.4-3.4-2.4h-4l0.2-9.3h9.7V230.5z"/>
	<path class="st1" d="M533.2,230l-7,14.3h-3.8l6.9-13.8h-8v-3h11.8V230z"/>
	<path class="st1" d="M547.6,232c0,1.9-1.1,3.1-2.6,3.8c1.7,0.6,3,1.8,3,3.9c0,3.1-3,4.9-6.6,4.9c-3.6,0-6.6-1.8-6.6-4.9
		c0-2.1,1.3-3.3,3-3.9c-1.5-0.7-2.6-1.9-2.6-3.8c0-3,2.8-4.8,6.2-4.8C544.8,227.2,547.6,229,547.6,232z M538.4,239.4
		c0,1.5,1.4,2.3,3.1,2.3c1.7,0,3.1-0.8,3.1-2.3c0-1.5-1.4-2.3-3.1-2.3C539.8,237.1,538.4,237.9,538.4,239.4z M538.7,232.2
		c0,1.4,1.2,2.2,2.7,2.2c1.5,0,2.7-0.8,2.7-2.2c0-1.4-1.2-2.1-2.7-2.1C539.9,230.1,538.7,230.8,538.7,232.2z"/>
</g>
</svg>
