<?xml version="1.0" encoding="utf-8"?>
<!-- Generator: Adobe Illustrator 24.3.0, SVG Export Plug-In . SVG Version: 6.00 Build 0)  -->
<svg version="1.1" id="Layer_1" xmlns="http://www.w3.org/2000/svg" xmlns:xlink="http://www.w3.org/1999/xlink" x="0px" y="0px"
	 viewBox="0 0 1200 437" style="enable-background:new 0 0 1200 437;" xml:space="preserve">
<style type="text/css">
	.st0{fill:#E6E6E6;}
	.st1{fill:#203232;}
	.st2{fill:none;stroke:#000000;stroke-miterlimit:10;}
	.st3{fill:none;stroke:#203232;stroke-linejoin:round;stroke-miterlimit:10;}
	.st4{fill:#ED5A36;}
	.st5{fill:#D02259;}
</style>
<g>
	<rect x="839.2" y="40" class="st0" width="362.5" height="397.7"/>
	<g>
		<g>
			<path class="st1" d="M61.6,398c0,3.2-1.9,5.1-4.2,5.1s-4.2-1.9-4.2-5.1s1.9-5.1,4.2-5.1C59.7,392.9,61.6,394.8,61.6,398z
				 M55.1,398c0,2.1,1,3.3,2.3,3.3s2.3-1.1,2.3-3.3c0-2.1-1-3.3-2.3-3.3S55.1,395.8,55.1,398z"/>
		</g>
		<g>
			<path class="st1" d="M35.1,352.2c0.5-0.7,1.5-1.7,3.3-1.7c2.1,0,3.3,1.3,3.3,3.2c0,1.2-0.6,2-1.4,2.9l-2.1,2.2h3.7v1.8h-6.5V359
				l3.5-3.6c0.5-0.5,0.8-1.1,0.8-1.7c0-0.9-0.6-1.5-1.5-1.5s-1.5,0.5-2,1.1L35.1,352.2z"/>
			<path class="st1" d="M51.7,355.6c0,3.2-1.9,5.1-4.2,5.1s-4.2-1.9-4.2-5.1s1.9-5.1,4.2-5.1S51.7,352.4,51.7,355.6z M45.2,355.6
				c0,2.1,1,3.3,2.3,3.3s2.3-1.1,2.3-3.3c0-2.1-1-3.3-2.3-3.3C46.2,352.3,45.2,353.5,45.2,355.6z"/>
			<path class="st1" d="M61.6,355.6c0,3.2-1.9,5.1-4.2,5.1s-4.2-1.9-4.2-5.1s1.9-5.1,4.2-5.1C59.7,350.5,61.6,352.4,61.6,355.6z
				 M55.1,355.6c0,2.1,1,3.3,2.3,3.3s2.3-1.1,2.3-3.3c0-2.1-1-3.3-2.3-3.3C56.1,352.3,55.1,353.5,55.1,355.6z"/>
		</g>
		<g>
			<path class="st1" d="M40.9,314.6h1.4v1.8h-1.4v1.8H39v-1.8h-4.3V315l3.4-6.6h2.1l-3.3,6.2H39V312h1.9V314.6z"/>
			<path class="st1" d="M51.7,313.2c0,3.2-1.9,5.1-4.2,5.1s-4.2-1.9-4.2-5.1s1.9-5.1,4.2-5.1C49.8,308.2,51.7,310.1,51.7,313.2z
				 M45.2,313.2c0,2.1,1,3.3,2.3,3.3s2.3-1.1,2.3-3.3c0-2.1-1-3.3-2.3-3.3C46.2,310,45.2,311.1,45.2,313.2z"/>
			<path class="st1" d="M61.6,313.2c0,3.2-1.9,5.1-4.2,5.1s-4.2-1.9-4.2-5.1s1.9-5.1,4.2-5.1C59.7,308.2,61.6,310.1,61.6,313.2z
				 M55.1,313.2c0,2.1,1,3.3,2.3,3.3s2.3-1.1,2.3-3.3c0-2.1-1-3.3-2.3-3.3C56.1,310,55.1,311.1,55.1,313.2z"/>
		</g>
		<g>
			<path class="st1" d="M38.2,269.4c0.1,0,0.3,0,0.5,0c2,0,3.4,1.4,3.4,3.3s-1.6,3.3-3.7,3.3c-2.1,0-3.7-1.4-3.7-3.3
				c0-0.9,0.3-1.7,0.9-2.6l2.7-4.1h2.3L38.2,269.4z M36.7,272.6c0,1,0.7,1.6,1.7,1.6s1.7-0.7,1.7-1.6s-0.7-1.6-1.7-1.6
				S36.7,271.7,36.7,272.6z"/>
			<path class="st1" d="M51.7,270.9c0,3.2-1.9,5.1-4.2,5.1s-4.2-1.9-4.2-5.1s1.9-5.1,4.2-5.1S51.7,267.7,51.7,270.9z M45.2,270.9
				c0,2.1,1,3.3,2.3,3.3s2.3-1.1,2.3-3.3c0-2.1-1-3.3-2.3-3.3S45.2,268.7,45.2,270.9z"/>
			<path class="st1" d="M61.6,270.9c0,3.2-1.9,5.1-4.2,5.1s-4.2-1.9-4.2-5.1s1.9-5.1,4.2-5.1C59.7,265.8,61.6,267.7,61.6,270.9z
				 M55.1,270.9c0,2.1,1,3.3,2.3,3.3s2.3-1.1,2.3-3.3c0-2.1-1-3.3-2.3-3.3S55.1,268.7,55.1,270.9z"/>
		</g>
		<g>
			<path class="st1" d="M41.7,226.2c0,1.1-0.7,1.8-1.5,2.2c1,0.4,1.7,1.1,1.7,2.3c0,1.8-1.7,2.8-3.8,2.8s-3.8-1.1-3.8-2.8
				c0-1.2,0.8-1.9,1.7-2.3c-0.8-0.4-1.5-1.1-1.5-2.2c0-1.8,1.6-2.8,3.6-2.8C40.1,223.4,41.7,224.5,41.7,226.2z M36.3,230.6
				c0,0.9,0.8,1.3,1.8,1.3s1.8-0.5,1.8-1.3c0-0.9-0.8-1.3-1.8-1.3C37.1,229.2,36.3,229.7,36.3,230.6z M36.5,226.4
				c0,0.8,0.7,1.3,1.6,1.3s1.6-0.4,1.6-1.3c0-0.8-0.7-1.3-1.6-1.3S36.5,225.6,36.5,226.4z"/>
			<path class="st1" d="M51.7,228.5c0,3.2-1.9,5.1-4.2,5.1s-4.2-1.9-4.2-5.1c0-3.2,1.9-5.1,4.2-5.1S51.7,225.3,51.7,228.5z
				 M45.2,228.5c0,2.1,1,3.3,2.3,3.3s2.3-1.1,2.3-3.3c0-2.1-1-3.3-2.3-3.3S45.2,226.4,45.2,228.5z"/>
			<path class="st1" d="M61.6,228.5c0,3.2-1.9,5.1-4.2,5.1s-4.2-1.9-4.2-5.1c0-3.2,1.9-5.1,4.2-5.1
				C59.7,223.4,61.6,225.3,61.6,228.5z M55.1,228.5c0,2.1,1,3.3,2.3,3.3s2.3-1.1,2.3-3.3c0-2.1-1-3.3-2.3-3.3S55.1,226.4,55.1,228.5
				z"/>
		</g>
		<g>
			<path class="st1" d="M28.1,191h-1.9v-7.3l-2.3,1v-1.9l4.2-1.7C28.1,181.1,28.1,191,28.1,191z"/>
			<path class="st1" d="M41.8,186.1c0,3.2-1.9,5.1-4.2,5.1s-4.2-1.9-4.2-5.1c0-3.2,1.9-5.1,4.2-5.1C40,181.1,41.8,183,41.8,186.1z
				 M35.4,186.1c0,2.1,1,3.3,2.3,3.3s2.3-1.1,2.3-3.3c0-2.1-1-3.3-2.3-3.3C36.4,182.9,35.4,184,35.4,186.1z"/>
			<path class="st1" d="M51.7,186.1c0,3.2-1.9,5.1-4.2,5.1s-4.2-1.9-4.2-5.1c0-3.2,1.9-5.1,4.2-5.1C49.8,181.1,51.7,183,51.7,186.1z
				 M45.2,186.1c0,2.1,1,3.3,2.3,3.3s2.3-1.1,2.3-3.3c0-2.1-1-3.3-2.3-3.3C46.2,182.9,45.2,184,45.2,186.1z"/>
			<path class="st1" d="M61.6,186.1c0,3.2-1.9,5.1-4.2,5.1s-4.2-1.9-4.2-5.1c0-3.2,1.9-5.1,4.2-5.1C59.7,181.1,61.6,183,61.6,186.1z
				 M55.1,186.1c0,2.1,1,3.3,2.3,3.3s2.3-1.1,2.3-3.3c0-2.1-1-3.3-2.3-3.3C56.1,182.9,55.1,184,55.1,186.1z"/>
		</g>
		<g>
			<path class="st1" d="M30.1,148.7h-1.9v-7.3l-2.3,1v-1.9l4.2-1.7C30.1,138.8,30.1,148.7,30.1,148.7z"/>
			<path class="st1" d="M35.1,140.4c0.5-0.7,1.5-1.7,3.3-1.7c2.1,0,3.3,1.3,3.3,3.2c0,1.2-0.6,2-1.4,2.9l-2.1,2.2h3.7v1.8h-6.5v-1.5
				l3.5-3.6c0.5-0.5,0.8-1.1,0.8-1.7c0-0.9-0.6-1.5-1.5-1.5s-1.5,0.5-2,1.1L35.1,140.4z"/>
			<path class="st1" d="M51.7,143.8c0,3.2-1.9,5.1-4.2,5.1s-4.2-1.9-4.2-5.1c0-3.2,1.9-5.1,4.2-5.1S51.7,140.6,51.7,143.8z
				 M45.2,143.8c0,2.1,1,3.3,2.3,3.3s2.3-1.1,2.3-3.3c0-2.1-1-3.3-2.3-3.3S45.2,141.6,45.2,143.8z"/>
			<path class="st1" d="M61.6,143.8c0,3.2-1.9,5.1-4.2,5.1s-4.2-1.9-4.2-5.1c0-3.2,1.9-5.1,4.2-5.1
				C59.7,138.7,61.6,140.6,61.6,143.8z M55.1,143.8c0,2.1,1,3.3,2.3,3.3s2.3-1.1,2.3-3.3c0-2.1-1-3.3-2.3-3.3S55.1,141.6,55.1,143.8
				z"/>
		</g>
		<g>
			<path class="st1" d="M29.8,106.3h-1.9V99l-2.3,1v-2l4.2-1.7V106.3z"/>
			<path class="st1" d="M40.9,102.7h1.4v1.8h-1.4v1.8H39v-1.8h-4.3v-1.4l3.4-6.6h2.1l-3.3,6.2H39v-2.6h1.9V102.7z"/>
			<path class="st1" d="M51.7,101.4c0,3.2-1.9,5.1-4.2,5.1s-4.2-1.9-4.2-5.1s1.9-5.1,4.2-5.1S51.7,98.2,51.7,101.4z M45.2,101.4
				c0,2.1,1,3.3,2.3,3.3s2.3-1.1,2.3-3.3c0-2.1-1-3.3-2.3-3.3S45.2,99.3,45.2,101.4z"/>
			<path class="st1" d="M61.6,101.4c0,3.2-1.9,5.1-4.2,5.1s-4.2-1.9-4.2-5.1s1.9-5.1,4.2-5.1C59.7,96.3,61.6,98.2,61.6,101.4z
				 M55.1,101.4c0,2.1,1,3.3,2.3,3.3s2.3-1.1,2.3-3.3c0-2.1-1-3.3-2.3-3.3S55.1,99.3,55.1,101.4z"/>
		</g>
		<g>
			<path class="st1" d="M29.7,63.9h-1.9v-7.3l-2.3,1v-1.9l4.2-1.7V63.9z"/>
			<path class="st1" d="M38.2,57.5c0.1,0,0.3,0,0.5,0c2,0,3.4,1.4,3.4,3.3c0,1.9-1.6,3.3-3.7,3.3c-2.1,0-3.7-1.4-3.7-3.3
				c0-0.9,0.3-1.7,0.9-2.6l2.7-4.1h2.3L38.2,57.5z M36.7,60.8c0,1,0.7,1.6,1.7,1.6s1.7-0.7,1.7-1.6c0-0.9-0.7-1.6-1.7-1.6
				S36.7,59.8,36.7,60.8z"/>
			<path class="st1" d="M51.7,59c0,3.2-1.9,5.1-4.2,5.1s-4.2-1.9-4.2-5.1c0-3.2,1.9-5.1,4.2-5.1S51.7,55.9,51.7,59z M45.2,59
				c0,2.1,1,3.3,2.3,3.3s2.3-1.1,2.3-3.3c0-2.1-1-3.3-2.3-3.3C46.2,55.8,45.2,56.9,45.2,59z"/>
			<path class="st1" d="M61.6,59c0,3.2-1.9,5.1-4.2,5.1s-4.2-1.9-4.2-5.1c0-3.2,1.9-5.1,4.2-5.1C59.7,53.9,61.6,55.9,61.6,59z
				 M55.1,59c0,2.1,1,3.3,2.3,3.3s2.3-1.1,2.3-3.3c0-2.1-1-3.3-2.3-3.3C56.1,55.8,55.1,56.9,55.1,59z"/>
		</g>
	</g>
	<line class="st2" x1="66.3" y1="398" x2="66.3" y2="59"/>
	<g>
		<g>
			<line class="st3" x1="66.3" y1="355.6" x2="72.9" y2="355.6"/>
			<line class="st3" x1="66.3" y1="313.2" x2="72.9" y2="313.2"/>
			<line class="st3" x1="66.3" y1="270.9" x2="72.9" y2="270.9"/>
			<line class="st3" x1="66.3" y1="228.5" x2="72.9" y2="228.5"/>
			<line class="st3" x1="66.3" y1="186.1" x2="72.9" y2="186.1"/>
			<line class="st3" x1="66.3" y1="143.8" x2="72.9" y2="143.8"/>
			<line class="st3" x1="66.3" y1="101.4" x2="72.9" y2="101.4"/>
			<line class="st3" x1="66.3" y1="59" x2="72.9" y2="59"/>
		</g>
	</g>
	<rect x="88.8" y="331.2" class="st4" width="25.3" height="66.7"/>
	<rect x="159.2" y="324.7" class="st4" width="25.3" height="73.3"/>
	<rect x="229.5" y="317.9" class="st4" width="25.3" height="80.1"/>
	<rect x="299.8" y="304.1" class="st4" width="25.3" height="93.8"/>
	<rect x="370.2" y="302.4" class="st4" width="25.3" height="95.5"/>
	<rect x="440.5" y="288.4" class="st4" width="25.3" height="109.5"/>
	<rect x="510.8" y="275.5" class="st4" width="25.3" height="122.4"/>
	<rect x="581.2" y="262.6" class="st4" width="25.3" height="135.4"/>
	<rect x="651.5" y="240.8" class="st4" width="25.3" height="157.2"/>
	<rect x="721.8" y="219" class="st4" width="25.3" height="179"/>
	<rect x="792.2" y="218.3" class="st4" width="25.3" height="179.6"/>
	<rect x="862.5" y="197.8" class="st5" width="25.3" height="200.2"/>
	<rect x="932.8" y="174.9" class="st5" width="25.3" height="223.1"/>
	<rect x="1003.2" y="149.5" class="st5" width="25.3" height="248.5"/>
	<rect x="1073.5" y="121.1" class="st5" width="25.3" height="276.9"/>
	<rect x="1143.8" y="89.5" class="st5" width="25.3" height="308.4"/>
	<line class="st3" x1="66.3" y1="398" x2="1182.6" y2="398"/>
	<g>
		<path class="st1" d="M84.8,410.7c0.5-0.7,1.5-1.7,3.3-1.7c2.1,0,3.3,1.3,3.3,3.2c0,1.2-0.6,2-1.4,2.9l-2.1,2.2h3.7v1.8h-6.5v-1.5
			l3.5-3.6c0.5-0.5,0.8-1.1,0.8-1.7c0-0.9-0.6-1.5-1.5-1.5s-1.5,0.5-2,1.1L84.8,410.7z"/>
		<path class="st1" d="M101.4,414c0,3.2-1.9,5.1-4.2,5.1c-2.3,0-4.2-1.9-4.2-5.1s1.9-5.1,4.2-5.1C99.5,409,101.4,410.9,101.4,414z
			 M94.9,414c0,2.1,1,3.3,2.3,3.3s2.3-1.1,2.3-3.3c0-2.1-1-3.3-2.3-3.3C95.9,410.8,94.9,411.9,94.9,414z"/>
		<path class="st1" d="M106.7,418.9h-1.9v-7.3l-2.3,1v-1.9l4.2-1.7C106.7,409,106.7,418.9,106.7,418.9z"/>
		<path class="st1" d="M117,414c0,3.2-1.9,5.1-4.2,5.1c-2.3,0-4.2-1.9-4.2-5.1s1.9-5.1,4.2-5.1C115.1,409,117,410.9,117,414z
			 M110.5,414c0,2.1,1,3.3,2.3,3.3s2.3-1.1,2.3-3.3c0-2.1-1-3.3-2.3-3.3C111.5,410.8,110.5,411.9,110.5,414z"/>
	</g>
	<g>
		<path class="st1" d="M157.2,410.7c0.5-0.7,1.5-1.7,3.3-1.7c2.1,0,3.3,1.3,3.3,3.2c0,1.2-0.6,2-1.4,2.9l-2.1,2.2h3.7v1.8h-6.5v-1.5
			l3.5-3.6c0.5-0.5,0.8-1.1,0.8-1.7c0-0.9-0.6-1.5-1.5-1.5s-1.5,0.5-2,1.1L157.2,410.7z"/>
		<path class="st1" d="M173.8,414c0,3.2-1.9,5.1-4.2,5.1s-4.2-1.9-4.2-5.1s1.9-5.1,4.2-5.1C171.9,409,173.8,410.9,173.8,414z
			 M167.3,414c0,2.1,1,3.3,2.3,3.3s2.3-1.1,2.3-3.3c0-2.1-1-3.3-2.3-3.3C168.3,410.8,167.3,411.9,167.3,414z"/>
		<path class="st1" d="M179.1,418.9h-1.9v-7.3l-2.3,1v-1.9l4.2-1.7V418.9z"/>
		<path class="st1" d="M184.9,418.9H183v-7.3l-2.3,1v-1.9l4.2-1.7V418.9z"/>
	</g>
	<g>
		<path class="st1" d="M226.5,410.7c0.5-0.7,1.5-1.7,3.3-1.7c2.1,0,3.3,1.3,3.3,3.2c0,1.2-0.6,2-1.4,2.9l-2.1,2.2h3.7v1.8h-6.5v-1.5
			l3.5-3.6c0.5-0.5,0.8-1.1,0.8-1.7c0-0.9-0.6-1.5-1.5-1.5s-1.5,0.5-2,1.1L226.5,410.7z"/>
		<path class="st1" d="M243.1,414c0,3.2-1.9,5.1-4.2,5.1s-4.2-1.9-4.2-5.1s1.9-5.1,4.2-5.1C241.2,409,243.1,410.9,243.1,414z
			 M236.6,414c0,2.1,1,3.3,2.3,3.3s2.3-1.1,2.3-3.3c0-2.1-1-3.3-2.3-3.3C237.6,410.8,236.6,411.9,236.6,414z"/>
		<path class="st1" d="M248.4,418.9h-1.9v-7.3l-2.3,1v-1.9l4.2-1.7V418.9z"/>
		<path class="st1" d="M250,410.7c0.5-0.7,1.5-1.7,3.3-1.7c2.1,0,3.3,1.3,3.3,3.2c0,1.2-0.6,2-1.4,2.9l-2.1,2.2h3.7v1.8h-6.5v-1.5
			l3.5-3.6c0.5-0.5,0.8-1.1,0.8-1.7c0-0.9-0.6-1.5-1.5-1.5s-1.5,0.5-2,1.1L250,410.7z"/>
	</g>
	<g>
		<path class="st1" d="M296.7,410.7c0.5-0.7,1.5-1.7,3.3-1.7c2.1,0,3.3,1.3,3.3,3.2c0,1.2-0.6,2-1.4,2.9l-2.1,2.2h3.7v1.8H297v-1.5
			l3.5-3.6c0.5-0.5,0.8-1.1,0.8-1.7c0-0.9-0.6-1.5-1.5-1.5s-1.5,0.5-2,1.1L296.7,410.7z"/>
		<path class="st1" d="M313.3,414c0,3.2-1.9,5.1-4.2,5.1c-2.3,0-4.2-1.9-4.2-5.1s1.9-5.1,4.2-5.1C311.4,409,313.3,410.9,313.3,414z
			 M306.8,414c0,2.1,1,3.3,2.3,3.3s2.3-1.1,2.3-3.3c0-2.1-1-3.3-2.3-3.3C307.8,410.8,306.8,411.9,306.8,414z"/>
		<path class="st1" d="M318.6,418.9h-1.9v-7.3l-2.3,1v-1.9l4.2-1.7L318.6,418.9L318.6,418.9z"/>
		<path class="st1" d="M327,411.8c0,1-0.6,1.8-1.5,2.2c1,0.4,1.7,1.2,1.7,2.2c0,1.9-1.8,2.9-3.6,2.9c-1.5,0-2.7-0.5-3.4-1.4l1.1-1.2
			c0.6,0.6,1.4,0.9,2.2,0.9c1,0,1.7-0.4,1.7-1.3c0-0.8-0.9-1.3-1.9-1.3h-1.1v-1.7h1.1c1,0,1.7-0.4,1.7-1.2c0-0.8-0.7-1.2-1.6-1.2
			s-1.6,0.5-2,1l-1.2-1.2c0.6-0.9,1.7-1.5,3.3-1.5C325.6,409,327,410.1,327,411.8z"/>
	</g>
	<g>
		<path class="st1" d="M367,410.7c0.5-0.7,1.5-1.7,3.3-1.7c2.1,0,3.3,1.3,3.3,3.2c0,1.2-0.6,2-1.4,2.9l-2.1,2.2h3.7v1.8h-6.5v-1.5
			l3.5-3.6c0.5-0.5,0.8-1.1,0.8-1.7c0-0.9-0.6-1.5-1.5-1.5s-1.5,0.5-2,1.1L367,410.7z"/>
		<path class="st1" d="M383.6,414c0,3.2-1.9,5.1-4.2,5.1c-2.3,0-4.2-1.9-4.2-5.1s1.9-5.1,4.2-5.1C381.7,409,383.6,410.9,383.6,414z
			 M377.1,414c0,2.1,1,3.3,2.3,3.3s2.3-1.1,2.3-3.3c0-2.1-1-3.3-2.3-3.3C378.1,410.8,377.1,411.9,377.1,414z"/>
		<path class="st1" d="M388.9,418.9H387v-7.3l-2.3,1v-1.9l4.2-1.7L388.9,418.9L388.9,418.9z"/>
		<path class="st1" d="M396.6,415.4h1.4v1.8h-1.4v1.8h-1.9v-1.8h-4.3v-1.4l3.4-6.6h2.1l-3.3,6.2h2.1v-2.6h1.9L396.6,415.4
			L396.6,415.4z"/>
	</g>
	<g>
		<path class="st1" d="M437.3,410.7c0.5-0.7,1.5-1.7,3.3-1.7c2.1,0,3.3,1.3,3.3,3.2c0,1.2-0.6,2-1.4,2.9l-2.1,2.2h3.7v1.8h-6.5v-1.5
			l3.5-3.6c0.5-0.5,0.8-1.1,0.8-1.7c0-0.9-0.6-1.5-1.5-1.5s-1.5,0.5-2,1.1L437.3,410.7z"/>
		<path class="st1" d="M453.9,414c0,3.2-1.9,5.1-4.2,5.1c-2.3,0-4.2-1.9-4.2-5.1s1.9-5.1,4.2-5.1C452,409,453.9,410.9,453.9,414z
			 M447.4,414c0,2.1,1,3.3,2.3,3.3s2.3-1.1,2.3-3.3c0-2.1-1-3.3-2.3-3.3C448.4,410.8,447.4,411.9,447.4,414z"/>
		<path class="st1" d="M459.2,418.9h-1.9v-7.3l-2.3,1v-1.9l4.2-1.7L459.2,418.9L459.2,418.9z"/>
		<path class="st1" d="M467.3,410.9h-4v2h1.1c2.3,0,3.4,1.3,3.4,2.9c0,2.1-1.6,3.3-3.6,3.3c-1.5,0-2.7-0.5-3.5-1.5l1.1-1.3
			c0.5,0.6,1.5,1,2.4,1c1.1,0,1.6-0.6,1.6-1.4c0-0.7-0.5-1.4-2-1.4h-2.3l0.1-5.4h5.6L467.3,410.9L467.3,410.9z"/>
	</g>
	<g>
		<path class="st1" d="M507.6,410.7c0.5-0.7,1.5-1.7,3.3-1.7c2.1,0,3.3,1.3,3.3,3.2c0,1.2-0.6,2-1.4,2.9l-2.1,2.2h3.7v1.8H508v-1.5
			l3.5-3.6c0.5-0.5,0.8-1.1,0.8-1.7c0-0.9-0.6-1.5-1.5-1.5s-1.5,0.5-2,1.1L507.6,410.7z"/>
		<path class="st1" d="M524.2,414c0,3.2-1.9,5.1-4.2,5.1s-4.2-1.9-4.2-5.1s1.9-5.1,4.2-5.1C522.3,409,524.2,410.9,524.2,414z
			 M517.7,414c0,2.1,1,3.3,2.3,3.3s2.3-1.1,2.3-3.3c0-2.1-1-3.3-2.3-3.3C518.7,410.8,517.7,411.9,517.7,414z"/>
		<path class="st1" d="M529.5,418.9h-1.9v-7.3l-2.3,1v-1.9l4.2-1.7V418.9z"/>
		<path class="st1" d="M534.6,412.5c0.1,0,0.3,0,0.5,0c2,0,3.4,1.4,3.4,3.3s-1.6,3.3-3.7,3.3c-2.1,0-3.7-1.4-3.7-3.3
			c0-0.9,0.3-1.7,0.9-2.6l2.7-4.1h2.3L534.6,412.5z M533.1,415.8c0,1,0.7,1.6,1.7,1.6s1.7-0.7,1.7-1.6s-0.7-1.6-1.7-1.6
			C533.8,414.2,533.1,414.8,533.1,415.8z"/>
	</g>
	<g>
		<path class="st1" d="M578.2,410.7c0.5-0.7,1.5-1.7,3.3-1.7c2.1,0,3.3,1.3,3.3,3.2c0,1.2-0.6,2-1.4,2.9l-2.1,2.2h3.7v1.8h-6.5v-1.5
			l3.5-3.6c0.5-0.5,0.8-1.1,0.8-1.7c0-0.9-0.6-1.5-1.5-1.5s-1.5,0.5-2,1.1L578.2,410.7z"/>
		<path class="st1" d="M594.8,414c0,3.2-1.9,5.1-4.2,5.1s-4.2-1.9-4.2-5.1s1.9-5.1,4.2-5.1C592.9,409,594.8,410.9,594.8,414z
			 M588.3,414c0,2.1,1,3.3,2.3,3.3s2.3-1.1,2.3-3.3c0-2.1-1-3.3-2.3-3.3C589.3,410.8,588.3,411.9,588.3,414z"/>
		<path class="st1" d="M600.1,418.9h-1.9v-7.3l-2.3,1v-1.9l4.2-1.7V418.9z"/>
		<path class="st1" d="M608.6,410.6l-4.1,8.3h-2.2l4-8h-4.7v-1.8h6.9L608.6,410.6L608.6,410.6z"/>
	</g>
	<g>
		<path class="st1" d="M648,410.7c0.5-0.7,1.5-1.7,3.3-1.7c2.1,0,3.3,1.3,3.3,3.2c0,1.2-0.6,2-1.4,2.9l-2.1,2.2h3.7v1.8h-6.5v-1.5
			l3.5-3.6c0.5-0.5,0.8-1.1,0.8-1.7c0-0.9-0.6-1.5-1.5-1.5s-1.5,0.5-2,1.1L648,410.7z"/>
		<path class="st1" d="M664.5,414c0,3.2-1.9,5.1-4.2,5.1s-4.2-1.9-4.2-5.1s1.9-5.1,4.2-5.1C662.7,409,664.5,410.9,664.5,414z
			 M658.1,414c0,2.1,1,3.3,2.3,3.3s2.3-1.1,2.3-3.3c0-2.1-1-3.3-2.3-3.3C659.1,410.8,658.1,411.9,658.1,414z"/>
		<path class="st1" d="M669.9,418.9H668v-7.3l-2.3,1v-1.9l4.2-1.7V418.9z"/>
		<path class="st1" d="M679,411.8c0,1.1-0.7,1.8-1.5,2.2c1,0.4,1.7,1.1,1.7,2.3c0,1.8-1.7,2.8-3.8,2.8s-3.8-1.1-3.8-2.8
			c0-1.2,0.8-1.9,1.7-2.3c-0.8-0.4-1.5-1.1-1.5-2.2c0-1.8,1.6-2.8,3.6-2.8S679,410,679,411.8z M673.7,416.1c0,0.9,0.8,1.3,1.8,1.3
			s1.8-0.5,1.8-1.3c0-0.9-0.8-1.3-1.8-1.3C674.5,414.8,673.7,415.2,673.7,416.1z M673.9,411.9c0,0.8,0.7,1.3,1.6,1.3
			c0.9,0,1.6-0.4,1.6-1.3c0-0.8-0.7-1.3-1.6-1.3C674.6,410.7,673.9,411.1,673.9,411.9z"/>
	</g>
	<g>
		<path class="st1" d="M718.6,410.7c0.5-0.7,1.5-1.7,3.3-1.7c2.1,0,3.3,1.3,3.3,3.2c0,1.2-0.6,2-1.4,2.9l-2.1,2.2h3.7v1.8H719v-1.5
			l3.5-3.6c0.5-0.5,0.8-1.1,0.8-1.7c0-0.9-0.6-1.5-1.5-1.5s-1.5,0.5-2,1.1L718.6,410.7z"/>
		<path class="st1" d="M735.2,414c0,3.2-1.9,5.1-4.2,5.1s-4.2-1.9-4.2-5.1s1.9-5.1,4.2-5.1C733.3,409,735.2,410.9,735.2,414z
			 M728.7,414c0,2.1,1,3.3,2.3,3.3s2.3-1.1,2.3-3.3c0-2.1-1-3.3-2.3-3.3C729.7,410.8,728.7,411.9,728.7,414z"/>
		<path class="st1" d="M740.5,418.9h-1.9v-7.3l-2.3,1v-1.9l4.2-1.7V418.9z"/>
		<path class="st1" d="M746,415.5c-0.1,0-0.3,0-0.4,0c-2,0-3.4-1.4-3.4-3.3s1.6-3.3,3.7-3.3c2.1,0,3.7,1.4,3.7,3.3
			c0,0.9-0.3,1.7-0.9,2.6l-2.7,4.1h-2.3L746,415.5z M747.5,412.3c0-1-0.7-1.6-1.7-1.6s-1.7,0.7-1.7,1.6s0.7,1.6,1.7,1.6
			S747.5,413.2,747.5,412.3z"/>
	</g>
	<g>
		<path class="st1" d="M787,410.7c0.5-0.7,1.5-1.7,3.3-1.7c2.1,0,3.3,1.3,3.3,3.2c0,1.2-0.6,2-1.4,2.9l-2.1,2.2h3.7v1.8h-6.5v-1.5
			l3.5-3.6c0.5-0.5,0.8-1.1,0.8-1.7c0-0.9-0.6-1.5-1.5-1.5s-1.5,0.5-2,1.1L787,410.7z"/>
		<path class="st1" d="M803.6,414c0,3.2-1.9,5.1-4.2,5.1s-4.2-1.9-4.2-5.1s1.9-5.1,4.2-5.1C801.7,409,803.6,410.9,803.6,414z
			 M797.1,414c0,2.1,1,3.3,2.3,3.3s2.3-1.1,2.3-3.3c0-2.1-1-3.3-2.3-3.3C798.1,410.8,797.1,411.9,797.1,414z"/>
		<path class="st1" d="M804.8,410.7c0.5-0.7,1.5-1.7,3.3-1.7c2.1,0,3.3,1.3,3.3,3.2c0,1.2-0.6,2-1.4,2.9l-2.1,2.2h3.7v1.8h-6.5v-1.5
			l3.5-3.6c0.5-0.5,0.8-1.1,0.8-1.7c0-0.9-0.6-1.5-1.5-1.5s-1.5,0.5-2,1.1L804.8,410.7z"/>
		<path class="st1" d="M821.4,414c0,3.2-1.9,5.1-4.2,5.1s-4.2-1.9-4.2-5.1s1.9-5.1,4.2-5.1C819.5,409,821.4,410.9,821.4,414z
			 M814.9,414c0,2.1,1,3.3,2.3,3.3s2.3-1.1,2.3-3.3c0-2.1-1-3.3-2.3-3.3C815.9,410.8,814.9,411.9,814.9,414z"/>
	</g>
	<g>
		<path class="st1" d="M859.5,410.7c0.5-0.7,1.5-1.7,3.3-1.7c2.1,0,3.3,1.3,3.3,3.2c0,1.2-0.6,2-1.4,2.9l-2.1,2.2h3.7v1.8h-6.5v-1.5
			l3.5-3.6c0.5-0.5,0.8-1.1,0.8-1.7c0-0.9-0.6-1.5-1.5-1.5s-1.5,0.5-2,1.1L859.5,410.7z"/>
		<path class="st1" d="M876.1,414c0,3.2-1.9,5.1-4.2,5.1s-4.2-1.9-4.2-5.1s1.9-5.1,4.2-5.1C874.2,409,876.1,410.9,876.1,414z
			 M869.6,414c0,2.1,1,3.3,2.3,3.3s2.3-1.1,2.3-3.3c0-2.1-1-3.3-2.3-3.3C870.6,410.8,869.6,411.9,869.6,414z"/>
		<path class="st1" d="M877.2,410.7c0.5-0.7,1.5-1.7,3.3-1.7c2.1,0,3.3,1.3,3.3,3.2c0,1.2-0.6,2-1.4,2.9l-2.1,2.2h3.7v1.8h-6.5v-1.5
			l3.5-3.6c0.5-0.5,0.8-1.1,0.8-1.7c0-0.9-0.6-1.5-1.5-1.5s-1.5,0.5-2,1.1L877.2,410.7z"/>
		<path class="st1" d="M889.3,418.9h-1.9v-7.3l-2.3,1v-1.9l4.2-1.7V418.9z"/>
	</g>
	<g>
		<path class="st1" d="M928.7,410.7c0.5-0.7,1.5-1.7,3.3-1.7c2.1,0,3.3,1.3,3.3,3.2c0,1.2-0.6,2-1.4,2.9l-2.1,2.2h3.7v1.8H929v-1.5
			l3.5-3.6c0.5-0.5,0.8-1.1,0.8-1.7c0-0.9-0.6-1.5-1.5-1.5s-1.5,0.5-2,1.1L928.7,410.7z"/>
		<path class="st1" d="M945.3,414c0,3.2-1.9,5.1-4.2,5.1s-4.2-1.9-4.2-5.1s1.9-5.1,4.2-5.1C943.4,409,945.3,410.9,945.3,414z
			 M938.8,414c0,2.1,1,3.3,2.3,3.3s2.3-1.1,2.3-3.3c0-2.1-1-3.3-2.3-3.3C939.8,410.8,938.8,411.9,938.8,414z"/>
		<path class="st1" d="M946.5,410.7c0.5-0.7,1.5-1.7,3.3-1.7c2.1,0,3.3,1.3,3.3,3.2c0,1.2-0.6,2-1.4,2.9l-2.1,2.2h3.7v1.8h-6.5v-1.5
			l3.5-3.6c0.5-0.5,0.8-1.1,0.8-1.7c0-0.9-0.6-1.5-1.5-1.5s-1.5,0.5-2,1.1L946.5,410.7z"/>
		<path class="st1" d="M954.4,410.7c0.5-0.7,1.5-1.7,3.3-1.7c2.1,0,3.3,1.3,3.3,3.2c0,1.2-0.6,2-1.4,2.9l-2.1,2.2h3.7v1.8h-6.5v-1.5
			l3.5-3.6c0.5-0.5,0.8-1.1,0.8-1.7c0-0.9-0.6-1.5-1.5-1.5s-1.5,0.5-2,1.1L954.4,410.7z"/>
	</g>
	<g>
		<path class="st1" d="M999,410.7c0.5-0.7,1.5-1.7,3.3-1.7c2.1,0,3.3,1.3,3.3,3.2c0,1.2-0.6,2-1.4,2.9l-2.1,2.2h3.7v1.8h-6.5v-1.5
			l3.5-3.6c0.5-0.5,0.8-1.1,0.8-1.7c0-0.9-0.6-1.5-1.5-1.5s-1.5,0.5-2,1.1L999,410.7z"/>
		<path class="st1" d="M1015.6,414c0,3.2-1.9,5.1-4.2,5.1s-4.2-1.9-4.2-5.1s1.9-5.1,4.2-5.1C1013.7,409,1015.6,410.9,1015.6,414z
			 M1009.1,414c0,2.1,1,3.3,2.3,3.3s2.3-1.1,2.3-3.3c0-2.1-1-3.3-2.3-3.3C1010.1,410.8,1009.1,411.9,1009.1,414z"/>
		<path class="st1" d="M1016.7,410.7c0.5-0.7,1.5-1.7,3.3-1.7c2.1,0,3.3,1.3,3.3,3.2c0,1.2-0.6,2-1.4,2.9l-2.1,2.2h3.7v1.8h-6.5
			v-1.5l3.5-3.6c0.5-0.5,0.8-1.1,0.8-1.7c0-0.9-0.6-1.5-1.5-1.5s-1.5,0.5-2,1.1L1016.7,410.7z"/>
		<path class="st1" d="M1031.3,411.8c0,1-0.6,1.8-1.5,2.2c1,0.4,1.7,1.2,1.7,2.2c0,1.9-1.8,2.9-3.6,2.9c-1.5,0-2.7-0.5-3.4-1.4
			l1.1-1.2c0.6,0.6,1.4,0.9,2.2,0.9c1,0,1.7-0.4,1.7-1.3c0-0.8-0.9-1.3-1.9-1.3h-1.1v-1.7h1.1c1,0,1.7-0.4,1.7-1.2
			c0-0.8-0.7-1.2-1.6-1.2s-1.6,0.5-2,1l-1.2-1.2c0.6-0.9,1.7-1.5,3.3-1.5C1029.9,409,1031.3,410.1,1031.3,411.8z"/>
	</g>
	<g>
		<path class="st1" d="M1069.2,410.7c0.5-0.7,1.5-1.7,3.3-1.7c2.1,0,3.3,1.3,3.3,3.2c0,1.2-0.6,2-1.4,2.9l-2.1,2.2h3.7v1.8h-6.5
			v-1.5l3.5-3.6c0.5-0.5,0.8-1.1,0.8-1.7c0-0.9-0.6-1.5-1.5-1.5s-1.5,0.5-2,1.1L1069.2,410.7z"/>
		<path class="st1" d="M1085.8,414c0,3.2-1.9,5.1-4.2,5.1c-2.3,0-4.2-1.9-4.2-5.1s1.9-5.1,4.2-5.1
			C1083.9,409,1085.8,410.9,1085.8,414z M1079.3,414c0,2.1,1,3.3,2.3,3.3s2.3-1.1,2.3-3.3c0-2.1-1-3.3-2.3-3.3
			C1080.3,410.8,1079.3,411.9,1079.3,414z"/>
		<path class="st1" d="M1087,410.7c0.5-0.7,1.5-1.7,3.3-1.7c2.1,0,3.3,1.3,3.3,3.2c0,1.2-0.6,2-1.4,2.9l-2.1,2.2h3.7v1.8h-6.5v-1.5
			l3.5-3.6c0.5-0.5,0.8-1.1,0.8-1.7c0-0.9-0.6-1.5-1.5-1.5s-1.5,0.5-2,1.1L1087,410.7z"/>
		<path class="st1" d="M1100.9,415.4h1.4v1.8h-1.4v1.8h-1.9v-1.8h-4.3v-1.4l3.4-6.6h2.1l-3.3,6.2h2.1v-2.6h1.9L1100.9,415.4
			L1100.9,415.4z"/>
	</g>
	<g>
		<path class="st1" d="M1139.6,410.7c0.5-0.7,1.5-1.7,3.3-1.7c2.1,0,3.3,1.3,3.3,3.2c0,1.2-0.6,2-1.4,2.9l-2.1,2.2h3.7v1.8h-6.5
			v-1.5l3.5-3.6c0.5-0.5,0.8-1.1,0.8-1.7c0-0.9-0.6-1.5-1.5-1.5s-1.5,0.5-2,1.1L1139.6,410.7z"/>
		<path class="st1" d="M1156.2,414c0,3.2-1.9,5.1-4.2,5.1c-2.3,0-4.2-1.9-4.2-5.1s1.9-5.1,4.2-5.1
			C1154.3,409,1156.2,410.9,1156.2,414z M1149.7,414c0,2.1,1,3.3,2.3,3.3s2.3-1.1,2.3-3.3c0-2.1-1-3.3-2.3-3.3
			C1150.7,410.8,1149.7,411.9,1149.7,414z"/>
		<path class="st1" d="M1157.3,410.7c0.5-0.7,1.5-1.7,3.3-1.7c2.1,0,3.3,1.3,3.3,3.2c0,1.2-0.6,2-1.4,2.9l-2.1,2.2h3.7v1.8h-6.5
			v-1.5l3.5-3.6c0.5-0.5,0.8-1.1,0.8-1.7c0-0.9-0.6-1.5-1.5-1.5s-1.5,0.5-2,1.1L1157.3,410.7z"/>
		<path class="st1" d="M1171.7,410.9h-4v2h1.1c2.3,0,3.4,1.3,3.4,2.9c0,2.1-1.6,3.3-3.6,3.3c-1.5,0-2.7-0.5-3.5-1.5l1.1-1.3
			c0.5,0.6,1.5,1,2.4,1c1.1,0,1.6-0.6,1.6-1.4c0-0.7-0.5-1.4-2-1.4h-2.3l0.1-5.4h5.6v1.8H1171.7z"/>
	</g>
	<g>
		<path class="st1" d="M95,308.4c0,1.8-0.9,3.1-2.5,3.8c1.8,0.7,2.9,2,2.9,3.9c0,3.3-3,4.9-6.2,4.9c-2.5,0-4.6-0.9-5.9-2.4l1.9-2.1
			c1,1,2.4,1.6,3.8,1.6c1.6,0,2.9-0.7,2.9-2.2c0-1.4-1.5-2.2-3.3-2.2h-2v-2.9h2c1.6,0,2.9-0.7,2.9-2.1s-1.2-2.1-2.8-2.1
			c-1.6,0-2.7,0.8-3.4,1.7l-2-2.1c1.1-1.5,2.9-2.6,5.6-2.6C92.6,303.6,95,305.5,95,308.4z"/>
		<path class="st1" d="M104.3,320.7h-3.2v-12.5l-4,1.6v-3.3l7.3-2.9v17.1H104.3z"/>
		<path class="st1" d="M118.2,306.9h-6.8l-0.1,3.4h1.9c3.9,0,5.9,2.2,5.9,5c0,3.6-2.7,5.7-6.1,5.7c-2.5,0-4.6-0.9-5.9-2.5l1.8-2.3
			c0.9,1,2.6,1.8,4.1,1.8c1.9,0,2.8-1.1,2.8-2.4s-0.8-2.4-3.4-2.4h-4l0.2-9.3h9.7L118.2,306.9L118.2,306.9z"/>
	</g>
	<g>
		<path class="st1" d="M163.2,301.7c0,1.8-0.9,3.1-2.5,3.8c1.8,0.7,2.9,2,2.9,3.9c0,3.3-3,4.9-6.2,4.9c-2.5,0-4.6-0.9-5.9-2.4
			l1.9-2.1c1,1,2.4,1.6,3.8,1.6c1.6,0,2.9-0.7,2.9-2.2c0-1.4-1.5-2.2-3.3-2.2h-2v-2.9h2c1.6,0,2.9-0.7,2.9-2.1s-1.2-2.1-2.8-2.1
			s-2.7,0.8-3.4,1.7l-2-2.1c1.1-1.5,2.9-2.6,5.6-2.6C160.8,296.9,163.2,298.8,163.2,301.7z"/>
		<path class="st1" d="M175.8,307.9h2.3v3h-2.3v3.1h-3.2v-3.1h-7.4v-2.4l5.9-11.4h3.6l-5.6,10.7h3.6v-4.5h3.2v4.6H175.8z"/>
		<path class="st1" d="M185.4,303.1c0.2,0,0.5,0,0.8,0c3.4,0,5.8,2.4,5.8,5.6c0,3.3-2.7,5.7-6.3,5.7s-6.3-2.4-6.3-5.7
			c0-1.5,0.6-2.9,1.6-4.5l4.7-7h3.9L185.4,303.1z M182.7,308.6c0,1.6,1.3,2.8,2.9,2.8c1.7,0,3-1.1,3-2.8c0-1.6-1.3-2.8-3-2.8
			C184,305.9,182.7,307,182.7,308.6z"/>
	</g>
	<g>
		<path class="st1" d="M233.4,295c0,1.8-0.9,3.1-2.5,3.8c1.8,0.7,2.9,2,2.9,3.9c0,3.3-3,4.9-6.2,4.9c-2.5,0-4.6-0.9-5.9-2.4l1.9-2.1
			c1,1,2.4,1.6,3.8,1.6c1.6,0,2.9-0.7,2.9-2.2c0-1.4-1.5-2.2-3.3-2.2h-2v-2.9h2c1.6,0,2.9-0.7,2.9-2.1s-1.2-2.1-2.8-2.1
			s-2.7,0.8-3.4,1.7l-2-2.1c1.1-1.5,2.9-2.6,5.6-2.6C231,290.2,233.4,292.1,233.4,295z"/>
		<path class="st1" d="M247.4,293.1l-7,14.3h-3.8l6.9-13.8h-8v-3h11.8v2.5H247.4z"/>
		<path class="st1" d="M261.8,295c0,1.9-1.1,3.1-2.6,3.8c1.7,0.6,3,1.8,3,3.9c0,3.1-3,4.9-6.6,4.9s-6.6-1.8-6.6-4.9
			c0-2.1,1.3-3.3,3-3.9c-1.5-0.7-2.6-1.9-2.6-3.8c0-3,2.8-4.8,6.2-4.8C259,290.2,261.8,292,261.8,295z M252.5,302.5
			c0,1.5,1.4,2.3,3.1,2.3s3.1-0.8,3.1-2.3s-1.4-2.3-3.1-2.3S252.5,301,252.5,302.5z M252.9,295.3c0,1.4,1.2,2.2,2.7,2.2
			c1.5,0,2.7-0.8,2.7-2.2c0-1.4-1.2-2.1-2.7-2.1C254.1,293.2,252.9,293.9,252.9,295.3z"/>
	</g>
	<g>
		<path class="st1" d="M302.8,288.1h2.3v3h-2.3v3.1h-3.2v-3.1h-7.4v-2.4l5.9-11.4h3.6l-5.6,10.7h3.6v-4.5h3.2v4.6H302.8z"/>
		<path class="st1" d="M316.8,288.1h2.3v3h-2.3v3.1h-3.2v-3.1h-7.4v-2.4l5.9-11.4h3.6l-5.6,10.7h3.6v-4.5h3.2v4.6H316.8z"/>
		<path class="st1" d="M331.9,281.9c0,1.8-0.9,3.1-2.5,3.8c1.8,0.7,2.9,2,2.9,3.8c0,3.3-3,4.9-6.2,4.9c-2.5,0-4.6-0.9-5.9-2.4
			l1.9-2.1c1,1,2.4,1.6,3.8,1.6c1.6,0,2.9-0.7,2.9-2.2c0-1.4-1.5-2.2-3.3-2.2h-2v-2.9h2c1.6,0,2.9-0.7,2.9-2.1s-1.2-2.1-2.8-2.1
			c-1.6,0-2.7,0.8-3.4,1.7l-2-2.1c1.1-1.5,2.9-2.6,5.6-2.6C329.5,277.1,331.9,279,331.9,281.9z"/>
	</g>
	<g>
		<path class="st1" d="M375.1,286h2.3v3h-2.3v3.1h-3.2V289h-7.4v-2.4l5.9-11.4h3.6l-5.6,10.7h3.6v-4.5h3.2v4.6H375.1z"/>
		<path class="st1" d="M389.8,278.3H383l-0.1,3.4h1.9c3.9,0,5.9,2.2,5.9,5c0,3.6-2.7,5.7-6.1,5.7c-2.5,0-4.6-0.9-5.9-2.5l1.8-2.3
			c0.9,1,2.6,1.8,4.1,1.8c1.9,0,2.8-1.1,2.8-2.4s-0.8-2.4-3.4-2.4h-4l0.2-9.3h9.7v3H389.8z"/>
		<path class="st1" d="M399.8,292.1h-3.2v-12.5l-4,1.6v-3.3l7.3-2.9L399.8,292.1L399.8,292.1z"/>
	</g>
	<g>
		<path class="st1" d="M446.6,264.6h-6.8l-0.1,3.4h1.9c3.9,0,5.9,2.2,5.9,5c0,3.6-2.7,5.7-6.1,5.7c-2.5,0-4.6-0.9-5.9-2.5l1.8-2.3
			c0.9,1,2.6,1.8,4.1,1.8c1.9,0,2.8-1.1,2.8-2.4s-0.8-2.4-3.4-2.4h-4l0.2-9.3h9.7v3H446.6z"/>
		<path class="st1" d="M456.5,278.4h-3.2v-12.5l-4,1.6v-3.3l7.3-2.9L456.5,278.4L456.5,278.4z"/>
		<path class="st1" d="M471.1,264.1l-7,14.3h-3.8l6.9-13.8h-8v-3H471v2.5H471.1z"/>
	</g>
	<g>
		<path class="st1" d="M579.7,242c0.2,0,0.5,0,0.8,0c3.4,0,5.8,2.4,5.8,5.6c0,3.3-2.7,5.7-6.3,5.7s-6.3-2.4-6.3-5.7
			c0-1.5,0.6-2.9,1.6-4.5l4.7-7h3.9L579.7,242z M577.1,247.5c0,1.6,1.3,2.8,2.9,2.8c1.7,0,3-1.1,3-2.8c0-1.6-1.3-2.8-3-2.8
			C578.3,244.8,577.1,245.9,577.1,247.5z"/>
		<path class="st1" d="M599.4,240.6c0,1.8-0.9,3.1-2.5,3.8c1.8,0.7,2.9,2,2.9,3.9c0,3.3-3,4.9-6.2,4.9c-2.5,0-4.6-0.9-5.9-2.4
			l1.9-2.1c1,1,2.4,1.6,3.8,1.6c1.6,0,2.9-0.7,2.9-2.2c0-1.4-1.5-2.2-3.3-2.2h-2V243h2c1.6,0,2.9-0.7,2.9-2.1c0-1.4-1.2-2.1-2.8-2.1
			s-2.7,0.8-3.4,1.7l-2-2.1c1.1-1.5,2.9-2.6,5.6-2.6C597,235.8,599.4,237.7,599.4,240.6z"/>
		<path class="st1" d="M608.2,247.1c-0.2,0-0.5,0-0.8,0c-3.4,0-5.8-2.4-5.8-5.6c0-3.3,2.7-5.7,6.3-5.7s6.3,2.4,6.3,5.7
			c0,1.5-0.6,2.9-1.6,4.5l-4.7,7H604L608.2,247.1z M610.9,241.5c0-1.6-1.3-2.8-2.9-2.8c-1.7,0-2.9,1.1-2.9,2.8
			c0,1.6,1.2,2.8,2.9,2.8C609.6,244.3,610.9,243.1,610.9,241.5z"/>
	</g>
	<g>
		<path class="st1" d="M656.7,216.5l-7,14.3h-3.8l6.9-13.8h-8v-3h11.8L656.7,216.5L656.7,216.5z"/>
		<path class="st1" d="M668.5,224.7h2.3v3h-2.3v3.1h-3.2v-3.1h-7.4v-2.4l5.9-11.4h3.6l-5.6,10.7h3.6v-4.5h3.2L668.5,224.7
			L668.5,224.7z"/>
		<path class="st1" d="M672.1,216.6c0.9-1.2,2.6-2.9,5.7-2.9c3.5,0,5.7,2.2,5.7,5.4c0,2.1-1,3.5-2.4,4.9l-3.6,3.7h6.4v3h-11.1v-2.5
			l5.9-6.1c0.9-0.9,1.4-1.8,1.4-2.9c0-1.5-1-2.5-2.6-2.5s-2.5,0.9-3.4,1.8L672.1,216.6z"/>
	</g>
	<g>
		<path class="st1" d="M724.2,196.9c0,1.9-1.1,3.1-2.6,3.8c1.7,0.6,3,1.8,3,3.9c0,3.1-3,4.9-6.6,4.9s-6.6-1.8-6.6-4.9
			c0-2.1,1.3-3.3,3-3.9c-1.5-0.7-2.6-1.9-2.6-3.8c0-3,2.8-4.8,6.2-4.8C721.5,192.1,724.2,193.9,724.2,196.9z M715,204.3
			c0,1.5,1.4,2.3,3.1,2.3c1.7,0,3.1-0.8,3.1-2.3s-1.4-2.3-3.1-2.3S715,202.8,715,204.3z M715.4,197.1c0,1.4,1.2,2.2,2.7,2.2
			s2.7-0.8,2.7-2.2s-1.2-2.1-2.7-2.1C716.6,195,715.4,195.8,715.4,197.1z"/>
		<path class="st1" d="M736.9,203.1h2.3v3h-2.3v3.1h-3.2v-3.1h-7.4v-2.4l5.9-11.4h3.6l-5.6,10.7h3.6v-4.5h3.2L736.9,203.1
			L736.9,203.1z"/>
		<path class="st1" d="M751.7,195.4h-6.8l-0.1,3.4h1.9c3.9,0,5.9,2.2,5.9,5c0,3.6-2.7,5.7-6.1,5.7c-2.5,0-4.6-0.9-5.9-2.5l1.8-2.3
			c0.9,1,2.6,1.8,4.1,1.8c1.9,0,2.8-1.1,2.8-2.4c0-1.3-0.8-2.4-3.4-2.4h-4l0.2-9.3h9.7v3H751.7z"/>
	</g>
	<g>
		<path class="st1" d="M795.7,196.2c0,1.9-1.1,3.1-2.6,3.8c1.7,0.6,3,1.8,3,3.9c0,3.1-3,4.9-6.6,4.9s-6.6-1.8-6.6-4.9
			c0-2.1,1.3-3.3,3-3.9c-1.5-0.7-2.6-1.9-2.6-3.8c0-3,2.8-4.8,6.2-4.8C793,191.4,795.7,193.2,795.7,196.2z M786.5,203.6
			c0,1.5,1.4,2.3,3.1,2.3c1.7,0,3.1-0.8,3.1-2.3s-1.4-2.3-3.1-2.3S786.5,202.1,786.5,203.6z M786.9,196.5c0,1.4,1.2,2.2,2.7,2.2
			s2.7-0.8,2.7-2.2s-1.2-2.1-2.7-2.1C788.1,194.3,786.9,195.1,786.9,196.5z"/>
		<path class="st1" d="M808.4,202.4h2.3v3h-2.3v3.1h-3.2v-3.1h-7.4V203l5.9-11.4h3.6l-5.6,10.7h3.6v-4.5h3.2L808.4,202.4
			L808.4,202.4z"/>
		<path class="st1" d="M825,196.2c0,1.9-1.1,3.1-2.6,3.8c1.7,0.6,3,1.8,3,3.9c0,3.1-3,4.9-6.6,4.9s-6.6-1.8-6.6-4.9
			c0-2.1,1.3-3.3,3-3.9c-1.5-0.7-2.6-1.9-2.6-3.8c0-3,2.8-4.8,6.2-4.8C822.2,191.4,825,193.2,825,196.2z M815.8,203.6
			c0,1.5,1.4,2.3,3.1,2.3c1.7,0,3.1-0.8,3.1-2.3s-1.4-2.3-3.1-2.3C817.1,201.3,815.8,202.1,815.8,203.6z M816.1,196.5
			c0,1.4,1.2,2.2,2.7,2.2s2.7-0.8,2.7-2.2s-1.2-2.1-2.7-2.1C817.3,194.3,816.1,195.1,816.1,196.5z"/>
	</g>
	<g>
		<path class="st1" d="M861.4,181.7c-0.2,0-0.5,0-0.8,0c-3.4,0-5.8-2.4-5.8-5.6c0-3.3,2.7-5.7,6.3-5.7s6.3,2.4,6.3,5.7
			c0,1.5-0.6,2.9-1.6,4.5l-4.7,7h-3.9L861.4,181.7z M864.1,176.1c0-1.6-1.3-2.8-2.9-2.8c-1.7,0-2.9,1.1-2.9,2.8
			c0,1.6,1.2,2.8,2.9,2.8C862.8,178.9,864.1,177.7,864.1,176.1z"/>
		<path class="st1" d="M879.4,181.4h2.3v3h-2.3v3.1h-3.2v-3.1h-7.4V182l5.9-11.4h3.6l-5.6,10.7h3.6v-4.5h3.2L879.4,181.4
			L879.4,181.4z"/>
		<path class="st1" d="M894.2,173.7h-6.8l-0.1,3.4h1.9c3.9,0,5.9,2.2,5.9,5c0,3.6-2.7,5.7-6.1,5.7c-2.5,0-4.6-0.9-5.9-2.5l1.8-2.3
			c0.9,1,2.6,1.8,4.1,1.8c1.9,0,2.8-1.1,2.8-2.4c0-1.3-0.8-2.4-3.4-2.4h-4l0.2-9.3h9.7v3H894.2z"/>
	</g>
	<g>
		<path class="st1" d="M923.4,164.9h-3.2v-12.5l-4,1.6v-3.3l7.3-2.9L923.4,164.9L923.4,164.9z"/>
		<path class="st1" d="M947,156.5c0,5.4-3.2,8.7-7.2,8.7s-7.2-3.3-7.2-8.7s3.2-8.7,7.2-8.7S947,151.1,947,156.5z M935.9,156.5
			c0,3.7,1.7,5.6,3.9,5.6s3.9-1.9,3.9-5.6s-1.7-5.6-3.9-5.6C937.6,150.9,935.9,152.8,935.9,156.5z"/>
		<path class="st1" d="M960.2,151.1h-6.8l-0.1,3.4h1.9c3.9,0,5.9,2.2,5.9,5c0,3.6-2.7,5.7-6.1,5.7c-2.5,0-4.6-0.9-5.9-2.5l1.8-2.3
			c0.9,1,2.6,1.8,4.1,1.8c1.9,0,2.8-1.1,2.8-2.4c0-1.3-0.8-2.4-3.4-2.4h-4l0.2-9.3h9.7v3H960.2z"/>
		<path class="st1" d="M974.5,152.6c0,1.8-0.9,3.1-2.5,3.8c1.8,0.7,2.9,2,2.9,3.9c0,3.3-3,4.9-6.2,4.9c-2.5,0-4.6-0.9-5.9-2.4
			l1.9-2.1c1,1,2.4,1.6,3.8,1.6c1.6,0,2.9-0.7,2.9-2.2c0-1.4-1.5-2.2-3.3-2.2h-2V155h2c1.6,0,2.9-0.7,2.9-2.1c0-1.4-1.2-2.1-2.8-2.1
			s-2.7,0.8-3.4,1.7l-2-2.1c1.1-1.5,2.9-2.6,5.6-2.6C972.1,147.8,974.5,149.7,974.5,152.6z"/>
	</g>
	<g>
		<path class="st1" d="M997.6,139h-3.2v-12.5l-4,1.6v-3.3l7.3-2.9L997.6,139L997.6,139z"/>
		<path class="st1" d="M1013.4,139h-3.2v-12.5l-4,1.6v-3.3l7.3-2.9L1013.4,139L1013.4,139z"/>
		<path class="st1" d="M1028,124.8l-7,14.3h-3.8l6.9-13.8h-8v-3h11.8L1028,124.8L1028,124.8z"/>
		<path class="st1" d="M1040.9,126.8c0,1.8-0.9,3.1-2.5,3.8c1.8,0.7,2.9,2,2.9,3.9c0,3.3-3,4.9-6.2,4.9c-2.5,0-4.6-0.9-5.9-2.4
			l1.9-2.1c1,1,2.4,1.6,3.8,1.6c1.6,0,2.9-0.7,2.9-2.2c0-1.4-1.5-2.2-3.3-2.2h-2v-2.9h2c1.6,0,2.9-0.7,2.9-2.1s-1.2-2.1-2.8-2.1
			c-1.6,0-2.7,0.8-3.4,1.7l-2-2.1c1.1-1.5,2.9-2.6,5.6-2.6C1038.5,121.9,1040.9,123.9,1040.9,126.8z"/>
	</g>
	<g>
		<path class="st1" d="M1064.4,110.4h-3.2V97.9l-4,1.6v-3.3l7.3-2.9v17.1H1064.4z"/>
		<path class="st1" d="M1084.7,98.2c0,1.8-0.9,3.1-2.5,3.8c1.8,0.7,2.9,2,2.9,3.9c0,3.3-3,4.9-6.2,4.9c-2.5,0-4.6-0.9-5.9-2.4
			l1.9-2.1c1,1,2.4,1.6,3.8,1.6c1.6,0,2.9-0.7,2.9-2.2c0-1.4-1.5-2.2-3.3-2.2h-2v-2.9h2c1.6,0,2.9-0.7,2.9-2.1s-1.2-2.1-2.8-2.1
			c-1.6,0-2.7,0.8-3.4,1.7l-2-2.1c1.1-1.5,2.9-2.6,5.6-2.6C1082.2,93.3,1084.7,95.2,1084.7,98.2z"/>
		<path class="st1" d="M1101.8,102c0,5.4-3.2,8.7-7.2,8.7s-7.2-3.3-7.2-8.7s3.2-8.7,7.2-8.7C1098.5,93.3,1101.8,96.6,1101.8,102z
			 M1090.7,102c0,3.7,1.7,5.6,3.9,5.6c2.2,0,3.9-1.9,3.9-5.6s-1.7-5.6-3.9-5.6C1092.4,96.4,1090.7,98.4,1090.7,102z"/>
		<path class="st1" d="M1115.6,96.2l-7,14.3h-3.8l6.9-13.8h-8v-3h11.8L1115.6,96.2L1115.6,96.2z"/>
	</g>
	<g>
		<path class="st1" d="M1135.6,79.3h-3.2V66.8l-4,1.6v-3.3l7.3-2.9v17.1H1135.6z"/>
		<path class="st1" d="M1154.7,73.2h2.3v3h-2.3v3.1h-3.2v-3.1h-7.4v-2.4l5.9-11.4h3.6l-5.6,10.7h3.6v-4.5h3.2L1154.7,73.2
			L1154.7,73.2z"/>
		<path class="st1" d="M1169.5,65.5h-6.8l-0.1,3.4h1.9c3.9,0,5.9,2.2,5.9,5c0,3.6-2.7,5.7-6.1,5.7c-2.5,0-4.6-0.9-5.9-2.5l1.8-2.3
			c0.9,1,2.6,1.8,4.1,1.8c1.9,0,2.8-1.1,2.8-2.4s-0.8-2.4-3.4-2.4h-4l0.2-9.3h9.7L1169.5,65.5L1169.5,65.5z"/>
		<path class="st1" d="M1178.3,68.4c0.2,0,0.5,0,0.8,0c3.4,0,5.8,2.4,5.8,5.6c0,3.3-2.7,5.7-6.3,5.7c-3.6,0-6.3-2.4-6.3-5.7
			c0-1.5,0.6-2.9,1.6-4.5l4.7-7h3.9L1178.3,68.4z M1175.7,73.9c0,1.6,1.3,2.8,2.9,2.8c1.7,0,3-1.1,3-2.8c0-1.6-1.3-2.8-3-2.8
			C1176.9,71.2,1175.7,72.3,1175.7,73.9z"/>
	</g>
	<g>
		<path class="st1" d="M514.2,251.7h-6.8l-0.1,3.4h1.9c3.9,0,5.9,2.2,5.9,5c0,3.6-2.7,5.7-6.1,5.7c-2.5,0-4.6-0.9-5.9-2.5l1.8-2.3
			c0.9,1,2.6,1.8,4.1,1.8c1.9,0,2.8-1.1,2.8-2.4s-0.8-2.4-3.4-2.4h-4l0.2-9.3h9.7v3H514.2z"/>
		<path class="st1" d="M528.8,251.2l-7,14.3H518l6.9-13.8h-8v-3h11.8L528.8,251.2L528.8,251.2z"/>
		<path class="st1" d="M543.2,253.2c0,1.9-1.1,3.1-2.6,3.8c1.7,0.6,3,1.8,3,3.9c0,3.1-3,4.9-6.6,4.9s-6.6-1.8-6.6-4.9
			c0-2.1,1.3-3.2,3-3.9c-1.5-0.7-2.6-1.9-2.6-3.8c0-3,2.8-4.8,6.2-4.8C540.5,248.4,543.2,250.2,543.2,253.2z M534,260.6
			c0,1.5,1.4,2.3,3.1,2.3c1.7,0,3.1-0.8,3.1-2.3s-1.4-2.3-3.1-2.3C535.4,258.3,534,259.1,534,260.6z M534.4,253.5
			c0,1.4,1.2,2.2,2.7,2.2s2.7-0.8,2.7-2.2s-1.2-2.1-2.7-2.1C535.6,251.3,534.4,252.1,534.4,253.5z"/>
	</g>
	<g>
		<g>
			<path class="st1" d="M15.7,312.6v2.4l-2.6,1v4.8l2.6,1v2.3l-11.2-4.4V317L15.7,312.6z M11,320v-3.2l-4.3,1.6L11,320z"/>
			<path class="st1" d="M9.2,304.6l1.3,1.5c-0.5,0.5-0.8,1-0.8,1.7c0,1.1,0.8,1.9,2.1,1.9c1.3,0,2.1-0.9,2.1-1.9
				c0-0.7-0.3-1.2-0.8-1.7l1.3-1.5c0.9,0.7,1.5,1.8,1.5,3.1c0,2.5-1.7,4.1-4.1,4.1c-2.3,0-4.1-1.7-4.1-4.1
				C7.7,306.4,8.3,305.3,9.2,304.6z"/>
			<path class="st1" d="M9.8,297.5v2.8h2.8c1,0,1.3-0.5,1.3-1.2c0-0.5-0.2-1-0.5-1.5l1.6-0.8c0.5,0.7,0.8,1.5,0.8,2.6
				c0,1.9-1.1,2.9-3.1,2.9h-3v1.5H7.9v-1.5H5.6v-2.1h2.3v-2.8H9.8z"/>
			<path class="st1" d="M5.4,293.3c0.8,0,1.3,0.6,1.3,1.3c0,0.8-0.6,1.3-1.3,1.3c-0.8,0-1.3-0.6-1.3-1.3
				C4.1,293.9,4.6,293.3,5.4,293.3z M15.7,293.6v2.1H7.9v-2.1H15.7z"/>
			<path class="st1" d="M9.8,286.2v2.4h5.9v2.1H9.8v1.4H7.9v-1.4H7c-1.8,0-3-1-3-2.8c0-1.1,0.3-1.8,0.7-2.4l1.6,0.8
				c-0.2,0.4-0.4,0.8-0.4,1.3c0,0.6,0.4,0.9,1.1,0.9h0.9v-2.4H9.8z"/>
			<path class="st1" d="M8.8,275.1H7.9v-2H15c2.5,0,4,1.6,4,4.2c0,1.2-0.3,2.5-0.9,3.4l-1.7-0.7c0.5-0.8,0.8-1.6,0.8-2.6
				c0-1.3-0.7-2.2-2.1-2.2h-0.5c0.6,0.5,1,1.3,1,2.4c0,1.9-1.6,3.6-4,3.6c-2.4,0-4-1.7-4-3.6C7.7,276.5,8.1,275.7,8.8,275.1z
				 M11.7,279c1.1,0,2-0.8,2-2c0-1.2-0.9-1.9-2-1.9c-1.2,0-2,0.8-2,1.9C9.6,278.2,10.6,279,11.7,279z"/>
			<path class="st1" d="M6.8,268.9l-2.5-1.6v-2.5l2.5,2.1V268.9z M11.8,263.7c0.2,0,0.5,0,0.7,0v5.5c1.1-0.2,1.6-1,1.6-2
				c0-0.7-0.3-1.4-0.7-2l1.3-1.2c0.8,0.9,1.2,2,1.2,3.3c0,2.4-1.6,4-4.1,4c-2.4,0-4.1-1.6-4.1-3.9C7.7,265.2,9.4,263.7,11.8,263.7z
				 M11.1,269.2v-3.4c-1,0.2-1.6,0.8-1.6,1.7C9.5,268.5,10.1,269,11.1,269.2z"/>
			<path class="st1" d="M7.9,256.7L10,257c-0.2,0.3-0.2,0.8-0.2,1.3c0,1,0.6,1.6,1.7,1.6h4.2v2.1H7.9v-2h0.8
				c-0.7-0.5-1.1-1.2-1.1-2.2C7.7,257.3,7.8,257,7.9,256.7z"/>
			<path class="st1" d="M6.8,253.2l-2.5-1.6v-2.5l2.5,2.1V253.2z M11.8,248.1c0.2,0,0.5,0,0.7,0v5.5c1.1-0.2,1.6-1,1.6-2
				c0-0.7-0.3-1.4-0.7-2l1.3-1.2c0.8,0.9,1.2,2,1.2,3.3c0,2.4-1.6,4-4.1,4c-2.4,0-4.1-1.6-4.1-3.9C7.7,249.6,9.4,248.1,11.8,248.1z
				 M11.1,253.6v-3.4c-1,0.2-1.6,0.8-1.6,1.7C9.5,252.8,10.1,253.4,11.1,253.6z"/>
			<path class="st1" d="M6,237.2c1,2.1,2.9,3.2,5.2,3.2c2.2,0,4.2-1.1,5.2-3.2l1.9,0.7c-1.1,2.8-3.8,4.7-7,4.7c-3.3,0-6-1.9-7-4.7
				L6,237.2z"/>
			<path class="st1" d="M10.7,223.1h4.9v2.1h-4.3c-1.1,0-1.7,0.6-1.7,1.5c0,0.9,0.6,1.6,1.8,1.6h4.2v2.1h-4.3
				c-1.1,0-1.7,0.6-1.7,1.5c0,0.9,0.6,1.6,1.8,1.6h4.2v2.1H7.9v-2h0.9c-0.8-0.6-1.1-1.4-1.1-2.3c0-1.1,0.5-2,1.3-2.6
				c-1-0.6-1.3-1.6-1.3-2.6C7.7,224.3,8.9,223.1,10.7,223.1z"/>
			<path class="st1" d="M5.4,218.6c0.8,0,1.3,0.6,1.3,1.3c0,0.8-0.6,1.3-1.3,1.3c-0.8,0-1.3-0.6-1.3-1.3
				C4.1,219.2,4.6,218.6,5.4,218.6z M15.7,218.9v2.1H7.9v-2.1H15.7z"/>
			<path class="st1" d="M15.7,214.6v2.1H4.2v-2.1H15.7z"/>
			<path class="st1" d="M15.7,210.3v2.1H4.2v-2.1H15.7z"/>
			<path class="st1" d="M5.4,205.7c0.8,0,1.3,0.6,1.3,1.3s-0.6,1.3-1.3,1.3c-0.8,0-1.3-0.6-1.3-1.3S4.6,205.7,5.4,205.7z M15.7,206
				v2.1H7.9V206H15.7z"/>
			<path class="st1" d="M15.7,196.2v2h-0.9c0.6,0.5,1.1,1.3,1.1,2.3c0,2.1-1.8,3.8-4.1,3.8s-4.1-1.6-4.1-3.8c0-1.1,0.4-1.8,1.1-2.3
				H7.9v-2H15.7z M11.8,202.2c1.2,0,2.1-0.8,2.1-2c0-1.2-0.9-2-2.1-2s-2.1,0.8-2.1,2C9.7,201.4,10.6,202.2,11.8,202.2z"/>
			<path class="st1" d="M7.9,188.7L10,189c-0.2,0.3-0.2,0.8-0.2,1.3c0,1,0.6,1.6,1.7,1.6h4.2v2.1H7.9v-2h0.8
				c-0.7-0.5-1.1-1.2-1.1-2.2C7.7,189.3,7.8,189,7.9,188.7z"/>
			<path class="st1" d="M8.7,181.7H4.2v-2.1h11.5v2h-0.9c0.6,0.5,1.1,1.3,1.1,2.3c0,2.1-1.8,3.8-4.1,3.8s-4.1-1.6-4.1-3.8
				C7.7,183,8.1,182.2,8.7,181.7z M11.8,185.6c1.2,0,2.1-0.8,2.1-2c0-1.2-0.9-2-2.1-2s-2.1,0.8-2.1,2
				C9.7,184.9,10.6,185.6,11.8,185.6z"/>
			<path class="st1" d="M10.1,171.9c-0.3,0.6-0.6,1.6-0.6,2.5c0,0.8,0.3,1.2,0.7,1.2c0.4,0,0.6-0.6,0.7-1.3l0.1-0.7
				c0.3-1.7,1-2.6,2.3-2.6c1.6,0,2.6,1.3,2.6,3.6c0,1.1-0.2,2.4-0.9,3.4l-1.6-0.8c0.4-0.7,0.8-1.5,0.8-2.6c0-1-0.3-1.4-0.7-1.4
				c-0.4,0-0.6,0.4-0.7,1.3l-0.1,0.6c-0.2,1.8-1,2.7-2.4,2.7c-1.6,0-2.5-1.2-2.5-3.3c0-1.2,0.2-2.2,0.7-3.2L10.1,171.9z"/>
			<path class="st1" d="M3.2,159.8h1.5c0.1-1.3,0.5-2.4,1.1-3.3l1.7,1c-0.4,0.7-0.7,1.4-0.9,2.3h2.5c0.3-2,1.2-3.5,3-3.4
				c2,0,3,1.6,3.3,3.4h1.6v1.8h-1.5c-0.1,1.4-0.6,2.8-1.3,3.8l-1.7-1.1c0.5-0.6,0.9-1.6,1.1-2.7H11l0,0.1c-0.3,2-1.2,3.4-3.1,3.3
				c-1.8,0-3-1.5-3.2-3.4H3.2V159.8z M8.9,161.6H6.7c0.2,0.7,0.6,1.2,1.2,1.2C8.4,162.9,8.7,162.4,8.9,161.6z M11.3,159.8h2.2
				c-0.2-0.7-0.6-1.2-1.2-1.2C11.8,158.6,11.5,159,11.3,159.8z"/>
			<path class="st1" d="M11.2,144.5c3.1,0,4.7,2,4.7,4.8c0,2.8-1.6,4.8-4.7,4.8H4.5v-2.2h6.6c1.8,0,2.6-1,2.6-2.6
				c0-1.5-0.8-2.6-2.6-2.6H4.5v-2.2H11.2z"/>
			<path class="st1" d="M7.3,134.5c-0.5,0.9-1,2-1,3.2c0,1.3,0.5,2.1,1.3,2.1c0.8,0,1.1-1,1.3-2.3l0.1-0.6c0.3-2,1.2-3.6,3.1-3.6
				c2.5,0,3.6,2.2,3.6,4.6c0,1.7-0.5,3.5-1.5,4.7l-1.8-1.2c0.6-0.8,1.2-2.1,1.2-3.6c0-1.2-0.5-2.2-1.4-2.2c-0.8,0-1.1,0.8-1.3,2.4
				l-0.1,0.7c-0.3,2-1.2,3.4-3.2,3.4c-2.3,0-3.5-2.1-3.5-4.5c0-1.6,0.4-2.9,1.2-4.3L7.3,134.5z"/>
			<path class="st1" d="M16.3,132c-1-2.1-2.9-3.2-5.2-3.2c-2.2,0-4.2,1.1-5.2,3.2l-1.9-0.7c1.1-2.8,3.8-4.7,7-4.7c3.3,0,6,1.9,7,4.7
				L16.3,132z"/>
		</g>
	</g>
</g>
</svg>
