<svg id="Layer_1" data-name="Layer 1" xmlns="http://www.w3.org/2000/svg" viewBox="0 0 135.44 133.93"><defs><style>.cls-1{fill:#7d4596;}.cls-2{fill:#203231;}.cls-3{fill:#fff;}.cls-4{fill:#ed5b36;}</style></defs><ellipse class="cls-1" cx="118.62" cy="122.49" rx="60" ry="60.05" transform="translate(-67.52 179.27) rotate(-87.49)"/><path class="cls-2" d="M129.2,56.36A62.73,62.73,0,0,1,164.78,67.2a60.25,60.25,0,0,1,7.53,5.91c1.2,1,2.3,2.22,3.44,3.34s2.19,2.35,3.19,3.61a68.07,68.07,0,0,1,10,16.5,65.86,65.86,0,0,1,3.85,38.08,69.59,69.59,0,0,1-17.37,33.9,68.17,68.17,0,0,1-69.83,18.78,67.54,67.54,0,0,1-31-20.41,65.84,65.84,0,0,1-15.29-33.42l.69-.12a65.43,65.43,0,0,0,16.21,32.1,64.48,64.48,0,0,0,65.65,18.14,62.86,62.86,0,0,0,39.06-33.51c.66-1.3,1.16-2.68,1.73-4s1-2.74,1.4-4.15a59.27,59.27,0,0,0,2-8.51,66.74,66.74,0,0,0-3.53-34.25,63.28,63.28,0,0,0-8.35-15.31,65.74,65.74,0,0,0-12.2-12.69,69.37,69.37,0,0,0-32.71-14.11Z" transform="translate(-58.56 -56.36)"/><path class="cls-3" d="M159.58,125a40.51,40.51,0,1,1-40.52-40.5A40.52,40.52,0,0,1,159.58,125" transform="translate(-58.56 -56.36)"/><path class="cls-4" d="M123.86,95.15v6.56a33.42,33.42,0,0,1,14.8,5l-4.44,7.6a28,28,0,0,0-10.36-3.87v11.32c8.69,1.34,15.43,5.17,15.25,13.26-.21,8.76-6.91,13.52-15.21,14.73v7H116v-6.84c-6.28-.54-12.59-2.56-16.92-6l4.86-7.52a26.44,26.44,0,0,0,12,4.82V129.85l-.39-.07c-8.69-1.39-15-5.15-14.79-13.59.14-8,6.45-13.2,15.18-14.4V95.15ZM116,120.41v-9.79c-3.3.78-5.36,2.56-5.43,5.11S112.51,119.52,116,120.41Zm7.88,10.78V141c3.26-.78,5.43-2.52,5.5-5.18C129.4,133.5,127.45,132.11,123.87,131.19Z" transform="translate(-58.56 -56.36)"/><path class="cls-3" d="M159.58,125a40.51,40.51,0,1,1-40.52-40.5A40.52,40.52,0,0,1,159.58,125" transform="translate(-58.56 -56.36)"/><path class="cls-1" d="M123.86,95.15v6.56a33.42,33.42,0,0,1,14.8,5l-4.44,7.6a28,28,0,0,0-10.36-3.87v11.32c8.69,1.34,15.43,5.17,15.25,13.26-.21,8.76-6.91,13.52-15.21,14.73v7H116v-6.84c-6.28-.54-12.59-2.56-16.92-6l4.86-7.52a26.44,26.44,0,0,0,12,4.82V129.85l-.39-.07c-8.69-1.39-15-5.15-14.79-13.59.14-8,6.45-13.2,15.18-14.4V95.15ZM116,120.41v-9.79c-3.3.78-5.36,2.56-5.43,5.11S112.51,119.52,116,120.41Zm7.88,10.78V141c3.26-.78,5.43-2.52,5.5-5.18C129.4,133.5,127.45,132.11,123.87,131.19Z" transform="translate(-58.56 -56.36)"/></svg>