<svg xmlns="http://www.w3.org/2000/svg" width="150" height="150" viewBox="0 0 150 150"><defs><style>.a{fill:none;}.b{fill:#ed5a36;}.c{fill:#203232;}</style></defs><path class="a" d="M90.71,53.55l33.75-40.43c-.7-.62-1.41-1.22-2.14-1.8v0l-38.5,45Z"/><path class="a" d="M67.4,124.88a50.78,50.78,0,0,0,13.81-2.54c27.26-8.79,47.13-34.4,39.24-71.79l-.09-.3L67.51,73.19Z"/><path class="a" d="M30.88,29.26a60.19,60.19,0,0,0-4.51,4L57.64,74.2l-.85,50.14c1.62.24,3.27.42,4.94.51L61.85,72l-.31-.43Z"/><path class="b" d="M138.64,33.94a50.6,50.6,0,0,0-14.18-20.82L90.71,53.55Z"/><path class="b" d="M26.37,33.27C16.24,43.25,10.91,56.12,10.88,71a53.84,53.84,0,0,0,45.91,53.32l.85-50.14Z"/><path class="c" d="M145.82,37.5,145,34.82A56.76,56.76,0,0,0,123.39,5.07l-2.27-1.66L81,58.44Zm-23.5-26.13v0a50.88,50.88,0,0,1,16.32,22.62L90.71,53.55l-6.89,2.82Z"/><path class="c" d="M120.45,50.55c7.89,37.39-12,63-39.24,71.79a50.78,50.78,0,0,1-13.81,2.54l.11-51.69,52.85-22.94h0L72.05,65.81,102,24.86,99.7,23.2C79.29,8.3,53.09,7.7,32.19,21.43l-.06-.09L29.85,23c-.76.54-1.5,1.09-2.23,1.66l-.05,0h0A58.07,58.07,0,0,0,5.25,71a59.49,59.49,0,0,0,56.47,59.48v.08h5.62v-.05A56.85,56.85,0,0,0,82.9,127.7a59.48,59.48,0,0,0,38.32-74.78ZM56.79,124.34A53.84,53.84,0,0,1,10.88,71c0-14.9,5.36-27.77,15.49-37.75a60.19,60.19,0,0,1,4.51-4L61.54,71.61l.31.43-.12,52.81C60.06,124.76,58.41,124.58,56.79,124.34Z"/><path class="c" d="M120.39,50.23l0,0,.09.3C120.43,50.44,120.42,50.34,120.39,50.23Z"/></svg>