<?xml version="1.0" encoding="utf-8"?>
<!-- Generator: Adobe Illustrator 25.0.1, SVG Export Plug-In . SVG Version: 6.00 Build 0)  -->
<svg version="1.1" id="Layer_1" xmlns="http://www.w3.org/2000/svg" xmlns:xlink="http://www.w3.org/1999/xlink" x="0px" y="0px"
	 viewBox="0 0 150 150" style="enable-background:new 0 0 150 150;" xml:space="preserve">
<style type="text/css">
	.st0{fill:none;}
	.st1{fill:#7C4496;}
	.st2{fill:#203232;}
</style>
<path class="st0" d="M90.7,53.5l33.8-40.4c-0.7-0.6-1.4-1.2-2.1-1.8l0,0l-38.5,45L90.7,53.5z"/>
<path class="st0" d="M67.4,124.9c4.7-0.2,9.3-1.1,13.8-2.5c27.3-8.8,47.1-34.4,39.2-71.8l-0.1-0.3L67.5,73.2L67.4,124.9z"/>
<path class="st0" d="M30.9,29.3c-1.6,1.3-3.1,2.6-4.5,4l31.3,40.9l-0.8,50.1c1.6,0.2,3.3,0.4,4.9,0.5L61.8,72l-0.3-0.4L30.9,29.3z"
	/>
<path class="st1" d="M138.6,33.9c-2.9-8-7.8-15.2-14.2-20.8L90.7,53.5L138.6,33.9z"/>
<path class="st1" d="M26.4,33.3C16.2,43.2,10.9,56.1,10.9,71c0,26.7,19.5,49.4,45.9,53.3l0.8-50.1L26.4,33.3z"/>
<path class="st2" d="M145.8,37.5l-0.8-2.7c-3.7-12-11.3-22.5-21.6-29.8l-2.3-1.7L81,58.4L145.8,37.5z M122.3,11.4L122.3,11.4
	c7.4,5.9,13.1,13.7,16.3,22.6L90.7,53.5l-6.9,2.8L122.3,11.4z"/>
<path class="st2" d="M120.4,50.5c7.9,37.4-12,63-39.2,71.8c-4.5,1.5-9.1,2.3-13.8,2.5l0.1-51.7l52.8-22.9l0,0L72.1,65.8L102,24.9
	l-2.3-1.7C79.3,8.3,53.1,7.7,32.2,21.4l-0.1-0.1L29.9,23c-0.8,0.5-1.5,1.1-2.2,1.7h0l0,0C13.3,35.8,5.1,52.9,5.2,71
	c0,31.7,24.8,57.9,56.5,59.5v0.1h5.6v-0.1c5.3-0.2,10.5-1.2,15.6-2.8c31.2-10.1,48.3-43.6,38.3-74.8L120.4,50.5z M56.8,124.3
	c-26.4-3.9-46-26.6-45.9-53.3c0-14.9,5.4-27.8,15.5-37.8c1.4-1.4,2.9-2.7,4.5-4l30.7,42.4l0.3,0.4l-0.1,52.8
	C60.1,124.8,58.4,124.6,56.8,124.3z"/>
<path class="st2" d="M120.4,50.2L120.4,50.2l0.1,0.3C120.4,50.4,120.4,50.3,120.4,50.2z"/>
</svg>
