<svg xmlns="http://www.w3.org/2000/svg" width="150" height="150" viewBox="0 0 150 150"><defs><style>.a{fill:#203231;}.b{fill:#ec5a35;}</style></defs><polygon class="a" points="123.17 0.76 31.07 17.5 32.19 18.51 115.49 7.24 116.81 98.94 123.17 0.76 123.17 0.76"/><path class="a" d="M26.83,132.14l85.83-20.07h0L34.78,125a3.51,3.51,0,0,1-4.09-3.46l-.1-47.91-3.76,58.52Z"/><path class="b" d="M110.9,14.85,46.75,22.17a14.07,14.07,0,0,0-12.47,14.1L35.05,121l64.4-11.87a15.82,15.82,0,0,0,13-15.86ZM107.17,84,65.29,95.3V88.43l41.88-6Zm0-24.06L65.29,71.24V64.37l41.88-6Zm0-26.78L65.29,44.46V37.59l41.88-6Z"/><polygon class="a" points="49.78 97.06 45.47 91.59 42.85 93.94 48.79 99.79 49.89 100.88 50.67 99.74 60.89 84.96 49.78 97.06"/><polygon class="a" points="49.78 46.51 45.47 41.03 42.85 43.38 48.79 49.23 49.89 50.32 50.67 49.18 60.89 34.4 49.78 46.51"/><polygon class="a" points="49.78 73.14 45.47 67.67 42.85 70.02 48.79 75.87 49.89 76.96 50.67 75.82 60.89 61.04 49.78 73.14"/></svg>