<svg xmlns="http://www.w3.org/2000/svg" width="150" height="150" viewBox="0 0 150 150"><defs><style>.a{fill:none;}.b{fill:#ed5a35;}.c{fill:#203232;}</style></defs><path class="a" d="M47.23,84.06l1.32-1a28.58,28.58,0,0,1-5-14.92c0,.45,0,.91,0,1.37A30.57,30.57,0,0,0,47.23,84.06Z"/><path class="a" d="M72.27,95.52a28.53,28.53,0,0,1-11-2.2l-2.1,2.51a30.42,30.42,0,0,0,44.54-18.65l-4.43-.44A28.77,28.77,0,0,1,72.27,95.52Z"/><path class="a" d="M85.05,41a28.81,28.81,0,0,1,15.36,19.81l2.94-.31A30,30,0,0,0,85.05,41Z"/><path class="a" d="M75,30.46c-25.54,0-53.38,13.47-67.41,39.05,14,25.57,41.87,39,67.41,39s53.38-13.47,67.41-39C128.38,43.93,100.54,30.46,75,30.46ZM99.72,94.91a36,36,0,0,1-49.18,1.61l5.81-5.81A29.4,29.4,0,0,1,52,87.18l-5.59,5.59a36,36,0,0,1-8.51-23.31A36.41,36.41,0,0,1,71.05,33.39V38c.41,0,.81,0,1.22,0a28.37,28.37,0,0,1,4.35.33v-4.8A35.75,35.75,0,0,1,110.1,66.11H101c0,.22,0,.44,0,.66a29.36,29.36,0,0,1-.41,4.81h9.58A35.67,35.67,0,0,1,99.72,94.91Z"/><path class="b" d="M61.24,93.32a28.77,28.77,0,0,0,38-16.58L76.92,74.55Z"/><path class="b" d="M85.05,41a29.23,29.23,0,0,0-2.83-.92l-2.85,23,21-2.26A28.81,28.81,0,0,0,85.05,41Z"/><path class="b" d="M68.66,67.18,65.45,40.12a30.91,30.91,0,0,0-21.9,28,28.58,28.58,0,0,0,5,14.92Z"/><path class="b" d="M100.62,71.58a29.36,29.36,0,0,0,.41-4.81c0-.22,0-.44,0-.66H76.62V38.34A28.37,28.37,0,0,0,72.27,38c-.41,0-.81,0-1.22,0V68.15l-19,19a29.4,29.4,0,0,0,4.33,3.53L75.47,71.58Z"/><path class="c" d="M143.69,68.2C128.77,40,103.09,23.11,75,23.11S21.24,40,6.31,68.2l-.69,1.31.69,1.3C21.24,99.05,46.91,115.9,75,115.9s53.77-16.85,68.69-45.09l.69-1.3ZM75,108.55c-25.54,0-53.38-13.47-67.41-39C21.62,43.93,49.46,30.46,75,30.46s53.38,13.47,67.41,39.05C128.38,95.08,100.54,108.55,75,108.55Z"/><path class="c" d="M75.47,71.58,56.35,90.71l-5.81,5.81A36,36,0,0,0,110.2,71.58H75.47Zm28.21,5.6A30.43,30.43,0,0,1,59.14,95.83l2.1-2.51L76.92,74.55l22.33,2.19Z"/><path class="c" d="M110.1,66.11A35.75,35.75,0,0,0,76.62,33.54V66.11H110.1Zm-30.73-3,2.85-23a29.23,29.23,0,0,1,2.83.92,30,30,0,0,1,18.3,19.5l-2.94.31Z"/><path class="c" d="M71.05,68.15V33.39A36.41,36.41,0,0,0,37.92,69.46a36,36,0,0,0,8.51,23.31L52,87.18ZM47.23,84.06a30.57,30.57,0,0,1-3.71-14.6c0-.46,0-.92,0-1.37a30.91,30.91,0,0,1,21.9-28l3.21,27.06L48.55,83Z"/></svg>