<svg xmlns="http://www.w3.org/2000/svg" width="150" height="150" viewBox="0 0 150 150"><defs><style>.a{fill:#ed5a35;}.b{fill:#203232;}</style></defs><path class="a" d="M109.12,92.29c-2.51-1.8-5-3.61-7.5-5.46-3.67-2.74-7.33-5.5-10.9-8.38l.48.24,3-5.16-2.09-1a43.33,43.33,0,0,1-13.7,14.19,42.79,42.79,0,0,1-28.58,6.38A43.25,43.25,0,0,1,43,91.57l.24,33,66.22-12.2ZM59,116.75l-11.06,2v-8.87l11.06-2Zm0-10.91-11.06,2V99L59,97Z"/><path class="a" d="M86.56,20a45.56,45.56,0,0,1,8.38,12.83,44.74,44.74,0,0,1,1.52,30.13,46,46,0,0,1-2.34,5.93L96,70.47l2.74-4.7.92.6q4.62,2.28,9.13,4.73l-.87-57.9L82.47,16.11A48,48,0,0,1,86.56,20Z"/><path class="a" d="M49.32,89.1a37.09,37.09,0,0,0,15.56-71,37.91,37.91,0,0,0-37.66,3.77,40.85,40.85,0,0,0-3.95,3.73A42,42,0,0,0,13.16,45.93c-.29,1.45-.51,2.92-.66,4.4A37.12,37.12,0,0,1,12.41,45a36.57,36.57,0,0,0-.67,7A37,37,0,0,0,26.55,81.5c-.55-.57-1.09-1.14-1.6-1.75a44.54,44.54,0,0,0,5.27,3.64,43.07,43.07,0,0,0,9,4l.21.06c1.17.36,2.35.67,3.53.92a38.34,38.34,0,0,0,4.49.68C48.05,89.08,48.68,89.1,49.32,89.1ZM42.87,77.57l-7.42,1.77V60.51l-5.66-5.7,5.53-4.94.13.16V28.5l7-1.68L62.67,22V43.84l-20,4.77-7,1.67,4.85,6,2.21-.52L56.8,52.43,74.43,32.8,61.31,51.35,62.67,51V72.85Z"/><path class="b" d="M39.42,90.27c1.15.49,2.34.92,3.55,1.3a43.25,43.25,0,0,0,6.87,1.55,42.79,42.79,0,0,0,28.58-6.38,43.33,43.33,0,0,0,13.7-14.19l2.09,1L106,79.08,96,70.47l-1.89-1.62a46,46,0,0,0,2.34-5.93,44.74,44.74,0,0,0-1.52-30.13A45.56,45.56,0,0,0,86.56,20a48,48,0,0,0-4.09-3.85,45.26,45.26,0,0,0-4.56-3.35l33.93-4.51.75,64.84,5.8-70.37L76.51,11.91c-.7-.41-1.41-.81-2.13-1.18A42.37,42.37,0,0,0,59.81,6.31a44.22,44.22,0,0,0-15.09.77A43,43,0,0,0,20.25,23.15,40.92,40.92,0,0,0,12.41,45a37.12,37.12,0,0,0,.09,5.38c.15-1.48.37-2.95.66-4.4A42,42,0,0,1,23.27,25.62a40.85,40.85,0,0,1,3.95-3.73A40.17,40.17,0,0,1,46,13.22a39.09,39.09,0,0,1,24.88,4.2h0A38.74,38.74,0,0,1,87.58,35.91,38,38,0,0,1,90.43,48.2a36.42,36.42,0,0,1-1.26,12.59A38.93,38.93,0,0,1,74.86,81.56a40.18,40.18,0,0,1-24.69,7.65c-.91,0-1.83-.08-2.74-.16a38.34,38.34,0,0,1-4.49-.68c-1.18-.25-2.36-.56-3.53-.92l-.21-.06a43.07,43.07,0,0,1-9-4A44.54,44.54,0,0,1,25,79.75c.51.61,1.05,1.18,1.6,1.75A43.87,43.87,0,0,0,30,84.68a41.68,41.68,0,0,0,6,4,33,33,0,0,0,3,1.46l-2.82,44L109.43,117,39.5,128.57Z"/><path class="b" d="M140.3,92.24a10,10,0,0,0-2.37-3.79A10.38,10.38,0,0,0,136.19,87l-1.46-.91c-3.9-2.38-7.81-4.76-11.76-7.06q-7-4.09-14.17-8-4.51-2.44-9.13-4.73l-.85-.43c3.29,2.69,6.64,5.28,10,7.81q5.93,4.43,12,8.65c3.74,2.63,7.53,5.19,11.32,7.73l1.42.94a6.47,6.47,0,0,1,.89.77,5.7,5.7,0,0,1,1.18,2,5.35,5.35,0,0,1-.52,4.48,4.69,4.69,0,0,1-3.67,2.26,4.49,4.49,0,0,1-2.2-.36,4.2,4.2,0,0,1-.52-.26l-.13-.07-.17-.1-.37-.23-1.47-.88c-3.9-2.38-7.84-4.69-11.8-7-1.89-1.09-3.8-2.16-5.71-3.23L102.82,85C99,82.82,95.13,80.7,91.2,78.69l-.48-.24c3.57,2.88,7.23,5.64,10.9,8.38,2.48,1.85,5,3.66,7.5,5.46,1.21.86,2.41,1.73,3.63,2.58,3.74,2.61,7.51,5.2,11.32,7.73l1.42,1,.36.24.18.12.24.15a8.65,8.65,0,0,0,1,.53,9.49,9.49,0,0,0,12.09-3.66A10.2,10.2,0,0,0,140.3,92.24Z"/><polygon class="b" points="42.8 67.9 44.49 69.6 46.77 71.89 48.48 69.49 61.3 51.35 74.43 32.8 56.8 52.43 46.55 63.84 42.73 59.09 40.5 56.31 35.65 50.28 35.45 50.03 35.31 49.87 29.79 54.81 35.45 60.51 42.8 67.9"/></svg>