<svg id="Layer_1" data-name="Layer 1" xmlns="http://www.w3.org/2000/svg" viewBox="0 0 258 258"><defs><style>.cls-1{fill:#ea5a35;}.cls-2{fill:#203231;}.cls-3{fill:#fff;}</style></defs><title>Icons-SustainableInvesting</title><path class="cls-1" d="M94.06,129.69c3.63-22.5,25.77-37.63,49.45-33.81s39.94,25.16,36.31,47.65c0,0-24.31-19.4-85.76-13.84"/><ellipse class="cls-1" cx="134.95" cy="73.25" rx="33.92" ry="31.15" transform="translate(-18.52 78.13) rotate(-30.32)"/><path class="cls-2" d="M119.32,101.3a34.36,34.36,0,0,1-20-14.45,37.69,37.69,0,0,1-5.65-25.42,39.26,39.26,0,0,1,4.24-12.86,37.82,37.82,0,0,1,8.49-10.77,40,40,0,0,1,11.78-7.15,40.54,40.54,0,0,1,13.56-2.73,40,40,0,0,1,25.71,8.93A39.06,39.06,0,0,1,171,60a37.58,37.58,0,0,1-4.69,25.62,33.88,33.88,0,0,1-19.5,15.18,40.4,40.4,0,0,0,4.83-3.6,35.66,35.66,0,0,0,10-13.94,33.89,33.89,0,0,0,1.17-21.42,32.39,32.39,0,0,0-11.65-17A29.85,29.85,0,0,0,142,40.17a30.88,30.88,0,0,0-10.08-1.53,31.8,31.8,0,0,0-19,6.9,32.57,32.57,0,0,0-11,17.41,34.14,34.14,0,0,0,2,21.37,35.8,35.8,0,0,0,6.22,9.53l1,1.09,1.07,1a21.69,21.69,0,0,0,2.24,1.93c.79.59,1.54,1.28,2.39,1.8S118.46,100.73,119.32,101.3Z"/><path class="cls-2" d="M105.89,102.93l-2.35,2.53a28.68,28.68,0,0,0-2.25,2.55,53.14,53.14,0,0,0-3.94,5.46,51,51,0,0,0-5.64,11.73,49.4,49.4,0,0,0-2.51,12.28c-.11,1-.09,2.05-.15,3.05s0,2,0,3,.12,2,.26,2.92c.05.48.12.93.2,1.38,0,.22.08.44.13.62s.09.43.13.41l-17,1a11.93,11.93,0,0,1,.1-1.3c0-.39.09-.74.14-1.08.11-.7.22-1.38.36-2,.25-1.34.59-2.61.91-3.88s.73-2.5,1.15-3.72.84-2.43,1.36-3.6a60.19,60.19,0,0,1,7.38-13.1,60.66,60.66,0,0,1,15.69-14.77,32.61,32.61,0,0,1,3-1.8Z"/><path class="cls-2" d="M160.75,102.93l3,1.69a32.61,32.61,0,0,1,3,1.8,60.66,60.66,0,0,1,15.69,14.77,60.61,60.61,0,0,1,7.38,13.1c.52,1.17.9,2.39,1.36,3.6s.78,2.46,1.15,3.72.66,2.54.91,3.88c.14.65.25,1.33.35,2,.06.34.11.69.15,1.08a11.93,11.93,0,0,1,.1,1.3l-17-1s.09-.22.13-.41.09-.4.13-.62c.08-.45.15-.9.2-1.38.14-.94.18-1.93.26-2.92s.06-2,0-3,0-2-.15-3.05a49.4,49.4,0,0,0-2.51-12.28,51,51,0,0,0-5.64-11.73,53.14,53.14,0,0,0-3.94-5.46,28.68,28.68,0,0,0-2.25-2.55Z"/><path class="cls-1" d="M221.1,115.32s-96.37-7.08-70,70.24C228.41,211.92,221.1,115.32,221.1,115.32Z"/><path class="cls-2" d="M199.93,164.09a23.37,23.37,0,0,1-5.79,2.1,26.48,26.48,0,0,1-13-.36,30.48,30.48,0,0,1-6.38-2.61l5.28-6.78a23.59,23.59,0,0,0,3.79,3.53,19.92,19.92,0,0,0,4.7,2.62,23.12,23.12,0,0,0,11.37,1.5Z"/><path class="cls-2" d="M188.38,175.64a22.74,22.74,0,0,1-5.79,2.1,24.93,24.93,0,0,1-6.37.63,25.47,25.47,0,0,1-6.6-1,31.13,31.13,0,0,1-6.38-2.61l5.28-6.79a22.75,22.75,0,0,0,3.79,3.53,20.11,20.11,0,0,0,4.7,2.63,22.35,22.35,0,0,0,5.47,1.44A22,22,0,0,0,188.38,175.64Z"/><path class="cls-2" d="M141.14,174.55a59.55,59.55,0,0,1-2.88-14.84,36.88,36.88,0,0,1,2.22-15.11,35.32,35.32,0,0,1,8.6-12.8,51.42,51.42,0,0,1,12.7-8.72C171,118.52,181,116,191,114.44c5-.77,10.07-1.28,15.13-1.58s10.08-.41,15.28-.21l2.49.1.11,2.61a167.77,167.77,0,0,1-1.71,34.33,93.57,93.57,0,0,1-4.38,17,63,63,0,0,1-8.41,15.85,46.16,46.16,0,0,1-13.68,12.32,47.13,47.13,0,0,1-17.45,5.92,60.3,60.3,0,0,1-9.08.54,71.24,71.24,0,0,1-17.67-2.66c-1.43-.39-2.85-.82-4.26-1.3s-2.75-1-4.3-1.63l-5.51-2.35,4.25-4.07c4.42-4.23,8.94-8.36,13.41-12.55s9-8.28,13.6-12.37l6.87-6.11,6.8-6.18q6.82-6.17,13.73-12.24l.61.61q-6.06,6.91-12.23,13.73l-6.18,6.8-6.12,6.87c-4.08,4.58-8.23,9.08-12.37,13.6s-8.32,9-12.55,13.42l-1.26-6.42c.48.17,1.17.41,1.77.6s1.26.39,1.89.57c1.28.36,2.57.69,3.87,1,2.6.59,5.24,1,7.86,1.34a65.21,65.21,0,0,0,7.88.47,54.1,54.1,0,0,0,7.76-.51,46.94,46.94,0,0,0,7.47-1.66,41.44,41.44,0,0,0,7-2.93,39.44,39.44,0,0,0,11.66-9.68,53.15,53.15,0,0,0,7.9-13.59,83.07,83.07,0,0,0,4.59-15.54,161.51,161.51,0,0,0,2.69-33l2.6,2.71c-4.78-.34-9.78-.39-14.68-.26s-9.84.47-14.73,1.05c-9.73,1.22-19.45,3.23-28.35,7.2A48.11,48.11,0,0,0,151,133.9a32.56,32.56,0,0,0-8.47,11.54,35.8,35.8,0,0,0-2.71,14.23A57.94,57.94,0,0,0,142,174.3Z"/><path class="cls-2" d="M144.69,186.68l-27.77,24.71s10-2,16.27-6.67,17.9-14.56,17.9-14.56Z"/><ellipse class="cls-3" cx="72.24" cy="162.3" rx="40.21" ry="40.67" transform="translate(-102.23 195.8) rotate(-76.88)"/><ellipse class="cls-1" cx="68.53" cy="162.2" rx="37.73" ry="38.16" transform="translate(-104.99 192.12) rotate(-76.88)"/><path class="cls-3" d="M104.2,197.68l14.45,15.37,13.29,13.89c2.18,2.35,6.09,2.26,8.73-.19h0c2.89-2.69,3.3-6.95.91-9.51L113.5,187.87Z"/><path class="cls-2" d="M32.42,152.41a41.49,41.49,0,0,1,14-25.3,44.07,44.07,0,0,1,28.14-10.34,45.58,45.58,0,0,1,15.22,2.75,43.22,43.22,0,0,1,13.5,7.79,45,45,0,0,1,9.89,57.18A45,45,0,0,1,89.7,204.05a43.86,43.86,0,0,1-30-.28A40.91,40.91,0,0,1,38,184.65a43,43,0,0,0,23,15.29,41.06,41.06,0,0,0,26.41-1.89,39.83,39.83,0,0,0,19.09-17.38,37.34,37.34,0,0,0,4.18-12.27,38.85,38.85,0,0,0,0-12.91,39.62,39.62,0,0,0-12.39-22.33,40.07,40.07,0,0,0-23.83-10,41.37,41.37,0,0,0-25.51,7.09A43.77,43.77,0,0,0,32.42,152.41Z"/><path class="cls-2" d="M103.89,197.31c6.12,5.06,11.9,10.43,17.75,15.74,2.91,2.67,5.78,5.37,8.6,8.13l1.06,1,.26.26.18.15a3.07,3.07,0,0,0,.36.27,3.47,3.47,0,0,0,1.68.59,4.2,4.2,0,0,0,3.4-1.27,4.82,4.82,0,0,0,1.4-3.54,4.4,4.4,0,0,0-.48-1.82,3.59,3.59,0,0,0-.52-.77,5.51,5.51,0,0,0-.45-.49l-.5-.54c-2.68-2.89-5.37-5.77-8-8.75-5.25-5.89-10.37-11.91-15.14-18.27,6.23,4.94,12.11,10.22,17.86,15.63,2.9,2.68,5.72,5.44,8.54,8.2l.52.52c.19.19.32.3.57.59a8,8,0,0,1,1.19,1.63,8.76,8.76,0,0,1,1.12,3.82,9.48,9.48,0,0,1-2.75,7.17,8.79,8.79,0,0,1-7.35,2.57,8.19,8.19,0,0,1-4.58-2.14l-.36-.35-.26-.28-1-1.08c-2.7-2.87-5.34-5.8-8-8.76C113.83,209.64,108.72,203.61,103.89,197.31Z"/><polygon class="cls-2" points="58.43 151.5 74.19 171.11 69.39 171.25 105.62 130.9 74.31 175.17 72.25 178.08 69.5 175.31 51.76 157.47 58.43 151.5"/></svg>