<svg xmlns="http://www.w3.org/2000/svg" viewBox="0 0 174.17 163.28"><defs><style>.cls-1{fill:#ec5a35;}.cls-2{fill:#231f20;}</style></defs><title>icon-energy</title><g id="Layer_2" data-name="Layer 2"><g id="Layer_1-2" data-name="Layer 1"><polygon class="cls-1" points="0 163.28 127.63 163.28 127.63 152.82 0 163.28"/><polygon class="cls-1" points="89.69 42.15 89.69 25.41 72.72 5.69 53 25.41 53 42.15 89.69 42.15"/><path class="cls-2" d="M121,53.59a2.36,2.36,0,0,0,2.36-2.36V41.8A2.36,2.36,0,0,0,121,39.44H91.47V22.08a2.36,2.36,0,0,0-.69-1.67L71.06.69a2.37,2.37,0,0,0-3.34,0L48,20.41a2.36,2.36,0,0,0-.69,1.67V39.44H17.8a2.36,2.36,0,0,0-2.36,2.36v9.43a2.36,2.36,0,1,0,4.72,0V44.16h9.72v7.07a2.36,2.36,0,1,0,4.71,0V44.16H47.31V78.88H17.8a2.36,2.36,0,0,0-2.36,2.36v9.43a2.36,2.36,0,0,0,4.72,0V83.6h9.72v7.07a2.36,2.36,0,1,0,4.71,0V83.6H47.31v36.59l-17.23,39a2.36,2.36,0,0,0,3.5,2.89l35.81-24.83,35.81,24.83a2.36,2.36,0,0,0,3.5-2.89l-17.23-39V83.6h12.71v7.07a2.36,2.36,0,0,0,4.72,0V83.6h9.72v7.07a2.36,2.36,0,0,0,4.72,0V81.24A2.36,2.36,0,0,0,121,78.88H91.47V44.16h12.71v7.07a2.36,2.36,0,1,0,4.72,0V44.16h9.72v7.07A2.35,2.35,0,0,0,121,53.59M66.05,61.52l-14,14V47.49ZM55.36,44.16H83.42l-14,14Zm0,34.72,14-14,14,14ZM83.42,83.6l-14,14-14-14ZM66.05,101,52,115v-28Zm3.34,3.34,14,14H55.36ZM72.72,101l14-14V115Zm0-39.44,14-14V75.55ZM52,23.06,69.39,5.69,86.75,23.06V39.44H52ZM37.78,153.4l12.89-29.15,14.58,10.11Zm31.61-21.91L57.21,123H81.57Zm4.14,2.87,14.58-10.11L101,153.4Z"/><polygon class="cls-1" points="124.61 108.15 171.19 60.83 142.73 60.83 174.17 25.71 152.17 25.71 123.02 70.41 149.4 70.41 124.61 108.15"/></g></g></svg>