<svg id="Layer_1" data-name="Layer 1" xmlns="http://www.w3.org/2000/svg" viewBox="0 0 258 258"><defs><style>.cls-1{fill:#ea5a35;}.cls-2{fill:#203231;}</style></defs><title>Icons-SustainableInvesting</title><polygon class="cls-1" points="237.49 84.21 157.63 111.7 239.81 102.95 237.49 84.21"/><path class="cls-1" d="M195.65,120.48c4.36,41-23.77,73.2-66.09,77.7S49.41,173.06,45.05,132s26.41-77.93,68.72-82.43c20.74-2.21,41.31,1.92,56.48,13.44l-49.88,67.38Z"/><path class="cls-2" d="M205.92,119.29l.46,3.49c.18,1.21.22,2.36.32,3.55s.14,2.36.17,3.55.06,2.37,0,3.55a76.23,76.23,0,0,1-1.51,14.19A82.49,82.49,0,0,1,195,174.33a85.19,85.19,0,0,1-19,21.81,85.43,85.43,0,0,1-108.9-1.58,88.25,88.25,0,0,1-19-22.78,87.1,87.1,0,0,1-.39-85.9A87.54,87.54,0,0,1,92.12,47.43,86.64,86.64,0,0,1,176.7,60.11l3.24,2.57-2.49,3.15L151.82,98.16,126,130.36l-2.35-4.15c7-.66,14-1.24,20.94-1.85l20.74-1.74Zm0,0-41.39,6.17-20.23,3c-6.71,1-13.38,2-20,2.9l-6,.82,3.65-5L146.35,94,171,60.86l.75,5.72A81.28,81.28,0,0,0,148,54.45,76.94,76.94,0,0,0,121.6,51a75.42,75.42,0,0,0-13.22,1.68,80.72,80.72,0,0,0-12.74,3.79,78,78,0,0,0-48.17,85.7A76.23,76.23,0,0,0,50.82,155a81.93,81.93,0,0,0,5.41,12.15,79.37,79.37,0,0,0,16.69,20.7,80.64,80.64,0,0,0,22.71,14A78.46,78.46,0,0,0,135.3,207a83.36,83.36,0,0,0,13.26-2.79A80.07,80.07,0,0,0,172.82,192a81.88,81.88,0,0,0,30.51-44.84A85.72,85.72,0,0,0,205.92,119.29Z"/><path class="cls-2" d="M157.63,111.7c3.63-5.88,7.39-11.66,11.18-17.42s7.68-11.44,11.58-17.12,7.86-11.3,11.85-16.91l6-8.38,6.06-8.35,2.1-2.88,3.39,1.55c.5.22.8.37,1.18.56l1.05.54q1,.55,2,1.14c1.33.78,2.61,1.61,3.87,2.47a64.15,64.15,0,0,1,7.16,5.7,62.31,62.31,0,0,1,11.66,14.26,56.29,56.29,0,0,1,6.64,17.35,60.12,60.12,0,0,1,.73,18.38l-.41,3.79-3.58.32-10.27.92-10.29.84q-10.29.81-20.59,1.48c-6.87.43-13.75.83-20.64,1.13s-13.78.55-20.69.63c6.75-1.5,13.52-2.82,20.29-4.11s13.56-2.46,20.35-3.62,13.58-2.22,20.38-3.27l10.21-1.52,10.21-1.46-4,4.11a56.54,56.54,0,0,0-1.28-15.57,50.45,50.45,0,0,0-5.72-14.32,58,58,0,0,0-9.69-12.23,70.2,70.2,0,0,0-6-5.14c-1-.8-2.13-1.57-3.22-2.29-.55-.36-1.1-.7-1.65-1l-.82-.48-.73-.41L211.46,49,205,57l-6.56,8q-6.58,7.94-13.28,15.81c-4.48,5.23-9,10.44-13.55,15.6S162.39,106.68,157.63,111.7Z"/></svg>