<?xml version="1.0" encoding="utf-8"?>
<!-- Generator: Adobe Illustrator 23.1.1, SVG Export Plug-In . SVG Version: 6.00 Build 0)  -->
<svg version="1.1" id="Layer_1" xmlns="http://www.w3.org/2000/svg" xmlns:xlink="http://www.w3.org/1999/xlink" x="0px" y="0px"
	 viewBox="0 0 150 150" style="enable-background:new 0 0 150 150;" xml:space="preserve">
<style type="text/css">
	.st0{fill:#EB5B36;}
	.st1{fill:#203331;}
</style>
<g>
	<path class="st0" d="M77.21,22.36c0,0,69.95,58.55,0,92.93l0,0"/>
	<path class="st0" d="M77.21,22.36c0,0-69.95,58.55,0,92.93l0,0"/>
	<path class="st1" d="M95.84,69.54c-0.56,1.85-1.42,3.63-2.49,5.32c-1.07,1.69-2.36,3.3-3.87,4.73c-1.51,1.43-3.22,2.75-5.12,3.79
		c-0.93,0.57-1.93,0.99-2.94,1.44c-0.5,0.24-1.02,0.39-1.54,0.58l-1.58,0.53l-1.02-8.14l1.22,0.05c0.41,0.01,0.83,0.06,1.24,0.01
		c0.82-0.05,1.67-0.07,2.48-0.23c1.67-0.22,3.32-0.72,4.95-1.4c1.63-0.68,3.2-1.6,4.67-2.72C93.3,72.37,94.68,71.07,95.84,69.54z"/>
	<path class="st1" d="M95.84,85.14c-0.56,1.85-1.42,3.63-2.49,5.32c-1.07,1.69-2.36,3.3-3.87,4.73c-1.51,1.43-3.22,2.75-5.12,3.79
		c-0.93,0.57-1.93,0.99-2.94,1.44c-0.5,0.24-1.02,0.39-1.54,0.58l-1.58,0.53l-1.02-8.14l1.22,0.05c0.41,0.01,0.83,0.06,1.24,0.01
		c0.82-0.05,1.67-0.07,2.48-0.23c1.67-0.22,3.32-0.72,4.95-1.4c1.63-0.68,3.2-1.6,4.67-2.72C93.3,87.97,94.68,86.66,95.84,85.14z"/>
	<path class="st1" d="M63.23,116.27c-4.26-2.19-8.35-4.8-11.96-8.06c-3.6-3.24-6.69-7.18-8.7-11.7c-2.04-4.5-2.94-9.51-2.83-14.44
		c0.1-4.95,1.13-9.82,2.68-14.45c1.55-4.65,3.62-9.08,5.98-13.33c2.36-4.25,5.04-8.31,7.9-12.22c2.86-3.91,5.92-7.66,9.13-11.29
		c1.6-1.81,3.25-3.59,4.93-5.33c1.7-1.75,3.38-3.43,5.23-5.14l1.8-1.66l1.87,1.73c7.98,7.38,15.55,15.33,21.98,24.35
		c1.61,2.25,3.11,4.59,4.55,6.97l1.04,1.82l0.52,0.91l0.49,0.93l0.97,1.87l0.9,1.91c2.38,5.11,4.18,10.6,5.04,16.36
		c0.82,5.75,0.63,11.8-0.91,17.54c-1.49,5.76-4.26,11.13-7.78,15.77c-1.77,2.32-3.69,4.5-5.76,6.49c-2.09,1.98-4.28,3.83-6.57,5.51
		c-2.28,1.7-4.68,3.22-7.13,4.63c-1.23,0.7-2.47,1.38-3.75,2c-0.64,0.31-1.28,0.62-1.94,0.91l-0.99,0.44
		c-0.35,0.15-0.65,0.27-1.08,0.44l-5.34,2.1l0.14-5.59c0.15-5.84,0.4-11.68,0.59-17.52c0.11-2.92,0.26-5.84,0.39-8.76
		c0.14-2.92,0.26-5.84,0.44-8.76l0.51-8.76l0.42-8.76c0.3-5.84,0.62-11.68,1.01-17.52h0.82c0.39,5.84,0.71,11.68,1.01,17.52
		l0.42,8.76l0.51,8.76c0.18,2.92,0.3,5.84,0.44,8.76c0.13,2.92,0.29,5.84,0.39,8.76c0.19,5.84,0.44,11.68,0.59,17.52l-5.2-3.49
		l0.77-0.37l0.83-0.42c0.55-0.29,1.11-0.59,1.66-0.9c1.1-0.62,2.2-1.26,3.27-1.94c2.16-1.35,4.22-2.84,6.21-4.39
		c1.99-1.55,3.87-3.23,5.63-5c1.77-1.76,3.41-3.62,4.89-5.58c1.46-1.97,2.82-4,3.93-6.16c1.1-2.15,2.03-4.38,2.72-6.68
		c1.37-4.61,1.83-9.49,1.34-14.4c-0.5-4.9-1.85-9.8-3.82-14.51l-0.76-1.76l-0.83-1.74l-0.42-0.87l-0.45-0.85l-0.9-1.71
		c-1.27-2.25-2.6-4.48-4.06-6.64c-5.8-8.68-12.89-16.59-20.46-24.01l3.66,0.07c-1.71,1.46-3.46,3.09-5.14,4.71
		c-1.69,1.63-3.34,3.3-4.96,5c-3.24,3.4-6.33,6.95-9.24,10.63c-2.91,3.68-5.62,7.51-8.06,11.5c-2.43,3.99-4.58,8.15-6.23,12.48
		c-1.65,4.33-2.8,8.86-3.08,13.45c-0.29,4.58,0.35,9.23,2.07,13.5c1.7,4.29,4.46,8.13,7.77,11.44c3.32,3.31,7.21,6.07,11.31,8.43
		L63.23,116.27z"/>
</g>
</svg>
