<svg id="Layer_1" data-name="Layer 1" xmlns="http://www.w3.org/2000/svg" viewBox="0 0 258 258"><defs><style>.cls-1{fill:#203231;}.cls-2{fill:#ea5a35;}</style></defs><title>Icons-SustainableInvesting</title><path class="cls-1" d="M212.91,117.49a84.52,84.52,0,0,1-.24,29.92,88.16,88.16,0,0,1-10.76,28.37A91.12,91.12,0,0,1,181.84,199a90.06,90.06,0,0,1-88.49,14.2,91.83,91.83,0,0,1-27-16,90.5,90.5,0,0,1-30.53-53.85A91.79,91.79,0,0,1,36,112,90,90,0,0,1,93.63,43.32a91.48,91.48,0,0,1,14.93-3.94A85.45,85.45,0,0,1,123.85,38a86.52,86.52,0,0,1,29.88,5.34,88.43,88.43,0,0,1,13.62,6.46,84.86,84.86,0,0,1,12.16,8.72,91.91,91.91,0,0,0-12.91-7.3A85.81,85.81,0,0,0,72.26,65a81.31,81.31,0,0,0-9.61,10.38A85.48,85.48,0,0,0,54.9,87.17a83.31,83.31,0,0,0,97.37,119A85.15,85.15,0,0,0,197.57,173a86.93,86.93,0,0,0,12.27-26.24,82.8,82.8,0,0,0,2.7-14.44A95.13,95.13,0,0,0,212.91,117.49Z"/><path class="cls-2" d="M196.54,85.47c-23.6-39.3-74.23-52.24-113.08-28.91S32.24,130.67,55.83,170s74.23,52.24,113.09,28.91S220.14,124.76,196.54,85.47Zm-46.79,84c-22.41,13.46-51.62,6-65.23-16.67s-6.48-52,15.93-65.42,51.62-6,65.24,16.67S172.17,156,149.75,169.49Z"/><path class="cls-1" d="M175.53,110.48a51.17,51.17,0,0,1,2,35.61,54.85,54.85,0,0,1-8.61,16.49A54.2,54.2,0,0,1,155,175.34a56.07,56.07,0,0,1-17.63,7.15,53.18,53.18,0,0,1-19.16.77,56.51,56.51,0,0,1-18.31-5.93,57.26,57.26,0,0,1-15.28-11.79,56.4,56.4,0,0,1-14.3-35.2A55.41,55.41,0,0,1,81.89,94.52,54.13,54.13,0,0,1,96,82a34.34,34.34,0,0,1,4.11-2.28l2.12-1a15.5,15.5,0,0,1,2.14-.92l4.4-1.57c1.5-.42,3-.85,4.51-1.14a51.74,51.74,0,0,1,18.31-.42,53.23,53.23,0,0,1,8.78,2.21,48.73,48.73,0,0,1,8.13,3.74,53,53,0,0,0-34-.87,49.15,49.15,0,0,0-14.88,7.59,50.72,50.72,0,0,0-11.46,11.8,49.32,49.32,0,0,0-8.48,30.78,46.12,46.12,0,0,0,3.75,15.59A48.23,48.23,0,0,0,91.88,159a49.06,49.06,0,0,0,27.73,15.13,49.57,49.57,0,0,0,31.5-5.36A50.84,50.84,0,0,0,173,144.44,53.86,53.86,0,0,0,175.53,110.48Z"/><ellipse class="cls-2" cx="126.64" cy="126.91" rx="18.15" ry="18.35" transform="translate(-47.3 83.45) rotate(-31.03)"/><path class="cls-1" d="M146.05,122.15a20.86,20.86,0,0,1,.72,14.47,21.49,21.49,0,0,1-9.52,12A21.93,21.93,0,0,1,121.56,151a23.08,23.08,0,0,1-7.48-3.19,24,24,0,0,1-10.91-20.66,23.13,23.13,0,0,1,5.51-14.77,20.86,20.86,0,0,1,13.54-7.21,19.06,19.06,0,0,1,13.92,4,20.5,20.5,0,0,0-13.31-.77,18.37,18.37,0,0,0-10,7.23,19.07,19.07,0,0,0-3.33,11.5c.05.5,0,1,.11,1.5l.21,1.49a20.78,20.78,0,0,0,.81,2.9,19.31,19.31,0,0,0,2.81,5.26,18.63,18.63,0,0,0,9.64,6.61,17.6,17.6,0,0,0,11.75-.89,19.16,19.16,0,0,0,8.94-8.6A22.94,22.94,0,0,0,146.05,122.15Z"/><path class="cls-1" d="M126.44,127.32c8.21-6.9,16.74-13.32,25.37-19.59s17.42-12.32,26.29-18.22,17.87-11.63,27-17.17,18.35-10.9,27.9-15.78c-8.2,6.9-16.74,13.32-25.37,19.6s-17.41,12.31-26.29,18.2-17.88,11.63-27,17.17S136,122.43,126.44,127.32Z"/><polygon class="cls-1" points="224.96 51.16 223.02 65.04 221.19 61.82 234.04 67.24 220.1 66.7 216.6 66.56 218.27 63.48 224.96 51.16"/><polygon class="cls-1" points="218.3 55.33 216.36 69.21 214.53 65.99 227.38 71.4 213.44 70.86 209.94 70.73 211.61 67.64 218.3 55.33"/><polygon class="cls-1" points="129.19 119.42 128.67 127.66 127.14 124.97 134.45 128.73 126.24 129.03 122.9 129.16 124.71 126.35 129.19 119.42"/></svg>