<?xml version="1.0" encoding="utf-8"?>
<!-- Generator: Adobe Illustrator 23.1.1, SVG Export Plug-In . SVG Version: 6.00 Build 0)  -->
<svg version="1.1" id="Layer_1" xmlns="http://www.w3.org/2000/svg" xmlns:xlink="http://www.w3.org/1999/xlink" x="0px" y="0px"
	 viewBox="0 0 150 150" style="enable-background:new 0 0 150 150;" xml:space="preserve">
<style type="text/css">
	.st0{fill:#ED5B36;}
	.st1{fill:#FFFFFF;}
	.st2{fill:#203232;}
</style>
<polygon class="st0" points="119.72,111.05 113.1,111.5 116.56,95.59 119.72,94.96 "/>
<path class="st0" d="M101.6,100.07c-6.25,1.43-11.38,1.26-16.38,1.16l-0.4-17.06l-5.61,4.19l0.37,11.45
	c-4.54-1.21-9.38-3.01-14.69-5.46c-11.01-5.08-11.97-8.44-12.02-11.69c-0.03-2.7-0.05-1.14-0.08-2.58
	c-0.03-1.43-5.68-3.55-5.68-3.55c0.03,2.7,0.05-0.79,0.08,0.66c0.01,0.68,0.02,1.36,0.04,2.17c-4.34,10.44,9.01,19.24,9.01,19.24
	c7.37,4.15,14.42,5.89,20.68,6.3c1.7,0.48,3.36,0.9,4.99,1.23c0.19,0.04,0.38,0.06,0.56,0.06c0.65,0,1.29-0.23,1.8-0.65
	c0.27-0.23,0.48-0.5,0.64-0.81C95.28,103.59,101.6,100.07,101.6,100.07z"/>
<path class="st0" d="M123.12,62.61L87.45,77.29c-7.49,3.08-15.89,3.08-23.37,0L28.4,62.61l47.36-19.49L123.12,62.61z"/>
<ellipse class="st1" cx="75.95" cy="59.55" rx="12.05" ry="8.61"/>
<g>
	<g>
		<path class="st2" d="M77.88,110.64c-0.19,0-0.38-0.02-0.56-0.06c-5.96-1.22-12.3-3.41-19.37-6.67
			c-11.03-5.09-15.16-9.62-15.27-16.71c-0.03-2.69-0.05-4.12-0.08-5.55c-0.03-1.44-0.05-2.88-0.08-5.58l5.61-0.05
			c0.03,2.67,0.05,4.1,0.08,5.53c0.03,1.44,0.05,2.88,0.08,5.58c0.05,3.25,1.01,6.61,12.02,11.69c5.31,2.45,10.15,4.25,14.69,5.46
			l-0.37-15.5l5.61-0.13l0.45,19.13c0.02,0.85-0.35,1.67-1.01,2.22C79.16,110.41,78.53,110.64,77.88,110.64z"/>
		<path class="st2" d="M103.88,100.12c-1.74,1.11-3.76,2.22-6.19,3.4c-7,3.4-13.29,5.71-19.24,7.05c-0.2,0.05-0.41,0.07-0.62,0.07
			c-0.62,0-1.23-0.2-1.72-0.59c-0.66-0.52-1.06-1.3-1.08-2.14l-0.45-19.13l5.61-0.13l0.37,15.61c6.13-0.1,15.72-1.52,21.01-4.09"/>
	</g>
	<path class="st2" d="M77.7,92.56L11.75,67.84c-0.9-0.34-0.91-1.6-0.02-1.95l65.47-26l65.96,24.73c0.9,0.34,0.91,1.6,0.02,1.95
		L77.7,92.56z M29.86,68.64l47.79,17.91l49.96-19.83c0.89-0.35,0.88-1.62-0.02-1.95L77.26,45.89L29.82,64.73
		C28.04,65.44,28.07,67.97,29.86,68.64z"/>
	<polygon class="st2" points="114.24,94.61 111.47,76.86 82.78,65.38 84.87,60.17 117.05,73.05 116.59,95.29 	"/>
	<path class="st2" d="M77.34,66.21c-5.38,0-9.29-2.54-9.33-6.07c-0.02-1.98,1.23-3.76,3.43-4.9c1.63-0.84,3.74-1.32,5.94-1.34
		c0.05,0,0.1,0,0.16,0c2.14,0,4.2,0.43,5.8,1.23c2.22,1.1,3.51,2.86,3.52,4.84l0,0c0.03,3.57-3.9,6.2-9.36,6.25
		C77.44,66.21,77.39,66.21,77.34,66.21z M74.3,60.08c0.65,0.26,1.67,0.52,3.04,0.52c0.03,0,0.07,0,0.1,0
		c1.42-0.01,2.47-0.3,3.13-0.58c-0.67-0.27-1.68-0.49-3.14-0.52C76.01,59.52,74.96,59.8,74.3,60.08z"/>
	<path class="st2" d="M122.83,114.79h-16.12v-13.64c0-4.96,3.62-9,8.06-9c4.44,0,8.06,4.04,8.06,9V114.79z M112.32,109.18h4.91
		v-8.03c0-1.84-1.12-3.39-2.45-3.39c-1.33,0-2.45,1.55-2.45,3.39V109.18z"/>
</g>
</svg>
