<svg xmlns="http://www.w3.org/2000/svg" viewBox="0 0 136.3 132.69"><defs><style>.cls-1{fill:#ec5a35;}.cls-2{fill:#231f20;}</style></defs><title>icon-water</title><g id="Layer_2" data-name="Layer 2"><g id="Layer_1-2" data-name="Layer 1"><path class="cls-1" d="M63.88,17.22a57.42,57.42,0,0,0,0,114.62Z"/><path class="cls-1" d="M119.17,113.94a14.88,14.88,0,0,1-14.86-14.86c0-8.29,9.52-20.34,14.86-26.14C124.52,78.74,134,90.79,134,99.08a14.88,14.88,0,0,1-14.86,14.86"/><path class="cls-2" d="M118.24,67.6l-1.75-1.75-1.76,1.75c-.73.74-18.06,18.22-18.06,31.48a19.82,19.82,0,0,0,39.63,0c0-13.26-17.33-30.74-18.06-31.48m-1.75,46.34a14.88,14.88,0,0,1-14.87-14.86c0-8.29,9.52-20.34,14.87-26.14,5.34,5.8,14.86,17.85,14.86,26.14a14.88,14.88,0,0,1-14.86,14.86"/><path class="cls-2" d="M101.62,47.06v5a7.45,7.45,0,0,0,7.43,7.43h14.87A7.45,7.45,0,0,0,131.35,52V40.87c0-8.88-7.78-16.1-17.34-16.1H92.29V19.46a9.88,9.88,0,0,0,7.07-7.07h7.79a2.48,2.48,0,0,0,0-5H99.36a9.86,9.86,0,0,0-19.11,0H72.47a2.48,2.48,0,0,0,0,5h7.78a9.9,9.9,0,0,0,7.08,7.07v5.31H72.52a2.48,2.48,0,1,0,0,4.95H114c6.83,0,12.38,5,12.38,11.15V52a2.48,2.48,0,0,1-2.47,2.47H109.05A2.48,2.48,0,0,1,106.58,52v-5a7.44,7.44,0,0,0-7.43-7.43H72.52a2.48,2.48,0,1,0,0,4.95H99.15a2.48,2.48,0,0,1,2.47,2.48M84.85,9.91a5,5,0,1,1,5,4.95,5,5,0,0,1-5-4.95"/><path class="cls-2" d="M93.35,117.46a56.62,56.62,0,0,1-9.56,5.18,55.24,55.24,0,0,1-10.56,3.28,56.29,56.29,0,0,1-8.52,1V101.75H86.65a2.82,2.82,0,1,0,0-5.63H64.71V73.61H97.77a2.81,2.81,0,1,0,0-5.62H64.71V11.72a2.81,2.81,0,0,0-2.82-2.81c-.71,0-1.42,0-2.13.1a62.58,62.58,0,0,0-10.34,1.15,61.65,61.65,0,0,0-22.14,9.32A62.27,62.27,0,0,0,10.57,36.19a60.25,60.25,0,0,0-3.15,5.22,1.34,1.34,0,0,0-.13.27c-.88,1.64-1.7,3.32-2.42,5A62.12,62.12,0,0,0,1.26,83.27,61.39,61.39,0,0,0,4.87,94.89c.72,1.71,1.54,3.39,2.42,5a1.66,1.66,0,0,0,.13.27c1,1.78,2,3.53,3.15,5.22a63,63,0,0,0,7.56,9.15,62,62,0,0,0,9.15,7.56,62.93,62.93,0,0,0,10.52,5.71,61.81,61.81,0,0,0,11.62,3.6,60.5,60.5,0,0,0,10.34,1.15c.71.07,1.42.11,2.13.11A61.49,61.49,0,0,0,96.5,122.12M50.42,18.62a20.26,20.26,0,0,1,8.66-3.84V39.85H36.15a61.81,61.81,0,0,1,4.32-9.43,37.6,37.6,0,0,1,10-11.8m8.66,26.86V68H31a93.94,93.94,0,0,1,2.49-19.53c.25-1,.54-2,.82-3Zm0,28.13V96.12H34.34c-.28-1-.57-2-.82-3A93.84,93.84,0,0,1,31,73.61Zm0,28.14v25.07A20.16,20.16,0,0,1,50.42,123a37.67,37.67,0,0,1-10-11.79,61.81,61.81,0,0,1-4.32-9.43ZM22.11,31A56.26,56.26,0,0,1,40,19c.92-.39,1.88-.69,2.82-1a47.93,47.93,0,0,0-7.23,9.71A69.09,69.09,0,0,0,30.2,39.85H14.92c.11-.16.2-.34.31-.51A56.61,56.61,0,0,1,22.11,31M10.05,48.9c.49-1.16,1.07-2.29,1.65-3.42H28.51c-.15.56-.32,1.09-.46,1.66A100.38,100.38,0,0,0,25.4,68H5.77A53.33,53.33,0,0,1,10.05,48.9M5.77,73.61H25.4a100.47,100.47,0,0,0,2.65,20.85c.14.56.31,1.1.46,1.66H11.7c-.58-1.13-1.16-2.26-1.65-3.42A53.33,53.33,0,0,1,5.77,73.61m24.67,43.85a56.1,56.1,0,0,1-8.33-6.88,56.88,56.88,0,0,1-6.87-8.32c-.12-.17-.21-.35-.32-.51H30.2A69.42,69.42,0,0,0,35.58,114a47.58,47.58,0,0,0,7.23,9.7c-.94-.33-1.9-.64-2.82-1a56.15,56.15,0,0,1-9.55-5.18"/></g></g></svg>