<?xml version="1.0" encoding="utf-8"?>
<!-- Generator: Adobe Illustrator 25.4.1, SVG Export Plug-In . SVG Version: 6.00 Build 0)  -->
<svg version="1.1" id="Layer_1" xmlns="http://www.w3.org/2000/svg" xmlns:xlink="http://www.w3.org/1999/xlink" x="0px" y="0px"
	 viewBox="0 0 250 250" style="enable-background:new 0 0 250 250;" xml:space="preserve">
<style type="text/css">
	.st0{fill:#ED5A36;}
	.st1{fill:#203232;}
</style>
<title>Diversification-2c</title>
<path class="st0" d="M146.2,112.9l38.4-45.9c8,5.6,13.8,13.8,16.7,23.1L146.2,112.9z"/>
<path class="st0" d="M112.3,133.3l-1,58.9c-26-1.9-48.5-28.7-50.3-59.9c-1.1-18.7,4.8-34.2,16.8-44.2L112.3,133.3z"/>
<path class="st1" d="M137.2,116.5L180,57.8l2.4,1.8c11,7.7,19.1,18.9,23,31.7l0.9,2.9L137.2,116.5z M181.3,66.3l-41.1,48l58.5-23.9
	C195.3,80.8,189.2,72.5,181.3,66.3L181.3,66.3z"/>
<path class="st1" d="M119.8,135.1L80.2,80.5l2.4-1.8c22.7-16.4,51.9-16.3,74.5,0.2l2.4,1.8L119.8,135.1z"/>
<path class="st1" d="M122.6,193.4h-3c-35-0.1-63.3-28.5-63.2-63.5c-0.2-20.3,9.6-39.5,26.2-51.2l2.4-1.8l37.7,52.2L122.6,193.4z
	 M83.8,85.3c-14,11.1-21.3,26.4-21.4,44.6c0,30.5,23.8,55.7,54.2,57.4l0.1-56.3L83.8,85.3z"/>
<path class="st1" d="M119.8,193.4h-3.2l0.2-65.6l62.4-20.1l0.9,2.8c10.7,33.3-7.6,69-40.9,79.8C133,192.4,126.4,193.4,119.8,193.4z
	 M122.8,132.2l-0.1,55.1c5-0.2,10-1.1,14.7-2.7c29.2-9.4,50.4-36.8,41.8-76.9L122.8,132.2z"/>
</svg>
