<?xml version="1.0" encoding="utf-8"?>
<!-- Generator: Adobe Illustrator 25.4.1, SVG Export Plug-In . SVG Version: 6.00 Build 0)  -->
<svg version="1.1" id="Layer_1" xmlns="http://www.w3.org/2000/svg" xmlns:xlink="http://www.w3.org/1999/xlink" x="0px" y="0px"
	 viewBox="0 0 250 250" style="enable-background:new 0 0 250 250;" xml:space="preserve">
<style type="text/css">
	.st0{fill:#ED5B36;}
	.st1{fill:#FFFFFF;}
	.st2{fill:#203232;}
	.st3{fill:none;}
</style>
<polygon class="st0" points="163.1,167.8 171.7,158.7 202.2,190 195,196.7 "/>
<ellipse transform="matrix(0.7071 -0.7071 0.7071 0.7071 -48.2776 121.5107)" class="st0" cx="122.5" cy="119" rx="47.7" ry="47.7"/>
<circle class="st1" cx="122.7" cy="118.4" r="31.7"/>
<path class="st2" d="M158.2,153.3c-10.5,10.5-25.5,16.2-41.3,14.3c-27.4-3.3-47-28.2-43.7-55.6l0,0c1.6-13.3,8.2-25.1,18.7-33.4
	c10.5-8.3,23.6-11.9,36.8-10.4c13.3,1.6,25.1,8.2,33.4,18.7c8.3,10.5,11.9,23.6,10.4,36.8C171.1,135.5,165.8,145.7,158.2,153.3z
	 M78.5,112.7c-2.9,24.4,14.6,46.6,39,49.5c24.4,2.9,46.6-14.6,49.5-39c1.4-11.8-1.9-23.5-9.2-32.8s-17.9-15.3-29.8-16.7
	c-11.8-1.4-23.5,1.9-32.8,9.2C85.9,90.3,80,100.9,78.5,112.7L78.5,112.7z"/>
<path class="st2" d="M192.6,203.3l-35-36.1l12-12l36.4,34.9L192.6,203.3z M164.5,168.4l26.5,29.4l8.8-8.4l-28.1-28.1L164.5,168.4z"
	/>
<path class="st2" d="M146.4,138.9c-2.1,2.1-4.5,3.9-7.2,5.4c-2.7,1.4-5.5,2.5-8.4,3.2c-3,0.6-6,0.9-9,0.8l-2.3-0.2
	c-0.9-0.1-1.6-0.2-2.3-0.4c-1.4-0.2-2.8-0.7-4.3-1.1c-2.8-1-5.6-2.4-8-4.1c-4.9-3.5-8.8-8.3-11.2-13.7c-2.3-5.4-3.2-11.2-2.5-16.8
	c0.2-1.3,0.3-2.7,0.7-4c0.2-0.7,0.3-1.3,0.5-2c0.2-0.6,0.5-1.3,0.7-1.9c0.9-2.5,2.2-4.7,3.5-6.8c0.2-0.3,0.4-0.5,0.6-0.8
	c-0.8,0.8-1.7,1.7-2.5,2.7c-3,3.8-5.5,8.5-6.8,14.2c-1.2,5.4-1,11.8,1,17.8c1,3,2.5,5.9,4.3,8.7c1.9,2.7,4.3,5.1,6.9,7.2
	c2.7,2.1,5.7,3.8,8.9,5c1.6,0.5,3.3,1.1,5.1,1.4c0.9,0.2,1.8,0.4,2.5,0.4l2.5,0.3c3.5,0.1,6.9-0.2,10.3-1c3.3-0.9,6.5-2.3,9.4-4.1
	c2.8-1.8,5.5-4,7.6-6.5c2.1-2.5,3.9-5.2,5.2-8.1c1.2-2.8,2.1-5.6,2.6-8.6c-0.7,2-1.5,4-2.5,5.9C150.4,134.4,148.5,136.8,146.4,138.9
	z"/>
<path class="st3" d="M154,122.8c0.1-0.8,0.1-1.5,0.1-2.2c0-0.7,0.1-1.4,0-2.1c-0.3-5.7-1.9-10.9-4.3-15.1c-2.4-4.2-5.4-7.5-8.4-10
	c-3-2.4-6.1-4-8.7-5c-0.6-0.2-1.3-0.5-1.8-0.7c-0.6-0.2-1.2-0.3-1.7-0.5c-1-0.3-1.9-0.5-2.7-0.6c-1.5-0.2-2.2-0.4-2.2-0.4
	s-0.8-0.1-2.3-0.2c-0.7-0.1-1.7-0.1-2.7,0c-0.5,0-1.1,0-1.7,0.1c-0.6,0.1-1.3,0.2-2,0.2c-2.7,0.4-6.1,1.1-9.6,2.8
	c-2.6,1.2-5.3,2.9-7.9,5.2c-0.2,0.3-0.5,0.5-0.7,0.8c-1.5,2-2.9,4.1-4,6.5c-0.3,0.6-0.5,1.2-0.8,1.8c-0.2,0.6-0.4,1.3-0.6,1.9
	c-0.5,1.3-0.7,2.6-1,3.9c-1,5.6-0.6,11.4,1.4,17c2,5.5,5.6,10.6,10.3,14.4c2.4,1.9,5,3.4,7.8,4.6c1.4,0.5,2.8,1.1,4.2,1.4
	c0.7,0.2,1.3,0.4,2.2,0.5l2.3,0.4c3,0.3,6.1,0.3,9.1-0.2c3-0.6,5.9-1.4,8.6-2.7c2.7-1.3,5.2-3,7.5-4.9c2.2-2,4.3-4.2,5.8-6.7
	c1.1-1.8,2.1-3.8,2.9-5.7c0-0.1,0.1-0.2,0.1-0.3C153.7,125.5,153.8,124.2,154,122.8z"/>
<g>
	
		<rect x="155.7" y="149.9" transform="matrix(0.7071 -0.7071 0.7071 0.7071 -63.6549 158.8498)" class="st2" width="8.5" height="12.7"/>
</g>
</svg>
