<?xml version="1.0" encoding="utf-8"?>
<!-- Generator: Adobe Illustrator 25.4.1, SVG Export Plug-In . SVG Version: 6.00 Build 0)  -->
<svg version="1.1" id="Layer_1" xmlns="http://www.w3.org/2000/svg" xmlns:xlink="http://www.w3.org/1999/xlink" x="0px" y="0px"
	 viewBox="0 0 250 250" style="enable-background:new 0 0 250 250;" xml:space="preserve">
<style type="text/css">
	.st0{fill:#ED5B36;}
	.st1{fill:#203232;}
	.st2{fill:#FFFFFF;}
</style>
<polygon class="st0" points="72.9,77.5 72.9,151.5 121.5,169.6 169.3,152.2 169.3,77.5 121.5,92.9 "/>
<path class="st1" d="M64.6,160.1V71.9l56.9,20.3l56.9-20.3v88.2l-56.2,16.1c-0.2,0.1-0.5,0.1-0.7,0.1s-0.5,0-0.7-0.1L64.6,160.1z
	 M69.8,156.2l51.7,18.8l51.7-18.8V78.8l-51,14.6c-0.5,0.1-1,0.1-1.4,0l-51-14.6C69.8,78.8,69.8,156.2,69.8,156.2z"/>
<polygon class="st1" points="165.4,107.7 133.2,117.6 133.2,110.1 165.4,104.9 "/>
<polygon class="st1" points="165.4,139.2 133.2,149 133.2,141.6 165.4,136.4 "/>
<polygon class="st1" points="165.4,123 133.2,132.8 133.2,125.4 165.4,120.2 "/>
<polygon class="st1" points="53.1,170.7 53.1,77.6 61.3,78.8 61.2,84 58.3,83.6 58.3,164.3 121.5,182.2 184.8,164.3 184.8,83.6 
	181.8,83.8 181.8,78.8 189.9,77.5 189.9,170.7 121.5,183.3 "/>
<path class="st1" d="M121.5,176.3c-1.4,0-2.6-1.2-2.6-2.6V92.9c0-1.4,1.2-0.6,2.6-0.6s2.6-0.8,2.6,0.6v80.8
	C124.1,175.1,122.9,176.3,121.5,176.3z"/>
<g>
	<path class="st1" d="M99.5,104.4c0,2.9-2.3,5.2-5.2,5.2c-2.9,0-5.2-2.3-5.2-5.2c0-2.9,2.3-5.3,5.2-5.3
		C97.3,99.2,99.5,101.5,99.5,104.4z M98.4,146.9l-8.2-2.3v-30.3l8.2,2.3V146.9z"/>
</g>
<path class="st2" d="M121.1,54"/>
</svg>
