<svg id="Layer_1" data-name="Layer 1" xmlns="http://www.w3.org/2000/svg" viewBox="0 0 112.95 129.24"><defs><style>.cls-1{fill:#ed5b36;}.cls-2{fill:#fff;}.cls-3{fill:#203232;}.cls-4{fill:none;}</style></defs><polygon class="cls-1" points="73.65 99.9 81.62 99.67 81.28 127.47 75.02 127.25 73.65 99.9"/><path class="cls-1" d="M130.77,169.31H79.28V75a5.57,5.57,0,0,1,5.56-5.55h60.32l6.32-6.81,7.72,4.06v76.25l-28.43-2.6Z" transform="translate(-68.52 -60.38)"/><circle class="cls-2" cx="78.67" cy="55.75" r="34.28"/><circle class="cls-1" cx="77.37" cy="59.69" r="30.33"/><circle class="cls-2" cx="77.71" cy="59.49" r="20.15"/><path class="cls-3" d="M146.51,151.54a31.81,31.81,0,0,1-19.72-56.8h0a31.82,31.82,0,1,1,19.72,56.8ZM128.93,97.45a28.36,28.36,0,1,0,20.9-5.88,28.4,28.4,0,0,0-20.9,5.88Z" transform="translate(-68.52 -60.38)"/><path class="cls-3" d="M139.53,189.51l.49-32h10.82l.64,32.08Zm3.06-28.34-1.31,25.14,7.77.19V161.23Z" transform="translate(-68.52 -60.38)"/><path class="cls-3" d="M147.7,139.75A22.73,22.73,0,0,1,142,139a23.47,23.47,0,0,1-5.24-2.35,23,23,0,0,1-4.42-3.71l-.94-1.16a8.71,8.71,0,0,1-.86-1.18,25.66,25.66,0,0,1-1.42-2.44,24,24,0,0,1-1.78-5.47,21.18,21.18,0,0,1,1.13-11.17,20.89,20.89,0,0,1,6.43-8.71,22,22,0,0,1,2.11-1.46l1.11-.65,1.14-.54a21.47,21.47,0,0,1,4.64-1.46c.22,0,.44,0,.66-.09-.76,0-1.54,0-2.33.1a22.27,22.27,0,0,0-9.45,3.34,21.74,21.74,0,0,0-7.56,8.43,23.52,23.52,0,0,0-1.94,5.85,23.8,23.8,0,0,0-.15,6.37,22.55,22.55,0,0,0,1.76,6.28,21.42,21.42,0,0,0,1.65,2.92,12,12,0,0,0,1,1.34l1,1.25a23.76,23.76,0,0,0,5.11,4.16,22.64,22.64,0,0,0,6,2.41,23.14,23.14,0,0,0,6.35.51,22.68,22.68,0,0,0,6-1.31,20.79,20.79,0,0,0,5-2.72,23.24,23.24,0,0,1-3.81,1.51A20.85,20.85,0,0,1,147.7,139.75Z" transform="translate(-68.52 -60.38)"/><path class="cls-4" d="M158.35,135.92c.43-.32.69-.64,1.05-1s.67-.62,1-1a21.48,21.48,0,0,0,5.54-17,21.25,21.25,0,0,0-1.65-6.14l-.52-1.13c-.17-.36-.37-.67-.54-1a10.31,10.31,0,0,0-.92-1.47l-.84-1.18-.94-1.09a12.61,12.61,0,0,0-1.22-1.24c-.25-.23-.51-.5-.81-.75l-1-.77a21,21,0,0,0-5.57-3A21.92,21.92,0,0,0,146,98l-.66,0a22.21,22.21,0,0,0-4.73,1.16l-1.18.46-1.14.58a20.25,20.25,0,0,0-2.2,1.31,21,21,0,0,0-7,8.27,21.27,21.27,0,0,0-1.86,11.08,23.38,23.38,0,0,0,1.42,5.57,23.85,23.85,0,0,0,1.26,2.53,8.38,8.38,0,0,0,.77,1.23l.87,1.22a22.78,22.78,0,0,0,4.16,4,23.55,23.55,0,0,0,5.08,2.69,22.43,22.43,0,0,0,5.59,1.16,21.54,21.54,0,0,0,5.62-.36,24.65,24.65,0,0,0,3.9-1.26l.19-.11A22.56,22.56,0,0,0,158.35,135.92Z" transform="translate(-68.52 -60.38)"/><path class="cls-3" d="M147.08,84.18h-5.4v-13a10.78,10.78,0,1,1,21.55,0v8.65H152.45v-5.4h5.38V71.16a5.38,5.38,0,1,0-10.75,0Z" transform="translate(-68.52 -60.38)"/><path class="cls-3" d="M131,172.61H68.52V71.16A10.79,10.79,0,0,1,79.3,60.38h73.23v5.4H79.3a5.38,5.38,0,0,0-5.37,5.38v96h57Z" transform="translate(-68.52 -60.38)"/><rect class="cls-3" x="74.74" y="89.21" width="5.4" height="8.11"/><rect class="cls-3" x="23.87" y="47.9" width="14.4" height="5.43"/><rect class="cls-3" x="14.14" y="47.89" width="5.43" height="5.43"/><rect class="cls-3" x="23.87" y="59.62" width="14.22" height="5.43"/><rect class="cls-3" x="14.14" y="59.62" width="5.43" height="5.43"/><rect class="cls-3" x="23.87" y="24.45" width="29.41" height="5.43"/><rect class="cls-3" x="14.14" y="24.45" width="5.43" height="5.43"/><rect class="cls-3" x="23.87" y="36.17" width="20.16" height="5.43"/><rect class="cls-3" x="14.14" y="36.17" width="5.43" height="5.43"/><rect class="cls-3" x="23.87" y="71.41" width="20.16" height="5.29"/><rect class="cls-3" x="14.14" y="71.34" width="5.43" height="5.43"/><rect class="cls-3" x="23.87" y="83.06" width="29.41" height="5.43"/><rect class="cls-3" x="14.14" y="83.06" width="5.43" height="5.43"/></svg>