<svg id="Layer_1" data-name="Layer 1" xmlns="http://www.w3.org/2000/svg" xmlns:xlink="http://www.w3.org/1999/xlink" viewBox="0 0 113.41 130.64"><defs><style>.cls-1{fill:none;}.cls-2{clip-path:url(#clip-path);}.cls-3,.cls-6{fill:#7d4596;}.cls-4{fill:#fff;}.cls-5{fill:#203232;}.cls-6{font-size:31px;font-family:MarkOT-Bold, Mark OT;font-weight:700;}</style><clipPath id="clip-path" transform="translate(-73.52 -59.67)"><rect class="cls-1" x="73.52" y="59.68" width="113.41" height="130.65"/></clipPath></defs><g class="cls-2"><path class="cls-3" d="M157.92,122.78V79.22h6.8V66L157,61.93l-6.35,6.85H89.93a5.59,5.59,0,0,0-5.59,5.59v94.86h51.78V140.09l28.6,2.61V122.78Z" transform="translate(-73.52 -59.67)"/><path class="cls-4" d="M186.92,154.79a34.48,34.48,0,1,1-34.47-34.48,34.47,34.47,0,0,1,34.47,34.48" transform="translate(-73.52 -59.67)"/><path class="cls-3" d="M181.84,158.67a30.51,30.51,0,1,1-30.51-30.51,30.5,30.5,0,0,1,30.51,30.51" transform="translate(-73.52 -59.67)"/><path class="cls-4" d="M171.94,158.47a20.27,20.27,0,1,1-20.27-20.27,20.27,20.27,0,0,1,20.27,20.27" transform="translate(-73.52 -59.67)"/><path class="cls-5" d="M152,190.31a32,32,0,0,1-19.83-57.12h0A32,32,0,1,1,152,190.31Zm-17.69-54.4a28.54,28.54,0,0,0,14.28,50.75,28.53,28.53,0,1,0-14.28-50.75Z" transform="translate(-73.52 -59.67)"/><path class="cls-5" d="M153.14,178.45a22.38,22.38,0,0,1-5.68-.8,23.77,23.77,0,0,1-5.28-2.35,23.31,23.31,0,0,1-4.44-3.74l-1-1.16a9.43,9.43,0,0,1-.86-1.19,24.07,24.07,0,0,1-1.43-2.46,23.52,23.52,0,0,1-1.79-5.49A21.44,21.44,0,0,1,133.84,150a21.21,21.21,0,0,1,6.47-8.76,19.55,19.55,0,0,1,2.13-1.46c.37-.23.74-.44,1.11-.66l1.15-.54a21.84,21.84,0,0,1,4.66-1.47c.23,0,.44-.06.66-.09a23.39,23.39,0,0,0-2.34.1,22.34,22.34,0,0,0-9.49,3.36,21.71,21.71,0,0,0-7.61,8.48,23.16,23.16,0,0,0-2,5.89,23.59,23.59,0,0,0-.15,6.4,22.43,22.43,0,0,0,1.77,6.31,20.68,20.68,0,0,0,1.66,2.94,11.09,11.09,0,0,0,1,1.34l1,1.26a23.76,23.76,0,0,0,5.14,4.19,22.33,22.33,0,0,0,6.09,2.42,21.36,21.36,0,0,0,12.43-.8,21,21,0,0,0,5.05-2.73,25.45,25.45,0,0,1-3.83,1.52,21.56,21.56,0,0,1-5.62.73" transform="translate(-73.52 -59.67)"/><path class="cls-5" d="M152.53,122h-5.44V70.51a10.84,10.84,0,0,1,21.68,0v8.71H157.92V73.78h5.41V70.51a5.4,5.4,0,1,0-10.8,0Z" transform="translate(-73.52 -59.67)"/><path class="cls-5" d="M125.22,172.54H73.52v-102A10.85,10.85,0,0,1,84.35,59.67H158v5.44H84.35a5.41,5.41,0,0,0-5.4,5.4v96.6h43.86Z" transform="translate(-73.52 -59.67)"/></g><rect class="cls-5" x="28.85" y="20.73" width="37.58" height="5.43"/><rect class="cls-5" x="17.98" y="20.73" width="5.43" height="5.43"/><rect class="cls-5" x="28.85" y="32.56" width="37.58" height="5.43"/><rect class="cls-5" x="17.98" y="32.56" width="5.43" height="5.43"/><rect class="cls-5" x="28.85" y="44.38" width="29.41" height="5.43"/><rect class="cls-5" x="17.98" y="44.38" width="5.43" height="5.43"/><rect class="cls-5" x="28.85" y="56.21" width="29.41" height="5.43"/><rect class="cls-5" x="17.98" y="56.21" width="5.43" height="5.43"/><text class="cls-6" transform="translate(66.9 109.05)">$</text></svg>