
<svg xmlns="http://www.w3.org/2000/svg" xmlns:xlink="http://www.w3.org/1999/xlink" width="0" height="0" style="position:absolute">


		<symbol id="access_time" viewBox="0 0 48 48">
      <title>Clock</title>
			<path d="M23.99 4C12.94 4 4 12.95 4 24s8.94 20 19.99 20C35.04 44 44 35.05 44 24S35.04 4 23.99 4zM24 40c-8.84 0-16-7.16-16-16S15.16 8 24 8s16 7.16 16 16-7.16 16-16 16zm1-26h-3v12l10.49 6.3L34 29.84l-9-5.34z"></path>
		</symbol>
	
		<symbol id="accessibility" viewBox="0 0 48 48">
      <title>Accessible Software</title>
			<path d="M24 4c2.21 0 4 1.79 4 4s-1.79 4-4 4-4-1.79-4-4 1.79-4 4-4zm18 14H30v26h-4V32h-4v12h-4V18H6v-4h36v4z"></path>
		</symbol>
	
		<symbol id="accessible" viewBox="0 0 48 48">
      <title>Accessible</title>
			<circle cx="24" cy="8" r="4"></circle><path d="M38 26v-4c-3.07.04-6.18-1.5-8.14-3.67l-2.59-2.86c-.35-.38-.77-.68-1.22-.91-.02-.01-.03-.02-.04-.03h-.02c-.69-.4-1.51-.6-2.38-.51-2.08.2-3.61 2.07-3.61 4.16V30c0 2.21 1.79 4 4 4h10v10h4V33c0-2.21-1.79-4-4-4h-6v-6.9c2.58 2.13 6.49 3.89 10 3.9zM25.65 36A5.99 5.99 0 0 1 20 40c-3.31 0-6-2.69-6-6a5.99 5.99 0 0 1 4-5.65V24.2c-4.56.93-8 4.96-8 9.8 0 5.52 4.48 10 10 10 4.84 0 8.87-3.44 9.8-8h-4.15z"></path>
		</symbol>
	
		<symbol id="add" viewBox="0 0 48 48">
      <title>View More</title>
			<path d="M38 26H26v12h-4V26H10v-4h12V10h4v12h12v4z"></path>
		</symbol>
	
		<symbol id="add_circle_outline" viewBox="0 0 48 48">
      <title>Increase</title>
			<path d="M26 14h-4v8h-8v4h8v8h4v-8h8v-4h-8v-8zM24 4C12.95 4 4 12.95 4 24s8.95 20 20 20 20-8.95 20-20S35.05 4 24 4zm0 36c-8.82 0-16-7.18-16-16S15.18 8 24 8s16 7.18 16 16-7.18 16-16 16z"></path>
		</symbol>

		<symbol id="apps" viewBox="0 0 24 24">
			<title>apps</title>
			<desc>apps</desc>
			<path class="a" d="M18 24h6V18H18m0-3h6V9H18m-9-3h6V0H9m9 6h6V0H18M9 15h6V9H9M0 15h6V9H0M0 24h6V18H0m9 6h6V18H9M0 6h6V0H0Z"/>
		</symbol>
	
		<symbol id="arrow-down-searchbar-agf" viewBox="0 0 48 48">
      <title>Enter</title>
			<title>Enter</title><path d="M24 0a24 24 0 1 0 24 24A24 24 0 0 0 24 0zm8.31 28.36l-13.19 13.2-4.36-4.37L28 24 14.76 10.81l4.36-4.37 13.19 13.2L36.68 24z"></path>
		</symbol>
	
		<symbol id="arrow-up-searchbar-agf" viewBox="0 0 48 48">
      <title>arrow-up-searchbar-agf</title>
			<title>Box-arrows</title><path d="M32.31 19.64L19.12 6.44l-4.36 4.37L27.95 24 14.76 37.19l4.36 4.37 13.19-13.2L36.68 24l-4.37-4.36z"></path>
		</symbol>

	<symbol id="arrow-right-searchbar-agf" viewBox="0 0 48 48">
      <title>arrow-right</title>
      <desc>arrow-right</desc>
			<style>.st0{fill:#fff} .st1{fill:#ed5a36}</style><circle class="st0" cx="24" cy="24" r="24"></circle><path class="st1" d="M24 2C11.8 2 2 11.8 2 24s9.8 22 22 22 22-9.8 22-22S36.2 2 24 2zm7.6 26L19.5 40.1l-4-4L27.7 24 15.5 11.9l4-4L31.6 20l4 4-4 4z"></path>
		</symbol>

		<symbol id="arrow_drop_down" viewBox="0 0 48 48">
      <title>Open</title>
			<path d="M14 20l10 10 10-10z"></path>
		</symbol>
	
		<symbol id="arrow_drop_up" viewBox="0 0 48 48">
      <title>Close Drawer</title>
			<path d="M14 28l10-10 10 10z"></path>
		</symbol>
	
		<symbol id="attach_money" viewBox="0 0 48 48">
      <title>Currency</title>
			<path d="M23.6 21.8c-4.54-1.18-6-2.39-6-4.29 0-2.18 2.01-3.71 5.4-3.71 3.56 0 4.88 1.7 5 4.2h4.42c-.13-3.45-2.24-6.59-6.42-7.62V6h-6v4.32c-3.88.85-7 3.35-7 7.22 0 4.62 3.83 6.92 9.4 8.26 5.01 1.2 6 2.95 6 4.83 0 1.37-.97 3.57-5.4 3.57-4.12 0-5.75-1.85-5.96-4.2h-4.41c.25 4.38 3.52 6.83 7.37 7.66V42h6v-4.3c3.89-.75 7-3 7-7.11 0-5.66-4.86-7.6-9.4-8.79z"></path>
		</symbol>
	
		<symbol id="btn-more-prev" viewBox="0 0 150 150">
			<circle class="a" cx="75" cy="75" r="75"></circle><g transform="translate(80 75) rotate(-45)"><line class="c" x2="30"></line><line class="c" y1="30"></line></g>
		</symbol>

		<symbol id="btn-more-next" viewBox="0 0 150 150">
			<circle class="a" cx="75" cy="75" r="75"></circle><g transform="translate(70 75) rotate(135)"><line class="c" x2="30"></line><line class="c" y1="30"></line></g>
		</symbol>

		<symbol id="cancel" viewBox="0 0 48 48">
      <title>Cancel</title>
			<path d="M24 4C12.95 4 4 12.95 4 24s8.95 20 20 20 20-8.95 20-20S35.05 4 24 4zm10 27.17L31.17 34 24 26.83 16.83 34 14 31.17 21.17 24 14 16.83 16.83 14 24 21.17 31.17 14 34 16.83 26.83 24 34 31.17z"></path>
		</symbol>
	
		<symbol id="cast_connected" viewBox="0 0 48 48">
      <title>Webcast</title>
			<path d="M2 36v6h6c0-3.31-2.69-6-6-6zm0-8v4c5.52 0 10 4.48 10 10h4c0-7.73-6.27-14-14-14zm36-14H10v3.27A26.037 26.037 0 0 1 26.73 34H38V14zM2 20v4c9.94 0 18 8.06 18 18h4c0-12.15-9.85-22-22-22zM42 6H6c-2.21 0-4 1.79-4 4v6h4v-6h36v28H28v4h14c2.21 0 4-1.79 4-4V10c0-2.21-1.79-4-4-4z"></path>
		</symbol>
	
		<symbol id="check" viewBox="0 0 48 48">
      <title>Check</title>
			<path d="M18 32.3L9.7 24l-2.8 2.8L18 38l24-24l-2.8-2.8L18 32.3z"></path>
		</symbol>
	
		<symbol id="checkbox-checked-agf" viewBox="0 0 48 48">
      <title>Selected</title>
			<title>Selected</title><path d="M-1-1v50h50V-1zm27 35.48l-3.47 5.1L6.1 28.41l3.46-5.1L20.92 31l15.7-23.13 5.11 3.46z"></path>
		</symbol>
	
		<symbol id="checkbox-unchecked-agf" viewBox="0 0 48 48">
      <title>Unselected</title>
			<title>Unselected</title><path class="st0" d="M46 2v44H2V2h44m1-1H1v46h46V1z"></path><path class="st1 st2" d="M46 2v44H2V2h44m1-1H1v46h46V1z"></path>
		</symbol>
	
		<symbol id="clear" viewBox="0 0 48 48">
      <title>Clear</title>
			<path d="M38 12.83L35.17 10 24 21.17 12.83 10 10 12.83 21.17 24 10 35.17 12.83 38 24 26.83 35.17 38 38 35.17 26.83 24z"></path>
		</symbol>
	
		<symbol id="close" viewBox="0 0 48 48">
      <title>Close</title>
			<path d="M38 12.83L35.17 10 24 21.17 12.83 10 10 12.83 21.17 24 10 35.17 12.83 38 24 26.83 35.17 38 38 35.17 26.83 24z"></path>
		</symbol>

		<symbol id="compare_arrows" viewBox="0 0 48 48">
      <title>Compare</title>
			<path d="M18.02 28H4v4h14.02v6L26 30l-7.98-8v6zm11.96-2v-6H44v-4H29.98v-6L22 18l7.98 8z"></path>
		</symbol>
	
		<symbol id="computer" viewBox="0 0 48 48">
      <title>Download</title>
			<path d="M40 36c2.21 0 3.98-1.79 3.98-4L44 12c0-2.21-1.79-4-4-4H8c-2.21 0-4 1.79-4 4v20c0 2.21 1.79 4 4 4H0v4h48v-4h-8zM8 12h32v20H8V12z"></path>
		</symbol>

		<symbol id="content_copy" viewBox="0 0 48 48">
      <title>Compare funds</title>
			<path d="M32 2H8C5.79 2 4 3.79 4 6v28h4V6h24V2zm6 8H16c-2.21 0-4 1.79-4 4v28c0 2.21 1.79 4 4 4h22c2.21 0 4-1.79 4-4V14c0-2.21-1.79-4-4-4zm0 32H16V14h22v28z"></path>
		</symbol>
	
		<symbol id="description" viewBox="0 0 48 48">
      <title>Description</title>
			<path d="M28 4H12C9.79 4 8.02 5.79 8.02 8L8 40c0 2.21 1.77 4 3.98 4H36c2.21 0 4-1.79 4-4V16L28 4zm4 32H16v-4h16v4zm0-8H16v-4h16v4zm-6-10V7l11 11H26z"></path>
		</symbol>
	
		<symbol id="doc-icon-agf" viewBox="0 0 48 48">
      <title>Doc</title>
			<title>Doc</title><path d="M24.17 23.61c-1.67 0-2.83 1.33-2.83 3.55s1.16 3.55 2.83 3.55S27 29.39 27 27.16s-1.16-3.55-2.83-3.55zM13.21 23.7h-1.82v6.92h1.82c2 0 2.93-1.38 2.93-3.46s-.94-3.46-2.93-3.46z"></path><path d="M40 16L25.85 1.85a1.4 1.4 0 0 0-1-.41h-16a1.39 1.39 0 0 0-1.39 1.39v41.53a1.39 1.39 0 0 0 1.39 1.39H39a1.38 1.38 0 0 0 1.38-1.39V17a1.38 1.38 0 0 0-.38-1zM26.21 6.19l9.58 9.5h-9.58zm-13 26.4h-4V21.73h4c3.16 0 5.11 2.13 5.11 5.43s-1.92 5.43-5.08 5.43zm10.93.18c-3 0-5-2.23-5-5.61s2-5.61 5-5.61 5 2.24 5 5.61-1.97 5.61-4.97 5.61zM35 30.71a2.6 2.6 0 0 0 2.34-1.38l1.76 1.11a4.54 4.54 0 0 1-4.1 2.33c-3 0-5-2.21-5-5.61s2-5.61 5-5.61A4.47 4.47 0 0 1 39.15 24l-1.83 1A2.56 2.56 0 0 0 35 23.61c-1.63 0-2.8 1.33-2.8 3.55s1.23 3.55 2.8 3.55z"></path>
		</symbol>
	
		<symbol id="email" viewBox="0 0 48 48">
      <title>Email</title>
			<path d="M40 8H8c-2.21 0-3.98 1.79-3.98 4L4 36c0 2.21 1.79 4 4 4h32c2.21 0 4-1.79 4-4V12c0-2.21-1.79-4-4-4zm0 8L24 26 8 16v-4l16 10 16-10v4z"></path>
		</symbol>
	
		<symbol id="exc-icon-agf" viewBox="0 0 48 48">
      <title>xls</title>
			<title>Doc-PDF_Icons</title><path  d="M40.07 16L25.91 1.85a1.4 1.4 0 0 0-1-.41h-16a1.38 1.38 0 0 0-1.38 1.39v41.53a1.38 1.38 0 0 0 1.38 1.39h30.18a1.38 1.38 0 0 0 1.38-1.39V17a1.38 1.38 0 0 0-.4-1zm-13.8-9.81l9.59 9.5h-9.59zm-7.69 26.4h-7.21V21.73h7.19v1.93H13.5v2.49h4.79v1.93H13.5v2.58h5.08zm7.3 0l-2.16-3.86-2.15 3.86h-2.38l3.23-5.5-3.17-5.35h2.41l2.08 3.75 2.1-3.75h2.37l-3.16 5.35 3.23 5.5zM33 30.71a2.6 2.6 0 0 0 2.34-1.38l1.76 1.11a4.54 4.54 0 0 1-4.1 2.33c-3 0-5-2.21-5-5.61s2-5.61 5-5.61A4.47 4.47 0 0 1 37.16 24l-1.83 1A2.56 2.56 0 0 0 33 23.61c-1.62 0-2.8 1.33-2.8 3.55s1.24 3.55 2.8 3.55z"></path>
		</symbol>
	
		<symbol id="file_download" viewBox="0 0 48 48">
      <title>Download File</title>
			<path d="M38 18h-8V6H18v12h-8l14 14 14-14zM10 36v4h28v-4H10z"></path>
		</symbol>

		<symbol id="facebook" viewBox="0 0 17.4 35.9">
      <title>facebook</title>
			<path d="M10.9 8.8v-.2c0-1.7.3-2.7 2.5-2.7h3.9l.1-5.7S15.6 0 13.1 0c-6 0-8.7 3.7-8.7 7.8V13H0v6h4.4v16.8h6.4V19h6.3l.3-6.1h-6.6V8.8z"></path>
		</symbol>
	
		<symbol id="format_quote" viewBox="0 0 48 48">
      <title>Quote</title>
			<path d="M12 34h6l4-8V14H10v12h6zm16 0h6l4-8V14H26v12h6z"></path>
		</symbol>
		
		<symbol id="help" viewBox="0 0 48 48">
      <title>help</title>
      		<path d="M24 4C12.95 4 4 12.95 4 24s8.95 20 20 20 20-8.95 20-20S35.05 4 24 4zm2 34h-4v-4h4v4zm4.13-15.49l-1.79 1.84C26.9 25.79 26 27 26 30h-4v-1c0-2.21.9-4.21 2.34-5.66l2.49-2.52C27.55 20.1 28 19.1 28 18c0-2.21-1.79-4-4-4s-4 1.79-4 4h-4c0-4.42 3.58-8 8-8s8 3.58 8 8c0 1.76-.71 3.35-1.87 4.51z"></path>
		</symbol>
		
		<symbol id="keyboard_arrow_down" viewBox="0 0 48 48">
      <title>Toggle Down</title>
			<path d="M14.83 16.42L24 25.59l9.17-9.17L36 19.25l-12 12-12-12z"></path>
		</symbol>
	
		<symbol id="keyboard_arrow_left" viewBox="0 0 48 48">
      <title>Arrow Left</title>
			<path d="M30.83 32.67l-9.17-9.17 9.17-9.17L28 11.5l-12 12 12 12z"></path>
		</symbol>
	
		<symbol id="keyboard_arrow_right" viewBox="0 0 48 48">
      <title>Read Now</title>
			<path d="M17.17 32.92l9.17-9.17-9.17-9.17L20 11.75l12 12-12 12z"></path>
		</symbol>
	
		<symbol id="keyboard_arrow_up" viewBox="0 0 48 48">
      <title>Toggle Up</title>
			<path d="M14.83 30.83L24 21.66l9.17 9.17L36 28 24 16 12 28z"></path>
		</symbol>


		<symbol id="linkedIn" viewBox="0 0 26.2 25">
      <title>linkedIn</title>
			<path d="M14.7 10.6s-.1 0 0 0z" fill="none"></path><path d="M.3 8.1h5.6V25H.3zM0 2.9c0 1.6 1.2 2.9 3.1 2.9 2 0 3.2-1.3 3.2-2.9C6.3 1.3 5.1 0 3.2 0 1.3 0 0 1.3 0 2.9zM26.2 25v-9.7c0-5.2-2.8-7.6-6.5-7.6-3 0-4.3 1.6-5.1 2.8v0-2.4H9.1c.1 1.6 0 16.9 0 16.9h5.6v-9.4c0-.5 0-1 .2-1.4.4-1 1.3-2.1 2.9-2.1 2 0 2.8 1.5 2.8 3.8v9h5.6z"></path>
		</symbol>

	
		<symbol id="lock" viewBox="0 0 48 48">
      <title>Lock</title>
			<path d="M36 16h-2v-4c0-5.52-4.48-10-10-10S14 6.48 14 12v4h-2c-2.21 0-4 1.79-4 4v20c0 2.21 1.79 4 4 4h24c2.21 0 4-1.79 4-4V20c0-2.21-1.79-4-4-4zM24 34c-2.21 0-4-1.79-4-4s1.79-4 4-4 4 1.79 4 4-1.79 4-4 4zm6.2-18H17.8v-4c0-3.42 2.78-6.2 6.2-6.2 3.42 0 6.2 2.78 6.2 6.2v4z"></path>
		</symbol>
	
		<symbol id="lock_open" viewBox="0 0 48 48">
      <title>Open Lock</title>
			<path d="M24 34c2.21 0 4-1.79 4-4s-1.79-4-4-4-4 1.79-4 4 1.79 4 4 4zm12-18h-2v-4c0-5.52-4.48-10-10-10S14 6.48 14 12h3.8c0-3.42 2.78-6.2 6.2-6.2 3.42 0 6.2 2.78 6.2 6.2v4H12c-2.21 0-4 1.79-4 4v20c0 2.21 1.79 4 4 4h24c2.21 0 4-1.79 4-4V20c0-2.21-1.79-4-4-4zm0 24H12V20h24v20z"></path>
		</symbol>
	
		<symbol id="lock_outline" viewBox="0 0 48 48">
      <title>Lock</title>
			<path d="M24 34c2.2 0 4-1.8 4-4s-1.8-4-4-4-4 1.8-4 4 1.8 4 4 4zm12-18h-2v-4c0-5.52-4.48-10-10-10S14 6.48 14 12v4h-2c-2.2 0-4 1.8-4 4v20c0 2.2 1.8 4 4 4h24c2.2 0 4-1.8 4-4V20c0-2.2-1.8-4-4-4zm-18.2-4c0-3.42 2.78-6.2 6.2-6.2s6.2 2.78 6.2 6.2v4H17.8v-4zM36 40H12V20h24v20z"></path>
		</symbol>
	
		<symbol id="pdf-icon-agf" viewBox="0 0 48 48">
      <title>pdf</title>
			<title>Doc-PDF_Icons</title><path d="M23.89 23.71h-1.82v6.91h1.82c2 0 2.94-1.37 2.94-3.45s-.95-3.46-2.94-3.46z"></path><path d="M40.07 16L25.91 1.85a1.4 1.4 0 0 0-1-.41h-16a1.38 1.38 0 0 0-1.38 1.39v41.54a1.38 1.38 0 0 0 1.38 1.38h30.18a1.38 1.38 0 0 0 1.38-1.38V17a1.38 1.38 0 0 0-.4-1zm-13.8-9.81l9.59 9.5h-9.59zm-11.2 22.48h-1.85v3.93H11.1V21.73h4c2.42 0 3.81 1.35 3.81 3.5s-1.43 3.44-3.84 3.44zm8.86 3.93H20V21.73h4c3.15 0 5.11 2.13 5.11 5.44s-2.03 5.43-5.18 5.43zm13.39-8.93h-5v2.56H37v1.94h-4.65v4.43h-2.13V21.73h7.1z"></path><path d="M15 23.68h-1.78v3.08H15c1 0 1.67-.51 1.67-1.53s-.61-1.55-1.67-1.55z"></path>
		</symbol>
	
		<symbol id="person" viewBox="0 0 48 48">
      <title>Person</title>
			<path d="M24 24c4.42 0 8-3.59 8-8 0-4.42-3.58-8-8-8s-8 3.58-8 8c0 4.41 3.58 8 8 8zm0 4c-5.33 0-16 2.67-16 8v4h32v-4c0-5.33-10.67-8-16-8z"></path>
		</symbol>
	
		<symbol id="place" viewBox="0 0 48 48">
      <title>Office</title>
			<path d="M24 4c-7.73 0-14 6.27-14 14 0 10.5 14 26 14 26s14-15.5 14-26c0-7.73-6.27-14-14-14zm0 19c-2.76 0-5-2.24-5-5s2.24-5 5-5 5 2.24 5 5-2.24 5-5 5z"></path>
		</symbol>
	
		<symbol id="play_circle_outline" viewBox="0 0 48 48">
      <title>Play</title>
			<path d="M20 33l12-9-12-9v18zm4-29C12.95 4 4 12.95 4 24s8.95 20 20 20 20-8.95 20-20S35.05 4 24 4zm0 36c-8.82 0-16-7.18-16-16S15.18 8 24 8s16 7.18 16 16-7.18 16-16 16z"></path>
		</symbol>
	
		<symbol id="ppt-icon-agf" viewBox="0 0 48 48">
      <title>ppt</title>
			<title>Doc-PDF_Icons</title><path d="M40.07 16L25.91 1.85a1.4 1.4 0 0 0-1-.41h-16a1.38 1.38 0 0 0-1.38 1.39v41.53a1.38 1.38 0 0 0 1.38 1.39h30.18a1.38 1.38 0 0 0 1.38-1.39V17a1.38 1.38 0 0 0-.4-1zm-13.8-9.81l9.59 9.5h-9.59zm-11 22.46h-1.85v3.94h-2.13V21.68h4c2.44 0 3.84 1.35 3.84 3.5s-1.43 3.47-3.85 3.47zm9.28 0h-1.84v3.94h-2.14V21.68h4c2.44 0 3.83 1.35 3.83 3.5s-1.4 3.47-3.84 3.47zm12.6-5h-3v8.93H32v-8.92h-3v-2h8.1z"></path><path d="M24.52 23.63h-1.81v3.1h1.81c1 0 1.68-.52 1.68-1.55s-.64-1.55-1.68-1.55zM15.24 23.63h-1.82v3.1h1.82c1 0 1.68-.52 1.68-1.55s-.64-1.55-1.68-1.55z"></path>
		</symbol>
	
		<symbol id="print" viewBox="0 0 48 48">
      <title>Print</title>
			<path d="M38 16H10c-3.31 0-6 2.69-6 6v12h8v8h24v-8h8V22c0-3.31-2.69-6-6-6zm-6 22H16V28h16v10zm6-14c-1.11 0-2-.89-2-2s.89-2 2-2c1.11 0 2 .89 2 2s-.89 2-2 2zM36 6H12v8h24V6z"></path>
		</symbol>

		<symbol id="mic" viewBox="0 0 48 48">
      <title>Podcast</title>
			<path d="M24 28c3.31 0 5.98-2.69 5.98-6L30 10c0-3.32-2.68-6-6-6-3.31 0-6 2.68-6 6v12c0 3.31 2.69 6 6 6zm10.6-6c0 6-5.07 10.2-10.6 10.2-5.52 0-10.6-4.2-10.6-10.2H10c0 6.83 5.44 12.47 12 13.44V42h4v-6.56c6.56-.97 12-6.61 12-13.44h-3.4z"></path>
		</symbol>

		<symbol id="wifi_tethering" viewBox="0 0 48 48">
      <title>Podcast</title>
			<path d="M24 22c-2.21 0-4 1.79-4 4s1.79 4 4 4 4-1.79 4-4-1.79-4-4-4zm12 4c0-6.63-5.37-12-12-12s-12 5.37-12 12c0 4.44 2.41 8.3 5.99 10.38l2.02-3.48C17.62 31.51 16 28.96 16 26c0-4.42 3.58-8 8-8s8 3.58 8 8c0 2.96-1.62 5.51-4.01 6.89l2.02 3.48C33.59 34.3 36 30.44 36 26zM24 6C12.95 6 4 14.95 4 26c0 7.39 4.02 13.83 9.99 17.29l2-3.46C11.22 37.07 8 31.91 8 26c0-8.84 7.16-16 16-16s16 7.16 16 16c0 5.91-3.22 11.07-7.99 13.84l2 3.46C39.98 39.83 44 33.39 44 26c0-11.05-8.96-20-20-20z"></path>
		</symbol>

	
		<symbol id="radio_button_checked" viewBox="0 0 48 48">
      <title>Radio Selected</title>
			<path d="M24 14c-5.52 0-10 4.48-10 10s4.48 10 10 10 10-4.48 10-10-4.48-10-10-10zm0-10C12.95 4 4 12.95 4 24s8.95 20 20 20 20-8.95 20-20S35.05 4 24 4zm0 36c-8.84 0-16-7.16-16-16S15.16 8 24 8s16 7.16 16 16-7.16 16-16 16z"></path>
		</symbol>
	
		<symbol id="radio_button_unchecked" viewBox="0 0 48 48">
      <title>Radio Unselected</title>
			<path d="M24 4C12.95 4 4 12.95 4 24s8.95 20 20 20 20-8.95 20-20S35.05 4 24 4zm0 36c-8.84 0-16-7.16-16-16S15.16 8 24 8s16 7.16 16 16-7.16 16-16 16z"></path>
		</symbol>
	
		<symbol id="remove" viewBox="0 0 48 48">
       <title>Remove</title>
			<path d="M38 26H10v-4h28v4z"></path>
		</symbol>
	
		<symbol id="remove_circle_outline" viewBox="0 0 48 48">
       <title>Decrease</title>
			<path d="M14 22v4h20v-4H14zM24 4C12.95 4 4 12.95 4 24s8.95 20 20 20 20-8.95 20-20S35.05 4 24 4zm0 36c-8.82 0-16-7.18-16-16S15.18 8 24 8s16 7.18 16 16-7.18 16-16 16z"></path>
		</symbol>
	
		<symbol id="remove_red_eye" viewBox="0 0 48 48">
      <title>Blog</title>
			<path d="M24 9C14 9 5.46 15.22 2 24c3.46 8.78 12 15 22 15s18.54-6.22 22-15C42.54 15.22 34.01 9 24 9zm0 25c-5.52 0-10-4.48-10-10s4.48-10 10-10 10 4.48 10 10-4.48 10-10 10zm0-16c-3.31 0-6 2.69-6 6s2.69 6 6 6 6-2.69 6-6-2.69-6-6-6z"></path>
		</symbol>

		<symbol id="rss_feed" viewBox="0 0 48 48">
      <title>RSS feed</title>
			<circle cx="12.36" cy="35.64" r="4.36"></circle><path d="M8 8.89v5.66c14.06 0 25.46 11.4 25.46 25.46h5.66C39.11 22.82 25.18 8.89 8 8.89zM8 20.2v5.66c7.81 0 14.14 6.34 14.14 14.14h5.66c0-10.93-8.87-19.8-19.8-19.8z"></path>
		</symbol>
	
		<symbol id="search" viewBox="0 0 48 48">
      <title>Search</title>
			<path d="M31 28h-1.59l-.55-.55C30.82 25.18 32 22.23 32 19c0-7.18-5.82-13-13-13S6 11.82 6 19s5.82 13 13 13c3.23 0 6.18-1.18 8.45-3.13l.55.55V31l10 9.98L40.98 38 31 28zm-12 0a9 9 0 1 1 .001-18.001A9 9 0 0 1 19 28z"></path>
		</symbol>
	
		<symbol id="share" viewBox="0 0 48 48">
      <title>Share</title>
			<path d="M36 32.17c-1.52 0-2.89.59-3.93 1.54L17.82 25.4c.11-.45.18-.92.18-1.4s-.07-.95-.18-1.4l14.1-8.23c1.07 1 2.5 1.62 4.08 1.62 3.31 0 6-2.69 6-6s-2.69-6-6-6-6 2.69-6 6c0 .48.07.95.18 1.4l-14.1 8.23c-1.07-1-2.5-1.62-4.08-1.62-3.31 0-6 2.69-6 6s2.69 6 6 6c1.58 0 3.01-.62 4.08-1.62l14.25 8.31c-.1.42-.16.86-.16 1.31A5.83 5.83 0 1 0 36 32.17z"></path>
		</symbol>

		<symbol id="show_chart" viewBox="0 0 48 48">
      <title>Show chart</title>
			<path d="M7 36.99l12-12.03 8 8 17-19.12-2.82-2.83L27 26.96l-8-8L4 33.99z"></path>
		</symbol>
	
		<symbol id="star" viewBox="0 0 24 24">
      <title>Star</title>
			<path d="M0 0h24v24H0z" fill="none"></path><path d="M12 17.27L18.18 21l-1.64-7.03L22 9.24l-7.19-.61L12 2 9.19 8.63 2 9.24l5.46 4.73L5.82 21z"></path><path d="M0 0h24v24H0z" fill="none"></path>
		</symbol>

		<symbol id="start-reading" viewBox="0 0 68 68">
			<g transform="rotate(90 1209.25 -605.25)"><circle class="a" cx="34" cy="34" r="34" transform="translate(1814.5 536)"></circle><g transform="translate(1815 542)"><path class="b" d="M3.5 1h54v54h-54z"></path><g transform="rotate(135 15.123 23.068)"><path class="c" d="M0 0h16M0 16V0"></path></g></g></g>
		</symbol>

		<symbol id="toc" viewBox="0 0 24 24">
			<title>Table of Contents</title>
			<path d="M0 0h24v24H0z" fill="none"/><path d="M3 9h14V7H3v2zm0 4h14v-2H3v2zm0 4h14v-2H3v2zm16 0h2v-2h-2v2zm0-10v2h2V7h-2zm0 6h2v-2h-2v2z"/>
		</symbol>

		<symbol id="twitter" viewBox="0 0 32.1 26.1">
      <title>twitter</title>
			<path d="M15.7 6.6c0 .5.1 1 .2 1.5-5.6-.3-10.4-2.9-13.7-6.9-.6 1-.9 2.1-.9 3.3 0 2.3 1.2 4.3 2.9 5.5-1.1 0-2.1-.3-3-.8v.1c0 3.2 2.3 5.9 5.3 6.5-.5.1-1.1.2-1.7.2-.4 0-.8 0-1.2-.1.8 2.6 3.3 4.5 6.2 4.6-2.3 1.8-5.1 2.8-8.2 2.8-.5 0-1.1 0-1.6-.1 2.9 1.9 6.4 3 10.1 3 12.1 0 18.8-10 18.8-18.8v-.9c1.3-.9 2.4-2.1 3.3-3.4-1.2.5-2.5.9-3.8 1 1.4-.8 2.4-2.1 2.9-3.6-1.3.8-2.7 1.3-4.2 1.6C25.9.8 24.1 0 22.3 0c-3.7 0-6.6 3-6.6 6.6z"></path>
		</symbol>

	
		<symbol id="view_list" viewBox="0 0 48 48">
      <title>View List</title>
			<path d="M8 28h8v-8H8v8zm0 10h8v-8H8v8zm0-20h8v-8H8v8zm10 10h24v-8H18v8zm0 10h24v-8H18v8zm0-28v8h24v-8H18z"></path>
		</symbol>

			<symbol id="view_module" viewBox="0 0 48 48">
      <title>View module</title>
			<path d="M8 22h10V10H8v12zm0 14h10V24H8v12zm12 0h10V24H20v12zm12 0h10V24H32v12zM20 22h10V10H20v12zm12-12v12h10V10H32z"></path>
		</symbol>

			<symbol id="visibility" viewBox="0 0 48 48">
      <title>visibility</title>
			<path d="M24 9C14 9 5.46 15.22 2 24c3.46 8.78 12 15 22 15 10.01 0 18.54-6.22 22-15-3.46-8.78-11.99-15-22-15zm0 25c-5.52 0-10-4.48-10-10s4.48-10 10-10 10 4.48 10 10-4.48 10-10 10zm0-16c-3.31 0-6 2.69-6 6s2.69 6 6 6 6-2.69 6-6-2.69-6-6-6z"></path>
		</symbol>
	
		<symbol id="zoom_out_map" viewBox="0 0 48 48">
      <title>Zoom Out</title>
			<path d="M30 6l4.59 4.59-5.76 5.75 2.83 2.83 5.75-5.76L42 18V6zM6 18l4.59-4.59 5.75 5.76 2.83-2.83-5.76-5.75L18 6H6zm12 24l-4.59-4.59 5.76-5.75-2.83-2.83-5.75 5.76L6 30v12zm24-12l-4.59 4.59-5.75-5.76-2.83 2.83 5.76 5.75L30 42h12z"></path>
		</symbol>

		<symbol id="baseline-arrow_back_ios" viewBox="0 0 48 48">
      <title>Arrow Back</title>
			<path d="M11.67 3.87L9.9 2.1 0 12l9.9 9.9 1.77-1.77L3.54 12z"></path>
		</symbol>

		<symbol id="baseline-arrow_forwad_ios" viewBox="0 0 48 48">
      <title>Arrow forward</title>
			<path d="M5.88 4.12L13.76 12l-7.88 7.88L8 22l10-10L8 2z"></path>
		</symbol>

		<symbol id="play_circle_filled" viewBox="0 0 48 48">
      <title>Play</title>
			<path d="M24 4C12.95 4 4 12.95 4 24s8.95 20 20 20 20-8.95 20-20S35.05 4 24 4zm-4 29V15l12 9-12 9z"></path>
		</symbol>

		<symbol id="add_circle" viewBox="0 0 48 48">
      <title>Read More</title>
			<path d="M24 4C12.95 4 4 12.95 4 24s8.95 20 20 20 20-8.95 20-20S35.05 4 24 4zm10 22h-8v8h-4v-8h-8v-4h8v-8h4v8h8v4z"></path>
		</symbol>

		<symbol id="youtube" viewBox="0 0 48 48">
      <title>Youtube</title>
			<path d="M260.4 449c-57.1-1.8-111.4-3.2-165.7-5.3-11.7-.5-23.6-2.3-35-5-21.4-5-36.2-17.9-43.8-39-6.1-17-8.3-34.5-9.9-52.3-3.5-41.8-3.5-83.6-1.8-125.4 1-23.6 1.6-47.4 7.9-70.3 3.8-13.7 8.4-27.1 19.5-37 11.7-10.5 25.4-16.8 41-17.5 42.8-2.1 85.5-4.7 128.3-5.1 57.6-.6 115.3.2 172.9 1.3 24.9.5 50 1.8 74.7 5 22.6 3 39.5 15.6 48.5 37.6 6.9 16.9 9.5 34.6 11 52.6 3.9 45.1 4 90.2 1.8 135.3-1.1 22.9-2.2 45.9-8.7 68.2-7.4 25.6-23.1 42.5-49.3 48.3-10.2 2.2-20.8 3-31.2 3.4-54.4 1.9-108.7 3.6-160.2 5.2zm-55.3-113.7c45.6-23.6 90.7-47 136.7-70.9-45.9-91-47.5-136.7-71.4v142.3z"></path>
		</symbol>


		<symbol id="ea-icon" viewBox="0 0 213.88 80.44">
      <title>essentialaccessibility</title>
			<path d="M40.22 0h26.5a40.22 40.22 0 0 1 40.22 40.22 40.22 40.22 0 0 1-40.22 40.22h-26.5A40.22 40.22 0 0 1 0 40.22 40.22 40.22 0 0 1 40.22 0zM147.16 0h26.5a40.22 40.22 0 0 1 40.22 40.22 40.22 40.22 0 0 1-40.22 40.22h-26.5a40.22 40.22 0 0 1-40.22-40.22A40.22 40.22 0 0 1 147.16 0z" fill="#ed5a35"></path><circle cx="107.6" cy="40.22" r="26.97" fill="#fff"></circle><path d="M45.71 23.2a4.09 4.09 0 1 0-4.14-4.08 4.09 4.09 0 0 0 4.14 4.08zM56.51 50.36a2.38 2.38 0 0 0-1.61 1.75v.09a12.06 12.06 0 0 1-7.81 7.65 11.4 11.4 0 0 1-4.89.41 12.79 12.79 0 0 1-6.5-3.14l-.19-.12c-.18-.17-.35-.35-.51-.53l-.45-.47-.14-.18a12.36 12.36 0 0 1-2.19-4.19 12.92 12.92 0 0 1-.42-5.39A12.26 12.26 0 0 1 38 37.1l.07-.06a2.44 2.44 0 0 0-.53-4.65 2.31 2.31 0 0 0-1.37.22 17.21 17.21 0 0 0-9.2 13 17.75 17.75 0 0 0 .64 7.8 16.6 16.6 0 0 0 20.58 11.3h.07a17 17 0 0 0 11.15-11.3 2.49 2.49 0 0 0 0-1.43 2.33 2.33 0 0 0-2.88-1.61z" fill="#fff"></path><path d="M75.88 53.74a1.86 1.86 0 0 0-2.5-.67l-2.73 1.53-6.91-10.43a2.49 2.49 0 0 0-2.11-1.28h-13v-4.13h9a2.6 2.6 0 0 0 0-5.17h-9v-5.37a2.92 2.92 0 0 0-5.84 0v17a3 3 0 0 0 3.27 2.92h15.08L67.71 58a2.15 2.15 0 0 0 1.34.92 1.4 1.4 0 0 0 .41.06h.06a1.76 1.76 0 0 0 .72-.12h.25l4.7-2.63a1.79 1.79 0 0 0 .74-2.43.31.31 0 0 0-.05-.06zM180.94 64.45a.44.44 0 0 1-.44.44h-36.18a.44.44 0 0 1-.44-.44V51.24a.44.44 0 0 1 .44-.44h36.18a.43.43 0 0 1 .44.42v13.23m-23.51-7.36H161a.4.4 0 0 0 .38-.39v-3.57a.4.4 0 0 0-.38-.39h-3.57a.38.38 0 0 0-.39.39v3.57a.38.38 0 0 0 .39.39m-6.78 1.28h-3.57a.38.38 0 0 0-.38.38v3.57a.38.38 0 0 0 .38.38h3.57a.38.38 0 0 0 .39-.37v-3.57a.38.38 0 0 0-.37-.39m0-1.28h3.57a.38.38 0 0 0 .39-.39v-3.57a.38.38 0 0 0-.39-.39h-3.57a.38.38 0 0 0-.39.39v3.57a.38.38 0 0 0 .39.39m13.53 0h3.57a.38.38 0 0 0 .39-.39v-3.57a.38.38 0 0 0-.39-.39h-3.57a.4.4 0 0 0-.38.39v3.57a.4.4 0 0 0 .38.39m6.77 0h3.57a.4.4 0 0 0 .38-.39v-3.57a.4.4 0 0 0-.38-.39H171a.38.38 0 0 0-.38.38v3.58a.38.38 0 0 0 .37.39m0 1.28h-3.57a.38.38 0 0 0-.38.38v3.57a.38.38 0 0 0 .38.38H171a.38.38 0 0 0 .39-.37v-3.57a.38.38 0 0 0-.37-.39m-13.53 0h-3.59a.38.38 0 0 0-.38.38v3.57a.38.38 0 0 0 .36.38h3.59a.38.38 0 0 0 .39-.37v-3.57a.38.38 0 0 0-.37-.39m20.3 0h-3.59a.38.38 0 0 0-.38.38v3.57a.38.38 0 0 0 .38.38h3.57a.4.4 0 0 0 .39-.38v-3.56a.38.38 0 0 0-.39-.39m-13.53 0h-3.57a.38.38 0 0 0-.39.37v3.59a.38.38 0 0 0 .38.38h3.58a.4.4 0 0 0 .39-.38v-3.57a.38.38 0 0 0-.39-.39m-19.43-9.82a.36.36 0 0 0 .33.39h34.64a.37.37 0 0 0 .33-.39V15.94a.36.36 0 0 0-.33-.39h-34.69a.36.36 0 0 0-.33.39zm4.69-5.78v-22a.31.31 0 0 1 .3-.32h25.52a.29.29 0 0 1 .29.31v22a.3.3 0 0 1-.28.32h-25.58a.31.31 0 0 1-.3-.32" fill="#fff"></path><path d="M204 80v-4.42h-1.43v-.91h3.84v.91H205V80zM207 80v-5.33h1.46l.88 3.67.87-3.67h1.46V80h-.9v-4.18l-1 4.22h-.94l-1-4.22V80zM118.54 35.11L97.08 23.94c0 4.6.52 7.56 3.67 9.2l10.78 5.61zM121.35 36.57l-7 3.64-13.5 7c-3.07 1.67-3.77 5.29-3.77 9.26l19.49-10.14c4.31-2.35 4.78-5.22 4.78-9.79z" fill="#ed5a35"></path>
		</symbol>

	
</svg>
