<svg id="Layer_1" data-name="Layer 1" xmlns="http://www.w3.org/2000/svg" viewBox="0 0 152.41 174.38"><defs><style>.cls-1,.cls-6{fill:#7d4596;}.cls-2,.cls-5{fill:#fff;}.cls-3{fill:#203232;}.cls-4{fill:none;}.cls-5,.cls-6{font-size:41.83px;font-family:MarkOT-Bold, Mark OT;font-weight:700;}</style></defs><polygon class="cls-1" points="99.37 134.79 110.14 134.49 109.67 172 101.22 171.69 99.37 134.79"/><path class="cls-1" d="M134,187.64H64.57V60.37a7.51,7.51,0,0,1,7.49-7.5h81.4L162,43.68l10.41,5.48V152.05L134,148.54Z" transform="translate(-50.05 -40.65)"/><circle class="cls-2" cx="106.15" cy="75.22" r="46.26"/><circle class="cls-1" cx="104.39" cy="80.55" r="40.93"/><circle class="cls-2" cx="104.85" cy="80.28" r="27.19"/><path class="cls-3" d="M155.28,163.65A42.91,42.91,0,0,1,128.67,87h0a42.92,42.92,0,1,1,26.61,76.63Zm-23.73-73a38.27,38.27,0,1,0,28.2-7.94,38.3,38.3,0,0,0-28.2,7.94Z" transform="translate(-50.05 -40.65)"/><path class="cls-3" d="M145.86,214.89l.66-43.13h14.61L162,215ZM150,176.65l-1.77,33.92,10.48.26v-34.1Z" transform="translate(-50.05 -40.65)"/><path class="cls-3" d="M156.88,147.75a30.48,30.48,0,0,1-7.63-1.08,31.85,31.85,0,0,1-7.08-3.16,31,31,0,0,1-6-5l-1.27-1.56a11.05,11.05,0,0,1-1.15-1.6,31.26,31.26,0,0,1-1.92-3.29,31.62,31.62,0,0,1-2.4-7.37A28.68,28.68,0,0,1,131,109.6a27.85,27.85,0,0,1,11.53-13.72L144,95l1.55-.72a29.27,29.27,0,0,1,6.26-2c.3-.06.59-.07.88-.11a30.54,30.54,0,0,0-3.14.13,30,30,0,0,0-12.74,4.5A29.29,29.29,0,0,0,126.6,108.2a31.2,31.2,0,0,0-2.61,7.9,31.6,31.6,0,0,0-.2,8.59,29.9,29.9,0,0,0,2.37,8.47,29.35,29.35,0,0,0,2.22,3.94,15.57,15.57,0,0,0,1.29,1.8l1.36,1.69a32,32,0,0,0,6.89,5.62,30.52,30.52,0,0,0,8.17,3.25,31.43,31.43,0,0,0,8.56.69,31,31,0,0,0,8.13-1.77,28.38,28.38,0,0,0,6.77-3.67,30.57,30.57,0,0,1-5.14,2A28.77,28.77,0,0,1,156.88,147.75Z" transform="translate(-50.05 -40.65)"/><path class="cls-4" d="M171.25,142.58a16.44,16.44,0,0,0,1.41-1.3c.44-.44.91-.83,1.31-1.29a29.05,29.05,0,0,0,7.47-22.93,28.9,28.9,0,0,0-2.23-8.28c-.24-.54-.48-1-.7-1.53s-.5-.9-.72-1.3a16.09,16.09,0,0,0-1.24-2l-1.14-1.59-1.28-1.47a15.63,15.63,0,0,0-1.64-1.68c-.34-.31-.68-.67-1.09-1l-1.33-1a28.42,28.42,0,0,0-7.53-4.11,29.2,29.2,0,0,0-7.93-1.67c-.3,0-.59,0-.89.06A28.74,28.74,0,0,0,147.35,93l-1.59.62-1.55.78a28.71,28.71,0,0,0-3,1.77,28.11,28.11,0,0,0-11.93,26.11,26.71,26.71,0,0,0,3.61,10.92,10.65,10.65,0,0,0,1,1.67l1.17,1.65a30.79,30.79,0,0,0,5.62,5.38,31.18,31.18,0,0,0,6.85,3.62,30.25,30.25,0,0,0,7.54,1.58,28.75,28.75,0,0,0,7.59-.5,31.25,31.25,0,0,0,5.25-1.7c.08,0,.18-.08.26-.14A29.66,29.66,0,0,0,171.25,142.58Z" transform="translate(-50.05 -40.65)"/><path class="cls-3" d="M156.05,72.76h-7.29V55.19a14.54,14.54,0,1,1,29.08,0V66.87H163.29V59.58h7.26V55.19a7.25,7.25,0,0,0-14.5,0Z" transform="translate(-50.05 -40.65)"/><path class="cls-3" d="M134.31,192.08H50.05V55.19A14.55,14.55,0,0,1,64.59,40.65H163.4v7.29H64.59a7.26,7.26,0,0,0-7.25,7.25v129.6h77Z" transform="translate(-50.05 -40.65)"/><rect class="cls-3" x="14.58" y="58.86" width="7.29" height="63.47"/><rect class="cls-3" x="29.16" y="88.68" width="7.29" height="33.65"/><rect class="cls-3" x="43.74" y="69.33" width="7.29" height="53"/><rect class="cls-3" x="58.33" y="111.39" width="7.29" height="10.94"/><rect class="cls-3" x="100.84" y="120.38" width="7.29" height="10.94"/><rect class="cls-3" x="14.58" y="129.62" width="7.29" height="7.29"/><rect class="cls-3" x="29.16" y="129.62" width="7.29" height="7.29"/><rect class="cls-3" x="43.74" y="129.62" width="7.29" height="7.29"/><rect class="cls-3" x="58.33" y="129.62" width="7.29" height="7.29"/><text class="cls-5" transform="translate(20.69 52.7)">$</text><text class="cls-6" transform="translate(84.38 94.13)">%</text></svg>