<svg id="Layer_1" data-name="Layer 1" xmlns="http://www.w3.org/2000/svg" viewBox="0 0 165.44 112.66"><defs><style>.cls-1{fill:#fff;}.cls-2,.cls-4{fill:#7d4596;}.cls-3{fill:#203231;}.cls-4{font-size:31.07px;font-family:MarkOT-Bold, Mark OT;font-weight:700;}</style></defs><polygon class="cls-1" points="112.84 7.27 145.82 7.9 162.3 17.96 153.11 26.06 145.81 31.72 143.26 24.77 116.79 24.67 111.16 10.67 112.84 7.27"/><path class="cls-2" d="M164,81.49l.32-.33,31.24,1.29a1.15,1.15,0,0,0,.76-.35,1.37,1.37,0,0,0,.35-.76l.12-8.15,13.42,15.14a.63.63,0,0,1,0,.88.81.81,0,0,1-.63.24.68.68,0,0,1-.5-.33C174.47,83.71,165.45,82,164,81.49Z" transform="translate(-49.21 -71.46)"/><path class="cls-3" d="M175.09,96.91l17.08.93-.21,6.89a.67.67,0,0,0,.2.49.89.89,0,0,0,.55.21l2.18.06a.83.83,0,0,0,.52-.17L214,90.51a1.68,1.68,0,0,0,.66-1.24,1.66,1.66,0,0,0-.53-1.29L199.74,71.73c-.35-.33-4.45-.29-5.66-.24a1.09,1.09,0,0,0-.62.2.82.82,0,0,0-.33.61L192.87,77l-33,.74a1.07,1.07,0,0,0-.58.2.81.81,0,0,0-.33.62.87.87,0,0,0,.89.86l36.15,1.54a1.06,1.06,0,0,0,.67-.2.84.84,0,0,0,.33-.61l.14-4.59L208.57,88.3a1.25,1.25,0,0,1-.13,1.8l-12.95,11.31.15-4.73a1.89,1.89,0,0,0-1.95-1.83l-18.55.31a.79.79,0,0,0-.51.16.7.7,0,0,0-.27.5l0,.38A.72.72,0,0,0,175.09,96.91Z" transform="translate(-49.21 -71.46)"/><polygon class="cls-1" points="52.6 85.9 19.62 86.53 3.14 96.59 12.33 104.69 19.63 110.35 22.18 103.4 48.65 103.3 54.28 89.3 52.6 85.9"/><path class="cls-2" d="M99.87,160.12l-.32-.33-31.23,1.29a1.12,1.12,0,0,1-.77-.36,1.31,1.31,0,0,1-.35-.75l-.12-8.15L53.66,167a.62.62,0,0,0,0,.88.78.78,0,0,0,.62.24.68.68,0,0,0,.5-.33C89.38,162.34,98.4,160.59,99.87,160.12Z" transform="translate(-49.21 -71.46)"/><path class="cls-3" d="M88.76,175.54l-17.08.93.22,6.89a.73.73,0,0,1-.21.49.89.89,0,0,1-.54.21l-2.19.05a.79.79,0,0,1-.52-.16L49.87,169.14a1.64,1.64,0,0,1-.13-2.53l14.38-16.25c.35-.33,4.44-.29,5.65-.24a1.09,1.09,0,0,1,.62.2.82.82,0,0,1,.33.61l.27,4.68,32.94.74a1.07,1.07,0,0,1,.58.2.79.79,0,0,1,.33.62.88.88,0,0,1-.89.86L67.8,159.57a1.07,1.07,0,0,1-.67-.21.8.8,0,0,1-.33-.6l-.14-4.59L55.29,166.92a1.25,1.25,0,0,0,.12,1.81l13,11.31-.15-4.74a1.88,1.88,0,0,1,2-1.82l18.55.3a.87.87,0,0,1,.51.17.7.7,0,0,1,.27.5l0,.38A.72.72,0,0,1,88.76,175.54Z" transform="translate(-49.21 -71.46)"/><rect class="cls-1" x="119.23" y="20.29" width="23.96" height="23.67"/><path class="cls-2" d="M165.26,143.81l-84.32,9.31-3.36-51a3,3,0,0,1,3-3.2h98v30A14.91,14.91,0,0,1,165.26,143.81Z" transform="translate(-49.21 -71.46)"/><path class="cls-3" d="M190.08,146.11V94.91H76.79a3,3,0,0,0-3,3v55.21H81V105.07a3,3,0,0,1,3-3h99v41.78a3,3,0,0,1-2.78,3l-87.23,6.42h94.17a3,3,0,0,0,3-3v-4.16Z" transform="translate(-49.21 -71.46)"/><circle class="cls-1" cx="82.42" cy="52.73" r="17.56"/><text class="cls-4" transform="translate(71.25 63.17)">$</text></svg>