<?xml version="1.0" encoding="utf-8"?>
<!-- Generator: Adobe Illustrator 23.1.1, SVG Export Plug-In . SVG Version: 6.00 Build 0)  -->
<svg version="1.1" id="Layer_2" xmlns="http://www.w3.org/2000/svg" xmlns:xlink="http://www.w3.org/1999/xlink" x="0px" y="0px"
	 viewBox="0 0 1080 450" style="enable-background:new 0 0 1080 450;" xml:space="preserve">
<style type="text/css">
	.st0{fill:#203232;}
	.st1{fill:#ED5A36;}
	.st2{fill:none;}
	.st3{fill:none;stroke:#D8D8D8;stroke-width:0.75;stroke-linejoin:round;stroke-miterlimit:10;}
	.st4{fill:none;stroke:#ED5A36;stroke-width:3;stroke-linecap:round;stroke-miterlimit:10;}
	.st5{fill:none;stroke:#203232;stroke-width:3;stroke-linecap:round;stroke-miterlimit:10;}
</style>
<g>
	<path class="st0" d="M1030.04,188.16c0,5.89-3.79,9.43-8.48,9.43c-4.7,0-8.46-3.54-8.46-9.43c0-5.89,3.76-9.42,8.46-9.42
		C1026.25,178.74,1030.04,182.28,1030.04,188.16z M1017.04,188.16c0,3.98,2.01,6.06,4.52,6.06c2.53,0,4.52-2.08,4.52-6.06
		c0-3.98-1.99-6.06-4.52-6.06C1019.05,182.11,1017.04,184.19,1017.04,188.16z"/>
	<path class="st0" d="M1038.09,195.05c0,1.37-1.26,2.54-2.71,2.54c-1.46,0-2.74-1.17-2.74-2.54c0-1.35,1.28-2.51,2.74-2.51
		C1036.83,192.55,1038.09,193.7,1038.09,195.05z"/>
	<path class="st0" d="M1053.24,182.33h-7.96l-0.08,3.64h2.26c4.58,0,6.88,2.43,6.88,5.47c0,3.91-3.2,6.15-7.17,6.15
		c-2.93,0-5.33-1.01-6.96-2.72l2.13-2.46c1.07,1.08,2.99,1.92,4.8,1.92c2.19,0,3.27-1.2,3.27-2.64c0-1.36-0.93-2.56-4-2.56h-4.67
		l0.21-10.08h11.3V182.33z"/>
	<path class="st0" d="M1070.35,181.81l-8.14,15.46h-4.46l8.09-14.92h-9.34v-3.28h13.86V181.81z"/>
</g>
<g>
	<g>
		<path class="st0" d="M27.99,384.55c0.53-0.69,1.53-1.69,3.35-1.69c2.05,0,3.33,1.29,3.33,3.17c0,1.2-0.61,2.03-1.42,2.86
			l-2.09,2.18h3.75v1.77h-6.48v-1.48l3.47-3.55c0.52-0.53,0.81-1.07,0.81-1.68c0-0.85-0.6-1.46-1.5-1.46c-0.93,0-1.48,0.5-1.99,1.08
			L27.99,384.55z"/>
		<path class="st0" d="M44.57,387.94c0,3.17-1.89,5.08-4.23,5.08c-2.35,0-4.22-1.9-4.22-5.08s1.88-5.08,4.22-5.08
			C42.68,382.86,44.57,384.77,44.57,387.94z M38.09,387.94c0,2.14,1,3.26,2.26,3.26c1.26,0,2.25-1.12,2.25-3.26
			c0-2.14-0.99-3.26-2.25-3.26C39.09,384.68,38.09,385.8,38.09,387.94z"/>
		<path class="st0" d="M54.46,387.94c0,3.17-1.89,5.08-4.23,5.08c-2.35,0-4.22-1.9-4.22-5.08s1.88-5.08,4.22-5.08
			C52.57,382.86,54.46,384.77,54.46,387.94z M47.97,387.94c0,2.14,1,3.26,2.26,3.26c1.26,0,2.25-1.12,2.25-3.26
			c0-2.14-0.99-3.26-2.25-3.26C48.97,384.68,47.97,385.8,47.97,387.94z"/>
		<path class="st0" d="M55.64,384.55c0.53-0.69,1.53-1.69,3.35-1.69c2.05,0,3.33,1.29,3.33,3.17c0,1.2-0.61,2.03-1.42,2.86
			l-2.09,2.18h3.75v1.77h-6.48v-1.48l3.47-3.55c0.52-0.53,0.81-1.07,0.81-1.68c0-0.85-0.6-1.46-1.5-1.46c-0.93,0-1.48,0.5-1.99,1.08
			L55.64,384.55z"/>
	</g>
</g>
<g>
	<g>
		<path class="st0" d="M85.41,384.55c0.53-0.69,1.53-1.69,3.35-1.69c2.05,0,3.33,1.29,3.33,3.17c0,1.2-0.61,2.03-1.42,2.86
			l-2.09,2.18h3.75v1.77h-6.48v-1.48l3.47-3.55c0.52-0.53,0.81-1.07,0.81-1.68c0-0.85-0.6-1.46-1.5-1.46c-0.93,0-1.48,0.5-1.99,1.08
			L85.41,384.55z"/>
		<path class="st0" d="M102,387.94c0,3.17-1.89,5.08-4.23,5.08c-2.35,0-4.22-1.9-4.22-5.08s1.88-5.08,4.22-5.08
			C100.11,382.86,102,384.77,102,387.94z M95.51,387.94c0,2.14,1,3.26,2.26,3.26c1.26,0,2.25-1.12,2.25-3.26
			c0-2.14-0.99-3.26-2.25-3.26C96.51,384.68,95.51,385.8,95.51,387.94z"/>
		<path class="st0" d="M111.88,387.94c0,3.17-1.89,5.08-4.23,5.08c-2.35,0-4.22-1.9-4.22-5.08s1.88-5.08,4.22-5.08
			C109.99,382.86,111.88,384.77,111.88,387.94z M105.4,387.94c0,2.14,1,3.26,2.26,3.26c1.26,0,2.25-1.12,2.25-3.26
			c0-2.14-0.99-3.26-2.25-3.26C106.4,384.68,105.4,385.8,105.4,387.94z"/>
		<path class="st0" d="M119.78,385.68c0,1.04-0.55,1.8-1.46,2.23c1.03,0.41,1.68,1.19,1.68,2.25c0,1.93-1.76,2.86-3.61,2.86
			c-1.47,0-2.68-0.53-3.42-1.42l1.13-1.24c0.57,0.6,1.39,0.94,2.23,0.94c0.95,0,1.72-0.41,1.72-1.27c0-0.84-0.86-1.28-1.92-1.28
			h-1.14v-1.68h1.15c0.95,0,1.72-0.42,1.72-1.25c0-0.79-0.71-1.23-1.62-1.23c-0.91,0-1.58,0.47-1.98,1l-1.19-1.2
			c0.64-0.87,1.71-1.52,3.27-1.52C118.37,382.86,119.78,383.98,119.78,385.68z"/>
	</g>
</g>
<g>
	<g>
		<path class="st0" d="M142.81,384.55c0.53-0.69,1.53-1.69,3.35-1.69c2.05,0,3.33,1.29,3.33,3.17c0,1.2-0.61,2.03-1.42,2.86
			l-2.09,2.18h3.75v1.77h-6.48v-1.48l3.47-3.55c0.52-0.53,0.81-1.07,0.81-1.68c0-0.85-0.6-1.46-1.5-1.46c-0.93,0-1.48,0.5-1.99,1.08
			L142.81,384.55z"/>
		<path class="st0" d="M159.4,387.94c0,3.17-1.89,5.08-4.23,5.08c-2.35,0-4.22-1.9-4.22-5.08s1.88-5.08,4.22-5.08
			C157.51,382.86,159.4,384.77,159.4,387.94z M152.92,387.94c0,2.14,1,3.26,2.26,3.26c1.26,0,2.25-1.12,2.25-3.26
			c0-2.14-0.99-3.26-2.25-3.26C153.92,384.68,152.92,385.8,152.92,387.94z"/>
		<path class="st0" d="M169.28,387.94c0,3.17-1.89,5.08-4.23,5.08c-2.35,0-4.22-1.9-4.22-5.08s1.88-5.08,4.22-5.08
			C167.39,382.86,169.28,384.77,169.28,387.94z M162.8,387.94c0,2.14,1,3.26,2.26,3.26c1.26,0,2.25-1.12,2.25-3.26
			c0-2.14-0.99-3.26-2.25-3.26C163.8,384.68,162.8,385.8,162.8,387.94z"/>
		<path class="st0" d="M176.52,389.28h1.37v1.76h-1.37v1.79h-1.89v-1.79h-4.35v-1.37l3.44-6.63h2.1l-3.28,6.24h2.09v-2.61h1.89
			V389.28z"/>
	</g>
</g>
<g>
	<g>
		<path class="st0" d="M200.31,384.55c0.53-0.69,1.53-1.69,3.35-1.69c2.05,0,3.33,1.29,3.33,3.17c0,1.2-0.61,2.03-1.42,2.86
			l-2.09,2.18h3.75v1.77h-6.48v-1.48l3.47-3.55c0.52-0.53,0.81-1.07,0.81-1.68c0-0.85-0.6-1.46-1.5-1.46c-0.93,0-1.48,0.5-1.99,1.08
			L200.31,384.55z"/>
		<path class="st0" d="M216.9,387.94c0,3.17-1.89,5.08-4.23,5.08c-2.35,0-4.22-1.9-4.22-5.08s1.88-5.08,4.22-5.08
			C215,382.86,216.9,384.77,216.9,387.94z M210.41,387.94c0,2.14,1,3.26,2.26,3.26c1.26,0,2.25-1.12,2.25-3.26
			c0-2.14-0.99-3.26-2.25-3.26C211.41,384.68,210.41,385.8,210.41,387.94z"/>
		<path class="st0" d="M226.78,387.94c0,3.17-1.89,5.08-4.23,5.08c-2.35,0-4.22-1.9-4.22-5.08s1.88-5.08,4.22-5.08
			C224.89,382.86,226.78,384.77,226.78,387.94z M220.29,387.94c0,2.14,1,3.26,2.26,3.26c1.26,0,2.25-1.12,2.25-3.26
			c0-2.14-0.99-3.26-2.25-3.26C221.3,384.68,220.29,385.8,220.29,387.94z"/>
		<path class="st0" d="M234.46,384.79h-3.97l-0.04,1.96h1.13c2.28,0,3.43,1.31,3.43,2.95c0,2.11-1.6,3.31-3.58,3.31
			c-1.46,0-2.66-0.55-3.47-1.46l1.06-1.32c0.53,0.58,1.49,1.04,2.4,1.04c1.09,0,1.63-0.64,1.63-1.42c0-0.74-0.46-1.38-2-1.38h-2.33
			l0.11-5.43h5.64V384.79z"/>
	</g>
</g>
<g>
	<g>
		<path class="st0" d="M257.75,384.55c0.53-0.69,1.53-1.69,3.35-1.69c2.05,0,3.33,1.29,3.33,3.17c0,1.2-0.61,2.03-1.42,2.86
			l-2.09,2.18h3.75v1.77h-6.48v-1.48l3.47-3.55c0.52-0.53,0.81-1.07,0.81-1.68c0-0.85-0.6-1.46-1.5-1.46c-0.93,0-1.48,0.5-1.99,1.08
			L257.75,384.55z"/>
		<path class="st0" d="M274.33,387.94c0,3.17-1.89,5.08-4.23,5.08c-2.35,0-4.22-1.9-4.22-5.08s1.88-5.08,4.22-5.08
			C272.44,382.86,274.33,384.77,274.33,387.94z M267.85,387.94c0,2.14,1,3.26,2.26,3.26c1.26,0,2.25-1.12,2.25-3.26
			c0-2.14-0.99-3.26-2.25-3.26C268.85,384.68,267.85,385.8,267.85,387.94z"/>
		<path class="st0" d="M284.22,387.94c0,3.17-1.89,5.08-4.23,5.08c-2.35,0-4.22-1.9-4.22-5.08s1.88-5.08,4.22-5.08
			C282.33,382.86,284.22,384.77,284.22,387.94z M277.73,387.94c0,2.14,1,3.26,2.26,3.26c1.26,0,2.25-1.12,2.25-3.26
			c0-2.14-0.99-3.26-2.25-3.26C278.73,384.68,277.73,385.8,277.73,387.94z"/>
		<path class="st0" d="M288.88,386.45c0.13-0.01,0.29-0.03,0.46-0.03c1.99,0,3.4,1.42,3.4,3.26c0,1.92-1.58,3.34-3.69,3.34
			c-2.09,0-3.68-1.41-3.68-3.31c0-0.9,0.34-1.71,0.93-2.61l2.72-4.07h2.28L288.88,386.45z M287.33,389.69
			c0,0.95,0.74,1.61,1.71,1.61c0.99,0,1.72-0.66,1.72-1.61c0-0.95-0.74-1.61-1.72-1.61C288.06,388.08,287.33,388.74,287.33,389.69z"
			/>
	</g>
</g>
<g>
	<g>
		<path class="st0" d="M315.51,384.55c0.53-0.69,1.53-1.69,3.35-1.69c2.05,0,3.33,1.29,3.33,3.17c0,1.2-0.61,2.03-1.42,2.86
			l-2.09,2.18h3.75v1.77h-6.48v-1.48l3.47-3.55c0.52-0.53,0.81-1.07,0.81-1.68c0-0.85-0.6-1.46-1.5-1.46c-0.93,0-1.48,0.5-1.99,1.08
			L315.51,384.55z"/>
		<path class="st0" d="M332.1,387.94c0,3.17-1.89,5.08-4.23,5.08c-2.35,0-4.22-1.9-4.22-5.08s1.88-5.08,4.22-5.08
			C330.21,382.86,332.1,384.77,332.1,387.94z M325.62,387.94c0,2.14,1,3.26,2.26,3.26c1.26,0,2.25-1.12,2.25-3.26
			c0-2.14-0.99-3.26-2.25-3.26C326.62,384.68,325.62,385.8,325.62,387.94z"/>
		<path class="st0" d="M341.98,387.94c0,3.17-1.89,5.08-4.23,5.08c-2.35,0-4.22-1.9-4.22-5.08s1.88-5.08,4.22-5.08
			C340.09,382.86,341.98,384.77,341.98,387.94z M335.5,387.94c0,2.14,1,3.26,2.26,3.26c1.26,0,2.25-1.12,2.25-3.26
			c0-2.14-0.99-3.26-2.25-3.26C336.5,384.68,335.5,385.8,335.5,387.94z"/>
		<path class="st0" d="M350.04,384.51l-4.06,8.33h-2.23l4.03-8.04h-4.66v-1.77h6.91V384.51z"/>
	</g>
</g>
<g>
	<g>
		<path class="st0" d="M372.41,384.55c0.53-0.69,1.53-1.69,3.35-1.69c2.05,0,3.33,1.29,3.33,3.17c0,1.2-0.61,2.03-1.42,2.86
			l-2.09,2.18h3.75v1.77h-6.48v-1.48l3.47-3.55c0.52-0.53,0.81-1.07,0.81-1.68c0-0.85-0.6-1.46-1.5-1.46c-0.93,0-1.48,0.5-1.99,1.08
			L372.41,384.55z"/>
		<path class="st0" d="M389,387.94c0,3.17-1.89,5.08-4.23,5.08c-2.35,0-4.22-1.9-4.22-5.08s1.88-5.08,4.22-5.08
			C387.11,382.86,389,384.77,389,387.94z M382.51,387.94c0,2.14,1,3.26,2.26,3.26c1.26,0,2.25-1.12,2.25-3.26
			c0-2.14-0.99-3.26-2.25-3.26C383.51,384.68,382.51,385.8,382.51,387.94z"/>
		<path class="st0" d="M398.88,387.94c0,3.17-1.89,5.08-4.23,5.08c-2.35,0-4.22-1.9-4.22-5.08s1.88-5.08,4.22-5.08
			C396.99,382.86,398.88,384.77,398.88,387.94z M392.4,387.94c0,2.14,1,3.26,2.26,3.26c1.26,0,2.25-1.12,2.25-3.26
			c0-2.14-0.99-3.26-2.25-3.26C393.4,384.68,392.4,385.8,392.4,387.94z"/>
		<path class="st0" d="M407.63,385.68c0,1.13-0.65,1.83-1.5,2.22c0.97,0.38,1.74,1.08,1.74,2.28c0,1.79-1.72,2.84-3.83,2.84
			c-2.11,0-3.83-1.06-3.83-2.84c0-1.2,0.76-1.9,1.73-2.28c-0.85-0.39-1.49-1.09-1.49-2.22c0-1.76,1.61-2.82,3.59-2.82
			C406.02,382.86,407.63,383.91,407.63,385.68z M402.24,390.01c0,0.86,0.81,1.32,1.79,1.32c0.97,0,1.79-0.46,1.79-1.32
			c0-0.88-0.82-1.34-1.79-1.34C403.06,388.67,402.24,389.14,402.24,390.01z M402.46,385.82c0,0.84,0.71,1.29,1.58,1.29
			c0.88,0,1.58-0.45,1.58-1.29c0-0.81-0.71-1.25-1.58-1.25C403.16,384.57,402.46,385.01,402.46,385.82z"/>
	</g>
</g>
<g>
	<g>
		<path class="st0" d="M430.21,384.55c0.53-0.69,1.53-1.69,3.35-1.69c2.05,0,3.33,1.29,3.33,3.17c0,1.2-0.61,2.03-1.42,2.86
			l-2.09,2.18h3.75v1.77h-6.48v-1.48l3.47-3.55c0.52-0.53,0.8-1.07,0.8-1.68c0-0.85-0.59-1.46-1.5-1.46c-0.93,0-1.48,0.5-1.99,1.08
			L430.21,384.55z"/>
		<path class="st0" d="M446.8,387.94c0,3.17-1.89,5.08-4.23,5.08c-2.35,0-4.22-1.9-4.22-5.08s1.88-5.08,4.22-5.08
			C444.91,382.86,446.8,384.77,446.8,387.94z M440.31,387.94c0,2.14,1,3.26,2.26,3.26c1.26,0,2.25-1.12,2.25-3.26
			c0-2.14-0.99-3.26-2.25-3.26C441.31,384.68,440.31,385.8,440.31,387.94z"/>
		<path class="st0" d="M456.68,387.94c0,3.17-1.89,5.08-4.23,5.08c-2.35,0-4.22-1.9-4.22-5.08s1.88-5.08,4.22-5.08
			C454.79,382.86,456.68,384.77,456.68,387.94z M450.19,387.94c0,2.14,1,3.26,2.26,3.26c1.26,0,2.25-1.12,2.25-3.26
			c0-2.14-0.99-3.26-2.25-3.26C451.2,384.68,450.19,385.8,450.19,387.94z"/>
		<path class="st0" d="M461.69,389.43c-0.13,0.02-0.27,0.03-0.44,0.03c-1.99,0-3.4-1.42-3.4-3.26c0-1.92,1.58-3.34,3.68-3.34
			c2.09,0,3.68,1.41,3.68,3.31c0,0.9-0.34,1.72-0.93,2.61l-2.72,4.07h-2.28L461.69,389.43z M463.25,386.19
			c0-0.95-0.74-1.61-1.72-1.61c-0.99,0-1.72,0.66-1.72,1.61c0,0.95,0.73,1.61,1.72,1.61C462.52,387.8,463.25,387.13,463.25,386.19z"
			/>
	</g>
</g>
<g>
	<g>
		<path class="st0" d="M487.22,384.55c0.53-0.69,1.53-1.69,3.35-1.69c2.05,0,3.33,1.29,3.33,3.17c0,1.2-0.61,2.03-1.42,2.86
			l-2.09,2.18h3.75v1.77h-6.48v-1.48l3.47-3.55c0.52-0.53,0.81-1.07,0.81-1.68c0-0.85-0.59-1.46-1.5-1.46
			c-0.93,0-1.48,0.5-1.99,1.08L487.22,384.55z"/>
		<path class="st0" d="M503.81,387.94c0,3.17-1.89,5.08-4.23,5.08c-2.35,0-4.22-1.9-4.22-5.08s1.88-5.08,4.22-5.08
			C501.92,382.86,503.81,384.77,503.81,387.94z M497.32,387.94c0,2.14,1,3.26,2.26,3.26c1.26,0,2.25-1.12,2.25-3.26
			c0-2.14-0.99-3.26-2.25-3.26C498.32,384.68,497.32,385.8,497.32,387.94z"/>
		<path class="st0" d="M509.12,392.84h-1.89v-7.3l-2.35,0.95v-1.9l4.24-1.71V392.84z"/>
		<path class="st0" d="M519.44,387.94c0,3.17-1.89,5.08-4.23,5.08c-2.35,0-4.22-1.9-4.22-5.08s1.88-5.08,4.22-5.08
			C517.55,382.86,519.44,384.77,519.44,387.94z M512.95,387.94c0,2.14,1,3.26,2.26,3.26c1.26,0,2.25-1.12,2.25-3.26
			c0-2.14-0.99-3.26-2.25-3.26C513.96,384.68,512.95,385.8,512.95,387.94z"/>
	</g>
</g>
<g>
	<g>
		<path class="st0" d="M546.78,384.55c0.53-0.69,1.53-1.69,3.35-1.69c2.05,0,3.33,1.29,3.33,3.17c0,1.2-0.61,2.03-1.42,2.86
			l-2.09,2.18h3.75v1.77h-6.48v-1.48l3.47-3.55c0.52-0.53,0.81-1.07,0.81-1.68c0-0.85-0.59-1.46-1.5-1.46
			c-0.93,0-1.48,0.5-1.99,1.08L546.78,384.55z"/>
		<path class="st0" d="M563.36,387.94c0,3.17-1.89,5.08-4.23,5.08c-2.35,0-4.22-1.9-4.22-5.08s1.88-5.08,4.22-5.08
			C561.47,382.86,563.36,384.77,563.36,387.94z M556.88,387.94c0,2.14,1,3.26,2.26,3.26c1.26,0,2.25-1.12,2.25-3.26
			c0-2.14-0.99-3.26-2.25-3.26C557.88,384.68,556.88,385.8,556.88,387.94z"/>
		<path class="st0" d="M568.67,392.84h-1.89v-7.3l-2.35,0.95v-1.9l4.24-1.71V392.84z"/>
		<path class="st0" d="M574.42,392.84h-1.89v-7.3l-2.35,0.95v-1.9l4.24-1.71V392.84z"/>
	</g>
</g>
<g>
	<g>
		<path class="st0" d="M603.2,384.55c0.53-0.69,1.53-1.69,3.35-1.69c2.05,0,3.33,1.29,3.33,3.17c0,1.2-0.61,2.03-1.42,2.86
			l-2.09,2.18h3.75v1.77h-6.48v-1.48l3.47-3.55c0.52-0.53,0.81-1.07,0.81-1.68c0-0.85-0.6-1.46-1.5-1.46c-0.93,0-1.48,0.5-1.99,1.08
			L603.2,384.55z"/>
		<path class="st0" d="M619.78,387.94c0,3.17-1.89,5.08-4.23,5.08c-2.35,0-4.22-1.9-4.22-5.08s1.88-5.08,4.22-5.08
			C617.89,382.86,619.78,384.77,619.78,387.94z M613.3,387.94c0,2.14,1,3.26,2.25,3.26c1.26,0,2.25-1.12,2.25-3.26
			c0-2.14-0.99-3.26-2.25-3.26C614.3,384.68,613.3,385.8,613.3,387.94z"/>
		<path class="st0" d="M625.1,392.84h-1.89v-7.3l-2.35,0.95v-1.9l4.24-1.71V392.84z"/>
		<path class="st0" d="M626.71,384.55c0.53-0.69,1.53-1.69,3.35-1.69c2.05,0,3.33,1.29,3.33,3.17c0,1.2-0.61,2.03-1.42,2.86
			l-2.09,2.18h3.75v1.77h-6.48v-1.48l3.47-3.55c0.52-0.53,0.81-1.07,0.81-1.68c0-0.85-0.6-1.46-1.5-1.46c-0.93,0-1.48,0.5-1.99,1.08
			L626.71,384.55z"/>
	</g>
</g>
<g>
	<g>
		<path class="st0" d="M660.62,384.55c0.53-0.69,1.53-1.69,3.35-1.69c2.05,0,3.33,1.29,3.33,3.17c0,1.2-0.61,2.03-1.42,2.86
			l-2.09,2.18h3.75v1.77h-6.48v-1.48l3.47-3.55c0.52-0.53,0.81-1.07,0.81-1.68c0-0.85-0.6-1.46-1.5-1.46c-0.93,0-1.48,0.5-1.99,1.08
			L660.62,384.55z"/>
		<path class="st0" d="M677.21,387.94c0,3.17-1.89,5.08-4.23,5.08c-2.35,0-4.22-1.9-4.22-5.08s1.88-5.08,4.22-5.08
			C675.32,382.86,677.21,384.77,677.21,387.94z M670.72,387.94c0,2.14,1,3.26,2.25,3.26c1.26,0,2.25-1.12,2.25-3.26
			c0-2.14-0.99-3.26-2.25-3.26C671.72,384.68,670.72,385.8,670.72,387.94z"/>
		<path class="st0" d="M682.52,392.84h-1.89v-7.3l-2.35,0.95v-1.9l4.24-1.71V392.84z"/>
		<path class="st0" d="M690.85,385.68c0,1.04-0.55,1.8-1.46,2.23c1.03,0.41,1.68,1.19,1.68,2.25c0,1.93-1.76,2.86-3.61,2.86
			c-1.47,0-2.68-0.53-3.42-1.42l1.13-1.24c0.57,0.6,1.39,0.94,2.23,0.94c0.95,0,1.72-0.41,1.72-1.27c0-0.84-0.86-1.28-1.92-1.28
			h-1.14v-1.68h1.15c0.95,0,1.72-0.42,1.72-1.25c0-0.79-0.71-1.23-1.62-1.23c-0.91,0-1.58,0.47-1.98,1l-1.19-1.2
			c0.64-0.87,1.71-1.52,3.27-1.52C689.44,382.86,690.85,383.98,690.85,385.68z"/>
	</g>
</g>
<g>
	<g>
		<path class="st0" d="M718.02,384.55c0.53-0.69,1.53-1.69,3.35-1.69c2.05,0,3.33,1.29,3.33,3.17c0,1.2-0.61,2.03-1.42,2.86
			l-2.09,2.18h3.75v1.77h-6.48v-1.48l3.47-3.55c0.52-0.53,0.8-1.07,0.8-1.68c0-0.85-0.59-1.46-1.5-1.46c-0.93,0-1.48,0.5-1.99,1.08
			L718.02,384.55z"/>
		<path class="st0" d="M734.61,387.94c0,3.17-1.89,5.08-4.23,5.08c-2.35,0-4.22-1.9-4.22-5.08s1.88-5.08,4.22-5.08
			C732.72,382.86,734.61,384.77,734.61,387.94z M728.13,387.94c0,2.14,1,3.26,2.26,3.26c1.26,0,2.25-1.12,2.25-3.26
			c0-2.14-0.99-3.26-2.25-3.26C729.13,384.68,728.13,385.8,728.13,387.94z"/>
		<path class="st0" d="M739.92,392.84h-1.89v-7.3l-2.35,0.95v-1.9l4.24-1.71V392.84z"/>
		<path class="st0" d="M747.6,389.28h1.37v1.76h-1.37v1.79h-1.89v-1.79h-4.35v-1.37l3.44-6.63h2.1l-3.28,6.24h2.09v-2.61h1.89
			V389.28z"/>
	</g>
</g>
<g>
	<g>
		<path class="st0" d="M775.52,384.55c0.53-0.69,1.53-1.69,3.35-1.69c2.05,0,3.33,1.29,3.33,3.17c0,1.2-0.61,2.03-1.42,2.86
			l-2.09,2.18h3.75v1.77h-6.48v-1.48l3.47-3.55c0.52-0.53,0.81-1.07,0.81-1.68c0-0.85-0.6-1.46-1.5-1.46c-0.93,0-1.48,0.5-1.99,1.08
			L775.52,384.55z"/>
		<path class="st0" d="M792.11,387.94c0,3.17-1.89,5.08-4.23,5.08c-2.35,0-4.22-1.9-4.22-5.08s1.88-5.08,4.22-5.08
			C790.22,382.86,792.11,384.77,792.11,387.94z M785.62,387.94c0,2.14,1,3.26,2.25,3.26c1.26,0,2.25-1.12,2.25-3.26
			c0-2.14-0.99-3.26-2.25-3.26C786.62,384.68,785.62,385.8,785.62,387.94z"/>
		<path class="st0" d="M797.42,392.84h-1.89v-7.3l-2.35,0.95v-1.9l4.24-1.71V392.84z"/>
		<path class="st0" d="M805.54,384.79h-3.97l-0.04,1.96h1.13c2.28,0,3.43,1.31,3.43,2.95c0,2.11-1.6,3.31-3.58,3.31
			c-1.46,0-2.66-0.55-3.47-1.46l1.06-1.32c0.53,0.58,1.49,1.04,2.4,1.04c1.09,0,1.63-0.64,1.63-1.42c0-0.74-0.46-1.38-2-1.38h-2.33
			l0.11-5.43h5.64V384.79z"/>
	</g>
</g>
<g>
	<g>
		<path class="st0" d="M832.96,384.55c0.53-0.69,1.53-1.69,3.35-1.69c2.05,0,3.33,1.29,3.33,3.17c0,1.2-0.61,2.03-1.42,2.86
			l-2.09,2.18h3.75v1.77h-6.48v-1.48l3.47-3.55c0.52-0.53,0.81-1.07,0.81-1.68c0-0.85-0.6-1.46-1.5-1.46c-0.93,0-1.48,0.5-1.99,1.08
			L832.96,384.55z"/>
		<path class="st0" d="M849.55,387.94c0,3.17-1.89,5.08-4.23,5.08c-2.35,0-4.22-1.9-4.22-5.08s1.88-5.08,4.22-5.08
			C847.65,382.86,849.55,384.77,849.55,387.94z M843.06,387.94c0,2.14,1,3.26,2.25,3.26c1.26,0,2.25-1.12,2.25-3.26
			c0-2.14-0.99-3.26-2.25-3.26C844.06,384.68,843.06,385.8,843.06,387.94z"/>
		<path class="st0" d="M854.86,392.84h-1.89v-7.3l-2.35,0.95v-1.9l4.24-1.71V392.84z"/>
		<path class="st0" d="M859.95,386.45c0.13-0.01,0.29-0.03,0.46-0.03c1.99,0,3.4,1.42,3.4,3.26c0,1.92-1.58,3.34-3.69,3.34
			c-2.09,0-3.68-1.41-3.68-3.31c0-0.9,0.34-1.71,0.93-2.61l2.72-4.07h2.28L859.95,386.45z M858.4,389.69c0,0.95,0.74,1.61,1.71,1.61
			c0.99,0,1.72-0.66,1.72-1.61c0-0.95-0.74-1.61-1.72-1.61C859.14,388.08,858.4,388.74,858.4,389.69z"/>
	</g>
</g>
<g>
	<g>
		<path class="st0" d="M1005.42,384.55c0.53-0.69,1.53-1.69,3.35-1.69c2.05,0,3.33,1.29,3.33,3.17c0,1.2-0.61,2.03-1.42,2.86
			l-2.09,2.18h3.75v1.77h-6.48v-1.48l3.47-3.55c0.52-0.53,0.81-1.07,0.81-1.68c0-0.85-0.6-1.46-1.5-1.46c-0.93,0-1.48,0.5-1.99,1.08
			L1005.42,384.55z"/>
		<path class="st0" d="M1022.01,387.94c0,3.17-1.89,5.08-4.23,5.08c-2.35,0-4.22-1.9-4.22-5.08s1.88-5.08,4.22-5.08
			C1020.12,382.86,1022.01,384.77,1022.01,387.94z M1015.52,387.94c0,2.14,1,3.26,2.25,3.26c1.26,0,2.25-1.12,2.25-3.26
			c0-2.14-0.99-3.26-2.25-3.26C1016.52,384.68,1015.52,385.8,1015.52,387.94z"/>
		<path class="st0" d="M1027.32,392.84h-1.89v-7.3l-2.35,0.95v-1.9l4.24-1.71V392.84z"/>
		<path class="st0" d="M1032.76,389.43c-0.13,0.02-0.27,0.03-0.44,0.03c-1.99,0-3.4-1.42-3.4-3.26c0-1.92,1.58-3.34,3.68-3.34
			c2.09,0,3.68,1.41,3.68,3.31c0,0.9-0.34,1.72-0.93,2.61l-2.72,4.07h-2.28L1032.76,389.43z M1034.33,386.19
			c0-0.95-0.74-1.61-1.72-1.61c-0.99,0-1.72,0.66-1.72,1.61c0,0.95,0.73,1.61,1.72,1.61
			C1033.59,387.8,1034.33,387.13,1034.33,386.19z"/>
	</g>
</g>
<g>
	<g>
		<path class="st0" d="M890.72,384.55c0.53-0.69,1.53-1.69,3.35-1.69c2.05,0,3.33,1.29,3.33,3.17c0,1.2-0.61,2.03-1.42,2.86
			l-2.09,2.18h3.75v1.77h-6.48v-1.48l3.47-3.55c0.52-0.53,0.81-1.07,0.81-1.68c0-0.85-0.6-1.46-1.5-1.46c-0.93,0-1.48,0.5-1.99,1.08
			L890.72,384.55z"/>
		<path class="st0" d="M907.31,387.94c0,3.17-1.89,5.08-4.23,5.08c-2.35,0-4.22-1.9-4.22-5.08s1.88-5.08,4.22-5.08
			C905.42,382.86,907.31,384.77,907.31,387.94z M900.83,387.94c0,2.14,1,3.26,2.26,3.26c1.26,0,2.25-1.12,2.25-3.26
			c0-2.14-0.99-3.26-2.25-3.26C901.83,384.68,900.83,385.8,900.83,387.94z"/>
		<path class="st0" d="M912.62,392.84h-1.89v-7.3l-2.35,0.95v-1.9l4.24-1.71V392.84z"/>
		<path class="st0" d="M921.12,384.51l-4.06,8.33h-2.23l4.03-8.04h-4.66v-1.77h6.91V384.51z"/>
	</g>
</g>
<g>
	<g>
		<path class="st0" d="M947.62,384.55c0.53-0.69,1.53-1.69,3.35-1.69c2.05,0,3.33,1.29,3.33,3.17c0,1.2-0.61,2.03-1.42,2.86
			l-2.09,2.18h3.75v1.77h-6.48v-1.48l3.47-3.55c0.52-0.53,0.81-1.07,0.81-1.68c0-0.85-0.6-1.46-1.5-1.46c-0.93,0-1.48,0.5-1.99,1.08
			L947.62,384.55z"/>
		<path class="st0" d="M964.21,387.94c0,3.17-1.89,5.08-4.23,5.08c-2.35,0-4.22-1.9-4.22-5.08s1.88-5.08,4.22-5.08
			C962.32,382.86,964.21,384.77,964.21,387.94z M957.72,387.94c0,2.14,1,3.26,2.25,3.26c1.26,0,2.25-1.12,2.25-3.26
			c0-2.14-0.99-3.26-2.25-3.26C958.72,384.68,957.72,385.8,957.72,387.94z"/>
		<path class="st0" d="M969.52,392.84h-1.89v-7.3l-2.35,0.95v-1.9l4.24-1.71V392.84z"/>
		<path class="st0" d="M978.7,385.68c0,1.13-0.65,1.83-1.5,2.22c0.97,0.38,1.74,1.08,1.74,2.28c0,1.79-1.72,2.84-3.83,2.84
			s-3.83-1.06-3.83-2.84c0-1.2,0.76-1.9,1.73-2.28c-0.85-0.39-1.49-1.09-1.49-2.22c0-1.76,1.61-2.82,3.59-2.82
			S978.7,383.91,978.7,385.68z M973.32,390.01c0,0.86,0.81,1.32,1.79,1.32c0.97,0,1.79-0.46,1.79-1.32c0-0.88-0.82-1.34-1.79-1.34
			C974.13,388.67,973.32,389.14,973.32,390.01z M973.53,385.82c0,0.84,0.71,1.29,1.58,1.29c0.88,0,1.58-0.45,1.58-1.29
			c0-0.81-0.71-1.25-1.58-1.25C974.24,384.57,973.53,385.01,973.53,385.82z"/>
	</g>
</g>
<g>
	<g>
		<path class="st0" d="M30.3,435.4h-7.33v-9.81h7.27v1.79h-5.32v2.17H30v1.79h-5.07v2.25h5.37V435.4z"/>
		<path class="st0" d="M43.12,435.4h-1.95V428l-2.42,6.46h-2.07l-2.42-6.4v7.35h-1.95v-9.81h2.86l2.55,6.62l2.54-6.62h2.86V435.4z"
			/>
		<path class="st0" d="M59.62,435.4h-1.95V428l-2.42,6.46h-2.07l-2.42-6.4v7.35H48.8v-9.81h2.86l2.55,6.62l2.54-6.62h2.86V435.4z"/>
		<path class="st0" d="M68.37,435.4h-1.79v-0.75c-0.44,0.55-1.1,0.92-2.03,0.92c-1.87,0-3.29-1.53-3.29-3.57s1.42-3.57,3.29-3.57
			c0.93,0,1.58,0.38,2.03,0.93v-0.75h1.79V435.4z M63.14,432.01c0,1.04,0.68,1.87,1.75,1.87c1.04,0,1.75-0.8,1.75-1.87
			c0-1.07-0.71-1.87-1.75-1.87C63.82,430.14,63.14,430.97,63.14,432.01z"/>
		<path class="st0" d="M74.92,428.58l-0.27,1.81c-0.3-0.13-0.74-0.22-1.11-0.22c-0.85,0-1.43,0.52-1.43,1.53v3.7h-1.83v-6.79h1.77
			v0.74c0.43-0.64,1.08-0.92,1.91-0.92C74.36,428.43,74.67,428.49,74.92,428.58z"/>
		<path class="st0" d="M77.99,431.03h0.64l1.91-2.42h2.24l-2.68,3.19l2.7,3.59h-2.25l-1.95-2.75h-0.62v2.75h-1.83v-10.09h1.83
			V431.03z"/>
		<path class="st0" d="M90.14,432c0,0.21-0.01,0.46-0.04,0.62h-4.81c0.2,0.98,0.88,1.41,1.74,1.41c0.59,0,1.23-0.24,1.72-0.65
			l1.07,1.18c-0.77,0.71-1.75,1.03-2.89,1.03c-2.08,0-3.52-1.41-3.52-3.55c0-2.14,1.4-3.59,3.43-3.59
			C88.79,428.43,90.13,429.88,90.14,432z M85.3,431.37h3c-0.17-0.87-0.69-1.36-1.48-1.36C85.96,430.01,85.46,430.53,85.3,431.37z"/>
		<path class="st0" d="M96.55,430.24h-2.46v2.48c0,0.85,0.45,1.16,1.02,1.16c0.43,0,0.9-0.22,1.27-0.44l0.67,1.43
			c-0.6,0.41-1.28,0.71-2.25,0.71c-1.68,0-2.54-0.95-2.54-2.71v-2.63h-1.31v-1.62h1.31v-2.02h1.83v2.02h2.46V430.24z"/>
		<path class="st0" d="M103.02,430.51c-0.54-0.27-1.4-0.55-2.16-0.55c-0.69,0-1.04,0.25-1.04,0.62c0,0.39,0.49,0.49,1.11,0.58
			l0.6,0.09c1.47,0.22,2.29,0.88,2.29,2.03c0,1.4-1.15,2.3-3.12,2.3c-0.92,0-2.14-0.17-3.02-0.8l0.72-1.39
			c0.58,0.38,1.29,0.67,2.31,0.67c0.85,0,1.25-0.24,1.25-0.64c0-0.33-0.34-0.51-1.13-0.62l-0.55-0.08c-1.57-0.22-2.35-0.9-2.35-2.06
			c0-1.39,1.08-2.22,2.86-2.22c1.09,0,1.93,0.2,2.84,0.64L103.02,430.51z"/>
	</g>
</g>
<g>
	<g>
		<path class="st0" d="M149.58,425.6c3.07,0,5.09,1.95,5.09,4.9c0,2.96-2.02,4.9-5.09,4.9h-4.04v-9.81H149.58z M147.49,427.42v6.15
			h2.07c2.07,0,3.07-1.3,3.07-3.07c0-1.8-1-3.08-3.07-3.08H147.49z"/>
		<path class="st0" d="M167.24,435.4h-1.95V428l-2.42,6.46h-2.07l-2.42-6.4v7.35h-1.95v-9.81h2.86l2.55,6.62l2.54-6.62h2.86V435.4z"
			/>
		<path class="st0" d="M183.75,435.4h-1.95V428l-2.42,6.46h-2.07l-2.42-6.4v7.35h-1.95v-9.81h2.86l2.55,6.62l2.54-6.62h2.86V435.4z"
			/>
		<path class="st0" d="M192.5,435.4h-1.79v-0.75c-0.44,0.55-1.1,0.92-2.03,0.92c-1.87,0-3.29-1.53-3.29-3.57s1.42-3.57,3.29-3.57
			c0.93,0,1.58,0.38,2.03,0.93v-0.75h1.79V435.4z M187.27,432.01c0,1.04,0.68,1.87,1.75,1.87c1.04,0,1.75-0.8,1.75-1.87
			c0-1.07-0.71-1.87-1.75-1.87C187.95,430.14,187.27,430.97,187.27,432.01z"/>
		<path class="st0" d="M199.05,428.58l-0.27,1.81c-0.3-0.13-0.74-0.22-1.11-0.22c-0.85,0-1.43,0.52-1.43,1.53v3.7h-1.83v-6.79h1.77
			v0.74c0.43-0.64,1.08-0.92,1.91-0.92C198.49,428.43,198.8,428.49,199.05,428.58z"/>
		<path class="st0" d="M202.12,431.03h0.64l1.91-2.42h2.24l-2.68,3.19l2.7,3.59h-2.25l-1.95-2.75h-0.62v2.75h-1.83v-10.09h1.83
			V431.03z"/>
		<path class="st0" d="M214.27,432c0,0.21-0.01,0.46-0.04,0.62h-4.81c0.2,0.98,0.88,1.41,1.74,1.41c0.59,0,1.23-0.24,1.72-0.65
			l1.07,1.18c-0.77,0.71-1.75,1.03-2.89,1.03c-2.08,0-3.52-1.41-3.52-3.55c0-2.14,1.4-3.59,3.43-3.59
			C212.92,428.43,214.26,429.88,214.27,432z M209.43,431.37h3c-0.17-0.87-0.69-1.36-1.48-1.36
			C210.09,430.01,209.59,430.53,209.43,431.37z"/>
		<path class="st0" d="M220.68,430.24h-2.46v2.48c0,0.85,0.45,1.16,1.02,1.16c0.43,0,0.9-0.22,1.27-0.44l0.67,1.43
			c-0.6,0.41-1.28,0.71-2.25,0.71c-1.68,0-2.54-0.95-2.54-2.71v-2.63h-1.31v-1.62h1.31v-2.02h1.83v2.02h2.46V430.24z"/>
		<path class="st0" d="M227.15,430.51c-0.54-0.27-1.4-0.55-2.16-0.55c-0.69,0-1.04,0.25-1.04,0.62c0,0.39,0.49,0.49,1.11,0.58
			l0.6,0.09c1.47,0.22,2.29,0.88,2.29,2.03c0,1.4-1.15,2.3-3.12,2.3c-0.92,0-2.14-0.17-3.02-0.8l0.72-1.39
			c0.58,0.38,1.29,0.67,2.31,0.67c0.85,0,1.25-0.24,1.25-0.64c0-0.33-0.34-0.51-1.13-0.62l-0.55-0.08c-1.57-0.22-2.35-0.9-2.35-2.06
			c0-1.39,1.08-2.22,2.86-2.22c1.09,0,1.93,0.2,2.84,0.64L227.15,430.51z"/>
	</g>
</g>
<rect x="4" y="425.21" class="st0" width="10.01" height="10.01"/>
<rect x="126.04" y="425.21" class="st1" width="10.01" height="10.01"/>
<g>
	<g>
		<path class="st0" d="M11.92,359.08c0,3.17-1.89,5.08-4.23,5.08c-2.35,0-4.22-1.9-4.22-5.08S5.34,354,7.69,354
			C10.03,354,11.92,355.91,11.92,359.08z M5.43,359.08c0,2.14,1,3.26,2.26,3.26c1.26,0,2.25-1.12,2.25-3.26
			c0-2.14-0.99-3.26-2.25-3.26C6.43,355.81,5.43,356.93,5.43,359.08z"/>
		<path class="st0" d="M15.93,362.79c0,0.74-0.63,1.37-1.35,1.37c-0.73,0-1.37-0.63-1.37-1.37c0-0.73,0.64-1.35,1.37-1.35
			C15.3,361.44,15.93,362.06,15.93,362.79z"/>
		<path class="st0" d="M23.69,356.82c0,1.04-0.55,1.8-1.46,2.23c1.03,0.41,1.68,1.19,1.68,2.25c0,1.93-1.76,2.86-3.61,2.86
			c-1.47,0-2.68-0.53-3.42-1.42l1.13-1.24c0.57,0.6,1.39,0.94,2.23,0.94c0.95,0,1.72-0.41,1.72-1.27c0-0.84-0.86-1.28-1.92-1.28
			h-1.14v-1.68h1.15c0.95,0,1.72-0.42,1.72-1.25c0-0.79-0.71-1.23-1.62-1.23c-0.91,0-1.58,0.47-1.98,1l-1.19-1.2
			c0.64-0.87,1.71-1.52,3.27-1.52C22.28,354,23.69,355.12,23.69,356.82z"/>
	</g>
	<g>
		<path class="st0" d="M11.75,311.22c0,3.17-1.89,5.08-4.23,5.08c-2.35,0-4.22-1.9-4.22-5.08s1.88-5.08,4.22-5.08
			C9.86,306.14,11.75,308.05,11.75,311.22z M5.27,311.22c0,2.14,1,3.26,2.26,3.26c1.26,0,2.25-1.12,2.25-3.26
			c0-2.14-0.99-3.26-2.25-3.26C6.27,307.96,5.27,309.08,5.27,311.22z"/>
		<path class="st0" d="M15.76,314.93c0,0.74-0.63,1.37-1.35,1.37c-0.73,0-1.37-0.63-1.37-1.37c0-0.73,0.64-1.35,1.37-1.35
			C15.13,313.58,15.76,314.2,15.76,314.93z"/>
		<path class="st0" d="M22.86,312.57h1.37v1.76h-1.37v1.79h-1.89v-1.79h-4.35v-1.37l3.44-6.63h2.1l-3.28,6.24h2.09v-2.61h1.89
			V312.57z"/>
	</g>
	<g>
		<path class="st0" d="M11.76,261.36c0,3.17-1.89,5.08-4.23,5.08c-2.35,0-4.22-1.9-4.22-5.08s1.88-5.08,4.22-5.08
			C9.87,256.29,11.76,258.19,11.76,261.36z M5.28,261.36c0,2.14,1,3.26,2.26,3.26c1.26,0,2.25-1.12,2.25-3.26
			c0-2.14-0.99-3.26-2.25-3.26C6.28,258.1,5.28,259.22,5.28,261.36z"/>
		<path class="st0" d="M15.77,265.08c0,0.74-0.63,1.37-1.35,1.37c-0.73,0-1.37-0.63-1.37-1.37c0-0.73,0.64-1.35,1.37-1.35
			C15.14,263.72,15.77,264.35,15.77,265.08z"/>
		<path class="st0" d="M23.33,258.22h-3.97l-0.04,1.96h1.13c2.28,0,3.43,1.31,3.43,2.95c0,2.11-1.6,3.31-3.58,3.31
			c-1.46,0-2.66-0.55-3.47-1.46l1.06-1.32c0.53,0.58,1.49,1.04,2.4,1.04c1.09,0,1.63-0.64,1.63-1.42c0-0.74-0.46-1.38-2-1.38h-2.33
			l0.1-5.43h5.64V258.22z"/>
	</g>
	<g>
		<path class="st0" d="M11.67,211.51c0,3.17-1.89,5.08-4.23,5.08c-2.35,0-4.22-1.9-4.22-5.08s1.88-5.08,4.22-5.08
			C9.78,206.43,11.67,208.33,11.67,211.51z M5.18,211.51c0,2.14,1,3.26,2.26,3.26c1.26,0,2.25-1.12,2.25-3.26
			c0-2.14-0.99-3.26-2.25-3.26C6.18,208.24,5.18,209.36,5.18,211.51z"/>
		<path class="st0" d="M15.67,215.22c0,0.74-0.63,1.37-1.35,1.37c-0.73,0-1.37-0.63-1.37-1.37c0-0.73,0.64-1.35,1.37-1.35
			C15.04,213.87,15.67,214.49,15.67,215.22z"/>
		<path class="st0" d="M20.2,210.01c0.13-0.01,0.29-0.03,0.46-0.03c1.99,0,3.4,1.42,3.4,3.26c0,1.92-1.58,3.34-3.69,3.34
			c-2.09,0-3.68-1.41-3.68-3.31c0-0.9,0.34-1.71,0.93-2.61l2.72-4.07h2.28L20.2,210.01z M18.66,213.26c0,0.95,0.74,1.61,1.71,1.61
			c0.99,0,1.72-0.66,1.72-1.61c0-0.95-0.74-1.61-1.72-1.61C19.39,211.65,18.66,212.31,18.66,213.26z"/>
	</g>
	<g>
		<path class="st0" d="M12.23,161.65c0,3.17-1.89,5.08-4.23,5.08c-2.35,0-4.22-1.9-4.22-5.08c0-3.17,1.88-5.08,4.22-5.08
			C10.34,156.57,12.23,158.48,12.23,161.65z M5.74,161.65c0,2.14,1,3.26,2.26,3.26c1.26,0,2.25-1.12,2.25-3.26
			c0-2.14-0.99-3.26-2.25-3.26C6.74,158.38,5.74,159.51,5.74,161.65z"/>
		<path class="st0" d="M16.23,165.36c0,0.74-0.63,1.37-1.35,1.37c-0.73,0-1.37-0.63-1.37-1.37c0-0.73,0.64-1.35,1.37-1.35
			C15.6,164.01,16.23,164.63,16.23,165.36z"/>
		<path class="st0" d="M24.16,158.22l-4.06,8.33h-2.23l4.03-8.04h-4.66v-1.77h6.91V158.22z"/>
	</g>
	<g>
		<path class="st0" d="M11.04,111.79c0,3.17-1.89,5.08-4.23,5.08c-2.35,0-4.22-1.91-4.22-5.08s1.88-5.08,4.22-5.08
			C9.15,106.71,11.04,108.62,11.04,111.79z M4.56,111.79c0,2.14,1,3.26,2.26,3.26c1.26,0,2.25-1.12,2.25-3.26s-0.99-3.26-2.25-3.26
			C5.56,108.53,4.56,109.65,4.56,111.79z"/>
		<path class="st0" d="M15.05,115.5c0,0.74-0.63,1.37-1.35,1.37c-0.73,0-1.37-0.63-1.37-1.37c0-0.73,0.64-1.35,1.37-1.35
			C14.42,114.15,15.05,114.78,15.05,115.5z"/>
		<path class="st0" d="M23.67,109.53c0,1.13-0.65,1.83-1.5,2.22c0.97,0.38,1.74,1.08,1.74,2.28c0,1.79-1.72,2.84-3.83,2.84
			c-2.11,0-3.83-1.06-3.83-2.84c0-1.2,0.76-1.9,1.73-2.28c-0.85-0.39-1.49-1.09-1.49-2.22c0-1.76,1.61-2.81,3.59-2.81
			C22.06,106.71,23.67,107.77,23.67,109.53z M18.29,113.87c0,0.86,0.81,1.32,1.79,1.32c0.97,0,1.79-0.46,1.79-1.32
			c0-0.88-0.82-1.34-1.79-1.34C19.1,112.52,18.29,112.99,18.29,113.87z M18.5,109.68c0,0.84,0.71,1.29,1.58,1.29
			s1.58-0.45,1.58-1.29c0-0.81-0.71-1.25-1.58-1.25S18.5,108.87,18.5,109.68z"/>
	</g>
	<g>
		<path class="st0" d="M11.67,61.93c0,3.17-1.89,5.08-4.23,5.08c-2.35,0-4.22-1.91-4.22-5.08c0-3.17,1.88-5.08,4.22-5.08
			C9.78,56.86,11.67,58.76,11.67,61.93z M5.18,61.93c0,2.14,1,3.26,2.26,3.26c1.26,0,2.25-1.12,2.25-3.26
			c0-2.14-0.99-3.26-2.25-3.26C6.18,58.67,5.18,59.79,5.18,61.93z"/>
		<path class="st0" d="M15.67,65.65c0,0.74-0.63,1.37-1.35,1.37c-0.73,0-1.37-0.63-1.37-1.37c0-0.73,0.64-1.35,1.37-1.35
			C15.04,64.29,15.67,64.92,15.67,65.65z"/>
		<path class="st0" d="M20.55,63.43c-0.13,0.02-0.27,0.03-0.44,0.03c-1.99,0-3.4-1.42-3.4-3.26c0-1.92,1.58-3.34,3.68-3.34
			c2.09,0,3.68,1.41,3.68,3.31c0,0.9-0.34,1.72-0.93,2.61l-2.72,4.07h-2.28L20.55,63.43z M22.12,60.18c0-0.95-0.74-1.61-1.72-1.61
			c-0.99,0-1.72,0.66-1.72,1.61c0,0.95,0.73,1.61,1.72,1.61C21.38,61.79,22.12,61.13,22.12,60.18z"/>
	</g>
	<g>
		<path class="st0" d="M9.61,16.98H7.72v-7.3l-2.35,0.95V8.73l4.24-1.71V16.98z"/>
		<path class="st0" d="M14.05,15.79c0,0.74-0.63,1.37-1.35,1.37c-0.73,0-1.37-0.63-1.37-1.37c0-0.73,0.64-1.35,1.37-1.35
			C13.42,14.44,14.05,15.06,14.05,15.79z"/>
		<path class="st0" d="M23.8,12.08c0,3.17-1.89,5.08-4.23,5.08c-2.35,0-4.22-1.91-4.22-5.08c0-3.17,1.88-5.08,4.22-5.08
			C21.91,7,23.8,8.91,23.8,12.08z M17.32,12.08c0,2.14,1,3.26,2.26,3.26c1.26,0,2.25-1.12,2.25-3.26c0-2.14-0.99-3.26-2.25-3.26
			C18.32,8.81,17.32,9.93,17.32,12.08z"/>
	</g>
</g>
<line class="st2" x1="45.49" y1="360.71" x2="45.49" y2="11.71"/>
<g>
	<g>
		<line class="st3" x1="45.49" y1="360.71" x2="1071.19" y2="360.71"/>
		<line class="st3" x1="45.49" y1="310.85" x2="1071.19" y2="310.85"/>
		<line class="st3" x1="45.49" y1="261" x2="1071.19" y2="261"/>
		<line class="st3" x1="45.49" y1="211.14" x2="1071.19" y2="211.14"/>
		<line class="st3" x1="45.49" y1="161.28" x2="1071.19" y2="161.28"/>
		<line class="st3" x1="45.49" y1="111.43" x2="1071.19" y2="111.43"/>
		<line class="st3" x1="45.49" y1="61.57" x2="1071.19" y2="61.57"/>
		<line class="st3" x1="45.49" y1="11.71" x2="1071.19" y2="11.71"/>
	</g>
</g>
<g>
	<line class="st4" x1="52.89" y1="116.41" x2="47.96" y2="121.4"/>
	<line class="st4" x1="57.83" y1="111.43" x2="52.89" y2="116.41"/>
	<line class="st4" x1="62.77" y1="116.41" x2="57.83" y2="111.43"/>
	<line class="st4" x1="67.71" y1="116.41" x2="62.77" y2="116.41"/>
	<line class="st4" x1="72.65" y1="116.41" x2="67.71" y2="116.41"/>
	<line class="st4" x1="77.59" y1="106.44" x2="72.65" y2="116.41"/>
	<line class="st4" x1="82.53" y1="101.45" x2="77.59" y2="106.44"/>
	<line class="st4" x1="87.46" y1="101.45" x2="82.53" y2="101.45"/>
	<line class="st4" x1="92.4" y1="101.45" x2="87.46" y2="101.45"/>
	<line class="st4" x1="97.34" y1="86.5" x2="92.4" y2="101.45"/>
	<line class="st4" x1="102.28" y1="86.5" x2="97.34" y2="86.5"/>
	<line class="st4" x1="107.22" y1="81.51" x2="102.28" y2="86.5"/>
	<line class="st4" x1="112.16" y1="81.51" x2="107.22" y2="81.51"/>
	<line class="st4" x1="117.09" y1="76.53" x2="112.16" y2="81.51"/>
	<line class="st4" x1="122.03" y1="76.53" x2="117.09" y2="76.53"/>
	<line class="st4" x1="126.97" y1="86.5" x2="122.03" y2="76.53"/>
	<line class="st4" x1="131.91" y1="86.5" x2="126.97" y2="86.5"/>
	<line class="st4" x1="136.85" y1="81.51" x2="131.91" y2="86.5"/>
	<line class="st4" x1="141.79" y1="81.51" x2="136.85" y2="81.51"/>
	<line class="st4" x1="146.73" y1="86.5" x2="141.79" y2="81.51"/>
	<line class="st4" x1="151.66" y1="96.47" x2="146.73" y2="86.5"/>
	<line class="st4" x1="156.6" y1="96.47" x2="151.66" y2="96.47"/>
	<line class="st4" x1="161.54" y1="101.45" x2="156.6" y2="96.47"/>
	<line class="st4" x1="166.48" y1="96.47" x2="161.54" y2="101.45"/>
	<line class="st4" x1="171.42" y1="96.47" x2="166.48" y2="96.47"/>
	<line class="st4" x1="176.36" y1="96.47" x2="171.42" y2="96.47"/>
	<line class="st4" x1="181.29" y1="101.45" x2="176.36" y2="96.47"/>
	<line class="st4" x1="186.23" y1="101.45" x2="181.29" y2="101.45"/>
	<line class="st4" x1="191.17" y1="101.45" x2="186.23" y2="101.45"/>
	<line class="st4" x1="196.11" y1="111.43" x2="191.17" y2="101.45"/>
	<line class="st4" x1="201.05" y1="131.37" x2="196.11" y2="111.43"/>
	<line class="st4" x1="205.99" y1="136.35" x2="201.05" y2="131.37"/>
	<line class="st4" x1="210.93" y1="176.24" x2="205.99" y2="136.35"/>
	<line class="st4" x1="215.86" y1="151.31" x2="210.93" y2="176.24"/>
	<line class="st4" x1="220.8" y1="156.3" x2="215.86" y2="151.31"/>
	<line class="st4" x1="225.74" y1="126.38" x2="220.8" y2="156.3"/>
	<line class="st4" x1="230.68" y1="121.4" x2="225.74" y2="126.38"/>
	<line class="st4" x1="235.62" y1="121.4" x2="230.68" y2="121.4"/>
	<line class="st4" x1="240.56" y1="126.38" x2="235.62" y2="121.4"/>
	<line class="st4" x1="245.49" y1="101.45" x2="240.56" y2="126.38"/>
	<line class="st4" x1="250.43" y1="91.48" x2="245.49" y2="101.45"/>
	<line class="st4" x1="255.37" y1="91.48" x2="250.43" y2="91.48"/>
	<line class="st4" x1="260.31" y1="96.47" x2="255.37" y2="91.48"/>
	<line class="st4" x1="265.25" y1="96.47" x2="260.31" y2="96.47"/>
	<line class="st4" x1="270.19" y1="116.41" x2="265.25" y2="96.47"/>
	<line class="st4" x1="275.13" y1="116.41" x2="270.19" y2="116.41"/>
	<line class="st4" x1="280.06" y1="116.41" x2="275.13" y2="116.41"/>
	<line class="st4" x1="285" y1="121.4" x2="280.06" y2="116.41"/>
	<line class="st4" x1="289.94" y1="121.4" x2="285" y2="121.4"/>
	<line class="st4" x1="294.88" y1="126.38" x2="289.94" y2="121.4"/>
	<line class="st4" x1="299.82" y1="131.37" x2="294.88" y2="126.38"/>
	<line class="st4" x1="304.76" y1="131.37" x2="299.82" y2="131.37"/>
	<line class="st4" x1="309.69" y1="121.4" x2="304.76" y2="131.37"/>
	<line class="st4" x1="314.63" y1="121.4" x2="309.69" y2="121.4"/>
	<line class="st4" x1="319.57" y1="126.38" x2="314.63" y2="121.4"/>
	<line class="st4" x1="324.51" y1="126.38" x2="319.57" y2="126.38"/>
	<line class="st4" x1="329.45" y1="121.4" x2="324.51" y2="126.38"/>
	<line class="st4" x1="334.39" y1="121.4" x2="329.45" y2="121.4"/>
	<line class="st4" x1="339.33" y1="96.47" x2="334.39" y2="121.4"/>
	<line class="st4" x1="344.26" y1="101.45" x2="339.33" y2="96.47"/>
	<line class="st4" x1="349.2" y1="101.45" x2="344.26" y2="101.45"/>
	<line class="st4" x1="354.14" y1="116.41" x2="349.2" y2="101.45"/>
	<line class="st4" x1="359.08" y1="116.41" x2="354.14" y2="116.41"/>
	<line class="st4" x1="364.02" y1="116.41" x2="359.08" y2="116.41"/>
	<line class="st4" x1="368.96" y1="121.4" x2="364.02" y2="116.41"/>
	<line class="st4" x1="373.89" y1="136.35" x2="368.96" y2="121.4"/>
	<line class="st4" x1="378.83" y1="146.33" x2="373.89" y2="136.35"/>
	<line class="st4" x1="383.77" y1="146.33" x2="378.83" y2="146.33"/>
	<line class="st4" x1="388.71" y1="106.44" x2="383.77" y2="146.33"/>
	<line class="st4" x1="393.65" y1="76.53" x2="388.71" y2="106.44"/>
	<line class="st4" x1="398.59" y1="76.53" x2="393.65" y2="76.53"/>
	<line class="st4" x1="403.53" y1="81.51" x2="398.59" y2="76.53"/>
	<line class="st4" x1="408.46" y1="81.51" x2="403.53" y2="81.51"/>
	<line class="st4" x1="413.4" y1="81.51" x2="408.46" y2="81.51"/>
	<line class="st4" x1="418.34" y1="76.53" x2="413.4" y2="81.51"/>
	<line class="st4" x1="423.28" y1="71.54" x2="418.34" y2="76.53"/>
	<line class="st4" x1="428.22" y1="71.54" x2="423.28" y2="71.54"/>
	<line class="st4" x1="433.16" y1="71.54" x2="428.22" y2="71.54"/>
	<line class="st4" x1="438.1" y1="76.53" x2="433.16" y2="71.54"/>
	<line class="st4" x1="443.03" y1="76.53" x2="438.1" y2="76.53"/>
	<line class="st4" x1="447.97" y1="71.54" x2="443.03" y2="76.53"/>
	<line class="st4" x1="452.91" y1="71.54" x2="447.97" y2="71.54"/>
	<line class="st4" x1="457.85" y1="71.54" x2="452.91" y2="71.54"/>
	<line class="st4" x1="462.79" y1="71.54" x2="457.85" y2="71.54"/>
	<line class="st4" x1="467.73" y1="71.54" x2="462.79" y2="71.54"/>
	<line class="st4" x1="472.66" y1="71.54" x2="467.73" y2="71.54"/>
	<line class="st4" x1="477.6" y1="71.54" x2="472.66" y2="71.54"/>
	<line class="st4" x1="482.54" y1="71.54" x2="477.6" y2="71.54"/>
	<line class="st4" x1="487.48" y1="71.54" x2="482.54" y2="71.54"/>
	<line class="st4" x1="492.42" y1="71.54" x2="487.48" y2="71.54"/>
	<line class="st4" x1="497.36" y1="71.54" x2="492.42" y2="71.54"/>
	<line class="st4" x1="502.3" y1="76.53" x2="497.36" y2="71.54"/>
	<line class="st4" x1="507.23" y1="76.53" x2="502.3" y2="76.53"/>
	<line class="st4" x1="512.17" y1="76.53" x2="507.23" y2="76.53"/>
	<line class="st4" x1="517.11" y1="76.53" x2="512.17" y2="76.53"/>
	<line class="st4" x1="522.05" y1="76.53" x2="517.11" y2="76.53"/>
	<line class="st4" x1="526.99" y1="76.53" x2="522.05" y2="76.53"/>
	<line class="st4" x1="531.93" y1="71.54" x2="526.99" y2="76.53"/>
	<line class="st4" x1="536.86" y1="71.54" x2="531.93" y2="71.54"/>
	<line class="st4" x1="541.8" y1="76.53" x2="536.86" y2="71.54"/>
	<line class="st4" x1="546.74" y1="71.54" x2="541.8" y2="76.53"/>
	<line class="st4" x1="551.68" y1="66.55" x2="546.74" y2="71.54"/>
	<line class="st4" x1="556.62" y1="61.57" x2="551.68" y2="66.55"/>
	<line class="st4" x1="561.56" y1="66.55" x2="556.62" y2="61.57"/>
	<line class="st4" x1="566.5" y1="71.54" x2="561.56" y2="66.55"/>
	<line class="st4" x1="571.43" y1="91.48" x2="566.5" y2="71.54"/>
	<line class="st4" x1="576.37" y1="96.47" x2="571.43" y2="91.48"/>
	<line class="st4" x1="581.31" y1="91.48" x2="576.37" y2="96.47"/>
	<line class="st4" x1="586.25" y1="91.48" x2="581.31" y2="91.48"/>
	<line class="st4" x1="591.19" y1="106.44" x2="586.25" y2="91.48"/>
	<line class="st4" x1="596.13" y1="111.43" x2="591.19" y2="106.44"/>
	<line class="st4" x1="601.06" y1="121.4" x2="596.13" y2="111.43"/>
	<line class="st4" x1="606" y1="101.45" x2="601.06" y2="121.4"/>
	<line class="st4" x1="610.94" y1="106.44" x2="606" y2="101.45"/>
	<line class="st4" x1="615.88" y1="106.44" x2="610.94" y2="106.44"/>
	<line class="st4" x1="620.82" y1="106.44" x2="615.88" y2="106.44"/>
	<line class="st4" x1="625.76" y1="106.44" x2="620.82" y2="106.44"/>
	<line class="st4" x1="630.7" y1="106.44" x2="625.76" y2="106.44"/>
	<line class="st4" x1="635.63" y1="106.44" x2="630.7" y2="106.44"/>
	<line class="st4" x1="640.57" y1="111.43" x2="635.63" y2="106.44"/>
	<line class="st4" x1="645.51" y1="111.43" x2="640.57" y2="111.43"/>
	<line class="st4" x1="650.45" y1="106.44" x2="645.51" y2="111.43"/>
	<line class="st4" x1="655.39" y1="111.43" x2="650.45" y2="106.44"/>
	<line class="st4" x1="660.33" y1="121.4" x2="655.39" y2="111.43"/>
	<line class="st4" x1="665.26" y1="126.38" x2="660.33" y2="121.4"/>
	<line class="st4" x1="670.2" y1="131.37" x2="665.26" y2="126.38"/>
	<line class="st4" x1="675.14" y1="131.37" x2="670.2" y2="131.37"/>
	<line class="st4" x1="680.08" y1="121.4" x2="675.14" y2="131.37"/>
	<line class="st4" x1="685.02" y1="131.37" x2="680.08" y2="121.4"/>
	<line class="st4" x1="689.96" y1="126.38" x2="685.02" y2="131.37"/>
	<line class="st4" x1="694.9" y1="121.4" x2="689.96" y2="126.38"/>
	<line class="st4" x1="699.83" y1="126.38" x2="694.9" y2="121.4"/>
	<line class="st4" x1="704.77" y1="136.35" x2="699.83" y2="126.38"/>
	<line class="st4" x1="709.71" y1="136.35" x2="704.77" y2="136.35"/>
	<line class="st4" x1="714.65" y1="136.35" x2="709.71" y2="136.35"/>
	<line class="st4" x1="719.59" y1="131.37" x2="714.65" y2="136.35"/>
	<line class="st4" x1="724.53" y1="136.35" x2="719.59" y2="131.37"/>
	<line class="st4" x1="729.46" y1="141.34" x2="724.53" y2="136.35"/>
	<line class="st4" x1="734.4" y1="151.31" x2="729.46" y2="141.34"/>
	<line class="st4" x1="739.34" y1="141.34" x2="734.4" y2="151.31"/>
	<line class="st4" x1="744.28" y1="171.25" x2="739.34" y2="141.34"/>
	<line class="st4" x1="749.22" y1="201.17" x2="744.28" y2="171.25"/>
	<line class="st4" x1="754.16" y1="201.17" x2="749.22" y2="201.17"/>
	<line class="st4" x1="759.1" y1="201.17" x2="754.16" y2="201.17"/>
	<line class="st4" x1="764.03" y1="211.14" x2="759.1" y2="201.17"/>
	<line class="st4" x1="768.97" y1="196.18" x2="764.03" y2="211.14"/>
	<line class="st4" x1="773.91" y1="186.21" x2="768.97" y2="196.18"/>
	<line class="st4" x1="778.85" y1="191.2" x2="773.91" y2="186.21"/>
	<line class="st4" x1="783.79" y1="261" x2="778.85" y2="191.2"/>
	<line class="st4" x1="788.73" y1="231.08" x2="783.79" y2="261"/>
	<line class="st4" x1="793.66" y1="236.07" x2="788.73" y2="231.08"/>
	<line class="st4" x1="798.6" y1="201.17" x2="793.66" y2="236.07"/>
	<line class="st4" x1="803.54" y1="186.21" x2="798.6" y2="201.17"/>
	<line class="st4" x1="808.48" y1="191.2" x2="803.54" y2="186.21"/>
	<line class="st4" x1="813.42" y1="186.21" x2="808.48" y2="191.2"/>
	<line class="st4" x1="818.36" y1="181.23" x2="813.42" y2="186.21"/>
	<line class="st4" x1="823.3" y1="186.21" x2="818.36" y2="181.23"/>
	<line class="st4" x1="828.23" y1="191.2" x2="823.3" y2="186.21"/>
	<line class="st4" x1="833.17" y1="171.25" x2="828.23" y2="191.2"/>
	<line class="st4" x1="838.11" y1="161.28" x2="833.17" y2="171.25"/>
	<line class="st4" x1="843.05" y1="161.28" x2="838.11" y2="161.28"/>
	<line class="st4" x1="847.99" y1="171.25" x2="843.05" y2="161.28"/>
	<line class="st4" x1="852.93" y1="166.27" x2="847.99" y2="171.25"/>
	<line class="st4" x1="857.86" y1="161.28" x2="852.93" y2="166.27"/>
	<line class="st4" x1="862.8" y1="161.28" x2="857.86" y2="161.28"/>
	<line class="st4" x1="867.74" y1="166.27" x2="862.8" y2="161.28"/>
	<line class="st4" x1="872.68" y1="161.28" x2="867.74" y2="166.27"/>
	<line class="st4" x1="877.62" y1="161.28" x2="872.68" y2="161.28"/>
	<line class="st4" x1="882.56" y1="151.31" x2="877.62" y2="161.28"/>
	<line class="st4" x1="887.5" y1="166.27" x2="882.56" y2="151.31"/>
	<line class="st4" x1="892.43" y1="161.28" x2="887.5" y2="166.27"/>
	<line class="st4" x1="897.37" y1="161.28" x2="892.43" y2="161.28"/>
	<line class="st4" x1="902.31" y1="161.28" x2="897.37" y2="161.28"/>
	<line class="st4" x1="907.25" y1="151.31" x2="902.31" y2="161.28"/>
	<line class="st4" x1="912.19" y1="146.33" x2="907.25" y2="151.31"/>
	<line class="st4" x1="917.13" y1="151.31" x2="912.19" y2="146.33"/>
	<line class="st4" x1="922.07" y1="146.33" x2="917.13" y2="151.31"/>
	<line class="st4" x1="927" y1="136.35" x2="922.07" y2="146.33"/>
	<line class="st4" x1="931.94" y1="136.35" x2="927" y2="136.35"/>
	<line class="st4" x1="936.88" y1="136.35" x2="931.94" y2="136.35"/>
	<line class="st4" x1="941.82" y1="156.3" x2="936.88" y2="136.35"/>
	<line class="st4" x1="946.76" y1="161.28" x2="941.82" y2="156.3"/>
	<line class="st4" x1="951.7" y1="161.28" x2="946.76" y2="161.28"/>
	<line class="st4" x1="956.63" y1="156.3" x2="951.7" y2="161.28"/>
	<line class="st4" x1="961.57" y1="156.3" x2="956.63" y2="156.3"/>
	<line class="st4" x1="966.51" y1="166.27" x2="961.57" y2="156.3"/>
	<line class="st4" x1="971.45" y1="161.28" x2="966.51" y2="166.27"/>
	<line class="st4" x1="976.39" y1="196.18" x2="971.45" y2="161.28"/>
	<line class="st4" x1="981.33" y1="216.13" x2="976.39" y2="196.18"/>
	<line class="st4" x1="986.27" y1="151.31" x2="981.33" y2="216.13"/>
	<line class="st4" x1="991.2" y1="151.31" x2="986.27" y2="151.31"/>
	<line class="st4" x1="996.14" y1="126.38" x2="991.2" y2="151.31"/>
	<line class="st4" x1="1001.08" y1="101.45" x2="996.14" y2="126.38"/>
	<line class="st4" x1="1006.02" y1="96.47" x2="1001.08" y2="101.45"/>
	<line class="st4" x1="1010.96" y1="106.44" x2="1006.02" y2="96.47"/>
	<line class="st4" x1="1015.9" y1="91.48" x2="1010.96" y2="106.44"/>
	<line class="st4" x1="1020.83" y1="91.48" x2="1015.9" y2="91.48"/>
	<line class="st4" x1="1025.77" y1="91.48" x2="1020.83" y2="91.48"/>
	<line class="st4" x1="1030.71" y1="91.48" x2="1025.77" y2="91.48"/>
	<line class="st4" x1="1035.65" y1="96.47" x2="1030.71" y2="91.48"/>
	<line class="st4" x1="1040.59" y1="96.47" x2="1035.65" y2="96.47"/>
	<line class="st4" x1="1045.53" y1="96.47" x2="1040.59" y2="96.47"/>
	<line class="st4" x1="1050.47" y1="96.47" x2="1045.53" y2="96.47"/>
	<line class="st4" x1="1055.4" y1="101.45" x2="1050.47" y2="96.47"/>
	<line class="st4" x1="1060.34" y1="106.44" x2="1055.4" y2="101.45"/>
	<line class="st4" x1="1065.28" y1="86.5" x2="1060.34" y2="106.44"/>
</g>
<g>
	<line class="st5" x1="52.89" y1="146.33" x2="47.96" y2="146.33"/>
	<line class="st5" x1="57.83" y1="141.34" x2="52.89" y2="146.33"/>
	<line class="st5" x1="62.77" y1="136.35" x2="57.83" y2="141.34"/>
	<line class="st5" x1="67.71" y1="126.38" x2="62.77" y2="136.35"/>
	<line class="st5" x1="72.65" y1="126.38" x2="67.71" y2="126.38"/>
	<line class="st5" x1="77.59" y1="111.43" x2="72.65" y2="126.38"/>
	<line class="st5" x1="82.53" y1="101.45" x2="77.59" y2="111.43"/>
	<line class="st5" x1="87.46" y1="81.51" x2="82.53" y2="101.45"/>
	<line class="st5" x1="92.4" y1="86.5" x2="87.46" y2="81.51"/>
	<line class="st5" x1="97.34" y1="81.51" x2="92.4" y2="86.5"/>
	<line class="st5" x1="102.28" y1="86.5" x2="97.34" y2="81.51"/>
	<line class="st5" x1="107.22" y1="86.5" x2="102.28" y2="86.5"/>
	<line class="st5" x1="112.16" y1="81.51" x2="107.22" y2="86.5"/>
	<line class="st5" x1="117.09" y1="71.54" x2="112.16" y2="81.51"/>
	<line class="st5" x1="122.03" y1="76.53" x2="117.09" y2="71.54"/>
	<line class="st5" x1="126.97" y1="71.54" x2="122.03" y2="76.53"/>
	<line class="st5" x1="131.91" y1="81.51" x2="126.97" y2="71.54"/>
	<line class="st5" x1="136.85" y1="76.53" x2="131.91" y2="81.51"/>
	<line class="st5" x1="141.79" y1="76.53" x2="136.85" y2="76.53"/>
	<line class="st5" x1="146.73" y1="76.53" x2="141.79" y2="76.53"/>
	<line class="st5" x1="151.66" y1="86.5" x2="146.73" y2="76.53"/>
	<line class="st5" x1="156.6" y1="86.5" x2="151.66" y2="86.5"/>
	<line class="st5" x1="161.54" y1="91.48" x2="156.6" y2="86.5"/>
	<line class="st5" x1="166.48" y1="91.48" x2="161.54" y2="91.48"/>
	<line class="st5" x1="171.42" y1="86.5" x2="166.48" y2="91.48"/>
	<line class="st5" x1="176.36" y1="81.51" x2="171.42" y2="86.5"/>
	<line class="st5" x1="181.29" y1="86.5" x2="176.36" y2="81.51"/>
	<line class="st5" x1="186.23" y1="86.5" x2="181.29" y2="86.5"/>
	<line class="st5" x1="191.17" y1="81.51" x2="186.23" y2="86.5"/>
	<line class="st5" x1="196.11" y1="86.5" x2="191.17" y2="81.51"/>
	<line class="st5" x1="201.05" y1="86.5" x2="196.11" y2="86.5"/>
	<line class="st5" x1="205.99" y1="91.48" x2="201.05" y2="86.5"/>
	<line class="st5" x1="210.93" y1="106.44" x2="205.99" y2="91.48"/>
	<line class="st5" x1="215.86" y1="96.47" x2="210.93" y2="106.44"/>
	<line class="st5" x1="220.8" y1="91.48" x2="215.86" y2="96.47"/>
	<line class="st5" x1="225.74" y1="81.51" x2="220.8" y2="91.48"/>
	<line class="st5" x1="230.68" y1="81.51" x2="225.74" y2="81.51"/>
	<line class="st5" x1="235.62" y1="81.51" x2="230.68" y2="81.51"/>
	<line class="st5" x1="240.56" y1="91.48" x2="235.62" y2="81.51"/>
	<line class="st5" x1="245.49" y1="96.47" x2="240.56" y2="91.48"/>
	<line class="st5" x1="250.43" y1="91.48" x2="245.49" y2="96.47"/>
	<line class="st5" x1="255.37" y1="91.48" x2="250.43" y2="91.48"/>
	<line class="st5" x1="260.31" y1="91.48" x2="255.37" y2="91.48"/>
	<line class="st5" x1="265.25" y1="91.48" x2="260.31" y2="91.48"/>
	<line class="st5" x1="270.19" y1="101.45" x2="265.25" y2="91.48"/>
	<line class="st5" x1="275.13" y1="106.44" x2="270.19" y2="101.45"/>
	<line class="st5" x1="280.06" y1="106.44" x2="275.13" y2="106.44"/>
	<line class="st5" x1="285" y1="111.43" x2="280.06" y2="106.44"/>
	<line class="st5" x1="289.94" y1="111.43" x2="285" y2="111.43"/>
	<line class="st5" x1="294.88" y1="111.43" x2="289.94" y2="111.43"/>
	<line class="st5" x1="299.82" y1="111.43" x2="294.88" y2="111.43"/>
	<line class="st5" x1="304.76" y1="126.38" x2="299.82" y2="111.43"/>
	<line class="st5" x1="309.69" y1="116.41" x2="304.76" y2="126.38"/>
	<line class="st5" x1="314.63" y1="126.38" x2="309.69" y2="116.41"/>
	<line class="st5" x1="319.57" y1="136.35" x2="314.63" y2="126.38"/>
	<line class="st5" x1="324.51" y1="121.4" x2="319.57" y2="136.35"/>
	<line class="st5" x1="329.45" y1="121.4" x2="324.51" y2="121.4"/>
	<line class="st5" x1="334.39" y1="116.41" x2="329.45" y2="121.4"/>
	<line class="st5" x1="339.33" y1="101.45" x2="334.39" y2="116.41"/>
	<line class="st5" x1="344.26" y1="101.45" x2="339.33" y2="101.45"/>
	<line class="st5" x1="349.2" y1="96.47" x2="344.26" y2="101.45"/>
	<line class="st5" x1="354.14" y1="96.47" x2="349.2" y2="96.47"/>
	<line class="st5" x1="359.08" y1="91.48" x2="354.14" y2="96.47"/>
	<line class="st5" x1="364.02" y1="91.48" x2="359.08" y2="91.48"/>
	<line class="st5" x1="368.96" y1="106.44" x2="364.02" y2="91.48"/>
	<line class="st5" x1="373.89" y1="116.41" x2="368.96" y2="106.44"/>
	<line class="st5" x1="378.83" y1="111.43" x2="373.89" y2="116.41"/>
	<line class="st5" x1="383.77" y1="121.4" x2="378.83" y2="111.43"/>
	<line class="st5" x1="388.71" y1="111.43" x2="383.77" y2="121.4"/>
	<line class="st5" x1="393.65" y1="81.51" x2="388.71" y2="111.43"/>
	<line class="st5" x1="398.59" y1="81.51" x2="393.65" y2="81.51"/>
	<line class="st5" x1="403.53" y1="91.48" x2="398.59" y2="81.51"/>
	<line class="st5" x1="408.46" y1="96.47" x2="403.53" y2="91.48"/>
	<line class="st5" x1="413.4" y1="96.47" x2="408.46" y2="96.47"/>
	<line class="st5" x1="418.34" y1="91.48" x2="413.4" y2="96.47"/>
	<line class="st5" x1="423.28" y1="81.51" x2="418.34" y2="91.48"/>
	<line class="st5" x1="428.22" y1="76.53" x2="423.28" y2="81.51"/>
	<line class="st5" x1="433.16" y1="76.53" x2="428.22" y2="76.53"/>
	<line class="st5" x1="438.1" y1="76.53" x2="433.16" y2="76.53"/>
	<line class="st5" x1="443.03" y1="76.53" x2="438.1" y2="76.53"/>
	<line class="st5" x1="447.97" y1="76.53" x2="443.03" y2="76.53"/>
	<line class="st5" x1="452.91" y1="76.53" x2="447.97" y2="76.53"/>
	<line class="st5" x1="457.85" y1="76.53" x2="452.91" y2="76.53"/>
	<line class="st5" x1="462.79" y1="76.53" x2="457.85" y2="76.53"/>
	<line class="st5" x1="467.73" y1="76.53" x2="462.79" y2="76.53"/>
	<line class="st5" x1="472.66" y1="81.51" x2="467.73" y2="76.53"/>
	<line class="st5" x1="477.6" y1="81.51" x2="472.66" y2="81.51"/>
	<line class="st5" x1="482.54" y1="81.51" x2="477.6" y2="81.51"/>
	<line class="st5" x1="487.48" y1="81.51" x2="482.54" y2="81.51"/>
	<line class="st5" x1="492.42" y1="76.53" x2="487.48" y2="81.51"/>
	<line class="st5" x1="497.36" y1="76.53" x2="492.42" y2="76.53"/>
	<line class="st5" x1="502.3" y1="76.53" x2="497.36" y2="76.53"/>
	<line class="st5" x1="507.23" y1="76.53" x2="502.3" y2="76.53"/>
	<line class="st5" x1="512.17" y1="76.53" x2="507.23" y2="76.53"/>
	<line class="st5" x1="517.11" y1="76.53" x2="512.17" y2="76.53"/>
	<line class="st5" x1="522.05" y1="76.53" x2="517.11" y2="76.53"/>
	<line class="st5" x1="526.99" y1="76.53" x2="522.05" y2="76.53"/>
	<line class="st5" x1="531.93" y1="81.51" x2="526.99" y2="76.53"/>
	<line class="st5" x1="536.86" y1="86.5" x2="531.93" y2="81.51"/>
	<line class="st5" x1="541.8" y1="86.5" x2="536.86" y2="86.5"/>
	<line class="st5" x1="546.74" y1="86.5" x2="541.8" y2="86.5"/>
	<line class="st5" x1="551.68" y1="76.53" x2="546.74" y2="86.5"/>
	<line class="st5" x1="556.62" y1="76.53" x2="551.68" y2="76.53"/>
	<line class="st5" x1="561.56" y1="76.53" x2="556.62" y2="76.53"/>
	<line class="st5" x1="566.5" y1="81.51" x2="561.56" y2="76.53"/>
	<line class="st5" x1="571.43" y1="111.43" x2="566.5" y2="81.51"/>
	<line class="st5" x1="576.37" y1="116.41" x2="571.43" y2="111.43"/>
	<line class="st5" x1="581.31" y1="101.45" x2="576.37" y2="116.41"/>
	<line class="st5" x1="586.25" y1="101.45" x2="581.31" y2="101.45"/>
	<line class="st5" x1="591.19" y1="101.45" x2="586.25" y2="101.45"/>
	<line class="st5" x1="596.13" y1="111.43" x2="591.19" y2="101.45"/>
	<line class="st5" x1="601.06" y1="116.41" x2="596.13" y2="111.43"/>
	<line class="st5" x1="606" y1="126.38" x2="601.06" y2="116.41"/>
	<line class="st5" x1="610.94" y1="126.38" x2="606" y2="126.38"/>
	<line class="st5" x1="615.88" y1="126.38" x2="610.94" y2="126.38"/>
	<line class="st5" x1="620.82" y1="131.37" x2="615.88" y2="126.38"/>
	<line class="st5" x1="625.76" y1="136.35" x2="620.82" y2="131.37"/>
	<line class="st5" x1="630.7" y1="131.37" x2="625.76" y2="136.35"/>
	<line class="st5" x1="635.63" y1="136.35" x2="630.7" y2="131.37"/>
	<line class="st5" x1="640.57" y1="136.35" x2="635.63" y2="136.35"/>
	<line class="st5" x1="645.51" y1="141.34" x2="640.57" y2="136.35"/>
	<line class="st5" x1="650.45" y1="131.37" x2="645.51" y2="141.34"/>
	<line class="st5" x1="655.39" y1="136.35" x2="650.45" y2="131.37"/>
	<line class="st5" x1="660.33" y1="136.35" x2="655.39" y2="136.35"/>
	<line class="st5" x1="665.26" y1="141.34" x2="660.33" y2="136.35"/>
	<line class="st5" x1="670.2" y1="131.37" x2="665.26" y2="141.34"/>
	<line class="st5" x1="675.14" y1="136.35" x2="670.2" y2="131.37"/>
	<line class="st5" x1="680.08" y1="131.37" x2="675.14" y2="136.35"/>
	<line class="st5" x1="685.02" y1="141.34" x2="680.08" y2="131.37"/>
	<line class="st5" x1="689.96" y1="136.35" x2="685.02" y2="141.34"/>
	<line class="st5" x1="694.9" y1="131.37" x2="689.96" y2="136.35"/>
	<line class="st5" x1="699.83" y1="141.34" x2="694.9" y2="131.37"/>
	<line class="st5" x1="704.77" y1="146.33" x2="699.83" y2="141.34"/>
	<line class="st5" x1="709.71" y1="126.38" x2="704.77" y2="146.33"/>
	<line class="st5" x1="714.65" y1="121.4" x2="709.71" y2="126.38"/>
	<line class="st5" x1="719.59" y1="121.4" x2="714.65" y2="121.4"/>
	<line class="st5" x1="724.53" y1="126.38" x2="719.59" y2="121.4"/>
	<line class="st5" x1="729.46" y1="126.38" x2="724.53" y2="126.38"/>
	<line class="st5" x1="734.4" y1="126.38" x2="729.46" y2="126.38"/>
	<line class="st5" x1="739.34" y1="116.41" x2="734.4" y2="126.38"/>
	<line class="st5" x1="744.28" y1="131.37" x2="739.34" y2="116.41"/>
	<line class="st5" x1="749.22" y1="156.3" x2="744.28" y2="131.37"/>
	<line class="st5" x1="754.16" y1="151.31" x2="749.22" y2="156.3"/>
	<line class="st5" x1="759.1" y1="151.31" x2="754.16" y2="151.31"/>
	<line class="st5" x1="764.03" y1="161.28" x2="759.1" y2="151.31"/>
	<line class="st5" x1="768.97" y1="156.3" x2="764.03" y2="161.28"/>
	<line class="st5" x1="773.91" y1="161.28" x2="768.97" y2="156.3"/>
	<line class="st5" x1="778.85" y1="161.28" x2="773.91" y2="161.28"/>
	<line class="st5" x1="783.79" y1="201.17" x2="778.85" y2="161.28"/>
	<line class="st5" x1="788.73" y1="191.2" x2="783.79" y2="201.17"/>
	<line class="st5" x1="793.66" y1="191.2" x2="788.73" y2="191.2"/>
	<line class="st5" x1="798.6" y1="161.28" x2="793.66" y2="191.2"/>
	<line class="st5" x1="803.54" y1="171.25" x2="798.6" y2="161.28"/>
	<line class="st5" x1="808.48" y1="171.25" x2="803.54" y2="171.25"/>
	<line class="st5" x1="813.42" y1="166.27" x2="808.48" y2="171.25"/>
	<line class="st5" x1="818.36" y1="166.27" x2="813.42" y2="166.27"/>
	<line class="st5" x1="823.3" y1="171.25" x2="818.36" y2="166.27"/>
	<line class="st5" x1="828.23" y1="166.27" x2="823.3" y2="171.25"/>
	<line class="st5" x1="833.17" y1="146.33" x2="828.23" y2="166.27"/>
	<line class="st5" x1="838.11" y1="151.31" x2="833.17" y2="146.33"/>
	<line class="st5" x1="843.05" y1="156.3" x2="838.11" y2="151.31"/>
	<line class="st5" x1="847.99" y1="166.27" x2="843.05" y2="156.3"/>
	<line class="st5" x1="852.93" y1="161.28" x2="847.99" y2="166.27"/>
	<line class="st5" x1="857.86" y1="161.28" x2="852.93" y2="161.28"/>
	<line class="st5" x1="862.8" y1="161.28" x2="857.86" y2="161.28"/>
	<line class="st5" x1="867.74" y1="166.27" x2="862.8" y2="161.28"/>
	<line class="st5" x1="872.68" y1="181.23" x2="867.74" y2="166.27"/>
	<line class="st5" x1="877.62" y1="176.24" x2="872.68" y2="181.23"/>
	<line class="st5" x1="882.56" y1="166.27" x2="877.62" y2="176.24"/>
	<line class="st5" x1="887.5" y1="166.27" x2="882.56" y2="166.27"/>
	<line class="st5" x1="892.43" y1="166.27" x2="887.5" y2="166.27"/>
	<line class="st5" x1="897.37" y1="161.28" x2="892.43" y2="166.27"/>
	<line class="st5" x1="902.31" y1="166.27" x2="897.37" y2="161.28"/>
	<line class="st5" x1="907.25" y1="171.25" x2="902.31" y2="166.27"/>
	<line class="st5" x1="912.19" y1="186.21" x2="907.25" y2="171.25"/>
	<line class="st5" x1="917.13" y1="186.21" x2="912.19" y2="186.21"/>
	<line class="st5" x1="922.07" y1="211.14" x2="917.13" y2="186.21"/>
	<line class="st5" x1="927" y1="196.18" x2="922.07" y2="211.14"/>
	<line class="st5" x1="931.94" y1="196.18" x2="927" y2="196.18"/>
	<line class="st5" x1="936.88" y1="196.18" x2="931.94" y2="196.18"/>
	<line class="st5" x1="941.82" y1="236.07" x2="936.88" y2="196.18"/>
	<line class="st5" x1="946.76" y1="226.1" x2="941.82" y2="236.07"/>
	<line class="st5" x1="951.7" y1="221.11" x2="946.76" y2="226.1"/>
	<line class="st5" x1="956.63" y1="231.08" x2="951.7" y2="221.11"/>
	<line class="st5" x1="961.57" y1="261" x2="956.63" y2="231.08"/>
	<line class="st5" x1="966.51" y1="280.94" x2="961.57" y2="261"/>
	<line class="st5" x1="971.45" y1="280.94" x2="966.51" y2="280.94"/>
	<line class="st5" x1="976.39" y1="325.81" x2="971.45" y2="280.94"/>
	<line class="st5" x1="981.33" y1="330.8" x2="976.39" y2="325.81"/>
	<line class="st5" x1="986.27" y1="261" x2="981.33" y2="330.8"/>
	<line class="st5" x1="991.2" y1="261" x2="986.27" y2="261"/>
	<line class="st5" x1="996.14" y1="251.03" x2="991.2" y2="261"/>
	<line class="st5" x1="1001.08" y1="221.11" x2="996.14" y2="251.03"/>
	<line class="st5" x1="1006.02" y1="226.1" x2="1001.08" y2="221.11"/>
	<line class="st5" x1="1010.96" y1="251.03" x2="1006.02" y2="226.1"/>
	<line class="st5" x1="1015.9" y1="236.07" x2="1010.96" y2="251.03"/>
	<line class="st5" x1="1020.83" y1="216.13" x2="1015.9" y2="236.07"/>
	<line class="st5" x1="1025.77" y1="211.14" x2="1020.83" y2="216.13"/>
	<line class="st5" x1="1030.71" y1="221.11" x2="1025.77" y2="211.14"/>
	<line class="st5" x1="1035.65" y1="221.11" x2="1030.71" y2="221.11"/>
	<line class="st5" x1="1040.59" y1="216.13" x2="1035.65" y2="221.11"/>
	<line class="st5" x1="1045.53" y1="226.1" x2="1040.59" y2="216.13"/>
	<line class="st5" x1="1050.47" y1="221.11" x2="1045.53" y2="226.1"/>
	<line class="st5" x1="1055.4" y1="231.08" x2="1050.47" y2="221.11"/>
	<line class="st5" x1="1060.34" y1="241.05" x2="1055.4" y2="231.08"/>
	<line class="st5" x1="1065.28" y1="226.1" x2="1060.34" y2="241.05"/>
</g>
<g>
	<path class="st1" d="M1027.67,64.01c0,5.89-3.79,9.43-8.48,9.43c-4.7,0-8.46-3.54-8.46-9.43c0-5.89,3.76-9.43,8.46-9.43
		C1023.88,54.58,1027.67,58.12,1027.67,64.01z M1014.67,64.01c0,3.98,2.01,6.06,4.52,6.06c2.53,0,4.52-2.08,4.52-6.06
		c0-3.98-1.99-6.06-4.52-6.06C1016.68,57.95,1014.67,60.03,1014.67,64.01z"/>
	<path class="st1" d="M1035.72,70.9c0,1.36-1.26,2.54-2.71,2.54c-1.46,0-2.74-1.17-2.74-2.54c0-1.35,1.28-2.51,2.74-2.51
		C1034.45,68.39,1035.72,69.55,1035.72,70.9z"/>
	<path class="st1" d="M1053,59.81c0,2.09-1.31,3.39-3,4.12c1.94,0.7,3.48,2,3.48,4.23c0,3.31-3.45,5.28-7.68,5.28
		s-7.68-1.96-7.68-5.28c0-2.22,1.53-3.52,3.47-4.23c-1.7-0.73-2.99-2.03-2.99-4.12c0-3.28,3.23-5.23,7.2-5.23S1053,56.53,1053,59.81
		z M1042.2,67.86c0,1.6,1.63,2.44,3.59,2.44c1.95,0,3.59-0.84,3.59-2.44c0-1.63-1.64-2.5-3.59-2.5
		C1043.83,65.36,1042.2,66.23,1042.2,67.86z M1042.62,60.08c0,1.56,1.42,2.39,3.17,2.39s3.17-0.83,3.17-2.39
		c0-1.51-1.42-2.33-3.17-2.33S1042.62,58.57,1042.62,60.08z"/>
	<path class="st1" d="M1068.68,58.17h-7.96l-0.08,3.64h2.26c4.58,0,6.88,2.43,6.88,5.47c0,3.91-3.2,6.15-7.17,6.15
		c-2.93,0-5.33-1.01-6.96-2.72l2.13-2.46c1.07,1.08,2.99,1.92,4.8,1.92c2.19,0,3.27-1.2,3.27-2.64c0-1.36-0.93-2.56-4-2.56h-4.67
		l0.21-10.08h11.3V58.17z"/>
</g>
</svg>
