<?xml version="1.0" encoding="utf-8"?>
<!-- Generator: Adobe Illustrator 23.1.1, SVG Export Plug-In . SVG Version: 6.00 Build 0)  -->
<svg version="1.1" id="Layer_2" xmlns="http://www.w3.org/2000/svg" xmlns:xlink="http://www.w3.org/1999/xlink" x="0px" y="0px"
	 viewBox="0 0 1080 450" style="enable-background:new 0 0 1080 450;" xml:space="preserve">
<style type="text/css">
	.st0{fill:#203232;}
	.st1{fill:#ED5A36;}
	.st2{fill:none;}
	.st3{fill:none;stroke:#D8D8D8;stroke-width:0.75;stroke-linejoin:round;stroke-miterlimit:10;}
	.st4{fill:none;stroke:#ED5A36;stroke-width:3;stroke-linecap:round;stroke-miterlimit:10;}
	.st5{fill:none;stroke:#203232;stroke-width:3;stroke-linecap:round;stroke-miterlimit:10;}
</style>
<g>
	<path class="st0" d="M1029.4,187.2c0,5.9-3.8,9.4-8.5,9.4c-4.7,0-8.5-3.5-8.5-9.4c0-5.9,3.8-9.4,8.5-9.4
		C1025.7,177.7,1029.4,181.3,1029.4,187.2z M1016.4,187.2c0,4,2,6.1,4.5,6.1c2.5,0,4.5-2.1,4.5-6.1c0-4-2-6.1-4.5-6.1
		C1018.5,181.1,1016.4,183.2,1016.4,187.2z"/>
	<path class="st0" d="M1037.1,192.2l-2,7.7h-3.1l0.9-7.7H1037.1z"/>
	<path class="st0" d="M1052.4,181.3h-8l-0.1,3.6h2.3c4.6,0,6.9,2.4,6.9,5.5c0,3.9-3.2,6.1-7.2,6.1c-2.9,0-5.3-1-7-2.7l2.1-2.5
		c1.1,1.1,3,1.9,4.8,1.9c2.2,0,3.3-1.2,3.3-2.6c0-1.4-0.9-2.6-4-2.6h-4.7l0.2-10.1h11.3V181.3z"/>
	<path class="st0" d="M1069.5,180.8l-8.1,15.5h-4.5l8.1-14.9h-9.3v-3.3h13.9V180.8z"/>
</g>
<g>
	<g>
		<path class="st0" d="M27.4,383.5c0.5-0.7,1.5-1.7,3.3-1.7c2.1,0,3.3,1.3,3.3,3.2c0,1.2-0.6,2-1.4,2.9l-2.1,2.2h3.7v1.8h-6.5v-1.5
			l3.5-3.6c0.5-0.5,0.8-1.1,0.8-1.7c0-0.9-0.6-1.5-1.5-1.5c-0.9,0-1.5,0.5-2,1.1L27.4,383.5z"/>
		<path class="st0" d="M44,386.9c0,3.2-1.9,5.1-4.2,5.1c-2.3,0-4.2-1.9-4.2-5.1s1.9-5.1,4.2-5.1C42.1,381.9,44,383.8,44,386.9z
			 M37.5,386.9c0,2.1,1,3.3,2.3,3.3c1.3,0,2.3-1.1,2.3-3.3c0-2.1-1-3.3-2.3-3.3C38.5,383.7,37.5,384.8,37.5,386.9z"/>
		<path class="st0" d="M53.9,386.9c0,3.2-1.9,5.1-4.2,5.1c-2.3,0-4.2-1.9-4.2-5.1s1.9-5.1,4.2-5.1C52,381.9,53.9,383.8,53.9,386.9z
			 M47.4,386.9c0,2.1,1,3.3,2.3,3.3c1.3,0,2.3-1.1,2.3-3.3c0-2.1-1-3.3-2.3-3.3C48.4,383.7,47.4,384.8,47.4,386.9z"/>
		<path class="st0" d="M55,383.5c0.5-0.7,1.5-1.7,3.3-1.7c2.1,0,3.3,1.3,3.3,3.2c0,1.2-0.6,2-1.4,2.9l-2.1,2.2H62v1.8h-6.5v-1.5
			l3.5-3.6c0.5-0.5,0.8-1.1,0.8-1.7c0-0.9-0.6-1.5-1.5-1.5c-0.9,0-1.5,0.5-2,1.1L55,383.5z"/>
	</g>
</g>
<g>
	<g>
		<path class="st0" d="M84.8,383.5c0.5-0.7,1.5-1.7,3.3-1.7c2.1,0,3.3,1.3,3.3,3.2c0,1.2-0.6,2-1.4,2.9l-2.1,2.2h3.7v1.8h-6.5v-1.5
			l3.5-3.6c0.5-0.5,0.8-1.1,0.8-1.7c0-0.9-0.6-1.5-1.5-1.5c-0.9,0-1.5,0.5-2,1.1L84.8,383.5z"/>
		<path class="st0" d="M101.4,386.9c0,3.2-1.9,5.1-4.2,5.1c-2.3,0-4.2-1.9-4.2-5.1s1.9-5.1,4.2-5.1
			C99.5,381.9,101.4,383.8,101.4,386.9z M94.9,386.9c0,2.1,1,3.3,2.3,3.3c1.3,0,2.3-1.1,2.3-3.3c0-2.1-1-3.3-2.3-3.3
			C95.9,383.7,94.9,384.8,94.9,386.9z"/>
		<path class="st0" d="M111.3,386.9c0,3.2-1.9,5.1-4.2,5.1c-2.3,0-4.2-1.9-4.2-5.1s1.9-5.1,4.2-5.1
			C109.4,381.9,111.3,383.8,111.3,386.9z M104.8,386.9c0,2.1,1,3.3,2.3,3.3c1.3,0,2.3-1.1,2.3-3.3c0-2.1-1-3.3-2.3-3.3
			C105.8,383.7,104.8,384.8,104.8,386.9z"/>
		<path class="st0" d="M119.2,384.7c0,1-0.6,1.8-1.5,2.2c1,0.4,1.7,1.2,1.7,2.2c0,1.9-1.8,2.9-3.6,2.9c-1.5,0-2.7-0.5-3.4-1.4
			l1.1-1.2c0.6,0.6,1.4,0.9,2.2,0.9c1,0,1.7-0.4,1.7-1.3c0-0.8-0.9-1.3-1.9-1.3h-1.1v-1.7h1.1c1,0,1.7-0.4,1.7-1.2
			c0-0.8-0.7-1.2-1.6-1.2c-0.9,0-1.6,0.5-2,1l-1.2-1.2c0.6-0.9,1.7-1.5,3.3-1.5C117.8,381.9,119.2,383,119.2,384.7z"/>
	</g>
</g>
<g>
	<g>
		<path class="st0" d="M142.2,383.5c0.5-0.7,1.5-1.7,3.3-1.7c2.1,0,3.3,1.3,3.3,3.2c0,1.2-0.6,2-1.4,2.9l-2.1,2.2h3.7v1.8h-6.5v-1.5
			l3.5-3.6c0.5-0.5,0.8-1.1,0.8-1.7c0-0.9-0.6-1.5-1.5-1.5c-0.9,0-1.5,0.5-2,1.1L142.2,383.5z"/>
		<path class="st0" d="M158.8,386.9c0,3.2-1.9,5.1-4.2,5.1c-2.3,0-4.2-1.9-4.2-5.1s1.9-5.1,4.2-5.1
			C156.9,381.9,158.8,383.8,158.8,386.9z M152.3,386.9c0,2.1,1,3.3,2.3,3.3c1.3,0,2.3-1.1,2.3-3.3c0-2.1-1-3.3-2.3-3.3
			C153.3,383.7,152.3,384.8,152.3,386.9z"/>
		<path class="st0" d="M168.7,386.9c0,3.2-1.9,5.1-4.2,5.1c-2.3,0-4.2-1.9-4.2-5.1s1.9-5.1,4.2-5.1
			C166.8,381.9,168.7,383.8,168.7,386.9z M162.2,386.9c0,2.1,1,3.3,2.3,3.3c1.3,0,2.3-1.1,2.3-3.3c0-2.1-1-3.3-2.3-3.3
			C163.2,383.7,162.2,384.8,162.2,386.9z"/>
		<path class="st0" d="M175.9,388.3h1.4v1.8h-1.4v1.8H174V390h-4.3v-1.4l3.4-6.6h2.1l-3.3,6.2h2.1v-2.6h1.9V388.3z"/>
	</g>
</g>
<g>
	<g>
		<path class="st0" d="M199.7,383.5c0.5-0.7,1.5-1.7,3.3-1.7c2.1,0,3.3,1.3,3.3,3.2c0,1.2-0.6,2-1.4,2.9l-2.1,2.2h3.7v1.8h-6.5v-1.5
			l3.5-3.6c0.5-0.5,0.8-1.1,0.8-1.7c0-0.9-0.6-1.5-1.5-1.5c-0.9,0-1.5,0.5-2,1.1L199.7,383.5z"/>
		<path class="st0" d="M216.3,386.9c0,3.2-1.9,5.1-4.2,5.1c-2.3,0-4.2-1.9-4.2-5.1s1.9-5.1,4.2-5.1
			C214.4,381.9,216.3,383.8,216.3,386.9z M209.8,386.9c0,2.1,1,3.3,2.3,3.3c1.3,0,2.3-1.1,2.3-3.3c0-2.1-1-3.3-2.3-3.3
			C210.8,383.7,209.8,384.8,209.8,386.9z"/>
		<path class="st0" d="M226.2,386.9c0,3.2-1.9,5.1-4.2,5.1c-2.3,0-4.2-1.9-4.2-5.1s1.9-5.1,4.2-5.1
			C224.3,381.9,226.2,383.8,226.2,386.9z M219.7,386.9c0,2.1,1,3.3,2.3,3.3c1.3,0,2.3-1.1,2.3-3.3c0-2.1-1-3.3-2.3-3.3
			C220.7,383.7,219.7,384.8,219.7,386.9z"/>
		<path class="st0" d="M233.9,383.8h-4l0,2h1.1c2.3,0,3.4,1.3,3.4,2.9c0,2.1-1.6,3.3-3.6,3.3c-1.5,0-2.7-0.5-3.5-1.5l1.1-1.3
			c0.5,0.6,1.5,1,2.4,1c1.1,0,1.6-0.6,1.6-1.4c0-0.7-0.5-1.4-2-1.4h-2.3l0.1-5.4h5.6V383.8z"/>
	</g>
</g>
<g>
	<g>
		<path class="st0" d="M257.2,383.5c0.5-0.7,1.5-1.7,3.3-1.7c2.1,0,3.3,1.3,3.3,3.2c0,1.2-0.6,2-1.4,2.9l-2.1,2.2h3.7v1.8h-6.5v-1.5
			l3.5-3.6c0.5-0.5,0.8-1.1,0.8-1.7c0-0.9-0.6-1.5-1.5-1.5c-0.9,0-1.5,0.5-2,1.1L257.2,383.5z"/>
		<path class="st0" d="M273.7,386.9c0,3.2-1.9,5.1-4.2,5.1c-2.3,0-4.2-1.9-4.2-5.1s1.9-5.1,4.2-5.1
			C271.8,381.9,273.7,383.8,273.7,386.9z M267.3,386.9c0,2.1,1,3.3,2.3,3.3c1.3,0,2.3-1.1,2.3-3.3c0-2.1-1-3.3-2.3-3.3
			C268.3,383.7,267.3,384.8,267.3,386.9z"/>
		<path class="st0" d="M283.6,386.9c0,3.2-1.9,5.1-4.2,5.1c-2.3,0-4.2-1.9-4.2-5.1s1.9-5.1,4.2-5.1
			C281.7,381.9,283.6,383.8,283.6,386.9z M277.1,386.9c0,2.1,1,3.3,2.3,3.3c1.3,0,2.3-1.1,2.3-3.3c0-2.1-1-3.3-2.3-3.3
			C278.1,383.7,277.1,384.8,277.1,386.9z"/>
		<path class="st0" d="M288.3,385.4c0.1,0,0.3,0,0.5,0c2,0,3.4,1.4,3.4,3.3c0,1.9-1.6,3.3-3.7,3.3c-2.1,0-3.7-1.4-3.7-3.3
			c0-0.9,0.3-1.7,0.9-2.6l2.7-4.1h2.3L288.3,385.4z M286.7,388.7c0,1,0.7,1.6,1.7,1.6c1,0,1.7-0.7,1.7-1.6c0-0.9-0.7-1.6-1.7-1.6
			C287.5,387.1,286.7,387.7,286.7,388.7z"/>
	</g>
</g>
<g>
	<g>
		<path class="st0" d="M314.9,383.5c0.5-0.7,1.5-1.7,3.3-1.7c2.1,0,3.3,1.3,3.3,3.2c0,1.2-0.6,2-1.4,2.9l-2.1,2.2h3.7v1.8h-6.5v-1.5
			l3.5-3.6c0.5-0.5,0.8-1.1,0.8-1.7c0-0.9-0.6-1.5-1.5-1.5c-0.9,0-1.5,0.5-2,1.1L314.9,383.5z"/>
		<path class="st0" d="M331.5,386.9c0,3.2-1.9,5.1-4.2,5.1c-2.3,0-4.2-1.9-4.2-5.1s1.9-5.1,4.2-5.1
			C329.6,381.9,331.5,383.8,331.5,386.9z M325,386.9c0,2.1,1,3.3,2.3,3.3c1.3,0,2.3-1.1,2.3-3.3c0-2.1-1-3.3-2.3-3.3
			C326,383.7,325,384.8,325,386.9z"/>
		<path class="st0" d="M341.4,386.9c0,3.2-1.9,5.1-4.2,5.1c-2.3,0-4.2-1.9-4.2-5.1s1.9-5.1,4.2-5.1
			C339.5,381.9,341.4,383.8,341.4,386.9z M334.9,386.9c0,2.1,1,3.3,2.3,3.3c1.3,0,2.3-1.1,2.3-3.3c0-2.1-1-3.3-2.3-3.3
			C335.9,383.7,334.9,384.8,334.9,386.9z"/>
		<path class="st0" d="M349.4,383.5l-4.1,8.3h-2.2l4-8h-4.7V382h6.9V383.5z"/>
	</g>
</g>
<g>
	<g>
		<path class="st0" d="M371.8,383.5c0.5-0.7,1.5-1.7,3.3-1.7c2.1,0,3.3,1.3,3.3,3.2c0,1.2-0.6,2-1.4,2.9l-2.1,2.2h3.7v1.8h-6.5v-1.5
			l3.5-3.6c0.5-0.5,0.8-1.1,0.8-1.7c0-0.9-0.6-1.5-1.5-1.5c-0.9,0-1.5,0.5-2,1.1L371.8,383.5z"/>
		<path class="st0" d="M388.4,386.9c0,3.2-1.9,5.1-4.2,5.1c-2.3,0-4.2-1.9-4.2-5.1s1.9-5.1,4.2-5.1
			C386.5,381.9,388.4,383.8,388.4,386.9z M381.9,386.9c0,2.1,1,3.3,2.3,3.3c1.3,0,2.3-1.1,2.3-3.3c0-2.1-1-3.3-2.3-3.3
			C382.9,383.7,381.9,384.8,381.9,386.9z"/>
		<path class="st0" d="M398.3,386.9c0,3.2-1.9,5.1-4.2,5.1c-2.3,0-4.2-1.9-4.2-5.1s1.9-5.1,4.2-5.1
			C396.4,381.9,398.3,383.8,398.3,386.9z M391.8,386.9c0,2.1,1,3.3,2.3,3.3c1.3,0,2.3-1.1,2.3-3.3c0-2.1-1-3.3-2.3-3.3
			C392.8,383.7,391.8,384.8,391.8,386.9z"/>
		<path class="st0" d="M407,384.7c0,1.1-0.7,1.8-1.5,2.2c1,0.4,1.7,1.1,1.7,2.3c0,1.8-1.7,2.8-3.8,2.8c-2.1,0-3.8-1.1-3.8-2.8
			c0-1.2,0.8-1.9,1.7-2.3c-0.8-0.4-1.5-1.1-1.5-2.2c0-1.8,1.6-2.8,3.6-2.8C405.4,381.9,407,382.9,407,384.7z M401.6,389
			c0,0.9,0.8,1.3,1.8,1.3c1,0,1.8-0.5,1.8-1.3c0-0.9-0.8-1.3-1.8-1.3C402.5,387.7,401.6,388.1,401.6,389z M401.9,384.8
			c0,0.8,0.7,1.3,1.6,1.3c0.9,0,1.6-0.4,1.6-1.3c0-0.8-0.7-1.3-1.6-1.3C402.6,383.6,401.9,384,401.9,384.8z"/>
	</g>
</g>
<g>
	<g>
		<path class="st0" d="M429.6,383.5c0.5-0.7,1.5-1.7,3.3-1.7c2.1,0,3.3,1.3,3.3,3.2c0,1.2-0.6,2-1.4,2.9l-2.1,2.2h3.7v1.8H430v-1.5
			l3.5-3.6c0.5-0.5,0.8-1.1,0.8-1.7c0-0.9-0.6-1.5-1.5-1.5c-0.9,0-1.5,0.5-2,1.1L429.6,383.5z"/>
		<path class="st0" d="M446.2,386.9c0,3.2-1.9,5.1-4.2,5.1c-2.3,0-4.2-1.9-4.2-5.1s1.9-5.1,4.2-5.1
			C444.3,381.9,446.2,383.8,446.2,386.9z M439.7,386.9c0,2.1,1,3.3,2.3,3.3c1.3,0,2.3-1.1,2.3-3.3c0-2.1-1-3.3-2.3-3.3
			C440.7,383.7,439.7,384.8,439.7,386.9z"/>
		<path class="st0" d="M456.1,386.9c0,3.2-1.9,5.1-4.2,5.1c-2.3,0-4.2-1.9-4.2-5.1s1.9-5.1,4.2-5.1
			C454.2,381.9,456.1,383.8,456.1,386.9z M449.6,386.9c0,2.1,1,3.3,2.3,3.3c1.3,0,2.3-1.1,2.3-3.3c0-2.1-1-3.3-2.3-3.3
			C450.6,383.7,449.6,384.8,449.6,386.9z"/>
		<path class="st0" d="M461.1,388.4c-0.1,0-0.3,0-0.4,0c-2,0-3.4-1.4-3.4-3.3c0-1.9,1.6-3.3,3.7-3.3c2.1,0,3.7,1.4,3.7,3.3
			c0,0.9-0.3,1.7-0.9,2.6l-2.7,4.1h-2.3L461.1,388.4z M462.7,385.2c0-1-0.7-1.6-1.7-1.6c-1,0-1.7,0.7-1.7,1.6c0,0.9,0.7,1.6,1.7,1.6
			C461.9,386.8,462.7,386.1,462.7,385.2z"/>
	</g>
</g>
<g>
	<g>
		<path class="st0" d="M486.6,383.5c0.5-0.7,1.5-1.7,3.3-1.7c2.1,0,3.3,1.3,3.3,3.2c0,1.2-0.6,2-1.4,2.9l-2.1,2.2h3.7v1.8h-6.5v-1.5
			l3.5-3.6c0.5-0.5,0.8-1.1,0.8-1.7c0-0.9-0.6-1.5-1.5-1.5c-0.9,0-1.5,0.5-2,1.1L486.6,383.5z"/>
		<path class="st0" d="M503.2,386.9c0,3.2-1.9,5.1-4.2,5.1c-2.3,0-4.2-1.9-4.2-5.1s1.9-5.1,4.2-5.1
			C501.3,381.9,503.2,383.8,503.2,386.9z M496.7,386.9c0,2.1,1,3.3,2.3,3.3c1.3,0,2.3-1.1,2.3-3.3c0-2.1-1-3.3-2.3-3.3
			C497.7,383.7,496.7,384.8,496.7,386.9z"/>
		<path class="st0" d="M508.5,391.8h-1.9v-7.3l-2.3,1v-1.9l4.2-1.7V391.8z"/>
		<path class="st0" d="M518.8,386.9c0,3.2-1.9,5.1-4.2,5.1c-2.3,0-4.2-1.9-4.2-5.1s1.9-5.1,4.2-5.1
			C517,381.9,518.8,383.8,518.8,386.9z M512.4,386.9c0,2.1,1,3.3,2.3,3.3c1.3,0,2.3-1.1,2.3-3.3c0-2.1-1-3.3-2.3-3.3
			C513.4,383.7,512.4,384.8,512.4,386.9z"/>
	</g>
</g>
<g>
	<g>
		<path class="st0" d="M546.2,383.5c0.5-0.7,1.5-1.7,3.3-1.7c2.1,0,3.3,1.3,3.3,3.2c0,1.2-0.6,2-1.4,2.9l-2.1,2.2h3.7v1.8h-6.5v-1.5
			l3.5-3.6c0.5-0.5,0.8-1.1,0.8-1.7c0-0.9-0.6-1.5-1.5-1.5c-0.9,0-1.5,0.5-2,1.1L546.2,383.5z"/>
		<path class="st0" d="M562.8,386.9c0,3.2-1.9,5.1-4.2,5.1c-2.3,0-4.2-1.9-4.2-5.1s1.9-5.1,4.2-5.1
			C560.9,381.9,562.8,383.8,562.8,386.9z M556.3,386.9c0,2.1,1,3.3,2.3,3.3c1.3,0,2.3-1.1,2.3-3.3c0-2.1-1-3.3-2.3-3.3
			C557.3,383.7,556.3,384.8,556.3,386.9z"/>
		<path class="st0" d="M568.1,391.8h-1.9v-7.3l-2.3,1v-1.9l4.2-1.7V391.8z"/>
		<path class="st0" d="M573.8,391.8h-1.9v-7.3l-2.3,1v-1.9l4.2-1.7V391.8z"/>
	</g>
</g>
<g>
	<g>
		<path class="st0" d="M602.6,383.5c0.5-0.7,1.5-1.7,3.3-1.7c2.1,0,3.3,1.3,3.3,3.2c0,1.2-0.6,2-1.4,2.9l-2.1,2.2h3.7v1.8H603v-1.5
			l3.5-3.6c0.5-0.5,0.8-1.1,0.8-1.7c0-0.9-0.6-1.5-1.5-1.5c-0.9,0-1.5,0.5-2,1.1L602.6,383.5z"/>
		<path class="st0" d="M619.2,386.9c0,3.2-1.9,5.1-4.2,5.1c-2.3,0-4.2-1.9-4.2-5.1s1.9-5.1,4.2-5.1
			C617.3,381.9,619.2,383.8,619.2,386.9z M612.7,386.9c0,2.1,1,3.3,2.3,3.3c1.3,0,2.3-1.1,2.3-3.3c0-2.1-1-3.3-2.3-3.3
			C613.7,383.7,612.7,384.8,612.7,386.9z"/>
		<path class="st0" d="M624.5,391.8h-1.9v-7.3l-2.3,1v-1.9l4.2-1.7V391.8z"/>
		<path class="st0" d="M626.1,383.5c0.5-0.7,1.5-1.7,3.3-1.7c2.1,0,3.3,1.3,3.3,3.2c0,1.2-0.6,2-1.4,2.9l-2.1,2.2h3.7v1.8h-6.5v-1.5
			l3.5-3.6c0.5-0.5,0.8-1.1,0.8-1.7c0-0.9-0.6-1.5-1.5-1.5c-0.9,0-1.5,0.5-2,1.1L626.1,383.5z"/>
	</g>
</g>
<g>
	<g>
		<path class="st0" d="M660,383.5c0.5-0.7,1.5-1.7,3.3-1.7c2.1,0,3.3,1.3,3.3,3.2c0,1.2-0.6,2-1.4,2.9l-2.1,2.2h3.7v1.8h-6.5v-1.5
			l3.5-3.6c0.5-0.5,0.8-1.1,0.8-1.7c0-0.9-0.6-1.5-1.5-1.5c-0.9,0-1.5,0.5-2,1.1L660,383.5z"/>
		<path class="st0" d="M676.6,386.9c0,3.2-1.9,5.1-4.2,5.1c-2.3,0-4.2-1.9-4.2-5.1s1.9-5.1,4.2-5.1
			C674.7,381.9,676.6,383.8,676.6,386.9z M670.1,386.9c0,2.1,1,3.3,2.3,3.3c1.3,0,2.3-1.1,2.3-3.3c0-2.1-1-3.3-2.3-3.3
			C671.1,383.7,670.1,384.8,670.1,386.9z"/>
		<path class="st0" d="M681.9,391.8H680v-7.3l-2.3,1v-1.9l4.2-1.7V391.8z"/>
		<path class="st0" d="M690.3,384.7c0,1-0.6,1.8-1.5,2.2c1,0.4,1.7,1.2,1.7,2.2c0,1.9-1.8,2.9-3.6,2.9c-1.5,0-2.7-0.5-3.4-1.4
			l1.1-1.2c0.6,0.6,1.4,0.9,2.2,0.9c1,0,1.7-0.4,1.7-1.3c0-0.8-0.9-1.3-1.9-1.3h-1.1v-1.7h1.1c1,0,1.7-0.4,1.7-1.2
			c0-0.8-0.7-1.2-1.6-1.2c-0.9,0-1.6,0.5-2,1l-1.2-1.2c0.6-0.9,1.7-1.5,3.3-1.5C688.8,381.9,690.3,383,690.3,384.7z"/>
	</g>
</g>
<g>
	<g>
		<path class="st0" d="M717.4,383.5c0.5-0.7,1.5-1.7,3.3-1.7c2.1,0,3.3,1.3,3.3,3.2c0,1.2-0.6,2-1.4,2.9l-2.1,2.2h3.7v1.8h-6.5v-1.5
			l3.5-3.6c0.5-0.5,0.8-1.1,0.8-1.7c0-0.9-0.6-1.5-1.5-1.5c-0.9,0-1.5,0.5-2,1.1L717.4,383.5z"/>
		<path class="st0" d="M734,386.9c0,3.2-1.9,5.1-4.2,5.1c-2.3,0-4.2-1.9-4.2-5.1s1.9-5.1,4.2-5.1C732.1,381.9,734,383.8,734,386.9z
			 M727.5,386.9c0,2.1,1,3.3,2.3,3.3c1.3,0,2.3-1.1,2.3-3.3c0-2.1-1-3.3-2.3-3.3C728.5,383.7,727.5,384.8,727.5,386.9z"/>
		<path class="st0" d="M739.3,391.8h-1.9v-7.3l-2.3,1v-1.9l4.2-1.7V391.8z"/>
		<path class="st0" d="M747,388.3h1.4v1.8H747v1.8h-1.9V390h-4.3v-1.4l3.4-6.6h2.1l-3.3,6.2h2.1v-2.6h1.9V388.3z"/>
	</g>
</g>
<g>
	<g>
		<path class="st0" d="M774.9,383.5c0.5-0.7,1.5-1.7,3.3-1.7c2.1,0,3.3,1.3,3.3,3.2c0,1.2-0.6,2-1.4,2.9l-2.1,2.2h3.7v1.8h-6.5v-1.5
			l3.5-3.6c0.5-0.5,0.8-1.1,0.8-1.7c0-0.9-0.6-1.5-1.5-1.5c-0.9,0-1.5,0.5-2,1.1L774.9,383.5z"/>
		<path class="st0" d="M791.5,386.9c0,3.2-1.9,5.1-4.2,5.1c-2.3,0-4.2-1.9-4.2-5.1s1.9-5.1,4.2-5.1
			C789.6,381.9,791.5,383.8,791.5,386.9z M785,386.9c0,2.1,1,3.3,2.3,3.3c1.3,0,2.3-1.1,2.3-3.3c0-2.1-1-3.3-2.3-3.3
			C786,383.7,785,384.8,785,386.9z"/>
		<path class="st0" d="M796.8,391.8h-1.9v-7.3l-2.3,1v-1.9l4.2-1.7V391.8z"/>
		<path class="st0" d="M804.9,383.8h-4l0,2h1.1c2.3,0,3.4,1.3,3.4,2.9c0,2.1-1.6,3.3-3.6,3.3c-1.5,0-2.7-0.5-3.5-1.5l1.1-1.3
			c0.5,0.6,1.5,1,2.4,1c1.1,0,1.6-0.6,1.6-1.4c0-0.7-0.5-1.4-2-1.4h-2.3l0.1-5.4h5.6V383.8z"/>
	</g>
</g>
<g>
	<g>
		<path class="st0" d="M832.4,383.5c0.5-0.7,1.5-1.7,3.3-1.7c2.1,0,3.3,1.3,3.3,3.2c0,1.2-0.6,2-1.4,2.9l-2.1,2.2h3.7v1.8h-6.5v-1.5
			l3.5-3.6c0.5-0.5,0.8-1.1,0.8-1.7c0-0.9-0.6-1.5-1.5-1.5c-0.9,0-1.5,0.5-2,1.1L832.4,383.5z"/>
		<path class="st0" d="M849,386.9c0,3.2-1.9,5.1-4.2,5.1c-2.3,0-4.2-1.9-4.2-5.1s1.9-5.1,4.2-5.1C847.1,381.9,849,383.8,849,386.9z
			 M842.5,386.9c0,2.1,1,3.3,2.3,3.3c1.3,0,2.3-1.1,2.3-3.3c0-2.1-1-3.3-2.3-3.3C843.5,383.7,842.5,384.8,842.5,386.9z"/>
		<path class="st0" d="M854.3,391.8h-1.9v-7.3l-2.3,1v-1.9l4.2-1.7V391.8z"/>
		<path class="st0" d="M859.4,385.4c0.1,0,0.3,0,0.5,0c2,0,3.4,1.4,3.4,3.3c0,1.9-1.6,3.3-3.7,3.3c-2.1,0-3.7-1.4-3.7-3.3
			c0-0.9,0.3-1.7,0.9-2.6l2.7-4.1h2.3L859.4,385.4z M857.8,388.7c0,1,0.7,1.6,1.7,1.6c1,0,1.7-0.7,1.7-1.6c0-0.9-0.7-1.6-1.7-1.6
			C858.5,387.1,857.8,387.7,857.8,388.7z"/>
	</g>
</g>
<g>
	<g>
		<path class="st0" d="M1004.8,383.5c0.5-0.7,1.5-1.7,3.3-1.7c2.1,0,3.3,1.3,3.3,3.2c0,1.2-0.6,2-1.4,2.9l-2.1,2.2h3.7v1.8h-6.5
			v-1.5l3.5-3.6c0.5-0.5,0.8-1.1,0.8-1.7c0-0.9-0.6-1.5-1.5-1.5c-0.9,0-1.5,0.5-2,1.1L1004.8,383.5z"/>
		<path class="st0" d="M1021.4,386.9c0,3.2-1.9,5.1-4.2,5.1c-2.3,0-4.2-1.9-4.2-5.1s1.9-5.1,4.2-5.1
			C1019.5,381.9,1021.4,383.8,1021.4,386.9z M1014.9,386.9c0,2.1,1,3.3,2.3,3.3c1.3,0,2.3-1.1,2.3-3.3c0-2.1-1-3.3-2.3-3.3
			C1015.9,383.7,1014.9,384.8,1014.9,386.9z"/>
		<path class="st0" d="M1026.7,391.8h-1.9v-7.3l-2.3,1v-1.9l4.2-1.7V391.8z"/>
		<path class="st0" d="M1032.2,388.4c-0.1,0-0.3,0-0.4,0c-2,0-3.4-1.4-3.4-3.3c0-1.9,1.6-3.3,3.7-3.3c2.1,0,3.7,1.4,3.7,3.3
			c0,0.9-0.3,1.7-0.9,2.6l-2.7,4.1h-2.3L1032.2,388.4z M1033.7,385.2c0-1-0.7-1.6-1.7-1.6c-1,0-1.7,0.7-1.7,1.6
			c0,0.9,0.7,1.6,1.7,1.6C1033,386.8,1033.7,386.1,1033.7,385.2z"/>
	</g>
</g>
<g>
	<g>
		<path class="st0" d="M890.1,383.5c0.5-0.7,1.5-1.7,3.3-1.7c2.1,0,3.3,1.3,3.3,3.2c0,1.2-0.6,2-1.4,2.9l-2.1,2.2h3.7v1.8h-6.5v-1.5
			l3.5-3.6c0.5-0.5,0.8-1.1,0.8-1.7c0-0.9-0.6-1.5-1.5-1.5c-0.9,0-1.5,0.5-2,1.1L890.1,383.5z"/>
		<path class="st0" d="M906.7,386.9c0,3.2-1.9,5.1-4.2,5.1c-2.3,0-4.2-1.9-4.2-5.1s1.9-5.1,4.2-5.1
			C904.8,381.9,906.7,383.8,906.7,386.9z M900.2,386.9c0,2.1,1,3.3,2.3,3.3c1.3,0,2.3-1.1,2.3-3.3c0-2.1-1-3.3-2.3-3.3
			C901.2,383.7,900.2,384.8,900.2,386.9z"/>
		<path class="st0" d="M912,391.8h-1.9v-7.3l-2.3,1v-1.9l4.2-1.7V391.8z"/>
		<path class="st0" d="M920.5,383.5l-4.1,8.3h-2.2l4-8h-4.7V382h6.9V383.5z"/>
	</g>
</g>
<g>
	<g>
		<path class="st0" d="M947,383.5c0.5-0.7,1.5-1.7,3.3-1.7c2.1,0,3.3,1.3,3.3,3.2c0,1.2-0.6,2-1.4,2.9l-2.1,2.2h3.7v1.8h-6.5v-1.5
			l3.5-3.6c0.5-0.5,0.8-1.1,0.8-1.7c0-0.9-0.6-1.5-1.5-1.5c-0.9,0-1.5,0.5-2,1.1L947,383.5z"/>
		<path class="st0" d="M963.6,386.9c0,3.2-1.9,5.1-4.2,5.1c-2.3,0-4.2-1.9-4.2-5.1s1.9-5.1,4.2-5.1
			C961.7,381.9,963.6,383.8,963.6,386.9z M957.1,386.9c0,2.1,1,3.3,2.3,3.3c1.3,0,2.3-1.1,2.3-3.3c0-2.1-1-3.3-2.3-3.3
			C958.1,383.7,957.1,384.8,957.1,386.9z"/>
		<path class="st0" d="M968.9,391.8H967v-7.3l-2.3,1v-1.9l4.2-1.7V391.8z"/>
		<path class="st0" d="M978.1,384.7c0,1.1-0.7,1.8-1.5,2.2c1,0.4,1.7,1.1,1.7,2.3c0,1.8-1.7,2.8-3.8,2.8s-3.8-1.1-3.8-2.8
			c0-1.2,0.8-1.9,1.7-2.3c-0.8-0.4-1.5-1.1-1.5-2.2c0-1.8,1.6-2.8,3.6-2.8S978.1,382.9,978.1,384.7z M972.7,389
			c0,0.9,0.8,1.3,1.8,1.3c1,0,1.8-0.5,1.8-1.3c0-0.9-0.8-1.3-1.8-1.3C973.5,387.7,972.7,388.1,972.7,389z M972.9,384.8
			c0,0.8,0.7,1.3,1.6,1.3c0.9,0,1.6-0.4,1.6-1.3c0-0.8-0.7-1.3-1.6-1.3C973.6,383.6,972.9,384,972.9,384.8z"/>
	</g>
</g>
<g>
	<g>
		<g>
			<path class="st0" d="M31.9,434.4h-2V427l-2.4,6.5h-2.1l-2.4-6.4v7.3h-2v-9.8H24l2.5,6.6l2.5-6.6h2.9V434.4z"/>
			<path class="st0" d="M41.5,434.4h-7.3v-9.8h7.3v1.8h-5.3v2.2h5.1v1.8h-5.1v2.3h5.4V434.4z"/>
		</g>
	</g>
	<rect x="2.1" y="424.2" class="st0" width="10" height="10"/>
</g>
<g>
	<g>
		<g>
			<path class="st0" d="M114.7,434.4h-2V427l-2.4,6.5h-2.1l-2.4-6.4v7.3h-2v-9.8h2.9l2.5,6.6l2.5-6.6h2.9V434.4z"/>
			<path class="st0" d="M120.9,424.6c3.1,0,5.1,1.9,5.1,4.9c0,3-2,4.9-5.1,4.9h-4v-9.8H120.9z M118.8,426.4v6.1h2.1
				c2.1,0,3.1-1.3,3.1-3.1c0-1.8-1-3.1-3.1-3.1H118.8z"/>
		</g>
	</g>
	<rect x="84.3" y="424.2" class="st1" width="10" height="10"/>
</g>
<g>
	<g>
		<path class="st0" d="M11.5,358.1c0,3.2-1.9,5.1-4.2,5.1c-2.3,0-4.2-1.9-4.2-5.1s1.9-5.1,4.2-5.1C9.6,353,11.5,354.9,11.5,358.1z
			 M5,358.1c0,2.1,1,3.3,2.3,3.3c1.3,0,2.3-1.1,2.3-3.3c0-2.1-1-3.3-2.3-3.3C6,354.8,5,355.9,5,358.1z"/>
		<path class="st0" d="M15.3,360.8l-1,4.2h-1.5l0.5-4.2H15.3z"/>
		<path class="st0" d="M23.1,355.8c0,1-0.6,1.8-1.5,2.2c1,0.4,1.7,1.2,1.7,2.2c0,1.9-1.8,2.9-3.6,2.9c-1.5,0-2.7-0.5-3.4-1.4
			l1.1-1.2c0.6,0.6,1.4,0.9,2.2,0.9c1,0,1.7-0.4,1.7-1.3c0-0.8-0.9-1.3-1.9-1.3h-1.1v-1.7h1.1c1,0,1.7-0.4,1.7-1.2
			c0-0.8-0.7-1.2-1.6-1.2c-0.9,0-1.6,0.5-2,1l-1.2-1.2c0.6-0.9,1.7-1.5,3.3-1.5C21.7,353,23.1,354.1,23.1,355.8z"/>
	</g>
	<g>
		<path class="st0" d="M11.3,310.2c0,3.2-1.9,5.1-4.2,5.1c-2.3,0-4.2-1.9-4.2-5.1s1.9-5.1,4.2-5.1C9.4,305.1,11.3,307,11.3,310.2z
			 M4.8,310.2c0,2.1,1,3.3,2.3,3.3c1.3,0,2.3-1.1,2.3-3.3c0-2.1-1-3.3-2.3-3.3C5.8,307,4.8,308.1,4.8,310.2z"/>
		<path class="st0" d="M15.1,312.9l-1,4.2h-1.5l0.5-4.2H15.1z"/>
		<path class="st0" d="M22.3,311.6h1.4v1.8h-1.4v1.8h-1.9v-1.8H16V312l3.4-6.6h2.1l-3.3,6.2h2.1V309h1.9V311.6z"/>
	</g>
	<g>
		<path class="st0" d="M11.3,260.4c0,3.2-1.9,5.1-4.2,5.1c-2.3,0-4.2-1.9-4.2-5.1s1.9-5.1,4.2-5.1C9.4,255.3,11.3,257.2,11.3,260.4z
			 M4.8,260.4c0,2.1,1,3.3,2.3,3.3c1.3,0,2.3-1.1,2.3-3.3c0-2.1-1-3.3-2.3-3.3C5.8,257.1,4.8,258.2,4.8,260.4z"/>
		<path class="st0" d="M15.1,263.1l-1,4.2h-1.5l0.5-4.2H15.1z"/>
		<path class="st0" d="M22.7,257.2h-4l0,2h1.1c2.3,0,3.4,1.3,3.4,2.9c0,2.1-1.6,3.3-3.6,3.3c-1.5,0-2.7-0.5-3.5-1.5l1.1-1.3
			c0.5,0.6,1.5,1,2.4,1c1.1,0,1.6-0.6,1.6-1.4c0-0.7-0.5-1.4-2-1.4H17l0.1-5.4h5.6V257.2z"/>
	</g>
	<g>
		<path class="st0" d="M11.2,210.5c0,3.2-1.9,5.1-4.2,5.1c-2.3,0-4.2-1.9-4.2-5.1s1.9-5.1,4.2-5.1C9.3,205.4,11.2,207.3,11.2,210.5z
			 M4.7,210.5c0,2.1,1,3.3,2.3,3.3c1.3,0,2.3-1.1,2.3-3.3c0-2.1-1-3.3-2.3-3.3C5.7,207.2,4.7,208.4,4.7,210.5z"/>
		<path class="st0" d="M15,213.2l-1,4.2h-1.5l0.5-4.2H15z"/>
		<path class="st0" d="M19.6,209c0.1,0,0.3,0,0.5,0c2,0,3.4,1.4,3.4,3.3c0,1.9-1.6,3.3-3.7,3.3c-2.1,0-3.7-1.4-3.7-3.3
			c0-0.9,0.3-1.7,0.9-2.6l2.7-4.1H22L19.6,209z M18.1,212.3c0,1,0.7,1.6,1.7,1.6c1,0,1.7-0.7,1.7-1.6c0-0.9-0.7-1.6-1.7-1.6
			C18.8,210.6,18.1,211.3,18.1,212.3z"/>
	</g>
	<g>
		<path class="st0" d="M11.8,160.6c0,3.2-1.9,5.1-4.2,5.1c-2.3,0-4.2-1.9-4.2-5.1c0-3.2,1.9-5.1,4.2-5.1
			C9.9,155.6,11.8,157.5,11.8,160.6z M5.3,160.6c0,2.1,1,3.3,2.3,3.3c1.3,0,2.3-1.1,2.3-3.3c0-2.1-1-3.3-2.3-3.3
			C6.3,157.4,5.3,158.5,5.3,160.6z"/>
		<path class="st0" d="M15.6,163.3l-1,4.2h-1.5l0.5-4.2H15.6z"/>
		<path class="st0" d="M23.6,157.2l-4.1,8.3h-2.2l4-8h-4.7v-1.8h6.9V157.2z"/>
	</g>
	<g>
		<path class="st0" d="M10.6,110.8c0,3.2-1.9,5.1-4.2,5.1c-2.3,0-4.2-1.9-4.2-5.1s1.9-5.1,4.2-5.1C8.7,105.7,10.6,107.6,10.6,110.8z
			 M4.1,110.8c0,2.1,1,3.3,2.3,3.3c1.3,0,2.3-1.1,2.3-3.3s-1-3.3-2.3-3.3C5.1,107.5,4.1,108.6,4.1,110.8z"/>
		<path class="st0" d="M14.4,113.5l-1,4.2h-1.5l0.5-4.2H14.4z"/>
		<path class="st0" d="M23.1,108.5c0,1.1-0.7,1.8-1.5,2.2c1,0.4,1.7,1.1,1.7,2.3c0,1.8-1.7,2.8-3.8,2.8c-2.1,0-3.8-1.1-3.8-2.8
			c0-1.2,0.8-1.9,1.7-2.3c-0.8-0.4-1.5-1.1-1.5-2.2c0-1.8,1.6-2.8,3.6-2.8C21.5,105.7,23.1,106.8,23.1,108.5z M17.7,112.9
			c0,0.9,0.8,1.3,1.8,1.3c1,0,1.8-0.5,1.8-1.3c0-0.9-0.8-1.3-1.8-1.3C18.5,111.5,17.7,112,17.7,112.9z M17.9,108.7
			c0,0.8,0.7,1.3,1.6,1.3s1.6-0.4,1.6-1.3c0-0.8-0.7-1.3-1.6-1.3S17.9,107.9,17.9,108.7z"/>
	</g>
	<g>
		<path class="st0" d="M11.2,60.9c0,3.2-1.9,5.1-4.2,5.1c-2.3,0-4.2-1.9-4.2-5.1c0-3.2,1.9-5.1,4.2-5.1
			C9.3,55.9,11.2,57.8,11.2,60.9z M4.7,60.9c0,2.1,1,3.3,2.3,3.3c1.3,0,2.3-1.1,2.3-3.3c0-2.1-1-3.3-2.3-3.3
			C5.7,57.7,4.7,58.8,4.7,60.9z"/>
		<path class="st0" d="M15,63.6l-1,4.2h-1.5l0.5-4.2H15z"/>
		<path class="st0" d="M20,62.4c-0.1,0-0.3,0-0.4,0c-2,0-3.4-1.4-3.4-3.3c0-1.9,1.6-3.3,3.7-3.3c2.1,0,3.7,1.4,3.7,3.3
			c0,0.9-0.3,1.7-0.9,2.6l-2.7,4.1h-2.3L20,62.4z M21.5,59.2c0-1-0.7-1.6-1.7-1.6c-1,0-1.7,0.7-1.7,1.6c0,0.9,0.7,1.6,1.7,1.6
			C20.8,60.8,21.5,60.1,21.5,59.2z"/>
	</g>
	<g>
		<path class="st0" d="M9.2,16H7.3V8.7l-2.3,1V7.7L9.2,6V16z"/>
		<path class="st0" d="M13.4,13.8l-1,4.2h-1.5l0.5-4.2H13.4z"/>
		<path class="st0" d="M23.2,11.1c0,3.2-1.9,5.1-4.2,5.1c-2.3,0-4.2-1.9-4.2-5.1C14.8,7.9,16.6,6,19,6C21.3,6,23.2,7.9,23.2,11.1z
			 M16.7,11.1c0,2.1,1,3.3,2.3,3.3c1.3,0,2.3-1.1,2.3-3.3c0-2.1-1-3.3-2.3-3.3C17.7,7.8,16.7,8.9,16.7,11.1z"/>
	</g>
</g>
<g>
	<g>
		<line class="st3" x1="44.9" y1="359.7" x2="1070.6" y2="359.7"/>
		<line class="st3" x1="44.9" y1="309.9" x2="1070.6" y2="309.9"/>
		<line class="st3" x1="44.9" y1="260" x2="1070.6" y2="260"/>
		<line class="st3" x1="44.9" y1="210.1" x2="1070.6" y2="210.1"/>
		<line class="st3" x1="44.9" y1="160.3" x2="1070.6" y2="160.3"/>
		<line class="st3" x1="44.9" y1="110.4" x2="1070.6" y2="110.4"/>
		<line class="st3" x1="44.9" y1="60.6" x2="1070.6" y2="60.6"/>
		<line class="st3" x1="44.9" y1="10.7" x2="1070.6" y2="10.7"/>
	</g>
</g>
<g>
	<line class="st4" x1="52.3" y1="115.4" x2="47.4" y2="120.4"/>
	<line class="st4" x1="57.2" y1="110.4" x2="52.3" y2="115.4"/>
	<line class="st4" x1="62.2" y1="115.4" x2="57.2" y2="110.4"/>
	<line class="st4" x1="67.1" y1="115.4" x2="62.2" y2="115.4"/>
	<line class="st4" x1="72.1" y1="115.4" x2="67.1" y2="115.4"/>
	<line class="st4" x1="77" y1="105.4" x2="72.1" y2="115.4"/>
	<line class="st4" x1="81.9" y1="100.5" x2="77" y2="105.4"/>
	<line class="st4" x1="86.9" y1="100.5" x2="81.9" y2="100.5"/>
	<line class="st4" x1="91.8" y1="100.5" x2="86.9" y2="100.5"/>
	<line class="st4" x1="96.7" y1="85.5" x2="91.8" y2="100.5"/>
	<line class="st4" x1="101.7" y1="85.5" x2="96.7" y2="85.5"/>
	<line class="st4" x1="106.6" y1="80.5" x2="101.7" y2="85.5"/>
	<line class="st4" x1="111.6" y1="80.5" x2="106.6" y2="80.5"/>
	<line class="st4" x1="116.5" y1="75.5" x2="111.6" y2="80.5"/>
	<line class="st4" x1="121.4" y1="75.5" x2="116.5" y2="75.5"/>
	<line class="st4" x1="126.4" y1="85.5" x2="121.4" y2="75.5"/>
	<line class="st4" x1="131.3" y1="85.5" x2="126.4" y2="85.5"/>
	<line class="st4" x1="136.3" y1="80.5" x2="131.3" y2="85.5"/>
	<line class="st4" x1="141.2" y1="80.5" x2="136.3" y2="80.5"/>
	<line class="st4" x1="146.1" y1="85.5" x2="141.2" y2="80.5"/>
	<line class="st4" x1="151.1" y1="95.5" x2="146.1" y2="85.5"/>
	<line class="st4" x1="156" y1="95.5" x2="151.1" y2="95.5"/>
	<line class="st4" x1="160.9" y1="100.5" x2="156" y2="95.5"/>
	<line class="st4" x1="165.9" y1="95.5" x2="160.9" y2="100.5"/>
	<line class="st4" x1="170.8" y1="95.5" x2="165.9" y2="95.5"/>
	<line class="st4" x1="175.8" y1="95.5" x2="170.8" y2="95.5"/>
	<line class="st4" x1="180.7" y1="100.5" x2="175.8" y2="95.5"/>
	<line class="st4" x1="185.6" y1="100.5" x2="180.7" y2="100.5"/>
	<line class="st4" x1="190.6" y1="100.5" x2="185.6" y2="100.5"/>
	<line class="st4" x1="195.5" y1="110.4" x2="190.6" y2="100.5"/>
	<line class="st4" x1="200.5" y1="130.4" x2="195.5" y2="110.4"/>
	<line class="st4" x1="205.4" y1="135.4" x2="200.5" y2="130.4"/>
	<line class="st4" x1="210.3" y1="175.2" x2="205.4" y2="135.4"/>
	<line class="st4" x1="215.3" y1="150.3" x2="210.3" y2="175.2"/>
	<line class="st4" x1="220.2" y1="155.3" x2="215.3" y2="150.3"/>
	<line class="st4" x1="225.1" y1="125.4" x2="220.2" y2="155.3"/>
	<line class="st4" x1="230.1" y1="120.4" x2="225.1" y2="125.4"/>
	<line class="st4" x1="235" y1="120.4" x2="230.1" y2="120.4"/>
	<line class="st4" x1="240" y1="125.4" x2="235" y2="120.4"/>
	<line class="st4" x1="244.9" y1="100.5" x2="240" y2="125.4"/>
	<line class="st4" x1="249.8" y1="90.5" x2="244.9" y2="100.5"/>
	<line class="st4" x1="254.8" y1="90.5" x2="249.8" y2="90.5"/>
	<line class="st4" x1="259.7" y1="95.5" x2="254.8" y2="90.5"/>
	<line class="st4" x1="264.7" y1="95.5" x2="259.7" y2="95.5"/>
	<line class="st4" x1="269.6" y1="115.4" x2="264.7" y2="95.5"/>
	<line class="st4" x1="274.5" y1="115.4" x2="269.6" y2="115.4"/>
	<line class="st4" x1="279.5" y1="115.4" x2="274.5" y2="115.4"/>
	<line class="st4" x1="284.4" y1="120.4" x2="279.5" y2="115.4"/>
	<line class="st4" x1="289.3" y1="120.4" x2="284.4" y2="120.4"/>
	<line class="st4" x1="294.3" y1="125.4" x2="289.3" y2="120.4"/>
	<line class="st4" x1="299.2" y1="130.4" x2="294.3" y2="125.4"/>
	<line class="st4" x1="304.2" y1="130.4" x2="299.2" y2="130.4"/>
	<line class="st4" x1="309.1" y1="120.4" x2="304.2" y2="130.4"/>
	<line class="st4" x1="314" y1="120.4" x2="309.1" y2="120.4"/>
	<line class="st4" x1="319" y1="125.4" x2="314" y2="120.4"/>
	<line class="st4" x1="323.9" y1="125.4" x2="319" y2="125.4"/>
	<line class="st4" x1="328.9" y1="120.4" x2="323.9" y2="125.4"/>
	<line class="st4" x1="333.8" y1="120.4" x2="328.9" y2="120.4"/>
	<line class="st4" x1="338.7" y1="95.5" x2="333.8" y2="120.4"/>
	<line class="st4" x1="343.7" y1="100.5" x2="338.7" y2="95.5"/>
	<line class="st4" x1="348.6" y1="100.5" x2="343.7" y2="100.5"/>
	<line class="st4" x1="353.5" y1="115.4" x2="348.6" y2="100.5"/>
	<line class="st4" x1="358.5" y1="115.4" x2="353.5" y2="115.4"/>
	<line class="st4" x1="363.4" y1="115.4" x2="358.5" y2="115.4"/>
	<line class="st4" x1="368.4" y1="120.4" x2="363.4" y2="115.4"/>
	<line class="st4" x1="373.3" y1="135.4" x2="368.4" y2="120.4"/>
	<line class="st4" x1="378.2" y1="145.3" x2="373.3" y2="135.4"/>
	<line class="st4" x1="383.2" y1="145.3" x2="378.2" y2="145.3"/>
	<line class="st4" x1="388.1" y1="105.4" x2="383.2" y2="145.3"/>
	<line class="st4" x1="393.1" y1="75.5" x2="388.1" y2="105.4"/>
	<line class="st4" x1="398" y1="75.5" x2="393.1" y2="75.5"/>
	<line class="st4" x1="402.9" y1="80.5" x2="398" y2="75.5"/>
	<line class="st4" x1="407.9" y1="80.5" x2="402.9" y2="80.5"/>
	<line class="st4" x1="412.8" y1="80.5" x2="407.9" y2="80.5"/>
	<line class="st4" x1="417.7" y1="75.5" x2="412.8" y2="80.5"/>
	<line class="st4" x1="422.7" y1="70.5" x2="417.7" y2="75.5"/>
	<line class="st4" x1="427.6" y1="70.5" x2="422.7" y2="70.5"/>
	<line class="st4" x1="432.6" y1="70.5" x2="427.6" y2="70.5"/>
	<line class="st4" x1="437.5" y1="75.5" x2="432.6" y2="70.5"/>
	<line class="st4" x1="442.4" y1="75.5" x2="437.5" y2="75.5"/>
	<line class="st4" x1="447.4" y1="70.5" x2="442.4" y2="75.5"/>
	<line class="st4" x1="452.3" y1="70.5" x2="447.4" y2="70.5"/>
	<line class="st4" x1="457.3" y1="70.5" x2="452.3" y2="70.5"/>
	<line class="st4" x1="462.2" y1="70.5" x2="457.3" y2="70.5"/>
	<line class="st4" x1="467.1" y1="70.5" x2="462.2" y2="70.5"/>
	<line class="st4" x1="472.1" y1="70.5" x2="467.1" y2="70.5"/>
	<line class="st4" x1="477" y1="70.5" x2="472.1" y2="70.5"/>
	<line class="st4" x1="481.9" y1="70.5" x2="477" y2="70.5"/>
	<line class="st4" x1="486.9" y1="70.5" x2="481.9" y2="70.5"/>
	<line class="st4" x1="491.8" y1="70.5" x2="486.9" y2="70.5"/>
	<line class="st4" x1="496.8" y1="70.5" x2="491.8" y2="70.5"/>
	<line class="st4" x1="501.7" y1="75.5" x2="496.8" y2="70.5"/>
	<line class="st4" x1="506.6" y1="75.5" x2="501.7" y2="75.5"/>
	<line class="st4" x1="511.6" y1="75.5" x2="506.6" y2="75.5"/>
	<line class="st4" x1="516.5" y1="75.5" x2="511.6" y2="75.5"/>
	<line class="st4" x1="521.5" y1="75.5" x2="516.5" y2="75.5"/>
	<line class="st4" x1="526.4" y1="75.5" x2="521.5" y2="75.5"/>
	<line class="st4" x1="531.3" y1="70.5" x2="526.4" y2="75.5"/>
	<line class="st4" x1="536.3" y1="70.5" x2="531.3" y2="70.5"/>
	<line class="st4" x1="541.2" y1="75.5" x2="536.3" y2="70.5"/>
	<line class="st4" x1="546.1" y1="70.5" x2="541.2" y2="75.5"/>
	<line class="st4" x1="551.1" y1="65.6" x2="546.1" y2="70.5"/>
	<line class="st4" x1="556" y1="60.6" x2="551.1" y2="65.6"/>
	<line class="st4" x1="561" y1="65.6" x2="556" y2="60.6"/>
	<line class="st4" x1="565.9" y1="70.5" x2="561" y2="65.6"/>
	<line class="st4" x1="570.8" y1="90.5" x2="565.9" y2="70.5"/>
	<line class="st4" x1="575.8" y1="95.5" x2="570.8" y2="90.5"/>
	<line class="st4" x1="580.7" y1="90.5" x2="575.8" y2="95.5"/>
	<line class="st4" x1="585.7" y1="90.5" x2="580.7" y2="90.5"/>
	<line class="st4" x1="590.6" y1="105.4" x2="585.7" y2="90.5"/>
	<line class="st4" x1="595.5" y1="110.4" x2="590.6" y2="105.4"/>
	<line class="st4" x1="600.5" y1="120.4" x2="595.5" y2="110.4"/>
	<line class="st4" x1="605.4" y1="100.5" x2="600.5" y2="120.4"/>
	<line class="st4" x1="610.3" y1="105.4" x2="605.4" y2="100.5"/>
	<line class="st4" x1="615.3" y1="105.4" x2="610.3" y2="105.4"/>
	<line class="st4" x1="620.2" y1="105.4" x2="615.3" y2="105.4"/>
	<line class="st4" x1="625.2" y1="105.4" x2="620.2" y2="105.4"/>
	<line class="st4" x1="630.1" y1="105.4" x2="625.2" y2="105.4"/>
	<line class="st4" x1="635" y1="105.4" x2="630.1" y2="105.4"/>
	<line class="st4" x1="640" y1="110.4" x2="635" y2="105.4"/>
	<line class="st4" x1="644.9" y1="110.4" x2="640" y2="110.4"/>
	<line class="st4" x1="649.9" y1="105.4" x2="644.9" y2="110.4"/>
	<line class="st4" x1="654.8" y1="110.4" x2="649.9" y2="105.4"/>
	<line class="st4" x1="659.7" y1="120.4" x2="654.8" y2="110.4"/>
	<line class="st4" x1="664.7" y1="125.4" x2="659.7" y2="120.4"/>
	<line class="st4" x1="669.6" y1="130.4" x2="664.7" y2="125.4"/>
	<line class="st4" x1="674.5" y1="130.4" x2="669.6" y2="130.4"/>
	<line class="st4" x1="679.5" y1="120.4" x2="674.5" y2="130.4"/>
	<line class="st4" x1="684.4" y1="130.4" x2="679.5" y2="120.4"/>
	<line class="st4" x1="689.4" y1="125.4" x2="684.4" y2="130.4"/>
	<line class="st4" x1="694.3" y1="120.4" x2="689.4" y2="125.4"/>
	<line class="st4" x1="699.2" y1="125.4" x2="694.3" y2="120.4"/>
	<line class="st4" x1="704.2" y1="135.4" x2="699.2" y2="125.4"/>
	<line class="st4" x1="709.1" y1="135.4" x2="704.2" y2="135.4"/>
	<line class="st4" x1="714.1" y1="135.4" x2="709.1" y2="135.4"/>
	<line class="st4" x1="719" y1="130.4" x2="714.1" y2="135.4"/>
	<line class="st4" x1="723.9" y1="135.4" x2="719" y2="130.4"/>
	<line class="st4" x1="728.9" y1="140.3" x2="723.9" y2="135.4"/>
	<line class="st4" x1="733.8" y1="150.3" x2="728.9" y2="140.3"/>
	<line class="st4" x1="738.7" y1="140.3" x2="733.8" y2="150.3"/>
	<line class="st4" x1="743.7" y1="170.3" x2="738.7" y2="140.3"/>
	<line class="st4" x1="748.6" y1="200.2" x2="743.7" y2="170.3"/>
	<line class="st4" x1="753.6" y1="200.2" x2="748.6" y2="200.2"/>
	<line class="st4" x1="758.5" y1="200.2" x2="753.6" y2="200.2"/>
	<line class="st4" x1="763.4" y1="210.1" x2="758.5" y2="200.2"/>
	<line class="st4" x1="768.4" y1="195.2" x2="763.4" y2="210.1"/>
	<line class="st4" x1="773.3" y1="185.2" x2="768.4" y2="195.2"/>
	<line class="st4" x1="778.3" y1="190.2" x2="773.3" y2="185.2"/>
	<line class="st4" x1="783.2" y1="260" x2="778.3" y2="190.2"/>
	<line class="st4" x1="788.1" y1="230.1" x2="783.2" y2="260"/>
	<line class="st4" x1="793.1" y1="235.1" x2="788.1" y2="230.1"/>
	<line class="st4" x1="798" y1="200.2" x2="793.1" y2="235.1"/>
	<line class="st4" x1="802.9" y1="185.2" x2="798" y2="200.2"/>
	<line class="st4" x1="807.9" y1="190.2" x2="802.9" y2="185.2"/>
	<line class="st4" x1="812.8" y1="185.2" x2="807.9" y2="190.2"/>
	<line class="st4" x1="817.8" y1="180.2" x2="812.8" y2="185.2"/>
	<line class="st4" x1="822.7" y1="185.2" x2="817.8" y2="180.2"/>
	<line class="st4" x1="827.6" y1="190.2" x2="822.7" y2="185.2"/>
	<line class="st4" x1="832.6" y1="170.3" x2="827.6" y2="190.2"/>
	<line class="st4" x1="837.5" y1="160.3" x2="832.6" y2="170.3"/>
	<line class="st4" x1="842.5" y1="160.3" x2="837.5" y2="160.3"/>
	<line class="st4" x1="847.4" y1="170.3" x2="842.5" y2="160.3"/>
	<line class="st4" x1="852.3" y1="165.3" x2="847.4" y2="170.3"/>
	<line class="st4" x1="857.3" y1="160.3" x2="852.3" y2="165.3"/>
	<line class="st4" x1="862.2" y1="160.3" x2="857.3" y2="160.3"/>
	<line class="st4" x1="867.1" y1="165.3" x2="862.2" y2="160.3"/>
	<line class="st4" x1="872.1" y1="160.3" x2="867.1" y2="165.3"/>
	<line class="st4" x1="877" y1="160.3" x2="872.1" y2="160.3"/>
	<line class="st4" x1="882" y1="150.3" x2="877" y2="160.3"/>
	<line class="st4" x1="886.9" y1="165.3" x2="882" y2="150.3"/>
	<line class="st4" x1="891.8" y1="160.3" x2="886.9" y2="165.3"/>
	<line class="st4" x1="896.8" y1="160.3" x2="891.8" y2="160.3"/>
	<line class="st4" x1="901.7" y1="160.3" x2="896.8" y2="160.3"/>
	<line class="st4" x1="906.7" y1="150.3" x2="901.7" y2="160.3"/>
	<line class="st4" x1="911.6" y1="145.3" x2="906.7" y2="150.3"/>
	<line class="st4" x1="916.5" y1="150.3" x2="911.6" y2="145.3"/>
	<line class="st4" x1="921.5" y1="145.3" x2="916.5" y2="150.3"/>
	<line class="st4" x1="926.4" y1="135.4" x2="921.5" y2="145.3"/>
	<line class="st4" x1="931.3" y1="135.4" x2="926.4" y2="135.4"/>
	<line class="st4" x1="936.3" y1="135.4" x2="931.3" y2="135.4"/>
	<line class="st4" x1="941.2" y1="155.3" x2="936.3" y2="135.4"/>
	<line class="st4" x1="946.2" y1="160.3" x2="941.2" y2="155.3"/>
	<line class="st4" x1="951.1" y1="160.3" x2="946.2" y2="160.3"/>
	<line class="st4" x1="956" y1="155.3" x2="951.1" y2="160.3"/>
	<line class="st4" x1="961" y1="155.3" x2="956" y2="155.3"/>
	<line class="st4" x1="965.9" y1="165.3" x2="961" y2="155.3"/>
	<line class="st4" x1="970.9" y1="160.3" x2="965.9" y2="165.3"/>
	<line class="st4" x1="975.8" y1="195.2" x2="970.9" y2="160.3"/>
	<line class="st4" x1="980.7" y1="215.1" x2="975.8" y2="195.2"/>
	<line class="st4" x1="985.7" y1="150.3" x2="980.7" y2="215.1"/>
	<line class="st4" x1="990.6" y1="150.3" x2="985.7" y2="150.3"/>
	<line class="st4" x1="995.5" y1="125.4" x2="990.6" y2="150.3"/>
	<line class="st4" x1="1000.5" y1="100.5" x2="995.5" y2="125.4"/>
	<line class="st4" x1="1005.4" y1="95.5" x2="1000.5" y2="100.5"/>
	<line class="st4" x1="1010.4" y1="105.4" x2="1005.4" y2="95.5"/>
	<line class="st4" x1="1015.3" y1="90.5" x2="1010.4" y2="105.4"/>
	<line class="st4" x1="1020.2" y1="90.5" x2="1015.3" y2="90.5"/>
	<line class="st4" x1="1025.2" y1="90.5" x2="1020.2" y2="90.5"/>
	<line class="st4" x1="1030.1" y1="90.5" x2="1025.2" y2="90.5"/>
	<line class="st4" x1="1035.1" y1="95.5" x2="1030.1" y2="90.5"/>
	<line class="st4" x1="1040" y1="95.5" x2="1035.1" y2="95.5"/>
	<line class="st4" x1="1044.9" y1="95.5" x2="1040" y2="95.5"/>
	<line class="st4" x1="1049.9" y1="95.5" x2="1044.9" y2="95.5"/>
	<line class="st4" x1="1054.8" y1="100.5" x2="1049.9" y2="95.5"/>
	<line class="st4" x1="1059.7" y1="105.4" x2="1054.8" y2="100.5"/>
	<line class="st4" x1="1064.7" y1="85.5" x2="1059.7" y2="105.4"/>
</g>
<g>
	<line class="st5" x1="52.3" y1="145.3" x2="47.4" y2="145.3"/>
	<line class="st5" x1="57.2" y1="140.3" x2="52.3" y2="145.3"/>
	<line class="st5" x1="62.2" y1="135.4" x2="57.2" y2="140.3"/>
	<line class="st5" x1="67.1" y1="125.4" x2="62.2" y2="135.4"/>
	<line class="st5" x1="72.1" y1="125.4" x2="67.1" y2="125.4"/>
	<line class="st5" x1="77" y1="110.4" x2="72.1" y2="125.4"/>
	<line class="st5" x1="81.9" y1="100.5" x2="77" y2="110.4"/>
	<line class="st5" x1="86.9" y1="80.5" x2="81.9" y2="100.5"/>
	<line class="st5" x1="91.8" y1="85.5" x2="86.9" y2="80.5"/>
	<line class="st5" x1="96.7" y1="80.5" x2="91.8" y2="85.5"/>
	<line class="st5" x1="101.7" y1="85.5" x2="96.7" y2="80.5"/>
	<line class="st5" x1="106.6" y1="85.5" x2="101.7" y2="85.5"/>
	<line class="st5" x1="111.6" y1="80.5" x2="106.6" y2="85.5"/>
	<line class="st5" x1="116.5" y1="70.5" x2="111.6" y2="80.5"/>
	<line class="st5" x1="121.4" y1="75.5" x2="116.5" y2="70.5"/>
	<line class="st5" x1="126.4" y1="70.5" x2="121.4" y2="75.5"/>
	<line class="st5" x1="131.3" y1="80.5" x2="126.4" y2="70.5"/>
	<line class="st5" x1="136.3" y1="75.5" x2="131.3" y2="80.5"/>
	<line class="st5" x1="141.2" y1="75.5" x2="136.3" y2="75.5"/>
	<line class="st5" x1="146.1" y1="75.5" x2="141.2" y2="75.5"/>
	<line class="st5" x1="151.1" y1="85.5" x2="146.1" y2="75.5"/>
	<line class="st5" x1="156" y1="85.5" x2="151.1" y2="85.5"/>
	<line class="st5" x1="160.9" y1="90.5" x2="156" y2="85.5"/>
	<line class="st5" x1="165.9" y1="90.5" x2="160.9" y2="90.5"/>
	<line class="st5" x1="170.8" y1="85.5" x2="165.9" y2="90.5"/>
	<line class="st5" x1="175.8" y1="80.5" x2="170.8" y2="85.5"/>
	<line class="st5" x1="180.7" y1="85.5" x2="175.8" y2="80.5"/>
	<line class="st5" x1="185.6" y1="85.5" x2="180.7" y2="85.5"/>
	<line class="st5" x1="190.6" y1="80.5" x2="185.6" y2="85.5"/>
	<line class="st5" x1="195.5" y1="85.5" x2="190.6" y2="80.5"/>
	<line class="st5" x1="200.5" y1="85.5" x2="195.5" y2="85.5"/>
	<line class="st5" x1="205.4" y1="90.5" x2="200.5" y2="85.5"/>
	<line class="st5" x1="210.3" y1="105.4" x2="205.4" y2="90.5"/>
	<line class="st5" x1="215.3" y1="95.5" x2="210.3" y2="105.4"/>
	<line class="st5" x1="220.2" y1="90.5" x2="215.3" y2="95.5"/>
	<line class="st5" x1="225.1" y1="80.5" x2="220.2" y2="90.5"/>
	<line class="st5" x1="230.1" y1="80.5" x2="225.1" y2="80.5"/>
	<line class="st5" x1="235" y1="80.5" x2="230.1" y2="80.5"/>
	<line class="st5" x1="240" y1="90.5" x2="235" y2="80.5"/>
	<line class="st5" x1="244.9" y1="95.5" x2="240" y2="90.5"/>
	<line class="st5" x1="249.8" y1="90.5" x2="244.9" y2="95.5"/>
	<line class="st5" x1="254.8" y1="90.5" x2="249.8" y2="90.5"/>
	<line class="st5" x1="259.7" y1="90.5" x2="254.8" y2="90.5"/>
	<line class="st5" x1="264.7" y1="90.5" x2="259.7" y2="90.5"/>
	<line class="st5" x1="269.6" y1="100.5" x2="264.7" y2="90.5"/>
	<line class="st5" x1="274.5" y1="105.4" x2="269.6" y2="100.5"/>
	<line class="st5" x1="279.5" y1="105.4" x2="274.5" y2="105.4"/>
	<line class="st5" x1="284.4" y1="110.4" x2="279.5" y2="105.4"/>
	<line class="st5" x1="289.3" y1="110.4" x2="284.4" y2="110.4"/>
	<line class="st5" x1="294.3" y1="110.4" x2="289.3" y2="110.4"/>
	<line class="st5" x1="299.2" y1="110.4" x2="294.3" y2="110.4"/>
	<line class="st5" x1="304.2" y1="125.4" x2="299.2" y2="110.4"/>
	<line class="st5" x1="309.1" y1="115.4" x2="304.2" y2="125.4"/>
	<line class="st5" x1="314" y1="125.4" x2="309.1" y2="115.4"/>
	<line class="st5" x1="319" y1="135.4" x2="314" y2="125.4"/>
	<line class="st5" x1="323.9" y1="120.4" x2="319" y2="135.4"/>
	<line class="st5" x1="328.9" y1="120.4" x2="323.9" y2="120.4"/>
	<line class="st5" x1="333.8" y1="115.4" x2="328.9" y2="120.4"/>
	<line class="st5" x1="338.7" y1="100.5" x2="333.8" y2="115.4"/>
	<line class="st5" x1="343.7" y1="100.5" x2="338.7" y2="100.5"/>
	<line class="st5" x1="348.6" y1="95.5" x2="343.7" y2="100.5"/>
	<line class="st5" x1="353.5" y1="95.5" x2="348.6" y2="95.5"/>
	<line class="st5" x1="358.5" y1="90.5" x2="353.5" y2="95.5"/>
	<line class="st5" x1="363.4" y1="90.5" x2="358.5" y2="90.5"/>
	<line class="st5" x1="368.4" y1="105.4" x2="363.4" y2="90.5"/>
	<line class="st5" x1="373.3" y1="115.4" x2="368.4" y2="105.4"/>
	<line class="st5" x1="378.2" y1="110.4" x2="373.3" y2="115.4"/>
	<line class="st5" x1="383.2" y1="120.4" x2="378.2" y2="110.4"/>
	<line class="st5" x1="388.1" y1="110.4" x2="383.2" y2="120.4"/>
	<line class="st5" x1="393.1" y1="80.5" x2="388.1" y2="110.4"/>
	<line class="st5" x1="398" y1="80.5" x2="393.1" y2="80.5"/>
	<line class="st5" x1="402.9" y1="90.5" x2="398" y2="80.5"/>
	<line class="st5" x1="407.9" y1="95.5" x2="402.9" y2="90.5"/>
	<line class="st5" x1="412.8" y1="95.5" x2="407.9" y2="95.5"/>
	<line class="st5" x1="417.7" y1="90.5" x2="412.8" y2="95.5"/>
	<line class="st5" x1="422.7" y1="80.5" x2="417.7" y2="90.5"/>
	<line class="st5" x1="427.6" y1="75.5" x2="422.7" y2="80.5"/>
	<line class="st5" x1="432.6" y1="75.5" x2="427.6" y2="75.5"/>
	<line class="st5" x1="437.5" y1="75.5" x2="432.6" y2="75.5"/>
	<line class="st5" x1="442.4" y1="75.5" x2="437.5" y2="75.5"/>
	<line class="st5" x1="447.4" y1="75.5" x2="442.4" y2="75.5"/>
	<line class="st5" x1="452.3" y1="75.5" x2="447.4" y2="75.5"/>
	<line class="st5" x1="457.3" y1="75.5" x2="452.3" y2="75.5"/>
	<line class="st5" x1="462.2" y1="75.5" x2="457.3" y2="75.5"/>
	<line class="st5" x1="467.1" y1="75.5" x2="462.2" y2="75.5"/>
	<line class="st5" x1="472.1" y1="80.5" x2="467.1" y2="75.5"/>
	<line class="st5" x1="477" y1="80.5" x2="472.1" y2="80.5"/>
	<line class="st5" x1="481.9" y1="80.5" x2="477" y2="80.5"/>
	<line class="st5" x1="486.9" y1="80.5" x2="481.9" y2="80.5"/>
	<line class="st5" x1="491.8" y1="75.5" x2="486.9" y2="80.5"/>
	<line class="st5" x1="496.8" y1="75.5" x2="491.8" y2="75.5"/>
	<line class="st5" x1="501.7" y1="75.5" x2="496.8" y2="75.5"/>
	<line class="st5" x1="506.6" y1="75.5" x2="501.7" y2="75.5"/>
	<line class="st5" x1="511.6" y1="75.5" x2="506.6" y2="75.5"/>
	<line class="st5" x1="516.5" y1="75.5" x2="511.6" y2="75.5"/>
	<line class="st5" x1="521.5" y1="75.5" x2="516.5" y2="75.5"/>
	<line class="st5" x1="526.4" y1="75.5" x2="521.5" y2="75.5"/>
	<line class="st5" x1="531.3" y1="80.5" x2="526.4" y2="75.5"/>
	<line class="st5" x1="536.3" y1="85.5" x2="531.3" y2="80.5"/>
	<line class="st5" x1="541.2" y1="85.5" x2="536.3" y2="85.5"/>
	<line class="st5" x1="546.1" y1="85.5" x2="541.2" y2="85.5"/>
	<line class="st5" x1="551.1" y1="75.5" x2="546.1" y2="85.5"/>
	<line class="st5" x1="556" y1="75.5" x2="551.1" y2="75.5"/>
	<line class="st5" x1="561" y1="75.5" x2="556" y2="75.5"/>
	<line class="st5" x1="565.9" y1="80.5" x2="561" y2="75.5"/>
	<line class="st5" x1="570.8" y1="110.4" x2="565.9" y2="80.5"/>
	<line class="st5" x1="575.8" y1="115.4" x2="570.8" y2="110.4"/>
	<line class="st5" x1="580.7" y1="100.5" x2="575.8" y2="115.4"/>
	<line class="st5" x1="585.7" y1="100.5" x2="580.7" y2="100.5"/>
	<line class="st5" x1="590.6" y1="100.5" x2="585.7" y2="100.5"/>
	<line class="st5" x1="595.5" y1="110.4" x2="590.6" y2="100.5"/>
	<line class="st5" x1="600.5" y1="115.4" x2="595.5" y2="110.4"/>
	<line class="st5" x1="605.4" y1="125.4" x2="600.5" y2="115.4"/>
	<line class="st5" x1="610.3" y1="125.4" x2="605.4" y2="125.4"/>
	<line class="st5" x1="615.3" y1="125.4" x2="610.3" y2="125.4"/>
	<line class="st5" x1="620.2" y1="130.4" x2="615.3" y2="125.4"/>
	<line class="st5" x1="625.2" y1="135.4" x2="620.2" y2="130.4"/>
	<line class="st5" x1="630.1" y1="130.4" x2="625.2" y2="135.4"/>
	<line class="st5" x1="635" y1="135.4" x2="630.1" y2="130.4"/>
	<line class="st5" x1="640" y1="135.4" x2="635" y2="135.4"/>
	<line class="st5" x1="644.9" y1="140.3" x2="640" y2="135.4"/>
	<line class="st5" x1="649.9" y1="130.4" x2="644.9" y2="140.3"/>
	<line class="st5" x1="654.8" y1="135.4" x2="649.9" y2="130.4"/>
	<line class="st5" x1="659.7" y1="135.4" x2="654.8" y2="135.4"/>
	<line class="st5" x1="664.7" y1="140.3" x2="659.7" y2="135.4"/>
	<line class="st5" x1="669.6" y1="130.4" x2="664.7" y2="140.3"/>
	<line class="st5" x1="674.5" y1="135.4" x2="669.6" y2="130.4"/>
	<line class="st5" x1="679.5" y1="130.4" x2="674.5" y2="135.4"/>
	<line class="st5" x1="684.4" y1="140.3" x2="679.5" y2="130.4"/>
	<line class="st5" x1="689.4" y1="135.4" x2="684.4" y2="140.3"/>
	<line class="st5" x1="694.3" y1="130.4" x2="689.4" y2="135.4"/>
	<line class="st5" x1="699.2" y1="140.3" x2="694.3" y2="130.4"/>
	<line class="st5" x1="704.2" y1="145.3" x2="699.2" y2="140.3"/>
	<line class="st5" x1="709.1" y1="125.4" x2="704.2" y2="145.3"/>
	<line class="st5" x1="714.1" y1="120.4" x2="709.1" y2="125.4"/>
	<line class="st5" x1="719" y1="120.4" x2="714.1" y2="120.4"/>
	<line class="st5" x1="723.9" y1="125.4" x2="719" y2="120.4"/>
	<line class="st5" x1="728.9" y1="125.4" x2="723.9" y2="125.4"/>
	<line class="st5" x1="733.8" y1="125.4" x2="728.9" y2="125.4"/>
	<line class="st5" x1="738.7" y1="115.4" x2="733.8" y2="125.4"/>
	<line class="st5" x1="743.7" y1="130.4" x2="738.7" y2="115.4"/>
	<line class="st5" x1="748.6" y1="155.3" x2="743.7" y2="130.4"/>
	<line class="st5" x1="753.6" y1="150.3" x2="748.6" y2="155.3"/>
	<line class="st5" x1="758.5" y1="150.3" x2="753.6" y2="150.3"/>
	<line class="st5" x1="763.4" y1="160.3" x2="758.5" y2="150.3"/>
	<line class="st5" x1="768.4" y1="155.3" x2="763.4" y2="160.3"/>
	<line class="st5" x1="773.3" y1="160.3" x2="768.4" y2="155.3"/>
	<line class="st5" x1="778.3" y1="160.3" x2="773.3" y2="160.3"/>
	<line class="st5" x1="783.2" y1="200.2" x2="778.3" y2="160.3"/>
	<line class="st5" x1="788.1" y1="190.2" x2="783.2" y2="200.2"/>
	<line class="st5" x1="793.1" y1="190.2" x2="788.1" y2="190.2"/>
	<line class="st5" x1="798" y1="160.3" x2="793.1" y2="190.2"/>
	<line class="st5" x1="802.9" y1="170.3" x2="798" y2="160.3"/>
	<line class="st5" x1="807.9" y1="170.3" x2="802.9" y2="170.3"/>
	<line class="st5" x1="812.8" y1="165.3" x2="807.9" y2="170.3"/>
	<line class="st5" x1="817.8" y1="165.3" x2="812.8" y2="165.3"/>
	<line class="st5" x1="822.7" y1="170.3" x2="817.8" y2="165.3"/>
	<line class="st5" x1="827.6" y1="165.3" x2="822.7" y2="170.3"/>
	<line class="st5" x1="832.6" y1="145.3" x2="827.6" y2="165.3"/>
	<line class="st5" x1="837.5" y1="150.3" x2="832.6" y2="145.3"/>
	<line class="st5" x1="842.5" y1="155.3" x2="837.5" y2="150.3"/>
	<line class="st5" x1="847.4" y1="165.3" x2="842.5" y2="155.3"/>
	<line class="st5" x1="852.3" y1="160.3" x2="847.4" y2="165.3"/>
	<line class="st5" x1="857.3" y1="160.3" x2="852.3" y2="160.3"/>
	<line class="st5" x1="862.2" y1="160.3" x2="857.3" y2="160.3"/>
	<line class="st5" x1="867.1" y1="165.3" x2="862.2" y2="160.3"/>
	<line class="st5" x1="872.1" y1="180.2" x2="867.1" y2="165.3"/>
	<line class="st5" x1="877" y1="175.2" x2="872.1" y2="180.2"/>
	<line class="st5" x1="882" y1="165.3" x2="877" y2="175.2"/>
	<line class="st5" x1="886.9" y1="165.3" x2="882" y2="165.3"/>
	<line class="st5" x1="891.8" y1="165.3" x2="886.9" y2="165.3"/>
	<line class="st5" x1="896.8" y1="160.3" x2="891.8" y2="165.3"/>
	<line class="st5" x1="901.7" y1="165.3" x2="896.8" y2="160.3"/>
	<line class="st5" x1="906.7" y1="170.3" x2="901.7" y2="165.3"/>
	<line class="st5" x1="911.6" y1="185.2" x2="906.7" y2="170.3"/>
	<line class="st5" x1="916.5" y1="185.2" x2="911.6" y2="185.2"/>
	<line class="st5" x1="921.5" y1="210.1" x2="916.5" y2="185.2"/>
	<line class="st5" x1="926.4" y1="195.2" x2="921.5" y2="210.1"/>
	<line class="st5" x1="931.3" y1="195.2" x2="926.4" y2="195.2"/>
	<line class="st5" x1="936.3" y1="195.2" x2="931.3" y2="195.2"/>
	<line class="st5" x1="941.2" y1="235.1" x2="936.3" y2="195.2"/>
	<line class="st5" x1="946.2" y1="225.1" x2="941.2" y2="235.1"/>
	<line class="st5" x1="951.1" y1="220.1" x2="946.2" y2="225.1"/>
	<line class="st5" x1="956" y1="230.1" x2="951.1" y2="220.1"/>
	<line class="st5" x1="961" y1="260" x2="956" y2="230.1"/>
	<line class="st5" x1="965.9" y1="279.9" x2="961" y2="260"/>
	<line class="st5" x1="970.9" y1="279.9" x2="965.9" y2="279.9"/>
	<line class="st5" x1="975.8" y1="324.8" x2="970.9" y2="279.9"/>
	<line class="st5" x1="980.7" y1="329.8" x2="975.8" y2="324.8"/>
	<line class="st5" x1="985.7" y1="260" x2="980.7" y2="329.8"/>
	<line class="st5" x1="990.6" y1="260" x2="985.7" y2="260"/>
	<line class="st5" x1="995.5" y1="250" x2="990.6" y2="260"/>
	<line class="st5" x1="1000.5" y1="220.1" x2="995.5" y2="250"/>
	<line class="st5" x1="1005.4" y1="225.1" x2="1000.5" y2="220.1"/>
	<line class="st5" x1="1010.4" y1="250" x2="1005.4" y2="225.1"/>
	<line class="st5" x1="1015.3" y1="235.1" x2="1010.4" y2="250"/>
	<line class="st5" x1="1020.2" y1="215.1" x2="1015.3" y2="235.1"/>
	<line class="st5" x1="1025.2" y1="210.1" x2="1020.2" y2="215.1"/>
	<line class="st5" x1="1030.1" y1="220.1" x2="1025.2" y2="210.1"/>
	<line class="st5" x1="1035.1" y1="220.1" x2="1030.1" y2="220.1"/>
	<line class="st5" x1="1040" y1="215.1" x2="1035.1" y2="220.1"/>
	<line class="st5" x1="1044.9" y1="225.1" x2="1040" y2="215.1"/>
	<line class="st5" x1="1049.9" y1="220.1" x2="1044.9" y2="225.1"/>
	<line class="st5" x1="1054.8" y1="230.1" x2="1049.9" y2="220.1"/>
	<line class="st5" x1="1059.7" y1="240.1" x2="1054.8" y2="230.1"/>
	<line class="st5" x1="1064.7" y1="225.1" x2="1059.7" y2="240.1"/>
</g>
<g>
	<path class="st1" d="M1027.1,63c0,5.9-3.8,9.4-8.5,9.4c-4.7,0-8.5-3.5-8.5-9.4c0-5.9,3.8-9.4,8.5-9.4
		C1023.3,53.6,1027.1,57.1,1027.1,63z M1014.1,63c0,4,2,6.1,4.5,6.1c2.5,0,4.5-2.1,4.5-6.1c0-4-2-6.1-4.5-6.1
		C1016.1,57,1014.1,59,1014.1,63z"/>
	<path class="st1" d="M1034.7,68l-2,7.7h-3.1l0.9-7.7H1034.7z"/>
	<path class="st1" d="M1052.1,58.8c0,2.1-1.3,3.4-3,4.1c1.9,0.7,3.5,2,3.5,4.2c0,3.3-3.5,5.3-7.7,5.3s-7.7-2-7.7-5.3
		c0-2.2,1.5-3.5,3.5-4.2c-1.7-0.7-3-2-3-4.1c0-3.3,3.2-5.2,7.2-5.2S1052.1,55.5,1052.1,58.8z M1041.3,66.9c0,1.6,1.6,2.4,3.6,2.4
		c2,0,3.6-0.8,3.6-2.4c0-1.6-1.6-2.5-3.6-2.5C1043,64.4,1041.3,65.2,1041.3,66.9z M1041.7,59.1c0,1.6,1.4,2.4,3.2,2.4
		s3.2-0.8,3.2-2.4c0-1.5-1.4-2.3-3.2-2.3S1041.7,57.6,1041.7,59.1z"/>
	<path class="st1" d="M1067.8,57.2h-8l-0.1,3.6h2.3c4.6,0,6.9,2.4,6.9,5.5c0,3.9-3.2,6.1-7.2,6.1c-2.9,0-5.3-1-7-2.7l2.1-2.5
		c1.1,1.1,3,1.9,4.8,1.9c2.2,0,3.3-1.2,3.3-2.6c0-1.4-0.9-2.6-4-2.6h-4.7l0.2-10.1h11.3V57.2z"/>
</g>
</svg>
