<?xml version="1.0" encoding="utf-8"?>
<!-- Generator: Adobe Illustrator 23.1.1, SVG Export Plug-In . SVG Version: 6.00 Build 0)  -->
<svg version="1.1" id="Layer_2" xmlns="http://www.w3.org/2000/svg" xmlns:xlink="http://www.w3.org/1999/xlink" x="0px" y="0px"
	 viewBox="0 0 1080 460" style="enable-background:new 0 0 1080 460;" xml:space="preserve">
<style type="text/css">
	.st0{fill:#203232;}
	.st1{fill:#F47E20;}
	.st2{fill:#FFB819;}
	.st3{fill:none;}
	.st4{fill:none;stroke:#D8D8D8;stroke-width:0.75;stroke-linejoin:round;stroke-miterlimit:10;}
	.st5{fill:#F47E20;stroke:#D8D8D8;stroke-width:0.75;stroke-linejoin:round;stroke-miterlimit:10;}
</style>
<g>
	<g>
		<g>
			<path class="st0" d="M28.6,437h-4.9v4h-2v-9.8H29v1.8h-5.2v2.2h4.9V437z"/>
			<path class="st0" d="M37.5,437.5c0,2-1.6,3.6-3.7,3.6c-2.1,0-3.7-1.5-3.7-3.6c0-2,1.6-3.6,3.7-3.6
				C35.9,434,37.5,435.5,37.5,437.5z M32,437.5c0,1.1,0.8,1.9,1.8,1.9c1,0,1.8-0.8,1.8-1.9s-0.8-1.9-1.8-1.9
				C32.8,435.7,32,436.4,32,437.5z"/>
			<path class="st0" d="M45.4,436.6v4.3h-1.8v-3.7c0-1-0.5-1.5-1.3-1.5c-0.8,0-1.4,0.5-1.4,1.5v3.7H39v-6.8h1.8v0.8
				c0.5-0.7,1.2-1,2-1C44.3,434,45.4,435,45.4,436.6z"/>
			<path class="st0" d="M52.1,434.9v-4h1.8v10.1h-1.8v-0.7c-0.4,0.5-1.1,0.9-2,0.9c-1.9,0-3.3-1.5-3.3-3.6s1.4-3.6,3.3-3.6
				C51,434,51.7,434.3,52.1,434.9z M48.7,437.5c0,1,0.7,1.9,1.8,1.9c1,0,1.8-0.8,1.8-1.9c0-1.1-0.7-1.9-1.8-1.9
				C49.4,435.7,48.7,436.5,48.7,437.5z"/>
			<path class="st0" d="M60.7,436c-0.5-0.3-1.4-0.5-2.2-0.6c-0.7,0-1,0.2-1,0.6c0,0.4,0.5,0.5,1.1,0.6l0.6,0.1
				c1.5,0.2,2.3,0.9,2.3,2c0,1.4-1.1,2.3-3.1,2.3c-0.9,0-2.1-0.2-3-0.8l0.7-1.4c0.6,0.4,1.3,0.7,2.3,0.7c0.8,0,1.3-0.2,1.3-0.6
				c0-0.3-0.3-0.5-1.1-0.6l-0.6-0.1c-1.6-0.2-2.3-0.9-2.3-2.1c0-1.4,1.1-2.2,2.9-2.2c1.1,0,1.9,0.2,2.8,0.6L60.7,436z"/>
			<path class="st0" d="M71.3,434.9v-4h1.8v10.1h-1.8v-0.7c-0.4,0.5-1.1,0.9-2,0.9c-1.9,0-3.3-1.5-3.3-3.6s1.4-3.6,3.3-3.6
				C70.2,434,70.8,434.3,71.3,434.9z M67.9,437.5c0,1,0.7,1.9,1.8,1.9c1,0,1.8-0.8,1.8-1.9c0-1.1-0.7-1.9-1.8-1.9
				C68.5,435.7,67.9,436.5,67.9,437.5z"/>
			<path class="st0" d="M81.3,437.5c0,0.2,0,0.5,0,0.6h-4.8c0.2,1,0.9,1.4,1.7,1.4c0.6,0,1.2-0.2,1.7-0.7l1.1,1.2
				c-0.8,0.7-1.8,1-2.9,1c-2.1,0-3.5-1.4-3.5-3.6c0-2.1,1.4-3.6,3.4-3.6C80,434,81.3,435.4,81.3,437.5z M76.5,436.9h3
				c-0.2-0.9-0.7-1.4-1.5-1.4C77.1,435.5,76.6,436.1,76.5,436.9z"/>
			<path class="st0" d="M90.9,434.1l-0.3,1.8c-0.3-0.1-0.7-0.2-1.1-0.2c-0.8,0-1.4,0.5-1.4,1.5v3.7h-1.8v-6.8H88v0.7
				c0.4-0.6,1.1-0.9,1.9-0.9C90.4,434,90.7,434,90.9,434.1z"/>
			<path class="st0" d="M98.5,437.5c0,0.2,0,0.5,0,0.6h-4.8c0.2,1,0.9,1.4,1.7,1.4c0.6,0,1.2-0.2,1.7-0.7l1.1,1.2
				c-0.8,0.7-1.8,1-2.9,1c-2.1,0-3.5-1.4-3.5-3.6c0-2.1,1.4-3.6,3.4-3.6C97.1,434,98.5,435.4,98.5,437.5z M93.6,436.9h3
				c-0.2-0.9-0.7-1.4-1.5-1.4C94.3,435.5,93.8,436.1,93.6,436.9z"/>
			<path class="st0" d="M104.9,435.8h-2.5v2.5c0,0.8,0.4,1.2,1,1.2c0.4,0,0.9-0.2,1.3-0.4l0.7,1.4c-0.6,0.4-1.3,0.7-2.2,0.7
				c-1.7,0-2.5-1-2.5-2.7v-2.6h-1.3v-1.6h1.3v-2h1.8v2h2.5V435.8z"/>
			<path class="st0" d="M111.1,434.1l-0.3,1.8c-0.3-0.1-0.7-0.2-1.1-0.2c-0.8,0-1.4,0.5-1.4,1.5v3.7h-1.8v-6.8h1.8v0.7
				c0.4-0.6,1.1-0.9,1.9-0.9C110.6,434,110.9,434,111.1,434.1z"/>
			<path class="st0" d="M119,440.9h-1.8v-0.7c-0.4,0.5-1.1,0.9-2,0.9c-1.9,0-3.3-1.5-3.3-3.6s1.4-3.6,3.3-3.6c0.9,0,1.6,0.4,2,0.9
				v-0.8h1.8V440.9z M113.8,437.5c0,1,0.7,1.9,1.8,1.9c1,0,1.8-0.8,1.8-1.9c0-1.1-0.7-1.9-1.8-1.9
				C114.5,435.7,113.8,436.5,113.8,437.5z"/>
			<path class="st0" d="M123,431.9c0,0.7-0.5,1.2-1.2,1.2c-0.7,0-1.2-0.5-1.2-1.2s0.5-1.2,1.2-1.2C122.5,430.8,123,431.3,123,431.9z
				 M122.8,440.9H121v-6.8h1.8V440.9z"/>
			<path class="st0" d="M129.6,435.8h-2.5v2.5c0,0.8,0.4,1.2,1,1.2c0.4,0,0.9-0.2,1.3-0.4l0.7,1.4c-0.6,0.4-1.3,0.7-2.2,0.7
				c-1.7,0-2.5-1-2.5-2.7v-2.6H124v-1.6h1.3v-2h1.8v2h2.5V435.8z"/>
			<path class="st0" d="M137.5,437.5c0,0.2,0,0.5,0,0.6h-4.8c0.2,1,0.9,1.4,1.7,1.4c0.6,0,1.2-0.2,1.7-0.7l1.1,1.2
				c-0.8,0.7-1.8,1-2.9,1c-2.1,0-3.5-1.4-3.5-3.6c0-2.1,1.4-3.6,3.4-3.6C136.2,434,137.5,435.4,137.5,437.5z M132.7,436.9h3
				c-0.2-0.9-0.7-1.4-1.5-1.4C133.4,435.5,132.9,436.1,132.7,436.9z"/>
			<path class="st0" d="M144.8,435.3c0,0.7-0.6,1.4-1.4,1.4c-0.7,0-1.4-0.6-1.4-1.4c0-0.7,0.6-1.4,1.4-1.4
				C144.2,434,144.8,434.6,144.8,435.3z M144.8,439.8c0,0.7-0.6,1.4-1.4,1.4c-0.7,0-1.4-0.6-1.4-1.4c0-0.7,0.6-1.4,1.4-1.4
				C144.2,438.4,144.8,439,144.8,439.8z"/>
			<path class="st0" d="M156.9,437.5c0,2-1.4,3.6-3.3,3.6c-0.9,0-1.6-0.4-2-0.9v3.5h-1.8v-9.6h1.8v0.8c0.4-0.6,1.1-0.9,2-0.9
				C155.5,434,156.9,435.5,156.9,437.5z M151.6,437.5c0,1.1,0.7,1.9,1.7,1.9c1.1,0,1.8-0.8,1.8-1.9c0-1-0.7-1.9-1.8-1.9
				C152.3,435.7,151.6,436.5,151.6,437.5z"/>
			<path class="st0" d="M165.1,440.9h-1.8v-0.7c-0.4,0.5-1.1,0.9-2,0.9c-1.9,0-3.3-1.5-3.3-3.6s1.4-3.6,3.3-3.6c0.9,0,1.6,0.4,2,0.9
				v-0.8h1.8V440.9z M159.9,437.5c0,1,0.7,1.9,1.8,1.9c1,0,1.8-0.8,1.8-1.9c0-1.1-0.7-1.9-1.8-1.9
				C160.6,435.7,159.9,436.5,159.9,437.5z"/>
			<path class="st0" d="M171.7,434.1l-0.3,1.8c-0.3-0.1-0.7-0.2-1.1-0.2c-0.8,0-1.4,0.5-1.4,1.5v3.7H167v-6.8h1.8v0.7
				c0.4-0.6,1.1-0.9,1.9-0.9C171.1,434,171.4,434,171.7,434.1z"/>
			<path class="st0" d="M177.8,435.8h-2.5v2.5c0,0.8,0.4,1.2,1,1.2c0.4,0,0.9-0.2,1.3-0.4l0.7,1.4c-0.6,0.4-1.3,0.7-2.2,0.7
				c-1.7,0-2.5-1-2.5-2.7v-2.6h-1.3v-1.6h1.3v-2h1.8v2h2.5V435.8z"/>
			<path class="st0" d="M181.5,431.9c0,0.7-0.5,1.2-1.2,1.2c-0.7,0-1.2-0.5-1.2-1.2s0.5-1.2,1.2-1.2
				C181,430.8,181.5,431.3,181.5,431.9z M181.3,440.9h-1.8v-6.8h1.8V440.9z"/>
			<path class="st0" d="M189.1,435.3l-1.3,1.1c-0.4-0.4-0.9-0.7-1.5-0.7c-0.9,0-1.7,0.7-1.7,1.9c0,1.1,0.7,1.9,1.7,1.9
				c0.6,0,1.1-0.3,1.5-0.7l1.3,1.1c-0.6,0.8-1.6,1.3-2.7,1.3c-2.2,0-3.6-1.5-3.6-3.6c0-2.1,1.5-3.6,3.6-3.6
				C187.5,434,188.5,434.4,189.1,435.3z"/>
			<path class="st0" d="M192.5,431.9c0,0.7-0.5,1.2-1.2,1.2c-0.7,0-1.2-0.5-1.2-1.2s0.5-1.2,1.2-1.2
				C192,430.8,192.5,431.3,192.5,431.9z M192.2,440.9h-1.8v-6.8h1.8V440.9z"/>
			<path class="st0" d="M201.3,437.5c0,2-1.4,3.6-3.3,3.6c-0.9,0-1.6-0.4-2-0.9v3.5h-1.8v-9.6h1.8v0.8c0.4-0.6,1.1-0.9,2-0.9
				C199.8,434,201.3,435.5,201.3,437.5z M195.9,437.5c0,1.1,0.7,1.9,1.7,1.9c1.1,0,1.8-0.8,1.8-1.9c0-1-0.7-1.9-1.8-1.9
				C196.6,435.7,195.9,436.5,195.9,437.5z"/>
			<path class="st0" d="M209.4,440.9h-1.8v-0.7c-0.4,0.5-1.1,0.9-2,0.9c-1.9,0-3.3-1.5-3.3-3.6s1.4-3.6,3.3-3.6c0.9,0,1.6,0.4,2,0.9
				v-0.8h1.8V440.9z M204.2,437.5c0,1,0.7,1.9,1.8,1.9c1,0,1.8-0.8,1.8-1.9c0-1.1-0.7-1.9-1.8-1.9
				C204.9,435.7,204.2,436.5,204.2,437.5z"/>
			<path class="st0" d="M216.3,435.8h-2.5v2.5c0,0.8,0.4,1.2,1,1.2c0.4,0,0.9-0.2,1.3-0.4l0.7,1.4c-0.6,0.4-1.3,0.7-2.2,0.7
				c-1.7,0-2.5-1-2.5-2.7v-2.6h-1.3v-1.6h1.3v-2h1.8v2h2.5V435.8z"/>
			<path class="st0" d="M219.9,431.9c0,0.7-0.5,1.2-1.2,1.2c-0.7,0-1.2-0.5-1.2-1.2s0.5-1.2,1.2-1.2
				C219.4,430.8,219.9,431.3,219.9,431.9z M219.7,440.9h-1.8v-6.8h1.8V440.9z"/>
			<path class="st0" d="M228.5,437.5c0,2-1.6,3.6-3.7,3.6c-2.1,0-3.7-1.5-3.7-3.6c0-2,1.6-3.6,3.7-3.6
				C227,434,228.5,435.5,228.5,437.5z M223.1,437.5c0,1.1,0.8,1.9,1.8,1.9c1,0,1.8-0.8,1.8-1.9s-0.8-1.9-1.8-1.9
				C223.8,435.7,223.1,436.4,223.1,437.5z"/>
			<path class="st0" d="M236.4,436.6v4.3h-1.8v-3.7c0-1-0.5-1.5-1.3-1.5c-0.8,0-1.4,0.5-1.4,1.5v3.7H230v-6.8h1.8v0.8
				c0.5-0.7,1.2-1,2-1C235.3,434,236.4,435,236.4,436.6z"/>
			<path class="st0" d="M248.4,440.9h-1.8v-0.7c-0.4,0.5-1.1,0.9-2,0.9c-1.9,0-3.3-1.5-3.3-3.6s1.4-3.6,3.3-3.6c0.9,0,1.6,0.4,2,0.9
				v-0.8h1.8V440.9z M243.2,437.5c0,1,0.7,1.9,1.8,1.9c1,0,1.8-0.8,1.8-1.9c0-1.1-0.7-1.9-1.8-1.9
				C243.9,435.7,243.2,436.5,243.2,437.5z"/>
			<path class="st0" d="M256.7,438c0,2.1-1.5,3.1-3.2,3.1c-1.7,0-3.2-0.9-3.2-3.1v-3.9h1.8v3.7c0,1.1,0.6,1.5,1.4,1.5
				c0.8,0,1.4-0.4,1.4-1.5v-3.7h1.8V438z"/>
			<path class="st0" d="M262.7,437.5l2.5,3.5H263l-1.5-2.2l-1.5,2.2h-2.1l2.5-3.4l-2.4-3.3h2.2l1.5,2.1l1.5-2.1h2.1L262.7,437.5z"/>
			<path class="st0" d="M276.4,440.9h-1.8v-0.7c-0.4,0.5-1.1,0.9-2,0.9c-1.9,0-3.3-1.5-3.3-3.6s1.4-3.6,3.3-3.6c0.9,0,1.6,0.4,2,0.9
				v-0.8h1.8V440.9z M271.2,437.5c0,1,0.7,1.9,1.8,1.9c1,0,1.8-0.8,1.8-1.9c0-1.1-0.7-1.9-1.8-1.9
				C271.9,435.7,271.2,436.5,271.2,437.5z"/>
			<path class="st0" d="M284.2,435.3l-1.3,1.1c-0.4-0.4-0.9-0.7-1.5-0.7c-0.9,0-1.7,0.7-1.7,1.9c0,1.1,0.7,1.9,1.7,1.9
				c0.6,0,1.1-0.3,1.5-0.7l1.3,1.1c-0.6,0.8-1.6,1.3-2.7,1.3c-2.2,0-3.6-1.5-3.6-3.6c0-2.1,1.5-3.6,3.6-3.6
				C282.7,434,283.6,434.4,284.2,435.3z"/>
			<path class="st0" d="M290.5,435.8H288v2.5c0,0.8,0.4,1.2,1,1.2c0.4,0,0.9-0.2,1.3-0.4l0.7,1.4c-0.6,0.4-1.3,0.7-2.2,0.7
				c-1.7,0-2.5-1-2.5-2.7v-2.6h-1.3v-1.6h1.3v-2h1.8v2h2.5V435.8z"/>
			<path class="st0" d="M294.2,431.9c0,0.7-0.5,1.2-1.2,1.2c-0.7,0-1.2-0.5-1.2-1.2s0.5-1.2,1.2-1.2
				C293.7,430.8,294.2,431.3,294.2,431.9z M293.9,440.9h-1.8v-6.8h1.8V440.9z"/>
			<path class="st0" d="M302.8,437.5c0,2-1.6,3.6-3.7,3.6c-2.1,0-3.7-1.5-3.7-3.6c0-2,1.6-3.6,3.7-3.6
				C301.2,434,302.8,435.5,302.8,437.5z M297.3,437.5c0,1.1,0.8,1.9,1.8,1.9c1,0,1.8-0.8,1.8-1.9s-0.8-1.9-1.8-1.9
				C298.1,435.7,297.3,436.4,297.3,437.5z"/>
			<path class="st0" d="M310.7,436.6v4.3h-1.8v-3.7c0-1-0.5-1.5-1.3-1.5c-0.8,0-1.4,0.5-1.4,1.5v3.7h-1.8v-6.8h1.8v0.8
				c0.5-0.7,1.2-1,2-1C309.6,434,310.7,435,310.7,436.6z"/>
			<path class="st0" d="M317.4,436c-0.5-0.3-1.4-0.5-2.2-0.6c-0.7,0-1,0.2-1,0.6c0,0.4,0.5,0.5,1.1,0.6l0.6,0.1
				c1.5,0.2,2.3,0.9,2.3,2c0,1.4-1.1,2.3-3.1,2.3c-0.9,0-2.1-0.2-3-0.8l0.7-1.4c0.6,0.4,1.3,0.7,2.3,0.7c0.8,0,1.3-0.2,1.3-0.6
				c0-0.3-0.3-0.5-1.1-0.6l-0.6-0.1c-1.6-0.2-2.3-0.9-2.3-2.1c0-1.4,1.1-2.2,2.9-2.2c1.1,0,1.9,0.2,2.8,0.6L317.4,436z"/>
			<path class="st0" d="M324.9,440.9h-1.8v-10.1h1.8V440.9z"/>
			<path class="st0" d="M333.7,437.5c0,2-1.6,3.6-3.7,3.6c-2.1,0-3.7-1.5-3.7-3.6c0-2,1.6-3.6,3.7-3.6
				C332.2,434,333.7,435.5,333.7,437.5z M328.3,437.5c0,1.1,0.8,1.9,1.8,1.9c1,0,1.8-0.8,1.8-1.9s-0.8-1.9-1.8-1.9
				C329,435.7,328.3,436.4,328.3,437.5z"/>
			<path class="st0" d="M341.1,435.3l-1.3,1.1c-0.4-0.4-0.9-0.7-1.5-0.7c-0.9,0-1.7,0.7-1.7,1.9c0,1.1,0.7,1.9,1.7,1.9
				c0.6,0,1.1-0.3,1.5-0.7l1.3,1.1c-0.6,0.8-1.6,1.3-2.7,1.3c-2.2,0-3.6-1.5-3.6-3.6c0-2.1,1.5-3.6,3.6-3.6
				C339.6,434,340.5,434.4,341.1,435.3z"/>
			<path class="st0" d="M349.1,440.9h-1.8v-0.7c-0.4,0.5-1.1,0.9-2,0.9c-1.9,0-3.3-1.5-3.3-3.6s1.4-3.6,3.3-3.6c0.9,0,1.6,0.4,2,0.9
				v-0.8h1.8V440.9z M343.9,437.5c0,1,0.7,1.9,1.8,1.9c1,0,1.8-0.8,1.8-1.9c0-1.1-0.7-1.9-1.8-1.9
				C344.6,435.7,343.9,436.5,343.9,437.5z"/>
			<path class="st0" d="M352.9,440.9h-1.8v-10.1h1.8V440.9z"/>
			<path class="st0" d="M361.1,437.5c0,0.2,0,0.5,0,0.6h-4.8c0.2,1,0.9,1.4,1.7,1.4c0.6,0,1.2-0.2,1.7-0.7l1.1,1.2
				c-0.8,0.7-1.8,1-2.9,1c-2.1,0-3.5-1.4-3.5-3.6c0-2.1,1.4-3.6,3.4-3.6C359.8,434,361.1,435.4,361.1,437.5z M356.3,436.9h3
				c-0.2-0.9-0.7-1.4-1.5-1.4C356.9,435.5,356.4,436.1,356.3,436.9z"/>
			<path class="st0" d="M367.5,436c-0.5-0.3-1.4-0.5-2.2-0.6c-0.7,0-1,0.2-1,0.6c0,0.4,0.5,0.5,1.1,0.6l0.6,0.1
				c1.5,0.2,2.3,0.9,2.3,2c0,1.4-1.1,2.3-3.1,2.3c-0.9,0-2.1-0.2-3-0.8l0.7-1.4c0.6,0.4,1.3,0.7,2.3,0.7c0.8,0,1.3-0.2,1.3-0.6
				c0-0.3-0.3-0.5-1.1-0.6l-0.6-0.1c-1.6-0.2-2.3-0.9-2.3-2.1c0-1.4,1.1-2.2,2.9-2.2c1.1,0,1.9,0.2,2.8,0.6L367.5,436z"/>
			<path class="st0" d="M370.4,442.3h-1.9l5.9-12.2h1.9L370.4,442.3z"/>
			<path class="st0" d="M384.1,437.5c0,2-1.4,3.6-3.3,3.6c-0.9,0-1.6-0.4-2-0.9v3.5H377v-9.6h1.8v0.8c0.4-0.6,1.1-0.9,2-0.9
				C382.6,434,384.1,435.5,384.1,437.5z M378.7,437.5c0,1.1,0.7,1.9,1.7,1.9c1.1,0,1.8-0.8,1.8-1.9c0-1-0.7-1.9-1.8-1.9
				C379.4,435.7,378.7,436.5,378.7,437.5z"/>
			<path class="st0" d="M392.2,440.9h-1.8v-0.7c-0.4,0.5-1.1,0.9-2,0.9c-1.9,0-3.3-1.5-3.3-3.6s1.4-3.6,3.3-3.6c0.9,0,1.6,0.4,2,0.9
				v-0.8h1.8V440.9z M387,437.5c0,1,0.7,1.9,1.8,1.9c1,0,1.8-0.8,1.8-1.9c0-1.1-0.7-1.9-1.8-1.9C387.7,435.7,387,436.5,387,437.5z"
				/>
			<path class="st0" d="M398.8,434.1l-0.3,1.8c-0.3-0.1-0.7-0.2-1.1-0.2c-0.8,0-1.4,0.5-1.4,1.5v3.7h-1.8v-6.8h1.8v0.7
				c0.4-0.6,1.1-0.9,1.9-0.9C398.2,434,398.5,434,398.8,434.1z"/>
			<path class="st0" d="M404.9,435.8h-2.5v2.5c0,0.8,0.4,1.2,1,1.2c0.4,0,0.9-0.2,1.3-0.4l0.7,1.4c-0.6,0.4-1.3,0.7-2.2,0.7
				c-1.7,0-2.5-1-2.5-2.7v-2.6h-1.3v-1.6h1.3v-2h1.8v2h2.5V435.8z"/>
			<path class="st0" d="M408.6,431.9c0,0.7-0.5,1.2-1.2,1.2s-1.2-0.5-1.2-1.2s0.5-1.2,1.2-1.2S408.6,431.3,408.6,431.9z
				 M408.4,440.9h-1.8v-6.8h1.8V440.9z"/>
			<path class="st0" d="M416.2,435.3l-1.3,1.1c-0.4-0.4-0.9-0.7-1.5-0.7c-0.9,0-1.7,0.7-1.7,1.9c0,1.1,0.7,1.9,1.7,1.9
				c0.6,0,1.1-0.3,1.5-0.7l1.3,1.1c-0.6,0.8-1.6,1.3-2.7,1.3c-2.2,0-3.6-1.5-3.6-3.6c0-2.1,1.5-3.6,3.6-3.6
				C414.6,434,415.6,434.4,416.2,435.3z"/>
			<path class="st0" d="M419.6,431.9c0,0.7-0.5,1.2-1.2,1.2s-1.2-0.5-1.2-1.2s0.5-1.2,1.2-1.2S419.6,431.3,419.6,431.9z
				 M419.4,440.9h-1.8v-6.8h1.8V440.9z"/>
			<path class="st0" d="M428.4,437.5c0,2-1.4,3.6-3.3,3.6c-0.9,0-1.6-0.4-2-0.9v3.5h-1.8v-9.6h1.8v0.8c0.4-0.6,1.1-0.9,2-0.9
				C427,434,428.4,435.5,428.4,437.5z M423,437.5c0,1.1,0.7,1.9,1.7,1.9c1.1,0,1.8-0.8,1.8-1.9c0-1-0.7-1.9-1.8-1.9
				C423.7,435.7,423,436.5,423,437.5z"/>
			<path class="st0" d="M436.5,440.9h-1.8v-0.7c-0.4,0.5-1.1,0.9-2,0.9c-1.9,0-3.3-1.5-3.3-3.6s1.4-3.6,3.3-3.6c0.9,0,1.6,0.4,2,0.9
				v-0.8h1.8V440.9z M431.3,437.5c0,1,0.7,1.9,1.8,1.9c1,0,1.8-0.8,1.8-1.9c0-1.1-0.7-1.9-1.8-1.9
				C432,435.7,431.3,436.5,431.3,437.5z"/>
			<path class="st0" d="M443.4,435.8h-2.5v2.5c0,0.8,0.4,1.2,1,1.2c0.4,0,0.9-0.2,1.3-0.4l0.7,1.4c-0.6,0.4-1.3,0.7-2.2,0.7
				c-1.7,0-2.5-1-2.5-2.7v-2.6h-1.3v-1.6h1.3v-2h1.8v2h2.5V435.8z"/>
			<path class="st0" d="M447.1,431.9c0,0.7-0.5,1.2-1.2,1.2s-1.2-0.5-1.2-1.2s0.5-1.2,1.2-1.2S447.1,431.3,447.1,431.9z
				 M446.8,440.9H445v-6.8h1.8V440.9z"/>
			<path class="st0" d="M455.6,437.5c0,2-1.6,3.6-3.7,3.6c-2.1,0-3.7-1.5-3.7-3.6c0-2,1.6-3.6,3.7-3.6
				C454.1,434,455.6,435.5,455.6,437.5z M450.2,437.5c0,1.1,0.8,1.9,1.8,1.9s1.8-0.8,1.8-1.9s-0.8-1.9-1.8-1.9
				S450.2,436.4,450.2,437.5z"/>
			<path class="st0" d="M463.6,436.6v4.3h-1.8v-3.7c0-1-0.5-1.5-1.3-1.5c-0.8,0-1.4,0.5-1.4,1.5v3.7h-1.8v-6.8h1.8v0.8
				c0.5-0.7,1.2-1,2-1C462.5,434,463.6,435,463.6,436.6z"/>
			<path class="st0" d="M473.7,434.9v-0.8h1.8v6.2c0,2.2-1.4,3.5-3.7,3.5c-1.1,0-2.2-0.3-3-0.8l0.7-1.5c0.7,0.4,1.4,0.7,2.2,0.7
				c1.1,0,1.9-0.6,1.9-1.8V440c-0.5,0.6-1.1,0.9-2.1,0.9c-1.7,0-3.1-1.4-3.1-3.5c0-2.1,1.5-3.5,3.1-3.5
				C472.5,434,473.2,434.3,473.7,434.9z M470.3,437.4c0,1,0.7,1.8,1.7,1.8c1,0,1.7-0.8,1.7-1.8c0-1-0.7-1.8-1.7-1.8
				C471,435.7,470.3,436.5,470.3,437.4z"/>
			<path class="st0" d="M479.2,440.9h-1.8v-10.1h1.8V440.9z"/>
			<path class="st0" d="M488.1,437.5c0,2-1.6,3.6-3.7,3.6c-2.1,0-3.7-1.5-3.7-3.6c0-2,1.6-3.6,3.7-3.6
				C486.5,434,488.1,435.5,488.1,437.5z M482.6,437.5c0,1.1,0.8,1.9,1.8,1.9s1.8-0.8,1.8-1.9s-0.8-1.9-1.8-1.9
				S482.6,436.4,482.6,437.5z"/>
			<path class="st0" d="M496.6,437.5c0,2-1.4,3.6-3.3,3.6c-0.9,0-1.6-0.4-2-0.9v0.7h-1.8v-10.1h1.8v4c0.4-0.5,1.1-0.9,2-0.9
				C495.2,434,496.6,435.5,496.6,437.5z M491.3,437.5c0,1.1,0.7,1.9,1.7,1.9c1.1,0,1.8-0.8,1.8-1.9c0-1-0.7-1.9-1.8-1.9
				C492,435.7,491.3,436.5,491.3,437.5z"/>
			<path class="st0" d="M504.8,440.9H503v-0.7c-0.4,0.5-1.1,0.9-2,0.9c-1.9,0-3.3-1.5-3.3-3.6s1.4-3.6,3.3-3.6c0.9,0,1.6,0.4,2,0.9
				v-0.8h1.8V440.9z M499.6,437.5c0,1,0.7,1.9,1.8,1.9c1,0,1.8-0.8,1.8-1.9c0-1.1-0.7-1.9-1.8-1.9
				C500.3,435.7,499.6,436.5,499.6,437.5z"/>
			<path class="st0" d="M508.6,440.9h-1.8v-10.1h1.8V440.9z"/>
			<path class="st0" d="M516.8,437.5c0,0.2,0,0.5,0,0.6h-4.8c0.2,1,0.9,1.4,1.7,1.4c0.6,0,1.2-0.2,1.7-0.7l1.1,1.2
				c-0.8,0.7-1.8,1-2.9,1c-2.1,0-3.5-1.4-3.5-3.6c0-2.1,1.4-3.6,3.4-3.6C515.4,434,516.8,435.4,516.8,437.5z M511.9,436.9h3
				c-0.2-0.9-0.7-1.4-1.5-1.4C512.6,435.5,512.1,436.1,511.9,436.9z"/>
			<path class="st0" d="M528.4,440.9h-1.8v-0.7c-0.4,0.5-1.1,0.9-2,0.9c-1.9,0-3.3-1.5-3.3-3.6s1.4-3.6,3.3-3.6c0.9,0,1.6,0.4,2,0.9
				v-0.8h1.8V440.9z M523.2,437.5c0,1,0.7,1.9,1.8,1.9c1,0,1.8-0.8,1.8-1.9c0-1.1-0.7-1.9-1.8-1.9
				C523.9,435.7,523.2,436.5,523.2,437.5z"/>
			<path class="st0" d="M536.7,438c0,2.1-1.5,3.1-3.2,3.1c-1.7,0-3.2-0.9-3.2-3.1v-3.9h1.8v3.7c0,1.1,0.6,1.5,1.4,1.5
				c0.8,0,1.4-0.4,1.4-1.5v-3.7h1.8V438z"/>
			<path class="st0" d="M542.6,437.5l2.5,3.5h-2.2l-1.5-2.2l-1.5,2.2h-2.1l2.5-3.4l-2.4-3.3h2.2l1.5,2.1l1.5-2.1h2.1L542.6,437.5z"
				/>
			<path class="st0" d="M556.4,440.9h-1.8v-0.7c-0.4,0.5-1.1,0.9-2,0.9c-1.9,0-3.3-1.5-3.3-3.6s1.4-3.6,3.3-3.6c0.9,0,1.6,0.4,2,0.9
				v-0.8h1.8V440.9z M551.2,437.5c0,1,0.7,1.9,1.8,1.9c1,0,1.8-0.8,1.8-1.9c0-1.1-0.7-1.9-1.8-1.9
				C551.8,435.7,551.2,436.5,551.2,437.5z"/>
			<path class="st0" d="M564.2,435.3l-1.3,1.1c-0.4-0.4-0.9-0.7-1.4-0.7c-0.9,0-1.7,0.7-1.7,1.9c0,1.1,0.7,1.9,1.7,1.9
				c0.6,0,1.1-0.3,1.5-0.7l1.3,1.1c-0.6,0.8-1.6,1.3-2.7,1.3c-2.2,0-3.6-1.5-3.6-3.6c0-2.1,1.5-3.6,3.6-3.6
				C562.6,434,563.6,434.4,564.2,435.3z"/>
			<path class="st0" d="M570.5,435.8H568v2.5c0,0.8,0.4,1.2,1,1.2c0.4,0,0.9-0.2,1.3-0.4l0.7,1.4c-0.6,0.4-1.3,0.7-2.2,0.7
				c-1.7,0-2.5-1-2.5-2.7v-2.6h-1.3v-1.6h1.3v-2h1.8v2h2.5V435.8z"/>
			<path class="st0" d="M574.1,431.9c0,0.7-0.5,1.2-1.2,1.2s-1.2-0.5-1.2-1.2s0.5-1.2,1.2-1.2S574.1,431.3,574.1,431.9z
				 M573.9,440.9h-1.8v-6.8h1.8V440.9z"/>
			<path class="st0" d="M582.7,437.5c0,2-1.6,3.6-3.7,3.6c-2.1,0-3.7-1.5-3.7-3.6c0-2,1.6-3.6,3.7-3.6
				C581.2,434,582.7,435.5,582.7,437.5z M577.2,437.5c0,1.1,0.8,1.9,1.8,1.9s1.8-0.8,1.8-1.9s-0.8-1.9-1.8-1.9
				S577.2,436.4,577.2,437.5z"/>
			<path class="st0" d="M590.6,436.6v4.3h-1.8v-3.7c0-1-0.5-1.5-1.3-1.5c-0.8,0-1.4,0.5-1.4,1.5v3.7h-1.8v-6.8h1.8v0.8
				c0.5-0.7,1.2-1,2-1C589.5,434,590.6,435,590.6,436.6z"/>
			<path class="st0" d="M597.4,436c-0.5-0.3-1.4-0.5-2.2-0.6c-0.7,0-1,0.2-1,0.6c0,0.4,0.5,0.5,1.1,0.6l0.6,0.1
				c1.5,0.2,2.3,0.9,2.3,2c0,1.4-1.1,2.3-3.1,2.3c-0.9,0-2.1-0.2-3-0.8l0.7-1.4c0.6,0.4,1.3,0.7,2.3,0.7c0.8,0,1.3-0.2,1.3-0.6
				c0-0.3-0.3-0.5-1.1-0.6l-0.6-0.1c-1.6-0.2-2.3-0.9-2.3-2.1c0-1.4,1.1-2.2,2.9-2.2c1.1,0,1.9,0.2,2.8,0.6L597.4,436z"/>
		</g>
	</g>
	<g>
		<g>
			<path class="st0" d="M666.3,440.9h-2v-9.8h2V440.9z"/>
			<path class="st0" d="M674.8,436.6v4.3h-1.8v-3.7c0-1-0.5-1.5-1.3-1.5c-0.8,0-1.4,0.5-1.4,1.5v3.7h-1.8v-6.8h1.8v0.8
				c0.5-0.7,1.2-1,2-1C673.7,434,674.8,435,674.8,436.6z"/>
			<path class="st0" d="M681.5,434.9v-4h1.8v10.1h-1.8v-0.7c-0.4,0.5-1.1,0.9-2,0.9c-1.9,0-3.3-1.5-3.3-3.6s1.4-3.6,3.3-3.6
				C680.4,434,681,434.3,681.5,434.9z M678.1,437.5c0,1,0.7,1.9,1.8,1.9c1,0,1.8-0.8,1.8-1.9c0-1.1-0.7-1.9-1.8-1.9
				C678.8,435.7,678.1,436.5,678.1,437.5z"/>
			<path class="st0" d="M687.3,431.9c0,0.7-0.5,1.2-1.2,1.2c-0.7,0-1.2-0.5-1.2-1.2s0.5-1.2,1.2-1.2
				C686.8,430.8,687.3,431.3,687.3,431.9z M687,440.9h-1.8v-6.8h1.8V440.9z"/>
			<path class="st0" d="M694.9,435.3l-1.3,1.1c-0.4-0.4-0.9-0.7-1.5-0.7c-0.9,0-1.7,0.7-1.7,1.9c0,1.1,0.7,1.9,1.7,1.9
				c0.6,0,1.1-0.3,1.5-0.7l1.3,1.1c-0.6,0.8-1.6,1.3-2.7,1.3c-2.2,0-3.6-1.5-3.6-3.6c0-2.1,1.4-3.6,3.6-3.6
				C693.3,434,694.3,434.4,694.9,435.3z"/>
			<path class="st0" d="M702.5,437.5c0,0.2,0,0.5,0,0.6h-4.8c0.2,1,0.9,1.4,1.7,1.4c0.6,0,1.2-0.2,1.7-0.7l1.1,1.2
				c-0.8,0.7-1.8,1-2.9,1c-2.1,0-3.5-1.4-3.5-3.6c0-2.1,1.4-3.6,3.4-3.6C701.2,434,702.5,435.4,702.5,437.5z M697.7,436.9h3
				c-0.2-0.9-0.7-1.4-1.5-1.4C698.3,435.5,697.8,436.1,697.7,436.9z"/>
			<path class="st0" d="M718.5,436.6v4.3h-1.8v-3.7c0-1-0.5-1.5-1.3-1.5c-0.8,0-1.4,0.5-1.4,1.5v3.7H712v-3.7c0-1-0.5-1.5-1.3-1.5
				c-0.8,0-1.4,0.5-1.4,1.5v3.7h-1.8v-6.8h1.8v0.8c0.5-0.7,1.2-1,2-1c1,0,1.8,0.4,2.2,1.2c0.5-0.9,1.4-1.2,2.3-1.2
				C717.4,434,718.5,435,718.5,436.6z"/>
			<path class="st0" d="M727.2,437.5c0,2-1.6,3.6-3.7,3.6c-2.1,0-3.7-1.5-3.7-3.6c0-2,1.6-3.6,3.7-3.6
				C725.7,434,727.2,435.5,727.2,437.5z M721.8,437.5c0,1.1,0.8,1.9,1.8,1.9c1,0,1.8-0.8,1.8-1.9s-0.8-1.9-1.8-1.9
				C722.5,435.7,721.8,436.4,721.8,437.5z"/>
			<path class="st0" d="M735.1,436.6v4.3h-1.8v-3.7c0-1-0.5-1.5-1.3-1.5c-0.8,0-1.4,0.5-1.4,1.5v3.7h-1.8v-6.8h1.8v0.8
				c0.5-0.7,1.2-1,2-1C734,434,735.1,435,735.1,436.6z"/>
			<path class="st0" d="M741.9,434.9v-4h1.8v10.1h-1.8v-0.7c-0.4,0.5-1.1,0.9-2,0.9c-1.9,0-3.3-1.5-3.3-3.6s1.4-3.6,3.3-3.6
				C740.8,434,741.4,434.3,741.9,434.9z M738.4,437.5c0,1,0.7,1.9,1.8,1.9c1,0,1.8-0.8,1.8-1.9c0-1.1-0.7-1.9-1.8-1.9
				C739.1,435.7,738.4,436.5,738.4,437.5z"/>
			<path class="st0" d="M747.7,431.9c0,0.7-0.5,1.2-1.2,1.2c-0.7,0-1.2-0.5-1.2-1.2s0.5-1.2,1.2-1.2
				C747.1,430.8,747.7,431.3,747.7,431.9z M747.4,440.9h-1.8v-6.8h1.8V440.9z"/>
			<path class="st0" d="M756,440.9h-1.8v-0.7c-0.4,0.5-1.1,0.9-2,0.9c-1.9,0-3.3-1.5-3.3-3.6s1.4-3.6,3.3-3.6c0.9,0,1.6,0.4,2,0.9
				v-0.8h1.8V440.9z M750.8,437.5c0,1,0.7,1.9,1.8,1.9c1,0,1.8-0.8,1.8-1.9c0-1.1-0.7-1.9-1.8-1.9
				C751.5,435.7,750.8,436.5,750.8,437.5z"/>
			<path class="st0" d="M759.8,440.9h-1.8v-10.1h1.8V440.9z"/>
			<path class="st0" d="M772.2,437h-4.9v4h-2v-9.8h7.2v1.8h-5.2v2.2h4.9V437z"/>
			<path class="st0" d="M781.4,433h-3v8h-2v-8h-3v-1.8h8V433z"/>
			<path class="st0" d="M789.4,433.6c-0.8-0.5-1.7-0.8-2.8-0.8c-1.1,0-1.9,0.4-1.9,1.2c0,0.7,0.8,0.9,2,1.1l0.6,0.1
				c1.8,0.3,3.1,1,3.1,2.7c0,2.2-1.9,3.2-4,3.2c-1.5,0-3.1-0.4-4.1-1.3l1-1.6c0.7,0.6,1.9,1.1,3.1,1.1c1.1,0,1.9-0.4,1.9-1.2
				c0-0.7-0.7-0.9-2.1-1.1l-0.6-0.1c-1.7-0.3-3-1-3-2.8c0-2,1.8-3.1,3.9-3.1c1.4,0,2.5,0.3,3.7,1L789.4,433.6z"/>
			<path class="st0" d="M799.5,440.9h-7.3v-9.8h7.3v1.8h-5.3v2.2h5.1v1.8h-5.1v2.3h5.4V440.9z"/>
			<path class="st0" d="M809.4,432.4c-1.8,0.9-2.8,2.6-2.8,4.5s1,3.7,2.8,4.5l-0.6,1.6c-2.4-1-4.1-3.3-4.1-6.2
				c0-2.9,1.7-5.2,4.1-6.2L809.4,432.4z"/>
			<path class="st0" d="M815.7,435.8h-2.5v2.5c0,0.8,0.4,1.2,1,1.2c0.4,0,0.9-0.2,1.3-0.4l0.7,1.4c-0.6,0.4-1.3,0.7-2.2,0.7
				c-1.7,0-2.5-1-2.5-2.7v-2.6h-1.3v-1.6h1.3v-2h1.8v2h2.5V435.8z"/>
			<path class="st0" d="M824.2,437.5c0,2-1.6,3.6-3.7,3.6c-2.1,0-3.7-1.5-3.7-3.6c0-2,1.6-3.6,3.7-3.6
				C822.6,434,824.2,435.5,824.2,437.5z M818.7,437.5c0,1.1,0.8,1.9,1.8,1.9c1,0,1.8-0.8,1.8-1.9s-0.8-1.9-1.8-1.9
				C819.5,435.7,818.7,436.4,818.7,437.5z"/>
			<path class="st0" d="M832.1,438c0,2.1-1.5,3.1-3.2,3.1c-1.7,0-3.2-0.9-3.2-3.1v-3.9h1.8v3.7c0,1.1,0.6,1.5,1.4,1.5
				c0.8,0,1.4-0.4,1.4-1.5v-3.7h1.8V438z"/>
			<path class="st0" d="M838.8,436c-0.5-0.3-1.4-0.5-2.2-0.6c-0.7,0-1,0.2-1,0.6c0,0.4,0.5,0.5,1.1,0.6l0.6,0.1
				c1.5,0.2,2.3,0.9,2.3,2c0,1.4-1.1,2.3-3.1,2.3c-0.9,0-2.1-0.2-3-0.8l0.7-1.4c0.6,0.4,1.3,0.7,2.3,0.7c0.8,0,1.3-0.2,1.3-0.6
				c0-0.3-0.3-0.5-1.1-0.6l-0.6-0.1c-1.6-0.2-2.3-0.9-2.3-2.1c0-1.4,1.1-2.2,2.9-2.2c1.1,0,1.9,0.2,2.8,0.6L838.8,436z"/>
			<path class="st0" d="M851.6,437.5c0,2-1.4,3.6-3.3,3.6c-0.9,0-1.6-0.4-2-0.9v3.5h-1.8v-9.6h1.8v0.8c0.4-0.6,1.1-0.9,2-0.9
				C850.2,434,851.6,435.5,851.6,437.5z M846.2,437.5c0,1.1,0.7,1.9,1.7,1.9c1.1,0,1.8-0.8,1.8-1.9c0-1-0.7-1.9-1.8-1.9
				C846.9,435.7,846.2,436.5,846.2,437.5z"/>
			<path class="st0" d="M859.8,440.9H858v-0.7c-0.4,0.5-1.1,0.9-2,0.9c-1.9,0-3.3-1.5-3.3-3.6s1.4-3.6,3.3-3.6c0.9,0,1.6,0.4,2,0.9
				v-0.8h1.8V440.9z M854.5,437.5c0,1,0.7,1.9,1.8,1.9c1,0,1.8-0.8,1.8-1.9c0-1.1-0.7-1.9-1.8-1.9
				C855.2,435.7,854.5,436.5,854.5,437.5z"/>
			<path class="st0" d="M863.4,443.8h-2l2.4-4.3l-2.9-5.3h2.1l1.9,3.5l1.8-3.5h2L863.4,443.8z"/>
			<path class="st0" d="M874.4,436c-0.5-0.3-1.4-0.5-2.2-0.6c-0.7,0-1,0.2-1,0.6c0,0.4,0.5,0.5,1.1,0.6l0.6,0.1
				c1.5,0.2,2.3,0.9,2.3,2c0,1.4-1.1,2.3-3.1,2.3c-0.9,0-2.1-0.2-3-0.8l0.7-1.4c0.6,0.4,1.3,0.7,2.3,0.7c0.8,0,1.3-0.2,1.3-0.6
				c0-0.3-0.3-0.5-1.1-0.6l-0.6-0.1c-1.6-0.2-2.3-0.9-2.3-2.1c0-1.4,1.1-2.2,2.9-2.2c1.1,0,1.9,0.2,2.8,0.6L874.4,436z"/>
			<path class="st0" d="M876.1,441.5c1.8-0.9,2.8-2.6,2.8-4.5s-1-3.7-2.8-4.5l0.6-1.6c2.4,1,4.1,3.3,4.1,6.2s-1.7,5.2-4.1,6.2
				L876.1,441.5z"/>
		</g>
	</g>
	<rect x="2.8" y="430.7" class="st1" width="10" height="10"/>
	<rect x="644.8" y="430.7" class="st2" width="10" height="10"/>
	<g>
		<path class="st0" d="M15.7,360c0,2.6-1.5,4.1-3.4,4.1c-1.9,0-3.4-1.5-3.4-4.1s1.5-4.1,3.4-4.1C14.2,355.9,15.7,357.4,15.7,360z
			 M10.5,360c0,1.7,0.8,2.7,1.8,2.7c1,0,1.8-0.9,1.8-2.7c0-1.7-0.8-2.7-1.8-2.7C11.3,357.3,10.5,358.3,10.5,360z"/>
		<path class="st0" d="M24,358c0,1.3-1,2.2-2.2,2.2c-1.3,0-2.2-0.9-2.2-2.2c0-1.2,1-2.2,2.2-2.2C23.1,355.9,24,356.8,24,358z
			 M20.8,358c0,0.6,0.4,1,1,1c0.6,0,1-0.4,1-1c0-0.6-0.4-1-1-1C21.2,357.1,20.8,357.5,20.8,358z M22.9,364h-1.5l5.3-8h1.5L22.9,364z
			 M30,361.9c0,1.2-1,2.2-2.2,2.2c-1.3,0-2.2-0.9-2.2-2.2c0-1.2,1-2.2,2.2-2.2C29.1,359.8,30,360.7,30,361.9z M26.8,361.9
			c0,0.6,0.4,1,1,1c0.6,0,1-0.4,1-1c0-0.6-0.4-1-1-1C27.2,361,26.8,361.4,26.8,361.9z"/>
	</g>
	<g>
		<path class="st0" d="M7.4,319.1H5.8v-5.9l-1.9,0.8v-1.5l3.4-1.4V319.1z"/>
		<path class="st0" d="M15.7,315.1c0,2.6-1.5,4.1-3.4,4.1c-1.9,0-3.4-1.5-3.4-4.1s1.5-4.1,3.4-4.1C14.2,311,15.7,312.5,15.7,315.1z
			 M10.5,315.1c0,1.7,0.8,2.7,1.8,2.7c1,0,1.8-0.9,1.8-2.7c0-1.7-0.8-2.7-1.8-2.7C11.3,312.5,10.5,313.4,10.5,315.1z"/>
		<path class="st0" d="M24,313.2c0,1.3-1,2.2-2.2,2.2c-1.3,0-2.2-0.9-2.2-2.2c0-1.2,1-2.2,2.2-2.2C23.1,311,24,311.9,24,313.2z
			 M20.8,313.2c0,0.6,0.4,1,1,1c0.6,0,1-0.4,1-1c0-0.6-0.4-1-1-1C21.2,312.2,20.8,312.6,20.8,313.2z M22.9,319.1h-1.5l5.3-8h1.5
			L22.9,319.1z M30,317.1c0,1.2-1,2.2-2.2,2.2c-1.3,0-2.2-0.9-2.2-2.2c0-1.2,1-2.2,2.2-2.2C29.1,314.9,30,315.8,30,317.1z
			 M26.8,317.1c0,0.6,0.4,1,1,1c0.6,0,1-0.4,1-1c0-0.6-0.4-1-1-1C27.2,316.1,26.8,316.5,26.8,317.1z"/>
	</g>
	<g>
		<path class="st0" d="M2.3,265.1c0.4-0.6,1.2-1.4,2.7-1.4c1.7,0,2.7,1,2.7,2.6c0,1-0.5,1.7-1.1,2.3l-1.7,1.8h3v1.4H2.6v-1.2
			l2.8-2.9c0.4-0.4,0.7-0.9,0.7-1.4c0-0.7-0.5-1.2-1.2-1.2c-0.8,0-1.2,0.4-1.6,0.9L2.3,265.1z"/>
		<path class="st0" d="M15.7,267.8c0,2.6-1.5,4.1-3.4,4.1c-1.9,0-3.4-1.5-3.4-4.1s1.5-4.1,3.4-4.1C14.2,263.7,15.7,265.2,15.7,267.8
			z M10.5,267.8c0,1.7,0.8,2.7,1.8,2.7c1,0,1.8-0.9,1.8-2.7c0-1.7-0.8-2.7-1.8-2.7C11.3,265.2,10.5,266.1,10.5,267.8z"/>
		<path class="st0" d="M24,265.8c0,1.3-1,2.2-2.2,2.2c-1.3,0-2.2-0.9-2.2-2.2c0-1.2,1-2.2,2.2-2.2C23.1,263.7,24,264.6,24,265.8z
			 M20.8,265.8c0,0.6,0.4,1,1,1c0.6,0,1-0.4,1-1c0-0.6-0.4-1-1-1C21.2,264.9,20.8,265.3,20.8,265.8z M22.9,271.8h-1.5l5.3-8h1.5
			L22.9,271.8z M30,269.8c0,1.2-1,2.2-2.2,2.2c-1.3,0-2.2-0.9-2.2-2.2c0-1.2,1-2.2,2.2-2.2C29.1,267.6,30,268.5,30,269.8z
			 M26.8,269.8c0,0.6,0.4,1,1,1c0.6,0,1-0.4,1-1c0-0.6-0.4-1-1-1C27.2,268.8,26.8,269.2,26.8,269.8z"/>
	</g>
	<g>
		<path class="st0" d="M7.6,218.7c0,0.8-0.4,1.5-1.2,1.8c0.8,0.3,1.4,1,1.4,1.8c0,1.6-1.4,2.3-2.9,2.3c-1.2,0-2.2-0.4-2.8-1.2l0.9-1
			c0.5,0.5,1.1,0.8,1.8,0.8c0.8,0,1.4-0.3,1.4-1c0-0.7-0.7-1-1.6-1H3.7v-1.4h0.9c0.8,0,1.4-0.3,1.4-1c0-0.6-0.6-1-1.3-1
			c-0.7,0-1.3,0.4-1.6,0.8l-1-1c0.5-0.7,1.4-1.2,2.7-1.2C6.5,216.4,7.6,217.3,7.6,218.7z"/>
		<path class="st0" d="M15.7,220.5c0,2.6-1.5,4.1-3.4,4.1c-1.9,0-3.4-1.5-3.4-4.1s1.5-4.1,3.4-4.1C14.2,216.4,15.7,217.9,15.7,220.5
			z M10.5,220.5c0,1.7,0.8,2.7,1.8,2.7c1,0,1.8-0.9,1.8-2.7c0-1.7-0.8-2.7-1.8-2.7C11.3,217.8,10.5,218.8,10.5,220.5z"/>
		<path class="st0" d="M24,218.5c0,1.3-1,2.2-2.2,2.2c-1.3,0-2.2-0.9-2.2-2.2c0-1.2,1-2.2,2.2-2.2C23.1,216.4,24,217.3,24,218.5z
			 M20.8,218.5c0,0.6,0.4,1,1,1c0.6,0,1-0.4,1-1c0-0.6-0.4-1-1-1C21.2,217.6,20.8,218,20.8,218.5z M22.9,224.5h-1.5l5.3-8h1.5
			L22.9,224.5z M30,222.5c0,1.2-1,2.2-2.2,2.2c-1.3,0-2.2-0.9-2.2-2.2c0-1.2,1-2.2,2.2-2.2C29.1,220.3,30,221.2,30,222.5z
			 M26.8,222.5c0,0.6,0.4,1,1,1c0.6,0,1-0.4,1-1c0-0.6-0.4-1-1-1C27.2,221.5,26.8,221.9,26.8,222.5z"/>
	</g>
	<g>
		<path class="st0" d="M6.9,174.3h1.1v1.4H6.9v1.5H5.4v-1.5H1.9v-1.1l2.8-5.4h1.7l-2.7,5.1h1.7v-2.1h1.5V174.3z"/>
		<path class="st0" d="M15.7,173.2c0,2.6-1.5,4.1-3.4,4.1c-1.9,0-3.4-1.5-3.4-4.1s1.5-4.1,3.4-4.1C14.2,169.1,15.7,170.6,15.7,173.2
			z M10.5,173.2c0,1.7,0.8,2.7,1.8,2.7c1,0,1.8-0.9,1.8-2.7c0-1.7-0.8-2.7-1.8-2.7C11.3,170.5,10.5,171.4,10.5,173.2z"/>
		<path class="st0" d="M24,171.2c0,1.3-1,2.2-2.2,2.2c-1.3,0-2.2-0.9-2.2-2.2c0-1.2,1-2.2,2.2-2.2C23.1,169.1,24,170,24,171.2z
			 M20.8,171.2c0,0.6,0.4,1,1,1c0.6,0,1-0.4,1-1c0-0.6-0.4-1-1-1C21.2,170.3,20.8,170.7,20.8,171.2z M22.9,177.2h-1.5l5.3-8h1.5
			L22.9,177.2z M30,175.1c0,1.2-1,2.2-2.2,2.2c-1.3,0-2.2-0.9-2.2-2.2c0-1.2,1-2.2,2.2-2.2C29.1,173,30,173.9,30,175.1z M26.8,175.1
			c0,0.6,0.4,1,1,1c0.6,0,1-0.4,1-1c0-0.6-0.4-1-1-1C27.2,174.2,26.8,174.6,26.8,175.1z"/>
	</g>
	<g>
		<path class="st0" d="M7.3,123.3H4.1l0,1.6H5c1.9,0,2.8,1.1,2.8,2.4c0,1.7-1.3,2.7-2.9,2.7c-1.2,0-2.2-0.4-2.8-1.2l0.9-1.1
			c0.4,0.5,1.2,0.8,1.9,0.8c0.9,0,1.3-0.5,1.3-1.2c0-0.6-0.4-1.1-1.6-1.1H2.7l0.1-4.4h4.6V123.3z"/>
		<path class="st0" d="M15.7,125.9c0,2.6-1.5,4.1-3.4,4.1c-1.9,0-3.4-1.5-3.4-4.1c0-2.6,1.5-4.1,3.4-4.1
			C14.2,121.8,15.7,123.3,15.7,125.9z M10.5,125.9c0,1.7,0.8,2.7,1.8,2.7c1,0,1.8-0.9,1.8-2.7s-0.8-2.7-1.8-2.7
			C11.3,123.2,10.5,124.1,10.5,125.9z"/>
		<path class="st0" d="M24,123.9c0,1.3-1,2.2-2.2,2.2c-1.3,0-2.2-0.9-2.2-2.2c0-1.2,1-2.2,2.2-2.2C23.1,121.8,24,122.7,24,123.9z
			 M20.8,123.9c0,0.6,0.4,1,1,1c0.6,0,1-0.4,1-1c0-0.6-0.4-1-1-1C21.2,122.9,20.8,123.4,20.8,123.9z M22.9,129.9h-1.5l5.3-8h1.5
			L22.9,129.9z M30,127.8c0,1.2-1,2.2-2.2,2.2c-1.3,0-2.2-0.9-2.2-2.2c0-1.2,1-2.2,2.2-2.2C29.1,125.7,30,126.6,30,127.8z
			 M26.8,127.8c0,0.6,0.4,1,1,1c0.6,0,1-0.4,1-1c0-0.6-0.4-1-1-1C27.2,126.8,26.8,127.3,26.8,127.8z"/>
	</g>
	<g>
		<path class="st0" d="M4.8,77.4c0.1,0,0.2,0,0.4,0c1.6,0,2.8,1.2,2.8,2.6c0,1.6-1.3,2.7-3,2.7c-1.7,0-3-1.1-3-2.7
			c0-0.7,0.3-1.4,0.8-2.1l2.2-3.3h1.9L4.8,77.4z M3.5,80c0,0.8,0.6,1.3,1.4,1.3c0.8,0,1.4-0.5,1.4-1.3c0-0.8-0.6-1.3-1.4-1.3
			C4.1,78.7,3.5,79.2,3.5,80z"/>
		<path class="st0" d="M15.7,78.6c0,2.6-1.5,4.1-3.4,4.1c-1.9,0-3.4-1.5-3.4-4.1c0-2.6,1.5-4.1,3.4-4.1C14.2,74.4,15.7,76,15.7,78.6
			z M10.5,78.6c0,1.7,0.8,2.7,1.8,2.7c1,0,1.8-0.9,1.8-2.7c0-1.7-0.8-2.7-1.8-2.7C11.3,75.9,10.5,76.8,10.5,78.6z"/>
		<path class="st0" d="M24,76.6c0,1.3-1,2.2-2.2,2.2c-1.3,0-2.2-0.9-2.2-2.2c0-1.2,1-2.2,2.2-2.2C23.1,74.4,24,75.4,24,76.6z
			 M20.8,76.6c0,0.6,0.4,1,1,1c0.6,0,1-0.4,1-1c0-0.6-0.4-1-1-1C21.2,75.6,20.8,76,20.8,76.6z M22.9,82.6h-1.5l5.3-8h1.5L22.9,82.6z
			 M30,80.5c0,1.2-1,2.2-2.2,2.2c-1.3,0-2.2-0.9-2.2-2.2c0-1.2,1-2.2,2.2-2.2C29.1,78.4,30,79.3,30,80.5z M26.8,80.5
			c0,0.6,0.4,1,1,1c0.6,0,1-0.4,1-1c0-0.6-0.4-1-1-1C27.2,79.5,26.8,80,26.8,80.5z"/>
	</g>
	<g>
		<path class="st0" d="M8,28.5l-3.3,6.8H2.9l3.3-6.5H2.4v-1.4H8V28.5z"/>
		<path class="st0" d="M15.7,31.3c0,2.6-1.5,4.1-3.4,4.1c-1.9,0-3.4-1.5-3.4-4.1c0-2.6,1.5-4.1,3.4-4.1
			C14.2,27.1,15.7,28.7,15.7,31.3z M10.5,31.3c0,1.7,0.8,2.7,1.8,2.7c1,0,1.8-0.9,1.8-2.7c0-1.7-0.8-2.7-1.8-2.7
			C11.3,28.6,10.5,29.5,10.5,31.3z"/>
		<path class="st0" d="M24,29.3c0,1.3-1,2.2-2.2,2.2c-1.3,0-2.2-0.9-2.2-2.2c0-1.2,1-2.2,2.2-2.2C23.1,27.1,24,28.1,24,29.3z
			 M20.8,29.3c0,0.6,0.4,1,1,1c0.6,0,1-0.4,1-1c0-0.6-0.4-1-1-1C21.2,28.3,20.8,28.7,20.8,29.3z M22.9,35.2h-1.5l5.3-8h1.5
			L22.9,35.2z M30,33.2c0,1.2-1,2.2-2.2,2.2c-1.3,0-2.2-0.9-2.2-2.2c0-1.2,1-2.2,2.2-2.2C29.1,31,30,32,30,33.2z M26.8,33.2
			c0,0.6,0.4,1,1,1c0.6,0,1-0.4,1-1c0-0.6-0.4-1-1-1C27.2,32.2,26.8,32.6,26.8,33.2z"/>
	</g>
	<line class="st3" x1="44.8" y1="362.9" x2="44.8" y2="31.8"/>
	<line class="st4" x1="43.8" y1="315.6" x2="1082.8" y2="315.6"/>
	<line class="st4" x1="43.8" y1="268.3" x2="1082.8" y2="268.3"/>
	<line class="st4" x1="43.8" y1="221" x2="1082.8" y2="221"/>
	<line class="st4" x1="43.8" y1="173.7" x2="1082.8" y2="173.7"/>
	<line class="st4" x1="43.8" y1="126.4" x2="1082.8" y2="126.4"/>
	<line class="st4" x1="43.8" y1="79.1" x2="1082.8" y2="79.1"/>
	<line class="st4" x1="43.8" y1="31.8" x2="1082.8" y2="31.8"/>
	<g>
		<rect x="133.7" y="112.2" class="st2" width="25" height="250.7"/>
		<rect x="94" y="69.6" class="st1" width="25" height="293.3"/>
	</g>
	<g>
		<rect x="352.5" y="334.5" class="st2" width="25" height="28.4"/>
		<rect x="312.4" y="192.6" class="st1" width="25" height="170.3"/>
	</g>
	<g>
		<rect x="560.3" y="325.1" class="st2" width="25" height="37.8"/>
		<rect x="520.2" y="202.1" class="st1" width="25" height="160.8"/>
	</g>
	<g>
		<rect x="768.1" y="348.7" class="st2" width="25" height="14.2"/>
		<rect x="728" y="263.6" class="st1" width="25" height="99.3"/>
	</g>
	<g>
		<rect x="975.9" y="353.5" class="st2" width="25" height="9.5"/>
		<rect x="935.8" y="116.9" class="st1" width="25" height="246"/>
	</g>
	<line class="st5" x1="43.8" y1="362.9" x2="1082.8" y2="362.9"/>
	<g>
		<g>
			<line class="st3" x1="43.8" y1="362.9" x2="43.8" y2="354.6"/>
			<line class="st3" x1="251.6" y1="362.9" x2="251.6" y2="354.6"/>
			<line class="st3" x1="459.4" y1="362.9" x2="459.4" y2="354.6"/>
			<line class="st3" x1="667.2" y1="362.9" x2="667.2" y2="354.6"/>
			<line class="st3" x1="875" y1="362.9" x2="875" y2="354.6"/>
			<line class="st3" x1="1082.8" y1="362.9" x2="1082.8" y2="354.6"/>
		</g>
	</g>
	<g>
		<path class="st0" d="M95.1,51.4c0.2,0,0.4,0,0.6,0c2.6,0,4.4,1.8,4.4,4.2c0,2.5-2,4.3-4.7,4.3c-2.7,0-4.7-1.8-4.7-4.2
			c0-1.2,0.4-2.2,1.2-3.3l3.5-5.2h2.9L95.1,51.4z M93.1,55.6c0,1.2,0.9,2.1,2.2,2.1c1.3,0,2.2-0.8,2.2-2.1c0-1.2-0.9-2.1-2.2-2.1
			C94,53.5,93.1,54.3,93.1,55.6z"/>
		<path class="st0" d="M101.2,48.9c0.7-0.9,2-2.2,4.3-2.2c2.6,0,4.3,1.7,4.3,4.1c0,1.5-0.8,2.6-1.8,3.7l-2.7,2.8h4.8v2.3h-8.3v-1.9
			l4.5-4.6c0.7-0.7,1-1.4,1-2.2c0-1.1-0.8-1.9-1.9-1.9c-1.2,0-1.9,0.6-2.6,1.4L101.2,48.9z"/>
		<path class="st0" d="M121.4,52.4c0,1.5-1.2,2.7-2.8,2.7s-2.8-1.1-2.8-2.7c0-1.5,1.2-2.7,2.8-2.7S121.4,50.9,121.4,52.4z
			 M117.5,52.4c0,0.6,0.5,1.1,1.1,1.1s1.1-0.4,1.1-1.1c0-0.6-0.5-1.1-1.1-1.1S117.5,51.8,117.5,52.4z M119.9,59.6h-2.1l7-9.6h2.1
			L119.9,59.6z M129.1,57.1c0,1.5-1.2,2.7-2.8,2.7c-1.6,0-2.8-1.1-2.8-2.7c0-1.5,1.2-2.7,2.8-2.7C127.8,54.5,129.1,55.6,129.1,57.1z
			 M125.2,57.1c0,0.6,0.5,1.1,1.1,1.1c0.6,0,1.1-0.5,1.1-1.1c0-0.6-0.5-1.1-1.1-1.1C125.6,56.1,125.2,56.5,125.2,57.1z"/>
	</g>
	<g>
		<path class="st0" d="M140,91.8h-5.1l-0.1,2.5h1.4c2.9,0,4.4,1.7,4.4,3.8c0,2.7-2.1,4.3-4.6,4.3c-1.9,0-3.4-0.7-4.5-1.9l1.4-1.7
			c0.7,0.7,1.9,1.3,3.1,1.3c1.4,0,2.1-0.8,2.1-1.8c0-0.9-0.6-1.8-2.6-1.8h-3l0.1-7h7.2V91.8z"/>
		<path class="st0" d="M150.8,93c0,1.3-0.7,2.3-1.9,2.9c1.3,0.5,2.2,1.5,2.2,2.9c0,2.5-2.3,3.7-4.6,3.7c-1.9,0-3.4-0.7-4.4-1.8
			l1.5-1.6c0.7,0.8,1.8,1.2,2.9,1.2c1.2,0,2.2-0.5,2.2-1.6c0-1.1-1.1-1.6-2.5-1.6h-1.5v-2.2h1.5c1.2,0,2.2-0.5,2.2-1.6
			c0-1-0.9-1.6-2.1-1.6c-1.2,0-2,0.6-2.5,1.3l-1.5-1.5c0.8-1.1,2.2-2,4.2-2C149,89.4,150.8,90.8,150.8,93z"/>
		<path class="st0" d="M162.6,95c0,1.5-1.2,2.7-2.8,2.7s-2.8-1.1-2.8-2.7c0-1.5,1.2-2.7,2.8-2.7S162.6,93.5,162.6,95z M158.7,95
			c0,0.6,0.5,1.1,1.1,1.1s1.1-0.4,1.1-1.1c0-0.6-0.5-1.1-1.1-1.1S158.7,94.4,158.7,95z M161.1,102.2H159l7-9.6h2.1L161.1,102.2z
			 M170.2,99.7c0,1.5-1.2,2.7-2.8,2.7c-1.6,0-2.8-1.1-2.8-2.7c0-1.5,1.2-2.7,2.8-2.7C169,97,170.2,98.2,170.2,99.7z M166.3,99.7
			c0,0.6,0.5,1.1,1.1,1.1c0.6,0,1.1-0.5,1.1-1.1c0-0.6-0.5-1.1-1.1-1.1C166.8,98.6,166.3,99.1,166.3,99.7z"/>
	</g>
	<g>
		<path class="st0" d="M316.5,174.3c0,1.3-0.7,2.3-1.9,2.9c1.3,0.5,2.2,1.5,2.2,2.9c0,2.5-2.3,3.7-4.6,3.7c-1.9,0-3.4-0.7-4.4-1.8
			l1.5-1.6c0.7,0.8,1.8,1.2,2.9,1.2c1.2,0,2.2-0.5,2.2-1.6c0-1.1-1.1-1.6-2.5-1.6h-1.5V176h1.5c1.2,0,2.2-0.5,2.2-1.6
			c0-1-0.9-1.6-2.1-1.6c-1.2,0-2,0.6-2.5,1.3l-1.5-1.5c0.8-1.1,2.2-2,4.2-2C314.6,170.6,316.5,172.1,316.5,174.3z"/>
		<path class="st0" d="M322.6,175.2c0.2,0,0.4,0,0.6,0c2.6,0,4.4,1.8,4.4,4.2c0,2.5-2,4.3-4.7,4.3c-2.7,0-4.7-1.8-4.7-4.2
			c0-1.2,0.4-2.2,1.2-3.3l3.5-5.2h2.9L322.6,175.2z M320.6,179.4c0,1.2,0.9,2.1,2.2,2.1c1.3,0,2.2-0.8,2.2-2.1
			c0-1.2-0.9-2.1-2.2-2.1C321.6,177.3,320.6,178.2,320.6,179.4z"/>
		<path class="st0" d="M338.8,176.3c0,1.5-1.2,2.7-2.8,2.7s-2.8-1.1-2.8-2.7c0-1.5,1.2-2.7,2.8-2.7S338.8,174.8,338.8,176.3z
			 M334.9,176.3c0,0.6,0.5,1.1,1.1,1.1s1.1-0.4,1.1-1.1s-0.5-1.1-1.1-1.1S334.9,175.7,334.9,176.3z M337.4,183.5h-2.1l7-9.6h2.1
			L337.4,183.5z M346.5,181c0,1.5-1.2,2.7-2.8,2.7c-1.6,0-2.8-1.1-2.8-2.7c0-1.5,1.2-2.7,2.8-2.7C345.3,178.3,346.5,179.5,346.5,181
			z M342.6,181c0,0.6,0.5,1.1,1.1,1.1c0.6,0,1.1-0.5,1.1-1.1s-0.5-1.1-1.1-1.1C343,179.9,342.6,180.4,342.6,181z"/>
	</g>
	<g>
		<path class="st0" d="M524.3,182.6c0,1.3-0.7,2.3-1.9,2.9c1.3,0.5,2.2,1.5,2.2,2.9c0,2.5-2.3,3.7-4.6,3.7c-1.9,0-3.4-0.7-4.4-1.8
			l1.5-1.6c0.7,0.8,1.8,1.2,2.9,1.2c1.2,0,2.2-0.5,2.2-1.6c0-1.1-1.1-1.6-2.5-1.6h-1.5v-2.2h1.5c1.2,0,2.2-0.5,2.2-1.6
			c0-1-0.9-1.6-2.1-1.6c-1.2,0-2,0.6-2.5,1.3l-1.5-1.5c0.8-1.1,2.2-2,4.2-2C522.5,179,524.3,180.5,524.3,182.6z"/>
		<path class="st0" d="M533.8,187.3h1.8v2.3h-1.8v2.3h-2.4v-2.3h-5.6v-1.8l4.4-8.5h2.7l-4.2,8h2.7v-3.4h2.4V187.3z"/>
		<path class="st0" d="M546.6,184.7c0,1.5-1.2,2.7-2.8,2.7s-2.8-1.1-2.8-2.7c0-1.5,1.2-2.7,2.8-2.7S546.6,183.2,546.6,184.7z
			 M542.7,184.7c0,0.6,0.5,1.1,1.1,1.1s1.1-0.5,1.1-1.1c0-0.6-0.5-1.1-1.1-1.1S542.7,184.1,542.7,184.7z M545.1,191.9H543l7-9.6h2.1
			L545.1,191.9z M554.2,189.4c0,1.5-1.2,2.7-2.8,2.7c-1.6,0-2.8-1.1-2.8-2.7c0-1.5,1.2-2.7,2.8-2.7
			C553,186.7,554.2,187.9,554.2,189.4z M550.3,189.4c0,0.6,0.5,1.1,1.1,1.1c0.6,0,1.1-0.5,1.1-1.1c0-0.6-0.5-1.1-1.1-1.1
			C550.8,188.3,550.3,188.8,550.3,189.4z"/>
	</g>
	<g>
		<path class="st0" d="M725.1,242.9c0.7-0.9,2-2.2,4.3-2.2c2.6,0,4.3,1.7,4.3,4.1c0,1.5-0.8,2.6-1.8,3.7l-2.7,2.8h4.8v2.3h-8.3v-1.9
			l4.5-4.6c0.7-0.7,1-1.4,1-2.2c0-1.1-0.8-1.9-1.9-1.9c-1.2,0-1.9,0.6-2.6,1.4L725.1,242.9z"/>
		<path class="st0" d="M740.6,253.6h-2.4v-9.4l-3,1.2V243l5.4-2.2V253.6z"/>
		<path class="st0" d="M752.7,246.4c0,1.5-1.2,2.7-2.8,2.7s-2.8-1.1-2.8-2.7c0-1.5,1.2-2.7,2.8-2.7S752.7,244.9,752.7,246.4z
			 M748.8,246.4c0,0.6,0.5,1.1,1.1,1.1s1.1-0.5,1.1-1.1c0-0.6-0.5-1.1-1.1-1.1S748.8,245.8,748.8,246.4z M751.3,253.6h-2.1l7-9.6
			h2.1L751.3,253.6z M760.4,251.1c0,1.5-1.2,2.7-2.8,2.7c-1.6,0-2.8-1.1-2.8-2.7c0-1.5,1.2-2.7,2.8-2.7
			C759.2,248.5,760.4,249.6,760.4,251.1z M756.5,251.1c0,0.6,0.5,1.1,1.1,1.1c0.6,0,1.1-0.5,1.1-1.1c0-0.6-0.5-1.1-1.1-1.1
			C756.9,250.1,756.5,250.5,756.5,251.1z"/>
	</g>
	<g>
		<path class="st0" d="M939.7,96.6h-5.1l-0.1,2.5h1.4c2.9,0,4.4,1.7,4.4,3.8c0,2.7-2.1,4.3-4.6,4.3c-1.9,0-3.4-0.7-4.5-1.9l1.4-1.7
			c0.7,0.7,1.9,1.3,3.1,1.3c1.4,0,2.1-0.8,2.1-1.8c0-0.9-0.6-1.8-2.6-1.8h-3l0.1-7h7.2V96.6z"/>
		<path class="st0" d="M941.9,96.3c0.7-0.9,2-2.2,4.3-2.2c2.6,0,4.3,1.7,4.3,4.1c0,1.5-0.8,2.6-1.8,3.7l-2.7,2.8h4.8v2.3h-8.3V105
			l4.5-4.6c0.7-0.7,1-1.4,1-2.2c0-1.1-0.8-1.9-1.9-1.9c-1.2,0-1.9,0.6-2.6,1.4L941.9,96.3z"/>
		<path class="st0" d="M962.1,99.7c0,1.5-1.2,2.7-2.8,2.7s-2.8-1.1-2.8-2.7c0-1.5,1.2-2.7,2.8-2.7S962.1,98.2,962.1,99.7z
			 M958.2,99.7c0,0.6,0.5,1.1,1.1,1.1s1.1-0.4,1.1-1.1c0-0.6-0.5-1.1-1.1-1.1S958.2,99.1,958.2,99.7z M960.6,106.9h-2.1l7-9.6h2.1
			L960.6,106.9z M969.7,104.4c0,1.5-1.2,2.7-2.8,2.7c-1.6,0-2.8-1.1-2.8-2.7c0-1.5,1.2-2.7,2.8-2.7
			C968.5,101.8,969.7,102.9,969.7,104.4z M965.8,104.4c0,0.6,0.5,1.1,1.1,1.1c0.6,0,1.1-0.5,1.1-1.1c0-0.6-0.5-1.1-1.1-1.1
			C966.3,103.4,965.8,103.8,965.8,104.4z"/>
	</g>
	<g>
		<path class="st0" d="M976.7,332.8c0.7-0.9,2-2.2,4.3-2.2c2.6,0,4.3,1.7,4.3,4.1c0,1.5-0.8,2.6-1.8,3.7l-2.7,2.8h4.8v2.3h-8.3v-1.9
			l4.5-4.6c0.7-0.7,1-1.4,1-2.2c0-1.1-0.8-1.9-1.9-1.9c-1.2,0-1.9,0.6-2.6,1.4L976.7,332.8z"/>
		<path class="st0" d="M997,336.3c0,1.5-1.2,2.7-2.8,2.7s-2.8-1.1-2.8-2.7c0-1.5,1.2-2.7,2.8-2.7S997,334.8,997,336.3z M993.1,336.3
			c0,0.6,0.5,1.1,1.1,1.1s1.1-0.5,1.1-1.1c0-0.6-0.5-1.1-1.1-1.1S993.1,335.7,993.1,336.3z M995.5,343.5h-2.1l7-9.6h2.1L995.5,343.5
			z M1004.6,341c0,1.5-1.2,2.7-2.8,2.7c-1.6,0-2.8-1.1-2.8-2.7c0-1.5,1.2-2.7,2.8-2.7C1003.4,338.3,1004.6,339.4,1004.6,341z
			 M1000.7,341c0,0.6,0.5,1.1,1.1,1.1c0.6,0,1.1-0.5,1.1-1.1c0-0.6-0.5-1.1-1.1-1.1C1001.2,339.9,1000.7,340.4,1000.7,341z"/>
	</g>
	<g>
		<path class="st0" d="M357.6,316.3c0.2,0,0.4,0,0.6,0c2.6,0,4.4,1.8,4.4,4.2c0,2.5-2,4.3-4.7,4.3c-2.7,0-4.7-1.8-4.7-4.2
			c0-1.2,0.4-2.2,1.2-3.3l3.5-5.2h2.9L357.6,316.3z M355.6,320.5c0,1.2,0.9,2.1,2.2,2.1c1.3,0,2.2-0.8,2.2-2.1
			c0-1.2-0.9-2.1-2.2-2.1C356.5,318.4,355.6,319.3,355.6,320.5z"/>
		<path class="st0" d="M373.8,317.4c0,1.5-1.2,2.7-2.8,2.7s-2.8-1.1-2.8-2.7c0-1.5,1.2-2.7,2.8-2.7S373.8,315.8,373.8,317.4z
			 M369.9,317.4c0,0.6,0.5,1.1,1.1,1.1s1.1-0.4,1.1-1.1s-0.5-1.1-1.1-1.1S369.9,316.8,369.9,317.4z M372.3,324.5h-2.1l7-9.6h2.1
			L372.3,324.5z M381.4,322.1c0,1.5-1.2,2.7-2.8,2.7c-1.6,0-2.8-1.1-2.8-2.7c0-1.5,1.2-2.7,2.8-2.7
			C380.2,319.4,381.4,320.5,381.4,322.1z M377.6,322.1c0,0.6,0.5,1.1,1.1,1.1c0.6,0,1.1-0.5,1.1-1.1s-0.5-1.1-1.1-1.1
			C378,321,377.6,321.4,377.6,322.1z"/>
	</g>
	<g>
		<path class="st0" d="M570.2,306.1c0,1.4-0.8,2.3-1.9,2.9c1.2,0.5,2.2,1.4,2.2,2.9c0,2.3-2.2,3.7-4.9,3.7s-4.9-1.4-4.9-3.7
			c0-1.5,1-2.4,2.2-2.9c-1.1-0.5-1.9-1.4-1.9-2.9c0-2.3,2.1-3.6,4.6-3.6S570.2,303.8,570.2,306.1z M563.3,311.6c0,1.1,1,1.7,2.3,1.7
			c1.3,0,2.3-0.6,2.3-1.7c0-1.1-1.1-1.7-2.3-1.7C564.3,309.9,563.3,310.5,563.3,311.6z M563.6,306.3c0,1.1,0.9,1.7,2,1.7
			s2-0.6,2-1.7c0-1-0.9-1.6-2-1.6S563.6,305.2,563.6,306.3z"/>
		<path class="st0" d="M582,308.1c0,1.5-1.2,2.7-2.8,2.7s-2.8-1.1-2.8-2.7c0-1.5,1.2-2.7,2.8-2.7S582,306.6,582,308.1z M578.1,308.1
			c0,0.6,0.5,1.1,1.1,1.1s1.1-0.5,1.1-1.1c0-0.6-0.5-1.1-1.1-1.1S578.1,307.5,578.1,308.1z M580.5,315.3h-2.1l7-9.6h2.1L580.5,315.3
			z M589.6,312.8c0,1.5-1.2,2.7-2.8,2.7c-1.6,0-2.8-1.1-2.8-2.7c0-1.5,1.2-2.7,2.8-2.7C588.4,310.1,589.6,311.3,589.6,312.8z
			 M585.8,312.8c0,0.6,0.5,1.1,1.1,1.1c0.6,0,1.1-0.5,1.1-1.1c0-0.6-0.5-1.1-1.1-1.1C586.2,311.7,585.8,312.2,585.8,312.8z"/>
	</g>
	<g>
		<path class="st0" d="M777.5,329.5c0,1.3-0.7,2.3-1.9,2.9c1.3,0.5,2.2,1.5,2.2,2.9c0,2.5-2.3,3.7-4.6,3.7c-1.9,0-3.4-0.7-4.4-1.8
			l1.5-1.6c0.7,0.8,1.8,1.2,2.9,1.2c1.2,0,2.2-0.5,2.2-1.6c0-1.1-1.1-1.6-2.5-1.6h-1.5v-2.2h1.5c1.2,0,2.2-0.5,2.2-1.6
			c0-1-0.9-1.6-2.1-1.6c-1.2,0-2,0.6-2.5,1.3l-1.5-1.5c0.8-1.1,2.2-2,4.2-2C775.7,325.9,777.5,327.3,777.5,329.5z"/>
		<path class="st0" d="M789.2,331.5c0,1.5-1.2,2.7-2.8,2.7s-2.8-1.1-2.8-2.7c0-1.5,1.2-2.7,2.8-2.7S789.2,330,789.2,331.5z
			 M785.3,331.5c0,0.6,0.5,1.1,1.1,1.1s1.1-0.4,1.1-1.1s-0.5-1.1-1.1-1.1S785.3,331,785.3,331.5z M787.8,338.7h-2.1l7-9.6h2.1
			L787.8,338.7z M796.9,336.2c0,1.5-1.2,2.7-2.8,2.7c-1.6,0-2.8-1.1-2.8-2.7c0-1.5,1.2-2.7,2.8-2.7
			C795.7,333.6,796.9,334.7,796.9,336.2z M793,336.2c0,0.6,0.5,1.1,1.1,1.1c0.6,0,1.1-0.5,1.1-1.1s-0.5-1.1-1.1-1.1
			C793.4,335.2,793,335.6,793,336.2z"/>
	</g>
	<g>
		<path class="st0" d="M86,397.4H75.6v-14H86v2.6h-7.6v3.1h7.2v2.6h-7.2v3.2H86V397.4z M78.9,382.3l2-3.1H84l-2.6,3.1H78.9z"/>
		<path class="st0" d="M95.7,390.1h-3.5v3.5c0,1.2,0.6,1.6,1.4,1.6c0.6,0,1.3-0.3,1.8-0.6l1,2c-0.8,0.6-1.8,1-3.2,1
			c-2.4,0-3.6-1.4-3.6-3.9v-3.7h-1.9v-2.3h1.9v-2.9h2.6v2.9h3.5V390.1z"/>
		<path class="st0" d="M107.5,397.4H105v-1.1c-0.6,0.8-1.6,1.3-2.9,1.3c-2.7,0-4.7-2.2-4.7-5.1c0-2.9,2-5.1,4.7-5.1
			c1.3,0,2.3,0.5,2.9,1.3v-1.1h2.5V397.4z M100.1,392.6c0,1.5,1,2.7,2.5,2.7c1.5,0,2.5-1.1,2.5-2.7c0-1.5-1-2.7-2.5-2.7
			C101.1,389.9,100.1,391.1,100.1,392.6z"/>
		<path class="st0" d="M117.3,390.1h-3.5v3.5c0,1.2,0.6,1.6,1.4,1.6c0.6,0,1.3-0.3,1.8-0.6l1,2c-0.8,0.6-1.8,1-3.2,1
			c-2.4,0-3.6-1.4-3.6-3.9v-3.7h-1.9v-2.3h1.9v-2.9h2.6v2.9h3.5V390.1z"/>
		<path class="st0" d="M126.6,390.5c-0.8-0.4-2-0.8-3.1-0.8c-1,0-1.5,0.3-1.5,0.9c0,0.6,0.7,0.7,1.6,0.8l0.9,0.1
			c2.1,0.3,3.3,1.3,3.3,2.9c0,2-1.6,3.3-4.4,3.3c-1.3,0-3-0.2-4.3-1.1l1-2c0.8,0.5,1.8,0.9,3.3,0.9c1.2,0,1.8-0.3,1.8-0.9
			c0-0.5-0.5-0.7-1.6-0.9l-0.8-0.1c-2.2-0.3-3.3-1.3-3.3-2.9c0-2,1.5-3.2,4.1-3.2c1.5,0,2.8,0.3,4,0.9L126.6,390.5z"/>
		<path class="st0" d="M135.4,393.3h-5.9V391h5.9V393.3z"/>
		<path class="st0" d="M150,391.9c0,3.9-2.5,5.8-6,5.8c-3.6,0-6-2-6-5.8v-8.4h2.8v8.3c0,2.3,1.3,3.3,3.2,3.3s3.2-1,3.2-3.3v-8.3h2.8
			V391.9z"/>
		<path class="st0" d="M162,391.3v6.2h-2.6v-5.3c0-1.4-0.7-2.2-1.9-2.2c-1.1,0-2,0.7-2,2.2v5.3h-2.6v-9.7h2.5v1.1
			c0.7-1,1.7-1.4,2.8-1.4C160.4,387.5,162,389,162,391.3z"/>
		<path class="st0" d="M167.6,384.6c0,0.9-0.7,1.7-1.7,1.7s-1.7-0.7-1.7-1.7s0.7-1.7,1.7-1.7S167.6,383.6,167.6,384.6z M167.2,397.4
			h-2.6v-9.7h2.6V397.4z"/>
		<path class="st0" d="M176.9,390.5c-0.8-0.4-2-0.8-3.1-0.8c-1,0-1.5,0.3-1.5,0.9c0,0.6,0.7,0.7,1.6,0.8l0.9,0.1
			c2.1,0.3,3.3,1.3,3.3,2.9c0,2-1.6,3.3-4.4,3.3c-1.3,0-3-0.2-4.3-1.1l1-2c0.8,0.5,1.8,0.9,3.3,0.9c1.2,0,1.8-0.3,1.8-0.9
			c0-0.5-0.5-0.7-1.6-0.9l-0.8-0.1c-2.2-0.3-3.3-1.3-3.3-2.9c0-2,1.5-3.2,4.1-3.2c1.5,0,2.8,0.3,4,0.9L176.9,390.5z"/>
	</g>
	<g>
		<path class="st0" d="M287.2,383.4c3.3,0,5.1,1.6,5.1,4.3c0,2.3-1.6,3.9-4.3,4.1l4.3,5.6h-3.4l-4.1-5.6H284v5.6h-2.8v-14H287.2z
			 M284,386v3.4h3.1c1.5,0,2.3-0.6,2.3-1.7c0-1.2-0.8-1.7-2.3-1.7H284z"/>
		<path class="st0" d="M304.5,392.6c0,2.9-2.2,5.1-5.2,5.1c-3,0-5.2-2.2-5.2-5.1c0-2.9,2.2-5.1,5.2-5.1
			C302.3,387.5,304.5,389.7,304.5,392.6z M296.7,392.6c0,1.6,1.1,2.7,2.6,2.7c1.5,0,2.6-1.1,2.6-2.7c0-1.6-1.1-2.7-2.6-2.7
			C297.8,389.9,296.7,391,296.7,392.6z"/>
		<path class="st0" d="M309.1,401.5h-2.9l3.4-6.1l-4.2-7.6h3l2.7,5l2.6-5h2.9L309.1,401.5z"/>
		<path class="st0" d="M327.5,397.4h-2.5v-1.1c-0.6,0.8-1.6,1.3-2.9,1.3c-2.7,0-4.7-2.2-4.7-5.1c0-2.9,2-5.1,4.7-5.1
			c1.3,0,2.3,0.5,2.9,1.3v-1.1h2.5V397.4z M320,392.6c0,1.5,1,2.7,2.5,2.7c1.5,0,2.5-1.1,2.5-2.7c0-1.5-1-2.7-2.5-2.7
			C321,389.9,320,391.1,320,392.6z"/>
		<path class="st0" d="M339.3,393.3c0,3.1-2.2,4.4-4.6,4.4c-2.4,0-4.6-1.3-4.6-4.4v-5.6h2.6v5.3c0,1.5,0.8,2.2,2,2.2
			c1.1,0,2-0.6,2-2.2v-5.3h2.6V393.3z"/>
		<path class="st0" d="M357.6,391.3v6.2H355v-5.3c0-1.4-0.7-2.2-1.9-2.2c-1.1,0-2,0.7-2,2.2v5.3h-2.6v-5.3c0-1.4-0.7-2.2-1.9-2.2
			c-1.1,0-2,0.7-2,2.2v5.3H342v-9.7h2.5v1.1c0.7-1,1.7-1.4,2.8-1.4c1.4,0,2.5,0.6,3.2,1.7c0.8-1.2,2-1.7,3.3-1.7
			C356.1,387.5,357.6,389,357.6,391.3z"/>
		<path class="st0" d="M369.3,392.6c0,0.3,0,0.7,0,0.9h-6.9c0.3,1.4,1.3,2,2.5,2c0.8,0,1.7-0.3,2.4-0.9l1.5,1.7
			c-1.1,1-2.5,1.5-4.1,1.5c-3,0-5-2-5-5.1c0-3,2-5.1,4.9-5.1C367.4,387.5,369.3,389.6,369.3,392.6z M362.4,391.7h4.3
			c-0.2-1.2-1-1.9-2.1-1.9C363.4,389.7,362.6,390.5,362.4,391.7z"/>
		<path class="st0" d="M377.1,393.3h-5.9V391h5.9V393.3z"/>
		<path class="st0" d="M391.7,391.9c0,3.9-2.5,5.8-6,5.8c-3.6,0-6-2-6-5.8v-8.4h2.8v8.3c0,2.3,1.3,3.3,3.2,3.3s3.2-1,3.2-3.3v-8.3
			h2.8V391.9z"/>
		<path class="st0" d="M403.7,391.3v6.2h-2.6v-5.3c0-1.4-0.7-2.2-1.9-2.2c-1.1,0-2,0.7-2,2.2v5.3h-2.6v-9.7h2.5v1.1
			c0.7-1,1.7-1.4,2.8-1.4C402.1,387.5,403.7,389,403.7,391.3z"/>
		<path class="st0" d="M409.3,384.6c0,0.9-0.7,1.7-1.7,1.7s-1.7-0.7-1.7-1.7s0.7-1.7,1.7-1.7S409.3,383.6,409.3,384.6z M408.9,397.4
			h-2.6v-9.7h2.6V397.4z"/>
	</g>
	<g>
		<path class="st0" d="M532.7,392.3c0,3.5-2.1,5.3-5,5.3c-2.3,0-3.7-1-4.5-1.9l1.6-2c0.6,0.7,1.4,1.3,2.7,1.3c1.5,0,2.4-0.9,2.4-2.9
			v-8.6h2.8V392.3z"/>
		<path class="st0" d="M545.1,397.4h-2.5v-1.1c-0.6,0.8-1.6,1.3-2.9,1.3c-2.7,0-4.7-2.2-4.7-5.1c0-2.9,2-5.1,4.7-5.1
			c1.3,0,2.3,0.5,2.9,1.3v-1.1h2.5V397.4z M537.7,392.6c0,1.5,1,2.7,2.5,2.7c1.5,0,2.5-1.1,2.5-2.7c0-1.5-1-2.7-2.5-2.7
			C538.6,389.9,537.7,391.1,537.7,392.6z"/>
		<path class="st0" d="M558,392.6c0,2.9-2,5.1-4.7,5.1c-1.3,0-2.2-0.5-2.8-1.3v5h-2.6v-13.7h2.5v1.1c0.6-0.8,1.6-1.3,2.9-1.3
			C556,387.5,558,389.7,558,392.6z M550.4,392.6c0,1.5,1,2.7,2.5,2.7c1.5,0,2.5-1.2,2.5-2.7c0-1.5-1-2.7-2.5-2.7
			C551.4,389.9,550.4,391.1,550.4,392.6z"/>
		<path class="st0" d="M570,392.6c0,2.9-2.2,5.1-5.2,5.1c-3,0-5.2-2.2-5.2-5.1c0-2.9,2.2-5.1,5.2-5.1
			C567.8,387.5,570,389.7,570,392.6z M562.2,392.6c0,1.6,1.1,2.7,2.6,2.7c1.5,0,2.6-1.1,2.6-2.7c0-1.6-1.1-2.7-2.6-2.7
			C563.3,389.9,562.2,391,562.2,392.6z"/>
		<path class="st0" d="M581.3,391.3v6.2h-2.6v-5.3c0-1.4-0.7-2.2-1.9-2.2c-1.1,0-2,0.7-2,2.2v5.3h-2.6v-9.7h2.5v1.1
			c0.7-1,1.7-1.4,2.8-1.4C579.8,387.5,581.3,389,581.3,391.3z"/>
	</g>
	<g>
		<path class="st0" d="M736.8,386.3l-2.4,1.5c-0.8-1.2-2.1-1.9-3.6-1.9c-2.5,0-4.4,1.9-4.4,4.6c0,2.8,1.9,4.6,4.4,4.6
			c1.5,0,2.8-0.7,3.6-1.9l2.3,1.6c-1.2,1.8-3.3,3-5.9,3c-4.3,0-7.3-3-7.3-7.3c0-4.2,3-7.3,7.3-7.3
			C733.4,383.2,735.7,384.4,736.8,386.3z"/>
		<path class="st0" d="M748.6,397.4H746v-1.1c-0.6,0.8-1.6,1.3-2.9,1.3c-2.7,0-4.7-2.2-4.7-5.1c0-2.9,2-5.1,4.7-5.1
			c1.3,0,2.3,0.5,2.9,1.3v-1.1h2.5V397.4z M741.1,392.6c0,1.5,1,2.7,2.5,2.7c1.5,0,2.5-1.1,2.5-2.7c0-1.5-1-2.7-2.5-2.7
			C742.1,389.9,741.1,391.1,741.1,392.6z"/>
		<path class="st0" d="M760.5,391.3v6.2h-2.6v-5.3c0-1.4-0.7-2.2-1.9-2.2c-1.1,0-2,0.7-2,2.2v5.3h-2.6v-9.7h2.5v1.1
			c0.7-1,1.7-1.4,2.8-1.4C758.9,387.5,760.5,389,760.5,391.3z"/>
		<path class="st0" d="M772.7,397.4h-2.5v-1.1c-0.6,0.8-1.6,1.3-2.9,1.3c-2.7,0-4.7-2.2-4.7-5.1c0-2.9,2-5.1,4.7-5.1
			c1.3,0,2.3,0.5,2.9,1.3v-1.1h2.5V397.4z M765.2,392.6c0,1.5,1,2.7,2.5,2.7c1.5,0,2.5-1.1,2.5-2.7c0-1.5-1-2.7-2.5-2.7
			C766.2,389.9,765.2,391.1,765.2,392.6z"/>
		<path class="st0" d="M782.4,388.8v-5.7h2.6v14.4h-2.5v-1.1c-0.6,0.8-1.6,1.3-2.9,1.3c-2.7,0-4.7-2.2-4.7-5.1c0-2.9,2-5.1,4.7-5.1
			C780.8,387.5,781.7,388,782.4,388.8z M777.5,392.6c0,1.5,1,2.7,2.5,2.7c1.5,0,2.5-1.1,2.5-2.7c0-1.5-1-2.7-2.5-2.7
			C778.5,389.9,777.5,391.1,777.5,392.6z"/>
		<path class="st0" d="M797.2,397.4h-2.5v-1.1c-0.6,0.8-1.6,1.3-2.9,1.3c-2.7,0-4.7-2.2-4.7-5.1c0-2.9,2-5.1,4.7-5.1
			c1.3,0,2.3,0.5,2.9,1.3v-1.1h2.5V397.4z M789.8,392.6c0,1.5,1,2.7,2.5,2.7c1.5,0,2.5-1.1,2.5-2.7c0-1.5-1-2.7-2.5-2.7
			C790.7,389.9,789.8,391.1,789.8,392.6z"/>
	</g>
	<g>
		<path class="st0" d="M938.7,397.4h-3l-1.2-3.3h-6l-1.2,3.3h-2.9l5.4-14h3.4L938.7,397.4z M929.5,391.6h4l-2-5.4L929.5,391.6z"/>
		<path class="st0" d="M949.3,393.3c0,3.1-2.2,4.4-4.6,4.4c-2.4,0-4.6-1.3-4.6-4.4v-5.6h2.6v5.3c0,1.5,0.8,2.2,2,2.2
			c1.1,0,2-0.6,2-2.2v-5.3h2.6V393.3z"/>
		<path class="st0" d="M958.9,390.5c-0.8-0.4-2-0.8-3.1-0.8c-1,0-1.5,0.3-1.5,0.9c0,0.6,0.7,0.7,1.6,0.8l0.9,0.1
			c2.1,0.3,3.3,1.3,3.3,2.9c0,2-1.6,3.3-4.4,3.3c-1.3,0-3-0.2-4.3-1.1l1-2c0.8,0.5,1.8,0.9,3.3,0.9c1.2,0,1.8-0.3,1.8-0.9
			c0-0.5-0.5-0.7-1.6-0.9l-0.8-0.1c-2.2-0.3-3.3-1.3-3.3-2.9c0-2,1.5-3.2,4.1-3.2c1.5,0,2.8,0.3,4,0.9L958.9,390.5z"/>
		<path class="st0" d="M969.2,390.1h-3.5v3.5c0,1.2,0.6,1.6,1.4,1.6c0.6,0,1.3-0.3,1.8-0.6l1,2c-0.8,0.6-1.8,1-3.2,1
			c-2.4,0-3.6-1.4-3.6-3.9v-3.7h-1.9v-2.3h1.9v-2.9h2.6v2.9h3.5V390.1z"/>
		<path class="st0" d="M978.1,387.7l-0.4,2.6c-0.4-0.2-1-0.3-1.6-0.3c-1.2,0-2,0.7-2,2.2v5.3h-2.6v-9.7h2.5v1.1
			c0.6-0.9,1.5-1.3,2.7-1.3C977.3,387.5,977.7,387.6,978.1,387.7z"/>
		<path class="st0" d="M989.4,397.4h-2.5v-1.1c-0.6,0.8-1.6,1.3-2.9,1.3c-2.7,0-4.7-2.2-4.7-5.1c0-2.9,2-5.1,4.7-5.1
			c1.3,0,2.3,0.5,2.9,1.3v-1.1h2.5V397.4z M981.9,392.6c0,1.5,1,2.7,2.5,2.7c1.5,0,2.5-1.1,2.5-2.7c0-1.5-1-2.7-2.5-2.7
			C982.9,389.9,981.9,391.1,981.9,392.6z"/>
		<path class="st0" d="M994.8,397.4h-2.6v-14.4h2.6V397.4z"/>
		<path class="st0" d="M1000.5,384.6c0,0.9-0.7,1.7-1.7,1.7s-1.7-0.7-1.7-1.7s0.7-1.7,1.7-1.7S1000.5,383.6,1000.5,384.6z
			 M1000.1,397.4h-2.6v-9.7h2.6V397.4z"/>
		<path class="st0" d="M1011.8,392.6c0,0.3,0,0.7,0,0.9h-6.9c0.3,1.4,1.3,2,2.5,2c0.8,0,1.7-0.3,2.4-0.9l1.5,1.7
			c-1.1,1-2.5,1.5-4.1,1.5c-3,0-5-2-5-5.1c0-3,2-5.1,4.9-5.1C1009.9,387.5,1011.8,389.6,1011.8,392.6z M1004.9,391.7h4.3
			c-0.2-1.2-1-1.9-2.1-1.9C1005.9,389.7,1005.2,390.5,1004.9,391.7z"/>
	</g>
</g>
</svg>
