<?xml version="1.0" encoding="utf-8"?>
<!-- Generator: Adobe Illustrator 23.1.1, SVG Export Plug-In . SVG Version: 6.00 Build 0)  -->
<svg version="1.1" id="Layer_1" xmlns="http://www.w3.org/2000/svg" xmlns:xlink="http://www.w3.org/1999/xlink" x="0px" y="0px"
	 viewBox="0 0 1080 460" style="enable-background:new 0 0 1080 460;" xml:space="preserve">
<style type="text/css">
	.st0{fill:#203232;}
	.st1{fill:#F47E20;}
	.st2{fill:#FFB819;}
	.st3{fill:none;stroke:#D8D8D8;stroke-width:0.75;stroke-linejoin:round;stroke-miterlimit:10;}
</style>
<g>
	<g>
		<path class="st0" d="M22.92,438.88v3.59h-1.95v-9.81h4c2.34,0,3.59,1.22,3.59,3.12c0,1.88-1.25,3.1-3.57,3.1H22.92z M22.92,434.46
			v2.63h2.01c1.06,0,1.62-0.43,1.62-1.32c0-0.88-0.55-1.32-1.62-1.32h-2.01V434.46z"/>
		<path class="st0" d="M36.37,439.07c0,0.21-0.01,0.46-0.04,0.62h-4.81c0.2,0.98,0.88,1.41,1.74,1.41c0.59,0,1.23-0.24,1.72-0.65
			l1.07,1.18c-0.77,0.71-1.75,1.03-2.89,1.03c-2.08,0-3.52-1.41-3.52-3.55c0-2.14,1.4-3.59,3.43-3.59
			C35.03,435.5,36.37,436.95,36.37,439.07z M31.53,438.44h3c-0.17-0.87-0.69-1.36-1.48-1.36C32.2,437.08,31.7,437.59,31.53,438.44z"
			/>
		<path class="st0" d="M44.28,438.15v4.32h-1.83v-3.73c0-0.98-0.49-1.52-1.32-1.52c-0.78,0-1.44,0.51-1.44,1.53v3.72h-1.83v-6.79
			h1.78v0.8c0.48-0.72,1.23-0.98,2-0.98C43.18,435.5,44.28,436.57,44.28,438.15z"/>
		<path class="st0" d="M51,437.57c-0.54-0.27-1.4-0.55-2.16-0.55c-0.69,0-1.04,0.25-1.04,0.62c0,0.39,0.49,0.49,1.11,0.58l0.6,0.09
			c1.47,0.22,2.29,0.88,2.29,2.03c0,1.4-1.15,2.3-3.12,2.3c-0.92,0-2.14-0.17-3.02-0.8l0.72-1.39c0.58,0.38,1.29,0.67,2.31,0.67
			c0.85,0,1.25-0.24,1.25-0.64c0-0.33-0.34-0.51-1.13-0.62l-0.55-0.08c-1.57-0.22-2.35-0.9-2.35-2.06c0-1.39,1.08-2.22,2.86-2.22
			c1.09,0,1.93,0.2,2.84,0.64L51,437.57z"/>
		<path class="st0" d="M55.31,433.46c0,0.66-0.51,1.16-1.17,1.16s-1.16-0.5-1.16-1.16s0.5-1.18,1.16-1.18
			C54.79,432.29,55.31,432.8,55.31,433.46z M55.06,442.47h-1.83v-6.79h1.83V442.47z"/>
		<path class="st0" d="M63.9,439.07c0,2.04-1.56,3.57-3.68,3.57c-2.11,0-3.66-1.53-3.66-3.57c0-2.05,1.56-3.57,3.66-3.57
			C62.34,435.5,63.9,437.03,63.9,439.07z M58.42,439.07c0,1.1,0.77,1.87,1.8,1.87s1.81-0.77,1.81-1.87s-0.78-1.87-1.81-1.87
			C59.19,437.2,58.42,437.97,58.42,439.07z"/>
		<path class="st0" d="M71.8,438.15v4.32h-1.83v-3.73c0-0.98-0.49-1.52-1.32-1.52c-0.78,0-1.44,0.51-1.44,1.53v3.72h-1.83v-6.79
			h1.78v0.8c0.48-0.72,1.23-0.98,2-0.98C70.7,435.5,71.8,436.57,71.8,438.15z"/>
		<path class="st0" d="M84.15,438.5h-4.92v3.97h-1.95v-9.81h7.2v1.8h-5.25v2.23h4.92V438.5z"/>
		<path class="st0" d="M92.46,439.58c0,2.14-1.51,3.07-3.21,3.07s-3.21-0.92-3.21-3.07v-3.89h1.83v3.73c0,1.09,0.6,1.53,1.39,1.53
			c0.78,0,1.39-0.44,1.39-1.53v-3.73h1.82v3.89H92.46z"/>
		<path class="st0" d="M100.74,438.15v4.32h-1.83v-3.73c0-0.98-0.49-1.52-1.32-1.52c-0.78,0-1.44,0.51-1.44,1.53v3.72h-1.83v-6.79
			h1.78v0.8c0.48-0.72,1.23-0.98,2-0.98C99.64,435.5,100.74,436.57,100.74,438.15z"/>
		<path class="st0" d="M107.46,436.39v-4.01h1.82v10.09h-1.79v-0.75c-0.44,0.55-1.1,0.92-2.03,0.92c-1.87,0-3.29-1.53-3.29-3.57
			s1.42-3.57,3.29-3.57C106.37,435.5,107.02,435.86,107.46,436.39z M104.05,439.07c0,1.04,0.68,1.87,1.75,1.87
			c1.04,0,1.75-0.8,1.75-1.87s-0.71-1.87-1.75-1.87C104.73,437.2,104.05,438.04,104.05,439.07z"/>
		<path class="st0" d="M116.06,437.57c-0.54-0.27-1.4-0.55-2.16-0.55c-0.69,0-1.04,0.25-1.04,0.62c0,0.39,0.49,0.49,1.11,0.58
			l0.6,0.09c1.47,0.22,2.29,0.88,2.29,2.03c0,1.4-1.15,2.3-3.12,2.3c-0.92,0-2.14-0.17-3.02-0.8l0.72-1.39
			c0.58,0.38,1.29,0.67,2.31,0.67c0.85,0,1.25-0.24,1.25-0.64c0-0.33-0.34-0.51-1.13-0.62l-0.55-0.08c-1.57-0.22-2.35-0.9-2.35-2.06
			c0-1.39,1.08-2.22,2.86-2.22c1.09,0,1.93,0.2,2.84,0.64L116.06,437.57z"/>
		<path class="st0" d="M120.63,436.85c0,0.74-0.63,1.37-1.35,1.37c-0.73,0-1.37-0.63-1.37-1.37c0-0.73,0.64-1.35,1.37-1.35
			C120,435.5,120.63,436.12,120.63,436.85z M120.63,441.28c0,0.74-0.63,1.37-1.35,1.37c-0.73,0-1.37-0.63-1.37-1.37
			c0-0.73,0.64-1.35,1.37-1.35C120,439.93,120.63,440.55,120.63,441.28z"/>
		<path class="st0" d="M129.83,432.66c3.07,0,5.09,1.95,5.09,4.9c0,2.96-2.02,4.9-5.09,4.9h-4.04v-9.81h4.04V432.66z M127.74,434.49
			v6.15h2.07c2.07,0,3.07-1.3,3.07-3.07c0-1.8-1-3.08-3.07-3.08H127.74z"/>
		<path class="st0" d="M143.44,439.07c0,2.04-1.56,3.57-3.68,3.57c-2.11,0-3.66-1.53-3.66-3.57c0-2.05,1.56-3.57,3.66-3.57
			C141.88,435.5,143.44,437.03,143.44,439.07z M137.96,439.07c0,1.1,0.77,1.87,1.8,1.87s1.81-0.77,1.81-1.87s-0.78-1.87-1.81-1.87
			C138.73,437.2,137.96,437.97,137.96,439.07z"/>
		<path class="st0" d="M155.92,438.15v4.32h-1.82v-3.73c0-0.98-0.5-1.52-1.32-1.52c-0.78,0-1.44,0.51-1.44,1.53v3.72h-1.83v-3.73
			c0-0.98-0.49-1.52-1.32-1.52c-0.78,0-1.44,0.51-1.44,1.53v3.72h-1.83v-6.79h1.78v0.8c0.48-0.72,1.23-0.98,2-0.98
			c0.98,0,1.79,0.44,2.24,1.16c0.53-0.86,1.42-1.16,2.3-1.16C154.84,435.5,155.92,436.57,155.92,438.15z"/>
		<path class="st0" d="M164.09,439.07c0,0.21-0.01,0.46-0.04,0.62h-4.81c0.2,0.98,0.88,1.41,1.74,1.41c0.59,0,1.23-0.24,1.72-0.65
			l1.07,1.18c-0.77,0.71-1.75,1.03-2.89,1.03c-2.08,0-3.52-1.41-3.52-3.55c0-2.14,1.4-3.59,3.43-3.59
			C162.74,435.5,164.08,436.95,164.09,439.07z M159.25,438.44h3c-0.17-0.87-0.69-1.36-1.48-1.36
			C159.91,437.08,159.41,437.59,159.25,438.44z"/>
		<path class="st0" d="M170.44,437.57c-0.54-0.27-1.4-0.55-2.16-0.55c-0.69,0-1.04,0.25-1.04,0.62c0,0.39,0.49,0.49,1.11,0.58
			l0.6,0.09c1.47,0.22,2.29,0.88,2.29,2.03c0,1.4-1.15,2.3-3.12,2.3c-0.92,0-2.14-0.17-3.02-0.8l0.72-1.39
			c0.58,0.38,1.29,0.67,2.31,0.67c0.85,0,1.25-0.24,1.25-0.64c0-0.33-0.34-0.51-1.13-0.62l-0.55-0.08c-1.57-0.22-2.35-0.9-2.35-2.06
			c0-1.39,1.08-2.22,2.86-2.22c1.09,0,1.93,0.2,2.84,0.64L170.44,437.57z"/>
		<path class="st0" d="M177.6,437.31h-2.46v2.48c0,0.85,0.45,1.16,1.02,1.16c0.43,0,0.9-0.22,1.27-0.44l0.67,1.43
			c-0.6,0.41-1.28,0.71-2.25,0.71c-1.68,0-2.54-0.95-2.54-2.71v-2.63H172v-1.62h1.31v-2.02h1.83v2.02h2.46V437.31z"/>
		<path class="st0" d="M181.28,433.46c0,0.66-0.51,1.16-1.17,1.16s-1.16-0.5-1.16-1.16s0.5-1.18,1.16-1.18
			C180.77,432.29,181.28,432.8,181.28,433.46z M181.03,442.47h-1.83v-6.79h1.83V442.47z"/>
		<path class="st0" d="M188.86,436.78l-1.32,1.1c-0.41-0.44-0.85-0.68-1.45-0.68c-0.95,0-1.7,0.74-1.7,1.87s0.75,1.87,1.69,1.87
			c0.59,0,1.09-0.27,1.48-0.69l1.3,1.11c-0.64,0.82-1.59,1.27-2.72,1.27c-2.16,0-3.61-1.51-3.61-3.57c0-2.05,1.45-3.57,3.61-3.57
			C187.28,435.5,188.24,435.96,188.86,436.78z"/>
		<path class="st0" d="M201.12,442.47h-7.33v-9.81h7.27v1.79h-5.32v2.17h5.07v1.79h-5.07v2.25h5.37v1.81H201.12z"/>
		<path class="st0" d="M207.86,436.43v-0.75h1.79v9.59h-1.82v-3.51c-0.44,0.53-1.09,0.88-2,0.88c-1.87,0-3.29-1.53-3.29-3.57
			s1.42-3.57,3.29-3.57C206.76,435.5,207.42,435.88,207.86,436.43z M204.42,439.07c0,1.04,0.68,1.87,1.75,1.87
			c1.04,0,1.75-0.8,1.75-1.87s-0.71-1.87-1.75-1.87C205.1,437.2,204.42,438.04,204.42,439.07z"/>
		<path class="st0" d="M217.93,439.58c0,2.14-1.51,3.07-3.21,3.07c-1.7,0-3.21-0.92-3.21-3.07v-3.89h1.83v3.73
			c0,1.09,0.6,1.53,1.39,1.53c0.78,0,1.39-0.44,1.39-1.53v-3.73h1.82L217.93,439.58L217.93,439.58z"/>
		<path class="st0" d="M221.86,433.46c0,0.66-0.51,1.16-1.17,1.16s-1.16-0.5-1.16-1.16s0.5-1.18,1.16-1.18
			C221.35,432.29,221.86,432.8,221.86,433.46z M221.62,442.47h-1.83v-6.79h1.83V442.47z"/>
		<path class="st0" d="M228.46,437.31H226v2.48c0,0.85,0.45,1.16,1.02,1.16c0.43,0,0.9-0.22,1.27-0.44l0.67,1.43
			c-0.6,0.41-1.28,0.71-2.25,0.71c-1.68,0-2.54-0.95-2.54-2.71v-2.63h-1.31v-1.62h1.31v-2.02H226v2.02h2.46V437.31z"/>
		<path class="st0" d="M231.75,445.3h-2l2.37-4.27l-2.93-5.34h2.07l1.86,3.49l1.81-3.49h2L231.75,445.3z"/>
		<path class="st0" d="M238.65,443.87h-1.93l5.95-12.19h1.93L238.65,443.87z"/>
		<path class="st0" d="M252.51,434.49h-3.04v7.98h-1.95v-7.98h-3.04v-1.83h8.03L252.51,434.49L252.51,434.49z"/>
		<path class="st0" d="M260.61,439.07c0,2.04-1.56,3.57-3.68,3.57c-2.11,0-3.66-1.53-3.66-3.57c0-2.05,1.56-3.57,3.66-3.57
			C259.05,435.5,260.61,437.03,260.61,439.07z M255.13,439.07c0,1.1,0.77,1.87,1.8,1.87c1.03,0,1.81-0.77,1.81-1.87
			s-0.78-1.87-1.81-1.87S255.13,437.97,255.13,439.07z"/>
		<path class="st0" d="M267.02,437.31h-2.46v2.48c0,0.85,0.45,1.16,1.02,1.16c0.43,0,0.9-0.22,1.27-0.44l0.67,1.43
			c-0.6,0.41-1.28,0.71-2.25,0.71c-1.68,0-2.54-0.95-2.54-2.71v-2.63h-1.31v-1.62h1.31v-2.02h1.83v2.02h2.46L267.02,437.31
			L267.02,437.31z"/>
		<path class="st0" d="M275.31,442.47h-1.79v-0.75c-0.44,0.55-1.1,0.92-2.03,0.92c-1.87,0-3.29-1.53-3.29-3.57s1.42-3.57,3.29-3.57
			c0.93,0,1.58,0.38,2.03,0.93v-0.75h1.79V442.47z M270.08,439.07c0,1.04,0.68,1.87,1.75,1.87c1.04,0,1.75-0.8,1.75-1.87
			s-0.71-1.87-1.75-1.87C270.76,437.2,270.08,438.04,270.08,439.07z"/>
		<path class="st0" d="M279.05,442.47h-1.83v-10.09h1.83V442.47z"/>
		<path class="st0" d="M291.91,442.47h-7.33v-9.81h7.27v1.79h-5.32v2.17h5.07v1.79h-5.07v2.25h5.37v1.81H291.91z"/>
		<path class="st0" d="M298.65,436.43v-0.75h1.79v9.59h-1.82v-3.51c-0.44,0.53-1.09,0.88-2,0.88c-1.87,0-3.29-1.53-3.29-3.57
			s1.42-3.57,3.29-3.57C297.55,435.5,298.2,435.88,298.65,436.43z M295.21,439.07c0,1.04,0.68,1.87,1.75,1.87
			c1.04,0,1.75-0.8,1.75-1.87s-0.71-1.87-1.75-1.87C295.89,437.2,295.21,438.04,295.21,439.07z"/>
		<path class="st0" d="M308.72,439.58c0,2.14-1.51,3.07-3.21,3.07c-1.7,0-3.21-0.92-3.21-3.07v-3.89h1.83v3.73
			c0,1.09,0.6,1.53,1.39,1.53c0.78,0,1.39-0.44,1.39-1.53v-3.73h1.82v3.89H308.72z"/>
		<path class="st0" d="M312.65,433.46c0,0.66-0.51,1.16-1.17,1.16s-1.16-0.5-1.16-1.16s0.5-1.18,1.16-1.18
			C312.14,432.29,312.65,432.8,312.65,433.46z M312.41,442.47h-1.83v-6.79h1.83V442.47z"/>
		<path class="st0" d="M319.25,437.31h-2.46v2.48c0,0.85,0.45,1.16,1.02,1.16c0.43,0,0.9-0.22,1.27-0.44l0.67,1.43
			c-0.6,0.41-1.28,0.71-2.25,0.71c-1.68,0-2.54-0.95-2.54-2.71v-2.63h-1.31v-1.62h1.31v-2.02h1.83v2.02h2.46L319.25,437.31
			L319.25,437.31z"/>
		<path class="st0" d="M322.54,445.3h-2l2.37-4.27l-2.93-5.34h2.07l1.86,3.49l1.81-3.49h2L322.54,445.3z"/>
		<path class="st0" d="M339.69,442.47h-7.33v-9.81h7.27v1.79h-5.32v2.17h5.07v1.79h-5.07v2.25h5.37v1.81H339.69z"/>
		<path class="st0" d="M345.61,439.02l2.47,3.45h-2.17l-1.53-2.16l-1.5,2.16h-2.12l2.49-3.45l-2.43-3.34H343l1.46,2.11l1.46-2.11
			h2.12L345.61,439.02z"/>
		<path class="st0" d="M356.33,439.07c0,2.04-1.42,3.57-3.29,3.57c-0.91,0-1.55-0.36-2-0.88v3.51h-1.82v-9.59h1.79v0.75
			c0.44-0.55,1.09-0.93,2.02-0.93C354.91,435.5,356.33,437.03,356.33,439.07z M350.95,439.07c0,1.07,0.71,1.87,1.74,1.87
			c1.08,0,1.75-0.83,1.75-1.87s-0.67-1.87-1.75-1.87C351.66,437.2,350.95,438,350.95,439.07z"/>
		<path class="st0" d="M364.73,439.07c0,2.04-1.56,3.57-3.68,3.57c-2.11,0-3.66-1.53-3.66-3.57c0-2.05,1.56-3.57,3.66-3.57
			C363.17,435.5,364.73,437.03,364.73,439.07z M359.26,439.07c0,1.1,0.77,1.87,1.8,1.87s1.81-0.77,1.81-1.87s-0.78-1.87-1.81-1.87
			S359.26,437.97,359.26,439.07z"/>
		<path class="st0" d="M371.09,437.57c-0.54-0.27-1.4-0.55-2.16-0.55c-0.69,0-1.04,0.25-1.04,0.62c0,0.39,0.49,0.49,1.11,0.58
			l0.6,0.09c1.47,0.22,2.29,0.88,2.29,2.03c0,1.4-1.15,2.3-3.12,2.3c-0.92,0-2.14-0.17-3.02-0.8l0.72-1.39
			c0.58,0.38,1.29,0.67,2.31,0.67c0.85,0,1.25-0.24,1.25-0.64c0-0.33-0.34-0.51-1.13-0.62l-0.55-0.08c-1.57-0.22-2.35-0.9-2.35-2.06
			c0-1.39,1.08-2.22,2.86-2.22c1.09,0,1.93,0.2,2.84,0.64L371.09,437.57z"/>
		<path class="st0" d="M379.68,439.58c0,2.14-1.51,3.07-3.21,3.07c-1.7,0-3.21-0.92-3.21-3.07v-3.89h1.83v3.73
			c0,1.09,0.6,1.53,1.39,1.53c0.78,0,1.39-0.44,1.39-1.53v-3.73h1.82v3.89H379.68z"/>
		<path class="st0" d="M386.18,435.65l-0.27,1.81c-0.3-0.13-0.74-0.22-1.11-0.22c-0.85,0-1.43,0.52-1.43,1.53v3.7h-1.83v-6.79h1.77
			v0.74c0.43-0.64,1.08-0.92,1.91-0.92C385.62,435.5,385.93,435.56,386.18,435.65z"/>
		<path class="st0" d="M393.73,439.07c0,0.21-0.01,0.46-0.04,0.62h-4.81c0.2,0.98,0.88,1.41,1.74,1.41c0.59,0,1.23-0.24,1.72-0.65
			l1.07,1.18c-0.77,0.71-1.75,1.03-2.89,1.03c-2.08,0-3.52-1.41-3.52-3.55c0-2.14,1.4-3.59,3.43-3.59
			C392.39,435.5,393.73,436.95,393.73,439.07z M388.89,438.44h3c-0.17-0.87-0.69-1.36-1.48-1.36
			C389.56,437.08,389.05,437.59,388.89,438.44z"/>
	</g>
</g>
<g>
	<g>
		<path class="st0" d="M490.41,438.5h-4.92v3.97h-1.95v-9.81h7.2v1.8h-5.25v2.23h4.92V438.5z"/>
		<path class="st0" d="M499.66,434.49h-3.04v7.98h-1.95v-7.98h-3.04v-1.83h8.03L499.66,434.49L499.66,434.49z"/>
		<path class="st0" d="M507.64,435.14c-0.77-0.48-1.71-0.83-2.78-0.83c-1.1,0-1.88,0.43-1.88,1.18c0,0.72,0.85,0.94,2.02,1.13
			l0.55,0.09c1.75,0.29,3.12,1.04,3.12,2.75c0,2.16-1.9,3.19-4.01,3.19c-1.48,0-3.08-0.43-4.13-1.28l1.02-1.58
			c0.71,0.57,1.86,1.06,3.12,1.06c1.09,0,1.93-0.43,1.93-1.18c0-0.68-0.71-0.93-2.08-1.15l-0.62-0.1c-1.73-0.27-2.99-1.04-2.99-2.81
			c0-2.05,1.82-3.11,3.91-3.11c1.37,0,2.51,0.31,3.75,1.04L507.64,435.14z"/>
		<path class="st0" d="M517.79,442.47h-7.33v-9.81h7.27v1.79h-5.32v2.17h5.07v1.79h-5.07v2.25h5.37v1.81H517.79z"/>
		<path class="st0" d="M532.3,442.47h-2.09l-0.85-2.28h-4.18l-0.85,2.28h-2.04l3.82-9.81h2.38L532.3,442.47z M525.85,438.39h2.84
			l-1.41-3.79L525.85,438.39z"/>
		<path class="st0" d="M535.23,442.47h-1.83v-10.09h1.83V442.47z"/>
		<path class="st0" d="M538.97,442.47h-1.83v-10.09h1.83V442.47z"/>
		<path class="st0" d="M544.85,439.54h-4.14v-1.6h4.14V439.54z"/>
		<path class="st0" d="M557.72,442.47h-2.37l-2.1-7l-2.1,7h-2.37l-2.93-9.81h2.03l2.11,7.52l2.19-7.52h2.16l2.19,7.52l2.11-7.52h2
			L557.72,442.47z"/>
		<path class="st0" d="M568.76,439.07c0,2.04-1.56,3.57-3.68,3.57c-2.11,0-3.66-1.53-3.66-3.57c0-2.05,1.56-3.57,3.66-3.57
			C567.2,435.5,568.76,437.03,568.76,439.07z M563.28,439.07c0,1.1,0.77,1.87,1.8,1.87c1.03,0,1.81-0.77,1.81-1.87
			s-0.78-1.87-1.81-1.87C564.05,437.2,563.28,437.97,563.28,439.07z"/>
		<path class="st0" d="M574.88,435.65l-0.27,1.81c-0.3-0.13-0.74-0.22-1.11-0.22c-0.85,0-1.43,0.52-1.43,1.53v3.7h-1.83v-6.79h1.77
			v0.74c0.43-0.64,1.08-0.92,1.91-0.92C574.32,435.5,574.63,435.56,574.88,435.65z"/>
		<path class="st0" d="M577.95,442.47h-1.83v-10.09h1.83V442.47z"/>
		<path class="st0" d="M584.73,436.39v-4.01h1.82v10.09h-1.79v-0.75c-0.44,0.55-1.1,0.92-2.03,0.92c-1.87,0-3.29-1.53-3.29-3.57
			s1.42-3.57,3.29-3.57C583.65,435.5,584.29,435.86,584.73,436.39z M581.32,439.07c0,1.04,0.68,1.87,1.75,1.87
			c1.04,0,1.75-0.8,1.75-1.87s-0.71-1.87-1.75-1.87C582,437.2,581.32,438.04,581.32,439.07z"/>
		<path class="st0" d="M594.04,442.47h-1.95v-9.81h1.95V442.47z"/>
		<path class="st0" d="M602.53,438.15v4.32h-1.83v-3.73c0-0.98-0.49-1.52-1.32-1.52c-0.78,0-1.44,0.51-1.44,1.53v3.72h-1.83v-6.79
			h1.78v0.8c0.48-0.72,1.23-0.98,2-0.98C601.43,435.5,602.53,436.57,602.53,438.15z"/>
		<path class="st0" d="M609.25,436.39v-4.01h1.82v10.09h-1.79v-0.75c-0.44,0.55-1.1,0.92-2.03,0.92c-1.87,0-3.29-1.53-3.29-3.57
			s1.42-3.57,3.29-3.57C608.16,435.5,608.8,435.86,609.25,436.39z M605.83,439.07c0,1.04,0.68,1.87,1.75,1.87
			c1.04,0,1.75-0.8,1.75-1.87s-0.71-1.87-1.75-1.87C606.51,437.2,605.83,438.04,605.83,439.07z"/>
		<path class="st0" d="M619.29,439.07c0,0.21-0.01,0.46-0.04,0.62h-4.81c0.2,0.98,0.88,1.41,1.74,1.41c0.59,0,1.23-0.24,1.72-0.65
			l1.07,1.18c-0.77,0.71-1.75,1.03-2.89,1.03c-2.08,0-3.52-1.41-3.52-3.55c0-2.14,1.4-3.59,3.43-3.59
			C617.95,435.5,619.28,436.95,619.29,439.07z M614.45,438.44h3c-0.17-0.87-0.69-1.36-1.48-1.36
			C615.12,437.08,614.61,437.59,614.45,438.44z"/>
		<path class="st0" d="M624.85,439.02l2.47,3.45h-2.17l-1.53-2.16l-1.5,2.16H620l2.49-3.45l-2.43-3.34h2.17l1.46,2.11l1.46-2.11
			h2.12L624.85,439.02z"/>
	</g>
</g>
<rect x="2" y="432.28" class="st1" width="10.01" height="10.01"/>
<rect x="464.04" y="432.28" class="st2" width="10.01" height="10.01"/>
<g>
	<path class="st0" d="M17.78,361.52c0,2.58-1.54,4.13-3.44,4.13c-1.91,0-3.43-1.55-3.43-4.13s1.52-4.13,3.43-4.13
		C16.25,357.4,17.78,358.95,17.78,361.52z M12.51,361.52c0,1.74,0.81,2.65,1.83,2.65s1.83-0.91,1.83-2.65s-0.81-2.65-1.83-2.65
		C13.33,358.87,12.51,359.78,12.51,361.52z"/>
	<path class="st0" d="M23.24,359.57c0,1.25-0.95,2.18-2.23,2.18c-1.27,0-2.22-0.93-2.22-2.18c0-1.24,0.95-2.17,2.22-2.17
		C22.29,357.4,23.24,358.32,23.24,359.57z M20.05,359.57c0,0.58,0.41,0.99,0.96,0.99c0.56,0,0.96-0.41,0.96-0.99
		c0-0.57-0.4-0.98-0.96-0.98C20.46,358.59,20.05,359,20.05,359.57z M22.07,365.51h-1.49l5.34-7.97h1.49L22.07,365.51z M29.22,363.48
		c0,1.25-0.95,2.17-2.23,2.17c-1.27,0-2.22-0.93-2.22-2.17c0-1.23,0.95-2.17,2.22-2.17C28.27,361.3,29.22,362.24,29.22,363.48z
		 M26.04,363.48c0,0.58,0.4,0.99,0.96,0.99s0.96-0.41,0.96-0.99c0-0.57-0.4-0.98-0.96-0.98C26.44,362.49,26.04,362.9,26.04,363.48z"
		/>
</g>
<g>
	<path class="st0" d="M9.39,320.63H7.85v-5.93l-1.91,0.77v-1.55l3.44-1.39v8.1H9.39z"/>
	<path class="st0" d="M17.78,316.64c0,2.58-1.54,4.13-3.44,4.13c-1.91,0-3.43-1.55-3.43-4.13s1.52-4.13,3.43-4.13
		C16.25,312.52,17.78,314.07,17.78,316.64z M12.51,316.64c0,1.74,0.81,2.65,1.83,2.65s1.83-0.91,1.83-2.65s-0.81-2.65-1.83-2.65
		C13.33,313.99,12.51,314.9,12.51,316.64z"/>
	<path class="st0" d="M23.24,314.69c0,1.25-0.95,2.18-2.23,2.18c-1.27,0-2.22-0.93-2.22-2.18c0-1.24,0.95-2.17,2.22-2.17
		C22.29,312.52,23.24,313.45,23.24,314.69z M20.05,314.69c0,0.58,0.41,0.99,0.96,0.99c0.56,0,0.96-0.41,0.96-0.99
		c0-0.57-0.4-0.98-0.96-0.98C20.46,313.71,20.05,314.12,20.05,314.69z M22.07,320.63h-1.49l5.34-7.97h1.49L22.07,320.63z
		 M29.22,318.6c0,1.25-0.95,2.17-2.23,2.17c-1.27,0-2.22-0.93-2.22-2.17c0-1.23,0.95-2.17,2.22-2.17
		C28.27,316.42,29.22,317.36,29.22,318.6z M26.04,318.6c0,0.58,0.4,0.99,0.96,0.99s0.96-0.41,0.96-0.99c0-0.57-0.4-0.98-0.96-0.98
		C26.44,317.61,26.04,318.02,26.04,318.6z"/>
</g>
<g>
	<path class="st0" d="M4.3,266.58c0.43-0.56,1.24-1.37,2.72-1.37c1.67,0,2.7,1.05,2.7,2.57c0,0.97-0.5,1.65-1.15,2.33l-1.7,1.77
		h3.04v1.44H4.65v-1.2l2.82-2.89c0.42-0.43,0.65-0.86,0.65-1.37c0-0.69-0.48-1.19-1.22-1.19c-0.76,0-1.21,0.41-1.62,0.88L4.3,266.58
		z"/>
	<path class="st0" d="M17.78,269.34c0,2.58-1.54,4.13-3.44,4.13c-1.91,0-3.43-1.55-3.43-4.13s1.52-4.13,3.43-4.13
		S17.78,266.76,17.78,269.34z M12.51,269.34c0,1.74,0.81,2.65,1.83,2.65s1.83-0.91,1.83-2.65s-0.81-2.65-1.83-2.65
		C13.33,266.68,12.51,267.59,12.51,269.34z"/>
	<path class="st0" d="M23.24,267.38c0,1.25-0.95,2.18-2.23,2.18c-1.27,0-2.22-0.93-2.22-2.18c0-1.24,0.95-2.17,2.22-2.17
		C22.29,265.21,23.24,266.14,23.24,267.38z M20.05,267.38c0,0.58,0.41,0.99,0.96,0.99c0.56,0,0.96-0.41,0.96-0.99
		c0-0.57-0.4-0.98-0.96-0.98C20.46,266.4,20.05,266.81,20.05,267.38z M22.07,273.32h-1.49l5.34-7.97h1.49L22.07,273.32z
		 M29.22,271.29c0,1.25-0.95,2.17-2.23,2.17c-1.27,0-2.22-0.93-2.22-2.17c0-1.23,0.95-2.17,2.22-2.17
		C28.27,269.11,29.22,270.05,29.22,271.29z M26.04,271.29c0,0.58,0.4,0.99,0.96,0.99s0.96-0.41,0.96-0.99c0-0.57-0.4-0.98-0.96-0.98
		C26.44,270.3,26.04,270.71,26.04,271.29z"/>
</g>
<g>
	<path class="st0" d="M9.65,220.19c0,0.84-0.45,1.46-1.19,1.81c0.84,0.33,1.37,0.97,1.37,1.83c0,1.57-1.43,2.33-2.94,2.33
		c-1.2,0-2.18-0.43-2.78-1.16l0.92-1.01c0.46,0.48,1.13,0.76,1.81,0.76c0.77,0,1.39-0.34,1.39-1.04c0-0.68-0.7-1.04-1.56-1.04H5.74
		v-1.37h0.93c0.77,0,1.39-0.34,1.39-1.01c0-0.64-0.58-1-1.32-1s-1.29,0.38-1.61,0.81l-0.97-0.97c0.52-0.71,1.39-1.23,2.66-1.23
		C8.51,217.9,9.65,218.81,9.65,220.19z"/>
	<path class="st0" d="M17.78,222.03c0,2.58-1.54,4.13-3.44,4.13c-1.91,0-3.43-1.55-3.43-4.13s1.52-4.13,3.43-4.13
		S17.78,219.45,17.78,222.03z M12.51,222.03c0,1.74,0.81,2.65,1.83,2.65s1.83-0.91,1.83-2.65c0-1.74-0.81-2.65-1.83-2.65
		C13.33,219.38,12.51,220.29,12.51,222.03z"/>
	<path class="st0" d="M23.24,220.07c0,1.25-0.95,2.18-2.23,2.18c-1.27,0-2.22-0.93-2.22-2.18c0-1.24,0.95-2.17,2.22-2.17
		C22.29,217.9,23.24,218.83,23.24,220.07z M20.05,220.07c0,0.58,0.41,0.99,0.96,0.99c0.56,0,0.96-0.41,0.96-0.99
		c0-0.57-0.4-0.98-0.96-0.98C20.46,219.09,20.05,219.5,20.05,220.07z M22.07,226.01h-1.49l5.34-7.97h1.49L22.07,226.01z
		 M29.22,223.98c0,1.25-0.95,2.17-2.23,2.17c-1.27,0-2.22-0.93-2.22-2.17c0-1.23,0.95-2.17,2.22-2.17
		C28.27,221.81,29.22,222.74,29.22,223.98z M26.04,223.98c0,0.57,0.4,0.98,0.96,0.98s0.96-0.41,0.96-0.98c0-0.58-0.4-0.98-0.96-0.98
		C26.44,222.99,26.04,223.4,26.04,223.98z"/>
</g>
<g>
	<path class="st0" d="M8.98,175.81h1.11v1.43H8.98v1.46H7.44v-1.46H3.91v-1.12l2.79-5.39h1.71l-2.66,5.07h1.7v-2.12h1.54v2.13H8.98z
		"/>
	<path class="st0" d="M17.78,174.72c0,2.58-1.54,4.13-3.44,4.13c-1.91,0-3.43-1.55-3.43-4.13s1.52-4.13,3.43-4.13
		S17.78,172.14,17.78,174.72z M12.51,174.72c0,1.74,0.81,2.65,1.83,2.65s1.83-0.91,1.83-2.65c0-1.74-0.81-2.65-1.83-2.65
		C13.33,172.07,12.51,172.98,12.51,174.72z"/>
	<path class="st0" d="M23.24,172.76c0,1.25-0.95,2.18-2.23,2.18c-1.27,0-2.22-0.93-2.22-2.18c0-1.24,0.95-2.17,2.22-2.17
		C22.29,170.59,23.24,171.52,23.24,172.76z M20.05,172.76c0,0.58,0.41,0.99,0.96,0.99c0.56,0,0.96-0.41,0.96-0.99
		c0-0.57-0.4-0.98-0.96-0.98C20.46,171.78,20.05,172.19,20.05,172.76z M22.07,178.7h-1.49l5.34-7.97h1.49L22.07,178.7z
		 M29.22,176.67c0,1.25-0.95,2.17-2.23,2.17c-1.27,0-2.22-0.93-2.22-2.17c0-1.23,0.95-2.17,2.22-2.17
		C28.27,174.5,29.22,175.43,29.22,176.67z M26.04,176.67c0,0.57,0.4,0.98,0.96,0.98s0.96-0.41,0.96-0.98c0-0.58-0.4-0.98-0.96-0.98
		S26.04,176.1,26.04,176.67z"/>
</g>
<g>
	<path class="st0" d="M9.35,124.86H6.13l-0.03,1.59h0.92c1.86,0,2.79,1.06,2.79,2.4c0,1.71-1.3,2.69-2.91,2.69
		c-1.19,0-2.16-0.44-2.82-1.19l0.87-1.08c0.43,0.47,1.21,0.84,1.95,0.84c0.89,0,1.33-0.52,1.33-1.16c0-0.6-0.38-1.12-1.62-1.12h-1.9
		l0.09-4.41h4.58v1.44H9.35z"/>
	<path class="st0" d="M17.78,127.41c0,2.58-1.54,4.13-3.44,4.13c-1.91,0-3.43-1.55-3.43-4.13c0-2.58,1.52-4.13,3.43-4.13
		C16.25,123.28,17.78,124.83,17.78,127.41z M12.51,127.41c0,1.74,0.81,2.65,1.83,2.65s1.83-0.91,1.83-2.65s-0.81-2.65-1.83-2.65
		C13.33,124.76,12.51,125.67,12.51,127.41z"/>
	<path class="st0" d="M23.24,125.45c0,1.25-0.95,2.18-2.23,2.18c-1.27,0-2.22-0.93-2.22-2.18c0-1.24,0.95-2.17,2.22-2.17
		C22.29,123.28,23.24,124.21,23.24,125.45z M20.05,125.45c0,0.58,0.41,0.99,0.96,0.99c0.56,0,0.96-0.41,0.96-0.99
		c0-0.57-0.4-0.98-0.96-0.98C20.46,124.47,20.05,124.88,20.05,125.45z M22.07,131.39h-1.49l5.34-7.97h1.49L22.07,131.39z
		 M29.22,129.36c0,1.25-0.95,2.17-2.23,2.17c-1.27,0-2.22-0.93-2.22-2.17c0-1.23,0.95-2.17,2.22-2.17
		C28.27,127.19,29.22,128.12,29.22,129.36z M26.04,129.36c0,0.57,0.4,0.98,0.96,0.98s0.96-0.41,0.96-0.98c0-0.58-0.4-0.98-0.96-0.98
		S26.04,128.79,26.04,129.36z"/>
</g>
<g>
	<path class="st0" d="M6.82,78.89c0.11-0.01,0.23-0.02,0.37-0.02c1.62,0,2.76,1.16,2.76,2.65c0,1.56-1.29,2.71-3,2.71
		c-1.7,0-2.99-1.14-2.99-2.69c0-0.73,0.27-1.39,0.76-2.12l2.21-3.31h1.86L6.82,78.89z M5.56,81.53c0,0.77,0.6,1.31,1.39,1.31
		c0.8,0,1.4-0.54,1.4-1.31s-0.6-1.31-1.4-1.31C6.16,80.22,5.56,80.76,5.56,81.53z"/>
	<path class="st0" d="M17.78,80.1c0,2.58-1.54,4.13-3.44,4.13c-1.91,0-3.43-1.55-3.43-4.13c0-2.58,1.52-4.13,3.43-4.13
		C16.25,75.98,17.78,77.52,17.78,80.1z M12.51,80.1c0,1.74,0.81,2.65,1.83,2.65s1.83-0.91,1.83-2.65s-0.81-2.65-1.83-2.65
		C13.33,77.45,12.51,78.36,12.51,80.1z"/>
	<path class="st0" d="M23.24,78.14c0,1.25-0.95,2.18-2.23,2.18c-1.27,0-2.22-0.93-2.22-2.18c0-1.24,0.95-2.17,2.22-2.17
		C22.29,75.98,23.24,76.9,23.24,78.14z M20.05,78.14c0,0.58,0.41,0.99,0.96,0.99c0.56,0,0.96-0.41,0.96-0.99
		c0-0.57-0.4-0.98-0.96-0.98C20.46,77.17,20.05,77.57,20.05,78.14z M22.07,84.09h-1.49l5.34-7.97h1.49L22.07,84.09z M29.22,82.05
		c0,1.25-0.95,2.17-2.23,2.17c-1.27,0-2.22-0.93-2.22-2.17c0-1.23,0.95-2.17,2.22-2.17C28.27,79.88,29.22,80.81,29.22,82.05z
		 M26.04,82.05c0,0.57,0.4,0.98,0.96,0.98s0.96-0.41,0.96-0.98c0-0.58-0.4-0.98-0.96-0.98S26.04,81.48,26.04,82.05z"/>
</g>
<g>
	<path class="st0" d="M10.03,30.01l-3.3,6.77H4.92l3.28-6.53H4.42v-1.43h5.62v1.19H10.03z"/>
	<path class="st0" d="M17.78,32.79c0,2.58-1.54,4.13-3.44,4.13c-1.91,0-3.43-1.55-3.43-4.13s1.52-4.13,3.43-4.13
		C16.25,28.67,17.78,30.22,17.78,32.79z M12.51,32.79c0,1.74,0.81,2.65,1.83,2.65s1.83-0.91,1.83-2.65c0-1.74-0.81-2.65-1.83-2.65
		C13.33,30.14,12.51,31.05,12.51,32.79z"/>
	<path class="st0" d="M23.24,30.84c0,1.25-0.95,2.18-2.23,2.18c-1.27,0-2.22-0.93-2.22-2.18c0-1.24,0.95-2.17,2.22-2.17
		C22.29,28.67,23.24,29.6,23.24,30.84z M20.05,30.84c0,0.58,0.41,0.99,0.96,0.99c0.56,0,0.96-0.41,0.96-0.99
		c0-0.57-0.4-0.98-0.96-0.98C20.46,29.86,20.05,30.27,20.05,30.84z M22.07,36.78h-1.49l5.34-7.97h1.49L22.07,36.78z M29.22,34.75
		c0,1.25-0.95,2.17-2.23,2.17c-1.27,0-2.22-0.93-2.22-2.17c0-1.23,0.95-2.17,2.22-2.17C28.27,32.57,29.22,33.51,29.22,34.75z
		 M26.04,34.75c0,0.57,0.4,0.98,0.96,0.98s0.96-0.41,0.96-0.98c0-0.58-0.4-0.98-0.96-0.98C26.44,33.76,26.04,34.17,26.04,34.75z"/>
</g>
<line class="st3" x1="43" y1="317.13" x2="1073.91" y2="317.13"/>
<line class="st3" x1="43" y1="269.83" x2="1073.91" y2="269.83"/>
<line class="st3" x1="43" y1="222.52" x2="1073.91" y2="222.52"/>
<line class="st3" x1="43" y1="175.21" x2="1073.91" y2="175.21"/>
<line class="st3" x1="43" y1="127.9" x2="1073.91" y2="127.9"/>
<line class="st3" x1="43" y1="80.59" x2="1073.91" y2="80.59"/>
<line class="st3" x1="43" y1="33.28" x2="1073.91" y2="33.28"/>
<g>
	<rect x="132.96" y="113.71" class="st2" width="25" height="250.73"/>
	<rect x="93.22" y="71.13" class="st1" width="25" height="293.31"/>
</g>
<g>
	<rect x="351.76" y="336.06" class="st2" width="25" height="28.39"/>
	<rect x="311.64" y="194.13" class="st1" width="25" height="170.31"/>
</g>
<g>
	<rect x="559.56" y="326.6" class="st2" width="25" height="37.85"/>
	<rect x="519.44" y="203.59" class="st1" width="25" height="160.85"/>
</g>
<g>
	<rect x="767.36" y="350.25" class="st2" width="25" height="14.19"/>
	<rect x="727.24" y="265.09" class="st1" width="25" height="99.35"/>
</g>
<g>
	<rect x="975.16" y="354.98" class="st2" width="25" height="9.46"/>
	<rect x="935.04" y="118.44" class="st1" width="25" height="246"/>
</g>
<line class="st3" x1="43" y1="364.44" x2="1073.91" y2="364.44"/>
<g>
	<path class="st0" d="M94.26,52.91c0.17-0.02,0.37-0.04,0.59-0.04c2.56,0,4.37,1.83,4.37,4.19c0,2.47-2.04,4.29-4.75,4.29
		c-2.69,0-4.73-1.81-4.73-4.25c0-1.15,0.43-2.2,1.2-3.35l3.49-5.23h2.93L94.26,52.91z M92.28,57.08c0,1.22,0.95,2.07,2.2,2.07
		c1.27,0,2.21-0.85,2.21-2.07s-0.95-2.07-2.21-2.07C93.22,55.01,92.28,55.86,92.28,57.08z"/>
	<path class="st0" d="M100.41,50.47c0.68-0.89,1.96-2.17,4.3-2.17c2.64,0,4.28,1.66,4.28,4.07c0,1.54-0.78,2.61-1.82,3.68l-2.69,2.8
		h4.82v2.28h-8.33v-1.9l4.46-4.56c0.67-0.68,1.04-1.37,1.04-2.16c0-1.1-0.77-1.88-1.93-1.88c-1.2,0-1.91,0.65-2.56,1.39
		L100.41,50.47z"/>
	<path class="st0" d="M116.17,53.95c0,1.53-1.2,2.66-2.81,2.66s-2.8-1.12-2.8-2.66c0-1.52,1.19-2.66,2.8-2.66
		S116.17,52.43,116.17,53.95z M112.28,53.95c0,0.6,0.46,1.05,1.08,1.05s1.08-0.45,1.08-1.05s-0.46-1.05-1.08-1.05
		S112.28,53.36,112.28,53.95z M114.7,61.13h-2.1l7.01-9.64h2.1L114.7,61.13z M123.81,58.65c0,1.52-1.21,2.66-2.82,2.66
		c-1.59,0-2.8-1.13-2.8-2.66c0-1.5,1.21-2.66,2.8-2.66C122.61,56,123.81,57.12,123.81,58.65z M119.93,58.65
		c0,0.6,0.45,1.05,1.07,1.05c0.64,0,1.09-0.45,1.09-1.05s-0.45-1.06-1.09-1.06C120.38,57.59,119.93,58.05,119.93,58.65z"/>
</g>
<g>
	<path class="st0" d="M139.26,93.36h-5.1l-0.05,2.52h1.45c2.93,0,4.41,1.68,4.41,3.79c0,2.71-2.05,4.26-4.6,4.26
		c-1.88,0-3.42-0.7-4.46-1.88l1.37-1.7c0.68,0.75,1.92,1.33,3.08,1.33c1.4,0,2.1-0.83,2.1-1.83c0-0.95-0.59-1.77-2.57-1.77h-3
		l0.13-6.98h7.25L139.26,93.36L139.26,93.36z"/>
	<path class="st0" d="M150.02,94.5c0,1.33-0.71,2.31-1.88,2.86c1.32,0.52,2.16,1.53,2.16,2.89c0,2.48-2.26,3.68-4.65,3.68
		c-1.89,0-3.45-0.68-4.4-1.83l1.45-1.59c0.73,0.77,1.78,1.21,2.86,1.21c1.22,0,2.21-0.53,2.21-1.64c0-1.08-1.11-1.65-2.47-1.65
		h-1.47v-2.16h1.48c1.22,0,2.21-0.54,2.21-1.6c0-1.02-0.92-1.58-2.09-1.58s-2.04,0.6-2.55,1.28l-1.53-1.54
		c0.83-1.12,2.2-1.95,4.2-1.95C148.21,90.88,150.02,92.32,150.02,94.5z"/>
	<path class="st0" d="M157.31,96.53c0,1.53-1.2,2.66-2.81,2.66s-2.8-1.12-2.8-2.66c0-1.52,1.19-2.66,2.8-2.66
		S157.31,95.01,157.31,96.53z M153.42,96.53c0,0.6,0.46,1.05,1.08,1.05s1.08-0.45,1.08-1.05c0-0.6-0.46-1.05-1.08-1.05
		S153.42,95.94,153.42,96.53z M155.84,103.71h-2.1l7.01-9.64h2.1L155.84,103.71z M164.95,101.23c0,1.52-1.21,2.66-2.82,2.66
		c-1.59,0-2.8-1.13-2.8-2.66c0-1.5,1.21-2.66,2.8-2.66C163.75,98.58,164.95,99.7,164.95,101.23z M161.07,101.23
		c0,0.6,0.45,1.05,1.07,1.05c0.64,0,1.09-0.45,1.09-1.05c0-0.6-0.45-1.06-1.09-1.06C161.52,100.17,161.07,100.63,161.07,101.23z"/>
</g>
<g>
	<path class="st0" d="M315.67,175.79c0,1.33-0.71,2.31-1.88,2.86c1.32,0.52,2.16,1.53,2.16,2.89c0,2.48-2.26,3.68-4.65,3.68
		c-1.89,0-3.45-0.68-4.4-1.83l1.45-1.59c0.73,0.77,1.78,1.21,2.86,1.21c1.22,0,2.21-0.53,2.21-1.64c0-1.08-1.11-1.65-2.47-1.65
		h-1.47v-2.16h1.48c1.22,0,2.21-0.54,2.21-1.6c0-1.02-0.92-1.58-2.09-1.58c-1.17,0-2.04,0.6-2.55,1.28l-1.53-1.54
		c0.83-1.12,2.2-1.95,4.2-1.95C313.86,172.17,315.67,173.61,315.67,175.79z"/>
	<path class="st0" d="M321.81,176.78c0.17-0.02,0.37-0.04,0.59-0.04c2.56,0,4.37,1.83,4.37,4.19c0,2.47-2.04,4.29-4.75,4.29
		c-2.69,0-4.73-1.81-4.73-4.25c0-1.15,0.43-2.2,1.2-3.35l3.49-5.23h2.93L321.81,176.78z M319.82,180.94c0,1.22,0.95,2.07,2.2,2.07
		c1.27,0,2.21-0.85,2.21-2.07s-0.95-2.07-2.21-2.07C320.77,178.87,319.82,179.73,319.82,180.94z"/>
	<path class="st0" d="M333.58,177.82c0,1.53-1.2,2.66-2.81,2.66s-2.8-1.12-2.8-2.66c0-1.52,1.19-2.66,2.8-2.66
		S333.58,176.3,333.58,177.82z M329.69,177.82c0,0.6,0.46,1.05,1.08,1.05s1.08-0.45,1.08-1.05s-0.46-1.05-1.08-1.05
		S329.69,177.23,329.69,177.82z M332.12,185h-2.1l7.01-9.64h2.1L332.12,185z M341.23,182.52c0,1.52-1.21,2.66-2.82,2.66
		c-1.59,0-2.8-1.13-2.8-2.66c0-1.5,1.21-2.66,2.8-2.66C340.02,179.86,341.23,180.99,341.23,182.52z M337.34,182.52
		c0,0.6,0.45,1.05,1.07,1.05c0.64,0,1.09-0.45,1.09-1.05s-0.45-1.06-1.09-1.06C337.79,181.46,337.34,181.92,337.34,182.52z"/>
</g>
<g>
	<path class="st0" d="M523.53,184.18c0,1.33-0.71,2.31-1.88,2.86c1.32,0.52,2.16,1.53,2.16,2.89c0,2.48-2.26,3.68-4.65,3.68
		c-1.89,0-3.45-0.68-4.4-1.83l1.45-1.59c0.73,0.77,1.78,1.21,2.86,1.21c1.22,0,2.21-0.53,2.21-1.64c0-1.08-1.11-1.65-2.47-1.65
		h-1.47v-2.16h1.48c1.22,0,2.21-0.54,2.21-1.6c0-1.02-0.92-1.58-2.09-1.58c-1.17,0-2.04,0.6-2.55,1.28l-1.53-1.54
		c0.83-1.12,2.2-1.95,4.2-1.95C521.72,180.56,523.53,182,523.53,184.18z"/>
	<path class="st0" d="M532.98,188.81h1.76v2.27h-1.76v2.3h-2.43v-2.3h-5.59v-1.76l4.42-8.53h2.7l-4.21,8.02h2.68v-3.36h2.43
		L532.98,188.81L532.98,188.81z"/>
	<path class="st0" d="M541.33,186.21c0,1.53-1.2,2.66-2.81,2.66s-2.8-1.12-2.8-2.66c0-1.52,1.19-2.66,2.8-2.66
		S541.33,184.69,541.33,186.21z M537.44,186.21c0,0.6,0.46,1.05,1.08,1.05s1.08-0.45,1.08-1.05s-0.46-1.05-1.08-1.05
		S537.44,185.62,537.44,186.21z M539.86,193.39h-2.1l7.01-9.64h2.1L539.86,193.39z M548.97,190.91c0,1.52-1.21,2.66-2.82,2.66
		c-1.59,0-2.8-1.13-2.8-2.66c0-1.5,1.21-2.66,2.8-2.66C547.77,188.26,548.97,189.38,548.97,190.91z M545.08,190.91
		c0,0.6,0.45,1.05,1.07,1.05c0.64,0,1.09-0.45,1.09-1.05s-0.45-1.06-1.09-1.06C545.53,189.85,545.08,190.31,545.08,190.91z"/>
</g>
<g>
	<path class="st0" d="M724.34,244.47c0.68-0.89,1.96-2.17,4.3-2.17c2.64,0,4.28,1.66,4.28,4.07c0,1.54-0.78,2.61-1.82,3.68
		l-2.69,2.8h4.82v2.28h-8.33v-1.9l4.46-4.56c0.67-0.68,1.04-1.37,1.04-2.16c0-1.1-0.77-1.88-1.93-1.88c-1.2,0-1.91,0.65-2.56,1.39
		L724.34,244.47z"/>
	<path class="st0" d="M739.78,255.13h-2.43v-9.38l-3.02,1.22v-2.45l5.45-2.2V255.13z"/>
	<path class="st0" d="M747.49,247.96c0,1.53-1.2,2.66-2.81,2.66s-2.8-1.12-2.8-2.66c0-1.52,1.19-2.66,2.8-2.66
		S747.49,246.44,747.49,247.96z M743.6,247.96c0,0.6,0.46,1.05,1.08,1.05s1.08-0.45,1.08-1.05s-0.46-1.05-1.08-1.05
		S743.6,247.36,743.6,247.96z M746.02,255.13h-2.1l7.01-9.64h2.1L746.02,255.13z M755.13,252.66c0,1.52-1.21,2.66-2.82,2.66
		c-1.59,0-2.8-1.13-2.8-2.66c0-1.5,1.21-2.66,2.8-2.66C753.92,250,755.13,251.13,755.13,252.66z M751.24,252.66
		c0,0.6,0.45,1.05,1.07,1.05c0.64,0,1.09-0.45,1.09-1.05s-0.45-1.06-1.09-1.06C751.69,251.59,751.24,252.05,751.24,252.66z"/>
</g>
<g>
	<path class="st0" d="M938.95,98.09h-5.1l-0.05,2.52h1.45c2.93,0,4.41,1.68,4.41,3.79c0,2.71-2.05,4.26-4.6,4.26
		c-1.88,0-3.42-0.7-4.46-1.88l1.37-1.7c0.68,0.75,1.92,1.33,3.08,1.33c1.4,0,2.1-0.83,2.1-1.83c0-0.95-0.59-1.77-2.57-1.77h-3
		l0.13-6.98h7.25v2.26H938.95z"/>
	<path class="st0" d="M941.08,97.78c0.68-0.89,1.96-2.17,4.3-2.17c2.64,0,4.28,1.66,4.28,4.07c0,1.54-0.78,2.61-1.82,3.68l-2.69,2.8
		h4.82v2.28h-8.33v-1.9l4.46-4.56c0.67-0.68,1.04-1.37,1.04-2.16c0-1.1-0.77-1.88-1.93-1.88c-1.2,0-1.91,0.65-2.56,1.39
		L941.08,97.78z"/>
	<path class="st0" d="M956.84,101.26c0,1.53-1.2,2.66-2.81,2.66s-2.8-1.12-2.8-2.66c0-1.52,1.19-2.66,2.8-2.66
		S956.84,99.74,956.84,101.26z M952.95,101.26c0,0.6,0.46,1.05,1.08,1.05s1.08-0.45,1.08-1.05c0-0.6-0.46-1.05-1.08-1.05
		S952.95,100.67,952.95,101.26z M955.37,108.44h-2.1l7.01-9.64h2.1L955.37,108.44z M964.48,105.96c0,1.52-1.21,2.66-2.82,2.66
		c-1.59,0-2.8-1.13-2.8-2.66c0-1.5,1.21-2.66,2.8-2.66C963.28,103.31,964.48,104.43,964.48,105.96z M960.59,105.96
		c0,0.6,0.45,1.05,1.07,1.05c0.64,0,1.09-0.45,1.09-1.05c0-0.6-0.45-1.06-1.09-1.06C961.04,104.9,960.59,105.36,960.59,105.96z"/>
</g>
<g>
	<path class="st0" d="M975.95,334.32c0.68-0.89,1.96-2.17,4.3-2.17c2.64,0,4.28,1.66,4.28,4.07c0,1.54-0.78,2.61-1.82,3.68
		l-2.69,2.8h4.82v2.28h-8.33v-1.9l4.46-4.56c0.67-0.68,1.04-1.37,1.04-2.16c0-1.1-0.77-1.88-1.93-1.88c-1.2,0-1.91,0.65-2.56,1.39
		L975.95,334.32z"/>
	<path class="st0" d="M991.71,337.81c0,1.53-1.2,2.66-2.81,2.66s-2.8-1.12-2.8-2.66c0-1.52,1.19-2.66,2.8-2.66
		S991.71,336.28,991.71,337.81z M987.82,337.81c0,0.6,0.46,1.05,1.08,1.05s1.08-0.45,1.08-1.05c0-0.6-0.46-1.05-1.08-1.05
		S987.82,337.21,987.82,337.81z M990.25,344.98h-2.1l7.01-9.64h2.1L990.25,344.98z M999.36,342.51c0,1.52-1.21,2.66-2.82,2.66
		c-1.59,0-2.8-1.13-2.8-2.66c0-1.5,1.21-2.66,2.8-2.66C998.15,339.85,999.36,340.97,999.36,342.51z M995.47,342.51
		c0,0.6,0.45,1.05,1.07,1.05c0.64,0,1.09-0.45,1.09-1.05c0-0.6-0.45-1.06-1.09-1.06C995.92,341.44,995.47,341.9,995.47,342.51z"/>
</g>
<g>
	<path class="st0" d="M356.78,317.84c0.17-0.02,0.37-0.04,0.59-0.04c2.56,0,4.37,1.83,4.37,4.19c0,2.47-2.04,4.29-4.75,4.29
		c-2.69,0-4.73-1.81-4.73-4.25c0-1.15,0.43-2.2,1.2-3.35l3.49-5.23h2.93L356.78,317.84z M354.79,322.01c0,1.22,0.95,2.07,2.2,2.07
		c1.27,0,2.21-0.85,2.21-2.07s-0.95-2.07-2.21-2.07C355.74,319.94,354.79,320.79,354.79,322.01z"/>
	<path class="st0" d="M368.56,318.88c0,1.53-1.2,2.66-2.81,2.66s-2.8-1.12-2.8-2.66c0-1.52,1.19-2.66,2.8-2.66
		S368.56,317.36,368.56,318.88z M364.67,318.88c0,0.6,0.46,1.05,1.08,1.05s1.08-0.45,1.08-1.05s-0.46-1.05-1.08-1.05
		S364.67,318.29,364.67,318.88z M367.09,326.06h-2.1l7.01-9.64h2.1L367.09,326.06z M376.2,323.58c0,1.52-1.21,2.66-2.82,2.66
		c-1.59,0-2.8-1.13-2.8-2.66c0-1.5,1.21-2.66,2.8-2.66C374.99,320.93,376.2,322.05,376.2,323.58z M372.31,323.58
		c0,0.6,0.45,1.05,1.07,1.05c0.64,0,1.09-0.45,1.09-1.05s-0.45-1.06-1.09-1.06C372.76,322.52,372.31,322.98,372.31,323.58z"/>
</g>
<g>
	<path class="st0" d="M569.44,307.59c0,1.45-0.84,2.35-1.93,2.85c1.24,0.49,2.23,1.39,2.23,2.93c0,2.3-2.21,3.66-4.92,3.66
		s-4.92-1.36-4.92-3.66c0-1.54,0.98-2.44,2.22-2.93c-1.09-0.5-1.92-1.4-1.92-2.85c0-2.27,2.07-3.62,4.62-3.62
		S569.44,305.32,569.44,307.59z M562.52,313.16c0,1.11,1.04,1.69,2.3,1.69c1.25,0,2.3-0.59,2.3-1.69c0-1.12-1.05-1.73-2.3-1.73
		C563.56,311.44,562.52,312.04,562.52,313.16z M562.79,307.78c0,1.08,0.91,1.66,2.04,1.66s2.03-0.58,2.03-1.66
		c0-1.04-0.91-1.61-2.03-1.61S562.79,306.74,562.79,307.78z"/>
	<path class="st0" d="M576.75,309.63c0,1.53-1.2,2.66-2.81,2.66s-2.8-1.12-2.8-2.66c0-1.52,1.19-2.66,2.8-2.66
		S576.75,308.1,576.75,309.63z M572.87,309.63c0,0.6,0.46,1.05,1.08,1.05s1.08-0.45,1.08-1.05c0-0.6-0.46-1.05-1.08-1.05
		S572.87,309.03,572.87,309.63z M575.29,316.8h-2.1l7.01-9.64h2.1L575.29,316.8z M584.4,314.33c0,1.52-1.21,2.66-2.82,2.66
		c-1.59,0-2.8-1.13-2.8-2.66c0-1.5,1.21-2.66,2.8-2.66C583.19,311.67,584.4,312.79,584.4,314.33z M580.51,314.33
		c0,0.6,0.45,1.05,1.07,1.05c0.64,0,1.09-0.45,1.09-1.05c0-0.6-0.45-1.06-1.09-1.06C580.96,313.26,580.51,313.72,580.51,314.33z"/>
</g>
<g>
	<path class="st0" d="M776.7,331.04c0,1.33-0.71,2.31-1.88,2.86c1.32,0.52,2.16,1.53,2.16,2.89c0,2.49-2.26,3.68-4.65,3.68
		c-1.89,0-3.45-0.68-4.4-1.83l1.45-1.59c0.73,0.76,1.78,1.21,2.86,1.21c1.22,0,2.21-0.53,2.21-1.64c0-1.08-1.11-1.65-2.47-1.65
		h-1.47v-2.16H772c1.22,0,2.21-0.54,2.21-1.6c0-1.02-0.92-1.58-2.09-1.58c-1.17,0-2.04,0.6-2.55,1.28l-1.53-1.54
		c0.83-1.12,2.2-1.95,4.2-1.95C774.89,327.42,776.7,328.86,776.7,331.04z"/>
	<path class="st0" d="M783.99,333.07c0,1.53-1.2,2.66-2.81,2.66s-2.8-1.12-2.8-2.66c0-1.52,1.19-2.66,2.8-2.66
		S783.99,331.55,783.99,333.07z M780.1,333.07c0,0.6,0.46,1.05,1.08,1.05s1.08-0.45,1.08-1.05s-0.46-1.05-1.08-1.05
		S780.1,332.48,780.1,333.07z M782.53,340.25h-2.1l7.01-9.64h2.1L782.53,340.25z M791.64,337.77c0,1.52-1.21,2.66-2.82,2.66
		c-1.59,0-2.8-1.13-2.8-2.66c0-1.5,1.21-2.66,2.8-2.66C790.43,335.12,791.64,336.24,791.64,337.77z M787.75,337.77
		c0,0.6,0.45,1.05,1.07,1.05c0.64,0,1.09-0.45,1.09-1.05s-0.45-1.06-1.09-1.06C788.2,336.71,787.75,337.17,787.75,337.77z"/>
</g>
<g>
	<path class="st0" d="M119.31,393.38c0,3.87-2.47,5.84-6.03,5.84s-6.03-1.97-6.03-5.84v-8.41h2.8v8.27c0,2.3,1.3,3.31,3.23,3.31
		s3.23-1.01,3.23-3.31v-8.27h2.8L119.31,393.38L119.31,393.38z"/>
	<path class="st0" d="M125.45,397.27c0,1.05-0.9,1.95-1.93,1.95c-1.04,0-1.95-0.9-1.95-1.95c0-1.04,0.91-1.93,1.95-1.93
		C124.55,395.34,125.45,396.23,125.45,397.27z"/>
	<path class="st0" d="M137.37,388.51c-1.1-0.68-2.44-1.19-3.97-1.19c-1.57,0-2.68,0.62-2.68,1.68c0,1.03,1.21,1.34,2.89,1.62
		l0.79,0.13c2.5,0.41,4.46,1.48,4.46,3.92c0,3.09-2.72,4.56-5.73,4.56c-2.12,0-4.4-0.62-5.9-1.83l1.45-2.25
		c1.01,0.81,2.66,1.51,4.46,1.51c1.55,0,2.75-0.61,2.75-1.69c0-0.97-1.02-1.33-2.97-1.64l-0.89-0.14c-2.47-0.39-4.27-1.48-4.27-4.01
		c0-2.92,2.6-4.44,5.58-4.44c1.96,0,3.59,0.44,5.35,1.49L137.37,388.51z"/>
	<path class="st0" d="M144.52,397.27c0,1.05-0.9,1.95-1.93,1.95c-1.04,0-1.95-0.9-1.95-1.95c0-1.04,0.91-1.93,1.95-1.93
		C143.62,395.34,144.52,396.23,144.52,397.27z"/>
</g>
<g>
	<path class="st0" d="M337.56,393.38c0,3.87-2.47,5.84-6.03,5.84s-6.03-1.97-6.03-5.84v-8.41h2.8v8.27c0,2.3,1.3,3.31,3.23,3.31
		s3.23-1.01,3.23-3.31v-8.27h2.8V393.38z"/>
	<path class="st0" d="M343.71,397.27c0,1.05-0.9,1.95-1.93,1.95c-1.04,0-1.95-0.9-1.95-1.95c0-1.04,0.91-1.93,1.95-1.93
		C342.81,395.34,343.71,396.23,343.71,397.27z"/>
	<path class="st0" d="M350.21,393.21h-1.29v5.76h-2.79v-13.99h2.79v5.67h1.32l4.63-5.67h3.5l-5.87,6.83l6.31,7.17h-3.62
		L350.21,393.21z"/>
	<path class="st0" d="M363.49,397.27c0,1.05-0.9,1.95-1.93,1.95c-1.04,0-1.95-0.9-1.95-1.95c0-1.04,0.91-1.93,1.95-1.93
		C362.59,395.34,363.49,396.23,363.49,397.27z"/>
</g>
<g>
	<path class="st0" d="M531.8,393.87c0,3.51-2.1,5.35-5.02,5.35c-2.32,0-3.71-1.01-4.47-1.94l1.62-2.03c0.57,0.7,1.43,1.3,2.72,1.3
		c1.48,0,2.36-0.92,2.36-2.94v-8.64h2.79L531.8,393.87L531.8,393.87z"/>
	<path class="st0" d="M544.22,398.97h-2.55v-1.07c-0.63,0.78-1.57,1.32-2.9,1.32c-2.67,0-4.69-2.19-4.69-5.1s2.02-5.1,4.69-5.1
		c1.33,0,2.26,0.54,2.9,1.33v-1.07h2.55V398.97z M536.76,394.12c0,1.48,0.97,2.67,2.5,2.67c1.49,0,2.5-1.14,2.5-2.67
		s-1.01-2.67-2.5-2.67C537.73,391.45,536.76,392.64,536.76,394.12z"/>
	<path class="st0" d="M557.1,394.12c0,2.91-2.02,5.1-4.69,5.1c-1.3,0-2.22-0.51-2.85-1.26v5.01h-2.6v-13.68h2.55v1.07
		c0.63-0.79,1.56-1.33,2.89-1.33C555.08,389.03,557.1,391.21,557.1,394.12z M549.44,394.12c0,1.53,1.01,2.67,2.49,2.67
		c1.54,0,2.5-1.19,2.5-2.67s-0.96-2.67-2.5-2.67C550.45,391.45,549.44,392.59,549.44,394.12z"/>
	<path class="st0" d="M568.77,398.97h-2.55v-1.07c-0.63,0.78-1.57,1.32-2.9,1.32c-2.67,0-4.69-2.19-4.69-5.1s2.02-5.1,4.69-5.1
		c1.33,0,2.26,0.54,2.9,1.33v-1.07h2.55V398.97z M561.31,394.12c0,1.48,0.97,2.67,2.5,2.67c1.49,0,2.5-1.14,2.5-2.67
		s-1.01-2.67-2.5-2.67C562.28,391.45,561.31,392.64,561.31,394.12z"/>
	<path class="st0" d="M580.67,392.8v6.17h-2.61v-5.33c0-1.4-0.7-2.17-1.89-2.17c-1.12,0-2.05,0.73-2.05,2.19v5.31h-2.61v-9.68h2.54
		v1.14c0.69-1.03,1.75-1.4,2.85-1.4C579.11,389.03,580.67,390.56,580.67,392.8z"/>
</g>
<g>
	<path class="st0" d="M736.04,387.86l-2.4,1.47c-0.79-1.21-2.06-1.93-3.62-1.93c-2.54,0-4.42,1.86-4.42,4.58
		c0.01,2.81,1.95,4.58,4.42,4.58c1.55,0,2.81-0.7,3.65-1.92l2.28,1.64c-1.24,1.82-3.35,2.96-5.91,2.96c-4.31,0-7.35-3.05-7.35-7.26
		c0-4.21,3.04-7.26,7.35-7.26C732.62,384.72,734.9,385.9,736.04,387.86z"/>
	<path class="st0" d="M747.78,398.97h-2.55v-1.07c-0.63,0.78-1.57,1.32-2.9,1.32c-2.67,0-4.69-2.19-4.69-5.1s2.02-5.1,4.69-5.1
		c1.33,0,2.26,0.54,2.9,1.33v-1.07h2.55V398.97z M740.32,394.12c0,1.48,0.97,2.67,2.5,2.67c1.49,0,2.5-1.14,2.5-2.67
		s-1.01-2.67-2.5-2.67C741.29,391.45,740.32,392.64,740.32,394.12z"/>
	<path class="st0" d="M759.68,392.8v6.17h-2.61v-5.33c0-1.4-0.7-2.17-1.89-2.17c-1.12,0-2.05,0.73-2.05,2.19v5.31h-2.61v-9.68h2.54
		v1.14c0.69-1.03,1.75-1.4,2.85-1.4C758.12,389.03,759.68,390.56,759.68,392.8z"/>
	<path class="st0" d="M771.88,398.97h-2.55v-1.07c-0.63,0.78-1.57,1.32-2.9,1.32c-2.67,0-4.69-2.19-4.69-5.1s2.02-5.1,4.69-5.1
		c1.33,0,2.26,0.54,2.9,1.33v-1.07h2.55V398.97z M764.42,394.12c0,1.48,0.97,2.67,2.5,2.67c1.49,0,2.5-1.14,2.5-2.67
		s-1.01-2.67-2.5-2.67C765.39,391.45,764.42,392.64,764.42,394.12z"/>
	<path class="st0" d="M781.57,390.3v-5.72h2.6v14.39h-2.55v-1.07c-0.63,0.78-1.57,1.32-2.9,1.32c-2.67,0-4.69-2.19-4.69-5.1
		s2.02-5.1,4.69-5.1C780.02,389.03,780.94,389.54,781.57,390.3z M776.7,394.12c0,1.48,0.97,2.67,2.5,2.67c1.49,0,2.5-1.14,2.5-2.67
		s-1.01-2.67-2.5-2.67C777.67,391.45,776.7,392.64,776.7,394.12z"/>
	<path class="st0" d="M796.44,398.97h-2.55v-1.07c-0.63,0.78-1.57,1.32-2.9,1.32c-2.67,0-4.69-2.19-4.69-5.1s2.02-5.1,4.69-5.1
		c1.33,0,2.26,0.54,2.9,1.33v-1.07h2.55V398.97z M788.98,394.12c0,1.48,0.97,2.67,2.5,2.67c1.49,0,2.5-1.14,2.5-2.67
		s-1.01-2.67-2.5-2.67C789.95,391.45,788.98,392.64,788.98,394.12z"/>
</g>
<g>
	<path class="st0" d="M937.3,398.97h-2.98l-1.22-3.26h-5.97l-1.22,3.26H923l5.45-13.99h3.4L937.3,398.97z M928.1,393.14h4.05
		l-2.02-5.41L928.1,393.14z"/>
	<path class="st0" d="M947.97,394.84c0,3.06-2.16,4.38-4.58,4.38c-2.43,0-4.59-1.32-4.59-4.38v-5.56h2.61v5.33
		c0,1.55,0.85,2.18,1.98,2.18c1.12,0,1.98-0.63,1.98-2.18v-5.33h2.6L947.97,394.84L947.97,394.84z"/>
	<path class="st0" d="M957.59,391.98c-0.77-0.38-2-0.78-3.09-0.79c-0.99,0-1.49,0.35-1.49,0.88c0,0.56,0.7,0.7,1.58,0.83l0.86,0.13
		c2.1,0.32,3.27,1.26,3.27,2.9c0,2-1.64,3.29-4.45,3.29c-1.32,0-3.05-0.25-4.31-1.14l1.03-1.98c0.83,0.55,1.84,0.95,3.3,0.95
		c1.21,0,1.79-0.34,1.79-0.91c0-0.47-0.49-0.73-1.61-0.89l-0.79-0.11c-2.24-0.31-3.35-1.29-3.35-2.94c0-1.99,1.54-3.17,4.09-3.17
		c1.55,0,2.76,0.29,4.05,0.92L957.59,391.98z"/>
	<path class="st0" d="M967.81,391.61h-3.51v3.54c0,1.21,0.64,1.65,1.45,1.65c0.62,0,1.29-0.31,1.82-0.63l0.96,2.04
		c-0.85,0.58-1.83,1.02-3.21,1.02c-2.4,0-3.63-1.36-3.63-3.87v-3.75h-1.87v-2.32h1.87v-2.88h2.61v2.88h3.51V391.61z"/>
	<path class="st0" d="M976.73,389.24l-0.39,2.59c-0.43-0.19-1.05-0.31-1.58-0.31c-1.21,0-2.04,0.74-2.04,2.18v5.28h-2.61v-9.68h2.53
		v1.06c0.61-0.91,1.54-1.32,2.73-1.32C975.93,389.03,976.37,389.11,976.73,389.24z"/>
	<path class="st0" d="M988.04,398.97h-2.55v-1.07c-0.63,0.78-1.57,1.32-2.9,1.32c-2.67,0-4.69-2.19-4.69-5.1s2.02-5.1,4.69-5.1
		c1.33,0,2.26,0.54,2.9,1.33v-1.07h2.55V398.97z M980.58,394.12c0,1.48,0.97,2.67,2.5,2.67c1.49,0,2.5-1.14,2.5-2.67
		s-1.01-2.67-2.5-2.67C981.55,391.45,980.58,392.64,980.58,394.12z"/>
	<path class="st0" d="M993.4,398.97h-2.61v-14.39h2.61V398.97z"/>
	<path class="st0" d="M999.1,386.12c0,0.94-0.73,1.66-1.67,1.66s-1.66-0.72-1.66-1.66s0.72-1.68,1.66-1.68
		S999.1,385.18,999.1,386.12z M998.75,398.97h-2.61v-9.68h2.61V398.97z"/>
	<path class="st0" d="M1011.02,398.97h-2.55v-1.07c-0.63,0.78-1.57,1.32-2.9,1.32c-2.67,0-4.69-2.19-4.69-5.1s2.02-5.1,4.69-5.1
		c1.33,0,2.26,0.54,2.9,1.33v-1.07h2.55V398.97z M1003.56,394.12c0,1.48,0.97,2.67,2.5,2.67c1.49,0,2.5-1.14,2.5-2.67
		s-1.01-2.67-2.5-2.67C1004.53,391.45,1003.56,392.64,1003.56,394.12z"/>
</g>
</svg>
