<?xml version="1.0" encoding="utf-8"?>
<!-- Generator: Adobe Illustrator 23.1.1, SVG Export Plug-In . SVG Version: 6.00 Build 0)  -->
<svg version="1.1" id="Layer_1" xmlns="http://www.w3.org/2000/svg" xmlns:xlink="http://www.w3.org/1999/xlink" x="0px" y="0px"
	 viewBox="0 0 1080 410" style="enable-background:new 0 0 1080 410;" xml:space="preserve">
<style type="text/css">
	.st0{clip-path:url(#SVGID_2_);fill:#203232;}
	.st1{clip-path:url(#SVGID_4_);fill:#ED5A36;}
	.st2{clip-path:url(#SVGID_6_);fill:#FFB819;}
	.st3{fill:#203232;}
	.st4{fill:#FFFFFF;}
	.st5{fill:none;}
</style>
<g>
	<g>
		<defs>
			<rect id="SVGID_1_" x="51.6" y="18.6" width="1000.8" height="347.7"/>
		</defs>
		<clipPath id="SVGID_2_">
			<use xlink:href="#SVGID_1_"  style="overflow:visible;"/>
		</clipPath>
		<polygon class="st0" points="54.7,251.1 57.8,248.8 64.1,244.3 70.3,242.1 73.4,248.8 79.7,246.6 85.9,242.1 89,239.8 95.3,251.1 
			101.5,251.1 104.6,239.8 110.8,244.3 117.1,251.1 120.2,266.9 126.4,260.1 132.7,251.1 135.8,257.9 142,255.6 148.3,253.4 
			151.4,244.3 157.6,248.8 163.8,246.6 167,237.6 173.2,244.3 179.4,242.1 182.6,251.1 188.8,242.1 195,246.6 198.1,264.7 
			204.4,266.9 210.6,269.2 213.7,255.6 220,257.9 226.2,264.7 229.3,255.6 235.6,255.6 241.8,246.6 244.9,253.4 251.1,255.6 
			257.4,257.9 260.5,264.7 266.7,266.9 273,275.9 276.1,278.2 282.3,275.9 288.6,269.2 291.7,260.1 297.9,251.1 304.1,244.3 
			307.3,233 313.5,244.3 319.7,246.6 322.9,251.1 329.1,255.6 335.3,253.4 338.4,255.6 344.7,255.6 350.9,255.6 354,246.6 
			360.3,251.1 366.5,262.4 369.6,280.5 375.9,271.4 382.1,266.9 385.2,275.9 391.4,275.9 397.7,273.7 400.8,266.9 407,269.2 
			413.3,273.7 416.4,269.2 422.6,262.4 428.9,255.6 432,246.6 438.2,244.3 444.4,244.3 447.6,246.6 453.8,251.1 460,257.9 
			463.2,255.6 469.4,260.1 475.6,253.4 478.7,257.9 485,257.9 491.2,260.1 494.3,266.9 500.6,266.9 506.8,264.7 509.9,260.1 
			516.2,260.1 522.4,257.9 525.5,257.9 531.7,262.4 538,273.7 541.1,280.5 547.3,282.7 553.6,280.5 556.7,294 562.9,294 569.2,294 
			572.3,291.7 578.5,294 584.7,291.7 587.9,273.7 594.1,278.2 600.3,271.4 603.5,264.7 609.7,264.7 615.9,262.4 619,269.2 
			625.3,260.1 631.5,260.1 634.6,257.9 640.9,253.4 647.1,257.9 650.2,262.4 656.5,262.4 662.7,269.2 665.8,266.9 672,264.7 
			678.3,264.7 681.4,244.3 687.6,251.1 693.9,251.1 697,257.9 703.2,257.9 709.5,257.9 715.7,271.4 718.8,266.9 725.1,264.7 
			731.3,260.1 734.4,257.9 740.6,262.4 746.9,273.7 750,278.2 756.2,278.2 762.5,278.2 765.6,285 771.8,275.9 778.1,253.4 
			781.2,251.1 787.4,253.4 793.6,262.4 796.8,264.7 803,262.4 809.2,278.2 812.3,275.9 818.6,278.2 824.8,266.9 827.9,262.4 
			834.2,269.2 840.4,262.4 843.5,264.7 849.8,262.4 856,264.7 859.1,271.4 865.4,266.9 871.6,269.2 874.7,266.9 880.9,264.7 
			887.2,264.7 890.3,262.4 896.5,275.9 902.8,285 905.9,298.5 912.1,298.5 918.4,285 921.5,282.7 927.7,275.9 933.9,273.7 
			937.1,271.4 943.3,264.7 949.5,280.5 952.6,280.5 958.9,273.7 965.1,255.6 968.2,246.6 974.5,248.8 980.7,235.3 983.8,228.5 
			990.1,230.8 996.3,239.8 999.4,246.6 1005.7,248.8 1011.9,264.7 1015,275.9 1021.2,282.7 1027.5,275.9 1030.6,266.9 1036.8,269.2 
			1043.1,271.4 1046.2,269.2 1052.4,271.4 1052.4,364 1046.2,364 1043.1,364 1036.8,364 1030.6,364 1027.5,364 1021.2,364 1015,364 
			1011.9,364 1005.7,364 999.4,364 996.3,364 990.1,364 983.8,364 980.7,364 974.5,364 968.2,364 965.1,364 958.9,364 952.6,364 
			949.5,364 943.3,364 937.1,364 933.9,364 927.7,364 921.5,364 918.4,364 912.1,364 905.9,364 902.8,364 896.5,364 890.3,364 
			887.2,364 880.9,364 874.7,364 871.6,364 865.4,364 859.1,364 856,364 849.8,364 843.5,364 840.4,364 834.2,364 827.9,364 
			824.8,364 818.6,364 812.3,364 809.2,364 803,364 796.8,364 793.6,364 787.4,364 781.2,364 778.1,364 771.8,364 765.6,364 
			762.5,364 756.2,364 750,364 746.9,364 740.6,364 734.4,364 731.3,364 725.1,364 718.8,364 715.7,364 709.5,364 703.2,364 
			697,364 693.9,364 687.6,364 681.4,364 678.3,364 672,364 665.8,364 662.7,364 656.5,364 650.2,364 647.1,364 640.9,364 
			634.6,364 631.5,364 625.3,364 619,364 615.9,364 609.7,364 603.5,364 600.3,364 594.1,364 587.9,364 584.7,364 578.5,364 
			572.3,364 569.2,364 562.9,364 556.7,364 553.6,364 547.3,364 541.1,364 538,364 531.7,364 525.5,364 522.4,364 516.2,364 
			509.9,364 506.8,364 500.6,364 494.3,364 491.2,364 485,364 478.7,364 475.6,364 469.4,364 463.2,364 460,364 453.8,364 
			447.6,364 444.4,364 438.2,364 432,364 428.9,364 422.6,364 416.4,364 413.3,364 407,364 400.8,364 397.7,364 391.4,364 
			385.2,364 382.1,364 375.9,364 369.6,364 366.5,364 360.3,364 354,364 350.9,364 344.7,364 338.4,364 335.3,364 329.1,364 
			322.9,364 319.7,364 313.5,364 307.3,364 304.1,364 297.9,364 291.7,364 288.6,364 282.3,364 276.1,364 273,364 266.7,364 
			260.5,364 257.4,364 251.1,364 244.9,364 241.8,364 235.6,364 229.3,364 226.2,364 220,364 213.7,364 210.6,364 204.4,364 
			198.1,364 195,364 188.8,364 182.6,364 179.4,364 173.2,364 167,364 163.8,364 157.6,364 151.4,364 148.3,364 142,364 135.8,364 
			132.7,364 126.4,364 120.2,364 117.1,364 110.8,364 104.6,364 101.5,364 95.3,364 89,364 85.9,364 79.7,364 73.4,364 70.3,364 
			64.1,364 57.8,364 54.7,364 		"/>
	</g>
	<g>
		<defs>
			<rect id="SVGID_3_" x="51.6" y="18.6" width="1000.8" height="347.7"/>
		</defs>
		<clipPath id="SVGID_4_">
			<use xlink:href="#SVGID_3_"  style="overflow:visible;"/>
		</clipPath>
		<polygon class="st1" points="54.7,203.7 57.8,206 64.1,199.2 70.3,194.7 73.4,203.7 79.7,203.7 85.9,199.2 89,190.1 95.3,199.2 
			101.5,196.9 104.6,183.4 110.8,185.6 117.1,185.6 120.2,194.7 126.4,192.4 132.7,194.7 135.8,194.7 142,196.9 148.3,199.2 
			151.4,194.7 157.6,194.7 163.8,199.2 167,194.7 173.2,192.4 179.4,194.7 182.6,206 188.8,203.7 195,206 198.1,215 204.4,215 
			210.6,217.2 213.7,208.2 220,212.7 226.2,212.7 229.3,208.2 235.6,208.2 241.8,199.2 244.9,199.2 251.1,194.7 257.4,192.4 
			260.5,199.2 266.7,206 273,210.5 276.1,206 282.3,208.2 288.6,206 291.7,199.2 297.9,187.9 304.1,183.4 307.3,187.9 313.5,187.9 
			319.7,190.1 322.9,190.1 329.1,194.7 335.3,194.7 338.4,187.9 344.7,187.9 350.9,178.9 354,183.4 360.3,185.6 366.5,185.6 
			369.6,208.2 375.9,212.7 382.1,217.2 385.2,217.2 391.4,217.2 397.7,226.3 400.8,215 407,208.2 413.3,210.5 416.4,208.2 
			422.6,203.7 428.9,196.9 432,194.7 438.2,196.9 444.4,196.9 447.6,194.7 453.8,196.9 460,203.7 463.2,203.7 469.4,203.7 
			475.6,199.2 478.7,199.2 485,206 491.2,201.4 494.3,203.7 500.6,196.9 506.8,199.2 509.9,192.4 516.2,190.1 522.4,187.9 
			525.5,185.6 531.7,196.9 538,208.2 541.1,215 547.3,215 553.6,215 556.7,224 562.9,219.5 569.2,212.7 572.3,210.5 578.5,208.2 
			584.7,206 587.9,206 594.1,212.7 600.3,217.2 603.5,217.2 609.7,219.5 615.9,224 619,217.2 625.3,215 631.5,206 634.6,199.2 
			640.9,203.7 647.1,199.2 650.2,210.5 656.5,201.4 662.7,201.4 665.8,203.7 672,201.4 678.3,199.2 681.4,185.6 687.6,190.1 
			693.9,199.2 697,201.4 703.2,199.2 709.5,206 715.7,210.5 718.8,208.2 725.1,199.2 731.3,196.9 734.4,199.2 740.6,187.9 
			746.9,192.4 750,192.4 756.2,190.1 762.5,201.4 765.6,206 771.8,203.7 778.1,201.4 781.2,203.7 787.4,206 793.6,203.7 
			796.8,203.7 803,203.7 809.2,206 812.3,208.2 818.6,208.2 824.8,201.4 827.9,201.4 834.2,208.2 840.4,203.7 843.5,206 
			849.8,208.2 856,210.5 859.1,210.5 865.4,206 871.6,203.7 874.7,203.7 880.9,196.9 887.2,196.9 890.3,192.4 896.5,201.4 
			902.8,208.2 905.9,210.5 912.1,215 918.4,212.7 921.5,208.2 927.7,206 933.9,206 937.1,208.2 943.3,201.4 949.5,201.4 952.6,206 
			958.9,196.9 965.1,192.4 968.2,181.1 974.5,178.9 980.7,176.6 983.8,178.9 990.1,178.9 996.3,178.9 999.4,178.9 1005.7,181.1 
			1011.9,181.1 1015,178.9 1021.2,183.4 1027.5,181.1 1030.6,190.1 1036.8,190.1 1043.1,192.4 1046.2,192.4 1052.4,190.1 
			1052.4,271.4 1046.2,269.2 1043.1,271.4 1036.8,269.2 1030.6,266.9 1027.5,275.9 1021.2,282.7 1015,275.9 1011.9,264.7 
			1005.7,248.8 999.4,246.6 996.3,239.8 990.1,230.8 983.8,228.5 980.7,235.3 974.5,248.8 968.2,246.6 965.1,255.6 958.9,273.7 
			952.6,280.5 949.5,280.5 943.3,264.7 937.1,271.4 933.9,273.7 927.7,275.9 921.5,282.7 918.4,285 912.1,298.5 905.9,298.5 
			902.8,285 896.5,275.9 890.3,262.4 887.2,264.7 880.9,264.7 874.7,266.9 871.6,269.2 865.4,266.9 859.1,271.4 856,264.7 
			849.8,262.4 843.5,264.7 840.4,262.4 834.2,269.2 827.9,262.4 824.8,266.9 818.6,278.2 812.3,275.9 809.2,278.2 803,262.4 
			796.8,264.7 793.6,262.4 787.4,253.4 781.2,251.1 778.1,253.4 771.8,275.9 765.6,285 762.5,278.2 756.2,278.2 750,278.2 
			746.9,273.7 740.6,262.4 734.4,257.9 731.3,260.1 725.1,264.7 718.8,266.9 715.7,271.4 709.5,257.9 703.2,257.9 697,257.9 
			693.9,251.1 687.6,251.1 681.4,244.3 678.3,264.7 672,264.7 665.8,266.9 662.7,269.2 656.5,262.4 650.2,262.4 647.1,257.9 
			640.9,253.4 634.6,257.9 631.5,260.1 625.3,260.1 619,269.2 615.9,262.4 609.7,264.7 603.5,264.7 600.3,271.4 594.1,278.2 
			587.9,273.7 584.7,291.7 578.5,294 572.3,291.7 569.2,294 562.9,294 556.7,294 553.6,280.5 547.3,282.7 541.1,280.5 538,273.7 
			531.7,262.4 525.5,257.9 522.4,257.9 516.2,260.1 509.9,260.1 506.8,264.7 500.6,266.9 494.3,266.9 491.2,260.1 485,257.9 
			478.7,257.9 475.6,253.4 469.4,260.1 463.2,255.6 460,257.9 453.8,251.1 447.6,246.6 444.4,244.3 438.2,244.3 432,246.6 
			428.9,255.6 422.6,262.4 416.4,269.2 413.3,273.7 407,269.2 400.8,266.9 397.7,273.7 391.4,275.9 385.2,275.9 382.1,266.9 
			375.9,271.4 369.6,280.5 366.5,262.4 360.3,251.1 354,246.6 350.9,255.6 344.7,255.6 338.4,255.6 335.3,253.4 329.1,255.6 
			322.9,251.1 319.7,246.6 313.5,244.3 307.3,233 304.1,244.3 297.9,251.1 291.7,260.1 288.6,269.2 282.3,275.9 276.1,278.2 
			273,275.9 266.7,266.9 260.5,264.7 257.4,257.9 251.1,255.6 244.9,253.4 241.8,246.6 235.6,255.6 229.3,255.6 226.2,264.7 
			220,257.9 213.7,255.6 210.6,269.2 204.4,266.9 198.1,264.7 195,246.6 188.8,242.1 182.6,251.1 179.4,242.1 173.2,244.3 
			167,237.6 163.8,246.6 157.6,248.8 151.4,244.3 148.3,253.4 142,255.6 135.8,257.9 132.7,251.1 126.4,260.1 120.2,266.9 
			117.1,251.1 110.8,244.3 104.6,239.8 101.5,251.1 95.3,251.1 89,239.8 85.9,242.1 79.7,246.6 73.4,248.8 70.3,242.1 64.1,244.3 
			57.8,248.8 54.7,251.1 		"/>
	</g>
	<g>
		<defs>
			<rect id="SVGID_5_" x="51.6" y="18.6" width="1000.8" height="347.7"/>
		</defs>
		<clipPath id="SVGID_6_">
			<use xlink:href="#SVGID_5_"  style="overflow:visible;"/>
		</clipPath>
		<polygon class="st2" points="54.7,20.8 57.8,20.8 64.1,20.8 70.3,20.8 73.4,20.8 79.7,20.8 85.9,20.8 89,20.8 95.3,20.8 
			101.5,20.8 104.6,20.8 110.8,20.8 117.1,20.8 120.2,20.8 126.4,20.8 132.7,20.8 135.8,20.8 142,20.8 148.3,20.8 151.4,20.8 
			157.6,20.8 163.8,20.8 167,20.8 173.2,20.8 179.4,20.8 182.6,20.8 188.8,20.8 195,20.8 198.1,20.8 204.4,20.8 210.6,20.8 
			213.7,20.8 220,20.8 226.2,20.8 229.3,20.8 235.6,20.8 241.8,20.8 244.9,20.8 251.1,20.8 257.4,20.8 260.5,20.8 266.7,20.8 
			273,20.8 276.1,20.8 282.3,20.8 288.6,20.8 291.7,20.8 297.9,20.8 304.1,20.8 307.3,20.8 313.5,20.8 319.7,20.8 322.9,20.8 
			329.1,20.8 335.3,20.8 338.4,20.8 344.7,20.8 350.9,20.8 354,20.8 360.3,20.8 366.5,20.8 369.6,20.8 375.9,20.8 382.1,20.8 
			385.2,20.8 391.4,20.8 397.7,20.8 400.8,20.8 407,20.8 413.3,20.8 416.4,20.8 422.6,20.8 428.9,20.8 432,20.8 438.2,20.8 
			444.4,20.8 447.6,20.8 453.8,20.8 460,20.8 463.2,20.8 469.4,20.8 475.6,20.8 478.7,20.8 485,20.8 491.2,20.8 494.3,20.8 
			500.6,20.8 506.8,20.8 509.9,20.8 516.2,20.8 522.4,20.8 525.5,20.8 531.7,20.8 538,20.8 541.1,20.8 547.3,20.8 553.6,20.8 
			556.7,20.8 562.9,20.8 569.2,20.8 572.3,20.8 578.5,20.8 584.7,20.8 587.9,20.8 594.1,20.8 600.3,20.8 603.5,20.8 609.7,20.8 
			615.9,20.8 619,20.8 625.3,20.8 631.5,20.8 634.6,20.8 640.9,20.8 647.1,20.8 650.2,20.8 656.5,20.8 662.7,20.8 665.8,20.8 
			672,20.8 678.3,20.8 681.4,20.8 687.6,20.8 693.9,20.8 697,20.8 703.2,20.8 709.5,20.8 715.7,20.8 718.8,20.8 725.1,20.8 
			731.3,20.8 734.4,20.8 740.6,20.8 746.9,20.8 750,20.8 756.2,20.8 762.5,20.8 765.6,20.8 771.8,20.8 778.1,20.8 781.2,20.8 
			787.4,20.8 793.6,20.8 796.8,20.8 803,20.8 809.2,20.8 812.3,20.8 818.6,20.8 824.8,20.8 827.9,20.8 834.2,20.8 840.4,20.8 
			843.5,20.8 849.8,20.8 856,20.8 859.1,20.8 865.4,20.8 871.6,20.8 874.7,20.8 880.9,20.8 887.2,20.8 890.3,20.8 896.5,20.8 
			902.8,20.8 905.9,20.8 912.1,20.8 918.4,20.8 921.5,20.8 927.7,20.8 933.9,20.8 937.1,20.8 943.3,20.8 949.5,20.8 952.6,20.8 
			958.9,20.8 965.1,20.8 968.2,20.8 974.5,20.8 980.7,20.8 983.8,20.8 990.1,20.8 996.3,20.8 999.4,20.8 1005.7,20.8 1011.9,20.8 
			1015,20.8 1021.2,20.8 1027.5,20.8 1030.6,20.8 1036.8,20.8 1043.1,20.8 1046.2,20.8 1052.4,20.8 1052.4,190.1 1046.2,192.4 
			1043.1,192.4 1036.8,190.1 1030.6,190.1 1027.5,181.1 1021.2,183.4 1015,178.9 1011.9,181.1 1005.7,181.1 999.4,178.9 
			996.3,178.9 990.1,178.9 983.8,178.9 980.7,176.6 974.5,178.9 968.2,181.1 965.1,192.4 958.9,196.9 952.6,206 949.5,201.4 
			943.3,201.4 937.1,208.2 933.9,206 927.7,206 921.5,208.2 918.4,212.7 912.1,215 905.9,210.5 902.8,208.2 896.5,201.4 
			890.3,192.4 887.2,196.9 880.9,196.9 874.7,203.7 871.6,203.7 865.4,206 859.1,210.5 856,210.5 849.8,208.2 843.5,206 
			840.4,203.7 834.2,208.2 827.9,201.4 824.8,201.4 818.6,208.2 812.3,208.2 809.2,206 803,203.7 796.8,203.7 793.6,203.7 
			787.4,206 781.2,203.7 778.1,201.4 771.8,203.7 765.6,206 762.5,201.4 756.2,190.1 750,192.4 746.9,192.4 740.6,187.9 
			734.4,199.2 731.3,196.9 725.1,199.2 718.8,208.2 715.7,210.5 709.5,206 703.2,199.2 697,201.4 693.9,199.2 687.6,190.1 
			681.4,185.6 678.3,199.2 672,201.4 665.8,203.7 662.7,201.4 656.5,201.4 650.2,210.5 647.1,199.2 640.9,203.7 634.6,199.2 
			631.5,206 625.3,215 619,217.2 615.9,224 609.7,219.5 603.5,217.2 600.3,217.2 594.1,212.7 587.9,206 584.7,206 578.5,208.2 
			572.3,210.5 569.2,212.7 562.9,219.5 556.7,224 553.6,215 547.3,215 541.1,215 538,208.2 531.7,196.9 525.5,185.6 522.4,187.9 
			516.2,190.1 509.9,192.4 506.8,199.2 500.6,196.9 494.3,203.7 491.2,201.4 485,206 478.7,199.2 475.6,199.2 469.4,203.7 
			463.2,203.7 460,203.7 453.8,196.9 447.6,194.7 444.4,196.9 438.2,196.9 432,194.7 428.9,196.9 422.6,203.7 416.4,208.2 
			413.3,210.5 407,208.2 400.8,215 397.7,226.3 391.4,217.2 385.2,217.2 382.1,217.2 375.9,212.7 369.6,208.2 366.5,185.6 
			360.3,185.6 354,183.4 350.9,178.9 344.7,187.9 338.4,187.9 335.3,194.7 329.1,194.7 322.9,190.1 319.7,190.1 313.5,187.9 
			307.3,187.9 304.1,183.4 297.9,187.9 291.7,199.2 288.6,206 282.3,208.2 276.1,206 273,210.5 266.7,206 260.5,199.2 257.4,192.4 
			251.1,194.7 244.9,199.2 241.8,199.2 235.6,208.2 229.3,208.2 226.2,212.7 220,212.7 213.7,208.2 210.6,217.2 204.4,215 
			198.1,215 195,206 188.8,203.7 182.6,206 179.4,194.7 173.2,192.4 167,194.7 163.8,199.2 157.6,194.7 151.4,194.7 148.3,199.2 
			142,196.9 135.8,194.7 132.7,194.7 126.4,192.4 120.2,194.7 117.1,185.6 110.8,185.6 104.6,183.4 101.5,196.9 95.3,199.2 
			89,190.1 85.9,199.2 79.7,203.7 73.4,203.7 70.3,194.7 64.1,199.2 57.8,206 54.7,203.7 		"/>
	</g>
	<g>
		<g>
			<path class="st3" d="M29,365.9c0,3.2-1.9,5.1-4.2,5.1c-2.3,0-4.2-1.9-4.2-5.1s1.9-5.1,4.2-5.1C27.1,360.8,29,362.7,29,365.9z
				 M22.5,365.9c0,2.1,1,3.3,2.3,3.3c1.3,0,2.3-1.1,2.3-3.3c0-2.1-1-3.3-2.3-3.3C23.5,362.6,22.5,363.7,22.5,365.9z"/>
			<path class="st3" d="M35.7,363.5c0,1.5-1.2,2.7-2.7,2.7c-1.6,0-2.7-1.1-2.7-2.7c0-1.5,1.2-2.7,2.7-2.7
				C34.5,360.8,35.7,361.9,35.7,363.5z M31.8,363.5c0,0.7,0.5,1.2,1.2,1.2c0.7,0,1.2-0.5,1.2-1.2c0-0.7-0.5-1.2-1.2-1.2
				C32.3,362.2,31.8,362.8,31.8,363.5z M34.3,370.8h-1.8L39,361h1.8L34.3,370.8z M43.1,368.3c0,1.5-1.2,2.7-2.7,2.7
				c-1.6,0-2.7-1.1-2.7-2.7c0-1.5,1.2-2.7,2.7-2.7C41.9,365.6,43.1,366.7,43.1,368.3z M39.1,368.3c0,0.7,0.5,1.2,1.2,1.2
				c0.7,0,1.2-0.5,1.2-1.2c0-0.7-0.5-1.2-1.2-1.2C39.6,367.1,39.1,367.6,39.1,368.3z"/>
		</g>
	</g>
	<g>
		<g>
			<path class="st3" d="M18.7,336.9h-1.9v-7.3l-2.3,1v-1.9l4.2-1.7V336.9z"/>
			<path class="st3" d="M29,332c0,3.2-1.9,5.1-4.2,5.1c-2.3,0-4.2-1.9-4.2-5.1s1.9-5.1,4.2-5.1C27.1,326.9,29,328.8,29,332z
				 M22.5,332c0,2.1,1,3.3,2.3,3.3c1.3,0,2.3-1.1,2.3-3.3c0-2.1-1-3.3-2.3-3.3C23.5,328.7,22.5,329.9,22.5,332z"/>
			<path class="st3" d="M35.7,329.6c0,1.5-1.2,2.7-2.7,2.7c-1.6,0-2.7-1.1-2.7-2.7c0-1.5,1.2-2.7,2.7-2.7
				C34.5,326.9,35.7,328.1,35.7,329.6z M31.8,329.6c0,0.7,0.5,1.2,1.2,1.2c0.7,0,1.2-0.5,1.2-1.2c0-0.7-0.5-1.2-1.2-1.2
				C32.3,328.4,31.8,328.9,31.8,329.6z M34.3,336.9h-1.8l6.6-9.8h1.8L34.3,336.9z M43.1,334.4c0,1.5-1.2,2.7-2.7,2.7
				c-1.6,0-2.7-1.1-2.7-2.7c0-1.5,1.2-2.7,2.7-2.7C41.9,331.7,43.1,332.9,43.1,334.4z M39.1,334.4c0,0.7,0.5,1.2,1.2,1.2
				c0.7,0,1.2-0.5,1.2-1.2c0-0.7-0.5-1.2-1.2-1.2C39.6,333.2,39.1,333.7,39.1,334.4z"/>
		</g>
	</g>
	<g>
		<g>
			<path class="st3" d="M12.4,292.5c0.5-0.7,1.5-1.7,3.3-1.7c2.1,0,3.3,1.3,3.3,3.2c0,1.2-0.6,2-1.4,2.9l-2.1,2.2h3.7v1.8h-6.5v-1.5
				l3.5-3.6c0.5-0.5,0.8-1.1,0.8-1.7c0-0.9-0.6-1.5-1.5-1.5c-0.9,0-1.5,0.5-2,1.1L12.4,292.5z"/>
			<path class="st3" d="M29,295.9c0,3.2-1.9,5.1-4.2,5.1c-2.3,0-4.2-1.9-4.2-5.1s1.9-5.1,4.2-5.1C27.1,290.8,29,292.7,29,295.9z
				 M22.5,295.9c0,2.1,1,3.3,2.3,3.3c1.3,0,2.3-1.1,2.3-3.3c0-2.1-1-3.3-2.3-3.3C23.5,292.6,22.5,293.7,22.5,295.9z"/>
			<path class="st3" d="M35.7,293.5c0,1.5-1.2,2.7-2.7,2.7c-1.6,0-2.7-1.1-2.7-2.7c0-1.5,1.2-2.7,2.7-2.7
				C34.5,290.8,35.7,291.9,35.7,293.5z M31.8,293.5c0,0.7,0.5,1.2,1.2,1.2c0.7,0,1.2-0.5,1.2-1.2c0-0.7-0.5-1.2-1.2-1.2
				C32.3,292.3,31.8,292.8,31.8,293.5z M34.3,300.8h-1.8L39,291h1.8L34.3,300.8z M43.1,298.3c0,1.5-1.2,2.7-2.7,2.7
				c-1.6,0-2.7-1.1-2.7-2.7c0-1.5,1.2-2.7,2.7-2.7C41.9,295.6,43.1,296.7,43.1,298.3z M39.1,298.3c0,0.7,0.5,1.2,1.2,1.2
				c0.7,0,1.2-0.5,1.2-1.2c0-0.7-0.5-1.2-1.2-1.2C39.6,297.1,39.1,297.6,39.1,298.3z"/>
		</g>
	</g>
	<g>
		<g>
			<path class="st3" d="M19,259.7c0,1-0.6,1.8-1.5,2.2c1,0.4,1.7,1.2,1.7,2.2c0,1.9-1.8,2.9-3.6,2.9c-1.5,0-2.7-0.5-3.4-1.4l1.1-1.2
				c0.6,0.6,1.4,0.9,2.2,0.9c1,0,1.7-0.4,1.7-1.3c0-0.8-0.9-1.3-1.9-1.3h-1.1v-1.7h1.1c1,0,1.7-0.4,1.7-1.2c0-0.8-0.7-1.2-1.6-1.2
				c-0.9,0-1.6,0.5-2,1l-1.2-1.2c0.6-0.9,1.7-1.5,3.3-1.5C17.6,256.9,19,258,19,259.7z"/>
			<path class="st3" d="M29,262c0,3.2-1.9,5.1-4.2,5.1c-2.3,0-4.2-1.9-4.2-5.1s1.9-5.1,4.2-5.1C27.1,256.9,29,258.8,29,262z
				 M22.5,262c0,2.1,1,3.3,2.3,3.3c1.3,0,2.3-1.1,2.3-3.3c0-2.1-1-3.3-2.3-3.3C23.5,258.7,22.5,259.9,22.5,262z"/>
			<path class="st3" d="M35.7,259.6c0,1.5-1.2,2.7-2.7,2.7c-1.6,0-2.7-1.1-2.7-2.7c0-1.5,1.2-2.7,2.7-2.7
				C34.5,256.9,35.7,258.1,35.7,259.6z M31.8,259.6c0,0.7,0.5,1.2,1.2,1.2c0.7,0,1.2-0.5,1.2-1.2c0-0.7-0.5-1.2-1.2-1.2
				C32.3,258.4,31.8,258.9,31.8,259.6z M34.3,266.9h-1.8l6.6-9.8h1.8L34.3,266.9z M43.1,264.4c0,1.5-1.2,2.7-2.7,2.7
				c-1.6,0-2.7-1.1-2.7-2.7c0-1.5,1.2-2.7,2.7-2.7C41.9,261.7,43.1,262.9,43.1,264.4z M39.1,264.4c0,0.7,0.5,1.2,1.2,1.2
				c0.7,0,1.2-0.5,1.2-1.2c0-0.7-0.5-1.2-1.2-1.2C39.6,263.2,39.1,263.7,39.1,264.4z"/>
		</g>
	</g>
	<g>
		<g>
			<path class="st3" d="M18.2,229.5h1.4v1.8h-1.4v1.8h-1.9v-1.8h-4.3v-1.4l3.4-6.6h2.1l-3.3,6.2h2.1v-2.6h1.9V229.5z"/>
			<path class="st3" d="M29,228.1c0,3.2-1.9,5.1-4.2,5.1c-2.3,0-4.2-1.9-4.2-5.1c0-3.2,1.9-5.1,4.2-5.1C27.1,223.1,29,225,29,228.1z
				 M22.5,228.1c0,2.1,1,3.3,2.3,3.3c1.3,0,2.3-1.1,2.3-3.3c0-2.1-1-3.3-2.3-3.3C23.5,224.9,22.5,226,22.5,228.1z"/>
			<path class="st3" d="M35.7,225.7c0,1.5-1.2,2.7-2.7,2.7c-1.6,0-2.7-1.1-2.7-2.7c0-1.5,1.2-2.7,2.7-2.7
				C34.5,223.1,35.7,224.2,35.7,225.7z M31.8,225.7c0,0.7,0.5,1.2,1.2,1.2c0.7,0,1.2-0.5,1.2-1.2c0-0.7-0.5-1.2-1.2-1.2
				C32.3,224.5,31.8,225,31.8,225.7z M34.3,233h-1.8l6.6-9.8h1.8L34.3,233z M43.1,230.5c0,1.5-1.2,2.7-2.7,2.7
				c-1.6,0-2.7-1.1-2.7-2.7c0-1.5,1.2-2.7,2.7-2.7C41.9,227.9,43.1,229,43.1,230.5z M39.1,230.5c0,0.7,0.5,1.2,1.2,1.2
				c0.7,0,1.2-0.5,1.2-1.2c0-0.7-0.5-1.2-1.2-1.2C39.6,229.3,39.1,229.8,39.1,230.5z"/>
		</g>
	</g>
	<g>
		<g>
			<path class="st3" d="M18.6,191.1h-4l0,2h1.1c2.3,0,3.4,1.3,3.4,2.9c0,2.1-1.6,3.3-3.6,3.3c-1.5,0-2.7-0.5-3.5-1.5l1.1-1.3
				c0.5,0.6,1.5,1,2.4,1c1.1,0,1.6-0.6,1.6-1.4c0-0.7-0.5-1.4-2-1.4h-2.3l0.1-5.4h5.6V191.1z"/>
			<path class="st3" d="M29,194.3c0,3.2-1.9,5.1-4.2,5.1c-2.3,0-4.2-1.9-4.2-5.1c0-3.2,1.9-5.1,4.2-5.1
				C27.1,189.2,29,191.1,29,194.3z M22.5,194.3c0,2.1,1,3.3,2.3,3.3c1.3,0,2.3-1.1,2.3-3.3c0-2.1-1-3.3-2.3-3.3
				C23.5,191,22.5,192.1,22.5,194.3z"/>
			<path class="st3" d="M35.7,191.9c0,1.5-1.2,2.7-2.7,2.7c-1.6,0-2.7-1.1-2.7-2.7c0-1.5,1.2-2.7,2.7-2.7
				C34.5,189.2,35.7,190.3,35.7,191.9z M31.8,191.9c0,0.7,0.5,1.2,1.2,1.2c0.7,0,1.2-0.5,1.2-1.2c0-0.7-0.5-1.2-1.2-1.2
				C32.3,190.7,31.8,191.2,31.8,191.9z M34.3,199.2h-1.8l6.6-9.8h1.8L34.3,199.2z M43.1,196.7c0,1.5-1.2,2.7-2.7,2.7
				c-1.6,0-2.7-1.1-2.7-2.7c0-1.5,1.2-2.7,2.7-2.7C41.9,194,43.1,195.1,43.1,196.7z M39.1,196.7c0,0.7,0.5,1.2,1.2,1.2
				c0.7,0,1.2-0.5,1.2-1.2c0-0.7-0.5-1.2-1.2-1.2C39.6,195.5,39.1,196,39.1,196.7z"/>
		</g>
	</g>
	<g>
		<g>
			<path class="st3" d="M15.5,156.7c0.1,0,0.3,0,0.5,0c2,0,3.4,1.4,3.4,3.3c0,1.9-1.6,3.3-3.7,3.3c-2.1,0-3.7-1.4-3.7-3.3
				c0-0.9,0.3-1.7,0.9-2.6l2.7-4.1h2.3L15.5,156.7z M14,159.9c0,1,0.7,1.6,1.7,1.6c1,0,1.7-0.7,1.7-1.6c0-0.9-0.7-1.6-1.7-1.6
				C14.7,158.3,14,159,14,159.9z"/>
			<path class="st3" d="M29,158.2c0,3.2-1.9,5.1-4.2,5.1c-2.3,0-4.2-1.9-4.2-5.1c0-3.2,1.9-5.1,4.2-5.1C27.1,153.1,29,155,29,158.2z
				 M22.5,158.2c0,2.1,1,3.3,2.3,3.3c1.3,0,2.3-1.1,2.3-3.3c0-2.1-1-3.3-2.3-3.3C23.5,154.9,22.5,156,22.5,158.2z"/>
			<path class="st3" d="M35.7,155.7c0,1.5-1.2,2.7-2.7,2.7c-1.6,0-2.7-1.1-2.7-2.7c0-1.5,1.2-2.7,2.7-2.7
				C34.5,153.1,35.7,154.2,35.7,155.7z M31.8,155.7c0,0.7,0.5,1.2,1.2,1.2c0.7,0,1.2-0.5,1.2-1.2c0-0.7-0.5-1.2-1.2-1.2
				C32.3,154.5,31.8,155,31.8,155.7z M34.3,163.1h-1.8l6.6-9.8h1.8L34.3,163.1z M43.1,160.6c0,1.5-1.2,2.7-2.7,2.7
				c-1.6,0-2.7-1.1-2.7-2.7c0-1.5,1.2-2.7,2.7-2.7C41.9,157.9,43.1,159,43.1,160.6z M39.1,160.6c0,0.7,0.5,1.2,1.2,1.2
				c0.7,0,1.2-0.5,1.2-1.2c0-0.7-0.5-1.2-1.2-1.2C39.6,159.3,39.1,159.8,39.1,160.6z"/>
		</g>
	</g>
	<g>
		<g>
			<path class="st3" d="M19.5,120.9l-4.1,8.3h-2.2l4-8h-4.7v-1.8h6.9V120.9z"/>
			<path class="st3" d="M29,124.3c0,3.2-1.9,5.1-4.2,5.1c-2.3,0-4.2-1.9-4.2-5.1c0-3.2,1.9-5.1,4.2-5.1
				C27.1,119.2,29,121.1,29,124.3z M22.5,124.3c0,2.1,1,3.3,2.3,3.3c1.3,0,2.3-1.1,2.3-3.3c0-2.1-1-3.3-2.3-3.3
				C23.5,121,22.5,122.1,22.5,124.3z"/>
			<path class="st3" d="M35.7,121.9c0,1.5-1.2,2.7-2.7,2.7c-1.6,0-2.7-1.1-2.7-2.7c0-1.5,1.2-2.7,2.7-2.7
				C34.5,119.2,35.7,120.4,35.7,121.9z M31.8,121.9c0,0.7,0.5,1.2,1.2,1.2c0.7,0,1.2-0.5,1.2-1.2c0-0.7-0.5-1.2-1.2-1.2
				C32.3,120.7,31.8,121.2,31.8,121.9z M34.3,129.2h-1.8l6.6-9.8h1.8L34.3,129.2z M43.1,126.7c0,1.5-1.2,2.7-2.7,2.7
				c-1.6,0-2.7-1.1-2.7-2.7c0-1.5,1.2-2.7,2.7-2.7C41.9,124,43.1,125.2,43.1,126.7z M39.1,126.7c0,0.7,0.5,1.2,1.2,1.2
				c0.7,0,1.2-0.5,1.2-1.2c0-0.7-0.5-1.2-1.2-1.2C39.6,125.5,39.1,126,39.1,126.7z"/>
		</g>
	</g>
	<g>
		<g>
			<path class="st3" d="M19,88.2c0,1.1-0.7,1.8-1.5,2.2c1,0.4,1.7,1.1,1.7,2.3c0,1.8-1.7,2.8-3.8,2.8c-2.1,0-3.8-1.1-3.8-2.8
				c0-1.2,0.8-1.9,1.7-2.3c-0.8-0.4-1.5-1.1-1.5-2.2c0-1.8,1.6-2.8,3.6-2.8C17.4,85.3,19,86.4,19,88.2z M13.6,92.5
				c0,0.9,0.8,1.3,1.8,1.3c1,0,1.8-0.5,1.8-1.3c0-0.9-0.8-1.3-1.8-1.3C14.4,91.2,13.6,91.6,13.6,92.5z M13.8,88.3
				c0,0.8,0.7,1.3,1.6,1.3s1.6-0.4,1.6-1.3c0-0.8-0.7-1.3-1.6-1.3S13.8,87.5,13.8,88.3z"/>
			<path class="st3" d="M29,90.4c0,3.2-1.9,5.1-4.2,5.1c-2.3,0-4.2-1.9-4.2-5.1c0-3.2,1.9-5.1,4.2-5.1C27.1,85.3,29,87.3,29,90.4z
				 M22.5,90.4c0,2.1,1,3.3,2.3,3.3c1.3,0,2.3-1.1,2.3-3.3c0-2.1-1-3.3-2.3-3.3C23.5,87.2,22.5,88.3,22.5,90.4z"/>
			<path class="st3" d="M35.7,88c0,1.5-1.2,2.7-2.7,2.7c-1.6,0-2.7-1.1-2.7-2.7c0-1.5,1.2-2.7,2.7-2.7C34.5,85.3,35.7,86.5,35.7,88z
				 M31.8,88c0,0.7,0.5,1.2,1.2,1.2c0.7,0,1.2-0.5,1.2-1.2c0-0.7-0.5-1.2-1.2-1.2C32.3,86.8,31.8,87.3,31.8,88z M34.3,95.3h-1.8
				l6.6-9.8h1.8L34.3,95.3z M43.1,92.8c0,1.5-1.2,2.7-2.7,2.7c-1.6,0-2.7-1.1-2.7-2.7c0-1.5,1.2-2.7,2.7-2.7
				C41.9,90.2,43.1,91.3,43.1,92.8z M39.1,92.8c0,0.7,0.5,1.2,1.2,1.2c0.7,0,1.2-0.5,1.2-1.2c0-0.7-0.5-1.2-1.2-1.2
				C39.6,91.6,39.1,92.1,39.1,92.8z"/>
		</g>
	</g>
	<g>
		<g>
			<path class="st3" d="M15.9,58c-0.1,0-0.3,0-0.4,0c-2,0-3.4-1.4-3.4-3.3c0-1.9,1.6-3.3,3.7-3.3c2.1,0,3.7,1.4,3.7,3.3
				c0,0.9-0.3,1.7-0.9,2.6l-2.7,4.1h-2.3L15.9,58z M17.4,54.8c0-1-0.7-1.6-1.7-1.6c-1,0-1.7,0.7-1.7,1.6c0,0.9,0.7,1.6,1.7,1.6
				C16.7,56.4,17.4,55.8,17.4,54.8z"/>
			<path class="st3" d="M29,56.6c0,3.2-1.9,5.1-4.2,5.1c-2.3,0-4.2-1.9-4.2-5.1c0-3.2,1.9-5.1,4.2-5.1C27.1,51.5,29,53.4,29,56.6z
				 M22.5,56.6c0,2.1,1,3.3,2.3,3.3c1.3,0,2.3-1.1,2.3-3.3c0-2.1-1-3.3-2.3-3.3C23.5,53.3,22.5,54.4,22.5,56.6z"/>
			<path class="st3" d="M35.7,54.1c0,1.5-1.2,2.7-2.7,2.7c-1.6,0-2.7-1.1-2.7-2.7c0-1.5,1.2-2.7,2.7-2.7
				C34.5,51.5,35.7,52.6,35.7,54.1z M31.8,54.1c0,0.7,0.5,1.2,1.2,1.2c0.7,0,1.2-0.5,1.2-1.2c0-0.7-0.5-1.2-1.2-1.2
				C32.3,52.9,31.8,53.4,31.8,54.1z M34.3,61.5h-1.8l6.6-9.8h1.8L34.3,61.5z M43.1,59c0,1.5-1.2,2.7-2.7,2.7c-1.6,0-2.7-1.1-2.7-2.7
				c0-1.5,1.2-2.7,2.7-2.7C41.9,56.3,43.1,57.4,43.1,59z M39.1,59c0,0.7,0.5,1.2,1.2,1.2c0.7,0,1.2-0.5,1.2-1.2
				c0-0.7-0.5-1.2-1.2-1.2C39.6,57.7,39.1,58.3,39.1,59z"/>
		</g>
	</g>
	<g>
		<g>
			<path class="st3" d="M8.8,26.3H6.9V19l-2.3,1v-1.9l4.2-1.7V26.3z"/>
			<path class="st3" d="M19.1,21.4c0,3.2-1.9,5.1-4.2,5.1c-2.3,0-4.2-1.9-4.2-5.1c0-3.2,1.9-5.1,4.2-5.1
				C17.2,16.4,19.1,18.3,19.1,21.4z M12.6,21.4c0,2.1,1,3.3,2.3,3.3c1.3,0,2.3-1.1,2.3-3.3c0-2.1-1-3.3-2.3-3.3
				C13.6,18.2,12.6,19.3,12.6,21.4z"/>
			<path class="st3" d="M29,21.4c0,3.2-1.9,5.1-4.2,5.1c-2.3,0-4.2-1.9-4.2-5.1c0-3.2,1.9-5.1,4.2-5.1C27.1,16.4,29,18.3,29,21.4z
				 M22.5,21.4c0,2.1,1,3.3,2.3,3.3c1.3,0,2.3-1.1,2.3-3.3c0-2.1-1-3.3-2.3-3.3C23.5,18.2,22.5,19.3,22.5,21.4z"/>
			<path class="st3" d="M35.7,19c0,1.5-1.2,2.7-2.7,2.7c-1.6,0-2.7-1.1-2.7-2.7c0-1.5,1.2-2.7,2.7-2.7C34.5,16.4,35.7,17.5,35.7,19z
				 M31.8,19c0,0.7,0.5,1.2,1.2,1.2c0.7,0,1.2-0.5,1.2-1.2c0-0.7-0.5-1.2-1.2-1.2C32.3,17.8,31.8,18.3,31.8,19z M34.3,26.3h-1.8
				l6.6-9.8h1.8L34.3,26.3z M43.1,23.8c0,1.5-1.2,2.7-2.7,2.7c-1.6,0-2.7-1.1-2.7-2.7c0-1.5,1.2-2.7,2.7-2.7
				C41.9,21.2,43.1,22.3,43.1,23.8z M39.1,23.8c0,0.7,0.5,1.2,1.2,1.2c0.7,0,1.2-0.5,1.2-1.2c0-0.7-0.5-1.2-1.2-1.2
				C39.6,22.6,39.1,23.1,39.1,23.8z"/>
		</g>
	</g>
	<g>
		<g>
			<path class="st3" d="M49.7,382c0.5-0.7,1.5-1.7,3.3-1.7c2.1,0,3.3,1.3,3.3,3.2c0,1.2-0.6,2-1.4,2.9l-2.1,2.2h3.7v1.8h-6.5v-1.5
				l3.5-3.6c0.5-0.5,0.8-1.1,0.8-1.7c0-0.9-0.6-1.5-1.5-1.5c-0.9,0-1.5,0.5-2,1.1L49.7,382z"/>
			<path class="st3" d="M66.3,385.4c0,3.2-1.9,5.1-4.2,5.1c-2.3,0-4.2-1.9-4.2-5.1c0-3.2,1.9-5.1,4.2-5.1
				C64.4,380.3,66.3,382.2,66.3,385.4z M59.8,385.4c0,2.1,1,3.3,2.3,3.3c1.3,0,2.3-1.1,2.3-3.3c0-2.1-1-3.3-2.3-3.3
				C60.8,382.1,59.8,383.2,59.8,385.4z"/>
			<path class="st3" d="M76.1,385.4c0,3.2-1.9,5.1-4.2,5.1c-2.3,0-4.2-1.9-4.2-5.1c0-3.2,1.9-5.1,4.2-5.1
				C74.2,380.3,76.1,382.2,76.1,385.4z M69.7,385.4c0,2.1,1,3.3,2.3,3.3c1.3,0,2.3-1.1,2.3-3.3c0-2.1-1-3.3-2.3-3.3
				C70.7,382.1,69.7,383.2,69.7,385.4z"/>
			<path class="st3" d="M84,383.1c0,1-0.6,1.8-1.5,2.2c1,0.4,1.7,1.2,1.7,2.2c0,1.9-1.8,2.9-3.6,2.9c-1.5,0-2.7-0.5-3.4-1.4l1.1-1.2
				c0.6,0.6,1.4,0.9,2.2,0.9c1,0,1.7-0.4,1.7-1.3c0-0.8-0.9-1.3-1.9-1.3h-1.1v-1.7h1.1c1,0,1.7-0.4,1.7-1.2c0-0.8-0.7-1.2-1.6-1.2
				c-0.9,0-1.6,0.5-2,1l-1.2-1.2c0.6-0.9,1.7-1.5,3.3-1.5C82.6,380.3,84,381.4,84,383.1z"/>
		</g>
	</g>
	<g>
		<g>
			<path class="st3" d="M110.3,381.9c0.5-0.7,1.5-1.7,3.3-1.7c2.1,0,3.3,1.3,3.3,3.2c0,1.2-0.6,2-1.4,2.9l-2.1,2.2h3.7v1.8h-6.5
				v-1.5l3.5-3.6c0.5-0.5,0.8-1.1,0.8-1.7c0-0.9-0.6-1.5-1.5-1.5c-0.9,0-1.5,0.5-2,1.1L110.3,381.9z"/>
			<path class="st3" d="M126.8,385.3c0,3.2-1.9,5.1-4.2,5.1c-2.3,0-4.2-1.9-4.2-5.1c0-3.2,1.9-5.1,4.2-5.1
				C125,380.2,126.8,382.1,126.8,385.3z M120.4,385.3c0,2.1,1,3.3,2.3,3.3c1.3,0,2.3-1.1,2.3-3.3c0-2.1-1-3.3-2.3-3.3
				C121.4,382,120.4,383.1,120.4,385.3z"/>
			<path class="st3" d="M136.7,385.3c0,3.2-1.9,5.1-4.2,5.1c-2.3,0-4.2-1.9-4.2-5.1c0-3.2,1.9-5.1,4.2-5.1
				C134.8,380.2,136.7,382.1,136.7,385.3z M130.2,385.3c0,2.1,1,3.3,2.3,3.3c1.3,0,2.3-1.1,2.3-3.3c0-2.1-1-3.3-2.3-3.3
				C131.2,382,130.2,383.1,130.2,385.3z"/>
			<path class="st3" d="M144,386.6h1.4v1.8H144v1.8h-1.9v-1.8h-4.3V387l3.4-6.6h2.1l-3.3,6.2h2.1V384h1.9V386.6z"/>
		</g>
	</g>
	<g>
		<g>
			<path class="st3" d="M171,381.9c0.5-0.7,1.5-1.7,3.3-1.7c2.1,0,3.3,1.3,3.3,3.2c0,1.2-0.6,2-1.4,2.9l-2.1,2.2h3.7v1.8h-6.5v-1.5
				l3.5-3.6c0.5-0.5,0.8-1.1,0.8-1.7c0-0.9-0.6-1.5-1.5-1.5c-0.9,0-1.5,0.5-2,1.1L171,381.9z"/>
			<path class="st3" d="M187.5,385.3c0,3.2-1.9,5.1-4.2,5.1c-2.3,0-4.2-1.9-4.2-5.1c0-3.2,1.9-5.1,4.2-5.1
				C185.7,380.2,187.5,382.1,187.5,385.3z M181.1,385.3c0,2.1,1,3.3,2.3,3.3c1.3,0,2.3-1.1,2.3-3.3c0-2.1-1-3.3-2.3-3.3
				C182.1,382,181.1,383.1,181.1,385.3z"/>
			<path class="st3" d="M197.4,385.3c0,3.2-1.9,5.1-4.2,5.1c-2.3,0-4.2-1.9-4.2-5.1c0-3.2,1.9-5.1,4.2-5.1
				C195.5,380.2,197.4,382.1,197.4,385.3z M190.9,385.3c0,2.1,1,3.3,2.3,3.3c1.3,0,2.3-1.1,2.3-3.3c0-2.1-1-3.3-2.3-3.3
				C191.9,382,190.9,383.1,190.9,385.3z"/>
			<path class="st3" d="M205.1,382.1h-4l0,2h1.1c2.3,0,3.4,1.3,3.4,2.9c0,2.1-1.6,3.3-3.6,3.3c-1.5,0-2.7-0.5-3.5-1.5l1.1-1.3
				c0.5,0.6,1.5,1,2.4,1c1.1,0,1.6-0.6,1.6-1.4c0-0.7-0.5-1.4-2-1.4h-2.3l0.1-5.4h5.6V382.1z"/>
		</g>
	</g>
	<g>
		<g>
			<path class="st3" d="M231.6,381.9c0.5-0.7,1.5-1.7,3.3-1.7c2.1,0,3.3,1.3,3.3,3.2c0,1.2-0.6,2-1.4,2.9l-2.1,2.2h3.7v1.8H232v-1.5
				l3.5-3.6c0.5-0.5,0.8-1.1,0.8-1.7c0-0.9-0.6-1.5-1.5-1.5c-0.9,0-1.5,0.5-2,1.1L231.6,381.9z"/>
			<path class="st3" d="M248.2,385.2c0,3.2-1.9,5.1-4.2,5.1c-2.3,0-4.2-1.9-4.2-5.1c0-3.2,1.9-5.1,4.2-5.1
				C246.3,380.2,248.2,382.1,248.2,385.2z M241.7,385.2c0,2.1,1,3.3,2.3,3.3c1.3,0,2.3-1.1,2.3-3.3c0-2.1-1-3.3-2.3-3.3
				C242.7,382,241.7,383.1,241.7,385.2z"/>
			<path class="st3" d="M258.1,385.2c0,3.2-1.9,5.1-4.2,5.1c-2.3,0-4.2-1.9-4.2-5.1c0-3.2,1.9-5.1,4.2-5.1
				C256.2,380.2,258.1,382.1,258.1,385.2z M251.6,385.2c0,2.1,1,3.3,2.3,3.3c1.3,0,2.3-1.1,2.3-3.3c0-2.1-1-3.3-2.3-3.3
				C252.6,382,251.6,383.1,251.6,385.2z"/>
			<path class="st3" d="M262.7,383.8c0.1,0,0.3,0,0.5,0c2,0,3.4,1.4,3.4,3.3c0,1.9-1.6,3.3-3.7,3.3c-2.1,0-3.7-1.4-3.7-3.3
				c0-0.9,0.3-1.7,0.9-2.6l2.7-4.1h2.3L262.7,383.8z M261.2,387c0,1,0.7,1.6,1.7,1.6c1,0,1.7-0.7,1.7-1.6c0-0.9-0.7-1.6-1.7-1.6
				C261.9,385.4,261.2,386,261.2,387z"/>
		</g>
	</g>
	<g>
		<g>
			<path class="st3" d="M292.6,382.1c0.5-0.7,1.5-1.7,3.3-1.7c2.1,0,3.3,1.3,3.3,3.2c0,1.2-0.6,2-1.4,2.9l-2.1,2.2h3.7v1.8H293v-1.5
				l3.5-3.6c0.5-0.5,0.8-1.1,0.8-1.7c0-0.9-0.6-1.5-1.5-1.5c-0.9,0-1.5,0.5-2,1.1L292.6,382.1z"/>
			<path class="st3" d="M309.1,385.5c0,3.2-1.9,5.1-4.2,5.1c-2.3,0-4.2-1.9-4.2-5.1s1.9-5.1,4.2-5.1
				C307.3,380.4,309.1,382.4,309.1,385.5z M302.7,385.5c0,2.1,1,3.3,2.3,3.3c1.3,0,2.3-1.1,2.3-3.3s-1-3.3-2.3-3.3
				C303.7,382.3,302.7,383.4,302.7,385.5z"/>
			<path class="st3" d="M319,385.5c0,3.2-1.9,5.1-4.2,5.1c-2.3,0-4.2-1.9-4.2-5.1s1.9-5.1,4.2-5.1C317.1,380.4,319,382.4,319,385.5z
				 M312.5,385.5c0,2.1,1,3.3,2.3,3.3c1.3,0,2.3-1.1,2.3-3.3s-1-3.3-2.3-3.3C313.5,382.3,312.5,383.4,312.5,385.5z"/>
			<path class="st3" d="M327.1,382.1l-4.1,8.3h-2.2l4-8h-4.7v-1.8h6.9V382.1z"/>
		</g>
	</g>
	<g>
		<g>
			<path class="st3" d="M352.7,381.5c0.5-0.7,1.5-1.7,3.3-1.7c2.1,0,3.3,1.3,3.3,3.2c0,1.2-0.6,2-1.4,2.9l-2.1,2.2h3.7v1.8h-6.5
				v-1.5l3.5-3.6c0.5-0.5,0.8-1.1,0.8-1.7c0-0.9-0.6-1.5-1.5-1.5c-0.9,0-1.5,0.5-2,1.1L352.7,381.5z"/>
			<path class="st3" d="M369.2,384.9c0,3.2-1.9,5.1-4.2,5.1c-2.3,0-4.2-1.9-4.2-5.1c0-3.2,1.9-5.1,4.2-5.1
				C367.4,379.9,369.2,381.8,369.2,384.9z M362.8,384.9c0,2.1,1,3.3,2.3,3.3c1.3,0,2.3-1.1,2.3-3.3c0-2.1-1-3.3-2.3-3.3
				C363.8,381.7,362.8,382.8,362.8,384.9z"/>
			<path class="st3" d="M379.1,384.9c0,3.2-1.9,5.1-4.2,5.1c-2.3,0-4.2-1.9-4.2-5.1c0-3.2,1.9-5.1,4.2-5.1
				C377.2,379.9,379.1,381.8,379.1,384.9z M372.6,384.9c0,2.1,1,3.3,2.3,3.3c1.3,0,2.3-1.1,2.3-3.3c0-2.1-1-3.3-2.3-3.3
				C373.6,381.7,372.6,382.8,372.6,384.9z"/>
			<path class="st3" d="M387.9,382.7c0,1.1-0.7,1.8-1.5,2.2c1,0.4,1.7,1.1,1.7,2.3c0,1.8-1.7,2.8-3.8,2.8s-3.8-1.1-3.8-2.8
				c0-1.2,0.8-1.9,1.7-2.3c-0.8-0.4-1.5-1.1-1.5-2.2c0-1.8,1.6-2.8,3.6-2.8S387.9,380.9,387.9,382.7z M382.5,387
				c0,0.9,0.8,1.3,1.8,1.3c1,0,1.8-0.5,1.8-1.3c0-0.9-0.8-1.3-1.8-1.3C383.3,385.7,382.5,386.1,382.5,387z M382.7,382.8
				c0,0.8,0.7,1.3,1.6,1.3c0.9,0,1.6-0.4,1.6-1.3c0-0.8-0.7-1.3-1.6-1.3C383.4,381.6,382.7,382,382.7,382.8z"/>
		</g>
	</g>
	<g>
		<g>
			<path class="st3" d="M413.6,381.9c0.5-0.7,1.5-1.7,3.3-1.7c2.1,0,3.3,1.3,3.3,3.2c0,1.2-0.6,2-1.4,2.9l-2.1,2.2h3.7v1.8h-6.5
				v-1.5l3.5-3.6c0.5-0.5,0.8-1.1,0.8-1.7c0-0.9-0.6-1.5-1.5-1.5c-0.9,0-1.5,0.5-2,1.1L413.6,381.9z"/>
			<path class="st3" d="M430.2,385.2c0,3.2-1.9,5.1-4.2,5.1c-2.3,0-4.2-1.9-4.2-5.1c0-3.2,1.9-5.1,4.2-5.1
				C428.3,380.2,430.2,382.1,430.2,385.2z M423.8,385.2c0,2.1,1,3.3,2.3,3.3c1.3,0,2.3-1.1,2.3-3.3c0-2.1-1-3.3-2.3-3.3
				C424.8,382,423.8,383.1,423.8,385.2z"/>
			<path class="st3" d="M440.1,385.2c0,3.2-1.9,5.1-4.2,5.1c-2.3,0-4.2-1.9-4.2-5.1c0-3.2,1.9-5.1,4.2-5.1
				C438.2,380.2,440.1,382.1,440.1,385.2z M433.6,385.2c0,2.1,1,3.3,2.3,3.3c1.3,0,2.3-1.1,2.3-3.3c0-2.1-1-3.3-2.3-3.3
				C434.6,382,433.6,383.1,433.6,385.2z"/>
			<path class="st3" d="M445.1,386.7c-0.1,0-0.3,0-0.4,0c-2,0-3.4-1.4-3.4-3.3c0-1.9,1.6-3.3,3.7-3.3c2.1,0,3.7,1.4,3.7,3.3
				c0,0.9-0.3,1.7-0.9,2.6l-2.7,4.1h-2.3L445.1,386.7z M446.7,383.5c0-1-0.7-1.6-1.7-1.6c-1,0-1.7,0.7-1.7,1.6
				c0,0.9,0.7,1.6,1.7,1.6C446,385.1,446.7,384.4,446.7,383.5z"/>
		</g>
	</g>
	<g>
		<g>
			<path class="st3" d="M475.6,383.1c0.5-0.7,1.5-1.7,3.3-1.7c2.1,0,3.3,1.3,3.3,3.2c0,1.2-0.6,2-1.4,2.9l-2.1,2.2h3.7v1.8H476v-1.5
				l3.5-3.6c0.5-0.5,0.8-1.1,0.8-1.7c0-0.9-0.6-1.5-1.5-1.5c-0.9,0-1.5,0.5-2,1.1L475.6,383.1z"/>
			<path class="st3" d="M492.2,386.5c0,3.2-1.9,5.1-4.2,5.1c-2.3,0-4.2-1.9-4.2-5.1s1.9-5.1,4.2-5.1
				C490.3,381.4,492.2,383.3,492.2,386.5z M485.7,386.5c0,2.1,1,3.3,2.3,3.3c1.3,0,2.3-1.1,2.3-3.3s-1-3.3-2.3-3.3
				C486.7,383.2,485.7,384.4,485.7,386.5z"/>
			<path class="st3" d="M497.5,391.4h-1.9v-7.3l-2.3,1v-1.9l4.2-1.7V391.4z"/>
			<path class="st3" d="M507.8,386.5c0,3.2-1.9,5.1-4.2,5.1c-2.3,0-4.2-1.9-4.2-5.1s1.9-5.1,4.2-5.1
				C505.9,381.4,507.8,383.3,507.8,386.5z M501.3,386.5c0,2.1,1,3.3,2.3,3.3c1.3,0,2.3-1.1,2.3-3.3s-1-3.3-2.3-3.3
				C502.3,383.2,501.3,384.4,501.3,386.5z"/>
		</g>
	</g>
	<g>
		<g>
			<path class="st3" d="M538.3,385.2c0.5-0.7,1.5-1.7,3.3-1.7c2.1,0,3.3,1.3,3.3,3.2c0,1.2-0.6,2-1.4,2.9l-2.1,2.2h3.7v1.8h-6.5V392
				l3.5-3.6c0.5-0.5,0.8-1.1,0.8-1.7c0-0.9-0.6-1.5-1.5-1.5c-0.9,0-1.5,0.5-2,1.1L538.3,385.2z"/>
			<path class="st3" d="M554.9,388.6c0,3.2-1.9,5.1-4.2,5.1c-2.3,0-4.2-1.9-4.2-5.1s1.9-5.1,4.2-5.1
				C553,383.5,554.9,385.4,554.9,388.6z M548.4,388.6c0,2.1,1,3.3,2.3,3.3c1.3,0,2.3-1.1,2.3-3.3c0-2.1-1-3.3-2.3-3.3
				C549.4,385.3,548.4,386.4,548.4,388.6z"/>
			<path class="st3" d="M560.2,393.5h-1.9v-7.3l-2.3,1v-1.9l4.2-1.7V393.5z"/>
			<path class="st3" d="M566,393.5h-1.9v-7.3l-2.3,1v-1.9l4.2-1.7V393.5z"/>
		</g>
	</g>
	<g>
		<g>
			<path class="st3" d="M598,384.1c0.5-0.7,1.5-1.7,3.3-1.7c2.1,0,3.3,1.3,3.3,3.2c0,1.2-0.6,2-1.4,2.9l-2.1,2.2h3.7v1.8h-6.5v-1.5
				l3.5-3.6c0.5-0.5,0.8-1.1,0.8-1.7c0-0.9-0.6-1.5-1.5-1.5c-0.9,0-1.5,0.5-2,1.1L598,384.1z"/>
			<path class="st3" d="M614.6,387.5c0,3.2-1.9,5.1-4.2,5.1c-2.3,0-4.2-1.9-4.2-5.1s1.9-5.1,4.2-5.1
				C612.7,382.4,614.6,384.3,614.6,387.5z M608.1,387.5c0,2.1,1,3.3,2.3,3.3c1.3,0,2.3-1.1,2.3-3.3c0-2.1-1-3.3-2.3-3.3
				C609.1,384.2,608.1,385.4,608.1,387.5z"/>
			<path class="st3" d="M619.9,392.4H618v-7.3l-2.3,1v-1.9l4.2-1.7V392.4z"/>
			<path class="st3" d="M621.5,384.1c0.5-0.7,1.5-1.7,3.3-1.7c2.1,0,3.3,1.3,3.3,3.2c0,1.2-0.6,2-1.4,2.9l-2.1,2.2h3.7v1.8h-6.5
				v-1.5l3.5-3.6c0.5-0.5,0.8-1.1,0.8-1.7c0-0.9-0.6-1.5-1.5-1.5c-0.9,0-1.5,0.5-2,1.1L621.5,384.1z"/>
		</g>
	</g>
	<g>
		<g>
			<path class="st3" d="M658.6,384c0.5-0.7,1.5-1.7,3.3-1.7c2.1,0,3.3,1.3,3.3,3.2c0,1.2-0.6,2-1.4,2.9l-2.1,2.2h3.7v1.8H659v-1.5
				l3.5-3.6c0.5-0.5,0.8-1.1,0.8-1.7c0-0.9-0.6-1.5-1.5-1.5c-0.9,0-1.5,0.5-2,1.1L658.6,384z"/>
			<path class="st3" d="M675.2,387.4c0,3.2-1.9,5.1-4.2,5.1c-2.3,0-4.2-1.9-4.2-5.1s1.9-5.1,4.2-5.1
				C673.3,382.4,675.2,384.3,675.2,387.4z M668.7,387.4c0,2.1,1,3.3,2.3,3.3c1.3,0,2.3-1.1,2.3-3.3c0-2.1-1-3.3-2.3-3.3
				C669.7,384.2,668.7,385.3,668.7,387.4z"/>
			<path class="st3" d="M680.5,392.3h-1.9V385l-2.3,1v-1.9l4.2-1.7V392.3z"/>
			<path class="st3" d="M688.8,385.2c0,1-0.6,1.8-1.5,2.2c1,0.4,1.7,1.2,1.7,2.2c0,1.9-1.8,2.9-3.6,2.9c-1.5,0-2.7-0.5-3.4-1.4
				l1.1-1.2c0.6,0.6,1.4,0.9,2.2,0.9c1,0,1.7-0.4,1.7-1.3c0-0.8-0.9-1.3-1.9-1.3H684v-1.7h1.1c1,0,1.7-0.4,1.7-1.2
				c0-0.8-0.7-1.2-1.6-1.2c-0.9,0-1.6,0.5-2,1l-1.2-1.2c0.6-0.9,1.7-1.5,3.3-1.5C687.4,382.4,688.8,383.5,688.8,385.2z"/>
		</g>
	</g>
	<g>
		<g>
			<path class="st3" d="M719.2,384c0.5-0.7,1.5-1.7,3.3-1.7c2.1,0,3.3,1.3,3.3,3.2c0,1.2-0.6,2-1.4,2.9l-2.1,2.2h3.7v1.8h-6.5v-1.5
				l3.5-3.6c0.5-0.5,0.8-1.1,0.8-1.7c0-0.9-0.6-1.5-1.5-1.5c-0.9,0-1.5,0.5-2,1.1L719.2,384z"/>
			<path class="st3" d="M735.8,387.4c0,3.2-1.9,5.1-4.2,5.1c-2.3,0-4.2-1.9-4.2-5.1s1.9-5.1,4.2-5.1
				C733.9,382.3,735.8,384.2,735.8,387.4z M729.3,387.4c0,2.1,1,3.3,2.3,3.3c1.3,0,2.3-1.1,2.3-3.3c0-2.1-1-3.3-2.3-3.3
				C730.3,384.1,729.3,385.2,729.3,387.4z"/>
			<path class="st3" d="M741.1,392.3h-1.9V385l-2.3,1V384l4.2-1.7V392.3z"/>
			<path class="st3" d="M748.8,388.7h1.4v1.8h-1.4v1.8h-1.9v-1.8h-4.3v-1.4l3.4-6.6h2.1l-3.3,6.2h2.1v-2.6h1.9V388.7z"/>
		</g>
	</g>
	<g>
		<g>
			<path class="st3" d="M779.9,384c0.5-0.7,1.5-1.7,3.3-1.7c2.1,0,3.3,1.3,3.3,3.2c0,1.2-0.6,2-1.4,2.9l-2.1,2.2h3.7v1.8h-6.5v-1.5
				l3.5-3.6c0.5-0.5,0.8-1.1,0.8-1.7c0-0.9-0.6-1.5-1.5-1.5c-0.9,0-1.5,0.5-2,1.1L779.9,384z"/>
			<path class="st3" d="M796.5,387.4c0,3.2-1.9,5.1-4.2,5.1c-2.3,0-4.2-1.9-4.2-5.1s1.9-5.1,4.2-5.1
				C794.6,382.3,796.5,384.2,796.5,387.4z M790,387.4c0,2.1,1,3.3,2.3,3.3c1.3,0,2.3-1.1,2.3-3.3c0-2.1-1-3.3-2.3-3.3
				C791,384.1,790,385.2,790,387.4z"/>
			<path class="st3" d="M801.8,392.3h-1.9V385l-2.3,1V384l4.2-1.7V392.3z"/>
			<path class="st3" d="M809.9,384.2h-4l0,2h1.1c2.3,0,3.4,1.3,3.4,2.9c0,2.1-1.6,3.3-3.6,3.3c-1.5,0-2.7-0.5-3.5-1.5l1.1-1.3
				c0.5,0.6,1.5,1,2.4,1c1.1,0,1.6-0.6,1.6-1.4c0-0.7-0.5-1.4-2-1.4h-2.3l0.1-5.4h5.6V384.2z"/>
		</g>
	</g>
	<g>
		<g>
			<path class="st3" d="M840.5,383.9c0.5-0.7,1.5-1.7,3.3-1.7c2.1,0,3.3,1.3,3.3,3.2c0,1.2-0.6,2-1.4,2.9l-2.1,2.2h3.7v1.8H841v-1.5
				l3.5-3.6c0.5-0.5,0.8-1.1,0.8-1.7c0-0.9-0.6-1.5-1.5-1.5c-0.9,0-1.5,0.5-2,1.1L840.5,383.9z"/>
			<path class="st3" d="M857.1,387.3c0,3.2-1.9,5.1-4.2,5.1c-2.3,0-4.2-1.9-4.2-5.1s1.9-5.1,4.2-5.1
				C855.2,382.2,857.1,384.1,857.1,387.3z M850.6,387.3c0,2.1,1,3.3,2.3,3.3c1.3,0,2.3-1.1,2.3-3.3c0-2.1-1-3.3-2.3-3.3
				C851.6,384,850.6,385.2,850.6,387.3z"/>
			<path class="st3" d="M862.4,392.2h-1.9v-7.3l-2.3,1V384l4.2-1.7V392.2z"/>
			<path class="st3" d="M867.5,385.8c0.1,0,0.3,0,0.5,0c2,0,3.4,1.4,3.4,3.3c0,1.9-1.6,3.3-3.7,3.3c-2.1,0-3.7-1.4-3.7-3.3
				c0-0.9,0.3-1.7,0.9-2.6l2.7-4.1h2.3L867.5,385.8z M866,389.1c0,1,0.7,1.6,1.7,1.6c1,0,1.7-0.7,1.7-1.6c0-0.9-0.7-1.6-1.7-1.6
				C866.7,387.5,866,388.1,866,389.1z"/>
		</g>
	</g>
	<g>
		<g>
			<path class="st3" d="M901.5,384.2c0.5-0.7,1.5-1.7,3.3-1.7c2.1,0,3.3,1.3,3.3,3.2c0,1.2-0.6,2-1.4,2.9l-2.1,2.2h3.7v1.8h-6.5V391
				l3.5-3.6c0.5-0.5,0.8-1.1,0.8-1.7c0-0.9-0.6-1.5-1.5-1.5c-0.9,0-1.5,0.5-2,1.1L901.5,384.2z"/>
			<path class="st3" d="M918.1,387.6c0,3.2-1.9,5.1-4.2,5.1c-2.3,0-4.2-1.9-4.2-5.1s1.9-5.1,4.2-5.1
				C916.2,382.5,918.1,384.4,918.1,387.6z M911.6,387.6c0,2.1,1,3.3,2.3,3.3c1.3,0,2.3-1.1,2.3-3.3c0-2.1-1-3.3-2.3-3.3
				C912.6,384.3,911.6,385.4,911.6,387.6z"/>
			<path class="st3" d="M923.4,392.5h-1.9v-7.3l-2.3,1v-1.9l4.2-1.7V392.5z"/>
			<path class="st3" d="M931.9,384.2l-4.1,8.3h-2.2l4-8H925v-1.8h6.9V384.2z"/>
		</g>
	</g>
	<g>
		<g>
			<path class="st3" d="M961.6,383.6c0.5-0.7,1.5-1.7,3.3-1.7c2.1,0,3.3,1.3,3.3,3.2c0,1.2-0.6,2-1.4,2.9l-2.1,2.2h3.7v1.8H962v-1.5
				l3.5-3.6c0.5-0.5,0.8-1.1,0.8-1.7c0-0.9-0.6-1.5-1.5-1.5c-0.9,0-1.5,0.5-2,1.1L961.6,383.6z"/>
			<path class="st3" d="M978.2,387c0,3.2-1.9,5.1-4.2,5.1c-2.3,0-4.2-1.9-4.2-5.1s1.9-5.1,4.2-5.1
				C976.3,381.9,978.2,383.8,978.2,387z M971.7,387c0,2.1,1,3.3,2.3,3.3c1.3,0,2.3-1.1,2.3-3.3c0-2.1-1-3.3-2.3-3.3
				C972.7,383.7,971.7,384.9,971.7,387z"/>
			<path class="st3" d="M983.5,391.9h-1.9v-7.3l-2.3,1v-1.9l4.2-1.7V391.9z"/>
			<path class="st3" d="M992.7,384.7c0,1.1-0.7,1.8-1.5,2.2c1,0.4,1.7,1.1,1.7,2.3c0,1.8-1.7,2.8-3.8,2.8s-3.8-1.1-3.8-2.8
				c0-1.2,0.8-1.9,1.7-2.3c-0.8-0.4-1.5-1.1-1.5-2.2c0-1.8,1.6-2.8,3.6-2.8S992.7,383,992.7,384.7z M987.3,389.1
				c0,0.9,0.8,1.3,1.8,1.3c1,0,1.8-0.5,1.8-1.3c0-0.9-0.8-1.3-1.8-1.3C988.1,387.7,987.3,388.2,987.3,389.1z M987.5,384.9
				c0,0.8,0.7,1.3,1.6,1.3c0.9,0,1.6-0.4,1.6-1.3c0-0.8-0.7-1.3-1.6-1.3C988.2,383.6,987.5,384.1,987.5,384.9z"/>
		</g>
	</g>
	<g>
		<g>
			<path class="st3" d="M1022.6,383.9c0.5-0.7,1.5-1.7,3.3-1.7c2.1,0,3.3,1.3,3.3,3.2c0,1.2-0.6,2-1.4,2.9l-2.1,2.2h3.7v1.8h-6.5
				v-1.5l3.5-3.6c0.5-0.5,0.8-1.1,0.8-1.7c0-0.9-0.6-1.5-1.5-1.5c-0.9,0-1.5,0.5-2,1.1L1022.6,383.9z"/>
			<path class="st3" d="M1039.2,387.3c0,3.2-1.9,5.1-4.2,5.1c-2.3,0-4.2-1.9-4.2-5.1s1.9-5.1,4.2-5.1
				C1037.3,382.2,1039.2,384.1,1039.2,387.3z M1032.7,387.3c0,2.1,1,3.3,2.3,3.3c1.3,0,2.3-1.1,2.3-3.3c0-2.1-1-3.3-2.3-3.3
				C1033.7,384,1032.7,385.2,1032.7,387.3z"/>
			<path class="st3" d="M1044.5,392.2h-1.9v-7.3l-2.3,1V384l4.2-1.7V392.2z"/>
			<path class="st3" d="M1049.9,388.8c-0.1,0-0.3,0-0.4,0c-2,0-3.4-1.4-3.4-3.3c0-1.9,1.6-3.3,3.7-3.3c2.1,0,3.7,1.4,3.7,3.3
				c0,0.9-0.3,1.7-0.9,2.6l-2.7,4.1h-2.3L1049.9,388.8z M1051.5,385.6c0-1-0.7-1.6-1.7-1.6c-1,0-1.7,0.7-1.7,1.6
				c0,0.9,0.7,1.6,1.7,1.6C1050.7,387.2,1051.5,386.5,1051.5,385.6z"/>
		</g>
	</g>
	<g>
		<path class="st4" d="M979.4,140.5h2.5v3.3h-2.5v3.3h-3.5v-3.3h-8.1v-2.5l6.4-12.3h3.9l-6.1,11.6h3.9v-4.8h3.5V140.5z"/>
		<path class="st4" d="M990.5,140.8c-0.2,0-0.5,0.1-0.8,0.1c-3.7,0-6.3-2.6-6.3-6c0-3.6,2.9-6.2,6.8-6.2c3.9,0,6.8,2.6,6.8,6.1
			c0,1.7-0.6,3.2-1.7,4.8l-5,7.6H986L990.5,140.8z M993.4,134.8c0-1.8-1.4-3-3.2-3c-1.8,0-3.2,1.2-3.2,3c0,1.8,1.4,3,3.2,3
			C992,137.8,993.4,136.5,993.4,134.8z"/>
		<path class="st4" d="M1004,144.9c0,1.4-1.2,2.5-2.5,2.5c-1.4,0-2.5-1.2-2.5-2.5c0-1.4,1.2-2.5,2.5-2.5
			C1002.8,142.4,1004,143.6,1004,144.9z"/>
		<path class="st4" d="M1018.4,133.8c0,1.9-1,3.3-2.7,4.1c1.9,0.8,3.1,2.2,3.1,4.2c0,3.6-3.3,5.3-6.7,5.3c-2.7,0-5-1-6.4-2.6
			l2.1-2.3c1.1,1.1,2.6,1.7,4.1,1.7c1.8,0,3.2-0.8,3.2-2.4c0-1.6-1.6-2.4-3.6-2.4h-2.1v-3.1h2.1c1.8,0,3.2-0.8,3.2-2.3
			c0-1.5-1.3-2.3-3-2.3c-1.7,0-2.9,0.9-3.7,1.8l-2.2-2.2c1.2-1.6,3.2-2.8,6.1-2.8C1015.8,128.6,1018.4,130.7,1018.4,133.8z"/>
		<path class="st4" d="M1029,136.8c0,2.2-1.7,3.8-4.1,3.8s-4-1.6-4-3.8c0-2.2,1.7-3.8,4-3.8S1029,134.6,1029,136.8z M1023.4,136.8
			c0,0.9,0.7,1.5,1.6,1.5c0.9,0,1.6-0.6,1.6-1.5s-0.7-1.5-1.6-1.5C1024.1,135.2,1023.4,135.9,1023.4,136.8z M1026.9,147.1h-3
			l10.1-13.9h3L1026.9,147.1z M1040.1,143.6c0,2.2-1.7,3.8-4.1,3.8c-2.3,0-4-1.6-4-3.8c0-2.2,1.7-3.8,4-3.8
			C1038.3,139.7,1040.1,141.3,1040.1,143.6z M1034.4,143.6c0,0.9,0.6,1.5,1.5,1.5c0.9,0,1.6-0.6,1.6-1.5s-0.7-1.5-1.6-1.5
			C1035.1,142,1034.4,142.7,1034.4,143.6z"/>
	</g>
	<g>
		<path class="st4" d="M510.2,132.7l-3.1,1.9c-1-1.6-2.7-2.5-4.7-2.5c-3.3,0-5.7,2.4-5.7,6c0,3.7,2.5,6,5.7,6c2,0,3.7-0.9,4.7-2.5
			l3,2.1c-1.6,2.4-4.4,3.8-7.7,3.8c-5.6,0-9.6-4-9.6-9.4c0-5.5,4-9.4,9.6-9.4C505.8,128.6,508.7,130.1,510.2,132.7z"/>
		<path class="st4" d="M525.9,140.8c0,3.8-2.9,6.6-6.8,6.6c-3.9,0-6.8-2.8-6.8-6.6c0-3.8,2.9-6.6,6.8-6.6
			C523,134.2,525.9,137,525.9,140.8z M515.8,140.8c0,2,1.4,3.5,3.3,3.5s3.4-1.4,3.4-3.5s-1.4-3.5-3.4-3.5S515.8,138.8,515.8,140.8z"
			/>
		<path class="st4" d="M549.1,139.1v8h-3.4v-6.9c0-1.8-0.9-2.8-2.5-2.8c-1.5,0-2.7,0.9-2.7,2.8v6.9h-3.4v-6.9c0-1.8-0.9-2.8-2.5-2.8
			c-1.5,0-2.7,0.9-2.7,2.8v6.9h-3.4v-12.6h3.3v1.5c0.9-1.3,2.3-1.8,3.7-1.8c1.8,0,3.3,0.8,4.2,2.2c1-1.6,2.6-2.2,4.3-2.2
			C547.1,134.2,549.1,136.2,549.1,139.1z"/>
		<path class="st4" d="M565.7,140.8c0,3.8-2.6,6.6-6.1,6.6c-1.7,0-2.9-0.7-3.7-1.6v6.5h-3.4v-17.8h3.3v1.4c0.8-1,2-1.7,3.8-1.7
			C563.1,134.2,565.7,137,565.7,140.8z M555.7,140.8c0,2,1.3,3.5,3.2,3.5c2,0,3.2-1.5,3.2-3.5c0-1.9-1.2-3.5-3.2-3.5
			C557,137.4,555.7,138.8,555.7,140.8z"/>
		<path class="st4" d="M580.8,147.1h-3.3v-1.4c-0.8,1-2,1.7-3.8,1.7c-3.5,0-6.1-2.8-6.1-6.6s2.6-6.6,6.1-6.6c1.7,0,2.9,0.7,3.8,1.7
			v-1.4h3.3V147.1z M571.1,140.8c0,1.9,1.3,3.5,3.3,3.5c1.9,0,3.2-1.5,3.2-3.5s-1.3-3.5-3.2-3.5
			C572.3,137.4,571.1,138.9,571.1,140.8z"/>
		<path class="st4" d="M596.2,139.1v8h-3.4v-6.9c0-1.8-0.9-2.8-2.5-2.8c-1.5,0-2.7,0.9-2.7,2.8v6.9h-3.4v-12.6h3.3v1.5
			c0.9-1.3,2.3-1.8,3.7-1.8C594.1,134.2,596.2,136.2,596.2,139.1z"/>
		<path class="st4" d="M602.6,152.4h-3.7l4.4-7.9l-5.4-9.9h3.8l3.5,6.5l3.4-6.5h3.7L602.6,152.4z"/>
	</g>
	<g>
		<path class="st4" d="M968.1,208c1-1.3,2.8-3.1,6.2-3.1c3.8,0,6.2,2.4,6.2,5.9c0,2.2-1.1,3.8-2.6,5.3l-3.9,4h7v3.3h-12v-2.7
			l6.4-6.6c1-1,1.5-2,1.5-3.1c0-1.6-1.1-2.7-2.8-2.7c-1.7,0-2.8,0.9-3.7,2L968.1,208z"/>
		<path class="st4" d="M995.3,210.1c0,1.9-1,3.3-2.7,4.1c1.9,0.8,3.1,2.2,3.1,4.2c0,3.6-3.3,5.3-6.7,5.3c-2.7,0-5-1-6.4-2.6l2.1-2.3
			c1.1,1.1,2.6,1.7,4.1,1.7c1.8,0,3.2-0.8,3.2-2.4c0-1.6-1.6-2.4-3.6-2.4h-2.1v-3.1h2.1c1.8,0,3.2-0.8,3.2-2.3c0-1.5-1.3-2.3-3-2.3
			c-1.7,0-2.9,0.9-3.7,1.8l-2.2-2.2c1.2-1.6,3.2-2.8,6.1-2.8C992.7,204.9,995.3,207,995.3,210.1z"/>
		<path class="st4" d="M1003,221.2c0,1.4-1.2,2.5-2.5,2.5c-1.4,0-2.5-1.2-2.5-2.5c0-1.4,1.2-2.5,2.5-2.5
			C1001.8,218.7,1003,219.8,1003,221.2z"/>
		<path class="st4" d="M1017,208.5h-7.4l-0.1,3.6h2.1c4.2,0,6.4,2.4,6.4,5.5c0,3.9-3,6.1-6.6,6.1c-2.7,0-4.9-1-6.4-2.7l2-2.5
			c1,1.1,2.8,1.9,4.4,1.9c2,0,3-1.2,3-2.6c0-1.4-0.9-2.6-3.7-2.6h-4.3l0.2-10.1h10.5V208.5z"/>
		<path class="st4" d="M1028.3,213c0,2.2-1.7,3.8-4.1,3.8s-4-1.6-4-3.8c0-2.2,1.7-3.8,4-3.8S1028.3,210.8,1028.3,213z M1022.7,213
			c0,0.9,0.7,1.5,1.6,1.5c0.9,0,1.6-0.6,1.6-1.5s-0.7-1.5-1.6-1.5C1023.3,211.5,1022.7,212.2,1022.7,213z M1026.2,223.4h-3
			l10.1-13.9h3L1026.2,223.4z M1039.3,219.8c0,2.2-1.7,3.8-4.1,3.8c-2.3,0-4-1.6-4-3.8c0-2.2,1.7-3.8,4-3.8
			C1037.6,216,1039.3,217.6,1039.3,219.8z M1033.7,219.8c0,0.9,0.6,1.5,1.5,1.5c0.9,0,1.6-0.6,1.6-1.5s-0.7-1.5-1.6-1.5
			C1034.4,218.3,1033.7,219,1033.7,219.8z"/>
	</g>
	<g>
		<path class="st4" d="M505.4,246.4h-3.6v-18.2h3.6V246.4z"/>
		<path class="st4" d="M521.2,238.4v8h-3.4v-6.9c0-1.8-0.9-2.8-2.5-2.8c-1.5,0-2.7,0.9-2.7,2.8v6.9h-3.4v-12.6h3.3v1.5
			c0.9-1.3,2.3-1.8,3.7-1.8C519.1,233.5,521.2,235.5,521.2,238.4z"/>
		<path class="st4" d="M533.5,235.1v-7.4h3.4v18.7h-3.3V245c-0.8,1-2,1.7-3.8,1.7c-3.5,0-6.1-2.8-6.1-6.6s2.6-6.6,6.1-6.6
			C531.5,233.5,532.7,234.1,533.5,235.1z M527.2,240.1c0,1.9,1.3,3.5,3.3,3.5c1.9,0,3.2-1.5,3.2-3.5s-1.3-3.5-3.2-3.5
			C528.4,236.6,527.2,238.2,527.2,240.1z"/>
		<path class="st4" d="M552.2,241c0,4-2.8,5.7-6,5.7c-3.2,0-6-1.7-6-5.7v-7.2h3.4v6.9c0,2,1.1,2.8,2.6,2.8c1.5,0,2.6-0.8,2.6-2.8
			v-6.9h3.4V241z"/>
		<path class="st4" d="M564.5,237.3c-1-0.5-2.6-1-4-1c-1.3,0-1.9,0.5-1.9,1.1c0,0.7,0.9,0.9,2.1,1.1l1.1,0.2
			c2.7,0.4,4.3,1.6,4.3,3.8c0,2.6-2.1,4.3-5.8,4.3c-1.7,0-4-0.3-5.6-1.5l1.3-2.6c1.1,0.7,2.4,1.2,4.3,1.2c1.6,0,2.3-0.4,2.3-1.2
			c0-0.6-0.6-0.9-2.1-1.2l-1-0.1c-2.9-0.4-4.4-1.7-4.4-3.8c0-2.6,2-4.1,5.3-4.1c2,0,3.6,0.4,5.3,1.2L564.5,237.3z"/>
		<path class="st4" d="M577.8,236.8h-4.6v4.6c0,1.6,0.8,2.1,1.9,2.1c0.8,0,1.7-0.4,2.4-0.8l1.2,2.7c-1.1,0.8-2.4,1.3-4.2,1.3
			c-3.1,0-4.7-1.8-4.7-5v-4.9h-2.4v-3h2.4v-3.7h3.4v3.7h4.6V236.8z"/>
		<path class="st4" d="M589.3,233.7l-0.5,3.4c-0.6-0.2-1.4-0.4-2.1-0.4c-1.6,0-2.7,1-2.7,2.8v6.9h-3.4v-12.6h3.3v1.4
			c0.8-1.2,2-1.7,3.5-1.7C588.3,233.5,588.8,233.6,589.3,233.7z"/>
		<path class="st4" d="M594.6,251.7h-3.7l4.4-7.9l-5.4-9.9h3.8l3.5,6.5l3.4-6.5h3.7L594.6,251.7z"/>
	</g>
	<g>
		<path class="st4" d="M968.1,320.6c1-1.3,2.8-3.1,6.2-3.1c3.8,0,6.2,2.4,6.2,5.9c0,2.2-1.1,3.8-2.6,5.3l-3.9,4h7v3.3h-12v-2.7
			l6.4-6.6c1-1,1.5-2,1.5-3.1c0-1.6-1.1-2.7-2.8-2.7c-1.7,0-2.8,0.9-3.7,2L968.1,320.6z"/>
		<path class="st4" d="M995.6,320.6L988,336h-4.1l7.5-14.9h-8.6v-3.3h12.8V320.6z"/>
		<path class="st4" d="M1002.4,333.8c0,1.4-1.2,2.5-2.5,2.5c-1.4,0-2.5-1.2-2.5-2.5c0-1.4,1.2-2.5,2.5-2.5
			C1001.2,331.3,1002.4,332.5,1002.4,333.8z"/>
		<path class="st4" d="M1004.4,320.6c1-1.3,2.8-3.1,6.2-3.1c3.8,0,6.2,2.4,6.2,5.9c0,2.2-1.1,3.8-2.6,5.3l-3.9,4h7v3.3h-12v-2.7
			l6.4-6.6c1-1,1.5-2,1.5-3.1c0-1.6-1.1-2.7-2.8-2.7c-1.7,0-2.8,0.9-3.7,2L1004.4,320.6z"/>
		<path class="st4" d="M1027.2,325.7c0,2.2-1.7,3.8-4.1,3.8s-4-1.6-4-3.8c0-2.2,1.7-3.8,4-3.8S1027.2,323.5,1027.2,325.7z
			 M1021.6,325.7c0,0.9,0.7,1.5,1.6,1.5c0.9,0,1.6-0.7,1.6-1.5s-0.7-1.5-1.6-1.5C1022.2,324.1,1021.6,324.8,1021.6,325.7z
			 M1025.1,336h-3l10.1-13.9h3L1025.1,336z M1038.2,332.4c0,2.2-1.7,3.8-4.1,3.8c-2.3,0-4-1.6-4-3.8c0-2.2,1.7-3.8,4-3.8
			C1036.5,328.6,1038.2,330.2,1038.2,332.4z M1032.6,332.4c0,0.9,0.6,1.5,1.5,1.5c0.9,0,1.6-0.7,1.6-1.5s-0.7-1.5-1.6-1.5
			C1033.3,330.9,1032.6,331.6,1032.6,332.4z"/>
	</g>
	<g>
		<path class="st4" d="M518.8,321.6l-3.1,1.9c-1-1.6-2.7-2.5-4.7-2.5c-3.3,0-5.7,2.4-5.7,6c0,3.7,2.5,6,5.7,6c2,0,3.7-0.9,4.7-2.5
			l3,2.1c-1.6,2.4-4.4,3.8-7.7,3.8c-5.6,0-9.6-4-9.6-9.4c0-5.5,4-9.4,9.6-9.4C514.3,317.5,517.3,319,518.8,321.6z"/>
		<path class="st4" d="M534.5,329.7c0,3.8-2.9,6.6-6.8,6.6c-3.9,0-6.8-2.8-6.8-6.6c0-3.8,2.9-6.6,6.8-6.6
			C531.6,323.1,534.5,325.9,534.5,329.7z M524.4,329.7c0,2,1.4,3.5,3.3,3.5c1.9,0,3.4-1.4,3.4-3.5c0-2-1.4-3.5-3.4-3.5
			C525.8,326.2,524.4,327.7,524.4,329.7z"/>
		<path class="st4" d="M549.1,330.6c0,4-2.8,5.7-6,5.7c-3.2,0-6-1.7-6-5.7v-7.2h3.4v6.9c0,2,1.1,2.8,2.6,2.8c1.5,0,2.6-0.8,2.6-2.8
			v-6.9h3.4V330.6z"/>
		<path class="st4" d="M564.5,328v8h-3.4v-6.9c0-1.8-0.9-2.8-2.5-2.8c-1.5,0-2.7,0.9-2.7,2.8v6.9h-3.4v-12.6h3.3v1.5
			c0.9-1.3,2.3-1.8,3.7-1.8C562.5,323.1,564.5,325.1,564.5,328z"/>
		<path class="st4" d="M577.1,326.4h-4.6v4.6c0,1.6,0.8,2.1,1.9,2.1c0.8,0,1.7-0.4,2.4-0.8l1.2,2.7c-1.1,0.8-2.4,1.3-4.2,1.3
			c-3.1,0-4.7-1.8-4.7-5v-4.9h-2.4v-3h2.4v-3.7h3.4v3.7h4.6V326.4z"/>
		<path class="st4" d="M588.8,323.4l-0.5,3.4c-0.6-0.2-1.4-0.4-2.1-0.4c-1.6,0-2.7,1-2.7,2.8v6.9h-3.4v-12.6h3.3v1.4
			c0.8-1.2,2-1.7,3.5-1.7C587.7,323.1,588.3,323.2,588.8,323.4z"/>
		<path class="st4" d="M594,341.3h-3.7l4.4-7.9l-5.4-9.9h3.8l3.5,6.5l3.4-6.5h3.7L594,341.3z"/>
	</g>
	<path class="st5" d="M53.2,19.7h997.7 M53.2,55.8h997.7 M53.2,89.7h997.7 M53.2,123.5h997.7 M53.2,157.4h997.7 M53.2,193.5h997.7
		 M53.2,227.4h997.7 M53.2,261.3h997.7 M53.2,295.1h997.7 M53.2,331.3h997.7 M53.2,365.1h997.7"/>
</g>
</svg>
