<?xml version="1.0" encoding="utf-8"?>
<!-- Generator: Adobe Illustrator 23.1.1, SVG Export Plug-In . SVG Version: 6.00 Build 0)  -->
<svg version="1.1" id="Layer_1" xmlns="http://www.w3.org/2000/svg" xmlns:xlink="http://www.w3.org/1999/xlink" x="0px" y="0px"
	 viewBox="0 0 1080 410" style="enable-background:new 0 0 1080 410;" xml:space="preserve">
<style type="text/css">
	.st0{clip-path:url(#SVGID_2_);fill:#203232;}
	.st1{clip-path:url(#SVGID_4_);fill:#ED5A36;}
	.st2{clip-path:url(#SVGID_6_);fill:#FFB819;}
	.st3{fill:#203232;}
	.st4{fill:#FFFFFF;}
	.st5{fill:none;}
</style>
<g>
	<defs>
		<rect id="SVGID_1_" x="50.6" y="18" width="1000.8" height="347.7"/>
	</defs>
	<clipPath id="SVGID_2_">
		<use xlink:href="#SVGID_1_"  style="overflow:visible;"/>
	</clipPath>
	<polygon class="st0" points="53.7,250.5 56.8,248.2 63,243.7 69.3,241.5 72.4,248.2 78.6,246 84.9,241.5 88,239.2 94.2,250.5 
		100.5,250.5 103.6,239.2 109.8,243.7 116,250.5 119.2,266.3 125.4,259.5 131.6,250.5 134.8,257.3 141,255 147.2,252.8 150.3,243.7 
		156.6,248.2 162.8,246 165.9,237 172.2,243.7 178.4,241.5 181.5,250.5 187.8,241.5 194,246 197.1,264 203.3,266.3 209.6,268.6 
		212.7,255 218.9,257.3 225.2,264 228.3,255 234.5,255 240.8,246 243.9,252.8 250.1,255 256.3,257.3 259.5,264 265.7,266.3 
		271.9,275.3 275.1,277.6 281.3,275.3 287.5,268.6 290.6,259.5 296.9,250.5 303.1,243.7 306.2,232.4 312.5,243.7 318.7,246 
		321.8,250.5 328.1,255 334.3,252.8 337.4,255 343.6,255 349.9,255 353,246 359.2,250.5 365.5,261.8 368.6,279.8 374.8,270.8 
		381.1,266.3 384.2,275.3 390.4,275.3 396.6,273.1 399.8,266.3 406,268.6 412.2,273.1 415.4,268.6 421.6,261.8 427.8,255 430.9,246 
		437.2,243.7 443.4,243.7 446.5,246 452.8,250.5 459,257.3 462.1,255 468.4,259.5 474.6,252.8 477.7,257.3 483.9,257.3 490.2,259.5 
		493.3,266.3 499.5,266.3 505.8,264 508.9,259.5 515.1,259.5 521.4,257.3 524.5,257.3 530.7,261.8 536.9,273.1 540.1,279.8 
		546.3,282.1 552.5,279.8 555.7,293.4 561.9,293.4 568.1,293.4 571.2,291.1 577.5,293.4 583.7,291.1 586.8,273.1 593.1,277.6 
		599.3,270.8 602.4,264 608.7,264 614.9,261.8 618,268.6 624.2,259.5 630.5,259.5 633.6,257.3 639.8,252.8 646.1,257.3 649.2,261.8 
		655.4,261.8 661.7,268.6 664.8,266.3 671,264 677.3,264 680.4,243.7 686.6,250.5 692.8,250.5 696,257.3 702.2,257.3 708.4,257.3 
		714.7,270.8 717.8,266.3 724,264 730.3,259.5 733.4,257.3 739.6,261.8 745.8,273.1 749,277.6 755.2,277.6 761.4,277.6 764.5,284.4 
		770.8,275.3 777,252.8 780.1,250.5 786.4,252.8 792.6,261.8 795.7,264 802,261.8 808.2,277.6 811.3,275.3 817.6,277.6 823.8,266.3 
		826.9,261.8 833.1,268.6 839.4,261.8 842.5,264 848.7,261.8 855,264 858.1,270.8 864.3,266.3 870.6,268.6 873.7,266.3 879.9,264 
		886.1,264 889.3,261.8 895.5,275.3 901.7,284.4 904.8,297.9 911.1,297.9 917.3,284.4 920.4,282.1 926.7,275.3 932.9,273.1 
		936,270.8 942.3,264 948.5,279.8 951.6,279.8 957.9,273.1 964.1,255 967.2,246 973.4,248.2 979.7,234.7 982.8,227.9 989,230.2 
		995.3,239.2 998.4,246 1004.6,248.2 1010.9,264 1014,275.3 1020.2,282.1 1026.4,275.3 1029.6,266.3 1035.8,268.6 1042,270.8 
		1045.2,268.6 1051.4,270.8 1051.4,363.4 1045.2,363.4 1042,363.4 1035.8,363.4 1029.6,363.4 1026.4,363.4 1020.2,363.4 1014,363.4 
		1010.9,363.4 1004.6,363.4 998.4,363.4 995.3,363.4 989,363.4 982.8,363.4 979.7,363.4 973.4,363.4 967.2,363.4 964.1,363.4 
		957.9,363.4 951.6,363.4 948.5,363.4 942.3,363.4 936,363.4 932.9,363.4 926.7,363.4 920.4,363.4 917.3,363.4 911.1,363.4 
		904.8,363.4 901.7,363.4 895.5,363.4 889.3,363.4 886.1,363.4 879.9,363.4 873.7,363.4 870.6,363.4 864.3,363.4 858.1,363.4 
		855,363.4 848.7,363.4 842.5,363.4 839.4,363.4 833.1,363.4 826.9,363.4 823.8,363.4 817.6,363.4 811.3,363.4 808.2,363.4 
		802,363.4 795.7,363.4 792.6,363.4 786.4,363.4 780.1,363.4 777,363.4 770.8,363.4 764.5,363.4 761.4,363.4 755.2,363.4 749,363.4 
		745.8,363.4 739.6,363.4 733.4,363.4 730.3,363.4 724,363.4 717.8,363.4 714.7,363.4 708.4,363.4 702.2,363.4 696,363.4 
		692.8,363.4 686.6,363.4 680.4,363.4 677.3,363.4 671,363.4 664.8,363.4 661.7,363.4 655.4,363.4 649.2,363.4 646.1,363.4 
		639.8,363.4 633.6,363.4 630.5,363.4 624.2,363.4 618,363.4 614.9,363.4 608.7,363.4 602.4,363.4 599.3,363.4 593.1,363.4 
		586.8,363.4 583.7,363.4 577.5,363.4 571.2,363.4 568.1,363.4 561.9,363.4 555.7,363.4 552.5,363.4 546.3,363.4 540.1,363.4 
		536.9,363.4 530.7,363.4 524.5,363.4 521.4,363.4 515.1,363.4 508.9,363.4 505.8,363.4 499.5,363.4 493.3,363.4 490.2,363.4 
		483.9,363.4 477.7,363.4 474.6,363.4 468.4,363.4 462.1,363.4 459,363.4 452.8,363.4 446.5,363.4 443.4,363.4 437.2,363.4 
		430.9,363.4 427.8,363.4 421.6,363.4 415.4,363.4 412.2,363.4 406,363.4 399.8,363.4 396.6,363.4 390.4,363.4 384.2,363.4 
		381.1,363.4 374.8,363.4 368.6,363.4 365.5,363.4 359.2,363.4 353,363.4 349.9,363.4 343.6,363.4 337.4,363.4 334.3,363.4 
		328.1,363.4 321.8,363.4 318.7,363.4 312.5,363.4 306.2,363.4 303.1,363.4 296.9,363.4 290.6,363.4 287.5,363.4 281.3,363.4 
		275.1,363.4 271.9,363.4 265.7,363.4 259.5,363.4 256.3,363.4 250.1,363.4 243.9,363.4 240.8,363.4 234.5,363.4 228.3,363.4 
		225.2,363.4 218.9,363.4 212.7,363.4 209.6,363.4 203.3,363.4 197.1,363.4 194,363.4 187.8,363.4 181.5,363.4 178.4,363.4 
		172.2,363.4 165.9,363.4 162.8,363.4 156.6,363.4 150.3,363.4 147.2,363.4 141,363.4 134.8,363.4 131.6,363.4 125.4,363.4 
		119.2,363.4 116,363.4 109.8,363.4 103.6,363.4 100.5,363.4 94.2,363.4 88,363.4 84.9,363.4 78.6,363.4 72.4,363.4 69.3,363.4 
		63,363.4 56.8,363.4 53.7,363.4 	"/>
</g>
<g>
	<defs>
		<rect id="SVGID_3_" x="50.6" y="18" width="1000.8" height="347.7"/>
	</defs>
	<clipPath id="SVGID_4_">
		<use xlink:href="#SVGID_3_"  style="overflow:visible;"/>
	</clipPath>
	<polygon class="st1" points="53.7,203.1 56.8,205.3 63,198.6 69.3,194.1 72.4,203.1 78.6,203.1 84.9,198.6 88,189.5 94.2,198.6 
		100.5,196.3 103.6,182.8 109.8,185 116,185 119.2,194.1 125.4,191.8 131.6,194.1 134.8,194.1 141,196.3 147.2,198.6 150.3,194.1 
		156.6,194.1 162.8,198.6 165.9,194.1 172.2,191.8 178.4,194.1 181.5,205.3 187.8,203.1 194,205.3 197.1,214.4 203.3,214.4 
		209.6,216.6 212.7,207.6 218.9,212.1 225.2,212.1 228.3,207.6 234.5,207.6 240.8,198.6 243.9,198.6 250.1,194.1 256.3,191.8 
		259.5,198.6 265.7,205.3 271.9,209.9 275.1,205.3 281.3,207.6 287.5,205.3 290.6,198.6 296.9,187.3 303.1,182.8 306.2,187.3 
		312.5,187.3 318.7,189.5 321.8,189.5 328.1,194.1 334.3,194.1 337.4,187.3 343.6,187.3 349.9,178.3 353,182.8 359.2,185 365.5,185 
		368.6,207.6 374.8,212.1 381.1,216.6 384.2,216.6 390.4,216.6 396.6,225.7 399.8,214.4 406,207.6 412.2,209.9 415.4,207.6 
		421.6,203.1 427.8,196.3 430.9,194.1 437.2,196.3 443.4,196.3 446.5,194.1 452.8,196.3 459,203.1 462.1,203.1 468.4,203.1 
		474.6,198.6 477.7,198.6 483.9,205.3 490.2,200.8 493.3,203.1 499.5,196.3 505.8,198.6 508.9,191.8 515.1,189.5 521.4,187.3 
		524.5,185 530.7,196.3 536.9,207.6 540.1,214.4 546.3,214.4 552.5,214.4 555.7,223.4 561.9,218.9 568.1,212.1 571.2,209.9 
		577.5,207.6 583.7,205.3 586.8,205.3 593.1,212.1 599.3,216.6 602.4,216.6 608.7,218.9 614.9,223.4 618,216.6 624.2,214.4 
		630.5,205.3 633.6,198.6 639.8,203.1 646.1,198.6 649.2,209.9 655.4,200.8 661.7,200.8 664.8,203.1 671,200.8 677.3,198.6 
		680.4,185 686.6,189.5 692.8,198.6 696,200.8 702.2,198.6 708.4,205.3 714.7,209.9 717.8,207.6 724,198.6 730.3,196.3 733.4,198.6 
		739.6,187.3 745.8,191.8 749,191.8 755.2,189.5 761.4,200.8 764.5,205.3 770.8,203.1 777,200.8 780.1,203.1 786.4,205.3 
		792.6,203.1 795.7,203.1 802,203.1 808.2,205.3 811.3,207.6 817.6,207.6 823.8,200.8 826.9,200.8 833.1,207.6 839.4,203.1 
		842.5,205.3 848.7,207.6 855,209.9 858.1,209.9 864.3,205.3 870.6,203.1 873.7,203.1 879.9,196.3 886.1,196.3 889.3,191.8 
		895.5,200.8 901.7,207.6 904.8,209.9 911.1,214.4 917.3,212.1 920.4,207.6 926.7,205.3 932.9,205.3 936,207.6 942.3,200.8 
		948.5,200.8 951.6,205.3 957.9,196.3 964.1,191.8 967.2,180.5 973.4,178.3 979.7,176 982.8,178.3 989,178.3 995.3,178.3 
		998.4,178.3 1004.6,180.5 1010.9,180.5 1014,178.3 1020.2,182.8 1026.4,180.5 1029.6,189.5 1035.8,189.5 1042,191.8 1045.2,191.8 
		1051.4,189.5 1051.4,270.8 1045.2,268.6 1042,270.8 1035.8,268.6 1029.6,266.3 1026.4,275.3 1020.2,282.1 1014,275.3 1010.9,264 
		1004.6,248.2 998.4,246 995.3,239.2 989,230.2 982.8,227.9 979.7,234.7 973.4,248.2 967.2,246 964.1,255 957.9,273.1 951.6,279.8 
		948.5,279.8 942.3,264 936,270.8 932.9,273.1 926.7,275.3 920.4,282.1 917.3,284.4 911.1,297.9 904.8,297.9 901.7,284.4 
		895.5,275.3 889.3,261.8 886.1,264 879.9,264 873.7,266.3 870.6,268.6 864.3,266.3 858.1,270.8 855,264 848.7,261.8 842.5,264 
		839.4,261.8 833.1,268.6 826.9,261.8 823.8,266.3 817.6,277.6 811.3,275.3 808.2,277.6 802,261.8 795.7,264 792.6,261.8 
		786.4,252.8 780.1,250.5 777,252.8 770.8,275.3 764.5,284.4 761.4,277.6 755.2,277.6 749,277.6 745.8,273.1 739.6,261.8 
		733.4,257.3 730.3,259.5 724,264 717.8,266.3 714.7,270.8 708.4,257.3 702.2,257.3 696,257.3 692.8,250.5 686.6,250.5 680.4,243.7 
		677.3,264 671,264 664.8,266.3 661.7,268.6 655.4,261.8 649.2,261.8 646.1,257.3 639.8,252.8 633.6,257.3 630.5,259.5 624.2,259.5 
		618,268.6 614.9,261.8 608.7,264 602.4,264 599.3,270.8 593.1,277.6 586.8,273.1 583.7,291.1 577.5,293.4 571.2,291.1 568.1,293.4 
		561.9,293.4 555.7,293.4 552.5,279.8 546.3,282.1 540.1,279.8 536.9,273.1 530.7,261.8 524.5,257.3 521.4,257.3 515.1,259.5 
		508.9,259.5 505.8,264 499.5,266.3 493.3,266.3 490.2,259.5 483.9,257.3 477.7,257.3 474.6,252.8 468.4,259.5 462.1,255 459,257.3 
		452.8,250.5 446.5,246 443.4,243.7 437.2,243.7 430.9,246 427.8,255 421.6,261.8 415.4,268.6 412.2,273.1 406,268.6 399.8,266.3 
		396.6,273.1 390.4,275.3 384.2,275.3 381.1,266.3 374.8,270.8 368.6,279.8 365.5,261.8 359.2,250.5 353,246 349.9,255 343.6,255 
		337.4,255 334.3,252.8 328.1,255 321.8,250.5 318.7,246 312.5,243.7 306.2,232.4 303.1,243.7 296.9,250.5 290.6,259.5 287.5,268.6 
		281.3,275.3 275.1,277.6 271.9,275.3 265.7,266.3 259.5,264 256.3,257.3 250.1,255 243.9,252.8 240.8,246 234.5,255 228.3,255 
		225.2,264 218.9,257.3 212.7,255 209.6,268.6 203.3,266.3 197.1,264 194,246 187.8,241.5 181.5,250.5 178.4,241.5 172.2,243.7 
		165.9,237 162.8,246 156.6,248.2 150.3,243.7 147.2,252.8 141,255 134.8,257.3 131.6,250.5 125.4,259.5 119.2,266.3 116,250.5 
		109.8,243.7 103.6,239.2 100.5,250.5 94.2,250.5 88,239.2 84.9,241.5 78.6,246 72.4,248.2 69.3,241.5 63,243.7 56.8,248.2 
		53.7,250.5 	"/>
</g>
<g>
	<defs>
		<rect id="SVGID_5_" x="50.6" y="18" width="1000.8" height="347.7"/>
	</defs>
	<clipPath id="SVGID_6_">
		<use xlink:href="#SVGID_5_"  style="overflow:visible;"/>
	</clipPath>
	<polygon class="st2" points="53.7,20.2 56.8,20.2 63,20.2 69.3,20.2 72.4,20.2 78.6,20.2 84.9,20.2 88,20.2 94.2,20.2 100.5,20.2 
		103.6,20.2 109.8,20.2 116,20.2 119.2,20.2 125.4,20.2 131.6,20.2 134.8,20.2 141,20.2 147.2,20.2 150.3,20.2 156.6,20.2 
		162.8,20.2 165.9,20.2 172.2,20.2 178.4,20.2 181.5,20.2 187.8,20.2 194,20.2 197.1,20.2 203.3,20.2 209.6,20.2 212.7,20.2 
		218.9,20.2 225.2,20.2 228.3,20.2 234.5,20.2 240.8,20.2 243.9,20.2 250.1,20.2 256.3,20.2 259.5,20.2 265.7,20.2 271.9,20.2 
		275.1,20.2 281.3,20.2 287.5,20.2 290.6,20.2 296.9,20.2 303.1,20.2 306.2,20.2 312.5,20.2 318.7,20.2 321.8,20.2 328.1,20.2 
		334.3,20.2 337.4,20.2 343.6,20.2 349.9,20.2 353,20.2 359.2,20.2 365.5,20.2 368.6,20.2 374.8,20.2 381.1,20.2 384.2,20.2 
		390.4,20.2 396.6,20.2 399.8,20.2 406,20.2 412.2,20.2 415.4,20.2 421.6,20.2 427.8,20.2 430.9,20.2 437.2,20.2 443.4,20.2 
		446.5,20.2 452.8,20.2 459,20.2 462.1,20.2 468.4,20.2 474.6,20.2 477.7,20.2 483.9,20.2 490.2,20.2 493.3,20.2 499.5,20.2 
		505.8,20.2 508.9,20.2 515.1,20.2 521.4,20.2 524.5,20.2 530.7,20.2 536.9,20.2 540.1,20.2 546.3,20.2 552.5,20.2 555.7,20.2 
		561.9,20.2 568.1,20.2 571.2,20.2 577.5,20.2 583.7,20.2 586.8,20.2 593.1,20.2 599.3,20.2 602.4,20.2 608.7,20.2 614.9,20.2 
		618,20.2 624.2,20.2 630.5,20.2 633.6,20.2 639.8,20.2 646.1,20.2 649.2,20.2 655.4,20.2 661.7,20.2 664.8,20.2 671,20.2 
		677.3,20.2 680.4,20.2 686.6,20.2 692.8,20.2 696,20.2 702.2,20.2 708.4,20.2 714.7,20.2 717.8,20.2 724,20.2 730.3,20.2 
		733.4,20.2 739.6,20.2 745.8,20.2 749,20.2 755.2,20.2 761.4,20.2 764.5,20.2 770.8,20.2 777,20.2 780.1,20.2 786.4,20.2 
		792.6,20.2 795.7,20.2 802,20.2 808.2,20.2 811.3,20.2 817.6,20.2 823.8,20.2 826.9,20.2 833.1,20.2 839.4,20.2 842.5,20.2 
		848.7,20.2 855,20.2 858.1,20.2 864.3,20.2 870.6,20.2 873.7,20.2 879.9,20.2 886.1,20.2 889.3,20.2 895.5,20.2 901.7,20.2 
		904.8,20.2 911.1,20.2 917.3,20.2 920.4,20.2 926.7,20.2 932.9,20.2 936,20.2 942.3,20.2 948.5,20.2 951.6,20.2 957.9,20.2 
		964.1,20.2 967.2,20.2 973.4,20.2 979.7,20.2 982.8,20.2 989,20.2 995.3,20.2 998.4,20.2 1004.6,20.2 1010.9,20.2 1014,20.2 
		1020.2,20.2 1026.4,20.2 1029.6,20.2 1035.8,20.2 1042,20.2 1045.2,20.2 1051.4,20.2 1051.4,189.5 1045.2,191.8 1042,191.8 
		1035.8,189.5 1029.6,189.5 1026.4,180.5 1020.2,182.8 1014,178.3 1010.9,180.5 1004.6,180.5 998.4,178.3 995.3,178.3 989,178.3 
		982.8,178.3 979.7,176 973.4,178.3 967.2,180.5 964.1,191.8 957.9,196.3 951.6,205.3 948.5,200.8 942.3,200.8 936,207.6 
		932.9,205.3 926.7,205.3 920.4,207.6 917.3,212.1 911.1,214.4 904.8,209.9 901.7,207.6 895.5,200.8 889.3,191.8 886.1,196.3 
		879.9,196.3 873.7,203.1 870.6,203.1 864.3,205.3 858.1,209.9 855,209.9 848.7,207.6 842.5,205.3 839.4,203.1 833.1,207.6 
		826.9,200.8 823.8,200.8 817.6,207.6 811.3,207.6 808.2,205.3 802,203.1 795.7,203.1 792.6,203.1 786.4,205.3 780.1,203.1 
		777,200.8 770.8,203.1 764.5,205.3 761.4,200.8 755.2,189.5 749,191.8 745.8,191.8 739.6,187.3 733.4,198.6 730.3,196.3 724,198.6 
		717.8,207.6 714.7,209.9 708.4,205.3 702.2,198.6 696,200.8 692.8,198.6 686.6,189.5 680.4,185 677.3,198.6 671,200.8 664.8,203.1 
		661.7,200.8 655.4,200.8 649.2,209.9 646.1,198.6 639.8,203.1 633.6,198.6 630.5,205.3 624.2,214.4 618,216.6 614.9,223.4 
		608.7,218.9 602.4,216.6 599.3,216.6 593.1,212.1 586.8,205.3 583.7,205.3 577.5,207.6 571.2,209.9 568.1,212.1 561.9,218.9 
		555.7,223.4 552.5,214.4 546.3,214.4 540.1,214.4 536.9,207.6 530.7,196.3 524.5,185 521.4,187.3 515.1,189.5 508.9,191.8 
		505.8,198.6 499.5,196.3 493.3,203.1 490.2,200.8 483.9,205.3 477.7,198.6 474.6,198.6 468.4,203.1 462.1,203.1 459,203.1 
		452.8,196.3 446.5,194.1 443.4,196.3 437.2,196.3 430.9,194.1 427.8,196.3 421.6,203.1 415.4,207.6 412.2,209.9 406,207.6 
		399.8,214.4 396.6,225.7 390.4,216.6 384.2,216.6 381.1,216.6 374.8,212.1 368.6,207.6 365.5,185 359.2,185 353,182.8 349.9,178.3 
		343.6,187.3 337.4,187.3 334.3,194.1 328.1,194.1 321.8,189.5 318.7,189.5 312.5,187.3 306.2,187.3 303.1,182.8 296.9,187.3 
		290.6,198.6 287.5,205.3 281.3,207.6 275.1,205.3 271.9,209.9 265.7,205.3 259.5,198.6 256.3,191.8 250.1,194.1 243.9,198.6 
		240.8,198.6 234.5,207.6 228.3,207.6 225.2,212.1 218.9,212.1 212.7,207.6 209.6,216.6 203.3,214.4 197.1,214.4 194,205.3 
		187.8,203.1 181.5,205.3 178.4,194.1 172.2,191.8 165.9,194.1 162.8,198.6 156.6,194.1 150.3,194.1 147.2,198.6 141,196.3 
		134.8,194.1 131.6,194.1 125.4,191.8 119.2,194.1 116,185 109.8,185 103.6,182.8 100.5,196.3 94.2,198.6 88,189.5 84.9,198.6 
		78.6,203.1 72.4,203.1 69.3,194.1 63,198.6 56.8,205.3 53.7,203.1 	"/>
</g>
<g>
	<g>
		<path class="st3" d="M27.5,365.3c0,3.2-1.9,5.1-4.2,5.1c-2.3,0-4.2-1.9-4.2-5.1s1.9-5.1,4.2-5.1C25.6,360.2,27.5,362.1,27.5,365.3
			z M21,365.3c0,2.1,1,3.3,2.3,3.3c1.3,0,2.3-1.1,2.3-3.3c0-2.1-1-3.3-2.3-3.3C22,362,21,363.1,21,365.3z"/>
		<path class="st3" d="M37.7,362.8c0,1.5-1.2,2.7-2.7,2.7c-1.6,0-2.7-1.1-2.7-2.7c0-1.5,1.2-2.7,2.7-2.7
			C36.5,360.2,37.7,361.3,37.7,362.8z M33.7,362.8c0,0.7,0.5,1.2,1.2,1.2c0.7,0,1.2-0.5,1.2-1.2c0-0.7-0.5-1.2-1.2-1.2
			C34.2,361.6,33.7,362.1,33.7,362.8z M36.2,370.2h-1.8l6.6-9.8h1.8L36.2,370.2z M45,367.7c0,1.5-1.2,2.7-2.7,2.7
			c-1.6,0-2.7-1.1-2.7-2.7c0-1.5,1.2-2.7,2.7-2.7C43.8,365,45,366.1,45,367.7z M41.1,367.7c0,0.7,0.5,1.2,1.2,1.2
			c0.7,0,1.2-0.5,1.2-1.2c0-0.7-0.5-1.2-1.2-1.2C41.6,366.4,41.1,366.9,41.1,367.7z"/>
	</g>
</g>
<g>
	<g>
		<path class="st3" d="M17.2,336.3h-1.9V329l-2.3,1V328l4.2-1.7V336.3z"/>
		<path class="st3" d="M27.5,331.4c0,3.2-1.9,5.1-4.2,5.1c-2.3,0-4.2-1.9-4.2-5.1s1.9-5.1,4.2-5.1C25.6,326.3,27.5,328.2,27.5,331.4
			z M21,331.4c0,2.1,1,3.3,2.3,3.3c1.3,0,2.3-1.1,2.3-3.3c0-2.1-1-3.3-2.3-3.3C22,328.1,21,329.2,21,331.4z"/>
		<path class="st3" d="M37.7,329c0,1.5-1.2,2.7-2.7,2.7c-1.6,0-2.7-1.1-2.7-2.7c0-1.5,1.2-2.7,2.7-2.7
			C36.5,326.3,37.7,327.5,37.7,329z M33.7,329c0,0.7,0.5,1.2,1.2,1.2c0.7,0,1.2-0.5,1.2-1.2c0-0.7-0.5-1.2-1.2-1.2
			C34.2,327.8,33.7,328.3,33.7,329z M36.2,336.3h-1.8l6.6-9.8h1.8L36.2,336.3z M45,333.8c0,1.5-1.2,2.7-2.7,2.7
			c-1.6,0-2.7-1.1-2.7-2.7c0-1.5,1.2-2.7,2.7-2.7C43.8,331.1,45,332.3,45,333.8z M41.1,333.8c0,0.7,0.5,1.2,1.2,1.2
			c0.7,0,1.2-0.5,1.2-1.2c0-0.7-0.5-1.2-1.2-1.2C41.6,332.6,41.1,333.1,41.1,333.8z"/>
	</g>
</g>
<g>
	<g>
		<path class="st3" d="M10.9,291.9c0.5-0.7,1.5-1.7,3.3-1.7c2.1,0,3.3,1.3,3.3,3.2c0,1.2-0.6,2-1.4,2.9l-2.1,2.2h3.7v1.8h-6.5v-1.5
			l3.5-3.6c0.5-0.5,0.8-1.1,0.8-1.7c0-0.9-0.6-1.5-1.5-1.5c-0.9,0-1.5,0.5-2,1.1L10.9,291.9z"/>
		<path class="st3" d="M27.5,295.3c0,3.2-1.9,5.1-4.2,5.1c-2.3,0-4.2-1.9-4.2-5.1s1.9-5.1,4.2-5.1C25.6,290.2,27.5,292.1,27.5,295.3
			z M21,295.3c0,2.1,1,3.3,2.3,3.3c1.3,0,2.3-1.1,2.3-3.3c0-2.1-1-3.3-2.3-3.3C22,292,21,293.1,21,295.3z"/>
		<path class="st3" d="M37.7,292.9c0,1.5-1.2,2.7-2.7,2.7c-1.6,0-2.7-1.1-2.7-2.7c0-1.5,1.2-2.7,2.7-2.7
			C36.5,290.2,37.7,291.3,37.7,292.9z M33.7,292.9c0,0.7,0.5,1.2,1.2,1.2c0.7,0,1.2-0.5,1.2-1.2c0-0.7-0.5-1.2-1.2-1.2
			C34.2,291.7,33.7,292.2,33.7,292.9z M36.2,300.2h-1.8l6.6-9.8h1.8L36.2,300.2z M45,297.7c0,1.5-1.2,2.7-2.7,2.7
			c-1.6,0-2.7-1.1-2.7-2.7c0-1.5,1.2-2.7,2.7-2.7C43.8,295,45,296.1,45,297.7z M41.1,297.7c0,0.7,0.5,1.2,1.2,1.2
			c0.7,0,1.2-0.5,1.2-1.2c0-0.7-0.5-1.2-1.2-1.2C41.6,296.5,41.1,297,41.1,297.7z"/>
	</g>
</g>
<g>
	<g>
		<path class="st3" d="M17.5,259.1c0,1-0.6,1.8-1.5,2.2c1,0.4,1.7,1.2,1.7,2.2c0,1.9-1.8,2.9-3.6,2.9c-1.5,0-2.7-0.5-3.4-1.4
			l1.1-1.2c0.6,0.6,1.4,0.9,2.2,0.9c1,0,1.7-0.4,1.7-1.3c0-0.8-0.9-1.3-1.9-1.3h-1.1v-1.7h1.1c1,0,1.7-0.4,1.7-1.2
			c0-0.8-0.7-1.2-1.6-1.2c-0.9,0-1.6,0.5-2,1l-1.2-1.2c0.6-0.9,1.7-1.5,3.3-1.5C16.1,256.3,17.5,257.4,17.5,259.1z"/>
		<path class="st3" d="M27.5,261.4c0,3.2-1.9,5.1-4.2,5.1c-2.3,0-4.2-1.9-4.2-5.1s1.9-5.1,4.2-5.1C25.6,256.3,27.5,258.2,27.5,261.4
			z M21,261.4c0,2.1,1,3.3,2.3,3.3c1.3,0,2.3-1.1,2.3-3.3c0-2.1-1-3.3-2.3-3.3C22,258.1,21,259.3,21,261.4z"/>
		<path class="st3" d="M37.7,259c0,1.5-1.2,2.7-2.7,2.7c-1.6,0-2.7-1.1-2.7-2.7c0-1.5,1.2-2.7,2.7-2.7
			C36.5,256.3,37.7,257.5,37.7,259z M33.7,259c0,0.7,0.5,1.2,1.2,1.2c0.7,0,1.2-0.5,1.2-1.2c0-0.7-0.5-1.2-1.2-1.2
			C34.2,257.8,33.7,258.3,33.7,259z M36.2,266.3h-1.8l6.6-9.8h1.8L36.2,266.3z M45,263.8c0,1.5-1.2,2.7-2.7,2.7
			c-1.6,0-2.7-1.1-2.7-2.7c0-1.5,1.2-2.7,2.7-2.7C43.8,261.1,45,262.3,45,263.8z M41.1,263.8c0,0.7,0.5,1.2,1.2,1.2
			c0.7,0,1.2-0.5,1.2-1.2c0-0.7-0.5-1.2-1.2-1.2C41.6,262.6,41.1,263.1,41.1,263.8z"/>
	</g>
</g>
<g>
	<g>
		<path class="st3" d="M16.7,228.9H18v1.8h-1.4v1.8h-1.9v-1.8h-4.3v-1.4l3.4-6.6H16l-3.3,6.2h2.1v-2.6h1.9V228.9z"/>
		<path class="st3" d="M27.5,227.5c0,3.2-1.9,5.1-4.2,5.1c-2.3,0-4.2-1.9-4.2-5.1c0-3.2,1.9-5.1,4.2-5.1
			C25.6,222.5,27.5,224.4,27.5,227.5z M21,227.5c0,2.1,1,3.3,2.3,3.3c1.3,0,2.3-1.1,2.3-3.3c0-2.1-1-3.3-2.3-3.3
			C22,224.3,21,225.4,21,227.5z"/>
		<path class="st3" d="M37.7,225.1c0,1.5-1.2,2.7-2.7,2.7c-1.6,0-2.7-1.1-2.7-2.7c0-1.5,1.2-2.7,2.7-2.7
			C36.5,222.5,37.7,223.6,37.7,225.1z M33.7,225.1c0,0.7,0.5,1.2,1.2,1.2c0.7,0,1.2-0.5,1.2-1.2c0-0.7-0.5-1.2-1.2-1.2
			C34.2,223.9,33.7,224.4,33.7,225.1z M36.2,232.4h-1.8l6.6-9.8h1.8L36.2,232.4z M45,229.9c0,1.5-1.2,2.7-2.7,2.7
			c-1.6,0-2.7-1.1-2.7-2.7c0-1.5,1.2-2.7,2.7-2.7C43.8,227.3,45,228.4,45,229.9z M41.1,229.9c0,0.7,0.5,1.2,1.2,1.2
			c0.7,0,1.2-0.5,1.2-1.2c0-0.7-0.5-1.2-1.2-1.2C41.6,228.7,41.1,229.2,41.1,229.9z"/>
	</g>
</g>
<g>
	<g>
		<path class="st3" d="M17.1,190.5h-4l0,2h1.1c2.3,0,3.4,1.3,3.4,2.9c0,2.1-1.6,3.3-3.6,3.3c-1.5,0-2.7-0.5-3.5-1.5l1.1-1.3
			c0.5,0.6,1.5,1,2.4,1c1.1,0,1.6-0.6,1.6-1.4c0-0.7-0.5-1.4-2-1.4h-2.3l0.1-5.4h5.6V190.5z"/>
		<path class="st3" d="M27.5,193.7c0,3.2-1.9,5.1-4.2,5.1c-2.3,0-4.2-1.9-4.2-5.1c0-3.2,1.9-5.1,4.2-5.1
			C25.6,188.6,27.5,190.5,27.5,193.7z M21,193.7c0,2.1,1,3.3,2.3,3.3c1.3,0,2.3-1.1,2.3-3.3c0-2.1-1-3.3-2.3-3.3
			C22,190.4,21,191.5,21,193.7z"/>
		<path class="st3" d="M37.7,191.3c0,1.5-1.2,2.7-2.7,2.7c-1.6,0-2.7-1.1-2.7-2.7c0-1.5,1.2-2.7,2.7-2.7
			C36.5,188.6,37.7,189.7,37.7,191.3z M33.7,191.3c0,0.7,0.5,1.2,1.2,1.2c0.7,0,1.2-0.5,1.2-1.2c0-0.7-0.5-1.2-1.2-1.2
			C34.2,190.1,33.7,190.6,33.7,191.3z M36.2,198.6h-1.8l6.6-9.8h1.8L36.2,198.6z M45,196.1c0,1.5-1.2,2.7-2.7,2.7
			c-1.6,0-2.7-1.1-2.7-2.7c0-1.5,1.2-2.7,2.7-2.7C43.8,193.4,45,194.5,45,196.1z M41.1,196.1c0,0.7,0.5,1.2,1.2,1.2
			c0.7,0,1.2-0.5,1.2-1.2c0-0.7-0.5-1.2-1.2-1.2C41.6,194.9,41.1,195.4,41.1,196.1z"/>
	</g>
</g>
<g>
	<g>
		<path class="st3" d="M14,156.1c0.1,0,0.3,0,0.5,0c2,0,3.4,1.4,3.4,3.3c0,1.9-1.6,3.3-3.7,3.3c-2.1,0-3.7-1.4-3.7-3.3
			c0-0.9,0.3-1.7,0.9-2.6l2.7-4.1h2.3L14,156.1z M12.5,159.3c0,1,0.7,1.6,1.7,1.6c1,0,1.7-0.7,1.7-1.6c0-0.9-0.7-1.6-1.7-1.6
			C13.2,157.7,12.5,158.3,12.5,159.3z"/>
		<path class="st3" d="M27.5,157.5c0,3.2-1.9,5.1-4.2,5.1c-2.3,0-4.2-1.9-4.2-5.1c0-3.2,1.9-5.1,4.2-5.1
			C25.6,152.5,27.5,154.4,27.5,157.5z M21,157.5c0,2.1,1,3.3,2.3,3.3c1.3,0,2.3-1.1,2.3-3.3c0-2.1-1-3.3-2.3-3.3
			C22,154.3,21,155.4,21,157.5z"/>
		<path class="st3" d="M37.7,155.1c0,1.5-1.2,2.7-2.7,2.7c-1.6,0-2.7-1.1-2.7-2.7c0-1.5,1.2-2.7,2.7-2.7
			C36.5,152.5,37.7,153.6,37.7,155.1z M33.7,155.1c0,0.7,0.5,1.2,1.2,1.2c0.7,0,1.2-0.5,1.2-1.2c0-0.7-0.5-1.2-1.2-1.2
			C34.2,153.9,33.7,154.4,33.7,155.1z M36.2,162.4h-1.8l6.6-9.8h1.8L36.2,162.4z M45,159.9c0,1.5-1.2,2.7-2.7,2.7
			c-1.6,0-2.7-1.1-2.7-2.7c0-1.5,1.2-2.7,2.7-2.7C43.8,157.3,45,158.4,45,159.9z M41.1,159.9c0,0.7,0.5,1.2,1.2,1.2
			c0.7,0,1.2-0.5,1.2-1.2c0-0.7-0.5-1.2-1.2-1.2C41.6,158.7,41.1,159.2,41.1,159.9z"/>
	</g>
</g>
<g>
	<g>
		<path class="st3" d="M18,120.3l-4.1,8.3h-2.2l4-8h-4.7v-1.8H18V120.3z"/>
		<path class="st3" d="M27.5,123.7c0,3.2-1.9,5.1-4.2,5.1c-2.3,0-4.2-1.9-4.2-5.1c0-3.2,1.9-5.1,4.2-5.1
			C25.6,118.6,27.5,120.5,27.5,123.7z M21,123.7c0,2.1,1,3.3,2.3,3.3c1.3,0,2.3-1.1,2.3-3.3c0-2.1-1-3.3-2.3-3.3
			C22,120.4,21,121.5,21,123.7z"/>
		<path class="st3" d="M37.7,121.3c0,1.5-1.2,2.7-2.7,2.7c-1.6,0-2.7-1.1-2.7-2.7c0-1.5,1.2-2.7,2.7-2.7
			C36.5,118.6,37.7,119.7,37.7,121.3z M33.7,121.3c0,0.7,0.5,1.2,1.2,1.2c0.7,0,1.2-0.5,1.2-1.2c0-0.7-0.5-1.2-1.2-1.2
			C34.2,120.1,33.7,120.6,33.7,121.3z M36.2,128.6h-1.8l6.6-9.8h1.8L36.2,128.6z M45,126.1c0,1.5-1.2,2.7-2.7,2.7
			c-1.6,0-2.7-1.1-2.7-2.7c0-1.5,1.2-2.7,2.7-2.7C43.8,123.4,45,124.6,45,126.1z M41.1,126.1c0,0.7,0.5,1.2,1.2,1.2
			c0.7,0,1.2-0.5,1.2-1.2c0-0.7-0.5-1.2-1.2-1.2C41.6,124.9,41.1,125.4,41.1,126.1z"/>
	</g>
</g>
<g>
	<g>
		<path class="st3" d="M17.5,87.6c0,1.1-0.7,1.8-1.5,2.2c1,0.4,1.7,1.1,1.7,2.3c0,1.8-1.7,2.8-3.8,2.8s-3.8-1.1-3.8-2.8
			c0-1.2,0.8-1.9,1.7-2.3c-0.8-0.4-1.5-1.1-1.5-2.2c0-1.8,1.6-2.8,3.6-2.8S17.5,85.8,17.5,87.6z M12.1,91.9c0,0.9,0.8,1.3,1.8,1.3
			c1,0,1.8-0.5,1.8-1.3c0-0.9-0.8-1.3-1.8-1.3C12.9,90.5,12.1,91,12.1,91.9z M12.3,87.7c0,0.8,0.7,1.3,1.6,1.3
			c0.9,0,1.6-0.4,1.6-1.3c0-0.8-0.7-1.3-1.6-1.3C13,86.4,12.3,86.9,12.3,87.7z"/>
		<path class="st3" d="M27.5,89.8c0,3.2-1.9,5.1-4.2,5.1c-2.3,0-4.2-1.9-4.2-5.1c0-3.2,1.9-5.1,4.2-5.1
			C25.6,84.7,27.5,86.6,27.5,89.8z M21,89.8c0,2.1,1,3.3,2.3,3.3c1.3,0,2.3-1.1,2.3-3.3c0-2.1-1-3.3-2.3-3.3
			C22,86.6,21,87.7,21,89.8z"/>
		<path class="st3" d="M37.7,87.4c0,1.5-1.2,2.7-2.7,2.7c-1.6,0-2.7-1.1-2.7-2.7c0-1.5,1.2-2.7,2.7-2.7
			C36.5,84.7,37.7,85.9,37.7,87.4z M33.7,87.4c0,0.7,0.5,1.2,1.2,1.2c0.7,0,1.2-0.5,1.2-1.2c0-0.7-0.5-1.2-1.2-1.2
			C34.2,86.2,33.7,86.7,33.7,87.4z M36.2,94.7h-1.8l6.6-9.8h1.8L36.2,94.7z M45,92.2c0,1.5-1.2,2.7-2.7,2.7c-1.6,0-2.7-1.1-2.7-2.7
			c0-1.5,1.2-2.7,2.7-2.7C43.8,89.5,45,90.7,45,92.2z M41.1,92.2c0,0.7,0.5,1.2,1.2,1.2c0.7,0,1.2-0.5,1.2-1.2
			c0-0.7-0.5-1.2-1.2-1.2C41.6,91,41.1,91.5,41.1,92.2z"/>
	</g>
</g>
<g>
	<g>
		<path class="st3" d="M14.4,57.4c-0.1,0-0.3,0-0.4,0c-2,0-3.4-1.4-3.4-3.3c0-1.9,1.6-3.3,3.7-3.3c2.1,0,3.7,1.4,3.7,3.3
			c0,0.9-0.3,1.7-0.9,2.6l-2.7,4.1H12L14.4,57.4z M15.9,54.2c0-1-0.7-1.6-1.7-1.6c-1,0-1.7,0.7-1.7,1.6c0,0.9,0.7,1.6,1.7,1.6
			C15.2,55.8,15.9,55.1,15.9,54.2z"/>
		<path class="st3" d="M27.5,55.9c0,3.2-1.9,5.1-4.2,5.1c-2.3,0-4.2-1.9-4.2-5.1c0-3.2,1.9-5.1,4.2-5.1
			C25.6,50.9,27.5,52.8,27.5,55.9z M21,55.9c0,2.1,1,3.3,2.3,3.3c1.3,0,2.3-1.1,2.3-3.3c0-2.1-1-3.3-2.3-3.3
			C22,52.7,21,53.8,21,55.9z"/>
		<path class="st3" d="M37.7,53.5c0,1.5-1.2,2.7-2.7,2.7c-1.6,0-2.7-1.1-2.7-2.7c0-1.5,1.2-2.7,2.7-2.7C36.5,50.9,37.7,52,37.7,53.5
			z M33.7,53.5c0,0.7,0.5,1.2,1.2,1.2c0.7,0,1.2-0.5,1.2-1.2c0-0.7-0.5-1.2-1.2-1.2C34.2,52.3,33.7,52.8,33.7,53.5z M36.2,60.9h-1.8
			L41,51h1.8L36.2,60.9z M45,58.4c0,1.5-1.2,2.7-2.7,2.7c-1.6,0-2.7-1.1-2.7-2.7c0-1.5,1.2-2.7,2.7-2.7C43.8,55.7,45,56.8,45,58.4z
			 M41.1,58.4c0,0.7,0.5,1.2,1.2,1.2c0.7,0,1.2-0.5,1.2-1.2c0-0.7-0.5-1.2-1.2-1.2C41.6,57.1,41.1,57.6,41.1,58.4z"/>
	</g>
</g>
<g>
	<g>
		<path class="st3" d="M7.3,25.7H5.4v-7.3l-2.3,1v-1.9l4.2-1.7V25.7z"/>
		<path class="st3" d="M17.6,20.8c0,3.2-1.9,5.1-4.2,5.1c-2.3,0-4.2-1.9-4.2-5.1c0-3.2,1.9-5.1,4.2-5.1
			C15.7,15.7,17.6,17.7,17.6,20.8z M11.1,20.8c0,2.1,1,3.3,2.3,3.3c1.3,0,2.3-1.1,2.3-3.3c0-2.1-1-3.3-2.3-3.3
			C12.1,17.6,11.1,18.7,11.1,20.8z"/>
		<path class="st3" d="M27.5,20.8c0,3.2-1.9,5.1-4.2,5.1c-2.3,0-4.2-1.9-4.2-5.1c0-3.2,1.9-5.1,4.2-5.1
			C25.6,15.7,27.5,17.7,27.5,20.8z M21,20.8c0,2.1,1,3.3,2.3,3.3c1.3,0,2.3-1.1,2.3-3.3c0-2.1-1-3.3-2.3-3.3
			C22,17.6,21,18.7,21,20.8z"/>
		<path class="st3" d="M37.7,18.4c0,1.5-1.2,2.7-2.7,2.7c-1.6,0-2.7-1.1-2.7-2.7c0-1.5,1.2-2.7,2.7-2.7
			C36.5,15.7,37.7,16.9,37.7,18.4z M33.7,18.4c0,0.7,0.5,1.2,1.2,1.2c0.7,0,1.2-0.5,1.2-1.2c0-0.7-0.5-1.2-1.2-1.2
			C34.2,17.2,33.7,17.7,33.7,18.4z M36.2,25.7h-1.8l6.6-9.8h1.8L36.2,25.7z M45,23.2c0,1.5-1.2,2.7-2.7,2.7c-1.6,0-2.7-1.1-2.7-2.7
			c0-1.5,1.2-2.7,2.7-2.7C43.8,20.6,45,21.7,45,23.2z M41.1,23.2c0,0.7,0.5,1.2,1.2,1.2c0.7,0,1.2-0.5,1.2-1.2
			c0-0.7-0.5-1.2-1.2-1.2C41.6,22,41.1,22.5,41.1,23.2z"/>
	</g>
</g>
<g>
	<g>
		<path class="st3" d="M48.6,381.4c0.5-0.7,1.5-1.7,3.3-1.7c2.1,0,3.3,1.3,3.3,3.2c0,1.2-0.6,2-1.4,2.9l-2.1,2.2h3.7v1.8h-6.5v-1.5
			l3.5-3.6c0.5-0.5,0.8-1.1,0.8-1.7c0-0.9-0.6-1.5-1.5-1.5c-0.9,0-1.5,0.5-2,1.1L48.6,381.4z"/>
		<path class="st3" d="M65.2,384.8c0,3.2-1.9,5.1-4.2,5.1c-2.3,0-4.2-1.9-4.2-5.1c0-3.2,1.9-5.1,4.2-5.1
			C63.3,379.7,65.2,381.6,65.2,384.8z M58.7,384.8c0,2.1,1,3.3,2.3,3.3c1.3,0,2.3-1.1,2.3-3.3c0-2.1-1-3.3-2.3-3.3
			C59.7,381.5,58.7,382.6,58.7,384.8z"/>
		<path class="st3" d="M75.1,384.8c0,3.2-1.9,5.1-4.2,5.1c-2.3,0-4.2-1.9-4.2-5.1c0-3.2,1.9-5.1,4.2-5.1
			C73.2,379.7,75.1,381.6,75.1,384.8z M68.6,384.8c0,2.1,1,3.3,2.3,3.3c1.3,0,2.3-1.1,2.3-3.3c0-2.1-1-3.3-2.3-3.3
			C69.6,381.5,68.6,382.6,68.6,384.8z"/>
		<path class="st3" d="M83,382.5c0,1-0.6,1.8-1.5,2.2c1,0.4,1.7,1.2,1.7,2.2c0,1.9-1.8,2.9-3.6,2.9c-1.5,0-2.7-0.5-3.4-1.4l1.1-1.2
			c0.6,0.6,1.4,0.9,2.2,0.9c1,0,1.7-0.4,1.7-1.3c0-0.8-0.9-1.3-1.9-1.3h-1.1v-1.7h1.1c1,0,1.7-0.4,1.7-1.2c0-0.8-0.7-1.2-1.6-1.2
			c-0.9,0-1.6,0.5-2,1l-1.2-1.2c0.6-0.9,1.7-1.5,3.3-1.5C81.6,379.7,83,380.8,83,382.5z"/>
	</g>
</g>
<g>
	<g>
		<path class="st3" d="M109.2,381.3c0.5-0.7,1.5-1.7,3.3-1.7c2.1,0,3.3,1.3,3.3,3.2c0,1.2-0.6,2-1.4,2.9l-2.1,2.2h3.7v1.8h-6.5v-1.5
			l3.5-3.6c0.5-0.5,0.8-1.1,0.8-1.7c0-0.9-0.6-1.5-1.5-1.5c-0.9,0-1.5,0.5-2,1.1L109.2,381.3z"/>
		<path class="st3" d="M125.8,384.7c0,3.2-1.9,5.1-4.2,5.1c-2.3,0-4.2-1.9-4.2-5.1c0-3.2,1.9-5.1,4.2-5.1
			C123.9,379.6,125.8,381.5,125.8,384.7z M119.3,384.7c0,2.1,1,3.3,2.3,3.3c1.3,0,2.3-1.1,2.3-3.3c0-2.1-1-3.3-2.3-3.3
			C120.3,381.4,119.3,382.5,119.3,384.7z"/>
		<path class="st3" d="M135.7,384.7c0,3.2-1.9,5.1-4.2,5.1c-2.3,0-4.2-1.9-4.2-5.1c0-3.2,1.9-5.1,4.2-5.1
			C133.8,379.6,135.7,381.5,135.7,384.7z M129.2,384.7c0,2.1,1,3.3,2.3,3.3c1.3,0,2.3-1.1,2.3-3.3c0-2.1-1-3.3-2.3-3.3
			C130.2,381.4,129.2,382.5,129.2,384.7z"/>
		<path class="st3" d="M142.9,386h1.4v1.8h-1.4v1.8H141v-1.8h-4.3v-1.4l3.4-6.6h2.1L139,386h2.1v-2.6h1.9V386z"/>
	</g>
</g>
<g>
	<g>
		<path class="st3" d="M169.9,381.3c0.5-0.7,1.5-1.7,3.3-1.7c2.1,0,3.3,1.3,3.3,3.2c0,1.2-0.6,2-1.4,2.9l-2.1,2.2h3.7v1.8h-6.5v-1.5
			l3.5-3.6c0.5-0.5,0.8-1.1,0.8-1.7c0-0.9-0.6-1.5-1.5-1.5c-0.9,0-1.5,0.5-2,1.1L169.9,381.3z"/>
		<path class="st3" d="M186.5,384.7c0,3.2-1.9,5.1-4.2,5.1c-2.3,0-4.2-1.9-4.2-5.1c0-3.2,1.9-5.1,4.2-5.1
			C184.6,379.6,186.5,381.5,186.5,384.7z M180,384.7c0,2.1,1,3.3,2.3,3.3c1.3,0,2.3-1.1,2.3-3.3c0-2.1-1-3.3-2.3-3.3
			C181,381.4,180,382.5,180,384.7z"/>
		<path class="st3" d="M196.4,384.7c0,3.2-1.9,5.1-4.2,5.1c-2.3,0-4.2-1.9-4.2-5.1c0-3.2,1.9-5.1,4.2-5.1
			C194.5,379.6,196.4,381.5,196.4,384.7z M189.9,384.7c0,2.1,1,3.3,2.3,3.3c1.3,0,2.3-1.1,2.3-3.3c0-2.1-1-3.3-2.3-3.3
			C190.9,381.4,189.9,382.5,189.9,384.7z"/>
		<path class="st3" d="M204.1,381.5h-4l0,2h1.1c2.3,0,3.4,1.3,3.4,2.9c0,2.1-1.6,3.3-3.6,3.3c-1.5,0-2.7-0.5-3.5-1.5l1.1-1.3
			c0.5,0.6,1.5,1,2.4,1c1.1,0,1.6-0.6,1.6-1.4c0-0.7-0.5-1.4-2-1.4h-2.3l0.1-5.4h5.6V381.5z"/>
	</g>
</g>
<g>
	<g>
		<path class="st3" d="M230.6,381.2c0.5-0.7,1.5-1.7,3.3-1.7c2.1,0,3.3,1.3,3.3,3.2c0,1.2-0.6,2-1.4,2.9l-2.1,2.2h3.7v1.8H231v-1.5
			l3.5-3.6c0.5-0.5,0.8-1.1,0.8-1.7c0-0.9-0.6-1.5-1.5-1.5c-0.9,0-1.5,0.5-2,1.1L230.6,381.2z"/>
		<path class="st3" d="M247.1,384.6c0,3.2-1.9,5.1-4.2,5.1c-2.3,0-4.2-1.9-4.2-5.1c0-3.2,1.9-5.1,4.2-5.1
			C245.3,379.6,247.1,381.5,247.1,384.6z M240.7,384.6c0,2.1,1,3.3,2.3,3.3c1.3,0,2.3-1.1,2.3-3.3c0-2.1-1-3.3-2.3-3.3
			C241.7,381.4,240.7,382.5,240.7,384.6z"/>
		<path class="st3" d="M257,384.6c0,3.2-1.9,5.1-4.2,5.1c-2.3,0-4.2-1.9-4.2-5.1c0-3.2,1.9-5.1,4.2-5.1
			C255.1,379.6,257,381.5,257,384.6z M250.5,384.6c0,2.1,1,3.3,2.3,3.3c1.3,0,2.3-1.1,2.3-3.3c0-2.1-1-3.3-2.3-3.3
			C251.5,381.4,250.5,382.5,250.5,384.6z"/>
		<path class="st3" d="M261.7,383.1c0.1,0,0.3,0,0.5,0c2,0,3.4,1.4,3.4,3.3c0,1.9-1.6,3.3-3.7,3.3c-2.1,0-3.7-1.4-3.7-3.3
			c0-0.9,0.3-1.7,0.9-2.6l2.7-4.1h2.3L261.7,383.1z M260.1,386.4c0,1,0.7,1.6,1.7,1.6c1,0,1.7-0.7,1.7-1.6c0-0.9-0.7-1.6-1.7-1.6
			C260.9,384.8,260.1,385.4,260.1,386.4z"/>
	</g>
</g>
<g>
	<g>
		<path class="st3" d="M291.5,381.5c0.5-0.7,1.5-1.7,3.3-1.7c2.1,0,3.3,1.3,3.3,3.2c0,1.2-0.6,2-1.4,2.9l-2.1,2.2h3.7v1.8H292v-1.5
			l3.5-3.6c0.5-0.5,0.8-1.1,0.8-1.7c0-0.9-0.6-1.5-1.5-1.5c-0.9,0-1.5,0.5-2,1.1L291.5,381.5z"/>
		<path class="st3" d="M308.1,384.9c0,3.2-1.9,5.1-4.2,5.1c-2.3,0-4.2-1.9-4.2-5.1s1.9-5.1,4.2-5.1
			C306.2,379.8,308.1,381.7,308.1,384.9z M301.6,384.9c0,2.1,1,3.3,2.3,3.3c1.3,0,2.3-1.1,2.3-3.3s-1-3.3-2.3-3.3
			C302.6,381.7,301.6,382.8,301.6,384.9z"/>
		<path class="st3" d="M318,384.9c0,3.2-1.9,5.1-4.2,5.1c-2.3,0-4.2-1.9-4.2-5.1s1.9-5.1,4.2-5.1C316.1,379.8,318,381.7,318,384.9z
			 M311.5,384.9c0,2.1,1,3.3,2.3,3.3c1.3,0,2.3-1.1,2.3-3.3s-1-3.3-2.3-3.3C312.5,381.7,311.5,382.8,311.5,384.9z"/>
		<path class="st3" d="M326,381.5l-4.1,8.3h-2.2l4-8h-4.7V380h6.9V381.5z"/>
	</g>
</g>
<g>
	<g>
		<path class="st3" d="M351.6,380.9c0.5-0.7,1.5-1.7,3.3-1.7c2.1,0,3.3,1.3,3.3,3.2c0,1.2-0.6,2-1.4,2.9l-2.1,2.2h3.7v1.8h-6.5v-1.5
			l3.5-3.6c0.5-0.5,0.8-1.1,0.8-1.7c0-0.9-0.6-1.5-1.5-1.5c-0.9,0-1.5,0.5-2,1.1L351.6,380.9z"/>
		<path class="st3" d="M368.2,384.3c0,3.2-1.9,5.1-4.2,5.1c-2.3,0-4.2-1.9-4.2-5.1c0-3.2,1.9-5.1,4.2-5.1
			C366.3,379.2,368.2,381.2,368.2,384.3z M361.7,384.3c0,2.1,1,3.3,2.3,3.3c1.3,0,2.3-1.1,2.3-3.3c0-2.1-1-3.3-2.3-3.3
			C362.7,381.1,361.7,382.2,361.7,384.3z"/>
		<path class="st3" d="M378.1,384.3c0,3.2-1.9,5.1-4.2,5.1c-2.3,0-4.2-1.9-4.2-5.1c0-3.2,1.9-5.1,4.2-5.1
			C376.2,379.2,378.1,381.2,378.1,384.3z M371.6,384.3c0,2.1,1,3.3,2.3,3.3c1.3,0,2.3-1.1,2.3-3.3c0-2.1-1-3.3-2.3-3.3
			C372.6,381.1,371.6,382.2,371.6,384.3z"/>
		<path class="st3" d="M386.8,382.1c0,1.1-0.7,1.8-1.5,2.2c1,0.4,1.7,1.1,1.7,2.3c0,1.8-1.7,2.8-3.8,2.8s-3.8-1.1-3.8-2.8
			c0-1.2,0.8-1.9,1.7-2.3c-0.8-0.4-1.5-1.1-1.5-2.2c0-1.8,1.6-2.8,3.6-2.8S386.8,380.3,386.8,382.1z M381.5,386.4
			c0,0.9,0.8,1.3,1.8,1.3c1,0,1.8-0.5,1.8-1.3c0-0.9-0.8-1.3-1.8-1.3C382.3,385.1,381.5,385.5,381.5,386.4z M381.7,382.2
			c0,0.8,0.7,1.3,1.6,1.3c0.9,0,1.6-0.4,1.6-1.3c0-0.8-0.7-1.3-1.6-1.3C382.4,381,381.7,381.4,381.7,382.2z"/>
	</g>
</g>
<g>
	<g>
		<path class="st3" d="M412.6,381.2c0.5-0.7,1.5-1.7,3.3-1.7c2.1,0,3.3,1.3,3.3,3.2c0,1.2-0.6,2-1.4,2.9l-2.1,2.2h3.7v1.8H413v-1.5
			l3.5-3.6c0.5-0.5,0.8-1.1,0.8-1.7c0-0.9-0.6-1.5-1.5-1.5c-0.9,0-1.5,0.5-2,1.1L412.6,381.2z"/>
		<path class="st3" d="M429.2,384.6c0,3.2-1.9,5.1-4.2,5.1c-2.3,0-4.2-1.9-4.2-5.1c0-3.2,1.9-5.1,4.2-5.1
			C427.3,379.6,429.2,381.5,429.2,384.6z M422.7,384.6c0,2.1,1,3.3,2.3,3.3c1.3,0,2.3-1.1,2.3-3.3c0-2.1-1-3.3-2.3-3.3
			C423.7,381.4,422.7,382.5,422.7,384.6z"/>
		<path class="st3" d="M439.1,384.6c0,3.2-1.9,5.1-4.2,5.1c-2.3,0-4.2-1.9-4.2-5.1c0-3.2,1.9-5.1,4.2-5.1
			C437.2,379.6,439.1,381.5,439.1,384.6z M432.6,384.6c0,2.1,1,3.3,2.3,3.3c1.3,0,2.3-1.1,2.3-3.3c0-2.1-1-3.3-2.3-3.3
			C433.6,381.4,432.6,382.5,432.6,384.6z"/>
		<path class="st3" d="M444.1,386.1c-0.1,0-0.3,0-0.4,0c-2,0-3.4-1.4-3.4-3.3c0-1.9,1.6-3.3,3.7-3.3c2.1,0,3.7,1.4,3.7,3.3
			c0,0.9-0.3,1.7-0.9,2.6l-2.7,4.1h-2.3L444.1,386.1z M445.7,382.9c0-1-0.7-1.6-1.7-1.6c-1,0-1.7,0.7-1.7,1.6c0,0.9,0.7,1.6,1.7,1.6
			C444.9,384.5,445.7,383.8,445.7,382.9z"/>
	</g>
</g>
<g>
	<g>
		<path class="st3" d="M474.6,382.5c0.5-0.7,1.5-1.7,3.3-1.7c2.1,0,3.3,1.3,3.3,3.2c0,1.2-0.6,2-1.4,2.9l-2.1,2.2h3.7v1.8H475v-1.5
			l3.5-3.6c0.5-0.5,0.8-1.1,0.8-1.7c0-0.9-0.6-1.5-1.5-1.5c-0.9,0-1.5,0.5-2,1.1L474.6,382.5z"/>
		<path class="st3" d="M491.1,385.9c0,3.2-1.9,5.1-4.2,5.1c-2.3,0-4.2-1.9-4.2-5.1s1.9-5.1,4.2-5.1
			C489.3,380.8,491.1,382.7,491.1,385.9z M484.7,385.9c0,2.1,1,3.3,2.3,3.3c1.3,0,2.3-1.1,2.3-3.3s-1-3.3-2.3-3.3
			C485.7,382.6,484.7,383.7,484.7,385.9z"/>
		<path class="st3" d="M496.5,390.8h-1.9v-7.3l-2.3,1v-1.9l4.2-1.7V390.8z"/>
		<path class="st3" d="M506.8,385.9c0,3.2-1.9,5.1-4.2,5.1c-2.3,0-4.2-1.9-4.2-5.1s1.9-5.1,4.2-5.1
			C504.9,380.8,506.8,382.7,506.8,385.9z M500.3,385.9c0,2.1,1,3.3,2.3,3.3c1.3,0,2.3-1.1,2.3-3.3s-1-3.3-2.3-3.3
			C501.3,382.6,500.3,383.7,500.3,385.9z"/>
	</g>
</g>
<g>
	<g>
		<path class="st3" d="M537.3,384.6c0.5-0.7,1.5-1.7,3.3-1.7c2.1,0,3.3,1.3,3.3,3.2c0,1.2-0.6,2-1.4,2.9l-2.1,2.2h3.7v1.8h-6.5v-1.5
			l3.5-3.6c0.5-0.5,0.8-1.1,0.8-1.7c0-0.9-0.6-1.5-1.5-1.5c-0.9,0-1.5,0.5-2,1.1L537.3,384.6z"/>
		<path class="st3" d="M553.9,388c0,3.2-1.9,5.1-4.2,5.1c-2.3,0-4.2-1.9-4.2-5.1s1.9-5.1,4.2-5.1C552,382.9,553.9,384.8,553.9,388z
			 M547.4,388c0,2.1,1,3.3,2.3,3.3c1.3,0,2.3-1.1,2.3-3.3c0-2.1-1-3.3-2.3-3.3C548.4,384.7,547.4,385.8,547.4,388z"/>
		<path class="st3" d="M559.2,392.9h-1.9v-7.3l-2.3,1v-1.9l4.2-1.7V392.9z"/>
		<path class="st3" d="M565,392.9h-1.9v-7.3l-2.3,1v-1.9l4.2-1.7V392.9z"/>
	</g>
</g>
<g>
	<g>
		<path class="st3" d="M596.9,383.5c0.5-0.7,1.5-1.7,3.3-1.7c2.1,0,3.3,1.3,3.3,3.2c0,1.2-0.6,2-1.4,2.9l-2.1,2.2h3.7v1.8h-6.5v-1.5
			l3.5-3.6c0.5-0.5,0.8-1.1,0.8-1.7c0-0.9-0.6-1.5-1.5-1.5c-0.9,0-1.5,0.5-2,1.1L596.9,383.5z"/>
		<path class="st3" d="M613.5,386.9c0,3.2-1.9,5.1-4.2,5.1c-2.3,0-4.2-1.9-4.2-5.1s1.9-5.1,4.2-5.1
			C611.6,381.8,613.5,383.7,613.5,386.9z M607,386.9c0,2.1,1,3.3,2.3,3.3c1.3,0,2.3-1.1,2.3-3.3c0-2.1-1-3.3-2.3-3.3
			C608,383.6,607,384.7,607,386.9z"/>
		<path class="st3" d="M618.8,391.8h-1.9v-7.3l-2.3,1v-1.9l4.2-1.7V391.8z"/>
		<path class="st3" d="M620.4,383.5c0.5-0.7,1.5-1.7,3.3-1.7c2.1,0,3.3,1.3,3.3,3.2c0,1.2-0.6,2-1.4,2.9l-2.1,2.2h3.7v1.8h-6.5v-1.5
			l3.5-3.6c0.5-0.5,0.8-1.1,0.8-1.7c0-0.9-0.6-1.5-1.5-1.5c-0.9,0-1.5,0.5-2,1.1L620.4,383.5z"/>
	</g>
</g>
<g>
	<g>
		<path class="st3" d="M657.6,383.4c0.5-0.7,1.5-1.7,3.3-1.7c2.1,0,3.3,1.3,3.3,3.2c0,1.2-0.6,2-1.4,2.9l-2.1,2.2h3.7v1.8H658v-1.5
			l3.5-3.6c0.5-0.5,0.8-1.1,0.8-1.7c0-0.9-0.6-1.5-1.5-1.5c-0.9,0-1.5,0.5-2,1.1L657.6,383.4z"/>
		<path class="st3" d="M674.1,386.8c0,3.2-1.9,5.1-4.2,5.1c-2.3,0-4.2-1.9-4.2-5.1s1.9-5.1,4.2-5.1
			C672.2,381.8,674.1,383.7,674.1,386.8z M667.7,386.8c0,2.1,1,3.3,2.3,3.3c1.3,0,2.3-1.1,2.3-3.3c0-2.1-1-3.3-2.3-3.3
			C668.7,383.6,667.7,384.7,667.7,386.8z"/>
		<path class="st3" d="M679.5,391.7h-1.9v-7.3l-2.3,1v-1.9l4.2-1.7V391.7z"/>
		<path class="st3" d="M687.8,384.6c0,1-0.6,1.8-1.5,2.2c1,0.4,1.7,1.2,1.7,2.2c0,1.9-1.8,2.9-3.6,2.9c-1.5,0-2.7-0.5-3.4-1.4
			l1.1-1.2c0.6,0.6,1.4,0.9,2.2,0.9c1,0,1.7-0.4,1.7-1.3c0-0.8-0.9-1.3-1.9-1.3H683v-1.7h1.1c1,0,1.7-0.4,1.7-1.2
			c0-0.8-0.7-1.2-1.6-1.2c-0.9,0-1.6,0.5-2,1l-1.2-1.2c0.6-0.9,1.7-1.5,3.3-1.5C686.4,381.8,687.8,382.9,687.8,384.6z"/>
	</g>
</g>
<g>
	<g>
		<path class="st3" d="M718.2,383.4c0.5-0.7,1.5-1.7,3.3-1.7c2.1,0,3.3,1.3,3.3,3.2c0,1.2-0.6,2-1.4,2.9l-2.1,2.2h3.7v1.8h-6.5v-1.5
			l3.5-3.6c0.5-0.5,0.8-1.1,0.8-1.7c0-0.9-0.6-1.5-1.5-1.5c-0.9,0-1.5,0.5-2,1.1L718.2,383.4z"/>
		<path class="st3" d="M734.7,386.7c0,3.2-1.9,5.1-4.2,5.1c-2.3,0-4.2-1.9-4.2-5.1s1.9-5.1,4.2-5.1
			C732.9,381.7,734.7,383.6,734.7,386.7z M728.3,386.7c0,2.1,1,3.3,2.3,3.3c1.3,0,2.3-1.1,2.3-3.3c0-2.1-1-3.3-2.3-3.3
			C729.3,383.5,728.3,384.6,728.3,386.7z"/>
		<path class="st3" d="M740.1,391.6h-1.9v-7.3l-2.3,1v-1.9l4.2-1.7V391.6z"/>
		<path class="st3" d="M747.7,388.1h1.4v1.8h-1.4v1.8h-1.9v-1.8h-4.3v-1.4l3.4-6.6h2.1l-3.3,6.2h2.1v-2.6h1.9V388.1z"/>
	</g>
</g>
<g>
	<g>
		<path class="st3" d="M778.8,383.4c0.5-0.7,1.5-1.7,3.3-1.7c2.1,0,3.3,1.3,3.3,3.2c0,1.2-0.6,2-1.4,2.9l-2.1,2.2h3.7v1.8h-6.5v-1.5
			l3.5-3.6c0.5-0.5,0.8-1.1,0.8-1.7c0-0.9-0.6-1.5-1.5-1.5c-0.9,0-1.5,0.5-2,1.1L778.8,383.4z"/>
		<path class="st3" d="M795.4,386.8c0,3.2-1.9,5.1-4.2,5.1c-2.3,0-4.2-1.9-4.2-5.1s1.9-5.1,4.2-5.1
			C793.5,381.7,795.4,383.6,795.4,386.8z M788.9,386.8c0,2.1,1,3.3,2.3,3.3c1.3,0,2.3-1.1,2.3-3.3c0-2.1-1-3.3-2.3-3.3
			C789.9,383.5,788.9,384.6,788.9,386.8z"/>
		<path class="st3" d="M800.7,391.7h-1.9v-7.3l-2.3,1v-1.9l4.2-1.7V391.7z"/>
		<path class="st3" d="M808.9,383.6h-4l0,2h1.1c2.3,0,3.4,1.3,3.4,2.9c0,2.1-1.6,3.3-3.6,3.3c-1.5,0-2.7-0.5-3.5-1.5l1.1-1.3
			c0.5,0.6,1.5,1,2.4,1c1.1,0,1.6-0.6,1.6-1.4c0-0.7-0.5-1.4-2-1.4h-2.3l0.1-5.4h5.6V383.6z"/>
	</g>
</g>
<g>
	<g>
		<path class="st3" d="M839.5,383.3c0.5-0.7,1.5-1.7,3.3-1.7c2.1,0,3.3,1.3,3.3,3.2c0,1.2-0.6,2-1.4,2.9l-2.1,2.2h3.7v1.8h-6.5v-1.5
			l3.5-3.6c0.5-0.5,0.8-1.1,0.8-1.7c0-0.9-0.6-1.5-1.5-1.5c-0.9,0-1.5,0.5-2,1.1L839.5,383.3z"/>
		<path class="st3" d="M856.1,386.7c0,3.2-1.9,5.1-4.2,5.1c-2.3,0-4.2-1.9-4.2-5.1s1.9-5.1,4.2-5.1
			C854.2,381.6,856.1,383.5,856.1,386.7z M849.6,386.7c0,2.1,1,3.3,2.3,3.3c1.3,0,2.3-1.1,2.3-3.3c0-2.1-1-3.3-2.3-3.3
			C850.6,383.4,849.6,384.6,849.6,386.7z"/>
		<path class="st3" d="M861.4,391.6h-1.9v-7.3l-2.3,1v-1.9l4.2-1.7V391.6z"/>
		<path class="st3" d="M866.5,385.2c0.1,0,0.3,0,0.5,0c2,0,3.4,1.4,3.4,3.3c0,1.9-1.6,3.3-3.7,3.3c-2.1,0-3.7-1.4-3.7-3.3
			c0-0.9,0.3-1.7,0.9-2.6l2.7-4.1h2.3L866.5,385.2z M864.9,388.5c0,1,0.7,1.6,1.7,1.6c1,0,1.7-0.7,1.7-1.6c0-0.9-0.7-1.6-1.7-1.6
			C865.7,386.8,864.9,387.5,864.9,388.5z"/>
	</g>
</g>
<g>
	<g>
		<path class="st3" d="M900.5,383.6c0.5-0.7,1.5-1.7,3.3-1.7c2.1,0,3.3,1.3,3.3,3.2c0,1.2-0.6,2-1.4,2.9l-2.1,2.2h3.7v1.8h-6.5v-1.5
			l3.5-3.6c0.5-0.5,0.8-1.1,0.8-1.7c0-0.9-0.6-1.5-1.5-1.5c-0.9,0-1.5,0.5-2,1.1L900.5,383.6z"/>
		<path class="st3" d="M917,387c0,3.2-1.9,5.1-4.2,5.1c-2.3,0-4.2-1.9-4.2-5.1s1.9-5.1,4.2-5.1C915.1,381.9,917,383.8,917,387z
			 M910.6,387c0,2.1,1,3.3,2.3,3.3c1.3,0,2.3-1.1,2.3-3.3c0-2.1-1-3.3-2.3-3.3C911.6,383.7,910.6,384.8,910.6,387z"/>
		<path class="st3" d="M922.3,391.9h-1.9v-7.3l-2.3,1v-1.9l4.2-1.7V391.9z"/>
		<path class="st3" d="M930.8,383.6l-4.1,8.3h-2.2l4-8h-4.7v-1.8h6.9V383.6z"/>
	</g>
</g>
<g>
	<g>
		<path class="st3" d="M960.5,383c0.5-0.7,1.5-1.7,3.3-1.7c2.1,0,3.3,1.3,3.3,3.2c0,1.2-0.6,2-1.4,2.9l-2.1,2.2h3.7v1.8H961v-1.5
			l3.5-3.6c0.5-0.5,0.8-1.1,0.8-1.7c0-0.9-0.6-1.5-1.5-1.5c-0.9,0-1.5,0.5-2,1.1L960.5,383z"/>
		<path class="st3" d="M977.1,386.4c0,3.2-1.9,5.1-4.2,5.1c-2.3,0-4.2-1.9-4.2-5.1s1.9-5.1,4.2-5.1
			C975.2,381.3,977.1,383.2,977.1,386.4z M970.6,386.4c0,2.1,1,3.3,2.3,3.3c1.3,0,2.3-1.1,2.3-3.3c0-2.1-1-3.3-2.3-3.3
			C971.6,383.1,970.6,384.2,970.6,386.4z"/>
		<path class="st3" d="M982.4,391.3h-1.9V384l-2.3,1V383l4.2-1.7V391.3z"/>
		<path class="st3" d="M991.6,384.1c0,1.1-0.7,1.8-1.5,2.2c1,0.4,1.7,1.1,1.7,2.3c0,1.8-1.7,2.8-3.8,2.8s-3.8-1.1-3.8-2.8
			c0-1.2,0.8-1.9,1.7-2.3c-0.8-0.4-1.5-1.1-1.5-2.2c0-1.8,1.6-2.8,3.6-2.8S991.6,382.4,991.6,384.1z M986.2,388.5
			c0,0.9,0.8,1.3,1.8,1.3c1,0,1.8-0.5,1.8-1.3c0-0.9-0.8-1.3-1.8-1.3C987.1,387.1,986.2,387.6,986.2,388.5z M986.5,384.3
			c0,0.8,0.7,1.3,1.6,1.3c0.9,0,1.6-0.4,1.6-1.3c0-0.8-0.7-1.3-1.6-1.3C987.2,383,986.5,383.5,986.5,384.3z"/>
	</g>
</g>
<g>
	<g>
		<path class="st3" d="M1021.5,383.3c0.5-0.7,1.5-1.7,3.3-1.7c2.1,0,3.3,1.3,3.3,3.2c0,1.2-0.6,2-1.4,2.9l-2.1,2.2h3.7v1.8h-6.5
			v-1.5l3.5-3.6c0.5-0.5,0.8-1.1,0.8-1.7c0-0.9-0.6-1.5-1.5-1.5c-0.9,0-1.5,0.5-2,1.1L1021.5,383.3z"/>
		<path class="st3" d="M1038.1,386.7c0,3.2-1.9,5.1-4.2,5.1c-2.3,0-4.2-1.9-4.2-5.1s1.9-5.1,4.2-5.1
			C1036.2,381.6,1038.1,383.5,1038.1,386.7z M1031.6,386.7c0,2.1,1,3.3,2.3,3.3c1.3,0,2.3-1.1,2.3-3.3c0-2.1-1-3.3-2.3-3.3
			C1032.6,383.4,1031.6,384.6,1031.6,386.7z"/>
		<path class="st3" d="M1043.4,391.6h-1.9v-7.3l-2.3,1v-1.9l4.2-1.7V391.6z"/>
		<path class="st3" d="M1048.9,388.2c-0.1,0-0.3,0-0.4,0c-2,0-3.4-1.4-3.4-3.3c0-1.9,1.6-3.3,3.7-3.3c2.1,0,3.7,1.4,3.7,3.3
			c0,0.9-0.3,1.7-0.9,2.6l-2.7,4.1h-2.3L1048.9,388.2z M1050.4,385c0-1-0.7-1.6-1.7-1.6c-1,0-1.7,0.7-1.7,1.6c0,0.9,0.7,1.6,1.7,1.6
			C1049.7,386.6,1050.4,385.9,1050.4,385z"/>
	</g>
</g>
<g>
	<path class="st4" d="M974.3,156.3h2.5v3.3h-2.5v3.3h-3.5v-3.3h-8.1V157l6.4-12.3h3.9l-6.1,11.6h3.9v-4.8h3.5V156.3z"/>
	<path class="st4" d="M985.4,156.5c-0.2,0-0.5,0.1-0.8,0.1c-3.7,0-6.3-2.6-6.3-6c0-3.6,2.9-6.2,6.8-6.2c3.9,0,6.8,2.6,6.8,6.1
		c0,1.7-0.6,3.2-1.7,4.8l-5,7.6H981L985.4,156.5z M988.3,150.5c0-1.8-1.4-3-3.2-3c-1.8,0-3.2,1.2-3.2,3c0,1.8,1.4,3,3.2,3
		C987,153.5,988.3,152.3,988.3,150.5z"/>
	<path class="st4" d="M998.6,158.7l-1.8,7.7h-2.9l0.9-7.7H998.6z"/>
	<path class="st4" d="M1013.1,149.6c0,1.9-1,3.3-2.7,4.1c1.9,0.8,3.1,2.2,3.1,4.2c0,3.6-3.3,5.3-6.7,5.3c-2.7,0-5-1-6.4-2.6l2.1-2.3
		c1.1,1.1,2.6,1.7,4.1,1.7c1.8,0,3.2-0.8,3.2-2.4c0-1.6-1.6-2.4-3.6-2.4h-2.1v-3.1h2.1c1.8,0,3.2-0.8,3.2-2.3c0-1.5-1.3-2.3-3-2.3
		c-1.7,0-2.9,0.9-3.7,1.8l-2.2-2.2c1.2-1.6,3.2-2.8,6.1-2.8C1010.5,144.3,1013.1,146.4,1013.1,149.6z"/>
	<path class="st4" d="M1030.2,152.5c0,2.2-1.7,3.8-4.1,3.8s-4-1.6-4-3.8c0-2.2,1.7-3.8,4-3.8S1030.2,150.3,1030.2,152.5z
		 M1024.6,152.5c0,0.9,0.7,1.5,1.6,1.5c0.9,0,1.6-0.6,1.6-1.5s-0.7-1.5-1.6-1.5C1025.3,151,1024.6,151.6,1024.6,152.5z
		 M1028.1,162.9h-3l10.1-13.9h3L1028.1,162.9z M1041.2,159.3c0,2.2-1.7,3.8-4.1,3.8c-2.3,0-4-1.6-4-3.8c0-2.2,1.7-3.8,4-3.8
		C1039.5,155.4,1041.2,157.1,1041.2,159.3z M1035.6,159.3c0,0.9,0.6,1.5,1.5,1.5c0.9,0,1.6-0.6,1.6-1.5s-0.7-1.5-1.6-1.5
		C1036.3,157.7,1035.6,158.4,1035.6,159.3z"/>
</g>
<g>
	<path class="st4" d="M963.8,203.6c1-1.3,2.8-3.1,6.2-3.1c3.8,0,6.2,2.4,6.2,5.9c0,2.2-1.1,3.8-2.6,5.3l-3.9,4h7v3.3h-12v-2.7
		l6.4-6.6c1-1,1.5-2,1.5-3.1c0-1.6-1.1-2.7-2.8-2.7c-1.7,0-2.8,0.9-3.7,2L963.8,203.6z"/>
	<path class="st4" d="M991,205.7c0,1.9-1,3.3-2.7,4.1c1.9,0.8,3.1,2.2,3.1,4.2c0,3.6-3.3,5.3-6.7,5.3c-2.7,0-5-1-6.4-2.6l2.1-2.3
		c1.1,1.1,2.6,1.7,4.1,1.7c1.8,0,3.2-0.8,3.2-2.4c0-1.6-1.6-2.4-3.6-2.4H982v-3.1h2.1c1.8,0,3.2-0.8,3.2-2.3c0-1.5-1.3-2.3-3-2.3
		c-1.7,0-2.9,0.9-3.7,1.8l-2.2-2.2c1.2-1.6,3.2-2.8,6.1-2.8C988.4,200.4,991,202.5,991,205.7z"/>
	<path class="st4" d="M998.3,214.9l-1.8,7.7h-2.9l0.9-7.7H998.3z"/>
	<path class="st4" d="M1012.5,204h-7.4l-0.1,3.6h2.1c4.2,0,6.4,2.4,6.4,5.5c0,3.9-3,6.1-6.6,6.1c-2.7,0-4.9-1-6.4-2.7l2-2.5
		c1,1.1,2.8,1.9,4.4,1.9c2,0,3-1.2,3-2.6c0-1.4-0.9-2.6-3.7-2.6h-4.3l0.2-10.1h10.5V204z"/>
	<path class="st4" d="M1030.2,208.6c0,2.2-1.7,3.8-4.1,3.8s-4-1.6-4-3.8c0-2.2,1.7-3.8,4-3.8S1030.2,206.4,1030.2,208.6z
		 M1024.6,208.6c0,0.9,0.7,1.5,1.6,1.5c0.9,0,1.6-0.6,1.6-1.5s-0.7-1.5-1.6-1.5C1025.3,207.1,1024.6,207.8,1024.6,208.6z
		 M1028.1,219h-3l10.1-13.9h3L1028.1,219z M1041.2,215.4c0,2.2-1.7,3.8-4.1,3.8c-2.3,0-4-1.6-4-3.8c0-2.2,1.7-3.8,4-3.8
		C1039.5,211.6,1041.2,213.2,1041.2,215.4z M1035.6,215.4c0,0.9,0.6,1.5,1.5,1.5c0.9,0,1.6-0.6,1.6-1.5s-0.7-1.5-1.6-1.5
		C1036.3,213.9,1035.6,214.5,1035.6,215.4z"/>
</g>
<g>
	<path class="st4" d="M964.9,322.3c1-1.3,2.8-3.1,6.2-3.1c3.8,0,6.2,2.4,6.2,5.9c0,2.2-1.1,3.8-2.6,5.3l-3.9,4h7v3.3h-12V335
		l6.4-6.6c1-1,1.5-2,1.5-3.1c0-1.6-1.1-2.7-2.8-2.7c-1.7,0-2.8,0.9-3.7,2L964.9,322.3z"/>
	<path class="st4" d="M992.4,322.3l-7.5,15.5h-4.1l7.5-14.9h-8.6v-3.3h12.8V322.3z"/>
	<path class="st4" d="M998.8,333.6l-1.8,7.7h-2.9l0.9-7.7H998.8z"/>
	<path class="st4" d="M1000.9,322.3c1-1.3,2.8-3.1,6.2-3.1c3.8,0,6.2,2.4,6.2,5.9c0,2.2-1.1,3.8-2.6,5.3l-3.9,4h7v3.3h-12V335
		l6.4-6.6c1-1,1.5-2,1.5-3.1c0-1.6-1.1-2.7-2.8-2.7c-1.7,0-2.8,0.9-3.7,2L1000.9,322.3z"/>
	<path class="st4" d="M1030.2,327.4c0,2.2-1.7,3.8-4.1,3.8s-4-1.6-4-3.8c0-2.2,1.7-3.8,4-3.8S1030.2,325.2,1030.2,327.4z
		 M1024.6,327.4c0,0.9,0.7,1.5,1.6,1.5c0.9,0,1.6-0.7,1.6-1.5s-0.7-1.5-1.6-1.5C1025.3,325.9,1024.6,326.5,1024.6,327.4z
		 M1028.1,337.7h-3l10.1-13.9h3L1028.1,337.7z M1041.2,334.2c0,2.2-1.7,3.8-4.1,3.8c-2.3,0-4-1.6-4-3.8c0-2.2,1.7-3.8,4-3.8
		C1039.5,330.3,1041.2,332,1041.2,334.2z M1035.6,334.2c0,0.9,0.6,1.5,1.5,1.5c0.9,0,1.6-0.7,1.6-1.5s-0.7-1.5-1.6-1.5
		C1036.3,332.6,1035.6,333.3,1035.6,334.2z"/>
</g>
<path class="st5" d="M52.1,19.1h997.7 M52.1,55.2h997.7 M52.1,89.1h997.7 M52.1,122.9h997.7 M52.1,156.8h997.7 M52.1,192.9h997.7
	 M52.1,226.8h997.7 M52.1,260.7h997.7 M52.1,294.5h997.7 M52.1,330.6h997.7 M52.1,364.5h997.7"/>
<g>
	<path class="st4" d="M518,149.2c-1.4-0.9-3.2-1.5-5.2-1.5c-2,0-3.5,0.8-3.5,2.2c0,1.3,1.6,1.7,3.8,2.1l1,0.2
		c3.2,0.5,5.8,1.9,5.8,5.1c0,4-3.5,5.9-7.4,5.9c-2.8,0-5.7-0.8-7.7-2.4l1.9-2.9c1.3,1.1,3.5,2,5.8,2c2,0,3.6-0.8,3.6-2.2
		c0-1.3-1.3-1.7-3.9-2.1l-1.2-0.2c-3.2-0.5-5.6-1.9-5.6-5.2c0-3.8,3.4-5.8,7.3-5.8c2.5,0,4.7,0.6,7,1.9L518,149.2z"/>
	<path class="st4" d="M535.8,156.5c0,3.8-2.9,6.6-6.8,6.6c-3.9,0-6.8-2.8-6.8-6.6c0-3.8,2.9-6.6,6.8-6.6
		C532.9,149.9,535.8,152.8,535.8,156.5z M525.6,156.5c0,2,1.4,3.5,3.3,3.5c1.9,0,3.4-1.4,3.4-3.5s-1.4-3.5-3.4-3.5
		C527.1,153.1,525.6,154.5,525.6,156.5z"/>
	<path class="st4" d="M549.6,152.3l-2.4,2c-0.8-0.8-1.6-1.3-2.7-1.3c-1.8,0-3.2,1.4-3.2,3.5c0,2.1,1.4,3.5,3.1,3.5
		c1.1,0,2-0.5,2.7-1.3l2.4,2.1c-1.2,1.5-3,2.4-5.1,2.4c-4,0-6.7-2.8-6.7-6.6c0-3.8,2.7-6.6,6.7-6.6
		C546.6,149.9,548.4,150.8,549.6,152.3z"/>
	<path class="st4" d="M555.9,146.1c0,1.2-0.9,2.2-2.2,2.2s-2.2-0.9-2.2-2.2s0.9-2.2,2.2-2.2S555.9,144.9,555.9,146.1z M555.4,162.9
		H552v-12.6h3.4V162.9z"/>
	<path class="st4" d="M570.7,156.5c0,0.4,0,0.9-0.1,1.1h-8.9c0.4,1.8,1.6,2.6,3.2,2.6c1.1,0,2.3-0.4,3.2-1.2l2,2.2
		c-1.4,1.3-3.2,1.9-5.4,1.9c-3.9,0-6.5-2.6-6.5-6.6c0-4,2.6-6.7,6.4-6.7C568.2,149.9,570.7,152.6,570.7,156.5z M561.8,155.4h5.6
		c-0.3-1.6-1.3-2.5-2.7-2.5C563,152.8,562,153.8,561.8,155.4z M562.3,148.5l2.6-4.1h4.1l-3.4,4.1H562.3z"/>
	<path class="st4" d="M582.7,153.3h-4.6v4.6c0,1.6,0.8,2.1,1.9,2.1c0.8,0,1.7-0.4,2.4-0.8l1.2,2.7c-1.1,0.8-2.4,1.3-4.2,1.3
		c-3.1,0-4.7-1.8-4.7-5v-4.9h-2.4v-3h2.4v-3.7h3.4v3.7h4.6V153.3z"/>
	<path class="st4" d="M597.4,156.5c0,0.4,0,0.9-0.1,1.1h-8.9c0.4,1.8,1.6,2.6,3.2,2.6c1.1,0,2.3-0.4,3.2-1.2l2,2.2
		c-1.4,1.3-3.2,1.9-5.4,1.9c-3.9,0-6.5-2.6-6.5-6.6c0-4,2.6-6.7,6.4-6.7C594.9,149.9,597.4,152.6,597.4,156.5z M588.4,155.4h5.6
		c-0.3-1.6-1.3-2.5-2.7-2.5C589.6,152.8,588.7,153.8,588.4,155.4z M589,148.5l2.6-4.1h4.1l-3.4,4.1H589z"/>
</g>
<g>
	<path class="st4" d="M516.2,233.4c-1.4-0.9-3.2-1.5-5.2-1.5c-2,0-3.5,0.8-3.5,2.2c0,1.3,1.6,1.7,3.8,2.1l1,0.2
		c3.2,0.5,5.8,1.9,5.8,5.1c0,4-3.5,5.9-7.4,5.9c-2.8,0-5.7-0.8-7.7-2.4l1.9-2.9c1.3,1.1,3.5,2,5.8,2c2,0,3.6-0.8,3.6-2.2
		c0-1.3-1.3-1.7-3.9-2.1l-1.2-0.2c-3.2-0.5-5.6-1.9-5.6-5.2c0-3.8,3.4-5.8,7.3-5.8c2.5,0,4.7,0.6,7,1.9L516.2,233.4z"/>
	<path class="st4" d="M532.8,240.7c0,0.4,0,0.9-0.1,1.1h-8.9c0.4,1.8,1.6,2.6,3.2,2.6c1.1,0,2.3-0.4,3.2-1.2l2,2.2
		c-1.4,1.3-3.2,1.9-5.4,1.9c-3.9,0-6.5-2.6-6.5-6.6s2.6-6.7,6.4-6.7C530.3,234,532.8,236.7,532.8,240.7z M523.9,239.5h5.6
		c-0.3-1.6-1.3-2.5-2.7-2.5C525.1,237,524.2,237.9,523.9,239.5z"/>
	<path class="st4" d="M546.6,236.4l-2.4,2c-0.8-0.8-1.6-1.3-2.7-1.3c-1.8,0-3.2,1.4-3.2,3.5c0,2.1,1.4,3.5,3.1,3.5
		c1.1,0,2-0.5,2.7-1.3l2.4,2.1c-1.2,1.5-3,2.4-5.1,2.4c-4,0-6.7-2.8-6.7-6.6c0-3.8,2.7-6.6,6.7-6.6
		C543.7,234,545.5,234.9,546.6,236.4z"/>
	<path class="st4" d="M558.2,237.4h-4.6v4.6c0,1.6,0.8,2.1,1.9,2.1c0.8,0,1.7-0.4,2.4-0.8l1.2,2.7c-1.1,0.8-2.4,1.3-4.2,1.3
		c-3.1,0-4.7-1.8-4.7-5v-4.9h-2.4v-3h2.4v-3.7h3.4v3.7h4.6V237.4z"/>
	<path class="st4" d="M573,240.7c0,0.4,0,0.9-0.1,1.1H564c0.4,1.8,1.6,2.6,3.2,2.6c1.1,0,2.3-0.4,3.2-1.2l2,2.2
		c-1.4,1.3-3.2,1.9-5.4,1.9c-3.9,0-6.5-2.6-6.5-6.6s2.6-6.7,6.4-6.7C570.5,234,573,236.7,573,240.7z M564,239.5h5.6
		c-0.3-1.6-1.3-2.5-2.7-2.5C565.2,237,564.3,237.9,564,239.5z"/>
	<path class="st4" d="M587.6,241.6c0,4-2.8,5.7-6,5.7c-3.2,0-6-1.7-6-5.7v-7.2h3.4v6.9c0,2,1.1,2.8,2.6,2.8c1.5,0,2.6-0.8,2.6-2.8
		v-6.9h3.4V241.6z"/>
	<path class="st4" d="M599.7,234.3l-0.5,3.4c-0.6-0.2-1.4-0.4-2.1-0.4c-1.6,0-2.7,1-2.7,2.8v6.9h-3.4v-12.6h3.3v1.4
		c0.8-1.2,2-1.7,3.5-1.7C598.6,234,599.2,234.1,599.7,234.3z"/>
</g>
<g>
	<path class="st4" d="M526.1,331.1v6.7h-3.6v-18.2h7.4c4.3,0,6.7,2.3,6.7,5.8c0,3.5-2.3,5.8-6.6,5.8H526.1z M526.1,322.9v4.9h3.7
		c2,0,3-0.8,3-2.4c0-1.6-1-2.4-3-2.4H526.1z"/>
	<path class="st4" d="M551.8,337.7h-3.3v-1.4c-0.8,1-2,1.7-3.8,1.7c-3.5,0-6.1-2.8-6.1-6.6c0-3.8,2.6-6.6,6.1-6.6
		c1.7,0,2.9,0.7,3.8,1.7v-1.4h3.3V337.7z M542.1,331.4c0,1.9,1.3,3.5,3.3,3.5c1.9,0,3.2-1.5,3.2-3.5c0-2-1.3-3.5-3.2-3.5
		C543.4,328,542.1,329.5,542.1,331.4z"/>
	<path class="st4" d="M558.5,343h-3.7l4.4-7.9l-5.4-9.9h3.8l3.5,6.5l3.4-6.5h3.7L558.5,343z"/>
	<path class="st4" d="M579.1,328.7c-1-0.5-2.6-1-4-1c-1.3,0-1.9,0.5-1.9,1.1c0,0.7,0.9,0.9,2.1,1.1l1.1,0.2c2.7,0.4,4.3,1.6,4.3,3.8
		c0,2.6-2.1,4.3-5.8,4.3c-1.7,0-4-0.3-5.6-1.5l1.3-2.6c1.1,0.7,2.4,1.2,4.3,1.2c1.6,0,2.3-0.4,2.3-1.2c0-0.6-0.6-0.9-2.1-1.2l-1-0.1
		c-2.9-0.4-4.4-1.7-4.4-3.8c0-2.6,2-4.1,5.3-4.1c2,0,3.6,0.4,5.3,1.2L579.1,328.7z"/>
</g>
</svg>
