<?xml version="1.0" encoding="utf-8"?>
<!-- Generator: Adobe Illustrator 23.1.1, SVG Export Plug-In . SVG Version: 6.00 Build 0)  -->
<svg version="1.1" id="Layer_1" xmlns="http://www.w3.org/2000/svg" xmlns:xlink="http://www.w3.org/1999/xlink" x="0px" y="0px"
	 viewBox="0 0 1080 245" style="enable-background:new 0 0 1080 245;" xml:space="preserve">
<style type="text/css">
	.st0{fill:#FFB819;}
	.st1{fill:#D02259;}
	.st2{fill:#203232;}
	.st3{fill:#F47E20;}
	.st4{fill:#ED5A36;}
</style>
<g>
	<path class="st0" d="M397.4,95c-0.8,0.6-1.5,1.2-2,1.8c-1.3,1.4-2.6-1.1-3.4-0.1c-0.9,1-1,2.3-2,2.3c-1,0-0.4,0.8-1.6,1.1
		c-1.2,0.3-2.1,2.8-1.8,3.4c0.3,0.6-1.3,1.3-0.4,1.6c0.9,0.3,1.5,1.9,0.7,2.5c-0.8,0.6-1.7,0.7-2.3-0.2c-0.6-0.9,0.1,1.3-1.3,1.3
		c-1.4,0.1-4.4,0.8-4.4,1.6c0,0.8,4.8-1.2,4.2,0.1c-0.2,0.4-2.8,1.3-4,1.3c-1.2-0.1-2.2,0.4-1.5,0.9c0.7,0.5-0.4,2.7-1.5,3.9
		c-1,1.3-1.3,1.1-1.9,0.1c-0.7-1-0.7,1.1-0.1,1.3c0.6,0.2,0.5,2-0.4,4.1c-0.9,2.1-1.5,2.5-1.2,0.9c0.3-1.6,0.1-2.7-0.7-3.8
		c-0.8-1.1-0.2-2.3,0.2-3.1c0.4-0.8-0.6-0.8-0.9,0c-0.3,0.8,0.2,4-0.4,4.1c-0.6,0.2-1.9,0.5-1.1,1.1c0.8,0.6,2.4,1.9,1.8,2.7
		c-0.7,0.8-1,1.4,0.1,1.6c1.1,0.1,1.8,1.8,1,2.2c-0.8,0.3-0.5,1,0.8,1.1c1.3,0.1-0.1,1.4-0.7,1.9c-0.6,0.5-1.6,0.4-1.9-0.1
		c-0.3-0.6-1.1,0.3-0.7,1.1c0.4,0.8,1.3,1.8-0.2,2.1c-1.6,0.3-2.8,1.4-2.9,2.3c-0.1,0.9-0.9,0.7-1.6,0.7c-0.7,0-2,1.4-2.3,2.5
		c-0.2,1.1-1.4,0.6-2.4,1.6c-1,1.1-3.2,4.5-3.2,6.6c-0.1,2.1,0.5,4.7,1.5,6.2c1,1.5,0,1.8,0.8,3c0.8,1.3,1.6,5.3,1.5,6.4
		c-0.1,1.1-1.1,2.5-1.2,3.7c-0.1,1.2-1.9,0.3-2.1-0.4c-0.1-0.7-0.9-2.5-1.9-2.7c-1-0.3,0.1-2.3-1.1-3.3c-1.2-1-0.6-2.2-1.2-3.2
		c-0.5-0.9,1-2.4-0.1-3.6c-1-1.2-1.9-2.5-2.7-3.5c-0.9-1-1.6,0.1-2.6,1c-0.9,0.9-1.8,0.5-1.9-0.4c-0.1-0.8-1.3-2.1-2.6-2.1
		c-1.3,0-3.6,1.3-3.6,0.5c0-0.8-0.5-1.8-1.1-0.8c-0.5,1-0.5,0.6-1.9,0.5c-1.5-0.1-3.1,0.8-2.4,1.4c0.7,0.6-0.3,1,0.5,1.8
		c0.9,0.8,1.8,1.8,0.6,1.6c-1.2-0.1-2.4-2.8-2.4-2c-0.1,0.8-0.1,1.2-1.2,1.1c-1.2-0.1-1.5,0.2-2.3-0.8c-0.8-1-1.7-2-1.8-1
		c-0.1,1-1.7,0.8-2.2-0.1c-0.5-0.8-1.3-1-1.3-0.4c-0.1,0.6-0.7,0.1-1.4-0.1c-0.7-0.3-0.5,1.5-1.7,1.3c-1.2-0.3-1.5-0.1-1.3,0.6
		c0.1,0.8-1.7,2.7-2.7,2.6c-1-0.2-1.6-0.2-1.6,0.7c0,0.8-1.3,1.4-2,2c-0.7,0.6,0.9,1.7-0.7,3c-1.3,1.2,0.9,1.6,0.8,4.1
		c-0.4-0.3-0.8-0.5-1.1-0.5c-1,0.1-3.4-1.6-3.8-1.6c-0.5,0-0.4-1.3-0.8-1.9c-0.4-0.7-0.1-2-0.6-2.4c-0.5-0.5-2.1-2.2-2.6-4.3
		c-0.5-2.1-3.7-3.2-4.9-3.2c-1.2-0.1-1.8,2.8-2.1,2.9c-0.3,0.2-2.5-1.5-3.2-1.9c-0.6-0.4-1-1.1-1-2c0-0.9-1.4-2.3-1.8-2.5
		c-0.4-0.1-3.1-3.2-3.1-3.2h-4.3l-0.9,1.4l-7.8,0.1c0,0-6-2.6-7.1-2.9c-1.1-0.3-3.1-1.9-3.1-1.9l-6.3,1c-0.3-0.7-0.5-1.4-0.6-2
		c-0.3-1.3-1.8-3.3-2.6-3.5c-0.8-0.2-1.2,0.3-2.3-0.6c-1.2-0.8-2.2-1.6-3.4-1.6c-1.2,0,0.2-1.3-1.4-3c-1.6-1.6-2.9-2.9-2.9-3.6
		c0-0.7,0.6-2-0.4-2.5c-1-0.5-1-0.7-1.1-2c-0.1-1.3-0.7-0.5-1.4-1.8c-0.7-1.3-1.3-2.3-2.1-2.7c-0.7-0.5-0.2-2.8-0.8-4.2
		c-0.7-1.3-0.7-2.4-0.3-4.2c0.4-1.8-0.1-3.7-0.9-5.1c-0.8-1.4,0.5-3.6,0.7-4.9c0.2-1.3,0.1-5.7,0.4-7.8c0.3-2.1-0.3-3,0.6-2.9
		c0.8,0.1,0.9-0.5,0-1.1c-0.9-0.6-0.2-1.5-1.2-2.9c-1-1.5-1.3-3.4-1.4-4.2c0-0.1,0-0.2-0.1-0.3c1.7,0.2,3.1,0.4,4.3,0
		c0,0.6,0.1,1.2,0.5,1.2c0.7,0,1,1.5,0.4,2c-0.7,0.4-0.6,1.6,0.4,1.6c0.9,0,1.2-1.9,0.9-3.2c-0.3-1.3,0.4-2.2-0.5-3.3
		c-0.1-0.1-0.2-0.3-0.3-0.4l75.6-0.5c0,0,0.1-2.2,0.9-1.4c0.9,0.8,0.1,2,1.1,2.4c1.1,0.5,1.8,1.2,2.3,0.9c0.6-0.3,1.5-1.2,2.5,0.1
		c1,1.3,1.7,0.2,2.3,1c0.6,0.8,1.6,1.5,2.3,0.5c0.6-0.8,2.8,0.2,3.9,0.6c-0.4,0.4-0.9,0.7-1.4,0.6c-2.1-0.1-6.5,2.9-5.5,4.1
		c1,1.1,2.2-0.7,3.5,0.7c1.3,1.4,4.3-1.7,6.2-3c1.9-1.3-0.4,1.7,1,1.7c1.3,0,0.6,1.1,2.1,2c1.5,0.8,3.3-1.1,5.1-1.1
		c1.8,0,1.6,2.1,2.6,1.3c0.2-0.1,0.3-0.3,0.3-0.5c0.5,0.3,1,0.8,1.6,1.3c-0.2,0.1-0.3,0.2-0.3,0.4c0,0.8-3.2,0.6-5.7,1.3
		c-2.5,0.7-5.4,4.1-4.1,4.1c1.2,0-0.1,2.7-0.6,5.5c-0.7,4.1,0.2,7.3,2.1,6.1c1.8-1.3,2.4-2.4,1.9-4.6c-0.5-2.2,0.1-5.3,0.7-6.8
		c0.6-1.4,2.3-0.6,2.8-2.4c0.5-1.8,2.9-1.8,4.3,0.6c1.3,2.4-0.9,3.9-1.1,5.8c-0.3,1.8,1.5-1.1,2.9-0.6c1.4,0.5,0.3,3.7,1,4
		c-0.1,0.8-0.1,1.8,0.4,2.5c-0.6,0.5-1,0.7-1.1,0.4c-0.4-1-2.1-1.4-2.1,0.7c0,2.1,3.2,2.8,5.5,1.4c2.1-1.3,5.8-3.4,6.3-4.5
		c0.5-0.3,0.8-0.6,0.8-0.8c0-0.4,0-0.8-0.2-1.3c0.5-0.1,1.2-0.2,2.2-0.2c3-0.1,6.2-1.3,5.4-3.1c0-0.1-0.1-0.1-0.1-0.2
		c1.2-1.2,3.2-3.2,3.7-3.2c0.7,0,9.4-0.1,9.4-0.1s3-2.2,3.4-4.1c0.4-2,2.4-6.7,3.5-5.6c1.1,1,3.6,0.3,3.7,1.2
		C395.1,87.1,394.3,90.3,397.4,95z"/>
	<path class="st0" d="M276.9,75.6c-0.4,0.3-0.9,0.7-1.4,1.1c0-0.1,0-0.2,0-0.3c0.1-0.6-0.8,0.4-0.8-0.2c0-0.6,0.4-1.6-0.2-1.7
		c-0.5-0.1-0.6,1.2-0.9,0.6c-0.4-0.6-1-0.9-1-0.4c0,0.5-0.1,1.6-0.4,1.3c-0.4-0.4-1-0.9-1.1-0.5c-0.1,0.4,0.1,1.3-0.7,0.8
		c-0.8-0.6,0.2-1.5,0-2.3c-0.3-0.7-0.9-1.8-0.3-1.8c0.6-0.1,1.2,1.6,1.7,1c0.5-0.6,1-0.6,1-1.2c0-0.6-1-2.4-1.6-2.3
		c-0.6,0.1-0.7,1.2-0.1,1.3c0.6,0,1.2,0.9,0.8,1.1c-0.4,0.2-1.5-0.7-1.7-1.6c-0.2-0.8-1.1,1.2-1.3,0.3c-0.2-0.9-0.4,0.9-0.8,0.8
		c-0.4-0.1-0.5-2.1-0.2-2.4c0.3-0.3,1.1-0.1,1.1-0.6c0-0.6,0.9-0.5,0.7-1.6c-0.3-1.1-1-2.2-1.2-1.6c-0.2,0.6,0.7,1.8,0,2.2
		c-0.6,0.4-0.9,1.1-1.2,0.8c-0.3-0.4,0.3-1.4-0.3-1.7c-0.5-0.2-0.7,0.8-0.3,1.6c0.4,0.7,0.5,2.3,0.2,2.5c-0.4,0.2-0.3-1.1-0.9-1.3
		c-0.4-0.2,0.1-1.4-0.6-1.6c-0.7-0.2-1.7-1.5-1.7-2.3c0-0.7,1.5-0.9,1.4-0.4c-0.1,0.5,1.2,1.3,1.5,0.4c0.3-0.9,0.3-2.3-0.1-3
		c-0.4-0.7-1.2-1.8-0.8-0.2c0.4,1.5,0.7,2.9-0.2,2c-0.9-0.9-0.5-0.1-1.6-1c-1.1-0.9,0.3,2-1.2,1.1c-1.4-0.8-1.8-1.5-2.4-2.2
		c-0.6-0.7-1.8-1.1-2.4-1.3c-0.5-0.3-1.4-0.3-1-0.8c0.4-0.5,1.1-0.8,0.4-1.4c-0.7-0.7-1.1,1.2-2.4,0.9c-1.4-0.3-1.2-1.4-1.8-1.4
		c-0.6,0-3,0.4-4.4,0.2c-1.3-0.3-2.3-0.4-2.3-0.8c0-0.4,0-1-0.4-0.5c-0.4,0.5-0.7,0.8-1.2,0.2c-0.5-0.6-1-0.2-1.6,0.4
		c-0.6,0.6-1-0.6-0.2-0.8c0.8-0.2,1.6-0.1,0.9-0.8c-0.7-0.7-1.2,0.6-1.6-0.4c-0.4-1-1-0.3-1.5-0.6c-0.4-0.4-0.9-0.7-1.1,0.1
		c-0.2,0.8-1,0.2-0.7,1.1c0.3,1,1.4,1.1,0.9,1.4c-0.5,0.3,0.4,1,0,1.2c-0.4,0.2-1.5-0.7-2.9,0.2c-1.4,0.8-2.9,2.5-4,2.5
		c-1,0-1.6-0.5-0.8-0.8c0.8-0.3,1.5-0.9,0.7-1c-0.8-0.1-0.8-0.7-0.1-1.7c0.6-1,0-1.2,0.8-2.1c0.8-0.9,1.2-0.9,2.1-0.5
		c0.9,0.5,1.2-0.8,0-0.9c-1.2-0.1-0.6-1-1.2-0.6c-0.6,0.4-1.2,1.3-1.7,1.4c-0.6,0.1-0.4,0.7-1,1.4c-0.6,0.7-1.3,0.9-1.3,1.7
		c0,0.8-0.8,1.4-1.3,1.4c-0.5-0.1-1.8,1.3-1.7,1.7c0.1,0.4,1.6,0.4,1.6,0.9c0,0.6-0.4,1.1-1,1.2c-0.6,0.1-0.1,1.4-0.7,1.7
		c-0.6,0.3-0.8,0-1.5,0.7c-0.8,0.7-1.6,1.5-2.2,1.6c-0.6,0.1-0.3,1.1-0.8,1.2c-0.5,0.2-3.4,1.7-3.7,2.4c-0.3,0.7,0,1.1-1.2,1.4
		c-1.2,0.3-1.4,0.9-1.8,0.8c-0.4-0.1-1.1-0.2-1.5,0.2c-0.4,0.4-1.3,1.1-1.7,0.6c-0.4-0.5-0.6-0.6-0.7,0c-0.1,0.6-2.1,1.8-2.4,1.5
		c-0.4-0.5,1.1-1.3,1.5-2.5c0.4-1.2,2.9,0.1,3.1-0.4c0.3-0.4,2.2-2.9,3.4-3.1c1.2-0.2,1.7-2.3,2.5-2.5c0.7-0.2-0.3-2.3,0.7-3.7
		c0.7-1,1.3-1.8-0.1-1.1c-1.4,0.7-2.1,0.5-2.2-0.3c0-0.8-0.8,0.3-0.8,1.2c0,0.9-0.3,0.7-1.2-0.5c-0.9-1.2-2.6-1-2.8-0.3
		c-0.1,0.7-2.3,0.9-2.2,0.3c0.1-0.6-0.3-1.9,0.2-2.3c0.5-0.4-0.3-2.1-0.8-2.6c-0.5-0.6-0.1,0.9-1,1c-0.9,0.1-1.7,1.1-2.4,0.4
		c-0.6-0.7-1.6-2.5-2.5-2.7c-0.9-0.2,1-1.5,0.1-2.2c-0.9-0.7-0.7,0.4-1.8-1.4c-1.1-1.8,0.6-0.2,1-2.1c0.4-1.9,2.1-0.9,2-1.7
		c0-0.8-0.3-2.4,0.8-2.4s1.7,1.6,2.5,0.8c0.8-0.8,0.5-2,1.1-1.9c0.5,0,1.5,0.6,2.5-0.2c1-0.8,0.3-2.4-0.2-3.1
		c-0.5-0.7,1.6-0.5,0.6-1.6c-1-1.1-3,0.8-3.6,1.4c-0.5,0.7-1.2-0.3-1.8-0.3c-0.7,0-3.2,0.7-4.3,0c-1.1-0.7-0.8-1.4-1.5-1.7
		c-0.7-0.3,1.3-0.9,0.4-1.1c-0.9-0.2-3.2-0.7-2.9-1.3c0.3-0.7,1.8-1.1,2.7-1.8c0.9-0.7,1.6,0.6,1.7-0.2c0.2-0.8-0.4-0.4,1.1-1.4
		c1.5-1,2.5-0.6,2.5-0.1c0,0.5-0.8,1.7,0,1.6c0.8-0.1,2.2-0.5,2.6,0.1c0.4,0.6,0.8,0.2,1.7-0.6c0.9-0.8,2.6-0.1,2.4-0.8
		c-0.2-0.7-1.4-0.1-2.1-0.5c-0.8-0.4,0.2-1.9-0.7-2c-0.9-0.1-3.2,0.6-3.4-0.1c-0.2-0.7-1.5-3.5-3.3-4c-1.8-0.6-2.6-1.1-2.2-1.7
		c0.4-0.6-0.1-1.4,0.5-1.4c0.7,0,3.9,0.3,5.1-1.2c1.2-1.5,0.4-2,0.9-2.5c0.4-0.5,1.9-2.4,2.4-2.3c0.4,0.1,2.3,0.2,2.9-0.6
		c0.6-0.8,0.8,0.9,1.5,0.2c0.6-0.7-0.4-0.7-0.4-1.2c-0.1-0.6,1-0.8,1.9-0.7c0.8,0.1,2.2,0.2,3.2-0.8c0.9-1,1.7-1.6,2.1-1.5
		c0.4,0.2,1.7,0.4,1.6,0.9c0,0.5-1.2,0.6-0.8,1c0.4,0.4,1.2,0.3,1.6-0.3c0.3-0.6,1.1-0.8,1-0.3c0,0.5,0.2,1,1,0.9
		c0.8-0.1,3-0.8,3.5-0.1c0.4,0.8-0.2,1.3,0.6,1.2c0.8-0.1,0.7,0.9,1.3,0.7c0.6-0.3,3.3-0.9,5.1-0.4c1.9,0.5,2.8,1.7,4.3,1.4
		c1.5-0.3,2.4,0.1,3.2,0.5c0.7,0.4,2.8,0.1,3.8-0.2c1-0.3,2.9,0.8,4.2,1.3c0.2,0.1,0.6,0.2,0.9,0.2v35.7c0,0,0.8,0.7,1.1,0.3
		c0.3-0.4,0.8,0.1,1.8-0.4c1-0.5,1.4,0.6,1.4,1.2c0,0.5,1.4,1.4,2,2.3c0.6,0.9,0.9,1.7,1.5,1.2c0.7-0.5,1.8-0.8,1.8-1.7
		c0-0.9,2.7-1,2.7,0.1c0,1.2,2.8,2.5,4.3,5.7c1.5,3.2,1.3,3.9,3.6,4.9c2.3,1,2.2,1.6,1.9,2.5C276.2,74.4,277.9,74.9,276.9,75.6z"/>
</g>
<g>
	<path d="M51.5,232.8H41.1v-14h10.4v2.6h-7.6v3.1h7.2v2.6h-7.2v3.2h7.7V232.8z"/>
	<path d="M63.3,228.7c0,3.1-2.2,4.4-4.6,4.4c-2.4,0-4.6-1.3-4.6-4.4v-5.6h2.6v5.3c0,1.5,0.8,2.2,2,2.2c1.1,0,2-0.6,2-2.2v-5.3h2.6
		V228.7z"/>
	<path d="M72.6,223.1l-0.4,2.6c-0.4-0.2-1-0.3-1.6-0.3c-1.2,0-2,0.7-2,2.2v5.3h-2.6v-9.7h2.5v1.1c0.6-0.9,1.5-1.3,2.7-1.3
		C71.8,222.9,72.2,222.9,72.6,223.1z"/>
	<path d="M83.9,227.9c0,2.9-2.2,5.1-5.2,5.1c-3,0-5.2-2.2-5.2-5.1c0-2.9,2.2-5.1,5.2-5.1C81.7,222.9,83.9,225,83.9,227.9z
		 M76.1,227.9c0,1.6,1.1,2.7,2.6,2.7s2.6-1.1,2.6-2.7c0-1.6-1.1-2.7-2.6-2.7S76.1,226.4,76.1,227.9z"/>
	<path d="M96.2,227.9c0,2.9-2,5.1-4.7,5.1c-1.3,0-2.2-0.5-2.8-1.3v5H86v-13.7h2.5v1.1c0.6-0.8,1.6-1.3,2.9-1.3
		C94.1,222.9,96.2,225,96.2,227.9z M88.5,227.9c0,1.5,1,2.7,2.5,2.7c1.5,0,2.5-1.2,2.5-2.7c0-1.5-1-2.7-2.5-2.7
		C89.5,225.3,88.5,226.4,88.5,227.9z"/>
	<path d="M107.3,227.9c0,0.3,0,0.7-0.1,0.9h-6.9c0.3,1.4,1.3,2,2.5,2c0.8,0,1.7-0.3,2.4-0.9l1.5,1.7c-1.1,1-2.5,1.5-4.1,1.5
		c-3,0-5-2-5-5.1c0-3,2-5.1,4.9-5.1C105.4,222.9,107.3,224.9,107.3,227.9z M100.4,227h4.3c-0.2-1.2-1-1.9-2.1-1.9
		C101.3,225.1,100.6,225.8,100.4,227z"/>
</g>
<g>
	<path class="st1" d="M66.4,149.9c-0.6,0.9-1.3,1-1.2,1.2c0.1,0.2,1,1,0.8,1.3c-0.2,0.4-0.5,0.1-0.5,0.8c0,0.7-1,0.7-1.3,0.7
		c-0.4,0,0.1,0.7-0.1,1.2c-0.2,0.5-0.2,1.5-0.3,2c-0.1,0.4,0.7,1.2,0.6,1.5c-0.1,0.4-0.6,0.7-0.5,1c0.1,0.3,0.6,0.7,0.7,2.1
		c0.2,0.1,0.4,0.2,0.5,0.3c0.3,0.4,0.8,0.8,1.5,0.8c0.7,0,0.9,0.5,1.3,0.4c0.3-0.1,1.2,0.2,0.5,0.8c-0.7,0.6-0.8,1.3-1,2
		c-0.1,0.5-0.1,1.1-0.2,1.5c0.7,0.1,1.6,0.1,2-0.1c0.6-0.3,0.9-0.3,1.6-0.1c0.4,0.1,1,0.4,1.4,0.6c0-0.1,0.1-0.3,0.3-0.3
		c0.5-0.1,1,0.9,1.4,0.4c0.3-0.6,1-0.4,1.4-0.2c0.4,0.2,0.9,0.3,1.4-0.1c0.4-0.4,2-0.7,2.4-0.5c0.4,0.2,1.3,0.6,0.9-0.7
		c-0.4-1.3,0.8-1,0.9-1.5c0.2-0.5,1.5-0.7,1.3-1.1c-0.2-0.4-1.9-1.5-2.5-1.9c-0.5-0.4-0.5-1.6-0.8-2.1c-0.3-0.5-0.8-1.2-0.2-1.3
		c0.7-0.2,1.9-0.4,2.4-1c0.6-0.6,1.6-0.6,1.9-0.9c0.3-0.3,1,0.3,1.3-0.1c0.2-0.3,0.4-1,0-1.4c-0.3-0.4-0.5-1-0.6-2
		c-0.1-0.9-0.3-0.9-0.3-1.3c0-0.4-0.2-1-0.5-1.2c-0.4-0.2-0.5-0.4-0.2-1c0.4-0.6,0.2-2.1,0.1-2.6c0-0.1,0-0.2,0-0.3
		c-0.1,0-0.2-0.1-0.2-0.3c-0.1-0.6-0.5-0.8-1.4-0.8c-0.9,0,0.6-0.9,0.2-1.4c-0.3-0.5-1.3,0.9-2.1,0.6c-0.8-0.3-1.9,1-2.6,1.6
		c-0.7,0.6-1.8-0.1-1.2-1c0.6-0.8,0-0.8-0.8-0.4c-0.8,0.3-1.9-0.1-1.8-0.9c0-0.2,0-0.4-0.1-0.6c-0.4,0.1-0.7,0.1-0.9,0
		c-0.4-0.1-1.2-0.2-2.2-0.2c0.3,0.4,0.6,0.8,0.4,1.2c-0.3,0.6,0.2,1.2,0.6,2.1c0.4,0.9-1,0.4-1,1c0,0.6-1.3,0-1.7-0.3
		c-0.4-0.2-1.8-0.1-1.8,0.3c0,0.1,0,0.4-0.1,0.5C66.5,148.9,66.6,149.6,66.4,149.9z"/>
	<path class="st1" d="M83,147c0.2,0.4,0.3,2-0.1,2.6c-0.4,0.6-0.2,0.8,0.2,1c0.4,0.2,0.5,0.8,0.5,1.2c0,0.4,0.3,0.4,0.3,1.3
		c0,0.9,0.3,1.6,0.6,2c0.2,0.3,0.2,0.8,0.1,1.1c0.4,0.3,0.9,0.7,1.4,0.8c1.1,0.4,1.5,0.7,1.6,1.1c0.1,0.4,1,1.2,1.2,0.6
		c0.2-0.6,0.9-0.2,1.3-0.2c0.5,0,0.5,0.6,0.6,0.9c0.1,0.3,1.2,0.2,1.6,0.4c0.4,0.2,0.5,1.1,1.1,1.5c0.5,0.3,1-0.4,1.4-0.2
		c0.4,0.2,1.4,0.5,2,0.2c0.6-0.2,1,0.2,1.8,0.2c0.8-0.1,1.8,0.2,2,0.5c0.1,0.1,0.8,0.3,1.4,0.4c0.2-0.3-0.1-1.4-0.1-1.6
		c0.1-0.3,1.9-2,2.2-2.4c0.3-0.4,0.8-0.4,1-0.9c0.3-0.5-0.7-2.1-0.9-2.4c-0.2-0.3-0.3-1.6-0.2-2.2c0.2-0.5-0.8-0.9-0.8-1.3
		c0-0.4,0.9-1,1.4-1.3c0.5-0.2,0.3-1.8-0.1-2.1c-0.4-0.4-0.6-1.1-0.4-1.9c0.3-0.8-1.6-1.4-1.8-1.4c0,0-0.1,0-0.1-0.1
		c-1.6,0.3-5.8-0.1-6.1-0.3c-0.2-0.1-0.7-0.3-1.2-0.5c-0.2,0.4-0.6,0.7-1.3,0.7c-1,0-1.1-1.1-1.1-1.5c0-0.5-4.1,0.4-5.2,1.5
		c-1.1,1.1-3.6,0.7-3.7,1.3c0,0.4-0.4,0.7-0.7,0.6C83,146.9,83,146.9,83,147z"/>
	<path class="st1" d="M89,180c0.1-0.4-1.9-1.6-1.9-2.5c0-0.8-1-1.1-1.1-1.7c-0.1-0.5,0.6-1,1-0.7c0.5,0.4,1-0.6,1.5-0.3
		c0.5,0.2,3.6,0.4,3.6,0.4s1,0.3,2.1,1.1c0-0.2-0.1-0.4-0.1-0.5c-0.3-0.7,0-1.5-0.7-1.8c-0.4-0.1-0.5-0.9-0.6-1.5
		c-0.4,0.1-0.6,0.2-0.8,0.2c-0.6,0.2-1.9,0.1-2.4-0.6c-0.4-0.5-1.4-1.2-2-1.5c-0.2,0.2-1,0.9-1.4,1c-0.4,0.1-0.2,1.2-0.6,1.2
		c-0.4,0-0.7,0.8-0.8,1.1c-0.1,0.3-1-0.2-1.5-0.1c-0.3,0.1-1.2,0.3-1.6,0.3c0.1,0.5,0,1.1,0.4,1.1c0.6,0,1.8-0.1,1.8,0.8
		c0,0.9,1.5,2.8,2.1,3.5c0.6,0.7,1.8,0.5,1.9,1.1c0.1,0.5,1,1.1,2,1.1c0.3,0,0.6,0.2,1,0.4C90.2,181.1,89,180.3,89,180z"/>
	<path class="st1" d="M86.8,163.4c-0.6-0.7-2.2-0.7-2.2-0.7s-0.2,0.7-0.4,1.1c-0.2,0.3-1.3,0.3-2.1,0.1c-0.2,0.3-1.1,0.5-1.3,0.9
		c-0.2,0.5-1.3,0.2-0.9,1.5c0.4,1.3-0.6,0.9-0.9,0.7c-0.4-0.2-2,0.1-2.4,0.5c-0.4,0.4-1,0.3-1.4,0.1c-0.4-0.2-1.1-0.3-1.4,0.2
		c-0.3,0.5-0.9-0.4-1.4-0.4c-0.5,0.1-0.3,1.1-0.3,1.3s0.7,0.9,1.2,0.7c0.5-0.2,1.1,0.1,1.5,0.3c0.4,0.3,1.2-0.2,1.5-0.5
		c0.3-0.3,1.7-0.3,1.9-0.3c0.2,0,0.2,0.9,0.5,1c0.3,0.2,1.3,0.3,2.1,0.3c0.9,0.1,2.2,0.5,2.6,0.5c0.4,0,1.1-0.8,2-0.8
		c0.9,0,1.5-0.6,1.6-0.5l0,0c0.1-0.3,0.2-0.6,0.4-0.6c0.4-0.1,0.1-0.8,0.4-1.1c0.3-0.3-0.2-1,0.3-1c0.5,0.1,1,0.1,1-0.6
		c0-0.3,0.1-0.5,0.3-0.7c-0.5-0.8-0.9-2.1-0.9-2.1S87.4,164.2,86.8,163.4z"/>
	<path class="st1" d="M101.9,165.5c-0.2-0.1-0.4-0.2-0.6-0.4c-0.6-0.2-1.3-0.4-1.5-0.6c-0.4-0.4-1.9-0.7-2.2-0.7
		c-0.2-0.1-1.7,1.5-2.2,1.5c-0.5,0-2.5,0.2-2.5,0.8c0,0.6-2.5,0.7-3.2,0c-0.1-0.1-0.2-0.2-0.3-0.4c-0.2,0.2-0.3,0.4-0.3,0.7
		c0,0.7-0.5,0.7-1,0.6c-0.5-0.1,0,0.6-0.3,1c-0.3,0.3,0,1-0.4,1.1c-0.2,0-0.3,0.3-0.4,0.6c0.2,0.1,0.6,0.9,0.6,0.9s0,0-0.1,0
		c0.5,0.3,1.6,1.1,2,1.5c0.5,0.7,1.8,0.7,2.4,0.6c0.6-0.2,3.3-1.1,3.3-1.1s0.6,0.2,1,0.3c0.1,0,0.3,0.1,0.7,0.1
		c0.2-0.2,0.8-0.4,1.4-1c0.7-0.8,1.8-3.5,2.1-3.7c0.3-0.2,1.1-0.7,1.6-1C102.5,166,102.4,165.7,101.9,165.5z"/>
	<path class="st1" d="M92.3,159.8c-0.4-0.2-1.5-0.1-1.6-0.4c-0.1-0.3-0.1-0.9-0.6-0.9c-0.5,0-1.1-0.3-1.3,0.2
		c-0.2,0.6-1.2-0.2-1.2-0.6c-0.1-0.4-0.5-0.7-1.6-1.1c-0.4-0.2-0.9-0.5-1.4-0.8c0,0.1-0.1,0.2-0.1,0.3c-0.2,0.3-1-0.3-1.3,0.1
		c-0.3,0.3-1.4,0.4-1.9,0.9c-0.6,0.5-1.8,0.8-2.4,1c-0.7,0.2-0.1,0.8,0.2,1.3c0.3,0.5,0.3,1.7,0.8,2.1c0.5,0.4,2.2,1.5,2.5,1.9
		c0,0.1,0,0.1,0,0.2c0.7,0.2,1.9,0.2,2.1-0.1c0.2-0.4,0.4-1.1,0.4-1.1s1.6,0,2.2,0.7c0.6,0.7,1.8,0.2,1.8,0.2s0.1,0.2,0.2,0.5
		c0.2-0.4,0.4-0.8,0.7-0.8c0.7-0.1,1.6-0.2,2.2-1.2c0.3-0.5,0.9-0.9,1.4-1.2C92.7,160.6,92.6,160,92.3,159.8z"/>
	<path class="st1" d="M98.6,161.6c-0.8,0.1-1.2-0.4-1.8-0.2c-0.6,0.2-1.6,0-2-0.2c-0.4-0.2-0.9,0.5-1.4,0.2
		c-0.1-0.1-0.2-0.2-0.3-0.3c-0.5,0.3-1,0.7-1.4,1.2c-0.6,1-1.6,1.1-2.2,1.2c-0.3,0-0.5,0.4-0.7,0.8c0.2,0.6,0.6,1.5,1.1,2
		c0.7,0.7,3.2,0.6,3.2,0c0-0.6,2-0.8,2.5-0.8c0.5,0,2-1.6,2.2-1.5c0.2,0.1,1.8,0.3,2.2,0.7c0.2,0.2,0.8,0.4,1.5,0.6
		c-0.3-0.2-0.5-0.6-0.5-0.8c0-0.4,0.8-1.6,1-1.8c0,0,0,0,0-0.1c-0.6-0.1-1.3-0.2-1.4-0.4C100.4,161.8,99.3,161.5,98.6,161.6z"/>
	<path class="st1" d="M32.6,196.7c0.9-0.2-0.2-1-0.5-1.2c-0.3-0.3,0.1-1.3,0.6-1.3c0.5,0,0-0.6-0.7-1.3c-0.7-0.7,0-1,0.6-1
		c0.6,0-0.2-1.1,0.4-1.7c0.6-0.6-0.2-1.8-0.2-2.3c0-0.5,0.9-0.7,1.5-1.4c0.7-0.7-0.6-0.4-0.6-1c0-0.5-0.8-0.7-1.4-0.3
		c-0.6,0.4-0.4,0-0.9,0c-0.5,0-1.4,0.2-1.4-0.4c0-0.5-0.4-0.6-0.9-0.1c-0.1,0.2-0.3,0.2-0.6,0.3c-0.1,0.7-0.1,1.4,0.1,1.7
		c0.5,0.8-0.6,4.8-1.5,5.9c-0.9,1.1,0,1.4,0.9,2.2c0.9,0.8,0.3,3.6,0.3,4.2c0,0.7,0.8,0.5,1.8,0.5c0.6,0,1.2-0.3,1.9-0.4
		c-0.2-0.3-0.3-0.6-0.3-0.8C31.6,197.7,31.6,196.9,32.6,196.7z"/>
	<path class="st1" d="M60,155c0.4-0.4,1.2-0.2,1.6,0.2c0.4,0.5,1.1,0.6,1.7,1.2c0.2,0.2,0.3,0.3,0.5,0.5c0.1-0.5,0.1-1.4,0.3-1.9
		c0.2-0.5-0.2-1.2,0.1-1.2c0.3,0,1.3,0,1.3-0.7c0-0.7,0.3-0.4,0.5-0.8c0.2-0.4-0.6-1.1-0.8-1.3c-0.1-0.2,0.6-0.3,1.2-1.2
		c0.2-0.3,0.1-1-0.1-1.7c-0.1,0.3-0.3,0.4-0.6,0.3c-0.5-0.3-1.3-0.1-2.4,0.1c-1,0.2-1.4,1.3-1,1.7c0.4,0.4-1,0.7-1.1,0.1
		c-0.1-0.6-1.1-0.2-1.1,0.6c0.1,0.8-1.2,1.1-1.1,2c0.1,1-1.1,1.8-1.9,2.3c-0.1,0.1-0.2,0.2-0.4,0.2c0.4,0.2,0.7,0.3,0.8,0.3
		C58.4,155.8,59.5,155.4,60,155z"/>
	<path class="st1" d="M55.6,156.5c0,0.4,0.6,1.3,0.8,0.9c0.2-0.4,0.7,0.5,1.2,0.8c0.5,0.3,1.4,0.6,1.5,0.9c0.1,0.3,0.2,1,0.7,0.8
		c0.5-0.2,1-1,1-0.5c0,0.4,0.2,1.3,0.7,1.2c0.5-0.1,0.7,0.9,1.2,0.8c0.1,0,0.2,0,0.4,0c-0.1-1.2,0.4-1.8,0.8-2.1
		c0.1-0.2,0.4-0.4,0.5-0.7c0.1-0.4-0.7-1.1-0.6-1.5c0,0,0-0.1,0-0.1c-0.2-0.1-0.4-0.3-0.5-0.5c-0.6-0.7-1.3-0.8-1.7-1.2
		c-0.4-0.4-1.2-0.7-1.6-0.2c-0.4,0.5-1.6,0.8-2.2,0.8c-0.1,0-0.5-0.1-0.8-0.3c-0.5,0.3-1,0.6-1.6,0.7
		C55.4,156.3,55.6,156.2,55.6,156.5z"/>
	<path class="st1" d="M116,174.6c-0.5-0.1-1.1-0.3-0.9-0.6c0,0,0-0.1,0.1-0.1c-0.6-0.6-0.8-2.4-0.4-2.8c0.5-0.6-0.8-2.7-1.5-3.5
		c-0.3-0.4-0.9-1.6-1.6-2.8c-0.6,0.2-1,0.4-1.1,0.6c-0.2,0.4-0.9,0.7-1.3,0.7c-0.4,0-0.8-0.2-1.2,0.1c-0.3,0.4-0.8,0.5-1,0.3
		c-0.2-0.2-0.9-0.4-1.4-0.4c-0.5,0-2-0.4-2.4-0.4c-0.2,0-0.5,0-0.9,0.1c0.1,0.2,0,0.3-0.2,0.5c-0.4,0.3-1.3,0.8-1.6,1
		c-0.3,0.2-1.4,3-2.1,3.7c-0.7,0.8-1.4,0.9-1.5,1.2c0,0.3,0.8,1,0.8,1.4c0,0.4,0.2,0.9,0.8,0.9c0.6,0-0.1,1.4,0.3,1.5
		c0.4,0.1,2.6,0.3,2.6,0.8c0,0.4,0.2,0.8,0.1,1.1c0.6,0.1,1.1,1,1.3,1c0.3-0.1,2.2,0.4,2.5,0.3c0.3-0.1,2,0,2.5,0.1
		c0.6,0.1,1.2-0.2,1.7-0.7c0.5-0.5,2.2-0.6,2.8-0.5c0.6,0.1,1.7,0.2,1.9,0.6c0.1,0.2,0.8,0.5,1.4,0.7c0.1-0.4,0-0.8,0-1.3
		c0-0.8,0.4-1.9,1.2-2c0.7-0.1,1.3-0.1,1.2-1.4c0,0,0-0.1,0-0.1c-0.4-0.3-0.7-0.6-0.8-0.6C117,174,116.2,174.6,116,174.6z"/>
	<path class="st1" d="M112.4,178.1c-0.6-0.1-2.3,0-2.8,0.5c-0.5,0.5-1.1,0.8-1.7,0.7c-0.6-0.1-2.2-0.1-2.5-0.1
		c-0.3,0.1-2.2-0.4-2.5-0.3c-0.2,0.1-0.7-0.8-1.3-1c0,0.1-0.1,0.2-0.2,0.2c-0.5,0.3-0.5,1.2,0,1.7c0.5,0.5,1.2,1.6,0.7,1.6
		c-0.5,0-0.8,0.7-0.8,1c0,0.3-0.2,1,0,1.2c0.2,0.2,1.3,1.3,1.3,1.6c0,0.3,0.5,0.4,0.5,0.7c0.9-0.1,2.7-0.2,3.2,0
		c0.5,0.3,2.5,0.4,2.5,0.4c0.6,0,1.1-0.2,0.9-0.6c-0.1-0.3,0.6-0.5,1.1-0.6c-0.1-0.3-0.2-0.6,0-0.7c0.3-0.1,1.8-0.3,2.4,0
		c0.3,0.2,0.7,0,1-0.2c-0.1-0.3-0.2-0.6-0.3-0.6c-0.4-0.1-1-1.8-0.5-1.9c0.5-0.1,1.1-1.9,1.9-2.1c0.3-0.1,0.4-0.3,0.5-0.5
		c-0.7-0.2-1.3-0.5-1.4-0.7C114.1,178.3,113,178.2,112.4,178.1z"/>
	<path class="st1" d="M103.5,137.8c0.6,0,2.1,0.3,3,0c0.9-0.3,0.9,0.7,1.4,0.6c0.5-0.1,1.6,0.7,2.2,1.2c0.3,0.3,0.7,0.5,1.2,0.8
		c0.1-0.2,0.2-0.4,0.5-0.5c0.6-0.4,1.1-0.2,1.6-0.2c0.5,0,0.6-0.6,0.9-0.9c0.2-0.2,0.5-0.3,0.7-0.3c-0.2-0.4-0.2-1.2-0.5-1.5
		c-0.4-0.4-0.9-1-0.7-1.4c0.2-0.4,0.2-0.9-0.3-1.4c-0.2-0.2-0.3-0.4-0.4-0.6c-0.8-0.1-2-0.2-2.3-0.2c-0.4,0.1-2.1-1.2-2.4-1.5
		c-0.2-0.1-1.4-0.1-2.5,0c-0.6,0.7-0.2,1.3-0.2,2.5c0,1.2-1.3,1-1.9,1c-0.7,0-1.7-2.1-2.1-2.6c-0.3-0.5-1.5,0.6-2.3,1.1
		c-0.8,0.5-0.4,1.5-0.9,2c-0.6,0.5-0.9,1.3-0.4,2.3c0,0,0,0.1,0.1,0.1c0.7-0.1,1.4-0.2,1.9-0.5C100.9,137.3,102.9,137.8,103.5,137.8
		z"/>
	<path class="st1" d="M99.6,141.9c0.3,0.4,1.1,0.7,1.4,0.5c0.3-0.2,1.3,0.4,1.3,0.8c0,0.4-0.3,1.8,0,1.8c0.2,0,1.7,0.5,1.8,1.2
		c0.7,0,1.4,0.1,1.7,0.1c0.6,0.1,0.9-0.2,1.2-0.6c0.3-0.4,1.2-0.5,1.5-0.5c0.3,0,0.3-0.8,0.4-1.2c0.1-0.4,0.8-1,1.2-1.2
		c0.4-0.1,0.4-0.7,0.8-0.7c0.4,0,0.3-0.6,0.3-1c0-0.2,0-0.5,0.2-0.8c-0.5-0.3-0.9-0.5-1.2-0.8c-0.6-0.6-1.7-1.3-2.2-1.2
		c-0.5,0.1-0.5-0.9-1.4-0.6c-0.8,0.3-2.3,0-3,0c-0.6,0-2.7-0.6-3.4,0c-0.4,0.3-1.2,0.5-1.9,0.5c0.5,1,0.3,2.1-0.2,2.7
		c-0.4,0.5-0.2,0.5,0.1,0.7C98.7,141.7,99.4,141.6,99.6,141.9z"/>
	<path class="st1" d="M119.2,118c0.6-1.3,3.1-2.3,3.5-3.5c0.2-0.6,0.3-0.9-0.6-2c-0.9-1.1-2.9-1.8-3-2.4c-0.1-0.6,1.5-0.7,1.5-1.4
		c-0.1-0.7-0.9-0.7-1.3-1.3c-0.4-0.6,0.4-1,0.3-1.2c-0.1-0.3-1.1-0.4-1.2-0.8c-0.1-0.4,0.7-0.3,0.6-0.7c-0.1-0.4-0.8-1.2-0.4-1.9
		c0.5-0.7,1.5,0,0.8-1.5c-0.8-1.5-1.9-3.3-2.2-3.7c-0.3-0.4,0.3-1.2,0.7-1.5c0.4-0.3,1.5-1.4,1.5-1.8c0-0.4-1.3-1.6-1.7-1.8
		c-0.3-0.2-1.1-0.1-1.5-0.9c-0.3-0.7-0.7-0.9-0.3-1.4c0.3-0.4,0.3-0.9,0.3-1.3c0-0.4,0.8-0.1,0.9-0.7c0.1-0.3,0.3-0.6,0.5-0.9
		c0-0.5,0.1-1,0-1.4c-0.1-0.7-2-0.9-2.5-1.8c-0.4-0.8-1.6-0.5-1.9,0c-0.3,0.5-2.4-0.1-2.4,0.6c0,0.7-1.5,0.8-1.5,1.7
		c0,0.8,0.7,2.2-0.4,2.1c-1.1-0.1-0.3,0.5-1,1.4c-0.7,0.9-0.7-0.6-1.3-0.4c-0.7,0.2-1.5-0.7-1.8-0.1c-0.3,0.6-1.5,0.1-2.6-0.1
		c-1.1-0.2-1.7-1.9-2.6-2c-0.6-0.1-1.2,0.4-1.6,1.2c0.9,0.6,1.4,1.4,2.6,2c1.2,0.6,3.5,1.3,3.4,2.1c-0.1,0.8-0.4,2,0.1,2.4
		c0.6,0.4-0.1,1.9,0.6,2.2c0.7,0.4,0.5,2.1-0.1,2.1c-0.6,0,0.1,0.9,0.5,1.3c0.2,0.2,0.3,0.6,0.3,1.2c0.7,0.2,1.3,0.5,1.9,0.8
		c0.9,0.4,0.8,1.1,0.8,1.9c0,0.8,0.1,1.2-0.4,0.9c-0.5-0.3-1,0-1.3,1.1c-0.3,1.1-1.6,2.4-2.4,2.5c-0.8,0.1-0.7,1-1.4,1.1
		c-0.7,0.2-1.3,0.6-1.3,1.4c0,0.8-1,0.8-1.6,0.8c-0.7,0-0.5,1.3-1,1.6c-0.5,0.3-0.4,0.8,0.1,1.4c0.5,0.7,0.1,1.3,0.2,1.7
		c0.2,0.5,0.9,1.6,0.4,2.8c-0.5,1.2-1.1,2.7-0.6,2.6c0.5-0.1,1.5,1,2.2,0.9c0.7-0.1,0.8,1,1.4,0.8c0.7-0.2,0.7,0.7,2.6,0.6
		c1.9-0.1,5.8-1.8,7.3-1.8c0.9,0,1.6-0.1,2.1-0.3c0.3-0.5,0.7-1.1,1.1-1.5C116.5,120.1,118.6,119.3,119.2,118z"/>
	<path class="st1" d="M68.4,163.9c-0.7,0.6-0.8,1.3-1,2c-0.1,0.7,0,1.9-0.5,1.9c-0.5,0-1.1,0.5-1.2,1c-0.1,0.6-1.2,1-1.5,2
		c-0.3,1-0.1,1.4,0.3,0.8c0.5-0.6,1-0.4,1,0.1c0,0.5,0.6,0.5,0.4,1.2c-0.2,0.7,0,1,0.3,1.2c0.3,0.2-0.2,0.8-0.5,1
		c-0.3,0.2-0.8,0-0.5,0.6c0.4,0.6,1,0.7,0.7,1.3c-0.4,0.6,0,1.2,0.5,1.2c0.5,0,1.3-0.1,1.1,0.4c-0.1,0.3-0.2,0.5-0.3,0.8
		c-0.4,0.1-0.9,0.4-1.5,1c-1.1,1.3-2.1,1.4-2.7,1c-0.7-0.4-3.2-1.2-4.3-1c-1.2,0.2-2.4,1-2,2.5c0.1,0.2,0.1,0.4,0.1,0.6
		c-0.8,0-1.8,0.1-2.4-0.1c-0.8-0.2-2.4-0.3-2.8-0.7c-0.4-0.4-1.1-0.8-1.1-0.3c0,0.5-1.2,0.6-1.9,0.2c-0.7-0.4-1.8-0.8-2.3-1.2
		c-0.3-0.2-0.8-0.4-1.3-0.7c0,0,0.1,0,0.1,0c0.6-0.3,1.3-3.5,1.1-4.5c-0.2-1,0.7-2.2,0.3-3c-0.3-0.8,0.5-1.6-0.6-1.9
		c-1.2-0.3-1.8-1.2-1.9-2.1c0-0.9-0.2-0.6-0.8-1.1c-0.6-0.5-0.9,0.1-2.1-0.6c-1.2-0.7-2.8-0.6-3.1-1.1c-0.3-0.5,0.2-1-0.3-1.5
		c-0.5-0.6,0.2-1.3,1.5-1.2c1.2,0.1,1.5-0.5,2.3-0.3c0.8,0.3,0.8,1.2,1.4,0.7c0.6-0.5,1.6,0.5,2.1,0.1c0.4-0.4,0.5-1.7-0.3-2.6
		c-0.8-0.9,1.1-1.8,1.4-0.9c0.3,0.8,2.4,1.5,3,1.1c0.6-0.5,0.1-1.6,1.5-1.8c1.4-0.1,2.6-0.3,2.4-1.7c-0.1-1.5,0.6-2.2,1.4-2.1
		c0.2,0,0.4,0,0.5-0.1c0.1,0.2,0.3,0.1,0.3,0.3c0,0.4,0.6,1.3,0.8,0.9c0.2-0.4,0.7,0.5,1.2,0.8c0.5,0.3,1.4,0.6,1.5,0.9
		c0.1,0.3,0.2,1,0.7,0.8c0.5-0.2,1-1,1-0.5c0,0.4,0.2,1.3,0.7,1.2c0.5-0.1,0.7,0.9,1.2,0.8c0.5-0.1,2.1,0,2.5,0.4
		c0.3,0.4,0.8,0.8,1.5,0.8c0.7,0,0.9,0.5,1.3,0.4C68.3,163,69.1,163.3,68.4,163.9z"/>
	<path class="st1" d="M71.2,186.3c-1,0.1-1.9-2.7-1-3.3c1-0.6,1.1-1.4,1.5-1.3C72.1,181.7,72.2,186.2,71.2,186.3z"/>
	<path class="st1" d="M56.1,185.6c-1,0.4-1.4,1.3-2.6,1.4c-1.2,0.1-2.2,0.4-2.2,1.2c0,0.8-1,0.9-1.9,2.4c-0.9,1.5,0.1,3.2,0,3.6
		c-0.1,0.4-1.7,1.3-1.7,1.9c-0.1,0.6,0.1,1.6-0.9,1.8c-0.9,0.1-1.6,0.7-1.9,1.3c-0.2,0.6-0.9,0.9-1.7,0.9c-0.8,0-1.7,0.1-3,0.1
		c-1.3,0-1.6,0.9-2.2,0.9c-0.6,0-1.1-0.2-1.4,0.1c-0.3,0.3,0,0.7-0.6,0.8c-1.3,0.2-1.9-2.4-2.9-2.9c-0.4-0.2-0.8-0.2-1.3-0.1
		c-0.2-0.3-0.3-0.6-0.3-0.8c0-0.5,0-1.3,0.9-1.5c0.9-0.2-0.2-1-0.5-1.2c-0.3-0.3,0.1-1.3,0.6-1.3c0.5,0,0-0.6-0.7-1.3
		c-0.7-0.7,0-1,0.6-1c0.6,0-0.2-1.1,0.4-1.7c0.6-0.6-0.2-1.8-0.2-2.3c0-0.5,0.9-0.7,1.5-1.4c0.7-0.7-0.6-0.4-0.6-1
		c0-0.5-0.8-0.7-1.4-0.3c-0.6,0.4-0.4,0-0.9,0c-0.5,0-1.4,0.2-1.4-0.4c0-0.5-0.4-0.6-0.9-0.1c-0.1,0.2-0.3,0.2-0.6,0.3
		c0.1-0.9,0.1-1.9-0.4-2.4c-1-0.8-0.9-1.8,0.5-1.8c1.4,0,1-1.3,2-1.3c1,0,1.1,0.9,2.9,0.8c1.8-0.1,6.3,0.3,7.8,0.1
		c1.3-0.2,3.4,0.6,4.1,0.5c0.5,0.3,1.1,0.5,1.3,0.7c0.5,0.4,1.6,0.7,2.3,1.2c0.7,0.4,1.9,0.4,1.9-0.2c0-0.5,0.7-0.2,1.1,0.3
		c0.4,0.4,2,0.5,2.8,0.7c0.6,0.1,1.6,0,2.4,0.1C57.2,184.5,56.9,185.2,56.1,185.6z"/>
	<path class="st1" d="M55.2,192.2c-0.5-0.4,1.9-2,2.1-0.7C57.4,192.7,56.2,193,55.2,192.2z"/>
	<path class="st1" d="M79.8,173.7c0.6-0.2,1.2-0.3,1.5-0.2c0.3,0.1,0.4,0.4,0.4,0.7c0.5-0.1,1.4-0.2,1.6-0.3
		c0.4-0.2,1.4,0.4,1.5,0.1c0.1-0.3,0.4-1.1,0.8-1.1c0.4,0,0.2-1.2,0.6-1.2c0.4-0.1,1.5-1,1.5-1s-0.4-0.9-0.6-0.9
		c-0.2,0-0.7,0.5-1.6,0.5c-0.9,0-1.6,0.8-2,0.8c-0.4,0-1.7-0.4-2.6-0.5c-0.3,0-0.6,0-0.9-0.1C79.8,171.3,79.7,172.5,79.8,173.7z"/>
	<path class="st1" d="M34.1,146.2c-0.3-0.2-0.6-0.5-0.8-0.7c-0.9-1.1-1.3-0.2-1.4,0.4c-0.1,0.7-0.9-0.2-1.5-0.3
		c-0.5-0.1,0.2-1.2,0.5-1.4c0.2-0.2,0.5-0.7,0.6-1.4c-0.1,0-0.2,0-0.3-0.1c-1-0.4-2.3-0.4-2.4,0.5c0,0.9,1.1,0.6,1.1,1.2
		c0,0.6-1.1,0.4-1.9,1c-0.8,0.6-1.7-0.4-2.5,0c-0.8,0.4,0.9,1,0.3,1.9c-0.6,0.9,0,0.9,1.1,1.8c1,0.9-0.6,1.1-0.6,2.1
		c0,1-1.3,1-1.6,1.6c-0.3,0.7,1.1,2,2.3,2c0.9,0,2.9-0.6,4.1-1.8c1.2-1.2,1.8,0,2.9-0.6c1.1-0.6,0.4-4.9,0-5.8
		C34,146.4,34,146.3,34.1,146.2z"/>
	<path class="st1" d="M35.9,145c-0.6,0.6-1.7,0.7-1.8,1.2c-0.3-0.2-0.6-0.5-0.8-0.7c-0.9-1.1-1.3-0.2-1.4,0.4
		c-0.1,0.7-0.9-0.2-1.5-0.3c-0.5-0.1,0.2-1.2,0.5-1.4c0.2-0.2,0.5-0.7,0.6-1.4c0.9,0,2.1-1.4,2.9-0.5
		C35.5,143.2,36.6,144.3,35.9,145z"/>
	<path class="st1" d="M51.7,153.7c-0.7,0.7-0.9,1.6-0.2,1.5c0.7-0.1,1.5,0,1,0.5c-0.5,0.5-2.5,1.5-3.3,1.4c-0.8,0-2.3,0.3-2.7,0.5
		c-0.3,0.3-1.5-0.8-1.9-0.5c-0.4,0.4-1,0.7-1.8,0.5c-0.8-0.1-1.3,0.4-1.7,0.3c-0.5-0.1-0.5,1.2-1,1.1c-0.6-0.1-0.7-0.8-1.7-0.4
		c-1,0.4-1.4,1.4-1.7,1c-0.5-0.7,2.3-3.5,3-3.9c0.7-0.4,1.9,0.3,2.6-0.4c0.8-0.6,0.8-1-0.2-0.6c-1,0.4-1.6-0.4-2.5-0.4
		c-0.9,0-0.8-0.8-1.4-0.3c-0.6,0.5-2.2-0.6-0.9-1c1.3-0.4,2.3-1.1,2.3-1.7c0-0.6-1.3-0.5-1.4-1c-0.1-0.5,0.9-1,0.7-1.5
		c-0.2-0.5,0.7-0.8,0.7-0.4c0.1,0.4,2.2,0.4,2.4-0.1c0.2-0.5-0.1-1.6,0.2-2.2c0.3-0.6,0.1-0.7-0.6-0.9c-0.7-0.3-0.9-0.9-0.4-1.5
		c0.6-0.7,0.2-1.6-0.6-0.7c-0.8,0.9-3.3,0.9-3.4,0.3c-0.1-0.6,1.2-1.7,0.8-2.5c-0.4-0.8,0.3-1.6-0.2-1.7c-0.5-0.1-0.1,1.7-1.4,1.9
		c-1.3,0.2-0.5-1.8-1-1.5c-0.5,0.3-1.7,1.3-1.7,0.6c0-0.7,2-0.8,2-1.5c-0.1-0.7-1.4-0.3-1.3-1.3c0.2-1,1.8-1.7,0.9-1.8
		c-0.9-0.1-2.4-0.9-1.7-1.5c0.7-0.6,1.1,0.2,1.4,0.5c0.3,0.3,0.8-0.1,0.6-0.7c-0.2-0.6,1.1-1,1-1.7c0-0.7,0.4-2.3,1.5-2.1
		c1.1,0.2,2.1,0.3,2.5,0c0.4-0.4,0.5-1.5,1-1c0.5,0.5-0.4,1-0.3,1.5c0.1,0.5-1.2,1.8-1.8,2.1c-0.6,0.3,0.1,1.2,0.8,0.8
		c0.7-0.4,4.4-0.4,4.4,0.2c0,0.6-1,3.7-1.8,4.3c-0.8,0.6-1.4,1.6-0.8,1.6c0.5,0,1.5-0.4,2.1,0.4c0.6,0.8,1.4,0.3,1.6,1.2
		c0.2,1,0.4,2.7,1.6,3c1.2,0.3,1.9,2.6,1.8,3c-0.1,0.4,0.4,1.3,0.8,1.4c0.4,0.1-0.3,0.7,0,1.3c0.4,0.7,0.9,0.7,1.1,0.2
		c0.2-0.6,2.5,0.2,2.5,1.3C53.6,152.4,52.4,153,51.7,153.7z"/>
	<path class="st1" d="M34.2,130.7c0.5,0.5-0.6,2.2-1.6,2.2C32,132.9,33.8,130.2,34.2,130.7z"/>
	<path class="st1" d="M46.5,122.2c0.9-0.3,0.2,2.1-0.4,2.8C45.9,125.2,45.6,122.5,46.5,122.2z"/>
	<path class="st1" d="M75.1,138.4c-0.2,0.5-1.3,0.3-1.5,0.9c-0.2,0.6-0.9,1.2-0.7,1.5c0.2,0.4,0.4,0.5,1.1,0.2
		c0.7-0.4,0.9,1.2,0.8,1.5c-0.1,0.5-1.2,0.5-1.7,0c-0.5-0.4-1.2-0.8-1.2-0.3c0,0.4,0.6,0.8,0.9,1.3c-0.4,0.1-0.7,0.1-0.9,0
		c-0.4-0.1-1.2-0.2-2.2-0.2c-0.2-0.4-0.5-0.8-0.4-1.1c0.2-0.7-0.8-1.3-0.9-2.2c-0.1-0.9-0.4-2.2,0-2.8c0.4-0.6,0.5-1.9,1.2-1.8
		c0.7,0.1,0.9,1.2,1.4,0.7c0.5-0.4-0.4-0.9-0.1-1.1c0.3-0.2,1.3,0.2,1.4-0.8c0.1-1,1.4-1.4,1.7-1c0.4,0.4,0.2,1.8-0.2,2.1
		c-0.4,0.4-0.3,1.5,0.1,1.7C74.4,137.4,75.3,137.9,75.1,138.4z"/>
	<path class="st1" d="M78.7,142.1c0.1,0.4-0.8,2.2-1.7,2.1c-0.9-0.1-1.3-1.2-0.6-1.1c0.6,0.1,1.1-0.3,0.7-0.7
		c-0.5-0.3-1.6-1.2-0.9-2.3c0.7-1,1.4,0.1,1.5-0.7c0.1-0.8,0.5,0.7,0.8,0.6c0.3-0.1,0.5-0.8,0.8-0.6
		C79.6,139.7,78.6,141.7,78.7,142.1z"/>
	<path class="st1" d="M105.4,101.7c-0.4-0.1-0.8-0.1-1.3-0.1c-1.3,0.2-1.9-0.3-2.5,0.3c-0.5,0.6-0.8,1-1.5,1.3
		c-0.7,0.3,0.1,1.2-0.9,2c-1,0.8,0.6,1.6,0.2,2.4c-0.4,0.8-2.4,2.2-3.6,2.9c-1.2,0.6-1.3,1-2.2,1.4c-0.9,0.4-0.8,1.7-1.6,1.9
		c-0.9,0.2-0.5,0.9-1.1,1.1c-0.7,0.3-0.6,1.1-0.6,1.9c0,0.8-1,1.6-0.9,2.4c0.1,0.8,0.4,2.4,0.3,2.8c-0.1,0.4,1.1,0.1,1.7,0.5
		c0.6,0.4,2.2,2.1,2.2,2.6c0,0.6-1.6,1.5-1.4,2c0.2,0.5-1.1,1.9-2.1,2.1c-1,0.2-1.2,1-1.3,1.5c-0.1,0.5-0.1,2.7-0.4,3.5
		c-0.3,0.8-0.8,2.7,0,1.7c0.8-1,1.2-1.1,0.8-0.2c-0.4,1-1.1,2.5-1.3,2.3c-0.2-0.2-0.7-1.3-0.8-0.4c-0.1,0.9-0.6,1.5-1.4,1.1
		c-0.8-0.4-1.8-0.3-2,0.2c-0.1,0.4-0.7,0.1-0.7,0.8c0,0.7,0.2,1.4-0.9,1.5c-1.1,0-1.6,0.5-1.8,0c-0.2-0.5,0-1.6,0-2.1
		c0-0.5-1-0.3-0.7-1.1c0.3-0.8,0.2-1.2-0.5-1.9c-0.7-0.7-0.5-1.3-1.2-2.2c-0.7-0.9-0.1-1.9-0.8-2.6c-0.8-0.7-1.1-1.6-1-2.5
		c0-0.1,0-0.2,0-0.2c0.3,0,0.6,0,0.7,0.1c0.4,0.4,0.6-1.2,0.6-1.7c0-0.5,0.4-1.4,0.3-2c-0.1-0.6,1.4-0.1,1.6-0.6
		c0.2-0.5,0.3-2.1-0.1-2.3c-0.4-0.2-0.6-1.2-0.1-1.2c0.4,0,1-0.4,0.9-1.3c-0.1-0.9-1.5-0.8-1.6-1.8c-0.1-0.9,0.7-1.2,0.1-2.4
		c-0.6-1.2,0.2-1.9,0-2.5c-0.2-0.6-0.4-1.3,0.2-2.5c0.7-1.2,1.9-1.8,2.4-1.6c0.5,0.1,1.2,0.6,1.6-0.1c0.3-0.7,0.3-1.3,0-1.4
		c-0.3-0.1-1.2-0.4-0.6-1.3c0.7-0.9,1.5-2.1,1.6-3.2c0.1-1.1-0.2-1.9,0.1-2.2c0.3-0.4,1.1,0,1.8-0.5c0.7-0.5,0.1-1.1,0.4-1.4
		c0.3-0.4,0.8-1.5,1.2-1.9c0.4-0.4,0.9-0.8,0.6-1.3c-0.3-0.5,0.7-0.9,0.7-1.8c0-0.8,1.1-1.4,1.8-1.4c0.7,0,1.8,0,1.8-0.7
		c0-0.7-0.4-2.2,0.6-1.8c1,0.5,1.8-0.1,2.5,0.5c0.7,0.6,1.6,0.5,1.6-0.5c0-0.9,0.3-2.5,1.3-1.9c1,0.6,1.6,1.5,2.8,2.1
		c1.2,0.6,3.5,1.3,3.4,2.1c-0.1,0.8-0.4,2,0.1,2.4c0.6,0.4-0.1,1.9,0.6,2.2c0.7,0.4,0.5,2.1-0.1,2.1c-0.6,0,0.1,0.9,0.5,1.3
		C105.2,100.6,105.3,101.1,105.4,101.7z"/>
	<path class="st1" d="M91.7,135.9c-0.3-0.5,0.3-3.2,1.6-3.2C94.6,132.7,92,136.3,91.7,135.9z"/>
	<path class="st1" d="M113.2,129.3c-0.1,0.4,0.1,0.8,0.2,1.4c0.1,0.7,0.2,0.8,0.5,1.3c0.4,0.6-0.3,0.6-0.6,0.8
		c-0.2,0.2-0.2,0.4-0.1,0.7c-0.8-0.1-2-0.2-2.3-0.2c-0.4,0.1-2.1-1.2-2.4-1.5c-0.2-0.1-1.4-0.1-2.5,0c0,0,0,0,0,0
		c0.7-0.8,0.2-1.1-0.5-1c-0.7,0.1-0.9-0.1-1.4-0.8c-0.5-0.7,0.2-1-0.5-1.6c-0.7-0.6,0.8-0.8,1.4-1.4c0.6-0.7,3.1-0.7,4.4-0.9
		c1.3-0.3,3.4,0.8,4.5,0.5c0.3-0.1,0.4-0.2,0.5-0.3c0.6,0.9-0.2,1-0.5,1.6C113.6,128.7,113.2,128.8,113.2,129.3z"/>
	<path class="st1" d="M103.1,130.3c-0.4,0.4-1.8,1.6-2.4,1.7c-0.5,0-0.3-1.8,0.9-2.2C102.9,129.4,103.5,129.9,103.1,130.3z"/>
	<path class="st1" d="M101.2,128.9c-0.5-0.5,1.8-0.7,1.5-0.2C102.4,129.3,101.5,129.3,101.2,128.9z"/>
	<path class="st1" d="M85.7,196.2c-0.1,0.2-1.1,1.3-1,2.3c0.2,1,0.1,1.7-0.6,1.7c-0.7,0-0.9-1.3-2.7-1.8c-1.7-0.5-2.3-1-2.4-1.4
		c-0.2-0.6,1.1-1.4,2-1c0.8,0.4,1.4,0.3,2.8,0C85.3,195.8,85.8,196,85.7,196.2z"/>
	<path class="st1" d="M72.5,188.7c-0.3,1.1,0.1,3.4-0.4,4c-0.4,0.6-0.8,0.2-1.6,1.1c-0.8,0.8-1.3-1-1-2.4c0.3-1.4-1.3-2.5-0.9-3.2
		c0.3-0.6,0.9,0.3,1.7-0.4C71.1,187.1,72.8,187.6,72.5,188.7z"/>
	<path class="st1" d="M92.1,190.1c-0.1,1.2-0.6,0.7-1.8-0.1c-1.2-0.8-2.5,0.1-2.3,1.1c0.2,1,1.6,1.2,1.1,1.9
		c-0.6,0.8-1.3,0.7-1.4,1.5c-0.1,0.7-0.8,2.1-1.2,2.1c-0.4,0-0.6-1.2-0.1-2c0.5-0.7,0.4-2.1-0.1-2.7c-0.5-0.6,0-1.4-0.8-1.5
		c-0.8-0.1-0.8-1.1-1.7-1.5c-0.8-0.4-1.5-0.8-2.1-1.4c-0.5-0.7-1.4-0.5-2.3-1c-0.9-0.5-1.5-1.8-3.2-2.9c-1.7-1.1-2.1-2.4-2.2-3
		c-0.1-0.6-0.2-0.7-0.7-1.5c-0.5-0.8-2.1-1.8-3.3-1.5c-1.2,0.4-0.9,1.1-1.6,1.5c-0.4,0.2-0.7,0.2-1.1,0.3c0-0.3,0.2-0.6,0.3-0.8
		c0.2-0.4-0.6-0.3-1.1-0.4c-0.5-0.1-0.9-0.6-0.5-1.2c0.4-0.6-0.3-0.7-0.7-1.3c-0.4-0.6,0.2-0.4,0.5-0.6c0.3-0.2,0.7-0.8,0.5-1
		c-0.2-0.2-0.5-0.5-0.3-1.2c0.7-0.1,1.7-0.1,2-0.1c0.5,0,1-1.6,1.2-1.8c0.2-0.1,0.8,1.2,1.3,1.7c0.6,0.5,0.6-0.4,0.6-0.9
		c0-0.4,0.5-0.6,0.8-0.5c0.4,0.1,1.1,0.2,1.1-0.3c0-0.5,0.4-0.3,0.7-0.3c0.3,0,0.3-0.6,0.3-0.6l0.5-0.4c0.1,0.1,0.2,0.1,0.3,0.2
		c0.4,0.3,1.2-0.2,1.5-0.5c0.3-0.3,1.7-0.3,1.9-0.3c0.2,0,0.2,0.9,0.5,1c0.2,0.1,0.7,0.2,1.2,0.3c-0.1,0.8-0.2,2.1-0.1,3.3
		c-0.7,0.3-1.3,0.8-1,1.4c0.5,1.1-0.6,1.2,0,2.5c0.6,1.3,2.8,1.4,3.3,3.6c0.5,2.2,2.2,4,3.7,4c1.4-0.1,0.8,0.9,1.8,1.5
		C88.3,187.2,92.2,188.8,92.1,190.1z"/>
</g>
<g>
	<path class="st2" d="M26.5,125.8h-4v-15.6l-5,2v-4.1l9.1-3.7V125.8z"/>
	<path class="st2" d="M38.8,125.8h-4v-15.6l-5,2v-4.1l9.1-3.7V125.8z"/>
	<path class="st2" d="M57.8,113.8c0,2.5-2,4.4-4.7,4.4s-4.7-1.9-4.7-4.4c0-2.5,2-4.4,4.7-4.4S57.8,111.3,57.8,113.8z M51.4,113.8
		c0,1,0.8,1.8,1.8,1.8c1,0,1.8-0.8,1.8-1.8s-0.8-1.8-1.8-1.8C52.1,112.1,51.4,112.8,51.4,113.8z M55.4,125.8h-3.5l11.7-16.1h3.5
		L55.4,125.8z M70.6,121.6c0,2.5-2,4.4-4.7,4.4c-2.7,0-4.7-1.9-4.7-4.4c0-2.5,2-4.4,4.7-4.4C68.6,117.2,70.6,119.1,70.6,121.6z
		 M64.1,121.6c0,1,0.8,1.8,1.8,1.8c1.1,0,1.8-0.8,1.8-1.8s-0.8-1.8-1.8-1.8C64.8,119.9,64.1,120.6,64.1,121.6z"/>
</g>
<g>
	<path d="M585.1,221.7l-2.4,1.5c-0.8-1.2-2.1-1.9-3.6-1.9c-2.5,0-4.4,1.9-4.4,4.6c0,2.8,1.9,4.6,4.4,4.6c1.5,0,2.8-0.7,3.6-1.9
		l2.3,1.6c-1.2,1.8-3.3,3-5.9,3c-4.3,0-7.3-3-7.3-7.3s3-7.3,7.3-7.3C581.7,218.6,584,219.7,585.1,221.7z"/>
	<path d="M596.6,232.8H594v-1.1c-0.6,0.8-1.6,1.3-2.9,1.3c-2.7,0-4.7-2.2-4.7-5.1c0-2.9,2-5.1,4.7-5.1c1.3,0,2.3,0.5,2.9,1.3v-1.1
		h2.5V232.8z M589.1,228c0,1.5,1,2.7,2.5,2.7c1.5,0,2.5-1.1,2.5-2.7s-1-2.7-2.5-2.7C590.1,225.3,589.1,226.5,589.1,228z"/>
	<path d="M608.5,226.6v6.2h-2.6v-5.3c0-1.4-0.7-2.2-1.9-2.2c-1.1,0-2,0.7-2,2.2v5.3h-2.6v-9.7h2.5v1.1c0.7-1,1.7-1.4,2.8-1.4
		C606.9,222.9,608.5,224.4,608.5,226.6z"/>
	<path d="M620.7,232.8h-2.5v-1.1c-0.6,0.8-1.6,1.3-2.9,1.3c-2.7,0-4.7-2.2-4.7-5.1c0-2.9,2-5.1,4.7-5.1c1.3,0,2.3,0.5,2.9,1.3v-1.1
		h2.5V232.8z M613.2,228c0,1.5,1,2.7,2.5,2.7c1.5,0,2.5-1.1,2.5-2.7s-1-2.7-2.5-2.7C614.2,225.3,613.2,226.5,613.2,228z"/>
	<path d="M630.4,224.1v-5.7h2.6v14.4h-2.5v-1.1c-0.6,0.8-1.6,1.3-2.9,1.3c-2.7,0-4.7-2.2-4.7-5.1c0-2.9,2-5.1,4.7-5.1
		C628.8,222.9,629.7,223.4,630.4,224.1z M625.5,228c0,1.5,1,2.7,2.5,2.7c1.5,0,2.5-1.1,2.5-2.7s-1-2.7-2.5-2.7
		C626.5,225.3,625.5,226.5,625.5,228z"/>
	<path d="M645.3,232.8h-2.5v-1.1c-0.6,0.8-1.6,1.3-2.9,1.3c-2.7,0-4.7-2.2-4.7-5.1c0-2.9,2-5.1,4.7-5.1c1.3,0,2.3,0.5,2.9,1.3v-1.1
		h2.5V232.8z M637.8,228c0,1.5,1,2.7,2.5,2.7c1.5,0,2.5-1.1,2.5-2.7s-1-2.7-2.5-2.7C638.8,225.3,637.8,226.5,637.8,228z"/>
</g>
<g>
	<path class="st3" d="M543.5,166.1c-0.2,0.4-0.2,0.8-0.3,1.3c-1.1,0.4-2.4,0.2-3.9,0c-0.2-0.7-1.1-1.2-1.1-1.7
		c0-0.6-0.9-0.1-1.3-0.7c-0.4-0.6-0.6-1.7-1.3-1.7c-0.8,0-1-1.3-1.7-1.4c-0.7-0.1-1-1.8-1.7-1.6c-0.7,0.1-1.2-0.3-1.2-1
		c0.1-0.7-1.5-0.8-0.8-1.4c0.8-0.6,1.5-0.5,2.6,0.5c1.1,1,2.3,1,3.2,0.9c0.9-0.1,2.6,3.1,2.9,4c0.3,0.9,2.2,0.7,2.9,1.6
		C542.7,165.8,543.9,165.2,543.5,166.1z"/>
	<path class="st3" d="M592.8,69.6c0.2,0.7,1,1.5,1.9,0.1c0.9-1.4,3.4,1.6,1.7,2.7c-1.8,1.1-6.4,1.6-7.8-0.1c-0.6-0.7-3-0.5-3.2-1.4
		c-0.2-0.8-1-1.8-1.9-0.1c-0.9,1.6-1.8,2-3.6,1.9c-1.9-0.1-3.6,2.2-7.5,2.1c-3.9-0.1-5.5-0.7-5.4-3c0.1-2.3-2.9,0.1-5.7-1.5
		c-2.9-1.6-3.2-1.6-3.4-2.9c-0.2-1.1,4.5-2.2,7.3-2c2.8,0.1,6.4,0.4,6.4-0.5c0-1-5.4-2.2-8.5-1.5c-3.1,0.7-7.3-0.3-7.3-1.9
		c0-1.6,7.6-2.2,6.5-3.1c-1.1-1-5.1,1.2-5.8,1c-0.8-0.3,0.2-1.5-1-1.5c-1.2,0-2.5-1.2-1.2-2.6c1.3-1.4,1.2-2,0.8-2.2
		c-0.4-0.1,1.1-1.8,4.5-3.3c3.4-1.5,5.5-3.3,6.3-1.8c0.8,1.5,1.7,3-0.4,3.6c-2.1,0.5,1.2,1.6,1.9,1c0.7-0.7-0.5-2.6,1.7-2.9
		c2.2-0.3,4.2,1.1,4,2.3c-0.2,1.2-0.4,2,0.8,0.8c1.2-1.2,2.5,1.2,2.9-0.3c0.3-1.5-2.1-1.5-1.9-2.6c0.2-1.1,3.7,0.7,4.6,2.2
		c0.9,1.5,1,5.6,1.9,5.3c0.9-0.3,2.2-0.3,1.5-1.6c-0.7-1.4-2.4-6.1-1.7-7.5c0.8-1.4,1.8,0.7,2.6,0c0.9-0.7,3.4,2.5,3.4,1.6
		c0-0.8-2.8-2.7-3.1-3.3c-0.3-0.5,2.9-2.3,4.9-1.4c2,1,0.8,3-0.3,4.4c-1.1,1.4-0.5,5.5,1,7c1.5,1.5-1.1,2.5,1,4.4
		c2.1,1.9,2.6,1.4,4,2.5c1.3,1.1,4.5,2.1,4.4,4.1c-0.1,2.1-2.9-0.8-3.5,0.1C594.5,68.5,592.5,68.9,592.8,69.6z"/>
	<path class="st3" d="M597.5,53.6c-3-1.1-3.9-4.1-1.9-4.5c2-0.4,2.9,4.1,5,0.5c2.1-3.6-1.5-1.5-2.8-2.7c-1.5-1.5,2.8-3.8,4.3-2.5
		c1.5,1.4,3.1,0.3,1.4-0.5c-1.7-0.8,4-2.3,3.2-1c-0.8,1.4,2.5,1.1,1.8,2.9c-0.8,1.8-4,1.9-3.2,3.3c0.8,1.4,2.9-0.3,3.1,1.5
		c0.2,1.8,1,0.3,0.3-1.2c-0.7-1.5,2-1.6,1.5,0.4c-0.4,2-0.6,7.7-3.3,7.5c-2.8-0.1-2,3.5-4.4,1.5C600.2,56.7,600.5,54.7,597.5,53.6z"
		/>
	<path class="st3" d="M651.8,106.5c2-0.1,0.4,3.3-0.3,3.4C650.2,110.1,649.8,106.6,651.8,106.5z"/>
	<path class="st3" d="M645.9,103.5c0.2,1.1-2.4,4.8-4.2,3.4C639.6,105.2,645.7,102.4,645.9,103.5z"/>
	<path class="st3" d="M644.6,99.2c-1.5-1.4-2.6-1-3.2,0.1c-0.5,1.1-2.9,3-4.2,2.9c-1.7-0.2,0-2.5-1.3-2.5c-1.3,0-2.8,1.4-3.1,0.1
		c-0.3-1.2,2.6-1.8,2.1-4.1c-0.6-2.3,0.5-1.8,0.7-4.2c0.1-2.5,2.8-3.7,2.8-2.1c0,1.6,1.9,2.1,3.1,2.9c1.2,0.8,5.1,2,4.8,3.6
		c-0.2,1.5,3.6,2,3.4,3.4C649.4,100.7,646.1,100.6,644.6,99.2z"/>
	<path class="st3" d="M682.2,85.8c-1.1,1.5,0.8,2.6-0.7,3.4c-1.4,0.8,2.5,4.7,4.1,4.7c1.5,0,2.5,2.5,2.5,4.2c0,1.8,2.9,1.1,1.3,3.6
		c-1.5,2.5-4.6,1.5-6.7-0.5c-2.1-2.1-5.4-1.4-3.8-0.8c1.7,0.5,7.4,6.8,6.5,8.2c-0.8,1.2-6.4-2-7.7-3.7c-1.3-1.6-4.8-0.8-6-2.3
		c-1.1-1.5,0.3-3.7-1.4-4c-1.8-0.3-1.4-2.7-2.9-3.1c-1.4-0.4-3.5-1.1-3.7,0.3c-0.2,1.4-0.4,0.7-2.4,0.5c-2-0.1-4.4,1.2-5.5-0.3
		c-1.1-1.5,0.2-3.8,1.4-3.8c1.2,0,0.3-2,3.3-0.8c3,1.2,6.2-0.1,5.8-1.5c-0.3-1.4-2.5-3.7,0.7-5.2c3.2-1.5,6.7,1.8,6.3,2.9
		c-0.4,1.1,4.7-1,3.6-2.2c-1.1-1.2-2.4-3.3-3.9-2.3c-1.4,1-4,1.2-4.1,0.4c-0.1-0.8,1.3-3,0-5.3c-1.3-2.3-2.4-3.8-3.8-3
		c-1,0.5-1-3.1-2.3-3c-1.3,0.1-2.9,2.3-3.9,1.4c-1-1,2.5-1.5,2.4-2.6c-0.1-1.1-3.6-2.2-3.7-3.1c-0.1-1-1-0.5-1.3-1.5
		c-0.3-1.2-2-1.6-3-2.3c-1-0.7-1.3,1.1-0.6,1.5c0.8,0.4,1.5,1.8,0.3,1.9c-1.2,0.1-5.3-1.6-5.6-1c-0.3,0.7-1.5,1.5-2.5,1.4
		c-1-0.1-3.4-1.1-5.5-1.2c-2.1-0.1-4.2,0.3-5-1c-0.8-1.2-0.8-1.2-2.5-0.7c-1.8,0.5-4.7-1.8-4.8-3c-0.1-1.2,2.3-0.7,3.7-0.4
		c1.4,0.3,2.4-0.7,0.6-1.4c-1.9-0.7-5.1-0.1-5.3-1.2c-0.2-1.1-1.3-6.6,2.3-10.7c3.6-4.1,9.8-4.1,9.8-3c0,1.1-1.1,0.8-2.5,2.7
		c-1.4,1.9-2.1,3.3-1.3,4.4c0.8,1.1,0,2.5,0.6,4c0.5,1.5,4.3,3.8,4.2,2c-0.1-1.8-1.7-1.2-2.6-2.3c-1-1.1,2-2.2,1.3-2.9
		c-0.7-0.7-2.3-2.6-0.8-4.5c1.5-1.9,4.4-1.4,5.3-2.6c0.9-1.2,4.2-2,4.9,0c0.7,2,1.3,2.5,1.8,3.7c0.4,1.2-1,5.2-0.1,5.2
		c0.9,0,3.9-3.1,4.1-1.6c0.2,1.5,1.8,2.1,1.5,0.7c-0.2-1.4,1.5-2.6,2.8-2.6c1.2,0,5.7,0.5,5.3,2.6c-0.4,2.1,3.1,1,3.1,2.2
		c0,1.2,2.3,4.4,2.9,2.9c0.6-1.5,3.4-1.4,3.7-0.1c0.3,1.2-1,2.3-2.1,2.5c-1.1,0.1,0,1.8,0.9,1c0.9-0.8,3.2-1.9,3.2-0.8
		c0,1.1,0.4,2,1.8,1.5c1.3-0.5,4.4,0.5,3.9,1.5c-0.6,1-1.2,2.5-0.4,2.5c0.8,0,1-1.6,1.8-1.1c0.8,0.5,2,1.9,1.3,2.6
		c-0.7,0.7-1.5,0.3-1.4,1.4c0.1,1.1,3.4,0.3,2.9,1.8c-0.6,1.5-3.2-1-3.4,1c-0.2,1.9,1.9,3.3,3.3,3.4c1.4,0.1,3.3,2.3,4.4,1.9
		c1.1-0.4,4.4,1.9,4.4,2.9c0,1,0.3,2.5,2.1,2.3c1.8-0.1,4.2,1.5,2.9,2.2c-1.3,0.7-3.3,2.5-3.2,4c0.1,1.5-2.2,0.3-2.5,1.8
		c-0.3,1.5-0.6,3-2.6,0.8c-2.1-2.2-2.3-4.2-3.6-4.4C684.4,87.2,683.3,84.3,682.2,85.8z"/>
	<path class="st3" d="M657.4,80.5c-1.1-2.3,1-4.6,2.2-4.8c1.2-0.1,2.6,0,3.2,1c0.7,1.3,1,3.8-0.3,4.1
		C661.1,81,658.5,82.8,657.4,80.5z"/>
	<path class="st3" d="M653.6,45.5c1.7-0.4,6.3,2.3,6.3,3.8c0,1.6-4.4,0-6,1.2c-1.5,1.2-3.6,0.5-3.7-1.5c-0.1-2.1-2.2-2.1-1.5-3.8
		C649.3,43.5,652,45.9,653.6,45.5z"/>
	<path class="st3" d="M696.8,164.4c-0.2,1.5-6.6-1.8-6.8-2.9C689.8,160.6,697.1,162.9,696.8,164.4z"/>
	<path class="st3" d="M719.1,172.4c-0.7,1.5-3.5,0.5-3.1-0.4c0.4-0.9-0.7-1.5-1.5-0.9c-0.9,0.5-2.1,2.1-2.1,1.1
		c-0.1-1,1.8-2.4,0.6-2.2c-1.2,0.2-1.2-1.7-2.3-0.7c-1.1,1-2.2,0.9-3.5,0.7c-1.3-0.2-2.9,0.7-3.8,0.1c-1.4-0.9,1.5-3,0.7-3.7
		c-0.8-0.7,0.4-1.9,1.4-1.8c1,0.1,1.1-1.5,1.1-2.9c0-1.4,2.9-6.4,4-6.9c1.1-0.6,2.2,0.3,1.2,1c-1,0.7-0.7,2-1.8,3.5
		c-1.1,1.5-0.4,3.3-0.2,2.2c0.2-1.1,2.4-0.7,1.9-0.1c-0.5,0.6,0.9,0.9,1.1,1.8c0.2,0.9,2.2,1.6,2.2,0.5c0-1,2.8,0.1,2,0.6
		c-0.8,0.5-1,3.6-0.1,3c0.9-0.5,2-0.2,1,0.7c-1,0.9-0.3,2.6,0.1,1.6C718.4,168.7,719.7,171,719.1,172.4z"/>
	<path class="st3" d="M521.3,146.6c0,1.6,1.9,4.2,1.2,4.8c-1,0.8-5.8-5.5-3.8-6.8C520.7,143.3,521.3,145,521.3,146.6z"/>
	<path class="st3" d="M701.3,177c-0.9,0.7-3.3,0.7-3.3,1.5c0,0.8,0.9,1-0.5,1.6c-1.4,0.5-4.5,2-5.7,1.9c-1.2-0.1-1.2,1.2-2.4,2.5
		c-1.2,1.3-2.4,1.7-3.2,0.7c-0.9-1-1.3-1.5,0.3-3.4c1.5-1.9,2-2.1,3.2-2.1c1.2,0.1,3.4-0.7,1.9-0.6c-1.5,0.1-3.1-0.8-2.3-1.1
		c0.9-0.3,0.3-2.3-0.2-1.3c-0.4,1-1.9,2.7-2.9,2.6c-0.6,0-1.6,0.6-2.6,1.4c-2.8-4.6-2-7.7-2.1-8.6c-0.1-0.9-2.3-0.2-3.3-1.2
		c-1-1-2.8,3.6-3.2,5.5c-0.4,1.9-3.1,4-3.1,4s-7.9,0.1-8.5,0.1c-0.5,0-2.3,1.9-3.3,3.1c-0.6-0.9-1.8,0.6-3.4,0.3
		c-1.8-0.3-5.5,1.1-5.1,2.5c0.3,0.9,0.7,0.8,1.8,0.6c0.1,0.4,0.2,0.9,0.1,1.2c0,0.2-0.3,0.5-0.7,0.8c0-0.1,0.1-0.2,0-0.3
		c-0.2-0.7-0.4-0.3-1.5,0.7c-1.1,1-1.5-0.3-3.2-0.4c-1-0.1-2.2,1.2-3.1,2c-0.5-0.6-0.5-1.6-0.4-2.4c0,0,0,0,0.1,0
		c0.7,0.1,1.8-2.7,1.8-4.8c0-2,0.9-1.4,0.8-2.7c-0.1-1.4,1.8,1.1,3.2,1c1.7-0.2-0.1-1.9-0.9-4.2c-0.8-2.3-3.1-0.8-4.6-1.5
		c-1.2-0.5-3.1-0.9-3.8-0.6c-0.5-0.5-1-0.9-1.4-1.2c0.2-1-1.2-2.4-1.4-4.3c-0.2-2.2-2.4,0-2.6-2.3c-0.2-2.3-3.9-2.7-5.3-2.7
		c-1.1,0-2,2.6-3.2,3.8c-1-0.4-3-1.4-3.6-0.6c-0.7,1-1.6,0.4-2.1-0.5c-0.5-0.8-1.2,0.3-2.1-1c-0.9-1.3-1.8-0.4-2.3-0.1
		c-0.5,0.3-1.2-0.5-2.1-0.9c-1-0.5-0.2-1.6-1-2.4c-0.8-0.7-0.9,1.4-0.9,1.4l-68.5,0.5c-0.6-1.2-0.9-3.3-1.9-2.9
		c-0.4,0.2-0.8-1-1.5-0.9c-0.7,0.1-1.8,0.6-1.9-0.3c-0.1-1-0.4-2.3-0.9-1.8c-0.5,0.5-1.8-0.1-2.2-0.8c-0.3-0.8-1-1.6-1.7-1.3
		c-0.7,0.3-2.6-0.6-2.6-1.2c0-0.6,0.1-1.6-0.6-1.6c-0.6-0.1-0.7-1.8,0.1-1.8c0.8,0,0.3-1-0.2-1.4c-0.5-0.3-1.5-2.3-2-1.6
		c-0.5,0.8-1.5,0-1-1c0.5-1,0.1-2.4-0.6-1.8c-0.6,0.6-1.6,0.9-2.2,0.1c-0.6-0.8,0.1-1.7-0.4-2.3c-0.5-0.6,1.3-0.6,0.7-1.3
		c-0.6-0.6-1-1-1.1-1.6c0.6-0.5,1.2-1.1,1.7-1.5c1.2-1-0.9-1.6-0.5-2.8c0.4-1.2,0.4-1.9-2.4-3.3c-2.8-1.4-2.5-2.3-4.4-6.5
		c-1.9-4.2-5.4-6-5.4-7.6c0-1.5-3.4-1.4-3.4-0.2c0,1.2-1.5,1.5-2.3,2.2c-0.8,0.6-1.2-0.4-1.9-1.5c-0.7-1.2-2.5-2.4-2.5-3.1
		c0-0.7-0.4-2.3-1.7-1.5c-1.3,0.7-1.9,0-2.3,0.5c-0.4,0.5-1.3-0.3-1.3-0.3V68.8c1.9,0.2,4.6-0.1,4.6,0.5c0,0.7,3.9,3.5,5.8,3.3
		c1.9-0.2,3.3,1.8,3.8,1.2c0.4-0.5-0.1-1-1-1.8c-0.9-0.8,0.4-2,1.8-2c1.3,0,1.7-0.6,1.7-1.1s1.9,0.3,1.3,0.7
		c-0.5,0.4,0.2,1.2,0.6,0.5c0.4-0.8,2.2,0.5,1.8-0.6c-0.4-1.1,1.3-0.8,2.8-1.6c1.5-0.8,3-2,3.9-1.8c0.9,0.2,2.2-0.4,2.2,0.3
		c-0.1,0.8-2.6,2-3.9,2.3c-1.3,0.3-3.9,2.8-4.8,3.4c-0.8,0.5-1.7,1.6-0.6,1.7c1,0.1,1.8-0.5,1.7-1.4c-0.2-0.8,3.7-3.3,3.9-2.6
		c0.1,0.7,1,1,2.4-1c1.3-1.9,2.5-1.2,2.4-0.5c-0.1,0.7,1.9-0.8,1.8-2c-0.1-1.2,2,0.1,0.9-1.8c-1.2-1.8,0.1-1.8,1.5-0.5
		c1.4,1.2,2.1,6,3.7,6.2c1.7,0.1,2.5-4.5,3.4-4.4c0.9,0.1,0.2,2,0.8,2.4c0.4,0.3-1.3,2-0.1,2c1.2,0,2.4,0.1,2.9-1.3
		c0.4-1.4,4.1-1.8,5.6-0.3c1.5,1.5,3.6,2,4.9,2.1c1.3,0.1,1.6,1,3.6,1.4c2,0.5,3.7,1.2,3.6,0.4c-0.1-0.8,2.8,0,4,1.2
		c1.3,1.2,1.7,2.6,0.9,2.3c-0.8-0.3-3.6,1.4-2.8,2.4c0.8,1,5,1.1,7.3,0.6c2.3-0.5,3.5-0.3,4.6-1c1-0.7,1.4-0.1,2.2,0.7
		c0.8,0.8,1.8-0.2,1.7,0.7c-0.1,0.9,0.4,0.1,1.3,0.9c0.8,0.8,1.3,2.1,0.3,2.5c-1,0.4,1.5,2,1.5,0.8c0-1.2,2,0.2,0.6-2.3
		c-1.4-2.5-1.7-4-0.3-4.2c1.4-0.3,4.7-1.8,4.1-2.7c-0.7-0.8-1.8,1.4-3.3,1.2c-1.5-0.3-1.5,1-2.3,1c-0.6,0-1.7,0.2-1.1-1.3
		c0.6-1.5,2.6-1.2,3.6-2c1-0.8,3.9-1.1,4.1-0.2c0.2,0.9-0.2,2.4,1.3,2.5c1.4,0.1,1.1,1.4,2.2,1.4c1.1,0,2-0.1,2.6,0.7
		c0.7,0.9,2.4,1.6,3.9,1.2c1.5-0.4,3.7-0.9,4.8-0.7c1.2,0.1,2.4,0.9,2.3,0.1c-0.1-0.8,0.7-1.2,0.2-2c-0.5-0.8,0.2-1.3,1-0.8
		c0.8,0.5,0.4-0.8,1.2-0.8c0.7,0-0.4-1.7-1.9-1.8c-1.5-0.1-2.8-0.7-2.2-1.6c0.6-0.9,2.1,0.5,2.5-2.1c0.4-2.7,2-2,2.9-0.8
		c0.9,1.2,1.7,1.1,2.8,0.8c1.1-0.3,2.2,0.9,1.5,1.1c-0.7,0.2-2-0.5-2,0.5c0,1,1.2,0.5,2,0.2c0.8-0.3,2.3,1.6,1.4,2.7
		c-0.9,1-1.8,0.3-2.9,0.3c-1.1,0,0.2,1.4-1.3,1.2c-1.5-0.2-2.3-0.6-1.8,0.3c0.5,1,2.1,1.2,2.9,1c0.7-0.1,0.3,1.2-0.3,2.4
		c-0.6,1.2,0.1,2.1,1.3,2.5c1.2,0.4,1.8,0,1.3-1.2c-0.4-1.2-1-3.3,0-3c1,0.3,1.7,0.1,2.4-1.2c0.7-1.3,1.7-0.5,1.7-1.8
		c0.1-1.3-0.4-3.2-1.1-1.7c-0.7,1.5-1.2,2-1.2,1.1c-0.1-0.9,1.3-1.3,0.8-2.5c-0.5-1.2,1.3-0.5,0.1-1.6c-1.3-1-3.7-0.9-5-2.2
		c-1.3-1.3-0.7-2.6-0.2-3.5c0.6-0.9,0.3-0.8-0.4-1.5c-0.7-0.8-0.2-3.1,0.5-3.4c0.7-0.3,1.8,1.2,2,0.3c0.2-1-1.2-1.5-0.8-1.8
		c0.4-0.3,1.5-0.3,1.5-1.8c0-1.5,0.1-2.7-0.4-3.6c-0.6-0.9-1.1-1-0.9-3.4c0.2-2.4-0.4-3.3,0-3.6c0.4-0.3,1.4,0.9,1.6,0.2
		c0.2-0.7-1.1-1.2-0.7-1.8c0.4-0.6,3.5-1.2,5.2-1c1.7,0.1,2.1,1.3,4.1,1.1c2-0.2,3.4-0.1,2.6,1.4c-0.8,1.4-2.9,5.5-3.6,6.1
		c-0.7,0.6-2.7-0.3-3.9-0.4c-1.2-0.1-0.8,0.7-0.2,1c0.7,0.3,0.5,0.7-0.4,2c-0.9,1.3-1.3,1.7-1.8,1.6c-0.5-0.1-0.3,1.6,0.6,1.4
		c0.9-0.2,2.9,2.1,3.2,2.7c0.3,0.7-0.7,2.4-0.1,2.7c0.6,0.3,2.2,0.6,2.2,1.6c0,1,2.1,1,1.5,2c-0.6,1-1.4-0.1-1.4,0.6
		c-0.1,0.8-0.7,2.1-0.1,2.7c0.6,0.5,1.4-0.9,1.9-0.6c0.5,0.3,1.8,1.2,2.5,1.2c0.7,0,0.2,1.1-0.6,1.2c-0.8,0.1-0.9,1-0.3,1.3
		c0.6,0.3,0.2,3.8,0.8,3.7c0.7-0.1,0.3-2,1.1-2.5c0.8-0.4,0.4-1.6,0.9-2.2c0.5-0.6,1.4-0.6,2.3,0.7c0.9,1.3,1.6,0.9,1.7,2.1
		c0.1,1.2,0.7,1.9,0.1,2.1c-0.6,0.1-1,0.5-1,1.4c-0.1,1,0.9,2.4,1.7,3.2c0.8,0.8,0.8,2.6,1.4,1.4c0.6-1.2,1.9-0.5,1.8-1.5
		c-0.2-1-0.3-1.7-0.9-1.9c-0.7-0.2-0.6-2.3,0.3-2.4c0.9-0.1,0.2,2.5,1.1,1.9c0.9-0.6,1-1.3,1.2-3.1c0.2-1.8,1-1.4,1.6-1.4
		c0.6,0.1-0.3-1,0.4-1.4c0.7-0.3,0.1-1.4-0.8-1.5c-0.8-0.1-0.8-2.9-0.2-2.9c0.5-0.1,2.9-0.2,3.9,0.4c1.1,0.6,2.8-0.1,2.8,1
		c0.1,1,0.9,1.6,1.9,1.6c1,0,1.8,0.7,0.8,1.4c-1,0.7,1.2,0.9,0.7,1.8c-0.5,1-1.4,1.4-2.5,1.1c-1.1-0.3-0.9,0.8-0.1,1.3
		c0.9,0.5-0.1,1.4,0.8,2.2c0.9,0.8,1.9,2.1,1.2,3.3c-0.7,1.3-0.8,0.3-1.4,1.2c-0.6,0.8-1.2,1.6-2.3,2.1c-1.1,0.5-1.5,1.5-2.1-0.1
		c-0.4-1.1-1.3-0.9-1.7-1.8c-0.4-1-1.7,0.2-0.4,0.8c1.3,0.6,2.2,2.2,1.4,2.2c-0.8,0-2.3,0.8-2.6,0.3c-0.3-0.5-0.7-1.4-1.6-1.4
		c-0.9,0-2.5,0.4-1.9,1c0.6,0.6,2.3,1,1.4,1.8c-0.9,0.8-2.7,3.4-3.7,3.3c-1.1-0.1-3.8-2.9-5-3c-1.2-0.1-1.3,0.7-0.2,1.7
		c1.1,1,2.3,2,4.3,1.8c2-0.2,3,0.6,1.9,1.5c-1,0.9-2.3,4.1-3.5,4.5c-1.3,0.4-3.5-1.5-3.7-0.8c-0.2,0.8,0.6,2.6-0.6,2.7
		c-1.2,0.1-1.5,0.1-3-0.5c-1.4-0.7-5.3-2-5.6-1.2c-0.3,0.8,3.9,0.8,3.9,2.1c0,1.3,3.3,0.1,3.6,1.7c0.3,1.6-1.6,2.1-2.9,2.1
		c-1.3,0-1.7,0.2-1.2,0.9c0.6,0.7-0.4,0.1-0.6,1c-0.2,0.8-0.2,1.2-1.1,1.4c-0.8,0.1-0.2,2.1-1,2.4c-0.8,0.3-1.8,0.8-1.8,1.8
		c0,1-1.4,3.5-1.7,5.1c-0.3,1.6-0.2,5.5,0.1,5.8c0.3,0.3,1.6,1,2.8,0.8c1.2-0.2,1.5,1.3,1.8,2.7c0.3,1.4,1.4,3.4,1.1,3.9
		c-0.3,0.5-0.7,1.6-0.3,1.5c0.4-0.1,2.7-1.3,3.7-1.4c1-0.1,2.6,1.8,3.3,1.6c0.7-0.1,2.3,0.2,2.7,0.8c0.4,0.6,2.1,1.1,2.3,1.7
		c0.2,0.6,0.9,1.7,2.6,2.3c1.7,0.5,3,1.6,3.4,2c0.4,0.5,1.2,0.8,2.6,0.6c1.4-0.1,2.8,0.3,3.7,0.3c1,0,1.7,1.2,1.4,1.9
		c-0.3,0.8-0.7,1.6-0.3,2.5c0.4,0.8,0.2,3.6,0.2,4.7c0,1.1,1.7,1.8,1.7,2.7c0,1,0.8,1.2,1.8,2.1c1,1,0.5,2.2,0.9,2.1
		c0.4-0.1,2.1,1.7,2.1,1c0-0.8,0.7-2.5,1.4-1.9c0.7,0.6,1.2,1.3,1.1,0.1c-0.1-1.2-1.2-0.7-0.4-1.6c0.8-0.9,1.3-1.4,0.6-2.6
		c-0.7-1.2-0.2-2.3-0.7-3.7c-0.5-1.4,0.3-1.8-0.7-3.1c-0.9-1.3-1.3-2.9-0.7-3c0.7-0.1,2.1,0.2,3.5-1.6c1.4-1.8,3.3-2.3,3.5-4.3
		c0.3-2,0.3-4.9-0.5-6.8c-0.9-1.8-3.1-3-3.7-3.7c-0.6-0.7,0.1-1.8,0.8-2.9c0.8-1.1,0.2-1.9,0.7-2.1c0.5-0.2,1.2,0.1,1-1.5
		c-0.2-1.6-0.7-1.6-1-2.8c-0.3-1.2-0.8-1.1-0.8-1.7c0-0.6,0.7-0.5,0.8-1.4c0.1-0.9,0.9-0.6,0.6-1.5c-0.3-1-1.4-0.7-1.6-2.1
		c-0.2-1.4,0.9-1.6,1-2.3c0.1-0.6,1.9-0.5,3.3,0c1.4,0.5,1.5,1.3,2,0.8c0.5-0.5,1.8,0.8,2.3,0.5c0.5-0.3,1.6-1.2,2.5-1
		c0.9,0.1,1.1,1,1.8,1.1c0.7,0.1,1,0.4,1,1.2c0,0.8,0.9-0.1,1.2,1.1c0.3,1.2,1,0.5,1.2,1.8c0.1,1.2,2.3,1.4,3,1.3
		c0.7-0.1,0.7,1.2,1.4,0.7c0.7-0.5,1.3-0.5,1.3,0.1c0,0.7-0.9,0.8-0.8,2.6c0.1,1.8,0.9,2.9,0.3,3.5c-0.6,0.6,1.3,1.1,1,2.1
		c-0.3,1,0.4,1.2,1.3,1.1c0.9-0.1,0.8,2,1.4,1.5c0.6-0.5,0.6,1.3,1.3,1.4c0.7,0.1,2.5-0.8,2.5-1.8c0-1,1-1.2,1.5-0.3
		c0.4,1,0.1-1.2,0.9-1.2c0.8,0,0-1,0.5-1.7c0.5-0.7,1-0.7,0.3-1.8c-0.3-0.5,0.8-0.5,1.2-2.1c0.3-1.6,0.8-2.2,1.1-1
		c0.3,1.2,1.2,1.8,1.3,2.8c0.1,1,1.7,2.6,1.7,3.4c0,0.8,1,1.7,0.9,2.3c-0.1,0.6,0.9,1.1,0.9,1.8c0.1,0.7,1.7,1.6,1.6,2.3
		c-0.1,0.7-0.1,1.6,0.3,1.6c0.4,0.1,1.3,0.7,1,1.4c-0.3,0.7-1.2,2-2,1.4c-0.8-0.7-1.7,0.3-0.3,0.8c1.4,0.5,3.8,2.7,4.2,4
		c0.4,1.3,0.9,2.2,1.8,1.5c0.9-0.7,0.7,1,1.5,0.3c0.8-0.7,1.6,1.7,2.8,1.4c1.2-0.3,2.2,0.7,1.8,1.4c-0.4,0.7-1.5,0.3-2.8,1.3
		c-1.3,1-1.8,0.2-2.3,1c-0.5,0.8-0.9,0.2-1.4,0.8c-0.6,0.5-0.6,2.6,0.6,1.2c1.2-1.4,1.1,0.1,2.4-1.3c1.3-1.4,3-1.8,3.9-1.2
		c0.9,0.7-0.9,2.3,0.2,2.5c1.1,0.1,1.6-2.1,2.6-0.4c1,1.7,1.7,1.2,1.3,2.4c-0.3,1.2-0.7,1.8-1.5,1.8c-0.8,0.1-0.1,0.7,0.7,0.9
		c0.8,0.2,1.1,0.5,0.2,1.3c-0.9,0.8-1.7,2.7-3.5,2.6c-1.8-0.1-2.7-0.1-3.4,1.2c-0.7,1.4-3.2,3.5-4.5,3.4c-1.3-0.1-14.5-0.3-15.6,1
		c-1.1,1.2-1.6,1.8-1.8,2.7c-0.2,0.9-1.4-0.1-2.6,1c-1.2,1.1-2.9,4.4-3.5,4c-0.6-0.3-0.1,0.5-0.5,1.4c-0.4,0.9-3.3,3.2-2.3,3.2
		c1,0,3.5-4.4,5.4-5.7c1.9-1.4,9.5-4.9,10.7-2.2c1.2,2.7-1.2,3.3-2.4,4c-1.3,0.6-0.7,2.3,0.2,1.2c0.9-1.1,2.1-0.4,1.1,1
		c-1,1.4,0.2,1.8,0.3,3.1c0.1,1.3,2.6,1.8,2.7,2.7c0.1,1,3.5,1.5,4.4,1c0.9-0.5,1,0.3,1-1.3c0-0.5,1.2-0.9,1.3-1.8
		c0.1-0.9,1.8-2,1.7-1.2c-0.1,0.7-0.7,2.3,0.1,2.1C701.1,175.6,702.2,176.2,701.3,177z"/>
</g>
<g>
	<path class="st2" d="M536.9,110.3h4.5v5.8h-4.5v5.9h-6.2v-5.9h-14.3v-4.5l11.3-21.8h6.9l-10.8,20.5h6.9v-8.6h6.2V110.3z"/>
	<path class="st2" d="M541.1,94.8c1.7-2.3,5-5.5,11-5.5c6.7,0,10.9,4.2,10.9,10.4c0,3.9-2,6.7-4.6,9.4l-6.9,7.2h12.3v5.8h-21.3v-4.9
		l11.4-11.7c1.7-1.7,2.6-3.5,2.6-5.5c0-2.8-2-4.8-4.9-4.8c-3.1,0-4.9,1.7-6.5,3.5L541.1,94.8z"/>
	<path class="st2" d="M590,103.7c0,3.9-3.1,6.8-7.2,6.8c-4.1,0-7.2-2.9-7.2-6.8c0-3.9,3-6.8,7.2-6.8C587,96.9,590,99.8,590,103.7z
		 M580.1,103.7c0,1.5,1.2,2.7,2.8,2.7c1.6,0,2.8-1.1,2.8-2.7c0-1.5-1.2-2.7-2.8-2.7C581.3,101,580.1,102.1,580.1,103.7z M586.3,122
		h-5.4l17.9-24.6h5.4L586.3,122z M609.6,115.7c0,3.9-3.1,6.8-7.2,6.8c-4.1,0-7.2-2.9-7.2-6.8c0-3.8,3.1-6.8,7.2-6.8
		C606.5,108.9,609.6,111.8,609.6,115.7z M599.6,115.7c0,1.5,1.2,2.7,2.7,2.7c1.6,0,2.8-1.2,2.8-2.7c0-1.5-1.1-2.7-2.8-2.7
		C600.8,113,599.6,114.1,599.6,115.7z"/>
</g>
<g>
	<path d="M814.8,232.7h-3l-1.2-3.3h-6l-1.2,3.3h-2.9l5.4-14h3.4L814.8,232.7z M805.6,226.9h4l-2-5.4L805.6,226.9z"/>
	<path d="M825.3,228.6c0,3.1-2.2,4.4-4.6,4.4c-2.4,0-4.6-1.3-4.6-4.4v-5.6h2.6v5.3c0,1.5,0.8,2.2,2,2.2c1.1,0,2-0.6,2-2.2v-5.3h2.6
		V228.6z"/>
	<path d="M834.9,225.8c-0.8-0.4-2-0.8-3.1-0.8c-1,0-1.5,0.3-1.5,0.9c0,0.6,0.7,0.7,1.6,0.8l0.9,0.1c2.1,0.3,3.3,1.3,3.3,2.9
		c0,2-1.6,3.3-4.4,3.3c-1.3,0-3-0.2-4.3-1.1l1-2c0.8,0.5,1.8,0.9,3.3,0.9c1.2,0,1.8-0.3,1.8-0.9c0-0.5-0.5-0.7-1.6-0.9l-0.8-0.1
		c-2.2-0.3-3.3-1.3-3.3-2.9c0-2,1.5-3.2,4.1-3.2c1.5,0,2.8,0.3,4,0.9L834.9,225.8z"/>
	<path d="M845,225.4h-3.5v3.5c0,1.2,0.6,1.6,1.4,1.6c0.6,0,1.3-0.3,1.8-0.6l1,2c-0.8,0.6-1.8,1-3.2,1c-2.4,0-3.6-1.4-3.6-3.9v-3.7
		H837v-2.3h1.9v-2.9h2.6v2.9h3.5V225.4z"/>
	<path d="M853.9,223l-0.4,2.6c-0.4-0.2-1-0.3-1.6-0.3c-1.2,0-2,0.7-2,2.2v5.3h-2.6v-9.7h2.5v1.1c0.6-0.9,1.5-1.3,2.7-1.3
		C853.1,222.8,853.6,222.9,853.9,223z"/>
	<path d="M864.9,232.7h-2.5v-1.1c-0.6,0.8-1.6,1.3-2.9,1.3c-2.7,0-4.7-2.2-4.7-5.1c0-2.9,2-5.1,4.7-5.1c1.3,0,2.3,0.5,2.9,1.3v-1.1
		h2.5V232.7z M857.5,227.9c0,1.5,1,2.7,2.5,2.7c1.5,0,2.5-1.1,2.5-2.7s-1-2.7-2.5-2.7C858.4,225.2,857.5,226.4,857.5,227.9z"/>
	<path d="M870.3,232.7h-2.6v-14.4h2.6V232.7z"/>
	<path d="M876,219.9c0,0.9-0.7,1.7-1.7,1.7s-1.7-0.7-1.7-1.7s0.7-1.7,1.7-1.7S876,219,876,219.9z M875.6,232.7H873v-9.7h2.6V232.7z"
		/>
	<path d="M887.4,227.9c0,0.3,0,0.7,0,0.9h-6.9c0.3,1.4,1.3,2,2.5,2c0.8,0,1.7-0.3,2.4-0.9l1.5,1.7c-1.1,1-2.5,1.5-4.1,1.5
		c-3,0-5-2-5-5.1c0-3,2-5.1,4.9-5.1C885.5,222.8,887.4,224.9,887.4,227.9z M880.5,227h4.3c-0.2-1.2-1-1.9-2.1-1.9
		C881.4,225.1,880.7,225.8,880.5,227z"/>
	<path d="M890.2,234.7h-2.8l8.5-17.4h2.8L890.2,234.7z"/>
	<path d="M912.3,232.7h-2.6l-7.1-9.3l0,9.3h-2.8v-14h2.6l7.1,9.3v-9.3h2.8V232.7z"/>
	<path d="M925.1,227.9c0,2.9-2.2,5.1-5.2,5.1c-3,0-5.2-2.2-5.2-5.1c0-2.9,2.2-5.1,5.2-5.1C922.9,222.8,925.1,225,925.1,227.9z
		 M917.3,227.9c0,1.6,1.1,2.7,2.6,2.7c1.5,0,2.6-1.1,2.6-2.7c0-1.6-1.1-2.7-2.6-2.7C918.4,225.2,917.3,226.3,917.3,227.9z"/>
	<path d="M936.3,228.6c0,3.1-2.2,4.4-4.6,4.4c-2.4,0-4.6-1.3-4.6-4.4v-5.6h2.6v5.3c0,1.5,0.8,2.2,2,2.2c1.1,0,2-0.6,2-2.2v-5.3h2.6
		V228.6z"/>
	<path d="M944.7,232.7h-3l-3.8-9.7h2.8l2.5,6.9l2.5-6.9h2.7L944.7,232.7z"/>
	<path d="M958.7,227.9c0,0.3,0,0.7,0,0.9h-6.9c0.3,1.4,1.3,2,2.5,2c0.8,0,1.7-0.3,2.4-0.9l1.5,1.7c-1.1,1-2.5,1.5-4.1,1.5
		c-3,0-5-2-5-5.1c0-3,2-5.1,4.9-5.1C956.8,222.8,958.7,224.9,958.7,227.9z M951.8,227h4.3c-0.2-1.2-1-1.9-2.1-1.9
		C952.8,225.1,952.1,225.8,951.8,227z"/>
	<path d="M963.5,232.7h-2.6v-14.4h2.6V232.7z"/>
	<path d="M968.8,232.7h-2.6v-14.4h2.6V232.7z"/>
	<path d="M980.6,227.9c0,0.3,0,0.7,0,0.9h-6.9c0.3,1.4,1.3,2,2.5,2c0.8,0,1.7-0.3,2.4-0.9l1.5,1.7c-1.1,1-2.5,1.5-4.1,1.5
		c-3,0-5-2-5-5.1c0-3,2-5.1,4.9-5.1C978.7,222.8,980.6,224.9,980.6,227.9z M973.7,227h4.3c-0.2-1.2-1-1.9-2.1-1.9
		C974.6,225.1,973.9,225.8,973.7,227z"/>
	<path d="M988.4,228.6h-5.9v-2.3h5.9V228.6z"/>
	<path d="M1001,220.9l-7.3,9.2h7.3v2.6h-11v-2.2l7.3-9.2H990v-2.6h11V220.9z"/>
	<path d="M1012.1,227.9c0,0.3,0,0.7,0,0.9h-6.9c0.3,1.4,1.3,2,2.5,2c0.8,0,1.7-0.3,2.4-0.9l1.5,1.7c-1.1,1-2.5,1.5-4.1,1.5
		c-3,0-5-2-5-5.1c0-3,2-5.1,4.9-5.1C1010.2,222.8,1012.1,224.9,1012.1,227.9z M1005.2,227h4.3c-0.2-1.2-1-1.9-2.1-1.9
		C1006.2,225.1,1005.4,225.8,1005.2,227z M1005.6,221.7l2-3.1h3.1l-2.6,3.1H1005.6z"/>
	<path d="M1016.9,232.7h-2.6v-14.4h2.6V232.7z"/>
	<path d="M1029.1,232.7h-2.5v-1.1c-0.6,0.8-1.6,1.3-2.9,1.3c-2.7,0-4.7-2.2-4.7-5.1c0-2.9,2-5.1,4.7-5.1c1.3,0,2.3,0.5,2.9,1.3v-1.1
		h2.5V232.7z M1021.7,227.9c0,1.5,1,2.7,2.5,2.7c1.5,0,2.5-1.1,2.5-2.7s-1-2.7-2.5-2.7C1022.6,225.2,1021.7,226.4,1021.7,227.9z"/>
	<path d="M1041,226.6v6.2h-2.6v-5.3c0-1.4-0.7-2.2-1.9-2.2c-1.1,0-2,0.7-2,2.2v5.3h-2.6v-9.7h2.5v1.1c0.7-1,1.7-1.4,2.8-1.4
		C1039.5,222.8,1041,224.3,1041,226.6z"/>
	<path d="M1050.6,224.1v-5.7h2.6v14.4h-2.5v-1.1c-0.6,0.8-1.6,1.3-2.9,1.3c-2.7,0-4.7-2.2-4.7-5.1c0-2.9,2-5.1,4.7-5.1
		C1049.1,222.8,1050,223.3,1050.6,224.1z M1045.8,227.9c0,1.5,1,2.7,2.5,2.7c1.5,0,2.5-1.1,2.5-2.7s-1-2.7-2.5-2.7
		C1046.7,225.2,1045.8,226.4,1045.8,227.9z"/>
	<path d="M1065,227.9c0,0.3,0,0.7,0,0.9h-6.9c0.3,1.4,1.3,2,2.5,2c0.8,0,1.7-0.3,2.4-0.9l1.5,1.7c-1.1,1-2.5,1.5-4.1,1.5
		c-3,0-5-2-5-5.1c0-3,2-5.1,4.9-5.1C1063.1,222.8,1065,224.9,1065,227.9z M1058.1,227h4.3c-0.2-1.2-1-1.9-2.1-1.9
		C1059,225.1,1058.3,225.8,1058.1,227z"/>
</g>
<g>
	<g>
		<path class="st4" d="M1004.3,114.4c-1.7,1.9-0.8,4.5-0.6,5.3c0.2,0.8-1.2,4-1.2,6.7c0,2.7-2.6,5.2-2.7,7.4c-0.1,2.2-2,3.3-3,3.6
			c-1,0.4-4.9,7.5-5.4,11.4c-0.4,3.9-3.4,4.5-3.8,8.1c-0.4,3.6-0.9,10.7-1.7,10.7c-0.8,0-8.6,0.3-10.5,2c-1.9,1.6-3,2.9-4.8,3.6
			c-1.8,0.7-2.2,1.8-2.2,2.9c0,1.2-0.9,0.1-1.7-1.3c-0.8-1.4-2.8-1.4-3.4-3.2c-0.6-1.8-1.2-0.5-1.4,1c-0.1,1.5-2.5-0.7-0.9-1.6
			c1.6-1-1.3-3.7-2.1-0.8c-0.8,2.8-4.8,5.3-6.4,3.9c-1.6-1.4-7.4-3.8-10.2-3.8c-2.8,0-1.3-0.3-5.1-2.3c-3.8-2-3.1-4.3-2.7-6.8
			c0.5-2.5-2.2-7.1-4.3-7.3c-1.1-0.1-3.2,1.4-3.7,0.3c-0.4-1.2,2.6-3.3,0.7-5.9c-1.9-2.6-2.8-1.3-2.8,1.5c0,2.8-5,2-4.7,0.5
			c0.3-1.5,2.1,1.3,3.1-4.1c1-5.4,3.7-6.1,2.1-7.5c-1.6-1.4-3.9,1.9-4.3,4.7c-0.3,2.8-2.8,0.7-5,4c-2.2,3.3-3,3.9-4.1,1.5
			c-1.1-2.4,0.9-2.8-1.2-5.9c-2.1-3.1-5.5-3-4.5-4.5c1-1.5,1.2-2.9-0.3-3.3c-1.6-0.3-1.4-1.7-2.9-1.5c-1.6,0.1-2.9-1.2-5.9-0.8
			c-3,0.4-3.5-3.9-6.2-3.2c-2.7,0.7-7.9,0.2-10.6,1.4c-2.8,1.2-6.8,3.6-11.2,3.4c-4.4-0.2-5.8-0.1-7.5,1.5c-1.7,1.6-6,1.8-6.7,4
			c-0.9,2.6-3.5,4.5-9.4,4.1c-5.9-0.3-11.8-0.8-13,0.8c-1.2,1.6-1,2.4-3.6,2.6c-2.6,0.1-3.1,3.2-5,3.2c-1.9,0-7.5,0.6-9.9-1.1
			c-2.4-1.7-1.6-3.2-3.7-3.4c-2.1-0.2-3.2-3.5-1.3-3.5c1.9,0,3.3-1.2,2.9-4.3c-0.4-3.2,1.8-6,1.1-7.1c-0.7-1.1-4.7-7.9-4.5-12.1
			c0.2-4.2-4.1-7.1-4.3-10c-0.1-3-5.6-11-5.1-12c0.5-1.2,2.9,3.9,3.6,2.8c0.7-1.1-2-3.2-1.4-3.8c0.5-0.6,2.2,4.4,3,2.7
			c0.8-1.6-0.6-3.8-2.9-7.1c-2.4-3.3-0.8-5.9,0.9-8.5c1.7-2.6-1-3.5-0.2-6c0.8-2.5,2.6-4.7,2.6-3.9c0,0.8-0.2,4,0.6,3.3
			c0.8-0.7,0.8-3.8,2.7-3.9c1.9-0.1,4.6-1.8,6.3-3.7c1.7-1.9,5.7-3.1,6.1-1.5c0.3,1.5,3.2-0.9,4.8-2.2c1.6-1.3,3.2-0.2,4.8-1.6
			c1.6-1.4,6.6,0.3,9-2.6c2.4-2.9,6.4-6.9,7.3-7.5c0.9-0.6-1.8-4,0.2-6.2c2-2.2,3.9-3.9,3.9-2.1c0,1.8,1.2,4.8,2,4
			c0.8-0.8,2-0.7,1.6-2.7c-0.5-2-2.2-3.5-0.8-4c1.5-0.5,3.9,2.1,3.7,0.4c-0.2-1.8-0.4-5.2,1-5.2c1.5,0,1.5-1.6,2.4-1.8
			c0.9-0.1-0.8-2.1,0.9-2.4c1.7-0.2,4.1,1.5,3.9-0.1c-0.2-1.7,0.1-2.5,1.6-2.5c1.5,0,1.5-1.6,2.9-1.7c1.5-0.1,3.8,2,4.3,3.3
			c0.4,1.3,3.1,0.2,2.8,2.5c-0.3,2.2,1.8,3.2,1.7,1.2c-0.1-2,1.6-2,3.3-0.2c1.7,1.8,4.5,1.6,2.6-0.6c-1.9-2.2-1.8-3.4-0.2-4.5
			c1.6-1,0.5-2.2,2-3.9c1.5-1.6,1.8-4.9,3.6-4.8c1.8,0.1-0.7-2.2,1.5-1.5c2.1,0.7,9.4-0.6,7.7-2.5c-1.7-1.9-3.4-2.9-1.9-3.5
			c1.5-0.6,2.2,2.7,4.7,3c2.5,0.4,8.7,1.7,9.9,3.2c1.1,1.5,3.2-1.5,3.8-1.6c0.6-0.1,1.2,3.1,1.9,2.8c0.7-0.2,0.1-2.5,1.9-2.1
			c1.8,0.3,2.8,1.9,1.1,2.6c-1.7,0.7,0.5,2.2-1.7,3.5c-2.2,1.3-4.2,0.9-3.2,2.5c0.9,1.5,1.2,3.2-0.5,4.5c-1.7,1.3-2.2,1.3-0.5,2.6
			c1.8,1.3,2.6,1.6,3.4,4c0.8,2.4,2.7-0.1,5.2,1.9c2.4,2,3.4,4.4,4.9,4.1c1.6-0.2,4.6,0.7,4.5,2.2c-0.1,1.5,3.5,3.8,6.1,2.7
			c2.7-1.1,2.9-4.2,4.3-6.2c1.3-2,1.2-5.2,1.6-8.1c0.3-2.9-0.9-8.1,0.5-9.4c1.3-1.3-0.4-5,0.7-5.9c1-0.9,1.3-2.7,1.2-4.2
			c-0.1-1.5,2.5-4.6,3.2-3.9c0.8,0.7,0.9,5.2,2.5,6.5c1.6,1.3,2.6,5.8,2.3,8.5c-0.2,2.7-0.3,5.5,1.6,5.3c1.9-0.3,3.8-1.4,3.9-0.1
			c0.1,1.3,3.6,1.9,3.4,4.2c-0.2,2.4,0.8,4.4,0.7,6.5c-0.1,2.1,3,2.9,3,5.5c0,2.6,0.3,5.7,1.2,6.5c0.9,0.8-0.9,3.2,1.2,3.6
			c2.1,0.5,11.8,5.7,11.6,7.2c-0.1,1.5,0,2.6,1.7,3.9c1.7,1.3,2.2,2.7,1.9,3.9c-0.3,1.2,0,4.1,1.2,3.7c1.2-0.5,2.1-1.4,2.9-0.2
			c0.8,1.2,2.4-1,2,1.8c-0.3,2.8,0,5.9,1.8,5.5c1.8-0.3,0.6,2.9,2.5,2.5c1.9-0.5,3.6,2.8,3.9,4c0.3,1.2,1.9,5.7,3.4,4.1
			c1.5-1.5,1.8-1.9,1.2,1.1c-0.6,2.9-0.6,9.4,0.2,8.8c0.8-0.6,2.1,3.2,1.2,3.9C1003.7,110.3,1006,112.6,1004.3,114.4z"/>
		<path class="st4" d="M976.7,187.7c0.6,2,2,8.1,0.2,8.1c-1.8,0-0.2,5.1-1.5,5.8c-1.2,0.7-2.7-1.8-2.9-0.6c-0.2,1.2,0.3,2.8-1.1,2.7
			c-1.4-0.1-0.7,2.5-2.8,2.1c-2.1-0.4-8.3-6.1-6.7-8.2c1.6-2.1-3.6-10.2-2.3-10.6c1.1-0.3,5.6,2.9,8.6,2.6
			C971.2,189.2,976.1,185.7,976.7,187.7z"/>
		<path class="st4" d="M1044.7,156.2c1,2-3.9,4.4-3.9,6.9c0,2.6-3.6,3-3.4,5c0.2,2,2.4,2.8-1.7,2.8c-4,0-4.7,1.9-5.6,3.6
			c-0.9,1.8-1.1,4.6-2.6,5.5c-1.5,1,0.3,2.6-3.4,6.1c-3.7,3.5-8.6,3.5-9.3,2.2c-0.7-1.3-2.1,0-3.6-1.6c-1.5-1.5-3.3-0.1-4.6-2.1
			c-1.7-2.5,1.2-3.9,1.3-5.8c0.1-1.9,4.9-3.9,6.4-6.4c1.5-2.5,11.1-5,13.9-9.6c2.8-4.6,1.8-5.3,4.1-7.4c2.4-2.1,0.5-2.8,2.6-4.6
			c2.1-1.8,3.3,2.9,4.9,2.1c1.7-0.8,2.5-2.5,4-1.3C1045.6,153,1043.7,154.2,1044.7,156.2z"/>
		<path class="st4" d="M1067.2,132.6c-0.9,2.5-0.1,4.7-1.7,4.7c-1.6,0-0.9,3.2-2.1,3.2c-1.2,0-2.5-0.1-3.4,1.2
			c-0.9,1.3,0.2,3.9-1.6,5.5c-1.8,1.6-3,7.5-5.6,8.2c-2.6,0.7-4.3-0.1-4.6-0.7c-0.7-1.1,3.9-6.3,1.4-8.5c-2.4-2.1-8.4-4.2-6.7-6.3
			c1.7-2.1,4.1-1.5,4.1-4.8c0-3.3,2.1-7.4,0.8-7.9c-1.3-0.5-3.1-3.2-3-4.2c0.1-1.1-2.4-2.4-3.5-3.8c-1.1-1.4-3.8-5.6-1.6-5.6
			c2.2,0,6.3,2.1,6.3,4.8c0,2.7,1.9,2.5,1.9,4.8c0,2.3,1,3.6,1.9,3.6c0.9,0,1.4,2,2,1.1c0.7-0.9-1.7-2.8,0.1-2.9
			c1.8-0.1,2.2,2.5,2.2,4.2c0,1.8,1.1,3.2,3,3.2s3.9,2.3,4.9,0.5C1063.3,131.1,1068.1,130.2,1067.2,132.6z"/>
	</g>
	<g>
		<path class="st2" d="M872,102.7h6v7.8h-6v7.9h-8.4v-7.9h-19.3v-6.1l15.2-29.4h9.3l-14.5,27.6h9.2V91.1h8.4V102.7z"/>
		<path class="st2" d="M897,90.1c0.6-0.1,1.3-0.1,2-0.1c8.8,0,15,6.3,15,14.4c0,8.5-7,14.8-16.3,14.8c-9.3,0-16.3-6.2-16.3-14.6
			c0-4,1.5-7.6,4.1-11.5l12-18h10.1L897,90.1z M890.2,104.5c0,4.2,3.3,7.1,7.6,7.1c4.4,0,7.6-2.9,7.6-7.1c0-4.2-3.3-7.1-7.6-7.1
			C893.4,97.4,890.2,100.3,890.2,104.5z"/>
		<path class="st2" d="M949.2,93.7c0,5.3-4.1,9.1-9.7,9.1s-9.6-3.9-9.6-9.1c0-5.2,4.1-9.1,9.6-9.1S949.2,88.5,949.2,93.7z
			 M935.8,93.7c0,2.1,1.6,3.6,3.7,3.6s3.7-1.6,3.7-3.6c0-2.1-1.6-3.6-3.7-3.6S935.8,91.7,935.8,93.7z M944.1,118.4h-7.2l24.2-33.2
			h7.2L944.1,118.4z M975.5,109.9c0,5.2-4.2,9.1-9.7,9.1c-5.5,0-9.6-3.9-9.6-9.1c0-5.2,4.2-9.1,9.6-9.1
			C971.4,100.8,975.5,104.6,975.5,109.9z M962.1,109.9c0,2.1,1.5,3.6,3.7,3.6c2.2,0,3.8-1.5,3.8-3.6c0-2.1-1.6-3.7-3.8-3.7
			C963.7,106.3,962.1,107.8,962.1,109.9z"/>
	</g>
</g>
<g>
	<path d="M258.4,233.2h-10.5v-14h10.4v2.6h-7.6v3.1h7.2v2.6h-7.2v3.2h7.7V233.2z M251.3,218l2-3.1h3.1l-2.6,3.1H251.3z"/>
	<path d="M268.1,225.8h-3.5v3.5c0,1.2,0.6,1.6,1.4,1.6c0.6,0,1.3-0.3,1.8-0.6l1,2c-0.8,0.6-1.8,1-3.2,1c-2.4,0-3.6-1.4-3.6-3.9v-3.7
		h-1.9v-2.3h1.9v-2.9h2.6v2.9h3.5V225.8z"/>
	<path d="M279.8,233.2h-2.5v-1.1c-0.6,0.8-1.6,1.3-2.9,1.3c-2.7,0-4.7-2.2-4.7-5.1c0-2.9,2-5.1,4.7-5.1c1.3,0,2.3,0.5,2.9,1.3v-1.1
		h2.5V233.2z M272.3,228.3c0,1.5,1,2.7,2.5,2.7c1.5,0,2.5-1.1,2.5-2.7s-1-2.7-2.5-2.7C273.3,225.7,272.3,226.9,272.3,228.3z"/>
	<path d="M289.6,225.8h-3.5v3.5c0,1.2,0.6,1.6,1.4,1.6c0.6,0,1.3-0.3,1.8-0.6l1,2c-0.8,0.6-1.8,1-3.2,1c-2.4,0-3.6-1.4-3.6-3.9v-3.7
		h-1.9v-2.3h1.9v-2.9h2.6v2.9h3.5V225.8z"/>
	<path d="M298.8,226.2c-0.8-0.4-2-0.8-3.1-0.8c-1,0-1.5,0.3-1.5,0.9c0,0.6,0.7,0.7,1.6,0.8l0.9,0.1c2.1,0.3,3.3,1.3,3.3,2.9
		c0,2-1.6,3.3-4.4,3.3c-1.3,0-3-0.2-4.3-1.1l1-2c0.8,0.5,1.8,0.9,3.3,0.9c1.2,0,1.8-0.3,1.8-0.9c0-0.5-0.5-0.7-1.6-0.9l-0.8-0.1
		c-2.2-0.3-3.3-1.3-3.3-2.9c0-2,1.5-3.2,4.1-3.2c1.5,0,2.8,0.3,4,0.9L298.8,226.2z"/>
	<path d="M307.6,229h-5.9v-2.3h5.9V229z"/>
	<path d="M322.2,227.6c0,3.9-2.5,5.8-6,5.8s-6-2-6-5.8v-8.4h2.8v8.3c0,2.3,1.3,3.3,3.2,3.3c1.9,0,3.2-1,3.2-3.3v-8.3h2.8V227.6z"/>
	<path d="M334.2,227v6.2h-2.6v-5.3c0-1.4-0.7-2.2-1.9-2.2c-1.1,0-2,0.7-2,2.2v5.3h-2.6v-9.7h2.5v1.1c0.7-1,1.7-1.4,2.8-1.4
		C332.6,223.2,334.2,224.8,334.2,227z"/>
	<path d="M339.8,220.3c0,0.9-0.7,1.7-1.7,1.7s-1.7-0.7-1.7-1.7s0.7-1.7,1.7-1.7S339.8,219.4,339.8,220.3z M339.5,233.2h-2.6v-9.7
		h2.6V233.2z"/>
	<path d="M349.2,226.2c-0.8-0.4-2-0.8-3.1-0.8c-1,0-1.5,0.3-1.5,0.9c0,0.6,0.7,0.7,1.6,0.8l0.9,0.1c2.1,0.3,3.3,1.3,3.3,2.9
		c0,2-1.6,3.3-4.4,3.3c-1.3,0-3-0.2-4.3-1.1l1-2c0.8,0.5,1.8,0.9,3.3,0.9c1.2,0,1.8-0.3,1.8-0.9c0-0.5-0.5-0.7-1.6-0.9l-0.8-0.1
		c-2.2-0.3-3.3-1.3-3.3-2.9c0-2,1.5-3.2,4.1-3.2c1.5,0,2.8,0.3,4,0.9L349.2,226.2z"/>
</g>
<g>
	<path class="st2" d="M278.1,102.9c0,3-1.6,5.1-4.2,6.4c2.9,1.2,4.8,3.4,4.8,6.4c0,5.5-5,8.2-10.3,8.2c-4.2,0-7.7-1.5-9.8-4.1
		l3.2-3.5c1.6,1.7,4,2.7,6.4,2.7c2.7,0,4.9-1.2,4.9-3.6c0-2.4-2.5-3.7-5.5-3.7h-3.3v-4.8h3.3c2.7,0,4.9-1.2,4.9-3.6
		c0-2.3-2-3.5-4.6-3.5s-4.5,1.3-5.7,2.8l-3.4-3.4c1.8-2.5,4.9-4.3,9.3-4.3C274,94.9,278.1,98.1,278.1,102.9z"/>
	<path class="st2" d="M303.4,102.9c0,3.2-1.9,5.2-4.3,6.3c2.8,1.1,5,3.1,5,6.5c0,5.1-4.9,8.1-10.9,8.1s-10.9-3-10.9-8.1
		c0-3.4,2.2-5.4,4.9-6.5c-2.4-1.1-4.3-3.1-4.3-6.3c0-5,4.6-8,10.3-8S303.4,97.9,303.4,102.9z M288,115.3c0,2.5,2.3,3.8,5.1,3.8
		c2.8,0,5.1-1.3,5.1-3.8c0-2.5-2.3-3.8-5.1-3.8C290.3,111.5,288,112.8,288,115.3z M288.6,103.4c0,2.4,2,3.7,4.5,3.7
		c2.5,0,4.5-1.3,4.5-3.7c0-2.3-2-3.6-4.5-3.6C290.6,99.8,288.6,101,288.6,103.4z"/>
	<path class="st2" d="M327.1,107.5c0,3.4-2.7,5.9-6.2,5.9c-3.6,0-6.2-2.5-6.2-5.9c0-3.4,2.6-5.9,6.2-5.9
		C324.5,101.6,327.1,104.1,327.1,107.5z M318.5,107.5c0,1.3,1,2.3,2.4,2.3c1.4,0,2.4-1,2.4-2.3s-1-2.3-2.4-2.3
		C319.5,105.1,318.5,106.1,318.5,107.5z M323.9,123.4h-4.7l15.6-21.4h4.7L323.9,123.4z M344.1,117.9c0,3.4-2.7,5.9-6.3,5.9
		c-3.5,0-6.2-2.5-6.2-5.9c0-3.3,2.7-5.9,6.2-5.9C341.4,112,344.1,114.5,344.1,117.9z M335.5,117.9c0,1.3,1,2.3,2.4,2.3
		c1.4,0,2.4-1,2.4-2.3c0-1.3-1-2.4-2.4-2.4C336.5,115.5,335.5,116.6,335.5,117.9z"/>
</g>
</svg>
