<svg id="Layer_1" data-name="Layer 1" xmlns="http://www.w3.org/2000/svg" viewBox="0 0 530 390"><defs><style>.cls-1{fill:#ed5a35;}.cls-2{fill:#231f20;}</style></defs><title>diversity-stats-e</title><path class="cls-1" d="M160.73,124.47c0,13.32-7.11,23.13-18.81,28.62,13.23,5.22,21.6,15.3,21.6,28.89,0,24.84-22.59,36.81-46.44,36.81-18.9,0-34.47-6.75-44-18.27l14.49-15.93a39.79,39.79,0,0,0,28.62,12.06c12.24,0,22-5.31,22-16.38,0-10.8-11.07-16.47-24.66-16.47H98.9V142.2h14.76c12.24,0,22.05-5.4,22.05-16,0-10.17-9.18-15.75-20.88-15.75a31.68,31.68,0,0,0-25.47,12.78l-15.3-15.39c8.28-11.16,22-19.53,42-19.53C142.64,88.29,160.73,102.69,160.73,124.47Z"/><path class="cls-1" d="M263.69,124.47c0,13.32-7.11,23.13-18.81,28.62,13.23,5.22,21.6,15.3,21.6,28.89,0,24.84-22.59,36.81-46.44,36.81-18.9,0-34.47-6.75-44-18.27l14.49-15.93a39.79,39.79,0,0,0,28.62,12.06c12.24,0,22.05-5.31,22.05-16.38,0-10.8-11.07-16.47-24.66-16.47H201.86V142.2h14.76c12.24,0,22-5.4,22-16,0-10.17-9.18-15.75-20.88-15.75a31.68,31.68,0,0,0-25.47,12.78L177,107.82c8.28-11.16,22-19.53,42-19.53C245.6,88.29,263.69,102.69,263.69,124.47Z"/><path class="cls-1" d="M351.25,122.58c0,19.8-15,34.47-35.18,34.47S281,142.38,281,122.58c0-19.62,15-34.29,35.1-34.29S351.25,103,351.25,122.58Zm-50.3,0c0,9.18,6.48,15.66,15.12,15.66,8.82,0,15.21-6.48,15.21-15.66,0-9-6.39-15.48-15.21-15.48C307.43,107.1,301,113.58,301,122.58Zm31.86,94H309.23l84.5-126h23.49Zm113-32.13c0,19.71-15,34.38-35.19,34.38s-35.1-14.67-35.1-34.38c0-19.44,15-34.38,35.1-34.38S445.84,164.79,445.84,184.41Zm-50.31,0c0,9.09,6.39,15.57,15.12,15.57s15.21-6.48,15.21-15.57-6.39-15.57-15.21-15.57S395.53,175.32,395.53,184.41Z"/><path class="cls-2" d="M44.9,258.88a10.73,10.73,0,0,1-11.07,10.9,10.9,10.9,0,1,1,0-21.79A10.73,10.73,0,0,1,44.9,258.88Zm-18.44,0a7.37,7.37,0,1,0,7.37-7.5A7.24,7.24,0,0,0,26.46,258.88Z"/><path class="cls-2" d="M64.32,251.71h-8v17.62H52.68V251.71H48v-3.28h4.64v-3.56c0-4.38,2-7.66,7-7.66a10.9,10.9,0,0,1,5.74,1.56l-1.3,3a8.55,8.55,0,0,0-4.2-1.21c-2.49,0-3.59,1.58-3.59,4.29v3.56h8Z"/><path class="cls-2" d="M95.63,254a17.11,17.11,0,0,0-6.8-1.74c-2.18,0-3.28.77-3.28,1.93S87.09,255.69,89,256l1.89.29c4.62.7,7.19,2.77,7.19,6.38,0,4.4-3.6,7.24-9.79,7.24-2.9,0-6.71-.56-9.48-2.51L81.11,263a12.45,12.45,0,0,0,7.26,2.09c2.66,0,3.94-.75,3.94-2,0-1-1.08-1.61-3.55-2L87,260.91q-7.38-1-7.37-6.47c0-4.38,3.39-7,9-7a19,19,0,0,1,8.91,2Z"/><path class="cls-2" d="M122.4,258.64a15.78,15.78,0,0,1-.11,1.94H107.18a5.14,5.14,0,0,0,5.48,4.42,8.63,8.63,0,0,0,5.39-2.05l3.36,3.7a13,13,0,0,1-9.08,3.24c-6.54,0-11.07-4.45-11.07-11.16s4.4-11.29,10.78-11.29C118.18,247.44,122.38,252,122.4,258.64Zm-15.2-2h9.44c-.53-2.73-2.18-4.27-4.64-4.27C109.29,252.39,107.7,254,107.2,256.66Z"/><path class="cls-2" d="M147.24,255.76v13.57H141.5V257.61c0-3.08-1.54-4.78-4.16-4.78-2.47,0-4.51,1.61-4.51,4.82v11.68h-5.75V248h5.59v2.51a7.16,7.16,0,0,1,6.27-3.08A7.94,7.94,0,0,1,147.24,255.76Z"/><path class="cls-2" d="M159.6,241a3.67,3.67,0,1,1-3.67-3.7A3.64,3.64,0,0,1,159.6,241Zm-.77,28.29h-5.74V248h5.74Z"/><path class="cls-2" d="M186.6,258.66c0,6.43-4.91,11.23-11.55,11.23s-11.51-4.8-11.51-11.23,4.88-11.22,11.51-11.22S186.6,252.24,186.6,258.66Zm-17.21,0a5.67,5.67,0,1,0,5.66-5.87A5.58,5.58,0,0,0,169.39,258.66Z"/><path class="cls-2" d="M205.85,247.9l-.86,5.7a9.3,9.3,0,0,0-3.48-.68c-2.66,0-4.49,1.63-4.49,4.8v11.61h-5.74V248h5.57v2.34a6.71,6.71,0,0,1,6-2.91A8.92,8.92,0,0,1,205.85,247.9Z"/><path class="cls-2" d="M254.91,255.76v13.57h-5.72V257.61c0-3.08-1.56-4.78-4.16-4.78s-4.51,1.61-4.51,4.82v11.68h-5.74V257.61c0-3.08-1.54-4.78-4.16-4.78-2.47,0-4.51,1.61-4.51,4.82v11.68h-5.75V248H226v2.51a7.16,7.16,0,0,1,6.27-3.08,8.09,8.09,0,0,1,7,3.65,8.05,8.05,0,0,1,7.24-3.65C251.52,247.44,254.91,250.81,254.91,255.76Z"/><path class="cls-2" d="M281.75,269.33h-5.61V267a7.83,7.83,0,0,1-6.38,2.91c-5.88,0-10.32-4.82-10.32-11.23s4.44-11.22,10.32-11.22a7.81,7.81,0,0,1,6.38,2.93V248h5.61Zm-16.44-10.67c0,3.26,2.14,5.88,5.5,5.88s5.5-2.51,5.5-5.88-2.22-5.87-5.5-5.87S265.31,255.41,265.31,258.66Z"/><path class="cls-2" d="M307.93,255.76v13.57h-5.75V257.61c0-3.08-1.54-4.78-4.15-4.78s-4.52,1.61-4.52,4.82v11.68h-5.74V248h5.59v2.51a7.16,7.16,0,0,1,6.27-3.08A8,8,0,0,1,307.93,255.76Z"/><path class="cls-2" d="M334.77,269.33h-5.61V267a7.83,7.83,0,0,1-6.39,2.91c-5.87,0-10.31-4.82-10.31-11.23s4.44-11.22,10.31-11.22a7.82,7.82,0,0,1,6.39,2.93V248h5.61Zm-16.44-10.67c0,3.26,2.13,5.88,5.5,5.88s5.5-2.51,5.5-5.88-2.22-5.87-5.5-5.87S318.33,255.41,318.33,258.66Z"/><path class="cls-2" d="M355.89,250.39V248h5.63v19.57c0,6.84-4.47,11-11.51,11a16.88,16.88,0,0,1-9.33-2.57l2.05-4.69a12.58,12.58,0,0,0,7,2.18c3.56,0,6.07-2,6.07-5.65v-1.5a8,8,0,0,1-6.55,2.88c-5.2,0-9.82-4.33-9.82-10.87s4.62-10.89,9.82-10.89A8.12,8.12,0,0,1,355.89,250.39Zm-10.52,7.94a5.36,5.36,0,1,0,5.37-5.61A5.3,5.3,0,0,0,345.37,258.33Z"/><path class="cls-2" d="M387.37,258.64a18,18,0,0,1-.11,1.94H372.14a5.15,5.15,0,0,0,5.48,4.42A8.61,8.61,0,0,0,383,263l3.37,3.7a13,13,0,0,1-9.09,3.24c-6.53,0-11.07-4.45-11.07-11.16s4.4-11.29,10.78-11.29C383.14,247.44,387.35,252,387.37,258.64Zm-15.21-2h9.44c-.52-2.73-2.18-4.27-4.64-4.27C374.25,252.39,372.67,254,372.16,256.66Z"/><path class="cls-2" d="M426.6,255.76v13.57h-5.73V257.61c0-3.08-1.56-4.78-4.15-4.78s-4.51,1.61-4.51,4.82v11.68h-5.75V257.61c0-3.08-1.54-4.78-4.16-4.78-2.46,0-4.51,1.61-4.51,4.82v11.68h-5.74V248h5.59v2.51a7.16,7.16,0,0,1,6.27-3.08,8.09,8.09,0,0,1,7,3.65,8,8,0,0,1,7.24-3.65C423.21,247.44,426.6,250.81,426.6,255.76Z"/><path class="cls-2" d="M452.27,258.64a18,18,0,0,1-.11,1.94H437a5.15,5.15,0,0,0,5.48,4.42,8.61,8.61,0,0,0,5.39-2.05l3.37,3.7a13,13,0,0,1-9.09,3.24c-6.53,0-11.07-4.45-11.07-11.16s4.4-11.29,10.78-11.29C448,247.44,452.25,252,452.27,258.64Zm-15.21-2h9.44c-.53-2.73-2.18-4.27-4.64-4.27C439.15,252.39,437.57,254,437.06,256.66Z"/><path class="cls-2" d="M477.11,255.76v13.57h-5.75V257.61c0-3.08-1.54-4.78-4.16-4.78-2.46,0-4.51,1.61-4.51,4.82v11.68H457V248h5.59v2.51a7.16,7.16,0,0,1,6.27-3.08A8,8,0,0,1,477.11,255.76Z"/><path class="cls-2" d="M498.2,253.12h-7.72v7.79c0,2.66,1.41,3.63,3.19,3.63a8.26,8.26,0,0,0,4-1.39l2.12,4.49a11.89,11.89,0,0,1-7.07,2.25c-5.28,0-8-3-8-8.52v-8.25h-4.12V248h4.12v-6.33h5.74V248h7.72Z"/><path class="cls-2" d="M17.88,300.7,17,306.4a9.54,9.54,0,0,0-3.48-.68c-2.66,0-4.49,1.63-4.49,4.8v11.62H3.32V300.81H8.88v2.34a6.73,6.73,0,0,1,6-2.91A8.86,8.86,0,0,1,17.88,300.7Z"/><path class="cls-2" d="M42.81,311.46c0,6.43-4.91,11.23-11.55,11.23s-11.51-4.8-11.51-11.23,4.89-11.22,11.51-11.22S42.81,305,42.81,311.46Zm-17.21,0a5.67,5.67,0,1,0,5.66-5.87A5.58,5.58,0,0,0,25.6,311.46Z"/><path class="cls-2" d="M53.24,322.14H47.49V290.45h5.75Z"/><path class="cls-2" d="M79.09,311.44a18,18,0,0,1-.11,1.94H63.86a5.15,5.15,0,0,0,5.48,4.42,8.61,8.61,0,0,0,5.39-2.05l3.37,3.7A13,13,0,0,1,69,322.69c-6.54,0-11.07-4.45-11.07-11.16s4.4-11.29,10.78-11.29C74.86,300.24,79.07,304.8,79.09,311.44Zm-15.21-2h9.44c-.53-2.73-2.18-4.27-4.64-4.27C66,305.19,64.39,306.82,63.88,309.46Z"/><path class="cls-2" d="M98.91,306.75a17.27,17.27,0,0,0-6.8-1.73c-2.18,0-3.28.77-3.28,1.93s1.54,1.54,3.48,1.83l1.89.29c4.62.7,7.19,2.77,7.19,6.38,0,4.4-3.6,7.24-9.79,7.24-2.9,0-6.71-.55-9.48-2.51l2.27-4.36a12.45,12.45,0,0,0,7.26,2.09c2.66,0,3.94-.75,3.94-2,0-1-1.08-1.61-3.55-2l-1.74-.24q-7.38-1-7.37-6.47c0-4.38,3.39-7,9-7a19,19,0,0,1,8.91,2Z"/><path class="cls-2" d="M138.33,322.14h-3.61v-2.8a9.24,9.24,0,0,1-7.37,3.24c-5.87,0-10.45-4.58-10.45-10.9s4.58-10.89,10.45-10.89a9.19,9.19,0,0,1,7.37,3.26v-2.82h3.61Zm-17.75-10.46c0,4.16,2.9,7.53,7.19,7.53s7.17-3.24,7.17-7.53-2.94-7.5-7.17-7.5S120.58,307.53,120.58,311.68Z"/><path class="cls-2" d="M159.43,301.47l-.88,3.55a8.16,8.16,0,0,0-3.59-.82c-3.19,0-5.43,2.45-5.43,6.3v11.64h-3.59V301.23h3.54V304a7.38,7.38,0,0,1,6.12-3.19A9.43,9.43,0,0,1,159.43,301.47Z"/><path class="cls-2" d="M182.13,311.62c0,.46,0,.94-.06,1.34H165.63a6.82,6.82,0,0,0,7.11,6.47,9.8,9.8,0,0,0,6.44-2.49l1.92,2.47a11.89,11.89,0,0,1-8.58,3.17c-6.21,0-10.61-4.38-10.61-10.9s4.38-10.89,10.39-10.89C178,300.79,182.09,305.21,182.13,311.62Zm-16.46-1.56h12.79c-.44-3.7-2.84-6.08-6.23-6.08C168.54,304,166.23,306.49,165.67,310.06Z"/><path class="cls-2" d="M203.51,303.94a8.18,8.18,0,0,1,6.82-3.15c5.15,0,8.72,3.35,8.72,8.36v13h-3.61V310.32c0-3.85-2.11-6.12-5.74-6.12a6,6,0,0,0-6.19,6.21v11.73h-3.58V290.45h3.58Z"/><path class="cls-2" d="M245.07,311.62c0,.46,0,.94-.06,1.34H228.57a6.82,6.82,0,0,0,7.11,6.47,9.8,9.8,0,0,0,6.44-2.49l1.92,2.47a11.89,11.89,0,0,1-8.58,3.17c-6.21,0-10.61-4.38-10.61-10.9s4.38-10.89,10.39-10.89C240.94,300.79,245,305.21,245.07,311.62Zm-16.45-1.56H241.4c-.44-3.7-2.84-6.08-6.23-6.08C231.48,304,229.17,306.49,228.62,310.06Z"/><path class="cls-2" d="M254.68,322.14H251.1V290.45h3.58Z"/><path class="cls-2" d="M278.53,304.05v-13.6h3.61v31.69h-3.61v-2.8a9.24,9.24,0,0,1-7.37,3.24c-5.87,0-10.45-4.58-10.45-10.9s4.58-10.89,10.45-10.89A9.19,9.19,0,0,1,278.53,304.05Zm-14.14,7.63c0,4.16,2.9,7.53,7.19,7.53s7.17-3.24,7.17-7.53-2.94-7.5-7.17-7.5S264.39,307.53,264.39,311.68Z"/><path class="cls-2" d="M322.93,311.68c0,6.32-4.6,10.9-10.45,10.9a9.18,9.18,0,0,1-7.37-3.24v2.8h-3.59V290.45h3.59V304a9.18,9.18,0,0,1,7.37-3.24C318.33,300.79,322.93,305.37,322.93,311.68Zm-18,0c0,4.29,2.95,7.53,7.17,7.53s7.17-3.37,7.17-7.53-2.9-7.5-7.17-7.5S304.89,307.42,304.89,311.68Z"/><path class="cls-2" d="M330.71,331.05h-4l7.73-13.38-9.53-16.44h4l7.52,12.85,7.15-12.85h4Z"/><path class="cls-2" d="M385.08,318.37,391,301.23h3.76l-7.52,20.91H383l-6-17-6,17h-4.23l-7.52-20.91h3.85l5.92,17.1,6-17.1h4.07Z"/><path class="cls-2" d="M420,311.68A11.06,11.06,0,1,1,409,300.79,10.73,10.73,0,0,1,420,311.68Zm-18.44,0a7.37,7.37,0,1,0,7.37-7.5A7.24,7.24,0,0,0,401.58,311.68Z"/><path class="cls-2" d="M460.67,309.15v13h-3.61V310.32c0-3.85-2.11-6.12-5.74-6.12a5.93,5.93,0,0,0-6.16,6.21v11.73h-3.61V310.32c0-3.85-2.11-6.12-5.74-6.12a5.94,5.94,0,0,0-6.18,6.21v11.73H426V301.23h3.56V304a8.27,8.27,0,0,1,6.85-3.17c3.54,0,6.33,1.59,7.72,4.21a8.48,8.48,0,0,1,7.79-4.21C457.13,300.79,460.67,304.14,460.67,309.15Z"/><path class="cls-2" d="M486.7,311.62c0,.46-.05.94-.07,1.34H470.19a6.82,6.82,0,0,0,7.11,6.47,9.85,9.85,0,0,0,6.45-2.49l1.91,2.47a11.88,11.88,0,0,1-8.58,3.17c-6.2,0-10.61-4.38-10.61-10.9s4.38-10.89,10.39-10.89C482.56,300.79,486.65,305.21,486.7,311.62Zm-16.46-1.56H483c-.44-3.7-2.84-6.08-6.23-6.08C473.1,304,470.79,306.49,470.24,310.06Z"/><path class="cls-2" d="M511.84,309.15v13h-3.61V310.32c0-3.85-2.11-6.12-5.74-6.12a5.94,5.94,0,0,0-6.18,6.21v11.73h-3.59V301.23h3.57V304a8.24,8.24,0,0,1,6.84-3.17C508.28,300.79,511.84,304.14,511.84,309.15Z"/><path class="cls-2" d="M520,296.33v-5.88h2.77v5.88l5.59-1.83.84,2.64L523.61,299l3.48,4.75-2.25,1.63-3.45-4.76-3.46,4.76-2.24-1.63,3.45-4.75-5.56-1.83.83-2.64Z"/></svg>