<svg id="Layer_1" data-name="Layer 1" xmlns="http://www.w3.org/2000/svg" viewBox="0 0 530 390"><defs><style>.cls-1{fill:#ed5a35;}.cls-2{fill:#231f20;}</style></defs><title>diversity-stats-e</title><path class="cls-1" d="M160.33,170.82h17.55V193.5H160.33v23H136v-23H80.14V175.86l44.19-85.23h27l-42.12,80.19H136V137.25h24.3Z"/><path class="cls-1" d="M299.47,153.54c0,40.77-24.3,65.25-54.36,65.25s-54.27-24.48-54.27-65.25S215,88.29,245.11,88.29,299.47,112.77,299.47,153.54Zm-83.34,0c0,27.54,12.87,41.94,29,41.94s29-14.4,29-41.94-12.78-41.94-29-41.94S216.13,126,216.13,153.54Z"/><path class="cls-1" d="M370.93,144.81c0,15.3-12,26.55-28.08,26.55s-28-11.25-28-26.55,11.88-26.55,28-26.55S370.93,129.6,370.93,144.81Zm-38.88,0c0,6,4.59,10.53,10.8,10.53s10.8-4.5,10.8-10.53-4.59-10.53-10.8-10.53A10.44,10.44,0,0,0,332.05,144.81Zm24.21,71.73h-21l70.11-96.39h21Zm91.07-24.75c0,15.21-12.05,26.55-28.16,26.55-15.93,0-28-11.34-28-26.55,0-15,12.06-26.55,28-26.55C435.28,165.24,447.33,176.49,447.33,191.79Zm-38.87,0a10.31,10.31,0,0,0,10.71,10.53c6.38,0,10.88-4.5,10.88-10.53s-4.5-10.62-10.88-10.62A10.38,10.38,0,0,0,408.46,191.79Z"/><path class="cls-2" d="M148.88,258.88A11.06,11.06,0,1,1,137.81,248,10.73,10.73,0,0,1,148.88,258.88Zm-18.44,0a7.37,7.37,0,1,0,7.37-7.5A7.24,7.24,0,0,0,130.44,258.88Z"/><path class="cls-2" d="M168.3,251.71h-8v17.63h-3.61V251.71H152v-3.28h4.64v-3.56c0-4.38,2-7.66,7-7.66a10.9,10.9,0,0,1,5.74,1.56l-1.3,3a8.55,8.55,0,0,0-4.2-1.21c-2.49,0-3.59,1.58-3.59,4.29v3.56h8Z"/><path class="cls-2" d="M205.64,258.88A11.06,11.06,0,1,1,194.57,248,10.73,10.73,0,0,1,205.64,258.88Zm-18.44,0a7.37,7.37,0,1,0,7.37-7.5A7.24,7.24,0,0,0,187.2,258.88Z"/><path class="cls-2" d="M230.52,260.58c0,6.31-4.53,9.2-9.53,9.2s-9.55-2.89-9.55-9.2V248.43h3.61v11.82c0,4.27,2.53,6.16,5.94,6.16s5.92-1.89,5.92-6.16V248.43h3.61Z"/><path class="cls-2" d="M251.4,248.67l-.88,3.55a8.16,8.16,0,0,0-3.59-.82c-3.19,0-5.44,2.45-5.44,6.3v11.64h-3.58V248.43h3.54v2.75a7.36,7.36,0,0,1,6.12-3.19A9.49,9.49,0,0,1,251.4,248.67Z"/><path class="cls-2" d="M280.13,238.53c6.49,0,11.22,2.27,11.22,8.19a6.86,6.86,0,0,1-4.4,6.75,7.36,7.36,0,0,1,5.08,7.26c0,6-4.42,8.61-11.29,8.61H268.2V238.53Zm-8.06,3.63v9.77H280c4.07,0,7.28-.9,7.28-4.93s-3.26-4.84-7.33-4.84Zm0,13.38v10.17h8.5c4.44,0,7.39-1.13,7.39-5.13s-2.95-5-7.39-5Z"/><path class="cls-2" d="M319,258.88A11.06,11.06,0,1,1,307.93,248,10.73,10.73,0,0,1,319,258.88Zm-18.44,0a7.38,7.38,0,1,0,7.37-7.5A7.24,7.24,0,0,0,300.56,258.88Z"/><path class="cls-2" d="M344.87,269.34h-3.61v-2.8a9.24,9.24,0,0,1-7.37,3.24c-5.87,0-10.45-4.58-10.45-10.9S328,248,333.89,248a9.19,9.19,0,0,1,7.37,3.26v-2.82h3.61Zm-17.75-10.46c0,4.16,2.9,7.53,7.19,7.53s7.17-3.24,7.17-7.53-2.94-7.5-7.17-7.5S327.12,254.73,327.12,258.88Z"/><path class="cls-2" d="M366,248.67l-.88,3.55a8.16,8.16,0,0,0-3.59-.82c-3.19,0-5.43,2.45-5.43,6.3v11.64h-3.59V248.43H356v2.75a7.38,7.38,0,0,1,6.12-3.19A9.43,9.43,0,0,1,366,248.67Z"/><path class="cls-2" d="M386.28,251.25v-13.6h3.6v31.69h-3.6v-2.8a9.26,9.26,0,0,1-7.37,3.24c-5.88,0-10.46-4.58-10.46-10.9S373,248,378.91,248A9.21,9.21,0,0,1,386.28,251.25Zm-14.15,7.63c0,4.16,2.9,7.53,7.19,7.53s7.18-3.24,7.18-7.53-2.95-7.5-7.18-7.5S372.13,254.73,372.13,258.88Z"/><path class="cls-2" d="M170.45,312.14h-3.61v-2.8a9.24,9.24,0,0,1-7.37,3.24c-5.88,0-10.45-4.58-10.45-10.9s4.57-10.89,10.45-10.89a9.19,9.19,0,0,1,7.37,3.26v-2.82h3.61Zm-17.76-10.46c0,4.16,2.91,7.53,7.2,7.53s7.17-3.24,7.17-7.53-2.95-7.5-7.17-7.5S152.69,297.53,152.69,301.68Z"/><path class="cls-2" d="M191.54,291.47l-.87,3.55a8.16,8.16,0,0,0-3.59-.82c-3.19,0-5.44,2.45-5.44,6.3v11.64h-3.58V291.23h3.54V294a7.36,7.36,0,0,1,6.12-3.19A9.41,9.41,0,0,1,191.54,291.47Z"/><path class="cls-2" d="M214.25,301.62c0,.46,0,.94-.07,1.34H197.75a6.81,6.81,0,0,0,7.11,6.47,9.8,9.8,0,0,0,6.44-2.49l1.92,2.47a11.92,11.92,0,0,1-8.59,3.17c-6.2,0-10.6-4.38-10.6-10.9s4.38-10.89,10.39-10.89C210.11,290.79,214.21,295.22,214.25,301.62Zm-16.46-1.56h12.79c-.44-3.7-2.84-6.08-6.23-6.08C200.65,294,198.34,296.49,197.79,300.06Z"/><path class="cls-2" d="M255.17,305.78l4.58-15h6l-7.21,21.33H252l-4.73-14.42-4.69,14.42h-6.51l-7.22-21.33H235l4.55,14.9,4.78-14.9h6.05Z"/><path class="cls-2" d="M290.63,301.46c0,6.43-4.9,11.23-11.55,11.23s-11.51-4.8-11.51-11.23,4.89-11.22,11.51-11.22S290.63,295,290.63,301.46Zm-17.2,0a5.67,5.67,0,1,0,5.65-5.87A5.57,5.57,0,0,0,273.43,301.46Z"/><path class="cls-2" d="M329.86,298.56v13.58h-5.72V300.41c0-3.08-1.56-4.78-4.16-4.78s-4.51,1.61-4.51,4.82v11.69h-5.74V300.41c0-3.08-1.54-4.78-4.16-4.78-2.46,0-4.51,1.61-4.51,4.82v11.69h-5.74V290.81h5.58v2.51a7.18,7.18,0,0,1,6.28-3.08,8.07,8.07,0,0,1,7,3.66,8,8,0,0,1,7.24-3.66C326.47,290.24,329.86,293.61,329.86,298.56Z"/><path class="cls-2" d="M355.53,301.44a15.78,15.78,0,0,1-.11,1.94H340.31a5.14,5.14,0,0,0,5.48,4.42,8.63,8.63,0,0,0,5.39-2.05l3.36,3.7a13,13,0,0,1-9.08,3.24c-6.54,0-11.07-4.45-11.07-11.16s4.4-11.29,10.78-11.29C351.31,290.24,355.51,294.8,355.53,301.44Zm-15.2-2h9.44c-.53-2.73-2.18-4.27-4.65-4.27C342.42,295.19,340.83,296.82,340.33,299.46Z"/><path class="cls-2" d="M380.37,298.56v13.58h-5.74V300.41c0-3.08-1.54-4.78-4.16-4.78s-4.51,1.61-4.51,4.82v11.69h-5.74V290.81h5.58v2.51a7.17,7.17,0,0,1,6.28-3.08A7.94,7.94,0,0,1,380.37,298.56Z"/></svg>