<svg id="Layer_1" data-name="Layer 1" xmlns="http://www.w3.org/2000/svg" viewBox="0 0 530 390"><defs><style>.cls-1{fill:#ed5a35;}.cls-2{fill:#231f20;}</style></defs><title>diversity-stats-f</title><path class="cls-1" d="M130.41,170.82H148V193.5H130.41v23h-24.3v-23H50.22V175.86L94.41,90.63h27L79.29,170.82h26.82V137.25h24.3Z"/><path class="cls-1" d="M269.55,153.54c0,40.77-24.3,65.25-54.36,65.25s-54.27-24.48-54.27-65.25S185,88.29,215.19,88.29,269.55,112.77,269.55,153.54Zm-83.34,0c0,27.54,12.87,41.94,29,41.94s29-14.4,29-41.94-12.78-41.94-29-41.94S186.21,126,186.21,153.54Z"/><path class="cls-1" d="M400.23,122.58c0,19.8-15,34.47-35.19,34.47s-35.1-14.67-35.1-34.47c0-19.62,15-34.29,35.1-34.29S400.23,103,400.23,122.58Zm-50.31,0c0,9.18,6.48,15.66,15.12,15.66,8.82,0,15.21-6.48,15.21-15.66,0-9-6.39-15.48-15.21-15.48C356.4,107.1,349.92,113.58,349.92,122.58Zm31.86,94H358.2l84.51-126H466.2Zm113-32.13c0,19.71-15,34.38-35.18,34.38s-35.1-14.67-35.1-34.38c0-19.44,15-34.38,35.1-34.38S494.81,164.79,494.81,184.41Zm-50.3,0c0,9.09,6.39,15.57,15.12,15.57s15.2-6.48,15.2-15.57-6.38-15.57-15.2-15.57S444.51,175.32,444.51,184.41Z"/><path class="cls-2" d="M34.43,251.25v-13.6H38v31.69H34.43v-2.8a9.24,9.24,0,0,1-7.37,3.24c-5.87,0-10.45-4.58-10.45-10.9S21.19,248,27.06,248A9.19,9.19,0,0,1,34.43,251.25Zm-14.14,7.63c0,4.16,2.9,7.53,7.19,7.53s7.17-3.24,7.17-7.53-2.95-7.5-7.17-7.5S20.29,254.73,20.29,258.88Z"/><path class="cls-2" d="M64.29,258.82c0,.46-.05.94-.07,1.34H47.78a6.81,6.81,0,0,0,7.11,6.47,9.83,9.83,0,0,0,6.45-2.49l1.91,2.47a11.88,11.88,0,0,1-8.58,3.17c-6.2,0-10.6-4.38-10.6-10.9S48.44,248,54.45,248C60.15,248,64.24,252.42,64.29,258.82Zm-16.46-1.56H60.61c-.44-3.7-2.84-6.08-6.22-6.08C50.69,251.18,48.38,253.69,47.83,257.26Z"/><path class="cls-2" d="M84.39,253.08a12.93,12.93,0,0,0-6.73-1.94c-2.86,0-4.71,1.21-4.71,3.1,0,1.67,1.52,2.44,4,2.75l2.42.31c4.45.59,7.06,2.46,7.06,5.92,0,4-3.56,6.56-9.26,6.56a15,15,0,0,1-8.8-2.69l1.67-2.68a10.89,10.89,0,0,0,7.15,2.22c3.43,0,5.55-1.12,5.55-3.19,0-1.54-1.37-2.51-4.21-2.86l-2.42-.29c-4.68-.57-7-2.68-7-5.85,0-4,3.32-6.43,8.41-6.43A15.1,15.1,0,0,1,86,250.28Z"/><path class="cls-2" d="M138.58,256.35v13H135V257.52c0-3.85-2.11-6.12-5.74-6.12a5.93,5.93,0,0,0-6.16,6.21v11.73h-3.61V257.52c0-3.85-2.11-6.12-5.74-6.12a5.94,5.94,0,0,0-6.18,6.21v11.73H104V248.43h3.56v2.73a8.27,8.27,0,0,1,6.85-3.17c3.54,0,6.33,1.59,7.72,4.21a8.48,8.48,0,0,1,7.79-4.21C135,248,138.58,251.34,138.58,256.35Z"/><path class="cls-2" d="M164.6,258.82c0,.46,0,.94-.06,1.34H148.1a6.81,6.81,0,0,0,7.11,6.47,9.85,9.85,0,0,0,6.45-2.49l1.91,2.47a11.89,11.89,0,0,1-8.58,3.17c-6.21,0-10.61-4.38-10.61-10.9S148.76,248,154.77,248C160.47,248,164.56,252.42,164.6,258.82Zm-16.45-1.56h12.78c-.44-3.7-2.84-6.08-6.23-6.08C151,251.18,148.7,253.69,148.15,257.26Z"/><path class="cls-2" d="M205.26,256.35v13h-3.61V257.52c0-3.85-2.11-6.12-5.74-6.12a5.93,5.93,0,0,0-6.16,6.21v11.73h-3.61V257.52c0-3.85-2.11-6.12-5.74-6.12a5.94,5.94,0,0,0-6.18,6.21v11.73h-3.59V248.43h3.56v2.73A8.27,8.27,0,0,1,181,248c3.54,0,6.33,1.59,7.72,4.21a8.48,8.48,0,0,1,7.79-4.21C201.72,248,205.26,251.34,205.26,256.35Z"/><path class="cls-2" d="M234.06,258.88c0,6.32-4.6,10.9-10.45,10.9a9.17,9.17,0,0,1-7.37-3.24v2.8h-3.59V237.65h3.59v13.58a9.17,9.17,0,0,1,7.37-3.24C229.46,248,234.06,252.57,234.06,258.88Zm-18,0c0,4.29,2.94,7.53,7.17,7.53s7.17-3.37,7.17-7.53-2.9-7.5-7.17-7.5S216,254.62,216,258.88Z"/><path class="cls-2" d="M253.57,248.67l-.88,3.55a8.16,8.16,0,0,0-3.59-.82c-3.19,0-5.43,2.45-5.43,6.3v11.64h-3.59V248.43h3.54v2.75a7.39,7.39,0,0,1,6.12-3.19A9.43,9.43,0,0,1,253.57,248.67Z"/><path class="cls-2" d="M276.28,258.82c0,.46,0,.94-.07,1.34H259.77a6.81,6.81,0,0,0,7.11,6.47,9.85,9.85,0,0,0,6.45-2.49l1.91,2.47a11.89,11.89,0,0,1-8.58,3.17c-6.2,0-10.61-4.38-10.61-10.9S260.43,248,266.44,248C272.14,248,276.23,252.42,276.28,258.82Zm-16.46-1.56H272.6c-.44-3.7-2.84-6.08-6.23-6.08C262.68,251.18,260.37,253.69,259.82,257.26Z"/><path class="cls-2" d="M296.38,253.08a12.93,12.93,0,0,0-6.73-1.94c-2.86,0-4.71,1.21-4.71,3.1,0,1.67,1.52,2.44,4.05,2.75l2.42.31c4.44.59,7.06,2.46,7.06,5.92,0,4-3.56,6.56-9.26,6.56a14.93,14.93,0,0,1-8.8-2.69l1.67-2.68a10.89,10.89,0,0,0,7.15,2.22c3.43,0,5.55-1.12,5.55-3.19,0-1.54-1.37-2.51-4.21-2.86l-2.42-.29c-4.68-.57-6.95-2.68-6.95-5.85,0-4,3.32-6.43,8.41-6.43a15,15,0,0,1,8.33,2.27Z"/><path class="cls-2" d="M332.18,251.25v-13.6h3.6v31.69h-3.6v-2.8a9.26,9.26,0,0,1-7.38,3.24c-5.87,0-10.45-4.58-10.45-10.9S318.93,248,324.8,248A9.22,9.22,0,0,1,332.18,251.25ZM318,258.88c0,4.16,2.9,7.53,7.19,7.53s7.18-3.24,7.18-7.53-2.95-7.5-7.18-7.5S318,254.73,318,258.88Z"/><path class="cls-2" d="M362.25,260.58c0,6.31-4.53,9.2-9.53,9.2s-9.55-2.89-9.55-9.2V248.43h3.61v11.82c0,4.27,2.53,6.16,5.94,6.16s5.92-1.89,5.92-6.16V248.43h3.61Z"/><path class="cls-2" d="M398.44,251.29l-2.31,2.45a7.66,7.66,0,0,0-5.55-2.36c-4,0-7.08,3.13-7.08,7.5s3.06,7.53,7.08,7.53a8.13,8.13,0,0,0,5.64-2.4l2.22,2.49a10.2,10.2,0,0,1-7.77,3.28,10.9,10.9,0,0,1,0-21.79A10.11,10.11,0,0,1,398.44,251.29Z"/><path class="cls-2" d="M424.11,258.88A11.06,11.06,0,1,1,413,248,10.73,10.73,0,0,1,424.11,258.88Zm-18.44,0a7.38,7.38,0,1,0,7.37-7.5A7.24,7.24,0,0,0,405.67,258.88Z"/><path class="cls-2" d="M449.26,256.35v13h-3.61V257.52c0-3.85-2.11-6.12-5.74-6.12a6,6,0,0,0-6.19,6.21v11.73h-3.58V248.43h3.56v2.73a8.25,8.25,0,0,1,6.84-3.17C445.69,248,449.26,251.34,449.26,256.35Z"/><path class="cls-2" d="M470.73,253.08a12.93,12.93,0,0,0-6.73-1.94c-2.86,0-4.71,1.21-4.71,3.1,0,1.67,1.52,2.44,4,2.75l2.42.31c4.44.59,7.06,2.46,7.06,5.92,0,4-3.57,6.56-9.26,6.56a15,15,0,0,1-8.81-2.69l1.68-2.68a10.89,10.89,0,0,0,7.15,2.22c3.43,0,5.54-1.12,5.54-3.19,0-1.54-1.36-2.51-4.2-2.86l-2.42-.29c-4.69-.57-6.95-2.68-6.95-5.85,0-4,3.32-6.43,8.4-6.43a15.08,15.08,0,0,1,8.34,2.27Z"/><path class="cls-2" d="M497.15,258.82c0,.46,0,.94-.06,1.34H480.65a6.81,6.81,0,0,0,7.11,6.47,9.8,9.8,0,0,0,6.44-2.49l1.92,2.47a11.89,11.89,0,0,1-8.58,3.17c-6.21,0-10.61-4.38-10.61-10.9S481.31,248,487.32,248C493,248,497.11,252.42,497.15,258.82Zm-16.46-1.56h12.79c-.44-3.7-2.84-6.08-6.23-6.08C483.55,251.18,481.24,253.69,480.69,257.26Z"/><path class="cls-2" d="M507.51,241.08a2.51,2.51,0,0,1-2.57,2.51,2.47,2.47,0,0,1-2.53-2.51,2.51,2.51,0,0,1,2.53-2.57A2.54,2.54,0,0,1,507.51,241.08Zm-.75,28.26h-3.58V248.43h3.58Z"/><path class="cls-2" d="M518,269.34h-3.59V237.65H518Z"/><path class="cls-2" d="M59,304.05v-13.6h3.6v31.69H59v-2.8a9.26,9.26,0,0,1-7.38,3.24c-5.87,0-10.45-4.58-10.45-10.9s4.58-10.89,10.45-10.89A9.22,9.22,0,0,1,59,304.05Zm-14.15,7.63c0,4.16,2.9,7.53,7.19,7.53s7.18-3.24,7.18-7.53-2.95-7.5-7.18-7.5S44.86,307.53,44.86,311.68Z"/><path class="cls-2" d="M74.56,290.45l-2.38,11.33h-3.1l1.27-11.33Z"/><path class="cls-2" d="M98.47,322.14h-3.6v-2.8a9.28,9.28,0,0,1-7.38,3.24C81.62,322.58,77,318,77,311.68s4.58-10.89,10.45-10.89a9.23,9.23,0,0,1,7.38,3.26v-2.82h3.6ZM80.72,311.68c0,4.16,2.9,7.53,7.19,7.53s7.17-3.24,7.17-7.53-2.94-7.5-7.17-7.5S80.72,307.53,80.72,311.68Z"/><path class="cls-2" d="M122.32,304.05v-13.6h3.61v31.69h-3.61v-2.8a9.24,9.24,0,0,1-7.37,3.24c-5.88,0-10.45-4.58-10.45-10.9s4.57-10.89,10.45-10.89A9.19,9.19,0,0,1,122.32,304.05Zm-14.15,7.63c0,4.16,2.91,7.53,7.2,7.53s7.17-3.24,7.17-7.53-3-7.5-7.17-7.5S108.17,307.53,108.17,311.68Z"/><path class="cls-2" d="M168.17,309.15v13h-3.61V310.32c0-3.85-2.11-6.12-5.74-6.12a5.93,5.93,0,0,0-6.16,6.21v11.73h-3.61V310.32c0-3.85-2.11-6.12-5.74-6.12a6,6,0,0,0-6.19,6.21v11.73h-3.58V301.23h3.56V304a8.27,8.27,0,0,1,6.85-3.17c3.54,0,6.33,1.59,7.72,4.21a8.47,8.47,0,0,1,7.79-4.21C164.63,300.79,168.17,304.14,168.17,309.15Z"/><path class="cls-2" d="M179.89,293.88a2.51,2.51,0,0,1-2.57,2.51,2.47,2.47,0,0,1-2.53-2.51,2.51,2.51,0,0,1,2.53-2.57A2.54,2.54,0,0,1,179.89,293.88Zm-.75,28.26h-3.58V301.23h3.58Z"/><path class="cls-2" d="M205.88,309.15v13h-3.61V310.32c0-3.85-2.11-6.12-5.75-6.12a5.94,5.94,0,0,0-6.18,6.21v11.73h-3.59V301.23h3.57V304a8.25,8.25,0,0,1,6.84-3.17C202.31,300.79,205.88,304.14,205.88,309.15Z"/><path class="cls-2" d="M217.6,293.88a2.51,2.51,0,0,1-2.58,2.51,2.47,2.47,0,0,1-2.53-2.51,2.51,2.51,0,0,1,2.53-2.57A2.55,2.55,0,0,1,217.6,293.88Zm-.75,28.26h-3.59V301.23h3.59Z"/><path class="cls-2" d="M238.54,305.88a12.93,12.93,0,0,0-6.73-1.94c-2.86,0-4.71,1.21-4.71,3.1,0,1.67,1.52,2.44,4.05,2.75l2.42.31c4.45.59,7.06,2.46,7.06,5.92,0,4-3.56,6.56-9.26,6.56a15,15,0,0,1-8.8-2.69l1.67-2.68a10.89,10.89,0,0,0,7.15,2.22c3.44,0,5.55-1.12,5.55-3.19,0-1.54-1.37-2.51-4.2-2.86l-2.43-.29c-4.68-.57-6.95-2.68-6.95-5.85,0-4,3.32-6.43,8.41-6.43a15.19,15.19,0,0,1,8.34,2.27Z"/><path class="cls-2" d="M260.52,304.51h-8.78V314.7c0,3.15,1.68,4.51,3.94,4.51A7.75,7.75,0,0,0,260,317.8l1.69,2.71a10.54,10.54,0,0,1-6.27,2.07c-4.53,0-7.24-2.49-7.24-7.82V304.51h-4.46v-3.28h4.46v-6.55h3.61v6.55h8.78Z"/><path class="cls-2" d="M279.77,301.47l-.88,3.55a8.16,8.16,0,0,0-3.59-.82c-3.19,0-5.43,2.45-5.43,6.3v11.64h-3.59V301.23h3.55V304a7.36,7.36,0,0,1,6.11-3.19A9.43,9.43,0,0,1,279.77,301.47Z"/><path class="cls-2" d="M303.69,322.14h-3.61v-2.8a9.24,9.24,0,0,1-7.37,3.24c-5.88,0-10.46-4.58-10.46-10.9s4.58-10.89,10.46-10.89a9.19,9.19,0,0,1,7.37,3.26v-2.82h3.61Zm-17.76-10.46c0,4.16,2.9,7.53,7.19,7.53s7.18-3.24,7.18-7.53-2.95-7.5-7.18-7.5S285.93,307.53,285.93,311.68Z"/><path class="cls-2" d="M325.49,304.51h-8.78V314.7c0,3.15,1.67,4.51,3.94,4.51a7.75,7.75,0,0,0,4.27-1.41l1.69,2.71a10.59,10.59,0,0,1-6.27,2.07c-4.53,0-7.24-2.49-7.24-7.82V304.51h-4.47v-3.28h4.47v-6.55h3.61v6.55h8.78Z"/><path class="cls-2" d="M335.58,293.88a2.51,2.51,0,0,1-2.57,2.51,2.47,2.47,0,0,1-2.53-2.51,2.51,2.51,0,0,1,2.53-2.57A2.54,2.54,0,0,1,335.58,293.88Zm-.75,28.26h-3.58V301.23h3.58Z"/><path class="cls-2" d="M363,311.68a11.06,11.06,0,1,1-11.06-10.89A10.73,10.73,0,0,1,363,311.68Zm-18.43,0a7.37,7.37,0,1,0,7.37-7.5A7.24,7.24,0,0,0,344.54,311.68Z"/><path class="cls-2" d="M388.12,309.15v13h-3.61V310.32c0-3.85-2.11-6.12-5.74-6.12a5.94,5.94,0,0,0-6.18,6.21v11.73H369V301.23h3.56V304a8.27,8.27,0,0,1,6.85-3.17C384.56,300.79,388.12,304.14,388.12,309.15Z"/><path class="cls-2" d="M421.36,305.88a12.93,12.93,0,0,0-6.73-1.94c-2.86,0-4.71,1.21-4.71,3.1,0,1.67,1.52,2.44,4.05,2.75l2.42.31c4.44.59,7.06,2.46,7.06,5.92,0,4-3.56,6.56-9.26,6.56a14.93,14.93,0,0,1-8.8-2.69l1.67-2.68a10.89,10.89,0,0,0,7.15,2.22c3.43,0,5.54-1.12,5.54-3.19,0-1.54-1.36-2.51-4.2-2.86l-2.42-.29c-4.69-.57-6.95-2.68-6.95-5.85,0-4,3.32-6.43,8.4-6.43a15.16,15.16,0,0,1,8.34,2.27Z"/><path class="cls-2" d="M449.67,311.68a11.06,11.06,0,1,1-11.06-10.89A10.73,10.73,0,0,1,449.67,311.68Zm-18.43,0a7.37,7.37,0,1,0,7.37-7.5A7.24,7.24,0,0,0,431.24,311.68Z"/><path class="cls-2" d="M474.82,309.15v13h-3.61V310.32c0-3.85-2.11-6.12-5.74-6.12a5.94,5.94,0,0,0-6.18,6.21v11.73H455.7V301.23h3.56V304a8.27,8.27,0,0,1,6.85-3.17C471.26,300.79,474.82,304.14,474.82,309.15Z"/><path class="cls-2" d="M496.12,304.51h-8.78V314.7c0,3.15,1.67,4.51,3.94,4.51a7.69,7.69,0,0,0,4.26-1.41l1.7,2.71a10.59,10.59,0,0,1-6.27,2.07c-4.54,0-7.24-2.49-7.24-7.82V304.51h-4.47v-3.28h4.47v-6.55h3.61v6.55h8.78Z"/><path class="cls-2" d="M165.13,355.84V343.25h5.72v31.69h-5.61v-2.36a7.81,7.81,0,0,1-6.38,2.91c-5.88,0-10.32-4.82-10.32-11.23S153,353,158.86,353A7.76,7.76,0,0,1,165.13,355.84Zm-10.71,8.42c0,3.26,2.13,5.88,5.5,5.88s5.5-2.51,5.5-5.88-2.23-5.87-5.5-5.87S154.42,361,154.42,364.26Z"/><path class="cls-2" d="M196.7,364.24a15.78,15.78,0,0,1-.11,1.94H181.47A5.15,5.15,0,0,0,187,370.6a8.61,8.61,0,0,0,5.39-2.05l3.37,3.7a13,13,0,0,1-9.09,3.24c-6.53,0-11.06-4.45-11.06-11.16S180,353,186.34,353C192.48,353,196.68,357.6,196.7,364.24Zm-15.2-2h9.44c-.53-2.73-2.18-4.27-4.65-4.27C183.59,358,182,359.62,181.5,362.26Z"/><path class="cls-2" d="M216.52,359.56a17.06,17.06,0,0,0-6.8-1.74c-2.18,0-3.28.77-3.28,1.93s1.54,1.54,3.48,1.83l1.89.29c4.62.7,7.2,2.77,7.2,6.38,0,4.4-3.61,7.24-9.79,7.24-2.91,0-6.71-.55-9.49-2.51l2.27-4.36a12.49,12.49,0,0,0,7.26,2.09c2.66,0,3.94-.75,3.94-2,0-1-1.08-1.61-3.54-2l-1.74-.24c-4.93-.68-7.37-2.84-7.37-6.47,0-4.38,3.39-7,9-7a19.05,19.05,0,0,1,8.91,2Z"/><path class="cls-2" d="M248.51,358.72h-6.62v16.22h-5.75V358.72h-4v-5.11h4V351c0-5,2.67-8.27,7.64-8.27a11.33,11.33,0,0,1,6.56,1.92l-2.29,4.46a7.8,7.8,0,0,0-3.66-1c-1.64,0-2.5,1-2.5,3v2.57h6.62Z"/><path class="cls-2" d="M272,364.24a15.78,15.78,0,0,1-.11,1.94H256.74a5.14,5.14,0,0,0,5.47,4.42,8.64,8.64,0,0,0,5.4-2.05l3.36,3.7a13,13,0,0,1-9.09,3.24c-6.53,0-11.06-4.45-11.06-11.16S255.22,353,261.6,353C267.74,353,271.94,357.6,272,364.24Zm-15.2-2h9.44c-.53-2.73-2.18-4.27-4.65-4.27C258.85,358,257.26,359.62,256.76,362.26Z"/><path class="cls-2" d="M311.19,361.36v13.58h-5.72V363.21c0-3.08-1.56-4.78-4.16-4.78s-4.51,1.61-4.51,4.82v11.69h-5.74V363.21c0-3.08-1.54-4.78-4.16-4.78-2.47,0-4.51,1.61-4.51,4.82v11.69h-5.74V353.61h5.58v2.51A7.16,7.16,0,0,1,288.5,353a8.09,8.09,0,0,1,7.05,3.66,8,8,0,0,1,7.24-3.66C307.8,353,311.19,356.41,311.19,361.36Z"/><path class="cls-2" d="M351.58,361.36v13.58h-5.72V363.21c0-3.08-1.56-4.78-4.16-4.78s-4.51,1.61-4.51,4.82v11.69h-5.74V363.21c0-3.08-1.54-4.78-4.16-4.78-2.46,0-4.51,1.61-4.51,4.82v11.69H317V353.61h5.59v2.51A7.15,7.15,0,0,1,328.9,353a8.07,8.07,0,0,1,7,3.66,8,8,0,0,1,7.24-3.66C348.19,353,351.58,356.41,351.58,361.36Z"/><path class="cls-2" d="M377.25,364.24a15.78,15.78,0,0,1-.11,1.94H362a5.14,5.14,0,0,0,5.48,4.42,8.63,8.63,0,0,0,5.39-2.05l3.36,3.7a13,13,0,0,1-9.08,3.24c-6.54,0-11.07-4.45-11.07-11.16S360.51,353,366.89,353C373,353,377.23,357.6,377.25,364.24Zm-15.2-2h9.44c-.53-2.73-2.18-4.27-4.64-4.27C364.14,358,362.56,359.62,362.05,362.26Z"/><path class="cls-2" d="M397.08,359.56a17.15,17.15,0,0,0-6.8-1.74c-2.18,0-3.28.77-3.28,1.93s1.54,1.54,3.47,1.83l1.9.29c4.62.7,7.19,2.77,7.19,6.38,0,4.4-3.61,7.24-9.79,7.24-2.9,0-6.71-.55-9.48-2.51l2.26-4.36a12.49,12.49,0,0,0,7.26,2.09c2.67,0,3.94-.75,3.94-2,0-1-1.08-1.61-3.54-2l-1.74-.24c-4.93-.68-7.37-2.84-7.37-6.47,0-4.38,3.39-7,9-7a19.05,19.05,0,0,1,8.91,2Z"/></svg>