<svg id="Layer_1" data-name="Layer 1" xmlns="http://www.w3.org/2000/svg" viewBox="0 0 486 223"><defs><style>.cls-1,.cls-4{fill:#ed5a36;}.cls-2{fill:#ef4b24;}.cls-3,.cls-5{fill:#203232;}.cls-4,.cls-5{fill-rule:evenodd;}</style></defs><title>our-responsibility-infographics-icon</title><path class="cls-1" d="M168.09,156.22l-.28-2.84c-1.21,0-3.31.13-5.36.33-11.68,1.12-27.33,6.9-33.64,13.93-6,6.63-8.2,10.33-10,14.35-4.67,10.61-3.79,11.14-3.33,11.37l50.16-.46,3.77-22.75Z"/><path class="cls-2" d="M115.63,193.4a.25.25,0,0,1-.11,0l-4.28,0Z"/><path class="cls-1" d="M186.13,170.15l3.64,22.52,54.53-.5s-5-7.4-12-16.07C229,172,224,168.63,219,164.82c-7.12-5.43-16.37-8.67-26.94-10.78-1.41-.28-3.09-.48-4.25-.66l-.28,2.84Z"/><path class="cls-3" d="M187.77,153.38H177.4a59.88,59.88,0,0,1,10.31.66Z"/><polygon class="cls-3" points="165.72 192.67 164.94 197.36 166.56 197.36 169.3 197.36 170.18 197.36 185.28 197.36 188.66 197.36 189.33 197.36 190.52 197.36 189.72 192.42 165.72 192.67"/><path class="cls-3" d="M186.13,170.15l1.36-13.93.22-2.18a59.88,59.88,0,0,0-10.31-.66h-9.59l.28,2.84,1.36,13.93-3.77,22.75,24.09-.23Zm-2.68-13.49-2.27,11H174.4l-2-11ZM171,192.17l3.39-20.36h7.5l2.67,20.35Z"/><path class="cls-4" d="M208.1,214s1.5-16.57,9.21-26.5,34.18-31.1,35.89-26.33,13.11,25.26,15.25,29.54,12.42,17.12,24.69,16.72c14-.46,18.43-10.27,22.72-15.27,7.11-8.28,9.13-15.8,10.93-18.8s4.5-12.88,4.5-12.88,24.87,11.63,30.65,20.9,10.5,15.91,11.46,20.84,4.4,13.28,2.47,13.49S208.1,214,208.1,214Z"/><path class="cls-5" d="M167.42,117.7a14.65,14.65,0,0,0,20.75,0"/><path class="cls-5" d="M293.14,121.54l-12.64,0a17.85,17.85,0,0,0,25.27,0"/><path class="cls-5" d="M378,214.31c-1-17.36-8-31-18.57-41.16C348,162,332.34,155,315.87,151.69V130.21c2.71-3.18,5.33-9.39,7.22-12.68,3,8.72,2.15,17.12,1.51,23.26-.06.6-.13,1.22-.23,2.27l-.32,3.34,3.36.11a40.88,40.88,0,0,0,5.83-.22c7.91-.88,14.35-4.15,18.9-9.34s7.1-12.11,7.36-20.46a48.91,48.91,0,0,0-.29-7c-2.15-19.24-11.33-41.5-23-57.89C330.89,44.11,325,37.79,319,33.47c-6.34-4.55-12.88-6.92-19.17-6.22a19.59,19.59,0,0,0-7.59,2.5,19.59,19.59,0,0,0-7.59-2.5c-6.3-.7-12.83,1.67-19.17,6.22-6,4.32-11.89,10.64-17.22,18.14-11.65,16.39-20.84,38.65-23,57.89a48.91,48.91,0,0,0-.29,7c.26,8.35,2.85,15.32,7.36,20.46s11,8.46,18.9,9.34a40.94,40.94,0,0,0,5.83.22l3.37-.11-.33-3.35c-.11-1.06-.18-1.69-.24-2.3-.67-6.15-1.52-14.31,1.48-23.06,1.89,3.3,4.55,9.33,7.26,12.52v21.5a96,96,0,0,0-32.3,12.74c-1.07-1.25-2.18-2.47-3.36-3.61-9.43-9.13-22.26-14.87-35.78-17.62V125.51c.72-.71,1.42-1.39,1.94-1.88a18.55,18.55,0,0,0,3.8-5.69,21.28,21.28,0,0,0,1.07-3.46,8.2,8.2,0,0,0,7.58-6.41,31.54,31.54,0,0,1,2.47-6.24c1.83-3.83,3.61-7.54,3-12.43a9,9,0,0,0-7.47-8.14c.12-.81.24-1.63.34-2.43.19-1.38.34-2.76.45-4.15a50.93,50.93,0,0,0,.1-7.86c-.67-8.84-4.24-15.26-9.65-19.59-6-4.8-14.14-6.93-23-6.93l-1.42,0a44.47,44.47,0,0,0-16,3.41c-5.36,2.44-9.54,6.35-9.91,12.37-3.36,2.91-4.92,6.89-5.36,11.66A55.86,55.86,0,0,0,146,81.26a9,9,0,0,0-3.88,1.65,9.32,9.32,0,0,0-3.58,6.49c-.59,4.89,1.19,8.6,3,12.43a31.54,31.54,0,0,1,2.47,6.24,8.21,8.21,0,0,0,7.58,6.41,21.32,21.32,0,0,0,1.08,3.46,18.74,18.74,0,0,0,3.8,5.72c.67.61,1.29,1.21,1.93,1.84v17.74c-13.51,2.77-26.33,8.55-35.75,17.67a49.59,49.59,0,0,0-15.27,33.7l-.16,2.75h59.91v-5.19H111.24c1.29-11.46,8.22-20.38,15.43-27.35,9.13-8.84,21.34-13.36,34.68-15.77l2.24-.11v-3.56l-1.25-16.79c3.73,3,9.48,7.2,15.43,7.25h0c6.2-.05,11.86-4.14,15.6-7.25L192,145.36l-.51,3.15,3.24.75c13.35,2.39,25.49,6.44,34.63,15.29.94.91,1.84,1.86,2.71,2.85a70,70,0,0,0-7,5.83,60.55,60.55,0,0,0-13.33,18.94H187.81l.85,5.19h21a64.78,64.78,0,0,0-3.24,16.94l-.2,3.34h172ZM149,68.38c.35-3.77,2.92-6.94,5.64-8.91l1.11-.8,0-1.39c-.13-4.4,3.12-7.8,6.8-9.47,4.41-2,10-2.17,14.08-2.31h1.26a29.05,29.05,0,0,1,18.83,6.61c4.32,3.45,8.91,6.22,9.46,13.49a58.47,58.47,0,0,1,0,8c-.12,1.47-.44,3.62-.65,5.11h-8.14V76.26a11.6,11.6,0,0,0-3.36-8.62,12.52,12.52,0,0,0-9.05-3.18L172.09,67.2l-8.83,2.45h21.59a7.69,7.69,0,0,1,5.46,1.72,6.6,6.6,0,0,1,1.76,4.89v2.48H148.92A42,42,0,0,1,149,68.38Zm54.19,15.55-2.21,8H186.3v-8Zm-33.85,0,1,9.41H153.66l-1.22-9.41Zm23.8,38.34c-4.37,4.28-8.51,8.34-15.3,8.4s-11.61-4.8-15.59-8.69c-.78-.76-1.53-1.5-2.19-2.11a13.43,13.43,0,0,1-2.56-3.92,22.16,22.16,0,0,1-1.19-4.6l-.25-1.48-3,.18c-2,.32-4.64-.65-5.14-2.75a40.77,40.77,0,0,0-2.47-7.85c-1.49-3.13-3.3-6.94-2.89-10.38a4,4,0,0,1,1.61-2.8,9.33,9.33,0,0,1,3.64-1.61l2.43,10.53.53,1.9h23.75V83.93h6.63V97.09h23.74l.53-1.9,2.71-10.74c2.31,0,4.21,2.27,4.5,4.62.41,3.44-1.71,7.4-3.21,10.53-1.08,2.26-.64,4.42-1.29,7.13-.51,2.1-3.72,3.75-5.68,3.43l-2.66-1.34-.43,2.53a21.55,21.55,0,0,1-1.19,4.6,13.5,13.5,0,0,1-2.62,4C194.51,120.88,193.79,121.58,193.09,122.27Zm71.26-10.85-2.61-7.23-3.22,7c-6.31,13.62-3.55,23.23-2.71,31.18a39.58,39.58,0,0,1-4.23-.53c-6.2-1.29-11.28-5.84-14.78-9.83s-5.26-7.91-5.47-14.75a66.85,66.85,0,0,1,.65-7.45c2-18.22,10.34-38.93,21.43-54.53,5-7,10.34-12.78,15.76-16.67,5.09-3.66,9.62-4.74,14.27-4.23a12.88,12.88,0,0,1,6.31,2.42l3.05,2.41,2.81-2.58a10,10,0,0,1,5.45-2.25c4.64-.51,8.18,1,13.27,4.66a72.12,72.12,0,0,1,16.75,16.24C342.17,70.86,350.9,92,352.94,110.2a42.8,42.8,0,0,1,.26,6.09c-.21,6.84-1.73,12.46-5.28,16.5s-5.22,7-14.06,9.48a28.24,28.24,0,0,1-4.9,1c1.18-11.69,1.84-21.3-3-32.15-5.91-12.73-8.5-22.4-10.88-29.76-2.69-8.34-3.86-12-12.34-16.19a52.88,52.88,0,0,0-7.89-3c6.69,4.78,9.95,7.54,12.37,15l-1.47.25a27.28,27.28,0,0,0-4.86,1.31,9.05,9.05,0,0,0-5,4.25,8,8,0,0,1-7.3,0,9.11,9.11,0,0,0-5-4.25A43.5,43.5,0,0,0,270,76.59c-4.82-.08-9.69.46-13,1.74l-2,.76c0,1,0,1.9,0,2.85a24,24,0,0,0,4.84,14.47,17.58,17.58,0,0,0,13.77,7,15.14,15.14,0,0,0,9.85-2.9,16.69,16.69,0,0,0,5.44-8,15.46,15.46,0,0,0,.67-2.55,14.76,14.76,0,0,0,5.41,0,16.52,16.52,0,0,0,.67,2.55,16.83,16.83,0,0,0,5.44,8,14.75,14.75,0,0,0,9.3,2.9,17.62,17.62,0,0,0,4.42-.49l.72-.19c1.2,3.08,2.58,6.38,4.19,9.92a56.07,56.07,0,0,1-12.87,18c-4.76,4.47-10,7.68-14.57,7.68s-9.81-3.21-14.58-7.68C271.56,124.85,266.43,117.24,264.35,111.42Zm49-14.67a15.11,15.11,0,0,1-2.92.31,8.79,8.79,0,0,1-5.5-1.61,10.72,10.72,0,0,1-3.32-5.08c-.76-2.17-1-4.82,1.59-5.75a21.25,21.25,0,0,1,3.74-1c.69-.13,1.43-.24,2.19-.34C310.22,87.16,311.52,91.61,313.31,96.75Zm-30.39-6.38a10.65,10.65,0,0,1-3.32,5.08,9.11,9.11,0,0,1-5.91,1.61c-3.77-.07-7.3-1-9.41-3.64-1.92-2.44-4.42-8.09-4.74-11.41a34.68,34.68,0,0,1,10.76-.78,41,41,0,0,1,11.33,2.7C284.21,84.89,283.7,88.17,282.92,90.37Zm-10.58,67,2.61-.47v-2.63L273.54,135c5.45,4.71,12.94,9.58,18.71,9.58s13.34-5.83,18.79-10.54l-1.49,20.24v2.63l2.6.47a104.22,104.22,0,0,1,12.2,2.94l-2.58,3.55-9.25,12.74-9.25,12.72c-.56.7-1.11,1.32-1.66,1.89a15.19,15.19,0,0,1-1.81,1.64,11.84,11.84,0,0,1-15.11,0,18.3,18.3,0,0,1-1.9-1.68,16.71,16.71,0,0,1-1.56-1.84L272,176.62l-9.26-12.74-2.55-3.51A104.29,104.29,0,0,1,272.34,157.41Zm-62.11,56.33c1.57-14,13.4-27.92,22.17-36.41a55.94,55.94,0,0,1,21.22-13.6l4.89,5.1,8.35,11.49,9.26,12.73a22,22,0,0,0,2.18,2.56,24.35,24.35,0,0,0,2.56,2.28,18.14,18.14,0,0,0,22.77,0,23.81,23.81,0,0,0,2.55-2.28c.78-.82,1.5-1.68,2.2-2.56l9.25-12.73,9.25-12.73,3.71-5.1c9.24,3.58,16.5,9.33,23.3,15.91,8.77,8.49,17.94,21.3,19.5,35.34Z"/></svg>