<svg id="Layer_1" data-name="Layer 1" xmlns="http://www.w3.org/2000/svg" viewBox="0 0 560 137"><defs><style>.cls-1{fill:#ed5a36;}</style></defs><title>our-responsibility-infographics-fr</title><path d="M172.73,39.83h-2.58V20.3l-7.81,17.05h-2.7l-7.8-16.92v19.4h-2.57V17.42h3.9L161,34.36l7.81-16.94h3.92Z"/><path d="M192.39,32.2a8.45,8.45,0,0,1,0,.89H180.2A5.15,5.15,0,0,0,185.56,38a7,7,0,0,0,4.8-1.9l1.28,1.63a8.49,8.49,0,0,1-6.22,2.37c-4.49,0-7.67-3.19-7.67-7.88s3.2-7.89,7.52-7.89C189.38,24.37,192.36,27.59,192.39,32.2Zm-12.16-1H190c-.3-2.84-2.16-4.66-4.74-4.66C182.42,26.5,180.61,28.42,180.23,31.16Z"/><path d="M221.93,30.44v9.39h-2.38V31.22c0-2.88-1.6-4.58-4.39-4.58a4.46,4.46,0,0,0-4.64,4.65v8.54h-2.39V31.22c0-2.88-1.6-4.58-4.37-4.58a4.46,4.46,0,0,0-4.64,4.65v8.54h-2.4V24.67h2.37v2.17a6.59,6.59,0,0,1,10.79.72,6.15,6.15,0,0,1,5.71-3.19C219.35,24.37,221.93,26.77,221.93,30.44Z"/><path d="M242.72,32.25a7.56,7.56,0,0,1-7.57,7.89,6.7,6.7,0,0,1-5.52-2.55v2.24h-2.4v-23h2.4V26.92a6.7,6.7,0,0,1,5.52-2.55A7.56,7.56,0,0,1,242.72,32.25Zm-13.25,0a5.41,5.41,0,1,0,10.8,0,5.41,5.41,0,1,0-10.8,0Z"/><path d="M256.76,24.88l-.57,2.36a5.85,5.85,0,0,0-2.63-.61c-2.37,0-4.06,1.85-4.06,4.72v8.48h-2.39V24.67h2.37V26.8a5.3,5.3,0,0,1,4.5-2.43A6.45,6.45,0,0,1,256.76,24.88Z"/><path d="M273.46,32.2a6.37,6.37,0,0,1,0,.89H261.26A5.16,5.16,0,0,0,266.63,38a7,7,0,0,0,4.8-1.9l1.28,1.63a8.5,8.5,0,0,1-6.23,2.37c-4.48,0-7.67-3.19-7.67-7.88s3.21-7.89,7.53-7.89C270.45,24.37,273.43,27.59,273.46,32.2Zm-12.16-1H271c-.31-2.84-2.16-4.66-4.74-4.66C263.49,26.5,261.68,28.42,261.3,31.16Z"/><path d="M301.43,39.83H299V37.58a6.69,6.69,0,0,1-5.53,2.56,7.57,7.57,0,0,1-7.58-7.89,7.57,7.57,0,0,1,7.58-7.88A6.72,6.72,0,0,1,299,26.93V24.67h2.39Zm-13.06-7.58a5.42,5.42,0,1,0,10.82,0,5.41,5.41,0,1,0-10.82,0Z"/><path d="M319.29,26.76l-1.53,1.61a5.82,5.82,0,0,0-4.15-1.76,5.35,5.35,0,0,0-5.35,5.64,5.36,5.36,0,0,0,5.35,5.65,6.05,6.05,0,0,0,4.19-1.78l1.49,1.63a7.35,7.35,0,0,1-5.62,2.39,7.59,7.59,0,0,1-7.84-7.89,7.58,7.58,0,0,1,7.84-7.88A7.3,7.3,0,0,1,319.29,26.76Z"/><path d="M334.36,26.84h-6.55v7.65c0,2.37,1.25,3.41,3,3.41A5.54,5.54,0,0,0,334,36.82l1.12,1.81a7.3,7.3,0,0,1-4.5,1.51c-3.26,0-5.2-1.8-5.2-5.61V26.84h-3.31V24.67h3.31V19.86h2.38v4.81h6.55Z"/><path d="M341.47,19.3a1.66,1.66,0,0,1-1.7,1.68,1.64,1.64,0,0,1-1.68-1.68,1.66,1.66,0,0,1,1.68-1.7A1.68,1.68,0,0,1,341.47,19.3ZM341,39.83h-2.41V24.67H341Z"/><path d="M356.39,26.84h-6v13H348v-13h-3.46V24.67H348V22.08c0-3.23,1.46-5.6,5-5.6a7.74,7.74,0,0,1,4.15,1.14l-.87,2a6.39,6.39,0,0,0-3.12-.9c-1.95,0-2.8,1.25-2.8,3.36v2.59h6Z"/><path d="M381.39,26.93V16.78h2.39v23h-2.39V37.58a6.69,6.69,0,0,1-5.53,2.56,7.56,7.56,0,0,1-7.57-7.89,7.56,7.56,0,0,1,7.57-7.88A6.72,6.72,0,0,1,381.39,26.93Zm-10.67,5.32a5.42,5.42,0,1,0,10.82,0,5.41,5.41,0,1,0-10.82,0Z"/><path d="M402.78,33.51c0,4.5-3.24,6.63-6.89,6.63S389,38,389,33.51V24.67h2.39v8.62c0,3.13,1.9,4.61,4.49,4.61s4.49-1.48,4.49-4.61V24.67h2.4Z"/><path class="cls-1" d="M61.25,76.85l-9.84,6A17.18,17.18,0,0,0,36.57,75c-10.42,0-18.12,7.62-18.12,18.78,0,11.52,8,18.78,18.12,18.78a17.55,17.55,0,0,0,15-7.88l9.35,6.73c-5.08,7.46-13.73,12.13-24.23,12.13C19,123.51,6.51,111,6.51,93.75S19,64,36.65,64C47.23,64,56.58,68.82,61.25,76.85Z"/><path class="cls-1" d="M79.17,122.45H68.47v-59h10.7Z"/><path class="cls-1" d="M126.91,105.51c0,12.55-8.85,18-18.77,18s-18.82-5.41-18.82-18V82.72H100v21.85c0,6.36,3.48,8.94,8.12,8.94s8.11-2.58,8.11-8.94V82.72h10.66Z"/><path class="cls-1" d="M178.67,102.56c0,11.93-8.28,20.91-19.23,20.91a14.53,14.53,0,0,1-11.89-5.41v4.39H137.1v-59h10.66V86.86a14.33,14.33,0,0,1,11.64-5.21C170.39,81.65,178.67,90.63,178.67,102.56Zm-31.45,0c0,6.27,4.15,11,10.21,11,6.32,0,10.25-4.88,10.25-11s-3.93-10.94-10.25-10.94C151.37,91.62,147.22,96.29,147.22,102.56Z"/><path class="cls-1" d="M237.79,86.86V63.41h10.66v59H238v-4.39a14.58,14.58,0,0,1-11.89,5.41c-11,0-19.23-9-19.23-20.91s8.28-20.91,19.23-20.91A14.41,14.41,0,0,1,237.79,86.86Zm-20,15.7c0,6.07,4,11,10.25,11,6.1,0,10.25-4.68,10.25-11s-4.15-10.94-10.25-10.94C221.8,91.62,217.83,96.49,217.83,102.56Z"/><path class="cls-1" d="M296.11,102.52a31.44,31.44,0,0,1-.2,3.61H267.74c1.15,5.74,5.16,8.24,10.21,8.24a16,16,0,0,0,10-3.81l6.28,6.89c-4.51,4.14-10.25,6-16.94,6-12.17,0-20.62-8.28-20.62-20.78s8.2-21,20.09-21C288.24,81.65,296.07,90.14,296.11,102.52Zm-28.33-3.69h17.59c-1-5.08-4.06-8-8.65-8C271.67,90.88,268.72,93.91,267.78,98.83Z"/><path class="cls-1" d="M332.45,93.79a31.93,31.93,0,0,0-12.67-3.24c-4.06,0-6.11,1.43-6.11,3.61s2.87,2.87,6.48,3.4l3.53.53c8.61,1.32,13.41,5.17,13.41,11.89,0,8.2-6.73,13.49-18.25,13.49-5.41,0-12.5-1-17.67-4.67l4.22-8.12a23.25,23.25,0,0,0,13.53,3.9c5,0,7.34-1.4,7.34-3.74,0-1.92-2-3-6.6-3.64l-3.24-.46c-9.18-1.27-13.73-5.28-13.73-12,0-8.16,6.31-13,16.77-13a35.62,35.62,0,0,1,16.6,3.77Z"/><path class="cls-1" d="M403.91,80.5c0,6.07-3.23,10.54-8.56,13,6,2.38,9.84,7,9.84,13.16,0,11.32-10.3,16.77-21.16,16.77-8.61,0-15.7-3.07-20-8.32l6.6-7.26a18.12,18.12,0,0,0,13,5.5c5.58,0,10-2.42,10-7.47s-5-7.5-11.23-7.5h-6.68V88.58h6.72c5.58,0,10-2.46,10-7.3,0-4.63-4.19-7.17-9.52-7.17a14.41,14.41,0,0,0-11.6,5.82l-7-7c3.77-5.09,10-8.9,19.15-8.9C395.67,64,403.91,70.58,403.91,80.5Z"/><path class="cls-1" d="M462.06,93.75c0,18.57-11.07,29.72-24.76,29.72s-24.73-11.15-24.73-29.72S423.56,64,437.3,64,462.06,75.17,462.06,93.75Zm-38,0c0,12.54,5.87,19.1,13.21,19.1s13.2-6.56,13.2-19.1-5.82-19.11-13.2-19.11S424.09,81.2,424.09,93.75Z"/><path class="cls-1" d="M516.55,89.77c0,7-5.45,12.1-12.79,12.1S491,96.74,491,89.77s5.42-12.1,12.76-12.1S516.55,82.84,516.55,89.77Zm-17.71,0a4.92,4.92,0,1,0,4.92-4.8A4.73,4.73,0,0,0,498.84,89.77Zm11,32.68h-9.55l31.94-43.91h9.55Zm41.5-11.28c0,6.93-5.5,12.1-12.84,12.1s-12.75-5.17-12.75-12.1,5.5-12.09,12.75-12.09S551.36,104.2,551.36,111.17Zm-17.71,0a4.92,4.92,0,0,0,9.84,0,4.92,4.92,0,0,0-9.84,0Z"/></svg>