<svg id="Layer_1" data-name="Layer 1" xmlns="http://www.w3.org/2000/svg" viewBox="0 0 560 257"><defs><style>.cls-1{fill:#ed5a36;}.cls-2{fill:#4d4d4d;}</style></defs><title>our-responsibility-infographics-fr</title><path d="M92.69,14c5,0,7.83,2.27,7.83,6.32,0,3.87-3,6.34-7.8,6.34h-.37l8.05,9.74H97.2l-7.89-9.74H86.48v9.74H83.9V14Zm-6.21,2.41v7.91h6.18c3.41,0,5.18-1.39,5.18-4S96,16.43,92.66,16.43Z"/><path d="M118,28.79a8.72,8.72,0,0,1,0,.9H105.79a5.16,5.16,0,0,0,5.36,4.94,7,7,0,0,0,4.8-1.9l1.28,1.63A8.48,8.48,0,0,1,111,36.73c-4.48,0-7.67-3.19-7.67-7.88s3.2-7.89,7.52-7.89C115,21,118,24.18,118,28.79Zm-12.17-1h9.73c-.3-2.83-2.16-4.66-4.73-4.66C108,23.09,106.21,25,105.82,27.75Zm2.9-8.8,3.34-4.81h3l-4,4.81Z"/><path d="M147.52,27v9.39h-2.38V27.81c0-2.88-1.6-4.58-4.39-4.58a4.47,4.47,0,0,0-4.64,4.65v8.54h-2.38V27.81c0-2.88-1.6-4.58-4.37-4.58a4.47,4.47,0,0,0-4.65,4.65v8.54h-2.4V21.27h2.37v2.16a6.59,6.59,0,0,1,10.79.72A6.17,6.17,0,0,1,141.19,21C145,21,147.52,23.36,147.52,27Z"/><path d="M166.33,30.1c0,4.5-3.23,6.63-6.88,6.63s-6.88-2.13-6.88-6.63V21.27H155v8.61c0,3.14,1.91,4.61,4.5,4.61s4.48-1.47,4.48-4.61V21.27h2.4Z"/><path d="M185.35,27v9.39H183V27.81c0-2.88-1.6-4.58-4.37-4.58A4.47,4.47,0,0,0,174,27.88v8.54h-2.4V21.27h2.37v2.16A6,6,0,0,1,179,21C182.77,21,185.35,23.36,185.35,27Z"/><path d="M204.26,28.79a8.72,8.72,0,0,1,0,.9H192.06a5.16,5.16,0,0,0,5.37,4.94,7,7,0,0,0,4.8-1.9l1.28,1.63a8.5,8.5,0,0,1-6.23,2.37c-4.48,0-7.67-3.19-7.67-7.88S192.82,21,197.14,21C201.25,21,204.23,24.18,204.26,28.79Zm-12.16-1h9.73c-.31-2.83-2.16-4.66-4.74-4.66C194.29,23.09,192.48,25,192.1,27.75ZM195,19l3.35-4.81h3l-4,4.81Z"/><path d="M218.24,21.47l-.58,2.36a5.77,5.77,0,0,0-2.62-.61c-2.37,0-4.07,1.86-4.07,4.72v8.48h-2.38V21.27H211V23.4A5.28,5.28,0,0,1,215.45,21,6.65,6.65,0,0,1,218.24,21.47Z"/><path d="M235.77,36.42h-2.38V34.17a6.71,6.71,0,0,1-5.54,2.56,7.56,7.56,0,0,1-7.57-7.89A7.56,7.56,0,0,1,227.85,21a6.77,6.77,0,0,1,5.54,2.56V21.27h2.38Zm-13.06-7.58a5.42,5.42,0,1,0,10.82,0,5.41,5.41,0,1,0-10.82,0Z"/><path d="M251.58,23.43H245v7.65c0,2.37,1.24,3.41,3,3.41a5.53,5.53,0,0,0,3.19-1.07l1.12,1.8a7.3,7.3,0,0,1-4.5,1.51c-3.26,0-5.2-1.79-5.2-5.6v-7.7h-3.31V21.27h3.31V16.45H245v4.82h6.54Z"/><path d="M258.69,15.89A1.66,1.66,0,0,1,257,17.57a1.64,1.64,0,0,1-1.68-1.68,1.66,1.66,0,0,1,1.68-1.7A1.68,1.68,0,0,1,258.69,15.89Zm-.49,20.53h-2.4V21.27h2.4Z"/><path d="M278.4,28.84a8,8,0,1,1-8-7.88A7.77,7.77,0,0,1,278.4,28.84Zm-13.52,0a5.54,5.54,0,1,0,11.07,0,5.54,5.54,0,1,0-11.07,0Z"/><path d="M296.58,27v9.39h-2.39V27.81c0-2.88-1.6-4.58-4.37-4.58a4.47,4.47,0,0,0-4.64,4.65v8.54h-2.4V21.27h2.37v2.16A6,6,0,0,1,290.26,21C294,21,296.58,23.36,296.58,27Z"/><path d="M321.36,24.48a9.49,9.49,0,0,0-5-1.42c-2.16,0-3.59.91-3.59,2.38,0,1.27,1.11,1.89,3.09,2.13l1.8.23c3.21.41,5.09,1.74,5.09,4.22,0,2.88-2.6,4.69-6.68,4.69a10.67,10.67,0,0,1-6.32-1.93l1.1-1.8a8,8,0,0,0,5.25,1.65c2.56,0,4.18-.85,4.18-2.45,0-1.21-1-1.95-3.17-2.21l-1.81-.2c-3.41-.42-5-1.94-5-4.2,0-2.86,2.42-4.59,6.05-4.59a11,11,0,0,1,6,1.65Z"/><path d="M340.42,30.1c0,4.5-3.23,6.63-6.88,6.63s-6.88-2.13-6.88-6.63V21.27H329v8.61c0,3.14,1.91,4.61,4.5,4.61S338,33,338,29.88V21.27h2.4Z"/><path d="M361.13,28.84a7.56,7.56,0,0,1-7.57,7.89A6.7,6.7,0,0,1,348,34.18v8.65h-2.4V21.27H348v2.24A6.7,6.7,0,0,1,353.56,21,7.56,7.56,0,0,1,361.13,28.84Zm-13.25,0a5.41,5.41,0,1,0,10.81,0,5.41,5.41,0,1,0-10.81,0Z"/><path d="M379.18,28.79a8.72,8.72,0,0,1-.05.9H367a5.15,5.15,0,0,0,5.36,4.94,7,7,0,0,0,4.8-1.9l1.28,1.63a8.48,8.48,0,0,1-6.22,2.37c-4.48,0-7.67-3.19-7.67-7.88s3.2-7.89,7.52-7.89C376.17,21,379.14,24.18,379.18,28.79Zm-12.17-1h9.73c-.3-2.83-2.16-4.66-4.73-4.66C369.2,23.09,367.4,25,367,27.75Zm2.9-8.8,3.34-4.81h3l-4,4.81Z"/><path d="M393.16,21.47l-.58,2.36a5.85,5.85,0,0,0-2.63-.61c-2.37,0-4.06,1.86-4.06,4.72v8.48H383.5V21.27h2.37V23.4a5.29,5.29,0,0,1,4.5-2.44A6.68,6.68,0,0,1,393.16,21.47Z"/><path d="M399.57,15.89a1.66,1.66,0,0,1-1.69,1.68,1.64,1.64,0,0,1-1.68-1.68,1.66,1.66,0,0,1,1.68-1.7A1.68,1.68,0,0,1,399.57,15.89Zm-.49,20.53h-2.4V21.27h2.4Z"/><path d="M418,28.79a8.72,8.72,0,0,1-.05.9H405.84a5.16,5.16,0,0,0,5.37,4.94,7,7,0,0,0,4.8-1.9l1.28,1.63a8.5,8.5,0,0,1-6.23,2.37c-4.48,0-7.67-3.19-7.67-7.88s3.2-7.89,7.53-7.89C415,21,418,24.18,418,28.79Zm-12.16-1h9.73c-.31-2.83-2.16-4.66-4.74-4.66C408.07,23.09,406.26,25,405.88,27.75Z"/><path d="M435.94,30.1c0,4.5-3.23,6.63-6.88,6.63s-6.89-2.13-6.89-6.63V21.27h2.39v8.61c0,3.14,1.9,4.61,4.5,4.61s4.48-1.47,4.48-4.61V21.27h2.4Z"/><path d="M450.81,21.47l-.58,2.36a5.77,5.77,0,0,0-2.62-.61c-2.37,0-4.07,1.86-4.07,4.72v8.48h-2.38V21.27h2.37V23.4A5.28,5.28,0,0,1,448,21,6.65,6.65,0,0,1,450.81,21.47Z"/><path d="M467.51,28.79a8.72,8.72,0,0,1-.05.9H455.31a5.16,5.16,0,0,0,5.36,4.94,7,7,0,0,0,4.8-1.9l1.28,1.63a8.48,8.48,0,0,1-6.22,2.37c-4.48,0-7.67-3.19-7.67-7.88s3.2-7.89,7.52-7.89C464.5,21,467.48,24.18,467.51,28.79Zm-12.17-1h9.73c-.3-2.83-2.16-4.66-4.73-4.66C457.54,23.09,455.73,25,455.34,27.75Z"/><path d="M121.1,72.42h-2.39V70.17a6.7,6.7,0,0,1-5.54,2.56,7.89,7.89,0,0,1,0-15.77,6.76,6.76,0,0,1,5.54,2.56V57.27h2.39ZM108,64.84a5.41,5.41,0,1,0,5.42-5.64A5.4,5.4,0,0,0,108,64.84Z"/><path d="M140.09,66.1c0,4.5-3.23,6.63-6.88,6.63s-6.88-2.13-6.88-6.63V57.27h2.38v8.61c0,3.14,1.91,4.61,4.5,4.61s4.48-1.47,4.48-4.61V57.27h2.4Z"/><path d="M164.88,60.48a9.52,9.52,0,0,0-5-1.42c-2.17,0-3.59.91-3.59,2.38,0,1.27,1.1,1.89,3.09,2.13l1.79.23c3.22.41,5.09,1.74,5.09,4.22,0,2.88-2.59,4.69-6.67,4.69a10.68,10.68,0,0,1-6.33-1.93l1.11-1.8a8,8,0,0,0,5.25,1.65c2.56,0,4.18-.85,4.18-2.45,0-1.21-1-2-3.17-2.21l-1.81-.2c-3.41-.42-5-1.94-5-4.2,0-2.86,2.42-4.59,6.05-4.59a11.09,11.09,0,0,1,6,1.65Z"/><path d="M184.93,72.42h-2.39V70.17A6.69,6.69,0,0,1,177,72.73a7.56,7.56,0,0,1-7.57-7.89A7.56,7.56,0,0,1,177,57a6.75,6.75,0,0,1,5.53,2.56V57.27h2.39Zm-13.06-7.58a5.41,5.41,0,1,0,5.42-5.64A5.4,5.4,0,0,0,171.87,64.84Z"/><path d="M192.7,72.42h-2.4v-23h2.4Z"/><path d="M212.58,72.42H210.2V70.17a6.7,6.7,0,0,1-5.54,2.56,7.56,7.56,0,0,1-7.57-7.89A7.56,7.56,0,0,1,204.66,57a6.76,6.76,0,0,1,5.54,2.56V57.27h2.38Zm-13.06-7.58A5.41,5.41,0,1,0,205,59.2,5.4,5.4,0,0,0,199.52,64.84Z"/><path d="M220.86,51.89a1.66,1.66,0,0,1-1.7,1.68,1.64,1.64,0,0,1-1.68-1.68,1.66,1.66,0,0,1,1.68-1.7A1.68,1.68,0,0,1,220.86,51.89Zm-.5,20.53H218V57.27h2.4Z"/><path d="M235.37,57.47l-.58,2.36a5.85,5.85,0,0,0-2.63-.61c-2.37,0-4.06,1.86-4.06,4.72v8.48h-2.39V57.27h2.37V59.4a5.29,5.29,0,0,1,4.5-2.44A6.68,6.68,0,0,1,235.37,57.47Z"/><path d="M252.06,64.79a8.77,8.77,0,0,1,0,.9H239.87a5.14,5.14,0,0,0,5.36,4.94,7,7,0,0,0,4.8-1.9l1.28,1.63a8.5,8.5,0,0,1-6.23,2.37c-4.48,0-7.66-3.19-7.66-7.88s3.2-7.89,7.52-7.89C249.05,57,252,60.18,252.06,64.79Zm-12.16-1h9.73c-.3-2.83-2.16-4.66-4.74-4.66C242.09,59.09,240.28,61,239.9,63.75Z"/><path d="M290.9,63v9.39h-2.38V63.81c0-2.88-1.6-4.58-4.39-4.58a4.46,4.46,0,0,0-4.64,4.65v8.54H277.1V63.81c0-2.88-1.6-4.58-4.37-4.58a4.47,4.47,0,0,0-4.64,4.65v8.54h-2.4V57.27h2.37v2.16a6.59,6.59,0,0,1,10.79.72A6.15,6.15,0,0,1,284.56,57C288.32,57,290.9,59.36,290.9,63Z"/><path d="M299,51.89a1.66,1.66,0,0,1-1.69,1.68,1.63,1.63,0,0,1-1.68-1.68,1.65,1.65,0,0,1,1.68-1.7A1.68,1.68,0,0,1,299,51.89Zm-.49,20.53h-2.41V57.27h2.41Z"/><path d="M317.69,63v9.39h-2.38V63.81c0-2.88-1.6-4.58-4.37-4.58a4.46,4.46,0,0,0-4.64,4.65v8.54h-2.41V57.27h2.37v2.16A6,6,0,0,1,311.37,57C315.12,57,317.69,59.36,317.69,63Z"/><path d="M325.8,51.89a1.67,1.67,0,0,1-1.7,1.68,1.64,1.64,0,0,1-1.68-1.68,1.66,1.66,0,0,1,1.68-1.7A1.69,1.69,0,0,1,325.8,51.89Zm-.5,20.53h-2.4V57.27h2.4Z"/><path d="M355.86,63v9.39h-2.39V63.81c0-2.88-1.6-4.58-4.38-4.58a4.46,4.46,0,0,0-4.64,4.65v8.54h-2.39V63.81c0-2.88-1.6-4.58-4.37-4.58a4.47,4.47,0,0,0-4.64,4.65v8.54h-2.4V57.27H333v2.16a6.59,6.59,0,0,1,10.79.72A6.15,6.15,0,0,1,349.52,57C353.28,57,355.86,59.36,355.86,63Z"/><path d="M374.67,66.1c0,4.5-3.23,6.63-6.88,6.63s-6.88-2.13-6.88-6.63V57.27h2.38v8.61c0,3.14,1.91,4.61,4.5,4.61s4.48-1.47,4.48-4.61V57.27h2.4Z"/><path d="M405.1,63v9.39h-2.39V63.81c0-2.88-1.6-4.58-4.38-4.58a4.46,4.46,0,0,0-4.64,4.65v8.54H391.3V63.81c0-2.88-1.6-4.58-4.37-4.58a4.47,4.47,0,0,0-4.64,4.65v8.54h-2.4V57.27h2.37v2.16a6.58,6.58,0,0,1,10.78.72A6.17,6.17,0,0,1,398.76,57C402.52,57,405.1,59.36,405.1,63Z"/><path d="M431.65,59.52V49.38H434v23h-2.39V70.17a6.7,6.7,0,0,1-5.54,2.56,7.89,7.89,0,0,1,0-15.77A6.76,6.76,0,0,1,431.65,59.52ZM421,64.84a5.41,5.41,0,1,0,5.42-5.64A5.39,5.39,0,0,0,421,64.84Z"/><path d="M453.09,64.79a8.72,8.72,0,0,1,0,.9H440.89a5.14,5.14,0,0,0,5.36,4.94,7,7,0,0,0,4.8-1.9l1.28,1.63a8.49,8.49,0,0,1-6.22,2.37c-4.49,0-7.67-3.19-7.67-7.88S441.64,57,446,57C450.08,57,453.05,60.18,453.09,64.79Zm-12.17-1h9.73c-.3-2.83-2.16-4.66-4.73-4.66C443.11,59.09,441.3,61,440.92,63.75Z"/><path class="cls-1" d="M52,107.73c3.87-5,11.11-12.28,24.37-12.28,14.94,0,24.23,9.38,24.23,23,0,8.72-4.44,14.79-10.3,20.86L75.08,155.21h27.28v12.9H55.19V157.35L80.43,131.5c3.78-3.83,5.87-7.75,5.87-12.24C86.3,113,82,108.6,75.38,108.6c-6.78,0-10.81,3.67-14.48,7.86Z"/><path class="cls-1" d="M172.11,132.42c0,23.1-13.77,37-30.81,37s-30.75-13.87-30.75-37,13.67-37,30.75-37S172.11,109.32,172.11,132.42Zm-47.23,0c0,15.6,7.3,23.76,16.42,23.76s16.42-8.16,16.42-23.76-7.24-23.77-16.42-23.77S124.88,116.81,124.88,132.42Z"/><path class="cls-1" d="M234.74,127.47c0,8.67-6.79,15-15.91,15s-15.86-6.37-15.86-15,6.73-15,15.86-15S234.74,118.85,234.74,127.47Zm-22,0a6.12,6.12,0,1,0,6.12-6A5.89,5.89,0,0,0,212.71,127.47Zm13.71,40.64H214.54l39.73-54.61h11.88Zm51.61-14c0,8.62-6.83,15-16,15s-15.86-6.42-15.86-15,6.83-15,15.86-15S278,145.42,278,154.09Zm-22,0a6.12,6.12,0,0,0,12.24,0,6.12,6.12,0,0,0-12.24,0Z"/><path class="cls-2" d="M334.93,148.81h-6.1v-2.56a8.51,8.51,0,0,1-6.93,3.15c-6.39,0-11.22-5.23-11.22-12.19S315.51,125,321.9,125a8.47,8.47,0,0,1,6.93,3.18v-2.56h6.1Zm-17.86-11.6c0,3.54,2.32,6.38,6,6.38s6-2.72,6-6.38-2.41-6.38-6-6.38S317.07,133.67,317.07,137.21Z"/><path class="cls-2" d="M363.12,138.93c0,7.32-5.17,10.47-10.95,10.47s-11-3.15-11-10.47V125.64h6.24v12.74c0,3.71,2,5.21,4.74,5.21s4.73-1.5,4.73-5.21V125.64h6.22Z"/><path class="cls-2" d="M419.8,134.05v14.76h-6.22V136.06c0-3.35-1.7-5.19-4.52-5.19s-4.9,1.75-4.9,5.24v12.7h-6.24V136.06c0-3.35-1.67-5.19-4.52-5.19-2.68,0-4.9,1.75-4.9,5.24v12.7h-6.24V125.64h6.07v2.72a7.77,7.77,0,0,1,6.82-3.34,8.79,8.79,0,0,1,7.65,4c1.79-2.94,4.83-4,7.86-4C416.12,125,419.8,128.67,419.8,134.05Z"/><path class="cls-2" d="M449.76,137.21c0,7-5.33,12.19-12.55,12.19s-12.51-5.21-12.51-12.19S430,125,437.21,125,449.76,130.23,449.76,137.21Zm-18.7,0a6.16,6.16,0,1,0,6.15-6.38A6.06,6.06,0,0,0,431.06,137.21Z"/><path class="cls-2" d="M461.71,118.06a4,4,0,1,1-4-4A4,4,0,0,1,461.71,118.06Zm-.83,30.75h-6.24V125.64h6.24Z"/><path class="cls-2" d="M489.2,134.05v14.76H483V136.06c0-3.35-1.68-5.19-4.52-5.19-2.68,0-4.9,1.75-4.9,5.24v12.7h-6.25V125.64h6.08v2.72a7.76,7.76,0,0,1,6.81-3.34A8.63,8.63,0,0,1,489.2,134.05Z"/><path class="cls-2" d="M512,132.09a18.78,18.78,0,0,0-7.39-1.89c-2.37,0-3.56.84-3.56,2.11s1.67,1.67,3.77,2l2.06.31c5,.77,7.82,3,7.82,6.94,0,4.78-3.92,7.86-10.64,7.86-3.16,0-7.29-.59-10.31-2.72l2.47-4.74a13.49,13.49,0,0,0,7.89,2.28c2.89,0,4.28-.82,4.28-2.18,0-1.12-1.18-1.75-3.85-2.13l-1.89-.26c-5.36-.74-8-3.09-8-7,0-4.76,3.68-7.58,9.78-7.58a20.7,20.7,0,0,1,9.68,2.2Z"/><path d="M40.61,193.67V183.52H43v23H40.61v-2.26a6.67,6.67,0,0,1-5.53,2.57,7.89,7.89,0,0,1,0-15.77A6.72,6.72,0,0,1,40.61,193.67ZM29.94,199a5.41,5.41,0,1,0,5.42-5.63A5.39,5.39,0,0,0,29.94,199Z"/><path d="M62.9,206.57H60.51v-2.26A6.68,6.68,0,0,1,55,206.88a7.89,7.89,0,0,1,0-15.77,6.73,6.73,0,0,1,5.54,2.56v-2.26H62.9ZM49.83,199a5.41,5.41,0,1,0,5.43-5.63A5.39,5.39,0,0,0,49.83,199Z"/><path d="M82.06,197.17v9.4H79.67V198c0-2.88-1.6-4.58-4.37-4.58A4.46,4.46,0,0,0,70.66,198v8.55h-2.4V191.41h2.37v2.16a6,6,0,0,1,5.11-2.46C79.48,191.11,82.06,193.51,82.06,197.17Z"/><path d="M97.45,194.63a9.49,9.49,0,0,0-5-1.42c-2.16,0-3.59.91-3.59,2.38,0,1.26,1.11,1.89,3.09,2.13l1.8.22c3.21.42,5.09,1.75,5.09,4.23,0,2.88-2.6,4.69-6.68,4.69a10.62,10.62,0,0,1-6.32-1.94l1.1-1.79a8,8,0,0,0,5.25,1.65c2.56,0,4.18-.85,4.18-2.45,0-1.22-1-2-3.17-2.21l-1.81-.21c-3.41-.41-5-1.93-5-4.19,0-2.87,2.42-4.6,6-4.6a11.15,11.15,0,0,1,6,1.65Z"/><path d="M122.54,193.57H116v7.65c0,2.37,1.25,3.41,3,3.41a5.53,5.53,0,0,0,3.19-1.07l1.12,1.81a7.36,7.36,0,0,1-4.5,1.51c-3.27,0-5.2-1.8-5.2-5.61v-7.7h-3.32v-2.16h3.32v-4.82H116v4.82h6.55Z"/><path d="M141.06,199a8,8,0,1,1-8-7.87A7.76,7.76,0,0,1,141.06,199Zm-13.52,0a5.54,5.54,0,1,0,5.53-5.63A5.43,5.43,0,0,0,127.54,199Z"/><path d="M159,200.25c0,4.5-3.23,6.63-6.88,6.63s-6.89-2.13-6.89-6.63v-8.84h2.39V200c0,3.14,1.9,4.61,4.5,4.61s4.48-1.47,4.48-4.61v-8.61H159Z"/><path d="M174.33,194.63a9.53,9.53,0,0,0-5-1.42c-2.16,0-3.58.91-3.58,2.38,0,1.26,1.1,1.89,3.09,2.13l1.79.22c3.22.42,5.09,1.75,5.09,4.23,0,2.88-2.59,4.69-6.67,4.69a10.62,10.62,0,0,1-6.33-1.94l1.11-1.79a8,8,0,0,0,5.25,1.65c2.56,0,4.18-.85,4.18-2.45,0-1.22-1-2-3.17-2.21l-1.81-.21c-3.41-.41-5-1.93-5-4.19,0-2.87,2.41-4.6,6-4.6a11.18,11.18,0,0,1,6,1.65Z"/><path d="M191.52,206.57h-2.4v-23h2.4Z"/><path d="M210.56,198.94a8.37,8.37,0,0,1-.05.89H198.36a5.16,5.16,0,0,0,5.37,4.95,7,7,0,0,0,4.8-1.91l1.28,1.64a8.54,8.54,0,0,1-6.23,2.37c-4.48,0-7.66-3.19-7.66-7.88s3.2-7.89,7.52-7.89C207.55,191.11,210.53,194.33,210.56,198.94Zm-12.16-1h9.73c-.31-2.84-2.16-4.66-4.74-4.66C200.59,193.24,198.78,195.16,198.4,197.9Z"/><path d="M225.07,194.63a9.53,9.53,0,0,0-5-1.42c-2.16,0-3.58.91-3.58,2.38,0,1.26,1.1,1.89,3.09,2.13l1.79.22c3.22.42,5.09,1.75,5.09,4.23,0,2.88-2.59,4.69-6.67,4.69a10.62,10.62,0,0,1-6.33-1.94l1.11-1.79a8,8,0,0,0,5.25,1.65c2.56,0,4.17-.85,4.17-2.45,0-1.22-1-2-3.16-2.21l-1.81-.21c-3.41-.41-5-1.93-5-4.19,0-2.87,2.41-4.6,6.05-4.6a11.18,11.18,0,0,1,6,1.65Z"/><path d="M255.35,199a7.56,7.56,0,0,1-7.57,7.9,6.7,6.7,0,0,1-5.52-2.55V213h-2.4V191.41h2.4v2.24a6.72,6.72,0,0,1,5.52-2.54A7.56,7.56,0,0,1,255.35,199Zm-13.25,0a5.41,5.41,0,1,0,5.4-5.63A5.35,5.35,0,0,0,242.1,199Z"/><path d="M274.24,206.57h-2.38v-2.26a6.68,6.68,0,0,1-5.54,2.57,7.89,7.89,0,0,1,0-15.77,6.73,6.73,0,0,1,5.54,2.56v-2.26h2.38ZM261.18,199a5.41,5.41,0,1,0,5.43-5.63A5.39,5.39,0,0,0,261.18,199Z"/><path d="M281.51,213h-2.64l5.65-9.75-7-11.88h2.67l5.65,9.51,5.35-9.51h2.63Z"/><path d="M307,194.63a9.52,9.52,0,0,0-5-1.42c-2.17,0-3.59.91-3.59,2.38,0,1.26,1.1,1.89,3.09,2.13l1.79.22c3.22.42,5.09,1.75,5.09,4.23,0,2.88-2.59,4.69-6.67,4.69a10.62,10.62,0,0,1-6.33-1.94l1.11-1.79a8,8,0,0,0,5.25,1.65c2.56,0,4.18-.85,4.18-2.45,0-1.22-1-2-3.17-2.21l-1.81-.21c-3.41-.41-5-1.93-5-4.19,0-2.87,2.42-4.6,6-4.6a11.18,11.18,0,0,1,6,1.65Z"/><path d="M333.75,193.67V183.52h2.38v23h-2.38v-2.26a6.68,6.68,0,0,1-5.54,2.57,7.89,7.89,0,0,1,0-15.77A6.73,6.73,0,0,1,333.75,193.67ZM323.07,199a5.41,5.41,0,1,0,5.43-5.63A5.39,5.39,0,0,0,323.07,199Z"/><path d="M356,206.57h-2.38v-2.26a6.68,6.68,0,0,1-5.54,2.57,7.89,7.89,0,0,1,0-15.77,6.73,6.73,0,0,1,5.54,2.56v-2.26H356ZM343,199a5.41,5.41,0,1,0,5.43-5.63A5.39,5.39,0,0,0,343,199Z"/><path d="M375.2,197.17v9.4h-2.39V198c0-2.88-1.6-4.58-4.37-4.58A4.46,4.46,0,0,0,363.8,198v8.55h-2.4V191.41h2.37v2.16a6,6,0,0,1,5.1-2.46C372.62,191.11,375.2,193.51,375.2,197.17Z"/><path d="M390.59,194.63a9.53,9.53,0,0,0-5-1.42c-2.16,0-3.58.91-3.58,2.38,0,1.26,1.1,1.89,3.09,2.13l1.79.22c3.22.42,5.09,1.75,5.09,4.23,0,2.88-2.59,4.69-6.67,4.69a10.62,10.62,0,0,1-6.33-1.94l1.11-1.79a8,8,0,0,0,5.25,1.65c2.56,0,4.17-.85,4.17-2.45,0-1.22-1-2-3.16-2.21l-1.81-.21c-3.41-.41-5-1.93-5-4.19,0-2.87,2.41-4.6,6.05-4.6a11.18,11.18,0,0,1,6,1.65Z"/><path d="M407.78,206.57h-2.4v-23h2.4Z"/><path d="M426.82,198.94a8.37,8.37,0,0,1-.05.89H414.62a5.16,5.16,0,0,0,5.37,4.95,7,7,0,0,0,4.8-1.91l1.28,1.64a8.54,8.54,0,0,1-6.23,2.37c-4.48,0-7.67-3.19-7.67-7.88s3.21-7.89,7.53-7.89C423.81,191.11,426.79,194.33,426.82,198.94Zm-12.16-1h9.73c-.31-2.84-2.16-4.66-4.74-4.66C416.85,193.24,415,195.16,414.66,197.9Z"/><path d="M441.32,194.63a9.46,9.46,0,0,0-5-1.42c-2.16,0-3.58.91-3.58,2.38,0,1.26,1.1,1.89,3.09,2.13l1.79.22c3.22.42,5.09,1.75,5.09,4.23,0,2.88-2.59,4.69-6.68,4.69a10.62,10.62,0,0,1-6.32-1.94l1.11-1.79a7.94,7.94,0,0,0,5.25,1.65c2.56,0,4.17-.85,4.17-2.45,0-1.22-1-2-3.17-2.21l-1.8-.21c-3.41-.41-5-1.93-5-4.19,0-2.87,2.41-4.6,6.05-4.6a11.12,11.12,0,0,1,6,1.65Z"/><path d="M459,193.67v-2.26h2.39V213H459v-8.66a6.68,6.68,0,0,1-5.54,2.57,7.89,7.89,0,0,1,0-15.77A6.73,6.73,0,0,1,459,193.67ZM448.32,199a5.41,5.41,0,1,0,5.42-5.63A5.39,5.39,0,0,0,448.32,199Z"/><path d="M480.38,200.25c0,4.5-3.24,6.63-6.89,6.63s-6.88-2.13-6.88-6.63v-8.84H469V200c0,3.14,1.91,4.61,4.5,4.61S478,203.16,478,200v-8.61h2.41Z"/><path d="M499.22,198.94a8.37,8.37,0,0,1-.05.89H487a5.16,5.16,0,0,0,5.36,4.95,7,7,0,0,0,4.81-1.91l1.28,1.64a8.54,8.54,0,0,1-6.23,2.37c-4.48,0-7.67-3.19-7.67-7.88s3.2-7.89,7.53-7.89C496.21,191.11,499.19,194.33,499.22,198.94Zm-12.17-1h9.74c-.31-2.84-2.16-4.66-4.74-4.66C489.25,193.24,487.44,195.16,487.05,197.9Z"/><path d="M506,206.57h-2.4v-23H506Z"/><path d="M521.6,194.63a9.49,9.49,0,0,0-5-1.42c-2.16,0-3.59.91-3.59,2.38,0,1.26,1.11,1.89,3.09,2.13l1.79.22c3.22.42,5.09,1.75,5.09,4.23,0,2.88-2.59,4.69-6.67,4.69a10.62,10.62,0,0,1-6.32-1.94l1.1-1.79a8,8,0,0,0,5.25,1.65c2.56,0,4.18-.85,4.18-2.45,0-1.22-1-2-3.17-2.21l-1.81-.21c-3.41-.41-5-1.93-5-4.19,0-2.87,2.42-4.6,6.05-4.6a11.15,11.15,0,0,1,6,1.65Z"/><path d="M101.75,233.17v9.4H99.37V234c0-2.88-1.6-4.58-4.37-4.58A4.46,4.46,0,0,0,90.36,234v8.55H88V227.41h2.36v2.16a6,6,0,0,1,5.11-2.46C99.18,227.11,101.75,229.51,101.75,233.17Z"/><path d="M121.92,235a8,8,0,1,1-8-7.87A7.77,7.77,0,0,1,121.92,235Zm-13.53,0a5.54,5.54,0,1,0,5.54-5.63A5.44,5.44,0,0,0,108.39,235Z"/><path d="M139.88,236.25c0,4.5-3.24,6.63-6.89,6.63s-6.88-2.13-6.88-6.63v-8.84h2.39V236c0,3.14,1.9,4.61,4.49,4.61s4.49-1.47,4.49-4.61v-8.61h2.4Z"/><path d="M155.18,230.63a9.46,9.46,0,0,0-5-1.42c-2.16,0-3.58.91-3.58,2.38,0,1.26,1.1,1.89,3.09,2.13l1.79.22c3.22.42,5.09,1.75,5.09,4.23,0,2.88-2.59,4.69-6.68,4.69a10.62,10.62,0,0,1-6.32-1.94l1.11-1.79a8,8,0,0,0,5.25,1.65c2.56,0,4.17-.85,4.17-2.45,0-1.22-1-2-3.16-2.21l-1.81-.21c-3.41-.41-5-1.93-5-4.19,0-2.87,2.41-4.6,6.05-4.6a11.18,11.18,0,0,1,6,1.65Z"/><path d="M184.32,242.57h-2.38v-2.26a6.68,6.68,0,0,1-5.54,2.57,7.89,7.89,0,0,1,0-15.77,6.73,6.73,0,0,1,5.54,2.56v-2.26h2.38ZM171.26,235a5.41,5.41,0,1,0,5.43-5.63A5.39,5.39,0,0,0,171.26,235Z"/><path d="M197,242.6h-2.8l-6.47-15.19h2.59l5.3,12.76,5.3-12.76h2.53Z"/><path d="M221,235a8,8,0,1,1-8-7.87A7.76,7.76,0,0,1,221,235Zm-13.52,0a5.54,5.54,0,1,0,5.53-5.63A5.43,5.43,0,0,0,207.52,235Z"/><path d="M239.22,233.17v9.4h-2.38V234c0-2.88-1.6-4.58-4.37-4.58a4.46,4.46,0,0,0-4.65,4.64v8.55h-2.4V227.41h2.37v2.16a6,6,0,0,1,5.11-2.46C236.64,227.11,239.22,229.51,239.22,233.17Z"/><path d="M254.61,230.63a9.49,9.49,0,0,0-5-1.42c-2.16,0-3.59.91-3.59,2.38,0,1.26,1.11,1.89,3.09,2.13l1.8.22c3.21.42,5.09,1.75,5.09,4.23,0,2.88-2.6,4.69-6.68,4.69a10.62,10.62,0,0,1-6.32-1.94l1.1-1.79a8,8,0,0,0,5.25,1.65c2.56,0,4.18-.85,4.18-2.45,0-1.22-1-2-3.17-2.21l-1.81-.21c-3.41-.41-5-1.93-5-4.19,0-2.87,2.42-4.6,6-4.6a11.13,11.13,0,0,1,6,1.65Z"/><path d="M281.36,229.67V219.52h2.39v23h-2.39v-2.26a6.67,6.67,0,0,1-5.53,2.57,7.89,7.89,0,0,1,0-15.77A6.72,6.72,0,0,1,281.36,229.67ZM270.69,235a5.41,5.41,0,1,0,5.42-5.63A5.39,5.39,0,0,0,270.69,235Z"/><path d="M302.8,234.94a8.37,8.37,0,0,1-.05.89H290.6a5.16,5.16,0,0,0,5.36,4.95,7,7,0,0,0,4.8-1.91l1.28,1.64a8.52,8.52,0,0,1-6.22,2.37c-4.48,0-7.67-3.19-7.67-7.88s3.2-7.89,7.52-7.89C299.79,227.11,302.77,230.33,302.8,234.94Zm-12.17-1h9.73c-.3-2.84-2.16-4.66-4.73-4.66C292.83,229.24,291,231.16,290.63,233.9Z"/><path d="M317.3,230.63a9.49,9.49,0,0,0-5-1.42c-2.16,0-3.59.91-3.59,2.38,0,1.26,1.11,1.89,3.09,2.13l1.79.22c3.22.42,5.1,1.75,5.1,4.23,0,2.88-2.6,4.69-6.68,4.69a10.62,10.62,0,0,1-6.32-1.94l1.1-1.79a8,8,0,0,0,5.25,1.65c2.56,0,4.18-.85,4.18-2.45,0-1.22-1-2-3.17-2.21l-1.81-.21c-3.41-.41-5-1.93-5-4.19,0-2.87,2.42-4.6,6.05-4.6a11.15,11.15,0,0,1,6,1.65Z"/><path d="M345.59,234.94a8.37,8.37,0,0,1,0,.89H333.39a5.16,5.16,0,0,0,5.37,4.95,7,7,0,0,0,4.8-1.91l1.28,1.64a8.54,8.54,0,0,1-6.23,2.37c-4.48,0-7.67-3.19-7.67-7.88s3.21-7.89,7.53-7.89C342.58,227.11,345.56,230.33,345.59,234.94Zm-12.16-1h9.73c-.31-2.84-2.16-4.66-4.74-4.66C335.62,229.24,333.81,231.16,333.43,233.9Z"/><path d="M375.13,233.17v9.4h-2.39V234c0-2.88-1.6-4.58-4.38-4.58a4.46,4.46,0,0,0-4.65,4.64v8.55h-2.38V234c0-2.88-1.6-4.58-4.37-4.58a4.46,4.46,0,0,0-4.64,4.64v8.55h-2.4V227.41h2.37v2.16a6.6,6.6,0,0,1,10.78.72,6.18,6.18,0,0,1,5.72-3.18C372.55,227.11,375.13,229.51,375.13,233.17Z"/><path d="M395.92,235a7.56,7.56,0,0,1-7.57,7.9,6.68,6.68,0,0,1-5.52-2.55V249h-2.41V227.41h2.41v2.24a6.7,6.7,0,0,1,5.52-2.54A7.56,7.56,0,0,1,395.92,235Zm-13.25,0a5.4,5.4,0,1,0,5.39-5.63A5.35,5.35,0,0,0,382.67,235Z"/><path d="M402.74,242.57h-2.4v-23h2.4Z"/><path d="M423,235a8,8,0,1,1-8-7.87A7.76,7.76,0,0,1,423,235Zm-13.52,0a5.54,5.54,0,1,0,5.54-5.63A5.43,5.43,0,0,0,409.52,235Z"/><path d="M428.33,249h-2.64l5.65-9.75-7-11.88h2.67l5.65,9.51,5.34-9.51h2.63Z"/><path d="M456.66,234.94a8.37,8.37,0,0,1-.05.89H444.46a5.16,5.16,0,0,0,5.37,4.95,7,7,0,0,0,4.8-1.91l1.28,1.64a8.54,8.54,0,0,1-6.23,2.37c-4.48,0-7.67-3.19-7.67-7.88s3.2-7.89,7.53-7.89C453.65,227.11,456.63,230.33,456.66,234.94Zm-12.16-1h9.73c-.31-2.84-2.16-4.66-4.74-4.66C446.69,229.24,444.88,231.16,444.5,233.9Zm2.89-8.81,3.35-4.8h3l-4,4.8Z"/><path d="M471.16,230.63a9.46,9.46,0,0,0-5-1.42c-2.16,0-3.58.91-3.58,2.38,0,1.26,1.1,1.89,3.09,2.13l1.79.22c3.22.42,5.09,1.75,5.09,4.23,0,2.88-2.59,4.69-6.68,4.69a10.62,10.62,0,0,1-6.32-1.94l1.11-1.79a7.94,7.94,0,0,0,5.25,1.65c2.56,0,4.17-.85,4.17-2.45,0-1.22-1-2-3.17-2.21l-1.8-.21c-3.41-.41-5-1.93-5-4.19,0-2.87,2.41-4.6,6.05-4.6a11.12,11.12,0,0,1,6,1.65Z"/></svg>