<svg id="Layer_1" data-name="Layer 1" xmlns="http://www.w3.org/2000/svg" viewBox="0 0 485 137"><defs><style>.cls-1{fill:#ed5a36;}</style></defs><title>our-responsibility-infographics-outlines</title><path d="M91.1,39.33H88.34L85.8,33.09H74.71l-2.53,6.24H69.5l9.21-22.41h3.18ZM75.7,30.66h9.12L80.26,19.47Z"/><path d="M106.68,26.26l-1.53,1.61A5.82,5.82,0,0,0,101,26.11a5.35,5.35,0,0,0-5.35,5.64A5.36,5.36,0,0,0,101,37.4a6.05,6.05,0,0,0,4.19-1.78l1.49,1.63a7.38,7.38,0,0,1-5.62,2.39,7.59,7.59,0,0,1-7.84-7.89,7.58,7.58,0,0,1,7.84-7.88A7.31,7.31,0,0,1,106.68,26.26Z"/><path d="M121.75,26.34H115.2V34c0,2.37,1.25,3.41,3,3.41a5.54,5.54,0,0,0,3.19-1.08l1.12,1.81a7.3,7.3,0,0,1-4.5,1.51c-3.27,0-5.2-1.8-5.2-5.61V26.34H109.5V24.17h3.32V19.36h2.38v4.81h6.55Z"/><path d="M128.86,18.8a1.66,1.66,0,0,1-1.7,1.68,1.64,1.64,0,0,1-1.68-1.68,1.66,1.66,0,0,1,1.68-1.7A1.68,1.68,0,0,1,128.86,18.8Zm-.5,20.53H126V24.17h2.4Z"/><path d="M141,39.36h-2.8L131.7,24.17h2.59l5.3,12.76,5.29-12.76h2.53Z"/><path d="M163.76,31.7a8.37,8.37,0,0,1,0,.89H151.56a5.16,5.16,0,0,0,5.36,4.95,7,7,0,0,0,4.81-1.9L163,37.27a8.5,8.5,0,0,1-6.23,2.37c-4.48,0-7.67-3.19-7.67-7.88s3.2-7.89,7.53-7.89C160.75,23.87,163.73,27.09,163.76,31.7Zm-12.17-1h9.74C161,27.82,159.17,26,156.59,26,153.79,26,152,27.92,151.59,30.66Z"/><path d="M202.6,29.94v9.39h-2.39V30.72c0-2.88-1.6-4.58-4.38-4.58a4.47,4.47,0,0,0-4.65,4.65v8.54H188.8V30.72c0-2.88-1.6-4.58-4.37-4.58a4.46,4.46,0,0,0-4.64,4.65v8.54h-2.4V24.17h2.36v2.17a6.59,6.59,0,0,1,10.79.72,6.17,6.17,0,0,1,5.72-3.19C200,23.87,202.6,26.27,202.6,29.94Z"/><path d="M221.54,31.7a8.45,8.45,0,0,1,0,.89H209.35a5.15,5.15,0,0,0,5.36,4.95,7,7,0,0,0,4.8-1.9l1.28,1.63a8.49,8.49,0,0,1-6.22,2.37c-4.49,0-7.67-3.19-7.67-7.88s3.2-7.89,7.52-7.89C218.53,23.87,221.51,27.09,221.54,31.7Zm-12.16-1h9.73c-.3-2.84-2.16-4.66-4.74-4.66C211.57,26,209.76,27.92,209.38,30.66Z"/><path d="M251.08,29.94v9.39H248.7V30.72c0-2.88-1.6-4.58-4.39-4.58a4.46,4.46,0,0,0-4.64,4.65v8.54h-2.39V30.72c0-2.88-1.6-4.58-4.37-4.58a4.46,4.46,0,0,0-4.64,4.65v8.54h-2.4V24.17h2.37v2.17a6.59,6.59,0,0,1,10.79.72,6.15,6.15,0,0,1,5.71-3.19C248.5,23.87,251.08,26.27,251.08,29.94Z"/><path d="M271.87,31.75a7.56,7.56,0,0,1-7.57,7.89,6.7,6.7,0,0,1-5.52-2.55v2.24h-2.4v-23h2.4V26.42a6.7,6.7,0,0,1,5.52-2.55A7.56,7.56,0,0,1,271.87,31.75Zm-13.25,0a5.41,5.41,0,1,0,10.8,0,5.41,5.41,0,1,0-10.8,0Z"/><path d="M289.91,31.7a8.45,8.45,0,0,1,0,.89H277.72a5.15,5.15,0,0,0,5.36,4.95,7,7,0,0,0,4.8-1.9l1.28,1.63a8.49,8.49,0,0,1-6.22,2.37c-4.49,0-7.67-3.19-7.67-7.88s3.2-7.89,7.52-7.89C286.9,23.87,289.88,27.09,289.91,31.7Zm-12.16-1h9.73c-.3-2.84-2.16-4.66-4.74-4.66C279.94,26,278.13,27.92,277.75,30.66Z"/><path d="M303.89,24.38l-.57,2.36a5.85,5.85,0,0,0-2.63-.61c-2.37,0-4.06,1.85-4.06,4.72v8.48h-2.39V24.17h2.37V26.3a5.3,5.3,0,0,1,4.5-2.43A6.45,6.45,0,0,1,303.89,24.38Z"/><path d="M331.51,31.75a8,8,0,1,1-8-7.88A7.77,7.77,0,0,1,331.51,31.75Zm-13.53,0a5.54,5.54,0,1,0,11.08,0,5.54,5.54,0,1,0-11.08,0Z"/><path d="M345.59,26.34h-6v13h-2.4v-13H333.7V24.17h3.46V21.58c0-3.23,1.46-5.6,5-5.6a7.79,7.79,0,0,1,4.15,1.14l-.87,2a6.42,6.42,0,0,0-3.12-.9c-1.95,0-2.8,1.25-2.8,3.36v2.59h6Z"/><path d="M368.94,26.34h-6.55V34c0,2.37,1.25,3.41,3,3.41a5.54,5.54,0,0,0,3.19-1.08l1.12,1.81a7.3,7.3,0,0,1-4.5,1.51c-3.27,0-5.2-1.8-5.2-5.61V26.34h-3.32V24.17H360V19.36h2.38v4.81h6.55Z"/><path d="M375.55,26.29a6.05,6.05,0,0,1,5.07-2.42c3.75,0,6.33,2.4,6.33,6.07v9.39h-2.39V30.72c0-2.88-1.6-4.58-4.37-4.58a4.46,4.46,0,0,0-4.64,4.65v8.54h-2.4v-23h2.4Z"/><path d="M405.86,31.7a8.37,8.37,0,0,1-.05.89H393.66A5.16,5.16,0,0,0,399,37.54a7,7,0,0,0,4.8-1.9l1.29,1.63a8.52,8.52,0,0,1-6.23,2.37c-4.48,0-7.67-3.19-7.67-7.88s3.2-7.89,7.52-7.89C402.85,23.87,405.83,27.09,405.86,31.7Zm-12.17-1h9.73c-.3-2.84-2.16-4.66-4.73-4.66C395.89,26,394.08,27.92,393.69,30.66Z"/><path class="cls-1" d="M87.57,78c0,6.36-3.39,11.05-9,13.67,6.32,2.5,10.32,7.31,10.32,13.81,0,11.86-10.8,17.58-22.19,17.58-9,0-16.47-3.22-21-8.73l6.93-7.61a19,19,0,0,0,13.67,5.76c5.85,0,10.53-2.53,10.53-7.82S71.54,96.75,65,96.75H58V86.43h7.06c5.84,0,10.53-2.58,10.53-7.65,0-4.86-4.39-7.53-10-7.53a15.1,15.1,0,0,0-12.16,6.11L46.17,70c3.95-5.33,10.49-9.33,20.08-9.33C78.93,60.67,87.57,67.55,87.57,78Z"/><path class="cls-1" d="M148.56,91.85c0,19.48-11.61,31.17-26,31.17S96.66,111.33,96.66,91.85s11.52-31.18,25.92-31.18S148.56,72.37,148.56,91.85Zm-39.82,0c0,13.16,6.15,20,13.84,20s13.85-6.88,13.85-20-6.11-20-13.85-20S108.74,78.69,108.74,91.85Z"/><path class="cls-1" d="M182.17,87.68c0,7.31-5.72,12.68-13.41,12.68S155.38,95,155.38,87.68,161.06,75,168.76,75,182.17,80.41,182.17,87.68Zm-18.57,0a5.16,5.16,0,1,0,5.16-5A5,5,0,0,0,163.6,87.68ZM175.16,122h-10l33.49-46h10Zm43.52-11.83c0,7.27-5.76,12.69-13.46,12.69s-13.37-5.42-13.37-12.69,5.76-12.68,13.37-12.68S218.68,102.81,218.68,110.12Zm-18.58,0a5.16,5.16,0,0,0,10.32,0,5.16,5.16,0,0,0-10.32,0Z"/><path class="cls-1" d="M306,74.13l-10.32,6.32a18,18,0,0,0-15.56-8.3c-10.93,0-19,8-19,19.7,0,12.08,8.39,19.69,19,19.69a18.43,18.43,0,0,0,15.69-8.25l9.8,7c-5.33,7.82-14.4,12.73-25.41,12.73-18.53,0-31.6-13.12-31.6-31.22s13.07-31.22,31.6-31.22C291.31,60.63,301.11,65.7,306,74.13Z"/><path class="cls-1" d="M324.81,122H313.59V60h11.22Z"/><path class="cls-1" d="M374.88,104.19c0,13.16-9.29,18.83-19.69,18.83s-19.74-5.67-19.74-18.83V80.28h11.22V103.2c0,6.66,3.66,9.37,8.52,9.37s8.51-2.71,8.51-9.37V80.28h11.18Z"/><path class="cls-1" d="M429.16,101.09c0,12.52-8.68,21.93-20.16,21.93a15.25,15.25,0,0,1-12.48-5.67V122h-11V60h11.18V84.62A15.07,15.07,0,0,1,409,79.16C420.48,79.16,429.16,88.58,429.16,101.09Zm-33,0c0,6.58,4.34,11.48,10.71,11.48,6.62,0,10.75-5.11,10.75-11.48s-4.13-11.48-10.75-11.48C400.52,89.61,396.18,94.51,396.18,101.09Z"/></svg>