<svg id="Layer_1" data-name="Layer 1" xmlns="http://www.w3.org/2000/svg" viewBox="0 0 485 216"><defs><style>.cls-1{fill:#4d4d4d;}.cls-2{fill:#ed5a36;}</style></defs><title>our-responsibility-infographics-outlines</title><path d="M59.57,37.42H43.81V15H59.43v2.41h-13v7.51H59v2.4H46.38V35H59.57Z"/><path d="M72.17,29.66l6.1,7.76H75.34l-4.79-6-4.73,6H63l6.08-7.74-5.92-7.41h2.93L70.68,28l4.6-5.74h2.81Z"/><path d="M93.32,24.35,91.79,26a5.82,5.82,0,0,0-4.15-1.76,5.35,5.35,0,0,0-5.35,5.64,5.36,5.36,0,0,0,5.35,5.65,6.05,6.05,0,0,0,4.19-1.78l1.49,1.63a7.33,7.33,0,0,1-5.62,2.39,7.59,7.59,0,0,1-7.84-7.89A7.59,7.59,0,0,1,87.7,22,7.31,7.31,0,0,1,93.32,24.35Z"/><path d="M110.42,29.79a8.72,8.72,0,0,1,0,.9H98.22a5.15,5.15,0,0,0,5.36,4.94,7,7,0,0,0,4.8-1.9l1.28,1.63a8.48,8.48,0,0,1-6.22,2.37c-4.48,0-7.67-3.19-7.67-7.88S99,22,103.29,22C107.41,22,110.38,25.18,110.42,29.79Zm-12.17-1H108c-.3-2.83-2.16-4.66-4.73-4.66C100.44,24.09,98.64,26,98.25,28.75Z"/><path d="M128.45,29.79a6.6,6.6,0,0,1,0,.9H116.25a5.16,5.16,0,0,0,5.37,4.94,7,7,0,0,0,4.8-1.9l1.28,1.63a8.5,8.5,0,0,1-6.23,2.37c-4.48,0-7.66-3.19-7.66-7.88S117,22,121.33,22C125.44,22,128.42,25.18,128.45,29.79Zm-12.16-1H126c-.31-2.83-2.16-4.66-4.74-4.66C118.48,24.09,116.67,26,116.29,28.75Z"/><path d="M145,24.52V14.38h2.38v23H145V35.17a6.7,6.7,0,0,1-5.54,2.56,7.56,7.56,0,0,1-7.57-7.89A7.56,7.56,0,0,1,139.41,22,6.76,6.76,0,0,1,145,24.52Zm-10.68,5.32a5.42,5.42,0,1,0,10.82,0,5.41,5.41,0,1,0-10.82,0Z"/><path d="M187.32,28v9.39h-2.38V28.81c0-2.88-1.6-4.58-4.39-4.58a4.47,4.47,0,0,0-4.64,4.65v8.54h-2.38V28.81c0-2.88-1.61-4.58-4.37-4.58a4.47,4.47,0,0,0-4.65,4.65v8.54h-2.4V22.27h2.37v2.16a6.59,6.59,0,0,1,10.79.72A6.17,6.17,0,0,1,181,22C184.75,22,187.32,24.36,187.32,28Z"/><path d="M195.46,16.89a1.66,1.66,0,0,1-1.69,1.68,1.64,1.64,0,0,1-1.68-1.68,1.66,1.66,0,0,1,1.68-1.7A1.68,1.68,0,0,1,195.46,16.89ZM195,37.42h-2.4V22.27H195Z"/><path d="M214.11,28v9.39h-2.38V28.81c0-2.88-1.6-4.58-4.37-4.58a4.46,4.46,0,0,0-4.64,4.65v8.54h-2.4V22.27h2.37v2.16a6,6,0,0,1,5.1-2.47C211.54,22,214.11,24.36,214.11,28Z"/><path d="M222.22,16.89a1.66,1.66,0,0,1-1.7,1.68,1.64,1.64,0,0,1-1.68-1.68,1.66,1.66,0,0,1,1.68-1.7A1.68,1.68,0,0,1,222.22,16.89Zm-.5,20.53h-2.4V22.27h2.4Z"/><path d="M252.28,28v9.39H249.9V28.81c0-2.88-1.6-4.58-4.39-4.58a4.47,4.47,0,0,0-4.64,4.65v8.54h-2.39V28.81c0-2.88-1.6-4.58-4.37-4.58a4.47,4.47,0,0,0-4.64,4.65v8.54h-2.4V22.27h2.37v2.16a6.59,6.59,0,0,1,10.79.72A6.16,6.16,0,0,1,245.94,22C249.71,22,252.28,24.36,252.28,28Z"/><path d="M271.09,31.1c0,4.5-3.23,6.63-6.88,6.63s-6.88-2.13-6.88-6.63V22.27h2.38v8.61c0,3.14,1.91,4.61,4.5,4.61s4.48-1.47,4.48-4.61V22.27h2.4Z"/><path d="M301.52,28v9.39h-2.39V28.81c0-2.88-1.6-4.58-4.38-4.58a4.46,4.46,0,0,0-4.64,4.65v8.54h-2.39V28.81c0-2.88-1.6-4.58-4.37-4.58a4.47,4.47,0,0,0-4.64,4.65v8.54h-2.4V22.27h2.37v2.16a6.59,6.59,0,0,1,10.79.72A6.15,6.15,0,0,1,295.18,22C298.94,22,301.52,24.36,301.52,28Z"/><path d="M332.86,34.94l4.56-12.67h2.48l-5.6,15.15h-2.83l-4.53-12.59-4.52,12.59h-2.78L314,22.27h2.54l4.53,12.66,4.51-12.66h2.69Z"/><path d="M357.34,37.42H355V35.17a6.69,6.69,0,0,1-5.53,2.56,7.57,7.57,0,0,1-7.58-7.89A7.57,7.57,0,0,1,349.42,22,6.75,6.75,0,0,1,355,24.52V22.27h2.39Zm-13.06-7.58a5.42,5.42,0,1,0,10.82,0,5.41,5.41,0,1,0-10.82,0Z"/><path d="M374.66,24.54V22.27h2.4V36.38c0,4.95-3.33,7.69-8,7.69a10.34,10.34,0,0,1-6.39-2l1.06-1.92A8.8,8.8,0,0,0,369,41.89c3.28,0,5.62-1.87,5.62-5.41V34.93a6.38,6.38,0,0,1-5.41,2.57,7.39,7.39,0,0,1-7.51-7.77A7.4,7.4,0,0,1,369.25,22,6.41,6.41,0,0,1,374.66,24.54Zm-10.49,5.19a5.35,5.35,0,1,0,10.7,0,5.35,5.35,0,1,0-10.7,0Z"/><path d="M396.1,29.79a6.6,6.6,0,0,1-.05.9H383.91a5.14,5.14,0,0,0,5.36,4.94,7,7,0,0,0,4.8-1.9l1.28,1.63a8.5,8.5,0,0,1-6.23,2.37c-4.48,0-7.66-3.19-7.66-7.88S384.66,22,389,22C393.09,22,396.07,25.18,396.1,29.79Zm-12.16-1h9.73c-.3-2.83-2.16-4.66-4.74-4.66C386.13,24.09,384.32,26,383.94,28.75Z"/><path d="M425.22,29.84a7.56,7.56,0,0,1-7.57,7.89,6.68,6.68,0,0,1-5.52-2.55v2.24h-2.4v-23h2.4V24.51A6.68,6.68,0,0,1,417.65,22,7.56,7.56,0,0,1,425.22,29.84Zm-13.25,0a5.41,5.41,0,1,0,10.8,0,5.41,5.41,0,1,0-10.8,0Z"/><path d="M430.53,43.89h-2.64l5.65-9.75-7-11.87h2.67l5.65,9.5,5.35-9.5h2.62Z"/><path class="cls-1" d="M59,112.47H52.63v-2.68a8.91,8.91,0,0,1-7.27,3.31c-6.7,0-11.76-5.49-11.76-12.78s5.06-12.79,11.76-12.79a8.91,8.91,0,0,1,7.27,3.33V88.18H59ZM40.29,100.32c0,3.71,2.43,6.69,6.27,6.69s6.27-2.86,6.27-6.69-2.54-6.7-6.27-6.7S40.29,96.6,40.29,100.32Z"/><path class="cls-1" d="M83.11,94H74.32v8.87c0,3,1.6,4.14,3.63,4.14a9.53,9.53,0,0,0,4.56-1.58l2.41,5.11a13.52,13.52,0,0,1-8,2.56c-6,0-9.1-3.41-9.1-9.7V94H63.08V88.18h4.69V81h6.55v7.22h8.79Z"/><path class="cls-1" d="M108.83,112.47h-6.54V76.37h6.54Z"/><path class="cls-1" d="M138.26,100.29a17.77,17.77,0,0,1-.13,2.21H120.91a5.86,5.86,0,0,0,6.24,5,9.85,9.85,0,0,0,6.15-2.34l3.83,4.22a14.75,14.75,0,0,1-10.35,3.68c-7.45,0-12.61-5.06-12.61-12.71s5-12.86,12.28-12.86C133.45,87.53,138.24,92.72,138.26,100.29ZM120.94,98h10.75c-.6-3.1-2.48-4.86-5.29-4.86C123.32,93.17,121.51,95,120.94,98Z"/><path class="cls-1" d="M167.57,112.47h-6.4v-2.68a8.89,8.89,0,0,1-7.27,3.31c-6.69,0-11.75-5.49-11.75-12.78s5.06-12.79,11.75-12.79a8.88,8.88,0,0,1,7.27,3.33V88.18h6.4Zm-18.73-12.15c0,3.71,2.43,6.69,6.27,6.69s6.26-2.86,6.26-6.69-2.53-6.7-6.26-6.7S148.84,96.6,148.84,100.32Z"/><path class="cls-1" d="M191.76,95A19.69,19.69,0,0,0,184,93c-2.48,0-3.73.88-3.73,2.21s1.75,1.75,4,2.08l2.16.32c5.26.81,8.19,3.16,8.19,7.27,0,5-4.11,8.25-11.15,8.25-3.31,0-7.65-.63-10.81-2.86l2.59-5a14.2,14.2,0,0,0,8.27,2.38c3,0,4.49-.85,4.49-2.28,0-1.18-1.23-1.83-4-2.23l-2-.28c-5.62-.77-8.4-3.23-8.4-7.37,0-5,3.86-8,10.25-8A21.79,21.79,0,0,1,194,89.86Z"/><path class="cls-1" d="M217.55,94h-8.8v8.87c0,3,1.6,4.14,3.63,4.14a9.53,9.53,0,0,0,4.57-1.58l2.4,5.11a13.52,13.52,0,0,1-8,2.56c-6,0-9.1-3.41-9.1-9.7V94h-4.68V88.18h4.68V81h6.55v7.22h8.8Z"/><path class="cls-2" d="M236.84,70.37c4-5.25,11.55-12.77,25.33-12.77,15.53,0,25.17,9.75,25.17,23.95,0,9.06-4.61,15.37-10.7,21.67l-15.85,16.49h28.36v13.4h-49V121.93l26.23-26.87c3.92-4,6.09-8,6.09-12.72,0-6.46-4.5-11.07-11.34-11.07-7.05,0-11.23,3.81-15.05,8.16Z"/><path class="cls-2" d="M361.62,96c0,24-14.3,38.42-32,38.42s-32-14.42-32-38.42,14.2-38.42,32-38.42S361.62,72,361.62,96Zm-49.07,0c0,16.21,7.58,24.69,17.07,24.69s17.06-8.48,17.06-24.69-7.52-24.7-17.06-24.7S312.55,79.8,312.55,96Z"/><path class="cls-2" d="M403.06,90.88c0,9-7.05,15.63-16.53,15.63s-16.48-6.62-16.48-15.63,7-15.64,16.48-15.64S403.06,81.92,403.06,90.88Zm-22.89,0a6.36,6.36,0,1,0,6.36-6.2A6.11,6.11,0,0,0,380.17,90.88Zm14.26,42.23H382.08l41.28-56.75h12.35Zm53.62-14.57c0,9-7.1,15.63-16.58,15.63S415,127.5,415,118.54s7.1-15.63,16.48-15.63S448.05,109.53,448.05,118.54Zm-22.89,0a6.36,6.36,0,0,0,12.72,0,6.36,6.36,0,0,0-12.72,0Z"/><path d="M57.3,151a1.69,1.69,0,1,1-1.69-1.69A1.66,1.66,0,0,1,57.3,151Zm-.49,20.54h-2.4V156.41h2.4Z"/><path d="M76,162.17v9.4H73.57V163c0-2.88-1.6-4.58-4.37-4.58A4.46,4.46,0,0,0,64.56,163v8.55h-2.4V156.41h2.36v2.16a6,6,0,0,1,5.11-2.46C73.38,156.11,76,158.51,76,162.17Z"/><path d="M104.9,171.57h-2.39v-2.26A6.68,6.68,0,0,1,97,171.88a7.89,7.89,0,0,1,0-15.77,6.73,6.73,0,0,1,5.54,2.56v-2.26h2.39ZM91.84,164a5.41,5.41,0,1,0,5.42-5.63A5.39,5.39,0,0,0,91.84,164Z"/><path d="M112.67,171.57h-2.41v-23h2.41Z"/><path d="M120.38,171.57H118v-23h2.4Z"/><path d="M147.48,158.49l-1.54,1.62a5.82,5.82,0,0,0-4.15-1.76,5.65,5.65,0,0,0,0,11.28,6.09,6.09,0,0,0,4.2-1.77l1.49,1.63a7.38,7.38,0,0,1-5.62,2.39,7.89,7.89,0,0,1,0-15.77A7.34,7.34,0,0,1,147.48,158.49Z"/><path d="M165.8,164a8,8,0,1,1-8-7.87A7.76,7.76,0,0,1,165.8,164Zm-13.52,0a5.54,5.54,0,1,0,5.54-5.63A5.43,5.43,0,0,0,152.28,164Z"/><path d="M183.76,165.25c0,4.5-3.23,6.63-6.88,6.63s-6.89-2.13-6.89-6.63v-8.84h2.39V165c0,3.14,1.9,4.61,4.5,4.61s4.48-1.47,4.48-4.61v-8.61h2.4Z"/><path d="M202.77,162.17v9.4h-2.38V163c0-2.88-1.6-4.58-4.37-4.58a4.46,4.46,0,0,0-4.64,4.64v8.55H189V156.41h2.36v2.16a6,6,0,0,1,5.11-2.46C200.2,156.11,202.77,158.51,202.77,162.17Z"/><path d="M218.14,158.57h-6.55v7.65c0,2.37,1.25,3.41,3,3.41a5.5,5.5,0,0,0,3.18-1.07l1.12,1.81a7.33,7.33,0,0,1-4.49,1.51c-3.27,0-5.21-1.8-5.21-5.61v-7.7h-3.31v-2.16h3.31v-4.82h2.39v4.82h6.55Z"/><path d="M232,156.62l-.58,2.35a5.8,5.8,0,0,0-2.62-.6c-2.37,0-4.07,1.85-4.07,4.72v8.48h-2.39V156.41h2.37v2.13a5.31,5.31,0,0,1,4.5-2.43A6.5,6.5,0,0,1,232,156.62Z"/><path d="M238.42,151a1.67,1.67,0,0,1-1.7,1.69,1.69,1.69,0,0,1,0-3.38A1.68,1.68,0,0,1,238.42,151Zm-.5,20.54h-2.4V156.41h2.4Z"/><path d="M256.88,163.94a8.37,8.37,0,0,1-.05.89H244.68a5.16,5.16,0,0,0,5.37,4.95,7,7,0,0,0,4.8-1.91l1.28,1.64a8.54,8.54,0,0,1-6.23,2.37c-4.48,0-7.67-3.19-7.67-7.88s3.21-7.89,7.53-7.89C253.87,156.11,256.85,159.33,256.88,163.94Zm-12.16-1h9.73c-.31-2.84-2.16-4.66-4.74-4.66C246.91,158.24,245.1,160.16,244.72,162.9Z"/><path d="M271.38,159.63a9.46,9.46,0,0,0-5-1.42c-2.16,0-3.58.91-3.58,2.38,0,1.26,1.1,1.89,3.09,2.13l1.79.22c3.22.42,5.09,1.75,5.09,4.23,0,2.88-2.59,4.69-6.68,4.69a10.62,10.62,0,0,1-6.32-1.94l1.11-1.79a8,8,0,0,0,5.25,1.65c2.56,0,4.17-.85,4.17-2.45,0-1.22-1-2-3.17-2.21l-1.8-.21c-3.41-.41-5-1.93-5-4.19,0-2.87,2.41-4.6,6.05-4.6a11.12,11.12,0,0,1,6,1.65Z"/><path d="M302.92,169.09l4.56-12.68H310l-5.61,15.16h-2.83L297,159l-4.51,12.6H289.7l-5.6-15.16h2.54l4.53,12.66,4.52-12.66h2.69Z"/><path d="M315.88,158.53a6,6,0,0,1,5.08-2.42c3.74,0,6.32,2.4,6.32,6.06v9.4H324.9V163c0-2.88-1.61-4.58-4.37-4.58a4.46,4.46,0,0,0-4.65,4.64v8.55h-2.4v-23h2.4Z"/><path d="M346.19,163.94a6.37,6.37,0,0,1-.05.89H334a5.15,5.15,0,0,0,5.36,4.95,7,7,0,0,0,4.8-1.91l1.28,1.64a8.54,8.54,0,0,1-6.23,2.37c-4.48,0-7.66-3.19-7.66-7.88s3.2-7.89,7.52-7.89C343.18,156.11,346.16,159.33,346.19,163.94Zm-12.16-1h9.73c-.3-2.84-2.16-4.66-4.74-4.66C336.22,158.24,334.41,160.16,334,162.9Z"/><path d="M360.17,156.62l-.58,2.35a5.77,5.77,0,0,0-2.62-.6c-2.37,0-4.07,1.85-4.07,4.72v8.48h-2.38V156.41h2.37v2.13a5.3,5.3,0,0,1,4.5-2.43A6.48,6.48,0,0,1,360.17,156.62Z"/><path d="M376.87,163.94a8.37,8.37,0,0,1-.05.89H364.67a5.16,5.16,0,0,0,5.36,4.95,7,7,0,0,0,4.81-1.91l1.28,1.64a8.54,8.54,0,0,1-6.23,2.37c-4.48,0-7.67-3.19-7.67-7.88s3.2-7.89,7.53-7.89C373.86,156.11,376.84,159.33,376.87,163.94Zm-12.17-1h9.74c-.31-2.84-2.16-4.66-4.74-4.66C366.9,158.24,365.09,160.16,364.7,162.9Z"/><path d="M407.24,169.09l4.56-12.68h2.48l-5.6,15.16h-2.83L401.32,159l-4.52,12.6H394l-5.6-15.16H391l4.53,12.66L400,156.41h2.69Z"/><path d="M430.88,163.94a6.37,6.37,0,0,1-.05.89H418.68a5.16,5.16,0,0,0,5.37,4.95,7,7,0,0,0,4.8-1.91l1.28,1.64a8.54,8.54,0,0,1-6.23,2.37c-4.48,0-7.66-3.19-7.66-7.88s3.2-7.89,7.52-7.89C427.87,156.11,430.85,159.33,430.88,163.94Zm-12.16-1h9.73c-.31-2.84-2.16-4.66-4.74-4.66C420.91,158.24,419.1,160.16,418.72,162.9Z"/><path d="M58.9,194.53A6,6,0,0,1,64,192.11c3.75,0,6.33,2.4,6.33,6.06v9.4H67.91V199c0-2.88-1.6-4.58-4.37-4.58A4.46,4.46,0,0,0,58.9,199v8.55H56.5v-23h2.4Z"/><path d="M90,207.57H87.61v-2.26a6.67,6.67,0,0,1-5.53,2.57,7.89,7.89,0,0,1,0-15.77,6.72,6.72,0,0,1,5.53,2.56v-2.26H90ZM76.94,200a5.41,5.41,0,1,0,5.42-5.63A5.39,5.39,0,0,0,76.94,200Z"/><path d="M102.65,207.6H99.84l-6.46-15.19H96l5.3,12.76,5.3-12.76h2.53Z"/><path d="M125.44,199.94a6.37,6.37,0,0,1,0,.89H113.24a5.16,5.16,0,0,0,5.37,4.95,7,7,0,0,0,4.8-1.91l1.28,1.64a8.54,8.54,0,0,1-6.23,2.37c-4.48,0-7.66-3.19-7.66-7.88s3.2-7.89,7.52-7.89C122.43,192.11,125.41,195.33,125.44,199.94Zm-12.16-1H123c-.31-2.84-2.16-4.66-4.74-4.66C115.47,194.24,113.66,196.16,113.28,198.9Z"/><path d="M149.25,195.63a9.52,9.52,0,0,0-5-1.42c-2.17,0-3.59.91-3.59,2.38,0,1.26,1.1,1.89,3.09,2.13l1.79.22c3.22.42,5.09,1.75,5.09,4.23,0,2.88-2.59,4.69-6.67,4.69a10.64,10.64,0,0,1-6.33-1.94l1.11-1.79a8,8,0,0,0,5.25,1.65c2.56,0,4.18-.85,4.18-2.45,0-1.22-1-2-3.17-2.21l-1.81-.21c-3.41-.41-5-1.93-5-4.19,0-2.87,2.42-4.6,6.05-4.6a11.15,11.15,0,0,1,6,1.65Z"/><path d="M169.3,207.57h-2.38v-2.26a6.68,6.68,0,0,1-5.54,2.57,7.89,7.89,0,0,1,0-15.77,6.73,6.73,0,0,1,5.54,2.56v-2.26h2.38ZM156.24,200a5.41,5.41,0,1,0,5.43-5.63A5.39,5.39,0,0,0,156.24,200Z"/><path d="M177.07,207.57h-2.4v-23h2.4Z"/><path d="M197,207.57h-2.38v-2.26a6.68,6.68,0,0,1-5.54,2.57,7.89,7.89,0,0,1,0-15.77,6.73,6.73,0,0,1,5.54,2.56v-2.26H197ZM183.89,200a5.41,5.41,0,1,0,5.43-5.63A5.39,5.39,0,0,0,183.89,200Z"/><path d="M212,192.62,211.4,195a5.84,5.84,0,0,0-2.63-.6c-2.37,0-4.06,1.85-4.06,4.72v8.48h-2.39V192.41h2.37v2.13a5.3,5.3,0,0,1,4.5-2.43A6.45,6.45,0,0,1,212,192.62Z"/><path d="M218.39,187a1.66,1.66,0,0,1-1.69,1.69,1.69,1.69,0,0,1,0-3.38A1.67,1.67,0,0,1,218.39,187Zm-.49,20.54h-2.41V192.41h2.41Z"/><path d="M236.86,199.94a8.37,8.37,0,0,1-.05.89H224.66a5.16,5.16,0,0,0,5.36,4.95,7,7,0,0,0,4.8-1.91l1.28,1.64a8.52,8.52,0,0,1-6.22,2.37c-4.48,0-7.67-3.19-7.67-7.88s3.2-7.89,7.52-7.89C233.85,192.11,236.83,195.33,236.86,199.94Zm-12.17-1h9.73c-.3-2.84-2.16-4.66-4.73-4.66C226.88,194.24,225.08,196.16,224.69,198.9Z"/><path d="M253.36,194.67V184.52h2.38v23h-2.38v-2.26a6.69,6.69,0,0,1-5.54,2.57,7.89,7.89,0,0,1,0-15.77A6.74,6.74,0,0,1,253.36,194.67ZM242.68,200a5.41,5.41,0,1,0,5.43-5.63A5.39,5.39,0,0,0,242.68,200Z"/><path d="M284,199.94a6.37,6.37,0,0,1-.05.89H271.81a5.16,5.16,0,0,0,5.37,4.95,7,7,0,0,0,4.8-1.91l1.28,1.64a8.54,8.54,0,0,1-6.23,2.37c-4.48,0-7.66-3.19-7.66-7.88s3.2-7.89,7.52-7.89C281,192.11,284,195.33,284,199.94Zm-12.16-1h9.73c-.31-2.84-2.16-4.66-4.74-4.66C274,194.24,272.23,196.16,271.85,198.9Z"/><path d="M313.55,198.17v9.4h-2.39V199c0-2.88-1.6-4.58-4.38-4.58a4.46,4.46,0,0,0-4.64,4.64v8.55h-2.39V199c0-2.88-1.6-4.58-4.37-4.58a4.46,4.46,0,0,0-4.64,4.64v8.55h-2.4V192.41h2.37v2.16a6,6,0,0,1,5.1-2.46,6,6,0,0,1,5.69,3.18,6.16,6.16,0,0,1,5.71-3.18C311,192.11,313.55,194.51,313.55,198.17Z"/><path d="M334.34,200a7.56,7.56,0,0,1-7.57,7.9,6.68,6.68,0,0,1-5.52-2.55V214h-2.4V192.41h2.4v2.24a6.7,6.7,0,0,1,5.52-2.54A7.56,7.56,0,0,1,334.34,200Zm-13.25,0a5.4,5.4,0,1,0,5.39-5.63A5.35,5.35,0,0,0,321.09,200Z"/><path d="M341.16,207.57h-2.4v-23h2.4Z"/><path d="M361.46,200a8,8,0,1,1-8-7.87A7.76,7.76,0,0,1,361.46,200Zm-13.52,0a5.54,5.54,0,1,0,5.54-5.63A5.43,5.43,0,0,0,347.94,200Z"/><path d="M366.75,214h-2.64l5.65-9.75-7-11.88h2.67l5.65,9.51,5.35-9.51h2.62Z"/><path d="M395.08,199.94a6.37,6.37,0,0,1-.05.89H382.88a5.16,5.16,0,0,0,5.37,4.95,7,7,0,0,0,4.8-1.91l1.28,1.64a8.54,8.54,0,0,1-6.23,2.37c-4.48,0-7.66-3.19-7.66-7.88s3.2-7.89,7.52-7.89C392.07,192.11,395.05,195.33,395.08,199.94Zm-12.16-1h9.73c-.31-2.84-2.16-4.66-4.74-4.66C385.11,194.24,383.3,196.16,382.92,198.9Z"/><path d="M413.12,199.94a8.37,8.37,0,0,1-.05.89H400.92a5.15,5.15,0,0,0,5.36,4.95,7,7,0,0,0,4.8-1.91l1.28,1.64a8.52,8.52,0,0,1-6.22,2.37c-4.48,0-7.67-3.19-7.67-7.88s3.2-7.89,7.52-7.89C410.11,192.11,413.08,195.33,413.12,199.94Zm-12.17-1h9.73c-.3-2.84-2.16-4.66-4.73-4.66C403.14,194.24,401.34,196.16,401,198.9Z"/><path d="M427.62,195.63a9.49,9.49,0,0,0-5-1.42c-2.16,0-3.59.91-3.59,2.38,0,1.26,1.11,1.89,3.09,2.13l1.79.22c3.22.42,5.09,1.75,5.09,4.23,0,2.88-2.59,4.69-6.67,4.69a10.62,10.62,0,0,1-6.32-1.94l1.1-1.79a8,8,0,0,0,5.25,1.65c2.56,0,4.18-.85,4.18-2.45,0-1.22-1-2-3.17-2.21l-1.81-.21c-3.41-.41-5-1.93-5-4.19,0-2.87,2.42-4.6,6.05-4.6a11.15,11.15,0,0,1,6,1.65Z"/></svg>